<?xml version="1.0" encoding="UTF-8" standalone="no"?>
<!DOCTYPE svg PUBLIC "-//W3C//DTD SVG 1.1//EN"
 "http://www.w3.org/Graphics/SVG/1.1/DTD/svg11.dtd">
<!-- Generated by graphviz version 3.0.0 (20220413.0242)
 -->
<!-- Title: denoptim.io.DenoptimIO.writeGraphToSDF Pages: 1 -->
<svg width="949pt" height="214pt"
 viewBox="0.00 0.00 949.00 213.54" xmlns="http://www.w3.org/2000/svg" xmlns:xlink="http://www.w3.org/1999/xlink">
<g id="graph0" class="graph" transform="scale(1 1) rotate(0) translate(4 209.54)">
<title>denoptim.io.DenoptimIO.writeGraphToSDF</title>
<polygon fill="white" stroke="transparent" points="-4,4 -4,-209.54 945,-209.54 945,4 -4,4"/>
<!-- Node1 -->
<g id="node1" class="node">
<title>Node1</title>
<g id="a_node1"><a xlink:title="Writes the graph to SDF file.">
<polygon fill="#bfbfbf" stroke="black" points="798,-98.5 798,-128.5 941,-128.5 941,-98.5 798,-98.5"/>
<text text-anchor="start" x="806" y="-116.5" font-family="Helvetica,sans-Serif" font-size="10.00">denoptim.io.DenoptimIO.write</text>
<text text-anchor="middle" x="869.5" y="-105.5" font-family="Helvetica,sans-Serif" font-size="10.00">GraphToSDF</text>
</a>
</g>
</g>
<!-- Node2 -->
<g id="node2" class="node">
<title>Node2</title>
<g id="a_node2"><a xlink:href="classdenoptim_1_1fragspace_1_1_fragment_space.html#a32b0be109306e9c81fc830867296bc66" target="_top" xlink:title="Extracts a system of one or more fused rings and adds them to the fragment space if not already prese...">
<polygon fill="white" stroke="black" points="350,-169.5 350,-199.5 546,-199.5 546,-169.5 350,-169.5"/>
<text text-anchor="start" x="358" y="-187.5" font-family="Helvetica,sans-Serif" font-size="10.00">denoptim.fragspace.Fragment</text>
<text text-anchor="middle" x="448" y="-176.5" font-family="Helvetica,sans-Serif" font-size="10.00">Space.addFusedRingsToFragmentLibrary</text>
</a>
</g>
</g>
<!-- Node1&#45;&gt;Node2 -->
<g id="edge1" class="edge">
<title>Node1&#45;&gt;Node2</title>
<path fill="none" stroke="midnightblue" d="M845.81,-135.52C825.65,-153.43 794.43,-177.34 762,-187.5 688.49,-210.53 600.42,-207.14 536.46,-199.52"/>
<polygon fill="midnightblue" stroke="midnightblue" points="848.2,-138.08 853.22,-128.75 843.48,-132.9 848.2,-138.08"/>
</g>
<!-- Node3 -->
<g id="node3" class="node">
<title>Node3</title>
<g id="a_node3"><a xlink:href="classdenoptim_1_1ga_1_1_e_a_utils.html#a5cb6bbe9f383bf821f3b1f1c5e60031b" target="_top" xlink:title=" ">
<polygon fill="white" stroke="black" points="608.5,-98.5 608.5,-128.5 735.5,-128.5 735.5,-98.5 608.5,-98.5"/>
<text text-anchor="start" x="616.5" y="-116.5" font-family="Helvetica,sans-Serif" font-size="10.00">denoptim.ga.EAUtils.build</text>
<text text-anchor="middle" x="672" y="-105.5" font-family="Helvetica,sans-Serif" font-size="10.00">CandidateByMutation</text>
</a>
</g>
</g>
<!-- Node1&#45;&gt;Node3 -->
<g id="edge2" class="edge">
<title>Node1&#45;&gt;Node3</title>
<path fill="none" stroke="midnightblue" d="M787.79,-113.5C770.4,-113.5 752.27,-113.5 735.7,-113.5"/>
<polygon fill="midnightblue" stroke="midnightblue" points="787.92,-117 797.92,-113.5 787.92,-110 787.92,-117"/>
</g>
<!-- Node8 -->
<g id="node8" class="node">
<title>Node8</title>
<g id="a_node8"><a xlink:href="classdenoptim_1_1utils_1_1_molecule_utils.html#ae0fc307ce14bc73de8cb51459e122392" target="_top" xlink:title="Selects only the atoms that originate from a subgraph of a whole graph that originated the whole mole...">
<polygon fill="white" stroke="black" points="587,-147.5 587,-177.5 757,-177.5 757,-147.5 587,-147.5"/>
<text text-anchor="start" x="595" y="-165.5" font-family="Helvetica,sans-Serif" font-size="10.00">denoptim.utils.MoleculeUtils.extract</text>
<text text-anchor="middle" x="672" y="-154.5" font-family="Helvetica,sans-Serif" font-size="10.00">IACForSubgraph</text>
</a>
</g>
</g>
<!-- Node1&#45;&gt;Node8 -->
<g id="edge7" class="edge">
<title>Node1&#45;&gt;Node8</title>
<path fill="none" stroke="midnightblue" d="M798.77,-130.98C777.22,-136.38 753.69,-142.28 732.87,-147.49"/>
<polygon fill="midnightblue" stroke="midnightblue" points="799.67,-134.36 808.51,-128.53 797.96,-127.57 799.67,-134.36"/>
</g>
<!-- Node9 -->
<g id="node9" class="node">
<title>Node9</title>
<g id="a_node9"><a xlink:href="classdenoptim_1_1ga_1_1_graph_operations.html#a31415e2dbad52f4e03cdd7b5f42950a6" target="_top" xlink:title="Mutates the given vertex according to the given mutation type, if possible.">
<polygon fill="white" stroke="black" points="582,-49.5 582,-79.5 762,-79.5 762,-49.5 582,-49.5"/>
<text text-anchor="start" x="590" y="-67.5" font-family="Helvetica,sans-Serif" font-size="10.00">denoptim.ga.GraphOperations.perform</text>
<text text-anchor="middle" x="672" y="-56.5" font-family="Helvetica,sans-Serif" font-size="10.00">Mutation</text>
</a>
</g>
</g>
<!-- Node1&#45;&gt;Node9 -->
<g id="edge9" class="edge">
<title>Node1&#45;&gt;Node9</title>
<path fill="none" stroke="midnightblue" d="M798.77,-96.02C777.22,-90.62 753.69,-84.72 732.87,-79.51"/>
<polygon fill="midnightblue" stroke="midnightblue" points="797.96,-99.43 808.51,-98.47 799.67,-92.64 797.96,-99.43"/>
</g>
<!-- Node10 -->
<g id="node10" class="node">
<title>Node10</title>
<g id="a_node10"><a xlink:href="classdenoptim_1_1io_1_1_denoptim_i_o.html#a079563895e42e37bc3de1388dc1a2665" target="_top" xlink:title="Writes the a graph to file.">
<polygon fill="white" stroke="black" points="600.5,-0.5 600.5,-30.5 743.5,-30.5 743.5,-0.5 600.5,-0.5"/>
<text text-anchor="start" x="608.5" y="-18.5" font-family="Helvetica,sans-Serif" font-size="10.00">denoptim.io.DenoptimIO.write</text>
<text text-anchor="middle" x="672" y="-7.5" font-family="Helvetica,sans-Serif" font-size="10.00">GraphToFile</text>
</a>
</g>
</g>
<!-- Node1&#45;&gt;Node10 -->
<g id="edge10" class="edge">
<title>Node1&#45;&gt;Node10</title>
<path fill="none" stroke="midnightblue" d="M842.87,-91.9C822.21,-75.45 791.79,-53.35 762,-39.5 754.74,-36.13 746.93,-33.15 739.05,-30.56"/>
<polygon fill="midnightblue" stroke="midnightblue" points="840.86,-94.77 850.83,-98.34 845.26,-89.33 840.86,-94.77"/>
</g>
<!-- Node4 -->
<g id="node4" class="node">
<title>Node4</title>
<g id="a_node4"><a xlink:href="classdenoptim_1_1ga_1_1_evolutionary_algorithm.html#a596b2f5f0b097c5b67a6e5163bd6fe66" target="_top" xlink:title="Generates a given number of new candidate items and adds them to the current population.">
<polygon fill="white" stroke="black" points="381,-98.5 381,-128.5 515,-128.5 515,-98.5 381,-98.5"/>
<text text-anchor="start" x="389" y="-116.5" font-family="Helvetica,sans-Serif" font-size="10.00">denoptim.ga.Evolutionary</text>
<text text-anchor="middle" x="448" y="-105.5" font-family="Helvetica,sans-Serif" font-size="10.00">Algorithm.evolvePopulation</text>
</a>
</g>
</g>
<!-- Node3&#45;&gt;Node4 -->
<g id="edge3" class="edge">
<title>Node3&#45;&gt;Node4</title>
<path fill="none" stroke="midnightblue" d="M598.19,-113.5C571.39,-113.5 541.22,-113.5 515.06,-113.5"/>
<polygon fill="midnightblue" stroke="midnightblue" points="598.27,-117 608.27,-113.5 598.27,-110 598.27,-117"/>
</g>
<!-- Node5 -->
<g id="node5" class="node">
<title>Node5</title>
<g id="a_node5"><a xlink:href="classdenoptim_1_1ga_1_1_evolutionary_algorithm.html#a6bfc2fa59b199da6259b5b6bad3d6de7" target="_top" xlink:title=" ">
<polygon fill="white" stroke="black" points="190,-98.5 190,-128.5 314,-128.5 314,-98.5 190,-98.5"/>
<text text-anchor="start" x="198" y="-116.5" font-family="Helvetica,sans-Serif" font-size="10.00">denoptim.ga.Evolutionary</text>
<text text-anchor="middle" x="252" y="-105.5" font-family="Helvetica,sans-Serif" font-size="10.00">Algorithm.run</text>
</a>
</g>
</g>
<!-- Node4&#45;&gt;Node5 -->
<g id="edge4" class="edge">
<title>Node4&#45;&gt;Node5</title>
<path fill="none" stroke="midnightblue" d="M370.75,-113.5C351.93,-113.5 332.02,-113.5 314.03,-113.5"/>
<polygon fill="midnightblue" stroke="midnightblue" points="370.78,-117 380.78,-113.5 370.78,-110 370.78,-117"/>
</g>
<!-- Node6 -->
<g id="node6" class="node">
<title>Node6</title>
<g id="a_node6"><a xlink:href="classdenoptim_1_1ga_1_1_evolutionary_algorithm.html#a0f2063b722b7291daf83d62acaa683d3" target="_top" xlink:title=" ">
<polygon fill="white" stroke="black" points="0,-123.5 0,-153.5 154,-153.5 154,-123.5 0,-123.5"/>
<text text-anchor="start" x="8" y="-141.5" font-family="Helvetica,sans-Serif" font-size="10.00">denoptim.ga.Evolutionary</text>
<text text-anchor="middle" x="77" y="-130.5" font-family="Helvetica,sans-Serif" font-size="10.00">Algorithm.EvolutionaryAlgorithm</text>
</a>
</g>
</g>
<!-- Node5&#45;&gt;Node6 -->
<g id="edge5" class="edge">
<title>Node5&#45;&gt;Node6</title>
<path fill="none" stroke="midnightblue" d="M179.44,-123.84C171.09,-125.05 162.54,-126.28 154.12,-127.5"/>
<polygon fill="midnightblue" stroke="midnightblue" points="180.12,-127.28 189.52,-122.38 179.12,-120.35 180.12,-127.28"/>
</g>
<!-- Node7 -->
<g id="node7" class="node">
<title>Node7</title>
<g id="a_node7"><a xlink:href="classdenoptim_1_1programs_1_1denovo_1_1_g_a_runner.html#a7cafd6d78727b89dce3e2c8d06f0dd7c" target="_top" xlink:title=" ">
<polygon fill="white" stroke="black" points="9.5,-74.5 9.5,-104.5 144.5,-104.5 144.5,-74.5 9.5,-74.5"/>
<text text-anchor="start" x="17.5" y="-92.5" font-family="Helvetica,sans-Serif" font-size="10.00">denoptim.programs.denovo.</text>
<text text-anchor="middle" x="77" y="-81.5" font-family="Helvetica,sans-Serif" font-size="10.00">GARunner.runProgram</text>
</a>
</g>
</g>
<!-- Node5&#45;&gt;Node7 -->
<g id="edge6" class="edge">
<title>Node5&#45;&gt;Node7</title>
<path fill="none" stroke="midnightblue" d="M179.48,-103.58C167.92,-101.97 156,-100.32 144.57,-98.73"/>
<polygon fill="midnightblue" stroke="midnightblue" points="179.13,-107.06 189.52,-104.97 180.1,-100.13 179.13,-107.06"/>
</g>
<!-- Node8&#45;&gt;Node2 -->
<g id="edge8" class="edge">
<title>Node8&#45;&gt;Node2</title>
<path fill="none" stroke="midnightblue" d="M576.73,-171.84C566.63,-172.84 556.34,-173.86 546.21,-174.87"/>
<polygon fill="midnightblue" stroke="midnightblue" points="577.15,-175.32 586.75,-170.85 576.46,-168.35 577.15,-175.32"/>
</g>
</g>
</svg>
