<?xml version="1.0" encoding="UTF-8" standalone="no"?>
<!DOCTYPE svg PUBLIC "-//W3C//DTD SVG 1.1//EN"
 "http://www.w3.org/Graphics/SVG/1.1/DTD/svg11.dtd">
<!-- Generated by graphviz version 3.0.0 (20220413.0242)
 -->
<!-- Title: denoptim.graph.DGraph.getSymSetForVertex Pages: 1 -->
<svg width="1830pt" height="633pt"
 viewBox="0.00 0.00 1830.00 632.83" xmlns="http://www.w3.org/2000/svg" xmlns:xlink="http://www.w3.org/1999/xlink">
<g id="graph0" class="graph" transform="scale(1 1) rotate(0) translate(4 628.83)">
<title>denoptim.graph.DGraph.getSymSetForVertex</title>
<polygon fill="white" stroke="transparent" points="-4,4 -4,-628.83 1826,-628.83 1826,4 -4,4"/>
<!-- Node1 -->
<g id="node1" class="node">
<title>Node1</title>
<g id="a_node1"><a xlink:title=" ">
<polygon fill="#bfbfbf" stroke="black" points="1688,-166.5 1688,-196.5 1822,-196.5 1822,-166.5 1688,-166.5"/>
<text text-anchor="start" x="1696" y="-184.5" font-family="Helvetica,sans-Serif" font-size="10.00">denoptim.graph.DGraph.get</text>
<text text-anchor="middle" x="1755" y="-173.5" font-family="Helvetica,sans-Serif" font-size="10.00">SymSetForVertex</text>
</a>
</g>
</g>
<!-- Node2 -->
<g id="node2" class="node">
<title>Node2</title>
<g id="a_node2"><a xlink:href="classdenoptim_1_1graph_1_1_d_graph.html#a691da5435e53ae7835b8c58bc0bf3495" target="_top" xlink:title="Looks for any symmetric labels, creates symmetric sets that collect the same information,...">
<polygon fill="white" stroke="black" points="1482,-519.5 1482,-549.5 1652,-549.5 1652,-519.5 1482,-519.5"/>
<text text-anchor="start" x="1490" y="-537.5" font-family="Helvetica,sans-Serif" font-size="10.00">denoptim.graph.DGraph.convert</text>
<text text-anchor="middle" x="1567" y="-526.5" font-family="Helvetica,sans-Serif" font-size="10.00">SymmetricLabelsToSymmetricSets</text>
</a>
</g>
</g>
<!-- Node1&#45;&gt;Node2 -->
<g id="edge1" class="edge">
<title>Node1&#45;&gt;Node2</title>
<path fill="none" stroke="midnightblue" d="M1741.21,-205.77C1705.43,-273.67 1605.01,-464.26 1575.96,-519.39"/>
<polygon fill="midnightblue" stroke="midnightblue" points="1744.44,-207.15 1746.01,-196.67 1738.25,-203.88 1744.44,-207.15"/>
</g>
<!-- Node11 -->
<g id="node11" class="node">
<title>Node11</title>
<g id="a_node11"><a xlink:href="classdenoptim_1_1graph_1_1_d_graph.html#a305c9a12afe5bb190894fcd730ef299a" target="_top" xlink:title="Checks if this graph is &quot;DENOPTIM&#45;isomorphic&quot; to the other one given.">
<polygon fill="white" stroke="black" points="1503,-235.5 1503,-265.5 1631,-265.5 1631,-235.5 1503,-235.5"/>
<text text-anchor="start" x="1511" y="-253.5" font-family="Helvetica,sans-Serif" font-size="10.00">denoptim.graph.DGraph.is</text>
<text text-anchor="middle" x="1567" y="-242.5" font-family="Helvetica,sans-Serif" font-size="10.00">IsomorphicTo</text>
</a>
</g>
</g>
<!-- Node1&#45;&gt;Node11 -->
<g id="edge10" class="edge">
<title>Node1&#45;&gt;Node11</title>
<path fill="none" stroke="midnightblue" d="M1703.79,-200.13C1673.99,-211.18 1636.69,-225.02 1608.72,-235.39"/>
<polygon fill="midnightblue" stroke="midnightblue" points="1705.02,-203.4 1713.18,-196.64 1702.59,-196.84 1705.02,-203.4"/>
</g>
<!-- Node27 -->
<g id="node27" class="node">
<title>Node27</title>
<g id="a_node27"><a xlink:href="classdenoptim_1_1graph_1_1_d_graph.html#afb3a5b3a5e8d74babc82474f8458b91f" target="_top" xlink:title="Checks if this graph is &quot;DENOPTIM&#45;isostructural&quot; to the other one given.">
<polygon fill="white" stroke="black" points="1503,-98.5 1503,-128.5 1631,-128.5 1631,-98.5 1503,-98.5"/>
<text text-anchor="start" x="1511" y="-116.5" font-family="Helvetica,sans-Serif" font-size="10.00">denoptim.graph.DGraph.is</text>
<text text-anchor="middle" x="1567" y="-105.5" font-family="Helvetica,sans-Serif" font-size="10.00">IsostructuralTo</text>
</a>
</g>
</g>
<!-- Node1&#45;&gt;Node27 -->
<g id="edge31" class="edge">
<title>Node1&#45;&gt;Node27</title>
<path fill="none" stroke="midnightblue" d="M1703.01,-162.86C1673.49,-152.07 1636.83,-138.66 1609.16,-128.55"/>
<polygon fill="midnightblue" stroke="midnightblue" points="1702.13,-166.26 1712.72,-166.41 1704.53,-159.69 1702.13,-166.26"/>
</g>
<!-- Node29 -->
<g id="node29" class="node">
<title>Node29</title>
<g id="a_node29"><a xlink:href="classdenoptim_1_1graph_1_1_d_graph_test.html#a3b99d7012da487a88acf937e3c9f5ea4" target="_top" xlink:title=" ">
<polygon fill="white" stroke="black" points="1489,-49.5 1489,-79.5 1645,-79.5 1645,-49.5 1489,-49.5"/>
<text text-anchor="start" x="1497" y="-67.5" font-family="Helvetica,sans-Serif" font-size="10.00">denoptim.graph.DGraphTest.test</text>
<text text-anchor="middle" x="1567" y="-56.5" font-family="Helvetica,sans-Serif" font-size="10.00">ReplaceVertex</text>
</a>
</g>
</g>
<!-- Node1&#45;&gt;Node29 -->
<g id="edge37" class="edge">
<title>Node1&#45;&gt;Node29</title>
<path fill="none" stroke="midnightblue" d="M1734.34,-158.72C1715.24,-137.92 1684.45,-107.72 1652,-89.5 1645.23,-85.7 1637.83,-82.42 1630.31,-79.61"/>
<polygon fill="midnightblue" stroke="midnightblue" points="1731.77,-161.09 1741.06,-166.18 1736.97,-156.41 1731.77,-161.09"/>
</g>
<!-- Node3 -->
<g id="node3" class="node">
<title>Node3</title>
<g id="a_node3"><a xlink:href="classdenoptim_1_1graph_1_1_d_graph.html#a86e888ef245d2bd40b49d145c7ef3af0" target="_top" xlink:title="Replaced the subgraph represented by a given collection of vertices that belong to this graph.">
<polygon fill="white" stroke="black" points="1039,-541.5 1039,-571.5 1191,-571.5 1191,-541.5 1039,-541.5"/>
<text text-anchor="start" x="1047" y="-559.5" font-family="Helvetica,sans-Serif" font-size="10.00">denoptim.graph.DGraph.replace</text>
<text text-anchor="middle" x="1115" y="-548.5" font-family="Helvetica,sans-Serif" font-size="10.00">SubGraph</text>
</a>
</g>
</g>
<!-- Node2&#45;&gt;Node3 -->
<g id="edge2" class="edge">
<title>Node2&#45;&gt;Node3</title>
<path fill="none" stroke="midnightblue" d="M1540.53,-556.09C1517.53,-574.07 1481.86,-598.33 1446,-608.5 1358.77,-633.23 1330.94,-626.13 1242,-608.5 1206.48,-601.46 1168.41,-584.26 1143.53,-571.56"/>
<polygon fill="midnightblue" stroke="midnightblue" points="1542.79,-558.76 1548.41,-549.78 1538.42,-553.29 1542.79,-558.76"/>
</g>
<!-- Node8 -->
<g id="node8" class="node">
<title>Node8</title>
<g id="a_node8"><a xlink:href="classdenoptim_1_1graph_1_1_d_graph.html#adc362402e41af41656e820def73de5ad" target="_top" xlink:title="Replaced a given vertex belonging to this graph with a new vertex generated specifically for this pur...">
<polygon fill="white" stroke="black" points="1268,-568.5 1268,-598.5 1420,-598.5 1420,-568.5 1268,-568.5"/>
<text text-anchor="start" x="1276" y="-586.5" font-family="Helvetica,sans-Serif" font-size="10.00">denoptim.graph.DGraph.replace</text>
<text text-anchor="middle" x="1344" y="-575.5" font-family="Helvetica,sans-Serif" font-size="10.00">Vertex</text>
</a>
</g>
</g>
<!-- Node2&#45;&gt;Node8 -->
<g id="edge7" class="edge">
<title>Node2&#45;&gt;Node8</title>
<path fill="none" stroke="midnightblue" d="M1488.16,-551.76C1463.54,-557.22 1436.53,-563.21 1412.68,-568.49"/>
<polygon fill="midnightblue" stroke="midnightblue" points="1489.19,-555.12 1498.19,-549.53 1487.67,-548.28 1489.19,-555.12"/>
</g>
<!-- Node9 -->
<g id="node9" class="node">
<title>Node9</title>
<g id="a_node9"><a xlink:href="classdenoptim_1_1graph_1_1_d_graph_test.html#a88c2fd8a1b401d9aa25bf85869bc28c7" target="_top" xlink:title=" ">
<polygon fill="white" stroke="black" points="1242,-519.5 1242,-549.5 1446,-549.5 1446,-519.5 1242,-519.5"/>
<text text-anchor="start" x="1250" y="-537.5" font-family="Helvetica,sans-Serif" font-size="10.00">denoptim.graph.DGraphTest.test</text>
<text text-anchor="middle" x="1344" y="-526.5" font-family="Helvetica,sans-Serif" font-size="10.00">ConvertSymmetricLabelsToSymmetricSets</text>
</a>
</g>
</g>
<!-- Node2&#45;&gt;Node9 -->
<g id="edge8" class="edge">
<title>Node2&#45;&gt;Node9</title>
<path fill="none" stroke="midnightblue" d="M1471.57,-534.5C1463.11,-534.5 1454.52,-534.5 1446,-534.5"/>
<polygon fill="midnightblue" stroke="midnightblue" points="1471.82,-538 1481.82,-534.5 1471.82,-531 1471.82,-538"/>
</g>
<!-- Node10 -->
<g id="node10" class="node">
<title>Node10</title>
<g id="a_node10"><a xlink:href="classdenoptim_1_1graph_1_1_d_graph_test.html#a83a9624ea5dc6a2c515407b865b62611" target="_top" xlink:title=" ">
<polygon fill="white" stroke="black" points="1266,-470.5 1266,-500.5 1422,-500.5 1422,-470.5 1266,-470.5"/>
<text text-anchor="start" x="1274" y="-488.5" font-family="Helvetica,sans-Serif" font-size="10.00">denoptim.graph.DGraphTest.test</text>
<text text-anchor="middle" x="1344" y="-477.5" font-family="Helvetica,sans-Serif" font-size="10.00">ReplaceSubGraph</text>
</a>
</g>
</g>
<!-- Node2&#45;&gt;Node10 -->
<g id="edge9" class="edge">
<title>Node2&#45;&gt;Node10</title>
<path fill="none" stroke="midnightblue" d="M1488.16,-517.24C1463.54,-511.78 1436.53,-505.79 1412.68,-500.51"/>
<polygon fill="midnightblue" stroke="midnightblue" points="1487.67,-520.72 1498.19,-519.47 1489.19,-513.88 1487.67,-520.72"/>
</g>
<!-- Node4 -->
<g id="node4" class="node">
<title>Node4</title>
<g id="a_node4"><a xlink:href="classdenoptim_1_1ga_1_1_graph_operations.html#affb1be89a32e4a429bd7dbdfe0708419" target="_top" xlink:title="Performs the crossover that swaps the two subgraphs defining the given XoverSite.">
<polygon fill="white" stroke="black" points="590,-424.5 590,-454.5 770,-454.5 770,-424.5 590,-424.5"/>
<text text-anchor="start" x="598" y="-442.5" font-family="Helvetica,sans-Serif" font-size="10.00">denoptim.ga.GraphOperations.perform</text>
<text text-anchor="middle" x="680" y="-431.5" font-family="Helvetica,sans-Serif" font-size="10.00">Crossover</text>
</a>
</g>
</g>
<!-- Node3&#45;&gt;Node4 -->
<g id="edge3" class="edge">
<title>Node3&#45;&gt;Node4</title>
<path fill="none" stroke="midnightblue" d="M1048.49,-538.8C963.53,-515.84 816.79,-476.19 736.85,-454.59"/>
<polygon fill="midnightblue" stroke="midnightblue" points="1047.71,-542.21 1058.28,-541.44 1049.54,-535.46 1047.71,-542.21"/>
</g>
<!-- Node5 -->
<g id="node5" class="node">
<title>Node5</title>
<g id="a_node5"><a xlink:href="classdenoptim_1_1ga_1_1_e_a_utils.html#a98553265dd4b441b11c6d97d098edb08" target="_top" xlink:title="Generates a new offspring by performing a crossover operation.">
<polygon fill="white" stroke="black" points="0,-380.5 0,-410.5 127,-410.5 127,-380.5 0,-380.5"/>
<text text-anchor="start" x="8" y="-398.5" font-family="Helvetica,sans-Serif" font-size="10.00">denoptim.ga.EAUtils.build</text>
<text text-anchor="middle" x="63.5" y="-387.5" font-family="Helvetica,sans-Serif" font-size="10.00">CandidateByXOver</text>
</a>
</g>
</g>
<!-- Node4&#45;&gt;Node5 -->
<g id="edge4" class="edge">
<title>Node4&#45;&gt;Node5</title>
<path fill="none" stroke="midnightblue" d="M579.72,-442.05C475.41,-443.28 306.84,-441.16 163,-420.5 147.28,-418.24 130.44,-414.48 115.21,-410.55"/>
<polygon fill="midnightblue" stroke="midnightblue" points="579.97,-445.54 589.92,-441.91 579.88,-438.54 579.97,-445.54"/>
</g>
<!-- Node6 -->
<g id="node6" class="node">
<title>Node6</title>
<g id="a_node6"><a xlink:href="classdenoptim_1_1programs_1_1genetweeker_1_1_gene_ops_runner.html#ab0f92a94c4fb2334e7d3813e73fc4247" target="_top" xlink:title=" ">
<polygon fill="white" stroke="black" points="380,-380.5 380,-410.5 539,-410.5 539,-380.5 380,-380.5"/>
<text text-anchor="start" x="388" y="-398.5" font-family="Helvetica,sans-Serif" font-size="10.00">denoptim.programs.genetweeker.</text>
<text text-anchor="middle" x="459.5" y="-387.5" font-family="Helvetica,sans-Serif" font-size="10.00">GeneOpsRunner.runXOver</text>
</a>
</g>
</g>
<!-- Node4&#45;&gt;Node6 -->
<g id="edge5" class="edge">
<title>Node4&#45;&gt;Node6</title>
<path fill="none" stroke="midnightblue" d="M594.59,-422.5C574.99,-418.56 554.26,-414.38 535.12,-410.53"/>
<polygon fill="midnightblue" stroke="midnightblue" points="593.92,-425.94 604.42,-424.48 595.3,-419.08 593.92,-425.94"/>
</g>
<!-- Node7 -->
<g id="node7" class="node">
<title>Node7</title>
<g id="a_node7"><a xlink:href="classdenoptim_1_1programs_1_1genetweeker_1_1_gene_ops_runner.html#a3c2407eb1204a7b25600d3d347d98447" target="_top" xlink:title=" ">
<polygon fill="white" stroke="black" points="166.5,-380.5 166.5,-410.5 325.5,-410.5 325.5,-380.5 166.5,-380.5"/>
<text text-anchor="start" x="174.5" y="-398.5" font-family="Helvetica,sans-Serif" font-size="10.00">denoptim.programs.genetweeker.</text>
<text text-anchor="middle" x="246" y="-387.5" font-family="Helvetica,sans-Serif" font-size="10.00">GeneOpsRunner.runProgram</text>
</a>
</g>
</g>
<!-- Node6&#45;&gt;Node7 -->
<g id="edge6" class="edge">
<title>Node6&#45;&gt;Node7</title>
<path fill="none" stroke="midnightblue" d="M369.74,-395.5C355.16,-395.5 340.14,-395.5 325.82,-395.5"/>
<polygon fill="midnightblue" stroke="midnightblue" points="369.75,-399 379.75,-395.5 369.75,-392 369.75,-399"/>
</g>
<!-- Node11&#45;&gt;Node10 -->
<g id="edge29" class="edge">
<title>Node11&#45;&gt;Node10</title>
<path fill="none" stroke="midnightblue" d="M1558.23,-275.45C1543.48,-318.66 1507.31,-407.43 1446,-455.5 1438.15,-461.65 1429.07,-466.54 1419.64,-470.43"/>
<polygon fill="midnightblue" stroke="midnightblue" points="1561.62,-276.33 1561.44,-265.73 1554.98,-274.13 1561.62,-276.33"/>
</g>
<!-- Node12 -->
<g id="node12" class="node">
<title>Node12</title>
<g id="a_node12"><a xlink:href="classdenoptim_1_1ga_1_1_graph_operations.html#ad30a49493cb4fbbee21a7589929bc680" target="_top" xlink:title="Identify crossover sites, i.e., subgraphs that can be swapped between two graphs (i....">
<polygon fill="white" stroke="black" points="593.5,-268.5 593.5,-298.5 766.5,-298.5 766.5,-268.5 593.5,-268.5"/>
<text text-anchor="start" x="601.5" y="-286.5" font-family="Helvetica,sans-Serif" font-size="10.00">denoptim.ga.GraphOperations.locate</text>
<text text-anchor="middle" x="680" y="-275.5" font-family="Helvetica,sans-Serif" font-size="10.00">CompatibleXOverPoints</text>
</a>
</g>
</g>
<!-- Node11&#45;&gt;Node12 -->
<g id="edge11" class="edge">
<title>Node11&#45;&gt;Node12</title>
<path fill="none" stroke="midnightblue" d="M1557.42,-275.13C1542.12,-314.72 1505.99,-391.21 1446,-422.5 1317.64,-489.46 867.31,-346.62 724.67,-298.55"/>
<polygon fill="midnightblue" stroke="midnightblue" points="1560.72,-276.28 1560.94,-265.69 1554.16,-273.84 1560.72,-276.28"/>
</g>
<!-- Node18 -->
<g id="node18" class="node">
<title>Node18</title>
<g id="a_node18"><a xlink:href="classdenoptim_1_1ga_1_1_graph_operations.html#a65b1468961ba53b217848640d8fd5232" target="_top" xlink:title="Given a pair of seed vertexes that define where a pair of subgraphs stars in the corresponding origin...">
<polygon fill="white" stroke="black" points="1024,-142.5 1024,-172.5 1206,-172.5 1206,-142.5 1024,-142.5"/>
<text text-anchor="start" x="1032" y="-160.5" font-family="Helvetica,sans-Serif" font-size="10.00">denoptim.ga.GraphOperations.process</text>
<text text-anchor="middle" x="1115" y="-149.5" font-family="Helvetica,sans-Serif" font-size="10.00">PermutationOfEndPoints</text>
</a>
</g>
</g>
<!-- Node11&#45;&gt;Node18 -->
<g id="edge20" class="edge">
<title>Node11&#45;&gt;Node18</title>
<path fill="none" stroke="midnightblue" d="M1539.51,-229.12C1516.35,-211.78 1481.03,-188.47 1446,-177.5 1367.67,-152.97 1273.88,-149.6 1206.35,-151.41"/>
<polygon fill="midnightblue" stroke="midnightblue" points="1537.4,-231.91 1547.47,-235.21 1541.65,-226.35 1537.4,-231.91"/>
</g>
<!-- Node20 -->
<g id="node20" class="node">
<title>Node20</title>
<g id="a_node20"><a xlink:href="classdenoptim_1_1programs_1_1graphlisthandler_1_1_graph_lists_handler.html#a82e75728262a789cc27189d910b5c74a" target="_top" xlink:title=" ">
<polygon fill="white" stroke="black" points="1258,-382.5 1258,-412.5 1430,-412.5 1430,-382.5 1258,-382.5"/>
<text text-anchor="start" x="1266" y="-400.5" font-family="Helvetica,sans-Serif" font-size="10.00">denoptim.programs.graphlisthandler.</text>
<text text-anchor="middle" x="1344" y="-389.5" font-family="Helvetica,sans-Serif" font-size="10.00">GraphListsHandler.runProgram</text>
</a>
</g>
</g>
<!-- Node11&#45;&gt;Node20 -->
<g id="edge23" class="edge">
<title>Node11&#45;&gt;Node20</title>
<path fill="none" stroke="midnightblue" d="M1549.61,-274.08C1528.81,-302.17 1490.27,-348.42 1446,-373.5 1439.88,-376.97 1433.29,-379.93 1426.5,-382.47"/>
<polygon fill="midnightblue" stroke="midnightblue" points="1552.69,-275.8 1555.72,-265.65 1547.02,-271.69 1552.69,-275.8"/>
</g>
<!-- Node21 -->
<g id="node21" class="node">
<title>Node21</title>
<g id="a_node21"><a xlink:href="classdenoptim_1_1programs_1_1isomorphism_1_1_isomorphism.html#a558ff128682d8685e2c95b8eeea85461" target="_top" xlink:title=" ">
<polygon fill="white" stroke="black" points="1264.5,-333.5 1264.5,-363.5 1423.5,-363.5 1423.5,-333.5 1264.5,-333.5"/>
<text text-anchor="start" x="1272.5" y="-351.5" font-family="Helvetica,sans-Serif" font-size="10.00">denoptim.programs.isomorphism.</text>
<text text-anchor="middle" x="1344" y="-340.5" font-family="Helvetica,sans-Serif" font-size="10.00">Isomorphism.runProgram</text>
</a>
</g>
</g>
<!-- Node11&#45;&gt;Node21 -->
<g id="edge24" class="edge">
<title>Node11&#45;&gt;Node21</title>
<path fill="none" stroke="midnightblue" d="M1537.43,-271.76C1513.96,-288.31 1479.28,-310.7 1446,-324.5 1437.84,-327.88 1429.11,-330.85 1420.31,-333.43"/>
<polygon fill="midnightblue" stroke="midnightblue" points="1539.76,-274.4 1545.85,-265.74 1535.68,-268.71 1539.76,-274.4"/>
</g>
<!-- Node22 -->
<g id="node22" class="node">
<title>Node22</title>
<g id="a_node22"><a xlink:href="classdenoptim_1_1ga_1_1_e_a_utils_test.html#ae0baa3684be9b8a4af611083649a9e6d" target="_top" xlink:title=" ">
<polygon fill="white" stroke="black" points="1245.5,-98.5 1245.5,-128.5 1442.5,-128.5 1442.5,-98.5 1245.5,-98.5"/>
<text text-anchor="start" x="1253.5" y="-116.5" font-family="Helvetica,sans-Serif" font-size="10.00">denoptim.ga.EAUtilsTest.test</text>
<text text-anchor="middle" x="1344" y="-105.5" font-family="Helvetica,sans-Serif" font-size="10.00">BuildByXOver_Embedded_FixedStructure</text>
</a>
</g>
</g>
<!-- Node11&#45;&gt;Node22 -->
<g id="edge25" class="edge">
<title>Node11&#45;&gt;Node22</title>
<path fill="none" stroke="midnightblue" d="M1546.31,-227.79C1524.18,-203.62 1486.09,-165.84 1446,-143.5 1435.21,-137.49 1423.1,-132.56 1411.1,-128.57"/>
<polygon fill="midnightblue" stroke="midnightblue" points="1543.88,-230.34 1553.18,-235.43 1549.09,-225.65 1543.88,-230.34"/>
</g>
<!-- Node23 -->
<g id="node23" class="node">
<title>Node23</title>
<g id="a_node23"><a xlink:href="classdenoptim_1_1graph_1_1_d_graph_test.html#a6b4a7a889a0e36c8b2dc97bcd8055c9e" target="_top" xlink:title=" ">
<polygon fill="white" stroke="black" points="1266,-284.5 1266,-314.5 1422,-314.5 1422,-284.5 1266,-284.5"/>
<text text-anchor="start" x="1274" y="-302.5" font-family="Helvetica,sans-Serif" font-size="10.00">denoptim.graph.DGraphTest.test</text>
<text text-anchor="middle" x="1344" y="-291.5" font-family="Helvetica,sans-Serif" font-size="10.00">ExtractSubgraph</text>
</a>
</g>
</g>
<!-- Node11&#45;&gt;Node23 -->
<g id="edge26" class="edge">
<title>Node11&#45;&gt;Node23</title>
<path fill="none" stroke="midnightblue" d="M1493.2,-266.64C1467.29,-272.39 1438.23,-278.83 1412.76,-284.48"/>
<polygon fill="midnightblue" stroke="midnightblue" points="1493.96,-270.06 1502.97,-264.48 1492.45,-263.22 1493.96,-270.06"/>
</g>
<!-- Node24 -->
<g id="node24" class="node">
<title>Node24</title>
<g id="a_node24"><a xlink:href="classdenoptim_1_1graph_1_1_d_graph_test.html#a02791a3f61db5dd584dec5c3995ec72c" target="_top" xlink:title=" ">
<polygon fill="white" stroke="black" points="1266,-235.5 1266,-265.5 1422,-265.5 1422,-235.5 1266,-235.5"/>
<text text-anchor="start" x="1274" y="-253.5" font-family="Helvetica,sans-Serif" font-size="10.00">denoptim.graph.DGraphTest.test</text>
<text text-anchor="middle" x="1344" y="-242.5" font-family="Helvetica,sans-Serif" font-size="10.00">GraphIsomorphism</text>
</a>
</g>
</g>
<!-- Node11&#45;&gt;Node24 -->
<g id="edge27" class="edge">
<title>Node11&#45;&gt;Node24</title>
<path fill="none" stroke="midnightblue" d="M1492.75,-250.5C1470.13,-250.5 1445.15,-250.5 1422.26,-250.5"/>
<polygon fill="midnightblue" stroke="midnightblue" points="1492.97,-254 1502.97,-250.5 1492.97,-247 1492.97,-254"/>
</g>
<!-- Node25 -->
<g id="node25" class="node">
<title>Node25</title>
<g id="a_node25"><a xlink:href="classdenoptim_1_1graph_1_1_d_graph_test.html#aea227d615f6c2f3bac5839a8099a900d" target="_top" xlink:title=" ">
<polygon fill="white" stroke="black" points="1266,-49.5 1266,-79.5 1422,-79.5 1422,-49.5 1266,-49.5"/>
<text text-anchor="start" x="1274" y="-67.5" font-family="Helvetica,sans-Serif" font-size="10.00">denoptim.graph.DGraphTest.test</text>
<text text-anchor="middle" x="1344" y="-56.5" font-family="Helvetica,sans-Serif" font-size="10.00">IsIsostructuralTo</text>
</a>
</g>
</g>
<!-- Node11&#45;&gt;Node25 -->
<g id="edge28" class="edge">
<title>Node11&#45;&gt;Node25</title>
<path fill="none" stroke="midnightblue" d="M1548.51,-227.31C1531.47,-204.7 1504.87,-169.3 1482,-138.5 1465.89,-116.8 1468.46,-104.53 1446,-89.5 1438.72,-84.63 1430.57,-80.7 1422.15,-77.54"/>
<polygon fill="midnightblue" stroke="midnightblue" points="1545.73,-229.44 1554.54,-235.32 1551.32,-225.23 1545.73,-229.44"/>
</g>
<!-- Node26 -->
<g id="node26" class="node">
<title>Node26</title>
<g id="a_node26"><a xlink:href="classdenoptim_1_1graph_1_1_d_graph_test.html#a0b946dc2730c68f796c37e5f5cea4e36" target="_top" xlink:title=" ">
<polygon fill="white" stroke="black" points="1266,-186.5 1266,-216.5 1422,-216.5 1422,-186.5 1266,-186.5"/>
<text text-anchor="start" x="1274" y="-204.5" font-family="Helvetica,sans-Serif" font-size="10.00">denoptim.graph.DGraphTest.test</text>
<text text-anchor="middle" x="1344" y="-193.5" font-family="Helvetica,sans-Serif" font-size="10.00">ReplaceVertex_inRing</text>
</a>
</g>
</g>
<!-- Node11&#45;&gt;Node26 -->
<g id="edge30" class="edge">
<title>Node11&#45;&gt;Node26</title>
<path fill="none" stroke="midnightblue" d="M1493.2,-234.36C1467.29,-228.61 1438.23,-222.17 1412.76,-216.52"/>
<polygon fill="midnightblue" stroke="midnightblue" points="1492.45,-237.78 1502.97,-236.52 1493.96,-230.94 1492.45,-237.78"/>
</g>
<!-- Node12&#45;&gt;Node6 -->
<g id="edge18" class="edge">
<title>Node12&#45;&gt;Node6</title>
<path fill="none" stroke="midnightblue" d="M640.5,-303.24C597.47,-325.29 528.75,-360.52 489.85,-380.46"/>
<polygon fill="midnightblue" stroke="midnightblue" points="642.23,-306.28 649.53,-298.6 639.04,-300.05 642.23,-306.28"/>
</g>
<!-- Node12&#45;&gt;Node12 -->
<g id="edge17" class="edge">
<title>Node12&#45;&gt;Node12</title>
<path fill="none" stroke="midnightblue" d="M718.38,-308.96C713.62,-313.68 700.82,-317 680,-317 645.83,-317 633.28,-308.06 642.36,-298.66"/>
<polygon fill="midnightblue" stroke="midnightblue" points="721.85,-308.38 717.64,-298.66 714.87,-308.88 721.85,-308.38"/>
</g>
<!-- Node13 -->
<g id="node13" class="node">
<title>Node13</title>
<g id="a_node13"><a xlink:href="classdenoptim_1_1ga_1_1_population.html#ab303d612f90e917a7b1b49eadc93c76e" target="_top" xlink:title="Returns a list of population members that can do crossover with the specified member.">
<polygon fill="white" stroke="black" points="393,-292.5 393,-322.5 526,-322.5 526,-292.5 393,-292.5"/>
<text text-anchor="start" x="401" y="-310.5" font-family="Helvetica,sans-Serif" font-size="10.00">denoptim.ga.Population.get</text>
<text text-anchor="middle" x="459.5" y="-299.5" font-family="Helvetica,sans-Serif" font-size="10.00">XoverPartners</text>
</a>
</g>
</g>
<!-- Node12&#45;&gt;Node13 -->
<g id="edge12" class="edge">
<title>Node12&#45;&gt;Node13</title>
<path fill="none" stroke="midnightblue" d="M583.24,-294.02C563.92,-296.14 544.04,-298.32 526.05,-300.3"/>
<polygon fill="midnightblue" stroke="midnightblue" points="583.71,-297.49 593.27,-292.92 582.95,-290.53 583.71,-297.49"/>
</g>
<!-- Node17 -->
<g id="node17" class="node">
<title>Node17</title>
<g id="a_node17"><a xlink:href="classdenoptim_1_1ga_1_1_graph_operations_test.html#a9fcf8fffef10a59df722c92e94da2815" target="_top" xlink:title=" ">
<polygon fill="white" stroke="black" points="365,-243.5 365,-273.5 554,-273.5 554,-243.5 365,-243.5"/>
<text text-anchor="start" x="373" y="-261.5" font-family="Helvetica,sans-Serif" font-size="10.00">denoptim.ga.GraphOperations</text>
<text text-anchor="middle" x="459.5" y="-250.5" font-family="Helvetica,sans-Serif" font-size="10.00">Test.testLocateCompatibleXOverPoints</text>
</a>
</g>
</g>
<!-- Node12&#45;&gt;Node17 -->
<g id="edge19" class="edge">
<title>Node12&#45;&gt;Node17</title>
<path fill="none" stroke="midnightblue" d="M583.3,-272.55C573.67,-271.45 563.89,-270.33 554.28,-269.23"/>
<polygon fill="midnightblue" stroke="midnightblue" points="582.94,-276.03 593.27,-273.69 583.73,-269.08 582.94,-276.03"/>
</g>
<!-- Node14 -->
<g id="node14" class="node">
<title>Node14</title>
<g id="a_node14"><a xlink:href="classdenoptim_1_1ga_1_1_e_a_utils.html#af1c589b6d5ba261e1417f3cd299e8e5d" target="_top" xlink:title="Perform fitness&#45;based, class&#45;compatible selection of parents that can do crossover operations.">
<polygon fill="white" stroke="black" points="163,-342 163,-361 329,-361 329,-342 163,-342"/>
<text text-anchor="middle" x="246" y="-349" font-family="Helvetica,sans-Serif" font-size="10.00">denoptim.ga.EAUtils.performFBCC</text>
</a>
</g>
</g>
<!-- Node13&#45;&gt;Node14 -->
<g id="edge13" class="edge">
<title>Node13&#45;&gt;Node14</title>
<path fill="none" stroke="midnightblue" d="M382.71,-323.27C352.69,-329.51 319.16,-336.49 292.94,-341.94"/>
<polygon fill="midnightblue" stroke="midnightblue" points="383.66,-326.64 392.74,-321.18 382.24,-319.79 383.66,-326.64"/>
</g>
<!-- Node15 -->
<g id="node15" class="node">
<title>Node15</title>
<g id="a_node15"><a xlink:href="classdenoptim_1_1ga_1_1_population_test.html#a5db0672054a9fc1dbc923310732fdb3a" target="_top" xlink:title=" ">
<polygon fill="white" stroke="black" points="168.5,-292.5 168.5,-322.5 323.5,-322.5 323.5,-292.5 168.5,-292.5"/>
<text text-anchor="start" x="176.5" y="-310.5" font-family="Helvetica,sans-Serif" font-size="10.00">denoptim.ga.PopulationTest.test</text>
<text text-anchor="middle" x="246" y="-299.5" font-family="Helvetica,sans-Serif" font-size="10.00">Clone</text>
</a>
</g>
</g>
<!-- Node13&#45;&gt;Node15 -->
<g id="edge15" class="edge">
<title>Node13&#45;&gt;Node15</title>
<path fill="none" stroke="midnightblue" d="M382.59,-307.5C363.49,-307.5 342.98,-307.5 323.83,-307.5"/>
<polygon fill="midnightblue" stroke="midnightblue" points="382.74,-311 392.74,-307.5 382.74,-304 382.74,-311"/>
</g>
<!-- Node16 -->
<g id="node16" class="node">
<title>Node16</title>
<g id="a_node16"><a xlink:href="classdenoptim_1_1ga_1_1_population_test.html#a278212ebff2501b7071d342f9a027599" target="_top" xlink:title=" ">
<polygon fill="white" stroke="black" points="168.5,-243.5 168.5,-273.5 323.5,-273.5 323.5,-243.5 168.5,-243.5"/>
<text text-anchor="start" x="176.5" y="-261.5" font-family="Helvetica,sans-Serif" font-size="10.00">denoptim.ga.PopulationTest.test</text>
<text text-anchor="middle" x="246" y="-250.5" font-family="Helvetica,sans-Serif" font-size="10.00">XOverCompatibility</text>
</a>
</g>
</g>
<!-- Node13&#45;&gt;Node16 -->
<g id="edge16" class="edge">
<title>Node13&#45;&gt;Node16</title>
<path fill="none" stroke="midnightblue" d="M383.69,-290.17C360.21,-284.73 334.5,-278.77 311.77,-273.51"/>
<polygon fill="midnightblue" stroke="midnightblue" points="383.07,-293.62 393.61,-292.47 384.65,-286.8 383.07,-293.62"/>
</g>
<!-- Node14&#45;&gt;Node5 -->
<g id="edge14" class="edge">
<title>Node14&#45;&gt;Node5</title>
<path fill="none" stroke="midnightblue" d="M195.96,-363.46C174.49,-368.69 149.05,-374.89 126.3,-380.43"/>
<polygon fill="midnightblue" stroke="midnightblue" points="196.95,-366.82 205.83,-361.05 195.29,-360.02 196.95,-366.82"/>
</g>
<!-- Node19 -->
<g id="node19" class="node">
<title>Node19</title>
<g id="a_node19"><a xlink:href="classdenoptim_1_1ga_1_1_graph_operations.html#a5d90c6e2fa30f287f8f69ed3367ccd0e" target="_top" xlink:title="Given a pair of seed vertexes that define where a pair of subgraphs stars in the corresponding origin...">
<polygon fill="white" stroke="black" points="806,-185.5 806,-215.5 988,-215.5 988,-185.5 806,-185.5"/>
<text text-anchor="start" x="814" y="-203.5" font-family="Helvetica,sans-Serif" font-size="10.00">denoptim.ga.GraphOperations.process</text>
<text text-anchor="middle" x="897" y="-192.5" font-family="Helvetica,sans-Serif" font-size="10.00">CombinationOfEndPoints</text>
</a>
</g>
</g>
<!-- Node18&#45;&gt;Node19 -->
<g id="edge21" class="edge">
<title>Node18&#45;&gt;Node19</title>
<path fill="none" stroke="midnightblue" d="M1028.47,-174.53C1010.31,-178.14 991.26,-181.93 973.5,-185.47"/>
<polygon fill="midnightblue" stroke="midnightblue" points="1029.33,-177.92 1038.45,-172.54 1027.96,-171.06 1029.33,-177.92"/>
</g>
<!-- Node19&#45;&gt;Node12 -->
<g id="edge22" class="edge">
<title>Node19&#45;&gt;Node12</title>
<path fill="none" stroke="midnightblue" d="M847.61,-219.18C809.07,-234.06 755.84,-254.61 720.01,-268.44"/>
<polygon fill="midnightblue" stroke="midnightblue" points="849,-222.4 857.07,-215.53 846.48,-215.87 849,-222.4"/>
</g>
<!-- Node27&#45;&gt;Node22 -->
<g id="edge35" class="edge">
<title>Node27&#45;&gt;Node22</title>
<path fill="none" stroke="midnightblue" d="M1492.65,-113.5C1476.68,-113.5 1459.54,-113.5 1442.79,-113.5"/>
<polygon fill="midnightblue" stroke="midnightblue" points="1492.97,-117 1502.97,-113.5 1492.97,-110 1492.97,-117"/>
</g>
<!-- Node27&#45;&gt;Node25 -->
<g id="edge36" class="edge">
<title>Node27&#45;&gt;Node25</title>
<path fill="none" stroke="midnightblue" d="M1493.2,-97.36C1467.29,-91.61 1438.23,-85.17 1412.76,-79.52"/>
<polygon fill="midnightblue" stroke="midnightblue" points="1492.45,-100.78 1502.97,-99.52 1493.96,-93.94 1492.45,-100.78"/>
</g>
<!-- Node28 -->
<g id="node28" class="node">
<title>Node28</title>
<g id="a_node28"><a xlink:href="classdenoptim_1_1ga_1_1_graph_operations.html#a27ba99409e7aaa6b6f6f3d40737863ca" target="_top" xlink:title="Here we check that the given subgraphs have a mapping that allows to swap them, and full fill any oth...">
<polygon fill="white" stroke="black" points="1257.5,-0.5 1257.5,-30.5 1430.5,-30.5 1430.5,-0.5 1257.5,-0.5"/>
<text text-anchor="start" x="1265.5" y="-18.5" font-family="Helvetica,sans-Serif" font-size="10.00">denoptim.ga.GraphOperations.check</text>
<text text-anchor="middle" x="1344" y="-7.5" font-family="Helvetica,sans-Serif" font-size="10.00">AndAddXoverSites</text>
</a>
</g>
</g>
<!-- Node27&#45;&gt;Node28 -->
<g id="edge32" class="edge">
<title>Node27&#45;&gt;Node28</title>
<path fill="none" stroke="midnightblue" d="M1493.68,-96.42C1489.59,-94.37 1485.66,-92.07 1482,-89.5 1459.6,-73.76 1468.75,-54.74 1446,-39.5 1440.83,-36.04 1435.23,-33.08 1429.39,-30.54"/>
<polygon fill="midnightblue" stroke="midnightblue" points="1492.29,-99.63 1502.85,-100.53 1495.16,-93.25 1492.29,-99.63"/>
</g>
<!-- Node28&#45;&gt;Node12 -->
<g id="edge33" class="edge">
<title>Node28&#45;&gt;Node12</title>
<path fill="none" stroke="midnightblue" d="M1247.3,-31.32C1135.97,-52.56 949.15,-97.14 806,-176.5 760.53,-201.71 716.53,-245.15 694.9,-268.17"/>
<polygon fill="midnightblue" stroke="midnightblue" points="1248,-34.75 1257.17,-29.46 1246.7,-27.88 1248,-34.75"/>
</g>
<!-- Node28&#45;&gt;Node18 -->
<g id="edge34" class="edge">
<title>Node28&#45;&gt;Node18</title>
<path fill="none" stroke="midnightblue" d="M1251.48,-34.54C1248.22,-36.07 1245.05,-37.72 1242,-39.5 1221.64,-51.41 1222.89,-62.03 1206,-78.5 1182.19,-101.73 1152.98,-126.78 1134.43,-142.3"/>
<polygon fill="midnightblue" stroke="midnightblue" points="1253.04,-37.68 1260.88,-30.55 1250.3,-31.24 1253.04,-37.68"/>
</g>
</g>
</svg>
