<?xml version="1.0" encoding="UTF-8" standalone="no"?>
<!DOCTYPE svg PUBLIC "-//W3C//DTD SVG 1.1//EN"
 "http://www.w3.org/Graphics/SVG/1.1/DTD/svg11.dtd">
<!-- Generated by graphviz version 3.0.0 (20220413.0242)
 -->
<!-- Title: denoptim.programs.denovo.GAParameters.getDataDirectory Pages: 1 -->
<svg width="1086pt" height="314pt"
 viewBox="0.00 0.00 1086.00 314.00" xmlns="http://www.w3.org/2000/svg" xmlns:xlink="http://www.w3.org/1999/xlink">
<g id="graph0" class="graph" transform="scale(1 1) rotate(0) translate(4 310)">
<title>denoptim.programs.denovo.GAParameters.getDataDirectory</title>
<polygon fill="white" stroke="transparent" points="-4,4 -4,-310 1082,-310 1082,4 -4,4"/>
<!-- Node1 -->
<g id="node1" class="node">
<title>Node1</title>
<g id="a_node1"><a xlink:title=" ">
<polygon fill="#bfbfbf" stroke="black" points="923,-177.5 923,-207.5 1078,-207.5 1078,-177.5 923,-177.5"/>
<text text-anchor="start" x="931" y="-195.5" font-family="Helvetica,sans-Serif" font-size="10.00">denoptim.programs.denovo.</text>
<text text-anchor="middle" x="1000.5" y="-184.5" font-family="Helvetica,sans-Serif" font-size="10.00">GAParameters.getDataDirectory</text>
</a>
</g>
</g>
<!-- Node2 -->
<g id="node2" class="node">
<title>Node2</title>
<g id="a_node2"><a xlink:href="classdenoptim_1_1ga_1_1_e_a_utils.html#ad39481eb0dbcd086533e464e7a5215c2" target="_top" xlink:title=" ">
<polygon fill="white" stroke="black" points="720,-275.5 720,-305.5 887,-305.5 887,-275.5 720,-275.5"/>
<text text-anchor="start" x="728" y="-293.5" font-family="Helvetica,sans-Serif" font-size="10.00">denoptim.ga.EAUtils.getPath</text>
<text text-anchor="middle" x="803.5" y="-282.5" font-family="Helvetica,sans-Serif" font-size="10.00">NameToFinalPopulationDetailsFile</text>
</a>
</g>
</g>
<!-- Node1&#45;&gt;Node2 -->
<g id="edge1" class="edge">
<title>Node1&#45;&gt;Node2</title>
<path fill="none" stroke="midnightblue" d="M972.05,-213.94C950.07,-230.24 917.92,-252.23 887,-266.5 879.82,-269.81 872.08,-272.78 864.32,-275.41"/>
<polygon fill="midnightblue" stroke="midnightblue" points="974.35,-216.59 980.24,-207.78 970.14,-210.99 974.35,-216.59"/>
</g>
<!-- Node4 -->
<g id="node4" class="node">
<title>Node4</title>
<g id="a_node4"><a xlink:href="classdenoptim_1_1ga_1_1_e_a_utils.html#a49c400fc7999f4db03f824bce500c5f1" target="_top" xlink:title=" ">
<polygon fill="white" stroke="black" points="729.5,-226.5 729.5,-256.5 877.5,-256.5 877.5,-226.5 729.5,-226.5"/>
<text text-anchor="start" x="737.5" y="-244.5" font-family="Helvetica,sans-Serif" font-size="10.00">denoptim.ga.EAUtils.getPath</text>
<text text-anchor="middle" x="803.5" y="-233.5" font-family="Helvetica,sans-Serif" font-size="10.00">NameToFinalPopulationFolder</text>
</a>
</g>
</g>
<!-- Node1&#45;&gt;Node4 -->
<g id="edge3" class="edge">
<title>Node1&#45;&gt;Node4</title>
<path fill="none" stroke="midnightblue" d="M929.95,-209.98C908.46,-215.38 884.99,-221.28 864.22,-226.49"/>
<polygon fill="midnightblue" stroke="midnightblue" points="930.82,-213.37 939.67,-207.53 929.12,-206.58 930.82,-213.37"/>
</g>
<!-- Node5 -->
<g id="node5" class="node">
<title>Node5</title>
<g id="a_node5"><a xlink:href="classdenoptim_1_1ga_1_1_e_a_utils.html#aeb642f3a46a239c05e36bf385e7f5243" target="_top" xlink:title=" ">
<polygon fill="white" stroke="black" points="730,-177.5 730,-207.5 877,-207.5 877,-177.5 730,-177.5"/>
<text text-anchor="start" x="738" y="-195.5" font-family="Helvetica,sans-Serif" font-size="10.00">denoptim.ga.EAUtils.getPath</text>
<text text-anchor="middle" x="803.5" y="-184.5" font-family="Helvetica,sans-Serif" font-size="10.00">NameToGenerationDetailsFile</text>
</a>
</g>
</g>
<!-- Node1&#45;&gt;Node5 -->
<g id="edge5" class="edge">
<title>Node1&#45;&gt;Node5</title>
<path fill="none" stroke="midnightblue" d="M912.67,-192.5C900.85,-192.5 888.82,-192.5 877.28,-192.5"/>
<polygon fill="midnightblue" stroke="midnightblue" points="912.99,-196 922.99,-192.5 912.99,-189 912.99,-196"/>
</g>
<!-- Node10 -->
<g id="node10" class="node">
<title>Node10</title>
<g id="a_node10"><a xlink:href="classdenoptim_1_1ga_1_1_e_a_utils.html#ad094b30fa7e429418af3f5ba26addfa4" target="_top" xlink:title=" ">
<polygon fill="white" stroke="black" points="733.5,-128.5 733.5,-158.5 873.5,-158.5 873.5,-128.5 733.5,-128.5"/>
<text text-anchor="start" x="741.5" y="-146.5" font-family="Helvetica,sans-Serif" font-size="10.00">denoptim.ga.EAUtils.getPath</text>
<text text-anchor="middle" x="803.5" y="-135.5" font-family="Helvetica,sans-Serif" font-size="10.00">NameToGenerationFolder</text>
</a>
</g>
</g>
<!-- Node1&#45;&gt;Node10 -->
<g id="edge10" class="edge">
<title>Node1&#45;&gt;Node10</title>
<path fill="none" stroke="midnightblue" d="M929.95,-175.02C908.46,-169.62 884.99,-163.72 864.22,-158.51"/>
<polygon fill="midnightblue" stroke="midnightblue" points="929.12,-178.42 939.67,-177.47 930.82,-171.63 929.12,-178.42"/>
</g>
<!-- Node15 -->
<g id="node15" class="node">
<title>Node15</title>
<g id="a_node15"><a xlink:href="classdenoptim_1_1programs_1_1denovo_1_1_g_a_parameters_test.html#a5f81adfed5156347b58d54172f7618d8" target="_top" xlink:title=" ">
<polygon fill="white" stroke="black" points="726.5,-79.5 726.5,-109.5 880.5,-109.5 880.5,-79.5 726.5,-79.5"/>
<text text-anchor="start" x="734.5" y="-97.5" font-family="Helvetica,sans-Serif" font-size="10.00">denoptim.programs.denovo.</text>
<text text-anchor="middle" x="803.5" y="-86.5" font-family="Helvetica,sans-Serif" font-size="10.00">GAParametersTest.testLogging</text>
</a>
</g>
</g>
<!-- Node1&#45;&gt;Node15 -->
<g id="edge21" class="edge">
<title>Node1&#45;&gt;Node15</title>
<path fill="none" stroke="midnightblue" d="M971.56,-171.18C949.55,-155.19 917.57,-133.7 887,-119.5 878.99,-115.78 870.29,-112.45 861.65,-109.52"/>
<polygon fill="midnightblue" stroke="midnightblue" points="969.64,-174.12 979.77,-177.23 973.79,-168.48 969.64,-174.12"/>
</g>
<!-- Node3 -->
<g id="node3" class="node">
<title>Node3</title>
<g id="a_node3"><a xlink:href="classdenoptim_1_1ga_1_1_e_a_utils.html#a01ee989f992e0cff04e3498b63d6c0b0" target="_top" xlink:title="Simply copies the files from the previous directories into the specified folder.">
<polygon fill="white" stroke="black" points="538,-270.5 538,-300.5 672,-300.5 672,-270.5 538,-270.5"/>
<text text-anchor="start" x="546" y="-288.5" font-family="Helvetica,sans-Serif" font-size="10.00">denoptim.ga.EAUtils.output</text>
<text text-anchor="middle" x="605" y="-277.5" font-family="Helvetica,sans-Serif" font-size="10.00">FinalResults</text>
</a>
</g>
</g>
<!-- Node2&#45;&gt;Node3 -->
<g id="edge2" class="edge">
<title>Node2&#45;&gt;Node3</title>
<path fill="none" stroke="midnightblue" d="M709.66,-288.14C697.04,-287.82 684.3,-287.49 672.27,-287.19"/>
<polygon fill="midnightblue" stroke="midnightblue" points="709.65,-291.64 719.74,-288.39 709.83,-284.64 709.65,-291.64"/>
</g>
<!-- Node4&#45;&gt;Node3 -->
<g id="edge4" class="edge">
<title>Node4&#45;&gt;Node3</title>
<path fill="none" stroke="midnightblue" d="M725.21,-258.81C707.65,-262.74 689.15,-266.88 672.11,-270.7"/>
<polygon fill="midnightblue" stroke="midnightblue" points="726.43,-262.12 735.43,-256.52 724.9,-255.29 726.43,-262.12"/>
</g>
<!-- Node6 -->
<g id="node6" class="node">
<title>Node6</title>
<g id="a_node6"><a xlink:href="classdenoptim_1_1ga_1_1_evolutionary_algorithm.html#a6bfc2fa59b199da6259b5b6bad3d6de7" target="_top" xlink:title=" ">
<polygon fill="white" stroke="black" points="190,-98.5 190,-128.5 314,-128.5 314,-98.5 190,-98.5"/>
<text text-anchor="start" x="198" y="-116.5" font-family="Helvetica,sans-Serif" font-size="10.00">denoptim.ga.Evolutionary</text>
<text text-anchor="middle" x="252" y="-105.5" font-family="Helvetica,sans-Serif" font-size="10.00">Algorithm.run</text>
</a>
</g>
</g>
<!-- Node5&#45;&gt;Node6 -->
<g id="edge6" class="edge">
<title>Node5&#45;&gt;Node6</title>
<path fill="none" stroke="midnightblue" d="M733.34,-209.61C717.25,-212.89 700.11,-215.82 684,-217.5 614.16,-224.79 595.25,-229.16 526,-217.5 444.36,-203.75 427.02,-186.86 350,-156.5 328.06,-147.85 303.81,-137.1 285.05,-128.52"/>
<polygon fill="midnightblue" stroke="midnightblue" points="734.14,-213.02 743.21,-207.53 732.7,-206.17 734.14,-213.02"/>
</g>
<!-- Node9 -->
<g id="node9" class="node">
<title>Node9</title>
<g id="a_node9"><a xlink:href="classdenoptim_1_1io_1_1_denoptim_i_o_test.html#af5c2f9114881ebde82a83f922c0c23fe" target="_top" xlink:title=" ">
<polygon fill="white" stroke="black" points="526,-177.5 526,-207.5 684,-207.5 684,-177.5 526,-177.5"/>
<text text-anchor="start" x="534" y="-195.5" font-family="Helvetica,sans-Serif" font-size="10.00">denoptim.io.DenoptimIOTest.test</text>
<text text-anchor="middle" x="605" y="-184.5" font-family="Helvetica,sans-Serif" font-size="10.00">ReadGenerationFromSummary</text>
</a>
</g>
</g>
<!-- Node5&#45;&gt;Node9 -->
<g id="edge9" class="edge">
<title>Node5&#45;&gt;Node9</title>
<path fill="none" stroke="midnightblue" d="M719.67,-192.5C707.94,-192.5 695.9,-192.5 684.25,-192.5"/>
<polygon fill="midnightblue" stroke="midnightblue" points="719.89,-196 729.89,-192.5 719.89,-189 719.89,-196"/>
</g>
<!-- Node7 -->
<g id="node7" class="node">
<title>Node7</title>
<g id="a_node7"><a xlink:href="classdenoptim_1_1ga_1_1_evolutionary_algorithm.html#a0f2063b722b7291daf83d62acaa683d3" target="_top" xlink:title=" ">
<polygon fill="white" stroke="black" points="0,-123.5 0,-153.5 154,-153.5 154,-123.5 0,-123.5"/>
<text text-anchor="start" x="8" y="-141.5" font-family="Helvetica,sans-Serif" font-size="10.00">denoptim.ga.Evolutionary</text>
<text text-anchor="middle" x="77" y="-130.5" font-family="Helvetica,sans-Serif" font-size="10.00">Algorithm.EvolutionaryAlgorithm</text>
</a>
</g>
</g>
<!-- Node6&#45;&gt;Node7 -->
<g id="edge7" class="edge">
<title>Node6&#45;&gt;Node7</title>
<path fill="none" stroke="midnightblue" d="M179.44,-123.84C171.09,-125.05 162.54,-126.28 154.12,-127.5"/>
<polygon fill="midnightblue" stroke="midnightblue" points="180.12,-127.28 189.52,-122.38 179.12,-120.35 180.12,-127.28"/>
</g>
<!-- Node8 -->
<g id="node8" class="node">
<title>Node8</title>
<g id="a_node8"><a xlink:href="classdenoptim_1_1programs_1_1denovo_1_1_g_a_runner.html#a7cafd6d78727b89dce3e2c8d06f0dd7c" target="_top" xlink:title=" ">
<polygon fill="white" stroke="black" points="9.5,-74.5 9.5,-104.5 144.5,-104.5 144.5,-74.5 9.5,-74.5"/>
<text text-anchor="start" x="17.5" y="-92.5" font-family="Helvetica,sans-Serif" font-size="10.00">denoptim.programs.denovo.</text>
<text text-anchor="middle" x="77" y="-81.5" font-family="Helvetica,sans-Serif" font-size="10.00">GARunner.runProgram</text>
</a>
</g>
</g>
<!-- Node6&#45;&gt;Node8 -->
<g id="edge8" class="edge">
<title>Node6&#45;&gt;Node8</title>
<path fill="none" stroke="midnightblue" d="M179.48,-103.58C167.92,-101.97 156,-100.32 144.57,-98.73"/>
<polygon fill="midnightblue" stroke="midnightblue" points="179.13,-107.06 189.52,-104.97 180.1,-100.13 179.13,-107.06"/>
</g>
<!-- Node10&#45;&gt;Node9 -->
<g id="edge20" class="edge">
<title>Node10&#45;&gt;Node9</title>
<path fill="none" stroke="midnightblue" d="M732.41,-160.98C710.76,-166.38 687.1,-172.28 666.18,-177.49"/>
<polygon fill="midnightblue" stroke="midnightblue" points="733.35,-164.35 742.21,-158.53 731.66,-157.56 733.35,-164.35"/>
</g>
<!-- Node11 -->
<g id="node11" class="node">
<title>Node11</title>
<g id="a_node11"><a xlink:href="classdenoptim_1_1ga_1_1_e_a_utils.html#aab14b898988cd607e9d08f09f2ba10cb" target="_top" xlink:title="Creates a folder meant to hold all the data generated during a generation.">
<polygon fill="white" stroke="black" points="538,-128.5 538,-158.5 672,-158.5 672,-128.5 538,-128.5"/>
<text text-anchor="start" x="546" y="-146.5" font-family="Helvetica,sans-Serif" font-size="10.00">denoptim.ga.EAUtils.create</text>
<text text-anchor="middle" x="605" y="-135.5" font-family="Helvetica,sans-Serif" font-size="10.00">FolderForGeneration</text>
</a>
</g>
</g>
<!-- Node10&#45;&gt;Node11 -->
<g id="edge11" class="edge">
<title>Node10&#45;&gt;Node11</title>
<path fill="none" stroke="midnightblue" d="M723.1,-143.5C706.2,-143.5 688.53,-143.5 672.19,-143.5"/>
<polygon fill="midnightblue" stroke="midnightblue" points="723.5,-147 733.5,-143.5 723.5,-140 723.5,-147"/>
</g>
<!-- Node12 -->
<g id="node12" class="node">
<title>Node12</title>
<g id="a_node12"><a xlink:href="classdenoptim_1_1ga_1_1_evolutionary_algorithm.html#a596b2f5f0b097c5b67a6e5163bd6fe66" target="_top" xlink:title="Generates a given number of new candidate items and adds them to the current population.">
<polygon fill="white" stroke="black" points="353,-98.5 353,-128.5 487,-128.5 487,-98.5 353,-98.5"/>
<text text-anchor="start" x="361" y="-116.5" font-family="Helvetica,sans-Serif" font-size="10.00">denoptim.ga.Evolutionary</text>
<text text-anchor="middle" x="420" y="-105.5" font-family="Helvetica,sans-Serif" font-size="10.00">Algorithm.evolvePopulation</text>
</a>
</g>
</g>
<!-- Node10&#45;&gt;Node12 -->
<g id="edge15" class="edge">
<title>Node10&#45;&gt;Node12</title>
<path fill="none" stroke="midnightblue" d="M728.78,-126.47C714.02,-123.66 698.58,-121.13 684,-119.5 617.28,-112.04 540.46,-111.17 487.15,-111.78"/>
<polygon fill="midnightblue" stroke="midnightblue" points="728.38,-129.96 738.87,-128.46 729.73,-123.09 728.38,-129.96"/>
</g>
<!-- Node13 -->
<g id="node13" class="node">
<title>Node13</title>
<g id="a_node13"><a xlink:href="classdenoptim_1_1ga_1_1_e_a_utils.html#aecbe9af608218e129a006ddae17ac66b" target="_top" xlink:title="Reads unique identifiers and initial population files according to the GAParameters.">
<polygon fill="white" stroke="black" points="353,-49.5 353,-79.5 487,-79.5 487,-49.5 353,-49.5"/>
<text text-anchor="start" x="361" y="-67.5" font-family="Helvetica,sans-Serif" font-size="10.00">denoptim.ga.EAUtils.import</text>
<text text-anchor="middle" x="420" y="-56.5" font-family="Helvetica,sans-Serif" font-size="10.00">InitialPopulation</text>
</a>
</g>
</g>
<!-- Node10&#45;&gt;Node13 -->
<g id="edge16" class="edge">
<title>Node10&#45;&gt;Node13</title>
<path fill="none" stroke="midnightblue" d="M739.82,-125.54C733.12,-123.54 726.41,-121.5 720,-119.5 703.9,-114.48 700.37,-111.54 684,-107.5 617.86,-91.18 540.79,-79.41 487.25,-72.35"/>
<polygon fill="midnightblue" stroke="midnightblue" points="739.01,-128.95 749.6,-128.44 741,-122.24 739.01,-128.95"/>
</g>
<!-- Node14 -->
<g id="node14" class="node">
<title>Node14</title>
<g id="a_node14"><a xlink:href="classdenoptim_1_1ga_1_1_evolutionary_algorithm.html#ad43588620dab3340e0d8b0042ec73618" target="_top" xlink:title="Fills up the population with candidates build from scratch.">
<polygon fill="white" stroke="black" points="350,-0.5 350,-30.5 490,-30.5 490,-0.5 350,-0.5"/>
<text text-anchor="start" x="358" y="-18.5" font-family="Helvetica,sans-Serif" font-size="10.00">denoptim.ga.Evolutionary</text>
<text text-anchor="middle" x="420" y="-7.5" font-family="Helvetica,sans-Serif" font-size="10.00">Algorithm.initializePopulation</text>
</a>
</g>
</g>
<!-- Node10&#45;&gt;Node14 -->
<g id="edge18" class="edge">
<title>Node10&#45;&gt;Node14</title>
<path fill="none" stroke="midnightblue" d="M727.16,-123.87C724.69,-122.51 722.3,-121.05 720,-119.5 698.5,-104.95 705.97,-87.33 684,-73.5 625.24,-36.51 546.16,-22.91 490.1,-18.02"/>
<polygon fill="midnightblue" stroke="midnightblue" points="725.87,-127.13 736.39,-128.4 728.96,-120.85 725.87,-127.13"/>
</g>
<!-- Node11&#45;&gt;Node6 -->
<g id="edge14" class="edge">
<title>Node11&#45;&gt;Node6</title>
<path fill="none" stroke="midnightblue" d="M527.68,-146.6C477.06,-147.53 409.28,-146.61 350,-138.5 334.32,-136.35 317.53,-132.58 302.4,-128.6"/>
<polygon fill="midnightblue" stroke="midnightblue" points="527.97,-150.1 537.89,-146.38 527.82,-143.1 527.97,-150.1"/>
</g>
<!-- Node11&#45;&gt;Node12 -->
<g id="edge12" class="edge">
<title>Node11&#45;&gt;Node12</title>
<path fill="none" stroke="midnightblue" d="M527.76,-131C514.32,-128.8 500.42,-126.52 487.28,-124.37"/>
<polygon fill="midnightblue" stroke="midnightblue" points="527.5,-134.51 537.93,-132.67 528.63,-127.6 527.5,-134.51"/>
</g>
<!-- Node12&#45;&gt;Node6 -->
<g id="edge13" class="edge">
<title>Node12&#45;&gt;Node6</title>
<path fill="none" stroke="midnightblue" d="M342.9,-113.5C333.21,-113.5 323.41,-113.5 314.01,-113.5"/>
<polygon fill="midnightblue" stroke="midnightblue" points="342.92,-117 352.92,-113.5 342.92,-110 342.92,-117"/>
</g>
<!-- Node13&#45;&gt;Node6 -->
<g id="edge17" class="edge">
<title>Node13&#45;&gt;Node6</title>
<path fill="none" stroke="midnightblue" d="M358.13,-82.47C340.35,-87.72 321.1,-93.4 303.99,-98.45"/>
<polygon fill="midnightblue" stroke="midnightblue" points="359.24,-85.79 367.84,-79.6 357.26,-79.08 359.24,-85.79"/>
</g>
<!-- Node14&#45;&gt;Node6 -->
<g id="edge19" class="edge">
<title>Node14&#45;&gt;Node6</title>
<path fill="none" stroke="midnightblue" d="M362.17,-34.53C357.99,-36.4 353.89,-38.4 350,-40.5 319.61,-56.96 288.35,-82.29 269.8,-98.37"/>
<polygon fill="midnightblue" stroke="midnightblue" points="363.57,-37.74 371.42,-30.62 360.84,-31.29 363.57,-37.74"/>
</g>
</g>
</svg>
