<?xml version="1.0" encoding="UTF-8" standalone="no"?>
<!DOCTYPE svg PUBLIC "-//W3C//DTD SVG 1.1//EN"
 "http://www.w3.org/Graphics/SVG/1.1/DTD/svg11.dtd">
<!-- Generated by graphviz version 3.0.0 (20220413.0242)
 -->
<!-- Title: denoptim.graph.Candidate.getSDFFile Pages: 1 -->
<svg width="876pt" height="225pt"
 viewBox="0.00 0.00 876.00 225.00" xmlns="http://www.w3.org/2000/svg" xmlns:xlink="http://www.w3.org/1999/xlink">
<g id="graph0" class="graph" transform="scale(1 1) rotate(0) translate(4 221)">
<title>denoptim.graph.Candidate.getSDFFile</title>
<polygon fill="white" stroke="transparent" points="-4,4 -4,-221 872,-221 872,4 -4,4"/>
<!-- Node1 -->
<g id="node1" class="node">
<title>Node1</title>
<g id="a_node1"><a xlink:title=" ">
<polygon fill="#bfbfbf" stroke="black" points="724,-112.5 724,-142.5 868,-142.5 868,-112.5 724,-112.5"/>
<text text-anchor="start" x="732" y="-130.5" font-family="Helvetica,sans-Serif" font-size="10.00">denoptim.graph.Candidate.get</text>
<text text-anchor="middle" x="796" y="-119.5" font-family="Helvetica,sans-Serif" font-size="10.00">SDFFile</text>
</a>
</g>
</g>
<!-- Node2 -->
<g id="node2" class="node">
<title>Node2</title>
<g id="a_node2"><a xlink:href="classdenoptim_1_1ga_1_1_e_a_utils.html#a5cb6bbe9f383bf821f3b1f1c5e60031b" target="_top" xlink:title=" ">
<polygon fill="white" stroke="black" points="557.5,-186.5 557.5,-216.5 684.5,-216.5 684.5,-186.5 557.5,-186.5"/>
<text text-anchor="start" x="565.5" y="-204.5" font-family="Helvetica,sans-Serif" font-size="10.00">denoptim.ga.EAUtils.build</text>
<text text-anchor="middle" x="621" y="-193.5" font-family="Helvetica,sans-Serif" font-size="10.00">CandidateByMutation</text>
</a>
</g>
</g>
<!-- Node1&#45;&gt;Node2 -->
<g id="edge1" class="edge">
<title>Node1&#45;&gt;Node2</title>
<path fill="none" stroke="midnightblue" d="M755.3,-147.07C735.3,-156.67 710.57,-168.15 688,-177.5 680.68,-180.53 672.82,-183.58 665.17,-186.42"/>
<polygon fill="midnightblue" stroke="midnightblue" points="756.93,-150.17 764.42,-142.67 753.89,-143.87 756.93,-150.17"/>
</g>
<!-- Node7 -->
<g id="node7" class="node">
<title>Node7</title>
<g id="a_node7"><a xlink:href="classdenoptim_1_1ga_1_1_e_a_utils.html#a01ee989f992e0cff04e3498b63d6c0b0" target="_top" xlink:title="Simply copies the files from the previous directories into the specified folder.">
<polygon fill="white" stroke="black" points="554,-137.5 554,-167.5 688,-167.5 688,-137.5 554,-137.5"/>
<text text-anchor="start" x="562" y="-155.5" font-family="Helvetica,sans-Serif" font-size="10.00">denoptim.ga.EAUtils.output</text>
<text text-anchor="middle" x="621" y="-144.5" font-family="Helvetica,sans-Serif" font-size="10.00">FinalResults</text>
</a>
</g>
</g>
<!-- Node1&#45;&gt;Node7 -->
<g id="edge6" class="edge">
<title>Node1&#45;&gt;Node7</title>
<path fill="none" stroke="midnightblue" d="M713.67,-139.25C705.14,-140.49 696.54,-141.73 688.2,-142.93"/>
<polygon fill="midnightblue" stroke="midnightblue" points="714.24,-142.71 723.64,-137.81 713.24,-135.78 714.24,-142.71"/>
</g>
<!-- Node8 -->
<g id="node8" class="node">
<title>Node8</title>
<g id="a_node8"><a xlink:href="classdenoptim_1_1ga_1_1_e_a_utils.html#aafeb26c06b39ccb444c440d8f1f2c340" target="_top" xlink:title="Write out summary for the current GA population.">
<polygon fill="white" stroke="black" points="554,-88.5 554,-118.5 688,-118.5 688,-88.5 554,-88.5"/>
<text text-anchor="start" x="562" y="-106.5" font-family="Helvetica,sans-Serif" font-size="10.00">denoptim.ga.EAUtils.output</text>
<text text-anchor="middle" x="621" y="-95.5" font-family="Helvetica,sans-Serif" font-size="10.00">PopulationDetails</text>
</a>
</g>
</g>
<!-- Node1&#45;&gt;Node8 -->
<g id="edge7" class="edge">
<title>Node1&#45;&gt;Node8</title>
<path fill="none" stroke="midnightblue" d="M713.67,-116.22C705.14,-115.03 696.54,-113.84 688.2,-112.68"/>
<polygon fill="midnightblue" stroke="midnightblue" points="713.25,-119.69 723.64,-117.6 714.21,-112.76 713.25,-119.69"/>
</g>
<!-- Node11 -->
<g id="node11" class="node">
<title>Node11</title>
<g id="a_node11"><a xlink:href="classdenoptim_1_1gui_1_1_molecule_view_panel.html#af99749d5f2b6b6d83ce1b0f9b5c94095" target="_top" xlink:title=" ">
<polygon fill="white" stroke="black" points="554,-20.5 554,-50.5 688,-50.5 688,-20.5 554,-20.5"/>
<text text-anchor="start" x="562" y="-38.5" font-family="Helvetica,sans-Serif" font-size="10.00">denoptim.gui.MoleculeView</text>
<text text-anchor="middle" x="621" y="-27.5" font-family="Helvetica,sans-Serif" font-size="10.00">Panel.showPopup</text>
</a>
</g>
</g>
<!-- Node1&#45;&gt;Node11 -->
<g id="edge12" class="edge">
<title>Node1&#45;&gt;Node11</title>
<path fill="none" stroke="midnightblue" d="M757.32,-107.46C725.12,-90.34 679.49,-66.07 650.32,-50.56"/>
<polygon fill="midnightblue" stroke="midnightblue" points="755.96,-110.7 766.43,-112.31 759.25,-104.52 755.96,-110.7"/>
</g>
<!-- Node3 -->
<g id="node3" class="node">
<title>Node3</title>
<g id="a_node3"><a xlink:href="classdenoptim_1_1ga_1_1_evolutionary_algorithm.html#a596b2f5f0b097c5b67a6e5163bd6fe66" target="_top" xlink:title="Generates a given number of new candidate items and adds them to the current population.">
<polygon fill="white" stroke="black" points="372,-186.5 372,-216.5 506,-216.5 506,-186.5 372,-186.5"/>
<text text-anchor="start" x="380" y="-204.5" font-family="Helvetica,sans-Serif" font-size="10.00">denoptim.ga.Evolutionary</text>
<text text-anchor="middle" x="439" y="-193.5" font-family="Helvetica,sans-Serif" font-size="10.00">Algorithm.evolvePopulation</text>
</a>
</g>
</g>
<!-- Node2&#45;&gt;Node3 -->
<g id="edge2" class="edge">
<title>Node2&#45;&gt;Node3</title>
<path fill="none" stroke="midnightblue" d="M547.07,-201.5C533.54,-201.5 519.47,-201.5 506.15,-201.5"/>
<polygon fill="midnightblue" stroke="midnightblue" points="547.3,-205 557.3,-201.5 547.3,-198 547.3,-205"/>
</g>
<!-- Node4 -->
<g id="node4" class="node">
<title>Node4</title>
<g id="a_node4"><a xlink:href="classdenoptim_1_1ga_1_1_evolutionary_algorithm.html#a6bfc2fa59b199da6259b5b6bad3d6de7" target="_top" xlink:title=" ">
<polygon fill="white" stroke="black" points="195,-142.5 195,-172.5 319,-172.5 319,-142.5 195,-142.5"/>
<text text-anchor="start" x="203" y="-160.5" font-family="Helvetica,sans-Serif" font-size="10.00">denoptim.ga.Evolutionary</text>
<text text-anchor="middle" x="257" y="-149.5" font-family="Helvetica,sans-Serif" font-size="10.00">Algorithm.run</text>
</a>
</g>
</g>
<!-- Node3&#45;&gt;Node4 -->
<g id="edge3" class="edge">
<title>Node3&#45;&gt;Node4</title>
<path fill="none" stroke="midnightblue" d="M366.41,-184C350.77,-180.18 334.36,-176.16 319.17,-172.45"/>
<polygon fill="midnightblue" stroke="midnightblue" points="366.01,-187.51 376.56,-186.48 367.67,-180.71 366.01,-187.51"/>
</g>
<!-- Node5 -->
<g id="node5" class="node">
<title>Node5</title>
<g id="a_node5"><a xlink:href="classdenoptim_1_1ga_1_1_evolutionary_algorithm.html#a0f2063b722b7291daf83d62acaa683d3" target="_top" xlink:title=" ">
<polygon fill="white" stroke="black" points="0,-167.5 0,-197.5 154,-197.5 154,-167.5 0,-167.5"/>
<text text-anchor="start" x="8" y="-185.5" font-family="Helvetica,sans-Serif" font-size="10.00">denoptim.ga.Evolutionary</text>
<text text-anchor="middle" x="77" y="-174.5" font-family="Helvetica,sans-Serif" font-size="10.00">Algorithm.EvolutionaryAlgorithm</text>
</a>
</g>
</g>
<!-- Node4&#45;&gt;Node5 -->
<g id="edge4" class="edge">
<title>Node4&#45;&gt;Node5</title>
<path fill="none" stroke="midnightblue" d="M184.79,-167.5C174.71,-168.92 164.32,-170.38 154.15,-171.8"/>
<polygon fill="midnightblue" stroke="midnightblue" points="185.33,-170.96 194.74,-166.1 184.35,-164.03 185.33,-170.96"/>
</g>
<!-- Node6 -->
<g id="node6" class="node">
<title>Node6</title>
<g id="a_node6"><a xlink:href="classdenoptim_1_1programs_1_1denovo_1_1_g_a_runner.html#a7cafd6d78727b89dce3e2c8d06f0dd7c" target="_top" xlink:title=" ">
<polygon fill="white" stroke="black" points="9.5,-118.5 9.5,-148.5 144.5,-148.5 144.5,-118.5 9.5,-118.5"/>
<text text-anchor="start" x="17.5" y="-136.5" font-family="Helvetica,sans-Serif" font-size="10.00">denoptim.programs.denovo.</text>
<text text-anchor="middle" x="77" y="-125.5" font-family="Helvetica,sans-Serif" font-size="10.00">GARunner.runProgram</text>
</a>
</g>
</g>
<!-- Node4&#45;&gt;Node6 -->
<g id="edge5" class="edge">
<title>Node4&#45;&gt;Node6</title>
<path fill="none" stroke="midnightblue" d="M184.73,-147.89C171.47,-146.1 157.66,-144.24 144.54,-142.47"/>
<polygon fill="midnightblue" stroke="midnightblue" points="184.36,-151.37 194.74,-149.24 185.3,-144.44 184.36,-151.37"/>
</g>
<!-- Node8&#45;&gt;Node4 -->
<g id="edge10" class="edge">
<title>Node8&#45;&gt;Node4</title>
<path fill="none" stroke="midnightblue" d="M570.06,-121.98C549.65,-129.25 528.41,-136.37 518,-138.5 450.82,-152.24 372.1,-156.37 319.02,-157.46"/>
<polygon fill="midnightblue" stroke="midnightblue" points="571.42,-125.21 579.65,-118.53 569.05,-118.62 571.42,-125.21"/>
</g>
<!-- Node9 -->
<g id="node9" class="node">
<title>Node9</title>
<g id="a_node9"><a xlink:href="classdenoptim_1_1ga_1_1_e_a_utils.html#a5d3fb7536032d02b0f3243fa3738cf45" target="_top" xlink:title="Simply copies the files from the previous directories into the specified folder.">
<polygon fill="white" stroke="black" points="372,-98.5 372,-128.5 506,-128.5 506,-98.5 372,-98.5"/>
<text text-anchor="start" x="380" y="-116.5" font-family="Helvetica,sans-Serif" font-size="10.00">denoptim.ga.EAUtils.output</text>
<text text-anchor="middle" x="439" y="-105.5" font-family="Helvetica,sans-Serif" font-size="10.00">FinalResults</text>
</a>
</g>
</g>
<!-- Node8&#45;&gt;Node9 -->
<g id="edge8" class="edge">
<title>Node8&#45;&gt;Node9</title>
<path fill="none" stroke="midnightblue" d="M543.66,-107.74C531.24,-108.43 518.46,-109.14 506.3,-109.82"/>
<polygon fill="midnightblue" stroke="midnightblue" points="544.21,-111.22 554,-107.17 543.82,-104.23 544.21,-111.22"/>
</g>
<!-- Node10 -->
<g id="node10" class="node">
<title>Node10</title>
<g id="a_node10"><a xlink:href="classdenoptim_1_1io_1_1_denoptim_i_o_test.html#af5c2f9114881ebde82a83f922c0c23fe" target="_top" xlink:title=" ">
<polygon fill="white" stroke="black" points="360,-49.5 360,-79.5 518,-79.5 518,-49.5 360,-49.5"/>
<text text-anchor="start" x="368" y="-67.5" font-family="Helvetica,sans-Serif" font-size="10.00">denoptim.io.DenoptimIOTest.test</text>
<text text-anchor="middle" x="439" y="-56.5" font-family="Helvetica,sans-Serif" font-size="10.00">ReadGenerationFromSummary</text>
</a>
</g>
</g>
<!-- Node8&#45;&gt;Node10 -->
<g id="edge11" class="edge">
<title>Node8&#45;&gt;Node10</title>
<path fill="none" stroke="midnightblue" d="M543.99,-87.03C532.49,-84.54 520.67,-81.98 509.32,-79.52"/>
<polygon fill="midnightblue" stroke="midnightblue" points="543.48,-90.5 554,-89.2 544.96,-83.66 543.48,-90.5"/>
</g>
<!-- Node9&#45;&gt;Node4 -->
<g id="edge9" class="edge">
<title>Node9&#45;&gt;Node4</title>
<path fill="none" stroke="midnightblue" d="M366.41,-131C350.77,-134.82 334.36,-138.84 319.17,-142.55"/>
<polygon fill="midnightblue" stroke="midnightblue" points="367.67,-134.29 376.56,-128.52 366.01,-127.49 367.67,-134.29"/>
</g>
<!-- Node12 -->
<g id="node12" class="node">
<title>Node12</title>
<g id="a_node12"><a xlink:href="classdenoptim_1_1gui_1_1_molecule_view_panel.html#a4e3a3010d8d8ac998af38872fd03f092" target="_top" xlink:title=" ">
<polygon fill="white" stroke="black" points="372,-0.5 372,-30.5 506,-30.5 506,-0.5 372,-0.5"/>
<text text-anchor="start" x="380" y="-18.5" font-family="Helvetica,sans-Serif" font-size="10.00">denoptim.gui.MoleculeView</text>
<text text-anchor="middle" x="439" y="-7.5" font-family="Helvetica,sans-Serif" font-size="10.00">Panel.initialize</text>
</a>
</g>
</g>
<!-- Node11&#45;&gt;Node12 -->
<g id="edge13" class="edge">
<title>Node11&#45;&gt;Node12</title>
<path fill="none" stroke="midnightblue" d="M544.04,-27.06C531.49,-25.67 518.58,-24.23 506.3,-22.87"/>
<polygon fill="midnightblue" stroke="midnightblue" points="543.67,-30.54 554,-28.17 544.44,-23.58 543.67,-30.54"/>
</g>
<!-- Node13 -->
<g id="node13" class="node">
<title>Node13</title>
<g id="a_node13"><a xlink:href="classdenoptim_1_1gui_1_1_molecule_view_panel.html#a58a6483ddef60d65b376afd4098e9465" target="_top" xlink:title="Constructor.">
<polygon fill="white" stroke="black" points="190,-0.5 190,-30.5 324,-30.5 324,-0.5 190,-0.5"/>
<text text-anchor="start" x="198" y="-18.5" font-family="Helvetica,sans-Serif" font-size="10.00">denoptim.gui.MoleculeView</text>
<text text-anchor="middle" x="257" y="-7.5" font-family="Helvetica,sans-Serif" font-size="10.00">Panel.MoleculeViewPanel</text>
</a>
</g>
</g>
<!-- Node12&#45;&gt;Node13 -->
<g id="edge14" class="edge">
<title>Node12&#45;&gt;Node13</title>
<path fill="none" stroke="midnightblue" d="M361.66,-15.5C349.24,-15.5 336.46,-15.5 324.3,-15.5"/>
<polygon fill="midnightblue" stroke="midnightblue" points="362,-19 372,-15.5 362,-12 362,-19"/>
</g>
</g>
</svg>
