<?xml version="1.0" encoding="UTF-8" standalone="no"?>
<!DOCTYPE svg PUBLIC "-//W3C//DTD SVG 1.1//EN"
 "http://www.w3.org/Graphics/SVG/1.1/DTD/svg11.dtd">
<!-- Generated by graphviz version 3.0.0 (20220413.0242)
 -->
<!-- Title: denoptim.graph.Template.setContractLevel Pages: 1 -->
<!--zoomable 323 -->
<svg id="main" version="1.1" xmlns="http://www.w3.org/2000/svg" xmlns:xlink="http://www.w3.org/1999/xlink" xml:space="preserve" onload="init(evt)">
<style type="text/css"><![CDATA[
.edge:hover path { stroke: red; }
.edge:hover polygon { stroke: red; fill: red; }
]]></style>
<script type="text/javascript"><![CDATA[
var edges = document.getElementsByTagName('g');
if (edges && edges.length) {
  for (var i=0;i<edges.length;i++) {
    if (edges[i].id.substr(0,4)=='edge') {
      edges[i].setAttribute('class','edge');
    }
  }
}
]]></script>
        <defs>
                <circle id="rim" cx="0" cy="0" r="7"/>
                <circle id="rim2" cx="0" cy="0" r="3.5"/>
                <g id="zoomPlus">
                        <use xlink:href="#rim" fill="#404040">
                                <set attributeName="fill" to="#808080" begin="zoomplus.mouseover" end="zoomplus.mouseout"/>
                        </use>
                        <path d="M-4,0h8M0,-4v8" fill="none" stroke="white" stroke-width="1.5" pointer-events="none"/>
                </g>
                <g id="zoomMin">
                        <use xlink:href="#rim" fill="#404040">
                                <set attributeName="fill" to="#808080" begin="zoomminus.mouseover" end="zoomminus.mouseout"/>
                        </use>
                        <path d="M-4,0h8" fill="none" stroke="white" stroke-width="1.5" pointer-events="none"/>
                </g>
                <g id="dirArrow">
                        <path fill="none" stroke="white" stroke-width="1.5" d="M0,-3.0v7 M-2.5,-0.5L0,-3.0L2.5,-0.5"/>
                </g>
               <g id="resetDef">
                       <use xlink:href="#rim2" fill="#404040">
                               <set attributeName="fill" to="#808080" begin="reset.mouseover" end="reset.mouseout"/>
                       </use>
               </g>
        </defs>

<script type="text/javascript">
var viewWidth = 844;
var viewHeight = 323;
var sectionId = 'dynsection-42';
</script>
<script xlink:href="svgpan.js"/>
<svg id="graph" class="graph">
<g id="viewport">
<title>denoptim.graph.Template.setContractLevel</title>
<polygon fill="white" stroke="transparent" points="-4,4 -4,-319 840,-319 840,4 -4,4"/>
<!-- Node1 -->
<g id="node1" class="node">
<title>Node1</title>
<g id="a_node1"><a xlink:title="Imposes the given contract to this template.">
<polygon fill="#bfbfbf" stroke="black" points="695,-149.5 695,-179.5 836,-179.5 836,-149.5 695,-149.5"/>
<text text-anchor="start" x="703" y="-167.5" font-family="Helvetica,sans-Serif" font-size="10.00">denoptim.graph.Template.set</text>
<text text-anchor="middle" x="765.5" y="-156.5" font-family="Helvetica,sans-Serif" font-size="10.00">ContractLevel</text>
</a>
</g>
</g>
<!-- Node2 -->
<g id="node2" class="node">
<title>Node2</title>
<g id="a_node2"><a xlink:href="classdenoptim_1_1ga_1_1_graph_operations_test.html#a0dd5e8c7f80f7e7c7fa2d46e01355a2d" target="_top" xlink:title="Generates a pair of graphs that include templates with free content.">
<polygon fill="white" stroke="black" points="492.5,-284.5 492.5,-314.5 637.5,-314.5 637.5,-284.5 492.5,-284.5"/>
<text text-anchor="start" x="500.5" y="-302.5" font-family="Helvetica,sans-Serif" font-size="10.00">denoptim.ga.GraphOperations</text>
<text text-anchor="middle" x="565" y="-291.5" font-family="Helvetica,sans-Serif" font-size="10.00">Test.getPairOfTestGraphs</text>
</a>
</g>
</g>
<!-- Node1&#45;&gt;Node2 -->
<g id="edge1" class="edge">
<title>Node1&#45;&gt;Node2</title>
<path fill="none" stroke="midnightblue" d="M746.76,-187.72C727.53,-211.41 694.76,-247.69 659,-269.5 649.15,-275.51 637.97,-280.44 626.86,-284.44"/>
<polygon fill="midnightblue" stroke="midnightblue" points="749.73,-189.61 753.22,-179.61 744.25,-185.26 749.73,-189.61"/>
</g>
<!-- Node3 -->
<g id="node3" class="node">
<title>Node3</title>
<g id="a_node3"><a xlink:href="classdenoptim_1_1ga_1_1_graph_operations_test.html#a9fcf8fffef10a59df722c92e94da2815" target="_top" xlink:title=" ">
<polygon fill="white" stroke="black" points="242,-284.5 242,-314.5 431,-314.5 431,-284.5 242,-284.5"/>
<text text-anchor="start" x="250" y="-302.5" font-family="Helvetica,sans-Serif" font-size="10.00">denoptim.ga.GraphOperations</text>
<text text-anchor="middle" x="336.5" y="-291.5" font-family="Helvetica,sans-Serif" font-size="10.00">Test.testLocateCompatibleXOverPoints</text>
</a>
</g>
</g>
<!-- Node1&#45;&gt;Node3 -->
<g id="edge16" class="edge">
<title>Node1&#45;&gt;Node3</title>
<path fill="none" stroke="midnightblue" d="M739.3,-186.07C718.94,-202.37 688.85,-224.02 659,-236.5 647.87,-241.16 510.14,-267.34 418.6,-284.45"/>
<polygon fill="midnightblue" stroke="midnightblue" points="741.61,-188.71 747.14,-179.67 737.18,-183.29 741.61,-188.71"/>
</g>
<!-- Node4 -->
<g id="node4" class="node">
<title>Node4</title>
<g id="a_node4"><a xlink:href="classdenoptim_1_1ga_1_1_population_test.html#ad6c0ff8cf3b73b88407f1a8ce2d699dd" target="_top" xlink:title="Builds a pair of graphs that contain templates with ContractLevel#FREE contract.">
<polygon fill="white" stroke="black" points="489,-105.5 489,-135.5 641,-135.5 641,-105.5 489,-105.5"/>
<text text-anchor="start" x="497" y="-123.5" font-family="Helvetica,sans-Serif" font-size="10.00">denoptim.ga.PopulationTest.get</text>
<text text-anchor="middle" x="565" y="-112.5" font-family="Helvetica,sans-Serif" font-size="10.00">PairOfTestGraphsB</text>
</a>
</g>
</g>
<!-- Node1&#45;&gt;Node4 -->
<g id="edge3" class="edge">
<title>Node1&#45;&gt;Node4</title>
<path fill="none" stroke="midnightblue" d="M686.6,-147.23C669.15,-143.36 650.78,-139.29 633.79,-135.53"/>
<polygon fill="midnightblue" stroke="midnightblue" points="686.22,-150.73 696.74,-149.48 687.74,-143.9 686.22,-150.73"/>
</g>
<!-- Node5 -->
<g id="node5" class="node">
<title>Node5</title>
<g id="a_node5"><a xlink:href="classdenoptim_1_1ga_1_1_population_test.html#a41f0c8d31458a49c72e7b22daf45073a" target="_top" xlink:title="Builds a pair of graphs that contain templates with ContractLevel#FREE contract.">
<polygon fill="white" stroke="black" points="260.5,-147.5 260.5,-177.5 412.5,-177.5 412.5,-147.5 260.5,-147.5"/>
<text text-anchor="start" x="268.5" y="-165.5" font-family="Helvetica,sans-Serif" font-size="10.00">denoptim.ga.PopulationTest.get</text>
<text text-anchor="middle" x="336.5" y="-154.5" font-family="Helvetica,sans-Serif" font-size="10.00">PairOfTestGraphsBxoxo</text>
</a>
</g>
</g>
<!-- Node1&#45;&gt;Node5 -->
<g id="edge12" class="edge">
<title>Node1&#45;&gt;Node5</title>
<path fill="none" stroke="midnightblue" d="M684.7,-164.13C606.78,-163.76 489.11,-163.21 412.78,-162.85"/>
<polygon fill="midnightblue" stroke="midnightblue" points="684.93,-167.63 694.94,-164.17 684.96,-160.63 684.93,-167.63"/>
</g>
<!-- Node7 -->
<g id="node7" class="node">
<title>Node7</title>
<g id="a_node7"><a xlink:href="classdenoptim_1_1ga_1_1_e_a_utils_test.html#ae0baa3684be9b8a4af611083649a9e6d" target="_top" xlink:title=" ">
<polygon fill="white" stroke="black" points="238,-49.5 238,-79.5 435,-79.5 435,-49.5 238,-49.5"/>
<text text-anchor="start" x="246" y="-67.5" font-family="Helvetica,sans-Serif" font-size="10.00">denoptim.ga.EAUtilsTest.test</text>
<text text-anchor="middle" x="336.5" y="-56.5" font-family="Helvetica,sans-Serif" font-size="10.00">BuildByXOver_Embedded_FixedStructure</text>
</a>
</g>
</g>
<!-- Node1&#45;&gt;Node7 -->
<g id="edge15" class="edge">
<title>Node1&#45;&gt;Node7</title>
<path fill="none" stroke="midnightblue" d="M738.76,-142.9C718.46,-127.17 688.7,-106.87 659,-96.5 586.71,-71.26 500.11,-63.84 435.01,-62.41"/>
<polygon fill="midnightblue" stroke="midnightblue" points="736.84,-145.85 746.85,-149.32 741.19,-140.37 736.84,-145.85"/>
</g>
<!-- Node10 -->
<g id="node10" class="node">
<title>Node10</title>
<g id="a_node10"><a xlink:href="classdenoptim_1_1ga_1_1_population_test.html#aec2f105b3ec1dad337b2a1708b803439" target="_top" xlink:title="Builds a pair of graphs that contain templates with ContractLevel#FREE contract.">
<polygon fill="white" stroke="black" points="489,-196.5 489,-226.5 641,-226.5 641,-196.5 489,-196.5"/>
<text text-anchor="start" x="497" y="-214.5" font-family="Helvetica,sans-Serif" font-size="10.00">denoptim.ga.PopulationTest.get</text>
<text text-anchor="middle" x="565" y="-203.5" font-family="Helvetica,sans-Serif" font-size="10.00">PairOfTestGraphsBxo</text>
</a>
</g>
</g>
<!-- Node1&#45;&gt;Node10 -->
<g id="edge9" class="edge">
<title>Node1&#45;&gt;Node10</title>
<path fill="none" stroke="midnightblue" d="M691.32,-181.83C671.01,-186.64 649.13,-191.82 629.43,-196.48"/>
<polygon fill="midnightblue" stroke="midnightblue" points="692.22,-185.21 701.15,-179.5 690.61,-178.4 692.22,-185.21"/>
</g>
<!-- Node11 -->
<g id="node11" class="node">
<title>Node11</title>
<g id="a_node11"><a xlink:href="classdenoptim_1_1gui_1_1_g_u_i_graph_handler.html#af5b000c105018cbd7c262b34f9750044" target="_top" xlink:title="Initialize the panel and add buttons.">
<polygon fill="white" stroke="black" points="471,-14 471,-33 659,-33 659,-14 471,-14"/>
<text text-anchor="middle" x="565" y="-21" font-family="Helvetica,sans-Serif" font-size="10.00">denoptim.gui.GUIGraphHandler.initialize</text>
</a>
</g>
</g>
<!-- Node1&#45;&gt;Node11 -->
<g id="edge13" class="edge">
<title>Node1&#45;&gt;Node11</title>
<path fill="none" stroke="midnightblue" d="M746.94,-141.42C727.68,-117.5 694.72,-80.47 659,-57.5 642.08,-46.62 621.2,-38.58 603.52,-33.06"/>
<polygon fill="midnightblue" stroke="midnightblue" points="744.21,-143.61 753.16,-149.28 749.7,-139.27 744.21,-143.61"/>
</g>
<!-- Node2&#45;&gt;Node3 -->
<g id="edge2" class="edge">
<title>Node2&#45;&gt;Node3</title>
<path fill="none" stroke="midnightblue" d="M482.16,-299.5C465.58,-299.5 448.04,-299.5 431.1,-299.5"/>
<polygon fill="midnightblue" stroke="midnightblue" points="482.33,-303 492.33,-299.5 482.33,-296 482.33,-303"/>
</g>
<!-- Node4&#45;&gt;Node5 -->
<g id="edge4" class="edge">
<title>Node4&#45;&gt;Node5</title>
<path fill="none" stroke="midnightblue" d="M479.02,-136.26C457.26,-140.29 434.02,-144.6 412.79,-148.54"/>
<polygon fill="midnightblue" stroke="midnightblue" points="479.7,-139.69 488.89,-134.43 478.42,-132.81 479.7,-139.69"/>
</g>
<!-- Node4&#45;&gt;Node7 -->
<g id="edge6" class="edge">
<title>Node4&#45;&gt;Node7</title>
<path fill="none" stroke="midnightblue" d="M493.58,-103.09C463.08,-95.55 427.71,-86.8 398.37,-79.55"/>
<polygon fill="midnightblue" stroke="midnightblue" points="492.75,-106.49 503.3,-105.49 494.43,-99.7 492.75,-106.49"/>
</g>
<!-- Node8 -->
<g id="node8" class="node">
<title>Node8</title>
<g id="a_node8"><a xlink:href="classdenoptim_1_1ga_1_1_e_a_utils_test.html#ad4662f1a3a989020f953f7034d7c1beb" target="_top" xlink:title="NB: the graphs from methods getPairOfTestGraphsB() and getPairOfTestGraphsBxo() and &#160;&#160;getPairOfTestGr...">
<polygon fill="white" stroke="black" points="260,-196.5 260,-226.5 413,-226.5 413,-196.5 260,-196.5"/>
<text text-anchor="start" x="268" y="-214.5" font-family="Helvetica,sans-Serif" font-size="10.00">denoptim.ga.EAUtilsTest.test</text>
<text text-anchor="middle" x="336.5" y="-203.5" font-family="Helvetica,sans-Serif" font-size="10.00">BuildByXOver_Embedded_Free</text>
</a>
</g>
</g>
<!-- Node4&#45;&gt;Node8 -->
<g id="edge7" class="edge">
<title>Node4&#45;&gt;Node8</title>
<path fill="none" stroke="midnightblue" d="M530.26,-140.86C504.81,-155.5 468.65,-174.83 435,-187.5 426.19,-190.82 416.76,-193.8 407.36,-196.45"/>
<polygon fill="midnightblue" stroke="midnightblue" points="532.24,-143.75 539.13,-135.7 528.72,-137.7 532.24,-143.75"/>
</g>
<!-- Node9 -->
<g id="node9" class="node">
<title>Node9</title>
<g id="a_node9"><a xlink:href="classdenoptim_1_1utils_1_1_graph_conversion_tool_test.html#a9cf6fcaba3bac28b528db1eb73c21c62" target="_top" xlink:title=" ">
<polygon fill="white" stroke="black" points="238,-98.5 238,-128.5 435,-128.5 435,-98.5 238,-98.5"/>
<text text-anchor="start" x="246" y="-116.5" font-family="Helvetica,sans-Serif" font-size="10.00">denoptim.utils.GraphConversion</text>
<text text-anchor="middle" x="336.5" y="-105.5" font-family="Helvetica,sans-Serif" font-size="10.00">ToolTest.testGetJGraphKernelFromGraph</text>
</a>
</g>
</g>
<!-- Node4&#45;&gt;Node9 -->
<g id="edge8" class="edge">
<title>Node4&#45;&gt;Node9</title>
<path fill="none" stroke="midnightblue" d="M478.72,-117.86C464.58,-117.43 449.82,-116.97 435.4,-116.53"/>
<polygon fill="midnightblue" stroke="midnightblue" points="478.79,-121.37 488.89,-118.18 479.01,-114.37 478.79,-121.37"/>
</g>
<!-- Node6 -->
<g id="node6" class="node">
<title>Node6</title>
<g id="a_node6"><a xlink:href="classdenoptim_1_1ga_1_1_e_a_utils_test.html#af8cfc323dd7d12090ddf4b836a3349cf" target="_top" xlink:title="NB: the graphs from methods getPairOfTestGraphsB() and getPairOfTestGraphsBxo() and &#160;&#160;getPairOfTestGr...">
<polygon fill="white" stroke="black" points="0,-193.5 0,-223.5 202,-223.5 202,-193.5 0,-193.5"/>
<text text-anchor="start" x="8" y="-211.5" font-family="Helvetica,sans-Serif" font-size="10.00">denoptim.ga.EAUtilsTest.test</text>
<text text-anchor="middle" x="101" y="-200.5" font-family="Helvetica,sans-Serif" font-size="10.00">BuildByXOver_Embedded_FreeBackwards</text>
</a>
</g>
</g>
<!-- Node5&#45;&gt;Node6 -->
<g id="edge5" class="edge">
<title>Node5&#45;&gt;Node6</title>
<path fill="none" stroke="midnightblue" d="M250.35,-179.28C226.75,-183.92 201.28,-188.94 178.23,-193.48"/>
<polygon fill="midnightblue" stroke="midnightblue" points="251.2,-182.67 260.33,-177.31 249.85,-175.81 251.2,-182.67"/>
</g>
<!-- Node10&#45;&gt;Node6 -->
<g id="edge11" class="edge">
<title>Node10&#45;&gt;Node6</title>
<path fill="none" stroke="midnightblue" d="M489.14,-228.52C471.48,-231.83 452.65,-234.81 435,-236.5 347.85,-244.87 325.1,-245.37 238,-236.5 212.82,-233.93 185.41,-228.76 161.85,-223.56"/>
<polygon fill="midnightblue" stroke="midnightblue" points="490.24,-231.87 499.39,-226.53 488.91,-225 490.24,-231.87"/>
</g>
<!-- Node10&#45;&gt;Node8 -->
<g id="edge10" class="edge">
<title>Node10&#45;&gt;Node8</title>
<path fill="none" stroke="midnightblue" d="M478.78,-211.5C457.22,-211.5 434.22,-211.5 413.18,-211.5"/>
<polygon fill="midnightblue" stroke="midnightblue" points="478.89,-215 488.89,-211.5 478.89,-208 478.89,-215"/>
</g>
<!-- Node12 -->
<g id="node12" class="node">
<title>Node12</title>
<g id="a_node12"><a xlink:href="classdenoptim_1_1gui_1_1_g_u_i_graph_handler.html#ab7d010d9a384f6b85edce47c95d6723b" target="_top" xlink:title="Constructor.">
<polygon fill="white" stroke="black" points="259.5,-0.5 259.5,-30.5 413.5,-30.5 413.5,-0.5 259.5,-0.5"/>
<text text-anchor="start" x="267.5" y="-18.5" font-family="Helvetica,sans-Serif" font-size="10.00">denoptim.gui.GUIGraphHandler.</text>
<text text-anchor="middle" x="336.5" y="-7.5" font-family="Helvetica,sans-Serif" font-size="10.00">GUIGraphHandler</text>
</a>
</g>
</g>
<!-- Node11&#45;&gt;Node12 -->
<g id="edge14" class="edge">
<title>Node11&#45;&gt;Node12</title>
<path fill="none" stroke="midnightblue" d="M460.57,-19.85C444.78,-19.29 428.74,-18.72 413.68,-18.19"/>
<polygon fill="midnightblue" stroke="midnightblue" points="460.78,-23.36 470.89,-20.21 461.02,-16.36 460.78,-23.36"/>
</g>
</g>
</svg>
        <g id="navigator" transform="translate(0 0)" fill="#404254">
                <rect fill="#f2f5e9" fill-opacity="0.5" stroke="#606060" stroke-width=".5" x="0" y="0" width="60" height="60"/>
                <use id="zoomplus" xlink:href="#zoomPlus" x="17" y="9" onmousedown="handleZoom(evt,'in')"/>
                <use id="zoomminus" xlink:href="#zoomMin" x="42" y="9" onmousedown="handleZoom(evt,'out')"/>
                <use id="reset" xlink:href="#resetDef" x="30" y="36" onmousedown="handleReset()"/>
                <g id="arrowUp" xlink:href="#dirArrow" transform="translate(30 24)" onmousedown="handlePan(0,-1)">
                  <use xlink:href="#rim" fill="#404040">
                        <set attributeName="fill" to="#808080" begin="arrowUp.mouseover" end="arrowUp.mouseout"/>
                  </use>
                  <path fill="none" stroke="white" stroke-width="1.5" d="M0,-3.0v7 M-2.5,-0.5L0,-3.0L2.5,-0.5"/>
                </g>
                <g id="arrowRight" xlink:href="#dirArrow" transform="rotate(90) translate(36 -43)" onmousedown="handlePan(1,0)">
                  <use xlink:href="#rim" fill="#404040">
                        <set attributeName="fill" to="#808080" begin="arrowRight.mouseover" end="arrowRight.mouseout"/>
                  </use>
                  <path fill="none" stroke="white" stroke-width="1.5" d="M0,-3.0v7 M-2.5,-0.5L0,-3.0L2.5,-0.5"/>
                </g>
                <g id="arrowDown" xlink:href="#dirArrow" transform="rotate(180) translate(-30 -48)" onmousedown="handlePan(0,1)">
                  <use xlink:href="#rim" fill="#404040">
                        <set attributeName="fill" to="#808080" begin="arrowDown.mouseover" end="arrowDown.mouseout"/>
                  </use>
                  <path fill="none" stroke="white" stroke-width="1.5" d="M0,-3.0v7 M-2.5,-0.5L0,-3.0L2.5,-0.5"/>
                </g>
                <g id="arrowLeft" xlink:href="#dirArrow" transform="rotate(270) translate(-36 17)" onmousedown="handlePan(-1,0)">
                  <use xlink:href="#rim" fill="#404040">
                        <set attributeName="fill" to="#808080" begin="arrowLeft.mouseover" end="arrowLeft.mouseout"/>
                  </use>
                  <path fill="none" stroke="white" stroke-width="1.5" d="M0,-3.0v7 M-2.5,-0.5L0,-3.0L2.5,-0.5"/>
                </g>
        </g>
        <svg viewBox="0 0 15 15" width="100%" height="30px" preserveAspectRatio="xMaxYMin meet">
         <g id="arrow_out" transform="scale(0.3 0.3)">
          <a xlink:href="classdenoptim_1_1graph_1_1_template_ab6a7859f36c5e25a8ad218b665a3a20c_icgraph_org.svg" target="_base">
           <rect id="button" ry="5" rx="5" y="6" x="6" height="38" width="38"
                fill="#f2f5e9" fill-opacity="0.5" stroke="#606060" stroke-width="1.0"/>
           <path id="arrow"
             d="M 11.500037,31.436501 C 11.940474,20.09759 22.043105,11.32322 32.158766,21.979434 L 37.068811,17.246167 C 37.068811,17.246167 37.088388,32 37.088388,32 L 22.160133,31.978069 C 22.160133,31.978069 26.997745,27.140456 26.997745,27.140456 C 18.528582,18.264221 13.291696,25.230495 11.500037,31.436501 z"
             style="fill:#404040;"/>
          </a>
         </g>
        </svg>
</svg>
