<?xml version="1.0" encoding="UTF-8" standalone="no"?>
<!DOCTYPE svg PUBLIC "-//W3C//DTD SVG 1.1//EN"
 "http://www.w3.org/Graphics/SVG/1.1/DTD/svg11.dtd">
<!-- Generated by graphviz version 3.0.0 (20220413.0242)
 -->
<!-- Title: denoptim.graph.SymmetricSet.add Pages: 1 -->
<!--zoomable 877 -->
<svg id="main" version="1.1" xmlns="http://www.w3.org/2000/svg" xmlns:xlink="http://www.w3.org/1999/xlink" xml:space="preserve" onload="init(evt)">
<style type="text/css"><![CDATA[
.edge:hover path { stroke: red; }
.edge:hover polygon { stroke: red; fill: red; }
]]></style>
<script type="text/javascript"><![CDATA[
var edges = document.getElementsByTagName('g');
if (edges && edges.length) {
  for (var i=0;i<edges.length;i++) {
    if (edges[i].id.substr(0,4)=='edge') {
      edges[i].setAttribute('class','edge');
    }
  }
}
]]></script>
        <defs>
                <circle id="rim" cx="0" cy="0" r="7"/>
                <circle id="rim2" cx="0" cy="0" r="3.5"/>
                <g id="zoomPlus">
                        <use xlink:href="#rim" fill="#404040">
                                <set attributeName="fill" to="#808080" begin="zoomplus.mouseover" end="zoomplus.mouseout"/>
                        </use>
                        <path d="M-4,0h8M0,-4v8" fill="none" stroke="white" stroke-width="1.5" pointer-events="none"/>
                </g>
                <g id="zoomMin">
                        <use xlink:href="#rim" fill="#404040">
                                <set attributeName="fill" to="#808080" begin="zoomminus.mouseover" end="zoomminus.mouseout"/>
                        </use>
                        <path d="M-4,0h8" fill="none" stroke="white" stroke-width="1.5" pointer-events="none"/>
                </g>
                <g id="dirArrow">
                        <path fill="none" stroke="white" stroke-width="1.5" d="M0,-3.0v7 M-2.5,-0.5L0,-3.0L2.5,-0.5"/>
                </g>
               <g id="resetDef">
                       <use xlink:href="#rim2" fill="#404040">
                               <set attributeName="fill" to="#808080" begin="reset.mouseover" end="reset.mouseout"/>
                       </use>
               </g>
        </defs>

<script type="text/javascript">
var viewWidth = 1615;
var viewHeight = 877;
var sectionId = 'dynsection-3';
</script>
<script xlink:href="svgpan.js"/>
<svg id="graph" class="graph">
<g id="viewport">
<title>denoptim.graph.SymmetricSet.add</title>
<polygon fill="white" stroke="transparent" points="-4,4 -4,-873 1611,-873 1611,4 -4,4"/>
<!-- Node1 -->
<g id="node1" class="node">
<title>Node1</title>
<g id="a_node1"><a xlink:title="Adds an identifiers to this list.">
<polygon fill="#bfbfbf" stroke="black" points="1476,-245.5 1476,-275.5 1607,-275.5 1607,-245.5 1476,-245.5"/>
<text text-anchor="start" x="1484" y="-263.5" font-family="Helvetica,sans-Serif" font-size="10.00">denoptim.graph.Symmetric</text>
<text text-anchor="middle" x="1541.5" y="-252.5" font-family="Helvetica,sans-Serif" font-size="10.00">Set.add</text>
</a>
</g>
</g>
<!-- Node2 -->
<g id="node2" class="node">
<title>Node2</title>
<g id="a_node2"><a xlink:href="classdenoptim_1_1graph_1_1_d_graph.html#a5beca78261eeee2a7860a18f0719584a" target="_top" xlink:title="Append a subgraph (I) to this graph (R) specifying which vertex and attachment point to use for the c...">
<polygon fill="white" stroke="black" points="1276,-652.5 1276,-682.5 1428,-682.5 1428,-652.5 1276,-652.5"/>
<text text-anchor="start" x="1284" y="-670.5" font-family="Helvetica,sans-Serif" font-size="10.00">denoptim.graph.DGraph.append</text>
<text text-anchor="middle" x="1352" y="-659.5" font-family="Helvetica,sans-Serif" font-size="10.00">GraphOnAP</text>
</a>
</g>
</g>
<!-- Node1&#45;&gt;Node2 -->
<g id="edge1" class="edge">
<title>Node1&#45;&gt;Node2</title>
<path fill="none" stroke="midnightblue" d="M1537.16,-285.88C1526.55,-362.87 1491.22,-591.63 1440,-643.5 1436.48,-647.07 1432.48,-650.12 1428.17,-652.73"/>
<polygon fill="midnightblue" stroke="midnightblue" points="1540.67,-286.04 1538.55,-275.66 1533.74,-285.1 1540.67,-286.04"/>
</g>
<!-- Node3 -->
<g id="node3" class="node">
<title>Node3</title>
<g id="a_node3"><a xlink:href="classdenoptim_1_1combinatorial_1_1_graph_building_task.html#a3eaee724fc921194fa158714aafe182d" target="_top" xlink:title="Calls the task.">
<polygon fill="white" stroke="black" points="1279.5,-603.5 1279.5,-633.5 1424.5,-633.5 1424.5,-603.5 1279.5,-603.5"/>
<text text-anchor="start" x="1287.5" y="-621.5" font-family="Helvetica,sans-Serif" font-size="10.00">denoptim.combinatorial.Graph</text>
<text text-anchor="middle" x="1352" y="-610.5" font-family="Helvetica,sans-Serif" font-size="10.00">BuildingTask.call</text>
</a>
</g>
</g>
<!-- Node1&#45;&gt;Node3 -->
<g id="edge2" class="edge">
<title>Node1&#45;&gt;Node3</title>
<path fill="none" stroke="midnightblue" d="M1540.68,-285.77C1539.69,-347.7 1528.25,-508.27 1440,-594.5 1435.52,-598.88 1430.31,-602.48 1424.72,-605.43"/>
<polygon fill="midnightblue" stroke="midnightblue" points="1544.18,-285.75 1540.76,-275.72 1537.18,-285.69 1544.18,-285.75"/>
</g>
<!-- Node4 -->
<g id="node4" class="node">
<title>Node4</title>
<g id="a_node4"><a xlink:href="classdenoptim_1_1graph_1_1_symmetric_set.html#a3dcfaa81f98f0eb317737801ad22ff98" target="_top" xlink:title="Returns a deep&#45;copy of this set.">
<polygon fill="white" stroke="black" points="1286.5,-554.5 1286.5,-584.5 1417.5,-584.5 1417.5,-554.5 1286.5,-554.5"/>
<text text-anchor="start" x="1294.5" y="-572.5" font-family="Helvetica,sans-Serif" font-size="10.00">denoptim.graph.Symmetric</text>
<text text-anchor="middle" x="1352" y="-561.5" font-family="Helvetica,sans-Serif" font-size="10.00">Set.clone</text>
</a>
</g>
</g>
<!-- Node1&#45;&gt;Node4 -->
<g id="edge3" class="edge">
<title>Node1&#45;&gt;Node4</title>
<path fill="none" stroke="midnightblue" d="M1539.14,-285.82C1534.77,-341.29 1516.44,-474.22 1440,-545.5 1433.58,-551.48 1425.81,-556 1417.58,-559.4"/>
<polygon fill="midnightblue" stroke="midnightblue" points="1542.64,-286.02 1539.84,-275.8 1535.65,-285.54 1542.64,-286.02"/>
</g>
<!-- Node6 -->
<g id="node6" class="node">
<title>Node6</title>
<g id="a_node6"><a xlink:href="classdenoptim_1_1graph_1_1_d_graph.html#a691da5435e53ae7835b8c58bc0bf3495" target="_top" xlink:title="Looks for any symmetric labels, creates symmetric sets that collect the same information,...">
<polygon fill="white" stroke="black" points="1267,-294.5 1267,-324.5 1437,-324.5 1437,-294.5 1267,-294.5"/>
<text text-anchor="start" x="1275" y="-312.5" font-family="Helvetica,sans-Serif" font-size="10.00">denoptim.graph.DGraph.convert</text>
<text text-anchor="middle" x="1352" y="-301.5" font-family="Helvetica,sans-Serif" font-size="10.00">SymmetricLabelsToSymmetricSets</text>
</a>
</g>
</g>
<!-- Node1&#45;&gt;Node6 -->
<g id="edge5" class="edge">
<title>Node1&#45;&gt;Node6</title>
<path fill="none" stroke="midnightblue" d="M1473.07,-278.12C1452.55,-283.48 1430.21,-289.32 1410.42,-294.49"/>
<polygon fill="midnightblue" stroke="midnightblue" points="1474.18,-281.45 1482.97,-275.53 1472.41,-274.68 1474.18,-281.45"/>
</g>
<!-- Node15 -->
<g id="node15" class="node">
<title>Node15</title>
<g id="a_node15"><a xlink:href="classdenoptim_1_1ga_1_1_graph_operations.html#a104e82aba7242a457da09540ff0400da" target="_top" xlink:title="function that will keep extending the graph.">
<polygon fill="white" stroke="black" points="1264,-245.5 1264,-275.5 1440,-275.5 1440,-245.5 1264,-245.5"/>
<text text-anchor="start" x="1272" y="-263.5" font-family="Helvetica,sans-Serif" font-size="10.00">denoptim.ga.GraphOperations.extend</text>
<text text-anchor="middle" x="1352" y="-252.5" font-family="Helvetica,sans-Serif" font-size="10.00">Graph</text>
</a>
</g>
</g>
<!-- Node1&#45;&gt;Node15 -->
<g id="edge14" class="edge">
<title>Node1&#45;&gt;Node15</title>
<path fill="none" stroke="midnightblue" d="M1465.81,-260.5C1457.38,-260.5 1448.74,-260.5 1440.17,-260.5"/>
<polygon fill="midnightblue" stroke="midnightblue" points="1465.97,-264 1475.97,-260.5 1465.97,-257 1465.97,-264"/>
</g>
<!-- Node16 -->
<g id="node16" class="node">
<title>Node16</title>
<g id="a_node16"><a xlink:href="classdenoptim_1_1graph_1_1_template.html#a4e1f81acd762a2795026420494954653" target="_top" xlink:title="The SymmetricSet produced from this method contain indexes of the AttachmentPoints in the list return...">
<polygon fill="white" stroke="black" points="1281.5,-196.5 1281.5,-226.5 1422.5,-226.5 1422.5,-196.5 1281.5,-196.5"/>
<text text-anchor="start" x="1289.5" y="-214.5" font-family="Helvetica,sans-Serif" font-size="10.00">denoptim.graph.Template.get</text>
<text text-anchor="middle" x="1352" y="-203.5" font-family="Helvetica,sans-Serif" font-size="10.00">SymmetricAPSets</text>
</a>
</g>
</g>
<!-- Node1&#45;&gt;Node16 -->
<g id="edge15" class="edge">
<title>Node1&#45;&gt;Node16</title>
<path fill="none" stroke="midnightblue" d="M1473.07,-242.88C1452.55,-237.52 1430.21,-231.68 1410.42,-226.51"/>
<polygon fill="midnightblue" stroke="midnightblue" points="1472.41,-246.32 1482.97,-245.47 1474.18,-239.55 1472.41,-246.32"/>
</g>
<!-- Node18 -->
<g id="node18" class="node">
<title>Node18</title>
<g id="a_node18"><a xlink:href="classdenoptim_1_1graph_1_1_d_graph.html#ade5b573cc8eac0a26ec18969238fd84a" target="_top" xlink:title="Inserts a given vertex in between two vertices connected by the given edge.">
<polygon fill="white" stroke="black" points="1280,-147.5 1280,-177.5 1424,-177.5 1424,-147.5 1280,-147.5"/>
<text text-anchor="start" x="1288" y="-165.5" font-family="Helvetica,sans-Serif" font-size="10.00">denoptim.graph.DGraph.insert</text>
<text text-anchor="middle" x="1352" y="-154.5" font-family="Helvetica,sans-Serif" font-size="10.00">Vertex</text>
</a>
</g>
</g>
<!-- Node1&#45;&gt;Node18 -->
<g id="edge17" class="edge">
<title>Node1&#45;&gt;Node18</title>
<path fill="none" stroke="midnightblue" d="M1515.8,-238.75C1496.37,-222.63 1467.98,-201.15 1440,-187.5 1432.23,-183.71 1423.79,-180.39 1415.31,-177.52"/>
<polygon fill="midnightblue" stroke="midnightblue" points="1513.65,-241.52 1523.55,-245.3 1518.17,-236.18 1513.65,-241.52"/>
</g>
<!-- Node20 -->
<g id="node20" class="node">
<title>Node20</title>
<g id="a_node20"><a xlink:href="classdenoptim_1_1graph_1_1_d_graph.html#a305c9a12afe5bb190894fcd730ef299a" target="_top" xlink:title="Checks if this graph is &quot;DENOPTIM&#45;isomorphic&quot; to the other one given.">
<polygon fill="white" stroke="black" points="1288,-505.5 1288,-535.5 1416,-535.5 1416,-505.5 1288,-505.5"/>
<text text-anchor="start" x="1296" y="-523.5" font-family="Helvetica,sans-Serif" font-size="10.00">denoptim.graph.DGraph.is</text>
<text text-anchor="middle" x="1352" y="-512.5" font-family="Helvetica,sans-Serif" font-size="10.00">IsomorphicTo</text>
</a>
</g>
</g>
<!-- Node1&#45;&gt;Node20 -->
<g id="edge19" class="edge">
<title>Node1&#45;&gt;Node20</title>
<path fill="none" stroke="midnightblue" d="M1523.6,-283.94C1485.8,-336.35 1395.29,-461.86 1363.92,-505.36"/>
<polygon fill="midnightblue" stroke="midnightblue" points="1526.6,-285.76 1529.61,-275.6 1520.92,-281.67 1526.6,-285.76"/>
</g>
<!-- Node36 -->
<g id="node36" class="node">
<title>Node36</title>
<g id="a_node36"><a xlink:href="classdenoptim_1_1graph_1_1_d_graph.html#a8e3e3bad36d425ffba874cf557b2d3d2" target="_top" xlink:title="Remove all but one of the symmetry&#45;related partners in a list of vertices.">
<polygon fill="white" stroke="black" points="1276,-98.5 1276,-128.5 1428,-128.5 1428,-98.5 1276,-98.5"/>
<text text-anchor="start" x="1284" y="-116.5" font-family="Helvetica,sans-Serif" font-size="10.00">denoptim.graph.DGraph.remove</text>
<text text-anchor="middle" x="1352" y="-105.5" font-family="Helvetica,sans-Serif" font-size="10.00">SymmetryRedundance</text>
</a>
</g>
</g>
<!-- Node1&#45;&gt;Node36 -->
<g id="edge40" class="edge">
<title>Node1&#45;&gt;Node36</title>
<path fill="none" stroke="midnightblue" d="M1526.97,-236.58C1510.12,-208.91 1478.75,-163.93 1440,-138.5 1434.09,-134.62 1427.57,-131.33 1420.83,-128.55"/>
<polygon fill="midnightblue" stroke="midnightblue" points="1524.01,-238.43 1532.12,-245.24 1530.02,-234.86 1524.01,-238.43"/>
</g>
<!-- Node39 -->
<g id="node39" class="node">
<title>Node39</title>
<g id="a_node39"><a xlink:href="classdenoptim_1_1graph_1_1_d_graph_test.html#a64805f4f059b37a9be325ce5ac8374ce" target="_top" xlink:title=" ">
<polygon fill="white" stroke="black" points="1274,-49.5 1274,-79.5 1430,-79.5 1430,-49.5 1274,-49.5"/>
<text text-anchor="start" x="1282" y="-67.5" font-family="Helvetica,sans-Serif" font-size="10.00">denoptim.graph.DGraphTest.test</text>
<text text-anchor="middle" x="1352" y="-56.5" font-family="Helvetica,sans-Serif" font-size="10.00">SameAs_DiffSymmSet</text>
</a>
</g>
</g>
<!-- Node1&#45;&gt;Node39 -->
<g id="edge43" class="edge">
<title>Node1&#45;&gt;Node39</title>
<path fill="none" stroke="midnightblue" d="M1532.65,-235.74C1519.54,-198.41 1489.62,-127.98 1440,-89.5 1435.03,-85.65 1429.49,-82.39 1423.68,-79.63"/>
<polygon fill="midnightblue" stroke="midnightblue" points="1529.38,-236.99 1535.91,-245.34 1536.01,-234.75 1529.38,-236.99"/>
</g>
<!-- Node40 -->
<g id="node40" class="node">
<title>Node40</title>
<g id="a_node40"><a xlink:href="classdenoptim_1_1graph_1_1_d_graph_test.html#a2cb527dcac2a1f307d70dfda13965786" target="_top" xlink:title=" ">
<polygon fill="white" stroke="black" points="1274,-0.5 1274,-30.5 1430,-30.5 1430,-0.5 1274,-0.5"/>
<text text-anchor="start" x="1282" y="-18.5" font-family="Helvetica,sans-Serif" font-size="10.00">denoptim.graph.DGraphTest.test</text>
<text text-anchor="middle" x="1352" y="-7.5" font-family="Helvetica,sans-Serif" font-size="10.00">SameAs_SameSymmSet</text>
</a>
</g>
</g>
<!-- Node1&#45;&gt;Node40 -->
<g id="edge44" class="edge">
<title>Node1&#45;&gt;Node40</title>
<path fill="none" stroke="midnightblue" d="M1536.22,-235.23C1527.08,-189.24 1501.29,-91.81 1440,-39.5 1435.95,-36.04 1431.44,-33.08 1426.66,-30.54"/>
<polygon fill="midnightblue" stroke="midnightblue" points="1532.82,-236.07 1538.11,-245.25 1539.7,-234.77 1532.82,-236.07"/>
</g>
<!-- Node5 -->
<g id="node5" class="node">
<title>Node5</title>
<g id="a_node5"><a xlink:href="classdenoptim_1_1graph_1_1_d_graph_test.html#a3b99d7012da487a88acf937e3c9f5ea4" target="_top" xlink:title=" ">
<polygon fill="white" stroke="black" points="1048,-838.5 1048,-868.5 1204,-868.5 1204,-838.5 1048,-838.5"/>
<text text-anchor="start" x="1056" y="-856.5" font-family="Helvetica,sans-Serif" font-size="10.00">denoptim.graph.DGraphTest.test</text>
<text text-anchor="middle" x="1126" y="-845.5" font-family="Helvetica,sans-Serif" font-size="10.00">ReplaceVertex</text>
</a>
</g>
</g>
<!-- Node4&#45;&gt;Node5 -->
<g id="edge4" class="edge">
<title>Node4&#45;&gt;Node5</title>
<path fill="none" stroke="midnightblue" d="M1277.08,-583.7C1272.22,-586.67 1267.77,-590.23 1264,-594.5 1195.8,-671.72 1295.86,-745.98 1228,-823.5 1221.49,-830.93 1213.24,-836.56 1204.26,-840.82"/>
<polygon fill="midnightblue" stroke="midnightblue" points="1278.93,-586.68 1286.2,-578.97 1275.71,-580.46 1278.93,-586.68"/>
</g>
<!-- Node7 -->
<g id="node7" class="node">
<title>Node7</title>
<g id="a_node7"><a xlink:href="classdenoptim_1_1graph_1_1_d_graph.html#a86e888ef245d2bd40b49d145c7ef3af0" target="_top" xlink:title="Replaced the subgraph represented by a given collection of vertices that belong to this graph.">
<polygon fill="white" stroke="black" points="821,-436.5 821,-466.5 973,-466.5 973,-436.5 821,-436.5"/>
<text text-anchor="start" x="829" y="-454.5" font-family="Helvetica,sans-Serif" font-size="10.00">denoptim.graph.DGraph.replace</text>
<text text-anchor="middle" x="897" y="-443.5" font-family="Helvetica,sans-Serif" font-size="10.00">SubGraph</text>
</a>
</g>
</g>
<!-- Node6&#45;&gt;Node7 -->
<g id="edge6" class="edge">
<title>Node6&#45;&gt;Node7</title>
<path fill="none" stroke="midnightblue" d="M1273.65,-290.38C1270.33,-288.87 1267.1,-287.24 1264,-285.5 1244.83,-274.7 1248.45,-259.63 1228,-251.5 1143.75,-218 1103.38,-207.69 1024,-251.5 949.99,-292.35 913.5,-396.96 902.07,-436.27"/>
<polygon fill="midnightblue" stroke="midnightblue" points="1272.61,-293.74 1283.18,-294.34 1275.29,-287.27 1272.61,-293.74"/>
</g>
<!-- Node12 -->
<g id="node12" class="node">
<title>Node12</title>
<g id="a_node12"><a xlink:href="classdenoptim_1_1graph_1_1_d_graph.html#adc362402e41af41656e820def73de5ad" target="_top" xlink:title="Replaced a given vertex belonging to this graph with a new vertex generated specifically for this pur...">
<polygon fill="white" stroke="black" points="1050,-309.5 1050,-339.5 1202,-339.5 1202,-309.5 1050,-309.5"/>
<text text-anchor="start" x="1058" y="-327.5" font-family="Helvetica,sans-Serif" font-size="10.00">denoptim.graph.DGraph.replace</text>
<text text-anchor="middle" x="1126" y="-316.5" font-family="Helvetica,sans-Serif" font-size="10.00">Vertex</text>
</a>
</g>
</g>
<!-- Node6&#45;&gt;Node12 -->
<g id="edge11" class="edge">
<title>Node6&#45;&gt;Node12</title>
<path fill="none" stroke="midnightblue" d="M1256.91,-315.8C1238.69,-317.02 1219.82,-318.28 1202.3,-319.46"/>
<polygon fill="midnightblue" stroke="midnightblue" points="1257.21,-319.29 1266.95,-315.13 1256.74,-312.3 1257.21,-319.29"/>
</g>
<!-- Node13 -->
<g id="node13" class="node">
<title>Node13</title>
<g id="a_node13"><a xlink:href="classdenoptim_1_1graph_1_1_d_graph_test.html#a88c2fd8a1b401d9aa25bf85869bc28c7" target="_top" xlink:title=" ">
<polygon fill="white" stroke="black" points="1024,-260.5 1024,-290.5 1228,-290.5 1228,-260.5 1024,-260.5"/>
<text text-anchor="start" x="1032" y="-278.5" font-family="Helvetica,sans-Serif" font-size="10.00">denoptim.graph.DGraphTest.test</text>
<text text-anchor="middle" x="1126" y="-267.5" font-family="Helvetica,sans-Serif" font-size="10.00">ConvertSymmetricLabelsToSymmetricSets</text>
</a>
</g>
</g>
<!-- Node6&#45;&gt;Node13 -->
<g id="edge12" class="edge">
<title>Node6&#45;&gt;Node13</title>
<path fill="none" stroke="midnightblue" d="M1256.8,-295.2C1246.57,-293.65 1236.14,-292.07 1225.86,-290.5"/>
<polygon fill="midnightblue" stroke="midnightblue" points="1256.54,-298.7 1266.95,-296.74 1257.59,-291.78 1256.54,-298.7"/>
</g>
<!-- Node14 -->
<g id="node14" class="node">
<title>Node14</title>
<g id="a_node14"><a xlink:href="classdenoptim_1_1graph_1_1_d_graph_test.html#a83a9624ea5dc6a2c515407b865b62611" target="_top" xlink:title=" ">
<polygon fill="white" stroke="black" points="1048,-358.5 1048,-388.5 1204,-388.5 1204,-358.5 1048,-358.5"/>
<text text-anchor="start" x="1056" y="-376.5" font-family="Helvetica,sans-Serif" font-size="10.00">denoptim.graph.DGraphTest.test</text>
<text text-anchor="middle" x="1126" y="-365.5" font-family="Helvetica,sans-Serif" font-size="10.00">ReplaceSubGraph</text>
</a>
</g>
</g>
<!-- Node6&#45;&gt;Node14 -->
<g id="edge13" class="edge">
<title>Node6&#45;&gt;Node14</title>
<path fill="none" stroke="midnightblue" d="M1298.07,-327.75C1276.46,-334.93 1251.15,-343 1228,-349.5 1216.98,-352.6 1205.22,-355.63 1193.75,-358.45"/>
<polygon fill="midnightblue" stroke="midnightblue" points="1299.34,-331.02 1307.71,-324.53 1297.12,-324.38 1299.34,-331.02"/>
</g>
<!-- Node8 -->
<g id="node8" class="node">
<title>Node8</title>
<g id="a_node8"><a xlink:href="classdenoptim_1_1ga_1_1_graph_operations.html#affb1be89a32e4a429bd7dbdfe0708419" target="_top" xlink:title="Performs the crossover that swaps the two subgraphs defining the given XoverSite.">
<polygon fill="white" stroke="black" points="590,-633.5 590,-663.5 770,-663.5 770,-633.5 590,-633.5"/>
<text text-anchor="start" x="598" y="-651.5" font-family="Helvetica,sans-Serif" font-size="10.00">denoptim.ga.GraphOperations.perform</text>
<text text-anchor="middle" x="680" y="-640.5" font-family="Helvetica,sans-Serif" font-size="10.00">Crossover</text>
</a>
</g>
</g>
<!-- Node7&#45;&gt;Node8 -->
<g id="edge7" class="edge">
<title>Node7&#45;&gt;Node8</title>
<path fill="none" stroke="midnightblue" d="M871.84,-473.64C827.75,-514.04 735.3,-598.75 697.57,-633.32"/>
<polygon fill="midnightblue" stroke="midnightblue" points="874.48,-475.97 879.49,-466.63 869.75,-470.81 874.48,-475.97"/>
</g>
<!-- Node9 -->
<g id="node9" class="node">
<title>Node9</title>
<g id="a_node9"><a xlink:href="classdenoptim_1_1ga_1_1_e_a_utils.html#a98553265dd4b441b11c6d97d098edb08" target="_top" xlink:title="Generates a new offspring by performing a crossover operation.">
<polygon fill="white" stroke="black" points="0,-677.5 0,-707.5 127,-707.5 127,-677.5 0,-677.5"/>
<text text-anchor="start" x="8" y="-695.5" font-family="Helvetica,sans-Serif" font-size="10.00">denoptim.ga.EAUtils.build</text>
<text text-anchor="middle" x="63.5" y="-684.5" font-family="Helvetica,sans-Serif" font-size="10.00">CandidateByXOver</text>
</a>
</g>
</g>
<!-- Node8&#45;&gt;Node9 -->
<g id="edge8" class="edge">
<title>Node8&#45;&gt;Node9</title>
<path fill="none" stroke="midnightblue" d="M579.75,-646.48C475.47,-645.72 306.93,-648.38 163,-668.5 148.18,-670.57 132.35,-673.91 117.8,-677.45"/>
<polygon fill="midnightblue" stroke="midnightblue" points="579.93,-649.98 589.96,-646.57 579.99,-642.98 579.93,-649.98"/>
</g>
<!-- Node10 -->
<g id="node10" class="node">
<title>Node10</title>
<g id="a_node10"><a xlink:href="classdenoptim_1_1programs_1_1genetweeker_1_1_gene_ops_runner.html#ab0f92a94c4fb2334e7d3813e73fc4247" target="_top" xlink:title=" ">
<polygon fill="white" stroke="black" points="380,-677.5 380,-707.5 539,-707.5 539,-677.5 380,-677.5"/>
<text text-anchor="start" x="388" y="-695.5" font-family="Helvetica,sans-Serif" font-size="10.00">denoptim.programs.genetweeker.</text>
<text text-anchor="middle" x="459.5" y="-684.5" font-family="Helvetica,sans-Serif" font-size="10.00">GeneOpsRunner.runXOver</text>
</a>
</g>
</g>
<!-- Node8&#45;&gt;Node10 -->
<g id="edge9" class="edge">
<title>Node8&#45;&gt;Node10</title>
<path fill="none" stroke="midnightblue" d="M594.59,-665.5C574.99,-669.44 554.26,-673.62 535.12,-677.47"/>
<polygon fill="midnightblue" stroke="midnightblue" points="595.3,-668.92 604.42,-663.52 593.92,-662.06 595.3,-668.92"/>
</g>
<!-- Node11 -->
<g id="node11" class="node">
<title>Node11</title>
<g id="a_node11"><a xlink:href="classdenoptim_1_1programs_1_1genetweeker_1_1_gene_ops_runner.html#a3c2407eb1204a7b25600d3d347d98447" target="_top" xlink:title=" ">
<polygon fill="white" stroke="black" points="166.5,-677.5 166.5,-707.5 325.5,-707.5 325.5,-677.5 166.5,-677.5"/>
<text text-anchor="start" x="174.5" y="-695.5" font-family="Helvetica,sans-Serif" font-size="10.00">denoptim.programs.genetweeker.</text>
<text text-anchor="middle" x="246" y="-684.5" font-family="Helvetica,sans-Serif" font-size="10.00">GeneOpsRunner.runProgram</text>
</a>
</g>
</g>
<!-- Node10&#45;&gt;Node11 -->
<g id="edge10" class="edge">
<title>Node10&#45;&gt;Node11</title>
<path fill="none" stroke="midnightblue" d="M369.74,-692.5C355.16,-692.5 340.14,-692.5 325.82,-692.5"/>
<polygon fill="midnightblue" stroke="midnightblue" points="369.75,-696 379.75,-692.5 369.75,-689 369.75,-696"/>
</g>
<!-- Node17 -->
<g id="node17" class="node">
<title>Node17</title>
<g id="a_node17"><a xlink:href="classdenoptim_1_1json_1_1_d_e_n_o_p_t_i_mgson_test.html#a78e6eb5e60124f63897dd28e1c21082d" target="_top" xlink:title=" ">
<polygon fill="white" stroke="black" points="1050,-172.5 1050,-202.5 1202,-202.5 1202,-172.5 1050,-172.5"/>
<text text-anchor="start" x="1058" y="-190.5" font-family="Helvetica,sans-Serif" font-size="10.00">denoptim.json.DENOPTIMgson</text>
<text text-anchor="middle" x="1126" y="-179.5" font-family="Helvetica,sans-Serif" font-size="10.00">Test.testTemplateSerialization</text>
</a>
</g>
</g>
<!-- Node16&#45;&gt;Node17 -->
<g id="edge16" class="edge">
<title>Node16&#45;&gt;Node17</title>
<path fill="none" stroke="midnightblue" d="M1271.16,-202.95C1248.66,-200.53 1224.26,-197.92 1202.05,-195.54"/>
<polygon fill="midnightblue" stroke="midnightblue" points="1271.04,-206.45 1281.35,-204.04 1271.78,-199.49 1271.04,-206.45"/>
</g>
<!-- Node19 -->
<g id="node19" class="node">
<title>Node19</title>
<g id="a_node19"><a xlink:href="classdenoptim_1_1ga_1_1_graph_operations.html#af53d9f29a7d8f8e7bc5540ab3cb0c9c7" target="_top" xlink:title="Replace an edge with two edges with a new vertex in between, thus inserting a vertex in between two d...">
<polygon fill="white" stroke="black" points="1029,-134 1029,-153 1223,-153 1223,-134 1029,-134"/>
<text text-anchor="middle" x="1126" y="-141" font-family="Helvetica,sans-Serif" font-size="10.00">denoptim.ga.GraphOperations.extendLink</text>
</a>
</g>
</g>
<!-- Node18&#45;&gt;Node19 -->
<g id="edge18" class="edge">
<title>Node18&#45;&gt;Node19</title>
<path fill="none" stroke="midnightblue" d="M1269.57,-155.59C1254.57,-154.32 1238.78,-152.98 1223.39,-151.68"/>
<polygon fill="midnightblue" stroke="midnightblue" points="1269.56,-159.1 1279.82,-156.46 1270.15,-152.13 1269.56,-159.1"/>
</g>
<!-- Node20&#45;&gt;Node14 -->
<g id="edge38" class="edge">
<title>Node20&#45;&gt;Node14</title>
<path fill="none" stroke="midnightblue" d="M1333.92,-497.11C1312.36,-469.33 1272.67,-423.6 1228,-398.5 1220.6,-394.34 1212.51,-390.87 1204.24,-387.96"/>
<polygon fill="midnightblue" stroke="midnightblue" points="1331.17,-499.28 1340.01,-505.11 1336.74,-495.04 1331.17,-499.28"/>
</g>
<!-- Node21 -->
<g id="node21" class="node">
<title>Node21</title>
<g id="a_node21"><a xlink:href="classdenoptim_1_1ga_1_1_graph_operations.html#ad30a49493cb4fbbee21a7589929bc680" target="_top" xlink:title="Identify crossover sites, i.e., subgraphs that can be swapped between two graphs (i....">
<polygon fill="white" stroke="black" points="593.5,-750.5 593.5,-780.5 766.5,-780.5 766.5,-750.5 593.5,-750.5"/>
<text text-anchor="start" x="601.5" y="-768.5" font-family="Helvetica,sans-Serif" font-size="10.00">denoptim.ga.GraphOperations.locate</text>
<text text-anchor="middle" x="680" y="-757.5" font-family="Helvetica,sans-Serif" font-size="10.00">CompatibleXOverPoints</text>
</a>
</g>
</g>
<!-- Node20&#45;&gt;Node21 -->
<g id="edge20" class="edge">
<title>Node20&#45;&gt;Node21</title>
<path fill="none" stroke="midnightblue" d="M1278.83,-533.59C1273.28,-536.77 1268.21,-540.69 1264,-545.5 1191.56,-628.36 1311.29,-718.56 1228,-790.5 1157.03,-851.8 899.32,-799.74 806,-790.5 785.52,-788.47 763.42,-784.62 743.59,-780.53"/>
<polygon fill="midnightblue" stroke="midnightblue" points="1280.43,-536.7 1287.89,-529.17 1277.36,-530.41 1280.43,-536.7"/>
</g>
<!-- Node27 -->
<g id="node27" class="node">
<title>Node27</title>
<g id="a_node27"><a xlink:href="classdenoptim_1_1ga_1_1_graph_operations.html#a65b1468961ba53b217848640d8fd5232" target="_top" xlink:title="Given a pair of seed vertexes that define where a pair of subgraphs stars in the corresponding origin...">
<polygon fill="white" stroke="black" points="1035,-750.5 1035,-780.5 1217,-780.5 1217,-750.5 1035,-750.5"/>
<text text-anchor="start" x="1043" y="-768.5" font-family="Helvetica,sans-Serif" font-size="10.00">denoptim.ga.GraphOperations.process</text>
<text text-anchor="middle" x="1126" y="-757.5" font-family="Helvetica,sans-Serif" font-size="10.00">PermutationOfEndPoints</text>
</a>
</g>
</g>
<!-- Node20&#45;&gt;Node27 -->
<g id="edge29" class="edge">
<title>Node20&#45;&gt;Node27</title>
<path fill="none" stroke="midnightblue" d="M1278.35,-534.13C1273.02,-537.21 1268.12,-540.95 1264,-545.5 1204.52,-611.12 1288.99,-677.28 1228,-741.5 1224.77,-744.9 1221.16,-747.85 1217.27,-750.42"/>
<polygon fill="midnightblue" stroke="midnightblue" points="1280.23,-537.1 1287.67,-529.55 1277.15,-530.82 1280.23,-537.1"/>
</g>
<!-- Node29 -->
<g id="node29" class="node">
<title>Node29</title>
<g id="a_node29"><a xlink:href="classdenoptim_1_1programs_1_1graphlisthandler_1_1_graph_lists_handler.html#a82e75728262a789cc27189d910b5c74a" target="_top" xlink:title=" ">
<polygon fill="white" stroke="black" points="1040,-701.5 1040,-731.5 1212,-731.5 1212,-701.5 1040,-701.5"/>
<text text-anchor="start" x="1048" y="-719.5" font-family="Helvetica,sans-Serif" font-size="10.00">denoptim.programs.graphlisthandler.</text>
<text text-anchor="middle" x="1126" y="-708.5" font-family="Helvetica,sans-Serif" font-size="10.00">GraphListsHandler.runProgram</text>
</a>
</g>
</g>
<!-- Node20&#45;&gt;Node29 -->
<g id="edge32" class="edge">
<title>Node20&#45;&gt;Node29</title>
<path fill="none" stroke="midnightblue" d="M1278.36,-534.54C1273.08,-537.53 1268.19,-541.14 1264,-545.5 1217.39,-594 1275.73,-645.1 1228,-692.5 1223.4,-697.07 1218.09,-700.83 1212.37,-703.92"/>
<polygon fill="midnightblue" stroke="midnightblue" points="1280.12,-537.58 1287.59,-530.07 1277.06,-531.28 1280.12,-537.58"/>
</g>
<!-- Node30 -->
<g id="node30" class="node">
<title>Node30</title>
<g id="a_node30"><a xlink:href="classdenoptim_1_1programs_1_1isomorphism_1_1_isomorphism.html#a558ff128682d8685e2c95b8eeea85461" target="_top" xlink:title=" ">
<polygon fill="white" stroke="black" points="1046.5,-652.5 1046.5,-682.5 1205.5,-682.5 1205.5,-652.5 1046.5,-652.5"/>
<text text-anchor="start" x="1054.5" y="-670.5" font-family="Helvetica,sans-Serif" font-size="10.00">denoptim.programs.isomorphism.</text>
<text text-anchor="middle" x="1126" y="-659.5" font-family="Helvetica,sans-Serif" font-size="10.00">Isomorphism.runProgram</text>
</a>
</g>
</g>
<!-- Node20&#45;&gt;Node30 -->
<g id="edge33" class="edge">
<title>Node20&#45;&gt;Node30</title>
<path fill="none" stroke="midnightblue" d="M1278.61,-535.21C1273.31,-538.06 1268.35,-541.45 1264,-545.5 1230.03,-577.1 1262.7,-612.69 1228,-643.5 1221.46,-649.3 1213.78,-653.77 1205.61,-657.2"/>
<polygon fill="midnightblue" stroke="midnightblue" points="1280.22,-538.32 1287.79,-530.91 1277.25,-531.98 1280.22,-538.32"/>
</g>
<!-- Node31 -->
<g id="node31" class="node">
<title>Node31</title>
<g id="a_node31"><a xlink:href="classdenoptim_1_1ga_1_1_e_a_utils_test.html#ae0baa3684be9b8a4af611083649a9e6d" target="_top" xlink:title=" ">
<polygon fill="white" stroke="black" points="1027.5,-603.5 1027.5,-633.5 1224.5,-633.5 1224.5,-603.5 1027.5,-603.5"/>
<text text-anchor="start" x="1035.5" y="-621.5" font-family="Helvetica,sans-Serif" font-size="10.00">denoptim.ga.EAUtilsTest.test</text>
<text text-anchor="middle" x="1126" y="-610.5" font-family="Helvetica,sans-Serif" font-size="10.00">BuildByXOver_Embedded_FixedStructure</text>
</a>
</g>
</g>
<!-- Node20&#45;&gt;Node31 -->
<g id="edge34" class="edge">
<title>Node20&#45;&gt;Node31</title>
<path fill="none" stroke="midnightblue" d="M1278.52,-537.2C1273.42,-539.6 1268.51,-542.36 1264,-545.5 1241.83,-560.95 1250.53,-579.57 1228,-594.5 1222.82,-597.93 1217.2,-600.88 1211.35,-603.4"/>
<polygon fill="midnightblue" stroke="midnightblue" points="1280.05,-540.35 1287.89,-533.22 1277.32,-533.91 1280.05,-540.35"/>
</g>
<!-- Node32 -->
<g id="node32" class="node">
<title>Node32</title>
<g id="a_node32"><a xlink:href="classdenoptim_1_1graph_1_1_d_graph_test.html#a6b4a7a889a0e36c8b2dc97bcd8055c9e" target="_top" xlink:title=" ">
<polygon fill="white" stroke="black" points="1048,-554.5 1048,-584.5 1204,-584.5 1204,-554.5 1048,-554.5"/>
<text text-anchor="start" x="1056" y="-572.5" font-family="Helvetica,sans-Serif" font-size="10.00">denoptim.graph.DGraphTest.test</text>
<text text-anchor="middle" x="1126" y="-561.5" font-family="Helvetica,sans-Serif" font-size="10.00">ExtractSubgraph</text>
</a>
</g>
</g>
<!-- Node20&#45;&gt;Node32 -->
<g id="edge35" class="edge">
<title>Node20&#45;&gt;Node32</title>
<path fill="none" stroke="midnightblue" d="M1277.76,-536.52C1251.34,-542.3 1221.64,-548.8 1195.63,-554.49"/>
<polygon fill="midnightblue" stroke="midnightblue" points="1278.69,-539.9 1287.71,-534.34 1277.19,-533.06 1278.69,-539.9"/>
</g>
<!-- Node33 -->
<g id="node33" class="node">
<title>Node33</title>
<g id="a_node33"><a xlink:href="classdenoptim_1_1graph_1_1_d_graph_test.html#a02791a3f61db5dd584dec5c3995ec72c" target="_top" xlink:title=" ">
<polygon fill="white" stroke="black" points="1048,-505.5 1048,-535.5 1204,-535.5 1204,-505.5 1048,-505.5"/>
<text text-anchor="start" x="1056" y="-523.5" font-family="Helvetica,sans-Serif" font-size="10.00">denoptim.graph.DGraphTest.test</text>
<text text-anchor="middle" x="1126" y="-512.5" font-family="Helvetica,sans-Serif" font-size="10.00">GraphIsomorphism</text>
</a>
</g>
</g>
<!-- Node20&#45;&gt;Node33 -->
<g id="edge36" class="edge">
<title>Node20&#45;&gt;Node33</title>
<path fill="none" stroke="midnightblue" d="M1277.45,-520.5C1253.93,-520.5 1227.83,-520.5 1204.07,-520.5"/>
<polygon fill="midnightblue" stroke="midnightblue" points="1277.71,-524 1287.71,-520.5 1277.71,-517 1277.71,-524"/>
</g>
<!-- Node34 -->
<g id="node34" class="node">
<title>Node34</title>
<g id="a_node34"><a xlink:href="classdenoptim_1_1graph_1_1_d_graph_test.html#aea227d615f6c2f3bac5839a8099a900d" target="_top" xlink:title=" ">
<polygon fill="white" stroke="black" points="1048,-456.5 1048,-486.5 1204,-486.5 1204,-456.5 1048,-456.5"/>
<text text-anchor="start" x="1056" y="-474.5" font-family="Helvetica,sans-Serif" font-size="10.00">denoptim.graph.DGraphTest.test</text>
<text text-anchor="middle" x="1126" y="-463.5" font-family="Helvetica,sans-Serif" font-size="10.00">IsIsostructuralTo</text>
</a>
</g>
</g>
<!-- Node20&#45;&gt;Node34 -->
<g id="edge37" class="edge">
<title>Node20&#45;&gt;Node34</title>
<path fill="none" stroke="midnightblue" d="M1277.76,-504.48C1251.34,-498.7 1221.64,-492.2 1195.63,-486.51"/>
<polygon fill="midnightblue" stroke="midnightblue" points="1277.19,-507.94 1287.71,-506.66 1278.69,-501.1 1277.19,-507.94"/>
</g>
<!-- Node35 -->
<g id="node35" class="node">
<title>Node35</title>
<g id="a_node35"><a xlink:href="classdenoptim_1_1graph_1_1_d_graph_test.html#a0b946dc2730c68f796c37e5f5cea4e36" target="_top" xlink:title=" ">
<polygon fill="white" stroke="black" points="1048,-407.5 1048,-437.5 1204,-437.5 1204,-407.5 1048,-407.5"/>
<text text-anchor="start" x="1056" y="-425.5" font-family="Helvetica,sans-Serif" font-size="10.00">denoptim.graph.DGraphTest.test</text>
<text text-anchor="middle" x="1126" y="-414.5" font-family="Helvetica,sans-Serif" font-size="10.00">ReplaceVertex_inRing</text>
</a>
</g>
</g>
<!-- Node20&#45;&gt;Node35 -->
<g id="edge39" class="edge">
<title>Node20&#45;&gt;Node35</title>
<path fill="none" stroke="midnightblue" d="M1321.44,-499.58C1297.29,-483.35 1261.76,-461.34 1228,-447.5 1218.81,-443.73 1208.9,-440.43 1199.02,-437.56"/>
<polygon fill="midnightblue" stroke="midnightblue" points="1319.56,-502.54 1329.79,-505.28 1323.5,-496.75 1319.56,-502.54"/>
</g>
<!-- Node21&#45;&gt;Node10 -->
<g id="edge27" class="edge">
<title>Node21&#45;&gt;Node10</title>
<path fill="none" stroke="midnightblue" d="M633.35,-746.64C609.86,-737.28 580.62,-726.14 554,-717.5 543.29,-714.02 531.79,-710.65 520.63,-707.57"/>
<polygon fill="midnightblue" stroke="midnightblue" points="632.13,-749.92 642.72,-750.4 634.74,-743.43 632.13,-749.92"/>
</g>
<!-- Node21&#45;&gt;Node21 -->
<g id="edge26" class="edge">
<title>Node21&#45;&gt;Node21</title>
<path fill="none" stroke="midnightblue" d="M718.38,-790.96C713.62,-795.68 700.82,-799 680,-799 645.83,-799 633.28,-790.06 642.36,-780.66"/>
<polygon fill="midnightblue" stroke="midnightblue" points="721.85,-790.38 717.64,-780.66 714.87,-790.88 721.85,-790.38"/>
</g>
<!-- Node22 -->
<g id="node22" class="node">
<title>Node22</title>
<g id="a_node22"><a xlink:href="classdenoptim_1_1ga_1_1_population.html#ab303d612f90e917a7b1b49eadc93c76e" target="_top" xlink:title="Returns a list of population members that can do crossover with the specified member.">
<polygon fill="white" stroke="black" points="393,-775.5 393,-805.5 526,-805.5 526,-775.5 393,-775.5"/>
<text text-anchor="start" x="401" y="-793.5" font-family="Helvetica,sans-Serif" font-size="10.00">denoptim.ga.Population.get</text>
<text text-anchor="middle" x="459.5" y="-782.5" font-family="Helvetica,sans-Serif" font-size="10.00">XoverPartners</text>
</a>
</g>
</g>
<!-- Node21&#45;&gt;Node22 -->
<g id="edge21" class="edge">
<title>Node21&#45;&gt;Node22</title>
<path fill="none" stroke="midnightblue" d="M583.24,-776.46C563.92,-778.67 544.04,-780.94 526.05,-783"/>
<polygon fill="midnightblue" stroke="midnightblue" points="583.73,-779.92 593.27,-775.31 582.94,-772.97 583.73,-779.92"/>
</g>
<!-- Node26 -->
<g id="node26" class="node">
<title>Node26</title>
<g id="a_node26"><a xlink:href="classdenoptim_1_1ga_1_1_graph_operations_test.html#a9fcf8fffef10a59df722c92e94da2815" target="_top" xlink:title=" ">
<polygon fill="white" stroke="black" points="365,-726.5 365,-756.5 554,-756.5 554,-726.5 365,-726.5"/>
<text text-anchor="start" x="373" y="-744.5" font-family="Helvetica,sans-Serif" font-size="10.00">denoptim.ga.GraphOperations</text>
<text text-anchor="middle" x="459.5" y="-733.5" font-family="Helvetica,sans-Serif" font-size="10.00">Test.testLocateCompatibleXOverPoints</text>
</a>
</g>
</g>
<!-- Node21&#45;&gt;Node26 -->
<g id="edge28" class="edge">
<title>Node21&#45;&gt;Node26</title>
<path fill="none" stroke="midnightblue" d="M583.3,-754.99C573.67,-753.93 563.89,-752.86 554.28,-751.8"/>
<polygon fill="midnightblue" stroke="midnightblue" points="582.95,-758.47 593.27,-756.08 583.71,-751.51 582.95,-758.47"/>
</g>
<!-- Node23 -->
<g id="node23" class="node">
<title>Node23</title>
<g id="a_node23"><a xlink:href="classdenoptim_1_1ga_1_1_e_a_utils.html#af1c589b6d5ba261e1417f3cd299e8e5d" target="_top" xlink:title="Perform fitness&#45;based, class&#45;compatible selection of parents that can do crossover operations.">
<polygon fill="white" stroke="black" points="163,-732 163,-751 329,-751 329,-732 163,-732"/>
<text text-anchor="middle" x="246" y="-739" font-family="Helvetica,sans-Serif" font-size="10.00">denoptim.ga.EAUtils.performFBCC</text>
</a>
</g>
</g>
<!-- Node22&#45;&gt;Node23 -->
<g id="edge22" class="edge">
<title>Node22&#45;&gt;Node23</title>
<path fill="none" stroke="midnightblue" d="M383.78,-773.19C351.62,-765.74 315.27,-757.32 288.13,-751.03"/>
<polygon fill="midnightblue" stroke="midnightblue" points="383.07,-776.62 393.61,-775.47 384.65,-769.8 383.07,-776.62"/>
</g>
<!-- Node24 -->
<g id="node24" class="node">
<title>Node24</title>
<g id="a_node24"><a xlink:href="classdenoptim_1_1ga_1_1_population_test.html#a5db0672054a9fc1dbc923310732fdb3a" target="_top" xlink:title=" ">
<polygon fill="white" stroke="black" points="168.5,-821.5 168.5,-851.5 323.5,-851.5 323.5,-821.5 168.5,-821.5"/>
<text text-anchor="start" x="176.5" y="-839.5" font-family="Helvetica,sans-Serif" font-size="10.00">denoptim.ga.PopulationTest.test</text>
<text text-anchor="middle" x="246" y="-828.5" font-family="Helvetica,sans-Serif" font-size="10.00">Clone</text>
</a>
</g>
</g>
<!-- Node22&#45;&gt;Node24 -->
<g id="edge24" class="edge">
<title>Node22&#45;&gt;Node24</title>
<path fill="none" stroke="midnightblue" d="M382.87,-806.95C361.06,-811.69 337.39,-816.84 316.01,-821.49"/>
<polygon fill="midnightblue" stroke="midnightblue" points="383.71,-810.35 392.74,-804.8 382.22,-803.51 383.71,-810.35"/>
</g>
<!-- Node25 -->
<g id="node25" class="node">
<title>Node25</title>
<g id="a_node25"><a xlink:href="classdenoptim_1_1ga_1_1_population_test.html#a278212ebff2501b7071d342f9a027599" target="_top" xlink:title=" ">
<polygon fill="white" stroke="black" points="168.5,-772.5 168.5,-802.5 323.5,-802.5 323.5,-772.5 168.5,-772.5"/>
<text text-anchor="start" x="176.5" y="-790.5" font-family="Helvetica,sans-Serif" font-size="10.00">denoptim.ga.PopulationTest.test</text>
<text text-anchor="middle" x="246" y="-779.5" font-family="Helvetica,sans-Serif" font-size="10.00">XOverCompatibility</text>
</a>
</g>
</g>
<!-- Node22&#45;&gt;Node25 -->
<g id="edge25" class="edge">
<title>Node22&#45;&gt;Node25</title>
<path fill="none" stroke="midnightblue" d="M382.59,-789.42C363.49,-789.15 342.98,-788.86 323.83,-788.59"/>
<polygon fill="midnightblue" stroke="midnightblue" points="382.69,-792.92 392.74,-789.57 382.79,-785.93 382.69,-792.92"/>
</g>
<!-- Node23&#45;&gt;Node9 -->
<g id="edge23" class="edge">
<title>Node23&#45;&gt;Node9</title>
<path fill="none" stroke="midnightblue" d="M200.1,-729.31C175.82,-722.72 145.62,-714.52 119.89,-707.54"/>
<polygon fill="midnightblue" stroke="midnightblue" points="199.2,-732.69 209.77,-731.94 201.04,-725.94 199.2,-732.69"/>
</g>
<!-- Node28 -->
<g id="node28" class="node">
<title>Node28</title>
<g id="a_node28"><a xlink:href="classdenoptim_1_1ga_1_1_graph_operations.html#a5d90c6e2fa30f287f8f69ed3367ccd0e" target="_top" xlink:title="Given a pair of seed vertexes that define where a pair of subgraphs stars in the corresponding origin...">
<polygon fill="white" stroke="black" points="806,-750.5 806,-780.5 988,-780.5 988,-750.5 806,-750.5"/>
<text text-anchor="start" x="814" y="-768.5" font-family="Helvetica,sans-Serif" font-size="10.00">denoptim.ga.GraphOperations.process</text>
<text text-anchor="middle" x="897" y="-757.5" font-family="Helvetica,sans-Serif" font-size="10.00">CombinationOfEndPoints</text>
</a>
</g>
</g>
<!-- Node27&#45;&gt;Node28 -->
<g id="edge30" class="edge">
<title>Node27&#45;&gt;Node28</title>
<path fill="none" stroke="midnightblue" d="M1024.81,-765.5C1012.66,-765.5 1000.3,-765.5 988.3,-765.5"/>
<polygon fill="midnightblue" stroke="midnightblue" points="1024.96,-769 1034.96,-765.5 1024.96,-762 1024.96,-769"/>
</g>
<!-- Node28&#45;&gt;Node21 -->
<g id="edge31" class="edge">
<title>Node28&#45;&gt;Node21</title>
<path fill="none" stroke="midnightblue" d="M795.66,-765.5C785.93,-765.5 776.12,-765.5 766.55,-765.5"/>
<polygon fill="midnightblue" stroke="midnightblue" points="795.76,-769 805.76,-765.5 795.76,-762 795.76,-769"/>
</g>
<!-- Node37 -->
<g id="node37" class="node">
<title>Node37</title>
<g id="a_node37"><a xlink:href="classdenoptim_1_1graph_1_1_d_graph.html#ac950db68259da0226f3d7eb549ba792c" target="_top" xlink:title="Filters a list of vertices according to a query.">
<polygon fill="white" stroke="black" points="1058.5,-84.5 1058.5,-114.5 1193.5,-114.5 1193.5,-84.5 1058.5,-84.5"/>
<text text-anchor="start" x="1066.5" y="-102.5" font-family="Helvetica,sans-Serif" font-size="10.00">denoptim.graph.DGraph.find</text>
<text text-anchor="middle" x="1126" y="-91.5" font-family="Helvetica,sans-Serif" font-size="10.00">Vertices</text>
</a>
</g>
</g>
<!-- Node36&#45;&gt;Node37 -->
<g id="edge41" class="edge">
<title>Node36&#45;&gt;Node37</title>
<path fill="none" stroke="midnightblue" d="M1265.69,-108.17C1241.87,-106.68 1216.33,-105.08 1193.74,-103.67"/>
<polygon fill="midnightblue" stroke="midnightblue" points="1265.59,-111.67 1275.79,-108.8 1266.03,-104.68 1265.59,-111.67"/>
</g>
<!-- Node38 -->
<g id="node38" class="node">
<title>Node38</title>
<g id="a_node38"><a xlink:href="classdenoptim_1_1graph_1_1_d_graph.html#a84f50240dbeb8c678cce82eddd200e1c" target="_top" xlink:title="Remove all but one of the symmetry&#45;related partners in a given list of vertex IDs.">
<polygon fill="white" stroke="black" points="1050,-35.5 1050,-65.5 1202,-65.5 1202,-35.5 1050,-35.5"/>
<text text-anchor="start" x="1058" y="-53.5" font-family="Helvetica,sans-Serif" font-size="10.00">denoptim.graph.DGraph.remove</text>
<text text-anchor="middle" x="1126" y="-42.5" font-family="Helvetica,sans-Serif" font-size="10.00">SymmetryRedundantIds</text>
</a>
</g>
</g>
<!-- Node36&#45;&gt;Node38 -->
<g id="edge42" class="edge">
<title>Node36&#45;&gt;Node38</title>
<path fill="none" stroke="midnightblue" d="M1285.6,-95.4C1278.28,-93.17 1270.96,-90.85 1264,-88.5 1247.73,-83.01 1244.39,-79.61 1228,-74.5 1217.68,-71.28 1206.64,-68.26 1195.8,-65.51"/>
<polygon fill="midnightblue" stroke="midnightblue" points="1284.95,-98.86 1295.54,-98.38 1286.96,-92.16 1284.95,-98.86"/>
</g>
</g>
</svg>
        <g id="navigator" transform="translate(0 0)" fill="#404254">
                <rect fill="#f2f5e9" fill-opacity="0.5" stroke="#606060" stroke-width=".5" x="0" y="0" width="60" height="60"/>
                <use id="zoomplus" xlink:href="#zoomPlus" x="17" y="9" onmousedown="handleZoom(evt,'in')"/>
                <use id="zoomminus" xlink:href="#zoomMin" x="42" y="9" onmousedown="handleZoom(evt,'out')"/>
                <use id="reset" xlink:href="#resetDef" x="30" y="36" onmousedown="handleReset()"/>
                <g id="arrowUp" xlink:href="#dirArrow" transform="translate(30 24)" onmousedown="handlePan(0,-1)">
                  <use xlink:href="#rim" fill="#404040">
                        <set attributeName="fill" to="#808080" begin="arrowUp.mouseover" end="arrowUp.mouseout"/>
                  </use>
                  <path fill="none" stroke="white" stroke-width="1.5" d="M0,-3.0v7 M-2.5,-0.5L0,-3.0L2.5,-0.5"/>
                </g>
                <g id="arrowRight" xlink:href="#dirArrow" transform="rotate(90) translate(36 -43)" onmousedown="handlePan(1,0)">
                  <use xlink:href="#rim" fill="#404040">
                        <set attributeName="fill" to="#808080" begin="arrowRight.mouseover" end="arrowRight.mouseout"/>
                  </use>
                  <path fill="none" stroke="white" stroke-width="1.5" d="M0,-3.0v7 M-2.5,-0.5L0,-3.0L2.5,-0.5"/>
                </g>
                <g id="arrowDown" xlink:href="#dirArrow" transform="rotate(180) translate(-30 -48)" onmousedown="handlePan(0,1)">
                  <use xlink:href="#rim" fill="#404040">
                        <set attributeName="fill" to="#808080" begin="arrowDown.mouseover" end="arrowDown.mouseout"/>
                  </use>
                  <path fill="none" stroke="white" stroke-width="1.5" d="M0,-3.0v7 M-2.5,-0.5L0,-3.0L2.5,-0.5"/>
                </g>
                <g id="arrowLeft" xlink:href="#dirArrow" transform="rotate(270) translate(-36 17)" onmousedown="handlePan(-1,0)">
                  <use xlink:href="#rim" fill="#404040">
                        <set attributeName="fill" to="#808080" begin="arrowLeft.mouseover" end="arrowLeft.mouseout"/>
                  </use>
                  <path fill="none" stroke="white" stroke-width="1.5" d="M0,-3.0v7 M-2.5,-0.5L0,-3.0L2.5,-0.5"/>
                </g>
        </g>
        <svg viewBox="0 0 15 15" width="100%" height="30px" preserveAspectRatio="xMaxYMin meet">
         <g id="arrow_out" transform="scale(0.3 0.3)">
          <a xlink:href="classdenoptim_1_1graph_1_1_symmetric_set_aca0357f0402f8d0d5191ed6b60826baf_icgraph_org.svg" target="_base">
           <rect id="button" ry="5" rx="5" y="6" x="6" height="38" width="38"
                fill="#f2f5e9" fill-opacity="0.5" stroke="#606060" stroke-width="1.0"/>
           <path id="arrow"
             d="M 11.500037,31.436501 C 11.940474,20.09759 22.043105,11.32322 32.158766,21.979434 L 37.068811,17.246167 C 37.068811,17.246167 37.088388,32 37.088388,32 L 22.160133,31.978069 C 22.160133,31.978069 26.997745,27.140456 26.997745,27.140456 C 18.528582,18.264221 13.291696,25.230495 11.500037,31.436501 z"
             style="fill:#404040;"/>
          </a>
         </g>
        </svg>
</svg>
