<?xml version="1.0" encoding="UTF-8" standalone="no"?>
<!DOCTYPE svg PUBLIC "-//W3C//DTD SVG 1.1//EN"
 "http://www.w3.org/Graphics/SVG/1.1/DTD/svg11.dtd">
<!-- Generated by graphviz version 3.0.0 (20220413.0242)
 -->
<!-- Title: denoptim.graph.SymmetricSet.contains Pages: 1 -->
<svg width="1041pt" height="820pt"
 viewBox="0.00 0.00 1041.00 820.00" xmlns="http://www.w3.org/2000/svg" xmlns:xlink="http://www.w3.org/1999/xlink">
<g id="graph0" class="graph" transform="scale(1 1) rotate(0) translate(4 816)">
<title>denoptim.graph.SymmetricSet.contains</title>
<polygon fill="white" stroke="transparent" points="-4,4 -4,-816 1037,-816 1037,4 -4,4"/>
<!-- Node1 -->
<g id="node1" class="node">
<title>Node1</title>
<g id="a_node1"><a xlink:title="Checks whether the given identifiers is contained in this set.">
<polygon fill="#bfbfbf" stroke="black" points="902,-606.5 902,-636.5 1033,-636.5 1033,-606.5 902,-606.5"/>
<text text-anchor="start" x="910" y="-624.5" font-family="Helvetica,sans-Serif" font-size="10.00">denoptim.graph.Symmetric</text>
<text text-anchor="middle" x="967.5" y="-613.5" font-family="Helvetica,sans-Serif" font-size="10.00">Set.contains</text>
</a>
</g>
</g>
<!-- Node2 -->
<g id="node2" class="node">
<title>Node2</title>
<g id="a_node2"><a xlink:href="classdenoptim_1_1graph_1_1_d_graph.html#a5beca78261eeee2a7860a18f0719584a" target="_top" xlink:title="Append a subgraph (I) to this graph (R) specifying which vertex and attachment point to use for the c...">
<polygon fill="white" stroke="black" points="699,-781.5 699,-811.5 851,-811.5 851,-781.5 699,-781.5"/>
<text text-anchor="start" x="707" y="-799.5" font-family="Helvetica,sans-Serif" font-size="10.00">denoptim.graph.DGraph.append</text>
<text text-anchor="middle" x="775" y="-788.5" font-family="Helvetica,sans-Serif" font-size="10.00">GraphOnAP</text>
</a>
</g>
</g>
<!-- Node1&#45;&gt;Node2 -->
<g id="edge1" class="edge">
<title>Node1&#45;&gt;Node2</title>
<path fill="none" stroke="midnightblue" d="M956.79,-646.13C942.22,-679.85 911.46,-739.9 866,-772.5 861.27,-775.89 856.09,-778.81 850.68,-781.31"/>
<polygon fill="midnightblue" stroke="midnightblue" points="960.16,-647.14 960.79,-636.57 953.7,-644.44 960.16,-647.14"/>
</g>
<!-- Node3 -->
<g id="node3" class="node">
<title>Node3</title>
<g id="a_node3"><a xlink:href="classdenoptim_1_1fragspace_1_1_frags_combination_iterator.html#afa4835767d37078abce9e3fbe5fa16e1" target="_top" xlink:title="Constructs a new factory for generating all the combination of fragments that can be attached on a gi...">
<polygon fill="white" stroke="black" points="684,-722 684,-763 866,-763 866,-722 684,-722"/>
<text text-anchor="start" x="692" y="-751" font-family="Helvetica,sans-Serif" font-size="10.00">denoptim.fragspace.Frags</text>
<text text-anchor="start" x="692" y="-740" font-family="Helvetica,sans-Serif" font-size="10.00">CombinationIterator.FragsCombination</text>
<text text-anchor="middle" x="775" y="-729" font-family="Helvetica,sans-Serif" font-size="10.00">Iterator</text>
</a>
</g>
</g>
<!-- Node1&#45;&gt;Node3 -->
<g id="edge2" class="edge">
<title>Node1&#45;&gt;Node3</title>
<path fill="none" stroke="midnightblue" d="M946.85,-644.41C928,-665.09 897.78,-695.03 866,-713.5 860.75,-716.55 855.14,-719.33 849.37,-721.84"/>
<polygon fill="midnightblue" stroke="midnightblue" points="949.68,-646.5 953.74,-636.71 944.46,-641.83 949.68,-646.5"/>
</g>
<!-- Node4 -->
<g id="node4" class="node">
<title>Node4</title>
<g id="a_node4"><a xlink:href="classdenoptim_1_1fragspace_1_1_frags_combination_iterator.html#a1669a88512d2bd3b14cdd00235dff50a" target="_top" xlink:title="Generate the next combination of fragments.">
<polygon fill="white" stroke="black" points="711,-673.5 711,-703.5 839,-703.5 839,-673.5 711,-673.5"/>
<text text-anchor="start" x="719" y="-691.5" font-family="Helvetica,sans-Serif" font-size="10.00">denoptim.fragspace.Frags</text>
<text text-anchor="middle" x="775" y="-680.5" font-family="Helvetica,sans-Serif" font-size="10.00">CombinationIterator.next</text>
</a>
</g>
</g>
<!-- Node1&#45;&gt;Node4 -->
<g id="edge3" class="edge">
<title>Node1&#45;&gt;Node4</title>
<path fill="none" stroke="midnightblue" d="M924.82,-640.93C906.94,-648.84 885.68,-657.71 866,-664.5 856.83,-667.67 847.01,-670.67 837.36,-673.41"/>
<polygon fill="midnightblue" stroke="midnightblue" points="926.68,-643.93 934.38,-636.64 923.82,-637.54 926.68,-643.93"/>
</g>
<!-- Node9 -->
<g id="node9" class="node">
<title>Node9</title>
<g id="a_node9"><a xlink:href="classdenoptim_1_1graph_1_1_d_graph.html#a357b4099599e47ae47102123550771f8" target="_top" xlink:title="Remove a given vertex belonging to this graph and re&#45;connects the resulting graph branches as much as...">
<polygon fill="white" stroke="black" points="699,-606.5 699,-636.5 851,-636.5 851,-606.5 699,-606.5"/>
<text text-anchor="start" x="707" y="-624.5" font-family="Helvetica,sans-Serif" font-size="10.00">denoptim.graph.DGraph.remove</text>
<text text-anchor="middle" x="775" y="-613.5" font-family="Helvetica,sans-Serif" font-size="10.00">SingleVertexAndWeld</text>
</a>
</g>
</g>
<!-- Node1&#45;&gt;Node9 -->
<g id="edge8" class="edge">
<title>Node1&#45;&gt;Node9</title>
<path fill="none" stroke="midnightblue" d="M891.67,-621.5C878.33,-621.5 864.43,-621.5 851.09,-621.5"/>
<polygon fill="midnightblue" stroke="midnightblue" points="891.74,-625 901.74,-621.5 891.74,-618 891.74,-625"/>
</g>
<!-- Node13 -->
<g id="node13" class="node">
<title>Node13</title>
<g id="a_node13"><a xlink:href="classdenoptim_1_1graph_1_1_d_graph.html#a8e3e3bad36d425ffba874cf557b2d3d2" target="_top" xlink:title="Remove all but one of the symmetry&#45;related partners in a list of vertices.">
<polygon fill="white" stroke="black" points="699,-557.5 699,-587.5 851,-587.5 851,-557.5 699,-557.5"/>
<text text-anchor="start" x="707" y="-575.5" font-family="Helvetica,sans-Serif" font-size="10.00">denoptim.graph.DGraph.remove</text>
<text text-anchor="middle" x="775" y="-564.5" font-family="Helvetica,sans-Serif" font-size="10.00">SymmetryRedundance</text>
</a>
</g>
</g>
<!-- Node1&#45;&gt;Node13 -->
<g id="edge13" class="edge">
<title>Node1&#45;&gt;Node13</title>
<path fill="none" stroke="midnightblue" d="M898.27,-603.95C877.35,-598.57 854.54,-592.7 834.34,-587.51"/>
<polygon fill="midnightblue" stroke="midnightblue" points="897.49,-607.36 908.05,-606.47 899.24,-600.58 897.49,-607.36"/>
</g>
<!-- Node16 -->
<g id="node16" class="node">
<title>Node16</title>
<g id="a_node16"><a xlink:href="classdenoptim_1_1graph_1_1_d_graph.html#a956d0e807af7dbbad5267138e35cdb3d" target="_top" xlink:title="Compare this and another graph ignoring the vertex IDs.">
<polygon fill="white" stroke="black" points="697,-300 697,-319 853,-319 853,-300 697,-300"/>
<text text-anchor="middle" x="775" y="-307" font-family="Helvetica,sans-Serif" font-size="10.00">denoptim.graph.DGraph.sameAs</text>
</a>
</g>
</g>
<!-- Node1&#45;&gt;Node16 -->
<g id="edge16" class="edge">
<title>Node1&#45;&gt;Node16</title>
<path fill="none" stroke="midnightblue" d="M952.09,-597.9C913.3,-534.38 807.87,-361.7 781.86,-319.1"/>
<polygon fill="midnightblue" stroke="midnightblue" points="949.11,-599.74 957.31,-606.45 955.09,-596.09 949.11,-599.74"/>
</g>
<!-- Node32 -->
<g id="node32" class="node">
<title>Node32</title>
<g id="a_node32"><a xlink:href="classdenoptim_1_1graph_1_1_fragment_test.html#a12552fabbb6c8af399da78f10279fce2" target="_top" xlink:title=" ">
<polygon fill="white" stroke="black" points="693,-250.5 693,-280.5 857,-280.5 857,-250.5 693,-250.5"/>
<text text-anchor="start" x="701" y="-268.5" font-family="Helvetica,sans-Serif" font-size="10.00">denoptim.graph.FragmentTest.test</text>
<text text-anchor="middle" x="775" y="-257.5" font-family="Helvetica,sans-Serif" font-size="10.00">ConversionToIAC</text>
</a>
</g>
</g>
<!-- Node1&#45;&gt;Node32 -->
<g id="edge32" class="edge">
<title>Node1&#45;&gt;Node32</title>
<path fill="none" stroke="midnightblue" d="M966.58,-596.08C965.35,-534.44 953.37,-375.82 866,-290.5 862.06,-286.65 857.57,-283.38 852.76,-280.6"/>
<polygon fill="midnightblue" stroke="midnightblue" points="963.09,-596.46 966.7,-606.42 970.09,-596.38 963.09,-596.46"/>
</g>
<!-- Node5 -->
<g id="node5" class="node">
<title>Node5</title>
<g id="a_node5"><a xlink:href="classdenoptim_1_1combinatorial_1_1_combinatorial_explorer_by_layer.html#adcd462866e3f9d6a2a6ef0385807807e" target="_top" xlink:title="Generate graphs by exploring all combination of fragments at a given level of a growing graph.">
<polygon fill="white" stroke="black" points="453,-686 453,-727 641,-727 641,-686 453,-686"/>
<text text-anchor="start" x="461" y="-715" font-family="Helvetica,sans-Serif" font-size="10.00">denoptim.combinatorial.Combinatorial</text>
<text text-anchor="start" x="461" y="-704" font-family="Helvetica,sans-Serif" font-size="10.00">ExplorerByLayer.exploreCombinationsAt</text>
<text text-anchor="middle" x="547" y="-693" font-family="Helvetica,sans-Serif" font-size="10.00">GivenLevel</text>
</a>
</g>
</g>
<!-- Node4&#45;&gt;Node5 -->
<g id="edge4" class="edge">
<title>Node4&#45;&gt;Node5</title>
<path fill="none" stroke="midnightblue" d="M700.7,-694.34C681.74,-695.85 661.07,-697.49 641.24,-699.07"/>
<polygon fill="midnightblue" stroke="midnightblue" points="701.06,-697.82 710.75,-693.54 700.5,-690.84 701.06,-697.82"/>
</g>
<!-- Node6 -->
<g id="node6" class="node">
<title>Node6</title>
<g id="a_node6"><a xlink:href="classdenoptim_1_1combinatorial_1_1_combinatorial_explorer_by_layer.html#af9327fa81f9e2a617cdff353848ad6e1" target="_top" xlink:title="Run the combinatorial exploration.">
<polygon fill="white" stroke="black" points="225,-691.5 225,-721.5 403,-721.5 403,-691.5 225,-691.5"/>
<text text-anchor="start" x="233" y="-709.5" font-family="Helvetica,sans-Serif" font-size="10.00">denoptim.combinatorial.Combinatorial</text>
<text text-anchor="middle" x="314" y="-698.5" font-family="Helvetica,sans-Serif" font-size="10.00">ExplorerByLayer.run</text>
</a>
</g>
</g>
<!-- Node5&#45;&gt;Node6 -->
<g id="edge5" class="edge">
<title>Node5&#45;&gt;Node6</title>
<path fill="none" stroke="midnightblue" d="M442.65,-706.5C429.42,-706.5 415.98,-706.5 403.03,-706.5"/>
<polygon fill="midnightblue" stroke="midnightblue" points="442.71,-710 452.71,-706.5 442.71,-703 442.71,-710"/>
</g>
<!-- Node7 -->
<g id="node7" class="node">
<title>Node7</title>
<g id="a_node7"><a xlink:href="classdenoptim_1_1combinatorial_1_1_combinatorial_explorer_by_layer.html#a8f359a45038dc604a5e437d63a35e1a2" target="_top" xlink:title="Constructor.">
<polygon fill="white" stroke="black" points="0,-737 0,-778 182,-778 182,-737 0,-737"/>
<text text-anchor="start" x="8" y="-766" font-family="Helvetica,sans-Serif" font-size="10.00">denoptim.combinatorial.Combinatorial</text>
<text text-anchor="start" x="8" y="-755" font-family="Helvetica,sans-Serif" font-size="10.00">ExplorerByLayer.CombinatorialExplorer</text>
<text text-anchor="middle" x="91" y="-744" font-family="Helvetica,sans-Serif" font-size="10.00">ByLayer</text>
</a>
</g>
</g>
<!-- Node6&#45;&gt;Node7 -->
<g id="edge6" class="edge">
<title>Node6&#45;&gt;Node7</title>
<path fill="none" stroke="midnightblue" d="M237.92,-723.83C219.69,-728.03 200.02,-732.57 181.21,-736.91"/>
<polygon fill="midnightblue" stroke="midnightblue" points="238.93,-727.18 247.89,-721.53 237.36,-720.36 238.93,-727.18"/>
</g>
<!-- Node8 -->
<g id="node8" class="node">
<title>Node8</title>
<g id="a_node8"><a xlink:href="classdenoptim_1_1programs_1_1combinatorial_1_1_frag_space_explorer.html#a1c6a2aae9ab686d5c7c0fc6246f7aa61" target="_top" xlink:title=" ">
<polygon fill="white" stroke="black" points="10.5,-688.5 10.5,-718.5 171.5,-718.5 171.5,-688.5 10.5,-688.5"/>
<text text-anchor="start" x="18.5" y="-706.5" font-family="Helvetica,sans-Serif" font-size="10.00">denoptim.programs.combinatorial.</text>
<text text-anchor="middle" x="91" y="-695.5" font-family="Helvetica,sans-Serif" font-size="10.00">FragSpaceExplorer.runProgram</text>
</a>
</g>
</g>
<!-- Node6&#45;&gt;Node8 -->
<g id="edge7" class="edge">
<title>Node6&#45;&gt;Node8</title>
<path fill="none" stroke="midnightblue" d="M214.34,-705.16C200.03,-704.97 185.45,-704.77 171.58,-704.58"/>
<polygon fill="midnightblue" stroke="midnightblue" points="214.66,-708.67 224.7,-705.3 214.75,-701.67 214.66,-708.67"/>
</g>
<!-- Node9&#45;&gt;Node9 -->
<g id="edge9" class="edge">
<title>Node9&#45;&gt;Node9</title>
<path fill="none" stroke="midnightblue" d="M809.12,-646.96C804.88,-651.68 793.51,-655 775,-655 744.62,-655 733.47,-646.06 741.54,-636.66"/>
<polygon fill="midnightblue" stroke="midnightblue" points="812.59,-646.42 808.46,-636.66 805.6,-646.86 812.59,-646.42"/>
</g>
<!-- Node10 -->
<g id="node10" class="node">
<title>Node10</title>
<g id="a_node10"><a xlink:href="classdenoptim_1_1graph_1_1_d_graph.html#a00209ca8b4a9623b41e7d9e1e62f69ec" target="_top" xlink:title="Remove a given vertex belonging to this graph and re&#45;connects the resulting graph branches as much as...">
<polygon fill="white" stroke="black" points="471,-637.5 471,-667.5 623,-667.5 623,-637.5 471,-637.5"/>
<text text-anchor="start" x="479" y="-655.5" font-family="Helvetica,sans-Serif" font-size="10.00">denoptim.graph.DGraph.remove</text>
<text text-anchor="middle" x="547" y="-644.5" font-family="Helvetica,sans-Serif" font-size="10.00">VertexAndWeld</text>
</a>
</g>
</g>
<!-- Node9&#45;&gt;Node10 -->
<g id="edge10" class="edge">
<title>Node9&#45;&gt;Node10</title>
<path fill="none" stroke="midnightblue" d="M688.66,-633.21C667.17,-636.15 644.27,-639.3 623.31,-642.17"/>
<polygon fill="midnightblue" stroke="midnightblue" points="689.31,-636.65 698.75,-631.82 688.36,-629.71 689.31,-636.65"/>
</g>
<!-- Node11 -->
<g id="node11" class="node">
<title>Node11</title>
<g id="a_node11"><a xlink:href="classdenoptim_1_1ga_1_1_graph_operations.html#ab3adb5141a8941bf23916bb516faee63" target="_top" xlink:title="Removes a vertex while merging as many of the child branches into the parent vertex.">
<polygon fill="white" stroke="black" points="218,-643 218,-662 410,-662 410,-643 218,-643"/>
<text text-anchor="middle" x="314" y="-650" font-family="Helvetica,sans-Serif" font-size="10.00">denoptim.ga.GraphOperations.deleteLink</text>
</a>
</g>
</g>
<!-- Node10&#45;&gt;Node11 -->
<g id="edge11" class="edge">
<title>Node10&#45;&gt;Node11</title>
<path fill="none" stroke="midnightblue" d="M460.56,-652.5C444.11,-652.5 426.78,-652.5 410.04,-652.5"/>
<polygon fill="midnightblue" stroke="midnightblue" points="460.68,-656 470.68,-652.5 460.68,-649 460.68,-656"/>
</g>
<!-- Node12 -->
<g id="node12" class="node">
<title>Node12</title>
<g id="a_node12"><a xlink:href="classdenoptim_1_1ga_1_1_graph_operations.html#a0c851972015fbb4b2a317b053b8b81d9" target="_top" xlink:title="Mutates the given vertex according to the given mutation type, if possible.">
<polygon fill="white" stroke="black" points="1,-637.5 1,-667.5 181,-667.5 181,-637.5 1,-637.5"/>
<text text-anchor="start" x="9" y="-655.5" font-family="Helvetica,sans-Serif" font-size="10.00">denoptim.ga.GraphOperations.perform</text>
<text text-anchor="middle" x="91" y="-644.5" font-family="Helvetica,sans-Serif" font-size="10.00">Mutation</text>
</a>
</g>
</g>
<!-- Node11&#45;&gt;Node12 -->
<g id="edge12" class="edge">
<title>Node11&#45;&gt;Node12</title>
<path fill="none" stroke="midnightblue" d="M207.97,-652.5C199.06,-652.5 190.1,-652.5 181.33,-652.5"/>
<polygon fill="midnightblue" stroke="midnightblue" points="207.99,-656 217.99,-652.5 207.99,-649 207.99,-656"/>
</g>
<!-- Node14 -->
<g id="node14" class="node">
<title>Node14</title>
<g id="a_node14"><a xlink:href="classdenoptim_1_1graph_1_1_d_graph.html#ac950db68259da0226f3d7eb549ba792c" target="_top" xlink:title="Filters a list of vertices according to a query.">
<polygon fill="white" stroke="black" points="479.5,-588.5 479.5,-618.5 614.5,-618.5 614.5,-588.5 479.5,-588.5"/>
<text text-anchor="start" x="487.5" y="-606.5" font-family="Helvetica,sans-Serif" font-size="10.00">denoptim.graph.DGraph.find</text>
<text text-anchor="middle" x="547" y="-595.5" font-family="Helvetica,sans-Serif" font-size="10.00">Vertices</text>
</a>
</g>
</g>
<!-- Node13&#45;&gt;Node14 -->
<g id="edge14" class="edge">
<title>Node13&#45;&gt;Node14</title>
<path fill="none" stroke="midnightblue" d="M688.72,-584.2C664.19,-587.56 637.8,-591.18 614.58,-594.37"/>
<polygon fill="midnightblue" stroke="midnightblue" points="689.31,-587.65 698.75,-582.82 688.36,-580.71 689.31,-587.65"/>
</g>
<!-- Node15 -->
<g id="node15" class="node">
<title>Node15</title>
<g id="a_node15"><a xlink:href="classdenoptim_1_1graph_1_1_d_graph.html#a84f50240dbeb8c678cce82eddd200e1c" target="_top" xlink:title="Remove all but one of the symmetry&#45;related partners in a given list of vertex IDs.">
<polygon fill="white" stroke="black" points="471,-539.5 471,-569.5 623,-569.5 623,-539.5 471,-539.5"/>
<text text-anchor="start" x="479" y="-557.5" font-family="Helvetica,sans-Serif" font-size="10.00">denoptim.graph.DGraph.remove</text>
<text text-anchor="middle" x="547" y="-546.5" font-family="Helvetica,sans-Serif" font-size="10.00">SymmetryRedundantIds</text>
</a>
</g>
</g>
<!-- Node13&#45;&gt;Node15 -->
<g id="edge15" class="edge">
<title>Node13&#45;&gt;Node15</title>
<path fill="none" stroke="midnightblue" d="M688.66,-565.7C667.17,-563.99 644.27,-562.17 623.31,-560.5"/>
<polygon fill="midnightblue" stroke="midnightblue" points="688.5,-569.2 698.75,-566.51 689.05,-562.22 688.5,-569.2"/>
</g>
<!-- Node17 -->
<g id="node17" class="node">
<title>Node17</title>
<g id="a_node17"><a xlink:href="classdenoptim_1_1ga_1_1_population.html#ab303d612f90e917a7b1b49eadc93c76e" target="_top" xlink:title="Returns a list of population members that can do crossover with the specified member.">
<polygon fill="white" stroke="black" points="480.5,-490.5 480.5,-520.5 613.5,-520.5 613.5,-490.5 480.5,-490.5"/>
<text text-anchor="start" x="488.5" y="-508.5" font-family="Helvetica,sans-Serif" font-size="10.00">denoptim.ga.Population.get</text>
<text text-anchor="middle" x="547" y="-497.5" font-family="Helvetica,sans-Serif" font-size="10.00">XoverPartners</text>
</a>
</g>
</g>
<!-- Node16&#45;&gt;Node17 -->
<g id="edge17" class="edge">
<title>Node16&#45;&gt;Node17</title>
<path fill="none" stroke="midnightblue" d="M765.59,-328.3C748.7,-363.85 707.11,-440.89 648,-480.5 637.74,-487.37 625.75,-492.36 613.7,-495.97"/>
<polygon fill="midnightblue" stroke="midnightblue" points="768.84,-329.61 769.87,-319.06 762.49,-326.67 768.84,-329.61"/>
</g>
<!-- Node22 -->
<g id="node22" class="node">
<title>Node22</title>
<g id="a_node22"><a xlink:href="classdenoptim_1_1ga_1_1_e_a_utils_test.html#ad4662f1a3a989020f953f7034d7c1beb" target="_top" xlink:title="NB: the graphs from methods getPairOfTestGraphsB() and getPairOfTestGraphsBxo() and &#160;&#160;getPairOfTestGr...">
<polygon fill="white" stroke="black" points="470.5,-441.5 470.5,-471.5 623.5,-471.5 623.5,-441.5 470.5,-441.5"/>
<text text-anchor="start" x="478.5" y="-459.5" font-family="Helvetica,sans-Serif" font-size="10.00">denoptim.ga.EAUtilsTest.test</text>
<text text-anchor="middle" x="547" y="-448.5" font-family="Helvetica,sans-Serif" font-size="10.00">BuildByXOver_Embedded_Free</text>
</a>
</g>
</g>
<!-- Node16&#45;&gt;Node22 -->
<g id="edge22" class="edge">
<title>Node16&#45;&gt;Node22</title>
<path fill="none" stroke="midnightblue" d="M760.78,-327.27C739.87,-354.07 696.54,-404.53 648,-431.5 640.41,-435.72 632.11,-439.23 623.64,-442.16"/>
<polygon fill="midnightblue" stroke="midnightblue" points="763.69,-329.23 766.98,-319.16 758.13,-324.98 763.69,-329.23"/>
</g>
<!-- Node23 -->
<g id="node23" class="node">
<title>Node23</title>
<g id="a_node23"><a xlink:href="classdenoptim_1_1ga_1_1_e_a_utils_test.html#af8cfc323dd7d12090ddf4b836a3349cf" target="_top" xlink:title="NB: the graphs from methods getPairOfTestGraphsB() and getPairOfTestGraphsBxo() and &#160;&#160;getPairOfTestGr...">
<polygon fill="white" stroke="black" points="446,-392.5 446,-422.5 648,-422.5 648,-392.5 446,-392.5"/>
<text text-anchor="start" x="454" y="-410.5" font-family="Helvetica,sans-Serif" font-size="10.00">denoptim.ga.EAUtilsTest.test</text>
<text text-anchor="middle" x="547" y="-399.5" font-family="Helvetica,sans-Serif" font-size="10.00">BuildByXOver_Embedded_FreeBackwards</text>
</a>
</g>
</g>
<!-- Node16&#45;&gt;Node23 -->
<g id="edge23" class="edge">
<title>Node16&#45;&gt;Node23</title>
<path fill="none" stroke="midnightblue" d="M751.78,-324.96C727.35,-341.33 686.44,-366.92 648,-382.5 638.71,-386.26 628.7,-389.58 618.73,-392.46"/>
<polygon fill="midnightblue" stroke="midnightblue" points="754,-327.69 760.3,-319.18 750.06,-321.9 754,-327.69"/>
</g>
<!-- Node24 -->
<g id="node24" class="node">
<title>Node24</title>
<g id="a_node24"><a xlink:href="classdenoptim_1_1graph_1_1_d_graph_test.html#af7cca36ac677cae488ebd9a866061ba1" target="_top" xlink:title=" ">
<polygon fill="white" stroke="black" points="469,-343.5 469,-373.5 625,-373.5 625,-343.5 469,-343.5"/>
<text text-anchor="start" x="477" y="-361.5" font-family="Helvetica,sans-Serif" font-size="10.00">denoptim.graph.DGraphTest.test</text>
<text text-anchor="middle" x="547" y="-350.5" font-family="Helvetica,sans-Serif" font-size="10.00">SameAs_DiffRings</text>
</a>
</g>
</g>
<!-- Node16&#45;&gt;Node24 -->
<g id="edge24" class="edge">
<title>Node16&#45;&gt;Node24</title>
<path fill="none" stroke="midnightblue" d="M720.07,-321.19C689.34,-327.86 650.51,-336.27 617.51,-343.43"/>
<polygon fill="midnightblue" stroke="midnightblue" points="721.13,-324.55 730.16,-319.01 719.64,-317.7 721.13,-324.55"/>
</g>
<!-- Node25 -->
<g id="node25" class="node">
<title>Node25</title>
<g id="a_node25"><a xlink:href="classdenoptim_1_1graph_1_1_d_graph_test.html#a64805f4f059b37a9be325ce5ac8374ce" target="_top" xlink:title=" ">
<polygon fill="white" stroke="black" points="469,-294.5 469,-324.5 625,-324.5 625,-294.5 469,-294.5"/>
<text text-anchor="start" x="477" y="-312.5" font-family="Helvetica,sans-Serif" font-size="10.00">denoptim.graph.DGraphTest.test</text>
<text text-anchor="middle" x="547" y="-301.5" font-family="Helvetica,sans-Serif" font-size="10.00">SameAs_DiffSymmSet</text>
</a>
</g>
</g>
<!-- Node16&#45;&gt;Node25 -->
<g id="edge25" class="edge">
<title>Node16&#45;&gt;Node25</title>
<path fill="none" stroke="midnightblue" d="M686.69,-309.5C666.42,-309.5 644.98,-309.5 625.18,-309.5"/>
<polygon fill="midnightblue" stroke="midnightblue" points="686.86,-313 696.86,-309.5 686.86,-306 686.86,-313"/>
</g>
<!-- Node26 -->
<g id="node26" class="node">
<title>Node26</title>
<g id="a_node26"><a xlink:href="classdenoptim_1_1graph_1_1_d_graph_test.html#a3a00bffb3f72683ef63569ed038fe8e1" target="_top" xlink:title=" ">
<polygon fill="white" stroke="black" points="469,-245.5 469,-275.5 625,-275.5 625,-245.5 469,-245.5"/>
<text text-anchor="start" x="477" y="-263.5" font-family="Helvetica,sans-Serif" font-size="10.00">denoptim.graph.DGraphTest.test</text>
<text text-anchor="middle" x="547" y="-252.5" font-family="Helvetica,sans-Serif" font-size="10.00">SameAs_DiffVertex</text>
</a>
</g>
</g>
<!-- Node16&#45;&gt;Node26 -->
<g id="edge26" class="edge">
<title>Node16&#45;&gt;Node26</title>
<path fill="none" stroke="midnightblue" d="M720.07,-297.81C689.34,-291.14 650.51,-282.73 617.51,-275.57"/>
<polygon fill="midnightblue" stroke="midnightblue" points="719.64,-301.3 730.16,-299.99 721.13,-294.45 719.64,-301.3"/>
</g>
<!-- Node27 -->
<g id="node27" class="node">
<title>Node27</title>
<g id="a_node27"><a xlink:href="classdenoptim_1_1graph_1_1_d_graph_test.html#a3c40acdcc664e0010478429cbb0bb7ac" target="_top" xlink:title=" ">
<polygon fill="white" stroke="black" points="469,-196.5 469,-226.5 625,-226.5 625,-196.5 469,-196.5"/>
<text text-anchor="start" x="477" y="-214.5" font-family="Helvetica,sans-Serif" font-size="10.00">denoptim.graph.DGraphTest.test</text>
<text text-anchor="middle" x="547" y="-203.5" font-family="Helvetica,sans-Serif" font-size="10.00">SameAs_DisorderRings</text>
</a>
</g>
</g>
<!-- Node16&#45;&gt;Node27 -->
<g id="edge27" class="edge">
<title>Node16&#45;&gt;Node27</title>
<path fill="none" stroke="midnightblue" d="M695.35,-295.98C691.38,-294.09 687.57,-291.94 684,-289.5 660.21,-273.2 671.66,-252 648,-235.5 641.04,-230.65 633.23,-226.77 625.11,-223.67"/>
<polygon fill="midnightblue" stroke="midnightblue" points="694.28,-299.33 704.86,-299.95 696.97,-292.87 694.28,-299.33"/>
</g>
<!-- Node28 -->
<g id="node28" class="node">
<title>Node28</title>
<g id="a_node28"><a xlink:href="classdenoptim_1_1graph_1_1_d_graph_test.html#ae71f1b47a3b17f3589caf6534bff5982" target="_top" xlink:title=" ">
<polygon fill="white" stroke="black" points="469,-147.5 469,-177.5 625,-177.5 625,-147.5 469,-147.5"/>
<text text-anchor="start" x="477" y="-165.5" font-family="Helvetica,sans-Serif" font-size="10.00">denoptim.graph.DGraphTest.test</text>
<text text-anchor="middle" x="547" y="-154.5" font-family="Helvetica,sans-Serif" font-size="10.00">SameAs_Equal</text>
</a>
</g>
</g>
<!-- Node16&#45;&gt;Node28 -->
<g id="edge28" class="edge">
<title>Node16&#45;&gt;Node28</title>
<path fill="none" stroke="midnightblue" d="M691.16,-294.94C688.64,-293.3 686.24,-291.49 684,-289.5 647.75,-257.28 683.97,-219.02 648,-186.5 641.38,-180.51 633.53,-175.95 625.18,-172.48"/>
<polygon fill="midnightblue" stroke="midnightblue" points="689.68,-298.13 700.13,-299.9 693.06,-292 689.68,-298.13"/>
</g>
<!-- Node29 -->
<g id="node29" class="node">
<title>Node29</title>
<g id="a_node29"><a xlink:href="classdenoptim_1_1graph_1_1_d_graph_test.html#ac79cc6d29df4c3b5e6e96643912115f5" target="_top" xlink:title=" ">
<polygon fill="white" stroke="black" points="469,-98.5 469,-128.5 625,-128.5 625,-98.5 469,-98.5"/>
<text text-anchor="start" x="477" y="-116.5" font-family="Helvetica,sans-Serif" font-size="10.00">denoptim.graph.DGraphTest.test</text>
<text text-anchor="middle" x="547" y="-105.5" font-family="Helvetica,sans-Serif" font-size="10.00">SameAs_SameRings</text>
</a>
</g>
</g>
<!-- Node16&#45;&gt;Node29 -->
<g id="edge29" class="edge">
<title>Node16&#45;&gt;Node29</title>
<path fill="none" stroke="midnightblue" d="M690.06,-294.64C687.92,-293.08 685.89,-291.37 684,-289.5 634.57,-240.75 697.02,-186.66 648,-137.5 641.57,-131.05 633.73,-126.22 625.31,-122.62"/>
<polygon fill="midnightblue" stroke="midnightblue" points="688.43,-297.75 698.78,-299.98 692.08,-291.78 688.43,-297.75"/>
</g>
<!-- Node30 -->
<g id="node30" class="node">
<title>Node30</title>
<g id="a_node30"><a xlink:href="classdenoptim_1_1graph_1_1_d_graph_test.html#a2cb527dcac2a1f307d70dfda13965786" target="_top" xlink:title=" ">
<polygon fill="white" stroke="black" points="469,-49.5 469,-79.5 625,-79.5 625,-49.5 469,-49.5"/>
<text text-anchor="start" x="477" y="-67.5" font-family="Helvetica,sans-Serif" font-size="10.00">denoptim.graph.DGraphTest.test</text>
<text text-anchor="middle" x="547" y="-56.5" font-family="Helvetica,sans-Serif" font-size="10.00">SameAs_SameSymmSet</text>
</a>
</g>
</g>
<!-- Node16&#45;&gt;Node30 -->
<g id="edge30" class="edge">
<title>Node16&#45;&gt;Node30</title>
<path fill="none" stroke="midnightblue" d="M689.17,-294.19C687.35,-292.75 685.62,-291.19 684,-289.5 621.17,-224.01 710.28,-154.52 648,-88.5 641.63,-81.75 633.72,-76.75 625.16,-73.07"/>
<polygon fill="midnightblue" stroke="midnightblue" points="687.4,-297.22 697.68,-299.79 691.24,-291.37 687.4,-297.22"/>
</g>
<!-- Node31 -->
<g id="node31" class="node">
<title>Node31</title>
<g id="a_node31"><a xlink:href="classdenoptim_1_1io_1_1_denoptim_i_o_test.html#a716f5e1ae52b617c411ab57cb83ee78a" target="_top" xlink:title=" ">
<polygon fill="white" stroke="black" points="455,-0.5 455,-30.5 639,-30.5 639,-0.5 455,-0.5"/>
<text text-anchor="start" x="463" y="-18.5" font-family="Helvetica,sans-Serif" font-size="10.00">denoptim.io.DenoptimIOTest.test</text>
<text text-anchor="middle" x="547" y="-7.5" font-family="Helvetica,sans-Serif" font-size="10.00">SerializeDeserializeDENOPTIMGraphs</text>
</a>
</g>
</g>
<!-- Node16&#45;&gt;Node31 -->
<g id="edge31" class="edge">
<title>Node16&#45;&gt;Node31</title>
<path fill="none" stroke="midnightblue" d="M689.09,-294.27C687.29,-292.8 685.59,-291.22 684,-289.5 607.68,-207.18 723.62,-122.46 648,-39.5 644.99,-36.2 641.62,-33.32 637.98,-30.8"/>
<polygon fill="midnightblue" stroke="midnightblue" points="687.27,-297.26 697.52,-299.94 691.18,-291.45 687.27,-297.26"/>
</g>
<!-- Node18 -->
<g id="node18" class="node">
<title>Node18</title>
<g id="a_node18"><a xlink:href="classdenoptim_1_1ga_1_1_e_a_utils.html#af1c589b6d5ba261e1417f3cd299e8e5d" target="_top" xlink:title="Perform fitness&#45;based, class&#45;compatible selection of parents that can do crossover operations.">
<polygon fill="white" stroke="black" points="231,-540 231,-559 397,-559 397,-540 231,-540"/>
<text text-anchor="middle" x="314" y="-547" font-family="Helvetica,sans-Serif" font-size="10.00">denoptim.ga.EAUtils.performFBCC</text>
</a>
</g>
</g>
<!-- Node17&#45;&gt;Node18 -->
<g id="edge18" class="edge">
<title>Node17&#45;&gt;Node18</title>
<path fill="none" stroke="midnightblue" d="M470.35,-519.91C435.75,-526.5 395.7,-534.13 364.94,-539.99"/>
<polygon fill="midnightblue" stroke="midnightblue" points="471.25,-523.3 480.42,-517.99 469.94,-516.42 471.25,-523.3"/>
</g>
<!-- Node20 -->
<g id="node20" class="node">
<title>Node20</title>
<g id="a_node20"><a xlink:href="classdenoptim_1_1ga_1_1_population_test.html#a5db0672054a9fc1dbc923310732fdb3a" target="_top" xlink:title=" ">
<polygon fill="white" stroke="black" points="236.5,-490.5 236.5,-520.5 391.5,-520.5 391.5,-490.5 236.5,-490.5"/>
<text text-anchor="start" x="244.5" y="-508.5" font-family="Helvetica,sans-Serif" font-size="10.00">denoptim.ga.PopulationTest.test</text>
<text text-anchor="middle" x="314" y="-497.5" font-family="Helvetica,sans-Serif" font-size="10.00">Clone</text>
</a>
</g>
</g>
<!-- Node17&#45;&gt;Node20 -->
<g id="edge20" class="edge">
<title>Node17&#45;&gt;Node20</title>
<path fill="none" stroke="midnightblue" d="M470.2,-505.5C445.04,-505.5 417.01,-505.5 391.77,-505.5"/>
<polygon fill="midnightblue" stroke="midnightblue" points="470.42,-509 480.42,-505.5 470.42,-502 470.42,-509"/>
</g>
<!-- Node21 -->
<g id="node21" class="node">
<title>Node21</title>
<g id="a_node21"><a xlink:href="classdenoptim_1_1ga_1_1_population_test.html#a278212ebff2501b7071d342f9a027599" target="_top" xlink:title=" ">
<polygon fill="white" stroke="black" points="236.5,-441.5 236.5,-471.5 391.5,-471.5 391.5,-441.5 236.5,-441.5"/>
<text text-anchor="start" x="244.5" y="-459.5" font-family="Helvetica,sans-Serif" font-size="10.00">denoptim.ga.PopulationTest.test</text>
<text text-anchor="middle" x="314" y="-448.5" font-family="Helvetica,sans-Serif" font-size="10.00">XOverCompatibility</text>
</a>
</g>
</g>
<!-- Node17&#45;&gt;Node21 -->
<g id="edge21" class="edge">
<title>Node17&#45;&gt;Node21</title>
<path fill="none" stroke="midnightblue" d="M470.57,-489.5C443.38,-483.73 412.8,-477.25 386,-471.56"/>
<polygon fill="midnightblue" stroke="midnightblue" points="469.91,-492.94 480.42,-491.59 471.37,-486.09 469.91,-492.94"/>
</g>
<!-- Node19 -->
<g id="node19" class="node">
<title>Node19</title>
<g id="a_node19"><a xlink:href="classdenoptim_1_1ga_1_1_e_a_utils.html#a98553265dd4b441b11c6d97d098edb08" target="_top" xlink:title="Generates a new offspring by performing a crossover operation.">
<polygon fill="white" stroke="black" points="27.5,-534.5 27.5,-564.5 154.5,-564.5 154.5,-534.5 27.5,-534.5"/>
<text text-anchor="start" x="35.5" y="-552.5" font-family="Helvetica,sans-Serif" font-size="10.00">denoptim.ga.EAUtils.build</text>
<text text-anchor="middle" x="91" y="-541.5" font-family="Helvetica,sans-Serif" font-size="10.00">CandidateByXOver</text>
</a>
</g>
</g>
<!-- Node18&#45;&gt;Node19 -->
<g id="edge19" class="edge">
<title>Node18&#45;&gt;Node19</title>
<path fill="none" stroke="midnightblue" d="M220.59,-549.5C198.38,-549.5 175.16,-549.5 154.67,-549.5"/>
<polygon fill="midnightblue" stroke="midnightblue" points="220.71,-553 230.71,-549.5 220.71,-546 220.71,-553"/>
</g>
</g>
</svg>
