<?xml version="1.0" encoding="UTF-8" standalone="no"?>
<!DOCTYPE svg PUBLIC "-//W3C//DTD SVG 1.1//EN"
 "http://www.w3.org/Graphics/SVG/1.1/DTD/svg11.dtd">
<!-- Generated by graphviz version 3.0.0 (20220413.0242)
 -->
<!-- Title: denoptim.gui.CuttingRulesSelectionDialog Pages: 1 -->
<svg width="535pt" height="206pt"
 viewBox="0.00 0.00 534.50 206.00" xmlns="http://www.w3.org/2000/svg" xmlns:xlink="http://www.w3.org/1999/xlink">
<g id="graph0" class="graph" transform="scale(1 1) rotate(0) translate(4 202)">
<title>denoptim.gui.CuttingRulesSelectionDialog</title>
<polygon fill="white" stroke="transparent" points="-4,4 -4,-202 530.5,-202 530.5,4 -4,4"/>
<!-- Node1 -->
<g id="node1" class="node">
<title>Node1</title>
<g id="a_node1"><a xlink:title="A modal dialog to define parameters for fragmentation and fragment filtering.">
<polygon fill="#bfbfbf" stroke="black" points="204,-0.5 204,-30.5 333,-30.5 333,-0.5 204,-0.5"/>
<text text-anchor="start" x="212" y="-18.5" font-family="Helvetica,sans-Serif" font-size="10.00">denoptim.gui.CuttingRules</text>
<text text-anchor="middle" x="268.5" y="-7.5" font-family="Helvetica,sans-Serif" font-size="10.00">SelectionDialog</text>
</a>
</g>
</g>
<!-- Node2 -->
<g id="node2" class="node">
<title>Node2</title>
<g id="a_node2"><a xlink:href="classdenoptim_1_1gui_1_1_g_u_i_modal_dialog.html" target="_top" xlink:title=" ">
<polygon fill="white" stroke="black" points="20,-89.5 20,-108.5 165,-108.5 165,-89.5 20,-89.5"/>
<text text-anchor="middle" x="92.5" y="-96.5" font-family="Helvetica,sans-Serif" font-size="10.00">denoptim.gui.GUIModalDialog</text>
</a>
</g>
</g>
<!-- Node2&#45;&gt;Node1 -->
<g id="edge1" class="edge">
<title>Node2&#45;&gt;Node1</title>
<path fill="none" stroke="midnightblue" d="M120.27,-85.14C152.39,-70.27 205.1,-45.86 238.24,-30.51"/>
<polygon fill="midnightblue" stroke="midnightblue" points="118.61,-82.05 111,-89.43 121.55,-88.41 118.61,-82.05"/>
</g>
<!-- Node3 -->
<g id="node3" class="node">
<title>Node3</title>
<g id="a_node3"><a xlink:title=" ">
<polygon fill="white" stroke="black" points="0,-178.5 0,-197.5 49,-197.5 49,-178.5 0,-178.5"/>
<text text-anchor="middle" x="24.5" y="-185.5" font-family="Helvetica,sans-Serif" font-size="10.00">JDialog</text>
</a>
</g>
</g>
<!-- Node3&#45;&gt;Node2 -->
<g id="edge2" class="edge">
<title>Node3&#45;&gt;Node2</title>
<path fill="none" stroke="midnightblue" d="M37.6,-170.24C52,-151.82 74.58,-122.93 85.76,-108.62"/>
<polygon fill="midnightblue" stroke="midnightblue" points="34.67,-168.31 31.27,-178.34 40.18,-172.62 34.67,-168.31"/>
</g>
<!-- Node4 -->
<g id="node4" class="node">
<title>Node4</title>
<g id="a_node4"><a xlink:title=" ">
<polygon fill="white" stroke="black" points="67.5,-178.5 67.5,-197.5 117.5,-197.5 117.5,-178.5 67.5,-178.5"/>
<text text-anchor="middle" x="92.5" y="-185.5" font-family="Helvetica,sans-Serif" font-size="10.00">JButton</text>
</a>
</g>
</g>
<!-- Node4&#45;&gt;Node2 -->
<g id="edge3" class="edge">
<title>Node4&#45;&gt;Node2</title>
<path fill="none" stroke="#9a32cd" stroke-dasharray="5,2" d="M92.5,-168.19C92.5,-149.74 92.5,-122.41 92.5,-108.62"/>
<polygon fill="#9a32cd" stroke="#9a32cd" points="89,-168.34 92.5,-178.34 96,-168.34 89,-168.34"/>
<text text-anchor="middle" x="112" y="-152" font-family="Helvetica,sans-Serif" font-size="10.00"> btnCanc</text>
<text text-anchor="middle" x="112" y="-141" font-family="Helvetica,sans-Serif" font-size="10.00">btnDone</text>
<text text-anchor="middle" x="112" y="-130" font-family="Helvetica,sans-Serif" font-size="10.00">btnExtra</text>
</g>
<!-- Node5 -->
<g id="node5" class="node">
<title>Node5</title>
<g id="a_node5"><a xlink:title=" ">
<polygon fill="white" stroke="black" points="136,-178.5 136,-197.5 183,-197.5 183,-178.5 136,-178.5"/>
<text text-anchor="middle" x="159.5" y="-185.5" font-family="Helvetica,sans-Serif" font-size="10.00">JPanel</text>
</a>
</g>
</g>
<!-- Node5&#45;&gt;Node2 -->
<g id="edge4" class="edge">
<title>Node5&#45;&gt;Node2</title>
<path fill="none" stroke="#9a32cd" stroke-dasharray="5,2" d="M155.32,-168.42C151.73,-155.69 145.51,-138.99 135.5,-127 129.06,-119.28 119.83,-113.09 111.57,-108.58"/>
<polygon fill="#9a32cd" stroke="#9a32cd" points="151.99,-169.54 157.83,-178.38 158.78,-167.82 151.99,-169.54"/>
<text text-anchor="middle" x="178.5" y="-141" font-family="Helvetica,sans-Serif" font-size="10.00"> pnlControls</text>
</g>
<!-- Node6 -->
<g id="node6" class="node">
<title>Node6</title>
<g id="a_node6"><a xlink:title=" ">
<polygon fill="white" stroke="black" points="183,-89.5 183,-108.5 258,-108.5 258,-89.5 183,-89.5"/>
<text text-anchor="middle" x="220.5" y="-96.5" font-family="Helvetica,sans-Serif" font-size="10.00">JRadioButton</text>
</a>
</g>
</g>
<!-- Node6&#45;&gt;Node1 -->
<g id="edge5" class="edge">
<title>Node6&#45;&gt;Node1</title>
<path fill="none" stroke="#9a32cd" stroke-dasharray="5,2" d="M219.95,-79.3C220.44,-69.68 222.27,-58.11 227.5,-49 231.66,-41.75 238.13,-35.52 244.7,-30.5"/>
<polygon fill="#9a32cd" stroke="#9a32cd" points="216.45,-79.39 219.88,-89.42 223.45,-79.44 216.45,-79.39"/>
<text text-anchor="middle" x="261.5" y="-63" font-family="Helvetica,sans-Serif" font-size="10.00"> rdbUseCustom</text>
<text text-anchor="middle" x="261.5" y="-52" font-family="Helvetica,sans-Serif" font-size="10.00">rdbUseDefault</text>
</g>
<!-- Node7 -->
<g id="node7" class="node">
<title>Node7</title>
<g id="a_node7"><a xlink:title=" ">
<polygon fill="white" stroke="black" points="275.5,-89.5 275.5,-108.5 373.5,-108.5 373.5,-89.5 275.5,-89.5"/>
<text text-anchor="middle" x="324.5" y="-96.5" font-family="Helvetica,sans-Serif" font-size="10.00">DefaultTableModel</text>
</a>
</g>
</g>
<!-- Node7&#45;&gt;Node1 -->
<g id="edge6" class="edge">
<title>Node7&#45;&gt;Node1</title>
<path fill="none" stroke="#9a32cd" stroke-dasharray="5,2" d="M315.04,-80.5C309.66,-70.96 302.6,-59.08 295.5,-49 291.11,-42.76 285.83,-36.23 281.11,-30.67"/>
<polygon fill="#9a32cd" stroke="#9a32cd" points="312.07,-82.36 319.97,-89.42 318.2,-78.98 312.07,-82.36"/>
<text text-anchor="middle" x="360" y="-63" font-family="Helvetica,sans-Serif" font-size="10.00"> customRulesTabModel</text>
<text text-anchor="middle" x="360" y="-52" font-family="Helvetica,sans-Serif" font-size="10.00">defaultRulesTabModel</text>
</g>
<!-- Node8 -->
<g id="node8" class="node">
<title>Node8</title>
<g id="a_node8"><a xlink:title=" ">
<polygon fill="white" stroke="black" points="427.5,-89.5 427.5,-108.5 459.5,-108.5 459.5,-89.5 427.5,-89.5"/>
<text text-anchor="middle" x="443.5" y="-96.5" font-family="Helvetica,sans-Serif" font-size="10.00">File</text>
</a>
</g>
</g>
<!-- Node8&#45;&gt;Node1 -->
<g id="edge7" class="edge">
<title>Node8&#45;&gt;Node1</title>
<path fill="none" stroke="#9a32cd" stroke-dasharray="5,2" d="M437.33,-79.68C432.87,-69.17 425.8,-56.58 415.5,-49 391.93,-31.64 360.84,-23.25 333.33,-19.31"/>
<polygon fill="#9a32cd" stroke="#9a32cd" points="434.14,-81.13 440.95,-89.25 440.69,-78.66 434.14,-81.13"/>
<text text-anchor="middle" x="479.5" y="-63" font-family="Helvetica,sans-Serif" font-size="10.00"> lastUsedCutRulFile</text>
<text text-anchor="middle" x="479.5" y="-52" font-family="Helvetica,sans-Serif" font-size="10.00">nextWrittenCutRulFile</text>
</g>
</g>
</svg>
