<?xml version="1.0" encoding="UTF-8" standalone="no"?>
<!DOCTYPE svg PUBLIC "-//W3C//DTD SVG 1.1//EN"
 "http://www.w3.org/Graphics/SVG/1.1/DTD/svg11.dtd">
<!-- Generated by graphviz version 3.0.0 (20220413.0242)
 -->
<!-- Title: denoptim.graph.Fragment.clone Pages: 1 -->
<svg width="560pt" height="774pt"
 viewBox="0.00 0.00 560.00 774.00" xmlns="http://www.w3.org/2000/svg" xmlns:xlink="http://www.w3.org/1999/xlink">
<g id="graph0" class="graph" transform="scale(1 1) rotate(0) translate(4 770)">
<title>denoptim.graph.Fragment.clone</title>
<polygon fill="white" stroke="transparent" points="-4,4 -4,-770 556,-770 556,4 -4,4"/>
<!-- Node1 -->
<g id="node1" class="node">
<title>Node1</title>
<g id="a_node1"><a xlink:title="Returns a deep copy of this fragments.">
<polygon fill="#bfbfbf" stroke="black" points="0,-373 0,-392 152,-392 152,-373 0,-373"/>
<text text-anchor="middle" x="76" y="-380" font-family="Helvetica,sans-Serif" font-size="10.00">denoptim.graph.Fragment.clone</text>
</a>
</g>
</g>
<!-- Node1&#45;&gt;Node1 -->
<g id="edge1" class="edge">
<title>Node1&#45;&gt;Node1</title>
<path fill="none" stroke="midnightblue" d="M46.1,-392.26C31.55,-401.07 41.52,-410.5 76,-410.5 100.24,-410.5 112.37,-405.84 112.37,-400"/>
<polygon fill="midnightblue" stroke="midnightblue" points="115,-397.69 105.9,-392.26 109.63,-402.17 115,-397.69"/>
</g>
<!-- Node2 -->
<g id="node2" class="node">
<title>Node2</title>
<g id="a_node2"><a xlink:href="classdenoptim_1_1graph_1_1_vertex.html#a6e237f0bbd68ebc3c6cd4278713ea7b2" target="_top" xlink:title="Copies all the string&#45;based properties and properties defined in the Vertex#uniquefyingPropertyKeys s...">
<polygon fill="white" stroke="black" points="202.5,-735.5 202.5,-765.5 337.5,-765.5 337.5,-735.5 202.5,-735.5"/>
<text text-anchor="start" x="210.5" y="-753.5" font-family="Helvetica,sans-Serif" font-size="10.00">denoptim.graph.Vertex.copy</text>
<text text-anchor="middle" x="270" y="-742.5" font-family="Helvetica,sans-Serif" font-size="10.00">StringBasedProperties</text>
</a>
</g>
</g>
<!-- Node1&#45;&gt;Node2 -->
<g id="edge2" class="edge">
<title>Node1&#45;&gt;Node2</title>
<path fill="none" stroke="midnightblue" d="M77.04,-392.07C77.79,-436.88 86.96,-627.87 188,-726.5 189.71,-728.16 191.52,-729.72 193.43,-731.16"/>
<polygon fill="midnightblue" stroke="midnightblue" points="191.97,-734.38 202.28,-736.83 195.75,-728.49 191.97,-734.38"/>
</g>
<!-- Node3 -->
<g id="node3" class="node">
<title>Node3</title>
<g id="a_node3"><a xlink:href="classdenoptim_1_1graph_1_1_fragment.html#ad9843701125210a688964d85a77bfac4" target="_top" xlink:title="Constructor of an empty fragment.">
<polygon fill="white" stroke="black" points="206,-686.5 206,-716.5 334,-716.5 334,-686.5 206,-686.5"/>
<text text-anchor="start" x="214" y="-704.5" font-family="Helvetica,sans-Serif" font-size="10.00">denoptim.graph.Fragment.</text>
<text text-anchor="middle" x="270" y="-693.5" font-family="Helvetica,sans-Serif" font-size="10.00">Fragment</text>
</a>
</g>
</g>
<!-- Node1&#45;&gt;Node3 -->
<g id="edge3" class="edge">
<title>Node1&#45;&gt;Node3</title>
<path fill="none" stroke="midnightblue" d="M77.63,-392.07C80.82,-432.95 98.87,-594.55 188,-677.5 190.74,-680.05 193.73,-682.33 196.91,-684.36"/>
<polygon fill="midnightblue" stroke="midnightblue" points="195.24,-687.44 205.68,-689.21 198.62,-681.31 195.24,-687.44"/>
</g>
<!-- Node4 -->
<g id="node4" class="node">
<title>Node4</title>
<g id="a_node4"><a xlink:href="classdenoptim_1_1graph_1_1_vertex.html#a200f775296c4c9804e3a2b59e065be8a" target="_top" xlink:title="Returns the index of the building block that should correspond to the position of the building block ...">
<polygon fill="white" stroke="black" points="206,-637.5 206,-667.5 334,-667.5 334,-637.5 206,-637.5"/>
<text text-anchor="start" x="214" y="-655.5" font-family="Helvetica,sans-Serif" font-size="10.00">denoptim.graph.Vertex.get</text>
<text text-anchor="middle" x="270" y="-644.5" font-family="Helvetica,sans-Serif" font-size="10.00">BuildingBlockId</text>
</a>
</g>
</g>
<!-- Node1&#45;&gt;Node4 -->
<g id="edge4" class="edge">
<title>Node1&#45;&gt;Node4</title>
<path fill="none" stroke="midnightblue" d="M78.44,-392.2C84.42,-428.97 110.69,-561.03 188,-628.5 190.82,-630.96 193.88,-633.17 197.1,-635.15"/>
<polygon fill="midnightblue" stroke="midnightblue" points="195.51,-638.26 205.98,-639.88 198.8,-632.09 195.51,-638.26"/>
</g>
<!-- Node5 -->
<g id="node5" class="node">
<title>Node5</title>
<g id="a_node5"><a xlink:href="classdenoptim_1_1graph_1_1_vertex.html#a46dadb5fd30f1877db91e97ae55c2dd8" target="_top" xlink:title=" ">
<polygon fill="white" stroke="black" points="206,-588.5 206,-618.5 334,-618.5 334,-588.5 206,-588.5"/>
<text text-anchor="start" x="214" y="-606.5" font-family="Helvetica,sans-Serif" font-size="10.00">denoptim.graph.Vertex.get</text>
<text text-anchor="middle" x="270" y="-595.5" font-family="Helvetica,sans-Serif" font-size="10.00">BuildingBlockType</text>
</a>
</g>
</g>
<!-- Node1&#45;&gt;Node5 -->
<g id="edge5" class="edge">
<title>Node1&#45;&gt;Node5</title>
<path fill="none" stroke="midnightblue" d="M79.68,-392.44C88.88,-424.66 122.3,-527.14 188,-579.5 190.78,-581.72 193.76,-583.73 196.88,-585.55"/>
<polygon fill="midnightblue" stroke="midnightblue" points="195.47,-588.77 205.97,-590.22 198.67,-582.54 195.47,-588.77"/>
</g>
<!-- Node6 -->
<g id="node6" class="node">
<title>Node6</title>
<g id="a_node6"><a xlink:href="classdenoptim_1_1graph_1_1_fragment.html#a89c8b667604155a6403e59a8e8c00cc4" target="_top" xlink:title=" ">
<polygon fill="white" stroke="black" points="199,-539.5 199,-569.5 341,-569.5 341,-539.5 199,-539.5"/>
<text text-anchor="start" x="207" y="-557.5" font-family="Helvetica,sans-Serif" font-size="10.00">denoptim.graph.Fragment.get</text>
<text text-anchor="middle" x="270" y="-546.5" font-family="Helvetica,sans-Serif" font-size="10.00">SymmetricAPSets</text>
</a>
</g>
</g>
<!-- Node1&#45;&gt;Node6 -->
<g id="edge6" class="edge">
<title>Node1&#45;&gt;Node6</title>
<path fill="none" stroke="midnightblue" d="M81.46,-392.14C94.16,-418.49 133.15,-492.36 188,-530.5 190.16,-532 192.41,-533.41 194.74,-534.73"/>
<polygon fill="midnightblue" stroke="midnightblue" points="193.51,-538.03 204.01,-539.41 196.66,-531.78 193.51,-538.03"/>
</g>
<!-- Node7 -->
<g id="node7" class="node">
<title>Node7</title>
<g id="a_node7"><a xlink:href="classdenoptim_1_1graph_1_1_vertex.html#a5671e1d926fba782f48c494d61980d29" target="_top" xlink:title="Returns the mutation types that are constitutionally configures for this vertex irrespectively on the...">
<polygon fill="white" stroke="black" points="206,-490.5 206,-520.5 334,-520.5 334,-490.5 206,-490.5"/>
<text text-anchor="start" x="214" y="-508.5" font-family="Helvetica,sans-Serif" font-size="10.00">denoptim.graph.Vertex.get</text>
<text text-anchor="middle" x="270" y="-497.5" font-family="Helvetica,sans-Serif" font-size="10.00">UnfilteredMutationTypes</text>
</a>
</g>
</g>
<!-- Node1&#45;&gt;Node7 -->
<g id="edge7" class="edge">
<title>Node1&#45;&gt;Node7</title>
<path fill="none" stroke="midnightblue" d="M85.15,-392.21C102.21,-411.92 143.78,-456.87 188,-481.5 191.27,-483.32 194.69,-485.02 198.2,-486.59"/>
<polygon fill="midnightblue" stroke="midnightblue" points="197.08,-489.92 207.66,-490.5 199.75,-483.45 197.08,-489.92"/>
</g>
<!-- Node8 -->
<g id="node8" class="node">
<title>Node8</title>
<g id="a_node8"><a xlink:href="classdenoptim_1_1graph_1_1_vertex.html#af44ae05546096ec9060d7207f38bc8e9" target="_top" xlink:title=" ">
<polygon fill="white" stroke="black" points="206,-441.5 206,-471.5 334,-471.5 334,-441.5 206,-441.5"/>
<text text-anchor="start" x="214" y="-459.5" font-family="Helvetica,sans-Serif" font-size="10.00">denoptim.graph.Vertex.get</text>
<text text-anchor="middle" x="270" y="-448.5" font-family="Helvetica,sans-Serif" font-size="10.00">VertexId</text>
</a>
</g>
</g>
<!-- Node1&#45;&gt;Node8 -->
<g id="edge8" class="edge">
<title>Node1&#45;&gt;Node8</title>
<path fill="none" stroke="midnightblue" d="M96.32,-392.16C118.2,-402.89 155.11,-420.28 188,-432.5 193.46,-434.53 199.18,-436.51 204.94,-438.4"/>
<polygon fill="midnightblue" stroke="midnightblue" points="204.05,-441.79 214.64,-441.5 206.18,-435.12 204.05,-441.79"/>
</g>
<!-- Node9 -->
<g id="node9" class="node">
<title>Node9</title>
<g id="a_node9"><a xlink:href="classdenoptim_1_1utils_1_1_molecule_utils.html#a377eae6a6254a6d1bd0f218fc2552af3" target="_top" xlink:title="Constructs a copy of an atom container, i.e., a molecule that reflects the one given in the input arg...">
<polygon fill="white" stroke="black" points="188,-392.5 188,-422.5 352,-422.5 352,-392.5 188,-392.5"/>
<text text-anchor="start" x="196" y="-410.5" font-family="Helvetica,sans-Serif" font-size="10.00">denoptim.utils.MoleculeUtils.make</text>
<text text-anchor="middle" x="270" y="-399.5" font-family="Helvetica,sans-Serif" font-size="10.00">SameAs</text>
</a>
</g>
</g>
<!-- Node1&#45;&gt;Node9 -->
<g id="edge9" class="edge">
<title>Node1&#45;&gt;Node9</title>
<path fill="none" stroke="midnightblue" d="M150.13,-392.02C159.16,-393.2 168.48,-394.41 177.73,-395.62"/>
<polygon fill="midnightblue" stroke="midnightblue" points="177.37,-399.1 187.74,-396.92 178.27,-392.16 177.37,-399.1"/>
</g>
<!-- Node11 -->
<g id="node11" class="node">
<title>Node11</title>
<g id="a_node11"><a xlink:href="classdenoptim_1_1graph_1_1_fragment.html#a8d33526e74e10db5d8db591544d6836a" target="_top" xlink:title="Takes the list of APs from the field of this class and projects the APs into properties of the IAtoms...">
<polygon fill="white" stroke="black" points="191,-343.5 191,-373.5 349,-373.5 349,-343.5 191,-343.5"/>
<text text-anchor="start" x="199" y="-361.5" font-family="Helvetica,sans-Serif" font-size="10.00">denoptim.graph.Fragment.project</text>
<text text-anchor="middle" x="270" y="-350.5" font-family="Helvetica,sans-Serif" font-size="10.00">ListAPToAtomProperties</text>
</a>
</g>
</g>
<!-- Node1&#45;&gt;Node11 -->
<g id="edge12" class="edge">
<title>Node1&#45;&gt;Node11</title>
<path fill="none" stroke="midnightblue" d="M152.06,-373.12C161.5,-371.94 171.23,-370.72 180.86,-369.52"/>
<polygon fill="midnightblue" stroke="midnightblue" points="181.34,-372.98 190.83,-368.27 180.47,-366.04 181.34,-372.98"/>
</g>
<!-- Node14 -->
<g id="node14" class="node">
<title>Node14</title>
<g id="a_node14"><a xlink:href="classdenoptim_1_1graph_1_1_vertex.html#a5dbac662f4102558f3cf874c55174c5e" target="_top" xlink:title=" ">
<polygon fill="white" stroke="black" points="206,-294.5 206,-324.5 334,-324.5 334,-294.5 206,-294.5"/>
<text text-anchor="start" x="214" y="-312.5" font-family="Helvetica,sans-Serif" font-size="10.00">denoptim.graph.Vertex.set</text>
<text text-anchor="middle" x="270" y="-301.5" font-family="Helvetica,sans-Serif" font-size="10.00">AsRCV</text>
</a>
</g>
</g>
<!-- Node1&#45;&gt;Node14 -->
<g id="edge15" class="edge">
<title>Node1&#45;&gt;Node14</title>
<path fill="none" stroke="midnightblue" d="M97.19,-372.98C119.23,-362.77 155.7,-346.43 188,-334.5 194.31,-332.17 200.94,-329.88 207.59,-327.68"/>
<polygon fill="midnightblue" stroke="midnightblue" points="208.86,-330.95 217.3,-324.54 206.71,-324.29 208.86,-330.95"/>
</g>
<!-- Node15 -->
<g id="node15" class="node">
<title>Node15</title>
<g id="a_node15"><a xlink:href="classdenoptim_1_1graph_1_1_vertex.html#a867032399d8aad0a894cbf5b51406ac4" target="_top" xlink:title=" ">
<polygon fill="white" stroke="black" points="206,-245.5 206,-275.5 334,-275.5 334,-245.5 206,-245.5"/>
<text text-anchor="start" x="214" y="-263.5" font-family="Helvetica,sans-Serif" font-size="10.00">denoptim.graph.Vertex.set</text>
<text text-anchor="middle" x="270" y="-252.5" font-family="Helvetica,sans-Serif" font-size="10.00">BuildingBlockId</text>
</a>
</g>
</g>
<!-- Node1&#45;&gt;Node15 -->
<g id="edge16" class="edge">
<title>Node1&#45;&gt;Node15</title>
<path fill="none" stroke="midnightblue" d="M85.48,-372.74C102.83,-353.37 144.42,-309.81 188,-285.5 191.94,-283.3 196.09,-281.27 200.36,-279.4"/>
<polygon fill="midnightblue" stroke="midnightblue" points="201.88,-282.57 209.83,-275.56 199.25,-276.08 201.88,-282.57"/>
</g>
<!-- Node16 -->
<g id="node16" class="node">
<title>Node16</title>
<g id="a_node16"><a xlink:href="classdenoptim_1_1graph_1_1_vertex.html#ab8088bc1c894c7c916ca8d8a151fa905" target="_top" xlink:title=" ">
<polygon fill="white" stroke="black" points="206,-196.5 206,-226.5 334,-226.5 334,-196.5 206,-196.5"/>
<text text-anchor="start" x="214" y="-214.5" font-family="Helvetica,sans-Serif" font-size="10.00">denoptim.graph.Vertex.set</text>
<text text-anchor="middle" x="270" y="-203.5" font-family="Helvetica,sans-Serif" font-size="10.00">BuildingBlockType</text>
</a>
</g>
</g>
<!-- Node1&#45;&gt;Node16 -->
<g id="edge17" class="edge">
<title>Node1&#45;&gt;Node16</title>
<path fill="none" stroke="midnightblue" d="M81.71,-372.65C94.75,-346.41 133.98,-274.26 188,-236.5 190.86,-234.5 193.89,-232.66 197.02,-230.96"/>
<polygon fill="midnightblue" stroke="midnightblue" points="198.65,-234.06 206.11,-226.54 195.58,-227.76 198.65,-234.06"/>
</g>
<!-- Node17 -->
<g id="node17" class="node">
<title>Node17</title>
<g id="a_node17"><a xlink:href="classdenoptim_1_1graph_1_1_vertex.html#a0e1114b16856fd16a2de9cface2ea806" target="_top" xlink:title=" ">
<polygon fill="white" stroke="black" points="206,-147.5 206,-177.5 334,-177.5 334,-147.5 206,-147.5"/>
<text text-anchor="start" x="214" y="-165.5" font-family="Helvetica,sans-Serif" font-size="10.00">denoptim.graph.Vertex.set</text>
<text text-anchor="middle" x="270" y="-154.5" font-family="Helvetica,sans-Serif" font-size="10.00">MutationTypes</text>
</a>
</g>
</g>
<!-- Node1&#45;&gt;Node17 -->
<g id="edge18" class="edge">
<title>Node1&#45;&gt;Node17</title>
<path fill="none" stroke="midnightblue" d="M79.73,-372.69C89.1,-340.89 122.99,-239.68 188,-187.5 190.78,-185.27 193.76,-183.23 196.88,-181.38"/>
<polygon fill="midnightblue" stroke="midnightblue" points="198.74,-184.36 205.97,-176.62 195.49,-178.16 198.74,-184.36"/>
</g>
<!-- Node18 -->
<g id="node18" class="node">
<title>Node18</title>
<g id="a_node18"><a xlink:href="classdenoptim_1_1graph_1_1_vertex.html#a1b3682ddb7fc71fdd981526b43d773dc" target="_top" xlink:title=" ">
<polygon fill="white" stroke="black" points="206,-98.5 206,-128.5 334,-128.5 334,-98.5 206,-98.5"/>
<text text-anchor="start" x="214" y="-116.5" font-family="Helvetica,sans-Serif" font-size="10.00">denoptim.graph.Vertex.set</text>
<text text-anchor="middle" x="270" y="-105.5" font-family="Helvetica,sans-Serif" font-size="10.00">Properties</text>
</a>
</g>
</g>
<!-- Node1&#45;&gt;Node18 -->
<g id="edge19" class="edge">
<title>Node1&#45;&gt;Node18</title>
<path fill="none" stroke="midnightblue" d="M78.49,-372.9C84.65,-336.53 111.49,-205.83 188,-138.5 190.82,-136.02 193.88,-133.79 197.1,-131.78"/>
<polygon fill="midnightblue" stroke="midnightblue" points="198.86,-134.8 205.98,-126.95 195.52,-128.65 198.86,-134.8"/>
</g>
<!-- Node19 -->
<g id="node19" class="node">
<title>Node19</title>
<g id="a_node19"><a xlink:href="classdenoptim_1_1graph_1_1_fragment.html#a66decdfeee2f583361c51e00ac598557" target="_top" xlink:title=" ">
<polygon fill="white" stroke="black" points="199,-49.5 199,-79.5 341,-79.5 341,-49.5 199,-49.5"/>
<text text-anchor="start" x="207" y="-67.5" font-family="Helvetica,sans-Serif" font-size="10.00">denoptim.graph.Fragment.set</text>
<text text-anchor="middle" x="270" y="-56.5" font-family="Helvetica,sans-Serif" font-size="10.00">SymmetricAPSets</text>
</a>
</g>
</g>
<!-- Node1&#45;&gt;Node19 -->
<g id="edge20" class="edge">
<title>Node1&#45;&gt;Node19</title>
<path fill="none" stroke="midnightblue" d="M77.7,-372.74C81.14,-331.8 99.97,-172.17 188,-89.5 189.66,-87.94 191.41,-86.49 193.24,-85.12"/>
<polygon fill="midnightblue" stroke="midnightblue" points="195.17,-88.03 201.69,-79.68 191.39,-82.14 195.17,-88.03"/>
</g>
<!-- Node20 -->
<g id="node20" class="node">
<title>Node20</title>
<g id="a_node20"><a xlink:href="classdenoptim_1_1graph_1_1_vertex.html#adcb4510b9e479d5c37f9ccc12f9f5c5f" target="_top" xlink:title=" ">
<polygon fill="white" stroke="black" points="206,-0.5 206,-30.5 334,-30.5 334,-0.5 206,-0.5"/>
<text text-anchor="start" x="214" y="-18.5" font-family="Helvetica,sans-Serif" font-size="10.00">denoptim.graph.Vertex.set</text>
<text text-anchor="middle" x="270" y="-7.5" font-family="Helvetica,sans-Serif" font-size="10.00">VertexId</text>
</a>
</g>
</g>
<!-- Node1&#45;&gt;Node20 -->
<g id="edge21" class="edge">
<title>Node1&#45;&gt;Node20</title>
<path fill="none" stroke="midnightblue" d="M77.09,-372.71C78.07,-327.72 88.19,-138.88 188,-40.5 190.73,-37.81 193.74,-35.41 196.95,-33.27"/>
<polygon fill="midnightblue" stroke="midnightblue" points="198.9,-36.18 205.84,-28.17 195.42,-30.11 198.9,-36.18"/>
</g>
<!-- Node10 -->
<g id="node10" class="node">
<title>Node10</title>
<g id="a_node10"><a xlink:href="classdenoptim_1_1utils_1_1_molecule_utils.html#a68a0db70d2e6d3252269574918177014" target="_top" xlink:title="Method that constructs an atom that reflect the same atom given as parameter in terms of element symb...">
<polygon fill="white" stroke="black" points="388,-392.5 388,-422.5 552,-422.5 552,-392.5 388,-392.5"/>
<text text-anchor="start" x="396" y="-410.5" font-family="Helvetica,sans-Serif" font-size="10.00">denoptim.utils.MoleculeUtils.make</text>
<text text-anchor="middle" x="470" y="-399.5" font-family="Helvetica,sans-Serif" font-size="10.00">SameAtomAs</text>
</a>
</g>
</g>
<!-- Node9&#45;&gt;Node10 -->
<g id="edge10" class="edge">
<title>Node9&#45;&gt;Node10</title>
<path fill="none" stroke="midnightblue" d="M352.11,-407.5C360.46,-407.5 368.99,-407.5 377.44,-407.5"/>
<polygon fill="midnightblue" stroke="midnightblue" points="377.7,-411 387.7,-407.5 377.7,-404 377.7,-411"/>
</g>
<!-- Node10&#45;&gt;Node10 -->
<g id="edge11" class="edge">
<title>Node10&#45;&gt;Node10</title>
<path fill="none" stroke="midnightblue" d="M435.15,-422.66C426.74,-432.06 438.36,-441 470,-441 489.28,-441 501.13,-437.68 505.54,-432.96"/>
<polygon fill="midnightblue" stroke="midnightblue" points="509.01,-432.41 504.85,-422.66 502.02,-432.87 509.01,-432.41"/>
</g>
<!-- Node12 -->
<g id="node12" class="node">
<title>Node12</title>
<g id="a_node12"><a xlink:href="classdenoptim_1_1graph_1_1_fragment.html#a551361a1155600e6e2fe4e37590c924f" target="_top" xlink:title=" ">
<polygon fill="white" stroke="black" points="399,-343.5 399,-373.5 541,-373.5 541,-343.5 399,-343.5"/>
<text text-anchor="start" x="407" y="-361.5" font-family="Helvetica,sans-Serif" font-size="10.00">denoptim.graph.Fragment.get</text>
<text text-anchor="middle" x="470" y="-350.5" font-family="Helvetica,sans-Serif" font-size="10.00">APsFromAtom</text>
</a>
</g>
</g>
<!-- Node11&#45;&gt;Node12 -->
<g id="edge13" class="edge">
<title>Node11&#45;&gt;Node12</title>
<path fill="none" stroke="midnightblue" d="M349.25,-358.5C362.13,-358.5 375.5,-358.5 388.44,-358.5"/>
<polygon fill="midnightblue" stroke="midnightblue" points="388.7,-362 398.7,-358.5 388.7,-355 388.7,-362"/>
</g>
<!-- Node13 -->
<g id="node13" class="node">
<title>Node13</title>
<g id="a_node13"><a xlink:href="classdenoptim_1_1graph_1_1_attachment_point.html#a7e45846280a63bd2bf36b85e502ffa49" target="_top" xlink:title="The index of the source atom in the atom list of the fragment.">
<polygon fill="white" stroke="black" points="396,-294.5 396,-324.5 544,-324.5 544,-294.5 396,-294.5"/>
<text text-anchor="start" x="404" y="-312.5" font-family="Helvetica,sans-Serif" font-size="10.00">denoptim.graph.Attachment</text>
<text text-anchor="middle" x="470" y="-301.5" font-family="Helvetica,sans-Serif" font-size="10.00">Point.getAtomPositionNumber</text>
</a>
</g>
</g>
<!-- Node11&#45;&gt;Node13 -->
<g id="edge14" class="edge">
<title>Node11&#45;&gt;Node13</title>
<path fill="none" stroke="midnightblue" d="M331.75,-343.47C352.85,-338.24 376.68,-332.35 398.5,-326.95"/>
<polygon fill="midnightblue" stroke="midnightblue" points="399.5,-330.31 408.36,-324.51 397.81,-323.51 399.5,-330.31"/>
</g>
</g>
</svg>
