<?xml version="1.0" encoding="UTF-8" standalone="no"?>
<!DOCTYPE svg PUBLIC "-//W3C//DTD SVG 1.1//EN"
 "http://www.w3.org/Graphics/SVG/1.1/DTD/svg11.dtd">
<!-- Generated by graphviz version 3.0.0 (20220413.0242)
 -->
<!-- Title: denoptim.graph.DGraph.extractSubgraph Pages: 1 -->
<svg width="943pt" height="1029pt"
 viewBox="0.00 0.00 943.00 1028.50" xmlns="http://www.w3.org/2000/svg" xmlns:xlink="http://www.w3.org/1999/xlink">
<g id="graph0" class="graph" transform="scale(1 1) rotate(0) translate(4 1024.5)">
<title>denoptim.graph.DGraph.extractSubgraph</title>
<polygon fill="white" stroke="transparent" points="-4,4 -4,-1024.5 939,-1024.5 939,4 -4,4"/>
<!-- Node1 -->
<g id="node1" class="node">
<title>Node1</title>
<g id="a_node1"><a xlink:title="Creates a new graph that corresponds to the subgraph of this graph when exploring the spanning tree f...">
<polygon fill="#bfbfbf" stroke="black" points="0,-219.5 0,-249.5 149,-249.5 149,-219.5 0,-219.5"/>
<text text-anchor="start" x="8" y="-237.5" font-family="Helvetica,sans-Serif" font-size="10.00">denoptim.graph.DGraph.extract</text>
<text text-anchor="middle" x="74.5" y="-226.5" font-family="Helvetica,sans-Serif" font-size="10.00">Subgraph</text>
</a>
</g>
</g>
<!-- Node2 -->
<g id="node2" class="node">
<title>Node2</title>
<g id="a_node2"><a xlink:href="classdenoptim_1_1graph_1_1_d_graph.html#a6f0b9a42074fe224ae52cee5f5875a7c" target="_top" xlink:title="Returns almost &quot;deep&#45;copy&quot; of this graph.">
<polygon fill="white" stroke="black" points="190,-698 190,-717 333,-717 333,-698 190,-698"/>
<text text-anchor="middle" x="261.5" y="-705" font-family="Helvetica,sans-Serif" font-size="10.00">denoptim.graph.DGraph.clone</text>
</a>
</g>
</g>
<!-- Node1&#45;&gt;Node2 -->
<g id="edge1" class="edge">
<title>Node1&#45;&gt;Node2</title>
<path fill="none" stroke="midnightblue" d="M81.45,-249.7C108.79,-319.63 222.46,-610.25 252.95,-688.19"/>
<polygon fill="midnightblue" stroke="midnightblue" points="249.78,-689.7 256.68,-697.74 256.3,-687.15 249.78,-689.7"/>
</g>
<!-- Node19 -->
<g id="node19" class="node">
<title>Node19</title>
<g id="a_node19"><a xlink:href="classdenoptim_1_1graph_1_1_d_graph.html#ae1abe3a930d1189d1020f9a9bbdac0c1" target="_top" xlink:title="Gets all the children of the current vertex recursively.">
<polygon fill="white" stroke="black" points="194.5,-104.5 194.5,-134.5 328.5,-134.5 328.5,-104.5 194.5,-104.5"/>
<text text-anchor="start" x="202.5" y="-122.5" font-family="Helvetica,sans-Serif" font-size="10.00">denoptim.graph.DGraph.get</text>
<text text-anchor="middle" x="261.5" y="-111.5" font-family="Helvetica,sans-Serif" font-size="10.00">ChildTreeLimited</text>
</a>
</g>
</g>
<!-- Node1&#45;&gt;Node19 -->
<g id="edge20" class="edge">
<title>Node1&#45;&gt;Node19</title>
<path fill="none" stroke="midnightblue" d="M99.69,-219.47C132.37,-199.15 190.77,-162.85 227.47,-140.03"/>
<polygon fill="midnightblue" stroke="midnightblue" points="229.66,-142.79 236.31,-134.54 225.97,-136.84 229.66,-142.79"/>
</g>
<!-- Node25 -->
<g id="node25" class="node">
<title>Node25</title>
<g id="a_node25"><a xlink:href="classdenoptim_1_1graph_1_1_d_graph.html#a58811a9ea75a26abffc1a9c7c2b22741" target="_top" xlink:title="Returns the vertex that is in the given position of the list of vertices belonging to this graph.">
<polygon fill="white" stroke="black" points="194.5,-219.5 194.5,-249.5 328.5,-249.5 328.5,-219.5 194.5,-219.5"/>
<text text-anchor="start" x="202.5" y="-237.5" font-family="Helvetica,sans-Serif" font-size="10.00">denoptim.graph.DGraph.get</text>
<text text-anchor="middle" x="261.5" y="-226.5" font-family="Helvetica,sans-Serif" font-size="10.00">VertexAtPosition</text>
</a>
</g>
</g>
<!-- Node1&#45;&gt;Node25 -->
<g id="edge28" class="edge">
<title>Node1&#45;&gt;Node25</title>
<path fill="none" stroke="midnightblue" d="M149.15,-234.5C160.68,-234.5 172.63,-234.5 184.22,-234.5"/>
<polygon fill="midnightblue" stroke="midnightblue" points="184.29,-238 194.29,-234.5 184.29,-231 184.29,-238"/>
</g>
<!-- Node26 -->
<g id="node26" class="node">
<title>Node26</title>
<g id="a_node26"><a xlink:href="classdenoptim_1_1graph_1_1_d_graph.html#a4ce08e69a1405ecd454bafbe2e86e363" target="_top" xlink:title="Returns the index of a vertex in the list of vertices of this graph.">
<polygon fill="white" stroke="black" points="185,-181 185,-200 338,-200 338,-181 185,-181"/>
<text text-anchor="middle" x="261.5" y="-188" font-family="Helvetica,sans-Serif" font-size="10.00">denoptim.graph.DGraph.indexOf</text>
</a>
</g>
</g>
<!-- Node1&#45;&gt;Node26 -->
<g id="edge29" class="edge">
<title>Node1&#45;&gt;Node26</title>
<path fill="none" stroke="midnightblue" d="M138.65,-219.48C162.16,-213.89 188.49,-207.63 210.64,-202.36"/>
<polygon fill="midnightblue" stroke="midnightblue" points="211.59,-205.73 220.5,-200.01 209.97,-198.92 211.59,-205.73"/>
</g>
<!-- Node27 -->
<g id="node27" class="node">
<title>Node27</title>
<g id="a_node27"><a xlink:href="classdenoptim_1_1graph_1_1_d_graph.html#a40786de6efd159a5c54c122d0d3d2c1c" target="_top" xlink:title="Remove a vertex from this graph.">
<polygon fill="white" stroke="black" points="380,-263.5 380,-293.5 532,-293.5 532,-263.5 380,-263.5"/>
<text text-anchor="start" x="388" y="-281.5" font-family="Helvetica,sans-Serif" font-size="10.00">denoptim.graph.DGraph.remove</text>
<text text-anchor="middle" x="456" y="-270.5" font-family="Helvetica,sans-Serif" font-size="10.00">Vertex</text>
</a>
</g>
</g>
<!-- Node1&#45;&gt;Node27 -->
<g id="edge30" class="edge">
<title>Node1&#45;&gt;Node27</title>
<path fill="none" stroke="midnightblue" d="M133.72,-249.54C150.2,-253.32 168.22,-257.01 185,-259.5 246.46,-268.62 316.46,-273.39 369.79,-275.87"/>
<polygon fill="midnightblue" stroke="midnightblue" points="369.74,-279.37 379.88,-276.32 370.05,-272.38 369.74,-279.37"/>
</g>
<!-- Node2&#45;&gt;Node2 -->
<g id="edge3" class="edge">
<title>Node2&#45;&gt;Node2</title>
<path fill="none" stroke="midnightblue" d="M232.83,-717.26C218.89,-726.07 228.44,-735.5 261.5,-735.5 284.23,-735.5 295.85,-731.04 296.36,-725.39"/>
<polygon fill="midnightblue" stroke="midnightblue" points="299.01,-723.1 290.17,-717.26 293.44,-727.33 299.01,-723.1"/>
</g>
<!-- Node3 -->
<g id="node3" class="node">
<title>Node3</title>
<g id="a_node3"><a xlink:href="classdenoptim_1_1graph_1_1_ring.html#a26caae2f4e91d37ffb2f7f3becd97a8e" target="_top" xlink:title="Append a DENOPTIMVertex to the list.">
<polygon fill="white" stroke="black" points="381,-717 381,-736 531,-736 531,-717 381,-717"/>
<text text-anchor="middle" x="456" y="-724" font-family="Helvetica,sans-Serif" font-size="10.00">denoptim.graph.Ring.addVertex</text>
</a>
</g>
</g>
<!-- Node2&#45;&gt;Node3 -->
<g id="edge2" class="edge">
<title>Node2&#45;&gt;Node3</title>
<path fill="none" stroke="midnightblue" d="M333.09,-714.47C345.36,-715.68 358.24,-716.95 370.84,-718.19"/>
<polygon fill="midnightblue" stroke="midnightblue" points="370.57,-721.68 380.86,-719.18 371.26,-714.72 370.57,-721.68"/>
</g>
<!-- Node4 -->
<g id="node4" class="node">
<title>Node4</title>
<g id="a_node4"><a xlink:href="classdenoptim_1_1graph_1_1_vertex.html#a05e1f8f3d4595534fb18c8d6b7e4a82d" target="_top" xlink:title="Returns a deep&#45;copy of this vertex.">
<polygon fill="white" stroke="black" points="387,-679 387,-698 525,-698 525,-679 387,-679"/>
<text text-anchor="middle" x="456" y="-686" font-family="Helvetica,sans-Serif" font-size="10.00">denoptim.graph.Vertex.clone</text>
</a>
</g>
</g>
<!-- Node2&#45;&gt;Node4 -->
<g id="edge4" class="edge">
<title>Node2&#45;&gt;Node4</title>
<path fill="none" stroke="midnightblue" d="M333.09,-700.53C347.39,-699.12 362.5,-697.63 377.03,-696.2"/>
<polygon fill="midnightblue" stroke="midnightblue" points="377.38,-699.68 386.99,-695.21 376.69,-692.71 377.38,-699.68"/>
</g>
<!-- Node5 -->
<g id="node5" class="node">
<title>Node5</title>
<g id="a_node5"><a xlink:href="classdenoptim_1_1graph_1_1_d_graph.html#a8c53e13b64166fc85fc9a7787dadd46b" target="_top" xlink:title=" ">
<polygon fill="white" stroke="black" points="379.5,-641 379.5,-660 532.5,-660 532.5,-641 379.5,-641"/>
<text text-anchor="middle" x="456" y="-648" font-family="Helvetica,sans-Serif" font-size="10.00">denoptim.graph.DGraph.DGraph</text>
</a>
</g>
</g>
<!-- Node2&#45;&gt;Node5 -->
<g id="edge5" class="edge">
<title>Node2&#45;&gt;Node5</title>
<path fill="none" stroke="midnightblue" d="M288.4,-697.86C310.86,-689.71 344.32,-678.02 374,-669.5 382.57,-667.04 391.73,-664.66 400.68,-662.47"/>
<polygon fill="midnightblue" stroke="midnightblue" points="401.75,-665.81 410.66,-660.07 400.12,-659 401.75,-665.81"/>
</g>
<!-- Node6 -->
<g id="node6" class="node">
<title>Node6</title>
<g id="a_node6"><a xlink:href="classdenoptim_1_1graph_1_1_attachment_point.html#a774671253396558cf35ab75613762174" target="_top" xlink:title="Returns the bond type preferred by this attachment point as defined by the APClass,...">
<polygon fill="white" stroke="black" points="388.5,-591.5 388.5,-621.5 523.5,-621.5 523.5,-591.5 388.5,-591.5"/>
<text text-anchor="start" x="396.5" y="-609.5" font-family="Helvetica,sans-Serif" font-size="10.00">denoptim.graph.Attachment</text>
<text text-anchor="middle" x="456" y="-598.5" font-family="Helvetica,sans-Serif" font-size="10.00">Point.getBondType</text>
</a>
</g>
</g>
<!-- Node2&#45;&gt;Node6 -->
<g id="edge6" class="edge">
<title>Node2&#45;&gt;Node6</title>
<path fill="none" stroke="midnightblue" d="M274.15,-697.8C293.67,-681.96 334.74,-650.41 374,-631.5 378.69,-629.24 383.62,-627.13 388.65,-625.17"/>
<polygon fill="midnightblue" stroke="midnightblue" points="390.22,-628.32 398.39,-621.58 387.8,-621.76 390.22,-628.32"/>
</g>
<!-- Node8 -->
<g id="node8" class="node">
<title>Node8</title>
<g id="a_node8"><a xlink:href="classdenoptim_1_1graph_1_1_vertex.html#a367c9d31e4bb13c16e865389c154a767" target="_top" xlink:title="Returns the position of the given AP in the list of APs of this vertex.">
<polygon fill="white" stroke="black" points="597,-454.5 597,-484.5 725,-484.5 725,-454.5 597,-454.5"/>
<text text-anchor="start" x="605" y="-472.5" font-family="Helvetica,sans-Serif" font-size="10.00">denoptim.graph.Vertex.get</text>
<text text-anchor="middle" x="661" y="-461.5" font-family="Helvetica,sans-Serif" font-size="10.00">IndexOfAP</text>
</a>
</g>
</g>
<!-- Node2&#45;&gt;Node8 -->
<g id="edge8" class="edge">
<title>Node2&#45;&gt;Node8</title>
<path fill="none" stroke="midnightblue" d="M264.23,-697.67C270.92,-662.85 298.63,-544.73 374,-494.5 436.66,-452.74 524.98,-451.56 586.84,-457.61"/>
<polygon fill="midnightblue" stroke="midnightblue" points="586.61,-461.11 596.92,-458.68 587.35,-454.15 586.61,-461.11"/>
</g>
<!-- Node10 -->
<g id="node10" class="node">
<title>Node10</title>
<g id="a_node10"><a xlink:href="classdenoptim_1_1graph_1_1_vertex.html#af44ae05546096ec9060d7207f38bc8e9" target="_top" xlink:title=" ">
<polygon fill="white" stroke="black" points="795.5,-410.5 795.5,-440.5 923.5,-440.5 923.5,-410.5 795.5,-410.5"/>
<text text-anchor="start" x="803.5" y="-428.5" font-family="Helvetica,sans-Serif" font-size="10.00">denoptim.graph.Vertex.get</text>
<text text-anchor="middle" x="859.5" y="-417.5" font-family="Helvetica,sans-Serif" font-size="10.00">VertexId</text>
</a>
</g>
</g>
<!-- Node2&#45;&gt;Node10 -->
<g id="edge10" class="edge">
<title>Node2&#45;&gt;Node10</title>
<path fill="none" stroke="midnightblue" d="M267.69,-697.83C281.36,-673.48 320.93,-609.67 374,-582.5 522.76,-506.34 598.33,-617.85 748,-543.5 790.68,-522.3 825.36,-477.31 843.87,-449.41"/>
<polygon fill="midnightblue" stroke="midnightblue" points="847.03,-450.97 849.52,-440.67 841.15,-447.17 847.03,-450.97"/>
</g>
<!-- Node11 -->
<g id="node11" class="node">
<title>Node11</title>
<g id="a_node11"><a xlink:href="classdenoptim_1_1graph_1_1_d_graph.html#af68c6f4772e3a77bbb4a63f98dc53d04" target="_top" xlink:title=" ">
<polygon fill="white" stroke="black" points="389,-503.5 389,-533.5 523,-533.5 523,-503.5 389,-503.5"/>
<text text-anchor="start" x="397" y="-521.5" font-family="Helvetica,sans-Serif" font-size="10.00">denoptim.graph.DGraph.get</text>
<text text-anchor="middle" x="456" y="-510.5" font-family="Helvetica,sans-Serif" font-size="10.00">VertexWithId</text>
</a>
</g>
</g>
<!-- Node2&#45;&gt;Node11 -->
<g id="edge11" class="edge">
<title>Node2&#45;&gt;Node11</title>
<path fill="none" stroke="midnightblue" d="M266.75,-697.74C279.2,-670.28 318.2,-591.53 374,-548.5 379.27,-544.44 385.14,-540.88 391.25,-537.78"/>
<polygon fill="midnightblue" stroke="midnightblue" points="392.74,-540.95 400.33,-533.56 389.78,-534.6 392.74,-540.95"/>
</g>
<!-- Node13 -->
<g id="node13" class="node">
<title>Node13</title>
<g id="a_node13"><a xlink:href="classdenoptim_1_1graph_1_1_ring.html#a4d36b4964430194b787e708d47b00af5" target="_top" xlink:title="Set the bond type (i.e., bond order) of the chord connecting the head and the tail vertices.">
<polygon fill="white" stroke="black" points="374,-1001 374,-1020 538,-1020 538,-1001 374,-1001"/>
<text text-anchor="middle" x="456" y="-1008" font-family="Helvetica,sans-Serif" font-size="10.00">denoptim.graph.Ring.setBondType</text>
</a>
</g>
</g>
<!-- Node2&#45;&gt;Node13 -->
<g id="edge14" class="edge">
<title>Node2&#45;&gt;Node13</title>
<path fill="none" stroke="midnightblue" d="M263.17,-717.13C266.53,-757.48 285.09,-914.53 374,-991.5 375.77,-993.04 377.65,-994.45 379.61,-995.76"/>
<polygon fill="midnightblue" stroke="midnightblue" points="378.21,-998.99 388.64,-1000.82 381.63,-992.88 378.21,-998.99"/>
</g>
<!-- Node14 -->
<g id="node14" class="node">
<title>Node14</title>
<g id="a_node14"><a xlink:href="classdenoptim_1_1graph_1_1_d_graph.html#a30bfc345b743b8859c842b3b4e3ca5fa" target="_top" xlink:title=" ">
<polygon fill="white" stroke="black" points="389,-951.5 389,-981.5 523,-981.5 523,-951.5 389,-951.5"/>
<text text-anchor="start" x="397" y="-969.5" font-family="Helvetica,sans-Serif" font-size="10.00">denoptim.graph.DGraph.set</text>
<text text-anchor="middle" x="456" y="-958.5" font-family="Helvetica,sans-Serif" font-size="10.00">CandidateClosableChains</text>
</a>
</g>
</g>
<!-- Node2&#45;&gt;Node14 -->
<g id="edge15" class="edge">
<title>Node2&#45;&gt;Node14</title>
<path fill="none" stroke="midnightblue" d="M264.2,-717.27C270.94,-753.08 299.21,-878.49 374,-942.5 375.95,-944.17 378.01,-945.72 380.16,-947.17"/>
<polygon fill="midnightblue" stroke="midnightblue" points="378.43,-950.21 388.83,-952.22 381.96,-944.16 378.43,-950.21"/>
</g>
<!-- Node15 -->
<g id="node15" class="node">
<title>Node15</title>
<g id="a_node15"><a xlink:href="classdenoptim_1_1graph_1_1_d_graph.html#a421ce3718c62761e49a4dd4d0f20682c" target="_top" xlink:title=" ">
<polygon fill="white" stroke="black" points="389,-902.5 389,-932.5 523,-932.5 523,-902.5 389,-902.5"/>
<text text-anchor="start" x="397" y="-920.5" font-family="Helvetica,sans-Serif" font-size="10.00">denoptim.graph.DGraph.set</text>
<text text-anchor="middle" x="456" y="-909.5" font-family="Helvetica,sans-Serif" font-size="10.00">GraphId</text>
</a>
</g>
</g>
<!-- Node2&#45;&gt;Node15 -->
<g id="edge16" class="edge">
<title>Node2&#45;&gt;Node15</title>
<path fill="none" stroke="midnightblue" d="M265.52,-717.32C275.52,-748.23 310.62,-844.37 374,-893.5 375.84,-894.92 377.76,-896.26 379.74,-897.52"/>
<polygon fill="midnightblue" stroke="midnightblue" points="378.37,-900.76 388.81,-902.56 381.77,-894.64 378.37,-900.76"/>
</g>
<!-- Node16 -->
<g id="node16" class="node">
<title>Node16</title>
<g id="a_node16"><a xlink:href="classdenoptim_1_1graph_1_1_d_graph.html#af5cb07ab0686739e6e1713da9d8959c1" target="_top" xlink:title=" ">
<polygon fill="white" stroke="black" points="389,-853.5 389,-883.5 523,-883.5 523,-853.5 389,-853.5"/>
<text text-anchor="start" x="397" y="-871.5" font-family="Helvetica,sans-Serif" font-size="10.00">denoptim.graph.DGraph.set</text>
<text text-anchor="middle" x="456" y="-860.5" font-family="Helvetica,sans-Serif" font-size="10.00">LocalMsg</text>
</a>
</g>
</g>
<!-- Node2&#45;&gt;Node16 -->
<g id="edge17" class="edge">
<title>Node2&#45;&gt;Node16</title>
<path fill="none" stroke="midnightblue" d="M267.58,-717.13C281.27,-742.1 321.43,-809.47 374,-844.5 376.4,-846.1 378.92,-847.6 381.51,-849"/>
<polygon fill="midnightblue" stroke="midnightblue" points="380.05,-852.18 390.57,-853.39 383.1,-845.88 380.05,-852.18"/>
</g>
<!-- Node17 -->
<g id="node17" class="node">
<title>Node17</title>
<g id="a_node17"><a xlink:href="classdenoptim_1_1graph_1_1_d_graph.html#a5126283bcf1434c3366ea17bfac2c55f" target="_top" xlink:title=" ">
<polygon fill="white" stroke="black" points="389,-804.5 389,-834.5 523,-834.5 523,-804.5 389,-804.5"/>
<text text-anchor="start" x="397" y="-822.5" font-family="Helvetica,sans-Serif" font-size="10.00">denoptim.graph.DGraph.set</text>
<text text-anchor="middle" x="456" y="-811.5" font-family="Helvetica,sans-Serif" font-size="10.00">Rings</text>
</a>
</g>
</g>
<!-- Node2&#45;&gt;Node17 -->
<g id="edge18" class="edge">
<title>Node2&#45;&gt;Node17</title>
<path fill="none" stroke="midnightblue" d="M272.04,-717.17C290.26,-735.11 331.96,-773.72 374,-795.5 377.56,-797.35 381.28,-799.07 385.1,-800.68"/>
<polygon fill="midnightblue" stroke="midnightblue" points="384.12,-804.06 394.71,-804.44 386.68,-797.54 384.12,-804.06"/>
</g>
<!-- Node18 -->
<g id="node18" class="node">
<title>Node18</title>
<g id="a_node18"><a xlink:href="classdenoptim_1_1graph_1_1_d_graph.html#a98b344e795e1b992802f957ca63d19ca" target="_top" xlink:title=" ">
<polygon fill="white" stroke="black" points="389,-755.5 389,-785.5 523,-785.5 523,-755.5 389,-755.5"/>
<text text-anchor="start" x="397" y="-773.5" font-family="Helvetica,sans-Serif" font-size="10.00">denoptim.graph.DGraph.set</text>
<text text-anchor="middle" x="456" y="-762.5" font-family="Helvetica,sans-Serif" font-size="10.00">SymmetricVertexSets</text>
</a>
</g>
</g>
<!-- Node2&#45;&gt;Node18 -->
<g id="edge19" class="edge">
<title>Node2&#45;&gt;Node18</title>
<path fill="none" stroke="midnightblue" d="M289.92,-717.09C312.44,-724.91 345.21,-736.15 374,-745.5 380.93,-747.75 388.21,-750.06 395.44,-752.33"/>
<polygon fill="midnightblue" stroke="midnightblue" points="394.65,-755.75 405.24,-755.39 396.73,-749.07 394.65,-755.75"/>
</g>
<!-- Node7 -->
<g id="node7" class="node">
<title>Node7</title>
<g id="a_node7"><a xlink:href="classdenoptim_1_1graph_1_1_a_p_class.html#a7ecbfcc68b17ef630d0f46ccb6bb763b" target="_top" xlink:title=" ">
<polygon fill="white" stroke="black" points="591.5,-591.5 591.5,-621.5 730.5,-621.5 730.5,-591.5 591.5,-591.5"/>
<text text-anchor="start" x="599.5" y="-609.5" font-family="Helvetica,sans-Serif" font-size="10.00">denoptim.graph.APClass.get</text>
<text text-anchor="middle" x="661" y="-598.5" font-family="Helvetica,sans-Serif" font-size="10.00">BondType</text>
</a>
</g>
</g>
<!-- Node6&#45;&gt;Node7 -->
<g id="edge7" class="edge">
<title>Node6&#45;&gt;Node7</title>
<path fill="none" stroke="midnightblue" d="M523.75,-606.5C542.17,-606.5 562.32,-606.5 581.34,-606.5"/>
<polygon fill="midnightblue" stroke="midnightblue" points="581.47,-610 591.47,-606.5 581.47,-603 581.47,-610"/>
</g>
<!-- Node9 -->
<g id="node9" class="node">
<title>Node9</title>
<g id="a_node9"><a xlink:href="classdenoptim_1_1graph_1_1_vertex.html#a022f7c9075b178f17e13339b215ee21f" target="_top" xlink:title=" ">
<polygon fill="white" stroke="black" points="795.5,-315.5 795.5,-345.5 923.5,-345.5 923.5,-315.5 795.5,-315.5"/>
<text text-anchor="start" x="803.5" y="-333.5" font-family="Helvetica,sans-Serif" font-size="10.00">denoptim.graph.Vertex.get</text>
<text text-anchor="middle" x="859.5" y="-322.5" font-family="Helvetica,sans-Serif" font-size="10.00">AttachmentPoints</text>
</a>
</g>
</g>
<!-- Node8&#45;&gt;Node9 -->
<g id="edge9" class="edge">
<title>Node8&#45;&gt;Node9</title>
<path fill="none" stroke="midnightblue" d="M683.4,-454.36C718.62,-429.45 788.85,-379.77 828.84,-351.48"/>
<polygon fill="midnightblue" stroke="midnightblue" points="830.98,-354.25 837.12,-345.62 826.94,-348.54 830.98,-354.25"/>
</g>
<!-- Node12 -->
<g id="node12" class="node">
<title>Node12</title>
<g id="a_node12"><a xlink:href="classdenoptim_1_1graph_1_1_d_graph.html#aff14a66b89e52205a4b6b6a633de0e7e" target="_top" xlink:title="Returns the position of the first vertex that has the given ID.">
<polygon fill="white" stroke="black" points="589.5,-503.5 589.5,-533.5 732.5,-533.5 732.5,-503.5 589.5,-503.5"/>
<text text-anchor="start" x="597.5" y="-521.5" font-family="Helvetica,sans-Serif" font-size="10.00">denoptim.graph.DGraph.index</text>
<text text-anchor="middle" x="661" y="-510.5" font-family="Helvetica,sans-Serif" font-size="10.00">OfVertexWithID</text>
</a>
</g>
</g>
<!-- Node11&#45;&gt;Node12 -->
<g id="edge12" class="edge">
<title>Node11&#45;&gt;Node12</title>
<path fill="none" stroke="midnightblue" d="M523.19,-518.5C541.05,-518.5 560.59,-518.5 579.16,-518.5"/>
<polygon fill="midnightblue" stroke="midnightblue" points="579.36,-522 589.36,-518.5 579.36,-515 579.36,-522"/>
</g>
<!-- Node12&#45;&gt;Node10 -->
<g id="edge13" class="edge">
<title>Node12&#45;&gt;Node10</title>
<path fill="none" stroke="midnightblue" d="M724.29,-503.41C732.39,-500.78 740.48,-497.81 748,-494.5 777.47,-481.51 808.34,-461.63 829.94,-446.53"/>
<polygon fill="midnightblue" stroke="midnightblue" points="832.17,-449.24 838.31,-440.6 828.12,-443.53 832.17,-449.24"/>
</g>
<!-- Node19&#45;&gt;Node19 -->
<g id="edge21" class="edge">
<title>Node19&#45;&gt;Node19</title>
<path fill="none" stroke="midnightblue" d="M229.09,-134.66C221.27,-144.06 232.07,-153 261.5,-153 279.43,-153 290.45,-149.68 294.55,-144.96"/>
<polygon fill="midnightblue" stroke="midnightblue" points="298.02,-144.42 293.91,-134.66 291.04,-144.86 298.02,-144.42"/>
</g>
<!-- Node20 -->
<g id="node20" class="node">
<title>Node20</title>
<g id="a_node20"><a xlink:href="classdenoptim_1_1graph_1_1_d_graph.html#a70aeea1a1fe35ea9fe5a49a147e76f1a" target="_top" xlink:title=" ">
<polygon fill="white" stroke="black" points="389,-86.5 389,-116.5 523,-116.5 523,-86.5 389,-86.5"/>
<text text-anchor="start" x="397" y="-104.5" font-family="Helvetica,sans-Serif" font-size="10.00">denoptim.graph.DGraph.get</text>
<text text-anchor="middle" x="456" y="-93.5" font-family="Helvetica,sans-Serif" font-size="10.00">ChildVertices</text>
</a>
</g>
</g>
<!-- Node19&#45;&gt;Node20 -->
<g id="edge22" class="edge">
<title>Node19&#45;&gt;Node20</title>
<path fill="none" stroke="midnightblue" d="M328.75,-113.31C344.87,-111.8 362.24,-110.17 378.78,-108.63"/>
<polygon fill="midnightblue" stroke="midnightblue" points="379.33,-112.09 388.96,-107.68 378.67,-105.12 379.33,-112.09"/>
</g>
<!-- Node21 -->
<g id="node21" class="node">
<title>Node21</title>
<g id="a_node21"><a xlink:href="classdenoptim_1_1graph_1_1_vertex.html#a846e0f49dfefd933c429450545338d25" target="_top" xlink:title="Looks into the edges that use any of the APs that belong to this vertex and returns the list of verti...">
<polygon fill="white" stroke="black" points="597,-82.5 597,-112.5 725,-112.5 725,-82.5 597,-82.5"/>
<text text-anchor="start" x="605" y="-100.5" font-family="Helvetica,sans-Serif" font-size="10.00">denoptim.graph.Vertex.get</text>
<text text-anchor="middle" x="661" y="-89.5" font-family="Helvetica,sans-Serif" font-size="10.00">Childdren</text>
</a>
</g>
</g>
<!-- Node20&#45;&gt;Node21 -->
<g id="edge23" class="edge">
<title>Node20&#45;&gt;Node21</title>
<path fill="none" stroke="midnightblue" d="M523.19,-100.2C543.47,-99.8 565.91,-99.35 586.64,-98.95"/>
<polygon fill="midnightblue" stroke="midnightblue" points="586.73,-102.44 596.66,-98.75 586.6,-95.45 586.73,-102.44"/>
</g>
<!-- Node21&#45;&gt;Node9 -->
<g id="edge24" class="edge">
<title>Node21&#45;&gt;Node9</title>
<path fill="none" stroke="midnightblue" d="M725.01,-106.68C733.56,-110.19 741.59,-114.98 748,-121.5 792.44,-166.7 751.83,-204.88 784,-259.5 795.43,-278.9 813.66,-296.41 829.23,-309.18"/>
<polygon fill="midnightblue" stroke="midnightblue" points="827.07,-311.94 837.08,-315.42 831.42,-306.46 827.07,-311.94"/>
</g>
<!-- Node22 -->
<g id="node22" class="node">
<title>Node22</title>
<g id="a_node22"><a xlink:href="classdenoptim_1_1graph_1_1_attachment_point.html#ac8551521d38644f5109800b665957ee9" target="_top" xlink:title=" ">
<polygon fill="white" stroke="black" points="792,-219.5 792,-249.5 927,-249.5 927,-219.5 792,-219.5"/>
<text text-anchor="start" x="800" y="-237.5" font-family="Helvetica,sans-Serif" font-size="10.00">denoptim.graph.Attachment</text>
<text text-anchor="middle" x="859.5" y="-226.5" font-family="Helvetica,sans-Serif" font-size="10.00">Point.getOwner</text>
</a>
</g>
</g>
<!-- Node21&#45;&gt;Node22 -->
<g id="edge25" class="edge">
<title>Node21&#45;&gt;Node22</title>
<path fill="none" stroke="midnightblue" d="M725.13,-110.95C733.1,-113.84 740.93,-117.32 748,-121.5 787.25,-144.73 822.11,-185.43 841.74,-211.12"/>
<polygon fill="midnightblue" stroke="midnightblue" points="839,-213.3 847.8,-219.21 844.61,-209.11 839,-213.3"/>
</g>
<!-- Node23 -->
<g id="node23" class="node">
<title>Node23</title>
<g id="a_node23"><a xlink:href="classdenoptim_1_1graph_1_1_edge.html#a658e275a18a50f12474777f5f28c35e9" target="_top" xlink:title=" ">
<polygon fill="white" stroke="black" points="784,-88 784,-107 935,-107 935,-88 784,-88"/>
<text text-anchor="middle" x="859.5" y="-95" font-family="Helvetica,sans-Serif" font-size="10.00">denoptim.graph.Edge.getSrcAP</text>
</a>
</g>
</g>
<!-- Node21&#45;&gt;Node23 -->
<g id="edge26" class="edge">
<title>Node21&#45;&gt;Node23</title>
<path fill="none" stroke="midnightblue" d="M725.26,-97.5C740.68,-97.5 757.43,-97.5 773.67,-97.5"/>
<polygon fill="midnightblue" stroke="midnightblue" points="773.71,-101 783.71,-97.5 773.71,-94 773.71,-101"/>
</g>
<!-- Node24 -->
<g id="node24" class="node">
<title>Node24</title>
<g id="a_node24"><a xlink:href="classdenoptim_1_1graph_1_1_edge.html#a44521a3ad1a83e5d0a6be227e35ceffa" target="_top" xlink:title=" ">
<polygon fill="white" stroke="black" points="784.5,-50 784.5,-69 934.5,-69 934.5,-50 784.5,-50"/>
<text text-anchor="middle" x="859.5" y="-57" font-family="Helvetica,sans-Serif" font-size="10.00">denoptim.graph.Edge.getTrgAP</text>
</a>
</g>
</g>
<!-- Node21&#45;&gt;Node24 -->
<g id="edge27" class="edge">
<title>Node21&#45;&gt;Node24</title>
<path fill="none" stroke="midnightblue" d="M725.26,-85.27C748.91,-80.69 775.67,-75.52 798.97,-71.01"/>
<polygon fill="midnightblue" stroke="midnightblue" points="799.92,-74.39 809.07,-69.06 798.59,-67.52 799.92,-74.39"/>
</g>
<!-- Node27&#45;&gt;Node10 -->
<g id="edge38" class="edge">
<title>Node27&#45;&gt;Node10</title>
<path fill="none" stroke="midnightblue" d="M465.51,-293.8C482.14,-321.97 521.91,-381.44 574,-406.5 640.31,-438.41 725.54,-439.66 785.35,-435.11"/>
<polygon fill="midnightblue" stroke="midnightblue" points="785.8,-438.59 795.47,-434.27 785.22,-431.61 785.8,-438.59"/>
</g>
<!-- Node28 -->
<g id="node28" class="node">
<title>Node28</title>
<g id="a_node28"><a xlink:href="classdenoptim_1_1graph_1_1_d_graph.html#a3334159ed57d53d1e29bd34f31bfc9a4" target="_top" xlink:title="Returns the list of rings that include the given vertex in their fundamental cycle.">
<polygon fill="white" stroke="black" points="594,-366.5 594,-396.5 728,-396.5 728,-366.5 594,-366.5"/>
<text text-anchor="start" x="602" y="-384.5" font-family="Helvetica,sans-Serif" font-size="10.00">denoptim.graph.DGraph.get</text>
<text text-anchor="middle" x="661" y="-373.5" font-family="Helvetica,sans-Serif" font-size="10.00">RingsInvolvingVertex</text>
</a>
</g>
</g>
<!-- Node27&#45;&gt;Node28 -->
<g id="edge31" class="edge">
<title>Node27&#45;&gt;Node28</title>
<path fill="none" stroke="midnightblue" d="M475.33,-293.65C497.46,-311.26 536.4,-340.12 574,-357.5 578.15,-359.42 582.48,-361.21 586.9,-362.89"/>
<polygon fill="midnightblue" stroke="midnightblue" points="586.09,-366.31 596.68,-366.36 588.43,-359.71 586.09,-366.31"/>
</g>
<!-- Node29 -->
<g id="node29" class="node">
<title>Node29</title>
<g id="a_node29"><a xlink:href="classdenoptim_1_1graph_1_1_edge.html#ac1376246839e05f5661a9e350f933594" target="_top" xlink:title=" ">
<polygon fill="white" stroke="black" points="592.5,-317.5 592.5,-347.5 729.5,-347.5 729.5,-317.5 592.5,-317.5"/>
<text text-anchor="start" x="600.5" y="-335.5" font-family="Helvetica,sans-Serif" font-size="10.00">denoptim.graph.Edge.getSrc</text>
<text text-anchor="middle" x="661" y="-324.5" font-family="Helvetica,sans-Serif" font-size="10.00">Vertex</text>
</a>
</g>
</g>
<!-- Node27&#45;&gt;Node29 -->
<g id="edge32" class="edge">
<title>Node27&#45;&gt;Node29</title>
<path fill="none" stroke="midnightblue" d="M513.55,-293.54C538.41,-300.16 567.78,-307.97 593.67,-314.86"/>
<polygon fill="midnightblue" stroke="midnightblue" points="592.84,-318.26 603.4,-317.45 594.64,-311.49 592.84,-318.26"/>
</g>
<!-- Node30 -->
<g id="node30" class="node">
<title>Node30</title>
<g id="a_node30"><a xlink:href="classdenoptim_1_1graph_1_1_edge.html#a357dd0a765c785745fef2bb7127c3060" target="_top" xlink:title=" ">
<polygon fill="white" stroke="black" points="592.5,-219.5 592.5,-249.5 729.5,-249.5 729.5,-219.5 592.5,-219.5"/>
<text text-anchor="start" x="600.5" y="-237.5" font-family="Helvetica,sans-Serif" font-size="10.00">denoptim.graph.Edge.getTrg</text>
<text text-anchor="middle" x="661" y="-226.5" font-family="Helvetica,sans-Serif" font-size="10.00">Vertex</text>
</a>
</g>
</g>
<!-- Node27&#45;&gt;Node30 -->
<g id="edge35" class="edge">
<title>Node27&#45;&gt;Node30</title>
<path fill="none" stroke="midnightblue" d="M526.29,-263.48C544.4,-259.56 564.04,-255.3 582.54,-251.29"/>
<polygon fill="midnightblue" stroke="midnightblue" points="583.36,-254.69 592.39,-249.15 581.88,-247.85 583.36,-254.69"/>
</g>
<!-- Node31 -->
<g id="node31" class="node">
<title>Node31</title>
<g id="a_node31"><a xlink:href="classdenoptim_1_1graph_1_1_d_graph.html#aca10b3acbf66e3652cb9664179ed368f" target="_top" xlink:title=" ">
<polygon fill="white" stroke="black" points="597,-268.5 597,-298.5 725,-298.5 725,-268.5 597,-268.5"/>
<text text-anchor="start" x="605" y="-286.5" font-family="Helvetica,sans-Serif" font-size="10.00">denoptim.graph.DGraph.is</text>
<text text-anchor="middle" x="661" y="-275.5" font-family="Helvetica,sans-Serif" font-size="10.00">VertexInRing</text>
</a>
</g>
</g>
<!-- Node27&#45;&gt;Node31 -->
<g id="edge39" class="edge">
<title>Node27&#45;&gt;Node31</title>
<path fill="none" stroke="midnightblue" d="M532.01,-280.35C549.86,-280.79 568.88,-281.26 586.64,-281.69"/>
<polygon fill="midnightblue" stroke="midnightblue" points="586.86,-285.2 596.94,-281.95 587.03,-278.2 586.86,-285.2"/>
</g>
<!-- Node32 -->
<g id="node32" class="node">
<title>Node32</title>
<g id="a_node32"><a xlink:href="classdenoptim_1_1graph_1_1_d_graph.html#ae1243cc2bc48423cbbea5e0678b8b1be" target="_top" xlink:title="Removes an edge and update the free valences of the attachment points that were originally involved i...">
<polygon fill="white" stroke="black" points="574,-44 574,-63 748,-63 748,-44 574,-44"/>
<text text-anchor="middle" x="661" y="-51" font-family="Helvetica,sans-Serif" font-size="10.00">denoptim.graph.DGraph.removeEdge</text>
</a>
</g>
</g>
<!-- Node27&#45;&gt;Node32 -->
<g id="edge40" class="edge">
<title>Node27&#45;&gt;Node32</title>
<path fill="none" stroke="midnightblue" d="M464.63,-263.48C487.73,-218.22 556.46,-85.45 574,-72.5 576.5,-70.65 579.15,-68.98 581.91,-67.46"/>
<polygon fill="midnightblue" stroke="midnightblue" points="583.48,-70.59 591.02,-63.14 580.48,-64.26 583.48,-70.59"/>
</g>
<!-- Node34 -->
<g id="node34" class="node">
<title>Node34</title>
<g id="a_node34"><a xlink:href="classdenoptim_1_1graph_1_1_d_graph.html#a21d59a33af92f5b876dae72b809762e0" target="_top" xlink:title=" ">
<polygon fill="white" stroke="black" points="575,-181 575,-200 747,-200 747,-181 575,-181"/>
<text text-anchor="middle" x="661" y="-188" font-family="Helvetica,sans-Serif" font-size="10.00">denoptim.graph.DGraph.removeRing</text>
</a>
</g>
</g>
<!-- Node27&#45;&gt;Node34 -->
<g id="edge44" class="edge">
<title>Node27&#45;&gt;Node34</title>
<path fill="none" stroke="midnightblue" d="M478.43,-263.4C501.16,-248.03 538.62,-224.53 574,-210.5 581.6,-207.49 589.76,-204.86 597.93,-202.59"/>
<polygon fill="midnightblue" stroke="midnightblue" points="599.06,-205.92 607.85,-200 597.29,-199.14 599.06,-205.92"/>
</g>
<!-- Node35 -->
<g id="node35" class="node">
<title>Node35</title>
<g id="a_node35"><a xlink:href="classdenoptim_1_1graph_1_1_vertex.html#a7474f10f1819eec042011dddfa767472" target="_top" xlink:title=" ">
<polygon fill="white" stroke="black" points="592.5,-131.5 592.5,-161.5 729.5,-161.5 729.5,-131.5 592.5,-131.5"/>
<text text-anchor="start" x="600.5" y="-149.5" font-family="Helvetica,sans-Serif" font-size="10.00">denoptim.graph.Vertex.reset</text>
<text text-anchor="middle" x="661" y="-138.5" font-family="Helvetica,sans-Serif" font-size="10.00">GraphOwner</text>
</a>
</g>
</g>
<!-- Node27&#45;&gt;Node35 -->
<g id="edge45" class="edge">
<title>Node27&#45;&gt;Node35</title>
<path fill="none" stroke="midnightblue" d="M469.4,-263.38C489.17,-240.25 530.08,-196.17 574,-171.5 577.92,-169.3 582.05,-167.28 586.29,-165.42"/>
<polygon fill="midnightblue" stroke="midnightblue" points="587.76,-168.6 595.73,-161.61 585.14,-162.11 587.76,-168.6"/>
</g>
<!-- Node29&#45;&gt;Node10 -->
<g id="edge34" class="edge">
<title>Node29&#45;&gt;Node10</title>
<path fill="none" stroke="midnightblue" d="M721.5,-347.52C730.52,-350.45 739.61,-353.78 748,-357.5 777.14,-370.42 807.83,-389.83 829.45,-404.61"/>
<polygon fill="midnightblue" stroke="midnightblue" points="827.63,-407.61 837.84,-410.43 831.61,-401.86 827.63,-407.61"/>
</g>
<!-- Node29&#45;&gt;Node22 -->
<g id="edge33" class="edge">
<title>Node29&#45;&gt;Node22</title>
<path fill="none" stroke="midnightblue" d="M724.85,-317.49C732.78,-314.86 740.68,-311.87 748,-308.5 778.74,-294.36 810.5,-272.16 832.03,-255.76"/>
<polygon fill="midnightblue" stroke="midnightblue" points="834.27,-258.45 840.04,-249.57 829.99,-252.92 834.27,-258.45"/>
</g>
<!-- Node30&#45;&gt;Node10 -->
<g id="edge37" class="edge">
<title>Node30&#45;&gt;Node10</title>
<path fill="none" stroke="midnightblue" d="M729.65,-247.35C736.35,-250.55 742.64,-254.53 748,-259.5 781.42,-290.48 758.74,-317.58 784,-355.5 796.29,-373.94 814.31,-391.05 829.56,-403.74"/>
<polygon fill="midnightblue" stroke="midnightblue" points="827.71,-406.74 837.68,-410.31 832.11,-401.3 827.71,-406.74"/>
</g>
<!-- Node30&#45;&gt;Node22 -->
<g id="edge36" class="edge">
<title>Node30&#45;&gt;Node22</title>
<path fill="none" stroke="midnightblue" d="M729.62,-234.5C746.42,-234.5 764.55,-234.5 781.75,-234.5"/>
<polygon fill="midnightblue" stroke="midnightblue" points="781.75,-238 791.75,-234.5 781.75,-231 781.75,-238"/>
</g>
<!-- Node32&#45;&gt;Node23 -->
<g id="edge41" class="edge">
<title>Node32&#45;&gt;Node23</title>
<path fill="none" stroke="midnightblue" d="M705.32,-63.03C718.98,-66.04 734.12,-69.4 748,-72.5 767.11,-76.77 788.07,-81.5 806.55,-85.69"/>
<polygon fill="midnightblue" stroke="midnightblue" points="806.01,-89.16 816.53,-87.95 807.56,-82.33 806.01,-89.16"/>
</g>
<!-- Node32&#45;&gt;Node24 -->
<g id="edge42" class="edge">
<title>Node32&#45;&gt;Node24</title>
<path fill="none" stroke="midnightblue" d="M748.19,-56.13C756.86,-56.4 765.66,-56.67 774.31,-56.93"/>
<polygon fill="midnightblue" stroke="midnightblue" points="774.28,-60.43 784.38,-57.24 774.49,-53.43 774.28,-60.43"/>
</g>
<!-- Node33 -->
<g id="node33" class="node">
<title>Node33</title>
<g id="a_node33"><a xlink:href="classdenoptim_1_1graph_1_1_attachment_point.html#a266aa67ce6e0afd82fa723a12f46235a" target="_top" xlink:title="Sets the reference to the edge that is using this attachment point.">
<polygon fill="white" stroke="black" points="792,-0.5 792,-30.5 927,-30.5 927,-0.5 792,-0.5"/>
<text text-anchor="start" x="800" y="-18.5" font-family="Helvetica,sans-Serif" font-size="10.00">denoptim.graph.Attachment</text>
<text text-anchor="middle" x="859.5" y="-7.5" font-family="Helvetica,sans-Serif" font-size="10.00">Point.setUser</text>
</a>
</g>
</g>
<!-- Node32&#45;&gt;Node33 -->
<g id="edge43" class="edge">
<title>Node32&#45;&gt;Node33</title>
<path fill="none" stroke="midnightblue" d="M711.33,-43.96C732.62,-39.84 758.02,-34.93 781.68,-30.36"/>
<polygon fill="midnightblue" stroke="midnightblue" points="782.54,-33.75 791.69,-28.42 781.21,-26.88 782.54,-33.75"/>
</g>
</g>
</svg>
