<?xml version="1.0" encoding="UTF-8" standalone="no"?>
<!DOCTYPE svg PUBLIC "-//W3C//DTD SVG 1.1//EN"
 "http://www.w3.org/Graphics/SVG/1.1/DTD/svg11.dtd">
<!-- Generated by graphviz version 3.0.0 (20220413.0242)
 -->
<!-- Title: denoptim.fragspace.FragmentSpace.getScaffoldLibrary Pages: 1 -->
<svg width="859pt" height="1415pt"
 viewBox="0.00 0.00 859.00 1415.00" xmlns="http://www.w3.org/2000/svg" xmlns:xlink="http://www.w3.org/1999/xlink">
<g id="graph0" class="graph" transform="scale(1 1) rotate(0) translate(4 1411)">
<title>denoptim.fragspace.FragmentSpace.getScaffoldLibrary</title>
<polygon fill="white" stroke="transparent" points="-4,4 -4,-1411 855,-1411 855,4 -4,4"/>
<!-- Node1 -->
<g id="node1" class="node">
<title>Node1</title>
<g id="a_node1"><a xlink:title=" ">
<polygon fill="#bfbfbf" stroke="black" points="706,-534.5 706,-564.5 851,-564.5 851,-534.5 706,-534.5"/>
<text text-anchor="start" x="714" y="-552.5" font-family="Helvetica,sans-Serif" font-size="10.00">denoptim.fragspace.Fragment</text>
<text text-anchor="middle" x="778.5" y="-541.5" font-family="Helvetica,sans-Serif" font-size="10.00">Space.getScaffoldLibrary</text>
</a>
</g>
</g>
<!-- Node2 -->
<g id="node2" class="node">
<title>Node2</title>
<g id="a_node2"><a xlink:href="classdenoptim_1_1fragspace_1_1_graph_link_finder.html#a23a02a7ccf016632eb93ac02eae9bc6b" target="_top" xlink:title=" ">
<polygon fill="white" stroke="black" points="488,-1312.5 488,-1342.5 628,-1342.5 628,-1312.5 488,-1312.5"/>
<text text-anchor="start" x="496" y="-1330.5" font-family="Helvetica,sans-Serif" font-size="10.00">denoptim.fragspace.Graph</text>
<text text-anchor="middle" x="558" y="-1319.5" font-family="Helvetica,sans-Serif" font-size="10.00">LinkFinder.getCandidateBBs</text>
</a>
</g>
</g>
<!-- Node1&#45;&gt;Node2 -->
<g id="edge1" class="edge">
<title>Node1&#45;&gt;Node2</title>
<path fill="none" stroke="midnightblue" d="M775.56,-574.72C766.97,-682.25 730.11,-1102.17 670,-1218.5 649.05,-1259.05 607.38,-1293.57 581.49,-1312.34"/>
<polygon fill="midnightblue" stroke="midnightblue" points="779.07,-574.75 776.37,-564.51 772.09,-574.2 779.07,-574.75"/>
</g>
<!-- Node4 -->
<g id="node4" class="node">
<title>Node4</title>
<g id="a_node4"><a xlink:href="classdenoptim_1_1fragspace_1_1_graph_link_finder_test.html#a5703166de7261111b98b40fce0c9fad6" target="_top" xlink:title=" ">
<polygon fill="white" stroke="black" points="493,-1178.5 493,-1208.5 623,-1208.5 623,-1178.5 493,-1178.5"/>
<text text-anchor="start" x="501" y="-1196.5" font-family="Helvetica,sans-Serif" font-size="10.00">denoptim.fragspace.Graph</text>
<text text-anchor="middle" x="558" y="-1185.5" font-family="Helvetica,sans-Serif" font-size="10.00">LinkFinderTest.prepare</text>
</a>
</g>
</g>
<!-- Node1&#45;&gt;Node4 -->
<g id="edge3" class="edge">
<title>Node1&#45;&gt;Node4</title>
<path fill="none" stroke="midnightblue" d="M774.4,-574.92C765.17,-645.87 734.36,-851.21 670,-1009.5 642.74,-1076.55 593.05,-1147.64 570.58,-1178.15"/>
<polygon fill="midnightblue" stroke="midnightblue" points="777.91,-575.08 775.7,-564.72 770.97,-574.19 777.91,-575.08"/>
</g>
<!-- Node12 -->
<g id="node12" class="node">
<title>Node12</title>
<g id="a_node12"><a xlink:href="classdenoptim_1_1ga_1_1_e_a_utils_test.html#a2d248a6e73decf7665c6d1b1d6971e84" target="_top" xlink:title=" ">
<polygon fill="white" stroke="black" points="479,-981 479,-1000 637,-1000 637,-981 479,-981"/>
<text text-anchor="middle" x="558" y="-988" font-family="Helvetica,sans-Serif" font-size="10.00">denoptim.ga.EAUtilsTest.prepare</text>
</a>
</g>
</g>
<!-- Node1&#45;&gt;Node12 -->
<g id="edge15" class="edge">
<title>Node1&#45;&gt;Node12</title>
<path fill="none" stroke="midnightblue" d="M765.44,-573.84C724.36,-656.75 590.94,-926.03 563.83,-980.75"/>
<polygon fill="midnightblue" stroke="midnightblue" points="768.68,-575.19 769.98,-564.68 762.4,-572.09 768.68,-575.19"/>
</g>
<!-- Node15 -->
<g id="node15" class="node">
<title>Node15</title>
<g id="a_node15"><a xlink:href="classdenoptim_1_1graph_1_1_d_graph_test.html#a973ecea761d5353163750c8c82f41ac2" target="_top" xlink:title=" ">
<polygon fill="white" stroke="black" points="472,-540 472,-559 644,-559 644,-540 472,-540"/>
<text text-anchor="middle" x="558" y="-547" font-family="Helvetica,sans-Serif" font-size="10.00">denoptim.graph.DGraphTest.prepare</text>
</a>
</g>
</g>
<!-- Node1&#45;&gt;Node15 -->
<g id="edge18" class="edge">
<title>Node1&#45;&gt;Node15</title>
<path fill="none" stroke="midnightblue" d="M695.6,-549.5C678.75,-549.5 660.98,-549.5 644.02,-549.5"/>
<polygon fill="midnightblue" stroke="midnightblue" points="695.95,-553 705.95,-549.5 695.95,-546 695.95,-553"/>
</g>
<!-- Node35 -->
<g id="node35" class="node">
<title>Node35</title>
<g id="a_node35"><a xlink:href="classdenoptim_1_1gui_1_1_g_u_i_graph_handler.html#a857bfe6291322daccf2af3fd9a28a356" target="_top" xlink:title="Start the construction of a new graph from scratch.">
<polygon fill="white" stroke="black" points="446,-490.5 446,-520.5 670,-520.5 670,-490.5 446,-490.5"/>
<text text-anchor="start" x="454" y="-508.5" font-family="Helvetica,sans-Serif" font-size="10.00">denoptim.gui.GUIGraphHandler.start</text>
<text text-anchor="middle" x="558" y="-497.5" font-family="Helvetica,sans-Serif" font-size="10.00">GraphFromFragSpaceOrCreationOfEmptyVertex</text>
</a>
</g>
</g>
<!-- Node1&#45;&gt;Node35 -->
<g id="edge38" class="edge">
<title>Node1&#45;&gt;Node35</title>
<path fill="none" stroke="midnightblue" d="M696.05,-533.1C675.62,-528.98 653.79,-524.59 633.71,-520.54"/>
<polygon fill="midnightblue" stroke="midnightblue" points="695.46,-536.55 705.95,-535.09 696.84,-529.69 695.46,-536.55"/>
</g>
<!-- Node38 -->
<g id="node38" class="node">
<title>Node38</title>
<g id="a_node38"><a xlink:href="classdenoptim_1_1fragspace_1_1_fragment_space_test.html#a56ef448997df677c5ce4a73737f127e2" target="_top" xlink:title="Checks that a graph with a fused ring containing a scaffold vertex is added to the scaffold library.">
<polygon fill="white" stroke="black" points="456.5,-431 456.5,-472 659.5,-472 659.5,-431 456.5,-431"/>
<text text-anchor="start" x="464.5" y="-460" font-family="Helvetica,sans-Serif" font-size="10.00">denoptim.fragspace.Fragment</text>
<text text-anchor="start" x="464.5" y="-449" font-family="Helvetica,sans-Serif" font-size="10.00">SpaceTest.testFusedRingAddedToScaffold</text>
<text text-anchor="middle" x="558" y="-438" font-family="Helvetica,sans-Serif" font-size="10.00">Library</text>
</a>
</g>
</g>
<!-- Node1&#45;&gt;Node38 -->
<g id="edge41" class="edge">
<title>Node1&#45;&gt;Node38</title>
<path fill="none" stroke="midnightblue" d="M749.39,-528.4C728.44,-513.52 698.61,-494.07 670,-481.5 662.14,-478.05 653.79,-474.91 645.34,-472.07"/>
<polygon fill="midnightblue" stroke="midnightblue" points="747.36,-531.26 757.52,-534.27 751.46,-525.58 747.36,-531.26"/>
</g>
<!-- Node39 -->
<g id="node39" class="node">
<title>Node39</title>
<g id="a_node39"><a xlink:href="classdenoptim_1_1fragspace_1_1_fragment_space_test.html#a692723b803a64dd25e775b2f8726fe27" target="_top" xlink:title="Works with this graph:">
<polygon fill="white" stroke="black" points="465.5,-371 465.5,-412 650.5,-412 650.5,-371 465.5,-371"/>
<text text-anchor="start" x="473.5" y="-400" font-family="Helvetica,sans-Serif" font-size="10.00">denoptim.fragspace.Fragment</text>
<text text-anchor="start" x="473.5" y="-389" font-family="Helvetica,sans-Serif" font-size="10.00">SpaceTest.testUseWholeMolGeometry</text>
<text text-anchor="middle" x="558" y="-378" font-family="Helvetica,sans-Serif" font-size="10.00">ForExtractedTemplates</text>
</a>
</g>
</g>
<!-- Node1&#45;&gt;Node39 -->
<g id="edge42" class="edge">
<title>Node1&#45;&gt;Node39</title>
<path fill="none" stroke="midnightblue" d="M763.79,-525.59C745.92,-496.59 711.94,-448.27 670,-421.5 663.94,-417.63 657.39,-414.26 650.61,-411.32"/>
<polygon fill="midnightblue" stroke="midnightblue" points="760.86,-527.51 769.02,-534.28 766.86,-523.91 760.86,-527.51"/>
</g>
<!-- Node3 -->
<g id="node3" class="node">
<title>Node3</title>
<g id="a_node3"><a xlink:href="classdenoptim_1_1fragspace_1_1_graph_link_finder.html#acbb92ddbad514c788140dc2fbcbcfef7" target="_top" xlink:title="Constructor that specifies which vertex has to be replaced.">
<polygon fill="white" stroke="black" points="239.5,-1376.5 239.5,-1406.5 376.5,-1406.5 376.5,-1376.5 239.5,-1376.5"/>
<text text-anchor="start" x="247.5" y="-1394.5" font-family="Helvetica,sans-Serif" font-size="10.00">denoptim.fragspace.Graph</text>
<text text-anchor="middle" x="308" y="-1383.5" font-family="Helvetica,sans-Serif" font-size="10.00">LinkFinder.GraphLinkFinder</text>
</a>
</g>
</g>
<!-- Node2&#45;&gt;Node3 -->
<g id="edge2" class="edge">
<title>Node2&#45;&gt;Node3</title>
<path fill="none" stroke="midnightblue" d="M488.85,-1345.09C450.7,-1354.93 403.63,-1367.08 367.21,-1376.48"/>
<polygon fill="midnightblue" stroke="midnightblue" points="490.05,-1348.39 498.86,-1342.51 488.3,-1341.62 490.05,-1348.39"/>
</g>
<!-- Node5 -->
<g id="node5" class="node">
<title>Node5</title>
<g id="a_node5"><a xlink:href="classdenoptim_1_1fragspace_1_1_graph_link_finder_test.html#a586ff58307127b487068fe2aa5e43359" target="_top" xlink:title="Creates a test graph that looks like this: v0(A)&#45;(A)v1(B)&#45;(C)v2.">
<polygon fill="white" stroke="black" points="227.5,-1288.5 227.5,-1318.5 388.5,-1318.5 388.5,-1288.5 227.5,-1288.5"/>
<text text-anchor="start" x="235.5" y="-1306.5" font-family="Helvetica,sans-Serif" font-size="10.00">denoptim.fragspace.Graph</text>
<text text-anchor="middle" x="308" y="-1295.5" font-family="Helvetica,sans-Serif" font-size="10.00">LinkFinderTest.makeTestGraphA</text>
</a>
</g>
</g>
<!-- Node4&#45;&gt;Node5 -->
<g id="edge4" class="edge">
<title>Node4&#45;&gt;Node5</title>
<path fill="none" stroke="midnightblue" d="M524.15,-1213.98C494.99,-1231.52 450.8,-1256.56 410,-1273.5 396.4,-1279.15 381.37,-1284.21 367.15,-1288.5"/>
<polygon fill="midnightblue" stroke="midnightblue" points="526.33,-1216.75 533.07,-1208.57 522.7,-1210.77 526.33,-1216.75"/>
</g>
<!-- Node6 -->
<g id="node6" class="node">
<title>Node6</title>
<g id="a_node6"><a xlink:href="classdenoptim_1_1fragspace_1_1_graph_link_finder_test.html#a10f29a0409c104973230371493a734ed" target="_top" xlink:title=" ">
<polygon fill="white" stroke="black" points="3,-1322.5 3,-1352.5 167,-1352.5 167,-1322.5 3,-1322.5"/>
<text text-anchor="start" x="11" y="-1340.5" font-family="Helvetica,sans-Serif" font-size="10.00">denoptim.fragspace.Graph</text>
<text text-anchor="middle" x="85" y="-1329.5" font-family="Helvetica,sans-Serif" font-size="10.00">LinkFinderTest.testLinkFromEdge</text>
</a>
</g>
</g>
<!-- Node4&#45;&gt;Node6 -->
<g id="edge11" class="edge">
<title>Node4&#45;&gt;Node6</title>
<path fill="none" stroke="midnightblue" d="M534.38,-1215.92C497.03,-1252.7 425.06,-1322.39 410,-1328.5 332.04,-1360.12 234.64,-1357.88 167.09,-1350.54"/>
<polygon fill="midnightblue" stroke="midnightblue" points="537.13,-1218.13 541.79,-1208.61 532.22,-1213.14 537.13,-1218.13"/>
</g>
<!-- Node7 -->
<g id="node7" class="node">
<title>Node7</title>
<g id="a_node7"><a xlink:href="classdenoptim_1_1fragspace_1_1_graph_link_finder_test.html#a11b5fce33ae34132f5b16a11b57aaae7" target="_top" xlink:title=" ">
<polygon fill="white" stroke="black" points="0,-1254.5 0,-1284.5 170,-1284.5 170,-1254.5 0,-1254.5"/>
<text text-anchor="start" x="8" y="-1272.5" font-family="Helvetica,sans-Serif" font-size="10.00">denoptim.fragspace.Graph</text>
<text text-anchor="middle" x="85" y="-1261.5" font-family="Helvetica,sans-Serif" font-size="10.00">LinkFinderTest.testLinkFromVertex</text>
</a>
</g>
</g>
<!-- Node4&#45;&gt;Node7 -->
<g id="edge14" class="edge">
<title>Node4&#45;&gt;Node7</title>
<path fill="none" stroke="midnightblue" d="M508.36,-1212.03C480.06,-1222.06 443.48,-1233.74 410,-1240.5 329.6,-1256.75 236.13,-1263.89 170.3,-1267.03"/>
<polygon fill="midnightblue" stroke="midnightblue" points="509.78,-1215.24 518.01,-1208.56 507.41,-1208.65 509.78,-1215.24"/>
</g>
<!-- Node8 -->
<g id="node8" class="node">
<title>Node8</title>
<g id="a_node8"><a xlink:href="classdenoptim_1_1fragspace_1_1_graph_link_finder_test.html#a788a4b1620fa0610d9f306e2e8b3a75a" target="_top" xlink:title="Creates a test graph that looks like this: v0(E)&#45;(E)v1.">
<polygon fill="white" stroke="black" points="228,-1200.5 228,-1230.5 388,-1230.5 388,-1200.5 228,-1200.5"/>
<text text-anchor="start" x="236" y="-1218.5" font-family="Helvetica,sans-Serif" font-size="10.00">denoptim.fragspace.Graph</text>
<text text-anchor="middle" x="308" y="-1207.5" font-family="Helvetica,sans-Serif" font-size="10.00">LinkFinderTest.makeTestGraphE</text>
</a>
</g>
</g>
<!-- Node4&#45;&gt;Node8 -->
<g id="edge7" class="edge">
<title>Node4&#45;&gt;Node8</title>
<path fill="none" stroke="midnightblue" d="M482.51,-1200.11C452.82,-1202.74 418.61,-1205.78 388.44,-1208.45"/>
<polygon fill="midnightblue" stroke="midnightblue" points="483.16,-1203.56 492.81,-1199.19 482.54,-1196.59 483.16,-1203.56"/>
</g>
<!-- Node9 -->
<g id="node9" class="node">
<title>Node9</title>
<g id="a_node9"><a xlink:href="classdenoptim_1_1fragspace_1_1_graph_link_finder_test.html#a0ec3c77508e8ec583b570a6803056e9a" target="_top" xlink:title=" ">
<polygon fill="white" stroke="black" points="3,-1173 3,-1214 167,-1214 167,-1173 3,-1173"/>
<text text-anchor="start" x="11" y="-1202" font-family="Helvetica,sans-Serif" font-size="10.00">denoptim.fragspace.Graph</text>
<text text-anchor="start" x="11" y="-1191" font-family="Helvetica,sans-Serif" font-size="10.00">LinkFinderTest.testLinkFromEdge</text>
<text text-anchor="middle" x="85" y="-1180" font-family="Helvetica,sans-Serif" font-size="10.00">OneMatch</text>
</a>
</g>
</g>
<!-- Node4&#45;&gt;Node9 -->
<g id="edge13" class="edge">
<title>Node4&#45;&gt;Node9</title>
<path fill="none" stroke="midnightblue" d="M482.8,-1192.29C459.5,-1191.97 433.68,-1191.66 410,-1191.5 319.34,-1190.88 296.66,-1190.74 206,-1191.5 193.39,-1191.61 180.04,-1191.77 167.01,-1191.97"/>
<polygon fill="midnightblue" stroke="midnightblue" points="482.92,-1195.8 492.97,-1192.44 483.02,-1188.8 482.92,-1195.8"/>
</g>
<!-- Node10 -->
<g id="node10" class="node">
<title>Node10</title>
<g id="a_node10"><a xlink:href="classdenoptim_1_1fragspace_1_1_graph_link_finder_test.html#a978d58856f04a9a844344ad2cacc812b" target="_top" xlink:title="Creates a test graph that looks like this: v0(F)&#45;(F)v1.">
<polygon fill="white" stroke="black" points="228,-1112.5 228,-1142.5 388,-1142.5 388,-1112.5 228,-1112.5"/>
<text text-anchor="start" x="236" y="-1130.5" font-family="Helvetica,sans-Serif" font-size="10.00">denoptim.fragspace.Graph</text>
<text text-anchor="middle" x="308" y="-1119.5" font-family="Helvetica,sans-Serif" font-size="10.00">LinkFinderTest.makeTestGraphF</text>
</a>
</g>
</g>
<!-- Node4&#45;&gt;Node10 -->
<g id="edge9" class="edge">
<title>Node4&#45;&gt;Node10</title>
<path fill="none" stroke="midnightblue" d="M490.73,-1175.86C451.75,-1165.49 402.97,-1152.51 365.77,-1142.61"/>
<polygon fill="midnightblue" stroke="midnightblue" points="489.85,-1179.25 500.41,-1178.44 491.65,-1172.49 489.85,-1179.25"/>
</g>
<!-- Node11 -->
<g id="node11" class="node">
<title>Node11</title>
<g id="a_node11"><a xlink:href="classdenoptim_1_1fragspace_1_1_graph_link_finder_test.html#a027bbe60b63ad7c458011fe4c4814ff7" target="_top" xlink:title=" ">
<polygon fill="white" stroke="black" points="3,-1085 3,-1126 167,-1126 167,-1085 3,-1085"/>
<text text-anchor="start" x="11" y="-1114" font-family="Helvetica,sans-Serif" font-size="10.00">denoptim.fragspace.Graph</text>
<text text-anchor="start" x="11" y="-1103" font-family="Helvetica,sans-Serif" font-size="10.00">LinkFinderTest.testLinkFromEdge</text>
<text text-anchor="middle" x="85" y="-1092" font-family="Helvetica,sans-Serif" font-size="10.00">NoMatch</text>
</a>
</g>
</g>
<!-- Node4&#45;&gt;Node11 -->
<g id="edge12" class="edge">
<title>Node4&#45;&gt;Node11</title>
<path fill="none" stroke="midnightblue" d="M531.55,-1171.79C503.78,-1149.65 456.98,-1116.74 410,-1103.5 329.73,-1080.88 233.78,-1085.13 167.22,-1092.71"/>
<polygon fill="midnightblue" stroke="midnightblue" points="529.56,-1174.69 539.53,-1178.28 533.98,-1169.25 529.56,-1174.69"/>
</g>
<!-- Node5&#45;&gt;Node6 -->
<g id="edge5" class="edge">
<title>Node5&#45;&gt;Node6</title>
<path fill="none" stroke="midnightblue" d="M217.03,-1317.34C200.52,-1319.88 183.38,-1322.52 167.15,-1325.01"/>
<polygon fill="midnightblue" stroke="midnightblue" points="217.86,-1320.75 227.21,-1315.77 216.8,-1313.84 217.86,-1320.75"/>
</g>
<!-- Node5&#45;&gt;Node7 -->
<g id="edge6" class="edge">
<title>Node5&#45;&gt;Node7</title>
<path fill="none" stroke="midnightblue" d="M217.11,-1289.67C201.59,-1287.28 185.5,-1284.81 170.14,-1282.44"/>
<polygon fill="midnightblue" stroke="midnightblue" points="216.8,-1293.16 227.21,-1291.23 217.86,-1286.25 216.8,-1293.16"/>
</g>
<!-- Node8&#45;&gt;Node9 -->
<g id="edge8" class="edge">
<title>Node8&#45;&gt;Node9</title>
<path fill="none" stroke="midnightblue" d="M217.57,-1206.6C200.92,-1204.94 183.6,-1203.22 167.21,-1201.58"/>
<polygon fill="midnightblue" stroke="midnightblue" points="217.54,-1210.11 227.84,-1207.62 218.23,-1203.15 217.54,-1210.11"/>
</g>
<!-- Node10&#45;&gt;Node11 -->
<g id="edge10" class="edge">
<title>Node10&#45;&gt;Node11</title>
<path fill="none" stroke="midnightblue" d="M217.57,-1118.6C200.92,-1116.94 183.6,-1115.22 167.21,-1113.58"/>
<polygon fill="midnightblue" stroke="midnightblue" points="217.54,-1122.11 227.84,-1119.62 218.23,-1115.15 217.54,-1122.11"/>
</g>
<!-- Node13 -->
<g id="node13" class="node">
<title>Node13</title>
<g id="a_node13"><a xlink:href="classdenoptim_1_1ga_1_1_e_a_utils_test.html#a9aa17c44bb5d48c83e350c36cd68af68" target="_top" xlink:title=" ">
<polygon fill="white" stroke="black" points="236.5,-1024.5 236.5,-1054.5 379.5,-1054.5 379.5,-1024.5 236.5,-1024.5"/>
<text text-anchor="start" x="244.5" y="-1042.5" font-family="Helvetica,sans-Serif" font-size="10.00">denoptim.ga.EAUtilsTest.test</text>
<text text-anchor="middle" x="308" y="-1031.5" font-family="Helvetica,sans-Serif" font-size="10.00">AvoidRedundantXOver</text>
</a>
</g>
</g>
<!-- Node12&#45;&gt;Node13 -->
<g id="edge16" class="edge">
<title>Node12&#45;&gt;Node13</title>
<path fill="none" stroke="midnightblue" d="M498.65,-1002.03C463,-1009.07 417.18,-1018.13 379.51,-1025.57"/>
<polygon fill="midnightblue" stroke="midnightblue" points="499.76,-1005.38 508.89,-1000.01 498.4,-998.51 499.76,-1005.38"/>
</g>
<!-- Node14 -->
<g id="node14" class="node">
<title>Node14</title>
<g id="a_node14"><a xlink:href="classdenoptim_1_1ga_1_1_e_a_utils_test.html#ab7a37d3340d35ab586332ce2122e7bb0" target="_top" xlink:title=" ">
<polygon fill="white" stroke="black" points="226.5,-975.5 226.5,-1005.5 389.5,-1005.5 389.5,-975.5 226.5,-975.5"/>
<text text-anchor="start" x="234.5" y="-993.5" font-family="Helvetica,sans-Serif" font-size="10.00">denoptim.ga.EAUtilsTest.test</text>
<text text-anchor="middle" x="308" y="-982.5" font-family="Helvetica,sans-Serif" font-size="10.00">BuildGraphFromTemplateScaffold</text>
</a>
</g>
</g>
<!-- Node12&#45;&gt;Node14 -->
<g id="edge17" class="edge">
<title>Node12&#45;&gt;Node14</title>
<path fill="none" stroke="midnightblue" d="M468.75,-990.5C442.99,-990.5 414.99,-990.5 389.73,-990.5"/>
<polygon fill="midnightblue" stroke="midnightblue" points="468.87,-994 478.87,-990.5 468.87,-987 468.87,-994"/>
</g>
<!-- Node16 -->
<g id="node16" class="node">
<title>Node16</title>
<g id="a_node16"><a xlink:href="classdenoptim_1_1graph_1_1_d_graph_test.html#a88c2fd8a1b401d9aa25bf85869bc28c7" target="_top" xlink:title=" ">
<polygon fill="white" stroke="black" points="206,-926.5 206,-956.5 410,-956.5 410,-926.5 206,-926.5"/>
<text text-anchor="start" x="214" y="-944.5" font-family="Helvetica,sans-Serif" font-size="10.00">denoptim.graph.DGraphTest.test</text>
<text text-anchor="middle" x="308" y="-933.5" font-family="Helvetica,sans-Serif" font-size="10.00">ConvertSymmetricLabelsToSymmetricSets</text>
</a>
</g>
</g>
<!-- Node15&#45;&gt;Node16 -->
<g id="edge19" class="edge">
<title>Node15&#45;&gt;Node16</title>
<path fill="none" stroke="midnightblue" d="M555.32,-569.27C548.97,-631.01 520.81,-821.86 410,-917.5 406.04,-920.91 401.69,-923.86 397.07,-926.41"/>
<polygon fill="midnightblue" stroke="midnightblue" points="558.81,-569.58 556.27,-559.29 551.84,-568.92 558.81,-569.58"/>
</g>
<!-- Node17 -->
<g id="node17" class="node">
<title>Node17</title>
<g id="a_node17"><a xlink:href="classdenoptim_1_1graph_1_1_d_graph_test.html#a6b4a7a889a0e36c8b2dc97bcd8055c9e" target="_top" xlink:title=" ">
<polygon fill="white" stroke="black" points="230,-877.5 230,-907.5 386,-907.5 386,-877.5 230,-877.5"/>
<text text-anchor="start" x="238" y="-895.5" font-family="Helvetica,sans-Serif" font-size="10.00">denoptim.graph.DGraphTest.test</text>
<text text-anchor="middle" x="308" y="-884.5" font-family="Helvetica,sans-Serif" font-size="10.00">ExtractSubgraph</text>
</a>
</g>
</g>
<!-- Node15&#45;&gt;Node17 -->
<g id="edge20" class="edge">
<title>Node15&#45;&gt;Node17</title>
<path fill="none" stroke="midnightblue" d="M554,-569.19C544.38,-625.36 508.87,-787.54 410,-868.5 402.96,-874.27 394.76,-878.69 386.15,-882.08"/>
<polygon fill="midnightblue" stroke="midnightblue" points="557.49,-569.58 555.64,-559.15 550.58,-568.46 557.49,-569.58"/>
</g>
<!-- Node18 -->
<g id="node18" class="node">
<title>Node18</title>
<g id="a_node18"><a xlink:href="classdenoptim_1_1graph_1_1_d_graph_test.html#a58da23a0d5e884652fecf95eac4995ad" target="_top" xlink:title=" ">
<polygon fill="white" stroke="black" points="230,-828.5 230,-858.5 386,-858.5 386,-828.5 230,-828.5"/>
<text text-anchor="start" x="238" y="-846.5" font-family="Helvetica,sans-Serif" font-size="10.00">denoptim.graph.DGraphTest.test</text>
<text text-anchor="middle" x="308" y="-835.5" font-family="Helvetica,sans-Serif" font-size="10.00">GetChildrenTree</text>
</a>
</g>
</g>
<!-- Node15&#45;&gt;Node18 -->
<g id="edge21" class="edge">
<title>Node15&#45;&gt;Node18</title>
<path fill="none" stroke="midnightblue" d="M552.26,-569.13C539.08,-619.28 497.11,-752.9 410,-819.5 402.84,-824.97 394.63,-829.22 386.04,-832.52"/>
<polygon fill="midnightblue" stroke="midnightblue" points="555.7,-569.8 554.76,-559.24 548.92,-568.08 555.7,-569.8"/>
</g>
<!-- Node19 -->
<g id="node19" class="node">
<title>Node19</title>
<g id="a_node19"><a xlink:href="classdenoptim_1_1graph_1_1_d_graph_test.html#abfaf918deddf6407a4b1916c06a8c412" target="_top" xlink:title=" ">
<polygon fill="white" stroke="black" points="221,-779.5 221,-809.5 395,-809.5 395,-779.5 221,-779.5"/>
<text text-anchor="start" x="229" y="-797.5" font-family="Helvetica,sans-Serif" font-size="10.00">denoptim.graph.DGraphTest.test</text>
<text text-anchor="middle" x="308" y="-786.5" font-family="Helvetica,sans-Serif" font-size="10.00">GetChildrenTreeWithBranchIdentifier</text>
</a>
</g>
</g>
<!-- Node15&#45;&gt;Node19 -->
<g id="edge22" class="edge">
<title>Node15&#45;&gt;Node19</title>
<path fill="none" stroke="midnightblue" d="M549.95,-568.73C533.03,-612.07 485.79,-717.69 410,-770.5 405.05,-773.95 399.66,-776.91 394.04,-779.45"/>
<polygon fill="midnightblue" stroke="midnightblue" points="553.24,-569.94 553.52,-559.34 546.69,-567.45 553.24,-569.94"/>
</g>
<!-- Node20 -->
<g id="node20" class="node">
<title>Node20</title>
<g id="a_node20"><a xlink:href="classdenoptim_1_1graph_1_1_d_graph_test.html#abbd9f77ca8e1f7b733ca74bce6ccad28" target="_top" xlink:title=" ">
<polygon fill="white" stroke="black" points="230,-730.5 230,-760.5 386,-760.5 386,-730.5 230,-730.5"/>
<text text-anchor="start" x="238" y="-748.5" font-family="Helvetica,sans-Serif" font-size="10.00">denoptim.graph.DGraphTest.test</text>
<text text-anchor="middle" x="308" y="-737.5" font-family="Helvetica,sans-Serif" font-size="10.00">GetEmbeddedGraphInClone</text>
</a>
</g>
</g>
<!-- Node15&#45;&gt;Node20 -->
<g id="edge23" class="edge">
<title>Node15&#45;&gt;Node20</title>
<path fill="none" stroke="midnightblue" d="M546.68,-568.01C525.8,-603.66 474.96,-681.81 410,-721.5 402.62,-726.01 394.45,-729.67 386.06,-732.65"/>
<polygon fill="midnightblue" stroke="midnightblue" points="549.82,-569.56 551.76,-559.15 543.75,-566.08 549.82,-569.56"/>
</g>
<!-- Node21 -->
<g id="node21" class="node">
<title>Node21</title>
<g id="a_node21"><a xlink:href="classdenoptim_1_1graph_1_1_d_graph_test.html#a14c5ab7724f5d78b6c721b6e24e3a588" target="_top" xlink:title=" ">
<polygon fill="white" stroke="black" points="230,-681.5 230,-711.5 386,-711.5 386,-681.5 230,-681.5"/>
<text text-anchor="start" x="238" y="-699.5" font-family="Helvetica,sans-Serif" font-size="10.00">denoptim.graph.DGraphTest.test</text>
<text text-anchor="middle" x="308" y="-688.5" font-family="Helvetica,sans-Serif" font-size="10.00">GetEmbeddingPath</text>
</a>
</g>
</g>
<!-- Node15&#45;&gt;Node21 -->
<g id="edge24" class="edge">
<title>Node15&#45;&gt;Node21</title>
<path fill="none" stroke="midnightblue" d="M541.63,-566.71C516.71,-593.53 464.72,-645.05 410,-672.5 402.51,-676.26 394.41,-679.44 386.16,-682.14"/>
<polygon fill="midnightblue" stroke="midnightblue" points="544.3,-568.98 548.47,-559.24 539.14,-564.25 544.3,-568.98"/>
</g>
<!-- Node22 -->
<g id="node22" class="node">
<title>Node22</title>
<g id="a_node22"><a xlink:href="classdenoptim_1_1graph_1_1_d_graph_test.html#a67cac5083662b518183810d74bb901d6" target="_top" xlink:title=" ">
<polygon fill="white" stroke="black" points="230,-632.5 230,-662.5 386,-662.5 386,-632.5 230,-632.5"/>
<text text-anchor="start" x="238" y="-650.5" font-family="Helvetica,sans-Serif" font-size="10.00">denoptim.graph.DGraphTest.test</text>
<text text-anchor="middle" x="308" y="-639.5" font-family="Helvetica,sans-Serif" font-size="10.00">GetInterfaceAPs</text>
</a>
</g>
</g>
<!-- Node15&#45;&gt;Node22 -->
<g id="edge25" class="edge">
<title>Node15&#45;&gt;Node22</title>
<path fill="none" stroke="midnightblue" d="M531.9,-564.42C503.26,-580.89 454.61,-607.22 410,-623.5 400.86,-626.84 391.08,-629.83 381.34,-632.48"/>
<polygon fill="midnightblue" stroke="midnightblue" points="533.92,-567.29 540.81,-559.24 530.4,-561.24 533.92,-567.29"/>
</g>
<!-- Node23 -->
<g id="node23" class="node">
<title>Node23</title>
<g id="a_node23"><a xlink:href="classdenoptim_1_1graph_1_1_d_graph_test.html#a7a211a2f8477d88f90d85d6ab26c25e3" target="_top" xlink:title=" ">
<polygon fill="white" stroke="black" points="230,-583.5 230,-613.5 386,-613.5 386,-583.5 230,-583.5"/>
<text text-anchor="start" x="238" y="-601.5" font-family="Helvetica,sans-Serif" font-size="10.00">denoptim.graph.DGraphTest.test</text>
<text text-anchor="middle" x="308" y="-590.5" font-family="Helvetica,sans-Serif" font-size="10.00">GetLevel</text>
</a>
</g>
</g>
<!-- Node15&#45;&gt;Node23 -->
<g id="edge26" class="edge">
<title>Node15&#45;&gt;Node23</title>
<path fill="none" stroke="midnightblue" d="M498.69,-561.02C464.84,-567.71 421.8,-576.21 385.28,-583.43"/>
<polygon fill="midnightblue" stroke="midnightblue" points="499.76,-564.38 508.89,-559.01 498.4,-557.51 499.76,-564.38"/>
</g>
<!-- Node24 -->
<g id="node24" class="node">
<title>Node24</title>
<g id="a_node24"><a xlink:href="classdenoptim_1_1graph_1_1_d_graph_test.html#a428fb92fa7fcf1312fc2eb81cf7fac4f" target="_top" xlink:title=" ">
<polygon fill="white" stroke="black" points="230,-534.5 230,-564.5 386,-564.5 386,-534.5 230,-534.5"/>
<text text-anchor="start" x="238" y="-552.5" font-family="Helvetica,sans-Serif" font-size="10.00">denoptim.graph.DGraphTest.test</text>
<text text-anchor="middle" x="308" y="-541.5" font-family="Helvetica,sans-Serif" font-size="10.00">GetSourceVertex</text>
</a>
</g>
</g>
<!-- Node15&#45;&gt;Node24 -->
<g id="edge27" class="edge">
<title>Node15&#45;&gt;Node24</title>
<path fill="none" stroke="midnightblue" d="M461.8,-549.5C436.86,-549.5 410.28,-549.5 386.4,-549.5"/>
<polygon fill="midnightblue" stroke="midnightblue" points="462,-553 472,-549.5 462,-546 462,-553"/>
</g>
<!-- Node25 -->
<g id="node25" class="node">
<title>Node25</title>
<g id="a_node25"><a xlink:href="classdenoptim_1_1graph_1_1_d_graph_test.html#afa69d04d566adebf5cf8873815074713" target="_top" xlink:title=" ">
<polygon fill="white" stroke="black" points="230,-485.5 230,-515.5 386,-515.5 386,-485.5 230,-485.5"/>
<text text-anchor="start" x="238" y="-503.5" font-family="Helvetica,sans-Serif" font-size="10.00">denoptim.graph.DGraphTest.test</text>
<text text-anchor="middle" x="308" y="-492.5" font-family="Helvetica,sans-Serif" font-size="10.00">GetSubgraphAPs</text>
</a>
</g>
</g>
<!-- Node15&#45;&gt;Node25 -->
<g id="edge28" class="edge">
<title>Node15&#45;&gt;Node25</title>
<path fill="none" stroke="midnightblue" d="M488.35,-538.26C474.32,-535.82 459.67,-533.16 446,-530.5 422.7,-525.96 397.27,-520.52 374.72,-515.54"/>
<polygon fill="midnightblue" stroke="midnightblue" points="487.99,-541.75 498.44,-539.99 489.18,-534.85 487.99,-541.75"/>
</g>
<!-- Node26 -->
<g id="node26" class="node">
<title>Node26</title>
<g id="a_node26"><a xlink:href="classdenoptim_1_1graph_1_1_d_graph_test.html#ac09e961280beb2c61cc88ce1b4bccd3f" target="_top" xlink:title=" ">
<polygon fill="white" stroke="black" points="230,-436.5 230,-466.5 386,-466.5 386,-436.5 230,-436.5"/>
<text text-anchor="start" x="238" y="-454.5" font-family="Helvetica,sans-Serif" font-size="10.00">denoptim.graph.DGraphTest.test</text>
<text text-anchor="middle" x="308" y="-443.5" font-family="Helvetica,sans-Serif" font-size="10.00">GetSymmetricSubGraphs</text>
</a>
</g>
</g>
<!-- Node15&#45;&gt;Node26 -->
<g id="edge29" class="edge">
<title>Node15&#45;&gt;Node26</title>
<path fill="none" stroke="midnightblue" d="M462.13,-538.86C456.47,-536.54 451.04,-533.78 446,-530.5 421.81,-514.79 433.6,-493.09 410,-476.5 402.76,-471.41 394.59,-467.35 386.11,-464.12"/>
<polygon fill="midnightblue" stroke="midnightblue" points="461.23,-542.26 471.83,-542.38 463.62,-535.68 461.23,-542.26"/>
</g>
<!-- Node27 -->
<g id="node27" class="node">
<title>Node27</title>
<g id="a_node27"><a xlink:href="classdenoptim_1_1graph_1_1_d_graph_test.html#a02791a3f61db5dd584dec5c3995ec72c" target="_top" xlink:title=" ">
<polygon fill="white" stroke="black" points="230,-387.5 230,-417.5 386,-417.5 386,-387.5 230,-387.5"/>
<text text-anchor="start" x="238" y="-405.5" font-family="Helvetica,sans-Serif" font-size="10.00">denoptim.graph.DGraphTest.test</text>
<text text-anchor="middle" x="308" y="-394.5" font-family="Helvetica,sans-Serif" font-size="10.00">GraphIsomorphism</text>
</a>
</g>
</g>
<!-- Node15&#45;&gt;Node27 -->
<g id="edge30" class="edge">
<title>Node15&#45;&gt;Node27</title>
<path fill="none" stroke="midnightblue" d="M462.35,-540.89C456.47,-538.1 450.95,-534.68 446,-530.5 408.97,-499.18 445.86,-460.15 410,-427.5 403.12,-421.24 394.92,-416.48 386.21,-412.88"/>
<polygon fill="midnightblue" stroke="midnightblue" points="461.25,-544.22 471.83,-544.75 463.89,-537.73 461.25,-544.22"/>
</g>
<!-- Node28 -->
<g id="node28" class="node">
<title>Node28</title>
<g id="a_node28"><a xlink:href="classdenoptim_1_1graph_1_1_d_graph_test.html#aea227d615f6c2f3bac5839a8099a900d" target="_top" xlink:title=" ">
<polygon fill="white" stroke="black" points="230,-338.5 230,-368.5 386,-368.5 386,-338.5 230,-338.5"/>
<text text-anchor="start" x="238" y="-356.5" font-family="Helvetica,sans-Serif" font-size="10.00">denoptim.graph.DGraphTest.test</text>
<text text-anchor="middle" x="308" y="-345.5" font-family="Helvetica,sans-Serif" font-size="10.00">IsIsostructuralTo</text>
</a>
</g>
</g>
<!-- Node15&#45;&gt;Node28 -->
<g id="edge31" class="edge">
<title>Node15&#45;&gt;Node28</title>
<path fill="none" stroke="midnightblue" d="M462.35,-541.71C456.4,-538.75 450.86,-535.07 446,-530.5 395.39,-482.98 458.84,-427.84 410,-378.5 403.26,-371.7 394.99,-366.64 386.1,-362.89"/>
<polygon fill="midnightblue" stroke="midnightblue" points="461.42,-545.12 472,-545.79 464.15,-538.67 461.42,-545.12"/>
</g>
<!-- Node29 -->
<g id="node29" class="node">
<title>Node29</title>
<g id="a_node29"><a xlink:href="classdenoptim_1_1ga_1_1_xover_site_test.html#a3936ca2cfc1bb9ace410f7f47ad2c1f2" target="_top" xlink:title=" ">
<polygon fill="white" stroke="black" points="232,-289.5 232,-319.5 384,-319.5 384,-289.5 232,-289.5"/>
<text text-anchor="start" x="240" y="-307.5" font-family="Helvetica,sans-Serif" font-size="10.00">denoptim.ga.XoverSiteTest.test</text>
<text text-anchor="middle" x="308" y="-296.5" font-family="Helvetica,sans-Serif" font-size="10.00">ProjectToClonedGraphs</text>
</a>
</g>
</g>
<!-- Node15&#45;&gt;Node29 -->
<g id="edge32" class="edge">
<title>Node15&#45;&gt;Node29</title>
<path fill="none" stroke="midnightblue" d="M462.66,-542.32C456.55,-539.24 450.9,-535.36 446,-530.5 381.58,-466.57 472.04,-395.74 410,-329.5 402.9,-321.92 393.89,-316.48 384.2,-312.61"/>
<polygon fill="midnightblue" stroke="midnightblue" points="461.33,-545.56 471.9,-546.28 464.09,-539.12 461.33,-545.56"/>
</g>
<!-- Node30 -->
<g id="node30" class="node">
<title>Node30</title>
<g id="a_node30"><a xlink:href="classdenoptim_1_1graph_1_1_d_graph_test.html#a83a9624ea5dc6a2c515407b865b62611" target="_top" xlink:title=" ">
<polygon fill="white" stroke="black" points="230,-240.5 230,-270.5 386,-270.5 386,-240.5 230,-240.5"/>
<text text-anchor="start" x="238" y="-258.5" font-family="Helvetica,sans-Serif" font-size="10.00">denoptim.graph.DGraphTest.test</text>
<text text-anchor="middle" x="308" y="-247.5" font-family="Helvetica,sans-Serif" font-size="10.00">ReplaceSubGraph</text>
</a>
</g>
</g>
<!-- Node15&#45;&gt;Node30 -->
<g id="edge33" class="edge">
<title>Node15&#45;&gt;Node30</title>
<path fill="none" stroke="midnightblue" d="M462.65,-542.59C456.51,-539.46 450.86,-535.49 446,-530.5 367.68,-450.08 485.33,-363.73 410,-280.5 403.45,-273.27 395.18,-267.97 386.19,-264.12"/>
<polygon fill="midnightblue" stroke="midnightblue" points="461.37,-545.85 471.94,-546.61 464.15,-539.43 461.37,-545.85"/>
</g>
<!-- Node31 -->
<g id="node31" class="node">
<title>Node31</title>
<g id="a_node31"><a xlink:href="classdenoptim_1_1graph_1_1_d_graph_test.html#a0c949ec1131a872dea53524614b3b42a" target="_top" xlink:title=" ">
<polygon fill="white" stroke="black" points="230,-191.5 230,-221.5 386,-221.5 386,-191.5 230,-191.5"/>
<text text-anchor="start" x="238" y="-209.5" font-family="Helvetica,sans-Serif" font-size="10.00">denoptim.graph.DGraphTest.test</text>
<text text-anchor="middle" x="308" y="-198.5" font-family="Helvetica,sans-Serif" font-size="10.00">ReplaceSubGraph_inTemplate</text>
</a>
</g>
</g>
<!-- Node15&#45;&gt;Node31 -->
<g id="edge34" class="edge">
<title>Node15&#45;&gt;Node31</title>
<path fill="none" stroke="midnightblue" d="M462.52,-542.72C456.41,-539.55 450.8,-535.54 446,-530.5 353.74,-433.53 498.66,-331.78 410,-231.5 403.54,-224.19 395.31,-218.86 386.35,-214.98"/>
<polygon fill="midnightblue" stroke="midnightblue" points="461.21,-545.97 471.78,-546.77 464.02,-539.55 461.21,-545.97"/>
</g>
<!-- Node32 -->
<g id="node32" class="node">
<title>Node32</title>
<g id="a_node32"><a xlink:href="classdenoptim_1_1graph_1_1_d_graph_test.html#a3b99d7012da487a88acf937e3c9f5ea4" target="_top" xlink:title=" ">
<polygon fill="white" stroke="black" points="230,-142.5 230,-172.5 386,-172.5 386,-142.5 230,-142.5"/>
<text text-anchor="start" x="238" y="-160.5" font-family="Helvetica,sans-Serif" font-size="10.00">denoptim.graph.DGraphTest.test</text>
<text text-anchor="middle" x="308" y="-149.5" font-family="Helvetica,sans-Serif" font-size="10.00">ReplaceVertex</text>
</a>
</g>
</g>
<!-- Node15&#45;&gt;Node32 -->
<g id="edge35" class="edge">
<title>Node15&#45;&gt;Node32</title>
<path fill="none" stroke="midnightblue" d="M462.59,-542.89C456.44,-539.7 450.8,-535.63 446,-530.5 392.88,-473.73 461.01,-241.17 410,-182.5 403.6,-175.14 395.41,-169.77 386.46,-165.88"/>
<polygon fill="midnightblue" stroke="midnightblue" points="461.37,-546.18 471.93,-546.98 464.17,-539.76 461.37,-546.18"/>
</g>
<!-- Node33 -->
<g id="node33" class="node">
<title>Node33</title>
<g id="a_node33"><a xlink:href="classdenoptim_1_1graph_1_1_d_graph_test.html#a0b946dc2730c68f796c37e5f5cea4e36" target="_top" xlink:title=" ">
<polygon fill="white" stroke="black" points="230,-93.5 230,-123.5 386,-123.5 386,-93.5 230,-93.5"/>
<text text-anchor="start" x="238" y="-111.5" font-family="Helvetica,sans-Serif" font-size="10.00">denoptim.graph.DGraphTest.test</text>
<text text-anchor="middle" x="308" y="-100.5" font-family="Helvetica,sans-Serif" font-size="10.00">ReplaceVertex_inRing</text>
</a>
</g>
</g>
<!-- Node15&#45;&gt;Node33 -->
<g id="edge36" class="edge">
<title>Node15&#45;&gt;Node33</title>
<path fill="none" stroke="midnightblue" d="M462.52,-542.96C456.39,-539.75 450.77,-535.66 446,-530.5 385.89,-465.43 467.69,-200.72 410,-133.5 403.53,-125.96 395.18,-120.51 386.05,-116.59"/>
<polygon fill="midnightblue" stroke="midnightblue" points="461.28,-546.24 471.84,-547.06 464.1,-539.83 461.28,-546.24"/>
</g>
<!-- Node34 -->
<g id="node34" class="node">
<title>Node34</title>
<g id="a_node34"><a xlink:href="classdenoptim_1_1graph_1_1_d_graph_test.html#a0250850e0ef186b2cf9617a5de3ff34d" target="_top" xlink:title=" ">
<polygon fill="white" stroke="black" points="230,-44.5 230,-74.5 386,-74.5 386,-44.5 230,-44.5"/>
<text text-anchor="start" x="238" y="-62.5" font-family="Helvetica,sans-Serif" font-size="10.00">denoptim.graph.DGraphTest.test</text>
<text text-anchor="middle" x="308" y="-51.5" font-family="Helvetica,sans-Serif" font-size="10.00">SymmetricSetLabels</text>
</a>
</g>
</g>
<!-- Node15&#45;&gt;Node34 -->
<g id="edge37" class="edge">
<title>Node15&#45;&gt;Node34</title>
<path fill="none" stroke="midnightblue" d="M462.47,-543.01C456.34,-539.79 450.74,-535.69 446,-530.5 378.89,-457.13 474.39,-160.27 410,-84.5 403.57,-76.93 395.24,-71.46 386.12,-67.53"/>
<polygon fill="midnightblue" stroke="midnightblue" points="461.21,-546.28 471.77,-547.13 464.04,-539.88 461.21,-546.28"/>
</g>
<!-- Node36 -->
<g id="node36" class="node">
<title>Node36</title>
<g id="a_node36"><a xlink:href="classdenoptim_1_1gui_1_1_g_u_i_graph_handler.html#af5b000c105018cbd7c262b34f9750044" target="_top" xlink:title="Initialize the panel and add buttons.">
<polygon fill="white" stroke="black" points="214,-6 214,-25 402,-25 402,-6 214,-6"/>
<text text-anchor="middle" x="308" y="-13" font-family="Helvetica,sans-Serif" font-size="10.00">denoptim.gui.GUIGraphHandler.initialize</text>
</a>
</g>
</g>
<!-- Node35&#45;&gt;Node36 -->
<g id="edge39" class="edge">
<title>Node35&#45;&gt;Node36</title>
<path fill="none" stroke="midnightblue" d="M447.92,-483.59C447.27,-482.91 446.63,-482.21 446,-481.5 380.36,-406.52 476.65,-108.59 410,-34.5 406.66,-30.79 402.84,-27.66 398.69,-25.03"/>
<polygon fill="midnightblue" stroke="midnightblue" points="445.64,-486.24 455.48,-490.18 450.25,-480.97 445.64,-486.24"/>
</g>
<!-- Node37 -->
<g id="node37" class="node">
<title>Node37</title>
<g id="a_node37"><a xlink:href="classdenoptim_1_1gui_1_1_g_u_i_graph_handler.html#ab7d010d9a384f6b85edce47c95d6723b" target="_top" xlink:title="Constructor.">
<polygon fill="white" stroke="black" points="8,-0.5 8,-30.5 162,-30.5 162,-0.5 8,-0.5"/>
<text text-anchor="start" x="16" y="-18.5" font-family="Helvetica,sans-Serif" font-size="10.00">denoptim.gui.GUIGraphHandler.</text>
<text text-anchor="middle" x="85" y="-7.5" font-family="Helvetica,sans-Serif" font-size="10.00">GUIGraphHandler</text>
</a>
</g>
</g>
<!-- Node36&#45;&gt;Node37 -->
<g id="edge40" class="edge">
<title>Node36&#45;&gt;Node37</title>
<path fill="none" stroke="midnightblue" d="M203.77,-15.5C189.78,-15.5 175.64,-15.5 162.24,-15.5"/>
<polygon fill="midnightblue" stroke="midnightblue" points="203.92,-19 213.92,-15.5 203.92,-12 203.92,-19"/>
</g>
</g>
</svg>
