<?xml version="1.0" encoding="UTF-8" standalone="no"?>
<!DOCTYPE svg PUBLIC "-//W3C//DTD SVG 1.1//EN"
 "http://www.w3.org/Graphics/SVG/1.1/DTD/svg11.dtd">
<!-- Generated by graphviz version 3.0.0 (20220413.0242)
 -->
<!-- Title: denoptim.utils.DummyAtomHandler.removeDummy Pages: 1 -->
<svg width="1435pt" height="638pt"
 viewBox="0.00 0.00 1435.00 638.00" xmlns="http://www.w3.org/2000/svg" xmlns:xlink="http://www.w3.org/1999/xlink">
<g id="graph0" class="graph" transform="scale(1 1) rotate(0) translate(4 634)">
<title>denoptim.utils.DummyAtomHandler.removeDummy</title>
<polygon fill="white" stroke="transparent" points="-4,4 -4,-634 1431,-634 1431,4 -4,4"/>
<!-- Node1 -->
<g id="node1" class="node">
<title>Node1</title>
<g id="a_node1"><a xlink:title="Removes all dummy atoms and the bonds connecting them to other atoms.">
<polygon fill="#bfbfbf" stroke="black" points="1292,-442.5 1292,-472.5 1427,-472.5 1427,-442.5 1292,-442.5"/>
<text text-anchor="start" x="1300" y="-460.5" font-family="Helvetica,sans-Serif" font-size="10.00">denoptim.utils.DummyAtom</text>
<text text-anchor="middle" x="1359.5" y="-449.5" font-family="Helvetica,sans-Serif" font-size="10.00">Handler.removeDummy</text>
</a>
</g>
</g>
<!-- Node2 -->
<g id="node2" class="node">
<title>Node2</title>
<g id="a_node2"><a xlink:href="classdenoptim_1_1molecularmodeling_1_1_multi_molecular_model_builder.html#a6a8e314f3fb37f66c32c8c4d5695b8a4" target="_top" xlink:title="Given the graph representation of the molecular constitution, along with the 3D coordinates of the fr...">
<polygon fill="white" stroke="black" points="1098,-542 1098,-583 1256,-583 1256,-542 1098,-542"/>
<text text-anchor="start" x="1106" y="-571" font-family="Helvetica,sans-Serif" font-size="10.00">denoptim.molecularmodeling.</text>
<text text-anchor="start" x="1106" y="-560" font-family="Helvetica,sans-Serif" font-size="10.00">MultiMolecularModelBuilder.build</text>
<text text-anchor="middle" x="1177" y="-549" font-family="Helvetica,sans-Serif" font-size="10.00">Multi3DStructure</text>
</a>
</g>
</g>
<!-- Node1&#45;&gt;Node2 -->
<g id="edge1" class="edge">
<title>Node1&#45;&gt;Node2</title>
<path fill="none" stroke="midnightblue" d="M1323.71,-477.74C1292,-496.19 1245.36,-523.32 1213.44,-541.88"/>
<polygon fill="midnightblue" stroke="midnightblue" points="1325.75,-480.6 1332.64,-472.54 1322.23,-474.55 1325.75,-480.6"/>
</g>
<!-- Node4 -->
<g id="node4" class="node">
<title>Node4</title>
<g id="a_node4"><a xlink:href="classdenoptim_1_1fitness_1_1_fitness_provider.html#aac598a60c7a09b7e84d8f1d5711dd0e5" target="_top" xlink:title="Calculated the fitness according to the current configuration.">
<polygon fill="white" stroke="black" points="1116,-442.5 1116,-472.5 1238,-472.5 1238,-442.5 1116,-442.5"/>
<text text-anchor="start" x="1124" y="-460.5" font-family="Helvetica,sans-Serif" font-size="10.00">denoptim.fitness.Fitness</text>
<text text-anchor="middle" x="1177" y="-449.5" font-family="Helvetica,sans-Serif" font-size="10.00">Provider.getFitness</text>
</a>
</g>
</g>
<!-- Node1&#45;&gt;Node4 -->
<g id="edge3" class="edge">
<title>Node1&#45;&gt;Node4</title>
<path fill="none" stroke="midnightblue" d="M1281.8,-457.5C1267.21,-457.5 1252.14,-457.5 1238.16,-457.5"/>
<polygon fill="midnightblue" stroke="midnightblue" points="1281.8,-461 1291.8,-457.5 1281.8,-454 1281.8,-461"/>
</g>
<!-- Node15 -->
<g id="node15" class="node">
<title>Node15</title>
<g id="a_node15"><a xlink:href="classdenoptim_1_1utils_1_1_molecule_utils.html#a572e6936929d9decea95808edbbfd16c" target="_top" xlink:title="Returns the SMILES representation of the molecule.">
<polygon fill="white" stroke="black" points="1100,-235.5 1100,-265.5 1254,-265.5 1254,-235.5 1100,-235.5"/>
<text text-anchor="start" x="1108" y="-253.5" font-family="Helvetica,sans-Serif" font-size="10.00">denoptim.utils.MoleculeUtils.get</text>
<text text-anchor="middle" x="1177" y="-242.5" font-family="Helvetica,sans-Serif" font-size="10.00">SMILESForMolecule</text>
</a>
</g>
</g>
<!-- Node1&#45;&gt;Node15 -->
<g id="edge14" class="edge">
<title>Node1&#45;&gt;Node15</title>
<path fill="none" stroke="midnightblue" d="M1338.6,-434.67C1301.49,-392.12 1222.67,-301.73 1191.29,-265.74"/>
<polygon fill="midnightblue" stroke="midnightblue" points="1336.02,-437.04 1345.23,-442.28 1341.29,-432.44 1336.02,-437.04"/>
</g>
<!-- Node3 -->
<g id="node3" class="node">
<title>Node3</title>
<g id="a_node3"><a xlink:href="classdenoptim_1_1programs_1_1moldecularmodelbuilder_1_1_molecular_model_builder.html#ad2e44290de6a861274def677044e9754" target="_top" xlink:title=" ">
<polygon fill="white" stroke="black" points="856,-599.5 856,-629.5 1062,-629.5 1062,-599.5 856,-599.5"/>
<text text-anchor="start" x="864" y="-617.5" font-family="Helvetica,sans-Serif" font-size="10.00">denoptim.programs.moldecularmodelbuilder.</text>
<text text-anchor="middle" x="959" y="-606.5" font-family="Helvetica,sans-Serif" font-size="10.00">MolecularModelBuilder.runProgram</text>
</a>
</g>
</g>
<!-- Node2&#45;&gt;Node3 -->
<g id="edge2" class="edge">
<title>Node2&#45;&gt;Node3</title>
<path fill="none" stroke="midnightblue" d="M1087.96,-584.22C1079.19,-586.35 1070.42,-588.47 1062,-590.5 1049.8,-593.43 1036.76,-596.53 1024.23,-599.49"/>
<polygon fill="midnightblue" stroke="midnightblue" points="1088.95,-587.58 1097.84,-581.81 1087.29,-580.78 1088.95,-587.58"/>
</g>
<!-- Node5 -->
<g id="node5" class="node">
<title>Node5</title>
<g id="a_node5"><a xlink:href="classdenoptim_1_1task_1_1_fitness_task.html#aa35dd8ab897188899e5498f953b6939e" target="_top" xlink:title=" ">
<polygon fill="white" stroke="black" points="884.5,-550.5 884.5,-580.5 1033.5,-580.5 1033.5,-550.5 884.5,-550.5"/>
<text text-anchor="start" x="892.5" y="-568.5" font-family="Helvetica,sans-Serif" font-size="10.00">denoptim.task.FitnessTask.run</text>
<text text-anchor="middle" x="959" y="-557.5" font-family="Helvetica,sans-Serif" font-size="10.00">InternalFitness</text>
</a>
</g>
</g>
<!-- Node4&#45;&gt;Node5 -->
<g id="edge4" class="edge">
<title>Node4&#45;&gt;Node5</title>
<path fill="none" stroke="midnightblue" d="M1152.24,-479.54C1130.37,-498.65 1096.23,-525.67 1062,-541.5 1053.08,-545.62 1043.39,-549.07 1033.64,-551.95"/>
<polygon fill="midnightblue" stroke="midnightblue" points="1154.85,-481.9 1159.99,-472.64 1150.2,-476.67 1154.85,-481.9"/>
</g>
<!-- Node11 -->
<g id="node11" class="node">
<title>Node11</title>
<g id="a_node11"><a xlink:href="classdenoptim_1_1fitness_1_1_fitness_provider_test.html#a2272dbcf72c993b4544719ddf64c98b6" target="_top" xlink:title=" ">
<polygon fill="white" stroke="black" points="886,-491 886,-532 1032,-532 1032,-491 886,-491"/>
<text text-anchor="start" x="894" y="-520" font-family="Helvetica,sans-Serif" font-size="10.00">denoptim.fitness.Fitness</text>
<text text-anchor="start" x="894" y="-509" font-family="Helvetica,sans-Serif" font-size="10.00">ProviderTest.testGetConstant</text>
<text text-anchor="middle" x="959" y="-498" font-family="Helvetica,sans-Serif" font-size="10.00">Fitness</text>
</a>
</g>
</g>
<!-- Node4&#45;&gt;Node11 -->
<g id="edge10" class="edge">
<title>Node4&#45;&gt;Node11</title>
<path fill="none" stroke="midnightblue" d="M1105.89,-475.03C1082.27,-480.93 1055.88,-487.53 1032.11,-493.47"/>
<polygon fill="midnightblue" stroke="midnightblue" points="1106.98,-478.36 1115.83,-472.54 1105.28,-471.57 1106.98,-478.36"/>
</g>
<!-- Node12 -->
<g id="node12" class="node">
<title>Node12</title>
<g id="a_node12"><a xlink:href="classdenoptim_1_1fitness_1_1_fitness_provider_test.html#a797d2bef11fed4d885baa11089538b23" target="_top" xlink:title=" ">
<polygon fill="white" stroke="black" points="889.5,-442.5 889.5,-472.5 1028.5,-472.5 1028.5,-442.5 889.5,-442.5"/>
<text text-anchor="start" x="897.5" y="-460.5" font-family="Helvetica,sans-Serif" font-size="10.00">denoptim.fitness.Fitness</text>
<text text-anchor="middle" x="959" y="-449.5" font-family="Helvetica,sans-Serif" font-size="10.00">ProviderTest.testGetFitness</text>
</a>
</g>
</g>
<!-- Node4&#45;&gt;Node12 -->
<g id="edge11" class="edge">
<title>Node4&#45;&gt;Node12</title>
<path fill="none" stroke="midnightblue" d="M1105.79,-457.5C1081.03,-457.5 1053.23,-457.5 1028.61,-457.5"/>
<polygon fill="midnightblue" stroke="midnightblue" points="1105.83,-461 1115.83,-457.5 1105.83,-454 1105.83,-461"/>
</g>
<!-- Node13 -->
<g id="node13" class="node">
<title>Node13</title>
<g id="a_node13"><a xlink:href="classdenoptim_1_1fitness_1_1_fitness_provider_test.html#a49819c248ea4d3acf19689f8d6fcec2c" target="_top" xlink:title=" ">
<polygon fill="white" stroke="black" points="880,-383 880,-424 1038,-424 1038,-383 880,-383"/>
<text text-anchor="start" x="888" y="-412" font-family="Helvetica,sans-Serif" font-size="10.00">denoptim.fitness.Fitness</text>
<text text-anchor="start" x="888" y="-401" font-family="Helvetica,sans-Serif" font-size="10.00">ProviderTest.testGetFitnessWith</text>
<text text-anchor="middle" x="959" y="-390" font-family="Helvetica,sans-Serif" font-size="10.00">CustomDescriptors</text>
</a>
</g>
</g>
<!-- Node4&#45;&gt;Node13 -->
<g id="edge12" class="edge">
<title>Node4&#45;&gt;Node13</title>
<path fill="none" stroke="midnightblue" d="M1106.04,-440.01C1084.33,-434.58 1060.26,-428.57 1038.04,-423.01"/>
<polygon fill="midnightblue" stroke="midnightblue" points="1105.28,-443.43 1115.83,-442.46 1106.98,-436.64 1105.28,-443.43"/>
</g>
<!-- Node14 -->
<g id="node14" class="node">
<title>Node14</title>
<g id="a_node14"><a xlink:href="classdenoptim_1_1fitness_1_1_fitness_provider_test.html#ac3684e1e2969ee1c883ab279d4d5c048" target="_top" xlink:title="This test is reproducing most of what done in FitnessParametersTest#testProcessExpressions() so if bo...">
<polygon fill="white" stroke="black" points="880,-323 880,-364 1038,-364 1038,-323 880,-323"/>
<text text-anchor="start" x="888" y="-352" font-family="Helvetica,sans-Serif" font-size="10.00">denoptim.fitness.Fitness</text>
<text text-anchor="start" x="888" y="-341" font-family="Helvetica,sans-Serif" font-size="10.00">ProviderTest.testGetFitnessWith</text>
<text text-anchor="middle" x="959" y="-330" font-family="Helvetica,sans-Serif" font-size="10.00">ParametrizedDescriptors</text>
</a>
</g>
</g>
<!-- Node4&#45;&gt;Node14 -->
<g id="edge13" class="edge">
<title>Node4&#45;&gt;Node14</title>
<path fill="none" stroke="midnightblue" d="M1151.64,-435.59C1129.62,-416.79 1095.59,-390.16 1062,-373.5 1054.48,-369.77 1046.41,-366.41 1038.22,-363.42"/>
<polygon fill="midnightblue" stroke="midnightblue" points="1149.62,-438.47 1159.47,-442.37 1154.2,-433.18 1149.62,-438.47"/>
</g>
<!-- Node6 -->
<g id="node6" class="node">
<title>Node6</title>
<g id="a_node6"><a xlink:href="classdenoptim_1_1task_1_1_fitness_task.html#afbea956df1830ac1fde3f7d71a588353" target="_top" xlink:title="This method runs the actual evaluation of the fitness, whether that is run internally (i....">
<polygon fill="white" stroke="black" points="663.5,-527.5 663.5,-557.5 812.5,-557.5 812.5,-527.5 663.5,-527.5"/>
<text text-anchor="start" x="671.5" y="-545.5" font-family="Helvetica,sans-Serif" font-size="10.00">denoptim.task.FitnessTask.run</text>
<text text-anchor="middle" x="738" y="-534.5" font-family="Helvetica,sans-Serif" font-size="10.00">FitnessProvider</text>
</a>
</g>
</g>
<!-- Node5&#45;&gt;Node6 -->
<g id="edge5" class="edge">
<title>Node5&#45;&gt;Node6</title>
<path fill="none" stroke="midnightblue" d="M874.31,-556.71C854.03,-554.58 832.49,-552.32 812.71,-550.24"/>
<polygon fill="midnightblue" stroke="midnightblue" points="874.16,-560.21 884.47,-557.78 874.89,-553.25 874.16,-560.21"/>
</g>
<!-- Node7 -->
<g id="node7" class="node">
<title>Node7</title>
<g id="a_node7"><a xlink:href="classdenoptim_1_1ga_1_1_offspring_evaluation_task.html#aab5b9c0b8a88922460f5c28ae161d1fa" target="_top" xlink:title=" ">
<polygon fill="white" stroke="black" points="448,-554.5 448,-584.5 603,-584.5 603,-554.5 448,-554.5"/>
<text text-anchor="start" x="456" y="-572.5" font-family="Helvetica,sans-Serif" font-size="10.00">denoptim.ga.OffspringEvaluation</text>
<text text-anchor="middle" x="525.5" y="-561.5" font-family="Helvetica,sans-Serif" font-size="10.00">Task.call</text>
</a>
</g>
</g>
<!-- Node6&#45;&gt;Node7 -->
<g id="edge6" class="edge">
<title>Node6&#45;&gt;Node7</title>
<path fill="none" stroke="midnightblue" d="M653.23,-553.25C636.75,-555.36 619.53,-557.57 603.3,-559.65"/>
<polygon fill="midnightblue" stroke="midnightblue" points="653.9,-556.69 663.38,-551.94 653.01,-549.74 653.9,-556.69"/>
</g>
<!-- Node8 -->
<g id="node8" class="node">
<title>Node8</title>
<g id="a_node8"><a xlink:href="classdenoptim_1_1programs_1_1fitnessevaluator_1_1_fitness_evaluation_task.html#a498b4214d06fc161d92cf1a38635ece3" target="_top" xlink:title=" ">
<polygon fill="white" stroke="black" points="439.5,-505.5 439.5,-535.5 611.5,-535.5 611.5,-505.5 439.5,-505.5"/>
<text text-anchor="start" x="447.5" y="-523.5" font-family="Helvetica,sans-Serif" font-size="10.00">denoptim.programs.fitnessevaluator.</text>
<text text-anchor="middle" x="525.5" y="-512.5" font-family="Helvetica,sans-Serif" font-size="10.00">FitnessEvaluationTask.call</text>
</a>
</g>
</g>
<!-- Node6&#45;&gt;Node8 -->
<g id="edge7" class="edge">
<title>Node6&#45;&gt;Node8</title>
<path fill="none" stroke="midnightblue" d="M653.06,-533.73C639.42,-532.3 625.29,-530.82 611.62,-529.4"/>
<polygon fill="midnightblue" stroke="midnightblue" points="653.07,-537.25 663.38,-534.81 653.8,-530.28 653.07,-537.25"/>
</g>
<!-- Node9 -->
<g id="node9" class="node">
<title>Node9</title>
<g id="a_node9"><a xlink:href="classdenoptim_1_1combinatorial_1_1_graph_building_task.html#a6b74fb1e5678145e094259bfa2401bd4" target="_top" xlink:title=" ">
<polygon fill="white" stroke="black" points="437.5,-412.5 437.5,-442.5 613.5,-442.5 613.5,-412.5 437.5,-412.5"/>
<text text-anchor="start" x="445.5" y="-430.5" font-family="Helvetica,sans-Serif" font-size="10.00">denoptim.combinatorial.Graph</text>
<text text-anchor="middle" x="525.5" y="-419.5" font-family="Helvetica,sans-Serif" font-size="10.00">BuildingTask.sendToFitnessProvider</text>
</a>
</g>
</g>
<!-- Node6&#45;&gt;Node9 -->
<g id="edge8" class="edge">
<title>Node6&#45;&gt;Node9</title>
<path fill="none" stroke="midnightblue" d="M700.48,-522.55C658.79,-499.78 591.54,-463.03 554.03,-442.54"/>
<polygon fill="midnightblue" stroke="midnightblue" points="699.03,-525.74 709.48,-527.47 702.38,-519.6 699.03,-525.74"/>
</g>
<!-- Node10 -->
<g id="node10" class="node">
<title>Node10</title>
<g id="a_node10"><a xlink:href="classdenoptim_1_1combinatorial_1_1_graph_building_task.html#a3eaee724fc921194fa158714aafe182d" target="_top" xlink:title="Calls the task.">
<polygon fill="white" stroke="black" points="224,-345.5 224,-375.5 369,-375.5 369,-345.5 224,-345.5"/>
<text text-anchor="start" x="232" y="-363.5" font-family="Helvetica,sans-Serif" font-size="10.00">denoptim.combinatorial.Graph</text>
<text text-anchor="middle" x="296.5" y="-352.5" font-family="Helvetica,sans-Serif" font-size="10.00">BuildingTask.call</text>
</a>
</g>
</g>
<!-- Node9&#45;&gt;Node10 -->
<g id="edge9" class="edge">
<title>Node9&#45;&gt;Node10</title>
<path fill="none" stroke="midnightblue" d="M463.68,-409.55C427.75,-398.94 382.77,-385.67 348.67,-375.6"/>
<polygon fill="midnightblue" stroke="midnightblue" points="462.97,-412.99 473.56,-412.46 464.96,-406.28 462.97,-412.99"/>
</g>
<!-- Node15&#45;&gt;Node10 -->
<g id="edge15" class="edge">
<title>Node15&#45;&gt;Node10</title>
<path fill="none" stroke="midnightblue" d="M1103.36,-267.63C1089.67,-270.51 1075.43,-273.29 1062,-275.5 808.84,-317.21 505.08,-344.19 369.25,-355.06"/>
<polygon fill="midnightblue" stroke="midnightblue" points="1104.17,-271.03 1113.21,-265.51 1102.7,-264.19 1104.17,-271.03"/>
</g>
<!-- Node16 -->
<g id="node16" class="node">
<title>Node16</title>
<g id="a_node16"><a xlink:href="classdenoptim_1_1graph_1_1_d_graph.html#ac1e5c9703afc6f29fe11cca08ddb1a1c" target="_top" xlink:title="Peeks into this graph to derive a preliminary chemical representation with SMILES and InChIKey.">
<polygon fill="white" stroke="black" points="886,-235.5 886,-265.5 1032,-265.5 1032,-235.5 886,-235.5"/>
<text text-anchor="start" x="894" y="-253.5" font-family="Helvetica,sans-Serif" font-size="10.00">denoptim.graph.DGraph.check</text>
<text text-anchor="middle" x="959" y="-242.5" font-family="Helvetica,sans-Serif" font-size="10.00">Consistency</text>
</a>
</g>
</g>
<!-- Node15&#45;&gt;Node16 -->
<g id="edge16" class="edge">
<title>Node15&#45;&gt;Node16</title>
<path fill="none" stroke="midnightblue" d="M1089.68,-250.5C1070.63,-250.5 1050.63,-250.5 1032.21,-250.5"/>
<polygon fill="midnightblue" stroke="midnightblue" points="1089.85,-254 1099.85,-250.5 1089.85,-247 1089.85,-254"/>
</g>
<!-- Node17 -->
<g id="node17" class="node">
<title>Node17</title>
<g id="a_node17"><a xlink:href="classdenoptim_1_1gui_1_1_fragment_view_panel.html#ae583c90795f338ffbf02776738700c09" target="_top" xlink:title="Returns the chemical representation of the currently loaded chemical object.">
<polygon fill="white" stroke="black" points="890.5,-186.5 890.5,-216.5 1027.5,-216.5 1027.5,-186.5 890.5,-186.5"/>
<text text-anchor="start" x="898.5" y="-204.5" font-family="Helvetica,sans-Serif" font-size="10.00">denoptim.gui.FragmentView</text>
<text text-anchor="middle" x="959" y="-193.5" font-family="Helvetica,sans-Serif" font-size="10.00">Panel.getLoadedStructure</text>
</a>
</g>
</g>
<!-- Node15&#45;&gt;Node17 -->
<g id="edge17" class="edge">
<title>Node15&#45;&gt;Node17</title>
<path fill="none" stroke="midnightblue" d="M1099.92,-233.24C1075.86,-227.78 1049.46,-221.79 1026.15,-216.51"/>
<polygon fill="midnightblue" stroke="midnightblue" points="1099.2,-236.67 1109.72,-235.47 1100.75,-229.84 1099.2,-236.67"/>
</g>
<!-- Node24 -->
<g id="node24" class="node">
<title>Node24</title>
<g id="a_node24"><a xlink:href="classdenoptim_1_1ga_1_1_e_a_utils.html#a1ddb932d4618434d435e4f85ce5e5eb5" target="_top" xlink:title="Evaluates the possibility of closing rings in a given graph and if any ring can be closed,...">
<polygon fill="white" stroke="black" points="893.5,-94.5 893.5,-124.5 1024.5,-124.5 1024.5,-94.5 893.5,-94.5"/>
<text text-anchor="start" x="901.5" y="-112.5" font-family="Helvetica,sans-Serif" font-size="10.00">denoptim.ga.EAUtils.setup</text>
<text text-anchor="middle" x="959" y="-101.5" font-family="Helvetica,sans-Serif" font-size="10.00">Rings</text>
</a>
</g>
</g>
<!-- Node15&#45;&gt;Node24 -->
<g id="edge27" class="edge">
<title>Node15&#45;&gt;Node24</title>
<path fill="none" stroke="midnightblue" d="M1144.33,-229.83C1100.45,-201.18 1022.18,-150.09 983.28,-124.69"/>
<polygon fill="midnightblue" stroke="midnightblue" points="1142.6,-232.88 1152.88,-235.41 1146.42,-227.01 1142.6,-232.88"/>
</g>
<!-- Node18 -->
<g id="node18" class="node">
<title>Node18</title>
<g id="a_node18"><a xlink:href="classdenoptim_1_1gui_1_1_vertex_view_panel.html#a756c2375d70d66c5bbba03e8772bb24a" target="_top" xlink:title="Returns the currently loaded vertex.">
<polygon fill="white" stroke="black" points="656,-186.5 656,-216.5 820,-216.5 820,-186.5 656,-186.5"/>
<text text-anchor="start" x="664" y="-204.5" font-family="Helvetica,sans-Serif" font-size="10.00">denoptim.gui.VertexViewPanel.get</text>
<text text-anchor="middle" x="738" y="-193.5" font-family="Helvetica,sans-Serif" font-size="10.00">LoadedStructure</text>
</a>
</g>
</g>
<!-- Node17&#45;&gt;Node18 -->
<g id="edge18" class="edge">
<title>Node17&#45;&gt;Node18</title>
<path fill="none" stroke="midnightblue" d="M880.2,-201.5C860.78,-201.5 839.91,-201.5 820.32,-201.5"/>
<polygon fill="midnightblue" stroke="midnightblue" points="880.21,-205 890.21,-201.5 880.21,-198 880.21,-205"/>
</g>
<!-- Node19 -->
<g id="node19" class="node">
<title>Node19</title>
<g id="a_node19"><a xlink:href="classdenoptim_1_1gui_1_1_g_u_i_vertex_inspector.html#a7e833ba52549966556cc1bd1852dcfa4" target="_top" xlink:title=" ">
<polygon fill="white" stroke="black" points="431,-235.5 431,-265.5 620,-265.5 620,-235.5 431,-235.5"/>
<text text-anchor="start" x="439" y="-253.5" font-family="Helvetica,sans-Serif" font-size="10.00">denoptim.gui.GUIVertexInspector.import</text>
<text text-anchor="middle" x="525.5" y="-242.5" font-family="Helvetica,sans-Serif" font-size="10.00">StructureFromFile</text>
</a>
</g>
</g>
<!-- Node18&#45;&gt;Node19 -->
<g id="edge19" class="edge">
<title>Node18&#45;&gt;Node19</title>
<path fill="none" stroke="midnightblue" d="M662.55,-218.83C639.18,-224.27 613.58,-230.23 590.97,-235.49"/>
<polygon fill="midnightblue" stroke="midnightblue" points="663.47,-222.21 672.41,-216.53 661.88,-215.39 663.47,-222.21"/>
</g>
<!-- Node20 -->
<g id="node20" class="node">
<title>Node20</title>
<g id="a_node20"><a xlink:href="classdenoptim_1_1gui_1_1_g_u_i_vertex_inspector.html#acadecc92299a7ea46113c06382a1f333" target="_top" xlink:title="Initialize the panel and add buttons.">
<polygon fill="white" stroke="black" points="198,-175 198,-194 395,-194 395,-175 198,-175"/>
<text text-anchor="middle" x="296.5" y="-182" font-family="Helvetica,sans-Serif" font-size="10.00">denoptim.gui.GUIVertexInspector.initialize</text>
</a>
</g>
</g>
<!-- Node18&#45;&gt;Node20 -->
<g id="edge24" class="edge">
<title>Node18&#45;&gt;Node20</title>
<path fill="none" stroke="midnightblue" d="M645.74,-197.97C572.5,-195.14 469.9,-191.17 395.04,-188.27"/>
<polygon fill="midnightblue" stroke="midnightblue" points="645.75,-201.47 655.88,-198.36 646.02,-194.48 645.75,-201.47"/>
</g>
<!-- Node22 -->
<g id="node22" class="node">
<title>Node22</title>
<g id="a_node22"><a xlink:href="classdenoptim_1_1gui_1_1_g_u_i_vertex_inspector.html#a530b2f509d3e15fd285526a34461cc9e" target="_top" xlink:title="Imports the given SMILES into the viewer.">
<polygon fill="white" stroke="black" points="431,-147.5 431,-177.5 620,-177.5 620,-147.5 431,-147.5"/>
<text text-anchor="start" x="439" y="-165.5" font-family="Helvetica,sans-Serif" font-size="10.00">denoptim.gui.GUIVertexInspector.import</text>
<text text-anchor="middle" x="525.5" y="-154.5" font-family="Helvetica,sans-Serif" font-size="10.00">StructureFromSMILES</text>
</a>
</g>
</g>
<!-- Node18&#45;&gt;Node22 -->
<g id="edge22" class="edge">
<title>Node18&#45;&gt;Node22</title>
<path fill="none" stroke="midnightblue" d="M645.79,-184.6C633.06,-182.24 620.06,-179.83 607.54,-177.51"/>
<polygon fill="midnightblue" stroke="midnightblue" points="645.45,-188.1 655.92,-186.48 646.72,-181.21 645.45,-188.1"/>
</g>
<!-- Node23 -->
<g id="node23" class="node">
<title>Node23</title>
<g id="a_node23"><a xlink:href="classdenoptim_1_1gui_1_1_g_u_i_vertex_inspector.html#a09363e21a5254efe8f128a99e82acbf0" target="_top" xlink:title=" ">
<polygon fill="white" stroke="black" points="434,-98.5 434,-128.5 617,-128.5 617,-98.5 434,-98.5"/>
<text text-anchor="start" x="442" y="-116.5" font-family="Helvetica,sans-Serif" font-size="10.00">denoptim.gui.GUIVertexInspector.save</text>
<text text-anchor="middle" x="525.5" y="-105.5" font-family="Helvetica,sans-Serif" font-size="10.00">UnsavedChanges</text>
</a>
</g>
</g>
<!-- Node18&#45;&gt;Node23 -->
<g id="edge25" class="edge">
<title>Node18&#45;&gt;Node23</title>
<path fill="none" stroke="midnightblue" d="M698.98,-181.51C685.39,-174.31 669.98,-166.09 656,-158.5 639.92,-149.76 636.97,-145.36 620,-138.5 610.81,-134.78 600.89,-131.45 591.06,-128.53"/>
<polygon fill="midnightblue" stroke="midnightblue" points="697.59,-184.73 708.06,-186.31 700.86,-178.54 697.59,-184.73"/>
</g>
<!-- Node19&#45;&gt;Node20 -->
<g id="edge20" class="edge">
<title>Node19&#45;&gt;Node20</title>
<path fill="none" stroke="midnightblue" d="M462.97,-232.61C420.27,-220.2 365.06,-204.14 330.46,-194.08"/>
<polygon fill="midnightblue" stroke="midnightblue" points="462.13,-236.01 472.71,-235.44 464.08,-229.29 462.13,-236.01"/>
</g>
<!-- Node21 -->
<g id="node21" class="node">
<title>Node21</title>
<g id="a_node21"><a xlink:href="classdenoptim_1_1gui_1_1_g_u_i_vertex_inspector.html#abc5d3c33ad9b2b114ce43e9b2cd577bb" target="_top" xlink:title="Constructor.">
<polygon fill="white" stroke="black" points="0,-169.5 0,-199.5 162,-199.5 162,-169.5 0,-169.5"/>
<text text-anchor="start" x="8" y="-187.5" font-family="Helvetica,sans-Serif" font-size="10.00">denoptim.gui.GUIVertexInspector.</text>
<text text-anchor="middle" x="81" y="-176.5" font-family="Helvetica,sans-Serif" font-size="10.00">GUIVertexInspector</text>
</a>
</g>
</g>
<!-- Node20&#45;&gt;Node21 -->
<g id="edge21" class="edge">
<title>Node20&#45;&gt;Node21</title>
<path fill="none" stroke="midnightblue" d="M187.69,-184.5C179.06,-184.5 170.44,-184.5 162.05,-184.5"/>
<polygon fill="midnightblue" stroke="midnightblue" points="187.81,-188 197.81,-184.5 187.81,-181 187.81,-188"/>
</g>
<!-- Node22&#45;&gt;Node20 -->
<g id="edge23" class="edge">
<title>Node22&#45;&gt;Node20</title>
<path fill="none" stroke="midnightblue" d="M420.63,-172.57C412.21,-173.38 403.71,-174.21 395.33,-175.02"/>
<polygon fill="midnightblue" stroke="midnightblue" points="421.24,-176.02 430.86,-171.58 420.57,-169.06 421.24,-176.02"/>
</g>
<!-- Node23&#45;&gt;Node20 -->
<g id="edge26" class="edge">
<title>Node23&#45;&gt;Node20</title>
<path fill="none" stroke="midnightblue" d="M455.71,-131.3C447.36,-133.63 438.97,-136.06 431,-138.5 393.25,-150.03 350.18,-165.25 323.41,-174.96"/>
<polygon fill="midnightblue" stroke="midnightblue" points="456.76,-134.64 465.46,-128.61 454.89,-127.89 456.76,-134.64"/>
</g>
<!-- Node25 -->
<g id="node25" class="node">
<title>Node25</title>
<g id="a_node25"><a xlink:href="classdenoptim_1_1ga_1_1_e_a_utils.html#a5cb6bbe9f383bf821f3b1f1c5e60031b" target="_top" xlink:title=" ">
<polygon fill="white" stroke="black" points="674.5,-118.5 674.5,-148.5 801.5,-148.5 801.5,-118.5 674.5,-118.5"/>
<text text-anchor="start" x="682.5" y="-136.5" font-family="Helvetica,sans-Serif" font-size="10.00">denoptim.ga.EAUtils.build</text>
<text text-anchor="middle" x="738" y="-125.5" font-family="Helvetica,sans-Serif" font-size="10.00">CandidateByMutation</text>
</a>
</g>
</g>
<!-- Node24&#45;&gt;Node25 -->
<g id="edge28" class="edge">
<title>Node24&#45;&gt;Node25</title>
<path fill="none" stroke="midnightblue" d="M883.43,-117.67C856.8,-120.59 827.08,-123.85 801.56,-126.64"/>
<polygon fill="midnightblue" stroke="midnightblue" points="883.92,-121.14 893.48,-116.57 883.16,-114.18 883.92,-121.14"/>
</g>
<!-- Node30 -->
<g id="node30" class="node">
<title>Node30</title>
<g id="a_node30"><a xlink:href="classdenoptim_1_1ga_1_1_e_a_utils.html#a98553265dd4b441b11c6d97d098edb08" target="_top" xlink:title="Generates a new offspring by performing a crossover operation.">
<polygon fill="white" stroke="black" points="674.5,-69.5 674.5,-99.5 801.5,-99.5 801.5,-69.5 674.5,-69.5"/>
<text text-anchor="start" x="682.5" y="-87.5" font-family="Helvetica,sans-Serif" font-size="10.00">denoptim.ga.EAUtils.build</text>
<text text-anchor="middle" x="738" y="-76.5" font-family="Helvetica,sans-Serif" font-size="10.00">CandidateByXOver</text>
</a>
</g>
</g>
<!-- Node24&#45;&gt;Node30 -->
<g id="edge33" class="edge">
<title>Node24&#45;&gt;Node30</title>
<path fill="none" stroke="midnightblue" d="M883.43,-100.99C856.8,-97.95 827.08,-94.55 801.56,-91.64"/>
<polygon fill="midnightblue" stroke="midnightblue" points="883.14,-104.48 893.48,-102.13 883.94,-97.52 883.14,-104.48"/>
</g>
<!-- Node31 -->
<g id="node31" class="node">
<title>Node31</title>
<g id="a_node31"><a xlink:href="classdenoptim_1_1ga_1_1_e_a_utils.html#ad3d2daeb11e68a356e971ca1846596b5" target="_top" xlink:title=" ">
<polygon fill="white" stroke="black" points="674.5,-20.5 674.5,-50.5 801.5,-50.5 801.5,-20.5 674.5,-20.5"/>
<text text-anchor="start" x="682.5" y="-38.5" font-family="Helvetica,sans-Serif" font-size="10.00">denoptim.ga.EAUtils.build</text>
<text text-anchor="middle" x="738" y="-27.5" font-family="Helvetica,sans-Serif" font-size="10.00">CandidateFromScratch</text>
</a>
</g>
</g>
<!-- Node24&#45;&gt;Node31 -->
<g id="edge34" class="edge">
<title>Node24&#45;&gt;Node31</title>
<path fill="none" stroke="midnightblue" d="M907.44,-90.98C881.41,-81.58 849.1,-70.15 820,-60.5 809.94,-57.16 799.14,-53.73 788.8,-50.51"/>
<polygon fill="midnightblue" stroke="midnightblue" points="906.5,-94.36 917.09,-94.47 908.88,-87.78 906.5,-94.36"/>
</g>
<!-- Node26 -->
<g id="node26" class="node">
<title>Node26</title>
<g id="a_node26"><a xlink:href="classdenoptim_1_1ga_1_1_evolutionary_algorithm.html#a596b2f5f0b097c5b67a6e5163bd6fe66" target="_top" xlink:title="Generates a given number of new candidate items and adds them to the current population.">
<polygon fill="white" stroke="black" points="458.5,-49.5 458.5,-79.5 592.5,-79.5 592.5,-49.5 458.5,-49.5"/>
<text text-anchor="start" x="466.5" y="-67.5" font-family="Helvetica,sans-Serif" font-size="10.00">denoptim.ga.Evolutionary</text>
<text text-anchor="middle" x="525.5" y="-56.5" font-family="Helvetica,sans-Serif" font-size="10.00">Algorithm.evolvePopulation</text>
</a>
</g>
</g>
<!-- Node25&#45;&gt;Node26 -->
<g id="edge29" class="edge">
<title>Node25&#45;&gt;Node26</title>
<path fill="none" stroke="midnightblue" d="M670.6,-115.13C665.61,-113.35 660.7,-111.47 656,-109.5 639.12,-102.41 636.97,-96.36 620,-89.5 610.81,-85.78 600.89,-82.45 591.06,-79.53"/>
<polygon fill="midnightblue" stroke="midnightblue" points="669.64,-118.5 680.23,-118.41 671.89,-111.87 669.64,-118.5"/>
</g>
<!-- Node27 -->
<g id="node27" class="node">
<title>Node27</title>
<g id="a_node27"><a xlink:href="classdenoptim_1_1ga_1_1_evolutionary_algorithm.html#a6bfc2fa59b199da6259b5b6bad3d6de7" target="_top" xlink:title=" ">
<polygon fill="white" stroke="black" points="234.5,-25.5 234.5,-55.5 358.5,-55.5 358.5,-25.5 234.5,-25.5"/>
<text text-anchor="start" x="242.5" y="-43.5" font-family="Helvetica,sans-Serif" font-size="10.00">denoptim.ga.Evolutionary</text>
<text text-anchor="middle" x="296.5" y="-32.5" font-family="Helvetica,sans-Serif" font-size="10.00">Algorithm.run</text>
</a>
</g>
</g>
<!-- Node26&#45;&gt;Node27 -->
<g id="edge30" class="edge">
<title>Node26&#45;&gt;Node27</title>
<path fill="none" stroke="midnightblue" d="M448.11,-56.42C419.03,-53.35 386.3,-49.89 358.8,-46.98"/>
<polygon fill="midnightblue" stroke="midnightblue" points="447.92,-59.92 458.23,-57.49 448.66,-52.96 447.92,-59.92"/>
</g>
<!-- Node28 -->
<g id="node28" class="node">
<title>Node28</title>
<g id="a_node28"><a xlink:href="classdenoptim_1_1ga_1_1_evolutionary_algorithm.html#a0f2063b722b7291daf83d62acaa683d3" target="_top" xlink:title=" ">
<polygon fill="white" stroke="black" points="4,-50.5 4,-80.5 158,-80.5 158,-50.5 4,-50.5"/>
<text text-anchor="start" x="12" y="-68.5" font-family="Helvetica,sans-Serif" font-size="10.00">denoptim.ga.Evolutionary</text>
<text text-anchor="middle" x="81" y="-57.5" font-family="Helvetica,sans-Serif" font-size="10.00">Algorithm.EvolutionaryAlgorithm</text>
</a>
</g>
</g>
<!-- Node27&#45;&gt;Node28 -->
<g id="edge31" class="edge">
<title>Node27&#45;&gt;Node28</title>
<path fill="none" stroke="midnightblue" d="M224.37,-48.83C203.07,-51.32 179.62,-54.07 158.01,-56.6"/>
<polygon fill="midnightblue" stroke="midnightblue" points="224.79,-52.3 234.32,-47.66 223.98,-45.35 224.79,-52.3"/>
</g>
<!-- Node29 -->
<g id="node29" class="node">
<title>Node29</title>
<g id="a_node29"><a xlink:href="classdenoptim_1_1programs_1_1denovo_1_1_g_a_runner.html#a7cafd6d78727b89dce3e2c8d06f0dd7c" target="_top" xlink:title=" ">
<polygon fill="white" stroke="black" points="13.5,-1.5 13.5,-31.5 148.5,-31.5 148.5,-1.5 13.5,-1.5"/>
<text text-anchor="start" x="21.5" y="-19.5" font-family="Helvetica,sans-Serif" font-size="10.00">denoptim.programs.denovo.</text>
<text text-anchor="middle" x="81" y="-8.5" font-family="Helvetica,sans-Serif" font-size="10.00">GARunner.runProgram</text>
</a>
</g>
</g>
<!-- Node27&#45;&gt;Node29 -->
<g id="edge32" class="edge">
<title>Node27&#45;&gt;Node29</title>
<path fill="none" stroke="midnightblue" d="M224.09,-32.47C199.79,-29.74 172.73,-26.7 148.8,-24.01"/>
<polygon fill="midnightblue" stroke="midnightblue" points="223.99,-35.98 234.32,-33.62 224.77,-29.03 223.99,-35.98"/>
</g>
<!-- Node31&#45;&gt;Node26 -->
<g id="edge35" class="edge">
<title>Node31&#45;&gt;Node26</title>
<path fill="none" stroke="midnightblue" d="M664.24,-45.52C640.94,-48.73 615.29,-52.27 592.5,-55.41"/>
<polygon fill="midnightblue" stroke="midnightblue" points="664.98,-48.95 674.41,-44.12 664.03,-42.02 664.98,-48.95"/>
</g>
<!-- Node32 -->
<g id="node32" class="node">
<title>Node32</title>
<g id="a_node32"><a xlink:href="classdenoptim_1_1ga_1_1_evolutionary_algorithm.html#ad43588620dab3340e0d8b0042ec73618" target="_top" xlink:title="Fills up the population with candidates build from scratch.">
<polygon fill="white" stroke="black" points="455.5,-0.5 455.5,-30.5 595.5,-30.5 595.5,-0.5 455.5,-0.5"/>
<text text-anchor="start" x="463.5" y="-18.5" font-family="Helvetica,sans-Serif" font-size="10.00">denoptim.ga.Evolutionary</text>
<text text-anchor="middle" x="525.5" y="-7.5" font-family="Helvetica,sans-Serif" font-size="10.00">Algorithm.initializePopulation</text>
</a>
</g>
</g>
<!-- Node31&#45;&gt;Node32 -->
<g id="edge36" class="edge">
<title>Node31&#45;&gt;Node32</title>
<path fill="none" stroke="midnightblue" d="M664.38,-28.6C642.17,-26.49 617.82,-24.18 595.84,-22.09"/>
<polygon fill="midnightblue" stroke="midnightblue" points="664.13,-32.09 674.41,-29.55 664.79,-25.12 664.13,-32.09"/>
</g>
<!-- Node32&#45;&gt;Node27 -->
<g id="edge37" class="edge">
<title>Node32&#45;&gt;Node27</title>
<path fill="none" stroke="midnightblue" d="M445.53,-24.2C417,-27.34 385.26,-30.84 358.51,-33.78"/>
<polygon fill="midnightblue" stroke="midnightblue" points="445.91,-27.68 455.47,-23.1 445.14,-20.72 445.91,-27.68"/>
</g>
</g>
</svg>
