<?xml version="1.0" encoding="UTF-8" standalone="no"?>
<!DOCTYPE svg PUBLIC "-//W3C//DTD SVG 1.1//EN"
 "http://www.w3.org/Graphics/SVG/1.1/DTD/svg11.dtd">
<!-- Generated by graphviz version 3.0.0 (20220413.0242)
 -->
<!-- Title: denoptim.graph.DGraph.isIsomorphicTo Pages: 1 -->
<svg width="1040pt" height="686pt"
 viewBox="0.00 0.00 1040.00 686.00" xmlns="http://www.w3.org/2000/svg" xmlns:xlink="http://www.w3.org/1999/xlink">
<g id="graph0" class="graph" transform="scale(1 1) rotate(0) translate(4 682)">
<title>denoptim.graph.DGraph.isIsomorphicTo</title>
<polygon fill="white" stroke="transparent" points="-4,4 -4,-682 1036,-682 1036,4 -4,4"/>
<!-- Node1 -->
<g id="node1" class="node">
<title>Node1</title>
<g id="a_node1"><a xlink:title="Checks if this graph is &quot;DENOPTIM&#45;isomorphic&quot; to the other one given.">
<polygon fill="#bfbfbf" stroke="black" points="0,-281.5 0,-311.5 128,-311.5 128,-281.5 0,-281.5"/>
<text text-anchor="start" x="8" y="-299.5" font-family="Helvetica,sans-Serif" font-size="10.00">denoptim.graph.DGraph.is</text>
<text text-anchor="middle" x="64" y="-288.5" font-family="Helvetica,sans-Serif" font-size="10.00">IsomorphicTo</text>
</a>
</g>
</g>
<!-- Node2 -->
<g id="node2" class="node">
<title>Node2</title>
<g id="a_node2"><a xlink:href="classdenoptim_1_1graph_1_1_symmetric_set.html#aca0357f0402f8d0d5191ed6b60826baf" target="_top" xlink:title="Adds an identifiers to this list.">
<polygon fill="white" stroke="black" points="175.5,-590.5 175.5,-620.5 306.5,-620.5 306.5,-590.5 175.5,-590.5"/>
<text text-anchor="start" x="183.5" y="-608.5" font-family="Helvetica,sans-Serif" font-size="10.00">denoptim.graph.Symmetric</text>
<text text-anchor="middle" x="241" y="-597.5" font-family="Helvetica,sans-Serif" font-size="10.00">Set.add</text>
</a>
</g>
</g>
<!-- Node1&#45;&gt;Node2 -->
<g id="edge1" class="edge">
<title>Node1&#45;&gt;Node2</title>
<path fill="none" stroke="midnightblue" d="M65.69,-311.67C68.66,-358.76 84.18,-503.92 164,-581.5 165.12,-582.58 166.28,-583.62 167.49,-584.61"/>
<polygon fill="midnightblue" stroke="midnightblue" points="165.78,-587.68 176,-590.48 169.76,-581.92 165.78,-587.68"/>
</g>
<!-- Node3 -->
<g id="node3" class="node">
<title>Node3</title>
<g id="a_node3"><a xlink:href="classdenoptim_1_1graph_1_1simplified_1_1_undirected_edge.html#ac7a25cc7fa015aee01be6566b4ba19f5" target="_top" xlink:title=" ">
<polygon fill="white" stroke="black" points="177,-541.5 177,-571.5 305,-571.5 305,-541.5 177,-541.5"/>
<text text-anchor="start" x="185" y="-559.5" font-family="Helvetica,sans-Serif" font-size="10.00">denoptim.graph.simplified.</text>
<text text-anchor="middle" x="241" y="-548.5" font-family="Helvetica,sans-Serif" font-size="10.00">UndirectedEdge.compare</text>
</a>
</g>
</g>
<!-- Node1&#45;&gt;Node3 -->
<g id="edge2" class="edge">
<title>Node1&#45;&gt;Node3</title>
<path fill="none" stroke="midnightblue" d="M67.39,-311.67C74.54,-352.14 99.41,-463.85 164,-526.5 167.95,-530.33 172.44,-533.68 177.22,-536.62"/>
<polygon fill="midnightblue" stroke="midnightblue" points="175.64,-539.75 186.09,-541.48 179,-533.61 175.64,-539.75"/>
</g>
<!-- Node5 -->
<g id="node5" class="node">
<title>Node5</title>
<g id="a_node5"><a xlink:href="classdenoptim_1_1graph_1_1_vertex.html#a200f775296c4c9804e3a2b59e065be8a" target="_top" xlink:title="Returns the index of the building block that should correspond to the position of the building block ...">
<polygon fill="white" stroke="black" points="550.5,-549.5 550.5,-579.5 678.5,-579.5 678.5,-549.5 550.5,-549.5"/>
<text text-anchor="start" x="558.5" y="-567.5" font-family="Helvetica,sans-Serif" font-size="10.00">denoptim.graph.Vertex.get</text>
<text text-anchor="middle" x="614.5" y="-556.5" font-family="Helvetica,sans-Serif" font-size="10.00">BuildingBlockId</text>
</a>
</g>
</g>
<!-- Node1&#45;&gt;Node5 -->
<g id="edge11" class="edge">
<title>Node1&#45;&gt;Node5</title>
<path fill="none" stroke="midnightblue" d="M74.82,-311.86C90.88,-335.94 124.94,-382.8 164,-411.5 238.11,-465.96 267.21,-463.07 354,-493.5 415.91,-515.21 487.99,-534.47 540.46,-547.43"/>
<polygon fill="midnightblue" stroke="midnightblue" points="539.8,-550.87 550.35,-549.86 541.47,-544.07 539.8,-550.87"/>
</g>
<!-- Node12 -->
<g id="node12" class="node">
<title>Node12</title>
<g id="a_node12"><a xlink:href="classdenoptim_1_1graph_1_1_vertex.html#a6615f1c869173b8bd6d730c6683b9de4" target="_top" xlink:title="Returns the graph this vertex belongs to or null.">
<polygon fill="white" stroke="black" points="177,-232.5 177,-262.5 305,-262.5 305,-232.5 177,-232.5"/>
<text text-anchor="start" x="185" y="-250.5" font-family="Helvetica,sans-Serif" font-size="10.00">denoptim.graph.Vertex.get</text>
<text text-anchor="middle" x="241" y="-239.5" font-family="Helvetica,sans-Serif" font-size="10.00">GraphOwner</text>
</a>
</g>
</g>
<!-- Node1&#45;&gt;Node12 -->
<g id="edge12" class="edge">
<title>Node1&#45;&gt;Node12</title>
<path fill="none" stroke="midnightblue" d="M118.93,-281.4C137.15,-276.3 157.65,-270.56 176.54,-265.27"/>
<polygon fill="midnightblue" stroke="midnightblue" points="177.56,-268.62 186.24,-262.55 175.67,-261.88 177.56,-268.62"/>
</g>
<!-- Node13 -->
<g id="node13" class="node">
<title>Node13</title>
<g id="a_node13"><a xlink:href="classdenoptim_1_1utils_1_1_graph_conversion_tool.html#a19272670304e3754d153585abd49b030" target="_top" xlink:title="Converts a DGraph into a simplified JGraphT DefaultUndirectedGraph.">
<polygon fill="white" stroke="black" points="164,-281.5 164,-311.5 318,-311.5 318,-281.5 164,-281.5"/>
<text text-anchor="start" x="172" y="-299.5" font-family="Helvetica,sans-Serif" font-size="10.00">denoptim.utils.GraphConversion</text>
<text text-anchor="middle" x="241" y="-288.5" font-family="Helvetica,sans-Serif" font-size="10.00">Tool.getJGraphFromGraph</text>
</a>
</g>
</g>
<!-- Node1&#45;&gt;Node13 -->
<g id="edge13" class="edge">
<title>Node1&#45;&gt;Node13</title>
<path fill="none" stroke="midnightblue" d="M128.18,-296.5C136.48,-296.5 145.1,-296.5 153.71,-296.5"/>
<polygon fill="midnightblue" stroke="midnightblue" points="153.78,-300 163.78,-296.5 153.78,-293 153.78,-300"/>
</g>
<!-- Node24 -->
<g id="node24" class="node">
<title>Node24</title>
<g id="a_node24"><a xlink:href="classdenoptim_1_1graph_1_1_symmetric_set.html#a6b6cfeafce2492c331902274f7508f21" target="_top" xlink:title="Return the list of symmetric identifiers.">
<polygon fill="white" stroke="black" points="175.5,-183.5 175.5,-213.5 306.5,-213.5 306.5,-183.5 175.5,-183.5"/>
<text text-anchor="start" x="183.5" y="-201.5" font-family="Helvetica,sans-Serif" font-size="10.00">denoptim.graph.Symmetric</text>
<text text-anchor="middle" x="241" y="-190.5" font-family="Helvetica,sans-Serif" font-size="10.00">Set.getList</text>
</a>
</g>
</g>
<!-- Node1&#45;&gt;Node24 -->
<g id="edge29" class="edge">
<title>Node1&#45;&gt;Node24</title>
<path fill="none" stroke="midnightblue" d="M82.11,-281.22C101,-265.01 132.88,-239.57 164,-223.5 168.25,-221.31 172.73,-219.25 177.31,-217.33"/>
<polygon fill="midnightblue" stroke="midnightblue" points="178.76,-220.52 186.78,-213.6 176.2,-214.01 178.76,-220.52"/>
</g>
<!-- Node25 -->
<g id="node25" class="node">
<title>Node25</title>
<g id="a_node25"><a xlink:href="classdenoptim_1_1graph_1_1_d_graph.html#a3f1f79ec1e07429a841f572dbf2e2f10" target="_top" xlink:title=" ">
<polygon fill="white" stroke="black" points="174,-23.5 174,-53.5 308,-53.5 308,-23.5 174,-23.5"/>
<text text-anchor="start" x="182" y="-41.5" font-family="Helvetica,sans-Serif" font-size="10.00">denoptim.graph.DGraph.get</text>
<text text-anchor="middle" x="241" y="-30.5" font-family="Helvetica,sans-Serif" font-size="10.00">SymSetForVertex</text>
</a>
</g>
</g>
<!-- Node1&#45;&gt;Node25 -->
<g id="edge30" class="edge">
<title>Node1&#45;&gt;Node25</title>
<path fill="none" stroke="midnightblue" d="M70.49,-281.42C83.3,-247.49 117.66,-163.48 164,-104.5 177.21,-87.69 195.15,-71.87 210.28,-59.94"/>
<polygon fill="midnightblue" stroke="midnightblue" points="212.56,-62.6 218.35,-53.73 208.3,-57.05 212.56,-62.6"/>
</g>
<!-- Node27 -->
<g id="node27" class="node">
<title>Node27</title>
<g id="a_node27"><a xlink:href="classdenoptim_1_1graph_1_1_d_graph.html#af68c6f4772e3a77bbb4a63f98dc53d04" target="_top" xlink:title=" ">
<polygon fill="white" stroke="black" points="174,-113.5 174,-143.5 308,-143.5 308,-113.5 174,-113.5"/>
<text text-anchor="start" x="182" y="-131.5" font-family="Helvetica,sans-Serif" font-size="10.00">denoptim.graph.DGraph.get</text>
<text text-anchor="middle" x="241" y="-120.5" font-family="Helvetica,sans-Serif" font-size="10.00">VertexWithId</text>
</a>
</g>
</g>
<!-- Node1&#45;&gt;Node27 -->
<g id="edge32" class="edge">
<title>Node1&#45;&gt;Node27</title>
<path fill="none" stroke="midnightblue" d="M74.84,-281.2C91.19,-256.6 125.95,-207.65 164,-174.5 175.14,-164.8 188.57,-155.92 201.03,-148.6"/>
<polygon fill="midnightblue" stroke="midnightblue" points="202.93,-151.55 209.89,-143.56 199.47,-145.47 202.93,-151.55"/>
</g>
<!-- Node29 -->
<g id="node29" class="node">
<title>Node29</title>
<g id="a_node29"><a xlink:href="classdenoptim_1_1graph_1_1_vertex.html#a7c03cfb4a9b0602d7de6952b33818188" target="_top" xlink:title="Compares this and another vertex ignoring vertex IDs.">
<polygon fill="white" stroke="black" points="165.5,-383 165.5,-402 316.5,-402 316.5,-383 165.5,-383"/>
<text text-anchor="middle" x="241" y="-390" font-family="Helvetica,sans-Serif" font-size="10.00">denoptim.graph.Vertex.sameAs</text>
</a>
</g>
</g>
<!-- Node1&#45;&gt;Node29 -->
<g id="edge35" class="edge">
<title>Node1&#45;&gt;Node29</title>
<path fill="none" stroke="midnightblue" d="M92.73,-311.71C125.89,-329.9 180.98,-360.12 213.56,-377.99"/>
<polygon fill="midnightblue" stroke="midnightblue" points="212.05,-381.16 222.5,-382.9 215.42,-375.02 212.05,-381.16"/>
</g>
<!-- Node4 -->
<g id="node4" class="node">
<title>Node4</title>
<g id="a_node4"><a xlink:href="classdenoptim_1_1graph_1_1simplified_1_1_undirected_edge.html#ace4a4459d14c2a0e2ee869b8e0be054e" target="_top" xlink:title=" ">
<polygon fill="white" stroke="black" points="354,-547.5 354,-577.5 503,-577.5 503,-547.5 354,-547.5"/>
<text text-anchor="start" x="362" y="-565.5" font-family="Helvetica,sans-Serif" font-size="10.00">denoptim.graph.simplified.</text>
<text text-anchor="middle" x="428.5" y="-554.5" font-family="Helvetica,sans-Serif" font-size="10.00">UndirectedEdge.makeInvariant</text>
</a>
</g>
</g>
<!-- Node3&#45;&gt;Node4 -->
<g id="edge3" class="edge">
<title>Node3&#45;&gt;Node4</title>
<path fill="none" stroke="midnightblue" d="M305.06,-558.54C317.41,-558.94 330.54,-559.36 343.45,-559.78"/>
<polygon fill="midnightblue" stroke="midnightblue" points="343.63,-563.29 353.73,-560.11 343.85,-556.29 343.63,-563.29"/>
</g>
<!-- Node4&#45;&gt;Node5 -->
<g id="edge4" class="edge">
<title>Node4&#45;&gt;Node5</title>
<path fill="none" stroke="midnightblue" d="M503.01,-563.3C515.29,-563.43 528.03,-563.57 540.3,-563.7"/>
<polygon fill="midnightblue" stroke="midnightblue" points="540.44,-567.21 550.48,-563.81 540.51,-560.21 540.44,-567.21"/>
</g>
<!-- Node6 -->
<g id="node6" class="node">
<title>Node6</title>
<g id="a_node6"><a xlink:href="classdenoptim_1_1graph_1_1_vertex.html#a46dadb5fd30f1877db91e97ae55c2dd8" target="_top" xlink:title=" ">
<polygon fill="white" stroke="black" points="550.5,-500.5 550.5,-530.5 678.5,-530.5 678.5,-500.5 550.5,-500.5"/>
<text text-anchor="start" x="558.5" y="-518.5" font-family="Helvetica,sans-Serif" font-size="10.00">denoptim.graph.Vertex.get</text>
<text text-anchor="middle" x="614.5" y="-507.5" font-family="Helvetica,sans-Serif" font-size="10.00">BuildingBlockType</text>
</a>
</g>
</g>
<!-- Node4&#45;&gt;Node6 -->
<g id="edge5" class="edge">
<title>Node4&#45;&gt;Node6</title>
<path fill="none" stroke="midnightblue" d="M488.22,-547.5C506.23,-542.9 526.21,-537.8 544.82,-533.04"/>
<polygon fill="midnightblue" stroke="midnightblue" points="545.88,-536.39 554.7,-530.52 544.15,-529.6 545.88,-536.39"/>
</g>
<!-- Node7 -->
<g id="node7" class="node">
<title>Node7</title>
<g id="a_node7"><a xlink:href="classdenoptim_1_1graph_1_1_attachment_point.html#acd666767475f39f0d7f17550d2b47651" target="_top" xlink:title=" ">
<polygon fill="white" stroke="black" points="547,-647.5 547,-677.5 682,-677.5 682,-647.5 547,-647.5"/>
<text text-anchor="start" x="555" y="-665.5" font-family="Helvetica,sans-Serif" font-size="10.00">denoptim.graph.Attachment</text>
<text text-anchor="middle" x="614.5" y="-654.5" font-family="Helvetica,sans-Serif" font-size="10.00">Point.getIndexInOwner</text>
</a>
</g>
</g>
<!-- Node4&#45;&gt;Node7 -->
<g id="edge6" class="edge">
<title>Node4&#45;&gt;Node7</title>
<path fill="none" stroke="midnightblue" d="M447.82,-577.76C468.75,-594.57 504.57,-621.47 539,-638.5 542.77,-640.36 546.71,-642.13 550.74,-643.79"/>
<polygon fill="midnightblue" stroke="midnightblue" points="549.64,-647.12 560.23,-647.47 552.17,-640.59 549.64,-647.12"/>
</g>
<!-- Node10 -->
<g id="node10" class="node">
<title>Node10</title>
<g id="a_node10"><a xlink:href="classdenoptim_1_1graph_1_1_attachment_point.html#ac8551521d38644f5109800b665957ee9" target="_top" xlink:title=" ">
<polygon fill="white" stroke="black" points="547,-269.5 547,-299.5 682,-299.5 682,-269.5 547,-269.5"/>
<text text-anchor="start" x="555" y="-287.5" font-family="Helvetica,sans-Serif" font-size="10.00">denoptim.graph.Attachment</text>
<text text-anchor="middle" x="614.5" y="-276.5" font-family="Helvetica,sans-Serif" font-size="10.00">Point.getOwner</text>
</a>
</g>
</g>
<!-- Node4&#45;&gt;Node10 -->
<g id="edge9" class="edge">
<title>Node4&#45;&gt;Node10</title>
<path fill="none" stroke="midnightblue" d="M452.05,-547.36C468.77,-534.9 490.72,-515.71 503,-493.5 543.32,-420.58 484.05,-372.14 539,-309.5 540.18,-308.16 541.42,-306.89 542.74,-305.69"/>
<polygon fill="midnightblue" stroke="midnightblue" points="545.01,-308.36 550.87,-299.53 540.79,-302.78 545.01,-308.36"/>
</g>
<!-- Node11 -->
<g id="node11" class="node">
<title>Node11</title>
<g id="a_node11"><a xlink:href="classdenoptim_1_1utils_1_1_general_utils.html#ab0c97460520e98fa670681d851754703" target="_top" xlink:title="returns the padded string with zeroes placed to the left of &#39;number&#39; up to reach the desired number o...">
<polygon fill="white" stroke="black" points="540,-598.5 540,-628.5 689,-628.5 689,-598.5 540,-598.5"/>
<text text-anchor="start" x="548" y="-616.5" font-family="Helvetica,sans-Serif" font-size="10.00">denoptim.utils.GeneralUtils.get</text>
<text text-anchor="middle" x="614.5" y="-605.5" font-family="Helvetica,sans-Serif" font-size="10.00">PaddedString</text>
</a>
</g>
</g>
<!-- Node4&#45;&gt;Node11 -->
<g id="edge10" class="edge">
<title>Node4&#45;&gt;Node11</title>
<path fill="none" stroke="midnightblue" d="M483.71,-577.53C504.39,-583.26 528.16,-589.85 549.66,-595.81"/>
<polygon fill="midnightblue" stroke="midnightblue" points="548.79,-599.2 559.36,-598.49 550.66,-592.45 548.79,-599.2"/>
</g>
<!-- Node8 -->
<g id="node8" class="node">
<title>Node8</title>
<g id="a_node8"><a xlink:href="classdenoptim_1_1graph_1_1_vertex.html#a367c9d31e4bb13c16e865389c154a767" target="_top" xlink:title="Returns the position of the given AP in the list of APs of this vertex.">
<polygon fill="white" stroke="black" points="733,-576.5 733,-606.5 861,-606.5 861,-576.5 733,-576.5"/>
<text text-anchor="start" x="741" y="-594.5" font-family="Helvetica,sans-Serif" font-size="10.00">denoptim.graph.Vertex.get</text>
<text text-anchor="middle" x="797" y="-583.5" font-family="Helvetica,sans-Serif" font-size="10.00">IndexOfAP</text>
</a>
</g>
</g>
<!-- Node7&#45;&gt;Node8 -->
<g id="edge7" class="edge">
<title>Node7&#45;&gt;Node8</title>
<path fill="none" stroke="midnightblue" d="M664.65,-647.48C673.16,-644.65 681.87,-641.6 690,-638.5 711.82,-630.17 735.63,-619.74 755.15,-610.82"/>
<polygon fill="midnightblue" stroke="midnightblue" points="756.74,-613.94 764.36,-606.58 753.81,-607.59 756.74,-613.94"/>
</g>
<!-- Node9 -->
<g id="node9" class="node">
<title>Node9</title>
<g id="a_node9"><a xlink:href="classdenoptim_1_1graph_1_1_vertex.html#a022f7c9075b178f17e13339b215ee21f" target="_top" xlink:title=" ">
<polygon fill="white" stroke="black" points="904,-390.5 904,-420.5 1032,-420.5 1032,-390.5 904,-390.5"/>
<text text-anchor="start" x="912" y="-408.5" font-family="Helvetica,sans-Serif" font-size="10.00">denoptim.graph.Vertex.get</text>
<text text-anchor="middle" x="968" y="-397.5" font-family="Helvetica,sans-Serif" font-size="10.00">AttachmentPoints</text>
</a>
</g>
</g>
<!-- Node8&#45;&gt;Node9 -->
<g id="edge8" class="edge">
<title>Node8&#45;&gt;Node9</title>
<path fill="none" stroke="midnightblue" d="M811.83,-576.28C841.49,-543.64 911.35,-466.75 946.31,-428.27"/>
<polygon fill="midnightblue" stroke="midnightblue" points="949.08,-430.43 953.22,-420.67 943.9,-425.72 949.08,-430.43"/>
</g>
<!-- Node14 -->
<g id="node14" class="node">
<title>Node14</title>
<g id="a_node14"><a xlink:href="classdenoptim_1_1graph_1_1_attachment_point.html#a774671253396558cf35ab75613762174" target="_top" xlink:title="Returns the bond type preferred by this attachment point as defined by the APClass,...">
<polygon fill="white" stroke="black" points="361,-71.5 361,-101.5 496,-101.5 496,-71.5 361,-71.5"/>
<text text-anchor="start" x="369" y="-89.5" font-family="Helvetica,sans-Serif" font-size="10.00">denoptim.graph.Attachment</text>
<text text-anchor="middle" x="428.5" y="-78.5" font-family="Helvetica,sans-Serif" font-size="10.00">Point.getBondType</text>
</a>
</g>
</g>
<!-- Node13&#45;&gt;Node14 -->
<g id="edge14" class="edge">
<title>Node13&#45;&gt;Node14</title>
<path fill="none" stroke="midnightblue" d="M307.13,-281.45C311.12,-278.92 314.81,-275.96 318,-272.5 366.29,-220.24 307.89,-170.69 354,-116.5 356.99,-112.98 360.47,-109.87 364.24,-107.12"/>
<polygon fill="midnightblue" stroke="midnightblue" points="366.31,-109.95 372.91,-101.65 362.58,-104.02 366.31,-109.95"/>
</g>
<!-- Node16 -->
<g id="node16" class="node">
<title>Node16</title>
<g id="a_node16"><a xlink:href="classdenoptim_1_1graph_1_1_d_graph.html#a874ffbf9eee39f72dba3905cf378b469" target="_top" xlink:title=" ">
<polygon fill="white" stroke="black" points="361.5,-404.5 361.5,-434.5 495.5,-434.5 495.5,-404.5 361.5,-404.5"/>
<text text-anchor="start" x="369.5" y="-422.5" font-family="Helvetica,sans-Serif" font-size="10.00">denoptim.graph.DGraph.get</text>
<text text-anchor="middle" x="428.5" y="-411.5" font-family="Helvetica,sans-Serif" font-size="10.00">EdgeList</text>
</a>
</g>
</g>
<!-- Node13&#45;&gt;Node16 -->
<g id="edge16" class="edge">
<title>Node13&#45;&gt;Node16</title>
<path fill="none" stroke="midnightblue" d="M255.36,-311.72C274.99,-333.22 313.68,-372.43 354,-395.5 357,-397.22 360.15,-398.83 363.37,-400.35"/>
<polygon fill="midnightblue" stroke="midnightblue" points="362.07,-403.6 372.63,-404.36 364.85,-397.18 362.07,-403.6"/>
</g>
<!-- Node17 -->
<g id="node17" class="node">
<title>Node17</title>
<g id="a_node17"><a xlink:href="classdenoptim_1_1graph_1_1_vertex.html#a2937a75fd3652481c84235742b94736b" target="_top" xlink:title="Looks into the edges that use any of the APs that belong to this vertex and returns the edge that has...">
<polygon fill="white" stroke="black" points="364.5,-208.5 364.5,-238.5 492.5,-238.5 492.5,-208.5 364.5,-208.5"/>
<text text-anchor="start" x="372.5" y="-226.5" font-family="Helvetica,sans-Serif" font-size="10.00">denoptim.graph.Vertex.get</text>
<text text-anchor="middle" x="428.5" y="-215.5" font-family="Helvetica,sans-Serif" font-size="10.00">EdgeToParent</text>
</a>
</g>
</g>
<!-- Node13&#45;&gt;Node17 -->
<g id="edge17" class="edge">
<title>Node13&#45;&gt;Node17</title>
<path fill="none" stroke="midnightblue" d="M296.29,-281.43C303.72,-278.77 311.14,-275.79 318,-272.5 335.34,-264.19 336.75,-257 354,-248.5 358.38,-246.34 362.99,-244.29 367.68,-242.37"/>
<polygon fill="midnightblue" stroke="midnightblue" points="369.32,-245.48 377.37,-238.59 366.78,-238.96 369.32,-245.48"/>
</g>
<!-- Node19 -->
<g id="node19" class="node">
<title>Node19</title>
<g id="a_node19"><a xlink:href="classdenoptim_1_1graph_1_1_vertex.html#a44e705b8949b0fd73763e2e92a118b78" target="_top" xlink:title="Looks into the edges that use any of the APs that belong to this vertex and returns the vertex which ...">
<polygon fill="white" stroke="black" points="364.5,-159.5 364.5,-189.5 492.5,-189.5 492.5,-159.5 364.5,-159.5"/>
<text text-anchor="start" x="372.5" y="-177.5" font-family="Helvetica,sans-Serif" font-size="10.00">denoptim.graph.Vertex.get</text>
<text text-anchor="middle" x="428.5" y="-166.5" font-family="Helvetica,sans-Serif" font-size="10.00">Parent</text>
</a>
</g>
</g>
<!-- Node13&#45;&gt;Node19 -->
<g id="edge20" class="edge">
<title>Node13&#45;&gt;Node19</title>
<path fill="none" stroke="midnightblue" d="M304.79,-281.38C309.53,-278.86 314.01,-275.92 318,-272.5 345.45,-248.94 326.81,-223.36 354,-199.5 355.77,-197.95 357.64,-196.49 359.59,-195.12"/>
<polygon fill="midnightblue" stroke="midnightblue" points="361.83,-197.86 368.57,-189.68 358.2,-191.87 361.83,-197.86"/>
</g>
<!-- Node20 -->
<g id="node20" class="node">
<title>Node20</title>
<g id="a_node20"><a xlink:href="classdenoptim_1_1graph_1_1_edge.html#a658e275a18a50f12474777f5f28c35e9" target="_top" xlink:title=" ">
<polygon fill="white" stroke="black" points="539,-117 539,-136 690,-136 690,-117 539,-117"/>
<text text-anchor="middle" x="614.5" y="-124" font-family="Helvetica,sans-Serif" font-size="10.00">denoptim.graph.Edge.getSrcAP</text>
</a>
</g>
</g>
<!-- Node13&#45;&gt;Node20 -->
<g id="edge26" class="edge">
<title>Node13&#45;&gt;Node20</title>
<path fill="none" stroke="midnightblue" d="M306.54,-281.45C310.72,-278.92 314.61,-275.96 318,-272.5 357.59,-232.15 310.33,-186.4 354,-150.5 379.96,-129.16 463.17,-124.5 528.45,-124.36"/>
<polygon fill="midnightblue" stroke="midnightblue" points="528.76,-127.86 538.76,-124.37 528.77,-120.86 528.76,-127.86"/>
</g>
<!-- Node21 -->
<g id="node21" class="node">
<title>Node21</title>
<g id="a_node21"><a xlink:href="classdenoptim_1_1graph_1_1_d_graph.html#abca37ac76270225e885ec800d170243b" target="_top" xlink:title=" ">
<polygon fill="white" stroke="black" points="361.5,-355.5 361.5,-385.5 495.5,-385.5 495.5,-355.5 361.5,-355.5"/>
<text text-anchor="start" x="369.5" y="-373.5" font-family="Helvetica,sans-Serif" font-size="10.00">denoptim.graph.DGraph.get</text>
<text text-anchor="middle" x="428.5" y="-362.5" font-family="Helvetica,sans-Serif" font-size="10.00">Rings</text>
</a>
</g>
</g>
<!-- Node13&#45;&gt;Node21 -->
<g id="edge25" class="edge">
<title>Node13&#45;&gt;Node21</title>
<path fill="none" stroke="midnightblue" d="M273.49,-311.62C295.73,-322.03 326.38,-335.86 354,-346.5 359.01,-348.43 364.25,-350.34 369.52,-352.2"/>
<polygon fill="midnightblue" stroke="midnightblue" points="368.42,-355.52 379.01,-355.46 370.7,-348.9 368.42,-355.52"/>
</g>
<!-- Node22 -->
<g id="node22" class="node">
<title>Node22</title>
<g id="a_node22"><a xlink:href="classdenoptim_1_1graph_1_1_d_graph.html#ac9bd2a29337782ffdc07a2a2fc70f135" target="_top" xlink:title=" ">
<polygon fill="white" stroke="black" points="361.5,-306.5 361.5,-336.5 495.5,-336.5 495.5,-306.5 361.5,-306.5"/>
<text text-anchor="start" x="369.5" y="-324.5" font-family="Helvetica,sans-Serif" font-size="10.00">denoptim.graph.DGraph.get</text>
<text text-anchor="middle" x="428.5" y="-313.5" font-family="Helvetica,sans-Serif" font-size="10.00">VertexList</text>
</a>
</g>
</g>
<!-- Node13&#45;&gt;Node22 -->
<g id="edge27" class="edge">
<title>Node13&#45;&gt;Node22</title>
<path fill="none" stroke="midnightblue" d="M318.25,-306.78C329.19,-308.25 340.45,-309.77 351.39,-311.24"/>
<polygon fill="midnightblue" stroke="midnightblue" points="350.95,-314.71 361.33,-312.58 351.88,-307.78 350.95,-314.71"/>
</g>
<!-- Node23 -->
<g id="node23" class="node">
<title>Node23</title>
<g id="a_node23"><a xlink:href="classdenoptim_1_1graph_1_1_d_graph.html#aca10b3acbf66e3652cb9664179ed368f" target="_top" xlink:title=" ">
<polygon fill="white" stroke="black" points="364.5,-257.5 364.5,-287.5 492.5,-287.5 492.5,-257.5 364.5,-257.5"/>
<text text-anchor="start" x="372.5" y="-275.5" font-family="Helvetica,sans-Serif" font-size="10.00">denoptim.graph.DGraph.is</text>
<text text-anchor="middle" x="428.5" y="-264.5" font-family="Helvetica,sans-Serif" font-size="10.00">VertexInRing</text>
</a>
</g>
</g>
<!-- Node13&#45;&gt;Node23 -->
<g id="edge28" class="edge">
<title>Node13&#45;&gt;Node23</title>
<path fill="none" stroke="midnightblue" d="M318.25,-286.63C330.08,-285.1 342.27,-283.53 354.03,-282"/>
<polygon fill="midnightblue" stroke="midnightblue" points="354.77,-285.44 364.24,-280.68 353.87,-278.5 354.77,-285.44"/>
</g>
<!-- Node15 -->
<g id="node15" class="node">
<title>Node15</title>
<g id="a_node15"><a xlink:href="classdenoptim_1_1graph_1_1_a_p_class.html#a7ecbfcc68b17ef630d0f46ccb6bb763b" target="_top" xlink:title=" ">
<polygon fill="white" stroke="black" points="545,-67.5 545,-97.5 684,-97.5 684,-67.5 545,-67.5"/>
<text text-anchor="start" x="553" y="-85.5" font-family="Helvetica,sans-Serif" font-size="10.00">denoptim.graph.APClass.get</text>
<text text-anchor="middle" x="614.5" y="-74.5" font-family="Helvetica,sans-Serif" font-size="10.00">BondType</text>
</a>
</g>
</g>
<!-- Node14&#45;&gt;Node15 -->
<g id="edge15" class="edge">
<title>Node14&#45;&gt;Node15</title>
<path fill="none" stroke="midnightblue" d="M496.19,-85.05C508.69,-84.78 521.86,-84.49 534.68,-84.21"/>
<polygon fill="midnightblue" stroke="midnightblue" points="534.95,-87.71 544.87,-83.99 534.8,-80.71 534.95,-87.71"/>
</g>
<!-- Node17&#45;&gt;Node9 -->
<g id="edge18" class="edge">
<title>Node17&#45;&gt;Node9</title>
<path fill="none" stroke="midnightblue" d="M492.69,-226.45C546.29,-230.37 624.67,-239.45 690,-260.5 785.09,-291.13 886.62,-352.66 936.19,-384.83"/>
<polygon fill="midnightblue" stroke="midnightblue" points="934.54,-387.94 944.82,-390.48 938.37,-382.08 934.54,-387.94"/>
</g>
<!-- Node18 -->
<g id="node18" class="node">
<title>Node18</title>
<g id="a_node18"><a xlink:href="classdenoptim_1_1graph_1_1_edge.html#a44521a3ad1a83e5d0a6be227e35ceffa" target="_top" xlink:title=" ">
<polygon fill="white" stroke="black" points="539.5,-193 539.5,-212 689.5,-212 689.5,-193 539.5,-193"/>
<text text-anchor="middle" x="614.5" y="-200" font-family="Helvetica,sans-Serif" font-size="10.00">denoptim.graph.Edge.getTrgAP</text>
</a>
</g>
</g>
<!-- Node17&#45;&gt;Node18 -->
<g id="edge19" class="edge">
<title>Node17&#45;&gt;Node18</title>
<path fill="none" stroke="midnightblue" d="M492.56,-216.3C504.35,-214.96 516.84,-213.53 529.15,-212.13"/>
<polygon fill="midnightblue" stroke="midnightblue" points="529.88,-215.57 539.42,-210.95 529.09,-208.61 529.88,-215.57"/>
</g>
<!-- Node19&#45;&gt;Node9 -->
<g id="edge21" class="edge">
<title>Node19&#45;&gt;Node9</title>
<path fill="none" stroke="midnightblue" d="M492.63,-169.4C546.02,-166.8 624.14,-167.06 690,-183.5 775.43,-204.82 800.44,-214.02 868,-270.5 906.23,-302.46 937.66,-352.16 954.25,-381.51"/>
<polygon fill="midnightblue" stroke="midnightblue" points="951.19,-383.22 959.1,-390.27 957.32,-379.83 951.19,-383.22"/>
</g>
<!-- Node19&#45;&gt;Node10 -->
<g id="edge22" class="edge">
<title>Node19&#45;&gt;Node10</title>
<path fill="none" stroke="midnightblue" d="M481.02,-189.61C488.57,-192.51 496.11,-195.81 503,-199.5 535.54,-216.93 568.53,-243.76 589.88,-262.61"/>
<polygon fill="midnightblue" stroke="midnightblue" points="587.68,-265.34 597.47,-269.4 592.35,-260.12 587.68,-265.34"/>
</g>
<!-- Node19&#45;&gt;Node18 -->
<g id="edge24" class="edge">
<title>Node19&#45;&gt;Node18</title>
<path fill="none" stroke="midnightblue" d="M492.56,-184.1C508.01,-186.45 524.67,-188.98 540.54,-191.4"/>
<polygon fill="midnightblue" stroke="midnightblue" points="540.42,-194.92 550.83,-192.96 541.47,-188 540.42,-194.92"/>
</g>
<!-- Node19&#45;&gt;Node20 -->
<g id="edge23" class="edge">
<title>Node19&#45;&gt;Node20</title>
<path fill="none" stroke="midnightblue" d="M487.21,-159.44C512.97,-152.73 542.9,-144.92 567.16,-138.59"/>
<polygon fill="midnightblue" stroke="midnightblue" points="568.04,-141.98 576.84,-136.06 566.28,-135.2 568.04,-141.98"/>
</g>
<!-- Node26 -->
<g id="node26" class="node">
<title>Node26</title>
<g id="a_node26"><a xlink:href="classdenoptim_1_1graph_1_1_vertex.html#af44ae05546096ec9060d7207f38bc8e9" target="_top" xlink:title=" ">
<polygon fill="white" stroke="black" points="550.5,-0.5 550.5,-30.5 678.5,-30.5 678.5,-0.5 550.5,-0.5"/>
<text text-anchor="start" x="558.5" y="-18.5" font-family="Helvetica,sans-Serif" font-size="10.00">denoptim.graph.Vertex.get</text>
<text text-anchor="middle" x="614.5" y="-7.5" font-family="Helvetica,sans-Serif" font-size="10.00">VertexId</text>
</a>
</g>
</g>
<!-- Node25&#45;&gt;Node26 -->
<g id="edge31" class="edge">
<title>Node25&#45;&gt;Node26</title>
<path fill="none" stroke="midnightblue" d="M298,-23.47C315.77,-19.38 335.58,-15.53 354,-13.5 416.55,-6.6 488.11,-7.83 540.21,-10.37"/>
<polygon fill="midnightblue" stroke="midnightblue" points="540.2,-13.87 550.36,-10.89 540.56,-6.88 540.2,-13.87"/>
</g>
<!-- Node28 -->
<g id="node28" class="node">
<title>Node28</title>
<g id="a_node28"><a xlink:href="classdenoptim_1_1graph_1_1_d_graph.html#aff14a66b89e52205a4b6b6a633de0e7e" target="_top" xlink:title="Returns the position of the first vertex that has the given ID.">
<polygon fill="white" stroke="black" points="357,-22.5 357,-52.5 500,-52.5 500,-22.5 357,-22.5"/>
<text text-anchor="start" x="365" y="-40.5" font-family="Helvetica,sans-Serif" font-size="10.00">denoptim.graph.DGraph.index</text>
<text text-anchor="middle" x="428.5" y="-29.5" font-family="Helvetica,sans-Serif" font-size="10.00">OfVertexWithID</text>
</a>
</g>
</g>
<!-- Node27&#45;&gt;Node28 -->
<g id="edge33" class="edge">
<title>Node27&#45;&gt;Node28</title>
<path fill="none" stroke="midnightblue" d="M264.42,-113.43C286.52,-99.03 321.59,-77.37 354,-62.5 358.9,-60.25 364.06,-58.1 369.29,-56.06"/>
<polygon fill="midnightblue" stroke="midnightblue" points="370.58,-59.31 378.71,-52.52 368.12,-52.76 370.58,-59.31"/>
</g>
<!-- Node28&#45;&gt;Node26 -->
<g id="edge34" class="edge">
<title>Node28&#45;&gt;Node26</title>
<path fill="none" stroke="midnightblue" d="M500.11,-29.06C513.28,-27.48 527.06,-25.84 540.3,-24.25"/>
<polygon fill="midnightblue" stroke="midnightblue" points="540.78,-27.72 550.3,-23.06 539.95,-20.77 540.78,-27.72"/>
</g>
<!-- Node30 -->
<g id="node30" class="node">
<title>Node30</title>
<g id="a_node30"><a xlink:href="classdenoptim_1_1graph_1_1_vertex.html#a7a48a6fb07f119d17a6c8eb091ee73ea" target="_top" xlink:title="Compares this and another vertex ignoring vertex IDs.">
<polygon fill="white" stroke="black" points="359,-453.5 359,-483.5 498,-483.5 498,-453.5 359,-453.5"/>
<text text-anchor="start" x="367" y="-471.5" font-family="Helvetica,sans-Serif" font-size="10.00">denoptim.graph.Vertex.same</text>
<text text-anchor="middle" x="428.5" y="-460.5" font-family="Helvetica,sans-Serif" font-size="10.00">VertexFeatures</text>
</a>
</g>
</g>
<!-- Node29&#45;&gt;Node30 -->
<g id="edge36" class="edge">
<title>Node29&#45;&gt;Node30</title>
<path fill="none" stroke="midnightblue" d="M260.73,-402.03C282.73,-413.03 320.49,-431.3 354,-444.5 358.79,-446.39 363.8,-448.25 368.86,-450.05"/>
<polygon fill="midnightblue" stroke="midnightblue" points="367.99,-453.45 378.58,-453.43 370.28,-446.84 367.99,-453.45"/>
</g>
<!-- Node30&#45;&gt;Node5 -->
<g id="edge39" class="edge">
<title>Node30&#45;&gt;Node5</title>
<path fill="none" stroke="midnightblue" d="M475.97,-483.55C485.36,-487.65 494.84,-492.61 503,-498.5 522.94,-512.88 518.53,-526.88 539,-540.5 541.39,-542.09 543.89,-543.58 546.46,-544.97"/>
<polygon fill="midnightblue" stroke="midnightblue" points="544.95,-548.13 555.47,-549.37 548.02,-541.84 544.95,-548.13"/>
</g>
<!-- Node30&#45;&gt;Node6 -->
<g id="edge40" class="edge">
<title>Node30&#45;&gt;Node6</title>
<path fill="none" stroke="midnightblue" d="M488.22,-483.5C506.23,-488.1 526.21,-493.2 544.82,-497.96"/>
<polygon fill="midnightblue" stroke="midnightblue" points="544.15,-501.4 554.7,-500.48 545.88,-494.61 544.15,-501.4"/>
</g>
<!-- Node31 -->
<g id="node31" class="node">
<title>Node31</title>
<g id="a_node31"><a xlink:href="classdenoptim_1_1graph_1_1_vertex.html#aee39019987712f9784138e97917ac97f" target="_top" xlink:title="Get attachment point i on this vertex.">
<polygon fill="white" stroke="black" points="726,-465 726,-484 868,-484 868,-465 726,-465"/>
<text text-anchor="middle" x="797" y="-472" font-family="Helvetica,sans-Serif" font-size="10.00">denoptim.graph.Vertex.getAP</text>
</a>
</g>
</g>
<!-- Node30&#45;&gt;Node31 -->
<g id="edge37" class="edge">
<title>Node30&#45;&gt;Node31</title>
<path fill="none" stroke="midnightblue" d="M498.01,-469.62C559.76,-470.63 650.6,-472.12 715.74,-473.19"/>
<polygon fill="midnightblue" stroke="midnightblue" points="715.9,-476.69 725.96,-473.35 716.02,-469.69 715.9,-476.69"/>
</g>
<!-- Node32 -->
<g id="node32" class="node">
<title>Node32</title>
<g id="a_node32"><a xlink:href="classdenoptim_1_1graph_1_1_vertex.html#ac578a57700de26b2f0ba1fc7470129d0" target="_top" xlink:title=" ">
<polygon fill="white" stroke="black" points="733,-415.5 733,-445.5 861,-445.5 861,-415.5 733,-415.5"/>
<text text-anchor="start" x="741" y="-433.5" font-family="Helvetica,sans-Serif" font-size="10.00">denoptim.graph.Vertex.get</text>
<text text-anchor="middle" x="797" y="-422.5" font-family="Helvetica,sans-Serif" font-size="10.00">FreeAPCount</text>
</a>
</g>
</g>
<!-- Node30&#45;&gt;Node32 -->
<g id="edge41" class="edge">
<title>Node30&#45;&gt;Node32</title>
<path fill="none" stroke="midnightblue" d="M498.01,-461.4C561.92,-454.77 657,-444.91 722.48,-438.12"/>
<polygon fill="midnightblue" stroke="midnightblue" points="723.14,-441.57 732.73,-437.06 722.42,-434.61 723.14,-441.57"/>
</g>
<!-- Node33 -->
<g id="node33" class="node">
<title>Node33</title>
<g id="a_node33"><a xlink:href="classdenoptim_1_1graph_1_1_vertex.html#a514b89b11dff8939e74e5b95e749b703" target="_top" xlink:title=" ">
<polygon fill="white" stroke="black" points="733,-366.5 733,-396.5 861,-396.5 861,-366.5 733,-366.5"/>
<text text-anchor="start" x="741" y="-384.5" font-family="Helvetica,sans-Serif" font-size="10.00">denoptim.graph.Vertex.get</text>
<text text-anchor="middle" x="797" y="-373.5" font-family="Helvetica,sans-Serif" font-size="10.00">NumberOfAPs</text>
</a>
</g>
</g>
<!-- Node30&#45;&gt;Node33 -->
<g id="edge43" class="edge">
<title>Node30&#45;&gt;Node33</title>
<path fill="none" stroke="midnightblue" d="M480.03,-453.5C498.51,-448.19 519.64,-442.34 539,-437.5 600.67,-422.07 671.27,-406.86 722.85,-396.19"/>
<polygon fill="midnightblue" stroke="midnightblue" points="723.82,-399.57 732.91,-394.12 722.41,-392.71 723.82,-399.57"/>
</g>
<!-- Node34 -->
<g id="node34" class="node">
<title>Node34</title>
<g id="a_node34"><a xlink:href="classdenoptim_1_1graph_1_1_attachment_point.html#ab1226264e663d411606bc5af27dd921e" target="_top" xlink:title="Compares the features of this and another attachment point and decides if the two are same.">
<polygon fill="white" stroke="black" points="547,-318.5 547,-348.5 682,-348.5 682,-318.5 547,-318.5"/>
<text text-anchor="start" x="555" y="-336.5" font-family="Helvetica,sans-Serif" font-size="10.00">denoptim.graph.Attachment</text>
<text text-anchor="middle" x="614.5" y="-325.5" font-family="Helvetica,sans-Serif" font-size="10.00">Point.sameAs</text>
</a>
</g>
</g>
<!-- Node30&#45;&gt;Node34 -->
<g id="edge45" class="edge">
<title>Node30&#45;&gt;Node34</title>
<path fill="none" stroke="midnightblue" d="M489.29,-453.32C494.18,-450.81 498.84,-447.89 503,-444.5 528,-424.13 516.81,-404.9 539,-381.5 549.14,-370.81 562.11,-361.4 574.39,-353.81"/>
<polygon fill="midnightblue" stroke="midnightblue" points="576.34,-356.72 583.15,-348.61 572.77,-350.7 576.34,-356.72"/>
</g>
<!-- Node31&#45;&gt;Node9 -->
<g id="edge38" class="edge">
<title>Node31&#45;&gt;Node9</title>
<path fill="none" stroke="midnightblue" d="M838.8,-464.92C848.49,-462.24 858.71,-459.06 868,-455.5 889.84,-447.12 913.24,-435.44 931.81,-425.47"/>
<polygon fill="midnightblue" stroke="midnightblue" points="933.67,-428.44 940.78,-420.59 930.32,-422.3 933.67,-428.44"/>
</g>
<!-- Node32&#45;&gt;Node9 -->
<g id="edge42" class="edge">
<title>Node32&#45;&gt;Node9</title>
<path fill="none" stroke="midnightblue" d="M861.41,-421.12C871.91,-419.57 882.88,-417.94 893.61,-416.36"/>
<polygon fill="midnightblue" stroke="midnightblue" points="894.42,-419.78 903.8,-414.85 893.39,-412.85 894.42,-419.78"/>
</g>
<!-- Node33&#45;&gt;Node9 -->
<g id="edge44" class="edge">
<title>Node33&#45;&gt;Node9</title>
<path fill="none" stroke="midnightblue" d="M861.41,-390.5C871.91,-392 882.88,-393.55 893.61,-395.08"/>
<polygon fill="midnightblue" stroke="midnightblue" points="893.4,-398.58 903.8,-396.52 894.39,-391.65 893.4,-398.58"/>
</g>
<!-- Node34&#45;&gt;Node34 -->
<g id="edge46" class="edge">
<title>Node34&#45;&gt;Node34</title>
<path fill="none" stroke="midnightblue" d="M582.78,-348.66C575.13,-358.06 585.71,-367 614.5,-367 632.05,-367 642.83,-363.68 646.84,-358.96"/>
<polygon fill="midnightblue" stroke="midnightblue" points="650.31,-358.43 646.22,-348.66 643.33,-358.85 650.31,-358.43"/>
</g>
</g>
</svg>
