<?xml version="1.0" encoding="UTF-8" standalone="no"?>
<!DOCTYPE svg PUBLIC "-//W3C//DTD SVG 1.1//EN"
 "http://www.w3.org/Graphics/SVG/1.1/DTD/svg11.dtd">
<!-- Generated by graphviz version 3.0.0 (20220413.0242)
 -->
<!-- Title: denoptim.utils.GraphEdit Pages: 1 -->
<svg width="1366pt" height="921pt"
 viewBox="0.00 0.00 1366.00 920.65" xmlns="http://www.w3.org/2000/svg" xmlns:xlink="http://www.w3.org/1999/xlink">
<g id="graph0" class="graph" transform="scale(1 1) rotate(0) translate(4 916.65)">
<title>denoptim.utils.GraphEdit</title>
<polygon fill="white" stroke="transparent" points="-4,4 -4,-916.65 1362,-916.65 1362,4 -4,4"/>
<!-- Node1 -->
<g id="node1" class="node">
<title>Node1</title>
<g id="a_node1"><a xlink:title="Definition of a graph editing task.">
<polygon fill="#bfbfbf" stroke="black" points="1233,-770.65 1233,-789.65 1355,-789.65 1355,-770.65 1233,-770.65"/>
<text text-anchor="middle" x="1294" y="-777.65" font-family="Helvetica,sans-Serif" font-size="10.00">denoptim.utils.GraphEdit</text>
</a>
</g>
</g>
<!-- Node2 -->
<g id="node2" class="node">
<title>Node2</title>
<g id="a_node2"><a xlink:href="enumdenoptim_1_1utils_1_1_graph_edit_1_1_edit_task.html" target="_top" xlink:title="Defined the kind of graph editing task.">
<polygon fill="white" stroke="black" points="989,-833.15 989,-863.15 1113,-863.15 1113,-833.15 989,-833.15"/>
<text text-anchor="start" x="997" y="-851.15" font-family="Helvetica,sans-Serif" font-size="10.00">denoptim.utils.GraphEdit.</text>
<text text-anchor="middle" x="1051" y="-840.15" font-family="Helvetica,sans-Serif" font-size="10.00">EditTask</text>
</a>
</g>
</g>
<!-- Node2&#45;&gt;Node1 -->
<g id="edge1" class="edge">
<title>Node2&#45;&gt;Node1</title>
<path fill="none" stroke="#9a32cd" stroke-dasharray="5,2" d="M1123.37,-838.05C1151.38,-833.12 1183.56,-826.25 1212,-817.15 1234.53,-809.93 1259.06,-798.12 1275.15,-789.79"/>
<polygon fill="#9a32cd" stroke="#9a32cd" points="1122.52,-834.64 1113.25,-839.77 1123.7,-841.54 1122.52,-834.64"/>
<text text-anchor="middle" x="1175" y="-838.15" font-family="Helvetica,sans-Serif" font-size="10.00"> task</text>
</g>
<!-- Node3 -->
<g id="node3" class="node">
<title>Node3</title>
<g id="a_node3"><a xlink:href="classdenoptim_1_1graph_1_1_vertex_query.html" target="_top" xlink:title="Query for searching vertices.">
<polygon fill="white" stroke="black" points="982,-737.65 982,-756.65 1120,-756.65 1120,-737.65 982,-737.65"/>
<text text-anchor="middle" x="1051" y="-744.65" font-family="Helvetica,sans-Serif" font-size="10.00">denoptim.graph.VertexQuery</text>
</a>
</g>
</g>
<!-- Node3&#45;&gt;Node1 -->
<g id="edge2" class="edge">
<title>Node3&#45;&gt;Node1</title>
<path fill="none" stroke="#9a32cd" stroke-dasharray="5,2" d="M1130.26,-757.86C1163.58,-762.42 1201.83,-767.66 1232.87,-771.91"/>
<polygon fill="#9a32cd" stroke="#9a32cd" points="1130.48,-754.36 1120.09,-756.47 1129.53,-761.29 1130.48,-754.36"/>
<text text-anchor="middle" x="1175" y="-771.15" font-family="Helvetica,sans-Serif" font-size="10.00"> vertexQuery</text>
</g>
<!-- Node4 -->
<g id="node4" class="node">
<title>Node4</title>
<g id="a_node4"><a xlink:href="enumdenoptim_1_1graph_1_1_vertex_1_1_b_b_type.html" target="_top" xlink:title="The type of building block.">
<polygon fill="white" stroke="black" points="98.5,-684.65 98.5,-703.65 247.5,-703.65 247.5,-684.65 98.5,-684.65"/>
<text text-anchor="middle" x="173" y="-691.65" font-family="Helvetica,sans-Serif" font-size="10.00">denoptim.graph.Vertex.BBType</text>
</a>
</g>
</g>
<!-- Node4&#45;&gt;Node1 -->
<g id="edge43" class="edge">
<title>Node4&#45;&gt;Node1</title>
<path fill="none" stroke="#9a32cd" stroke-dasharray="5,2" d="M257.73,-690.2C423.57,-683.92 804.98,-677.08 1120,-728.15 1174.33,-736.95 1235.47,-758.12 1268.56,-770.57"/>
<polygon fill="#9a32cd" stroke="#9a32cd" points="257.46,-686.71 247.6,-690.6 257.73,-693.71 257.46,-686.71"/>
<text text-anchor="middle" x="767.5" y="-701.15" font-family="Helvetica,sans-Serif" font-size="10.00"> incomingBBTyp</text>
</g>
<!-- Node4&#45;&gt;Node3 -->
<g id="edge3" class="edge">
<title>Node4&#45;&gt;Node3</title>
<path fill="none" stroke="#9a32cd" stroke-dasharray="5,2" d="M245.21,-705C254.54,-706.19 263.99,-707.28 273,-708.15 534.17,-733.12 846.36,-742.65 981.77,-745.79"/>
<polygon fill="#9a32cd" stroke="#9a32cd" points="245.53,-701.51 235.16,-703.68 244.61,-708.45 245.53,-701.51"/>
<text text-anchor="middle" x="619" y="-737.15" font-family="Helvetica,sans-Serif" font-size="10.00"> buildingBlockType</text>
</g>
<!-- Node23 -->
<g id="node23" class="node">
<title>Node23</title>
<g id="a_node23"><a xlink:href="classdenoptim_1_1graph_1_1_vertex.html" target="_top" xlink:title="A vertex is a data structure that has an identity and holds a list of AttachmentPoints.">
<polygon fill="white" stroke="black" points="423.5,-446.65 423.5,-465.65 536.5,-465.65 536.5,-446.65 423.5,-446.65"/>
<text text-anchor="middle" x="480" y="-453.65" font-family="Helvetica,sans-Serif" font-size="10.00">denoptim.graph.Vertex</text>
</a>
</g>
</g>
<!-- Node4&#45;&gt;Node23 -->
<g id="edge30" class="edge">
<title>Node4&#45;&gt;Node23</title>
<path fill="none" stroke="#9a32cd" stroke-dasharray="5,2" d="M197.94,-679.2C237.56,-654.08 318.67,-601.05 382,-549.15 416.28,-521.05 453.11,-483.43 469.82,-465.9"/>
<polygon fill="#9a32cd" stroke="#9a32cd" points="196.05,-676.25 189.46,-684.54 199.79,-682.17 196.05,-676.25"/>
<text text-anchor="middle" x="327.5" y="-631.15" font-family="Helvetica,sans-Serif" font-size="10.00"> buildingBlockType</text>
</g>
<!-- Node5 -->
<g id="node5" class="node">
<title>Node5</title>
<g id="a_node5"><a xlink:href="enumdenoptim_1_1graph_1_1_vertex_1_1_vertex_type.html" target="_top" xlink:title="Flag declaring the type of Vertex implementation.">
<polygon fill="white" stroke="black" points="91,-539.65 91,-558.65 255,-558.65 255,-539.65 91,-539.65"/>
<text text-anchor="middle" x="173" y="-546.65" font-family="Helvetica,sans-Serif" font-size="10.00">denoptim.graph.Vertex.VertexType</text>
</a>
</g>
</g>
<!-- Node5&#45;&gt;Node3 -->
<g id="edge4" class="edge">
<title>Node5&#45;&gt;Node3</title>
<path fill="none" stroke="#9a32cd" stroke-dasharray="5,2" d="M209.37,-562.56C224.12,-568.95 241.02,-577.34 255,-587.15 264.26,-593.65 262.63,-600.63 273,-605.15 351.9,-639.51 574.9,-606.33 660,-619.15 749.66,-632.65 770.84,-643.91 857,-672.15 919.85,-692.75 992.06,-722.48 1027.7,-737.57"/>
<polygon fill="#9a32cd" stroke="#9a32cd" points="210.62,-559.29 200.05,-558.66 207.92,-565.75 210.62,-559.29"/>
<text text-anchor="middle" x="619" y="-622.15" font-family="Helvetica,sans-Serif" font-size="10.00"> vertexType</text>
</g>
<!-- Node5&#45;&gt;Node23 -->
<g id="edge34" class="edge">
<title>Node5&#45;&gt;Node23</title>
<path fill="none" stroke="#9a32cd" stroke-dasharray="5,2" d="M204.48,-535.61C223.82,-527.4 249.54,-517.19 273,-510.15 320.42,-495.91 334.14,-499.81 382,-487.15 405.76,-480.86 432.31,-472.26 451.62,-465.71"/>
<polygon fill="#9a32cd" stroke="#9a32cd" points="203.07,-532.4 195.26,-539.57 205.83,-538.83 203.07,-532.4"/>
<text text-anchor="middle" x="327.5" y="-513.15" font-family="Helvetica,sans-Serif" font-size="10.00"> vertexType</text>
</g>
<!-- Node6 -->
<g id="node6" class="node">
<title>Node6</title>
<g id="a_node6"><a xlink:href="classdenoptim_1_1graph_1_1_edge_query.html" target="_top" xlink:title="A query for edges: a list of properties that target edges should possess in order to match this query...">
<polygon fill="white" stroke="black" points="701.5,-787.65 701.5,-806.65 833.5,-806.65 833.5,-787.65 701.5,-787.65"/>
<text text-anchor="middle" x="767.5" y="-794.65" font-family="Helvetica,sans-Serif" font-size="10.00">denoptim.graph.EdgeQuery</text>
</a>
</g>
</g>
<!-- Node6&#45;&gt;Node1 -->
<g id="edge13" class="edge">
<title>Node6&#45;&gt;Node1</title>
<path fill="none" stroke="#9a32cd" stroke-dasharray="5,2" d="M843.69,-794.9C931.91,-792.23 1082.58,-787.59 1212,-783.15 1218.75,-782.91 1225.82,-782.66 1232.84,-782.41"/>
<polygon fill="#9a32cd" stroke="#9a32cd" points="843.4,-791.41 833.51,-795.21 843.61,-798.4 843.4,-791.41"/>
<text text-anchor="middle" x="1051" y="-793.15" font-family="Helvetica,sans-Serif" font-size="10.00"> edgeQuery</text>
</g>
<!-- Node6&#45;&gt;Node3 -->
<g id="edge5" class="edge">
<title>Node6&#45;&gt;Node3</title>
<path fill="none" stroke="#9a32cd" stroke-dasharray="5,2" d="M807.28,-784.6C827.31,-778.54 852.27,-771.62 875,-767.15 909.96,-760.27 949.34,-755.51 981.88,-752.37"/>
<polygon fill="#9a32cd" stroke="#9a32cd" points="806.1,-781.3 797.58,-787.59 808.16,-787.99 806.1,-781.3"/>
<text text-anchor="middle" x="919.5" y="-781.15" font-family="Helvetica,sans-Serif" font-size="10.00"> incomingEdgeQuery</text>
<text text-anchor="middle" x="919.5" y="-770.15" font-family="Helvetica,sans-Serif" font-size="10.00">outgoingEdgeQuery</text>
</g>
<!-- Node7 -->
<g id="node7" class="node">
<title>Node7</title>
<g id="a_node7"><a xlink:href="enumdenoptim_1_1graph_1_1_edge_1_1_bond_type.html" target="_top" xlink:title="Possible chemical bond types an edge can represent.">
<polygon fill="white" stroke="black" points="97,-846.65 97,-865.65 249,-865.65 249,-846.65 97,-846.65"/>
<text text-anchor="middle" x="173" y="-853.65" font-family="Helvetica,sans-Serif" font-size="10.00">denoptim.graph.Edge.BondType</text>
</a>
</g>
</g>
<!-- Node7&#45;&gt;Node6 -->
<g id="edge6" class="edge">
<title>Node7&#45;&gt;Node6</title>
<path fill="none" stroke="#9a32cd" stroke-dasharray="5,2" d="M259.3,-860.73C263.94,-860.89 268.52,-861.03 273,-861.15 445.86,-865.51 489.95,-852.49 660,-821.15 682.55,-816.99 707.58,-811.4 727.7,-806.66"/>
<polygon fill="#9a32cd" stroke="#9a32cd" points="259.25,-857.22 249.12,-860.34 258.98,-864.22 259.25,-857.22"/>
<text text-anchor="middle" x="480" y="-863.15" font-family="Helvetica,sans-Serif" font-size="10.00"> bondType</text>
</g>
<!-- Node9 -->
<g id="node9" class="node">
<title>Node9</title>
<g id="a_node9"><a xlink:href="classdenoptim_1_1graph_1_1_a_p_class.html" target="_top" xlink:title=" ">
<polygon fill="white" stroke="black" points="418.5,-783.65 418.5,-802.65 541.5,-802.65 541.5,-783.65 418.5,-783.65"/>
<text text-anchor="middle" x="480" y="-790.65" font-family="Helvetica,sans-Serif" font-size="10.00">denoptim.graph.APClass</text>
</a>
</g>
</g>
<!-- Node7&#45;&gt;Node9 -->
<g id="edge12" class="edge">
<title>Node7&#45;&gt;Node9</title>
<path fill="none" stroke="#9a32cd" stroke-dasharray="5,2" d="M237.06,-844.75C278.37,-837.1 333.51,-826.55 382,-816.15 401.29,-812.01 422.64,-806.99 440.38,-802.7"/>
<polygon fill="#9a32cd" stroke="#9a32cd" points="236.33,-841.32 227.13,-846.58 237.6,-848.2 236.33,-841.32"/>
<text text-anchor="middle" x="327.5" y="-851.15" font-family="Helvetica,sans-Serif" font-size="10.00"> DEFAULTBT</text>
<text text-anchor="middle" x="327.5" y="-840.15" font-family="Helvetica,sans-Serif" font-size="10.00">bndTyp</text>
</g>
<!-- Node8 -->
<g id="node8" class="node">
<title>Node8</title>
<g id="a_node8"><a xlink:title=" ">
<polygon fill="white" stroke="black" points="0,-846.65 0,-865.65 42,-865.65 42,-846.65 0,-846.65"/>
<text text-anchor="middle" x="21" y="-853.65" font-family="Helvetica,sans-Serif" font-size="10.00">IBond</text>
</a>
</g>
</g>
<!-- Node8&#45;&gt;Node7 -->
<g id="edge7" class="edge">
<title>Node8&#45;&gt;Node7</title>
<path fill="none" stroke="#9a32cd" stroke-dasharray="5,2" d="M52.4,-856.15C65.37,-856.15 81.12,-856.15 96.89,-856.15"/>
<polygon fill="#9a32cd" stroke="#9a32cd" points="52.23,-852.65 42.23,-856.15 52.23,-859.65 52.23,-852.65"/>
<text text-anchor="middle" x="66.5" y="-859.15" font-family="Helvetica,sans-Serif" font-size="10.00"> bo</text>
</g>
<!-- Node9&#45;&gt;Node6 -->
<g id="edge8" class="edge">
<title>Node9&#45;&gt;Node6</title>
<path fill="none" stroke="#9a32cd" stroke-dasharray="5,2" d="M551.69,-794.14C597.48,-794.78 656.67,-795.61 701.32,-796.23"/>
<polygon fill="#9a32cd" stroke="#9a32cd" points="551.6,-790.64 541.55,-793.99 551.5,-797.63 551.6,-790.64"/>
<text text-anchor="middle" x="619" y="-809.15" font-family="Helvetica,sans-Serif" font-size="10.00"> srcAPC</text>
<text text-anchor="middle" x="619" y="-798.15" font-family="Helvetica,sans-Serif" font-size="10.00">trgAPC</text>
</g>
<!-- Node10 -->
<g id="node10" class="node">
<title>Node10</title>
<g id="a_node10"><a xlink:title=" ">
<polygon fill="white" stroke="black" points="143.5,-596.65 143.5,-615.65 202.5,-615.65 202.5,-596.65 143.5,-596.65"/>
<text text-anchor="middle" x="173" y="-603.65" font-family="Helvetica,sans-Serif" font-size="10.00">Cloneable</text>
</a>
</g>
</g>
<!-- Node10&#45;&gt;Node9 -->
<g id="edge9" class="edge">
<title>Node10&#45;&gt;Node9</title>
<path fill="none" stroke="midnightblue" d="M198.39,-621.1C258.76,-658.12 413.87,-753.21 463.49,-783.64"/>
<polygon fill="midnightblue" stroke="midnightblue" points="199.9,-617.92 189.54,-615.68 196.24,-623.89 199.9,-617.92"/>
</g>
<!-- Node13 -->
<g id="node13" class="node">
<title>Node13</title>
<g id="a_node13"><a xlink:href="classdenoptim_1_1graph_1_1_d_graph.html" target="_top" xlink:title="Container for the list of vertices and the edges that connect them.">
<polygon fill="white" stroke="black" points="992,-316.65 992,-335.65 1110,-335.65 1110,-316.65 992,-316.65"/>
<text text-anchor="middle" x="1051" y="-323.65" font-family="Helvetica,sans-Serif" font-size="10.00">denoptim.graph.DGraph</text>
</a>
</g>
</g>
<!-- Node10&#45;&gt;Node13 -->
<g id="edge15" class="edge">
<title>Node10&#45;&gt;Node13</title>
<path fill="none" stroke="midnightblue" d="M206.95,-593.1C225.94,-586.19 250.46,-578.29 273,-574.15 576.03,-518.38 727.16,-715.23 964,-518.15 1024.08,-468.15 1043.81,-367.57 1048.67,-335.92"/>
<polygon fill="midnightblue" stroke="midnightblue" points="205.7,-589.83 197.56,-596.6 208.15,-596.39 205.7,-589.83"/>
</g>
<!-- Node19 -->
<g id="node19" class="node">
<title>Node19</title>
<g id="a_node19"><a xlink:href="classdenoptim_1_1graph_1_1_candidate.html" target="_top" xlink:title="A candidate is the combination of a denoptim graph with molecular representation and may include also...">
<polygon fill="white" stroke="black" points="1230,-297.65 1230,-316.65 1358,-316.65 1358,-297.65 1230,-297.65"/>
<text text-anchor="middle" x="1294" y="-304.65" font-family="Helvetica,sans-Serif" font-size="10.00">denoptim.graph.Candidate</text>
</a>
</g>
</g>
<!-- Node10&#45;&gt;Node19 -->
<g id="edge23" class="edge">
<title>Node10&#45;&gt;Node19</title>
<path fill="none" stroke="midnightblue" d="M212.72,-616.1C230.89,-620.32 252.92,-624.8 273,-627.15 329.08,-633.7 343.54,-629.48 400,-630.15 603.27,-632.55 660.9,-664.71 857,-611.15 1057.73,-556.32 1243.13,-362.2 1284.46,-316.73"/>
<polygon fill="midnightblue" stroke="midnightblue" points="213.33,-612.65 202.79,-613.73 211.7,-619.46 213.33,-612.65"/>
</g>
<!-- Node10&#45;&gt;Node23 -->
<g id="edge28" class="edge">
<title>Node10&#45;&gt;Node23</title>
<path fill="none" stroke="midnightblue" d="M209.83,-592.77C224.52,-586.44 241.26,-578.07 255,-568.15 264.43,-561.34 262.98,-555.05 273,-549.15 316.11,-523.78 336.35,-541.58 382,-521.15 415.49,-506.15 450.11,-479.87 467.52,-465.75"/>
<polygon fill="midnightblue" stroke="midnightblue" points="208.42,-589.57 200.53,-596.64 211.11,-596.03 208.42,-589.57"/>
</g>
<!-- Node11 -->
<g id="node11" class="node">
<title>Node11</title>
<g id="a_node11"><a xlink:title=" ">
<polygon fill="white" stroke="black" points="111.5,-747.65 111.5,-766.65 234.5,-766.65 234.5,-747.65 111.5,-747.65"/>
<text text-anchor="middle" x="173" y="-754.65" font-family="Helvetica,sans-Serif" font-size="10.00">Comparable&lt; APClass &gt;</text>
</a>
</g>
</g>
<!-- Node11&#45;&gt;Node9 -->
<g id="edge10" class="edge">
<title>Node11&#45;&gt;Node9</title>
<path fill="none" stroke="midnightblue" d="M244.56,-765.48C297.22,-771.69 368.42,-780.09 418.49,-786"/>
<polygon fill="midnightblue" stroke="midnightblue" points="244.96,-762 234.62,-764.3 244.14,-768.95 244.96,-762"/>
</g>
<!-- Node12 -->
<g id="node12" class="node">
<title>Node12</title>
<g id="a_node12"><a xlink:title=" ">
<polygon fill="white" stroke="black" points="95.5,-785.65 95.5,-804.65 250.5,-804.65 250.5,-785.65 95.5,-785.65"/>
<text text-anchor="middle" x="173" y="-792.65" font-family="Helvetica,sans-Serif" font-size="10.00">Set&lt; denoptim.graph.APClass &gt;</text>
</a>
</g>
</g>
<!-- Node12&#45;&gt;Node9 -->
<g id="edge11" class="edge">
<title>Node12&#45;&gt;Node9</title>
<path fill="none" stroke="#9a32cd" stroke-dasharray="5,2" d="M260.94,-794.24C265.02,-794.21 269.05,-794.18 273,-794.15 321.82,-793.78 377.14,-793.52 418.16,-793.36"/>
<polygon fill="#9a32cd" stroke="#9a32cd" points="260.72,-790.74 250.75,-794.33 260.78,-797.74 260.72,-790.74"/>
<text text-anchor="middle" x="327.5" y="-808.15" font-family="Helvetica,sans-Serif" font-size="10.00"> RCAAPCLASSSET</text>
<text text-anchor="middle" x="327.5" y="-797.15" font-family="Helvetica,sans-Serif" font-size="10.00">uniqueAPClasses</text>
</g>
<!-- Node13&#45;&gt;Node1 -->
<g id="edge14" class="edge">
<title>Node13&#45;&gt;Node1</title>
<path fill="none" stroke="#9a32cd" stroke-dasharray="5,2" d="M1062.09,-345.16C1103.23,-422.66 1257.5,-713.27 1287.81,-770.37"/>
<polygon fill="#9a32cd" stroke="#9a32cd" points="1065.04,-343.24 1057.26,-336.05 1058.86,-346.52 1065.04,-343.24"/>
<text text-anchor="middle" x="1175" y="-624.15" font-family="Helvetica,sans-Serif" font-size="10.00"> incomingGraph</text>
</g>
<!-- Node13&#45;&gt;Node19 -->
<g id="edge24" class="edge">
<title>Node13&#45;&gt;Node19</title>
<path fill="none" stroke="#9a32cd" stroke-dasharray="5,2" d="M1120.46,-324.71C1148.83,-323.71 1182.05,-322.01 1212,-319.15 1218.93,-318.48 1226.18,-317.63 1233.37,-316.69"/>
<polygon fill="#9a32cd" stroke="#9a32cd" points="1120.12,-321.22 1110.24,-325.04 1120.35,-328.21 1120.12,-321.22"/>
<text text-anchor="middle" x="1175" y="-327.15" font-family="Helvetica,sans-Serif" font-size="10.00"> graph</text>
</g>
<!-- Node22 -->
<g id="node22" class="node">
<title>Node22</title>
<g id="a_node22"><a xlink:href="classdenoptim_1_1graph_1_1_template.html" target="_top" xlink:title=" ">
<polygon fill="white" stroke="black" points="705,-177.65 705,-196.65 830,-196.65 830,-177.65 705,-177.65"/>
<text text-anchor="middle" x="767.5" y="-184.65" font-family="Helvetica,sans-Serif" font-size="10.00">denoptim.graph.Template</text>
</a>
</g>
</g>
<!-- Node13&#45;&gt;Node22 -->
<g id="edge35" class="edge">
<title>Node13&#45;&gt;Node22</title>
<path fill="none" stroke="#9a32cd" stroke-dasharray="5,2" d="M1006.56,-312.25C997.31,-307.5 988.41,-301.25 982,-293.15 959.13,-264.21 991.24,-237 964,-212.15 944.85,-194.68 879.9,-189.13 830.06,-187.51"/>
<polygon fill="#9a32cd" stroke="#9a32cd" points="1005.3,-315.53 1015.85,-316.53 1008.23,-309.17 1005.3,-315.53"/>
<text text-anchor="middle" x="919.5" y="-215.15" font-family="Helvetica,sans-Serif" font-size="10.00"> innerGraph</text>
</g>
<!-- Node13&#45;&gt;Node23 -->
<g id="edge29" class="edge">
<title>Node13&#45;&gt;Node23</title>
<path fill="none" stroke="#9a32cd" stroke-dasharray="5,2" d="M1020.92,-312.09C975.6,-290.47 889.9,-250.85 857,-244.15 779.04,-228.27 750.93,-212.36 678,-244.15 577.59,-287.91 505.34,-410.87 486.1,-446.41"/>
<polygon fill="#9a32cd" stroke="#9a32cd" points="1019.68,-315.37 1030.21,-316.53 1022.7,-309.06 1019.68,-315.37"/>
<text text-anchor="middle" x="767.5" y="-247.15" font-family="Helvetica,sans-Serif" font-size="10.00"> owner</text>
</g>
<!-- Node14 -->
<g id="node14" class="node">
<title>Node14</title>
<g id="a_node14"><a xlink:title=" ">
<polygon fill="white" stroke="black" points="701.5,-128.15 701.5,-158.15 833.5,-158.15 833.5,-128.15 701.5,-128.15"/>
<text text-anchor="start" x="709.5" y="-146.15" font-family="Helvetica,sans-Serif" font-size="10.00">ArrayList&lt; denoptim.graph.</text>
<text text-anchor="middle" x="767.5" y="-135.15" font-family="Helvetica,sans-Serif" font-size="10.00">Vertex &gt;</text>
</a>
</g>
</g>
<!-- Node14&#45;&gt;Node13 -->
<g id="edge16" class="edge">
<title>Node14&#45;&gt;Node13</title>
<path fill="none" stroke="#9a32cd" stroke-dasharray="5,2" d="M837.53,-126.59C879.34,-120.93 930.83,-122.43 964,-153.15 1010.03,-195.77 945.37,-242.21 982,-293.15 989.89,-304.12 1002.44,-311.6 1014.62,-316.63"/>
<polygon fill="#9a32cd" stroke="#9a32cd" points="836.76,-123.16 827.4,-128.12 837.81,-130.09 836.76,-123.16"/>
<text text-anchor="middle" x="919.5" y="-156.15" font-family="Helvetica,sans-Serif" font-size="10.00"> gVertices</text>
</g>
<!-- Node15 -->
<g id="node15" class="node">
<title>Node15</title>
<g id="a_node15"><a xlink:title=" ">
<polygon fill="white" stroke="black" points="701.5,-79.15 701.5,-109.15 833.5,-109.15 833.5,-79.15 701.5,-79.15"/>
<text text-anchor="start" x="709.5" y="-97.15" font-family="Helvetica,sans-Serif" font-size="10.00">ArrayList&lt; denoptim.graph.</text>
<text text-anchor="middle" x="767.5" y="-86.15" font-family="Helvetica,sans-Serif" font-size="10.00">Edge &gt;</text>
</a>
</g>
</g>
<!-- Node15&#45;&gt;Node13 -->
<g id="edge17" class="edge">
<title>Node15&#45;&gt;Node13</title>
<path fill="none" stroke="#9a32cd" stroke-dasharray="5,2" d="M843.84,-78.69C884.74,-74.97 933.11,-78.89 964,-109.15 993.35,-137.89 958.52,-259.43 982,-293.15 989.65,-304.13 1002,-311.6 1014.09,-316.61"/>
<polygon fill="#9a32cd" stroke="#9a32cd" points="843.46,-75.22 833.89,-79.76 844.21,-82.18 843.46,-75.22"/>
<text text-anchor="middle" x="919.5" y="-112.15" font-family="Helvetica,sans-Serif" font-size="10.00"> gEdges</text>
</g>
<!-- Node16 -->
<g id="node16" class="node">
<title>Node16</title>
<g id="a_node16"><a xlink:title=" ">
<polygon fill="white" stroke="black" points="701.5,-505.15 701.5,-535.15 833.5,-535.15 833.5,-505.15 701.5,-505.15"/>
<text text-anchor="start" x="709.5" y="-523.15" font-family="Helvetica,sans-Serif" font-size="10.00">ArrayList&lt; denoptim.graph.</text>
<text text-anchor="middle" x="767.5" y="-512.15" font-family="Helvetica,sans-Serif" font-size="10.00">Ring &gt;</text>
</a>
</g>
</g>
<!-- Node16&#45;&gt;Node13 -->
<g id="edge18" class="edge">
<title>Node16&#45;&gt;Node13</title>
<path fill="none" stroke="#9a32cd" stroke-dasharray="5,2" d="M843.96,-510.87C882.93,-503.03 929.41,-488.61 964,-462.15 1009.71,-427.18 1037.54,-360.42 1046.67,-335.68"/>
<polygon fill="#9a32cd" stroke="#9a32cd" points="842.88,-507.52 833.71,-512.82 844.19,-514.39 842.88,-507.52"/>
<text text-anchor="middle" x="919.5" y="-506.15" font-family="Helvetica,sans-Serif" font-size="10.00"> gRings</text>
</g>
<!-- Node17 -->
<g id="node17" class="node">
<title>Node17</title>
<g id="a_node17"><a xlink:title=" ">
<polygon fill="white" stroke="black" points="690,-456.15 690,-486.15 845,-486.15 845,-456.15 690,-456.15"/>
<text text-anchor="start" x="698" y="-474.15" font-family="Helvetica,sans-Serif" font-size="10.00">ArrayList&lt; denoptim.graph.rings.</text>
<text text-anchor="middle" x="767.5" y="-463.15" font-family="Helvetica,sans-Serif" font-size="10.00">ClosableChain &gt;</text>
</a>
</g>
</g>
<!-- Node17&#45;&gt;Node13 -->
<g id="edge19" class="edge">
<title>Node17&#45;&gt;Node13</title>
<path fill="none" stroke="#9a32cd" stroke-dasharray="5,2" d="M853.1,-453.38C889.01,-443.5 930.27,-428.89 964,-408.15 997.21,-387.72 1028.26,-352.76 1042.24,-335.86"/>
<polygon fill="#9a32cd" stroke="#9a32cd" points="851.89,-450.08 843.13,-456.05 853.69,-456.85 851.89,-450.08"/>
<text text-anchor="middle" x="919.5" y="-450.15" font-family="Helvetica,sans-Serif" font-size="10.00"> closableChains</text>
</g>
<!-- Node18 -->
<g id="node18" class="node">
<title>Node18</title>
<g id="a_node18"><a xlink:title=" ">
<polygon fill="white" stroke="black" points="701.5,-407.15 701.5,-437.15 833.5,-437.15 833.5,-407.15 701.5,-407.15"/>
<text text-anchor="start" x="709.5" y="-425.15" font-family="Helvetica,sans-Serif" font-size="10.00">ArrayList&lt; denoptim.graph.</text>
<text text-anchor="middle" x="767.5" y="-414.15" font-family="Helvetica,sans-Serif" font-size="10.00">SymmetricSet &gt;</text>
</a>
</g>
</g>
<!-- Node18&#45;&gt;Node13 -->
<g id="edge20" class="edge">
<title>Node18&#45;&gt;Node13</title>
<path fill="none" stroke="#9a32cd" stroke-dasharray="5,2" d="M836.85,-404.37C874.73,-393.9 922.45,-379.67 964,-364.15 987.09,-355.52 1012.86,-343.85 1030.12,-335.73"/>
<polygon fill="#9a32cd" stroke="#9a32cd" points="835.65,-401.07 826.94,-407.09 837.51,-407.82 835.65,-401.07"/>
<text text-anchor="middle" x="919.5" y="-396.15" font-family="Helvetica,sans-Serif" font-size="10.00"> symVertices</text>
</g>
<!-- Node19&#45;&gt;Node13 -->
<g id="edge21" class="edge">
<title>Node19&#45;&gt;Node13</title>
<path fill="none" stroke="#9a32cd" stroke-dasharray="5,2" d="M1219.75,-304.62C1193.86,-304.52 1164.58,-305.31 1138,-308.15 1121.92,-309.86 1104.41,-313.24 1089.42,-316.62"/>
<polygon fill="#9a32cd" stroke="#9a32cd" points="1219.84,-308.12 1229.87,-304.71 1219.9,-301.12 1219.84,-308.12"/>
<text text-anchor="middle" x="1175" y="-311.15" font-family="Helvetica,sans-Serif" font-size="10.00"> candidate</text>
</g>
<!-- Node20 -->
<g id="node20" class="node">
<title>Node20</title>
<g id="a_node20"><a xlink:title=" ">
<polygon fill="white" stroke="black" points="987,-264.65 987,-283.65 1115,-283.65 1115,-264.65 987,-264.65"/>
<text text-anchor="middle" x="1051" y="-271.65" font-family="Helvetica,sans-Serif" font-size="10.00">Comparable&lt; Candidate &gt;</text>
</a>
</g>
</g>
<!-- Node20&#45;&gt;Node19 -->
<g id="edge22" class="edge">
<title>Node20&#45;&gt;Node19</title>
<path fill="none" stroke="midnightblue" d="M1125.18,-284.17C1158.62,-288.75 1197.83,-294.12 1229.94,-298.51"/>
<polygon fill="midnightblue" stroke="midnightblue" points="1125.39,-280.66 1115.01,-282.77 1124.44,-287.6 1125.39,-280.66"/>
</g>
<!-- Node21 -->
<g id="node21" class="node">
<title>Node21</title>
<g id="a_node21"><a xlink:title=" ">
<polygon fill="white" stroke="black" points="438,-187.65 438,-206.65 522,-206.65 522,-187.65 438,-187.65"/>
<text text-anchor="middle" x="480" y="-194.65" font-family="Helvetica,sans-Serif" font-size="10.00">IAtomContainer</text>
</a>
</g>
</g>
<!-- Node21&#45;&gt;Node19 -->
<g id="edge25" class="edge">
<title>Node21&#45;&gt;Node19</title>
<path fill="none" stroke="#9a32cd" stroke-dasharray="5,2" d="M531.94,-193.31C542.48,-190.24 552.61,-185.22 560,-177.15 594.04,-139.95 539.74,-97.97 578,-65.15 708.2,46.56 801.1,-9.33 964,-63.15 1113.23,-112.44 1249.99,-258.47 1284.6,-297.48"/>
<polygon fill="#9a32cd" stroke="#9a32cd" points="531.13,-189.91 522.2,-195.62 532.74,-196.72 531.13,-189.91"/>
<text text-anchor="middle" x="919.5" y="-66.15" font-family="Helvetica,sans-Serif" font-size="10.00"> iac</text>
</g>
<!-- Node21&#45;&gt;Node22 -->
<g id="edge36" class="edge">
<title>Node21&#45;&gt;Node22</title>
<path fill="none" stroke="#9a32cd" stroke-dasharray="5,2" d="M532.01,-191.57C546.82,-190.18 563.04,-188.88 578,-188.15 620.33,-186.07 668.07,-185.84 704.91,-186.12"/>
<polygon fill="#9a32cd" stroke="#9a32cd" points="531.62,-188.09 522.01,-192.54 532.3,-195.06 531.62,-188.09"/>
<text text-anchor="middle" x="619" y="-191.15" font-family="Helvetica,sans-Serif" font-size="10.00"> mol</text>
</g>
<!-- Node22&#45;&gt;Node13 -->
<g id="edge26" class="edge">
<title>Node22&#45;&gt;Node13</title>
<path fill="none" stroke="#9a32cd" stroke-dasharray="5,2" d="M827.05,-175.96C877.1,-167.88 944.07,-161.1 964,-178.15 1003.31,-211.78 951.22,-251.56 982,-293.15 990.04,-304.01 1002.62,-311.47 1014.78,-316.52"/>
<polygon fill="#9a32cd" stroke="#9a32cd" points="826.26,-172.54 816.97,-177.63 827.41,-179.44 826.26,-172.54"/>
<text text-anchor="middle" x="919.5" y="-181.15" font-family="Helvetica,sans-Serif" font-size="10.00"> templateJacket</text>
</g>
<!-- Node23&#45;&gt;Node22 -->
<g id="edge27" class="edge">
<title>Node23&#45;&gt;Node22</title>
<path fill="none" stroke="midnightblue" d="M483.28,-436.32C489.53,-391.55 511.2,-282.24 578,-227.15 597.16,-211.34 657.52,-200.41 704.84,-194.02"/>
<polygon fill="midnightblue" stroke="midnightblue" points="479.78,-436.1 481.98,-446.47 486.72,-436.99 479.78,-436.1"/>
</g>
<!-- Node24 -->
<g id="node24" class="node">
<title>Node24</title>
<g id="a_node24"><a xlink:title=" ">
<polygon fill="white" stroke="black" points="116,-426.65 116,-445.65 230,-445.65 230,-426.65 116,-426.65"/>
<text text-anchor="middle" x="173" y="-433.65" font-family="Helvetica,sans-Serif" font-size="10.00">Map&lt; Object, Object &gt;</text>
</a>
</g>
</g>
<!-- Node24&#45;&gt;Node23 -->
<g id="edge31" class="edge">
<title>Node24&#45;&gt;Node23</title>
<path fill="none" stroke="#9a32cd" stroke-dasharray="5,2" d="M240.28,-436.13C281.19,-436.59 334.72,-438.07 382,-442.15 395.48,-443.31 409.94,-445.1 423.47,-447.02"/>
<polygon fill="#9a32cd" stroke="#9a32cd" points="240.19,-432.63 230.16,-436.03 240.12,-439.63 240.19,-432.63"/>
<text text-anchor="middle" x="327.5" y="-445.15" font-family="Helvetica,sans-Serif" font-size="10.00"> properties</text>
</g>
<!-- Node25 -->
<g id="node25" class="node">
<title>Node25</title>
<g id="a_node25"><a xlink:title=" ">
<polygon fill="white" stroke="black" points="136,-388.65 136,-407.65 210,-407.65 210,-388.65 136,-388.65"/>
<text text-anchor="middle" x="173" y="-395.65" font-family="Helvetica,sans-Serif" font-size="10.00">Set&lt; String &gt;</text>
</a>
</g>
</g>
<!-- Node25&#45;&gt;Node23 -->
<g id="edge32" class="edge">
<title>Node25&#45;&gt;Node23</title>
<path fill="none" stroke="#9a32cd" stroke-dasharray="5,2" d="M220.15,-400.52C262.64,-403.41 327.18,-409.54 382,-422.15 408.09,-428.14 436.91,-438.79 456.3,-446.57"/>
<polygon fill="#9a32cd" stroke="#9a32cd" points="220.32,-397.03 210.11,-399.88 219.87,-404.01 220.32,-397.03"/>
<text text-anchor="middle" x="327.5" y="-425.15" font-family="Helvetica,sans-Serif" font-size="10.00"> uniquefyingPropertyKeys</text>
</g>
<!-- Node26 -->
<g id="node26" class="node">
<title>Node26</title>
<g id="a_node26"><a xlink:title=" ">
<polygon fill="white" stroke="black" points="102.5,-465.15 102.5,-495.15 243.5,-495.15 243.5,-465.15 102.5,-465.15"/>
<text text-anchor="start" x="110.5" y="-483.15" font-family="Helvetica,sans-Serif" font-size="10.00">List&lt; denoptim.utils.Mutation</text>
<text text-anchor="middle" x="173" y="-472.15" font-family="Helvetica,sans-Serif" font-size="10.00">Type &gt;</text>
</a>
</g>
</g>
<!-- Node26&#45;&gt;Node23 -->
<g id="edge33" class="edge">
<title>Node26&#45;&gt;Node23</title>
<path fill="none" stroke="#9a32cd" stroke-dasharray="5,2" d="M253.7,-473.87C307.06,-469.68 375.96,-464.25 423.44,-460.52"/>
<polygon fill="#9a32cd" stroke="#9a32cd" points="253.29,-470.4 243.59,-474.67 253.83,-477.37 253.29,-470.4"/>
<text text-anchor="middle" x="327.5" y="-475.15" font-family="Helvetica,sans-Serif" font-size="10.00"> allowedMutationTypes</text>
</g>
<!-- Node27 -->
<g id="node27" class="node">
<title>Node27</title>
<g id="a_node27"><a xlink:href="enumdenoptim_1_1graph_1_1_template_1_1_contract_level.html" target="_top" xlink:title="Enum specifying to what extent the template&#39;s inner graph can be changed.">
<polygon fill="white" stroke="black" points="416,-138.15 416,-168.15 544,-168.15 544,-138.15 416,-138.15"/>
<text text-anchor="start" x="424" y="-156.15" font-family="Helvetica,sans-Serif" font-size="10.00">denoptim.graph.Template.</text>
<text text-anchor="middle" x="480" y="-145.15" font-family="Helvetica,sans-Serif" font-size="10.00">ContractLevel</text>
</a>
</g>
</g>
<!-- Node27&#45;&gt;Node22 -->
<g id="edge37" class="edge">
<title>Node27&#45;&gt;Node22</title>
<path fill="none" stroke="#9a32cd" stroke-dasharray="5,2" d="M554.34,-159.71C586.77,-162.82 625.32,-166.8 660,-171.15 675.12,-173.04 691.41,-175.35 706.58,-177.62"/>
<polygon fill="#9a32cd" stroke="#9a32cd" points="554.33,-156.19 544.04,-158.73 553.67,-163.16 554.33,-156.19"/>
<text text-anchor="middle" x="619" y="-174.15" font-family="Helvetica,sans-Serif" font-size="10.00"> contractLevel</text>
</g>
<!-- Node28 -->
<g id="node28" class="node">
<title>Node28</title>
<g id="a_node28"><a xlink:title=" ">
<polygon fill="white" stroke="black" points="400,-50.15 400,-80.15 560,-80.15 560,-50.15 400,-50.15"/>
<text text-anchor="start" x="408" y="-68.15" font-family="Helvetica,sans-Serif" font-size="10.00">List&lt; denoptim.graph.Attachment</text>
<text text-anchor="middle" x="480" y="-57.15" font-family="Helvetica,sans-Serif" font-size="10.00">Point &gt;</text>
</a>
</g>
</g>
<!-- Node28&#45;&gt;Node22 -->
<g id="edge38" class="edge">
<title>Node28&#45;&gt;Node22</title>
<path fill="none" stroke="#9a32cd" stroke-dasharray="5,2" d="M570.47,-66.82C602.24,-71.77 636.02,-82.62 660,-105.15 680.92,-124.79 657.11,-147.48 678,-167.15 685.45,-174.16 694.83,-178.91 704.67,-182.08"/>
<polygon fill="#9a32cd" stroke="#9a32cd" points="570.63,-63.31 560.25,-65.42 569.68,-70.25 570.63,-63.31"/>
<text text-anchor="middle" x="619" y="-108.15" font-family="Helvetica,sans-Serif" font-size="10.00"> requiredAPs</text>
</g>
<!-- Node29 -->
<g id="node29" class="node">
<title>Node29</title>
<g id="a_node29"><a xlink:href="classdenoptim_1_1graph_1_1_a_p_tree_map.html" target="_top" xlink:title="Attachment point mapping where keys are sorted by natural ordering, i.e., by AttachmentPoint#compareT...">
<polygon fill="white" stroke="black" points="411.5,-99.65 411.5,-118.65 548.5,-118.65 548.5,-99.65 411.5,-99.65"/>
<text text-anchor="middle" x="480" y="-106.65" font-family="Helvetica,sans-Serif" font-size="10.00">denoptim.graph.APTreeMap</text>
</a>
</g>
</g>
<!-- Node29&#45;&gt;Node22 -->
<g id="edge39" class="edge">
<title>Node29&#45;&gt;Node22</title>
<path fill="none" stroke="#9a32cd" stroke-dasharray="5,2" d="M558.61,-115.82C591.5,-121.17 629.24,-130.8 660,-148.15 670.13,-153.86 667.89,-161.39 678,-167.15 686.21,-171.82 695.44,-175.4 704.75,-178.15"/>
<polygon fill="#9a32cd" stroke="#9a32cd" points="558.99,-112.33 548.58,-114.29 557.94,-119.25 558.99,-112.33"/>
<text text-anchor="middle" x="619" y="-151.15" font-family="Helvetica,sans-Serif" font-size="10.00"> innerToOuterAPs</text>
</g>
<!-- Node30 -->
<g id="node30" class="node">
<title>Node30</title>
<g id="a_node30"><a xlink:title=" ">
<polygon fill="white" stroke="black" points="103.5,-94.15 103.5,-124.15 242.5,-124.15 242.5,-94.15 103.5,-94.15"/>
<text text-anchor="start" x="111.5" y="-112.15" font-family="Helvetica,sans-Serif" font-size="10.00">TreeMap&lt; AttachmentPoint,</text>
<text text-anchor="middle" x="173" y="-101.15" font-family="Helvetica,sans-Serif" font-size="10.00"> AttachmentPoint &gt;</text>
</a>
</g>
</g>
<!-- Node30&#45;&gt;Node29 -->
<g id="edge40" class="edge">
<title>Node30&#45;&gt;Node29</title>
<path fill="none" stroke="midnightblue" d="M253.1,-109.15C302.22,-109.15 364.68,-109.15 411.47,-109.15"/>
<polygon fill="midnightblue" stroke="midnightblue" points="252.83,-105.65 242.83,-109.15 252.83,-112.65 252.83,-105.65"/>
</g>
<!-- Node31 -->
<g id="node31" class="node">
<title>Node31</title>
<g id="a_node31"><a xlink:title=" ">
<polygon fill="white" stroke="black" points="679,-336.15 679,-388.15 856,-388.15 856,-336.15 679,-336.15"/>
<text text-anchor="start" x="687" y="-376.15" font-family="Helvetica,sans-Serif" font-size="10.00">DefaultUndirectedGraph</text>
<text text-anchor="start" x="687" y="-365.15" font-family="Helvetica,sans-Serif" font-size="10.00">&lt; denoptim.graph.Vertex,</text>
<text text-anchor="start" x="687" y="-354.15" font-family="Helvetica,sans-Serif" font-size="10.00"> denoptim.graph.simplified.Undirected</text>
<text text-anchor="middle" x="767.5" y="-343.15" font-family="Helvetica,sans-Serif" font-size="10.00">Edge &gt;</text>
</a>
</g>
</g>
<!-- Node31&#45;&gt;Node13 -->
<g id="edge41" class="edge">
<title>Node31&#45;&gt;Node13</title>
<path fill="none" stroke="#9a32cd" stroke-dasharray="5,2" d="M866,-349.68C907.96,-344.31 955.6,-338.22 991.89,-333.58"/>
<polygon fill="#9a32cd" stroke="#9a32cd" points="865.5,-346.21 856.03,-350.95 866.39,-353.16 865.5,-346.21"/>
<text text-anchor="middle" x="919.5" y="-352.15" font-family="Helvetica,sans-Serif" font-size="10.00"> jGraph</text>
</g>
<!-- Node32 -->
<g id="node32" class="node">
<title>Node32</title>
<g id="a_node32"><a xlink:title=" ">
<polygon fill="white" stroke="black" points="678,-265.15 678,-317.15 857,-317.15 857,-265.15 678,-265.15"/>
<text text-anchor="start" x="686" y="-305.15" font-family="Helvetica,sans-Serif" font-size="10.00">DefaultUndirectedGraph</text>
<text text-anchor="start" x="686" y="-294.15" font-family="Helvetica,sans-Serif" font-size="10.00">&lt; denoptim.graph.simplified.</text>
<text text-anchor="start" x="686" y="-283.15" font-family="Helvetica,sans-Serif" font-size="10.00">Node, denoptim.graph.simplified.Node</text>
<text text-anchor="middle" x="767.5" y="-272.15" font-family="Helvetica,sans-Serif" font-size="10.00">Connection &gt;</text>
</a>
</g>
</g>
<!-- Node32&#45;&gt;Node13 -->
<g id="edge42" class="edge">
<title>Node32&#45;&gt;Node13</title>
<path fill="none" stroke="#9a32cd" stroke-dasharray="5,2" d="M867.36,-303.44C909.01,-308.62 956.04,-314.46 991.94,-318.93"/>
<polygon fill="#9a32cd" stroke="#9a32cd" points="867.54,-299.93 857.18,-302.17 866.67,-306.88 867.54,-299.93"/>
<text text-anchor="middle" x="919.5" y="-318.15" font-family="Helvetica,sans-Serif" font-size="10.00"> jGraphKernel</text>
</g>
<!-- Node33 -->
<g id="node33" class="node">
<title>Node33</title>
<g id="a_node33"><a xlink:title=" ">
<polygon fill="white" stroke="black" points="986.5,-882.15 986.5,-912.15 1115.5,-912.15 1115.5,-882.15 986.5,-882.15"/>
<text text-anchor="start" x="994.5" y="-900.15" font-family="Helvetica,sans-Serif" font-size="10.00">LinkedHashMap&lt; Integer,</text>
<text text-anchor="middle" x="1051" y="-889.15" font-family="Helvetica,sans-Serif" font-size="10.00"> Integer &gt;</text>
</a>
</g>
</g>
<!-- Node33&#45;&gt;Node1 -->
<g id="edge44" class="edge">
<title>Node33&#45;&gt;Node1</title>
<path fill="none" stroke="#9a32cd" stroke-dasharray="5,2" d="M1125.39,-882.59C1153.53,-875.24 1185.28,-864.71 1212,-850.15 1242.03,-833.77 1270.73,-804.78 1284.51,-789.76"/>
<polygon fill="#9a32cd" stroke="#9a32cd" points="1124.44,-879.22 1115.6,-885.06 1126.15,-886.01 1124.44,-879.22"/>
<text text-anchor="middle" x="1175" y="-881.15" font-family="Helvetica,sans-Serif" font-size="10.00"> incomingAPMap</text>
</g>
</g>
</svg>
