<?xml version="1.0" encoding="UTF-8" standalone="no"?>
<!DOCTYPE svg PUBLIC "-//W3C//DTD SVG 1.1//EN"
 "http://www.w3.org/Graphics/SVG/1.1/DTD/svg11.dtd">
<!-- Generated by graphviz version 3.0.0 (20220413.0242)
 -->
<!-- Title: denoptim.graph.EdgeQuery Pages: 1 -->
<svg width="559pt" height="251pt"
 viewBox="0.00 0.00 558.50 251.00" xmlns="http://www.w3.org/2000/svg" xmlns:xlink="http://www.w3.org/1999/xlink">
<g id="graph0" class="graph" transform="scale(1 1) rotate(0) translate(4 247)">
<title>denoptim.graph.EdgeQuery</title>
<polygon fill="white" stroke="transparent" points="-4,4 -4,-247 554.5,-247 554.5,4 -4,4"/>
<!-- Node1 -->
<g id="node1" class="node">
<title>Node1</title>
<g id="a_node1"><a xlink:title="A query for edges: a list of properties that target edges should possess in order to match this query...">
<polygon fill="#bfbfbf" stroke="black" points="319.5,-0.5 319.5,-19.5 451.5,-19.5 451.5,-0.5 319.5,-0.5"/>
<text text-anchor="middle" x="385.5" y="-7.5" font-family="Helvetica,sans-Serif" font-size="10.00">denoptim.graph.EdgeQuery</text>
</a>
</g>
</g>
<!-- Node2 -->
<g id="node2" class="node">
<title>Node2</title>
<g id="a_node2"><a xlink:href="enumdenoptim_1_1graph_1_1_edge_1_1_bond_type.html" target="_top" xlink:title="Possible chemical bond types an edge can represent.">
<polygon fill="white" stroke="black" points="398.5,-156.5 398.5,-175.5 550.5,-175.5 550.5,-156.5 398.5,-156.5"/>
<text text-anchor="middle" x="474.5" y="-163.5" font-family="Helvetica,sans-Serif" font-size="10.00">denoptim.graph.Edge.BondType</text>
</a>
</g>
</g>
<!-- Node2&#45;&gt;Node1 -->
<g id="edge1" class="edge">
<title>Node2&#45;&gt;Node1</title>
<path fill="none" stroke="#9a32cd" stroke-dasharray="5,2" d="M472.63,-146.12C471.22,-136.75 468.76,-125.46 464.5,-116 446.42,-75.86 410.7,-36.56 394.21,-19.65"/>
<polygon fill="#9a32cd" stroke="#9a32cd" points="469.2,-146.83 473.89,-156.33 476.14,-145.97 469.2,-146.83"/>
<text text-anchor="middle" x="476" y="-85.5" font-family="Helvetica,sans-Serif" font-size="10.00"> bondType</text>
</g>
<!-- Node4 -->
<g id="node4" class="node">
<title>Node4</title>
<g id="a_node4"><a xlink:href="classdenoptim_1_1graph_1_1_a_p_class.html" target="_top" xlink:title=" ">
<polygon fill="white" stroke="black" points="230,-78.5 230,-97.5 353,-97.5 353,-78.5 230,-78.5"/>
<text text-anchor="middle" x="291.5" y="-85.5" font-family="Helvetica,sans-Serif" font-size="10.00">denoptim.graph.APClass</text>
</a>
</g>
</g>
<!-- Node2&#45;&gt;Node4 -->
<g id="edge7" class="edge">
<title>Node2&#45;&gt;Node4</title>
<path fill="none" stroke="#9a32cd" stroke-dasharray="5,2" d="M434.75,-153.07C424.18,-149.06 413.06,-144.04 403.5,-138 391.54,-130.45 392.71,-123.14 380.5,-116 366.28,-107.69 349.26,-101.72 333.93,-97.54"/>
<polygon fill="#9a32cd" stroke="#9a32cd" points="433.64,-156.39 444.23,-156.47 436,-149.8 433.64,-156.39"/>
<text text-anchor="middle" x="434" y="-130" font-family="Helvetica,sans-Serif" font-size="10.00"> DEFAULTBT</text>
<text text-anchor="middle" x="434" y="-119" font-family="Helvetica,sans-Serif" font-size="10.00">bndTyp</text>
</g>
<!-- Node3 -->
<g id="node3" class="node">
<title>Node3</title>
<g id="a_node3"><a xlink:title=" ">
<polygon fill="white" stroke="black" points="453.5,-223.5 453.5,-242.5 495.5,-242.5 495.5,-223.5 453.5,-223.5"/>
<text text-anchor="middle" x="474.5" y="-230.5" font-family="Helvetica,sans-Serif" font-size="10.00">IBond</text>
</a>
</g>
</g>
<!-- Node3&#45;&gt;Node2 -->
<g id="edge2" class="edge">
<title>Node3&#45;&gt;Node2</title>
<path fill="none" stroke="#9a32cd" stroke-dasharray="5,2" d="M474.5,-213.04C474.5,-200.67 474.5,-185.12 474.5,-175.63"/>
<polygon fill="#9a32cd" stroke="#9a32cd" points="471,-213.23 474.5,-223.23 478,-213.23 471,-213.23"/>
<text text-anchor="middle" x="481" y="-197" font-family="Helvetica,sans-Serif" font-size="10.00"> bo</text>
</g>
<!-- Node4&#45;&gt;Node1 -->
<g id="edge3" class="edge">
<title>Node4&#45;&gt;Node1</title>
<path fill="none" stroke="#9a32cd" stroke-dasharray="5,2" d="M310.13,-71.94C329.49,-56.28 359.12,-32.33 374.84,-19.62"/>
<polygon fill="#9a32cd" stroke="#9a32cd" points="307.86,-69.27 302.28,-78.28 312.26,-74.72 307.86,-69.27"/>
<text text-anchor="middle" x="368" y="-52" font-family="Helvetica,sans-Serif" font-size="10.00"> srcAPC</text>
<text text-anchor="middle" x="368" y="-41" font-family="Helvetica,sans-Serif" font-size="10.00">trgAPC</text>
</g>
<!-- Node5 -->
<g id="node5" class="node">
<title>Node5</title>
<g id="a_node5"><a xlink:title=" ">
<polygon fill="white" stroke="black" points="0,-156.5 0,-175.5 59,-175.5 59,-156.5 0,-156.5"/>
<text text-anchor="middle" x="29.5" y="-163.5" font-family="Helvetica,sans-Serif" font-size="10.00">Cloneable</text>
</a>
</g>
</g>
<!-- Node5&#45;&gt;Node4 -->
<g id="edge4" class="edge">
<title>Node5&#45;&gt;Node4</title>
<path fill="none" stroke="midnightblue" d="M66.81,-153.49C99.79,-143.38 149.25,-128.4 192.5,-116 214.76,-109.62 239.95,-102.76 259.34,-97.55"/>
<polygon fill="midnightblue" stroke="midnightblue" points="65.66,-150.18 57.12,-156.46 67.71,-156.87 65.66,-150.18"/>
</g>
<!-- Node6 -->
<g id="node6" class="node">
<title>Node6</title>
<g id="a_node6"><a xlink:title=" ">
<polygon fill="white" stroke="black" points="77,-156.5 77,-175.5 200,-175.5 200,-156.5 77,-156.5"/>
<text text-anchor="middle" x="138.5" y="-163.5" font-family="Helvetica,sans-Serif" font-size="10.00">Comparable&lt; APClass &gt;</text>
</a>
</g>
</g>
<!-- Node6&#45;&gt;Node4 -->
<g id="edge5" class="edge">
<title>Node6&#45;&gt;Node4</title>
<path fill="none" stroke="midnightblue" d="M164.76,-151.96C196.02,-136.43 247.34,-110.94 274.07,-97.66"/>
<polygon fill="midnightblue" stroke="midnightblue" points="163.15,-148.85 155.75,-156.43 166.27,-155.12 163.15,-148.85"/>
</g>
<!-- Node7 -->
<g id="node7" class="node">
<title>Node7</title>
<g id="a_node7"><a xlink:title=" ">
<polygon fill="white" stroke="black" points="218,-156.5 218,-175.5 373,-175.5 373,-156.5 218,-156.5"/>
<text text-anchor="middle" x="295.5" y="-163.5" font-family="Helvetica,sans-Serif" font-size="10.00">Set&lt; denoptim.graph.APClass &gt;</text>
</a>
</g>
</g>
<!-- Node7&#45;&gt;Node4 -->
<g id="edge6" class="edge">
<title>Node7&#45;&gt;Node4</title>
<path fill="none" stroke="#9a32cd" stroke-dasharray="5,2" d="M293.16,-145.84C292.9,-143.21 292.67,-140.54 292.5,-138 291.58,-123.91 291.43,-107.49 291.44,-97.68"/>
<polygon fill="#9a32cd" stroke="#9a32cd" points="289.7,-146.47 294.3,-156.02 296.66,-145.69 289.7,-146.47"/>
<text text-anchor="middle" x="336.5" y="-130" font-family="Helvetica,sans-Serif" font-size="10.00"> RCAAPCLASSSET</text>
<text text-anchor="middle" x="336.5" y="-119" font-family="Helvetica,sans-Serif" font-size="10.00">uniqueAPClasses</text>
</g>
</g>
</svg>
