<?xml version="1.0" encoding="UTF-8" standalone="no"?>
<!DOCTYPE svg PUBLIC "-//W3C//DTD SVG 1.1//EN"
 "http://www.w3.org/Graphics/SVG/1.1/DTD/svg11.dtd">
<!-- Generated by graphviz version 3.0.0 (20220413.0242)
 -->
<!-- Title: denoptim.graph.AttachmentPoint Pages: 1 -->
<svg width="1311pt" height="1109pt"
 viewBox="0.00 0.00 1311.00 1109.28" xmlns="http://www.w3.org/2000/svg" xmlns:xlink="http://www.w3.org/1999/xlink">
<g id="graph0" class="graph" transform="scale(1 1) rotate(0) translate(4 1105.28)">
<title>denoptim.graph.AttachmentPoint</title>
<polygon fill="white" stroke="transparent" points="-4,4 -4,-1105.28 1307,-1105.28 1307,4 -4,4"/>
<!-- Node1 -->
<g id="node1" class="node">
<title>Node1</title>
<g id="a_node1"><a xlink:title="An attachment point (AP) is a possibility to attach a Vertex onto the vertex holding the AP (i....">
<polygon fill="#bfbfbf" stroke="black" points="1168,-726.28 1168,-756.28 1303,-756.28 1303,-726.28 1168,-726.28"/>
<text text-anchor="start" x="1176" y="-744.28" font-family="Helvetica,sans-Serif" font-size="10.00">denoptim.graph.Attachment</text>
<text text-anchor="middle" x="1235.5" y="-733.28" font-family="Helvetica,sans-Serif" font-size="10.00">Point</text>
</a>
</g>
</g>
<!-- Node2 -->
<g id="node2" class="node">
<title>Node2</title>
<g id="a_node2"><a xlink:title=" ">
<polygon fill="white" stroke="black" points="143.5,-636.78 143.5,-655.78 202.5,-655.78 202.5,-636.78 143.5,-636.78"/>
<text text-anchor="middle" x="173" y="-643.78" font-family="Helvetica,sans-Serif" font-size="10.00">Cloneable</text>
</a>
</g>
</g>
<!-- Node2&#45;&gt;Node1 -->
<g id="edge1" class="edge">
<title>Node2&#45;&gt;Node1</title>
<path fill="none" stroke="midnightblue" d="M212.71,-650.24C270.58,-655.81 383.1,-665.28 479,-665.28 479,-665.28 479,-665.28 1024,-665.28 1095.1,-665.28 1172.12,-704.12 1210.26,-726.26"/>
<polygon fill="midnightblue" stroke="midnightblue" points="212.85,-646.74 202.56,-649.25 212.17,-653.7 212.85,-646.74"/>
</g>
<!-- Node4 -->
<g id="node4" class="node">
<title>Node4</title>
<g id="a_node4"><a xlink:href="classdenoptim_1_1graph_1_1_a_p_class.html" target="_top" xlink:title=" ">
<polygon fill="white" stroke="black" points="418.5,-959.78 418.5,-978.78 541.5,-978.78 541.5,-959.78 418.5,-959.78"/>
<text text-anchor="middle" x="480" y="-966.78" font-family="Helvetica,sans-Serif" font-size="10.00">denoptim.graph.APClass</text>
</a>
</g>
</g>
<!-- Node2&#45;&gt;Node4 -->
<g id="edge4" class="edge">
<title>Node2&#45;&gt;Node4</title>
<path fill="none" stroke="midnightblue" d="M180.13,-665.88C192.6,-703.23 223.96,-785.67 273,-839.28 327.38,-898.72 414.9,-941.69 456.12,-959.78"/>
<polygon fill="midnightblue" stroke="midnightblue" points="183.41,-664.63 176.99,-656.2 176.75,-666.8 183.41,-664.63"/>
</g>
<!-- Node10 -->
<g id="node10" class="node">
<title>Node10</title>
<g id="a_node10"><a xlink:href="classdenoptim_1_1graph_1_1_vertex.html" target="_top" xlink:title="A vertex is a data structure that has an identity and holds a list of AttachmentPoints.">
<polygon fill="white" stroke="black" points="423.5,-477.78 423.5,-496.78 536.5,-496.78 536.5,-477.78 423.5,-477.78"/>
<text text-anchor="middle" x="480" y="-484.78" font-family="Helvetica,sans-Serif" font-size="10.00">denoptim.graph.Vertex</text>
</a>
</g>
</g>
<!-- Node2&#45;&gt;Node10 -->
<g id="edge11" class="edge">
<title>Node2&#45;&gt;Node10</title>
<path fill="none" stroke="midnightblue" d="M186.3,-628.54C203.18,-605.57 235.69,-565.93 273,-544.28 316.26,-519.17 333.81,-529.67 382,-516.28 404.19,-510.12 429.07,-502.67 448.07,-496.86"/>
<polygon fill="midnightblue" stroke="midnightblue" points="183.42,-626.56 180.43,-636.72 189.11,-630.63 183.42,-626.56"/>
</g>
<!-- Node11 -->
<g id="node11" class="node">
<title>Node11</title>
<g id="a_node11"><a xlink:href="classdenoptim_1_1graph_1_1_d_graph.html" target="_top" xlink:title="Container for the list of vertices and the edges that connect them.">
<polygon fill="white" stroke="black" points="964,-261.78 964,-280.78 1082,-280.78 1082,-261.78 964,-261.78"/>
<text text-anchor="middle" x="1023" y="-268.78" font-family="Helvetica,sans-Serif" font-size="10.00">denoptim.graph.DGraph</text>
</a>
</g>
</g>
<!-- Node2&#45;&gt;Node11 -->
<g id="edge13" class="edge">
<title>Node2&#45;&gt;Node11</title>
<path fill="none" stroke="midnightblue" d="M208.1,-633.21C226.99,-626.41 251.03,-618.45 273,-613.28 526.42,-553.65 606.59,-615.29 853,-531.28 895.58,-516.76 916.47,-518.98 941,-481.28 984.85,-413.89 912.74,-367.04 959,-301.28 965.62,-291.87 976,-285.31 986.44,-280.78"/>
<polygon fill="midnightblue" stroke="midnightblue" points="206.64,-630.02 198.46,-636.74 209.05,-636.59 206.64,-630.02"/>
</g>
<!-- Node17 -->
<g id="node17" class="node">
<title>Node17</title>
<g id="a_node17"><a xlink:href="classdenoptim_1_1graph_1_1_candidate.html" target="_top" xlink:title="A candidate is the combination of a denoptim graph with molecular representation and may include also...">
<polygon fill="white" stroke="black" points="1171.5,-284.78 1171.5,-303.78 1299.5,-303.78 1299.5,-284.78 1171.5,-284.78"/>
<text text-anchor="middle" x="1235.5" y="-291.78" font-family="Helvetica,sans-Serif" font-size="10.00">denoptim.graph.Candidate</text>
</a>
</g>
</g>
<!-- Node2&#45;&gt;Node17 -->
<g id="edge21" class="edge">
<title>Node2&#45;&gt;Node17</title>
<path fill="none" stroke="midnightblue" d="M212.71,-642.32C270.58,-636.75 383.1,-627.28 479,-627.28 479,-627.28 479,-627.28 907,-627.28 1093.5,-627.28 1209.24,-358.49 1230.82,-303.89"/>
<polygon fill="midnightblue" stroke="midnightblue" points="212.17,-638.86 202.56,-643.31 212.85,-645.82 212.17,-638.86"/>
</g>
<!-- Node33 -->
<g id="node33" class="node">
<title>Node33</title>
<g id="a_node33"><a xlink:href="classdenoptim_1_1graph_1_1_attachment_point.html" target="_top" xlink:title="An attachment point (AP) is a possibility to attach a Vertex onto the vertex holding the AP (i....">
<polygon fill="white" stroke="black" points="696,-822.28 696,-852.28 831,-852.28 831,-822.28 696,-822.28"/>
<text text-anchor="start" x="704" y="-840.28" font-family="Helvetica,sans-Serif" font-size="10.00">denoptim.graph.Attachment</text>
<text text-anchor="middle" x="763.5" y="-829.28" font-family="Helvetica,sans-Serif" font-size="10.00">Point</text>
</a>
</g>
</g>
<!-- Node2&#45;&gt;Node33 -->
<g id="edge41" class="edge">
<title>Node2&#45;&gt;Node33</title>
<path fill="none" stroke="midnightblue" d="M193.33,-662.88C230.62,-693.99 316.25,-761 400,-795.28 497.33,-835.12 620.86,-840.95 695.68,-840.13"/>
<polygon fill="midnightblue" stroke="midnightblue" points="195.22,-659.89 185.32,-656.12 190.71,-665.25 195.22,-659.89"/>
</g>
<!-- Node3 -->
<g id="node3" class="node">
<title>Node3</title>
<g id="a_node3"><a xlink:title=" ">
<polygon fill="white" stroke="black" points="401,-705.78 401,-724.78 559,-724.78 559,-705.78 401,-705.78"/>
<text text-anchor="middle" x="480" y="-712.78" font-family="Helvetica,sans-Serif" font-size="10.00">Comparable&lt; AttachmentPoint &gt;</text>
</a>
</g>
</g>
<!-- Node3&#45;&gt;Node1 -->
<g id="edge2" class="edge">
<title>Node3&#45;&gt;Node1</title>
<path fill="none" stroke="midnightblue" d="M569.17,-712.2C697.4,-708.78 942.68,-706.22 1150,-727.28 1155.77,-727.87 1161.74,-728.6 1167.72,-729.42"/>
<polygon fill="midnightblue" stroke="midnightblue" points="568.92,-708.71 559.02,-712.48 569.11,-715.71 568.92,-708.71"/>
</g>
<!-- Node3&#45;&gt;Node33 -->
<g id="edge42" class="edge">
<title>Node3&#45;&gt;Node33</title>
<path fill="none" stroke="midnightblue" d="M511.64,-729.43C526.7,-736.92 544.83,-746.73 560,-757.28 568.79,-763.39 568.77,-767.87 578,-773.28 584.27,-776.96 664.94,-804.43 717.51,-822.17"/>
<polygon fill="midnightblue" stroke="midnightblue" points="512.77,-726.09 502.25,-724.87 509.71,-732.39 512.77,-726.09"/>
</g>
<!-- Node4&#45;&gt;Node1 -->
<g id="edge3" class="edge">
<title>Node4&#45;&gt;Node1</title>
<path fill="none" stroke="#9a32cd" stroke-dasharray="5,2" d="M522.18,-981.62C634.61,-1012.64 951.64,-1081.99 1150,-944.28 1214.6,-899.43 1229.95,-795.31 1233.48,-756.35"/>
<polygon fill="#9a32cd" stroke="#9a32cd" points="522.83,-978.17 512.25,-978.83 520.94,-984.91 522.83,-978.17"/>
<text text-anchor="middle" x="906" y="-1029.28" font-family="Helvetica,sans-Serif" font-size="10.00"> apClass</text>
</g>
<!-- Node4&#45;&gt;Node33 -->
<g id="edge43" class="edge">
<title>Node4&#45;&gt;Node33</title>
<path fill="none" stroke="#9a32cd" stroke-dasharray="5,2" d="M510.97,-955.22C564.39,-930.18 675.56,-878.05 730.44,-852.31"/>
<polygon fill="#9a32cd" stroke="#9a32cd" points="509.27,-952.16 501.7,-959.57 512.24,-958.5 509.27,-952.16"/>
<text text-anchor="middle" x="617" y="-926.28" font-family="Helvetica,sans-Serif" font-size="10.00"> apClass</text>
</g>
<!-- Node5 -->
<g id="node5" class="node">
<title>Node5</title>
<g id="a_node5"><a xlink:title=" ">
<polygon fill="white" stroke="black" points="111.5,-990.78 111.5,-1009.78 234.5,-1009.78 234.5,-990.78 111.5,-990.78"/>
<text text-anchor="middle" x="173" y="-997.78" font-family="Helvetica,sans-Serif" font-size="10.00">Comparable&lt; APClass &gt;</text>
</a>
</g>
</g>
<!-- Node5&#45;&gt;Node4 -->
<g id="edge5" class="edge">
<title>Node5&#45;&gt;Node4</title>
<path fill="none" stroke="midnightblue" d="M244.69,-997.39C285.02,-995.27 336.45,-991.79 382,-986.28 397.79,-984.37 414.9,-981.61 430.3,-978.86"/>
<polygon fill="midnightblue" stroke="midnightblue" points="244.49,-993.89 234.69,-997.9 244.85,-1000.89 244.49,-993.89"/>
</g>
<!-- Node6 -->
<g id="node6" class="node">
<title>Node6</title>
<g id="a_node6"><a xlink:title=" ">
<polygon fill="white" stroke="black" points="95.5,-952.78 95.5,-971.78 250.5,-971.78 250.5,-952.78 95.5,-952.78"/>
<text text-anchor="middle" x="173" y="-959.78" font-family="Helvetica,sans-Serif" font-size="10.00">Set&lt; denoptim.graph.APClass &gt;</text>
</a>
</g>
</g>
<!-- Node6&#45;&gt;Node4 -->
<g id="edge6" class="edge">
<title>Node6&#45;&gt;Node4</title>
<path fill="none" stroke="#9a32cd" stroke-dasharray="5,2" d="M260.9,-962.3C298.19,-962.52 342.24,-963.06 382,-964.28 393.8,-964.64 406.4,-965.18 418.48,-965.77"/>
<polygon fill="#9a32cd" stroke="#9a32cd" points="260.59,-958.8 250.57,-962.25 260.56,-965.8 260.59,-958.8"/>
<text text-anchor="middle" x="327.5" y="-978.28" font-family="Helvetica,sans-Serif" font-size="10.00"> RCAAPCLASSSET</text>
<text text-anchor="middle" x="327.5" y="-967.28" font-family="Helvetica,sans-Serif" font-size="10.00">uniqueAPClasses</text>
</g>
<!-- Node7 -->
<g id="node7" class="node">
<title>Node7</title>
<g id="a_node7"><a xlink:href="enumdenoptim_1_1graph_1_1_edge_1_1_bond_type.html" target="_top" xlink:title="Possible chemical bond types an edge can represent.">
<polygon fill="white" stroke="black" points="97,-1044.78 97,-1063.78 249,-1063.78 249,-1044.78 97,-1044.78"/>
<text text-anchor="middle" x="173" y="-1051.78" font-family="Helvetica,sans-Serif" font-size="10.00">denoptim.graph.Edge.BondType</text>
</a>
</g>
</g>
<!-- Node7&#45;&gt;Node4 -->
<g id="edge7" class="edge">
<title>Node7&#45;&gt;Node4</title>
<path fill="none" stroke="#9a32cd" stroke-dasharray="5,2" d="M231.73,-1042.69C273.76,-1033.77 331.86,-1020.43 382,-1005.28 407.62,-997.54 436.28,-986.61 455.76,-978.83"/>
<polygon fill="#9a32cd" stroke="#9a32cd" points="231.01,-1039.27 221.95,-1044.75 232.45,-1046.12 231.01,-1039.27"/>
<text text-anchor="middle" x="327.5" y="-1047.28" font-family="Helvetica,sans-Serif" font-size="10.00"> DEFAULTBT</text>
<text text-anchor="middle" x="327.5" y="-1036.28" font-family="Helvetica,sans-Serif" font-size="10.00">bndTyp</text>
</g>
<!-- Node32 -->
<g id="node32" class="node">
<title>Node32</title>
<g id="a_node32"><a xlink:href="classdenoptim_1_1graph_1_1_edge.html" target="_top" xlink:title="This class represents the edge between two vertices.">
<polygon fill="white" stroke="black" points="969.5,-827.78 969.5,-846.78 1076.5,-846.78 1076.5,-827.78 969.5,-827.78"/>
<text text-anchor="middle" x="1023" y="-834.78" font-family="Helvetica,sans-Serif" font-size="10.00">denoptim.graph.Edge</text>
</a>
</g>
</g>
<!-- Node7&#45;&gt;Node32 -->
<g id="edge48" class="edge">
<title>Node7&#45;&gt;Node32</title>
<path fill="none" stroke="#9a32cd" stroke-dasharray="5,2" d="M227.81,-1065.72C361.71,-1091 715.31,-1137.9 941,-984.28 991.34,-950.01 1013.47,-873.72 1019.9,-846.86"/>
<polygon fill="#9a32cd" stroke="#9a32cd" points="228.28,-1062.25 217.8,-1063.79 226.96,-1069.12 228.28,-1062.25"/>
<text text-anchor="middle" x="617" y="-1093.28" font-family="Helvetica,sans-Serif" font-size="10.00"> bondType</text>
</g>
<!-- Node8 -->
<g id="node8" class="node">
<title>Node8</title>
<g id="a_node8"><a xlink:title=" ">
<polygon fill="white" stroke="black" points="0,-1044.78 0,-1063.78 42,-1063.78 42,-1044.78 0,-1044.78"/>
<text text-anchor="middle" x="21" y="-1051.78" font-family="Helvetica,sans-Serif" font-size="10.00">IBond</text>
</a>
</g>
</g>
<!-- Node8&#45;&gt;Node7 -->
<g id="edge8" class="edge">
<title>Node8&#45;&gt;Node7</title>
<path fill="none" stroke="#9a32cd" stroke-dasharray="5,2" d="M52.4,-1054.28C65.37,-1054.28 81.12,-1054.28 96.89,-1054.28"/>
<polygon fill="#9a32cd" stroke="#9a32cd" points="52.23,-1050.78 42.23,-1054.28 52.23,-1057.78 52.23,-1050.78"/>
<text text-anchor="middle" x="66.5" y="-1057.28" font-family="Helvetica,sans-Serif" font-size="10.00"> bo</text>
</g>
<!-- Node9 -->
<g id="node9" class="node">
<title>Node9</title>
<g id="a_node9"><a xlink:title=" ">
<polygon fill="white" stroke="black" points="455,-766.78 455,-785.78 505,-785.78 505,-766.78 455,-766.78"/>
<text text-anchor="middle" x="480" y="-773.78" font-family="Helvetica,sans-Serif" font-size="10.00">Point3d</text>
</a>
</g>
</g>
<!-- Node9&#45;&gt;Node1 -->
<g id="edge9" class="edge">
<title>Node9&#45;&gt;Node1</title>
<path fill="none" stroke="#9a32cd" stroke-dasharray="5,2" d="M510.89,-762.87C529.72,-755.16 554.78,-746.25 578,-742.28 689.78,-723.17 1024.48,-733.17 1167.98,-738.56"/>
<polygon fill="#9a32cd" stroke="#9a32cd" points="509.51,-759.65 501.65,-766.76 512.23,-766.1 509.51,-759.65"/>
<text text-anchor="middle" x="906" y="-735.28" font-family="Helvetica,sans-Serif" font-size="10.00"> dirVec</text>
</g>
<!-- Node9&#45;&gt;Node33 -->
<g id="edge44" class="edge">
<title>Node9&#45;&gt;Node33</title>
<path fill="none" stroke="#9a32cd" stroke-dasharray="5,2" d="M515.08,-784.14C533.66,-788.39 557.08,-793.7 578,-798.28 617.02,-806.83 660.75,-816.09 695.84,-823.44"/>
<polygon fill="#9a32cd" stroke="#9a32cd" points="515.82,-780.72 505.29,-781.89 514.26,-787.54 515.82,-780.72"/>
<text text-anchor="middle" x="617" y="-818.28" font-family="Helvetica,sans-Serif" font-size="10.00"> dirVec</text>
</g>
<!-- Node10&#45;&gt;Node1 -->
<g id="edge10" class="edge">
<title>Node10&#45;&gt;Node1</title>
<path fill="none" stroke="#9a32cd" stroke-dasharray="5,2" d="M532.9,-499.15C685.33,-534.13 1122.75,-635.36 1150,-651.28 1182.57,-670.31 1210.3,-705.71 1224.44,-725.98"/>
<polygon fill="#9a32cd" stroke="#9a32cd" points="533.38,-495.67 522.85,-496.85 531.82,-502.49 533.38,-495.67"/>
<text text-anchor="middle" x="906" y="-597.28" font-family="Helvetica,sans-Serif" font-size="10.00"> owner</text>
</g>
<!-- Node20 -->
<g id="node20" class="node">
<title>Node20</title>
<g id="a_node20"><a xlink:href="classdenoptim_1_1graph_1_1_template.html" target="_top" xlink:title=" ">
<polygon fill="white" stroke="black" points="701,-67.78 701,-86.78 826,-86.78 826,-67.78 701,-67.78"/>
<text text-anchor="middle" x="763.5" y="-74.78" font-family="Helvetica,sans-Serif" font-size="10.00">denoptim.graph.Template</text>
</a>
</g>
</g>
<!-- Node10&#45;&gt;Node20 -->
<g id="edge25" class="edge">
<title>Node10&#45;&gt;Node20</title>
<path fill="none" stroke="midnightblue" d="M487.09,-467.89C500.32,-427.16 534.07,-330.45 578,-257.28 606.3,-210.15 630.8,-210.14 656,-161.28 669.74,-134.64 652.19,-116.85 674,-96.28 681.43,-89.27 690.79,-84.6 700.63,-81.52"/>
<polygon fill="midnightblue" stroke="midnightblue" points="483.69,-467.03 483.98,-477.62 490.36,-469.16 483.69,-467.03"/>
</g>
<!-- Node10&#45;&gt;Node33 -->
<g id="edge45" class="edge">
<title>Node10&#45;&gt;Node33</title>
<path fill="none" stroke="#9a32cd" stroke-dasharray="5,2" d="M495.2,-504.93C544.09,-565.72 704.96,-765.73 750.43,-822.27"/>
<polygon fill="#9a32cd" stroke="#9a32cd" points="497.82,-502.6 488.82,-497.01 492.36,-506.99 497.82,-502.6"/>
<text text-anchor="middle" x="617" y="-707.28" font-family="Helvetica,sans-Serif" font-size="10.00"> owner</text>
</g>
<!-- Node11&#45;&gt;Node10 -->
<g id="edge12" class="edge">
<title>Node11&#45;&gt;Node10</title>
<path fill="none" stroke="#9a32cd" stroke-dasharray="5,2" d="M953.75,-266.88C866.85,-262.33 722.17,-258.59 674,-280.28 576.78,-324.06 505.7,-442.35 486.3,-477.38"/>
<polygon fill="#9a32cd" stroke="#9a32cd" points="953.62,-270.38 963.8,-267.42 954,-263.39 953.62,-270.38"/>
<text text-anchor="middle" x="763.5" y="-283.28" font-family="Helvetica,sans-Serif" font-size="10.00"> owner</text>
</g>
<!-- Node11&#45;&gt;Node17 -->
<g id="edge22" class="edge">
<title>Node11&#45;&gt;Node17</title>
<path fill="none" stroke="#9a32cd" stroke-dasharray="5,2" d="M1092.04,-278.71C1117.55,-281.5 1146.41,-284.65 1171.45,-287.39"/>
<polygon fill="#9a32cd" stroke="#9a32cd" points="1092.4,-275.23 1082.08,-277.63 1091.64,-282.19 1092.4,-275.23"/>
<text text-anchor="middle" x="1127.5" y="-288.28" font-family="Helvetica,sans-Serif" font-size="10.00"> graph</text>
</g>
<!-- Node11&#45;&gt;Node20 -->
<g id="edge26" class="edge">
<title>Node11&#45;&gt;Node20</title>
<path fill="none" stroke="#9a32cd" stroke-dasharray="5,2" d="M1015.25,-251.98C1004.09,-222.64 979.17,-166.69 941,-133.28 909.07,-105.33 863.14,-91.31 826.14,-84.3"/>
<polygon fill="#9a32cd" stroke="#9a32cd" points="1012.01,-253.31 1018.74,-261.5 1018.58,-250.9 1012.01,-253.31"/>
<text text-anchor="middle" x="906" y="-136.28" font-family="Helvetica,sans-Serif" font-size="10.00"> innerGraph</text>
</g>
<!-- Node12 -->
<g id="node12" class="node">
<title>Node12</title>
<g id="a_node12"><a xlink:title=" ">
<polygon fill="white" stroke="black" points="697.5,-350.28 697.5,-380.28 829.5,-380.28 829.5,-350.28 697.5,-350.28"/>
<text text-anchor="start" x="705.5" y="-368.28" font-family="Helvetica,sans-Serif" font-size="10.00">ArrayList&lt; denoptim.graph.</text>
<text text-anchor="middle" x="763.5" y="-357.28" font-family="Helvetica,sans-Serif" font-size="10.00">Vertex &gt;</text>
</a>
</g>
</g>
<!-- Node12&#45;&gt;Node11 -->
<g id="edge14" class="edge">
<title>Node12&#45;&gt;Node11</title>
<path fill="none" stroke="#9a32cd" stroke-dasharray="5,2" d="M828.5,-347.47C836.76,-345.09 845.09,-342.66 853,-340.28 892.31,-328.48 903.66,-329.33 941,-312.28 949.53,-308.39 950.76,-305.75 959,-301.28 972.53,-293.95 988.14,-286.51 1000.44,-280.87"/>
<polygon fill="#9a32cd" stroke="#9a32cd" points="827.52,-344.11 818.87,-350.22 829.45,-350.84 827.52,-344.11"/>
<text text-anchor="middle" x="906" y="-338.28" font-family="Helvetica,sans-Serif" font-size="10.00"> gVertices</text>
</g>
<!-- Node13 -->
<g id="node13" class="node">
<title>Node13</title>
<g id="a_node13"><a xlink:title=" ">
<polygon fill="white" stroke="black" points="697.5,-301.28 697.5,-331.28 829.5,-331.28 829.5,-301.28 697.5,-301.28"/>
<text text-anchor="start" x="705.5" y="-319.28" font-family="Helvetica,sans-Serif" font-size="10.00">ArrayList&lt; denoptim.graph.</text>
<text text-anchor="middle" x="763.5" y="-308.28" font-family="Helvetica,sans-Serif" font-size="10.00">Edge &gt;</text>
</a>
</g>
</g>
<!-- Node13&#45;&gt;Node11 -->
<g id="edge15" class="edge">
<title>Node13&#45;&gt;Node11</title>
<path fill="none" stroke="#9a32cd" stroke-dasharray="5,2" d="M839.75,-303.13C880.71,-295.97 930.46,-287.28 967.63,-280.78"/>
<polygon fill="#9a32cd" stroke="#9a32cd" points="839.06,-299.7 829.81,-304.87 840.26,-306.59 839.06,-299.7"/>
<text text-anchor="middle" x="906" y="-300.28" font-family="Helvetica,sans-Serif" font-size="10.00"> gEdges</text>
</g>
<!-- Node14 -->
<g id="node14" class="node">
<title>Node14</title>
<g id="a_node14"><a xlink:title=" ">
<polygon fill="white" stroke="black" points="697.5,-204.28 697.5,-234.28 829.5,-234.28 829.5,-204.28 697.5,-204.28"/>
<text text-anchor="start" x="705.5" y="-222.28" font-family="Helvetica,sans-Serif" font-size="10.00">ArrayList&lt; denoptim.graph.</text>
<text text-anchor="middle" x="763.5" y="-211.28" font-family="Helvetica,sans-Serif" font-size="10.00">Ring &gt;</text>
</a>
</g>
</g>
<!-- Node14&#45;&gt;Node11 -->
<g id="edge16" class="edge">
<title>Node14&#45;&gt;Node11</title>
<path fill="none" stroke="#9a32cd" stroke-dasharray="5,2" d="M839.91,-228.32C871.36,-232.74 908.15,-238.74 941,-246.28 959.07,-250.43 978.98,-256.55 994.53,-261.7"/>
<polygon fill="#9a32cd" stroke="#9a32cd" points="840.28,-224.84 829.9,-226.94 839.33,-231.77 840.28,-224.84"/>
<text text-anchor="middle" x="906" y="-249.28" font-family="Helvetica,sans-Serif" font-size="10.00"> gRings</text>
</g>
<!-- Node15 -->
<g id="node15" class="node">
<title>Node15</title>
<g id="a_node15"><a xlink:title=" ">
<polygon fill="white" stroke="black" points="686,-155.28 686,-185.28 841,-185.28 841,-155.28 686,-155.28"/>
<text text-anchor="start" x="694" y="-173.28" font-family="Helvetica,sans-Serif" font-size="10.00">ArrayList&lt; denoptim.graph.rings.</text>
<text text-anchor="middle" x="763.5" y="-162.28" font-family="Helvetica,sans-Serif" font-size="10.00">ClosableChain &gt;</text>
</a>
</g>
</g>
<!-- Node15&#45;&gt;Node11 -->
<g id="edge17" class="edge">
<title>Node15&#45;&gt;Node11</title>
<path fill="none" stroke="#9a32cd" stroke-dasharray="5,2" d="M847.99,-187.87C878.02,-195.64 911.7,-206.06 941,-219.28 967.05,-231.03 994.44,-250.28 1009.76,-261.77"/>
<polygon fill="#9a32cd" stroke="#9a32cd" points="848.51,-184.4 837.96,-185.34 846.8,-191.18 848.51,-184.4"/>
<text text-anchor="middle" x="906" y="-222.28" font-family="Helvetica,sans-Serif" font-size="10.00"> closableChains</text>
</g>
<!-- Node16 -->
<g id="node16" class="node">
<title>Node16</title>
<g id="a_node16"><a xlink:title=" ">
<polygon fill="white" stroke="black" points="697.5,-106.28 697.5,-136.28 829.5,-136.28 829.5,-106.28 697.5,-106.28"/>
<text text-anchor="start" x="705.5" y="-124.28" font-family="Helvetica,sans-Serif" font-size="10.00">ArrayList&lt; denoptim.graph.</text>
<text text-anchor="middle" x="763.5" y="-113.28" font-family="Helvetica,sans-Serif" font-size="10.00">SymmetricSet &gt;</text>
</a>
</g>
</g>
<!-- Node16&#45;&gt;Node11 -->
<g id="edge18" class="edge">
<title>Node16&#45;&gt;Node11</title>
<path fill="none" stroke="#9a32cd" stroke-dasharray="5,2" d="M839.52,-136.64C872.68,-145.89 910.89,-160.09 941,-181.28 974.01,-204.51 1003.07,-243.52 1015.53,-261.57"/>
<polygon fill="#9a32cd" stroke="#9a32cd" points="840.43,-133.26 829.86,-134.05 838.61,-140.02 840.43,-133.26"/>
<text text-anchor="middle" x="906" y="-184.28" font-family="Helvetica,sans-Serif" font-size="10.00"> symVertices</text>
</g>
<!-- Node17&#45;&gt;Node11 -->
<g id="edge19" class="edge">
<title>Node17&#45;&gt;Node11</title>
<path fill="none" stroke="#9a32cd" stroke-dasharray="5,2" d="M1206.61,-280.36C1190.51,-273.09 1169.61,-264.97 1150,-261.28 1123.91,-256.37 1094.33,-258.33 1070.39,-261.77"/>
<polygon fill="#9a32cd" stroke="#9a32cd" points="1205.43,-283.66 1215.97,-284.72 1208.39,-277.32 1205.43,-283.66"/>
<text text-anchor="middle" x="1127.5" y="-264.28" font-family="Helvetica,sans-Serif" font-size="10.00"> candidate</text>
</g>
<!-- Node18 -->
<g id="node18" class="node">
<title>Node18</title>
<g id="a_node18"><a xlink:title=" ">
<polygon fill="white" stroke="black" points="959,-310.78 959,-329.78 1087,-329.78 1087,-310.78 959,-310.78"/>
<text text-anchor="middle" x="1023" y="-317.78" font-family="Helvetica,sans-Serif" font-size="10.00">Comparable&lt; Candidate &gt;</text>
</a>
</g>
</g>
<!-- Node18&#45;&gt;Node17 -->
<g id="edge20" class="edge">
<title>Node18&#45;&gt;Node17</title>
<path fill="none" stroke="midnightblue" d="M1097.33,-311.22C1121.47,-308.24 1148.08,-304.95 1171.39,-302.08"/>
<polygon fill="midnightblue" stroke="midnightblue" points="1096.65,-307.78 1087.16,-312.48 1097.51,-314.73 1096.65,-307.78"/>
</g>
<!-- Node19 -->
<g id="node19" class="node">
<title>Node19</title>
<g id="a_node19"><a xlink:title=" ">
<polygon fill="white" stroke="black" points="438,-10.78 438,-29.78 522,-29.78 522,-10.78 438,-10.78"/>
<text text-anchor="middle" x="480" y="-17.78" font-family="Helvetica,sans-Serif" font-size="10.00">IAtomContainer</text>
</a>
</g>
</g>
<!-- Node19&#45;&gt;Node17 -->
<g id="edge23" class="edge">
<title>Node19&#45;&gt;Node17</title>
<path fill="none" stroke="#9a32cd" stroke-dasharray="5,2" d="M532.16,-11.93C619.56,0.07 801.67,15.11 941,-40.28 1079.7,-95.42 1198.11,-245.3 1227.5,-284.69"/>
<polygon fill="#9a32cd" stroke="#9a32cd" points="531.64,-8.47 522.23,-13.34 532.63,-15.4 531.64,-8.47"/>
<text text-anchor="middle" x="906" y="-43.28" font-family="Helvetica,sans-Serif" font-size="10.00"> iac</text>
</g>
<!-- Node19&#45;&gt;Node20 -->
<g id="edge27" class="edge">
<title>Node19&#45;&gt;Node20</title>
<path fill="none" stroke="#9a32cd" stroke-dasharray="5,2" d="M532.29,-30.67C584.54,-41.25 664.88,-57.51 715.52,-67.77"/>
<polygon fill="#9a32cd" stroke="#9a32cd" points="532.73,-27.18 522.23,-28.63 531.34,-34.04 532.73,-27.18"/>
<text text-anchor="middle" x="617" y="-59.28" font-family="Helvetica,sans-Serif" font-size="10.00"> mol</text>
</g>
<!-- Node20&#45;&gt;Node11 -->
<g id="edge24" class="edge">
<title>Node20&#45;&gt;Node11</title>
<path fill="none" stroke="#9a32cd" stroke-dasharray="5,2" d="M801.4,-64.96C839.69,-54.61 899.65,-45.52 941,-73.28 1007.61,-118 1019.48,-228.21 1021.56,-261.56"/>
<polygon fill="#9a32cd" stroke="#9a32cd" points="800.34,-61.62 791.68,-67.73 802.26,-68.35 800.34,-61.62"/>
<text text-anchor="middle" x="906" y="-76.28" font-family="Helvetica,sans-Serif" font-size="10.00"> templateJacket</text>
</g>
<!-- Node21 -->
<g id="node21" class="node">
<title>Node21</title>
<g id="a_node21"><a xlink:href="enumdenoptim_1_1graph_1_1_template_1_1_contract_level.html" target="_top" xlink:title="Enum specifying to what extent the template&#39;s inner graph can be changed.">
<polygon fill="white" stroke="black" points="416,-96.28 416,-126.28 544,-126.28 544,-96.28 416,-96.28"/>
<text text-anchor="start" x="424" y="-114.28" font-family="Helvetica,sans-Serif" font-size="10.00">denoptim.graph.Template.</text>
<text text-anchor="middle" x="480" y="-103.28" font-family="Helvetica,sans-Serif" font-size="10.00">ContractLevel</text>
</a>
</g>
</g>
<!-- Node21&#45;&gt;Node20 -->
<g id="edge28" class="edge">
<title>Node21&#45;&gt;Node20</title>
<path fill="none" stroke="#9a32cd" stroke-dasharray="5,2" d="M554.29,-102.43C599.87,-96.92 657.81,-89.92 700.99,-84.71"/>
<polygon fill="#9a32cd" stroke="#9a32cd" points="553.68,-98.98 544.17,-103.65 554.52,-105.93 553.68,-98.98"/>
<text text-anchor="middle" x="617" y="-103.28" font-family="Helvetica,sans-Serif" font-size="10.00"> contractLevel</text>
</g>
<!-- Node22 -->
<g id="node22" class="node">
<title>Node22</title>
<g id="a_node22"><a xlink:title=" ">
<polygon fill="white" stroke="black" points="400,-145.28 400,-175.28 560,-175.28 560,-145.28 400,-145.28"/>
<text text-anchor="start" x="408" y="-163.28" font-family="Helvetica,sans-Serif" font-size="10.00">List&lt; denoptim.graph.Attachment</text>
<text text-anchor="middle" x="480" y="-152.28" font-family="Helvetica,sans-Serif" font-size="10.00">Point &gt;</text>
</a>
</g>
</g>
<!-- Node22&#45;&gt;Node20 -->
<g id="edge29" class="edge">
<title>Node22&#45;&gt;Node20</title>
<path fill="none" stroke="#9a32cd" stroke-dasharray="5,2" d="M570.07,-147.46C598.84,-140.74 630,-130.58 656,-115.28 666.02,-109.38 663.86,-101.98 674,-96.28 682.22,-91.66 691.45,-88.16 700.76,-85.52"/>
<polygon fill="#9a32cd" stroke="#9a32cd" points="569.01,-144.11 560,-149.69 570.52,-150.94 569.01,-144.11"/>
<text text-anchor="middle" x="617" y="-149.28" font-family="Helvetica,sans-Serif" font-size="10.00"> requiredAPs</text>
</g>
<!-- Node23 -->
<g id="node23" class="node">
<title>Node23</title>
<g id="a_node23"><a xlink:href="classdenoptim_1_1graph_1_1_a_p_tree_map.html" target="_top" xlink:title="Attachment point mapping where keys are sorted by natural ordering, i.e., by AttachmentPoint#compareT...">
<polygon fill="white" stroke="black" points="411.5,-57.78 411.5,-76.78 548.5,-76.78 548.5,-57.78 411.5,-57.78"/>
<text text-anchor="middle" x="480" y="-64.78" font-family="Helvetica,sans-Serif" font-size="10.00">denoptim.graph.APTreeMap</text>
</a>
</g>
</g>
<!-- Node23&#45;&gt;Node20 -->
<g id="edge30" class="edge">
<title>Node23&#45;&gt;Node20</title>
<path fill="none" stroke="#9a32cd" stroke-dasharray="5,2" d="M559.02,-70.05C603.68,-71.64 658.93,-73.6 700.59,-75.08"/>
<polygon fill="#9a32cd" stroke="#9a32cd" points="558.9,-66.55 548.78,-69.69 558.65,-73.54 558.9,-66.55"/>
<text text-anchor="middle" x="617" y="-77.28" font-family="Helvetica,sans-Serif" font-size="10.00"> innerToOuterAPs</text>
</g>
<!-- Node24 -->
<g id="node24" class="node">
<title>Node24</title>
<g id="a_node24"><a xlink:title=" ">
<polygon fill="white" stroke="black" points="103.5,-52.28 103.5,-82.28 242.5,-82.28 242.5,-52.28 103.5,-52.28"/>
<text text-anchor="start" x="111.5" y="-70.28" font-family="Helvetica,sans-Serif" font-size="10.00">TreeMap&lt; AttachmentPoint,</text>
<text text-anchor="middle" x="173" y="-59.28" font-family="Helvetica,sans-Serif" font-size="10.00"> AttachmentPoint &gt;</text>
</a>
</g>
</g>
<!-- Node24&#45;&gt;Node23 -->
<g id="edge31" class="edge">
<title>Node24&#45;&gt;Node23</title>
<path fill="none" stroke="midnightblue" d="M253.1,-67.28C302.22,-67.28 364.68,-67.28 411.47,-67.28"/>
<polygon fill="midnightblue" stroke="midnightblue" points="252.83,-63.78 242.83,-67.28 252.83,-70.78 252.83,-63.78"/>
</g>
<!-- Node25 -->
<g id="node25" class="node">
<title>Node25</title>
<g id="a_node25"><a xlink:title=" ">
<polygon fill="white" stroke="black" points="675,-470.28 675,-522.28 852,-522.28 852,-470.28 675,-470.28"/>
<text text-anchor="start" x="683" y="-510.28" font-family="Helvetica,sans-Serif" font-size="10.00">DefaultUndirectedGraph</text>
<text text-anchor="start" x="683" y="-499.28" font-family="Helvetica,sans-Serif" font-size="10.00">&lt; denoptim.graph.Vertex,</text>
<text text-anchor="start" x="683" y="-488.28" font-family="Helvetica,sans-Serif" font-size="10.00"> denoptim.graph.simplified.Undirected</text>
<text text-anchor="middle" x="763.5" y="-477.28" font-family="Helvetica,sans-Serif" font-size="10.00">Edge &gt;</text>
</a>
</g>
</g>
<!-- Node25&#45;&gt;Node11 -->
<g id="edge32" class="edge">
<title>Node25&#45;&gt;Node11</title>
<path fill="none" stroke="#9a32cd" stroke-dasharray="5,2" d="M861.43,-470.23C891.56,-457.35 921.86,-438.52 941,-411.28 969.48,-370.75 929.25,-340.89 959,-301.28 965.99,-291.98 976.59,-285.44 987.12,-280.89"/>
<polygon fill="#9a32cd" stroke="#9a32cd" points="860.03,-467.02 852.09,-474.04 862.67,-473.5 860.03,-467.02"/>
<text text-anchor="middle" x="906" y="-469.28" font-family="Helvetica,sans-Serif" font-size="10.00"> jGraph</text>
</g>
<!-- Node26 -->
<g id="node26" class="node">
<title>Node26</title>
<g id="a_node26"><a xlink:title=" ">
<polygon fill="white" stroke="black" points="674,-399.28 674,-451.28 853,-451.28 853,-399.28 674,-399.28"/>
<text text-anchor="start" x="682" y="-439.28" font-family="Helvetica,sans-Serif" font-size="10.00">DefaultUndirectedGraph</text>
<text text-anchor="start" x="682" y="-428.28" font-family="Helvetica,sans-Serif" font-size="10.00">&lt; denoptim.graph.simplified.</text>
<text text-anchor="start" x="682" y="-417.28" font-family="Helvetica,sans-Serif" font-size="10.00">Node, denoptim.graph.simplified.Node</text>
<text text-anchor="middle" x="763.5" y="-406.28" font-family="Helvetica,sans-Serif" font-size="10.00">Connection &gt;</text>
</a>
</g>
</g>
<!-- Node26&#45;&gt;Node11 -->
<g id="edge33" class="edge">
<title>Node26&#45;&gt;Node11</title>
<path fill="none" stroke="#9a32cd" stroke-dasharray="5,2" d="M862.72,-400.1C891.04,-388.79 919.93,-372.76 941,-350.28 956.86,-333.35 943.37,-318.43 959,-301.28 967.32,-292.15 979.02,-285.53 990.07,-280.87"/>
<polygon fill="#9a32cd" stroke="#9a32cd" points="861.24,-396.91 853.15,-403.75 863.74,-403.45 861.24,-396.91"/>
<text text-anchor="middle" x="906" y="-399.28" font-family="Helvetica,sans-Serif" font-size="10.00"> jGraphKernel</text>
</g>
<!-- Node27 -->
<g id="node27" class="node">
<title>Node27</title>
<g id="a_node27"><a xlink:href="enumdenoptim_1_1graph_1_1_vertex_1_1_b_b_type.html" target="_top" xlink:title="The type of building block.">
<polygon fill="white" stroke="black" points="98.5,-384.78 98.5,-403.78 247.5,-403.78 247.5,-384.78 98.5,-384.78"/>
<text text-anchor="middle" x="173" y="-391.78" font-family="Helvetica,sans-Serif" font-size="10.00">denoptim.graph.Vertex.BBType</text>
</a>
</g>
</g>
<!-- Node27&#45;&gt;Node10 -->
<g id="edge34" class="edge">
<title>Node27&#45;&gt;Node10</title>
<path fill="none" stroke="#9a32cd" stroke-dasharray="5,2" d="M257.88,-397.49C296.65,-401.09 342.7,-408.45 382,-423.28 416.35,-436.25 450.89,-463.12 467.98,-477.58"/>
<polygon fill="#9a32cd" stroke="#9a32cd" points="257.94,-393.98 247.67,-396.61 257.34,-400.95 257.94,-393.98"/>
<text text-anchor="middle" x="327.5" y="-426.28" font-family="Helvetica,sans-Serif" font-size="10.00"> buildingBlockType</text>
</g>
<!-- Node28 -->
<g id="node28" class="node">
<title>Node28</title>
<g id="a_node28"><a xlink:title=" ">
<polygon fill="white" stroke="black" points="116,-861.78 116,-880.78 230,-880.78 230,-861.78 116,-861.78"/>
<text text-anchor="middle" x="173" y="-868.78" font-family="Helvetica,sans-Serif" font-size="10.00">Map&lt; Object, Object &gt;</text>
</a>
</g>
</g>
<!-- Node28&#45;&gt;Node1 -->
<g id="edge49" class="edge">
<title>Node28&#45;&gt;Node1</title>
<path fill="none" stroke="#9a32cd" stroke-dasharray="5,2" d="M213.29,-883.88C270.93,-901.21 382.08,-930.28 479,-930.28 479,-930.28 479,-930.28 1024,-930.28 1127.88,-930.28 1203.79,-801.28 1227.05,-756.43"/>
<polygon fill="#9a32cd" stroke="#9a32cd" points="214.09,-880.46 203.5,-880.89 212.05,-887.16 214.09,-880.46"/>
<text text-anchor="middle" x="763.5" y="-933.28" font-family="Helvetica,sans-Serif" font-size="10.00"> properties</text>
</g>
<!-- Node28&#45;&gt;Node10 -->
<g id="edge35" class="edge">
<title>Node28&#45;&gt;Node10</title>
<path fill="none" stroke="#9a32cd" stroke-dasharray="5,2" d="M188.22,-853.38C241.79,-785.93 430.46,-548.39 471.21,-497.09"/>
<polygon fill="#9a32cd" stroke="#9a32cd" points="185.32,-851.39 181.85,-861.4 190.81,-855.75 185.32,-851.39"/>
<text text-anchor="middle" x="327.5" y="-739.28" font-family="Helvetica,sans-Serif" font-size="10.00"> properties</text>
</g>
<!-- Node28&#45;&gt;Node33 -->
<g id="edge47" class="edge">
<title>Node28&#45;&gt;Node33</title>
<path fill="none" stroke="#9a32cd" stroke-dasharray="5,2" d="M240.35,-872.63C333.49,-873.77 508.18,-873.21 656,-857.28 669,-855.88 682.79,-853.76 695.98,-851.43"/>
<polygon fill="#9a32cd" stroke="#9a32cd" points="240.27,-869.13 230.22,-872.49 240.18,-876.12 240.27,-869.13"/>
<text text-anchor="middle" x="480" y="-875.28" font-family="Helvetica,sans-Serif" font-size="10.00"> properties</text>
</g>
<!-- Node29 -->
<g id="node29" class="node">
<title>Node29</title>
<g id="a_node29"><a xlink:title=" ">
<polygon fill="white" stroke="black" points="136,-422.78 136,-441.78 210,-441.78 210,-422.78 136,-422.78"/>
<text text-anchor="middle" x="173" y="-429.78" font-family="Helvetica,sans-Serif" font-size="10.00">Set&lt; String &gt;</text>
</a>
</g>
</g>
<!-- Node29&#45;&gt;Node10 -->
<g id="edge36" class="edge">
<title>Node29&#45;&gt;Node10</title>
<path fill="none" stroke="#9a32cd" stroke-dasharray="5,2" d="M220.15,-433.81C262.63,-435.96 327.18,-441.08 382,-453.28 408.3,-459.13 437.32,-469.91 456.71,-477.77"/>
<polygon fill="#9a32cd" stroke="#9a32cd" points="220.26,-430.32 210.11,-433.34 219.94,-437.31 220.26,-430.32"/>
<text text-anchor="middle" x="327.5" y="-456.28" font-family="Helvetica,sans-Serif" font-size="10.00"> uniquefyingPropertyKeys</text>
</g>
<!-- Node30 -->
<g id="node30" class="node">
<title>Node30</title>
<g id="a_node30"><a xlink:title=" ">
<polygon fill="white" stroke="black" points="102.5,-499.28 102.5,-529.28 243.5,-529.28 243.5,-499.28 102.5,-499.28"/>
<text text-anchor="start" x="110.5" y="-517.28" font-family="Helvetica,sans-Serif" font-size="10.00">List&lt; denoptim.utils.Mutation</text>
<text text-anchor="middle" x="173" y="-506.28" font-family="Helvetica,sans-Serif" font-size="10.00">Type &gt;</text>
</a>
</g>
</g>
<!-- Node30&#45;&gt;Node10 -->
<g id="edge37" class="edge">
<title>Node30&#45;&gt;Node10</title>
<path fill="none" stroke="#9a32cd" stroke-dasharray="5,2" d="M253.74,-507.01C260.26,-506.42 266.74,-505.84 273,-505.28 323.96,-500.74 382.01,-495.67 423.48,-492.08"/>
<polygon fill="#9a32cd" stroke="#9a32cd" points="253.15,-503.55 243.5,-507.93 253.78,-510.52 253.15,-503.55"/>
<text text-anchor="middle" x="327.5" y="-508.28" font-family="Helvetica,sans-Serif" font-size="10.00"> allowedMutationTypes</text>
</g>
<!-- Node31 -->
<g id="node31" class="node">
<title>Node31</title>
<g id="a_node31"><a xlink:href="enumdenoptim_1_1graph_1_1_vertex_1_1_vertex_type.html" target="_top" xlink:title="Flag declaring the type of Vertex implementation.">
<polygon fill="white" stroke="black" points="91,-460.78 91,-479.78 255,-479.78 255,-460.78 91,-460.78"/>
<text text-anchor="middle" x="173" y="-467.78" font-family="Helvetica,sans-Serif" font-size="10.00">denoptim.graph.Vertex.VertexType</text>
</a>
</g>
</g>
<!-- Node31&#45;&gt;Node10 -->
<g id="edge38" class="edge">
<title>Node31&#45;&gt;Node10</title>
<path fill="none" stroke="#9a32cd" stroke-dasharray="5,2" d="M265.23,-467.59C301.62,-467.34 343.85,-468.06 382,-471.28 397.82,-472.61 414.94,-475.09 430.34,-477.7"/>
<polygon fill="#9a32cd" stroke="#9a32cd" points="265.1,-464.1 255.13,-467.69 265.16,-471.09 265.1,-464.1"/>
<text text-anchor="middle" x="327.5" y="-474.28" font-family="Helvetica,sans-Serif" font-size="10.00"> vertexType</text>
</g>
<!-- Node32&#45;&gt;Node1 -->
<g id="edge39" class="edge">
<title>Node32&#45;&gt;Node1</title>
<path fill="none" stroke="#9a32cd" stroke-dasharray="5,2" d="M1054.22,-823.5C1093.22,-805.71 1160.85,-774.87 1201.26,-756.44"/>
<polygon fill="#9a32cd" stroke="#9a32cd" points="1052.6,-820.39 1044.95,-827.72 1055.5,-826.76 1052.6,-820.39"/>
<text text-anchor="middle" x="1127.5" y="-801.28" font-family="Helvetica,sans-Serif" font-size="10.00"> user</text>
</g>
<!-- Node32&#45;&gt;Node33 -->
<g id="edge46" class="edge">
<title>Node32&#45;&gt;Node33</title>
<path fill="none" stroke="#9a32cd" stroke-dasharray="5,2" d="M968.38,-825.93C959.28,-824.41 949.9,-823.1 941,-822.28 904.71,-818.95 864.2,-821.91 831.15,-826.06"/>
<polygon fill="#9a32cd" stroke="#9a32cd" points="968.03,-829.42 978.48,-827.71 969.25,-822.52 968.03,-829.42"/>
<text text-anchor="middle" x="906" y="-825.28" font-family="Helvetica,sans-Serif" font-size="10.00"> user</text>
</g>
<!-- Node33&#45;&gt;Node32 -->
<g id="edge40" class="edge">
<title>Node33&#45;&gt;Node32</title>
<path fill="none" stroke="#9a32cd" stroke-dasharray="5,2" d="M841.19,-837.28C882.54,-837.28 932.51,-837.28 969.43,-837.28"/>
<polygon fill="#9a32cd" stroke="#9a32cd" points="841.15,-833.78 831.15,-837.28 841.15,-840.78 841.15,-833.78"/>
<text text-anchor="middle" x="906" y="-851.28" font-family="Helvetica,sans-Serif" font-size="10.00"> srcAP</text>
<text text-anchor="middle" x="906" y="-840.28" font-family="Helvetica,sans-Serif" font-size="10.00">trgAP</text>
</g>
</g>
</svg>
