<?xml version="1.0" encoding="UTF-8" standalone="no"?>
<!DOCTYPE svg PUBLIC "-//W3C//DTD SVG 1.1//EN"
 "http://www.w3.org/Graphics/SVG/1.1/DTD/svg11.dtd">
<!-- Generated by graphviz version 3.0.0 (20220413.0242)
 -->
<!-- Title: denoptim.programs.fragmenter.FragmenterParameters.interpretKeyword Pages: 1 -->
<svg width="396pt" height="39pt"
 viewBox="0.00 0.00 396.00 39.00" xmlns="http://www.w3.org/2000/svg" xmlns:xlink="http://www.w3.org/1999/xlink">
<g id="graph0" class="graph" transform="scale(1 1) rotate(0) translate(4 35)">
<title>denoptim.programs.fragmenter.FragmenterParameters.interpretKeyword</title>
<polygon fill="white" stroke="transparent" points="-4,4 -4,-35 392,-35 392,4 -4,4"/>
<!-- Node1 -->
<g id="node1" class="node">
<title>Node1</title>
<g id="a_node1"><a xlink:title="Processes a keyword/value pair and assign the related parameters.">
<polygon fill="#bfbfbf" stroke="black" points="0,-0.5 0,-30.5 191,-30.5 191,-0.5 0,-0.5"/>
<text text-anchor="start" x="8" y="-18.5" font-family="Helvetica,sans-Serif" font-size="10.00">denoptim.programs.fragmenter.</text>
<text text-anchor="middle" x="95.5" y="-7.5" font-family="Helvetica,sans-Serif" font-size="10.00">FragmenterParameters.interpretKeyword</text>
</a>
</g>
</g>
<!-- Node2 -->
<g id="node2" class="node">
<title>Node2</title>
<g id="a_node2"><a xlink:href="classdenoptim_1_1utils_1_1_formula_utils.html#a361fd821e0c6a83709faada69b192c8d" target="_top" xlink:title="Reads a molecular formula written as &quot;H2 O&quot; or &quot;C6 H12 O6&quot;.">
<polygon fill="white" stroke="black" points="227,-0.5 227,-30.5 388,-30.5 388,-0.5 227,-0.5"/>
<text text-anchor="start" x="235" y="-18.5" font-family="Helvetica,sans-Serif" font-size="10.00">denoptim.utils.FormulaUtils.parse</text>
<text text-anchor="middle" x="307.5" y="-7.5" font-family="Helvetica,sans-Serif" font-size="10.00">Formula</text>
</a>
</g>
</g>
<!-- Node1&#45;&gt;Node2 -->
<g id="edge1" class="edge">
<title>Node1&#45;&gt;Node2</title>
<path fill="none" stroke="midnightblue" d="M191.06,-15.5C199.57,-15.5 208.18,-15.5 216.65,-15.5"/>
<polygon fill="midnightblue" stroke="midnightblue" points="216.9,-19 226.9,-15.5 216.9,-12 216.9,-19"/>
</g>
</g>
</svg>
