<?xml version="1.0" encoding="UTF-8" standalone="no"?>
<!DOCTYPE svg PUBLIC "-//W3C//DTD SVG 1.1//EN"
 "http://www.w3.org/Graphics/SVG/1.1/DTD/svg11.dtd">
<!-- Generated by graphviz version 3.0.0 (20220413.0242)
 -->
<!-- Title: denoptim.graph.DGraph.appendGraphOnAP Pages: 1 -->
<!--zoomable 1159 -->
<svg id="main" version="1.1" xmlns="http://www.w3.org/2000/svg" xmlns:xlink="http://www.w3.org/1999/xlink" xml:space="preserve" onload="init(evt)">
<style type="text/css"><![CDATA[
.edge:hover path { stroke: red; }
.edge:hover polygon { stroke: red; fill: red; }
]]></style>
<script type="text/javascript"><![CDATA[
var edges = document.getElementsByTagName('g');
if (edges && edges.length) {
  for (var i=0;i<edges.length;i++) {
    if (edges[i].id.substr(0,4)=='edge') {
      edges[i].setAttribute('class','edge');
    }
  }
}
]]></script>
        <defs>
                <circle id="rim" cx="0" cy="0" r="7"/>
                <circle id="rim2" cx="0" cy="0" r="3.5"/>
                <g id="zoomPlus">
                        <use xlink:href="#rim" fill="#404040">
                                <set attributeName="fill" to="#808080" begin="zoomplus.mouseover" end="zoomplus.mouseout"/>
                        </use>
                        <path d="M-4,0h8M0,-4v8" fill="none" stroke="white" stroke-width="1.5" pointer-events="none"/>
                </g>
                <g id="zoomMin">
                        <use xlink:href="#rim" fill="#404040">
                                <set attributeName="fill" to="#808080" begin="zoomminus.mouseover" end="zoomminus.mouseout"/>
                        </use>
                        <path d="M-4,0h8" fill="none" stroke="white" stroke-width="1.5" pointer-events="none"/>
                </g>
                <g id="dirArrow">
                        <path fill="none" stroke="white" stroke-width="1.5" d="M0,-3.0v7 M-2.5,-0.5L0,-3.0L2.5,-0.5"/>
                </g>
               <g id="resetDef">
                       <use xlink:href="#rim2" fill="#404040">
                               <set attributeName="fill" to="#808080" begin="reset.mouseover" end="reset.mouseout"/>
                       </use>
               </g>
        </defs>

<script type="text/javascript">
var viewWidth = 900;
var viewHeight = 1159;
var sectionId = 'dynsection-13';
</script>
<script xlink:href="svgpan.js"/>
<svg id="graph" class="graph">
<g id="viewport">
<title>denoptim.graph.DGraph.appendGraphOnAP</title>
<polygon fill="white" stroke="transparent" points="-4,4 -4,-1155 896,-1155 896,4 -4,4"/>
<!-- Node1 -->
<g id="node1" class="node">
<title>Node1</title>
<g id="a_node1"><a xlink:title="Append a subgraph (I) to this graph (R) specifying which vertex and attachment point to use for the c...">
<polygon fill="#bfbfbf" stroke="black" points="0,-382.5 0,-412.5 152,-412.5 152,-382.5 0,-382.5"/>
<text text-anchor="start" x="8" y="-400.5" font-family="Helvetica,sans-Serif" font-size="10.00">denoptim.graph.DGraph.append</text>
<text text-anchor="middle" x="76" y="-389.5" font-family="Helvetica,sans-Serif" font-size="10.00">GraphOnAP</text>
</a>
</g>
</g>
<!-- Node2 -->
<g id="node2" class="node">
<title>Node2</title>
<g id="a_node2"><a xlink:href="classdenoptim_1_1graph_1_1_symmetric_set.html#aca0357f0402f8d0d5191ed6b60826baf" target="_top" xlink:title="Adds an identifiers to this list.">
<polygon fill="white" stroke="black" points="203,-898.5 203,-928.5 334,-928.5 334,-898.5 203,-898.5"/>
<text text-anchor="start" x="211" y="-916.5" font-family="Helvetica,sans-Serif" font-size="10.00">denoptim.graph.Symmetric</text>
<text text-anchor="middle" x="268.5" y="-905.5" font-family="Helvetica,sans-Serif" font-size="10.00">Set.add</text>
</a>
</g>
</g>
<!-- Node1&#45;&gt;Node2 -->
<g id="edge1" class="edge">
<title>Node1&#45;&gt;Node2</title>
<path fill="none" stroke="midnightblue" d="M78.41,-412.66C85.66,-487.36 120.95,-815.69 188,-888.5 189.84,-890.5 191.85,-892.35 193.97,-894.04"/>
<polygon fill="midnightblue" stroke="midnightblue" points="192.47,-897.24 202.73,-899.88 196.35,-891.42 192.47,-897.24"/>
</g>
<!-- Node3 -->
<g id="node3" class="node">
<title>Node3</title>
<g id="a_node3"><a xlink:href="classdenoptim_1_1graph_1_1_d_graph.html#aedfe0dc03ea1250a9944fcd30a888fa1" target="_top" xlink:title="Adds the edge to the list of edges belonging to this graph.">
<polygon fill="white" stroke="black" points="189.5,-860 189.5,-879 347.5,-879 347.5,-860 189.5,-860"/>
<text text-anchor="middle" x="268.5" y="-867" font-family="Helvetica,sans-Serif" font-size="10.00">denoptim.graph.DGraph.addEdge</text>
</a>
</g>
</g>
<!-- Node1&#45;&gt;Node3 -->
<g id="edge2" class="edge">
<title>Node1&#45;&gt;Node3</title>
<path fill="none" stroke="midnightblue" d="M78.59,-412.52C86.45,-483.67 123.26,-786.13 188,-850.5 189.43,-851.93 190.95,-853.25 192.55,-854.48"/>
<polygon fill="midnightblue" stroke="midnightblue" points="190.74,-857.48 201.05,-859.9 194.5,-851.58 190.74,-857.48"/>
</g>
<!-- Node4 -->
<g id="node4" class="node">
<title>Node4</title>
<g id="a_node4"><a xlink:href="classdenoptim_1_1graph_1_1_d_graph.html#ad16255987a45bace2ef62f2b49e0d873" target="_top" xlink:title=" ">
<polygon fill="white" stroke="black" points="191,-822 191,-841 346,-841 346,-822 191,-822"/>
<text text-anchor="middle" x="268.5" y="-829" font-family="Helvetica,sans-Serif" font-size="10.00">denoptim.graph.DGraph.addRing</text>
</a>
</g>
</g>
<!-- Node1&#45;&gt;Node4 -->
<g id="edge3" class="edge">
<title>Node1&#45;&gt;Node4</title>
<path fill="none" stroke="midnightblue" d="M78.96,-412.6C88.05,-480.2 128.15,-754.23 188,-812.5 189.45,-813.91 190.98,-815.22 192.59,-816.44"/>
<polygon fill="midnightblue" stroke="midnightblue" points="190.81,-819.46 201.14,-821.82 194.53,-813.53 190.81,-819.46"/>
</g>
<!-- Node5 -->
<g id="node5" class="node">
<title>Node5</title>
<g id="a_node5"><a xlink:href="classdenoptim_1_1graph_1_1_d_graph.html#a8e33df7dddbe65f119e78b3c81dc7a3b" target="_top" xlink:title="Adds a symmetric set of vertices to this graph.">
<polygon fill="white" stroke="black" points="200.5,-772.5 200.5,-802.5 336.5,-802.5 336.5,-772.5 200.5,-772.5"/>
<text text-anchor="start" x="208.5" y="-790.5" font-family="Helvetica,sans-Serif" font-size="10.00">denoptim.graph.DGraph.add</text>
<text text-anchor="middle" x="268.5" y="-779.5" font-family="Helvetica,sans-Serif" font-size="10.00">SymmetricSetOfVertices</text>
</a>
</g>
</g>
<!-- Node1&#45;&gt;Node5 -->
<g id="edge4" class="edge">
<title>Node1&#45;&gt;Node5</title>
<path fill="none" stroke="midnightblue" d="M76.84,-412.54C77.1,-467.72 85.58,-661.21 188,-763.5 189.26,-764.76 190.59,-765.96 191.97,-767.09"/>
<polygon fill="midnightblue" stroke="midnightblue" points="190.19,-770.12 200.41,-772.92 194.17,-764.35 190.19,-770.12"/>
</g>
<!-- Node6 -->
<g id="node6" class="node">
<title>Node6</title>
<g id="a_node6"><a xlink:href="classdenoptim_1_1graph_1_1_d_graph.html#a33a3299b77560786461345412d2fe193" target="_top" xlink:title="Appends a vertex to this graph without creating any edge.">
<polygon fill="white" stroke="black" points="200.5,-723.5 200.5,-753.5 336.5,-753.5 336.5,-723.5 200.5,-723.5"/>
<text text-anchor="start" x="208.5" y="-741.5" font-family="Helvetica,sans-Serif" font-size="10.00">denoptim.graph.DGraph.add</text>
<text text-anchor="middle" x="268.5" y="-730.5" font-family="Helvetica,sans-Serif" font-size="10.00">Vertex</text>
</a>
</g>
</g>
<!-- Node1&#45;&gt;Node6 -->
<g id="edge5" class="edge">
<title>Node1&#45;&gt;Node6</title>
<path fill="none" stroke="midnightblue" d="M77.72,-412.53C80.93,-462.77 98.15,-626.58 188,-713.5 189.48,-714.93 191.05,-716.28 192.68,-717.56"/>
<polygon fill="midnightblue" stroke="midnightblue" points="191.06,-720.69 201.33,-723.31 194.94,-714.86 191.06,-720.69"/>
</g>
<!-- Node9 -->
<g id="node9" class="node">
<title>Node9</title>
<g id="a_node9"><a xlink:href="classdenoptim_1_1graph_1_1_d_graph.html#a6f0b9a42074fe224ae52cee5f5875a7c" target="_top" xlink:title="Returns almost &quot;deep&#45;copy&quot; of this graph.">
<polygon fill="white" stroke="black" points="197,-629 197,-648 340,-648 340,-629 197,-629"/>
<text text-anchor="middle" x="268.5" y="-636" font-family="Helvetica,sans-Serif" font-size="10.00">denoptim.graph.DGraph.clone</text>
</a>
</g>
</g>
<!-- Node1&#45;&gt;Node9 -->
<g id="edge8" class="edge">
<title>Node1&#45;&gt;Node9</title>
<path fill="none" stroke="midnightblue" d="M88.92,-412.58C122.44,-454.99 217.46,-575.2 253.45,-620.73"/>
<polygon fill="midnightblue" stroke="midnightblue" points="250.88,-623.12 259.82,-628.79 256.37,-618.77 250.88,-623.12"/>
</g>
<!-- Node17 -->
<g id="node17" class="node">
<title>Node17</title>
<g id="a_node17"><a xlink:href="classdenoptim_1_1graph_1_1_vertex.html#af44ae05546096ec9060d7207f38bc8e9" target="_top" xlink:title=" ">
<polygon fill="white" stroke="black" points="764,-513.5 764,-543.5 892,-543.5 892,-513.5 764,-513.5"/>
<text text-anchor="start" x="772" y="-531.5" font-family="Helvetica,sans-Serif" font-size="10.00">denoptim.graph.Vertex.get</text>
<text text-anchor="middle" x="828" y="-520.5" font-family="Helvetica,sans-Serif" font-size="10.00">VertexId</text>
</a>
</g>
</g>
<!-- Node1&#45;&gt;Node17 -->
<g id="edge35" class="edge">
<title>Node1&#45;&gt;Node17</title>
<path fill="none" stroke="midnightblue" d="M152.07,-400.83C276.5,-406.86 515.22,-420.69 549,-439.5 572.3,-452.47 562.23,-473.62 585,-487.5 612.69,-504.38 692.99,-515.68 753.56,-522.07"/>
<polygon fill="midnightblue" stroke="midnightblue" points="753.55,-525.59 763.86,-523.13 754.27,-518.62 753.55,-525.59"/>
</g>
<!-- Node18 -->
<g id="node18" class="node">
<title>Node18</title>
<g id="a_node18"><a xlink:href="classdenoptim_1_1graph_1_1_d_graph.html#af68c6f4772e3a77bbb4a63f98dc53d04" target="_top" xlink:title=" ">
<polygon fill="white" stroke="black" points="400,-448.5 400,-478.5 534,-478.5 534,-448.5 400,-448.5"/>
<text text-anchor="start" x="408" y="-466.5" font-family="Helvetica,sans-Serif" font-size="10.00">denoptim.graph.DGraph.get</text>
<text text-anchor="middle" x="467" y="-455.5" font-family="Helvetica,sans-Serif" font-size="10.00">VertexWithId</text>
</a>
</g>
</g>
<!-- Node1&#45;&gt;Node18 -->
<g id="edge37" class="edge">
<title>Node1&#45;&gt;Node18</title>
<path fill="none" stroke="midnightblue" d="M116.53,-412.52C137.49,-419.92 163.83,-428.33 188,-433.5 255.37,-447.9 333.48,-455.55 389.72,-459.52"/>
<polygon fill="midnightblue" stroke="midnightblue" points="389.74,-463.02 399.96,-460.21 390.22,-456.04 389.74,-463.02"/>
</g>
<!-- Node26 -->
<g id="node26" class="node">
<title>Node26</title>
<g id="a_node26"><a xlink:href="classdenoptim_1_1graph_1_1_symmetric_set.html#a996e43fbd782c22c7846dc65d9cd78f1" target="_top" xlink:title="Checks whether the given identifiers is contained in this set.">
<polygon fill="white" stroke="black" points="203,-196.5 203,-226.5 334,-226.5 334,-196.5 203,-196.5"/>
<text text-anchor="start" x="211" y="-214.5" font-family="Helvetica,sans-Serif" font-size="10.00">denoptim.graph.Symmetric</text>
<text text-anchor="middle" x="268.5" y="-203.5" font-family="Helvetica,sans-Serif" font-size="10.00">Set.contains</text>
</a>
</g>
</g>
<!-- Node1&#45;&gt;Node26 -->
<g id="edge27" class="edge">
<title>Node1&#45;&gt;Node26</title>
<path fill="none" stroke="midnightblue" d="M83.93,-382.36C98.74,-351.59 136.4,-281.27 188,-241.5 193.26,-237.45 199.13,-233.89 205.23,-230.78"/>
<polygon fill="midnightblue" stroke="midnightblue" points="206.71,-233.95 214.29,-226.55 203.75,-227.61 206.71,-233.95"/>
</g>
<!-- Node27 -->
<g id="node27" class="node">
<title>Node27</title>
<g id="a_node27"><a xlink:href="classdenoptim_1_1graph_1_1_vertex.html#aee39019987712f9784138e97917ac97f" target="_top" xlink:title="Get attachment point i on this vertex.">
<polygon fill="white" stroke="black" points="197.5,-685 197.5,-704 339.5,-704 339.5,-685 197.5,-685"/>
<text text-anchor="middle" x="268.5" y="-692" font-family="Helvetica,sans-Serif" font-size="10.00">denoptim.graph.Vertex.getAP</text>
</a>
</g>
</g>
<!-- Node1&#45;&gt;Node27 -->
<g id="edge28" class="edge">
<title>Node1&#45;&gt;Node27</title>
<path fill="none" stroke="midnightblue" d="M78.29,-412.6C83.12,-459.41 104.45,-603.29 188,-675.5 189.79,-677.05 191.68,-678.47 193.66,-679.78"/>
<polygon fill="midnightblue" stroke="midnightblue" points="192.34,-683.06 202.78,-684.86 195.74,-676.94 192.34,-683.06"/>
</g>
<!-- Node28 -->
<g id="node28" class="node">
<title>Node28</title>
<g id="a_node28"><a xlink:href="classdenoptim_1_1graph_1_1_d_graph.html#a874ffbf9eee39f72dba3905cf378b469" target="_top" xlink:title=" ">
<polygon fill="white" stroke="black" points="201.5,-147.5 201.5,-177.5 335.5,-177.5 335.5,-147.5 201.5,-147.5"/>
<text text-anchor="start" x="209.5" y="-165.5" font-family="Helvetica,sans-Serif" font-size="10.00">denoptim.graph.DGraph.get</text>
<text text-anchor="middle" x="268.5" y="-154.5" font-family="Helvetica,sans-Serif" font-size="10.00">EdgeList</text>
</a>
</g>
</g>
<!-- Node1&#45;&gt;Node28 -->
<g id="edge30" class="edge">
<title>Node1&#45;&gt;Node28</title>
<path fill="none" stroke="midnightblue" d="M80.59,-382.43C90.59,-343.82 122.39,-240.63 188,-186.5 189.54,-185.23 191.15,-184.02 192.82,-182.88"/>
<polygon fill="midnightblue" stroke="midnightblue" points="194.73,-185.81 201.54,-177.69 191.15,-179.8 194.73,-185.81"/>
</g>
<!-- Node29 -->
<g id="node29" class="node">
<title>Node29</title>
<g id="a_node29"><a xlink:href="classdenoptim_1_1graph_1_1_symmetric_set.html#a6b6cfeafce2492c331902274f7508f21" target="_top" xlink:title="Return the list of symmetric identifiers.">
<polygon fill="white" stroke="black" points="591,-212.5 591,-242.5 722,-242.5 722,-212.5 591,-212.5"/>
<text text-anchor="start" x="599" y="-230.5" font-family="Helvetica,sans-Serif" font-size="10.00">denoptim.graph.Symmetric</text>
<text text-anchor="middle" x="656.5" y="-219.5" font-family="Helvetica,sans-Serif" font-size="10.00">Set.getList</text>
</a>
</g>
</g>
<!-- Node1&#45;&gt;Node29 -->
<g id="edge31" class="edge">
<title>Node1&#45;&gt;Node29</title>
<path fill="none" stroke="midnightblue" d="M107.32,-382.3C129.21,-371.99 159.76,-358.93 188,-351.5 344.32,-310.4 411.74,-392.84 549,-307.5 573.81,-292.07 562.03,-270.55 585,-252.5 587.3,-250.69 589.74,-249.01 592.27,-247.45"/>
<polygon fill="midnightblue" stroke="midnightblue" points="594.11,-250.43 601.21,-242.57 590.76,-244.29 594.11,-250.43"/>
</g>
<!-- Node30 -->
<g id="node30" class="node">
<title>Node30</title>
<g id="a_node30"><a xlink:href="classdenoptim_1_1graph_1_1_d_graph.html#abca37ac76270225e885ec800d170243b" target="_top" xlink:title=" ">
<polygon fill="white" stroke="black" points="201.5,-98.5 201.5,-128.5 335.5,-128.5 335.5,-98.5 201.5,-98.5"/>
<text text-anchor="start" x="209.5" y="-116.5" font-family="Helvetica,sans-Serif" font-size="10.00">denoptim.graph.DGraph.get</text>
<text text-anchor="middle" x="268.5" y="-105.5" font-family="Helvetica,sans-Serif" font-size="10.00">Rings</text>
</a>
</g>
</g>
<!-- Node1&#45;&gt;Node30 -->
<g id="edge32" class="edge">
<title>Node1&#45;&gt;Node30</title>
<path fill="none" stroke="midnightblue" d="M78.98,-382.31C85.59,-337.79 111.03,-206.42 188,-137.5 189.49,-136.17 191.05,-134.91 192.67,-133.72"/>
<polygon fill="midnightblue" stroke="midnightblue" points="194.63,-136.62 201.23,-128.33 190.9,-130.7 194.63,-136.62"/>
</g>
<!-- Node31 -->
<g id="node31" class="node">
<title>Node31</title>
<g id="a_node31"><a xlink:href="classdenoptim_1_1graph_1_1_d_graph.html#a20f42db327541ed0474dcfa72269e949" target="_top" xlink:title=" ">
<polygon fill="white" stroke="black" points="201.5,-49.5 201.5,-79.5 335.5,-79.5 335.5,-49.5 201.5,-49.5"/>
<text text-anchor="start" x="209.5" y="-67.5" font-family="Helvetica,sans-Serif" font-size="10.00">denoptim.graph.DGraph.get</text>
<text text-anchor="middle" x="268.5" y="-56.5" font-family="Helvetica,sans-Serif" font-size="10.00">SymSetForVertexID</text>
</a>
</g>
</g>
<!-- Node1&#45;&gt;Node31 -->
<g id="edge33" class="edge">
<title>Node1&#45;&gt;Node31</title>
<path fill="none" stroke="midnightblue" d="M77.82,-382.41C81.33,-332.73 99.34,-172.69 188,-88.5 189.49,-87.09 191.06,-85.75 192.7,-84.5"/>
<polygon fill="midnightblue" stroke="midnightblue" points="194.9,-87.25 201.38,-78.86 191.08,-81.37 194.9,-87.25"/>
</g>
<!-- Node32 -->
<g id="node32" class="node">
<title>Node32</title>
<g id="a_node32"><a xlink:href="classdenoptim_1_1graph_1_1_d_graph.html#a49bc7aa7c45f3aeaf6aff41095456c6e" target="_top" xlink:title="Get an iterator for the sets of symmetrically related vertices.">
<polygon fill="white" stroke="black" points="589.5,-163.5 589.5,-193.5 723.5,-193.5 723.5,-163.5 589.5,-163.5"/>
<text text-anchor="start" x="597.5" y="-181.5" font-family="Helvetica,sans-Serif" font-size="10.00">denoptim.graph.DGraph.get</text>
<text text-anchor="middle" x="656.5" y="-170.5" font-family="Helvetica,sans-Serif" font-size="10.00">SymSetsIterator</text>
</a>
</g>
</g>
<!-- Node1&#45;&gt;Node32 -->
<g id="edge34" class="edge">
<title>Node1&#45;&gt;Node32</title>
<path fill="none" stroke="midnightblue" d="M98.46,-382.38C120.07,-367.89 154.87,-346.49 188,-334.5 226.32,-320.63 516.02,-293.44 549,-269.5 576.36,-249.64 559.21,-224.35 585,-202.5 586.52,-201.21 588.11,-200 589.75,-198.84"/>
<polygon fill="midnightblue" stroke="midnightblue" points="591.67,-201.78 598.4,-193.6 588.04,-195.79 591.67,-201.78"/>
</g>
<!-- Node33 -->
<g id="node33" class="node">
<title>Node33</title>
<g id="a_node33"><a xlink:href="classdenoptim_1_1graph_1_1_d_graph.html#ac9bd2a29337782ffdc07a2a2fc70f135" target="_top" xlink:title=" ">
<polygon fill="white" stroke="black" points="589.5,-114.5 589.5,-144.5 723.5,-144.5 723.5,-114.5 589.5,-114.5"/>
<text text-anchor="start" x="597.5" y="-132.5" font-family="Helvetica,sans-Serif" font-size="10.00">denoptim.graph.DGraph.get</text>
<text text-anchor="middle" x="656.5" y="-121.5" font-family="Helvetica,sans-Serif" font-size="10.00">VertexList</text>
</a>
</g>
</g>
<!-- Node1&#45;&gt;Node33 -->
<g id="edge36" class="edge">
<title>Node1&#45;&gt;Node33</title>
<path fill="none" stroke="midnightblue" d="M91.95,-382.33C112.2,-362.48 150.18,-327.6 188,-305.5 260.79,-262.96 492.68,-183.52 600.01,-147.76"/>
<polygon fill="midnightblue" stroke="midnightblue" points="601.31,-151.02 609.69,-144.54 599.1,-144.38 601.31,-151.02"/>
</g>
<!-- Node34 -->
<g id="node34" class="node">
<title>Node34</title>
<g id="a_node34"><a xlink:href="classdenoptim_1_1graph_1_1_d_graph.html#a78dd305de83fa47a17964f9916519337" target="_top" xlink:title="Reassign vertex IDs to all vertices of this graph.">
<polygon fill="white" stroke="black" points="188,-360.5 188,-390.5 349,-390.5 349,-360.5 188,-360.5"/>
<text text-anchor="start" x="196" y="-378.5" font-family="Helvetica,sans-Serif" font-size="10.00">denoptim.graph.DGraph.renumber</text>
<text text-anchor="middle" x="268.5" y="-367.5" font-family="Helvetica,sans-Serif" font-size="10.00">GraphVertices</text>
</a>
</g>
</g>
<!-- Node1&#45;&gt;Node34 -->
<g id="edge38" class="edge">
<title>Node1&#45;&gt;Node34</title>
<path fill="none" stroke="midnightblue" d="M152.02,-388.84C160.47,-387.86 169.15,-386.86 177.77,-385.86"/>
<polygon fill="midnightblue" stroke="midnightblue" points="178.31,-389.32 187.85,-384.7 177.51,-382.37 178.31,-389.32"/>
</g>
<!-- Node40 -->
<g id="node40" class="node">
<title>Node40</title>
<g id="a_node40"><a xlink:href="classdenoptim_1_1graph_1_1_symmetric_set.html#a0c5e0508e1ff59a50fffa14c617ad889" target="_top" xlink:title="Return the number of identifiers in this list.">
<polygon fill="white" stroke="black" points="203,-0.5 203,-30.5 334,-30.5 334,-0.5 203,-0.5"/>
<text text-anchor="start" x="211" y="-18.5" font-family="Helvetica,sans-Serif" font-size="10.00">denoptim.graph.Symmetric</text>
<text text-anchor="middle" x="268.5" y="-7.5" font-family="Helvetica,sans-Serif" font-size="10.00">Set.size</text>
</a>
</g>
</g>
<!-- Node1&#45;&gt;Node40 -->
<g id="edge48" class="edge">
<title>Node1&#45;&gt;Node40</title>
<path fill="none" stroke="midnightblue" d="M76.96,-382.41C77.66,-327.91 87.55,-139.2 188,-39.5 189.88,-37.63 191.9,-35.91 194.03,-34.32"/>
<polygon fill="midnightblue" stroke="midnightblue" points="196.14,-37.13 202.73,-28.83 192.4,-31.21 196.14,-37.13"/>
</g>
<!-- Node7 -->
<g id="node7" class="node">
<title>Node7</title>
<g id="a_node7"><a xlink:href="classdenoptim_1_1graph_1_1_d_graph.html#a104492665700f6225bb0a0fbc09479c1" target="_top" xlink:title="Checks if a number is already used as VertexIDs within the graph.">
<polygon fill="white" stroke="black" points="388.5,-1071.5 388.5,-1101.5 545.5,-1101.5 545.5,-1071.5 388.5,-1071.5"/>
<text text-anchor="start" x="396.5" y="-1089.5" font-family="Helvetica,sans-Serif" font-size="10.00">denoptim.graph.DGraph.contains</text>
<text text-anchor="middle" x="467" y="-1078.5" font-family="Helvetica,sans-Serif" font-size="10.00">VertexID</text>
</a>
</g>
</g>
<!-- Node6&#45;&gt;Node7 -->
<g id="edge6" class="edge">
<title>Node6&#45;&gt;Node7</title>
<path fill="none" stroke="midnightblue" d="M336.61,-752.82C341.26,-755.75 345.48,-759.27 349,-763.5 432.94,-864.34 303.61,-953.59 385,-1056.5 387.72,-1059.94 390.88,-1062.99 394.33,-1065.68"/>
<polygon fill="midnightblue" stroke="midnightblue" points="392.62,-1068.74 402.88,-1071.36 396.49,-1062.91 392.62,-1068.74"/>
</g>
<!-- Node8 -->
<g id="node8" class="node">
<title>Node8</title>
<g id="a_node8"><a xlink:href="classdenoptim_1_1graph_1_1_d_graph.html#abc9d9eae901e1e868183f8bdaca13aea" target="_top" xlink:title=" ">
<polygon fill="white" stroke="black" points="400,-1120.5 400,-1150.5 534,-1150.5 534,-1120.5 400,-1120.5"/>
<text text-anchor="start" x="408" y="-1138.5" font-family="Helvetica,sans-Serif" font-size="10.00">denoptim.graph.DGraph.get</text>
<text text-anchor="middle" x="467" y="-1127.5" font-family="Helvetica,sans-Serif" font-size="10.00">GraphId</text>
</a>
</g>
</g>
<!-- Node6&#45;&gt;Node8 -->
<g id="edge7" class="edge">
<title>Node6&#45;&gt;Node8</title>
<path fill="none" stroke="midnightblue" d="M336.7,-752.75C341.33,-755.7 345.52,-759.24 349,-763.5 447.33,-883.96 285.67,-991.87 385,-1111.5 386.93,-1113.83 389.08,-1115.94 391.39,-1117.84"/>
<polygon fill="midnightblue" stroke="midnightblue" points="389.6,-1120.86 399.84,-1123.6 393.54,-1115.08 389.6,-1120.86"/>
</g>
<!-- Node9&#45;&gt;Node9 -->
<g id="edge10" class="edge">
<title>Node9&#45;&gt;Node9</title>
<path fill="none" stroke="midnightblue" d="M238.91,-648.26C224.51,-657.07 234.38,-666.5 268.5,-666.5 292.49,-666.5 304.49,-661.84 304.5,-656"/>
<polygon fill="midnightblue" stroke="midnightblue" points="307.16,-653.73 298.09,-648.26 301.77,-658.19 307.16,-653.73"/>
</g>
<!-- Node10 -->
<g id="node10" class="node">
<title>Node10</title>
<g id="a_node10"><a xlink:href="classdenoptim_1_1graph_1_1_ring.html#a26caae2f4e91d37ffb2f7f3becd97a8e" target="_top" xlink:title="Append a DENOPTIMVertex to the list.">
<polygon fill="white" stroke="black" points="392,-896 392,-915 542,-915 542,-896 392,-896"/>
<text text-anchor="middle" x="467" y="-903" font-family="Helvetica,sans-Serif" font-size="10.00">denoptim.graph.Ring.addVertex</text>
</a>
</g>
</g>
<!-- Node9&#45;&gt;Node10 -->
<g id="edge9" class="edge">
<title>Node9&#45;&gt;Node10</title>
<path fill="none" stroke="midnightblue" d="M308.07,-648.04C323.02,-653.65 338.93,-662.31 349,-675.5 406.73,-751.11 319.83,-817.2 385,-886.5 386.22,-887.8 387.52,-889.02 388.88,-890.17"/>
<polygon fill="midnightblue" stroke="midnightblue" points="387.02,-893.14 397.25,-895.91 390.98,-887.37 387.02,-893.14"/>
</g>
<!-- Node11 -->
<g id="node11" class="node">
<title>Node11</title>
<g id="a_node11"><a xlink:href="classdenoptim_1_1graph_1_1_vertex.html#a05e1f8f3d4595534fb18c8d6b7e4a82d" target="_top" xlink:title="Returns a deep&#45;copy of this vertex.">
<polygon fill="white" stroke="black" points="398,-858 398,-877 536,-877 536,-858 398,-858"/>
<text text-anchor="middle" x="467" y="-865" font-family="Helvetica,sans-Serif" font-size="10.00">denoptim.graph.Vertex.clone</text>
</a>
</g>
</g>
<!-- Node9&#45;&gt;Node11 -->
<g id="edge11" class="edge">
<title>Node9&#45;&gt;Node11</title>
<path fill="none" stroke="midnightblue" d="M307.43,-648.07C322.46,-653.7 338.6,-662.38 349,-675.5 397.78,-737.05 330.17,-792.27 385,-848.5 386.28,-849.82 387.64,-851.05 389.05,-852.2"/>
<polygon fill="midnightblue" stroke="midnightblue" points="387.51,-855.37 397.78,-857.98 391.37,-849.54 387.51,-855.37"/>
</g>
<!-- Node12 -->
<g id="node12" class="node">
<title>Node12</title>
<g id="a_node12"><a xlink:href="classdenoptim_1_1graph_1_1_d_graph.html#a8c53e13b64166fc85fc9a7787dadd46b" target="_top" xlink:title=" ">
<polygon fill="white" stroke="black" points="390.5,-820 390.5,-839 543.5,-839 543.5,-820 390.5,-820"/>
<text text-anchor="middle" x="467" y="-827" font-family="Helvetica,sans-Serif" font-size="10.00">denoptim.graph.DGraph.DGraph</text>
</a>
</g>
</g>
<!-- Node9&#45;&gt;Node12 -->
<g id="edge12" class="edge">
<title>Node9&#45;&gt;Node12</title>
<path fill="none" stroke="midnightblue" d="M306.26,-648.05C321.46,-653.72 338.04,-662.44 349,-675.5 388.9,-723.08 340.43,-767.26 385,-810.5 386.48,-811.93 388.04,-813.27 389.68,-814.5"/>
<polygon fill="midnightblue" stroke="midnightblue" points="388.06,-817.62 398.39,-819.95 391.77,-811.68 388.06,-817.62"/>
</g>
<!-- Node13 -->
<g id="node13" class="node">
<title>Node13</title>
<g id="a_node13"><a xlink:href="classdenoptim_1_1graph_1_1_attachment_point.html#a774671253396558cf35ab75613762174" target="_top" xlink:title="Returns the bond type preferred by this attachment point as defined by the APClass,...">
<polygon fill="white" stroke="black" points="399.5,-721.5 399.5,-751.5 534.5,-751.5 534.5,-721.5 399.5,-721.5"/>
<text text-anchor="start" x="407.5" y="-739.5" font-family="Helvetica,sans-Serif" font-size="10.00">denoptim.graph.Attachment</text>
<text text-anchor="middle" x="467" y="-728.5" font-family="Helvetica,sans-Serif" font-size="10.00">Point.getBondType</text>
</a>
</g>
</g>
<!-- Node9&#45;&gt;Node13 -->
<g id="edge13" class="edge">
<title>Node9&#45;&gt;Node13</title>
<path fill="none" stroke="midnightblue" d="M296.22,-648.09C312.3,-654.54 332.74,-663.96 349,-675.5 367.71,-688.78 365.36,-700.63 385,-712.5 387.82,-714.21 390.78,-715.8 393.82,-717.28"/>
<polygon fill="midnightblue" stroke="midnightblue" points="392.58,-720.56 403.14,-721.42 395.42,-714.17 392.58,-720.56"/>
</g>
<!-- Node15 -->
<g id="node15" class="node">
<title>Node15</title>
<g id="a_node15"><a xlink:href="classdenoptim_1_1graph_1_1_vertex.html#a367c9d31e4bb13c16e865389c154a767" target="_top" xlink:title="Returns the position of the given AP in the list of APs of this vertex.">
<polygon fill="white" stroke="black" points="403,-623.5 403,-653.5 531,-653.5 531,-623.5 403,-623.5"/>
<text text-anchor="start" x="411" y="-641.5" font-family="Helvetica,sans-Serif" font-size="10.00">denoptim.graph.Vertex.get</text>
<text text-anchor="middle" x="467" y="-630.5" font-family="Helvetica,sans-Serif" font-size="10.00">IndexOfAP</text>
</a>
</g>
</g>
<!-- Node9&#45;&gt;Node15 -->
<g id="edge15" class="edge">
<title>Node9&#45;&gt;Node15</title>
<path fill="none" stroke="midnightblue" d="M340.16,-638.5C357.11,-638.5 375.25,-638.5 392.33,-638.5"/>
<polygon fill="midnightblue" stroke="midnightblue" points="392.81,-642 402.81,-638.5 392.81,-635 392.81,-642"/>
</g>
<!-- Node9&#45;&gt;Node17 -->
<g id="edge17" class="edge">
<title>Node9&#45;&gt;Node17</title>
<path fill="none" stroke="midnightblue" d="M310.76,-628.97C332.72,-624.14 360.23,-618.47 385,-614.5 536.49,-590.2 580.47,-617.64 728,-575.5 750.38,-569.11 773.98,-558.09 792.52,-548.33"/>
<polygon fill="midnightblue" stroke="midnightblue" points="794.31,-551.34 801.45,-543.52 790.99,-545.18 794.31,-551.34"/>
</g>
<!-- Node9&#45;&gt;Node18 -->
<g id="edge18" class="edge">
<title>Node9&#45;&gt;Node18</title>
<path fill="none" stroke="midnightblue" d="M274.24,-628.77C287.7,-602.15 328.85,-527.49 385,-488.5 387.87,-486.51 390.9,-484.67 394.04,-482.98"/>
<polygon fill="midnightblue" stroke="midnightblue" points="395.66,-486.08 403.13,-478.57 392.61,-479.78 395.66,-486.08"/>
</g>
<!-- Node20 -->
<g id="node20" class="node">
<title>Node20</title>
<g id="a_node20"><a xlink:href="classdenoptim_1_1graph_1_1_ring.html#a4d36b4964430194b787e708d47b00af5" target="_top" xlink:title="Set the bond type (i.e., bond order) of the chord connecting the head and the tail vertices.">
<polygon fill="white" stroke="black" points="385,-547 385,-566 549,-566 549,-547 385,-547"/>
<text text-anchor="middle" x="467" y="-554" font-family="Helvetica,sans-Serif" font-size="10.00">denoptim.graph.Ring.setBondType</text>
</a>
</g>
</g>
<!-- Node9&#45;&gt;Node20 -->
<g id="edge21" class="edge">
<title>Node9&#45;&gt;Node20</title>
<path fill="none" stroke="midnightblue" d="M286.28,-628.88C308.38,-616.5 348.7,-594.86 385,-580.5 395.86,-576.2 407.81,-572.25 419.11,-568.86"/>
<polygon fill="midnightblue" stroke="midnightblue" points="420.22,-572.18 428.84,-566.02 418.26,-565.46 420.22,-572.18"/>
</g>
<!-- Node21 -->
<g id="node21" class="node">
<title>Node21</title>
<g id="a_node21"><a xlink:href="classdenoptim_1_1graph_1_1_d_graph.html#a30bfc345b743b8859c842b3b4e3ca5fa" target="_top" xlink:title=" ">
<polygon fill="white" stroke="black" points="400,-497.5 400,-527.5 534,-527.5 534,-497.5 400,-497.5"/>
<text text-anchor="start" x="408" y="-515.5" font-family="Helvetica,sans-Serif" font-size="10.00">denoptim.graph.DGraph.set</text>
<text text-anchor="middle" x="467" y="-504.5" font-family="Helvetica,sans-Serif" font-size="10.00">CandidateClosableChains</text>
</a>
</g>
</g>
<!-- Node9&#45;&gt;Node21 -->
<g id="edge22" class="edge">
<title>Node9&#45;&gt;Node21</title>
<path fill="none" stroke="midnightblue" d="M277.77,-628.95C295.48,-609.1 339.18,-563.07 385,-537.5 388.94,-535.3 393.09,-533.27 397.36,-531.4"/>
<polygon fill="midnightblue" stroke="midnightblue" points="398.88,-534.56 406.83,-527.56 396.24,-528.08 398.88,-534.56"/>
</g>
<!-- Node22 -->
<g id="node22" class="node">
<title>Node22</title>
<g id="a_node22"><a xlink:href="classdenoptim_1_1graph_1_1_d_graph.html#a421ce3718c62761e49a4dd4d0f20682c" target="_top" xlink:title=" ">
<polygon fill="white" stroke="black" points="400,-983.5 400,-1013.5 534,-1013.5 534,-983.5 400,-983.5"/>
<text text-anchor="start" x="408" y="-1001.5" font-family="Helvetica,sans-Serif" font-size="10.00">denoptim.graph.DGraph.set</text>
<text text-anchor="middle" x="467" y="-990.5" font-family="Helvetica,sans-Serif" font-size="10.00">GraphId</text>
</a>
</g>
</g>
<!-- Node9&#45;&gt;Node22 -->
<g id="edge23" class="edge">
<title>Node9&#45;&gt;Node22</title>
<path fill="none" stroke="midnightblue" d="M309.22,-648.11C323.98,-653.69 339.44,-662.31 349,-675.5 427.59,-783.85 298.64,-872.24 385,-974.5 386.95,-976.81 389.11,-978.91 391.44,-980.8"/>
<polygon fill="midnightblue" stroke="midnightblue" points="389.68,-983.83 399.92,-986.53 393.59,-978.03 389.68,-983.83"/>
</g>
<!-- Node23 -->
<g id="node23" class="node">
<title>Node23</title>
<g id="a_node23"><a xlink:href="classdenoptim_1_1graph_1_1_d_graph.html#af5cb07ab0686739e6e1713da9d8959c1" target="_top" xlink:title=" ">
<polygon fill="white" stroke="black" points="400,-934.5 400,-964.5 534,-964.5 534,-934.5 400,-934.5"/>
<text text-anchor="start" x="408" y="-952.5" font-family="Helvetica,sans-Serif" font-size="10.00">denoptim.graph.DGraph.set</text>
<text text-anchor="middle" x="467" y="-941.5" font-family="Helvetica,sans-Serif" font-size="10.00">LocalMsg</text>
</a>
</g>
</g>
<!-- Node9&#45;&gt;Node23 -->
<g id="edge24" class="edge">
<title>Node9&#45;&gt;Node23</title>
<path fill="none" stroke="midnightblue" d="M308.65,-648.07C323.51,-653.66 339.19,-662.31 349,-675.5 415.72,-765.23 312.33,-839.52 385,-924.5 386.93,-926.75 389.05,-928.81 391.34,-930.68"/>
<polygon fill="midnightblue" stroke="midnightblue" points="389.4,-933.6 399.63,-936.37 393.36,-927.83 389.4,-933.6"/>
</g>
<!-- Node24 -->
<g id="node24" class="node">
<title>Node24</title>
<g id="a_node24"><a xlink:href="classdenoptim_1_1graph_1_1_d_graph.html#a5126283bcf1434c3366ea17bfac2c55f" target="_top" xlink:title=" ">
<polygon fill="white" stroke="black" points="400,-770.5 400,-800.5 534,-800.5 534,-770.5 400,-770.5"/>
<text text-anchor="start" x="408" y="-788.5" font-family="Helvetica,sans-Serif" font-size="10.00">denoptim.graph.DGraph.set</text>
<text text-anchor="middle" x="467" y="-777.5" font-family="Helvetica,sans-Serif" font-size="10.00">Rings</text>
</a>
</g>
</g>
<!-- Node9&#45;&gt;Node24 -->
<g id="edge25" class="edge">
<title>Node9&#45;&gt;Node24</title>
<path fill="none" stroke="midnightblue" d="M303.44,-648.02C318.99,-653.83 336.65,-662.66 349,-675.5 377.72,-705.37 354.16,-733.83 385,-761.5 386.91,-763.21 388.94,-764.81 391.06,-766.28"/>
<polygon fill="midnightblue" stroke="midnightblue" points="389.27,-769.29 399.64,-771.44 392.87,-763.29 389.27,-769.29"/>
</g>
<!-- Node25 -->
<g id="node25" class="node">
<title>Node25</title>
<g id="a_node25"><a xlink:href="classdenoptim_1_1graph_1_1_d_graph.html#a98b344e795e1b992802f957ca63d19ca" target="_top" xlink:title=" ">
<polygon fill="white" stroke="black" points="400,-672.5 400,-702.5 534,-702.5 534,-672.5 400,-672.5"/>
<text text-anchor="start" x="408" y="-690.5" font-family="Helvetica,sans-Serif" font-size="10.00">denoptim.graph.DGraph.set</text>
<text text-anchor="middle" x="467" y="-679.5" font-family="Helvetica,sans-Serif" font-size="10.00">SymmetricVertexSets</text>
</a>
</g>
</g>
<!-- Node9&#45;&gt;Node25 -->
<g id="edge26" class="edge">
<title>Node9&#45;&gt;Node25</title>
<path fill="none" stroke="midnightblue" d="M307.85,-648.06C332.84,-654.29 366.18,-662.61 395.81,-670"/>
<polygon fill="midnightblue" stroke="midnightblue" points="395.15,-673.44 405.7,-672.46 396.84,-666.65 395.15,-673.44"/>
</g>
<!-- Node14 -->
<g id="node14" class="node">
<title>Node14</title>
<g id="a_node14"><a xlink:href="classdenoptim_1_1graph_1_1_a_p_class.html#a7ecbfcc68b17ef630d0f46ccb6bb763b" target="_top" xlink:title=" ">
<polygon fill="white" stroke="black" points="587,-721.5 587,-751.5 726,-751.5 726,-721.5 587,-721.5"/>
<text text-anchor="start" x="595" y="-739.5" font-family="Helvetica,sans-Serif" font-size="10.00">denoptim.graph.APClass.get</text>
<text text-anchor="middle" x="656.5" y="-728.5" font-family="Helvetica,sans-Serif" font-size="10.00">BondType</text>
</a>
</g>
</g>
<!-- Node13&#45;&gt;Node14 -->
<g id="edge14" class="edge">
<title>Node13&#45;&gt;Node14</title>
<path fill="none" stroke="midnightblue" d="M534.63,-736.5C548.27,-736.5 562.74,-736.5 576.76,-736.5"/>
<polygon fill="midnightblue" stroke="midnightblue" points="576.86,-740 586.86,-736.5 576.86,-733 576.86,-740"/>
</g>
<!-- Node16 -->
<g id="node16" class="node">
<title>Node16</title>
<g id="a_node16"><a xlink:href="classdenoptim_1_1graph_1_1_vertex.html#a022f7c9075b178f17e13339b215ee21f" target="_top" xlink:title=" ">
<polygon fill="white" stroke="black" points="592.5,-898.5 592.5,-928.5 720.5,-928.5 720.5,-898.5 592.5,-898.5"/>
<text text-anchor="start" x="600.5" y="-916.5" font-family="Helvetica,sans-Serif" font-size="10.00">denoptim.graph.Vertex.get</text>
<text text-anchor="middle" x="656.5" y="-905.5" font-family="Helvetica,sans-Serif" font-size="10.00">AttachmentPoints</text>
</a>
</g>
</g>
<!-- Node15&#45;&gt;Node16 -->
<g id="edge16" class="edge">
<title>Node15&#45;&gt;Node16</title>
<path fill="none" stroke="midnightblue" d="M531.38,-651.56C537.82,-654.72 543.88,-658.64 549,-663.5 582.66,-695.44 567.22,-718.64 585,-761.5 603.92,-807.13 628.76,-859.1 643.34,-888.93"/>
<polygon fill="midnightblue" stroke="midnightblue" points="640.32,-890.72 647.87,-898.15 646.6,-887.63 640.32,-890.72"/>
</g>
<!-- Node19 -->
<g id="node19" class="node">
<title>Node19</title>
<g id="a_node19"><a xlink:href="classdenoptim_1_1graph_1_1_d_graph.html#aff14a66b89e52205a4b6b6a633de0e7e" target="_top" xlink:title="Returns the position of the first vertex that has the given ID.">
<polygon fill="white" stroke="black" points="585,-535.5 585,-565.5 728,-565.5 728,-535.5 585,-535.5"/>
<text text-anchor="start" x="593" y="-553.5" font-family="Helvetica,sans-Serif" font-size="10.00">denoptim.graph.DGraph.index</text>
<text text-anchor="middle" x="656.5" y="-542.5" font-family="Helvetica,sans-Serif" font-size="10.00">OfVertexWithID</text>
</a>
</g>
</g>
<!-- Node18&#45;&gt;Node19 -->
<g id="edge19" class="edge">
<title>Node18&#45;&gt;Node19</title>
<path fill="none" stroke="midnightblue" d="M527.2,-478.51C534.75,-481.36 542.2,-484.67 549,-488.5 567.65,-499.01 566.91,-509.05 585,-520.5 591.1,-524.36 597.79,-527.94 604.54,-531.17"/>
<polygon fill="midnightblue" stroke="midnightblue" points="603.18,-534.4 613.73,-535.37 606.09,-528.03 603.18,-534.4"/>
</g>
<!-- Node19&#45;&gt;Node17 -->
<g id="edge20" class="edge">
<title>Node19&#45;&gt;Node17</title>
<path fill="none" stroke="midnightblue" d="M728.4,-541.3C736.79,-540.21 745.36,-539.1 753.77,-538"/>
<polygon fill="midnightblue" stroke="midnightblue" points="754.47,-541.44 763.94,-536.69 753.57,-534.5 754.47,-541.44"/>
</g>
<!-- Node27&#45;&gt;Node16 -->
<g id="edge29" class="edge">
<title>Node27&#45;&gt;Node16</title>
<path fill="none" stroke="midnightblue" d="M335.77,-704.05C340.72,-706.79 345.25,-710.22 349,-714.5 394.59,-766.47 333.37,-977.53 385,-1023.5 439.44,-1071.97 481.89,-1051.94 549,-1023.5 590.34,-1005.98 623.49,-963.7 641.26,-936.95"/>
<polygon fill="midnightblue" stroke="midnightblue" points="644.21,-938.83 646.69,-928.53 638.33,-935.04 644.21,-938.83"/>
</g>
<!-- Node35 -->
<g id="node35" class="node">
<title>Node35</title>
<g id="a_node35"><a xlink:href="classdenoptim_1_1graph_1_1_d_graph.html#ac06114e85d2de27da6043ce161fa7523" target="_top" xlink:title="Reassign vertex IDs to a graph.">
<polygon fill="white" stroke="black" points="386.5,-360.5 386.5,-390.5 547.5,-390.5 547.5,-360.5 386.5,-360.5"/>
<text text-anchor="start" x="394.5" y="-378.5" font-family="Helvetica,sans-Serif" font-size="10.00">denoptim.graph.DGraph.renumber</text>
<text text-anchor="middle" x="467" y="-367.5" font-family="Helvetica,sans-Serif" font-size="10.00">VerticesGetMap</text>
</a>
</g>
</g>
<!-- Node34&#45;&gt;Node35 -->
<g id="edge39" class="edge">
<title>Node34&#45;&gt;Node35</title>
<path fill="none" stroke="midnightblue" d="M349.14,-375.5C358.03,-375.5 367.13,-375.5 376.14,-375.5"/>
<polygon fill="midnightblue" stroke="midnightblue" points="376.25,-379 386.25,-375.5 376.25,-372 376.25,-379"/>
</g>
<!-- Node35&#45;&gt;Node17 -->
<g id="edge44" class="edge">
<title>Node35&#45;&gt;Node17</title>
<path fill="none" stroke="midnightblue" d="M507.69,-360.49C530.04,-352.84 558.67,-344.35 585,-340.5 647.89,-331.3 673.59,-307.66 728,-340.5 787.41,-376.36 812.97,-461.04 822.34,-503.42"/>
<polygon fill="midnightblue" stroke="midnightblue" points="818.97,-504.39 824.43,-513.47 825.82,-502.97 818.97,-504.39"/>
</g>
<!-- Node35&#45;&gt;Node29 -->
<g id="edge40" class="edge">
<title>Node35&#45;&gt;Node29</title>
<path fill="none" stroke="midnightblue" d="M527.29,-360.38C535.26,-356.48 542.8,-351.61 549,-345.5 580.57,-314.39 553.22,-283.39 585,-252.5 586.63,-250.92 588.36,-249.44 590.18,-248.05"/>
<polygon fill="midnightblue" stroke="midnightblue" points="592.16,-250.94 598.62,-242.54 588.33,-245.08 592.16,-250.94"/>
</g>
<!-- Node35&#45;&gt;Node32 -->
<g id="edge41" class="edge">
<title>Node35&#45;&gt;Node32</title>
<path fill="none" stroke="midnightblue" d="M492.36,-360.36C510.28,-348.09 534.04,-329.3 549,-307.5 576.91,-266.82 550.08,-237.35 585,-202.5 586.09,-201.42 587.22,-200.38 588.41,-199.39"/>
<polygon fill="midnightblue" stroke="midnightblue" points="590.59,-202.13 596.77,-193.52 586.57,-196.4 590.59,-202.13"/>
</g>
<!-- Node35&#45;&gt;Node33 -->
<g id="edge45" class="edge">
<title>Node35&#45;&gt;Node33</title>
<path fill="none" stroke="midnightblue" d="M482.54,-360.18C500.44,-340.58 530.72,-304.89 549,-269.5 573.77,-221.54 547.35,-192.19 585,-153.5 585.94,-152.54 586.92,-151.61 587.93,-150.72"/>
<polygon fill="midnightblue" stroke="midnightblue" points="590.29,-153.33 596.32,-144.61 586.17,-147.67 590.29,-153.33"/>
</g>
<!-- Node36 -->
<g id="node36" class="node">
<title>Node36</title>
<g id="a_node36"><a xlink:href="classdenoptim_1_1utils_1_1_graph_utils.html#a9d08e1ef48052456de71c3c6955f1945" target="_top" xlink:title="Unique counter for the number of graph vertices generated.">
<polygon fill="white" stroke="black" points="586,-398.5 586,-428.5 727,-428.5 727,-398.5 586,-398.5"/>
<text text-anchor="start" x="594" y="-416.5" font-family="Helvetica,sans-Serif" font-size="10.00">denoptim.utils.GraphUtils.get</text>
<text text-anchor="middle" x="656.5" y="-405.5" font-family="Helvetica,sans-Serif" font-size="10.00">UniqueVertexIndex</text>
</a>
</g>
</g>
<!-- Node35&#45;&gt;Node36 -->
<g id="edge42" class="edge">
<title>Node35&#45;&gt;Node36</title>
<path fill="none" stroke="midnightblue" d="M542.1,-390.52C553.27,-392.78 564.82,-395.12 576.09,-397.41"/>
<polygon fill="midnightblue" stroke="midnightblue" points="575.41,-400.84 585.9,-399.39 576.8,-393.98 575.41,-400.84"/>
</g>
<!-- Node37 -->
<g id="node37" class="node">
<title>Node37</title>
<g id="a_node37"><a xlink:href="classdenoptim_1_1graph_1_1_d_graph.html#a3b7c2feb2da30079318f06819e0e6761" target="_top" xlink:title=" ">
<polygon fill="white" stroke="black" points="589.5,-349.5 589.5,-379.5 723.5,-379.5 723.5,-349.5 589.5,-349.5"/>
<text text-anchor="start" x="597.5" y="-367.5" font-family="Helvetica,sans-Serif" font-size="10.00">denoptim.graph.DGraph.get</text>
<text text-anchor="middle" x="656.5" y="-356.5" font-family="Helvetica,sans-Serif" font-size="10.00">VertexCount</text>
</a>
</g>
</g>
<!-- Node35&#45;&gt;Node37 -->
<g id="edge43" class="edge">
<title>Node35&#45;&gt;Node37</title>
<path fill="none" stroke="midnightblue" d="M547.52,-370.84C558,-370.22 568.72,-369.59 579.15,-368.98"/>
<polygon fill="midnightblue" stroke="midnightblue" points="579.67,-372.45 589.45,-368.37 579.26,-365.47 579.67,-372.45"/>
</g>
<!-- Node38 -->
<g id="node38" class="node">
<title>Node38</title>
<g id="a_node38"><a xlink:href="classdenoptim_1_1graph_1_1_vertex.html#ad26ecf426a5e415605df94be904e58d3" target="_top" xlink:title=" ">
<polygon fill="white" stroke="black" points="592.5,-261.5 592.5,-291.5 720.5,-291.5 720.5,-261.5 592.5,-261.5"/>
<text text-anchor="start" x="600.5" y="-279.5" font-family="Helvetica,sans-Serif" font-size="10.00">denoptim.graph.Vertex.set</text>
<text text-anchor="middle" x="656.5" y="-268.5" font-family="Helvetica,sans-Serif" font-size="10.00">Property</text>
</a>
</g>
</g>
<!-- Node35&#45;&gt;Node38 -->
<g id="edge46" class="edge">
<title>Node35&#45;&gt;Node38</title>
<path fill="none" stroke="midnightblue" d="M519.9,-360.42C529.98,-356.37 540.15,-351.42 549,-345.5 568.6,-332.38 565.72,-320.09 585,-306.5 590.55,-302.59 596.69,-299.04 602.97,-295.87"/>
<polygon fill="midnightblue" stroke="midnightblue" points="604.67,-298.94 612.21,-291.5 601.67,-292.62 604.67,-298.94"/>
</g>
<!-- Node39 -->
<g id="node39" class="node">
<title>Node39</title>
<g id="a_node39"><a xlink:href="classdenoptim_1_1graph_1_1_vertex.html#adcb4510b9e479d5c37f9ccc12f9f5c5f" target="_top" xlink:title=" ">
<polygon fill="white" stroke="black" points="592.5,-447.5 592.5,-477.5 720.5,-477.5 720.5,-447.5 592.5,-447.5"/>
<text text-anchor="start" x="600.5" y="-465.5" font-family="Helvetica,sans-Serif" font-size="10.00">denoptim.graph.Vertex.set</text>
<text text-anchor="middle" x="656.5" y="-454.5" font-family="Helvetica,sans-Serif" font-size="10.00">VertexId</text>
</a>
</g>
</g>
<!-- Node35&#45;&gt;Node39 -->
<g id="edge47" class="edge">
<title>Node35&#45;&gt;Node39</title>
<path fill="none" stroke="midnightblue" d="M518.25,-390.66C528.77,-394.77 539.53,-399.72 549,-405.5 567.52,-416.81 566.33,-427.43 585,-438.5 587.84,-440.18 590.81,-441.77 593.86,-443.26"/>
<polygon fill="midnightblue" stroke="midnightblue" points="592.64,-446.54 603.19,-447.45 595.5,-440.16 592.64,-446.54"/>
</g>
</g>
</svg>
        <g id="navigator" transform="translate(0 0)" fill="#404254">
                <rect fill="#f2f5e9" fill-opacity="0.5" stroke="#606060" stroke-width=".5" x="0" y="0" width="60" height="60"/>
                <use id="zoomplus" xlink:href="#zoomPlus" x="17" y="9" onmousedown="handleZoom(evt,'in')"/>
                <use id="zoomminus" xlink:href="#zoomMin" x="42" y="9" onmousedown="handleZoom(evt,'out')"/>
                <use id="reset" xlink:href="#resetDef" x="30" y="36" onmousedown="handleReset()"/>
                <g id="arrowUp" xlink:href="#dirArrow" transform="translate(30 24)" onmousedown="handlePan(0,-1)">
                  <use xlink:href="#rim" fill="#404040">
                        <set attributeName="fill" to="#808080" begin="arrowUp.mouseover" end="arrowUp.mouseout"/>
                  </use>
                  <path fill="none" stroke="white" stroke-width="1.5" d="M0,-3.0v7 M-2.5,-0.5L0,-3.0L2.5,-0.5"/>
                </g>
                <g id="arrowRight" xlink:href="#dirArrow" transform="rotate(90) translate(36 -43)" onmousedown="handlePan(1,0)">
                  <use xlink:href="#rim" fill="#404040">
                        <set attributeName="fill" to="#808080" begin="arrowRight.mouseover" end="arrowRight.mouseout"/>
                  </use>
                  <path fill="none" stroke="white" stroke-width="1.5" d="M0,-3.0v7 M-2.5,-0.5L0,-3.0L2.5,-0.5"/>
                </g>
                <g id="arrowDown" xlink:href="#dirArrow" transform="rotate(180) translate(-30 -48)" onmousedown="handlePan(0,1)">
                  <use xlink:href="#rim" fill="#404040">
                        <set attributeName="fill" to="#808080" begin="arrowDown.mouseover" end="arrowDown.mouseout"/>
                  </use>
                  <path fill="none" stroke="white" stroke-width="1.5" d="M0,-3.0v7 M-2.5,-0.5L0,-3.0L2.5,-0.5"/>
                </g>
                <g id="arrowLeft" xlink:href="#dirArrow" transform="rotate(270) translate(-36 17)" onmousedown="handlePan(-1,0)">
                  <use xlink:href="#rim" fill="#404040">
                        <set attributeName="fill" to="#808080" begin="arrowLeft.mouseover" end="arrowLeft.mouseout"/>
                  </use>
                  <path fill="none" stroke="white" stroke-width="1.5" d="M0,-3.0v7 M-2.5,-0.5L0,-3.0L2.5,-0.5"/>
                </g>
        </g>
        <svg viewBox="0 0 15 15" width="100%" height="30px" preserveAspectRatio="xMaxYMin meet">
         <g id="arrow_out" transform="scale(0.3 0.3)">
          <a xlink:href="classdenoptim_1_1graph_1_1_d_graph_a5beca78261eeee2a7860a18f0719584a_cgraph_org.svg" target="_base">
           <rect id="button" ry="5" rx="5" y="6" x="6" height="38" width="38"
                fill="#f2f5e9" fill-opacity="0.5" stroke="#606060" stroke-width="1.0"/>
           <path id="arrow"
             d="M 11.500037,31.436501 C 11.940474,20.09759 22.043105,11.32322 32.158766,21.979434 L 37.068811,17.246167 C 37.068811,17.246167 37.088388,32 37.088388,32 L 22.160133,31.978069 C 22.160133,31.978069 26.997745,27.140456 26.997745,27.140456 C 18.528582,18.264221 13.291696,25.230495 11.500037,31.436501 z"
             style="fill:#404040;"/>
          </a>
         </g>
        </svg>
</svg>
