<?xml version="1.0" encoding="UTF-8" standalone="no"?>
<!DOCTYPE svg PUBLIC "-//W3C//DTD SVG 1.1//EN"
 "http://www.w3.org/Graphics/SVG/1.1/DTD/svg11.dtd">
<!-- Generated by graphviz version 3.0.0 (20220413.0242)
 -->
<!-- Title: denoptim.utils.GraphUtils.getUniqueMoleculeIndex Pages: 1 -->
<svg width="1019pt" height="343pt"
 viewBox="0.00 0.00 1019.00 343.00" xmlns="http://www.w3.org/2000/svg" xmlns:xlink="http://www.w3.org/1999/xlink">
<g id="graph0" class="graph" transform="scale(1 1) rotate(0) translate(4 339)">
<title>denoptim.utils.GraphUtils.getUniqueMoleculeIndex</title>
<polygon fill="white" stroke="transparent" points="-4,4 -4,-339 1015,-339 1015,4 -4,4"/>
<!-- Node1 -->
<g id="node1" class="node">
<title>Node1</title>
<g id="a_node1"><a xlink:title="Unique counter for the number of molecules generated.">
<polygon fill="#bfbfbf" stroke="black" points="870,-157.5 870,-187.5 1011,-187.5 1011,-157.5 870,-157.5"/>
<text text-anchor="start" x="878" y="-175.5" font-family="Helvetica,sans-Serif" font-size="10.00">denoptim.utils.GraphUtils.get</text>
<text text-anchor="middle" x="940.5" y="-164.5" font-family="Helvetica,sans-Serif" font-size="10.00">UniqueMoleculeIndex</text>
</a>
</g>
</g>
<!-- Node2 -->
<g id="node2" class="node">
<title>Node2</title>
<g id="a_node2"><a xlink:href="classdenoptim_1_1ga_1_1_e_a_utils.html#a5cb6bbe9f383bf821f3b1f1c5e60031b" target="_top" xlink:title=" ">
<polygon fill="white" stroke="black" points="681.5,-304.5 681.5,-334.5 808.5,-334.5 808.5,-304.5 681.5,-304.5"/>
<text text-anchor="start" x="689.5" y="-322.5" font-family="Helvetica,sans-Serif" font-size="10.00">denoptim.ga.EAUtils.build</text>
<text text-anchor="middle" x="745" y="-311.5" font-family="Helvetica,sans-Serif" font-size="10.00">CandidateByMutation</text>
</a>
</g>
</g>
<!-- Node1&#45;&gt;Node2 -->
<g id="edge1" class="edge">
<title>Node1&#45;&gt;Node2</title>
<path fill="none" stroke="midnightblue" d="M925.4,-196.26C907.6,-224.19 874.37,-269.96 834,-295.5 826.24,-300.41 817.48,-304.33 808.57,-307.45"/>
<polygon fill="midnightblue" stroke="midnightblue" points="928.53,-197.86 930.84,-187.52 922.58,-194.17 928.53,-197.86"/>
</g>
<!-- Node7 -->
<g id="node7" class="node">
<title>Node7</title>
<g id="a_node7"><a xlink:href="classdenoptim_1_1ga_1_1_e_a_utils.html#a98553265dd4b441b11c6d97d098edb08" target="_top" xlink:title="Generates a new offspring by performing a crossover operation.">
<polygon fill="white" stroke="black" points="681.5,-255.5 681.5,-285.5 808.5,-285.5 808.5,-255.5 681.5,-255.5"/>
<text text-anchor="start" x="689.5" y="-273.5" font-family="Helvetica,sans-Serif" font-size="10.00">denoptim.ga.EAUtils.build</text>
<text text-anchor="middle" x="745" y="-262.5" font-family="Helvetica,sans-Serif" font-size="10.00">CandidateByXOver</text>
</a>
</g>
</g>
<!-- Node1&#45;&gt;Node7 -->
<g id="edge6" class="edge">
<title>Node1&#45;&gt;Node7</title>
<path fill="none" stroke="midnightblue" d="M914.14,-194.09C893.68,-210.53 863.55,-232.63 834,-246.5 825.97,-250.27 817.25,-253.54 808.51,-256.34"/>
<polygon fill="midnightblue" stroke="midnightblue" points="916.49,-196.69 922.02,-187.66 912.06,-191.27 916.49,-196.69"/>
</g>
<!-- Node8 -->
<g id="node8" class="node">
<title>Node8</title>
<g id="a_node8"><a xlink:href="classdenoptim_1_1ga_1_1_e_a_utils.html#ad3d2daeb11e68a356e971ca1846596b5" target="_top" xlink:title=" ">
<polygon fill="white" stroke="black" points="681.5,-157.5 681.5,-187.5 808.5,-187.5 808.5,-157.5 681.5,-157.5"/>
<text text-anchor="start" x="689.5" y="-175.5" font-family="Helvetica,sans-Serif" font-size="10.00">denoptim.ga.EAUtils.build</text>
<text text-anchor="middle" x="745" y="-164.5" font-family="Helvetica,sans-Serif" font-size="10.00">CandidateFromScratch</text>
</a>
</g>
</g>
<!-- Node1&#45;&gt;Node8 -->
<g id="edge7" class="edge">
<title>Node1&#45;&gt;Node8</title>
<path fill="none" stroke="midnightblue" d="M859.45,-172.5C842.46,-172.5 824.77,-172.5 808.54,-172.5"/>
<polygon fill="midnightblue" stroke="midnightblue" points="859.92,-176 869.92,-172.5 859.92,-169 859.92,-176"/>
</g>
<!-- Node10 -->
<g id="node10" class="node">
<title>Node10</title>
<g id="a_node10"><a xlink:href="classdenoptim_1_1ga_1_1_e_a_utils.html#a2f160fc3fb0488bb995d1e008a706ed4" target="_top" xlink:title="Reconstruct the molecular population from the file.">
<polygon fill="white" stroke="black" points="662,-108.5 662,-138.5 828,-138.5 828,-108.5 662,-108.5"/>
<text text-anchor="start" x="670" y="-126.5" font-family="Helvetica,sans-Serif" font-size="10.00">denoptim.ga.EAUtils.getPopulation</text>
<text text-anchor="middle" x="745" y="-115.5" font-family="Helvetica,sans-Serif" font-size="10.00">FromFile</text>
</a>
</g>
</g>
<!-- Node1&#45;&gt;Node10 -->
<g id="edge11" class="edge">
<title>Node1&#45;&gt;Node10</title>
<path fill="none" stroke="midnightblue" d="M870.2,-154.95C848.95,-149.57 825.77,-143.7 805.26,-138.51"/>
<polygon fill="midnightblue" stroke="midnightblue" points="869.58,-158.4 880.13,-157.47 871.29,-151.62 869.58,-158.4"/>
</g>
<!-- Node12 -->
<g id="node12" class="node">
<title>Node12</title>
<g id="a_node12"><a xlink:href="classdenoptim_1_1combinatorial_1_1_combinatorial_explorer_by_layer.html#a1be545d680af3dd3f3bdf986662b55f4" target="_top" xlink:title="Identify the task preceding the earliest non&#45;completed task and use it to create a checkpoint file.">
<polygon fill="white" stroke="black" points="656,-57.5 656,-87.5 834,-87.5 834,-57.5 656,-57.5"/>
<text text-anchor="start" x="664" y="-75.5" font-family="Helvetica,sans-Serif" font-size="10.00">denoptim.combinatorial.Combinatorial</text>
<text text-anchor="middle" x="745" y="-64.5" font-family="Helvetica,sans-Serif" font-size="10.00">ExplorerByLayer.makeCheckPoint</text>
</a>
</g>
</g>
<!-- Node1&#45;&gt;Node12 -->
<g id="edge14" class="edge">
<title>Node1&#45;&gt;Node12</title>
<path fill="none" stroke="midnightblue" d="M913.6,-151.18C893.05,-135.15 863.06,-113.59 834,-99.5 824.65,-94.97 814.38,-91 804.25,-87.59"/>
<polygon fill="midnightblue" stroke="midnightblue" points="911.51,-154 921.52,-157.46 915.86,-148.51 911.51,-154"/>
</g>
<!-- Node17 -->
<g id="node17" class="node">
<title>Node17</title>
<g id="a_node17"><a xlink:href="classdenoptim_1_1ga_1_1_e_a_utils.html#a1688ab120fd681dabe18d8e60185371a" target="_top" xlink:title=" ">
<polygon fill="white" stroke="black" points="682.5,-206.5 682.5,-236.5 807.5,-236.5 807.5,-206.5 682.5,-206.5"/>
<text text-anchor="start" x="690.5" y="-224.5" font-family="Helvetica,sans-Serif" font-size="10.00">denoptim.ga.EAUtils.read</text>
<text text-anchor="middle" x="745" y="-213.5" font-family="Helvetica,sans-Serif" font-size="10.00">CandidateFromFile</text>
</a>
</g>
</g>
<!-- Node1&#45;&gt;Node17 -->
<g id="edge19" class="edge">
<title>Node1&#45;&gt;Node17</title>
<path fill="none" stroke="midnightblue" d="M870.2,-190.05C848.95,-195.43 825.77,-201.3 805.26,-206.49"/>
<polygon fill="midnightblue" stroke="midnightblue" points="871.29,-193.38 880.13,-187.53 869.58,-186.6 871.29,-193.38"/>
</g>
<!-- Node18 -->
<g id="node18" class="node">
<title>Node18</title>
<g id="a_node18"><a xlink:href="classdenoptim_1_1combinatorial_1_1_graph_building_task.html#a6b74fb1e5678145e094259bfa2401bd4" target="_top" xlink:title=" ">
<polygon fill="white" stroke="black" points="657,-3.5 657,-33.5 833,-33.5 833,-3.5 657,-3.5"/>
<text text-anchor="start" x="665" y="-21.5" font-family="Helvetica,sans-Serif" font-size="10.00">denoptim.combinatorial.Graph</text>
<text text-anchor="middle" x="745" y="-10.5" font-family="Helvetica,sans-Serif" font-size="10.00">BuildingTask.sendToFitnessProvider</text>
</a>
</g>
</g>
<!-- Node1&#45;&gt;Node18 -->
<g id="edge21" class="edge">
<title>Node1&#45;&gt;Node18</title>
<path fill="none" stroke="midnightblue" d="M925.26,-148.71C907.32,-120.67 873.96,-74.49 834,-47.5 825.74,-41.92 816.31,-37.34 806.78,-33.6"/>
<polygon fill="midnightblue" stroke="midnightblue" points="922.47,-150.85 930.74,-157.47 928.41,-147.13 922.47,-150.85"/>
</g>
<!-- Node3 -->
<g id="node3" class="node">
<title>Node3</title>
<g id="a_node3"><a xlink:href="classdenoptim_1_1ga_1_1_evolutionary_algorithm.html#a596b2f5f0b097c5b67a6e5163bd6fe66" target="_top" xlink:title="Generates a given number of new candidate items and adds them to the current population.">
<polygon fill="white" stroke="black" points="459,-206.5 459,-236.5 593,-236.5 593,-206.5 459,-206.5"/>
<text text-anchor="start" x="467" y="-224.5" font-family="Helvetica,sans-Serif" font-size="10.00">denoptim.ga.Evolutionary</text>
<text text-anchor="middle" x="526" y="-213.5" font-family="Helvetica,sans-Serif" font-size="10.00">Algorithm.evolvePopulation</text>
</a>
</g>
</g>
<!-- Node2&#45;&gt;Node3 -->
<g id="edge2" class="edge">
<title>Node2&#45;&gt;Node3</title>
<path fill="none" stroke="midnightblue" d="M671.64,-301.38C666.29,-299.55 661.03,-297.59 656,-295.5 616.65,-279.16 574.44,-253.15 549.4,-236.71"/>
<polygon fill="midnightblue" stroke="midnightblue" points="670.72,-304.76 681.32,-304.52 672.89,-298.1 670.72,-304.76"/>
</g>
<!-- Node4 -->
<g id="node4" class="node">
<title>Node4</title>
<g id="a_node4"><a xlink:href="classdenoptim_1_1ga_1_1_evolutionary_algorithm.html#a6bfc2fa59b199da6259b5b6bad3d6de7" target="_top" xlink:title=" ">
<polygon fill="white" stroke="black" points="245,-157.5 245,-187.5 369,-187.5 369,-157.5 245,-157.5"/>
<text text-anchor="start" x="253" y="-175.5" font-family="Helvetica,sans-Serif" font-size="10.00">denoptim.ga.Evolutionary</text>
<text text-anchor="middle" x="307" y="-164.5" font-family="Helvetica,sans-Serif" font-size="10.00">Algorithm.run</text>
</a>
</g>
</g>
<!-- Node3&#45;&gt;Node4 -->
<g id="edge3" class="edge">
<title>Node3&#45;&gt;Node4</title>
<path fill="none" stroke="midnightblue" d="M448.85,-204.3C422.73,-198.41 393.85,-191.88 369.07,-186.29"/>
<polygon fill="midnightblue" stroke="midnightblue" points="448.19,-207.74 458.71,-206.53 449.73,-200.92 448.19,-207.74"/>
</g>
<!-- Node5 -->
<g id="node5" class="node">
<title>Node5</title>
<g id="a_node5"><a xlink:href="classdenoptim_1_1ga_1_1_evolutionary_algorithm.html#a0f2063b722b7291daf83d62acaa683d3" target="_top" xlink:title=" ">
<polygon fill="white" stroke="black" points="14,-182.5 14,-212.5 168,-212.5 168,-182.5 14,-182.5"/>
<text text-anchor="start" x="22" y="-200.5" font-family="Helvetica,sans-Serif" font-size="10.00">denoptim.ga.Evolutionary</text>
<text text-anchor="middle" x="91" y="-189.5" font-family="Helvetica,sans-Serif" font-size="10.00">Algorithm.EvolutionaryAlgorithm</text>
</a>
</g>
</g>
<!-- Node4&#45;&gt;Node5 -->
<g id="edge4" class="edge">
<title>Node4&#45;&gt;Node5</title>
<path fill="none" stroke="midnightblue" d="M234.99,-180.8C213.62,-183.29 190.08,-186.04 168.38,-188.58"/>
<polygon fill="midnightblue" stroke="midnightblue" points="235.44,-184.27 244.96,-179.63 234.62,-177.31 235.44,-184.27"/>
</g>
<!-- Node6 -->
<g id="node6" class="node">
<title>Node6</title>
<g id="a_node6"><a xlink:href="classdenoptim_1_1programs_1_1denovo_1_1_g_a_runner.html#a7cafd6d78727b89dce3e2c8d06f0dd7c" target="_top" xlink:title=" ">
<polygon fill="white" stroke="black" points="23.5,-133.5 23.5,-163.5 158.5,-163.5 158.5,-133.5 23.5,-133.5"/>
<text text-anchor="start" x="31.5" y="-151.5" font-family="Helvetica,sans-Serif" font-size="10.00">denoptim.programs.denovo.</text>
<text text-anchor="middle" x="91" y="-140.5" font-family="Helvetica,sans-Serif" font-size="10.00">GARunner.runProgram</text>
</a>
</g>
</g>
<!-- Node4&#45;&gt;Node6 -->
<g id="edge5" class="edge">
<title>Node4&#45;&gt;Node6</title>
<path fill="none" stroke="midnightblue" d="M234.98,-164.54C210.41,-161.78 182.97,-158.7 158.74,-155.99"/>
<polygon fill="midnightblue" stroke="midnightblue" points="234.63,-168.02 244.96,-165.65 235.41,-161.06 234.63,-168.02"/>
</g>
<!-- Node8&#45;&gt;Node3 -->
<g id="edge8" class="edge">
<title>Node8&#45;&gt;Node3</title>
<path fill="none" stroke="midnightblue" d="M671.32,-188.91C646.01,-194.63 617.77,-201 593.03,-206.59"/>
<polygon fill="midnightblue" stroke="midnightblue" points="672.25,-192.29 681.23,-186.67 670.71,-185.46 672.25,-192.29"/>
</g>
<!-- Node9 -->
<g id="node9" class="node">
<title>Node9</title>
<g id="a_node9"><a xlink:href="classdenoptim_1_1ga_1_1_evolutionary_algorithm.html#ad43588620dab3340e0d8b0042ec73618" target="_top" xlink:title="Fills up the population with candidates build from scratch.">
<polygon fill="white" stroke="black" points="456,-157.5 456,-187.5 596,-187.5 596,-157.5 456,-157.5"/>
<text text-anchor="start" x="464" y="-175.5" font-family="Helvetica,sans-Serif" font-size="10.00">denoptim.ga.Evolutionary</text>
<text text-anchor="middle" x="526" y="-164.5" font-family="Helvetica,sans-Serif" font-size="10.00">Algorithm.initializePopulation</text>
</a>
</g>
</g>
<!-- Node8&#45;&gt;Node9 -->
<g id="edge9" class="edge">
<title>Node8&#45;&gt;Node9</title>
<path fill="none" stroke="midnightblue" d="M671.04,-172.5C646.84,-172.5 619.99,-172.5 596.09,-172.5"/>
<polygon fill="midnightblue" stroke="midnightblue" points="671.23,-176 681.23,-172.5 671.23,-169 671.23,-176"/>
</g>
<!-- Node9&#45;&gt;Node4 -->
<g id="edge10" class="edge">
<title>Node9&#45;&gt;Node4</title>
<path fill="none" stroke="midnightblue" d="M445.49,-172.5C420.34,-172.5 392.95,-172.5 369.28,-172.5"/>
<polygon fill="midnightblue" stroke="midnightblue" points="445.74,-176 455.74,-172.5 445.74,-169 445.74,-176"/>
</g>
<!-- Node11 -->
<g id="node11" class="node">
<title>Node11</title>
<g id="a_node11"><a xlink:href="classdenoptim_1_1ga_1_1_e_a_utils.html#aecbe9af608218e129a006ddae17ac66b" target="_top" xlink:title="Reads unique identifiers and initial population files according to the GAParameters.">
<polygon fill="white" stroke="black" points="459,-108.5 459,-138.5 593,-138.5 593,-108.5 459,-108.5"/>
<text text-anchor="start" x="467" y="-126.5" font-family="Helvetica,sans-Serif" font-size="10.00">denoptim.ga.EAUtils.import</text>
<text text-anchor="middle" x="526" y="-115.5" font-family="Helvetica,sans-Serif" font-size="10.00">InitialPopulation</text>
</a>
</g>
</g>
<!-- Node10&#45;&gt;Node11 -->
<g id="edge12" class="edge">
<title>Node10&#45;&gt;Node11</title>
<path fill="none" stroke="midnightblue" d="M651.77,-123.5C632.11,-123.5 611.73,-123.5 593.28,-123.5"/>
<polygon fill="midnightblue" stroke="midnightblue" points="651.96,-127 661.96,-123.5 651.96,-120 651.96,-127"/>
</g>
<!-- Node11&#45;&gt;Node4 -->
<g id="edge13" class="edge">
<title>Node11&#45;&gt;Node4</title>
<path fill="none" stroke="midnightblue" d="M448.85,-140.7C422.73,-146.59 393.85,-153.12 369.07,-158.71"/>
<polygon fill="midnightblue" stroke="midnightblue" points="449.73,-144.08 458.71,-138.47 448.19,-137.26 449.73,-144.08"/>
</g>
<!-- Node13 -->
<g id="node13" class="node">
<title>Node13</title>
<g id="a_node13"><a xlink:href="classdenoptim_1_1combinatorial_1_1_combinatorial_explorer_by_layer.html#adcd462866e3f9d6a2a6ef0385807807e" target="_top" xlink:title="Generate graphs by exploring all combination of fragments at a given level of a growing graph.">
<polygon fill="white" stroke="black" points="432,-49 432,-90 620,-90 620,-49 432,-49"/>
<text text-anchor="start" x="440" y="-78" font-family="Helvetica,sans-Serif" font-size="10.00">denoptim.combinatorial.Combinatorial</text>
<text text-anchor="start" x="440" y="-67" font-family="Helvetica,sans-Serif" font-size="10.00">ExplorerByLayer.exploreCombinationsAt</text>
<text text-anchor="middle" x="526" y="-56" font-family="Helvetica,sans-Serif" font-size="10.00">GivenLevel</text>
</a>
</g>
</g>
<!-- Node12&#45;&gt;Node13 -->
<g id="edge15" class="edge">
<title>Node12&#45;&gt;Node13</title>
<path fill="none" stroke="midnightblue" d="M645.49,-71.14C637.05,-71.02 628.53,-70.9 620.13,-70.79"/>
<polygon fill="midnightblue" stroke="midnightblue" points="645.69,-74.64 655.74,-71.28 645.79,-67.64 645.69,-74.64"/>
</g>
<!-- Node14 -->
<g id="node14" class="node">
<title>Node14</title>
<g id="a_node14"><a xlink:href="classdenoptim_1_1combinatorial_1_1_combinatorial_explorer_by_layer.html#af9327fa81f9e2a617cdff353848ad6e1" target="_top" xlink:title="Run the combinatorial exploration.">
<polygon fill="white" stroke="black" points="218,-54.5 218,-84.5 396,-84.5 396,-54.5 218,-54.5"/>
<text text-anchor="start" x="226" y="-72.5" font-family="Helvetica,sans-Serif" font-size="10.00">denoptim.combinatorial.Combinatorial</text>
<text text-anchor="middle" x="307" y="-61.5" font-family="Helvetica,sans-Serif" font-size="10.00">ExplorerByLayer.run</text>
</a>
</g>
</g>
<!-- Node13&#45;&gt;Node14 -->
<g id="edge16" class="edge">
<title>Node13&#45;&gt;Node14</title>
<path fill="none" stroke="midnightblue" d="M421.68,-69.5C413.11,-69.5 404.5,-69.5 396.06,-69.5"/>
<polygon fill="midnightblue" stroke="midnightblue" points="421.71,-73 431.71,-69.5 421.71,-66 421.71,-73"/>
</g>
<!-- Node15 -->
<g id="node15" class="node">
<title>Node15</title>
<g id="a_node15"><a xlink:href="classdenoptim_1_1combinatorial_1_1_combinatorial_explorer_by_layer.html#a8f359a45038dc604a5e437d63a35e1a2" target="_top" xlink:title="Constructor.">
<polygon fill="white" stroke="black" points="0,-62 0,-103 182,-103 182,-62 0,-62"/>
<text text-anchor="start" x="8" y="-91" font-family="Helvetica,sans-Serif" font-size="10.00">denoptim.combinatorial.Combinatorial</text>
<text text-anchor="start" x="8" y="-80" font-family="Helvetica,sans-Serif" font-size="10.00">ExplorerByLayer.CombinatorialExplorer</text>
<text text-anchor="middle" x="91" y="-69" font-family="Helvetica,sans-Serif" font-size="10.00">ByLayer</text>
</a>
</g>
</g>
<!-- Node14&#45;&gt;Node15 -->
<g id="edge17" class="edge">
<title>Node14&#45;&gt;Node15</title>
<path fill="none" stroke="midnightblue" d="M207.47,-75.49C199.03,-76 190.52,-76.52 182.15,-77.02"/>
<polygon fill="midnightblue" stroke="midnightblue" points="207.95,-78.96 217.72,-74.86 207.53,-71.98 207.95,-78.96"/>
</g>
<!-- Node16 -->
<g id="node16" class="node">
<title>Node16</title>
<g id="a_node16"><a xlink:href="classdenoptim_1_1programs_1_1combinatorial_1_1_frag_space_explorer.html#a1c6a2aae9ab686d5c7c0fc6246f7aa61" target="_top" xlink:title=" ">
<polygon fill="white" stroke="black" points="10.5,-13.5 10.5,-43.5 171.5,-43.5 171.5,-13.5 10.5,-13.5"/>
<text text-anchor="start" x="18.5" y="-31.5" font-family="Helvetica,sans-Serif" font-size="10.00">denoptim.programs.combinatorial.</text>
<text text-anchor="middle" x="91" y="-20.5" font-family="Helvetica,sans-Serif" font-size="10.00">FragSpaceExplorer.runProgram</text>
</a>
</g>
</g>
<!-- Node14&#45;&gt;Node16 -->
<g id="edge18" class="edge">
<title>Node14&#45;&gt;Node16</title>
<path fill="none" stroke="midnightblue" d="M217.39,-52.52C201.83,-49.54 185.73,-46.46 170.46,-43.53"/>
<polygon fill="midnightblue" stroke="midnightblue" points="217.05,-56.02 227.53,-54.47 218.37,-49.15 217.05,-56.02"/>
</g>
<!-- Node17&#45;&gt;Node3 -->
<g id="edge20" class="edge">
<title>Node17&#45;&gt;Node3</title>
<path fill="none" stroke="midnightblue" d="M672.08,-221.5C646.68,-221.5 618.24,-221.5 593.31,-221.5"/>
<polygon fill="midnightblue" stroke="midnightblue" points="672.4,-225 682.4,-221.5 672.4,-218 672.4,-225"/>
</g>
<!-- Node19 -->
<g id="node19" class="node">
<title>Node19</title>
<g id="a_node19"><a xlink:href="classdenoptim_1_1combinatorial_1_1_graph_building_task.html#a3eaee724fc921194fa158714aafe182d" target="_top" xlink:title="Calls the task.">
<polygon fill="white" stroke="black" points="453.5,-0.5 453.5,-30.5 598.5,-30.5 598.5,-0.5 453.5,-0.5"/>
<text text-anchor="start" x="461.5" y="-18.5" font-family="Helvetica,sans-Serif" font-size="10.00">denoptim.combinatorial.Graph</text>
<text text-anchor="middle" x="526" y="-7.5" font-family="Helvetica,sans-Serif" font-size="10.00">BuildingTask.call</text>
</a>
</g>
</g>
<!-- Node18&#45;&gt;Node19 -->
<g id="edge22" class="edge">
<title>Node18&#45;&gt;Node19</title>
<path fill="none" stroke="midnightblue" d="M646.95,-17.16C630.73,-16.93 614.16,-16.7 598.72,-16.49"/>
<polygon fill="midnightblue" stroke="midnightblue" points="646.94,-20.66 656.99,-17.3 647.04,-13.66 646.94,-20.66"/>
</g>
</g>
</svg>
