<?xml version="1.0" encoding="UTF-8" standalone="no"?>
<!DOCTYPE svg PUBLIC "-//W3C//DTD SVG 1.1//EN"
 "http://www.w3.org/Graphics/SVG/1.1/DTD/svg11.dtd">
<!-- Generated by graphviz version 3.0.0 (20220413.0242)
 -->
<!-- Title: denoptim.utils.Randomizer.nextBoolean Pages: 1 -->
<svg width="1312pt" height="263pt"
 viewBox="0.00 0.00 1312.00 262.50" xmlns="http://www.w3.org/2000/svg" xmlns:xlink="http://www.w3.org/1999/xlink">
<g id="graph0" class="graph" transform="scale(1 1) rotate(0) translate(4 258.5)">
<title>denoptim.utils.Randomizer.nextBoolean</title>
<polygon fill="white" stroke="transparent" points="-4,4 -4,-258.5 1308,-258.5 1308,4 -4,4"/>
<!-- Node1 -->
<g id="node1" class="node">
<title>Node1</title>
<g id="a_node1"><a xlink:title="Returns the next pseudo&#45;random, uniformly distributed boolean value from this random number generator...">
<polygon fill="#bfbfbf" stroke="black" points="1154,-108 1154,-138 1304,-138 1304,-108 1154,-108"/>
<text text-anchor="start" x="1162" y="-126" font-family="Helvetica,sans-Serif" font-size="10.00">denoptim.utils.Randomizer.next</text>
<text text-anchor="middle" x="1229" y="-115" font-family="Helvetica,sans-Serif" font-size="10.00">Boolean</text>
</a>
</g>
</g>
<!-- Node2 -->
<g id="node2" class="node">
<title>Node2</title>
<g id="a_node2"><a xlink:href="classdenoptim_1_1ga_1_1_graph_operations.html#a253bf47206c313b9f62623677eb589ef" target="_top" xlink:title="Decides whether to apply constitutional symmetry or not.">
<polygon fill="white" stroke="black" points="945,-180 945,-210 1115,-210 1115,-180 945,-180"/>
<text text-anchor="start" x="953" y="-198" font-family="Helvetica,sans-Serif" font-size="10.00">denoptim.ga.GraphOperations.apply</text>
<text text-anchor="middle" x="1030" y="-187" font-family="Helvetica,sans-Serif" font-size="10.00">Symmetry</text>
</a>
</g>
</g>
<!-- Node1&#45;&gt;Node2 -->
<g id="edge1" class="edge">
<title>Node1&#45;&gt;Node2</title>
<path fill="none" stroke="midnightblue" d="M1176.91,-141.67C1144.34,-153.57 1102.7,-168.79 1072.24,-179.93"/>
<polygon fill="midnightblue" stroke="midnightblue" points="1178.51,-144.81 1186.7,-138.09 1176.11,-138.24 1178.51,-144.81"/>
</g>
<!-- Node5 -->
<g id="node5" class="node">
<title>Node5</title>
<g id="a_node5"><a xlink:href="classdenoptim_1_1utils_1_1_randomizer.html#ac846a1f050f9ee65022492c84e4793fa" target="_top" xlink:title="Returns a point in three&#45;dimensional space with a random set of coordinates, the absolute value of wh...">
<polygon fill="white" stroke="black" points="957,-108 957,-138 1103,-138 1103,-108 957,-108"/>
<text text-anchor="start" x="965" y="-126" font-family="Helvetica,sans-Serif" font-size="10.00">denoptim.utils.Randomizer.get</text>
<text text-anchor="middle" x="1030" y="-115" font-family="Helvetica,sans-Serif" font-size="10.00">NoisyPoint</text>
</a>
</g>
</g>
<!-- Node1&#45;&gt;Node5 -->
<g id="edge5" class="edge">
<title>Node1&#45;&gt;Node5</title>
<path fill="none" stroke="midnightblue" d="M1143.6,-123C1130.14,-123 1116.32,-123 1103.17,-123"/>
<polygon fill="midnightblue" stroke="midnightblue" points="1143.8,-126.5 1153.8,-123 1143.8,-119.5 1143.8,-126.5"/>
</g>
<!-- Node10 -->
<g id="node10" class="node">
<title>Node10</title>
<g id="a_node10"><a xlink:href="classdenoptim_1_1ga_1_1_selection_helper.html#a8c9b38255efa029c6b672d26a03ce90c" target="_top" xlink:title="Select p individuals at random.">
<polygon fill="white" stroke="black" points="942,-59 942,-89 1118,-89 1118,-59 942,-59"/>
<text text-anchor="start" x="950" y="-77" font-family="Helvetica,sans-Serif" font-size="10.00">denoptim.ga.SelectionHelper.perform</text>
<text text-anchor="middle" x="1030" y="-66" font-family="Helvetica,sans-Serif" font-size="10.00">TournamentSelection</text>
</a>
</g>
</g>
<!-- Node1&#45;&gt;Node10 -->
<g id="edge10" class="edge">
<title>Node1&#45;&gt;Node10</title>
<path fill="none" stroke="midnightblue" d="M1157.74,-105.52C1136.02,-100.12 1112.31,-94.22 1091.33,-89.01"/>
<polygon fill="midnightblue" stroke="midnightblue" points="1157.01,-108.95 1167.55,-107.97 1158.7,-102.16 1157.01,-108.95"/>
</g>
<!-- Node3 -->
<g id="node3" class="node">
<title>Node3</title>
<g id="a_node3"><a xlink:href="classdenoptim_1_1ga_1_1_graph_operations.html#a39422068717596d7a2598665eb8bb692" target="_top" xlink:title=" ">
<polygon fill="white" stroke="black" points="732,-224 732,-254 906,-254 906,-224 732,-224"/>
<text text-anchor="start" x="740" y="-242" font-family="Helvetica,sans-Serif" font-size="10.00">denoptim.ga.GraphOperations.attach</text>
<text text-anchor="middle" x="819" y="-231" font-family="Helvetica,sans-Serif" font-size="10.00">FragmentInClosableChain</text>
</a>
</g>
</g>
<!-- Node2&#45;&gt;Node3 -->
<g id="edge2" class="edge">
<title>Node2&#45;&gt;Node3</title>
<path fill="none" stroke="midnightblue" d="M947.75,-212.11C929.15,-216.02 909.52,-220.15 891.37,-223.97"/>
<polygon fill="midnightblue" stroke="midnightblue" points="948.59,-215.5 957.66,-210.02 947.15,-208.65 948.59,-215.5"/>
</g>
<!-- Node4 -->
<g id="node4" class="node">
<title>Node4</title>
<g id="a_node4"><a xlink:href="classdenoptim_1_1ga_1_1_graph_operations.html#a104e82aba7242a457da09540ff0400da" target="_top" xlink:title="function that will keep extending the graph.">
<polygon fill="white" stroke="black" points="520,-224 520,-254 696,-254 696,-224 520,-224"/>
<text text-anchor="start" x="528" y="-242" font-family="Helvetica,sans-Serif" font-size="10.00">denoptim.ga.GraphOperations.extend</text>
<text text-anchor="middle" x="608" y="-231" font-family="Helvetica,sans-Serif" font-size="10.00">Graph</text>
</a>
</g>
</g>
<!-- Node2&#45;&gt;Node4 -->
<g id="edge4" class="edge">
<title>Node2&#45;&gt;Node4</title>
<path fill="none" stroke="midnightblue" d="M934.53,-198.33C876.02,-201.15 799.44,-206.19 732,-215 714.42,-217.3 695.56,-220.57 678.03,-223.95"/>
<polygon fill="midnightblue" stroke="midnightblue" points="935.05,-201.81 944.87,-197.85 934.72,-194.82 935.05,-201.81"/>
</g>
<!-- Node3&#45;&gt;Node4 -->
<g id="edge3" class="edge">
<title>Node3&#45;&gt;Node4</title>
<path fill="none" stroke="midnightblue" d="M721.76,-239C713.18,-239 704.53,-239 696.03,-239"/>
<polygon fill="midnightblue" stroke="midnightblue" points="721.79,-242.5 731.79,-239 721.79,-235.5 721.79,-242.5"/>
</g>
<!-- Node6 -->
<g id="node6" class="node">
<title>Node6</title>
<g id="a_node6"><a xlink:href="classdenoptim_1_1fragmenter_1_1_fragment_clusterer_test.html#a6c81ab7e238aeed0006bc08ca584db62" target="_top" xlink:title="The noise magnitude is to be interpreted as half of the overall magnitude.">
<polygon fill="white" stroke="black" points="744.5,-135 744.5,-165 893.5,-165 893.5,-135 744.5,-135"/>
<text text-anchor="start" x="752.5" y="-153" font-family="Helvetica,sans-Serif" font-size="10.00">denoptim.fragmenter.Fragment</text>
<text text-anchor="middle" x="819" y="-142" font-family="Helvetica,sans-Serif" font-size="10.00">ClustererTest.getNoisyPoint</text>
</a>
</g>
</g>
<!-- Node5&#45;&gt;Node6 -->
<g id="edge6" class="edge">
<title>Node5&#45;&gt;Node6</title>
<path fill="none" stroke="midnightblue" d="M946.6,-133.64C929.12,-135.9 910.77,-138.27 893.64,-140.49"/>
<polygon fill="midnightblue" stroke="midnightblue" points="947.31,-137.08 956.78,-132.33 946.42,-130.14 947.31,-137.08"/>
</g>
<!-- Node9 -->
<g id="node9" class="node">
<title>Node9</title>
<g id="a_node9"><a xlink:href="classdenoptim_1_1utils_1_1_randomizer_test.html#a668de9e8b868a6b84e8a781b1a1d317f" target="_top" xlink:title=" ">
<polygon fill="white" stroke="black" points="754,-86 754,-116 884,-116 884,-86 754,-86"/>
<text text-anchor="start" x="762" y="-104" font-family="Helvetica,sans-Serif" font-size="10.00">denoptim.utils.Randomizer</text>
<text text-anchor="middle" x="819" y="-93" font-family="Helvetica,sans-Serif" font-size="10.00">Test.tesGetNoisyPoint</text>
</a>
</g>
</g>
<!-- Node5&#45;&gt;Node9 -->
<g id="edge9" class="edge">
<title>Node5&#45;&gt;Node9</title>
<path fill="none" stroke="midnightblue" d="M946.7,-114.34C925.92,-112.15 903.92,-109.83 884.19,-107.76"/>
<polygon fill="midnightblue" stroke="midnightblue" points="946.47,-117.83 956.78,-115.4 947.2,-110.87 946.47,-117.83"/>
</g>
<!-- Node7 -->
<g id="node7" class="node">
<title>Node7</title>
<g id="a_node7"><a xlink:href="classdenoptim_1_1fragmenter_1_1_fragment_clusterer_test.html#aa17925160f3f03080e8680c7016fc1c4" target="_top" xlink:title=" ">
<polygon fill="white" stroke="black" points="533.5,-175 533.5,-205 682.5,-205 682.5,-175 533.5,-175"/>
<text text-anchor="start" x="541.5" y="-193" font-family="Helvetica,sans-Serif" font-size="10.00">denoptim.fragmenter.Fragment</text>
<text text-anchor="middle" x="608" y="-182" font-family="Helvetica,sans-Serif" font-size="10.00">ClustererTest.testCluster</text>
</a>
</g>
</g>
<!-- Node6&#45;&gt;Node7 -->
<g id="edge7" class="edge">
<title>Node6&#45;&gt;Node7</title>
<path fill="none" stroke="midnightblue" d="M734.36,-166.01C717.28,-169.28 699.43,-172.69 682.72,-175.89"/>
<polygon fill="midnightblue" stroke="midnightblue" points="735.15,-169.42 744.31,-164.1 733.83,-162.54 735.15,-169.42"/>
</g>
<!-- Node8 -->
<g id="node8" class="node">
<title>Node8</title>
<g id="a_node8"><a xlink:href="classdenoptim_1_1fragmenter_1_1_fragment_clusterer_test.html#acb2fe702b9d02d39a38ca1cc732c9ee4" target="_top" xlink:title=" ">
<polygon fill="white" stroke="black" points="533.5,-126 533.5,-156 682.5,-156 682.5,-126 533.5,-126"/>
<text text-anchor="start" x="541.5" y="-144" font-family="Helvetica,sans-Serif" font-size="10.00">denoptim.fragmenter.Fragment</text>
<text text-anchor="middle" x="608" y="-133" font-family="Helvetica,sans-Serif" font-size="10.00">ClustererTest.testCluster2</text>
</a>
</g>
</g>
<!-- Node6&#45;&gt;Node8 -->
<g id="edge8" class="edge">
<title>Node6&#45;&gt;Node8</title>
<path fill="none" stroke="midnightblue" d="M733.88,-146.38C716.95,-145.65 699.27,-144.89 682.72,-144.17"/>
<polygon fill="midnightblue" stroke="midnightblue" points="734.17,-149.89 744.31,-146.83 734.47,-142.9 734.17,-149.89"/>
</g>
<!-- Node11 -->
<g id="node11" class="node">
<title>Node11</title>
<g id="a_node11"><a xlink:href="classdenoptim_1_1ga_1_1_e_a_utils.html#aa58e7cef632419fceeeb96e09b3e09fc" target="_top" xlink:title="Selects a number of members from the given population.">
<polygon fill="white" stroke="black" points="752.5,-35 752.5,-65 885.5,-65 885.5,-35 752.5,-35"/>
<text text-anchor="start" x="760.5" y="-53" font-family="Helvetica,sans-Serif" font-size="10.00">denoptim.ga.EAUtils.select</text>
<text text-anchor="middle" x="819" y="-42" font-family="Helvetica,sans-Serif" font-size="10.00">BasedOnFitness</text>
</a>
</g>
</g>
<!-- Node10&#45;&gt;Node11 -->
<g id="edge11" class="edge">
<title>Node10&#45;&gt;Node11</title>
<path fill="none" stroke="midnightblue" d="M931.67,-62.82C916.08,-61.03 900.27,-59.22 885.64,-57.54"/>
<polygon fill="midnightblue" stroke="midnightblue" points="931.54,-66.33 941.88,-64 932.34,-59.38 931.54,-66.33"/>
</g>
<!-- Node12 -->
<g id="node12" class="node">
<title>Node12</title>
<g id="a_node12"><a xlink:href="classdenoptim_1_1ga_1_1_e_a_utils.html#a5cb6bbe9f383bf821f3b1f1c5e60031b" target="_top" xlink:title=" ">
<polygon fill="white" stroke="black" points="544.5,-77 544.5,-107 671.5,-107 671.5,-77 544.5,-77"/>
<text text-anchor="start" x="552.5" y="-95" font-family="Helvetica,sans-Serif" font-size="10.00">denoptim.ga.EAUtils.build</text>
<text text-anchor="middle" x="608" y="-84" font-family="Helvetica,sans-Serif" font-size="10.00">CandidateByMutation</text>
</a>
</g>
</g>
<!-- Node11&#45;&gt;Node12 -->
<g id="edge12" class="edge">
<title>Node11&#45;&gt;Node12</title>
<path fill="none" stroke="midnightblue" d="M742.64,-65.15C719.41,-69.81 694.11,-74.9 671.82,-79.38"/>
<polygon fill="midnightblue" stroke="midnightblue" points="743.33,-68.58 752.44,-63.17 741.95,-61.71 743.33,-68.58"/>
</g>
<!-- Node17 -->
<g id="node17" class="node">
<title>Node17</title>
<g id="a_node17"><a xlink:href="classdenoptim_1_1ga_1_1_e_a_utils.html#a98553265dd4b441b11c6d97d098edb08" target="_top" xlink:title="Generates a new offspring by performing a crossover operation.">
<polygon fill="white" stroke="black" points="353.5,-12 353.5,-42 480.5,-42 480.5,-12 353.5,-12"/>
<text text-anchor="start" x="361.5" y="-30" font-family="Helvetica,sans-Serif" font-size="10.00">denoptim.ga.EAUtils.build</text>
<text text-anchor="middle" x="417" y="-19" font-family="Helvetica,sans-Serif" font-size="10.00">CandidateByXOver</text>
</a>
</g>
</g>
<!-- Node11&#45;&gt;Node17 -->
<g id="edge17" class="edge">
<title>Node11&#45;&gt;Node17</title>
<path fill="none" stroke="midnightblue" d="M741.98,-45.63C666.24,-41.27 551.34,-34.67 480.67,-30.6"/>
<polygon fill="midnightblue" stroke="midnightblue" points="742.21,-49.15 752.4,-46.23 742.61,-42.16 742.21,-49.15"/>
</g>
<!-- Node18 -->
<g id="node18" class="node">
<title>Node18</title>
<g id="a_node18"><a xlink:href="classdenoptim_1_1ga_1_1_e_a_utils.html#af1c589b6d5ba261e1417f3cd299e8e5d" target="_top" xlink:title="Perform fitness&#45;based, class&#45;compatible selection of parents that can do crossover operations.">
<polygon fill="white" stroke="black" points="525,-0.5 525,-19.5 691,-19.5 691,-0.5 525,-0.5"/>
<text text-anchor="middle" x="608" y="-7.5" font-family="Helvetica,sans-Serif" font-size="10.00">denoptim.ga.EAUtils.performFBCC</text>
</a>
</g>
</g>
<!-- Node11&#45;&gt;Node18 -->
<g id="edge18" class="edge">
<title>Node11&#45;&gt;Node18</title>
<path fill="none" stroke="midnightblue" d="M742.34,-35.52C714.51,-30.19 683.71,-24.3 658.73,-19.52"/>
<polygon fill="midnightblue" stroke="midnightblue" points="741.96,-39.01 752.44,-37.45 743.28,-32.14 741.96,-39.01"/>
</g>
<!-- Node13 -->
<g id="node13" class="node">
<title>Node13</title>
<g id="a_node13"><a xlink:href="classdenoptim_1_1ga_1_1_evolutionary_algorithm.html#a596b2f5f0b097c5b67a6e5163bd6fe66" target="_top" xlink:title="Generates a given number of new candidate items and adds them to the current population.">
<polygon fill="white" stroke="black" points="350,-77 350,-107 484,-107 484,-77 350,-77"/>
<text text-anchor="start" x="358" y="-95" font-family="Helvetica,sans-Serif" font-size="10.00">denoptim.ga.Evolutionary</text>
<text text-anchor="middle" x="417" y="-84" font-family="Helvetica,sans-Serif" font-size="10.00">Algorithm.evolvePopulation</text>
</a>
</g>
</g>
<!-- Node12&#45;&gt;Node13 -->
<g id="edge13" class="edge">
<title>Node12&#45;&gt;Node13</title>
<path fill="none" stroke="midnightblue" d="M534.2,-92C517.7,-92 500.27,-92 484.07,-92"/>
<polygon fill="midnightblue" stroke="midnightblue" points="534.33,-95.5 544.33,-92 534.33,-88.5 534.33,-95.5"/>
</g>
<!-- Node14 -->
<g id="node14" class="node">
<title>Node14</title>
<g id="a_node14"><a xlink:href="classdenoptim_1_1ga_1_1_evolutionary_algorithm.html#a6bfc2fa59b199da6259b5b6bad3d6de7" target="_top" xlink:title=" ">
<polygon fill="white" stroke="black" points="190,-77 190,-107 314,-107 314,-77 190,-77"/>
<text text-anchor="start" x="198" y="-95" font-family="Helvetica,sans-Serif" font-size="10.00">denoptim.ga.Evolutionary</text>
<text text-anchor="middle" x="252" y="-84" font-family="Helvetica,sans-Serif" font-size="10.00">Algorithm.run</text>
</a>
</g>
</g>
<!-- Node13&#45;&gt;Node14 -->
<g id="edge14" class="edge">
<title>Node13&#45;&gt;Node14</title>
<path fill="none" stroke="midnightblue" d="M339.45,-92C331,-92 322.48,-92 314.25,-92"/>
<polygon fill="midnightblue" stroke="midnightblue" points="339.7,-95.5 349.7,-92 339.7,-88.5 339.7,-95.5"/>
</g>
<!-- Node15 -->
<g id="node15" class="node">
<title>Node15</title>
<g id="a_node15"><a xlink:href="classdenoptim_1_1ga_1_1_evolutionary_algorithm.html#a0f2063b722b7291daf83d62acaa683d3" target="_top" xlink:title=" ">
<polygon fill="white" stroke="black" points="0,-102 0,-132 154,-132 154,-102 0,-102"/>
<text text-anchor="start" x="8" y="-120" font-family="Helvetica,sans-Serif" font-size="10.00">denoptim.ga.Evolutionary</text>
<text text-anchor="middle" x="77" y="-109" font-family="Helvetica,sans-Serif" font-size="10.00">Algorithm.EvolutionaryAlgorithm</text>
</a>
</g>
</g>
<!-- Node14&#45;&gt;Node15 -->
<g id="edge15" class="edge">
<title>Node14&#45;&gt;Node15</title>
<path fill="none" stroke="midnightblue" d="M179.44,-102.34C171.09,-103.55 162.54,-104.78 154.12,-106"/>
<polygon fill="midnightblue" stroke="midnightblue" points="180.12,-105.78 189.52,-100.88 179.12,-98.85 180.12,-105.78"/>
</g>
<!-- Node16 -->
<g id="node16" class="node">
<title>Node16</title>
<g id="a_node16"><a xlink:href="classdenoptim_1_1programs_1_1denovo_1_1_g_a_runner.html#a7cafd6d78727b89dce3e2c8d06f0dd7c" target="_top" xlink:title=" ">
<polygon fill="white" stroke="black" points="9.5,-53 9.5,-83 144.5,-83 144.5,-53 9.5,-53"/>
<text text-anchor="start" x="17.5" y="-71" font-family="Helvetica,sans-Serif" font-size="10.00">denoptim.programs.denovo.</text>
<text text-anchor="middle" x="77" y="-60" font-family="Helvetica,sans-Serif" font-size="10.00">GARunner.runProgram</text>
</a>
</g>
</g>
<!-- Node14&#45;&gt;Node16 -->
<g id="edge16" class="edge">
<title>Node14&#45;&gt;Node16</title>
<path fill="none" stroke="midnightblue" d="M179.48,-82.08C167.92,-80.47 156,-78.82 144.57,-77.23"/>
<polygon fill="midnightblue" stroke="midnightblue" points="179.13,-85.56 189.52,-83.47 180.1,-78.63 179.13,-85.56"/>
</g>
<!-- Node18&#45;&gt;Node17 -->
<g id="edge19" class="edge">
<title>Node18&#45;&gt;Node17</title>
<path fill="none" stroke="midnightblue" d="M514.79,-18.29C503.22,-19.33 491.61,-20.38 480.65,-21.37"/>
<polygon fill="midnightblue" stroke="midnightblue" points="515.28,-21.76 524.93,-17.38 514.65,-14.79 515.28,-21.76"/>
</g>
</g>
</svg>
