<?xml version="1.0" encoding="UTF-8" standalone="no"?>
<!DOCTYPE svg PUBLIC "-//W3C//DTD SVG 1.1//EN"
 "http://www.w3.org/Graphics/SVG/1.1/DTD/svg11.dtd">
<!-- Generated by graphviz version 3.0.0 (20220413.0242)
 -->
<!-- Title: denoptim.graph.Vertex.getSymmetricAPSets Pages: 1 -->
<svg width="1219pt" height="411pt"
 viewBox="0.00 0.00 1219.00 411.00" xmlns="http://www.w3.org/2000/svg" xmlns:xlink="http://www.w3.org/1999/xlink">
<g id="graph0" class="graph" transform="scale(1 1) rotate(0) translate(4 407)">
<title>denoptim.graph.Vertex.getSymmetricAPSets</title>
<polygon fill="white" stroke="transparent" points="-4,4 -4,-407 1215,-407 1215,4 -4,4"/>
<!-- Node1 -->
<g id="node1" class="node">
<title>Node1</title>
<g id="a_node1"><a xlink:title=" ">
<polygon fill="#bfbfbf" stroke="black" points="1083,-191.5 1083,-221.5 1211,-221.5 1211,-191.5 1083,-191.5"/>
<text text-anchor="start" x="1091" y="-209.5" font-family="Helvetica,sans-Serif" font-size="10.00">denoptim.graph.Vertex.get</text>
<text text-anchor="middle" x="1147" y="-198.5" font-family="Helvetica,sans-Serif" font-size="10.00">SymmetricAPSets</text>
</a>
</g>
</g>
<!-- Node2 -->
<g id="node2" class="node">
<title>Node2</title>
<g id="a_node2"><a xlink:href="classdenoptim_1_1graph_1_1_vertex.html#a753a5b34a54d1ea9a3381b37d26df98b" target="_top" xlink:title=" ">
<polygon fill="white" stroke="black" points="877,-373 877,-392 1026,-392 1026,-373 877,-373"/>
<text text-anchor="middle" x="951.5" y="-380" font-family="Helvetica,sans-Serif" font-size="10.00">denoptim.graph.Vertex.cleanup</text>
</a>
</g>
</g>
<!-- Node1&#45;&gt;Node2 -->
<g id="edge1" class="edge">
<title>Node1&#45;&gt;Node2</title>
<path fill="none" stroke="midnightblue" d="M1137.48,-231.51C1124.07,-266.84 1094.58,-330.72 1047,-363.5 1040.66,-367.87 1033.55,-371.28 1026.15,-373.94"/>
<polygon fill="midnightblue" stroke="midnightblue" points="1140.83,-232.53 1140.98,-221.93 1134.26,-230.12 1140.83,-232.53"/>
</g>
<!-- Node3 -->
<g id="node3" class="node">
<title>Node3</title>
<g id="a_node3"><a xlink:href="classdenoptim_1_1graph_1_1_vertex.html#a93624f3ad6a89025e6bd7c4c830bdef2" target="_top" xlink:title="For the given attachment point index locate the symmetric partners i.e.">
<polygon fill="white" stroke="black" points="887.5,-323.5 887.5,-353.5 1015.5,-353.5 1015.5,-323.5 887.5,-323.5"/>
<text text-anchor="start" x="895.5" y="-341.5" font-family="Helvetica,sans-Serif" font-size="10.00">denoptim.graph.Vertex.get</text>
<text text-anchor="middle" x="951.5" y="-330.5" font-family="Helvetica,sans-Serif" font-size="10.00">SymmetricAPs</text>
</a>
</g>
</g>
<!-- Node1&#45;&gt;Node3 -->
<g id="edge2" class="edge">
<title>Node1&#45;&gt;Node3</title>
<path fill="none" stroke="midnightblue" d="M1129.01,-229.8C1111.05,-252.87 1080.69,-287.67 1047,-308.5 1037.34,-314.48 1026.38,-319.36 1015.43,-323.33"/>
<polygon fill="midnightblue" stroke="midnightblue" points="1131.99,-231.66 1135.27,-221.59 1126.42,-227.42 1131.99,-231.66"/>
</g>
<!-- Node5 -->
<g id="node5" class="node">
<title>Node5</title>
<g id="a_node5"><a xlink:href="classdenoptim_1_1json_1_1_d_e_n_o_p_t_i_mgson_test.html#a78e6eb5e60124f63897dd28e1c21082d" target="_top" xlink:title=" ">
<polygon fill="white" stroke="black" points="450,-308.5 450,-338.5 602,-338.5 602,-308.5 450,-308.5"/>
<text text-anchor="start" x="458" y="-326.5" font-family="Helvetica,sans-Serif" font-size="10.00">denoptim.json.DENOPTIMgson</text>
<text text-anchor="middle" x="526" y="-315.5" font-family="Helvetica,sans-Serif" font-size="10.00">Test.testTemplateSerialization</text>
</a>
</g>
</g>
<!-- Node1&#45;&gt;Node5 -->
<g id="edge17" class="edge">
<title>Node1&#45;&gt;Node5</title>
<path fill="none" stroke="midnightblue" d="M1122.24,-228.42C1103.35,-244.44 1075.45,-265.1 1047,-275.5 1026.46,-283.01 741.33,-306.48 602.24,-317.57"/>
<polygon fill="midnightblue" stroke="midnightblue" points="1124.76,-230.87 1130.01,-221.66 1120.17,-225.58 1124.76,-230.87"/>
</g>
<!-- Node7 -->
<g id="node7" class="node">
<title>Node7</title>
<g id="a_node7"><a xlink:href="classdenoptim_1_1graph_1_1_vertex.html#a44507a876a3505edbeaf455a6f71a601" target="_top" xlink:title=" ">
<polygon fill="white" stroke="black" points="886,-235.5 886,-265.5 1017,-265.5 1017,-235.5 886,-235.5"/>
<text text-anchor="start" x="894" y="-253.5" font-family="Helvetica,sans-Serif" font-size="10.00">denoptim.graph.Vertex.has</text>
<text text-anchor="middle" x="951.5" y="-242.5" font-family="Helvetica,sans-Serif" font-size="10.00">SymmetricAP</text>
</a>
</g>
</g>
<!-- Node1&#45;&gt;Node7 -->
<g id="edge6" class="edge">
<title>Node1&#45;&gt;Node7</title>
<path fill="none" stroke="midnightblue" d="M1073.13,-223.07C1054.74,-227.25 1035.12,-231.71 1017.16,-235.8"/>
<polygon fill="midnightblue" stroke="midnightblue" points="1073.93,-226.48 1082.91,-220.85 1072.38,-219.65 1073.93,-226.48"/>
</g>
<!-- Node8 -->
<g id="node8" class="node">
<title>Node8</title>
<g id="a_node8"><a xlink:href="classdenoptim_1_1fragspace_1_1_frags_combination_iterator.html#a1669a88512d2bd3b14cdd00235dff50a" target="_top" xlink:title="Generate the next combination of fragments.">
<polygon fill="white" stroke="black" points="674,-213.5 674,-243.5 802,-243.5 802,-213.5 674,-213.5"/>
<text text-anchor="start" x="682" y="-231.5" font-family="Helvetica,sans-Serif" font-size="10.00">denoptim.fragspace.Frags</text>
<text text-anchor="middle" x="738" y="-220.5" font-family="Helvetica,sans-Serif" font-size="10.00">CombinationIterator.next</text>
</a>
</g>
</g>
<!-- Node1&#45;&gt;Node8 -->
<g id="edge12" class="edge">
<title>Node1&#45;&gt;Node8</title>
<path fill="none" stroke="midnightblue" d="M1072.73,-210.46C995.61,-214.63 875.44,-221.12 802.3,-225.08"/>
<polygon fill="midnightblue" stroke="midnightblue" points="1073.06,-213.95 1082.85,-209.91 1072.68,-206.96 1073.06,-213.95"/>
</g>
<!-- Node13 -->
<g id="node13" class="node">
<title>Node13</title>
<g id="a_node13"><a xlink:href="classdenoptim_1_1graph_1_1_fragment_test.html#a0a98792d99861bb6673e66a76ff49d31" target="_top" xlink:title=" ">
<polygon fill="white" stroke="black" points="869.5,-147.5 869.5,-177.5 1033.5,-177.5 1033.5,-147.5 869.5,-147.5"/>
<text text-anchor="start" x="877.5" y="-165.5" font-family="Helvetica,sans-Serif" font-size="10.00">denoptim.graph.FragmentTest.test</text>
<text text-anchor="middle" x="951.5" y="-154.5" font-family="Helvetica,sans-Serif" font-size="10.00">Clone</text>
</a>
</g>
</g>
<!-- Node1&#45;&gt;Node13 -->
<g id="edge13" class="edge">
<title>Node1&#45;&gt;Node13</title>
<path fill="none" stroke="midnightblue" d="M1073.09,-189.92C1055.16,-185.84 1036.08,-181.5 1018.5,-177.51"/>
<polygon fill="midnightblue" stroke="midnightblue" points="1072.38,-193.35 1082.91,-192.15 1073.93,-186.52 1072.38,-193.35"/>
</g>
<!-- Node14 -->
<g id="node14" class="node">
<title>Node14</title>
<g id="a_node14"><a xlink:href="classdenoptim_1_1graph_1_1_vertex_test.html#ab36c441c57e9852e2be6d810d80fbc87" target="_top" xlink:title=" ">
<polygon fill="white" stroke="black" points="876,-98.5 876,-128.5 1027,-128.5 1027,-98.5 876,-98.5"/>
<text text-anchor="start" x="884" y="-116.5" font-family="Helvetica,sans-Serif" font-size="10.00">denoptim.graph.VertexTest.test</text>
<text text-anchor="middle" x="951.5" y="-105.5" font-family="Helvetica,sans-Serif" font-size="10.00">Clone</text>
</a>
</g>
</g>
<!-- Node1&#45;&gt;Node14 -->
<g id="edge14" class="edge">
<title>Node1&#45;&gt;Node14</title>
<path fill="none" stroke="midnightblue" d="M1120.68,-184.99C1101.55,-169.74 1074.05,-149.87 1047,-137.5 1039.53,-134.09 1031.5,-131.11 1023.39,-128.52"/>
<polygon fill="midnightblue" stroke="midnightblue" points="1118.62,-187.83 1128.59,-191.42 1123.04,-182.4 1118.62,-187.83"/>
</g>
<!-- Node15 -->
<g id="node15" class="node">
<title>Node15</title>
<g id="a_node15"><a xlink:href="classdenoptim_1_1json_1_1_d_e_n_o_p_t_i_mgson_test.html#ac2186d67581bef7c19379247af6672d6" target="_top" xlink:title=" ">
<polygon fill="white" stroke="black" points="856,-49.5 856,-79.5 1047,-79.5 1047,-49.5 856,-49.5"/>
<text text-anchor="start" x="864" y="-67.5" font-family="Helvetica,sans-Serif" font-size="10.00">denoptim.json.DENOPTIMgson</text>
<text text-anchor="middle" x="951.5" y="-56.5" font-family="Helvetica,sans-Serif" font-size="10.00">Test.testMolecularFragmentSerialization</text>
</a>
</g>
</g>
<!-- Node1&#45;&gt;Node15 -->
<g id="edge15" class="edge">
<title>Node1&#45;&gt;Node15</title>
<path fill="none" stroke="midnightblue" d="M1132.22,-182.38C1115.53,-155.37 1084.88,-112.29 1047,-88.5 1041.55,-85.08 1035.64,-82.15 1029.52,-79.63"/>
<polygon fill="midnightblue" stroke="midnightblue" points="1129.37,-184.44 1137.53,-191.2 1135.37,-180.83 1129.37,-184.44"/>
</g>
<!-- Node16 -->
<g id="node16" class="node">
<title>Node16</title>
<g id="a_node16"><a xlink:href="classdenoptim_1_1fragspace_1_1_fragment_space_test.html#ab364422886eee4ba289a703f83b0ef1b" target="_top" xlink:title=" ">
<polygon fill="white" stroke="black" points="879,-0.5 879,-30.5 1024,-30.5 1024,-0.5 879,-0.5"/>
<text text-anchor="start" x="887" y="-18.5" font-family="Helvetica,sans-Serif" font-size="10.00">denoptim.fragspace.Fragment</text>
<text text-anchor="middle" x="951.5" y="-7.5" font-family="Helvetica,sans-Serif" font-size="10.00">SpaceTest.testSymmetry</text>
</a>
</g>
</g>
<!-- Node1&#45;&gt;Node16 -->
<g id="edge16" class="edge">
<title>Node1&#45;&gt;Node16</title>
<path fill="none" stroke="midnightblue" d="M1138.09,-181.38C1125.15,-144.48 1095.88,-76.06 1047,-39.5 1040.22,-34.43 1032.49,-30.43 1024.43,-27.26"/>
<polygon fill="midnightblue" stroke="midnightblue" points="1134.93,-182.97 1141.45,-191.32 1141.57,-180.73 1134.93,-182.97"/>
</g>
<!-- Node4 -->
<g id="node4" class="node">
<title>Node4</title>
<g id="a_node4"><a xlink:href="classdenoptim_1_1graph_1_1_template.html#a4e1f81acd762a2795026420494954653" target="_top" xlink:title="The SymmetricSet produced from this method contain indexes of the AttachmentPoints in the list return...">
<polygon fill="white" stroke="black" points="667.5,-372.5 667.5,-402.5 808.5,-402.5 808.5,-372.5 667.5,-372.5"/>
<text text-anchor="start" x="675.5" y="-390.5" font-family="Helvetica,sans-Serif" font-size="10.00">denoptim.graph.Template.get</text>
<text text-anchor="middle" x="738" y="-379.5" font-family="Helvetica,sans-Serif" font-size="10.00">SymmetricAPSets</text>
</a>
</g>
</g>
<!-- Node3&#45;&gt;Node4 -->
<g id="edge3" class="edge">
<title>Node3&#45;&gt;Node4</title>
<path fill="none" stroke="midnightblue" d="M877.29,-355.46C853.47,-360.98 827.22,-367.06 804.04,-372.43"/>
<polygon fill="midnightblue" stroke="midnightblue" points="878.38,-358.8 887.33,-353.14 876.8,-351.98 878.38,-358.8"/>
</g>
<!-- Node6 -->
<g id="node6" class="node">
<title>Node6</title>
<g id="a_node6"><a xlink:href="classdenoptim_1_1graph_1_1_fragment_test.html#a12552fabbb6c8af399da78f10279fce2" target="_top" xlink:title=" ">
<polygon fill="white" stroke="black" points="656,-323.5 656,-353.5 820,-353.5 820,-323.5 656,-323.5"/>
<text text-anchor="start" x="664" y="-341.5" font-family="Helvetica,sans-Serif" font-size="10.00">denoptim.graph.FragmentTest.test</text>
<text text-anchor="middle" x="738" y="-330.5" font-family="Helvetica,sans-Serif" font-size="10.00">ConversionToIAC</text>
</a>
</g>
</g>
<!-- Node3&#45;&gt;Node6 -->
<g id="edge5" class="edge">
<title>Node3&#45;&gt;Node6</title>
<path fill="none" stroke="midnightblue" d="M877.28,-338.5C858.88,-338.5 839.04,-338.5 820.27,-338.5"/>
<polygon fill="midnightblue" stroke="midnightblue" points="877.33,-342 887.33,-338.5 877.33,-335 877.33,-342"/>
</g>
<!-- Node4&#45;&gt;Node5 -->
<g id="edge4" class="edge">
<title>Node4&#45;&gt;Node5</title>
<path fill="none" stroke="midnightblue" d="M676.1,-369.54C669.31,-367.52 662.51,-365.47 656,-363.5 629.19,-355.37 599.3,-346.11 575.04,-338.56"/>
<polygon fill="midnightblue" stroke="midnightblue" points="675.4,-372.99 685.98,-372.49 677.4,-366.28 675.4,-372.99"/>
</g>
<!-- Node7&#45;&gt;Node8 -->
<g id="edge7" class="edge">
<title>Node7&#45;&gt;Node8</title>
<path fill="none" stroke="midnightblue" d="M875.74,-242.72C851.68,-240.22 825.26,-237.47 802.12,-235.07"/>
<polygon fill="midnightblue" stroke="midnightblue" points="875.59,-246.23 885.89,-243.78 876.31,-239.26 875.59,-246.23"/>
</g>
<!-- Node9 -->
<g id="node9" class="node">
<title>Node9</title>
<g id="a_node9"><a xlink:href="classdenoptim_1_1combinatorial_1_1_combinatorial_explorer_by_layer.html#adcd462866e3f9d6a2a6ef0385807807e" target="_top" xlink:title="Generate graphs by exploring all combination of fragments at a given level of a growing graph.">
<polygon fill="white" stroke="black" points="432,-208 432,-249 620,-249 620,-208 432,-208"/>
<text text-anchor="start" x="440" y="-237" font-family="Helvetica,sans-Serif" font-size="10.00">denoptim.combinatorial.Combinatorial</text>
<text text-anchor="start" x="440" y="-226" font-family="Helvetica,sans-Serif" font-size="10.00">ExplorerByLayer.exploreCombinationsAt</text>
<text text-anchor="middle" x="526" y="-215" font-family="Helvetica,sans-Serif" font-size="10.00">GivenLevel</text>
</a>
</g>
</g>
<!-- Node8&#45;&gt;Node9 -->
<g id="edge8" class="edge">
<title>Node8&#45;&gt;Node9</title>
<path fill="none" stroke="midnightblue" d="M663.9,-228.5C649.81,-228.5 634.87,-228.5 620.25,-228.5"/>
<polygon fill="midnightblue" stroke="midnightblue" points="663.99,-232 673.99,-228.5 663.99,-225 663.99,-232"/>
</g>
<!-- Node10 -->
<g id="node10" class="node">
<title>Node10</title>
<g id="a_node10"><a xlink:href="classdenoptim_1_1combinatorial_1_1_combinatorial_explorer_by_layer.html#af9327fa81f9e2a617cdff353848ad6e1" target="_top" xlink:title="Run the combinatorial exploration.">
<polygon fill="white" stroke="black" points="218,-213.5 218,-243.5 396,-243.5 396,-213.5 218,-213.5"/>
<text text-anchor="start" x="226" y="-231.5" font-family="Helvetica,sans-Serif" font-size="10.00">denoptim.combinatorial.Combinatorial</text>
<text text-anchor="middle" x="307" y="-220.5" font-family="Helvetica,sans-Serif" font-size="10.00">ExplorerByLayer.run</text>
</a>
</g>
</g>
<!-- Node9&#45;&gt;Node10 -->
<g id="edge9" class="edge">
<title>Node9&#45;&gt;Node10</title>
<path fill="none" stroke="midnightblue" d="M421.68,-228.5C413.11,-228.5 404.5,-228.5 396.06,-228.5"/>
<polygon fill="midnightblue" stroke="midnightblue" points="421.71,-232 431.71,-228.5 421.71,-225 421.71,-232"/>
</g>
<!-- Node11 -->
<g id="node11" class="node">
<title>Node11</title>
<g id="a_node11"><a xlink:href="classdenoptim_1_1combinatorial_1_1_combinatorial_explorer_by_layer.html#a8f359a45038dc604a5e437d63a35e1a2" target="_top" xlink:title="Constructor.">
<polygon fill="white" stroke="black" points="0,-235 0,-276 182,-276 182,-235 0,-235"/>
<text text-anchor="start" x="8" y="-264" font-family="Helvetica,sans-Serif" font-size="10.00">denoptim.combinatorial.Combinatorial</text>
<text text-anchor="start" x="8" y="-253" font-family="Helvetica,sans-Serif" font-size="10.00">ExplorerByLayer.CombinatorialExplorer</text>
<text text-anchor="middle" x="91" y="-242" font-family="Helvetica,sans-Serif" font-size="10.00">ByLayer</text>
</a>
</g>
</g>
<!-- Node10&#45;&gt;Node11 -->
<g id="edge10" class="edge">
<title>Node10&#45;&gt;Node11</title>
<path fill="none" stroke="midnightblue" d="M207.75,-240.9C199.22,-241.97 190.61,-243.06 182.15,-244.13"/>
<polygon fill="midnightblue" stroke="midnightblue" points="208.24,-244.36 217.72,-239.64 207.36,-237.42 208.24,-244.36"/>
</g>
<!-- Node12 -->
<g id="node12" class="node">
<title>Node12</title>
<g id="a_node12"><a xlink:href="classdenoptim_1_1programs_1_1combinatorial_1_1_frag_space_explorer.html#a1c6a2aae9ab686d5c7c0fc6246f7aa61" target="_top" xlink:title=" ">
<polygon fill="white" stroke="black" points="10.5,-186.5 10.5,-216.5 171.5,-216.5 171.5,-186.5 10.5,-186.5"/>
<text text-anchor="start" x="18.5" y="-204.5" font-family="Helvetica,sans-Serif" font-size="10.00">denoptim.programs.combinatorial.</text>
<text text-anchor="middle" x="91" y="-193.5" font-family="Helvetica,sans-Serif" font-size="10.00">FragSpaceExplorer.runProgram</text>
</a>
</g>
</g>
<!-- Node10&#45;&gt;Node12 -->
<g id="edge11" class="edge">
<title>Node10&#45;&gt;Node12</title>
<path fill="none" stroke="midnightblue" d="M207.61,-216.09C195.52,-214.56 183.27,-213.02 171.51,-211.53"/>
<polygon fill="midnightblue" stroke="midnightblue" points="207.36,-219.58 217.72,-217.36 208.24,-212.64 207.36,-219.58"/>
</g>
</g>
</svg>
