<?xml version="1.0" encoding="UTF-8" standalone="no"?>
<!DOCTYPE svg PUBLIC "-//W3C//DTD SVG 1.1//EN"
 "http://www.w3.org/Graphics/SVG/1.1/DTD/svg11.dtd">
<!-- Generated by graphviz version 3.0.0 (20220413.0242)
 -->
<!-- Title: denoptim.graph.rings.RingClosingAttractor.isAttractor Pages: 1 -->
<svg width="1737pt" height="301pt"
 viewBox="0.00 0.00 1737.00 301.00" xmlns="http://www.w3.org/2000/svg" xmlns:xlink="http://www.w3.org/1999/xlink">
<g id="graph0" class="graph" transform="scale(1 1) rotate(0) translate(4 297)">
<title>denoptim.graph.rings.RingClosingAttractor.isAttractor</title>
<polygon fill="white" stroke="transparent" points="-4,4 -4,-297 1733,-297 1733,4 -4,4"/>
<!-- Node1 -->
<g id="node1" class="node">
<title>Node1</title>
<g id="a_node1"><a xlink:title="Checks whether the constructed RingClosingAttractor does corresponds to a RingClosingAttractor in the...">
<polygon fill="#bfbfbf" stroke="black" points="1595,-73.5 1595,-103.5 1729,-103.5 1729,-73.5 1595,-73.5"/>
<text text-anchor="start" x="1603" y="-91.5" font-family="Helvetica,sans-Serif" font-size="10.00">denoptim.graph.rings.Ring</text>
<text text-anchor="middle" x="1662" y="-80.5" font-family="Helvetica,sans-Serif" font-size="10.00">ClosingAttractor.isAttractor</text>
</a>
</g>
</g>
<!-- Node2 -->
<g id="node2" class="node">
<title>Node2</title>
<g id="a_node2"><a xlink:href="classdenoptim_1_1graph_1_1rings_1_1_cyclic_graph_handler_1_1_ring_size_manager.html#a68b1aa5cd1df8bb959064588e994b74e" target="_top" xlink:title=" ">
<polygon fill="white" stroke="black" points="1363,-147 1363,-188 1559,-188 1559,-147 1363,-147"/>
<text text-anchor="start" x="1371" y="-176" font-family="Helvetica,sans-Serif" font-size="10.00">denoptim.graph.rings.Cyclic</text>
<text text-anchor="start" x="1371" y="-165" font-family="Helvetica,sans-Serif" font-size="10.00">GraphHandler.RingSizeManager.calculate</text>
<text text-anchor="middle" x="1461" y="-154" font-family="Helvetica,sans-Serif" font-size="10.00">CompatibilityOfAllRCAPairs</text>
</a>
</g>
</g>
<!-- Node1&#45;&gt;Node2 -->
<g id="edge1" class="edge">
<title>Node1&#45;&gt;Node2</title>
<path fill="none" stroke="midnightblue" d="M1623.55,-108.13C1604.51,-117.69 1580.85,-128.93 1559,-137.5 1550.63,-140.78 1541.75,-143.95 1532.89,-146.91"/>
<polygon fill="midnightblue" stroke="midnightblue" points="1625.15,-111.24 1632.49,-103.6 1621.99,-105 1625.15,-111.24"/>
</g>
<!-- Node18 -->
<g id="node18" class="node">
<title>Node18</title>
<g id="a_node18"><a xlink:href="classdenoptim_1_1molecularmodeling_1_1_chemical_object_model.html#a4a6af1c7cf4d276fbebacb62d5ab812b" target="_top" xlink:title=" ">
<polygon fill="white" stroke="black" points="1375,-98.5 1375,-128.5 1547,-128.5 1547,-98.5 1375,-98.5"/>
<text text-anchor="start" x="1383" y="-116.5" font-family="Helvetica,sans-Serif" font-size="10.00">denoptim.molecularmodeling.</text>
<text text-anchor="middle" x="1461" y="-105.5" font-family="Helvetica,sans-Serif" font-size="10.00">ChemicalObjectModel.findAttractors</text>
</a>
</g>
</g>
<!-- Node1&#45;&gt;Node18 -->
<g id="edge21" class="edge">
<title>Node1&#45;&gt;Node18</title>
<path fill="none" stroke="midnightblue" d="M1584.57,-98.1C1572.3,-99.64 1559.54,-101.25 1547.09,-102.81"/>
<polygon fill="midnightblue" stroke="midnightblue" points="1585.25,-101.54 1594.74,-96.82 1584.38,-94.6 1585.25,-101.54"/>
</g>
<!-- Node20 -->
<g id="node20" class="node">
<title>Node20</title>
<g id="a_node20"><a xlink:href="classdenoptim_1_1utils_1_1_ring_closing_utils.html#a98c7ed8aac41bd235c06b62902f698cc" target="_top" xlink:title="Looks for pseudoatoms representing the possibility of closing a ring: the so&#45;called RingClosingAttrac...">
<polygon fill="white" stroke="black" points="1395.5,-49.5 1395.5,-79.5 1526.5,-79.5 1526.5,-49.5 1395.5,-49.5"/>
<text text-anchor="start" x="1403.5" y="-67.5" font-family="Helvetica,sans-Serif" font-size="10.00">denoptim.utils.RingClosing</text>
<text text-anchor="middle" x="1461" y="-56.5" font-family="Helvetica,sans-Serif" font-size="10.00">Utils.findAttractors</text>
</a>
</g>
</g>
<!-- Node1&#45;&gt;Node20 -->
<g id="edge23" class="edge">
<title>Node1&#45;&gt;Node20</title>
<path fill="none" stroke="midnightblue" d="M1584.56,-79.28C1565.44,-76.97 1545.11,-74.52 1526.62,-72.29"/>
<polygon fill="midnightblue" stroke="midnightblue" points="1584.39,-82.79 1594.74,-80.51 1585.23,-75.84 1584.39,-82.79"/>
</g>
<!-- Node21 -->
<g id="node21" class="node">
<title>Node21</title>
<g id="a_node21"><a xlink:href="classdenoptim_1_1graph_1_1rings_1_1_ring_closing_attractor.html#aaf3f6966d930377d2577f7509fb9a68e" target="_top" xlink:title="Constructor for a RingClosingAttractor corresponding to an atom in an IAtomContainer.">
<polygon fill="white" stroke="black" points="1372,-0.5 1372,-30.5 1550,-30.5 1550,-0.5 1372,-0.5"/>
<text text-anchor="start" x="1380" y="-18.5" font-family="Helvetica,sans-Serif" font-size="10.00">denoptim.graph.rings.Ring</text>
<text text-anchor="middle" x="1461" y="-7.5" font-family="Helvetica,sans-Serif" font-size="10.00">ClosingAttractor.RingClosingAttractor</text>
</a>
</g>
</g>
<!-- Node1&#45;&gt;Node21 -->
<g id="edge24" class="edge">
<title>Node1&#45;&gt;Node21</title>
<path fill="none" stroke="midnightblue" d="M1624.56,-68.74C1605.45,-58.96 1581.4,-47.56 1559,-39.5 1549.86,-36.21 1540.07,-33.22 1530.37,-30.54"/>
<polygon fill="midnightblue" stroke="midnightblue" points="1623.04,-71.89 1633.52,-73.39 1626.26,-65.68 1623.04,-71.89"/>
</g>
<!-- Node3 -->
<g id="node3" class="node">
<title>Node3</title>
<g id="a_node3"><a xlink:href="classdenoptim_1_1graph_1_1rings_1_1_cyclic_graph_handler_1_1_ring_size_manager.html#a0fc0f3889f18d330fc50f28a4264ca21" target="_top" xlink:title=" ">
<polygon fill="white" stroke="black" points="1136,-198 1136,-239 1309,-239 1309,-198 1136,-198"/>
<text text-anchor="start" x="1144" y="-227" font-family="Helvetica,sans-Serif" font-size="10.00">denoptim.graph.rings.Cyclic</text>
<text text-anchor="start" x="1144" y="-216" font-family="Helvetica,sans-Serif" font-size="10.00">GraphHandler.RingSizeManager.add</text>
<text text-anchor="middle" x="1222.5" y="-205" font-family="Helvetica,sans-Serif" font-size="10.00">RingClosingBond</text>
</a>
</g>
</g>
<!-- Node2&#45;&gt;Node3 -->
<g id="edge2" class="edge">
<title>Node2&#45;&gt;Node3</title>
<path fill="none" stroke="midnightblue" d="M1354.87,-190.17C1339.64,-193.46 1324.11,-196.8 1309.31,-200"/>
<polygon fill="midnightblue" stroke="midnightblue" points="1355.79,-193.55 1364.83,-188.02 1354.32,-186.71 1355.79,-193.55"/>
</g>
<!-- Node14 -->
<g id="node14" class="node">
<title>Node14</title>
<g id="a_node14"><a xlink:href="classdenoptim_1_1graph_1_1rings_1_1_cyclic_graph_handler_1_1_ring_size_manager.html#a9b1b85afae57c94c9059527bd796259c" target="_top" xlink:title=" ">
<polygon fill="white" stroke="black" points="1127,-149.5 1127,-179.5 1318,-179.5 1318,-149.5 1127,-149.5"/>
<text text-anchor="start" x="1135" y="-167.5" font-family="Helvetica,sans-Serif" font-size="10.00">denoptim.graph.rings.Cyclic</text>
<text text-anchor="middle" x="1222.5" y="-156.5" font-family="Helvetica,sans-Serif" font-size="10.00">GraphHandler.RingSizeManager.initialize</text>
</a>
</g>
</g>
<!-- Node2&#45;&gt;Node14 -->
<g id="edge15" class="edge">
<title>Node2&#45;&gt;Node14</title>
<path fill="none" stroke="midnightblue" d="M1352.68,-166.14C1341.13,-165.99 1329.44,-165.84 1318.05,-165.7"/>
<polygon fill="midnightblue" stroke="midnightblue" points="1352.74,-169.64 1362.78,-166.27 1352.83,-162.64 1352.74,-169.64"/>
</g>
<!-- Node4 -->
<g id="node4" class="node">
<title>Node4</title>
<g id="a_node4"><a xlink:href="classdenoptim_1_1graph_1_1rings_1_1_cyclic_graph_handler.html#a08b02946eaac7c2cbbe6e71332d702e6" target="_top" xlink:title="Identifies a random combination of ring closing paths and returns it as list of DENOPTIMRings ready t...">
<polygon fill="white" stroke="black" points="899,-198 899,-239 1081,-239 1081,-198 899,-198"/>
<text text-anchor="start" x="907" y="-227" font-family="Helvetica,sans-Serif" font-size="10.00">denoptim.graph.rings.Cyclic</text>
<text text-anchor="start" x="907" y="-216" font-family="Helvetica,sans-Serif" font-size="10.00">GraphHandler.getRandomCombination</text>
<text text-anchor="middle" x="990" y="-205" font-family="Helvetica,sans-Serif" font-size="10.00">OfRings</text>
</a>
</g>
</g>
<!-- Node3&#45;&gt;Node4 -->
<g id="edge3" class="edge">
<title>Node3&#45;&gt;Node4</title>
<path fill="none" stroke="midnightblue" d="M1125.89,-218.5C1111.16,-218.5 1095.99,-218.5 1081.38,-218.5"/>
<polygon fill="midnightblue" stroke="midnightblue" points="1126,-222 1136,-218.5 1126,-215 1126,-222"/>
</g>
<!-- Node5 -->
<g id="node5" class="node">
<title>Node5</title>
<g id="a_node5"><a xlink:href="classdenoptim_1_1ga_1_1_e_a_utils.html#a1ddb932d4618434d435e4f85ce5e5eb5" target="_top" xlink:title="Evaluates the possibility of closing rings in a given graph and if any ring can be closed,...">
<polygon fill="white" stroke="black" points="719,-203.5 719,-233.5 850,-233.5 850,-203.5 719,-203.5"/>
<text text-anchor="start" x="727" y="-221.5" font-family="Helvetica,sans-Serif" font-size="10.00">denoptim.ga.EAUtils.setup</text>
<text text-anchor="middle" x="784.5" y="-210.5" font-family="Helvetica,sans-Serif" font-size="10.00">Rings</text>
</a>
</g>
</g>
<!-- Node4&#45;&gt;Node5 -->
<g id="edge4" class="edge">
<title>Node4&#45;&gt;Node5</title>
<path fill="none" stroke="midnightblue" d="M888.84,-218.5C875.72,-218.5 862.56,-218.5 850.24,-218.5"/>
<polygon fill="midnightblue" stroke="midnightblue" points="888.85,-222 898.85,-218.5 888.85,-215 888.85,-222"/>
</g>
<!-- Node6 -->
<g id="node6" class="node">
<title>Node6</title>
<g id="a_node6"><a xlink:href="classdenoptim_1_1ga_1_1_e_a_utils.html#a5cb6bbe9f383bf821f3b1f1c5e60031b" target="_top" xlink:title=" ">
<polygon fill="white" stroke="black" points="535,-262.5 535,-292.5 662,-292.5 662,-262.5 535,-262.5"/>
<text text-anchor="start" x="543" y="-280.5" font-family="Helvetica,sans-Serif" font-size="10.00">denoptim.ga.EAUtils.build</text>
<text text-anchor="middle" x="598.5" y="-269.5" font-family="Helvetica,sans-Serif" font-size="10.00">CandidateByMutation</text>
</a>
</g>
</g>
<!-- Node5&#45;&gt;Node6 -->
<g id="edge5" class="edge">
<title>Node5&#45;&gt;Node6</title>
<path fill="none" stroke="midnightblue" d="M726.93,-236.64C701.09,-244.92 670.86,-254.62 646.32,-262.49"/>
<polygon fill="midnightblue" stroke="midnightblue" points="728.14,-239.93 736.59,-233.54 726,-233.26 728.14,-239.93"/>
</g>
<!-- Node11 -->
<g id="node11" class="node">
<title>Node11</title>
<g id="a_node11"><a xlink:href="classdenoptim_1_1ga_1_1_e_a_utils.html#a98553265dd4b441b11c6d97d098edb08" target="_top" xlink:title="Generates a new offspring by performing a crossover operation.">
<polygon fill="white" stroke="black" points="535,-213.5 535,-243.5 662,-243.5 662,-213.5 535,-213.5"/>
<text text-anchor="start" x="543" y="-231.5" font-family="Helvetica,sans-Serif" font-size="10.00">denoptim.ga.EAUtils.build</text>
<text text-anchor="middle" x="598.5" y="-220.5" font-family="Helvetica,sans-Serif" font-size="10.00">CandidateByXOver</text>
</a>
</g>
</g>
<!-- Node5&#45;&gt;Node11 -->
<g id="edge10" class="edge">
<title>Node5&#45;&gt;Node11</title>
<path fill="none" stroke="midnightblue" d="M708.81,-222.56C693.31,-223.4 677.12,-224.28 662.1,-225.1"/>
<polygon fill="midnightblue" stroke="midnightblue" points="709.09,-226.05 718.89,-222.01 708.71,-219.06 709.09,-226.05"/>
</g>
<!-- Node12 -->
<g id="node12" class="node">
<title>Node12</title>
<g id="a_node12"><a xlink:href="classdenoptim_1_1ga_1_1_e_a_utils.html#ad3d2daeb11e68a356e971ca1846596b5" target="_top" xlink:title=" ">
<polygon fill="white" stroke="black" points="535,-164.5 535,-194.5 662,-194.5 662,-164.5 535,-164.5"/>
<text text-anchor="start" x="543" y="-182.5" font-family="Helvetica,sans-Serif" font-size="10.00">denoptim.ga.EAUtils.build</text>
<text text-anchor="middle" x="598.5" y="-171.5" font-family="Helvetica,sans-Serif" font-size="10.00">CandidateFromScratch</text>
</a>
</g>
</g>
<!-- Node5&#45;&gt;Node12 -->
<g id="edge11" class="edge">
<title>Node5&#45;&gt;Node12</title>
<path fill="none" stroke="midnightblue" d="M708.81,-202.67C693.31,-199.38 677.12,-195.95 662.1,-192.77"/>
<polygon fill="midnightblue" stroke="midnightblue" points="708.38,-206.16 718.89,-204.8 709.83,-199.31 708.38,-206.16"/>
</g>
<!-- Node7 -->
<g id="node7" class="node">
<title>Node7</title>
<g id="a_node7"><a xlink:href="classdenoptim_1_1ga_1_1_evolutionary_algorithm.html#a596b2f5f0b097c5b67a6e5163bd6fe66" target="_top" xlink:title="Generates a given number of new candidate items and adds them to the current population.">
<polygon fill="white" stroke="black" points="353,-213.5 353,-243.5 487,-243.5 487,-213.5 353,-213.5"/>
<text text-anchor="start" x="361" y="-231.5" font-family="Helvetica,sans-Serif" font-size="10.00">denoptim.ga.Evolutionary</text>
<text text-anchor="middle" x="420" y="-220.5" font-family="Helvetica,sans-Serif" font-size="10.00">Algorithm.evolvePopulation</text>
</a>
</g>
</g>
<!-- Node6&#45;&gt;Node7 -->
<g id="edge6" class="edge">
<title>Node6&#45;&gt;Node7</title>
<path fill="none" stroke="midnightblue" d="M533.31,-259.68C514.25,-254.39 493.57,-248.65 475.22,-243.55"/>
<polygon fill="midnightblue" stroke="midnightblue" points="532.53,-263.1 543.1,-262.4 534.4,-256.35 532.53,-263.1"/>
</g>
<!-- Node8 -->
<g id="node8" class="node">
<title>Node8</title>
<g id="a_node8"><a xlink:href="classdenoptim_1_1ga_1_1_evolutionary_algorithm.html#a6bfc2fa59b199da6259b5b6bad3d6de7" target="_top" xlink:title=" ">
<polygon fill="white" stroke="black" points="190,-188.5 190,-218.5 314,-218.5 314,-188.5 190,-188.5"/>
<text text-anchor="start" x="198" y="-206.5" font-family="Helvetica,sans-Serif" font-size="10.00">denoptim.ga.Evolutionary</text>
<text text-anchor="middle" x="252" y="-195.5" font-family="Helvetica,sans-Serif" font-size="10.00">Algorithm.run</text>
</a>
</g>
</g>
<!-- Node7&#45;&gt;Node8 -->
<g id="edge7" class="edge">
<title>Node7&#45;&gt;Node8</title>
<path fill="none" stroke="midnightblue" d="M342.9,-217.04C333.21,-215.58 323.41,-214.1 314.01,-212.69"/>
<polygon fill="midnightblue" stroke="midnightblue" points="342.51,-220.52 352.92,-218.55 343.55,-213.6 342.51,-220.52"/>
</g>
<!-- Node9 -->
<g id="node9" class="node">
<title>Node9</title>
<g id="a_node9"><a xlink:href="classdenoptim_1_1ga_1_1_evolutionary_algorithm.html#a0f2063b722b7291daf83d62acaa683d3" target="_top" xlink:title=" ">
<polygon fill="white" stroke="black" points="0,-213.5 0,-243.5 154,-243.5 154,-213.5 0,-213.5"/>
<text text-anchor="start" x="8" y="-231.5" font-family="Helvetica,sans-Serif" font-size="10.00">denoptim.ga.Evolutionary</text>
<text text-anchor="middle" x="77" y="-220.5" font-family="Helvetica,sans-Serif" font-size="10.00">Algorithm.EvolutionaryAlgorithm</text>
</a>
</g>
</g>
<!-- Node8&#45;&gt;Node9 -->
<g id="edge8" class="edge">
<title>Node8&#45;&gt;Node9</title>
<path fill="none" stroke="midnightblue" d="M179.44,-213.84C171.09,-215.05 162.54,-216.28 154.12,-217.5"/>
<polygon fill="midnightblue" stroke="midnightblue" points="180.12,-217.28 189.52,-212.38 179.12,-210.35 180.12,-217.28"/>
</g>
<!-- Node10 -->
<g id="node10" class="node">
<title>Node10</title>
<g id="a_node10"><a xlink:href="classdenoptim_1_1programs_1_1denovo_1_1_g_a_runner.html#a7cafd6d78727b89dce3e2c8d06f0dd7c" target="_top" xlink:title=" ">
<polygon fill="white" stroke="black" points="9.5,-164.5 9.5,-194.5 144.5,-194.5 144.5,-164.5 9.5,-164.5"/>
<text text-anchor="start" x="17.5" y="-182.5" font-family="Helvetica,sans-Serif" font-size="10.00">denoptim.programs.denovo.</text>
<text text-anchor="middle" x="77" y="-171.5" font-family="Helvetica,sans-Serif" font-size="10.00">GARunner.runProgram</text>
</a>
</g>
</g>
<!-- Node8&#45;&gt;Node10 -->
<g id="edge9" class="edge">
<title>Node8&#45;&gt;Node10</title>
<path fill="none" stroke="midnightblue" d="M179.48,-193.58C167.92,-191.97 156,-190.32 144.57,-188.73"/>
<polygon fill="midnightblue" stroke="midnightblue" points="179.13,-197.06 189.52,-194.97 180.1,-190.13 179.13,-197.06"/>
</g>
<!-- Node12&#45;&gt;Node7 -->
<g id="edge12" class="edge">
<title>Node12&#45;&gt;Node7</title>
<path fill="none" stroke="midnightblue" d="M533.31,-197.32C514.25,-202.61 493.57,-208.35 475.22,-213.45"/>
<polygon fill="midnightblue" stroke="midnightblue" points="534.4,-200.65 543.1,-194.6 532.53,-193.9 534.4,-200.65"/>
</g>
<!-- Node13 -->
<g id="node13" class="node">
<title>Node13</title>
<g id="a_node13"><a xlink:href="classdenoptim_1_1ga_1_1_evolutionary_algorithm.html#ad43588620dab3340e0d8b0042ec73618" target="_top" xlink:title="Fills up the population with candidates build from scratch.">
<polygon fill="white" stroke="black" points="350,-164.5 350,-194.5 490,-194.5 490,-164.5 350,-164.5"/>
<text text-anchor="start" x="358" y="-182.5" font-family="Helvetica,sans-Serif" font-size="10.00">denoptim.ga.Evolutionary</text>
<text text-anchor="middle" x="420" y="-171.5" font-family="Helvetica,sans-Serif" font-size="10.00">Algorithm.initializePopulation</text>
</a>
</g>
</g>
<!-- Node12&#45;&gt;Node13 -->
<g id="edge13" class="edge">
<title>Node12&#45;&gt;Node13</title>
<path fill="none" stroke="midnightblue" d="M524.46,-179.5C513.1,-179.5 501.39,-179.5 490.12,-179.5"/>
<polygon fill="midnightblue" stroke="midnightblue" points="524.78,-183 534.78,-179.5 524.78,-176 524.78,-183"/>
</g>
<!-- Node13&#45;&gt;Node8 -->
<g id="edge14" class="edge">
<title>Node13&#45;&gt;Node8</title>
<path fill="none" stroke="midnightblue" d="M339.6,-190.98C331.08,-192.21 322.5,-193.45 314.24,-194.65"/>
<polygon fill="midnightblue" stroke="midnightblue" points="340.17,-194.43 349.56,-189.54 339.16,-187.51 340.17,-194.43"/>
</g>
<!-- Node14&#45;&gt;Node4 -->
<g id="edge20" class="edge">
<title>Node14&#45;&gt;Node4</title>
<path fill="none" stroke="midnightblue" d="M1146.63,-181.82C1137,-184.06 1127.26,-186.33 1118,-188.5 1104.99,-191.55 1091.22,-194.78 1077.75,-197.96"/>
<polygon fill="midnightblue" stroke="midnightblue" points="1147.67,-185.17 1156.62,-179.5 1146.08,-178.36 1147.67,-185.17"/>
</g>
<!-- Node15 -->
<g id="node15" class="node">
<title>Node15</title>
<g id="a_node15"><a xlink:href="classdenoptim_1_1graph_1_1rings_1_1_cyclic_graph_handler.html#a3ce96322723f45d9285a248ebcef94d3" target="_top" xlink:title="Identifies all possible ring closing paths and returns them as list of DENOPTIMRings ready to be appe...">
<polygon fill="white" stroke="black" points="898,-138 898,-179 1082,-179 1082,-138 898,-138"/>
<text text-anchor="start" x="906" y="-167" font-family="Helvetica,sans-Serif" font-size="10.00">denoptim.graph.rings.Cyclic</text>
<text text-anchor="start" x="906" y="-156" font-family="Helvetica,sans-Serif" font-size="10.00">GraphHandler.getPossibleCombination</text>
<text text-anchor="middle" x="990" y="-145" font-family="Helvetica,sans-Serif" font-size="10.00">OfRings</text>
</a>
</g>
</g>
<!-- Node14&#45;&gt;Node15 -->
<g id="edge16" class="edge">
<title>Node14&#45;&gt;Node15</title>
<path fill="none" stroke="midnightblue" d="M1116.65,-161.77C1105.09,-161.47 1093.4,-161.17 1082.04,-160.87"/>
<polygon fill="midnightblue" stroke="midnightblue" points="1116.66,-165.27 1126.75,-162.03 1116.84,-158.27 1116.66,-165.27"/>
</g>
<!-- Node15&#45;&gt;Node5 -->
<g id="edge19" class="edge">
<title>Node15&#45;&gt;Node5</title>
<path fill="none" stroke="midnightblue" d="M909.58,-181.92C885.02,-189.16 858.63,-196.94 836.53,-203.46"/>
<polygon fill="midnightblue" stroke="midnightblue" points="910.65,-185.25 919.25,-179.06 908.67,-178.54 910.65,-185.25"/>
</g>
<!-- Node16 -->
<g id="node16" class="node">
<title>Node16</title>
<g id="a_node16"><a xlink:href="classdenoptim_1_1graph_1_1_d_graph.html#a7a4743d014e860237f4b20703ef9779b" target="_top" xlink:title="Evaluates the possibility of closing rings in this graph and generates all alternative graphs resulti...">
<polygon fill="white" stroke="black" points="707,-124.5 707,-154.5 862,-154.5 862,-124.5 707,-124.5"/>
<text text-anchor="start" x="715" y="-142.5" font-family="Helvetica,sans-Serif" font-size="10.00">denoptim.graph.DGraph.make</text>
<text text-anchor="middle" x="784.5" y="-131.5" font-family="Helvetica,sans-Serif" font-size="10.00">AllGraphsWithDifferentRingSets</text>
</a>
</g>
</g>
<!-- Node15&#45;&gt;Node16 -->
<g id="edge17" class="edge">
<title>Node15&#45;&gt;Node16</title>
<path fill="none" stroke="midnightblue" d="M887.84,-149.06C879.2,-148.25 870.56,-147.44 862.16,-146.66"/>
<polygon fill="midnightblue" stroke="midnightblue" points="887.68,-152.56 897.96,-150 888.33,-145.59 887.68,-152.56"/>
</g>
<!-- Node17 -->
<g id="node17" class="node">
<title>Node17</title>
<g id="a_node17"><a xlink:href="classdenoptim_1_1combinatorial_1_1_graph_building_task.html#a3eaee724fc921194fa158714aafe182d" target="_top" xlink:title="Calls the task.">
<polygon fill="white" stroke="black" points="526,-115.5 526,-145.5 671,-145.5 671,-115.5 526,-115.5"/>
<text text-anchor="start" x="534" y="-133.5" font-family="Helvetica,sans-Serif" font-size="10.00">denoptim.combinatorial.Graph</text>
<text text-anchor="middle" x="598.5" y="-122.5" font-family="Helvetica,sans-Serif" font-size="10.00">BuildingTask.call</text>
</a>
</g>
</g>
<!-- Node16&#45;&gt;Node17 -->
<g id="edge18" class="edge">
<title>Node16&#45;&gt;Node17</title>
<path fill="none" stroke="midnightblue" d="M696.75,-135.26C688.15,-134.84 679.49,-134.41 671.07,-134"/>
<polygon fill="midnightblue" stroke="midnightblue" points="696.64,-138.76 706.8,-135.75 696.98,-131.76 696.64,-138.76"/>
</g>
<!-- Node19 -->
<g id="node19" class="node">
<title>Node19</title>
<g id="a_node19"><a xlink:href="classdenoptim_1_1molecularmodeling_1_1_chemical_object_model.html#a078749e82762b41d68b51bbc5af46e0c" target="_top" xlink:title="Constructs a Molecule3DBuilder specifying all its features.">
<polygon fill="white" stroke="black" points="1118,-98.5 1118,-128.5 1327,-128.5 1327,-98.5 1118,-98.5"/>
<text text-anchor="start" x="1126" y="-116.5" font-family="Helvetica,sans-Serif" font-size="10.00">denoptim.molecularmodeling.</text>
<text text-anchor="middle" x="1222.5" y="-105.5" font-family="Helvetica,sans-Serif" font-size="10.00">ChemicalObjectModel.ChemicalObjectModel</text>
</a>
</g>
</g>
<!-- Node18&#45;&gt;Node19 -->
<g id="edge22" class="edge">
<title>Node18&#45;&gt;Node19</title>
<path fill="none" stroke="midnightblue" d="M1364.68,-113.5C1352.33,-113.5 1339.65,-113.5 1327.18,-113.5"/>
<polygon fill="midnightblue" stroke="midnightblue" points="1364.95,-117 1374.95,-113.5 1364.95,-110 1364.95,-117"/>
</g>
</g>
</svg>
