<?xml version="1.0" encoding="UTF-8" standalone="no"?>
<!DOCTYPE svg PUBLIC "-//W3C//DTD SVG 1.1//EN"
 "http://www.w3.org/Graphics/SVG/1.1/DTD/svg11.dtd">
<!-- Generated by graphviz version 3.0.0 (20220413.0242)
 -->
<!-- Title: denoptim.graph.DGraph.getSymSetForVertexID Pages: 1 -->
<svg width="1631pt" height="932pt"
 viewBox="0.00 0.00 1631.00 932.00" xmlns="http://www.w3.org/2000/svg" xmlns:xlink="http://www.w3.org/1999/xlink">
<g id="graph0" class="graph" transform="scale(1 1) rotate(0) translate(4 928)">
<title>denoptim.graph.DGraph.getSymSetForVertexID</title>
<polygon fill="white" stroke="transparent" points="-4,4 -4,-928 1627,-928 1627,4 -4,4"/>
<!-- Node1 -->
<g id="node1" class="node">
<title>Node1</title>
<g id="a_node1"><a xlink:title=" ">
<polygon fill="#bfbfbf" stroke="black" points="1489,-693.5 1489,-723.5 1623,-723.5 1623,-693.5 1489,-693.5"/>
<text text-anchor="start" x="1497" y="-711.5" font-family="Helvetica,sans-Serif" font-size="10.00">denoptim.graph.DGraph.get</text>
<text text-anchor="middle" x="1556" y="-700.5" font-family="Helvetica,sans-Serif" font-size="10.00">SymSetForVertexID</text>
</a>
</g>
</g>
<!-- Node2 -->
<g id="node2" class="node">
<title>Node2</title>
<g id="a_node2"><a xlink:href="classdenoptim_1_1graph_1_1_d_graph.html#a5beca78261eeee2a7860a18f0719584a" target="_top" xlink:title="Append a subgraph (I) to this graph (R) specifying which vertex and attachment point to use for the c...">
<polygon fill="white" stroke="black" points="1289,-893.5 1289,-923.5 1441,-923.5 1441,-893.5 1289,-893.5"/>
<text text-anchor="start" x="1297" y="-911.5" font-family="Helvetica,sans-Serif" font-size="10.00">denoptim.graph.DGraph.append</text>
<text text-anchor="middle" x="1365" y="-900.5" font-family="Helvetica,sans-Serif" font-size="10.00">GraphOnAP</text>
</a>
</g>
</g>
<!-- Node1&#45;&gt;Node2 -->
<g id="edge1" class="edge">
<title>Node1&#45;&gt;Node2</title>
<path fill="none" stroke="midnightblue" d="M1546.53,-733.08C1532.65,-769.85 1501.63,-839.07 1453,-878.5 1445.43,-884.64 1436.53,-889.55 1427.36,-893.48"/>
<polygon fill="midnightblue" stroke="midnightblue" points="1549.85,-734.21 1549.99,-723.62 1543.27,-731.8 1549.85,-734.21"/>
</g>
<!-- Node3 -->
<g id="node3" class="node">
<title>Node3</title>
<g id="a_node3"><a xlink:href="classdenoptim_1_1ga_1_1_graph_operations.html#afd659e74a056d1a6ae6f52513fee0be3" target="_top" xlink:title="Deletes the given vertex and all other vertexes that are not connected to more than 2 non&#45;capping gro...">
<polygon fill="white" stroke="black" points="639,-792.5 639,-822.5 812,-822.5 812,-792.5 639,-792.5"/>
<text text-anchor="start" x="647" y="-810.5" font-family="Helvetica,sans-Serif" font-size="10.00">denoptim.ga.GraphOperations.delete</text>
<text text-anchor="middle" x="725.5" y="-799.5" font-family="Helvetica,sans-Serif" font-size="10.00">Chain</text>
</a>
</g>
</g>
<!-- Node1&#45;&gt;Node3 -->
<g id="edge2" class="edge">
<title>Node1&#45;&gt;Node3</title>
<path fill="none" stroke="midnightblue" d="M1506.64,-726.99C1489.84,-732.91 1470.76,-739.06 1453,-743.5 1226.51,-800.08 949.42,-808.36 812.1,-808.56"/>
<polygon fill="midnightblue" stroke="midnightblue" points="1508,-730.22 1516.24,-723.56 1505.64,-723.63 1508,-730.22"/>
</g>
<!-- Node5 -->
<g id="node5" class="node">
<title>Node5</title>
<g id="a_node5"><a xlink:href="classdenoptim_1_1ga_1_1_graph_operations.html#aaea9294efa9a4ca6ad8840c2acf0c1b0" target="_top" xlink:title="Deletion mutation removes the vertex and also the symmetric partners on its parent.">
<polygon fill="white" stroke="black" points="1053.5,-737.5 1053.5,-767.5 1226.5,-767.5 1226.5,-737.5 1053.5,-737.5"/>
<text text-anchor="start" x="1061.5" y="-755.5" font-family="Helvetica,sans-Serif" font-size="10.00">denoptim.ga.GraphOperations.delete</text>
<text text-anchor="middle" x="1140" y="-744.5" font-family="Helvetica,sans-Serif" font-size="10.00">Fragment</text>
</a>
</g>
</g>
<!-- Node1&#45;&gt;Node5 -->
<g id="edge4" class="edge">
<title>Node1&#45;&gt;Node5</title>
<path fill="none" stroke="midnightblue" d="M1478.67,-716.61C1407.28,-724.2 1300.81,-735.52 1226.57,-743.41"/>
<polygon fill="midnightblue" stroke="midnightblue" points="1479.37,-720.06 1488.94,-715.52 1478.63,-713.1 1479.37,-720.06"/>
</g>
<!-- Node7 -->
<g id="node7" class="node">
<title>Node7</title>
<g id="a_node7"><a xlink:href="classdenoptim_1_1ga_1_1_graph_operations.html#a104e82aba7242a457da09540ff0400da" target="_top" xlink:title="function that will keep extending the graph.">
<polygon fill="white" stroke="black" points="1277,-250.5 1277,-280.5 1453,-280.5 1453,-250.5 1277,-250.5"/>
<text text-anchor="start" x="1285" y="-268.5" font-family="Helvetica,sans-Serif" font-size="10.00">denoptim.ga.GraphOperations.extend</text>
<text text-anchor="middle" x="1365" y="-257.5" font-family="Helvetica,sans-Serif" font-size="10.00">Graph</text>
</a>
</g>
</g>
<!-- Node1&#45;&gt;Node7 -->
<g id="edge8" class="edge">
<title>Node1&#45;&gt;Node7</title>
<path fill="none" stroke="midnightblue" d="M1552.13,-683.02C1542.42,-601.36 1508.35,-348.13 1453,-290.5 1449.3,-286.65 1445.05,-283.37 1440.45,-280.6"/>
<polygon fill="midnightblue" stroke="midnightblue" points="1548.7,-683.84 1553.33,-693.37 1555.65,-683.03 1548.7,-683.84"/>
</g>
<!-- Node8 -->
<g id="node8" class="node">
<title>Node8</title>
<g id="a_node8"><a xlink:href="classdenoptim_1_1graph_1_1_d_graph.html#ae46f896d67929c516cc66031b8777f0b" target="_top" xlink:title="Deletes the branch, i.e., the specified vertex and its children.">
<polygon fill="white" stroke="black" points="1289,-655.5 1289,-685.5 1441,-685.5 1441,-655.5 1289,-655.5"/>
<text text-anchor="start" x="1297" y="-673.5" font-family="Helvetica,sans-Serif" font-size="10.00">denoptim.graph.DGraph.remove</text>
<text text-anchor="middle" x="1365" y="-662.5" font-family="Helvetica,sans-Serif" font-size="10.00">BranchStartingAt</text>
</a>
</g>
</g>
<!-- Node1&#45;&gt;Node8 -->
<g id="edge9" class="edge">
<title>Node1&#45;&gt;Node8</title>
<path fill="none" stroke="midnightblue" d="M1478.93,-693.21C1466.36,-690.68 1453.33,-688.06 1440.79,-685.54"/>
<polygon fill="midnightblue" stroke="midnightblue" points="1478.4,-696.67 1488.9,-695.21 1479.78,-689.81 1478.4,-696.67"/>
</g>
<!-- Node26 -->
<g id="node26" class="node">
<title>Node26</title>
<g id="a_node26"><a xlink:href="classdenoptim_1_1graph_1_1_d_graph.html#a956d0e807af7dbbad5267138e35cdb3d" target="_top" xlink:title="Compare this and another graph ignoring the vertex IDs.">
<polygon fill="white" stroke="black" points="1287,-300 1287,-319 1443,-319 1443,-300 1287,-300"/>
<text text-anchor="middle" x="1365" y="-307" font-family="Helvetica,sans-Serif" font-size="10.00">denoptim.graph.DGraph.sameAs</text>
</a>
</g>
</g>
<!-- Node1&#45;&gt;Node26 -->
<g id="edge34" class="edge">
<title>Node1&#45;&gt;Node26</title>
<path fill="none" stroke="midnightblue" d="M1543.36,-683.92C1506.71,-606.55 1394.73,-370.16 1370.61,-319.23"/>
<polygon fill="midnightblue" stroke="midnightblue" points="1540.38,-685.81 1547.82,-693.35 1546.7,-682.81 1540.38,-685.81"/>
</g>
<!-- Node4 -->
<g id="node4" class="node">
<title>Node4</title>
<g id="a_node4"><a xlink:href="classdenoptim_1_1ga_1_1_graph_operations.html#a0c851972015fbb4b2a317b053b8b81d9" target="_top" xlink:title="Mutates the given vertex according to the given mutation type, if possible.">
<polygon fill="white" stroke="black" points="195,-768.5 195,-798.5 375,-798.5 375,-768.5 195,-768.5"/>
<text text-anchor="start" x="203" y="-786.5" font-family="Helvetica,sans-Serif" font-size="10.00">denoptim.ga.GraphOperations.perform</text>
<text text-anchor="middle" x="285" y="-775.5" font-family="Helvetica,sans-Serif" font-size="10.00">Mutation</text>
</a>
</g>
</g>
<!-- Node3&#45;&gt;Node4 -->
<g id="edge3" class="edge">
<title>Node3&#45;&gt;Node4</title>
<path fill="none" stroke="midnightblue" d="M628.93,-802.27C553.44,-798.14 448.9,-792.42 375.14,-788.38"/>
<polygon fill="midnightblue" stroke="midnightblue" points="628.74,-805.76 638.91,-802.82 629.12,-798.77 628.74,-805.76"/>
</g>
<!-- Node5&#45;&gt;Node4 -->
<g id="edge5" class="edge">
<title>Node5&#45;&gt;Node4</title>
<path fill="none" stroke="midnightblue" d="M1043.08,-755.99C876.66,-762.03 536.74,-774.39 375.15,-780.26"/>
<polygon fill="midnightblue" stroke="midnightblue" points="1043.44,-759.48 1053.31,-755.61 1043.19,-752.48 1043.44,-759.48"/>
</g>
<!-- Node6 -->
<g id="node6" class="node">
<title>Node6</title>
<g id="a_node6"><a xlink:href="classdenoptim_1_1ga_1_1_graph_operations.html#ab02b96b3c6d11bdce0fd3402abc92580" target="_top" xlink:title="Substitutes a vertex and any child branch.">
<polygon fill="white" stroke="black" points="419,-834.5 419,-864.5 595,-864.5 595,-834.5 419,-834.5"/>
<text text-anchor="start" x="427" y="-852.5" font-family="Helvetica,sans-Serif" font-size="10.00">denoptim.ga.GraphOperations.rebuild</text>
<text text-anchor="middle" x="507" y="-841.5" font-family="Helvetica,sans-Serif" font-size="10.00">Branch</text>
</a>
</g>
</g>
<!-- Node5&#45;&gt;Node6 -->
<g id="edge6" class="edge">
<title>Node5&#45;&gt;Node6</title>
<path fill="none" stroke="midnightblue" d="M1080.05,-770.41C1015.07,-789.32 907.12,-818.33 812,-832.5 739.46,-843.31 656.25,-847.39 595.24,-848.87"/>
<polygon fill="midnightblue" stroke="midnightblue" points="1081.09,-773.75 1089.71,-767.58 1079.13,-767.03 1081.09,-773.75"/>
</g>
<!-- Node6&#45;&gt;Node4 -->
<g id="edge7" class="edge">
<title>Node6&#45;&gt;Node4</title>
<path fill="none" stroke="midnightblue" d="M445.89,-831.47C411.53,-821.16 368.94,-808.38 336.36,-798.61"/>
<polygon fill="midnightblue" stroke="midnightblue" points="445.22,-834.92 455.8,-834.44 447.23,-828.22 445.22,-834.92"/>
</g>
<!-- Node8&#45;&gt;Node5 -->
<g id="edge10" class="edge">
<title>Node8&#45;&gt;Node5</title>
<path fill="none" stroke="midnightblue" d="M1313.59,-689.04C1273.84,-703.65 1219.11,-723.78 1182.02,-737.42"/>
<polygon fill="midnightblue" stroke="midnightblue" points="1314.92,-692.28 1323.1,-685.54 1312.5,-685.71 1314.92,-692.28"/>
</g>
<!-- Node8&#45;&gt;Node8 -->
<g id="edge13" class="edge">
<title>Node8&#45;&gt;Node8</title>
<path fill="none" stroke="midnightblue" d="M1398.76,-695.96C1394.57,-700.68 1383.32,-704 1365,-704 1334.94,-704 1323.9,-695.06 1331.89,-685.66"/>
<polygon fill="midnightblue" stroke="midnightblue" points="1402.23,-695.42 1398.11,-685.66 1395.25,-695.86 1402.23,-695.42"/>
</g>
<!-- Node9 -->
<g id="node9" class="node">
<title>Node9</title>
<g id="a_node9"><a xlink:href="classdenoptim_1_1graph_1_1_d_graph.html#a4df69c91a742d22f8d14d44489aeac15" target="_top" xlink:title="Edit this graph according to a given list of edit tasks.">
<polygon fill="white" stroke="black" points="657.5,-410.5 657.5,-440.5 793.5,-440.5 793.5,-410.5 657.5,-410.5"/>
<text text-anchor="start" x="665.5" y="-428.5" font-family="Helvetica,sans-Serif" font-size="10.00">denoptim.graph.DGraph.edit</text>
<text text-anchor="middle" x="725.5" y="-417.5" font-family="Helvetica,sans-Serif" font-size="10.00">Graph</text>
</a>
</g>
</g>
<!-- Node8&#45;&gt;Node9 -->
<g id="edge11" class="edge">
<title>Node8&#45;&gt;Node9</title>
<path fill="none" stroke="midnightblue" d="M1301.02,-652.64C1165.36,-614.08 856.99,-525.9 848,-518.5 821.28,-496.53 838.86,-471.3 812,-449.5 806.49,-445.03 800.21,-441.39 793.59,-438.43"/>
<polygon fill="midnightblue" stroke="midnightblue" points="1300.3,-656.07 1310.87,-655.44 1302.21,-649.34 1300.3,-656.07"/>
</g>
<!-- Node11 -->
<g id="node11" class="node">
<title>Node11</title>
<g id="a_node11"><a xlink:href="classdenoptim_1_1graph_1_1_template.html#a049d3fd512e29df9e0dd7b94f484ce97" target="_top" xlink:title="Removes the mapping of the given inner AP from this template&#39;s surface, if such mapping exists.">
<polygon fill="white" stroke="black" points="1060,-648.5 1060,-678.5 1220,-678.5 1220,-648.5 1060,-648.5"/>
<text text-anchor="start" x="1068" y="-666.5" font-family="Helvetica,sans-Serif" font-size="10.00">denoptim.graph.Template.remove</text>
<text text-anchor="middle" x="1140" y="-655.5" font-family="Helvetica,sans-Serif" font-size="10.00">ProjectionOfInnerAP</text>
</a>
</g>
</g>
<!-- Node8&#45;&gt;Node11 -->
<g id="edge14" class="edge">
<title>Node8&#45;&gt;Node11</title>
<path fill="none" stroke="midnightblue" d="M1278.57,-667.82C1259.34,-667.21 1239.01,-666.58 1220.05,-665.98"/>
<polygon fill="midnightblue" stroke="midnightblue" points="1278.71,-671.32 1288.81,-668.14 1278.93,-664.33 1278.71,-671.32"/>
</g>
<!-- Node10 -->
<g id="node10" class="node">
<title>Node10</title>
<g id="a_node10"><a xlink:href="classdenoptim_1_1programs_1_1grapheditor_1_1_graph_editor.html#a649a62e3d4635ef4c19424fa49e6dcd4" target="_top" xlink:title=" ">
<polygon fill="white" stroke="black" points="431,-410.5 431,-440.5 583,-440.5 583,-410.5 431,-410.5"/>
<text text-anchor="start" x="439" y="-428.5" font-family="Helvetica,sans-Serif" font-size="10.00">denoptim.programs.grapheditor.</text>
<text text-anchor="middle" x="507" y="-417.5" font-family="Helvetica,sans-Serif" font-size="10.00">GraphEditor.runProgram</text>
</a>
</g>
</g>
<!-- Node9&#45;&gt;Node10 -->
<g id="edge12" class="edge">
<title>Node9&#45;&gt;Node10</title>
<path fill="none" stroke="midnightblue" d="M647.36,-425.5C626.43,-425.5 603.81,-425.5 583.01,-425.5"/>
<polygon fill="midnightblue" stroke="midnightblue" points="647.48,-429 657.48,-425.5 647.48,-422 647.48,-429"/>
</g>
<!-- Node11&#45;&gt;Node11 -->
<g id="edge17" class="edge">
<title>Node11&#45;&gt;Node11</title>
<path fill="none" stroke="midnightblue" d="M1178.03,-688.96C1173.31,-693.68 1160.63,-697 1140,-697 1106.14,-697 1093.71,-688.06 1102.71,-678.66"/>
<polygon fill="midnightblue" stroke="midnightblue" points="1181.49,-688.39 1177.29,-678.66 1174.51,-688.88 1181.49,-688.39"/>
</g>
<!-- Node12 -->
<g id="node12" class="node">
<title>Node12</title>
<g id="a_node12"><a xlink:href="classdenoptim_1_1graph_1_1_d_graph.html#af404e25092eabcdfbe69b5d7204e9483" target="_top" xlink:title="Mutates the graph by removing the chain where a given vertex is located up to the first branching (i....">
<polygon fill="white" stroke="black" points="849.5,-704.5 849.5,-734.5 1001.5,-734.5 1001.5,-704.5 849.5,-704.5"/>
<text text-anchor="start" x="857.5" y="-722.5" font-family="Helvetica,sans-Serif" font-size="10.00">denoptim.graph.DGraph.remove</text>
<text text-anchor="middle" x="925.5" y="-711.5" font-family="Helvetica,sans-Serif" font-size="10.00">ChainUpToBranching</text>
</a>
</g>
</g>
<!-- Node11&#45;&gt;Node12 -->
<g id="edge15" class="edge">
<title>Node11&#45;&gt;Node12</title>
<path fill="none" stroke="midnightblue" d="M1072.19,-681.11C1043.74,-688.6 1010.9,-697.26 983.6,-704.45"/>
<polygon fill="midnightblue" stroke="midnightblue" points="1073.28,-684.44 1082.05,-678.51 1071.49,-677.67 1073.28,-684.44"/>
</g>
<!-- Node13 -->
<g id="node13" class="node">
<title>Node13</title>
<g id="a_node13"><a xlink:href="classdenoptim_1_1graph_1_1_d_graph.html#a357b4099599e47ae47102123550771f8" target="_top" xlink:title="Remove a given vertex belonging to this graph and re&#45;connects the resulting graph branches as much as...">
<polygon fill="white" stroke="black" points="849.5,-637.5 849.5,-667.5 1001.5,-667.5 1001.5,-637.5 849.5,-637.5"/>
<text text-anchor="start" x="857.5" y="-655.5" font-family="Helvetica,sans-Serif" font-size="10.00">denoptim.graph.DGraph.remove</text>
<text text-anchor="middle" x="925.5" y="-644.5" font-family="Helvetica,sans-Serif" font-size="10.00">SingleVertexAndWeld</text>
</a>
</g>
</g>
<!-- Node11&#45;&gt;Node13 -->
<g id="edge18" class="edge">
<title>Node11&#45;&gt;Node13</title>
<path fill="none" stroke="midnightblue" d="M1049.53,-658.87C1033.65,-658.05 1017.25,-657.2 1001.82,-656.4"/>
<polygon fill="midnightblue" stroke="midnightblue" points="1049.71,-662.38 1059.87,-659.4 1050.07,-655.39 1049.71,-662.38"/>
</g>
<!-- Node16 -->
<g id="node16" class="node">
<title>Node16</title>
<g id="a_node16"><a xlink:href="classdenoptim_1_1graph_1_1_d_graph.html#aefca90eb3594e935ee283f1e56fec5b4" target="_top" xlink:title="Replaced the subgraph represented by a given collection of vertices that belong to this graph.">
<polygon fill="white" stroke="black" points="849.5,-578.5 849.5,-608.5 1001.5,-608.5 1001.5,-578.5 849.5,-578.5"/>
<text text-anchor="start" x="857.5" y="-596.5" font-family="Helvetica,sans-Serif" font-size="10.00">denoptim.graph.DGraph.replace</text>
<text text-anchor="middle" x="925.5" y="-585.5" font-family="Helvetica,sans-Serif" font-size="10.00">SingleSubGraph</text>
</a>
</g>
</g>
<!-- Node11&#45;&gt;Node16 -->
<g id="edge23" class="edge">
<title>Node11&#45;&gt;Node16</title>
<path fill="none" stroke="midnightblue" d="M1083.91,-645.35C1049.28,-633.94 1005.11,-619.39 972.38,-608.61"/>
<polygon fill="midnightblue" stroke="midnightblue" points="1082.82,-648.68 1093.41,-648.48 1085.01,-642.03 1082.82,-648.68"/>
</g>
<!-- Node12&#45;&gt;Node3 -->
<g id="edge16" class="edge">
<title>Node12&#45;&gt;Node3</title>
<path fill="none" stroke="midnightblue" d="M881.11,-738.78C844.82,-754.91 793.78,-777.6 760.42,-792.42"/>
<polygon fill="midnightblue" stroke="midnightblue" points="882.75,-741.89 890.46,-734.63 879.9,-735.49 882.75,-741.89"/>
</g>
<!-- Node13&#45;&gt;Node13 -->
<g id="edge19" class="edge">
<title>Node13&#45;&gt;Node13</title>
<path fill="none" stroke="midnightblue" d="M961.04,-677.96C956.63,-682.68 944.78,-686 925.5,-686 893.86,-686 882.24,-677.06 890.65,-667.66"/>
<polygon fill="midnightblue" stroke="midnightblue" points="964.51,-677.41 960.35,-667.66 957.52,-677.87 964.51,-677.41"/>
</g>
<!-- Node14 -->
<g id="node14" class="node">
<title>Node14</title>
<g id="a_node14"><a xlink:href="classdenoptim_1_1graph_1_1_d_graph.html#a00209ca8b4a9623b41e7d9e1e62f69ec" target="_top" xlink:title="Remove a given vertex belonging to this graph and re&#45;connects the resulting graph branches as much as...">
<polygon fill="white" stroke="black" points="649.5,-704.5 649.5,-734.5 801.5,-734.5 801.5,-704.5 649.5,-704.5"/>
<text text-anchor="start" x="657.5" y="-722.5" font-family="Helvetica,sans-Serif" font-size="10.00">denoptim.graph.DGraph.remove</text>
<text text-anchor="middle" x="725.5" y="-711.5" font-family="Helvetica,sans-Serif" font-size="10.00">VertexAndWeld</text>
</a>
</g>
</g>
<!-- Node13&#45;&gt;Node14 -->
<g id="edge20" class="edge">
<title>Node13&#45;&gt;Node14</title>
<path fill="none" stroke="midnightblue" d="M876.75,-671.2C856.85,-678.77 833.42,-687.38 812,-694.5 801.73,-697.91 790.68,-701.33 780.05,-704.49"/>
<polygon fill="midnightblue" stroke="midnightblue" points="878.13,-674.42 886.22,-667.58 875.63,-667.89 878.13,-674.42"/>
</g>
<!-- Node15 -->
<g id="node15" class="node">
<title>Node15</title>
<g id="a_node15"><a xlink:href="classdenoptim_1_1ga_1_1_graph_operations.html#ab3adb5141a8941bf23916bb516faee63" target="_top" xlink:title="Removes a vertex while merging as many of the child branches into the parent vertex.">
<polygon fill="white" stroke="black" points="411,-713 411,-732 603,-732 603,-713 411,-713"/>
<text text-anchor="middle" x="507" y="-720" font-family="Helvetica,sans-Serif" font-size="10.00">denoptim.ga.GraphOperations.deleteLink</text>
</a>
</g>
</g>
<!-- Node14&#45;&gt;Node15 -->
<g id="edge21" class="edge">
<title>Node14&#45;&gt;Node15</title>
<path fill="none" stroke="midnightblue" d="M639.13,-720.68C627.33,-720.85 615.16,-721.02 603.19,-721.18"/>
<polygon fill="midnightblue" stroke="midnightblue" points="639.44,-724.18 649.39,-720.54 639.34,-717.18 639.44,-724.18"/>
</g>
<!-- Node15&#45;&gt;Node4 -->
<g id="edge22" class="edge">
<title>Node15&#45;&gt;Node4</title>
<path fill="none" stroke="midnightblue" d="M461.69,-734.79C426.66,-744.5 377.61,-758.1 340.24,-768.46"/>
<polygon fill="midnightblue" stroke="midnightblue" points="462.92,-738.08 471.62,-732.03 461.05,-731.33 462.92,-738.08"/>
</g>
<!-- Node16&#45;&gt;Node9 -->
<g id="edge24" class="edge">
<title>Node16&#45;&gt;Node9</title>
<path fill="none" stroke="midnightblue" d="M859.86,-573.42C855.53,-570.53 851.5,-567.25 848,-563.5 811.73,-524.68 850.17,-486.46 812,-449.5 806.68,-444.35 800.35,-440.29 793.58,-437.09"/>
<polygon fill="midnightblue" stroke="midnightblue" points="858.13,-576.45 868.53,-578.47 861.65,-570.41 858.13,-576.45"/>
</g>
<!-- Node17 -->
<g id="node17" class="node">
<title>Node17</title>
<g id="a_node17"><a xlink:href="classdenoptim_1_1graph_1_1_d_graph.html#a86e888ef245d2bd40b49d145c7ef3af0" target="_top" xlink:title="Replaced the subgraph represented by a given collection of vertices that belong to this graph.">
<polygon fill="white" stroke="black" points="649.5,-459.5 649.5,-489.5 801.5,-489.5 801.5,-459.5 649.5,-459.5"/>
<text text-anchor="start" x="657.5" y="-477.5" font-family="Helvetica,sans-Serif" font-size="10.00">denoptim.graph.DGraph.replace</text>
<text text-anchor="middle" x="725.5" y="-466.5" font-family="Helvetica,sans-Serif" font-size="10.00">SubGraph</text>
</a>
</g>
</g>
<!-- Node16&#45;&gt;Node17 -->
<g id="edge25" class="edge">
<title>Node16&#45;&gt;Node17</title>
<path fill="none" stroke="midnightblue" d="M862.57,-573.72C857.35,-570.74 852.4,-567.35 848,-563.5 823.16,-541.74 837.9,-518.99 812,-498.5 807.65,-495.06 802.83,-492.11 797.76,-489.58"/>
<polygon fill="midnightblue" stroke="midnightblue" points="861.05,-576.87 871.54,-578.34 864.26,-570.65 861.05,-576.87"/>
</g>
<!-- Node22 -->
<g id="node22" class="node">
<title>Node22</title>
<g id="a_node22"><a xlink:href="classdenoptim_1_1graph_1_1_d_graph.html#adc362402e41af41656e820def73de5ad" target="_top" xlink:title="Replaced a given vertex belonging to this graph with a new vertex generated specifically for this pur...">
<polygon fill="white" stroke="black" points="649.5,-606.5 649.5,-636.5 801.5,-636.5 801.5,-606.5 649.5,-606.5"/>
<text text-anchor="start" x="657.5" y="-624.5" font-family="Helvetica,sans-Serif" font-size="10.00">denoptim.graph.DGraph.replace</text>
<text text-anchor="middle" x="725.5" y="-613.5" font-family="Helvetica,sans-Serif" font-size="10.00">Vertex</text>
</a>
</g>
</g>
<!-- Node16&#45;&gt;Node22 -->
<g id="edge30" class="edge">
<title>Node16&#45;&gt;Node22</title>
<path fill="none" stroke="midnightblue" d="M839.37,-605.54C826.8,-607.32 813.93,-609.14 801.59,-610.88"/>
<polygon fill="midnightblue" stroke="midnightblue" points="839.95,-608.99 849.36,-604.13 838.97,-602.06 839.95,-608.99"/>
</g>
<!-- Node23 -->
<g id="node23" class="node">
<title>Node23</title>
<g id="a_node23"><a xlink:href="classdenoptim_1_1graph_1_1_d_graph_test.html#aea227d615f6c2f3bac5839a8099a900d" target="_top" xlink:title=" ">
<polygon fill="white" stroke="black" points="647.5,-557.5 647.5,-587.5 803.5,-587.5 803.5,-557.5 647.5,-557.5"/>
<text text-anchor="start" x="655.5" y="-575.5" font-family="Helvetica,sans-Serif" font-size="10.00">denoptim.graph.DGraphTest.test</text>
<text text-anchor="middle" x="725.5" y="-564.5" font-family="Helvetica,sans-Serif" font-size="10.00">IsIsostructuralTo</text>
</a>
</g>
</g>
<!-- Node16&#45;&gt;Node23 -->
<g id="edge31" class="edge">
<title>Node16&#45;&gt;Node23</title>
<path fill="none" stroke="midnightblue" d="M839.07,-584.44C827.27,-583.19 815.2,-581.91 803.56,-580.67"/>
<polygon fill="midnightblue" stroke="midnightblue" points="839.05,-587.96 849.36,-585.53 839.79,-581 839.05,-587.96"/>
</g>
<!-- Node24 -->
<g id="node24" class="node">
<title>Node24</title>
<g id="a_node24"><a xlink:href="classdenoptim_1_1graph_1_1_d_graph_test.html#a83a9624ea5dc6a2c515407b865b62611" target="_top" xlink:title=" ">
<polygon fill="white" stroke="black" points="647.5,-508.5 647.5,-538.5 803.5,-538.5 803.5,-508.5 647.5,-508.5"/>
<text text-anchor="start" x="655.5" y="-526.5" font-family="Helvetica,sans-Serif" font-size="10.00">denoptim.graph.DGraphTest.test</text>
<text text-anchor="middle" x="725.5" y="-515.5" font-family="Helvetica,sans-Serif" font-size="10.00">ReplaceSubGraph</text>
</a>
</g>
</g>
<!-- Node16&#45;&gt;Node24 -->
<g id="edge32" class="edge">
<title>Node16&#45;&gt;Node24</title>
<path fill="none" stroke="midnightblue" d="M875.62,-574.7C866.41,-571.06 856.89,-567.22 848,-563.5 831.85,-556.75 828.47,-553.44 812,-547.5 803.15,-544.31 793.67,-541.28 784.35,-538.51"/>
<polygon fill="midnightblue" stroke="midnightblue" points="874.47,-578.01 885.05,-578.42 877.03,-571.5 874.47,-578.01"/>
</g>
<!-- Node25 -->
<g id="node25" class="node">
<title>Node25</title>
<g id="a_node25"><a xlink:href="classdenoptim_1_1graph_1_1_d_graph_test.html#a0c949ec1131a872dea53524614b3b42a" target="_top" xlink:title=" ">
<polygon fill="white" stroke="black" points="647.5,-655.5 647.5,-685.5 803.5,-685.5 803.5,-655.5 647.5,-655.5"/>
<text text-anchor="start" x="655.5" y="-673.5" font-family="Helvetica,sans-Serif" font-size="10.00">denoptim.graph.DGraphTest.test</text>
<text text-anchor="middle" x="725.5" y="-662.5" font-family="Helvetica,sans-Serif" font-size="10.00">ReplaceSubGraph_inTemplate</text>
</a>
</g>
</g>
<!-- Node16&#45;&gt;Node25 -->
<g id="edge33" class="edge">
<title>Node16&#45;&gt;Node25</title>
<path fill="none" stroke="midnightblue" d="M880.52,-612.64C869.83,-617.4 858.47,-622.56 848,-627.5 831.82,-635.13 828.65,-638.96 812,-645.5 802.93,-649.06 793.15,-652.38 783.55,-655.37"/>
<polygon fill="midnightblue" stroke="midnightblue" points="881.97,-615.82 889.69,-608.57 879.13,-609.42 881.97,-615.82"/>
</g>
<!-- Node18 -->
<g id="node18" class="node">
<title>Node18</title>
<g id="a_node18"><a xlink:href="classdenoptim_1_1ga_1_1_graph_operations.html#affb1be89a32e4a429bd7dbdfe0708419" target="_top" xlink:title="Performs the crossover that swaps the two subgraphs defining the given XoverSite.">
<polygon fill="white" stroke="black" points="417,-459.5 417,-489.5 597,-489.5 597,-459.5 417,-459.5"/>
<text text-anchor="start" x="425" y="-477.5" font-family="Helvetica,sans-Serif" font-size="10.00">denoptim.ga.GraphOperations.perform</text>
<text text-anchor="middle" x="507" y="-466.5" font-family="Helvetica,sans-Serif" font-size="10.00">Crossover</text>
</a>
</g>
</g>
<!-- Node17&#45;&gt;Node18 -->
<g id="edge26" class="edge">
<title>Node17&#45;&gt;Node18</title>
<path fill="none" stroke="midnightblue" d="M638.98,-474.5C625.23,-474.5 610.97,-474.5 597.13,-474.5"/>
<polygon fill="midnightblue" stroke="midnightblue" points="639.39,-478 649.39,-474.5 639.39,-471 639.39,-478"/>
</g>
<!-- Node19 -->
<g id="node19" class="node">
<title>Node19</title>
<g id="a_node19"><a xlink:href="classdenoptim_1_1ga_1_1_e_a_utils.html#a98553265dd4b441b11c6d97d098edb08" target="_top" xlink:title="Generates a new offspring by performing a crossover operation.">
<polygon fill="white" stroke="black" points="221.5,-388.5 221.5,-418.5 348.5,-418.5 348.5,-388.5 221.5,-388.5"/>
<text text-anchor="start" x="229.5" y="-406.5" font-family="Helvetica,sans-Serif" font-size="10.00">denoptim.ga.EAUtils.build</text>
<text text-anchor="middle" x="285" y="-395.5" font-family="Helvetica,sans-Serif" font-size="10.00">CandidateByXOver</text>
</a>
</g>
</g>
<!-- Node18&#45;&gt;Node19 -->
<g id="edge27" class="edge">
<title>Node18&#45;&gt;Node19</title>
<path fill="none" stroke="midnightblue" d="M435.68,-456.8C427.33,-454.46 418.95,-452 411,-449.5 381.44,-440.2 348.58,-428.03 323.97,-418.54"/>
<polygon fill="midnightblue" stroke="midnightblue" points="434.87,-460.21 445.45,-459.49 436.73,-453.46 434.87,-460.21"/>
</g>
<!-- Node20 -->
<g id="node20" class="node">
<title>Node20</title>
<g id="a_node20"><a xlink:href="classdenoptim_1_1programs_1_1genetweeker_1_1_gene_ops_runner.html#ab0f92a94c4fb2334e7d3813e73fc4247" target="_top" xlink:title=" ">
<polygon fill="white" stroke="black" points="205.5,-459.5 205.5,-489.5 364.5,-489.5 364.5,-459.5 205.5,-459.5"/>
<text text-anchor="start" x="213.5" y="-477.5" font-family="Helvetica,sans-Serif" font-size="10.00">denoptim.programs.genetweeker.</text>
<text text-anchor="middle" x="285" y="-466.5" font-family="Helvetica,sans-Serif" font-size="10.00">GeneOpsRunner.runXOver</text>
</a>
</g>
</g>
<!-- Node18&#45;&gt;Node20 -->
<g id="edge28" class="edge">
<title>Node18&#45;&gt;Node20</title>
<path fill="none" stroke="midnightblue" d="M406.65,-474.5C392.58,-474.5 378.28,-474.5 364.68,-474.5"/>
<polygon fill="midnightblue" stroke="midnightblue" points="406.83,-478 416.83,-474.5 406.83,-471 406.83,-478"/>
</g>
<!-- Node21 -->
<g id="node21" class="node">
<title>Node21</title>
<g id="a_node21"><a xlink:href="classdenoptim_1_1programs_1_1genetweeker_1_1_gene_ops_runner.html#a3c2407eb1204a7b25600d3d347d98447" target="_top" xlink:title=" ">
<polygon fill="white" stroke="black" points="0,-459.5 0,-489.5 159,-489.5 159,-459.5 0,-459.5"/>
<text text-anchor="start" x="8" y="-477.5" font-family="Helvetica,sans-Serif" font-size="10.00">denoptim.programs.genetweeker.</text>
<text text-anchor="middle" x="79.5" y="-466.5" font-family="Helvetica,sans-Serif" font-size="10.00">GeneOpsRunner.runProgram</text>
</a>
</g>
</g>
<!-- Node20&#45;&gt;Node21 -->
<g id="edge29" class="edge">
<title>Node20&#45;&gt;Node21</title>
<path fill="none" stroke="midnightblue" d="M194.97,-474.5C183.09,-474.5 170.99,-474.5 159.3,-474.5"/>
<polygon fill="midnightblue" stroke="midnightblue" points="195.32,-478 205.32,-474.5 195.32,-471 195.32,-478"/>
</g>
<!-- Node27 -->
<g id="node27" class="node">
<title>Node27</title>
<g id="a_node27"><a xlink:href="classdenoptim_1_1ga_1_1_population.html#ab303d612f90e917a7b1b49eadc93c76e" target="_top" xlink:title="Returns a list of population members that can do crossover with the specified member.">
<polygon fill="white" stroke="black" points="1073.5,-441.5 1073.5,-471.5 1206.5,-471.5 1206.5,-441.5 1073.5,-441.5"/>
<text text-anchor="start" x="1081.5" y="-459.5" font-family="Helvetica,sans-Serif" font-size="10.00">denoptim.ga.Population.get</text>
<text text-anchor="middle" x="1140" y="-448.5" font-family="Helvetica,sans-Serif" font-size="10.00">XoverPartners</text>
</a>
</g>
</g>
<!-- Node26&#45;&gt;Node27 -->
<g id="edge35" class="edge">
<title>Node26&#45;&gt;Node27</title>
<path fill="none" stroke="midnightblue" d="M1351.19,-327.28C1330.92,-354.09 1288.79,-404.57 1241,-431.5 1230.48,-437.43 1218.55,-441.97 1206.69,-445.44"/>
<polygon fill="midnightblue" stroke="midnightblue" points="1354.06,-329.29 1357.21,-319.17 1348.44,-325.12 1354.06,-329.29"/>
</g>
<!-- Node31 -->
<g id="node31" class="node">
<title>Node31</title>
<g id="a_node31"><a xlink:href="classdenoptim_1_1ga_1_1_e_a_utils_test.html#ad4662f1a3a989020f953f7034d7c1beb" target="_top" xlink:title="NB: the graphs from methods getPairOfTestGraphsB() and getPairOfTestGraphsBxo() and &#160;&#160;getPairOfTestGr...">
<polygon fill="white" stroke="black" points="1063.5,-392.5 1063.5,-422.5 1216.5,-422.5 1216.5,-392.5 1063.5,-392.5"/>
<text text-anchor="start" x="1071.5" y="-410.5" font-family="Helvetica,sans-Serif" font-size="10.00">denoptim.ga.EAUtilsTest.test</text>
<text text-anchor="middle" x="1140" y="-399.5" font-family="Helvetica,sans-Serif" font-size="10.00">BuildByXOver_Embedded_Free</text>
</a>
</g>
</g>
<!-- Node26&#45;&gt;Node31 -->
<g id="edge40" class="edge">
<title>Node26&#45;&gt;Node31</title>
<path fill="none" stroke="midnightblue" d="M1342.37,-324.99C1318.57,-341.39 1278.67,-367 1241,-382.5 1231.81,-386.28 1221.91,-389.59 1212.04,-392.47"/>
<polygon fill="midnightblue" stroke="midnightblue" points="1344.47,-327.79 1350.67,-319.2 1340.47,-322.05 1344.47,-327.79"/>
</g>
<!-- Node32 -->
<g id="node32" class="node">
<title>Node32</title>
<g id="a_node32"><a xlink:href="classdenoptim_1_1ga_1_1_e_a_utils_test.html#af8cfc323dd7d12090ddf4b836a3349cf" target="_top" xlink:title="NB: the graphs from methods getPairOfTestGraphsB() and getPairOfTestGraphsBxo() and &#160;&#160;getPairOfTestGr...">
<polygon fill="white" stroke="black" points="1039,-343.5 1039,-373.5 1241,-373.5 1241,-343.5 1039,-343.5"/>
<text text-anchor="start" x="1047" y="-361.5" font-family="Helvetica,sans-Serif" font-size="10.00">denoptim.ga.EAUtilsTest.test</text>
<text text-anchor="middle" x="1140" y="-350.5" font-family="Helvetica,sans-Serif" font-size="10.00">BuildByXOver_Embedded_FreeBackwards</text>
</a>
</g>
</g>
<!-- Node26&#45;&gt;Node32 -->
<g id="edge41" class="edge">
<title>Node26&#45;&gt;Node32</title>
<path fill="none" stroke="midnightblue" d="M1310.78,-321.19C1280.46,-327.86 1242.15,-336.27 1209.59,-343.43"/>
<polygon fill="midnightblue" stroke="midnightblue" points="1311.72,-324.57 1320.74,-319.01 1310.22,-317.73 1311.72,-324.57"/>
</g>
<!-- Node33 -->
<g id="node33" class="node">
<title>Node33</title>
<g id="a_node33"><a xlink:href="classdenoptim_1_1graph_1_1_d_graph_test.html#af7cca36ac677cae488ebd9a866061ba1" target="_top" xlink:title=" ">
<polygon fill="white" stroke="black" points="1062,-294.5 1062,-324.5 1218,-324.5 1218,-294.5 1062,-294.5"/>
<text text-anchor="start" x="1070" y="-312.5" font-family="Helvetica,sans-Serif" font-size="10.00">denoptim.graph.DGraphTest.test</text>
<text text-anchor="middle" x="1140" y="-301.5" font-family="Helvetica,sans-Serif" font-size="10.00">SameAs_DiffRings</text>
</a>
</g>
</g>
<!-- Node26&#45;&gt;Node33 -->
<g id="edge42" class="edge">
<title>Node26&#45;&gt;Node33</title>
<path fill="none" stroke="midnightblue" d="M1276.9,-309.5C1257.49,-309.5 1237.03,-309.5 1218.06,-309.5"/>
<polygon fill="midnightblue" stroke="midnightblue" points="1276.94,-313 1286.94,-309.5 1276.94,-306 1276.94,-313"/>
</g>
<!-- Node34 -->
<g id="node34" class="node">
<title>Node34</title>
<g id="a_node34"><a xlink:href="classdenoptim_1_1graph_1_1_d_graph_test.html#a64805f4f059b37a9be325ce5ac8374ce" target="_top" xlink:title=" ">
<polygon fill="white" stroke="black" points="1062,-245.5 1062,-275.5 1218,-275.5 1218,-245.5 1062,-245.5"/>
<text text-anchor="start" x="1070" y="-263.5" font-family="Helvetica,sans-Serif" font-size="10.00">denoptim.graph.DGraphTest.test</text>
<text text-anchor="middle" x="1140" y="-252.5" font-family="Helvetica,sans-Serif" font-size="10.00">SameAs_DiffSymmSet</text>
</a>
</g>
</g>
<!-- Node26&#45;&gt;Node34 -->
<g id="edge43" class="edge">
<title>Node26&#45;&gt;Node34</title>
<path fill="none" stroke="midnightblue" d="M1310.78,-297.81C1280.46,-291.14 1242.15,-282.73 1209.59,-275.57"/>
<polygon fill="midnightblue" stroke="midnightblue" points="1310.22,-301.27 1320.74,-299.99 1311.72,-294.43 1310.22,-301.27"/>
</g>
<!-- Node35 -->
<g id="node35" class="node">
<title>Node35</title>
<g id="a_node35"><a xlink:href="classdenoptim_1_1graph_1_1_d_graph_test.html#a3a00bffb3f72683ef63569ed038fe8e1" target="_top" xlink:title=" ">
<polygon fill="white" stroke="black" points="1062,-196.5 1062,-226.5 1218,-226.5 1218,-196.5 1062,-196.5"/>
<text text-anchor="start" x="1070" y="-214.5" font-family="Helvetica,sans-Serif" font-size="10.00">denoptim.graph.DGraphTest.test</text>
<text text-anchor="middle" x="1140" y="-203.5" font-family="Helvetica,sans-Serif" font-size="10.00">SameAs_DiffVertex</text>
</a>
</g>
</g>
<!-- Node26&#45;&gt;Node35 -->
<g id="edge44" class="edge">
<title>Node26&#45;&gt;Node35</title>
<path fill="none" stroke="midnightblue" d="M1288.2,-295.94C1284.28,-294.06 1280.51,-291.93 1277,-289.5 1253.27,-273.11 1264.66,-252 1241,-235.5 1234.04,-230.65 1226.23,-226.77 1218.11,-223.67"/>
<polygon fill="midnightblue" stroke="midnightblue" points="1287.02,-299.24 1297.6,-299.88 1289.73,-292.79 1287.02,-299.24"/>
</g>
<!-- Node36 -->
<g id="node36" class="node">
<title>Node36</title>
<g id="a_node36"><a xlink:href="classdenoptim_1_1graph_1_1_d_graph_test.html#a3c40acdcc664e0010478429cbb0bb7ac" target="_top" xlink:title=" ">
<polygon fill="white" stroke="black" points="1062,-147.5 1062,-177.5 1218,-177.5 1218,-147.5 1062,-147.5"/>
<text text-anchor="start" x="1070" y="-165.5" font-family="Helvetica,sans-Serif" font-size="10.00">denoptim.graph.DGraphTest.test</text>
<text text-anchor="middle" x="1140" y="-154.5" font-family="Helvetica,sans-Serif" font-size="10.00">SameAs_DisorderRings</text>
</a>
</g>
</g>
<!-- Node26&#45;&gt;Node36 -->
<g id="edge45" class="edge">
<title>Node26&#45;&gt;Node36</title>
<path fill="none" stroke="midnightblue" d="M1284.09,-294.92C1281.6,-293.29 1279.22,-291.49 1277,-289.5 1240.87,-257.15 1276.97,-219.02 1241,-186.5 1234.38,-180.51 1226.53,-175.95 1218.18,-172.48"/>
<polygon fill="midnightblue" stroke="midnightblue" points="1282.55,-298.07 1293,-299.84 1285.94,-291.94 1282.55,-298.07"/>
</g>
<!-- Node37 -->
<g id="node37" class="node">
<title>Node37</title>
<g id="a_node37"><a xlink:href="classdenoptim_1_1graph_1_1_d_graph_test.html#ae71f1b47a3b17f3589caf6534bff5982" target="_top" xlink:title=" ">
<polygon fill="white" stroke="black" points="1062,-98.5 1062,-128.5 1218,-128.5 1218,-98.5 1062,-98.5"/>
<text text-anchor="start" x="1070" y="-116.5" font-family="Helvetica,sans-Serif" font-size="10.00">denoptim.graph.DGraphTest.test</text>
<text text-anchor="middle" x="1140" y="-105.5" font-family="Helvetica,sans-Serif" font-size="10.00">SameAs_Equal</text>
</a>
</g>
</g>
<!-- Node26&#45;&gt;Node37 -->
<g id="edge46" class="edge">
<title>Node26&#45;&gt;Node37</title>
<path fill="none" stroke="midnightblue" d="M1283.01,-294.63C1280.89,-293.07 1278.88,-291.36 1277,-289.5 1227.75,-240.57 1290.02,-186.66 1241,-137.5 1234.57,-131.05 1226.73,-126.22 1218.31,-122.62"/>
<polygon fill="midnightblue" stroke="midnightblue" points="1281.33,-297.7 1291.69,-299.93 1284.98,-291.73 1281.33,-297.7"/>
</g>
<!-- Node38 -->
<g id="node38" class="node">
<title>Node38</title>
<g id="a_node38"><a xlink:href="classdenoptim_1_1graph_1_1_d_graph_test.html#ac79cc6d29df4c3b5e6e96643912115f5" target="_top" xlink:title=" ">
<polygon fill="white" stroke="black" points="1062,-49.5 1062,-79.5 1218,-79.5 1218,-49.5 1062,-49.5"/>
<text text-anchor="start" x="1070" y="-67.5" font-family="Helvetica,sans-Serif" font-size="10.00">denoptim.graph.DGraphTest.test</text>
<text text-anchor="middle" x="1140" y="-56.5" font-family="Helvetica,sans-Serif" font-size="10.00">SameAs_SameRings</text>
</a>
</g>
</g>
<!-- Node26&#45;&gt;Node38 -->
<g id="edge47" class="edge">
<title>Node26&#45;&gt;Node38</title>
<path fill="none" stroke="midnightblue" d="M1282.28,-294.3C1280.42,-292.83 1278.65,-291.23 1277,-289.5 1214.41,-223.78 1303.28,-154.52 1241,-88.5 1234.63,-81.75 1226.72,-76.75 1218.16,-73.07"/>
<polygon fill="midnightblue" stroke="midnightblue" points="1280.72,-297.46 1291.02,-299.97 1284.54,-291.59 1280.72,-297.46"/>
</g>
<!-- Node39 -->
<g id="node39" class="node">
<title>Node39</title>
<g id="a_node39"><a xlink:href="classdenoptim_1_1graph_1_1_d_graph_test.html#a2cb527dcac2a1f307d70dfda13965786" target="_top" xlink:title=" ">
<polygon fill="white" stroke="black" points="1062,-0.5 1062,-30.5 1218,-30.5 1218,-0.5 1062,-0.5"/>
<text text-anchor="start" x="1070" y="-18.5" font-family="Helvetica,sans-Serif" font-size="10.00">denoptim.graph.DGraphTest.test</text>
<text text-anchor="middle" x="1140" y="-7.5" font-family="Helvetica,sans-Serif" font-size="10.00">SameAs_SameSymmSet</text>
</a>
</g>
</g>
<!-- Node26&#45;&gt;Node39 -->
<g id="edge48" class="edge">
<title>Node26&#45;&gt;Node39</title>
<path fill="none" stroke="midnightblue" d="M1282.06,-294.25C1280.27,-292.8 1278.58,-291.21 1277,-289.5 1200.98,-206.9 1316.62,-122.46 1241,-39.5 1234.75,-32.64 1226.91,-27.57 1218.38,-23.86"/>
<polygon fill="midnightblue" stroke="midnightblue" points="1280.2,-297.22 1290.45,-299.9 1284.1,-291.41 1280.2,-297.22"/>
</g>
<!-- Node40 -->
<g id="node40" class="node">
<title>Node40</title>
<g id="a_node40"><a xlink:href="classdenoptim_1_1io_1_1_denoptim_i_o_test.html#a716f5e1ae52b617c411ab57cb83ee78a" target="_top" xlink:title=" ">
<polygon fill="white" stroke="black" points="1048,-490.5 1048,-520.5 1232,-520.5 1232,-490.5 1048,-490.5"/>
<text text-anchor="start" x="1056" y="-508.5" font-family="Helvetica,sans-Serif" font-size="10.00">denoptim.io.DenoptimIOTest.test</text>
<text text-anchor="middle" x="1140" y="-497.5" font-family="Helvetica,sans-Serif" font-size="10.00">SerializeDeserializeDENOPTIMGraphs</text>
</a>
</g>
</g>
<!-- Node26&#45;&gt;Node40 -->
<g id="edge49" class="edge">
<title>Node26&#45;&gt;Node40</title>
<path fill="none" stroke="midnightblue" d="M1355.92,-328.3C1339.64,-363.84 1299.39,-440.88 1241,-480.5 1235.3,-484.37 1229.05,-487.64 1222.55,-490.4"/>
<polygon fill="midnightblue" stroke="midnightblue" points="1359.16,-329.62 1360.03,-319.06 1352.77,-326.77 1359.16,-329.62"/>
</g>
<!-- Node28 -->
<g id="node28" class="node">
<title>Node28</title>
<g id="a_node28"><a xlink:href="classdenoptim_1_1ga_1_1_e_a_utils.html#af1c589b6d5ba261e1417f3cd299e8e5d" target="_top" xlink:title="Perform fitness&#45;based, class&#45;compatible selection of parents that can do crossover operations.">
<polygon fill="white" stroke="black" points="424,-372 424,-391 590,-391 590,-372 424,-372"/>
<text text-anchor="middle" x="507" y="-379" font-family="Helvetica,sans-Serif" font-size="10.00">denoptim.ga.EAUtils.performFBCC</text>
</a>
</g>
</g>
<!-- Node27&#45;&gt;Node28 -->
<g id="edge36" class="edge">
<title>Node27&#45;&gt;Node28</title>
<path fill="none" stroke="midnightblue" d="M1066.96,-438.96C1057.53,-436.53 1048.02,-434 1039,-431.5 1022.88,-427.03 1019.4,-423.83 1003,-420.5 859.81,-391.41 689.23,-383.74 590.31,-381.88"/>
<polygon fill="midnightblue" stroke="midnightblue" points="1066.17,-442.37 1076.72,-441.46 1067.9,-435.59 1066.17,-442.37"/>
</g>
<!-- Node29 -->
<g id="node29" class="node">
<title>Node29</title>
<g id="a_node29"><a xlink:href="classdenoptim_1_1ga_1_1_population_test.html#a5db0672054a9fc1dbc923310732fdb3a" target="_top" xlink:title=" ">
<polygon fill="white" stroke="black" points="848,-430.5 848,-460.5 1003,-460.5 1003,-430.5 848,-430.5"/>
<text text-anchor="start" x="856" y="-448.5" font-family="Helvetica,sans-Serif" font-size="10.00">denoptim.ga.PopulationTest.test</text>
<text text-anchor="middle" x="925.5" y="-437.5" font-family="Helvetica,sans-Serif" font-size="10.00">Clone</text>
</a>
</g>
</g>
<!-- Node27&#45;&gt;Node29 -->
<g id="edge38" class="edge">
<title>Node27&#45;&gt;Node29</title>
<path fill="none" stroke="midnightblue" d="M1063.17,-452.57C1043.67,-451.57 1022.68,-450.48 1003.13,-449.47"/>
<polygon fill="midnightblue" stroke="midnightblue" points="1063.05,-456.07 1073.22,-453.09 1063.41,-449.08 1063.05,-456.07"/>
</g>
<!-- Node30 -->
<g id="node30" class="node">
<title>Node30</title>
<g id="a_node30"><a xlink:href="classdenoptim_1_1ga_1_1_population_test.html#a278212ebff2501b7071d342f9a027599" target="_top" xlink:title=" ">
<polygon fill="white" stroke="black" points="848,-479.5 848,-509.5 1003,-509.5 1003,-479.5 848,-479.5"/>
<text text-anchor="start" x="856" y="-497.5" font-family="Helvetica,sans-Serif" font-size="10.00">denoptim.ga.PopulationTest.test</text>
<text text-anchor="middle" x="925.5" y="-486.5" font-family="Helvetica,sans-Serif" font-size="10.00">XOverCompatibility</text>
</a>
</g>
</g>
<!-- Node27&#45;&gt;Node30 -->
<g id="edge39" class="edge">
<title>Node27&#45;&gt;Node30</title>
<path fill="none" stroke="midnightblue" d="M1063.17,-470.06C1043.67,-473.55 1022.68,-477.3 1003.13,-480.8"/>
<polygon fill="midnightblue" stroke="midnightblue" points="1063.99,-473.47 1073.22,-468.26 1062.76,-466.58 1063.99,-473.47"/>
</g>
<!-- Node28&#45;&gt;Node19 -->
<g id="edge37" class="edge">
<title>Node28&#45;&gt;Node19</title>
<path fill="none" stroke="midnightblue" d="M413.75,-390.72C391.78,-392.92 368.84,-395.22 348.55,-397.24"/>
<polygon fill="midnightblue" stroke="midnightblue" points="414.17,-394.2 423.77,-389.72 413.47,-387.24 414.17,-394.2"/>
</g>
</g>
</svg>
