<?xml version="1.0" encoding="UTF-8" standalone="no"?>
<!DOCTYPE svg PUBLIC "-//W3C//DTD SVG 1.1//EN"
 "http://www.w3.org/Graphics/SVG/1.1/DTD/svg11.dtd">
<!-- Generated by graphviz version 3.0.0 (20220413.0242)
 -->
<!-- Title: denoptim.graph.EmptyVertex.clone Pages: 1 -->
<svg width="571pt" height="622pt"
 viewBox="0.00 0.00 571.00 622.00" xmlns="http://www.w3.org/2000/svg" xmlns:xlink="http://www.w3.org/1999/xlink">
<g id="graph0" class="graph" transform="scale(1 1) rotate(0) translate(4 618)">
<title>denoptim.graph.EmptyVertex.clone</title>
<polygon fill="white" stroke="transparent" points="-4,4 -4,-618 567,-618 567,4 -4,4"/>
<!-- Node1 -->
<g id="node1" class="node">
<title>Node1</title>
<g id="a_node1"><a xlink:title="Returns a deep&#45;copy of this vertex.">
<polygon fill="#bfbfbf" stroke="black" points="0,-300 0,-319 165,-319 165,-300 0,-300"/>
<text text-anchor="middle" x="82.5" y="-307" font-family="Helvetica,sans-Serif" font-size="10.00">denoptim.graph.EmptyVertex.clone</text>
</a>
</g>
</g>
<!-- Node2 -->
<g id="node2" class="node">
<title>Node2</title>
<g id="a_node2"><a xlink:href="classdenoptim_1_1graph_1_1_empty_vertex.html#af9d9965c880b45d82e9b4cc10e60efa7" target="_top" xlink:title="Adds an attachment point with a no APClass or other attribute.">
<polygon fill="white" stroke="black" points="201,-589 201,-608 372,-608 372,-589 201,-589"/>
<text text-anchor="middle" x="286.5" y="-596" font-family="Helvetica,sans-Serif" font-size="10.00">denoptim.graph.EmptyVertex.addAP</text>
</a>
</g>
</g>
<!-- Node1&#45;&gt;Node2 -->
<g id="edge1" class="edge">
<title>Node1&#45;&gt;Node2</title>
<path fill="none" stroke="midnightblue" d="M84.61,-319.22C89.62,-358.6 113.92,-507.52 201,-579.5 203.03,-581.18 205.17,-582.71 207.41,-584.12"/>
<polygon fill="midnightblue" stroke="midnightblue" points="205.97,-587.32 216.45,-588.93 209.26,-581.14 205.97,-587.32"/>
</g>
<!-- Node4 -->
<g id="node4" class="node">
<title>Node4</title>
<g id="a_node4"><a xlink:href="classdenoptim_1_1graph_1_1_vertex.html#a6e237f0bbd68ebc3c6cd4278713ea7b2" target="_top" xlink:title="Copies all the string&#45;based properties and properties defined in the Vertex#uniquefyingPropertyKeys s...">
<polygon fill="white" stroke="black" points="219,-539.5 219,-569.5 354,-569.5 354,-539.5 219,-539.5"/>
<text text-anchor="start" x="227" y="-557.5" font-family="Helvetica,sans-Serif" font-size="10.00">denoptim.graph.Vertex.copy</text>
<text text-anchor="middle" x="286.5" y="-546.5" font-family="Helvetica,sans-Serif" font-size="10.00">StringBasedProperties</text>
</a>
</g>
</g>
<!-- Node1&#45;&gt;Node4 -->
<g id="edge3" class="edge">
<title>Node1&#45;&gt;Node4</title>
<path fill="none" stroke="midnightblue" d="M85.78,-319.13C94.38,-353.34 128.17,-470.13 201,-529.5 203.75,-531.74 206.7,-533.78 209.78,-535.64"/>
<polygon fill="midnightblue" stroke="midnightblue" points="208.31,-538.83 218.79,-540.41 211.59,-532.64 208.31,-538.83"/>
</g>
<!-- Node5 -->
<g id="node5" class="node">
<title>Node5</title>
<g id="a_node5"><a xlink:href="classdenoptim_1_1graph_1_1_empty_vertex.html#a808137ce0933f43bce1d605b1cba0a3d" target="_top" xlink:title="Constructor for an empty vertex.">
<polygon fill="white" stroke="black" points="215.5,-490.5 215.5,-520.5 357.5,-520.5 357.5,-490.5 215.5,-490.5"/>
<text text-anchor="start" x="223.5" y="-508.5" font-family="Helvetica,sans-Serif" font-size="10.00">denoptim.graph.EmptyVertex.</text>
<text text-anchor="middle" x="286.5" y="-497.5" font-family="Helvetica,sans-Serif" font-size="10.00">EmptyVertex</text>
</a>
</g>
</g>
<!-- Node1&#45;&gt;Node5 -->
<g id="edge4" class="edge">
<title>Node1&#45;&gt;Node5</title>
<path fill="none" stroke="midnightblue" d="M87.42,-319.35C99.56,-348.63 139.51,-435.83 201,-480.5 203.66,-482.43 206.47,-484.22 209.39,-485.87"/>
<polygon fill="midnightblue" stroke="midnightblue" points="207.9,-489.04 218.41,-490.41 211.05,-482.78 207.9,-489.04"/>
</g>
<!-- Node7 -->
<g id="node7" class="node">
<title>Node7</title>
<g id="a_node7"><a xlink:href="classdenoptim_1_1graph_1_1_vertex.html#a200f775296c4c9804e3a2b59e065be8a" target="_top" xlink:title="Returns the index of the building block that should correspond to the position of the building block ...">
<polygon fill="white" stroke="black" points="222.5,-441.5 222.5,-471.5 350.5,-471.5 350.5,-441.5 222.5,-441.5"/>
<text text-anchor="start" x="230.5" y="-459.5" font-family="Helvetica,sans-Serif" font-size="10.00">denoptim.graph.Vertex.get</text>
<text text-anchor="middle" x="286.5" y="-448.5" font-family="Helvetica,sans-Serif" font-size="10.00">BuildingBlockId</text>
</a>
</g>
</g>
<!-- Node1&#45;&gt;Node7 -->
<g id="edge6" class="edge">
<title>Node1&#45;&gt;Node7</title>
<path fill="none" stroke="midnightblue" d="M89.96,-319.04C105.99,-341.95 149.98,-400.51 201,-431.5 204.68,-433.73 208.57,-435.78 212.58,-437.65"/>
<polygon fill="midnightblue" stroke="midnightblue" points="211.54,-441.01 222.11,-441.7 214.28,-434.57 211.54,-441.01"/>
</g>
<!-- Node8 -->
<g id="node8" class="node">
<title>Node8</title>
<g id="a_node8"><a xlink:href="classdenoptim_1_1graph_1_1_vertex.html#a46dadb5fd30f1877db91e97ae55c2dd8" target="_top" xlink:title=" ">
<polygon fill="white" stroke="black" points="222.5,-392.5 222.5,-422.5 350.5,-422.5 350.5,-392.5 222.5,-392.5"/>
<text text-anchor="start" x="230.5" y="-410.5" font-family="Helvetica,sans-Serif" font-size="10.00">denoptim.graph.Vertex.get</text>
<text text-anchor="middle" x="286.5" y="-399.5" font-family="Helvetica,sans-Serif" font-size="10.00">BuildingBlockType</text>
</a>
</g>
</g>
<!-- Node1&#45;&gt;Node8 -->
<g id="edge7" class="edge">
<title>Node1&#45;&gt;Node8</title>
<path fill="none" stroke="midnightblue" d="M96.25,-319.03C117.15,-334.29 160.46,-364.31 201,-382.5 206.28,-384.87 211.84,-387.08 217.48,-389.13"/>
<polygon fill="midnightblue" stroke="midnightblue" points="216.43,-392.47 227.03,-392.44 218.72,-385.86 216.43,-392.47"/>
</g>
<!-- Node9 -->
<g id="node9" class="node">
<title>Node9</title>
<g id="a_node9"><a xlink:href="classdenoptim_1_1graph_1_1_vertex.html#a5671e1d926fba782f48c494d61980d29" target="_top" xlink:title="Returns the mutation types that are constitutionally configures for this vertex irrespectively on the...">
<polygon fill="white" stroke="black" points="222.5,-343.5 222.5,-373.5 350.5,-373.5 350.5,-343.5 222.5,-343.5"/>
<text text-anchor="start" x="230.5" y="-361.5" font-family="Helvetica,sans-Serif" font-size="10.00">denoptim.graph.Vertex.get</text>
<text text-anchor="middle" x="286.5" y="-350.5" font-family="Helvetica,sans-Serif" font-size="10.00">UnfilteredMutationTypes</text>
</a>
</g>
</g>
<!-- Node1&#45;&gt;Node9 -->
<g id="edge8" class="edge">
<title>Node1&#45;&gt;Node9</title>
<path fill="none" stroke="midnightblue" d="M122.93,-319.06C148.72,-325.32 183.19,-333.68 213.74,-341.09"/>
<polygon fill="midnightblue" stroke="midnightblue" points="212.97,-344.51 223.51,-343.46 214.62,-337.7 212.97,-344.51"/>
</g>
<!-- Node10 -->
<g id="node10" class="node">
<title>Node10</title>
<g id="a_node10"><a xlink:href="classdenoptim_1_1graph_1_1_vertex.html#af44ae05546096ec9060d7207f38bc8e9" target="_top" xlink:title=" ">
<polygon fill="white" stroke="black" points="222.5,-294.5 222.5,-324.5 350.5,-324.5 350.5,-294.5 222.5,-294.5"/>
<text text-anchor="start" x="230.5" y="-312.5" font-family="Helvetica,sans-Serif" font-size="10.00">denoptim.graph.Vertex.get</text>
<text text-anchor="middle" x="286.5" y="-301.5" font-family="Helvetica,sans-Serif" font-size="10.00">VertexId</text>
</a>
</g>
</g>
<!-- Node1&#45;&gt;Node10 -->
<g id="edge9" class="edge">
<title>Node1&#45;&gt;Node10</title>
<path fill="none" stroke="midnightblue" d="M165.08,-309.5C180.56,-309.5 196.67,-309.5 211.89,-309.5"/>
<polygon fill="midnightblue" stroke="midnightblue" points="212.26,-313 222.26,-309.5 212.26,-306 212.26,-313"/>
</g>
<!-- Node11 -->
<g id="node11" class="node">
<title>Node11</title>
<g id="a_node11"><a xlink:href="classdenoptim_1_1graph_1_1_vertex.html#a5dbac662f4102558f3cf874c55174c5e" target="_top" xlink:title=" ">
<polygon fill="white" stroke="black" points="222.5,-245.5 222.5,-275.5 350.5,-275.5 350.5,-245.5 222.5,-245.5"/>
<text text-anchor="start" x="230.5" y="-263.5" font-family="Helvetica,sans-Serif" font-size="10.00">denoptim.graph.Vertex.set</text>
<text text-anchor="middle" x="286.5" y="-252.5" font-family="Helvetica,sans-Serif" font-size="10.00">AsRCV</text>
</a>
</g>
</g>
<!-- Node1&#45;&gt;Node11 -->
<g id="edge10" class="edge">
<title>Node1&#45;&gt;Node11</title>
<path fill="none" stroke="midnightblue" d="M122.93,-299.94C148.72,-293.68 183.19,-285.32 213.74,-277.91"/>
<polygon fill="midnightblue" stroke="midnightblue" points="214.62,-281.3 223.51,-275.54 212.97,-274.49 214.62,-281.3"/>
</g>
<!-- Node12 -->
<g id="node12" class="node">
<title>Node12</title>
<g id="a_node12"><a xlink:href="classdenoptim_1_1graph_1_1_vertex.html#a867032399d8aad0a894cbf5b51406ac4" target="_top" xlink:title=" ">
<polygon fill="white" stroke="black" points="222.5,-196.5 222.5,-226.5 350.5,-226.5 350.5,-196.5 222.5,-196.5"/>
<text text-anchor="start" x="230.5" y="-214.5" font-family="Helvetica,sans-Serif" font-size="10.00">denoptim.graph.Vertex.set</text>
<text text-anchor="middle" x="286.5" y="-203.5" font-family="Helvetica,sans-Serif" font-size="10.00">BuildingBlockId</text>
</a>
</g>
</g>
<!-- Node1&#45;&gt;Node12 -->
<g id="edge11" class="edge">
<title>Node1&#45;&gt;Node12</title>
<path fill="none" stroke="midnightblue" d="M96.2,-299.77C117.04,-284.22 160.27,-253.66 201,-235.5 205.38,-233.55 209.97,-231.71 214.63,-229.99"/>
<polygon fill="midnightblue" stroke="midnightblue" points="216,-233.22 224.29,-226.63 213.7,-226.61 216,-233.22"/>
</g>
<!-- Node13 -->
<g id="node13" class="node">
<title>Node13</title>
<g id="a_node13"><a xlink:href="classdenoptim_1_1graph_1_1_vertex.html#ab8088bc1c894c7c916ca8d8a151fa905" target="_top" xlink:title=" ">
<polygon fill="white" stroke="black" points="222.5,-147.5 222.5,-177.5 350.5,-177.5 350.5,-147.5 222.5,-147.5"/>
<text text-anchor="start" x="230.5" y="-165.5" font-family="Helvetica,sans-Serif" font-size="10.00">denoptim.graph.Vertex.set</text>
<text text-anchor="middle" x="286.5" y="-154.5" font-family="Helvetica,sans-Serif" font-size="10.00">BuildingBlockType</text>
</a>
</g>
</g>
<!-- Node1&#45;&gt;Node13 -->
<g id="edge12" class="edge">
<title>Node1&#45;&gt;Node13</title>
<path fill="none" stroke="midnightblue" d="M89.92,-299.85C105.86,-276.66 149.66,-217.45 201,-186.5 204.67,-184.29 208.56,-182.27 212.57,-180.43"/>
<polygon fill="midnightblue" stroke="midnightblue" points="214.21,-183.54 222.1,-176.46 211.52,-177.08 214.21,-183.54"/>
</g>
<!-- Node14 -->
<g id="node14" class="node">
<title>Node14</title>
<g id="a_node14"><a xlink:href="classdenoptim_1_1graph_1_1_vertex.html#a0e1114b16856fd16a2de9cface2ea806" target="_top" xlink:title=" ">
<polygon fill="white" stroke="black" points="222.5,-98.5 222.5,-128.5 350.5,-128.5 350.5,-98.5 222.5,-98.5"/>
<text text-anchor="start" x="230.5" y="-116.5" font-family="Helvetica,sans-Serif" font-size="10.00">denoptim.graph.Vertex.set</text>
<text text-anchor="middle" x="286.5" y="-105.5" font-family="Helvetica,sans-Serif" font-size="10.00">MutationTypes</text>
</a>
</g>
</g>
<!-- Node1&#45;&gt;Node14 -->
<g id="edge13" class="edge">
<title>Node1&#45;&gt;Node14</title>
<path fill="none" stroke="midnightblue" d="M87.21,-299.97C99.03,-270.86 138.79,-182.3 201,-137.5 204.72,-134.82 208.73,-132.44 212.92,-130.32"/>
<polygon fill="midnightblue" stroke="midnightblue" points="214.62,-133.4 222.3,-126.1 211.75,-127.01 214.62,-133.4"/>
</g>
<!-- Node15 -->
<g id="node15" class="node">
<title>Node15</title>
<g id="a_node15"><a xlink:href="classdenoptim_1_1graph_1_1_vertex.html#a1b3682ddb7fc71fdd981526b43d773dc" target="_top" xlink:title=" ">
<polygon fill="white" stroke="black" points="222.5,-49.5 222.5,-79.5 350.5,-79.5 350.5,-49.5 222.5,-49.5"/>
<text text-anchor="start" x="230.5" y="-67.5" font-family="Helvetica,sans-Serif" font-size="10.00">denoptim.graph.Vertex.set</text>
<text text-anchor="middle" x="286.5" y="-56.5" font-family="Helvetica,sans-Serif" font-size="10.00">Properties</text>
</a>
</g>
</g>
<!-- Node1&#45;&gt;Node15 -->
<g id="edge14" class="edge">
<title>Node1&#45;&gt;Node15</title>
<path fill="none" stroke="midnightblue" d="M85.74,-299.8C94.22,-265.35 127.65,-147.75 201,-88.5 204.73,-85.48 208.83,-82.85 213.13,-80.54"/>
<polygon fill="midnightblue" stroke="midnightblue" points="214.67,-83.69 222.23,-76.26 211.69,-77.35 214.67,-83.69"/>
</g>
<!-- Node16 -->
<g id="node16" class="node">
<title>Node16</title>
<g id="a_node16"><a xlink:href="classdenoptim_1_1graph_1_1_empty_vertex.html#aa3c464caff4544e572875b198fe00947" target="_top" xlink:title=" ">
<polygon fill="white" stroke="black" points="209,-0.5 209,-30.5 364,-30.5 364,-0.5 209,-0.5"/>
<text text-anchor="start" x="217" y="-18.5" font-family="Helvetica,sans-Serif" font-size="10.00">denoptim.graph.EmptyVertex.set</text>
<text text-anchor="middle" x="286.5" y="-7.5" font-family="Helvetica,sans-Serif" font-size="10.00">SymmetricAPSets</text>
</a>
</g>
</g>
<!-- Node1&#45;&gt;Node16 -->
<g id="edge15" class="edge">
<title>Node1&#45;&gt;Node16</title>
<path fill="none" stroke="midnightblue" d="M84.72,-299.91C90.18,-261.05 115.95,-113.87 201,-39.5 202.34,-38.33 203.74,-37.21 205.18,-36.15"/>
<polygon fill="midnightblue" stroke="midnightblue" points="207.3,-38.95 213.88,-30.64 203.56,-33.03 207.3,-38.95"/>
</g>
<!-- Node3 -->
<g id="node3" class="node">
<title>Node3</title>
<g id="a_node3"><a xlink:href="classdenoptim_1_1graph_1_1_empty_vertex.html#afa1da6d6552c046f4c09f3ab030badfe" target="_top" xlink:title=" ">
<polygon fill="white" stroke="black" points="408,-583.5 408,-613.5 563,-613.5 563,-583.5 408,-583.5"/>
<text text-anchor="start" x="416" y="-601.5" font-family="Helvetica,sans-Serif" font-size="10.00">denoptim.graph.EmptyVertex.get</text>
<text text-anchor="middle" x="485.5" y="-590.5" font-family="Helvetica,sans-Serif" font-size="10.00">AttachmentPoints</text>
</a>
</g>
</g>
<!-- Node2&#45;&gt;Node3 -->
<g id="edge2" class="edge">
<title>Node2&#45;&gt;Node3</title>
<path fill="none" stroke="midnightblue" d="M372.19,-598.5C380.64,-598.5 389.23,-598.5 397.7,-598.5"/>
<polygon fill="midnightblue" stroke="midnightblue" points="397.96,-602 407.96,-598.5 397.96,-595 397.96,-602"/>
</g>
<!-- Node6 -->
<g id="node6" class="node">
<title>Node6</title>
<g id="a_node6"><a xlink:href="classdenoptim_1_1utils_1_1_graph_utils.html#a9d08e1ef48052456de71c3c6955f1945" target="_top" xlink:title="Unique counter for the number of graph vertices generated.">
<polygon fill="white" stroke="black" points="415,-490.5 415,-520.5 556,-520.5 556,-490.5 415,-490.5"/>
<text text-anchor="start" x="423" y="-508.5" font-family="Helvetica,sans-Serif" font-size="10.00">denoptim.utils.GraphUtils.get</text>
<text text-anchor="middle" x="485.5" y="-497.5" font-family="Helvetica,sans-Serif" font-size="10.00">UniqueVertexIndex</text>
</a>
</g>
</g>
<!-- Node5&#45;&gt;Node6 -->
<g id="edge5" class="edge">
<title>Node5&#45;&gt;Node6</title>
<path fill="none" stroke="midnightblue" d="M357.51,-505.5C372.75,-505.5 388.99,-505.5 404.58,-505.5"/>
<polygon fill="midnightblue" stroke="midnightblue" points="404.72,-509 414.72,-505.5 404.72,-502 404.72,-509"/>
</g>
</g>
</svg>
