<?xml version="1.0" encoding="UTF-8" standalone="no"?>
<!DOCTYPE svg PUBLIC "-//W3C//DTD SVG 1.1//EN"
 "http://www.w3.org/Graphics/SVG/1.1/DTD/svg11.dtd">
<!-- Generated by graphviz version 3.0.0 (20220413.0242)
 -->
<!-- Title: denoptim.graph.Template.Template Pages: 1 -->
<svg width="1240pt" height="513pt"
 viewBox="0.00 0.00 1240.00 512.63" xmlns="http://www.w3.org/2000/svg" xmlns:xlink="http://www.w3.org/1999/xlink">
<g id="graph0" class="graph" transform="scale(1 1) rotate(0) translate(4 508.63)">
<title>denoptim.graph.Template.Template</title>
<polygon fill="white" stroke="transparent" points="-4,4 -4,-508.63 1236,-508.63 1236,4 -4,4"/>
<!-- Node1 -->
<g id="node1" class="node">
<title>Node1</title>
<g id="a_node1"><a xlink:title=" ">
<polygon fill="#bfbfbf" stroke="black" points="1104,-327.13 1104,-357.13 1232,-357.13 1232,-327.13 1104,-327.13"/>
<text text-anchor="start" x="1112" y="-345.13" font-family="Helvetica,sans-Serif" font-size="10.00">denoptim.graph.Template.</text>
<text text-anchor="middle" x="1168" y="-334.13" font-family="Helvetica,sans-Serif" font-size="10.00">Template</text>
</a>
</g>
</g>
<!-- Node2 -->
<g id="node2" class="node">
<title>Node2</title>
<g id="a_node2"><a xlink:href="classdenoptim_1_1graph_1_1_template.html#ac7d7400f47d4bad33f3755f1b3d19a3e" target="_top" xlink:title="Returns a deep copy of this template.">
<polygon fill="white" stroke="black" points="914,-405.63 914,-424.63 1065,-424.63 1065,-405.63 914,-405.63"/>
<text text-anchor="middle" x="989.5" y="-412.63" font-family="Helvetica,sans-Serif" font-size="10.00">denoptim.graph.Template.clone</text>
</a>
</g>
</g>
<!-- Node1&#45;&gt;Node2 -->
<g id="edge1" class="edge">
<title>Node1&#45;&gt;Node2</title>
<path fill="none" stroke="midnightblue" d="M1121.02,-361.15C1086.52,-375.42 1040.72,-394.36 1013.56,-405.6"/>
<polygon fill="midnightblue" stroke="midnightblue" points="1122.53,-364.31 1130.43,-357.26 1119.85,-357.85 1122.53,-364.31"/>
</g>
<!-- Node6 -->
<g id="node6" class="node">
<title>Node6</title>
<g id="a_node6"><a xlink:href="classdenoptim_1_1graph_1_1_template.html#aa50dabc5cbff114f80b1d9ae60228521" target="_top" xlink:title="Method meant for devel phase only.">
<polygon fill="white" stroke="black" points="919,-327.13 919,-357.13 1060,-357.13 1060,-327.13 919,-327.13"/>
<text text-anchor="start" x="927" y="-345.13" font-family="Helvetica,sans-Serif" font-size="10.00">denoptim.graph.Template.get</text>
<text text-anchor="middle" x="989.5" y="-334.13" font-family="Helvetica,sans-Serif" font-size="10.00">TestTemplate</text>
</a>
</g>
</g>
<!-- Node1&#45;&gt;Node6 -->
<g id="edge6" class="edge">
<title>Node1&#45;&gt;Node6</title>
<path fill="none" stroke="midnightblue" d="M1093.7,-342.13C1082.6,-342.13 1071.18,-342.13 1060.16,-342.13"/>
<polygon fill="midnightblue" stroke="midnightblue" points="1093.78,-345.63 1103.78,-342.13 1093.78,-338.63 1093.78,-345.63"/>
</g>
<!-- Node8 -->
<g id="node8" class="node">
<title>Node8</title>
<g id="a_node8"><a xlink:href="classdenoptim_1_1graph_1_1_template.html#a1c1bd08e467f7738d2868996e9f22c3a" target="_top" xlink:title=" ">
<polygon fill="white" stroke="black" points="911,-278.13 911,-308.13 1068,-308.13 1068,-278.13 911,-278.13"/>
<text text-anchor="start" x="919" y="-296.13" font-family="Helvetica,sans-Serif" font-size="10.00">denoptim.graph.Template.update</text>
<text text-anchor="middle" x="989.5" y="-285.13" font-family="Helvetica,sans-Serif" font-size="10.00">MutTypeToFixedSTructure</text>
</a>
</g>
</g>
<!-- Node1&#45;&gt;Node8 -->
<g id="edge8" class="edge">
<title>Node1&#45;&gt;Node8</title>
<path fill="none" stroke="midnightblue" d="M1102.81,-324.31C1083.75,-319.02 1063.07,-313.28 1044.72,-308.18"/>
<polygon fill="midnightblue" stroke="midnightblue" points="1102.03,-327.73 1112.6,-327.03 1103.9,-320.98 1102.03,-327.73"/>
</g>
<!-- Node2&#45;&gt;Node2 -->
<g id="edge2" class="edge">
<title>Node2&#45;&gt;Node2</title>
<path fill="none" stroke="midnightblue" d="M1022.86,-433.02C1022.37,-438.67 1011.25,-443.13 989.5,-443.13 957.86,-443.13 948.72,-433.7 962.07,-424.89"/>
<polygon fill="midnightblue" stroke="midnightblue" points="1025.65,-430.91 1016.93,-424.89 1019.99,-435.03 1025.65,-430.91"/>
</g>
<!-- Node3 -->
<g id="node3" class="node">
<title>Node3</title>
<g id="a_node3"><a xlink:href="classdenoptim_1_1graph_1_1_template_test.html#a72d37b4c24ad896838401b319b1d667e" target="_top" xlink:title=" ">
<polygon fill="white" stroke="black" points="703,-474.13 703,-504.13 867,-504.13 867,-474.13 703,-474.13"/>
<text text-anchor="start" x="711" y="-492.13" font-family="Helvetica,sans-Serif" font-size="10.00">denoptim.graph.TemplateTest.test</text>
<text text-anchor="middle" x="785" y="-481.13" font-family="Helvetica,sans-Serif" font-size="10.00">Clone</text>
</a>
</g>
</g>
<!-- Node2&#45;&gt;Node3 -->
<g id="edge3" class="edge">
<title>Node2&#45;&gt;Node3</title>
<path fill="none" stroke="midnightblue" d="M960.12,-429.07C937.45,-439.86 904.67,-454.66 875,-465.13 865.95,-468.33 856.25,-471.34 846.7,-474.09"/>
<polygon fill="midnightblue" stroke="midnightblue" points="961.68,-432.21 969.18,-424.72 958.65,-425.9 961.68,-432.21"/>
</g>
<!-- Node4 -->
<g id="node4" class="node">
<title>Node4</title>
<g id="a_node4"><a xlink:href="classdenoptim_1_1graph_1_1_attachment_point_test.html#af88d30ce68477984fe6179325d1540b2" target="_top" xlink:title=" ">
<polygon fill="white" stroke="black" points="695,-425.13 695,-455.13 875,-455.13 875,-425.13 695,-425.13"/>
<text text-anchor="start" x="703" y="-443.13" font-family="Helvetica,sans-Serif" font-size="10.00">denoptim.graph.Attachment</text>
<text text-anchor="middle" x="785" y="-432.13" font-family="Helvetica,sans-Serif" font-size="10.00">PointTest.testHasConnectedSrcAtom</text>
</a>
</g>
</g>
<!-- Node2&#45;&gt;Node4 -->
<g id="edge4" class="edge">
<title>Node2&#45;&gt;Node4</title>
<path fill="none" stroke="midnightblue" d="M903.78,-425.59C894.32,-426.76 884.66,-427.95 875.14,-429.13"/>
<polygon fill="midnightblue" stroke="midnightblue" points="904.46,-429.03 913.96,-424.34 903.61,-422.09 904.46,-429.03"/>
</g>
<!-- Node5 -->
<g id="node5" class="node">
<title>Node5</title>
<g id="a_node5"><a xlink:href="classdenoptim_1_1graph_1_1_template_test.html#a50688358b5a557ee51683082427bdc14" target="_top" xlink:title=" ">
<polygon fill="white" stroke="black" points="703,-376.13 703,-406.13 867,-406.13 867,-376.13 703,-376.13"/>
<text text-anchor="start" x="711" y="-394.13" font-family="Helvetica,sans-Serif" font-size="10.00">denoptim.graph.TemplateTest.test</text>
<text text-anchor="middle" x="785" y="-383.13" font-family="Helvetica,sans-Serif" font-size="10.00">NestedTemplateCloning</text>
</a>
</g>
</g>
<!-- Node2&#45;&gt;Node5 -->
<g id="edge5" class="edge">
<title>Node2&#45;&gt;Node5</title>
<path fill="none" stroke="midnightblue" d="M903.86,-405.1C891.73,-403.66 879.26,-402.19 867.2,-400.76"/>
<polygon fill="midnightblue" stroke="midnightblue" points="903.62,-408.6 913.96,-406.3 904.44,-401.65 903.62,-408.6"/>
</g>
<!-- Node7 -->
<g id="node7" class="node">
<title>Node7</title>
<g id="a_node7"><a xlink:href="classdenoptim_1_1graph_1_1_d_graph_test.html#a3eddde27b60b3f8bdd725dd44ee9a738" target="_top" xlink:title=" ">
<polygon fill="white" stroke="black" points="707,-327.13 707,-357.13 863,-357.13 863,-327.13 707,-327.13"/>
<text text-anchor="start" x="715" y="-345.13" font-family="Helvetica,sans-Serif" font-size="10.00">denoptim.graph.DGraphTest.test</text>
<text text-anchor="middle" x="785" y="-334.13" font-family="Helvetica,sans-Serif" font-size="10.00">GetMutationSites</text>
</a>
</g>
</g>
<!-- Node6&#45;&gt;Node7 -->
<g id="edge7" class="edge">
<title>Node6&#45;&gt;Node7</title>
<path fill="none" stroke="midnightblue" d="M908.57,-342.13C893.6,-342.13 877.98,-342.13 863.1,-342.13"/>
<polygon fill="midnightblue" stroke="midnightblue" points="908.81,-345.63 918.81,-342.13 908.81,-338.63 908.81,-345.63"/>
</g>
<!-- Node9 -->
<g id="node9" class="node">
<title>Node9</title>
<g id="a_node9"><a xlink:href="classdenoptim_1_1graph_1_1_template.html#a12b8da07fd36b5f756ec3c1cdbd3a8e9" target="_top" xlink:title="A list of mutation sites from within this vertex.">
<polygon fill="white" stroke="black" points="714.5,-278.13 714.5,-308.13 855.5,-308.13 855.5,-278.13 714.5,-278.13"/>
<text text-anchor="start" x="722.5" y="-296.13" font-family="Helvetica,sans-Serif" font-size="10.00">denoptim.graph.Template.get</text>
<text text-anchor="middle" x="785" y="-285.13" font-family="Helvetica,sans-Serif" font-size="10.00">MutationSites</text>
</a>
</g>
</g>
<!-- Node8&#45;&gt;Node9 -->
<g id="edge9" class="edge">
<title>Node8&#45;&gt;Node9</title>
<path fill="none" stroke="midnightblue" d="M900.46,-293.13C885.44,-293.13 870.02,-293.13 855.56,-293.13"/>
<polygon fill="midnightblue" stroke="midnightblue" points="900.79,-296.63 910.79,-293.13 900.79,-289.63 900.79,-296.63"/>
</g>
<!-- Node11 -->
<g id="node11" class="node">
<title>Node11</title>
<g id="a_node11"><a xlink:href="classdenoptim_1_1graph_1_1_template.html#ab6a7859f36c5e25a8ad218b665a3a20c" target="_top" xlink:title="Imposes the given contract to this template.">
<polygon fill="white" stroke="black" points="714.5,-178.13 714.5,-208.13 855.5,-208.13 855.5,-178.13 714.5,-178.13"/>
<text text-anchor="start" x="722.5" y="-196.13" font-family="Helvetica,sans-Serif" font-size="10.00">denoptim.graph.Template.set</text>
<text text-anchor="middle" x="785" y="-185.13" font-family="Helvetica,sans-Serif" font-size="10.00">ContractLevel</text>
</a>
</g>
</g>
<!-- Node8&#45;&gt;Node11 -->
<g id="edge11" class="edge">
<title>Node8&#45;&gt;Node11</title>
<path fill="none" stroke="midnightblue" d="M948.31,-273.29C909.47,-254.11 851.51,-225.48 816.38,-208.14"/>
<polygon fill="midnightblue" stroke="midnightblue" points="947.23,-276.66 957.74,-277.95 950.33,-270.38 947.23,-276.66"/>
</g>
<!-- Node10 -->
<g id="node10" class="node">
<title>Node10</title>
<g id="a_node10"><a xlink:href="classdenoptim_1_1ga_1_1_e_a_utils_test.html#ab7a37d3340d35ab586332ce2122e7bb0" target="_top" xlink:title=" ">
<polygon fill="white" stroke="black" points="483.5,-329.13 483.5,-359.13 646.5,-359.13 646.5,-329.13 483.5,-329.13"/>
<text text-anchor="start" x="491.5" y="-347.13" font-family="Helvetica,sans-Serif" font-size="10.00">denoptim.ga.EAUtilsTest.test</text>
<text text-anchor="middle" x="565" y="-336.13" font-family="Helvetica,sans-Serif" font-size="10.00">BuildGraphFromTemplateScaffold</text>
</a>
</g>
</g>
<!-- Node9&#45;&gt;Node10 -->
<g id="edge10" class="edge">
<title>Node9&#45;&gt;Node10</title>
<path fill="none" stroke="midnightblue" d="M710,-310.45C684.07,-316.51 655.19,-323.27 630.15,-329.13"/>
<polygon fill="midnightblue" stroke="midnightblue" points="710.83,-313.84 719.77,-308.16 709.24,-307.03 710.83,-313.84"/>
</g>
<!-- Node12 -->
<g id="node12" class="node">
<title>Node12</title>
<g id="a_node12"><a xlink:href="classdenoptim_1_1ga_1_1_graph_operations_test.html#a0dd5e8c7f80f7e7c7fa2d46e01355a2d" target="_top" xlink:title="Generates a pair of graphs that include templates with free content.">
<polygon fill="white" stroke="black" points="492.5,-241.13 492.5,-271.13 637.5,-271.13 637.5,-241.13 492.5,-241.13"/>
<text text-anchor="start" x="500.5" y="-259.13" font-family="Helvetica,sans-Serif" font-size="10.00">denoptim.ga.GraphOperations</text>
<text text-anchor="middle" x="565" y="-248.13" font-family="Helvetica,sans-Serif" font-size="10.00">Test.getPairOfTestGraphs</text>
</a>
</g>
</g>
<!-- Node11&#45;&gt;Node12 -->
<g id="edge12" class="edge">
<title>Node11&#45;&gt;Node12</title>
<path fill="none" stroke="midnightblue" d="M722.09,-211.02C689.18,-220.53 649.19,-232.09 617.92,-241.13"/>
<polygon fill="midnightblue" stroke="midnightblue" points="723.43,-214.28 732.06,-208.14 721.48,-207.56 723.43,-214.28"/>
</g>
<!-- Node13 -->
<g id="node13" class="node">
<title>Node13</title>
<g id="a_node13"><a xlink:href="classdenoptim_1_1ga_1_1_graph_operations_test.html#a9fcf8fffef10a59df722c92e94da2815" target="_top" xlink:title=" ">
<polygon fill="white" stroke="black" points="242,-227.13 242,-257.13 431,-257.13 431,-227.13 242,-227.13"/>
<text text-anchor="start" x="250" y="-245.13" font-family="Helvetica,sans-Serif" font-size="10.00">denoptim.ga.GraphOperations</text>
<text text-anchor="middle" x="336.5" y="-234.13" font-family="Helvetica,sans-Serif" font-size="10.00">Test.testLocateCompatibleXOverPoints</text>
</a>
</g>
</g>
<!-- Node11&#45;&gt;Node13 -->
<g id="edge27" class="edge">
<title>Node11&#45;&gt;Node13</title>
<path fill="none" stroke="midnightblue" d="M704.17,-201.89C627.63,-210.29 512.11,-222.97 431.24,-231.85"/>
<polygon fill="midnightblue" stroke="midnightblue" points="704.68,-205.36 714.23,-200.79 703.91,-198.4 704.68,-205.36"/>
</g>
<!-- Node14 -->
<g id="node14" class="node">
<title>Node14</title>
<g id="a_node14"><a xlink:href="classdenoptim_1_1ga_1_1_population_test.html#ad6c0ff8cf3b73b88407f1a8ce2d699dd" target="_top" xlink:title="Builds a pair of graphs that contain templates with ContractLevel#FREE contract.">
<polygon fill="white" stroke="black" points="489,-115.13 489,-145.13 641,-145.13 641,-115.13 489,-115.13"/>
<text text-anchor="start" x="497" y="-133.13" font-family="Helvetica,sans-Serif" font-size="10.00">denoptim.ga.PopulationTest.get</text>
<text text-anchor="middle" x="565" y="-122.13" font-family="Helvetica,sans-Serif" font-size="10.00">PairOfTestGraphsB</text>
</a>
</g>
</g>
<!-- Node11&#45;&gt;Node14 -->
<g id="edge14" class="edge">
<title>Node11&#45;&gt;Node14</title>
<path fill="none" stroke="midnightblue" d="M722.09,-175.24C689.18,-165.73 649.19,-154.17 617.92,-145.14"/>
<polygon fill="midnightblue" stroke="midnightblue" points="721.48,-178.71 732.06,-178.12 723.43,-171.98 721.48,-178.71"/>
</g>
<!-- Node15 -->
<g id="node15" class="node">
<title>Node15</title>
<g id="a_node15"><a xlink:href="classdenoptim_1_1ga_1_1_population_test.html#a41f0c8d31458a49c72e7b22daf45073a" target="_top" xlink:title="Builds a pair of graphs that contain templates with ContractLevel#FREE contract.">
<polygon fill="white" stroke="black" points="260.5,-169.13 260.5,-199.13 412.5,-199.13 412.5,-169.13 260.5,-169.13"/>
<text text-anchor="start" x="268.5" y="-187.13" font-family="Helvetica,sans-Serif" font-size="10.00">denoptim.ga.PopulationTest.get</text>
<text text-anchor="middle" x="336.5" y="-176.13" font-family="Helvetica,sans-Serif" font-size="10.00">PairOfTestGraphsBxoxo</text>
</a>
</g>
</g>
<!-- Node11&#45;&gt;Node15 -->
<g id="edge23" class="edge">
<title>Node11&#45;&gt;Node15</title>
<path fill="none" stroke="midnightblue" d="M704.14,-191.52C621.56,-189.86 493.58,-187.28 412.74,-185.65"/>
<polygon fill="midnightblue" stroke="midnightblue" points="704.17,-195.02 714.23,-191.73 704.31,-188.03 704.17,-195.02"/>
</g>
<!-- Node17 -->
<g id="node17" class="node">
<title>Node17</title>
<g id="a_node17"><a xlink:href="classdenoptim_1_1ga_1_1_e_a_utils_test.html#ae0baa3684be9b8a4af611083649a9e6d" target="_top" xlink:title=" ">
<polygon fill="white" stroke="black" points="238,-71.13 238,-101.13 435,-101.13 435,-71.13 238,-71.13"/>
<text text-anchor="start" x="246" y="-89.13" font-family="Helvetica,sans-Serif" font-size="10.00">denoptim.ga.EAUtilsTest.test</text>
<text text-anchor="middle" x="336.5" y="-78.13" font-family="Helvetica,sans-Serif" font-size="10.00">BuildByXOver_Embedded_FixedStructure</text>
</a>
</g>
</g>
<!-- Node11&#45;&gt;Node17 -->
<g id="edge26" class="edge">
<title>Node11&#45;&gt;Node17</title>
<path fill="none" stroke="midnightblue" d="M760.56,-170.82C736.98,-149.92 698.54,-119.9 659,-106.13 586.91,-81.03 500.29,-77.01 435.14,-78.73"/>
<polygon fill="midnightblue" stroke="midnightblue" points="758.5,-173.67 768.26,-177.79 763.2,-168.48 758.5,-173.67"/>
</g>
<!-- Node20 -->
<g id="node20" class="node">
<title>Node20</title>
<g id="a_node20"><a xlink:href="classdenoptim_1_1ga_1_1_population_test.html#aec2f105b3ec1dad337b2a1708b803439" target="_top" xlink:title="Builds a pair of graphs that contain templates with ContractLevel#FREE contract.">
<polygon fill="white" stroke="black" points="489,-22.13 489,-52.13 641,-52.13 641,-22.13 489,-22.13"/>
<text text-anchor="start" x="497" y="-40.13" font-family="Helvetica,sans-Serif" font-size="10.00">denoptim.ga.PopulationTest.get</text>
<text text-anchor="middle" x="565" y="-29.13" font-family="Helvetica,sans-Serif" font-size="10.00">PairOfTestGraphsBxo</text>
</a>
</g>
</g>
<!-- Node11&#45;&gt;Node20 -->
<g id="edge20" class="edge">
<title>Node11&#45;&gt;Node20</title>
<path fill="none" stroke="midnightblue" d="M765.63,-170.39C743.01,-143.67 702.24,-99.52 659,-72.13 646.32,-64.1 631.52,-57.49 617.5,-52.25"/>
<polygon fill="midnightblue" stroke="midnightblue" points="762.96,-172.65 772.05,-178.09 768.33,-168.17 762.96,-172.65"/>
</g>
<!-- Node21 -->
<g id="node21" class="node">
<title>Node21</title>
<g id="a_node21"><a xlink:href="classdenoptim_1_1gui_1_1_g_u_i_graph_handler.html#af5b000c105018cbd7c262b34f9750044" target="_top" xlink:title="Initialize the panel and add buttons.">
<polygon fill="white" stroke="black" points="471,-290.63 471,-309.63 659,-309.63 659,-290.63 471,-290.63"/>
<text text-anchor="middle" x="565" y="-297.63" font-family="Helvetica,sans-Serif" font-size="10.00">denoptim.gui.GUIGraphHandler.initialize</text>
</a>
</g>
</g>
<!-- Node11&#45;&gt;Node21 -->
<g id="edge24" class="edge">
<title>Node11&#45;&gt;Node21</title>
<path fill="none" stroke="midnightblue" d="M759.33,-215.2C735.38,-235.43 697.14,-264.67 659,-281.13 650.07,-284.99 640.32,-288.07 630.6,-290.54"/>
<polygon fill="midnightblue" stroke="midnightblue" points="761.88,-217.63 767.18,-208.46 757.32,-212.32 761.88,-217.63"/>
</g>
<!-- Node12&#45;&gt;Node13 -->
<g id="edge13" class="edge">
<title>Node12&#45;&gt;Node13</title>
<path fill="none" stroke="midnightblue" d="M482.16,-251.07C465.58,-250.05 448.04,-248.97 431.1,-247.92"/>
<polygon fill="midnightblue" stroke="midnightblue" points="482.14,-254.58 492.33,-251.7 482.57,-247.59 482.14,-254.58"/>
</g>
<!-- Node14&#45;&gt;Node15 -->
<g id="edge15" class="edge">
<title>Node14&#45;&gt;Node15</title>
<path fill="none" stroke="midnightblue" d="M490.81,-147.58C461.74,-154.51 428.64,-162.4 400.65,-169.08"/>
<polygon fill="midnightblue" stroke="midnightblue" points="491.99,-150.9 500.91,-145.17 490.37,-144.09 491.99,-150.9"/>
</g>
<!-- Node14&#45;&gt;Node17 -->
<g id="edge17" class="edge">
<title>Node14&#45;&gt;Node17</title>
<path fill="none" stroke="midnightblue" d="M478.99,-113.62C457.9,-109.52 435.42,-105.15 414.73,-101.14"/>
<polygon fill="midnightblue" stroke="midnightblue" points="478.41,-117.07 488.89,-115.54 479.74,-110.2 478.41,-117.07"/>
</g>
<!-- Node18 -->
<g id="node18" class="node">
<title>Node18</title>
<g id="a_node18"><a xlink:href="classdenoptim_1_1ga_1_1_e_a_utils_test.html#ad4662f1a3a989020f953f7034d7c1beb" target="_top" xlink:title="NB: the graphs from methods getPairOfTestGraphsB() and getPairOfTestGraphsBxo() and &#160;&#160;getPairOfTestGr...">
<polygon fill="white" stroke="black" points="260,-22.13 260,-52.13 413,-52.13 413,-22.13 260,-22.13"/>
<text text-anchor="start" x="268" y="-40.13" font-family="Helvetica,sans-Serif" font-size="10.00">denoptim.ga.EAUtilsTest.test</text>
<text text-anchor="middle" x="336.5" y="-29.13" font-family="Helvetica,sans-Serif" font-size="10.00">BuildByXOver_Embedded_Free</text>
</a>
</g>
</g>
<!-- Node14&#45;&gt;Node18 -->
<g id="edge18" class="edge">
<title>Node14&#45;&gt;Node18</title>
<path fill="none" stroke="midnightblue" d="M531.29,-109.68C505.84,-94.5 469.21,-74.26 435,-61.13 426.29,-57.79 416.97,-54.8 407.66,-52.16"/>
<polygon fill="midnightblue" stroke="midnightblue" points="529.76,-112.85 540.13,-115.02 533.38,-106.85 529.76,-112.85"/>
</g>
<!-- Node19 -->
<g id="node19" class="node">
<title>Node19</title>
<g id="a_node19"><a xlink:href="classdenoptim_1_1utils_1_1_graph_conversion_tool_test.html#a9cf6fcaba3bac28b528db1eb73c21c62" target="_top" xlink:title=" ">
<polygon fill="white" stroke="black" points="238,-120.13 238,-150.13 435,-150.13 435,-120.13 238,-120.13"/>
<text text-anchor="start" x="246" y="-138.13" font-family="Helvetica,sans-Serif" font-size="10.00">denoptim.utils.GraphConversion</text>
<text text-anchor="middle" x="336.5" y="-127.13" font-family="Helvetica,sans-Serif" font-size="10.00">ToolTest.testGetJGraphKernelFromGraph</text>
</a>
</g>
</g>
<!-- Node14&#45;&gt;Node19 -->
<g id="edge19" class="edge">
<title>Node14&#45;&gt;Node19</title>
<path fill="none" stroke="midnightblue" d="M478.72,-132.02C464.58,-132.33 449.82,-132.65 435.4,-132.97"/>
<polygon fill="midnightblue" stroke="midnightblue" points="478.97,-135.51 488.89,-131.79 478.82,-128.51 478.97,-135.51"/>
</g>
<!-- Node16 -->
<g id="node16" class="node">
<title>Node16</title>
<g id="a_node16"><a xlink:href="classdenoptim_1_1ga_1_1_e_a_utils_test.html#af8cfc323dd7d12090ddf4b836a3349cf" target="_top" xlink:title="NB: the graphs from methods getPairOfTestGraphsB() and getPairOfTestGraphsBxo() and &#160;&#160;getPairOfTestGr...">
<polygon fill="white" stroke="black" points="0,-73.13 0,-103.13 202,-103.13 202,-73.13 0,-73.13"/>
<text text-anchor="start" x="8" y="-91.13" font-family="Helvetica,sans-Serif" font-size="10.00">denoptim.ga.EAUtilsTest.test</text>
<text text-anchor="middle" x="101" y="-80.13" font-family="Helvetica,sans-Serif" font-size="10.00">BuildByXOver_Embedded_FreeBackwards</text>
</a>
</g>
</g>
<!-- Node15&#45;&gt;Node16 -->
<g id="edge16" class="edge">
<title>Node15&#45;&gt;Node16</title>
<path fill="none" stroke="midnightblue" d="M255.34,-166.1C249.42,-164.25 243.58,-162.26 238,-160.13 197.06,-144.53 152.76,-119.37 126.21,-103.3"/>
<polygon fill="midnightblue" stroke="midnightblue" points="254.77,-169.58 265.35,-169.07 256.77,-162.87 254.77,-169.58"/>
</g>
<!-- Node20&#45;&gt;Node16 -->
<g id="edge22" class="edge">
<title>Node20&#45;&gt;Node16</title>
<path fill="none" stroke="midnightblue" d="M499.16,-19.84C432.56,-4.92 326.43,10.9 238,-12.13 192.72,-23.93 146.53,-54.49 121.34,-73.07"/>
<polygon fill="midnightblue" stroke="midnightblue" points="498.56,-23.29 509.09,-22.12 500.13,-16.47 498.56,-23.29"/>
</g>
<!-- Node20&#45;&gt;Node18 -->
<g id="edge21" class="edge">
<title>Node20&#45;&gt;Node18</title>
<path fill="none" stroke="midnightblue" d="M478.78,-37.13C457.22,-37.13 434.22,-37.13 413.18,-37.13"/>
<polygon fill="midnightblue" stroke="midnightblue" points="478.89,-40.63 488.89,-37.13 478.89,-33.63 478.89,-40.63"/>
</g>
<!-- Node22 -->
<g id="node22" class="node">
<title>Node22</title>
<g id="a_node22"><a xlink:href="classdenoptim_1_1gui_1_1_g_u_i_graph_handler.html#ab7d010d9a384f6b85edce47c95d6723b" target="_top" xlink:title="Constructor.">
<polygon fill="white" stroke="black" points="259.5,-285.13 259.5,-315.13 413.5,-315.13 413.5,-285.13 259.5,-285.13"/>
<text text-anchor="start" x="267.5" y="-303.13" font-family="Helvetica,sans-Serif" font-size="10.00">denoptim.gui.GUIGraphHandler.</text>
<text text-anchor="middle" x="336.5" y="-292.13" font-family="Helvetica,sans-Serif" font-size="10.00">GUIGraphHandler</text>
</a>
</g>
</g>
<!-- Node21&#45;&gt;Node22 -->
<g id="edge25" class="edge">
<title>Node21&#45;&gt;Node22</title>
<path fill="none" stroke="midnightblue" d="M460.57,-300.13C444.78,-300.13 428.74,-300.13 413.68,-300.13"/>
<polygon fill="midnightblue" stroke="midnightblue" points="460.89,-303.63 470.89,-300.13 460.89,-296.63 460.89,-303.63"/>
</g>
</g>
</svg>
