<?xml version="1.0" encoding="UTF-8" standalone="no"?>
<!DOCTYPE svg PUBLIC "-//W3C//DTD SVG 1.1//EN"
 "http://www.w3.org/Graphics/SVG/1.1/DTD/svg11.dtd">
<!-- Generated by graphviz version 3.0.0 (20220413.0242)
 -->
<!-- Title: denoptim.graph.Template.fromJson Pages: 1 -->
<svg width="1146pt" height="543pt"
 viewBox="0.00 0.00 1146.00 543.00" xmlns="http://www.w3.org/2000/svg" xmlns:xlink="http://www.w3.org/1999/xlink">
<g id="graph0" class="graph" transform="scale(1 1) rotate(0) translate(4 539)">
<title>denoptim.graph.Template.fromJson</title>
<polygon fill="white" stroke="transparent" points="-4,4 -4,-539 1142,-539 1142,4 -4,4"/>
<!-- Node1 -->
<g id="node1" class="node">
<title>Node1</title>
<g id="a_node1"><a xlink:title="Reads a JSON string and returns an instance of this class.">
<polygon fill="#bfbfbf" stroke="black" points="0,-276 0,-295 168,-295 168,-276 0,-276"/>
<text text-anchor="middle" x="84" y="-283" font-family="Helvetica,sans-Serif" font-size="10.00">denoptim.graph.Template.fromJson</text>
</a>
</g>
</g>
<!-- Node1&#45;&gt;Node1 -->
<g id="edge6" class="edge">
<title>Node1&#45;&gt;Node1</title>
<path fill="none" stroke="midnightblue" d="M53.17,-295.26C38.18,-304.07 48.45,-313.5 84,-313.5 108.99,-313.5 121.49,-308.84 121.5,-303"/>
<polygon fill="midnightblue" stroke="midnightblue" points="124,-300.55 114.83,-295.26 118.7,-305.12 124,-300.55"/>
</g>
<!-- Node2 -->
<g id="node2" class="node">
<title>Node2</title>
<g id="a_node2"><a xlink:href="classdenoptim_1_1graph_1_1_d_graph.html#aa5f803143b57df02989af878b098798f" target="_top" xlink:title="Reads a JSON string and returns an instance of this class.">
<polygon fill="white" stroke="black" points="204,-320 204,-339 365,-339 365,-320 204,-320"/>
<text text-anchor="middle" x="284.5" y="-327" font-family="Helvetica,sans-Serif" font-size="10.00">denoptim.graph.DGraph.fromJson</text>
</a>
</g>
</g>
<!-- Node1&#45;&gt;Node2 -->
<g id="edge1" class="edge">
<title>Node1&#45;&gt;Node2</title>
<path fill="none" stroke="midnightblue" d="M128.07,-295.05C158.12,-301.71 198.4,-310.64 230.43,-317.74"/>
<polygon fill="midnightblue" stroke="midnightblue" points="229.99,-321.22 240.51,-319.97 231.51,-314.39 229.99,-321.22"/>
</g>
<!-- Node3 -->
<g id="node3" class="node">
<title>Node3</title>
<g id="a_node3"><a xlink:href="classdenoptim_1_1json_1_1_d_e_n_o_p_t_i_mgson.html#a3e85cb26bb2f36407e309e41880ef191" target="_top" xlink:title=" ">
<polygon fill="white" stroke="black" points="401,-370.5 401,-400.5 568,-400.5 568,-370.5 401,-370.5"/>
<text text-anchor="start" x="409" y="-388.5" font-family="Helvetica,sans-Serif" font-size="10.00">denoptim.json.DENOPTIMgson.get</text>
<text text-anchor="middle" x="484.5" y="-377.5" font-family="Helvetica,sans-Serif" font-size="10.00">Reader</text>
</a>
</g>
</g>
<!-- Node1&#45;&gt;Node3 -->
<g id="edge8" class="edge">
<title>Node1&#45;&gt;Node3</title>
<path fill="none" stroke="midnightblue" d="M95.09,-295.22C114.39,-313.1 158.65,-350.83 204,-366.5 263.83,-387.18 335.06,-391.74 390.65,-391.23"/>
<polygon fill="midnightblue" stroke="midnightblue" points="390.89,-394.73 400.84,-391.08 390.79,-387.73 390.89,-394.73"/>
</g>
<!-- Node6 -->
<g id="node6" class="node">
<title>Node6</title>
<g id="a_node6"><a xlink:href="classdenoptim_1_1graph_1_1_template.html#a7de3b3ecb0743c881a629727648955be" target="_top" xlink:title="Return the list of attachment points visible from outside the template, i.e., the so&#45;called outer APs...">
<polygon fill="white" stroke="black" points="214,-270.5 214,-300.5 355,-300.5 355,-270.5 214,-270.5"/>
<text text-anchor="start" x="222" y="-288.5" font-family="Helvetica,sans-Serif" font-size="10.00">denoptim.graph.Template.get</text>
<text text-anchor="middle" x="284.5" y="-277.5" font-family="Helvetica,sans-Serif" font-size="10.00">AttachmentPoints</text>
</a>
</g>
</g>
<!-- Node1&#45;&gt;Node6 -->
<g id="edge7" class="edge">
<title>Node1&#45;&gt;Node6</title>
<path fill="none" stroke="midnightblue" d="M168.03,-285.5C179.78,-285.5 191.84,-285.5 203.53,-285.5"/>
<polygon fill="midnightblue" stroke="midnightblue" points="203.7,-289 213.7,-285.5 203.7,-282 203.7,-289"/>
</g>
<!-- Node7 -->
<g id="node7" class="node">
<title>Node7</title>
<g id="a_node7"><a xlink:href="classdenoptim_1_1graph_1_1_template.html#a405d47ac1a08ac9bd658bcdcc693a0a4" target="_top" xlink:title=" ">
<polygon fill="white" stroke="black" points="214,-128.5 214,-158.5 355,-158.5 355,-128.5 214,-128.5"/>
<text text-anchor="start" x="222" y="-146.5" font-family="Helvetica,sans-Serif" font-size="10.00">denoptim.graph.Template.set</text>
<text text-anchor="middle" x="284.5" y="-135.5" font-family="Helvetica,sans-Serif" font-size="10.00">InnerGraph</text>
</a>
</g>
</g>
<!-- Node1&#45;&gt;Node7 -->
<g id="edge9" class="edge">
<title>Node1&#45;&gt;Node7</title>
<path fill="none" stroke="midnightblue" d="M98.33,-275.96C130.03,-253.28 210.52,-195.71 254.21,-164.45"/>
<polygon fill="midnightblue" stroke="midnightblue" points="256.33,-167.24 262.43,-158.57 252.26,-161.54 256.33,-167.24"/>
</g>
<!-- Node27 -->
<g id="node27" class="node">
<title>Node27</title>
<g id="a_node27"><a xlink:href="classdenoptim_1_1graph_1_1_template.html#a8ec4d171f4457634263a61211fb3508b" target="_top" xlink:title=" ">
<polygon fill="white" stroke="black" points="406,-226.5 406,-256.5 563,-256.5 563,-226.5 406,-226.5"/>
<text text-anchor="start" x="414" y="-244.5" font-family="Helvetica,sans-Serif" font-size="10.00">denoptim.graph.Template.update</text>
<text text-anchor="middle" x="484.5" y="-233.5" font-family="Helvetica,sans-Serif" font-size="10.00">InnerToOuter</text>
</a>
</g>
</g>
<!-- Node1&#45;&gt;Node27 -->
<g id="edge32" class="edge">
<title>Node1&#45;&gt;Node27</title>
<path fill="none" stroke="midnightblue" d="M125.54,-275.99C148.45,-270.95 177.69,-265.08 204,-261.5 267.87,-252.81 340.5,-247.76 395.71,-244.91"/>
<polygon fill="midnightblue" stroke="midnightblue" points="396,-248.4 405.81,-244.4 395.65,-241.4 396,-248.4"/>
</g>
<!-- Node2&#45;&gt;Node2 -->
<g id="edge2" class="edge">
<title>Node2&#45;&gt;Node2</title>
<path fill="none" stroke="midnightblue" d="M253.67,-339.26C238.68,-348.07 248.95,-357.5 284.5,-357.5 309.49,-357.5 321.99,-352.84 322,-347"/>
<polygon fill="midnightblue" stroke="midnightblue" points="324.5,-344.55 315.33,-339.26 319.2,-349.12 324.5,-344.55"/>
</g>
<!-- Node2&#45;&gt;Node3 -->
<g id="edge3" class="edge">
<title>Node2&#45;&gt;Node3</title>
<path fill="none" stroke="midnightblue" d="M319.54,-339.13C347.21,-346.95 387.01,-358.21 420.47,-367.67"/>
<polygon fill="midnightblue" stroke="midnightblue" points="419.6,-371.06 430.17,-370.42 421.5,-364.33 419.6,-371.06"/>
</g>
<!-- Node4 -->
<g id="node4" class="node">
<title>Node4</title>
<g id="a_node4"><a xlink:href="classdenoptim_1_1json_1_1_d_e_n_o_p_t_i_mgson.html#aa14de224ae5d1ae5156f11d5715d360c" target="_top" xlink:title=" ">
<polygon fill="white" stroke="black" points="604,-482.5 604,-512.5 771,-512.5 771,-482.5 604,-482.5"/>
<text text-anchor="start" x="612" y="-500.5" font-family="Helvetica,sans-Serif" font-size="10.00">denoptim.json.DENOPTIMgson.get</text>
<text text-anchor="middle" x="687.5" y="-489.5" font-family="Helvetica,sans-Serif" font-size="10.00">Instance</text>
</a>
</g>
</g>
<!-- Node3&#45;&gt;Node4 -->
<g id="edge4" class="edge">
<title>Node3&#45;&gt;Node4</title>
<path fill="none" stroke="midnightblue" d="M512.61,-400.6C548.22,-420.45 610.87,-455.36 650.45,-477.41"/>
<polygon fill="midnightblue" stroke="midnightblue" points="649.06,-480.65 659.5,-482.46 652.47,-474.53 649.06,-480.65"/>
</g>
<!-- Node5 -->
<g id="node5" class="node">
<title>Node5</title>
<g id="a_node5"><a xlink:href="classdenoptim_1_1json_1_1_d_e_n_o_p_t_i_mgson.html#a4aafec42bd09225870fdf330db93b84c" target="_top" xlink:title=" ">
<polygon fill="white" stroke="black" points="807,-504.5 807,-534.5 961,-534.5 961,-504.5 807,-504.5"/>
<text text-anchor="start" x="815" y="-522.5" font-family="Helvetica,sans-Serif" font-size="10.00">denoptim.json.DENOPTIMgson.</text>
<text text-anchor="middle" x="884" y="-511.5" font-family="Helvetica,sans-Serif" font-size="10.00">DENOPTIMgson</text>
</a>
</g>
</g>
<!-- Node4&#45;&gt;Node5 -->
<g id="edge5" class="edge">
<title>Node4&#45;&gt;Node5</title>
<path fill="none" stroke="midnightblue" d="M771.27,-506.86C779.65,-507.81 788.17,-508.77 796.59,-509.73"/>
<polygon fill="midnightblue" stroke="midnightblue" points="796.46,-513.23 806.79,-510.88 797.24,-506.28 796.46,-513.23"/>
</g>
<!-- Node8 -->
<g id="node8" class="node">
<title>Node8</title>
<g id="a_node8"><a xlink:href="classdenoptim_1_1graph_1_1_template.html#a687f8680d7c74dacadeb80c85ced2be5" target="_top" xlink:title="Adds the projection of an AP in the template&#39;s inner graph (i.e., innerAP) to the list of APs visible...">
<polygon fill="white" stroke="black" points="413,-289.5 413,-319.5 556,-319.5 556,-289.5 413,-289.5"/>
<text text-anchor="start" x="421" y="-307.5" font-family="Helvetica,sans-Serif" font-size="10.00">denoptim.graph.Template.add</text>
<text text-anchor="middle" x="484.5" y="-296.5" font-family="Helvetica,sans-Serif" font-size="10.00">InnerToOuterAPMapping</text>
</a>
</g>
</g>
<!-- Node7&#45;&gt;Node8 -->
<g id="edge10" class="edge">
<title>Node7&#45;&gt;Node8</title>
<path fill="none" stroke="midnightblue" d="M296.46,-158.51C315.41,-183.61 356.55,-234.48 401,-266.5 410.9,-273.63 422.34,-279.92 433.5,-285.23"/>
<polygon fill="midnightblue" stroke="midnightblue" points="432.21,-288.49 442.76,-289.45 435.12,-282.12 432.21,-288.49"/>
</g>
<!-- Node20 -->
<g id="node20" class="node">
<title>Node20</title>
<g id="a_node20"><a xlink:href="classdenoptim_1_1graph_1_1_template.html#a82c53a76c42c31848f394c3f7aab21b9" target="_top" xlink:title="Removes the molecular representation.">
<polygon fill="white" stroke="black" points="613,-147.5 613,-177.5 762,-177.5 762,-147.5 613,-147.5"/>
<text text-anchor="start" x="621" y="-165.5" font-family="Helvetica,sans-Serif" font-size="10.00">denoptim.graph.Template.clear</text>
<text text-anchor="middle" x="687.5" y="-154.5" font-family="Helvetica,sans-Serif" font-size="10.00">IAtomContainer</text>
</a>
</g>
</g>
<!-- Node7&#45;&gt;Node20 -->
<g id="edge24" class="edge">
<title>Node7&#45;&gt;Node20</title>
<path fill="none" stroke="midnightblue" d="M355.35,-146.81C424.14,-150.07 529.28,-155.05 602.58,-158.52"/>
<polygon fill="midnightblue" stroke="midnightblue" points="602.55,-162.03 612.7,-159 602.88,-155.03 602.55,-162.03"/>
</g>
<!-- Node21 -->
<g id="node21" class="node">
<title>Node21</title>
<g id="a_node21"><a xlink:href="classdenoptim_1_1graph_1_1_d_graph.html#a309d3784aeae9aedce785314e753bdc5" target="_top" xlink:title="Returns the list of available attachment points contained in this graph.">
<polygon fill="white" stroke="black" points="620.5,-98.5 620.5,-128.5 754.5,-128.5 754.5,-98.5 620.5,-98.5"/>
<text text-anchor="start" x="628.5" y="-116.5" font-family="Helvetica,sans-Serif" font-size="10.00">denoptim.graph.DGraph.get</text>
<text text-anchor="middle" x="687.5" y="-105.5" font-family="Helvetica,sans-Serif" font-size="10.00">AvailableAPs</text>
</a>
</g>
</g>
<!-- Node7&#45;&gt;Node21 -->
<g id="edge25" class="edge">
<title>Node7&#45;&gt;Node21</title>
<path fill="none" stroke="midnightblue" d="M355.35,-138.27C426.61,-132.94 536.86,-124.69 610.33,-119.2"/>
<polygon fill="midnightblue" stroke="midnightblue" points="610.73,-122.68 620.44,-118.44 610.21,-115.7 610.73,-122.68"/>
</g>
<!-- Node23 -->
<g id="node23" class="node">
<title>Node23</title>
<g id="a_node23"><a xlink:href="classdenoptim_1_1graph_1_1_template.html#a1b1c82228b19609959356d3aa1f2a53b" target="_top" xlink:title=" ">
<polygon fill="white" stroke="black" points="417,-65.5 417,-95.5 552,-95.5 552,-65.5 417,-65.5"/>
<text text-anchor="start" x="425" y="-83.5" font-family="Helvetica,sans-Serif" font-size="10.00">denoptim.graph.Template.is</text>
<text text-anchor="middle" x="484.5" y="-72.5" font-family="Helvetica,sans-Serif" font-size="10.00">ValidInnerGraph</text>
</a>
</g>
</g>
<!-- Node7&#45;&gt;Node23 -->
<g id="edge27" class="edge">
<title>Node7&#45;&gt;Node23</title>
<path fill="none" stroke="midnightblue" d="M332.67,-128.49C360.83,-119.53 396.78,-108.09 426.52,-98.63"/>
<polygon fill="midnightblue" stroke="midnightblue" points="427.88,-101.87 436.34,-95.5 425.75,-95.2 427.88,-101.87"/>
</g>
<!-- Node26 -->
<g id="node26" class="node">
<title>Node26</title>
<g id="a_node26"><a xlink:href="classdenoptim_1_1graph_1_1_d_graph.html#a04463f5a015f34500e6c516d4ef0eabb" target="_top" xlink:title="Sets the reference to a template that embeds this graph, i.e., this graph&#39;s &quot;jacket&quot; template.">
<polygon fill="white" stroke="black" points="417.5,-16.5 417.5,-46.5 551.5,-46.5 551.5,-16.5 417.5,-16.5"/>
<text text-anchor="start" x="425.5" y="-34.5" font-family="Helvetica,sans-Serif" font-size="10.00">denoptim.graph.DGraph.set</text>
<text text-anchor="middle" x="484.5" y="-23.5" font-family="Helvetica,sans-Serif" font-size="10.00">TemplateJacket</text>
</a>
</g>
</g>
<!-- Node7&#45;&gt;Node26 -->
<g id="edge31" class="edge">
<title>Node7&#45;&gt;Node26</title>
<path fill="none" stroke="midnightblue" d="M301.4,-128.28C322.55,-108.81 361.83,-75.25 401,-55.5 404.75,-53.61 408.66,-51.85 412.67,-50.2"/>
<polygon fill="midnightblue" stroke="midnightblue" points="414.05,-53.42 422.15,-46.59 411.56,-46.88 414.05,-53.42"/>
</g>
<!-- Node8&#45;&gt;Node8 -->
<g id="edge11" class="edge">
<title>Node8&#45;&gt;Node8</title>
<path fill="none" stroke="midnightblue" d="M449.65,-319.66C441.24,-329.06 452.86,-338 484.5,-338 503.78,-338 515.63,-334.68 520.04,-329.96"/>
<polygon fill="midnightblue" stroke="midnightblue" points="523.51,-329.41 519.35,-319.66 516.52,-329.87 523.51,-329.41"/>
</g>
<!-- Node9 -->
<g id="node9" class="node">
<title>Node9</title>
<g id="a_node9"><a xlink:href="classdenoptim_1_1graph_1_1_attachment_point.html#a8dc9e31a8d2fb5ef6a9705cbf2ec22c9" target="_top" xlink:title="Returns a deep clone of this attachment point.">
<polygon fill="white" stroke="black" points="620,-401.5 620,-431.5 755,-431.5 755,-401.5 620,-401.5"/>
<text text-anchor="start" x="628" y="-419.5" font-family="Helvetica,sans-Serif" font-size="10.00">denoptim.graph.Attachment</text>
<text text-anchor="middle" x="687.5" y="-408.5" font-family="Helvetica,sans-Serif" font-size="10.00">Point.clone</text>
</a>
</g>
</g>
<!-- Node8&#45;&gt;Node9 -->
<g id="edge12" class="edge">
<title>Node8&#45;&gt;Node9</title>
<path fill="none" stroke="midnightblue" d="M510.73,-319.65C534.59,-333.87 571.48,-355.57 604,-373.5 618.02,-381.23 633.55,-389.42 647.32,-396.56"/>
<polygon fill="midnightblue" stroke="midnightblue" points="646.04,-399.83 656.54,-401.31 649.25,-393.61 646.04,-399.83"/>
</g>
<!-- Node14 -->
<g id="node14" class="node">
<title>Node14</title>
<g id="a_node14"><a xlink:href="classdenoptim_1_1graph_1_1_vertex.html#a6615f1c869173b8bd6d730c6683b9de4" target="_top" xlink:title="Returns the graph this vertex belongs to or null.">
<polygon fill="white" stroke="black" points="623.5,-333.5 623.5,-363.5 751.5,-363.5 751.5,-333.5 623.5,-333.5"/>
<text text-anchor="start" x="631.5" y="-351.5" font-family="Helvetica,sans-Serif" font-size="10.00">denoptim.graph.Vertex.get</text>
<text text-anchor="middle" x="687.5" y="-340.5" font-family="Helvetica,sans-Serif" font-size="10.00">GraphOwner</text>
</a>
</g>
</g>
<!-- Node8&#45;&gt;Node14 -->
<g id="edge17" class="edge">
<title>Node8&#45;&gt;Node14</title>
<path fill="none" stroke="midnightblue" d="M554.11,-319.52C573.19,-323.7 593.98,-328.25 613.31,-332.48"/>
<polygon fill="midnightblue" stroke="midnightblue" points="612.75,-335.94 623.27,-334.66 614.25,-329.1 612.75,-335.94"/>
</g>
<!-- Node15 -->
<g id="node15" class="node">
<title>Node15</title>
<g id="a_node15"><a xlink:href="classdenoptim_1_1graph_1_1_a_p_tree_map.html#a9e1e1c1dd87ebfb469b6c705c00038b6" target="_top" xlink:title="Associates the specified value with the specified key in this map.">
<polygon fill="white" stroke="black" points="611.5,-295 611.5,-314 763.5,-314 763.5,-295 611.5,-295"/>
<text text-anchor="middle" x="687.5" y="-302" font-family="Helvetica,sans-Serif" font-size="10.00">denoptim.graph.APTreeMap.put</text>
</a>
</g>
</g>
<!-- Node8&#45;&gt;Node15 -->
<g id="edge18" class="edge">
<title>Node8&#45;&gt;Node15</title>
<path fill="none" stroke="midnightblue" d="M556.08,-304.5C570.6,-304.5 586.04,-304.5 601.02,-304.5"/>
<polygon fill="midnightblue" stroke="midnightblue" points="601.31,-308 611.31,-304.5 601.31,-301 601.31,-308"/>
</g>
<!-- Node19 -->
<g id="node19" class="node">
<title>Node19</title>
<g id="a_node19"><a xlink:href="classdenoptim_1_1graph_1_1_attachment_point.html#a76bfbe6cc3918c114c73974b2fe4e59d" target="_top" xlink:title="Sets the reference to the vertex that owns this attachment point.">
<polygon fill="white" stroke="black" points="620,-245.5 620,-275.5 755,-275.5 755,-245.5 620,-245.5"/>
<text text-anchor="start" x="628" y="-263.5" font-family="Helvetica,sans-Serif" font-size="10.00">denoptim.graph.Attachment</text>
<text text-anchor="middle" x="687.5" y="-252.5" font-family="Helvetica,sans-Serif" font-size="10.00">Point.setOwner</text>
</a>
</g>
</g>
<!-- Node8&#45;&gt;Node19 -->
<g id="edge23" class="edge">
<title>Node8&#45;&gt;Node19</title>
<path fill="none" stroke="midnightblue" d="M554.11,-289.48C572.14,-285.53 591.69,-281.25 610.1,-277.22"/>
<polygon fill="midnightblue" stroke="midnightblue" points="610.88,-280.64 619.9,-275.08 609.38,-273.8 610.88,-280.64"/>
</g>
<!-- Node10 -->
<g id="node10" class="node">
<title>Node10</title>
<g id="a_node10"><a xlink:href="classdenoptim_1_1graph_1_1_attachment_point.html#a087f6102f1c542587ec2ec3c2240041f" target="_top" xlink:title="Constructor for undefined DENOPTIMAttachmentPoint.">
<polygon fill="white" stroke="black" points="816.5,-455.5 816.5,-485.5 951.5,-485.5 951.5,-455.5 816.5,-455.5"/>
<text text-anchor="start" x="824.5" y="-473.5" font-family="Helvetica,sans-Serif" font-size="10.00">denoptim.graph.Attachment</text>
<text text-anchor="middle" x="884" y="-462.5" font-family="Helvetica,sans-Serif" font-size="10.00">Point.AttachmentPoint</text>
</a>
</g>
</g>
<!-- Node9&#45;&gt;Node10 -->
<g id="edge13" class="edge">
<title>Node9&#45;&gt;Node10</title>
<path fill="none" stroke="midnightblue" d="M742.68,-431.54C766.4,-438.13 794.39,-445.9 819.12,-452.76"/>
<polygon fill="midnightblue" stroke="midnightblue" points="818.2,-456.14 828.77,-455.45 820.08,-449.4 818.2,-456.14"/>
</g>
<!-- Node12 -->
<g id="node12" class="node">
<title>Node12</title>
<g id="a_node12"><a xlink:href="classdenoptim_1_1graph_1_1_a_p_class.html#a1781af804ce3ff7b7ed2d681fd1eeae3" target="_top" xlink:title="WARNING: this method does NOT clone! It just returns the reference to this.">
<polygon fill="white" stroke="black" points="809.5,-417 809.5,-436 958.5,-436 958.5,-417 809.5,-417"/>
<text text-anchor="middle" x="884" y="-424" font-family="Helvetica,sans-Serif" font-size="10.00">denoptim.graph.APClass.clone</text>
</a>
</g>
</g>
<!-- Node9&#45;&gt;Node12 -->
<g id="edge15" class="edge">
<title>Node9&#45;&gt;Node12</title>
<path fill="none" stroke="midnightblue" d="M755.16,-419.93C769.37,-420.66 784.55,-421.44 799.3,-422.2"/>
<polygon fill="midnightblue" stroke="midnightblue" points="799.26,-425.7 809.43,-422.72 799.62,-418.71 799.26,-425.7"/>
</g>
<!-- Node13 -->
<g id="node13" class="node">
<title>Node13</title>
<g id="a_node13"><a xlink:href="classdenoptim_1_1graph_1_1_attachment_point.html#ac8551521d38644f5109800b665957ee9" target="_top" xlink:title=" ">
<polygon fill="white" stroke="black" points="816.5,-367.5 816.5,-397.5 951.5,-397.5 951.5,-367.5 816.5,-367.5"/>
<text text-anchor="start" x="824.5" y="-385.5" font-family="Helvetica,sans-Serif" font-size="10.00">denoptim.graph.Attachment</text>
<text text-anchor="middle" x="884" y="-374.5" font-family="Helvetica,sans-Serif" font-size="10.00">Point.getOwner</text>
</a>
</g>
</g>
<!-- Node9&#45;&gt;Node13 -->
<g id="edge16" class="edge">
<title>Node9&#45;&gt;Node13</title>
<path fill="none" stroke="midnightblue" d="M755.16,-404.85C771.71,-401.95 789.57,-398.83 806.55,-395.86"/>
<polygon fill="midnightblue" stroke="midnightblue" points="807.18,-399.31 816.42,-394.14 805.97,-392.41 807.18,-399.31"/>
</g>
<!-- Node11 -->
<g id="node11" class="node">
<title>Node11</title>
<g id="a_node11"><a xlink:href="classdenoptim_1_1utils_1_1_graph_utils.html#aacbefbc93a3463aa963c9923749deea1" target="_top" xlink:title="Unique counter for the number of molecules generated.">
<polygon fill="white" stroke="black" points="997,-389.5 997,-419.5 1138,-419.5 1138,-389.5 997,-389.5"/>
<text text-anchor="start" x="1005" y="-407.5" font-family="Helvetica,sans-Serif" font-size="10.00">denoptim.utils.GraphUtils.get</text>
<text text-anchor="middle" x="1067.5" y="-396.5" font-family="Helvetica,sans-Serif" font-size="10.00">UniqueAPIndex</text>
</a>
</g>
</g>
<!-- Node10&#45;&gt;Node11 -->
<g id="edge14" class="edge">
<title>Node10&#45;&gt;Node11</title>
<path fill="none" stroke="midnightblue" d="M932.16,-455.42C941.74,-452.23 951.72,-448.83 961,-445.5 980.29,-438.59 1001.36,-430.5 1019.57,-423.35"/>
<polygon fill="midnightblue" stroke="midnightblue" points="1021.07,-426.52 1029.08,-419.6 1018.5,-420.01 1021.07,-426.52"/>
</g>
<!-- Node15&#45;&gt;Node11 -->
<g id="edge20" class="edge">
<title>Node15&#45;&gt;Node11</title>
<path fill="none" stroke="midnightblue" d="M757.84,-314.01C813.53,-322.66 893.34,-337.32 961,-358.5 983.61,-365.58 1007.92,-375.97 1027.49,-385.09"/>
<polygon fill="midnightblue" stroke="midnightblue" points="1026.16,-388.33 1036.69,-389.44 1029.15,-382 1026.16,-388.33"/>
</g>
<!-- Node16 -->
<g id="node16" class="node">
<title>Node16</title>
<g id="a_node16"><a xlink:href="classdenoptim_1_1graph_1_1_attachment_point.html#a72dd6bd75a701cabb65832778da6e574" target="_top" xlink:title="Returns a unique integer that is used to sort list of attachment points.">
<polygon fill="white" stroke="black" points="816.5,-279.5 816.5,-309.5 951.5,-309.5 951.5,-279.5 816.5,-279.5"/>
<text text-anchor="start" x="824.5" y="-297.5" font-family="Helvetica,sans-Serif" font-size="10.00">denoptim.graph.Attachment</text>
<text text-anchor="middle" x="884" y="-286.5" font-family="Helvetica,sans-Serif" font-size="10.00">Point.getID</text>
</a>
</g>
</g>
<!-- Node15&#45;&gt;Node16 -->
<g id="edge19" class="edge">
<title>Node15&#45;&gt;Node16</title>
<path fill="none" stroke="midnightblue" d="M763.7,-300.63C777.63,-299.92 792.21,-299.17 806.19,-298.45"/>
<polygon fill="midnightblue" stroke="midnightblue" points="806.44,-301.94 816.25,-297.93 806.08,-294.95 806.44,-301.94"/>
</g>
<!-- Node17 -->
<g id="node17" class="node">
<title>Node17</title>
<g id="a_node17"><a xlink:href="classdenoptim_1_1utils_1_1_graph_utils.html#ac53e72bfeb5251069c07ebc22994022a" target="_top" xlink:title="Reset the unique attachment point counter to the given value.">
<polygon fill="white" stroke="black" points="809.5,-230.5 809.5,-260.5 958.5,-260.5 958.5,-230.5 809.5,-230.5"/>
<text text-anchor="start" x="817.5" y="-248.5" font-family="Helvetica,sans-Serif" font-size="10.00">denoptim.utils.GraphUtils.reset</text>
<text text-anchor="middle" x="884" y="-237.5" font-family="Helvetica,sans-Serif" font-size="10.00">UniqueAPCounter</text>
</a>
</g>
</g>
<!-- Node15&#45;&gt;Node17 -->
<g id="edge21" class="edge">
<title>Node15&#45;&gt;Node17</title>
<path fill="none" stroke="midnightblue" d="M736.42,-294.9C747.86,-292.22 759.94,-289.05 771,-285.5 787.5,-280.2 790.76,-276.55 807,-270.5 812.98,-268.27 819.26,-266.04 825.54,-263.88"/>
<polygon fill="midnightblue" stroke="midnightblue" points="827.03,-267.07 835.37,-260.54 824.78,-260.44 827.03,-267.07"/>
</g>
<!-- Node18 -->
<g id="node18" class="node">
<title>Node18</title>
<g id="a_node18"><a xlink:href="classdenoptim_1_1graph_1_1_attachment_point.html#a929c8f781b4c999a5228f322a3bd901e" target="_top" xlink:title="Sets the unique integer that is used to sort list of attachment points.">
<polygon fill="white" stroke="black" points="816.5,-181.5 816.5,-211.5 951.5,-211.5 951.5,-181.5 816.5,-181.5"/>
<text text-anchor="start" x="824.5" y="-199.5" font-family="Helvetica,sans-Serif" font-size="10.00">denoptim.graph.Attachment</text>
<text text-anchor="middle" x="884" y="-188.5" font-family="Helvetica,sans-Serif" font-size="10.00">Point.setID</text>
</a>
</g>
</g>
<!-- Node15&#45;&gt;Node18 -->
<g id="edge22" class="edge">
<title>Node15&#45;&gt;Node18</title>
<path fill="none" stroke="midnightblue" d="M753.87,-294.96C759.99,-292.48 765.82,-289.37 771,-285.5 797.13,-265.95 781.79,-242.23 807,-221.5 809.07,-219.8 811.25,-218.22 813.52,-216.74"/>
<polygon fill="midnightblue" stroke="midnightblue" points="815.7,-219.53 822.68,-211.55 812.25,-213.44 815.7,-219.53"/>
</g>
<!-- Node22 -->
<g id="node22" class="node">
<title>Node22</title>
<g id="a_node22"><a xlink:href="classdenoptim_1_1graph_1_1_d_graph.html#a27e25f8f8e1516d81cc281e2795a9428" target="_top" xlink:title="Returns the list of all attachment points contained in this graph.">
<polygon fill="white" stroke="black" points="817,-120.5 817,-150.5 951,-150.5 951,-120.5 817,-120.5"/>
<text text-anchor="start" x="825" y="-138.5" font-family="Helvetica,sans-Serif" font-size="10.00">denoptim.graph.DGraph.get</text>
<text text-anchor="middle" x="884" y="-127.5" font-family="Helvetica,sans-Serif" font-size="10.00">AttachmentPoints</text>
</a>
</g>
</g>
<!-- Node21&#45;&gt;Node22 -->
<g id="edge26" class="edge">
<title>Node21&#45;&gt;Node22</title>
<path fill="none" stroke="midnightblue" d="M754.62,-120.98C771.38,-122.87 789.51,-124.93 806.72,-126.87"/>
<polygon fill="midnightblue" stroke="midnightblue" points="806.4,-130.36 816.73,-128 807.19,-123.4 806.4,-130.36"/>
</g>
<!-- Node23&#45;&gt;Node21 -->
<g id="edge29" class="edge">
<title>Node23&#45;&gt;Node21</title>
<path fill="none" stroke="midnightblue" d="M552.15,-91.44C570.84,-94.51 591.29,-97.87 610.47,-101.02"/>
<polygon fill="midnightblue" stroke="midnightblue" points="609.94,-104.48 620.37,-102.64 611.07,-97.57 609.94,-104.48"/>
</g>
<!-- Node24 -->
<g id="node24" class="node">
<title>Node24</title>
<g id="a_node24"><a xlink:href="classdenoptim_1_1graph_1_1_attachment_point.html#a31bed4cb29f6437bf8a888a1dda3fd95" target="_top" xlink:title="Returns the Attachment Point class.">
<polygon fill="white" stroke="black" points="620,-49.5 620,-79.5 755,-79.5 755,-49.5 620,-49.5"/>
<text text-anchor="start" x="628" y="-67.5" font-family="Helvetica,sans-Serif" font-size="10.00">denoptim.graph.Attachment</text>
<text text-anchor="middle" x="687.5" y="-56.5" font-family="Helvetica,sans-Serif" font-size="10.00">Point.getAPClass</text>
</a>
</g>
</g>
<!-- Node23&#45;&gt;Node24 -->
<g id="edge28" class="edge">
<title>Node23&#45;&gt;Node24</title>
<path fill="none" stroke="midnightblue" d="M552.15,-75.19C570.56,-73.73 590.68,-72.13 609.61,-70.62"/>
<polygon fill="midnightblue" stroke="midnightblue" points="610,-74.1 619.69,-69.82 609.44,-67.12 610,-74.1"/>
</g>
<!-- Node25 -->
<g id="node25" class="node">
<title>Node25</title>
<g id="a_node25"><a xlink:href="classdenoptim_1_1graph_1_1_template.html#af47237c84381d97803d99a7ee16ddc63" target="_top" xlink:title=" ">
<polygon fill="white" stroke="black" points="617,-0.5 617,-30.5 758,-30.5 758,-0.5 617,-0.5"/>
<text text-anchor="start" x="625" y="-18.5" font-family="Helvetica,sans-Serif" font-size="10.00">denoptim.graph.Template.get</text>
<text text-anchor="middle" x="687.5" y="-7.5" font-family="Helvetica,sans-Serif" font-size="10.00">RequiredAPs</text>
</a>
</g>
</g>
<!-- Node23&#45;&gt;Node25 -->
<g id="edge30" class="edge">
<title>Node23&#45;&gt;Node25</title>
<path fill="none" stroke="midnightblue" d="M538.64,-65.46C548.47,-62.38 558.6,-59 568,-55.5 584.41,-49.39 587.56,-45.51 604,-39.5 609.47,-37.5 615.2,-35.55 620.97,-33.68"/>
<polygon fill="midnightblue" stroke="midnightblue" points="622.21,-36.96 630.69,-30.62 620.11,-30.28 622.21,-36.96"/>
</g>
<!-- Node27&#45;&gt;Node15 -->
<g id="edge36" class="edge">
<title>Node27&#45;&gt;Node15</title>
<path fill="none" stroke="midnightblue" d="M522.18,-256.52C545.38,-265.67 576.14,-277.16 604,-285.5 612.49,-288.04 621.56,-290.44 630.46,-292.62"/>
<polygon fill="midnightblue" stroke="midnightblue" points="629.87,-296.08 640.4,-294.99 631.49,-289.27 629.87,-296.08"/>
</g>
<!-- Node27&#45;&gt;Node19 -->
<g id="edge37" class="edge">
<title>Node27&#45;&gt;Node19</title>
<path fill="none" stroke="midnightblue" d="M563.21,-248.85C578.38,-250.28 594.28,-251.78 609.43,-253.21"/>
<polygon fill="midnightblue" stroke="midnightblue" points="609.49,-256.74 619.78,-254.19 610.15,-249.77 609.49,-256.74"/>
</g>
<!-- Node27&#45;&gt;Node20 -->
<g id="edge33" class="edge">
<title>Node27&#45;&gt;Node20</title>
<path fill="none" stroke="midnightblue" d="M515.72,-226.38C539.39,-214.86 573.33,-199.08 604,-187.5 610.21,-185.16 616.74,-182.87 623.3,-180.7"/>
<polygon fill="midnightblue" stroke="midnightblue" points="624.45,-184.01 632.89,-177.61 622.3,-177.35 624.45,-184.01"/>
</g>
<!-- Node28 -->
<g id="node28" class="node">
<title>Node28</title>
<g id="a_node28"><a xlink:href="classdenoptim_1_1graph_1_1_d_graph.html#a3fc88e09bf84838d98d7583b457f637f" target="_top" xlink:title="Returns the attachment point with the given identifier, or null if no AP is found with the given iden...">
<polygon fill="white" stroke="black" points="620.5,-196.5 620.5,-226.5 754.5,-226.5 754.5,-196.5 620.5,-196.5"/>
<text text-anchor="start" x="628.5" y="-214.5" font-family="Helvetica,sans-Serif" font-size="10.00">denoptim.graph.DGraph.get</text>
<text text-anchor="middle" x="687.5" y="-203.5" font-family="Helvetica,sans-Serif" font-size="10.00">APWithId</text>
</a>
</g>
</g>
<!-- Node27&#45;&gt;Node28 -->
<g id="edge34" class="edge">
<title>Node27&#45;&gt;Node28</title>
<path fill="none" stroke="midnightblue" d="M563.21,-229.9C578.71,-227.59 594.97,-225.16 610.41,-222.86"/>
<polygon fill="midnightblue" stroke="midnightblue" points="611.05,-226.3 620.42,-221.36 610.01,-219.38 611.05,-226.3"/>
</g>
<!-- Node28&#45;&gt;Node22 -->
<g id="edge35" class="edge">
<title>Node28&#45;&gt;Node22</title>
<path fill="none" stroke="midnightblue" d="M742.1,-196.39C751.8,-193.34 761.76,-189.99 771,-186.5 784.71,-181.33 815.88,-167.06 841.86,-154.92"/>
<polygon fill="midnightblue" stroke="midnightblue" points="843.59,-157.98 851.16,-150.57 840.62,-151.64 843.59,-157.98"/>
</g>
</g>
</svg>
