<?xml version="1.0" encoding="UTF-8" standalone="no"?>
<!DOCTYPE svg PUBLIC "-//W3C//DTD SVG 1.1//EN"
 "http://www.w3.org/Graphics/SVG/1.1/DTD/svg11.dtd">
<!-- Generated by graphviz version 3.0.0 (20220413.0242)
 -->
<!-- Title: denoptim.graph.Candidate.setGeneration Pages: 1 -->
<svg width="679pt" height="137pt"
 viewBox="0.00 0.00 679.00 137.00" xmlns="http://www.w3.org/2000/svg" xmlns:xlink="http://www.w3.org/1999/xlink">
<g id="graph0" class="graph" transform="scale(1 1) rotate(0) translate(4 133)">
<title>denoptim.graph.Candidate.setGeneration</title>
<polygon fill="white" stroke="transparent" points="-4,4 -4,-133 675,-133 675,4 -4,4"/>
<!-- Node1 -->
<g id="node1" class="node">
<title>Node1</title>
<g id="a_node1"><a xlink:title=" ">
<polygon fill="#bfbfbf" stroke="black" points="527,-49.5 527,-79.5 671,-79.5 671,-49.5 527,-49.5"/>
<text text-anchor="start" x="535" y="-67.5" font-family="Helvetica,sans-Serif" font-size="10.00">denoptim.graph.Candidate.set</text>
<text text-anchor="middle" x="599" y="-56.5" font-family="Helvetica,sans-Serif" font-size="10.00">Generation</text>
</a>
</g>
</g>
<!-- Node2 -->
<g id="node2" class="node">
<title>Node2</title>
<g id="a_node2"><a xlink:href="classdenoptim_1_1ga_1_1_evolutionary_algorithm.html#a596b2f5f0b097c5b67a6e5163bd6fe66" target="_top" xlink:title="Generates a given number of new candidate items and adds them to the current population.">
<polygon fill="white" stroke="black" points="353.5,-98.5 353.5,-128.5 487.5,-128.5 487.5,-98.5 353.5,-98.5"/>
<text text-anchor="start" x="361.5" y="-116.5" font-family="Helvetica,sans-Serif" font-size="10.00">denoptim.ga.Evolutionary</text>
<text text-anchor="middle" x="420.5" y="-105.5" font-family="Helvetica,sans-Serif" font-size="10.00">Algorithm.evolvePopulation</text>
</a>
</g>
</g>
<!-- Node1&#45;&gt;Node2 -->
<g id="edge1" class="edge">
<title>Node1&#45;&gt;Node2</title>
<path fill="none" stroke="midnightblue" d="M533.81,-82.32C514.75,-87.61 494.07,-93.35 475.72,-98.45"/>
<polygon fill="midnightblue" stroke="midnightblue" points="534.9,-85.65 543.6,-79.6 533.03,-78.9 534.9,-85.65"/>
</g>
<!-- Node6 -->
<g id="node6" class="node">
<title>Node6</title>
<g id="a_node6"><a xlink:href="classdenoptim_1_1ga_1_1_evolutionary_algorithm.html#ad43588620dab3340e0d8b0042ec73618" target="_top" xlink:title="Fills up the population with candidates build from scratch.">
<polygon fill="white" stroke="black" points="350.5,-49.5 350.5,-79.5 490.5,-79.5 490.5,-49.5 350.5,-49.5"/>
<text text-anchor="start" x="358.5" y="-67.5" font-family="Helvetica,sans-Serif" font-size="10.00">denoptim.ga.Evolutionary</text>
<text text-anchor="middle" x="420.5" y="-56.5" font-family="Helvetica,sans-Serif" font-size="10.00">Algorithm.initializePopulation</text>
</a>
</g>
</g>
<!-- Node1&#45;&gt;Node6 -->
<g id="edge5" class="edge">
<title>Node1&#45;&gt;Node6</title>
<path fill="none" stroke="midnightblue" d="M516.79,-64.5C508.06,-64.5 499.23,-64.5 490.66,-64.5"/>
<polygon fill="midnightblue" stroke="midnightblue" points="516.97,-68 526.97,-64.5 516.97,-61 516.97,-68"/>
</g>
<!-- Node7 -->
<g id="node7" class="node">
<title>Node7</title>
<g id="a_node7"><a xlink:href="classdenoptim_1_1io_1_1_denoptim_i_o.html#affb18c73c765a13819c7fd1eced1e921" target="_top" xlink:title="Reads SDF files that represent one or more tested or to be tested candidates.">
<polygon fill="white" stroke="black" points="350,-0.5 350,-30.5 491,-30.5 491,-0.5 350,-0.5"/>
<text text-anchor="start" x="358" y="-18.5" font-family="Helvetica,sans-Serif" font-size="10.00">denoptim.io.DenoptimIO.read</text>
<text text-anchor="middle" x="420.5" y="-7.5" font-family="Helvetica,sans-Serif" font-size="10.00">Candidates</text>
</a>
</g>
</g>
<!-- Node1&#45;&gt;Node7 -->
<g id="edge7" class="edge">
<title>Node1&#45;&gt;Node7</title>
<path fill="none" stroke="midnightblue" d="M533.81,-46.68C514.75,-41.39 494.07,-35.65 475.72,-30.55"/>
<polygon fill="midnightblue" stroke="midnightblue" points="533.03,-50.1 543.6,-49.4 534.9,-43.35 533.03,-50.1"/>
</g>
<!-- Node3 -->
<g id="node3" class="node">
<title>Node3</title>
<g id="a_node3"><a xlink:href="classdenoptim_1_1ga_1_1_evolutionary_algorithm.html#a6bfc2fa59b199da6259b5b6bad3d6de7" target="_top" xlink:title=" ">
<polygon fill="white" stroke="black" points="190,-73.5 190,-103.5 314,-103.5 314,-73.5 190,-73.5"/>
<text text-anchor="start" x="198" y="-91.5" font-family="Helvetica,sans-Serif" font-size="10.00">denoptim.ga.Evolutionary</text>
<text text-anchor="middle" x="252" y="-80.5" font-family="Helvetica,sans-Serif" font-size="10.00">Algorithm.run</text>
</a>
</g>
</g>
<!-- Node2&#45;&gt;Node3 -->
<g id="edge2" class="edge">
<title>Node2&#45;&gt;Node3</title>
<path fill="none" stroke="midnightblue" d="M343.17,-102.04C333.46,-100.58 323.62,-99.1 314.19,-97.69"/>
<polygon fill="midnightblue" stroke="midnightblue" points="342.81,-105.52 353.22,-103.55 343.85,-98.6 342.81,-105.52"/>
</g>
<!-- Node4 -->
<g id="node4" class="node">
<title>Node4</title>
<g id="a_node4"><a xlink:href="classdenoptim_1_1ga_1_1_evolutionary_algorithm.html#a0f2063b722b7291daf83d62acaa683d3" target="_top" xlink:title=" ">
<polygon fill="white" stroke="black" points="0,-98.5 0,-128.5 154,-128.5 154,-98.5 0,-98.5"/>
<text text-anchor="start" x="8" y="-116.5" font-family="Helvetica,sans-Serif" font-size="10.00">denoptim.ga.Evolutionary</text>
<text text-anchor="middle" x="77" y="-105.5" font-family="Helvetica,sans-Serif" font-size="10.00">Algorithm.EvolutionaryAlgorithm</text>
</a>
</g>
</g>
<!-- Node3&#45;&gt;Node4 -->
<g id="edge3" class="edge">
<title>Node3&#45;&gt;Node4</title>
<path fill="none" stroke="midnightblue" d="M179.44,-98.84C171.09,-100.05 162.54,-101.28 154.12,-102.5"/>
<polygon fill="midnightblue" stroke="midnightblue" points="180.12,-102.28 189.52,-97.38 179.12,-95.35 180.12,-102.28"/>
</g>
<!-- Node5 -->
<g id="node5" class="node">
<title>Node5</title>
<g id="a_node5"><a xlink:href="classdenoptim_1_1programs_1_1denovo_1_1_g_a_runner.html#a7cafd6d78727b89dce3e2c8d06f0dd7c" target="_top" xlink:title=" ">
<polygon fill="white" stroke="black" points="9.5,-49.5 9.5,-79.5 144.5,-79.5 144.5,-49.5 9.5,-49.5"/>
<text text-anchor="start" x="17.5" y="-67.5" font-family="Helvetica,sans-Serif" font-size="10.00">denoptim.programs.denovo.</text>
<text text-anchor="middle" x="77" y="-56.5" font-family="Helvetica,sans-Serif" font-size="10.00">GARunner.runProgram</text>
</a>
</g>
</g>
<!-- Node3&#45;&gt;Node5 -->
<g id="edge4" class="edge">
<title>Node3&#45;&gt;Node5</title>
<path fill="none" stroke="midnightblue" d="M179.48,-78.58C167.92,-76.97 156,-75.32 144.57,-73.73"/>
<polygon fill="midnightblue" stroke="midnightblue" points="179.13,-82.06 189.52,-79.97 180.1,-75.13 179.13,-82.06"/>
</g>
<!-- Node6&#45;&gt;Node3 -->
<g id="edge6" class="edge">
<title>Node6&#45;&gt;Node3</title>
<path fill="none" stroke="midnightblue" d="M340.16,-75.94C331.45,-77.19 322.69,-78.45 314.25,-79.67"/>
<polygon fill="midnightblue" stroke="midnightblue" points="340.94,-79.36 350.34,-74.47 339.94,-72.43 340.94,-79.36"/>
</g>
</g>
</svg>
