<?xml version="1.0" encoding="UTF-8" standalone="no"?>
<!DOCTYPE svg PUBLIC "-//W3C//DTD SVG 1.1//EN"
 "http://www.w3.org/Graphics/SVG/1.1/DTD/svg11.dtd">
<!-- Generated by graphviz version 3.0.0 (20220413.0242)
 -->
<!-- Title: denoptim.graph.Fragment.addBond Pages: 1 -->
<svg width="849pt" height="904pt"
 viewBox="0.00 0.00 849.00 904.00" xmlns="http://www.w3.org/2000/svg" xmlns:xlink="http://www.w3.org/1999/xlink">
<g id="graph0" class="graph" transform="scale(1 1) rotate(0) translate(4 900)">
<title>denoptim.graph.Fragment.addBond</title>
<polygon fill="white" stroke="transparent" points="-4,4 -4,-900 845,-900 845,4 -4,4"/>
<!-- Node1 -->
<g id="node1" class="node">
<title>Node1</title>
<g id="a_node1"><a xlink:title=" ">
<polygon fill="#bfbfbf" stroke="black" points="674,-334 674,-353 841,-353 841,-334 674,-334"/>
<text text-anchor="middle" x="757.5" y="-341" font-family="Helvetica,sans-Serif" font-size="10.00">denoptim.graph.Fragment.addBond</text>
</a>
</g>
</g>
<!-- Node2 -->
<g id="node2" class="node">
<title>Node2</title>
<g id="a_node2"><a xlink:href="classdenoptim_1_1utils_1_1_dummy_atom_handler.html#a100cd8246e61d933a6420fac5c22160a" target="_top" xlink:title="Append dummy atoms on otherwise linear arrangements of atoms.">
<polygon fill="white" stroke="black" points="457,-796.5 457,-826.5 624,-826.5 624,-796.5 457,-796.5"/>
<text text-anchor="start" x="465" y="-814.5" font-family="Helvetica,sans-Serif" font-size="10.00">denoptim.utils.DummyAtom</text>
<text text-anchor="middle" x="540.5" y="-803.5" font-family="Helvetica,sans-Serif" font-size="10.00">Handler.addDummiesOnLinearities</text>
</a>
</g>
</g>
<!-- Node1&#45;&gt;Node2 -->
<g id="edge1" class="edge">
<title>Node1&#45;&gt;Node2</title>
<path fill="none" stroke="midnightblue" d="M756.35,-363.07C754.83,-427.84 741.76,-638.31 638,-763.5 625.7,-778.34 607.68,-789.01 590.53,-796.46"/>
<polygon fill="midnightblue" stroke="midnightblue" points="759.85,-363.08 756.51,-353.02 752.85,-362.96 759.85,-363.08"/>
</g>
<!-- Node7 -->
<g id="node7" class="node">
<title>Node7</title>
<g id="a_node7"><a xlink:href="classdenoptim_1_1fragspace_1_1_fragment_space_test.html#ae401cb5105c9afd41d058685eb051869" target="_top" xlink:title=" ">
<polygon fill="white" stroke="black" points="463,-441.5 463,-471.5 618,-471.5 618,-441.5 463,-441.5"/>
<text text-anchor="start" x="471" y="-459.5" font-family="Helvetica,sans-Serif" font-size="10.00">denoptim.fragspace.Fragment</text>
<text text-anchor="middle" x="540.5" y="-448.5" font-family="Helvetica,sans-Serif" font-size="10.00">SpaceTest.buildFragmentSpace</text>
</a>
</g>
</g>
<!-- Node1&#45;&gt;Node7 -->
<g id="edge6" class="edge">
<title>Node1&#45;&gt;Node7</title>
<path fill="none" stroke="midnightblue" d="M737.74,-359.43C715.3,-377.8 675.99,-407.86 638,-426.5 626.11,-432.34 612.84,-437.34 600.04,-441.49"/>
<polygon fill="midnightblue" stroke="midnightblue" points="740.02,-362.09 745.47,-353.01 735.54,-356.71 740.02,-362.09"/>
</g>
<!-- Node16 -->
<g id="node16" class="node">
<title>Node16</title>
<g id="a_node16"><a xlink:href="classdenoptim_1_1fragspace_1_1_fragment_space_test.html#a692723b803a64dd25e775b2f8726fe27" target="_top" xlink:title="Works with this graph:">
<polygon fill="white" stroke="black" points="210,-219 210,-260 395,-260 395,-219 210,-219"/>
<text text-anchor="start" x="218" y="-248" font-family="Helvetica,sans-Serif" font-size="10.00">denoptim.fragspace.Fragment</text>
<text text-anchor="start" x="218" y="-237" font-family="Helvetica,sans-Serif" font-size="10.00">SpaceTest.testUseWholeMolGeometry</text>
<text text-anchor="middle" x="302.5" y="-226" font-family="Helvetica,sans-Serif" font-size="10.00">ForExtractedTemplates</text>
</a>
</g>
</g>
<!-- Node1&#45;&gt;Node16 -->
<g id="edge34" class="edge">
<title>Node1&#45;&gt;Node16</title>
<path fill="none" stroke="midnightblue" d="M732.27,-358.24C675.5,-390.69 531.95,-460.3 443,-393.5 397.11,-359.04 447.59,-310.07 407,-269.5 403.43,-265.93 399.46,-262.78 395.21,-260"/>
<polygon fill="midnightblue" stroke="midnightblue" points="734.35,-361.08 741.23,-353.02 730.83,-355.04 734.35,-361.08"/>
</g>
<!-- Node17 -->
<g id="node17" class="node">
<title>Node17</title>
<g id="a_node17"><a xlink:href="classdenoptim_1_1graph_1_1_fragment_test.html#a198cffde4134eecf80f3eba650efc5ba" target="_top" xlink:title=" ">
<polygon fill="white" stroke="black" points="454.5,-353.5 454.5,-383.5 626.5,-383.5 626.5,-353.5 454.5,-353.5"/>
<text text-anchor="start" x="462.5" y="-371.5" font-family="Helvetica,sans-Serif" font-size="10.00">denoptim.graph.FragmentTest.make</text>
<text text-anchor="middle" x="540.5" y="-360.5" font-family="Helvetica,sans-Serif" font-size="10.00">Fragment</text>
</a>
</g>
</g>
<!-- Node1&#45;&gt;Node17 -->
<g id="edge16" class="edge">
<title>Node1&#45;&gt;Node17</title>
<path fill="none" stroke="midnightblue" d="M664.6,-354.19C652.04,-355.65 639.18,-357.14 626.74,-358.59"/>
<polygon fill="midnightblue" stroke="midnightblue" points="665.08,-357.65 674.6,-353.02 664.27,-350.7 665.08,-357.65"/>
</g>
<!-- Node21 -->
<g id="node21" class="node">
<title>Node21</title>
<g id="a_node21"><a xlink:href="classdenoptim_1_1graph_1_1_fragment_test.html#a8bff8b7d1c409ddc9a55707f4e67f427" target="_top" xlink:title=" ">
<polygon fill="white" stroke="black" points="454.5,-723.5 454.5,-753.5 626.5,-753.5 626.5,-723.5 454.5,-723.5"/>
<text text-anchor="start" x="462.5" y="-741.5" font-family="Helvetica,sans-Serif" font-size="10.00">denoptim.graph.FragmentTest.make</text>
<text text-anchor="middle" x="540.5" y="-730.5" font-family="Helvetica,sans-Serif" font-size="10.00">FragmentA</text>
</a>
</g>
</g>
<!-- Node1&#45;&gt;Node21 -->
<g id="edge20" class="edge">
<title>Node1&#45;&gt;Node21</title>
<path fill="none" stroke="midnightblue" d="M754.27,-363.17C747.08,-418.85 719.93,-579.98 638,-680.5 622.56,-699.44 599.19,-713.71 579.32,-723.36"/>
<polygon fill="midnightblue" stroke="midnightblue" points="757.75,-363.57 755.49,-353.22 750.8,-362.72 757.75,-363.57"/>
</g>
<!-- Node23 -->
<g id="node23" class="node">
<title>Node23</title>
<g id="a_node23"><a xlink:href="classdenoptim_1_1graph_1_1_fragment_test.html#ae2ae980f38f76b7681a4e967d4cbdb4f" target="_top" xlink:title="Differs from the fragment produced by makeFragmentA() only by the identity of one atom.">
<polygon fill="white" stroke="black" points="454.5,-640.5 454.5,-670.5 626.5,-670.5 626.5,-640.5 454.5,-640.5"/>
<text text-anchor="start" x="462.5" y="-658.5" font-family="Helvetica,sans-Serif" font-size="10.00">denoptim.graph.FragmentTest.make</text>
<text text-anchor="middle" x="540.5" y="-647.5" font-family="Helvetica,sans-Serif" font-size="10.00">FragmentB</text>
</a>
</g>
</g>
<!-- Node1&#45;&gt;Node23 -->
<g id="edge23" class="edge">
<title>Node1&#45;&gt;Node23</title>
<path fill="none" stroke="midnightblue" d="M748.69,-362.79C731.97,-402.77 689.99,-496.6 638,-564.5 615.04,-594.49 581.89,-623.4 561.04,-640.31"/>
<polygon fill="midnightblue" stroke="midnightblue" points="751.97,-364 752.55,-353.42 745.5,-361.33 751.97,-364"/>
</g>
<!-- Node24 -->
<g id="node24" class="node">
<title>Node24</title>
<g id="a_node24"><a xlink:href="classdenoptim_1_1graph_1_1_fragment_test.html#a63f6f06d84a8b731e131034a8e24c238" target="_top" xlink:title="Differs from the fragment produced by makeFragmentA() only by the one APCLass.">
<polygon fill="white" stroke="black" points="454.5,-524.5 454.5,-554.5 626.5,-554.5 626.5,-524.5 454.5,-524.5"/>
<text text-anchor="start" x="462.5" y="-542.5" font-family="Helvetica,sans-Serif" font-size="10.00">denoptim.graph.FragmentTest.make</text>
<text text-anchor="middle" x="540.5" y="-531.5" font-family="Helvetica,sans-Serif" font-size="10.00">FragmentC</text>
</a>
</g>
</g>
<!-- Node1&#45;&gt;Node24 -->
<g id="edge25" class="edge">
<title>Node1&#45;&gt;Node24</title>
<path fill="none" stroke="midnightblue" d="M743.95,-361.54C723.86,-389.55 682.22,-444.16 638,-481.5 617.84,-498.52 592.11,-513.72 572.28,-524.29"/>
<polygon fill="midnightblue" stroke="midnightblue" points="746.99,-363.31 749.91,-353.12 741.28,-359.26 746.99,-363.31"/>
</g>
<!-- Node25 -->
<g id="node25" class="node">
<title>Node25</title>
<g id="a_node25"><a xlink:href="classdenoptim_1_1graph_1_1_vertex_test.html#ab36c441c57e9852e2be6d810d80fbc87" target="_top" xlink:title=" ">
<polygon fill="white" stroke="black" points="465,-304.5 465,-334.5 616,-334.5 616,-304.5 465,-304.5"/>
<text text-anchor="start" x="473" y="-322.5" font-family="Helvetica,sans-Serif" font-size="10.00">denoptim.graph.VertexTest.test</text>
<text text-anchor="middle" x="540.5" y="-311.5" font-family="Helvetica,sans-Serif" font-size="10.00">Clone</text>
</a>
</g>
</g>
<!-- Node1&#45;&gt;Node25 -->
<g id="edge27" class="edge">
<title>Node1&#45;&gt;Node25</title>
<path fill="none" stroke="midnightblue" d="M663.62,-333.13C647.72,-331.36 631.39,-329.53 616.05,-327.82"/>
<polygon fill="midnightblue" stroke="midnightblue" points="663.66,-336.66 673.99,-334.29 664.44,-329.7 663.66,-336.66"/>
</g>
<!-- Node26 -->
<g id="node26" class="node">
<title>Node26</title>
<g id="a_node26"><a xlink:href="classdenoptim_1_1molecularmodeling_1_1_three_dim_tree_builder_test.html#a1aea42a3aa474b25c0edc4541509f8f7" target="_top" xlink:title=" ">
<polygon fill="white" stroke="black" points="443,-245 443,-286 638,-286 638,-245 443,-245"/>
<text text-anchor="start" x="451" y="-274" font-family="Helvetica,sans-Serif" font-size="10.00">denoptim.molecularmodeling.</text>
<text text-anchor="start" x="451" y="-263" font-family="Helvetica,sans-Serif" font-size="10.00">ThreeDimTreeBuilderTest.testConversion</text>
<text text-anchor="middle" x="540.5" y="-252" font-family="Helvetica,sans-Serif" font-size="10.00">To3dTree</text>
</a>
</g>
</g>
<!-- Node1&#45;&gt;Node26 -->
<g id="edge28" class="edge">
<title>Node1&#45;&gt;Node26</title>
<path fill="none" stroke="midnightblue" d="M725.22,-330C701.49,-319.96 667.95,-306.2 638,-295.5 629,-292.28 619.45,-289.08 610.01,-286.02"/>
<polygon fill="midnightblue" stroke="midnightblue" points="723.86,-333.22 734.44,-333.92 726.6,-326.78 723.86,-333.22"/>
</g>
<!-- Node27 -->
<g id="node27" class="node">
<title>Node27</title>
<g id="a_node27"><a xlink:href="classdenoptim_1_1graph_1_1_fragment_test.html#a12552fabbb6c8af399da78f10279fce2" target="_top" xlink:title=" ">
<polygon fill="white" stroke="black" points="458.5,-196.5 458.5,-226.5 622.5,-226.5 622.5,-196.5 458.5,-196.5"/>
<text text-anchor="start" x="466.5" y="-214.5" font-family="Helvetica,sans-Serif" font-size="10.00">denoptim.graph.FragmentTest.test</text>
<text text-anchor="middle" x="540.5" y="-203.5" font-family="Helvetica,sans-Serif" font-size="10.00">ConversionToIAC</text>
</a>
</g>
</g>
<!-- Node1&#45;&gt;Node27 -->
<g id="edge29" class="edge">
<title>Node1&#45;&gt;Node27</title>
<path fill="none" stroke="midnightblue" d="M742.1,-325.73C721.56,-301.59 681.5,-258.78 638,-235.5 631.53,-232.04 624.55,-229.06 617.41,-226.51"/>
<polygon fill="midnightblue" stroke="midnightblue" points="739.66,-328.27 748.76,-333.71 745.04,-323.79 739.66,-328.27"/>
</g>
<!-- Node28 -->
<g id="node28" class="node">
<title>Node28</title>
<g id="a_node28"><a xlink:href="classdenoptim_1_1graph_1_1_fragment_test.html#a6494b234f01c4cf298d123dc59e047d6" target="_top" xlink:title=" ">
<polygon fill="white" stroke="black" points="458.5,-147.5 458.5,-177.5 622.5,-177.5 622.5,-147.5 458.5,-147.5"/>
<text text-anchor="start" x="466.5" y="-165.5" font-family="Helvetica,sans-Serif" font-size="10.00">denoptim.graph.FragmentTest.test</text>
<text text-anchor="middle" x="540.5" y="-154.5" font-family="Helvetica,sans-Serif" font-size="10.00">HandlingAPsAsObjOrProperty</text>
</a>
</g>
</g>
<!-- Node1&#45;&gt;Node28 -->
<g id="edge30" class="edge">
<title>Node1&#45;&gt;Node28</title>
<path fill="none" stroke="midnightblue" d="M747.5,-324.57C730.77,-291.47 691.62,-223.2 638,-187.5 632.24,-183.66 625.92,-180.42 619.36,-177.67"/>
<polygon fill="midnightblue" stroke="midnightblue" points="744.41,-326.21 751.97,-333.64 750.69,-323.12 744.41,-326.21"/>
</g>
<!-- Node29 -->
<g id="node29" class="node">
<title>Node29</title>
<g id="a_node29"><a xlink:href="classdenoptim_1_1graph_1_1_attachment_point_test.html#af88d30ce68477984fe6179325d1540b2" target="_top" xlink:title=" ">
<polygon fill="white" stroke="black" points="450.5,-98.5 450.5,-128.5 630.5,-128.5 630.5,-98.5 450.5,-98.5"/>
<text text-anchor="start" x="458.5" y="-116.5" font-family="Helvetica,sans-Serif" font-size="10.00">denoptim.graph.Attachment</text>
<text text-anchor="middle" x="540.5" y="-105.5" font-family="Helvetica,sans-Serif" font-size="10.00">PointTest.testHasConnectedSrcAtom</text>
</a>
</g>
</g>
<!-- Node1&#45;&gt;Node29 -->
<g id="edge31" class="edge">
<title>Node1&#45;&gt;Node29</title>
<path fill="none" stroke="midnightblue" d="M750.96,-324.2C738.2,-283.32 702.75,-187.73 638,-138.5 632.9,-134.62 627.26,-131.35 621.34,-128.58"/>
<polygon fill="midnightblue" stroke="midnightblue" points="747.67,-325.42 753.9,-333.99 754.37,-323.4 747.67,-325.42"/>
</g>
<!-- Node30 -->
<g id="node30" class="node">
<title>Node30</title>
<g id="a_node30"><a xlink:href="classdenoptim_1_1graph_1_1_attachment_point_test.html#a4889032266eb87d0f91af8b4e9869360" target="_top" xlink:title=" ">
<polygon fill="white" stroke="black" points="461,-49.5 461,-79.5 620,-79.5 620,-49.5 461,-49.5"/>
<text text-anchor="start" x="469" y="-67.5" font-family="Helvetica,sans-Serif" font-size="10.00">denoptim.graph.Attachment</text>
<text text-anchor="middle" x="540.5" y="-56.5" font-family="Helvetica,sans-Serif" font-size="10.00">PointTest.testHasSameSrcAtom</text>
</a>
</g>
</g>
<!-- Node1&#45;&gt;Node30 -->
<g id="edge32" class="edge">
<title>Node1&#45;&gt;Node30</title>
<path fill="none" stroke="midnightblue" d="M753.28,-323.82C744.36,-275.77 714.7,-151.77 638,-88.5 632.67,-84.11 626.65,-80.5 620.29,-77.54"/>
<polygon fill="midnightblue" stroke="midnightblue" points="749.87,-324.6 755.04,-333.84 756.76,-323.39 749.87,-324.6"/>
</g>
<!-- Node31 -->
<g id="node31" class="node">
<title>Node31</title>
<g id="a_node31"><a xlink:href="classdenoptim_1_1graph_1_1_d_graph_test.html#a42ea1a0adbc30b78070c3096171094a9" target="_top" xlink:title=" ">
<polygon fill="white" stroke="black" points="462.5,-0.5 462.5,-30.5 618.5,-30.5 618.5,-0.5 462.5,-0.5"/>
<text text-anchor="start" x="470.5" y="-18.5" font-family="Helvetica,sans-Serif" font-size="10.00">denoptim.graph.DGraphTest.test</text>
<text text-anchor="middle" x="540.5" y="-7.5" font-family="Helvetica,sans-Serif" font-size="10.00">RemoveUnusedRCVs</text>
</a>
</g>
</g>
<!-- Node1&#45;&gt;Node31 -->
<g id="edge33" class="edge">
<title>Node1&#45;&gt;Node31</title>
<path fill="none" stroke="midnightblue" d="M754.91,-323.8C749.45,-269.65 726.55,-117.39 638,-39.5 632.3,-34.48 625.7,-30.48 618.69,-27.3"/>
<polygon fill="midnightblue" stroke="midnightblue" points="751.43,-324.17 755.83,-333.81 758.4,-323.53 751.43,-324.17"/>
</g>
<!-- Node3 -->
<g id="node3" class="node">
<title>Node3</title>
<g id="a_node3"><a xlink:href="classdenoptim_1_1gui_1_1_g_u_i_vertex_inspector.html#acadecc92299a7ea46113c06382a1f333" target="_top" xlink:title="Initialize the panel and add buttons.">
<polygon fill="white" stroke="black" points="204,-871 204,-890 401,-890 401,-871 204,-871"/>
<text text-anchor="middle" x="302.5" y="-878" font-family="Helvetica,sans-Serif" font-size="10.00">denoptim.gui.GUIVertexInspector.initialize</text>
</a>
</g>
</g>
<!-- Node2&#45;&gt;Node3 -->
<g id="edge2" class="edge">
<title>Node2&#45;&gt;Node3</title>
<path fill="none" stroke="midnightblue" d="M495.54,-830.36C470.05,-840.72 437.14,-853.12 407,-861.5 393.71,-865.19 379.26,-868.36 365.48,-870.99"/>
<polygon fill="midnightblue" stroke="midnightblue" points="497,-833.54 504.92,-826.51 494.34,-827.07 497,-833.54"/>
</g>
<!-- Node5 -->
<g id="node5" class="node">
<title>Node5</title>
<g id="a_node5"><a xlink:href="classdenoptim_1_1fragmenter_1_1_fragmenter_tools.html#a82c4a82da2a3283a870a8c8af94f0a4e" target="_top" xlink:title="Management of fragments: includes application of fragment filters, rejection rules,...">
<polygon fill="white" stroke="black" points="222,-821.5 222,-851.5 383,-851.5 383,-821.5 222,-821.5"/>
<text text-anchor="start" x="230" y="-839.5" font-family="Helvetica,sans-Serif" font-size="10.00">denoptim.fragmenter.Fragmenter</text>
<text text-anchor="middle" x="302.5" y="-828.5" font-family="Helvetica,sans-Serif" font-size="10.00">Tools.manageFragmentCollection</text>
</a>
</g>
</g>
<!-- Node2&#45;&gt;Node5 -->
<g id="edge4" class="edge">
<title>Node2&#45;&gt;Node5</title>
<path fill="none" stroke="midnightblue" d="M446.75,-821.33C425.75,-823.55 403.62,-825.89 383.21,-828.06"/>
<polygon fill="midnightblue" stroke="midnightblue" points="447.38,-824.78 456.96,-820.24 446.65,-817.82 447.38,-824.78"/>
</g>
<!-- Node6 -->
<g id="node6" class="node">
<title>Node6</title>
<g id="a_node6"><a xlink:href="classdenoptim_1_1graph_1_1_fragment_test.html#aa17f42b21847b022c3d7a87876e17717" target="_top" xlink:title=" ">
<polygon fill="white" stroke="black" points="220.5,-772.5 220.5,-802.5 384.5,-802.5 384.5,-772.5 220.5,-772.5"/>
<text text-anchor="start" x="228.5" y="-790.5" font-family="Helvetica,sans-Serif" font-size="10.00">denoptim.graph.FragmentTest.test</text>
<text text-anchor="middle" x="302.5" y="-779.5" font-family="Helvetica,sans-Serif" font-size="10.00">IsomorphicInLinear</text>
</a>
</g>
</g>
<!-- Node2&#45;&gt;Node6 -->
<g id="edge5" class="edge">
<title>Node2&#45;&gt;Node6</title>
<path fill="none" stroke="midnightblue" d="M446.98,-802.09C426.45,-800 404.84,-797.81 384.8,-795.77"/>
<polygon fill="midnightblue" stroke="midnightblue" points="446.66,-805.58 456.96,-803.11 447.36,-798.61 446.66,-805.58"/>
</g>
<!-- Node4 -->
<g id="node4" class="node">
<title>Node4</title>
<g id="a_node4"><a xlink:href="classdenoptim_1_1gui_1_1_g_u_i_vertex_inspector.html#abc5d3c33ad9b2b114ce43e9b2cd577bb" target="_top" xlink:title="Constructor.">
<polygon fill="white" stroke="black" points="0,-865.5 0,-895.5 162,-895.5 162,-865.5 0,-865.5"/>
<text text-anchor="start" x="8" y="-883.5" font-family="Helvetica,sans-Serif" font-size="10.00">denoptim.gui.GUIVertexInspector.</text>
<text text-anchor="middle" x="81" y="-872.5" font-family="Helvetica,sans-Serif" font-size="10.00">GUIVertexInspector</text>
</a>
</g>
</g>
<!-- Node3&#45;&gt;Node4 -->
<g id="edge3" class="edge">
<title>Node3&#45;&gt;Node4</title>
<path fill="none" stroke="midnightblue" d="M193.76,-880.5C183.12,-880.5 172.45,-880.5 162.16,-880.5"/>
<polygon fill="midnightblue" stroke="midnightblue" points="193.95,-884 203.95,-880.5 193.95,-877 193.95,-884"/>
</g>
<!-- Node8 -->
<g id="node8" class="node">
<title>Node8</title>
<g id="a_node8"><a xlink:href="classdenoptim_1_1fragspace_1_1_fragment_space_test.html#a6f2ce8f6a8319b39440b0dc43ede061f" target="_top" xlink:title="Check that the following graph&#39;s fused ring gets added to the fragment library.">
<polygon fill="white" stroke="black" points="198,-664 198,-705 407,-705 407,-664 198,-664"/>
<text text-anchor="start" x="206" y="-693" font-family="Helvetica,sans-Serif" font-size="10.00">denoptim.fragspace.Fragment</text>
<text text-anchor="start" x="206" y="-682" font-family="Helvetica,sans-Serif" font-size="10.00">SpaceTest.testFusedRingAddedToFragment</text>
<text text-anchor="middle" x="302.5" y="-671" font-family="Helvetica,sans-Serif" font-size="10.00">Library</text>
</a>
</g>
</g>
<!-- Node7&#45;&gt;Node8 -->
<g id="edge7" class="edge">
<title>Node7&#45;&gt;Node8</title>
<path fill="none" stroke="midnightblue" d="M491.92,-476.19C474.22,-485.68 455.44,-498.71 443,-515.5 405.01,-566.77 451.47,-608.73 407,-654.5 403.61,-657.99 399.84,-661.08 395.81,-663.81"/>
<polygon fill="midnightblue" stroke="midnightblue" points="493.71,-479.2 501.03,-471.54 490.53,-472.96 493.71,-479.2"/>
</g>
<!-- Node9 -->
<g id="node9" class="node">
<title>Node9</title>
<g id="a_node9"><a xlink:href="classdenoptim_1_1fragspace_1_1_fragment_space_test.html#a56ef448997df677c5ce4a73737f127e2" target="_top" xlink:title="Checks that a graph with a fused ring containing a scaffold vertex is added to the scaffold library.">
<polygon fill="white" stroke="black" points="201,-604 201,-645 404,-645 404,-604 201,-604"/>
<text text-anchor="start" x="209" y="-633" font-family="Helvetica,sans-Serif" font-size="10.00">denoptim.fragspace.Fragment</text>
<text text-anchor="start" x="209" y="-622" font-family="Helvetica,sans-Serif" font-size="10.00">SpaceTest.testFusedRingAddedToScaffold</text>
<text text-anchor="middle" x="302.5" y="-611" font-family="Helvetica,sans-Serif" font-size="10.00">Library</text>
</a>
</g>
</g>
<!-- Node7&#45;&gt;Node9 -->
<g id="edge8" class="edge">
<title>Node7&#45;&gt;Node9</title>
<path fill="none" stroke="midnightblue" d="M495,-476.41C477.05,-486.16 457.26,-499.32 443,-515.5 417.22,-544.75 436.55,-570.07 407,-595.5 403.46,-598.54 399.63,-601.27 395.59,-603.71"/>
<polygon fill="midnightblue" stroke="midnightblue" points="496.93,-479.35 504.18,-471.62 493.7,-473.14 496.93,-479.35"/>
</g>
<!-- Node10 -->
<g id="node10" class="node">
<title>Node10</title>
<g id="a_node10"><a xlink:href="classdenoptim_1_1fragspace_1_1_fragment_space_test.html#a7555fcdf60b6fabae0c95844f351fc6f" target="_top" xlink:title=" ">
<polygon fill="white" stroke="black" points="202.5,-555.5 202.5,-585.5 402.5,-585.5 402.5,-555.5 202.5,-555.5"/>
<text text-anchor="start" x="210.5" y="-573.5" font-family="Helvetica,sans-Serif" font-size="10.00">denoptim.fragspace.Fragment</text>
<text text-anchor="middle" x="302.5" y="-562.5" font-family="Helvetica,sans-Serif" font-size="10.00">SpaceTest.testFusedRingOnlyAddedOnce</text>
</a>
</g>
</g>
<!-- Node7&#45;&gt;Node10 -->
<g id="edge9" class="edge">
<title>Node7&#45;&gt;Node10</title>
<path fill="none" stroke="midnightblue" d="M503.39,-476.7C484.87,-487.52 462.23,-501.49 443,-515.5 425.94,-527.94 425.83,-536.95 407,-546.5 400.17,-549.96 392.84,-552.93 385.34,-555.48"/>
<polygon fill="midnightblue" stroke="midnightblue" points="505.22,-479.68 512.12,-471.65 501.71,-473.63 505.22,-479.68"/>
</g>
<!-- Node11 -->
<g id="node11" class="node">
<title>Node11</title>
<g id="a_node11"><a xlink:href="classdenoptim_1_1fragspace_1_1_fragment_space_test.html#ae884d9d970bc9d561dad00bf0c20b4b5" target="_top" xlink:title=" ">
<polygon fill="white" stroke="black" points="210,-496 210,-537 395,-537 395,-496 210,-496"/>
<text text-anchor="start" x="218" y="-525" font-family="Helvetica,sans-Serif" font-size="10.00">denoptim.fragspace.Fragment</text>
<text text-anchor="start" x="218" y="-514" font-family="Helvetica,sans-Serif" font-size="10.00">SpaceTest.testGetFragAPsCompatible</text>
<text text-anchor="middle" x="302.5" y="-503" font-family="Helvetica,sans-Serif" font-size="10.00">WithClass</text>
</a>
</g>
</g>
<!-- Node7&#45;&gt;Node11 -->
<g id="edge10" class="edge">
<title>Node7&#45;&gt;Node11</title>
<path fill="none" stroke="midnightblue" d="M470.49,-474.04C443.46,-480.92 412.25,-488.85 384.18,-495.99"/>
<polygon fill="midnightblue" stroke="midnightblue" points="471.42,-477.42 480.25,-471.56 469.7,-470.64 471.42,-477.42"/>
</g>
<!-- Node12 -->
<g id="node12" class="node">
<title>Node12</title>
<g id="a_node12"><a xlink:href="classdenoptim_1_1fragspace_1_1_fragment_space_test.html#a2ba7718688486212e987638aef444bad" target="_top" xlink:title=" ">
<polygon fill="white" stroke="black" points="210,-436 210,-477 395,-477 395,-436 210,-436"/>
<text text-anchor="start" x="218" y="-465" font-family="Helvetica,sans-Serif" font-size="10.00">denoptim.fragspace.Fragment</text>
<text text-anchor="start" x="218" y="-454" font-family="Helvetica,sans-Serif" font-size="10.00">SpaceTest.testGetFragAPsCompatible</text>
<text text-anchor="middle" x="302.5" y="-443" font-family="Helvetica,sans-Serif" font-size="10.00">WithTheseAPs</text>
</a>
</g>
</g>
<!-- Node7&#45;&gt;Node12 -->
<g id="edge11" class="edge">
<title>Node7&#45;&gt;Node12</title>
<path fill="none" stroke="midnightblue" d="M452.64,-456.5C433.99,-456.5 414.21,-456.5 395.38,-456.5"/>
<polygon fill="midnightblue" stroke="midnightblue" points="452.88,-460 462.88,-456.5 452.88,-453 452.88,-460"/>
</g>
<!-- Node13 -->
<g id="node13" class="node">
<title>Node13</title>
<g id="a_node13"><a xlink:href="classdenoptim_1_1fragspace_1_1_fragment_space_test.html#ab95d03f36f68718eb1cc11fac188401f" target="_top" xlink:title=" ">
<polygon fill="white" stroke="black" points="205.5,-376 205.5,-417 399.5,-417 399.5,-376 205.5,-376"/>
<text text-anchor="start" x="213.5" y="-405" font-family="Helvetica,sans-Serif" font-size="10.00">denoptim.fragspace.Fragment</text>
<text text-anchor="start" x="213.5" y="-394" font-family="Helvetica,sans-Serif" font-size="10.00">SpaceTest.testGetFragmentsCompatible</text>
<text text-anchor="middle" x="302.5" y="-383" font-family="Helvetica,sans-Serif" font-size="10.00">WithTheseAPs</text>
</a>
</g>
</g>
<!-- Node7&#45;&gt;Node13 -->
<g id="edge12" class="edge">
<title>Node7&#45;&gt;Node13</title>
<path fill="none" stroke="midnightblue" d="M470.49,-438.96C443.46,-432.08 412.25,-424.15 384.18,-417.01"/>
<polygon fill="midnightblue" stroke="midnightblue" points="469.7,-442.36 480.25,-441.44 471.42,-435.58 469.7,-442.36"/>
</g>
<!-- Node14 -->
<g id="node14" class="node">
<title>Node14</title>
<g id="a_node14"><a xlink:href="classdenoptim_1_1fragspace_1_1_fragment_space_test.html#a7179e27179c0bbe5a8ae101a9aa8e3d8" target="_top" xlink:title=" ">
<polygon fill="white" stroke="black" points="212,-327.5 212,-357.5 393,-357.5 393,-327.5 212,-327.5"/>
<text text-anchor="start" x="220" y="-345.5" font-family="Helvetica,sans-Serif" font-size="10.00">denoptim.fragspace.Fragment</text>
<text text-anchor="middle" x="302.5" y="-334.5" font-family="Helvetica,sans-Serif" font-size="10.00">SpaceTest.testGetFragsWithAPClass</text>
</a>
</g>
</g>
<!-- Node7&#45;&gt;Node14 -->
<g id="edge13" class="edge">
<title>Node7&#45;&gt;Node14</title>
<path fill="none" stroke="midnightblue" d="M460.3,-437.32C454.15,-434.23 448.28,-430.65 443,-426.5 418.55,-407.29 432.14,-384.8 407,-366.5 402.3,-363.08 397.19,-360.14 391.85,-357.61"/>
<polygon fill="midnightblue" stroke="midnightblue" points="458.93,-440.54 469.48,-441.5 461.83,-434.17 458.93,-440.54"/>
</g>
<!-- Node15 -->
<g id="node15" class="node">
<title>Node15</title>
<g id="a_node15"><a xlink:href="classdenoptim_1_1fragspace_1_1_fragment_space_test.html#ab364422886eee4ba289a703f83b0ef1b" target="_top" xlink:title=" ">
<polygon fill="white" stroke="black" points="230,-278.5 230,-308.5 375,-308.5 375,-278.5 230,-278.5"/>
<text text-anchor="start" x="238" y="-296.5" font-family="Helvetica,sans-Serif" font-size="10.00">denoptim.fragspace.Fragment</text>
<text text-anchor="middle" x="302.5" y="-285.5" font-family="Helvetica,sans-Serif" font-size="10.00">SpaceTest.testSymmetry</text>
</a>
</g>
</g>
<!-- Node7&#45;&gt;Node15 -->
<g id="edge14" class="edge">
<title>Node7&#45;&gt;Node15</title>
<path fill="none" stroke="midnightblue" d="M455.67,-436.38C451.09,-433.52 446.82,-430.24 443,-426.5 406.86,-391.09 444.26,-352.73 407,-318.5 398.02,-310.25 386.78,-304.59 375.06,-300.73"/>
<polygon fill="midnightblue" stroke="midnightblue" points="454.33,-439.65 464.78,-441.41 457.71,-433.52 454.33,-439.65"/>
</g>
<!-- Node7&#45;&gt;Node16 -->
<g id="edge15" class="edge">
<title>Node7&#45;&gt;Node16</title>
<path fill="none" stroke="midnightblue" d="M454.12,-436.04C450.08,-433.26 446.33,-430.09 443,-426.5 394.34,-373.99 456.17,-321.54 407,-269.5 403.53,-265.83 399.64,-262.6 395.46,-259.76"/>
<polygon fill="midnightblue" stroke="midnightblue" points="452.4,-439.1 462.77,-441.26 456.01,-433.1 452.4,-439.1"/>
</g>
<!-- Node18 -->
<g id="node18" class="node">
<title>Node18</title>
<g id="a_node18"><a xlink:href="classdenoptim_1_1graph_1_1_fragment_test.html#a0a98792d99861bb6673e66a76ff49d31" target="_top" xlink:title=" ">
<polygon fill="white" stroke="black" points="220.5,-170.5 220.5,-200.5 384.5,-200.5 384.5,-170.5 220.5,-170.5"/>
<text text-anchor="start" x="228.5" y="-188.5" font-family="Helvetica,sans-Serif" font-size="10.00">denoptim.graph.FragmentTest.test</text>
<text text-anchor="middle" x="302.5" y="-177.5" font-family="Helvetica,sans-Serif" font-size="10.00">Clone</text>
</a>
</g>
</g>
<!-- Node17&#45;&gt;Node18 -->
<g id="edge17" class="edge">
<title>Node17&#45;&gt;Node18</title>
<path fill="none" stroke="midnightblue" d="M446,-347.25C444.97,-346.37 443.97,-345.45 443,-344.5 398.72,-300.96 451.62,-252.68 407,-209.5 400.57,-203.28 392.86,-198.55 384.59,-194.98"/>
<polygon fill="midnightblue" stroke="midnightblue" points="444.26,-350.32 454.41,-353.36 448.38,-344.65 444.26,-350.32"/>
</g>
<!-- Node19 -->
<g id="node19" class="node">
<title>Node19</title>
<g id="a_node19"><a xlink:href="classdenoptim_1_1io_1_1_denoptim_i_o_test.html#afa1376c9ab452a7e75cdf00489be1e07" target="_top" xlink:title=" ">
<polygon fill="white" stroke="black" points="223.5,-121.5 223.5,-151.5 381.5,-151.5 381.5,-121.5 223.5,-121.5"/>
<text text-anchor="start" x="231.5" y="-139.5" font-family="Helvetica,sans-Serif" font-size="10.00">denoptim.io.DenoptimIOTest.test</text>
<text text-anchor="middle" x="302.5" y="-128.5" font-family="Helvetica,sans-Serif" font-size="10.00">IOMolFragment</text>
</a>
</g>
</g>
<!-- Node17&#45;&gt;Node19 -->
<g id="edge18" class="edge">
<title>Node17&#45;&gt;Node19</title>
<path fill="none" stroke="midnightblue" d="M445.91,-347.34C444.91,-346.43 443.94,-345.48 443,-344.5 385.86,-284.45 464.35,-221.35 407,-161.5 399.97,-154.16 391.18,-148.82 381.71,-144.96"/>
<polygon fill="midnightblue" stroke="midnightblue" points="444.07,-350.34 454.14,-353.63 448.32,-344.78 444.07,-350.34"/>
</g>
<!-- Node20 -->
<g id="node20" class="node">
<title>Node20</title>
<g id="a_node20"><a xlink:href="classdenoptim_1_1json_1_1_d_e_n_o_p_t_i_mgson_test.html#ac2186d67581bef7c19379247af6672d6" target="_top" xlink:title=" ">
<polygon fill="white" stroke="black" points="207,-72.5 207,-102.5 398,-102.5 398,-72.5 207,-72.5"/>
<text text-anchor="start" x="215" y="-90.5" font-family="Helvetica,sans-Serif" font-size="10.00">denoptim.json.DENOPTIMgson</text>
<text text-anchor="middle" x="302.5" y="-79.5" font-family="Helvetica,sans-Serif" font-size="10.00">Test.testMolecularFragmentSerialization</text>
</a>
</g>
</g>
<!-- Node17&#45;&gt;Node20 -->
<g id="edge19" class="edge">
<title>Node17&#45;&gt;Node20</title>
<path fill="none" stroke="midnightblue" d="M446.3,-347.81C445.16,-346.76 444.06,-345.66 443,-344.5 372.33,-267.13 478.28,-188.3 407,-111.5 403.86,-108.12 400.35,-105.17 396.57,-102.6"/>
<polygon fill="midnightblue" stroke="midnightblue" points="444.35,-350.73 454.4,-354.07 448.63,-345.19 444.35,-350.73"/>
</g>
<!-- Node21&#45;&gt;Node6 -->
<g id="edge21" class="edge">
<title>Node21&#45;&gt;Node6</title>
<path fill="none" stroke="midnightblue" d="M457.08,-755.61C430.6,-761.11 401.47,-767.16 375.77,-772.49"/>
<polygon fill="midnightblue" stroke="midnightblue" points="458.01,-758.99 467.09,-753.53 456.59,-752.14 458.01,-758.99"/>
</g>
<!-- Node22 -->
<g id="node22" class="node">
<title>Node22</title>
<g id="a_node22"><a xlink:href="classdenoptim_1_1graph_1_1_fragment_test.html#af49cc0e35c38f683bfc3d332210d1124" target="_top" xlink:title=" ">
<polygon fill="white" stroke="black" points="220.5,-723.5 220.5,-753.5 384.5,-753.5 384.5,-723.5 220.5,-723.5"/>
<text text-anchor="start" x="228.5" y="-741.5" font-family="Helvetica,sans-Serif" font-size="10.00">denoptim.graph.FragmentTest.test</text>
<text text-anchor="middle" x="302.5" y="-730.5" font-family="Helvetica,sans-Serif" font-size="10.00">IsomorphicTo</text>
</a>
</g>
</g>
<!-- Node21&#45;&gt;Node22 -->
<g id="edge22" class="edge">
<title>Node21&#45;&gt;Node22</title>
<path fill="none" stroke="midnightblue" d="M444.08,-738.5C424.37,-738.5 403.78,-738.5 384.64,-738.5"/>
<polygon fill="midnightblue" stroke="midnightblue" points="444.3,-742 454.3,-738.5 444.3,-735 444.3,-742"/>
</g>
<!-- Node23&#45;&gt;Node22 -->
<g id="edge24" class="edge">
<title>Node23&#45;&gt;Node22</title>
<path fill="none" stroke="midnightblue" d="M501.01,-674.99C474.97,-687.58 439.53,-703.6 407,-714.5 397.21,-717.78 386.74,-720.78 376.38,-723.45"/>
<polygon fill="midnightblue" stroke="midnightblue" points="502.71,-678.06 510.15,-670.52 499.63,-671.77 502.71,-678.06"/>
</g>
<!-- Node24&#45;&gt;Node22 -->
<g id="edge26" class="edge">
<title>Node24&#45;&gt;Node22</title>
<path fill="none" stroke="midnightblue" d="M511.54,-560.94C490.53,-578.19 462.18,-604.02 443,-631.5 419.99,-664.47 437.89,-688.76 407,-714.5 400.41,-719.99 392.8,-724.28 384.76,-727.62"/>
<polygon fill="midnightblue" stroke="midnightblue" points="513.9,-563.54 519.49,-554.54 509.5,-558.09 513.9,-563.54"/>
</g>
</g>
</svg>
