<?xml version="1.0" encoding="UTF-8" standalone="no"?>
<!DOCTYPE svg PUBLIC "-//W3C//DTD SVG 1.1//EN"
 "http://www.w3.org/Graphics/SVG/1.1/DTD/svg11.dtd">
<!-- Generated by graphviz version 3.0.0 (20220413.0242)
 -->
<!-- Title: denoptim.graph.Fragment.getConnectedAtomsList Pages: 1 -->
<svg width="811pt" height="135pt"
 viewBox="0.00 0.00 811.00 135.00" xmlns="http://www.w3.org/2000/svg" xmlns:xlink="http://www.w3.org/1999/xlink">
<g id="graph0" class="graph" transform="scale(1 1) rotate(0) translate(4 131)">
<title>denoptim.graph.Fragment.getConnectedAtomsList</title>
<polygon fill="white" stroke="transparent" points="-4,4 -4,-131 807,-131 807,4 -4,4"/>
<!-- Node1 -->
<g id="node1" class="node">
<title>Node1</title>
<g id="a_node1"><a xlink:title=" ">
<polygon fill="#bfbfbf" stroke="black" points="661,-71.5 661,-101.5 803,-101.5 803,-71.5 661,-71.5"/>
<text text-anchor="start" x="669" y="-89.5" font-family="Helvetica,sans-Serif" font-size="10.00">denoptim.graph.Fragment.get</text>
<text text-anchor="middle" x="732" y="-78.5" font-family="Helvetica,sans-Serif" font-size="10.00">ConnectedAtomsList</text>
</a>
</g>
</g>
<!-- Node2 -->
<g id="node2" class="node">
<title>Node2</title>
<g id="a_node2"><a xlink:href="classdenoptim_1_1utils_1_1_dummy_atom_handler.html#a100cd8246e61d933a6420fac5c22160a" target="_top" xlink:title="Append dummy atoms on otherwise linear arrangements of atoms.">
<polygon fill="white" stroke="black" points="444.5,-47.5 444.5,-77.5 611.5,-77.5 611.5,-47.5 444.5,-47.5"/>
<text text-anchor="start" x="452.5" y="-65.5" font-family="Helvetica,sans-Serif" font-size="10.00">denoptim.utils.DummyAtom</text>
<text text-anchor="middle" x="528" y="-54.5" font-family="Helvetica,sans-Serif" font-size="10.00">Handler.addDummiesOnLinearities</text>
</a>
</g>
</g>
<!-- Node1&#45;&gt;Node2 -->
<g id="edge1" class="edge">
<title>Node1&#45;&gt;Node2</title>
<path fill="none" stroke="midnightblue" d="M650.76,-76.97C637.95,-75.44 624.68,-73.87 611.81,-72.34"/>
<polygon fill="midnightblue" stroke="midnightblue" points="650.57,-80.47 660.92,-78.17 651.4,-73.52 650.57,-80.47"/>
</g>
<!-- Node7 -->
<g id="node7" class="node">
<title>Node7</title>
<g id="a_node7"><a xlink:href="classdenoptim_1_1gui_1_1_g_u_i_vertex_inspector.html#a6b60be1b437b1d21334d39d003c14249" target="_top" xlink:title="Removes an atom and replaces it with an attachment point.">
<polygon fill="white" stroke="black" points="431,-96.5 431,-126.5 625,-126.5 625,-96.5 431,-96.5"/>
<text text-anchor="start" x="439" y="-114.5" font-family="Helvetica,sans-Serif" font-size="10.00">denoptim.gui.GUIVertexInspector.convert</text>
<text text-anchor="middle" x="528" y="-103.5" font-family="Helvetica,sans-Serif" font-size="10.00">AtomToAP</text>
</a>
</g>
</g>
<!-- Node1&#45;&gt;Node7 -->
<g id="edge6" class="edge">
<title>Node1&#45;&gt;Node7</title>
<path fill="none" stroke="midnightblue" d="M650.8,-96.43C642.42,-97.46 633.83,-98.53 625.29,-99.58"/>
<polygon fill="midnightblue" stroke="midnightblue" points="651.42,-99.88 660.92,-95.17 650.56,-92.93 651.42,-99.88"/>
</g>
<!-- Node3 -->
<g id="node3" class="node">
<title>Node3</title>
<g id="a_node3"><a xlink:href="classdenoptim_1_1gui_1_1_g_u_i_vertex_inspector.html#acadecc92299a7ea46113c06382a1f333" target="_top" xlink:title="Initialize the panel and add buttons.">
<polygon fill="white" stroke="black" points="198,-101 198,-120 395,-120 395,-101 198,-101"/>
<text text-anchor="middle" x="296.5" y="-108" font-family="Helvetica,sans-Serif" font-size="10.00">denoptim.gui.GUIVertexInspector.initialize</text>
</a>
</g>
</g>
<!-- Node2&#45;&gt;Node3 -->
<g id="edge2" class="edge">
<title>Node2&#45;&gt;Node3</title>
<path fill="none" stroke="midnightblue" d="M445.01,-79.65C410.78,-86.81 372.3,-94.85 343.23,-100.94"/>
<polygon fill="midnightblue" stroke="midnightblue" points="445.94,-83.03 455.01,-77.56 444.51,-76.18 445.94,-83.03"/>
</g>
<!-- Node5 -->
<g id="node5" class="node">
<title>Node5</title>
<g id="a_node5"><a xlink:href="classdenoptim_1_1fragmenter_1_1_fragmenter_tools.html#a82c4a82da2a3283a870a8c8af94f0a4e" target="_top" xlink:title="Management of fragments: includes application of fragment filters, rejection rules,...">
<polygon fill="white" stroke="black" points="216,-49.5 216,-79.5 377,-79.5 377,-49.5 216,-49.5"/>
<text text-anchor="start" x="224" y="-67.5" font-family="Helvetica,sans-Serif" font-size="10.00">denoptim.fragmenter.Fragmenter</text>
<text text-anchor="middle" x="296.5" y="-56.5" font-family="Helvetica,sans-Serif" font-size="10.00">Tools.manageFragmentCollection</text>
</a>
</g>
</g>
<!-- Node2&#45;&gt;Node5 -->
<g id="edge4" class="edge">
<title>Node2&#45;&gt;Node5</title>
<path fill="none" stroke="midnightblue" d="M434.38,-63.31C415.49,-63.47 395.78,-63.64 377.38,-63.8"/>
<polygon fill="midnightblue" stroke="midnightblue" points="434.5,-66.81 444.47,-63.22 434.44,-59.81 434.5,-66.81"/>
</g>
<!-- Node6 -->
<g id="node6" class="node">
<title>Node6</title>
<g id="a_node6"><a xlink:href="classdenoptim_1_1graph_1_1_fragment_test.html#aa17f42b21847b022c3d7a87876e17717" target="_top" xlink:title=" ">
<polygon fill="white" stroke="black" points="214.5,-0.5 214.5,-30.5 378.5,-30.5 378.5,-0.5 214.5,-0.5"/>
<text text-anchor="start" x="222.5" y="-18.5" font-family="Helvetica,sans-Serif" font-size="10.00">denoptim.graph.FragmentTest.test</text>
<text text-anchor="middle" x="296.5" y="-7.5" font-family="Helvetica,sans-Serif" font-size="10.00">IsomorphicInLinear</text>
</a>
</g>
</g>
<!-- Node2&#45;&gt;Node6 -->
<g id="edge5" class="edge">
<title>Node2&#45;&gt;Node6</title>
<path fill="none" stroke="midnightblue" d="M443.67,-45.43C419.83,-40.55 394.03,-35.27 370.84,-30.52"/>
<polygon fill="midnightblue" stroke="midnightblue" points="443.25,-48.92 453.75,-47.5 444.66,-42.06 443.25,-48.92"/>
</g>
<!-- Node4 -->
<g id="node4" class="node">
<title>Node4</title>
<g id="a_node4"><a xlink:href="classdenoptim_1_1gui_1_1_g_u_i_vertex_inspector.html#abc5d3c33ad9b2b114ce43e9b2cd577bb" target="_top" xlink:title="Constructor.">
<polygon fill="white" stroke="black" points="0,-95.5 0,-125.5 162,-125.5 162,-95.5 0,-95.5"/>
<text text-anchor="start" x="8" y="-113.5" font-family="Helvetica,sans-Serif" font-size="10.00">denoptim.gui.GUIVertexInspector.</text>
<text text-anchor="middle" x="81" y="-102.5" font-family="Helvetica,sans-Serif" font-size="10.00">GUIVertexInspector</text>
</a>
</g>
</g>
<!-- Node3&#45;&gt;Node4 -->
<g id="edge3" class="edge">
<title>Node3&#45;&gt;Node4</title>
<path fill="none" stroke="midnightblue" d="M187.69,-110.5C179.06,-110.5 170.44,-110.5 162.05,-110.5"/>
<polygon fill="midnightblue" stroke="midnightblue" points="187.81,-114 197.81,-110.5 187.81,-107 187.81,-114"/>
</g>
<!-- Node7&#45;&gt;Node3 -->
<g id="edge7" class="edge">
<title>Node7&#45;&gt;Node3</title>
<path fill="none" stroke="midnightblue" d="M420.4,-111.04C411.95,-111 403.44,-110.96 395.06,-110.93"/>
<polygon fill="midnightblue" stroke="midnightblue" points="420.65,-114.54 430.67,-111.08 420.68,-107.54 420.65,-114.54"/>
</g>
</g>
</svg>
