<?xml version="1.0" encoding="UTF-8" standalone="no"?>
<!DOCTYPE svg PUBLIC "-//W3C//DTD SVG 1.1//EN"
 "http://www.w3.org/Graphics/SVG/1.1/DTD/svg11.dtd">
<!-- Generated by graphviz version 3.0.0 (20220413.0242)
 -->
<!-- Title: denoptim.graph.Candidate.getFitnessProviderOutputRepresentation Pages: 1 -->
<svg width="968pt" height="431pt"
 viewBox="0.00 0.00 968.00 431.00" xmlns="http://www.w3.org/2000/svg" xmlns:xlink="http://www.w3.org/1999/xlink">
<g id="graph0" class="graph" transform="scale(1 1) rotate(0) translate(4 427)">
<title>denoptim.graph.Candidate.getFitnessProviderOutputRepresentation</title>
<polygon fill="white" stroke="transparent" points="-4,4 -4,-427 964,-427 964,4 -4,4"/>
<!-- Node1 -->
<g id="node1" class="node">
<title>Node1</title>
<g id="a_node1"><a xlink:title="Returns an atom container representing this item in a way that is compatible for writing this item to...">
<polygon fill="#bfbfbf" stroke="black" points="0,-267.5 0,-297.5 179,-297.5 179,-267.5 0,-267.5"/>
<text text-anchor="start" x="8" y="-285.5" font-family="Helvetica,sans-Serif" font-size="10.00">denoptim.graph.Candidate.get</text>
<text text-anchor="middle" x="89.5" y="-274.5" font-family="Helvetica,sans-Serif" font-size="10.00">FitnessProviderOutputRepresentation</text>
</a>
</g>
</g>
<!-- Node2 -->
<g id="node2" class="node">
<title>Node2</title>
<g id="a_node2"><a xlink:href="classdenoptim_1_1graph_1_1_d_graph.html#abc9d9eae901e1e868183f8bdaca13aea" target="_top" xlink:title=" ">
<polygon fill="white" stroke="black" points="222.5,-338.5 222.5,-368.5 356.5,-368.5 356.5,-338.5 222.5,-338.5"/>
<text text-anchor="start" x="230.5" y="-356.5" font-family="Helvetica,sans-Serif" font-size="10.00">denoptim.graph.DGraph.get</text>
<text text-anchor="middle" x="289.5" y="-345.5" font-family="Helvetica,sans-Serif" font-size="10.00">GraphId</text>
</a>
</g>
</g>
<!-- Node1&#45;&gt;Node2 -->
<g id="edge1" class="edge">
<title>Node1&#45;&gt;Node2</title>
<path fill="none" stroke="midnightblue" d="M129.03,-297.56C153.54,-307.01 186.01,-319.3 215,-329.5 220.44,-331.41 226.11,-333.36 231.8,-335.27"/>
<polygon fill="midnightblue" stroke="midnightblue" points="230.75,-338.61 241.34,-338.45 232.96,-331.97 230.75,-338.61"/>
</g>
<!-- Node3 -->
<g id="node3" class="node">
<title>Node3</title>
<g id="a_node3"><a xlink:href="classdenoptim_1_1graph_1_1_d_graph.html#a3e70a05980faed946fbf264a1fc6fa75" target="_top" xlink:title=" ">
<polygon fill="white" stroke="black" points="222.5,-289.5 222.5,-319.5 356.5,-319.5 356.5,-289.5 222.5,-289.5"/>
<text text-anchor="start" x="230.5" y="-307.5" font-family="Helvetica,sans-Serif" font-size="10.00">denoptim.graph.DGraph.get</text>
<text text-anchor="middle" x="289.5" y="-296.5" font-family="Helvetica,sans-Serif" font-size="10.00">LocalMsg</text>
</a>
</g>
</g>
<!-- Node1&#45;&gt;Node3 -->
<g id="edge2" class="edge">
<title>Node1&#45;&gt;Node3</title>
<path fill="none" stroke="midnightblue" d="M179.08,-292.34C190.08,-293.56 201.25,-294.81 212.05,-296.01"/>
<polygon fill="midnightblue" stroke="midnightblue" points="211.94,-299.52 222.27,-297.14 212.72,-292.56 211.94,-299.52"/>
</g>
<!-- Node4 -->
<g id="node4" class="node">
<title>Node4</title>
<g id="a_node4"><a xlink:href="classdenoptim_1_1graph_1_1_d_graph.html#a08540fffa962c2b5cf4461ace5f2429d" target="_top" xlink:title="Produces a string that represents this graph and that adheres to the JSON format.">
<polygon fill="white" stroke="black" points="215,-251 215,-270 364,-270 364,-251 215,-251"/>
<text text-anchor="middle" x="289.5" y="-258" font-family="Helvetica,sans-Serif" font-size="10.00">denoptim.graph.DGraph.toJson</text>
</a>
</g>
</g>
<!-- Node1&#45;&gt;Node4 -->
<g id="edge3" class="edge">
<title>Node1&#45;&gt;Node4</title>
<path fill="none" stroke="midnightblue" d="M179.08,-272.66C187.57,-271.71 196.16,-270.76 204.61,-269.82"/>
<polygon fill="midnightblue" stroke="midnightblue" points="205.26,-273.27 214.82,-268.69 204.49,-266.31 205.26,-273.27"/>
</g>
<!-- Node19 -->
<g id="node19" class="node">
<title>Node19</title>
<g id="a_node19"><a xlink:href="classdenoptim_1_1graph_1_1_d_graph.html#a964c16febfae88b341e3f878856acefb" target="_top" xlink:title=" ">
<polygon fill="white" stroke="black" points="225.5,-201.5 225.5,-231.5 353.5,-231.5 353.5,-201.5 225.5,-201.5"/>
<text text-anchor="start" x="233.5" y="-219.5" font-family="Helvetica,sans-Serif" font-size="10.00">denoptim.graph.DGraph.to</text>
<text text-anchor="middle" x="289.5" y="-208.5" font-family="Helvetica,sans-Serif" font-size="10.00">String</text>
</a>
</g>
</g>
<!-- Node1&#45;&gt;Node19 -->
<g id="edge18" class="edge">
<title>Node1&#45;&gt;Node19</title>
<path fill="none" stroke="midnightblue" d="M135.93,-267.36C164.98,-257.67 202.84,-245.05 233.58,-234.81"/>
<polygon fill="midnightblue" stroke="midnightblue" points="234.91,-238.05 243.29,-231.57 232.69,-231.41 234.91,-238.05"/>
</g>
<!-- Node5 -->
<g id="node5" class="node">
<title>Node5</title>
<g id="a_node5"><a xlink:href="classdenoptim_1_1utils_1_1_graph_utils.html#aacbefbc93a3463aa963c9923749deea1" target="_top" xlink:title="Unique counter for the number of molecules generated.">
<polygon fill="white" stroke="black" points="413,-294.5 413,-324.5 554,-324.5 554,-294.5 413,-294.5"/>
<text text-anchor="start" x="421" y="-312.5" font-family="Helvetica,sans-Serif" font-size="10.00">denoptim.utils.GraphUtils.get</text>
<text text-anchor="middle" x="483.5" y="-301.5" font-family="Helvetica,sans-Serif" font-size="10.00">UniqueAPIndex</text>
</a>
</g>
</g>
<!-- Node4&#45;&gt;Node5 -->
<g id="edge4" class="edge">
<title>Node4&#45;&gt;Node5</title>
<path fill="none" stroke="midnightblue" d="M327.98,-270.06C352.28,-276.27 384.69,-284.54 413.54,-291.9"/>
<polygon fill="midnightblue" stroke="midnightblue" points="413.02,-295.38 423.58,-294.46 414.76,-288.6 413.02,-295.38"/>
</g>
<!-- Node6 -->
<g id="node6" class="node">
<title>Node6</title>
<g id="a_node6"><a xlink:href="classdenoptim_1_1json_1_1_d_e_n_o_p_t_i_mgson.html#aa8cbbc7dcd366e9f1053c4b2b676e0d7" target="_top" xlink:title=" ">
<polygon fill="white" stroke="black" points="400,-245.5 400,-275.5 567,-275.5 567,-245.5 400,-245.5"/>
<text text-anchor="start" x="408" y="-263.5" font-family="Helvetica,sans-Serif" font-size="10.00">denoptim.json.DENOPTIMgson.get</text>
<text text-anchor="middle" x="483.5" y="-252.5" font-family="Helvetica,sans-Serif" font-size="10.00">Writer</text>
</a>
</g>
</g>
<!-- Node4&#45;&gt;Node6 -->
<g id="edge5" class="edge">
<title>Node4&#45;&gt;Node6</title>
<path fill="none" stroke="midnightblue" d="M364.18,-260.5C372.54,-260.5 381.14,-260.5 389.71,-260.5"/>
<polygon fill="midnightblue" stroke="midnightblue" points="389.73,-264 399.73,-260.5 389.73,-257 389.73,-264"/>
</g>
<!-- Node9 -->
<g id="node9" class="node">
<title>Node9</title>
<g id="a_node9"><a xlink:href="classdenoptim_1_1graph_1_1_d_graph.html#a78dd305de83fa47a17964f9916519337" target="_top" xlink:title="Reassign vertex IDs to all vertices of this graph.">
<polygon fill="white" stroke="black" points="403,-196.5 403,-226.5 564,-226.5 564,-196.5 403,-196.5"/>
<text text-anchor="start" x="411" y="-214.5" font-family="Helvetica,sans-Serif" font-size="10.00">denoptim.graph.DGraph.renumber</text>
<text text-anchor="middle" x="483.5" y="-203.5" font-family="Helvetica,sans-Serif" font-size="10.00">GraphVertices</text>
</a>
</g>
</g>
<!-- Node4&#45;&gt;Node9 -->
<g id="edge8" class="edge">
<title>Node4&#45;&gt;Node9</title>
<path fill="none" stroke="midnightblue" d="M327.98,-250.94C352.28,-244.73 384.69,-236.46 413.54,-229.1"/>
<polygon fill="midnightblue" stroke="midnightblue" points="414.76,-232.4 423.58,-226.54 413.02,-225.62 414.76,-232.4"/>
</g>
<!-- Node7 -->
<g id="node7" class="node">
<title>Node7</title>
<g id="a_node7"><a xlink:href="classdenoptim_1_1json_1_1_d_e_n_o_p_t_i_mgson.html#aa14de224ae5d1ae5156f11d5715d360c" target="_top" xlink:title=" ">
<polygon fill="white" stroke="black" points="603,-318.5 603,-348.5 770,-348.5 770,-318.5 603,-318.5"/>
<text text-anchor="start" x="611" y="-336.5" font-family="Helvetica,sans-Serif" font-size="10.00">denoptim.json.DENOPTIMgson.get</text>
<text text-anchor="middle" x="686.5" y="-325.5" font-family="Helvetica,sans-Serif" font-size="10.00">Instance</text>
</a>
</g>
</g>
<!-- Node6&#45;&gt;Node7 -->
<g id="edge6" class="edge">
<title>Node6&#45;&gt;Node7</title>
<path fill="none" stroke="midnightblue" d="M536.66,-275.52C546.78,-278.66 557.26,-282.06 567,-285.5 591.89,-294.29 619.22,-305.27 641.36,-314.51"/>
<polygon fill="midnightblue" stroke="midnightblue" points="640.24,-317.84 650.82,-318.48 642.95,-311.38 640.24,-317.84"/>
</g>
<!-- Node8 -->
<g id="node8" class="node">
<title>Node8</title>
<g id="a_node8"><a xlink:href="classdenoptim_1_1json_1_1_d_e_n_o_p_t_i_mgson.html#a4aafec42bd09225870fdf330db93b84c" target="_top" xlink:title=" ">
<polygon fill="white" stroke="black" points="806,-392.5 806,-422.5 960,-422.5 960,-392.5 806,-392.5"/>
<text text-anchor="start" x="814" y="-410.5" font-family="Helvetica,sans-Serif" font-size="10.00">denoptim.json.DENOPTIMgson.</text>
<text text-anchor="middle" x="883" y="-399.5" font-family="Helvetica,sans-Serif" font-size="10.00">DENOPTIMgson</text>
</a>
</g>
</g>
<!-- Node7&#45;&gt;Node8 -->
<g id="edge7" class="edge">
<title>Node7&#45;&gt;Node8</title>
<path fill="none" stroke="midnightblue" d="M720.88,-348.57C744.44,-358.96 776.87,-372.78 806,-383.5 811.19,-385.41 816.62,-387.31 822.08,-389.16"/>
<polygon fill="midnightblue" stroke="midnightblue" points="821.31,-392.59 831.9,-392.41 823.51,-385.94 821.31,-392.59"/>
</g>
<!-- Node10 -->
<g id="node10" class="node">
<title>Node10</title>
<g id="a_node10"><a xlink:href="classdenoptim_1_1graph_1_1_d_graph.html#ac06114e85d2de27da6043ce161fa7523" target="_top" xlink:title="Reassign vertex IDs to a graph.">
<polygon fill="white" stroke="black" points="606,-196.5 606,-226.5 767,-226.5 767,-196.5 606,-196.5"/>
<text text-anchor="start" x="614" y="-214.5" font-family="Helvetica,sans-Serif" font-size="10.00">denoptim.graph.DGraph.renumber</text>
<text text-anchor="middle" x="686.5" y="-203.5" font-family="Helvetica,sans-Serif" font-size="10.00">VerticesGetMap</text>
</a>
</g>
</g>
<!-- Node9&#45;&gt;Node10 -->
<g id="edge9" class="edge">
<title>Node9&#45;&gt;Node10</title>
<path fill="none" stroke="midnightblue" d="M564.23,-211.5C574.61,-211.5 585.3,-211.5 595.83,-211.5"/>
<polygon fill="midnightblue" stroke="midnightblue" points="595.87,-215 605.87,-211.5 595.87,-208 595.87,-215"/>
</g>
<!-- Node11 -->
<g id="node11" class="node">
<title>Node11</title>
<g id="a_node11"><a xlink:href="classdenoptim_1_1graph_1_1_symmetric_set.html#a6b6cfeafce2492c331902274f7508f21" target="_top" xlink:title="Return the list of symmetric identifiers.">
<polygon fill="white" stroke="black" points="817.5,-343.5 817.5,-373.5 948.5,-373.5 948.5,-343.5 817.5,-343.5"/>
<text text-anchor="start" x="825.5" y="-361.5" font-family="Helvetica,sans-Serif" font-size="10.00">denoptim.graph.Symmetric</text>
<text text-anchor="middle" x="883" y="-350.5" font-family="Helvetica,sans-Serif" font-size="10.00">Set.getList</text>
</a>
</g>
</g>
<!-- Node10&#45;&gt;Node11 -->
<g id="edge10" class="edge">
<title>Node10&#45;&gt;Node11</title>
<path fill="none" stroke="midnightblue" d="M698.11,-226.71C716.92,-252.56 758.62,-305.13 806,-334.5 808.76,-336.21 811.66,-337.81 814.64,-339.31"/>
<polygon fill="midnightblue" stroke="midnightblue" points="813.25,-342.52 823.8,-343.48 816.15,-336.15 813.25,-342.52"/>
</g>
<!-- Node12 -->
<g id="node12" class="node">
<title>Node12</title>
<g id="a_node12"><a xlink:href="classdenoptim_1_1graph_1_1_d_graph.html#a49bc7aa7c45f3aeaf6aff41095456c6e" target="_top" xlink:title="Get an iterator for the sets of symmetrically related vertices.">
<polygon fill="white" stroke="black" points="816,-294.5 816,-324.5 950,-324.5 950,-294.5 816,-294.5"/>
<text text-anchor="start" x="824" y="-312.5" font-family="Helvetica,sans-Serif" font-size="10.00">denoptim.graph.DGraph.get</text>
<text text-anchor="middle" x="883" y="-301.5" font-family="Helvetica,sans-Serif" font-size="10.00">SymSetsIterator</text>
</a>
</g>
</g>
<!-- Node10&#45;&gt;Node12 -->
<g id="edge11" class="edge">
<title>Node10&#45;&gt;Node12</title>
<path fill="none" stroke="midnightblue" d="M708,-226.55C730.94,-242.85 769.66,-268.74 806,-285.5 810.07,-287.38 814.32,-289.16 818.65,-290.85"/>
<polygon fill="midnightblue" stroke="midnightblue" points="817.61,-294.2 828.2,-294.38 820.04,-287.63 817.61,-294.2"/>
</g>
<!-- Node13 -->
<g id="node13" class="node">
<title>Node13</title>
<g id="a_node13"><a xlink:href="classdenoptim_1_1utils_1_1_graph_utils.html#a9d08e1ef48052456de71c3c6955f1945" target="_top" xlink:title="Unique counter for the number of graph vertices generated.">
<polygon fill="white" stroke="black" points="812.5,-245.5 812.5,-275.5 953.5,-275.5 953.5,-245.5 812.5,-245.5"/>
<text text-anchor="start" x="820.5" y="-263.5" font-family="Helvetica,sans-Serif" font-size="10.00">denoptim.utils.GraphUtils.get</text>
<text text-anchor="middle" x="883" y="-252.5" font-family="Helvetica,sans-Serif" font-size="10.00">UniqueVertexIndex</text>
</a>
</g>
</g>
<!-- Node10&#45;&gt;Node13 -->
<g id="edge12" class="edge">
<title>Node10&#45;&gt;Node13</title>
<path fill="none" stroke="midnightblue" d="M747.18,-226.53C767.81,-231.73 791.1,-237.6 812.45,-242.98"/>
<polygon fill="midnightblue" stroke="midnightblue" points="811.88,-246.44 822.43,-245.49 813.59,-239.66 811.88,-246.44"/>
</g>
<!-- Node14 -->
<g id="node14" class="node">
<title>Node14</title>
<g id="a_node14"><a xlink:href="classdenoptim_1_1graph_1_1_d_graph.html#a3b7c2feb2da30079318f06819e0e6761" target="_top" xlink:title=" ">
<polygon fill="white" stroke="black" points="816,-196.5 816,-226.5 950,-226.5 950,-196.5 816,-196.5"/>
<text text-anchor="start" x="824" y="-214.5" font-family="Helvetica,sans-Serif" font-size="10.00">denoptim.graph.DGraph.get</text>
<text text-anchor="middle" x="883" y="-203.5" font-family="Helvetica,sans-Serif" font-size="10.00">VertexCount</text>
</a>
</g>
</g>
<!-- Node10&#45;&gt;Node14 -->
<g id="edge13" class="edge">
<title>Node10&#45;&gt;Node14</title>
<path fill="none" stroke="midnightblue" d="M767.17,-211.5C779.92,-211.5 793.09,-211.5 805.75,-211.5"/>
<polygon fill="midnightblue" stroke="midnightblue" points="805.78,-215 815.78,-211.5 805.78,-208 805.78,-215"/>
</g>
<!-- Node15 -->
<g id="node15" class="node">
<title>Node15</title>
<g id="a_node15"><a xlink:href="classdenoptim_1_1graph_1_1_vertex.html#af44ae05546096ec9060d7207f38bc8e9" target="_top" xlink:title=" ">
<polygon fill="white" stroke="black" points="819,-147.5 819,-177.5 947,-177.5 947,-147.5 819,-147.5"/>
<text text-anchor="start" x="827" y="-165.5" font-family="Helvetica,sans-Serif" font-size="10.00">denoptim.graph.Vertex.get</text>
<text text-anchor="middle" x="883" y="-154.5" font-family="Helvetica,sans-Serif" font-size="10.00">VertexId</text>
</a>
</g>
</g>
<!-- Node10&#45;&gt;Node15 -->
<g id="edge14" class="edge">
<title>Node10&#45;&gt;Node15</title>
<path fill="none" stroke="midnightblue" d="M747.18,-196.47C767.81,-191.27 791.1,-185.4 812.45,-180.02"/>
<polygon fill="midnightblue" stroke="midnightblue" points="813.59,-183.34 822.43,-177.51 811.88,-176.56 813.59,-183.34"/>
</g>
<!-- Node16 -->
<g id="node16" class="node">
<title>Node16</title>
<g id="a_node16"><a xlink:href="classdenoptim_1_1graph_1_1_d_graph.html#ac9bd2a29337782ffdc07a2a2fc70f135" target="_top" xlink:title=" ">
<polygon fill="white" stroke="black" points="816,-98.5 816,-128.5 950,-128.5 950,-98.5 816,-98.5"/>
<text text-anchor="start" x="824" y="-116.5" font-family="Helvetica,sans-Serif" font-size="10.00">denoptim.graph.DGraph.get</text>
<text text-anchor="middle" x="883" y="-105.5" font-family="Helvetica,sans-Serif" font-size="10.00">VertexList</text>
</a>
</g>
</g>
<!-- Node10&#45;&gt;Node16 -->
<g id="edge15" class="edge">
<title>Node10&#45;&gt;Node16</title>
<path fill="none" stroke="midnightblue" d="M708.49,-196.46C731.54,-180.46 770.06,-155.2 806,-138.5 810.88,-136.23 816.03,-134.08 821.24,-132.05"/>
<polygon fill="midnightblue" stroke="midnightblue" points="822.51,-135.32 830.67,-128.56 820.08,-128.75 822.51,-135.32"/>
</g>
<!-- Node17 -->
<g id="node17" class="node">
<title>Node17</title>
<g id="a_node17"><a xlink:href="classdenoptim_1_1graph_1_1_vertex.html#ad26ecf426a5e415605df94be904e58d3" target="_top" xlink:title=" ">
<polygon fill="white" stroke="black" points="819,-49.5 819,-79.5 947,-79.5 947,-49.5 819,-49.5"/>
<text text-anchor="start" x="827" y="-67.5" font-family="Helvetica,sans-Serif" font-size="10.00">denoptim.graph.Vertex.set</text>
<text text-anchor="middle" x="883" y="-56.5" font-family="Helvetica,sans-Serif" font-size="10.00">Property</text>
</a>
</g>
</g>
<!-- Node10&#45;&gt;Node17 -->
<g id="edge16" class="edge">
<title>Node10&#45;&gt;Node17</title>
<path fill="none" stroke="midnightblue" d="M698.18,-196.48C717.09,-170.93 758.93,-118.93 806,-89.5 809.35,-87.41 812.89,-85.47 816.54,-83.68"/>
<polygon fill="midnightblue" stroke="midnightblue" points="818.11,-86.81 825.8,-79.53 815.24,-80.43 818.11,-86.81"/>
</g>
<!-- Node18 -->
<g id="node18" class="node">
<title>Node18</title>
<g id="a_node18"><a xlink:href="classdenoptim_1_1graph_1_1_vertex.html#adcb4510b9e479d5c37f9ccc12f9f5c5f" target="_top" xlink:title=" ">
<polygon fill="white" stroke="black" points="819,-0.5 819,-30.5 947,-30.5 947,-0.5 819,-0.5"/>
<text text-anchor="start" x="827" y="-18.5" font-family="Helvetica,sans-Serif" font-size="10.00">denoptim.graph.Vertex.set</text>
<text text-anchor="middle" x="883" y="-7.5" font-family="Helvetica,sans-Serif" font-size="10.00">VertexId</text>
</a>
</g>
</g>
<!-- Node10&#45;&gt;Node18 -->
<g id="edge17" class="edge">
<title>Node10&#45;&gt;Node18</title>
<path fill="none" stroke="midnightblue" d="M693.77,-196.35C708.36,-162.94 747.83,-82.51 806,-39.5 808.04,-37.99 810.19,-36.57 812.4,-35.24"/>
<polygon fill="midnightblue" stroke="midnightblue" points="814.07,-38.31 821.26,-30.53 810.79,-32.13 814.07,-38.31"/>
</g>
</g>
</svg>
