<?xml version="1.0" encoding="UTF-8" standalone="no"?>
<!DOCTYPE svg PUBLIC "-//W3C//DTD SVG 1.1//EN"
 "http://www.w3.org/Graphics/SVG/1.1/DTD/svg11.dtd">
<!-- Generated by graphviz version 3.0.0 (20220413.0242)
 -->
<!-- Title: denoptim.graph.Fragment.addAP Pages: 1 -->
<svg width="765pt" height="268pt"
 viewBox="0.00 0.00 765.00 268.00" xmlns="http://www.w3.org/2000/svg" xmlns:xlink="http://www.w3.org/1999/xlink">
<g id="graph0" class="graph" transform="scale(1 1) rotate(0) translate(4 264)">
<title>denoptim.graph.Fragment.addAP</title>
<polygon fill="white" stroke="transparent" points="-4,4 -4,-264 761,-264 761,4 -4,4"/>
<!-- Node1 -->
<g id="node1" class="node">
<title>Node1</title>
<g id="a_node1"><a xlink:title="Adds an attachment point.">
<polygon fill="#bfbfbf" stroke="black" points="0,-146 0,-165 158,-165 158,-146 0,-146"/>
<text text-anchor="middle" x="79" y="-153" font-family="Helvetica,sans-Serif" font-size="10.00">denoptim.graph.Fragment.addAP</text>
</a>
</g>
</g>
<!-- Node2 -->
<g id="node2" class="node">
<title>Node2</title>
<g id="a_node2"><a xlink:href="classdenoptim_1_1graph_1_1_fragment.html#a18eeaacf99e3c1cbaeef4f7ad651cc48" target="_top" xlink:title="Returns the number of APs currently defined on a specific atom source.">
<polygon fill="white" stroke="black" points="202,-211.5 202,-241.5 344,-241.5 344,-211.5 202,-211.5"/>
<text text-anchor="start" x="210" y="-229.5" font-family="Helvetica,sans-Serif" font-size="10.00">denoptim.graph.Fragment.get</text>
<text text-anchor="middle" x="273" y="-218.5" font-family="Helvetica,sans-Serif" font-size="10.00">APCountOnAtom</text>
</a>
</g>
</g>
<!-- Node1&#45;&gt;Node2 -->
<g id="edge1" class="edge">
<title>Node1&#45;&gt;Node2</title>
<path fill="none" stroke="midnightblue" d="M101.62,-165.12C124.38,-175.07 161.36,-190.78 194,-202.5 199.47,-204.46 205.18,-206.41 210.93,-208.3"/>
<polygon fill="midnightblue" stroke="midnightblue" points="210,-211.68 220.59,-211.42 212.15,-205.02 210,-211.68"/>
</g>
<!-- Node3 -->
<g id="node3" class="node">
<title>Node3</title>
<g id="a_node3"><a xlink:href="classdenoptim_1_1graph_1_1_fragment.html#a551361a1155600e6e2fe4e37590c924f" target="_top" xlink:title=" ">
<polygon fill="white" stroke="black" points="202,-162.5 202,-192.5 344,-192.5 344,-162.5 202,-162.5"/>
<text text-anchor="start" x="210" y="-180.5" font-family="Helvetica,sans-Serif" font-size="10.00">denoptim.graph.Fragment.get</text>
<text text-anchor="middle" x="273" y="-169.5" font-family="Helvetica,sans-Serif" font-size="10.00">APsFromAtom</text>
</a>
</g>
</g>
<!-- Node1&#45;&gt;Node3 -->
<g id="edge3" class="edge">
<title>Node1&#45;&gt;Node3</title>
<path fill="none" stroke="midnightblue" d="M158.09,-164.45C169.14,-165.71 180.52,-167.02 191.61,-168.29"/>
<polygon fill="midnightblue" stroke="midnightblue" points="191.37,-171.78 201.7,-169.44 192.16,-164.83 191.37,-171.78"/>
</g>
<!-- Node4 -->
<g id="node4" class="node">
<title>Node4</title>
<g id="a_node4"><a xlink:href="classdenoptim_1_1graph_1_1_fragment.html#a9f0d8233f6ed31316409d643b5e0f0cd" target="_top" xlink:title=" ">
<polygon fill="white" stroke="black" points="396.5,-120.5 396.5,-150.5 538.5,-150.5 538.5,-120.5 396.5,-120.5"/>
<text text-anchor="start" x="404.5" y="-138.5" font-family="Helvetica,sans-Serif" font-size="10.00">denoptim.graph.Fragment.get</text>
<text text-anchor="middle" x="467.5" y="-127.5" font-family="Helvetica,sans-Serif" font-size="10.00">AttachmentPoints</text>
</a>
</g>
</g>
<!-- Node1&#45;&gt;Node4 -->
<g id="edge4" class="edge">
<title>Node1&#45;&gt;Node4</title>
<path fill="none" stroke="midnightblue" d="M158.21,-151.45C224.51,-148.02 319.21,-143.12 386.12,-139.66"/>
<polygon fill="midnightblue" stroke="midnightblue" points="386.39,-143.15 396.2,-139.14 386.03,-136.16 386.39,-143.15"/>
</g>
<!-- Node5 -->
<g id="node5" class="node">
<title>Node5</title>
<g id="a_node5"><a xlink:href="classdenoptim_1_1graph_1_1_fragment.html#ab272daa0515a1ee2fb99a2eb6a81a4a0" target="_top" xlink:title="Depends on an healthy list of attachment points with properly set pointers to the source atoms.">
<polygon fill="white" stroke="black" points="194,-73.5 194,-103.5 352,-103.5 352,-73.5 194,-73.5"/>
<text text-anchor="start" x="202" y="-91.5" font-family="Helvetica,sans-Serif" font-size="10.00">denoptim.graph.Fragment.update</text>
<text text-anchor="middle" x="273" y="-80.5" font-family="Helvetica,sans-Serif" font-size="10.00">SymmetryRelations</text>
</a>
</g>
</g>
<!-- Node1&#45;&gt;Node5 -->
<g id="edge5" class="edge">
<title>Node1&#45;&gt;Node5</title>
<path fill="none" stroke="midnightblue" d="M107.51,-145.9C136.51,-135.78 182.92,-119.59 219.05,-106.98"/>
<polygon fill="midnightblue" stroke="midnightblue" points="220.66,-110.12 228.95,-103.52 218.36,-103.51 220.66,-110.12"/>
</g>
<!-- Node2&#45;&gt;Node2 -->
<g id="edge2" class="edge">
<title>Node2&#45;&gt;Node2</title>
<path fill="none" stroke="midnightblue" d="M239.19,-241.66C231.04,-251.06 242.31,-260 273,-260 291.7,-260 303.19,-256.68 307.47,-251.96"/>
<polygon fill="midnightblue" stroke="midnightblue" points="310.94,-251.41 306.81,-241.66 303.96,-251.86 310.94,-251.41"/>
</g>
<!-- Node5&#45;&gt;Node4 -->
<g id="edge6" class="edge">
<title>Node5&#45;&gt;Node4</title>
<path fill="none" stroke="midnightblue" d="M335.44,-103.5C354.45,-108.14 375.56,-113.3 395.18,-118.09"/>
<polygon fill="midnightblue" stroke="midnightblue" points="394.44,-121.51 404.99,-120.48 396.1,-114.71 394.44,-121.51"/>
</g>
<!-- Node6 -->
<g id="node6" class="node">
<title>Node6</title>
<g id="a_node6"><a xlink:href="classdenoptim_1_1graph_1_1_fragment.html#a41f439afd1ed84bc64fa895b440f47ce" target="_top" xlink:title=" ">
<polygon fill="white" stroke="black" points="388,-71.5 388,-101.5 547,-101.5 547,-71.5 388,-71.5"/>
<text text-anchor="start" x="396" y="-89.5" font-family="Helvetica,sans-Serif" font-size="10.00">denoptim.graph.Fragment.identify</text>
<text text-anchor="middle" x="467.5" y="-78.5" font-family="Helvetica,sans-Serif" font-size="10.00">SymmetryRelatedAPSets</text>
</a>
</g>
</g>
<!-- Node5&#45;&gt;Node6 -->
<g id="edge7" class="edge">
<title>Node5&#45;&gt;Node6</title>
<path fill="none" stroke="midnightblue" d="M352.02,-87.69C360.48,-87.6 369.14,-87.51 377.72,-87.42"/>
<polygon fill="midnightblue" stroke="midnightblue" points="377.78,-90.92 387.74,-87.32 377.71,-83.92 377.78,-90.92"/>
</g>
<!-- Node11 -->
<g id="node11" class="node">
<title>Node11</title>
<g id="a_node11"><a xlink:href="classdenoptim_1_1graph_1_1_fragment.html#a66decdfeee2f583361c51e00ac598557" target="_top" xlink:title=" ">
<polygon fill="white" stroke="black" points="396.5,-22.5 396.5,-52.5 538.5,-52.5 538.5,-22.5 396.5,-22.5"/>
<text text-anchor="start" x="404.5" y="-40.5" font-family="Helvetica,sans-Serif" font-size="10.00">denoptim.graph.Fragment.set</text>
<text text-anchor="middle" x="467.5" y="-29.5" font-family="Helvetica,sans-Serif" font-size="10.00">SymmetricAPSets</text>
</a>
</g>
</g>
<!-- Node5&#45;&gt;Node11 -->
<g id="edge12" class="edge">
<title>Node5&#45;&gt;Node11</title>
<path fill="none" stroke="midnightblue" d="M330.72,-73.47C352.45,-67.72 377.44,-61.09 400.02,-55.11"/>
<polygon fill="midnightblue" stroke="midnightblue" points="401.09,-58.45 409.86,-52.51 399.29,-51.68 401.09,-58.45"/>
</g>
<!-- Node7 -->
<g id="node7" class="node">
<title>Node7</title>
<g id="a_node7"><a xlink:href="classdenoptim_1_1graph_1_1_fragment.html#a90fc66d07e071376ee45a32ab8a76020" target="_top" xlink:title="Checks if the atoms at the given positions have similar environments i.e.">
<polygon fill="white" stroke="black" points="592.5,-137.5 592.5,-167.5 747.5,-167.5 747.5,-137.5 592.5,-137.5"/>
<text text-anchor="start" x="600.5" y="-155.5" font-family="Helvetica,sans-Serif" font-size="10.00">denoptim.graph.Fragment.atoms</text>
<text text-anchor="middle" x="670" y="-144.5" font-family="Helvetica,sans-Serif" font-size="10.00">AreCompatible</text>
</a>
</g>
</g>
<!-- Node6&#45;&gt;Node7 -->
<g id="edge8" class="edge">
<title>Node6&#45;&gt;Node7</title>
<path fill="none" stroke="midnightblue" d="M518.62,-101.55C528.11,-104.66 537.91,-108.04 547,-111.5 563.37,-117.72 566.56,-121.49 583,-127.5 589.48,-129.87 596.29,-132.17 603.13,-134.35"/>
<polygon fill="midnightblue" stroke="midnightblue" points="602.54,-137.83 613.13,-137.45 604.62,-131.14 602.54,-137.83"/>
</g>
<!-- Node8 -->
<g id="node8" class="node">
<title>Node8</title>
<g id="a_node8"><a xlink:href="classdenoptim_1_1graph_1_1_a_p_class.html#a5cac5d20b70a0eace014ce062a271fbf" target="_top" xlink:title=" ">
<polygon fill="white" stroke="black" points="583,-99 583,-118 757,-118 757,-99 583,-99"/>
<text text-anchor="middle" x="670" y="-106" font-family="Helvetica,sans-Serif" font-size="10.00">denoptim.graph.APClass.compareTo</text>
</a>
</g>
</g>
<!-- Node6&#45;&gt;Node8 -->
<g id="edge9" class="edge">
<title>Node6&#45;&gt;Node8</title>
<path fill="none" stroke="midnightblue" d="M547.17,-95.13C555.6,-96.06 564.26,-97.01 572.87,-97.95"/>
<polygon fill="midnightblue" stroke="midnightblue" points="572.62,-101.45 582.94,-99.06 573.38,-94.49 572.62,-101.45"/>
</g>
<!-- Node9 -->
<g id="node9" class="node">
<title>Node9</title>
<g id="a_node9"><a xlink:href="classdenoptim_1_1graph_1_1_attachment_point.html#a31bed4cb29f6437bf8a888a1dda3fd95" target="_top" xlink:title="Returns the Attachment Point class.">
<polygon fill="white" stroke="black" points="602.5,-49.5 602.5,-79.5 737.5,-79.5 737.5,-49.5 602.5,-49.5"/>
<text text-anchor="start" x="610.5" y="-67.5" font-family="Helvetica,sans-Serif" font-size="10.00">denoptim.graph.Attachment</text>
<text text-anchor="middle" x="670" y="-56.5" font-family="Helvetica,sans-Serif" font-size="10.00">Point.getAPClass</text>
</a>
</g>
</g>
<!-- Node6&#45;&gt;Node9 -->
<g id="edge10" class="edge">
<title>Node6&#45;&gt;Node9</title>
<path fill="none" stroke="midnightblue" d="M547.17,-77.87C561.96,-76.24 577.42,-74.55 592.16,-72.93"/>
<polygon fill="midnightblue" stroke="midnightblue" points="592.68,-76.4 602.23,-71.83 591.91,-69.44 592.68,-76.4"/>
</g>
<!-- Node10 -->
<g id="node10" class="node">
<title>Node10</title>
<g id="a_node10"><a xlink:href="classdenoptim_1_1graph_1_1_attachment_point.html#a7e45846280a63bd2bf36b85e502ffa49" target="_top" xlink:title="The index of the source atom in the atom list of the fragment.">
<polygon fill="white" stroke="black" points="596,-0.5 596,-30.5 744,-30.5 744,-0.5 596,-0.5"/>
<text text-anchor="start" x="604" y="-18.5" font-family="Helvetica,sans-Serif" font-size="10.00">denoptim.graph.Attachment</text>
<text text-anchor="middle" x="670" y="-7.5" font-family="Helvetica,sans-Serif" font-size="10.00">Point.getAtomPositionNumber</text>
</a>
</g>
</g>
<!-- Node6&#45;&gt;Node10 -->
<g id="edge11" class="edge">
<title>Node6&#45;&gt;Node10</title>
<path fill="none" stroke="midnightblue" d="M524.05,-71.44C531.87,-68.76 539.72,-65.77 547,-62.5 564.1,-54.81 565.85,-48.07 583,-40.5 588.38,-38.13 594.04,-35.91 599.79,-33.85"/>
<polygon fill="midnightblue" stroke="midnightblue" points="601.17,-37.08 609.51,-30.55 598.91,-30.45 601.17,-37.08"/>
</g>
</g>
</svg>
