<?xml version="1.0" encoding="UTF-8" standalone="no"?>
<!DOCTYPE svg PUBLIC "-//W3C//DTD SVG 1.1//EN"
 "http://www.w3.org/Graphics/SVG/1.1/DTD/svg11.dtd">
<!-- Generated by graphviz version 3.0.0 (20220413.0242)
 -->
<!-- Title: denoptim.programs.denovo.GARunner Pages: 1 -->
<svg width="1625pt" height="714pt"
 viewBox="0.00 0.00 1625.00 714.00" xmlns="http://www.w3.org/2000/svg" xmlns:xlink="http://www.w3.org/1999/xlink">
<g id="graph0" class="graph" transform="scale(1 1) rotate(0) translate(4 710)">
<title>denoptim.programs.denovo.GARunner</title>
<polygon fill="white" stroke="transparent" points="-4,4 -4,-710 1621,-710 1621,4 -4,4"/>
<!-- Node1 -->
<g id="node1" class="node">
<title>Node1</title>
<g id="a_node1"><a xlink:title="Programs that runs de novo design by a genetic algorithm.">
<polygon fill="#bfbfbf" stroke="black" points="1482,-257 1482,-287 1617,-287 1617,-257 1482,-257"/>
<text text-anchor="start" x="1490" y="-275" font-family="Helvetica,sans-Serif" font-size="10.00">denoptim.programs.denovo.</text>
<text text-anchor="middle" x="1549.5" y="-264" font-family="Helvetica,sans-Serif" font-size="10.00">GARunner</text>
</a>
</g>
</g>
<!-- Node2 -->
<g id="node2" class="node">
<title>Node2</title>
<g id="a_node2"><a xlink:href="classdenoptim_1_1task_1_1_program_task.html" target="_top" xlink:title="Task structure for any of the main programs in the denoptim project, such as genetic algorithm and co...">
<polygon fill="white" stroke="black" points="1015,-581.5 1015,-600.5 1153,-600.5 1153,-581.5 1015,-581.5"/>
<text text-anchor="middle" x="1084" y="-588.5" font-family="Helvetica,sans-Serif" font-size="10.00">denoptim.task.ProgramTask</text>
</a>
</g>
</g>
<!-- Node2&#45;&gt;Node1 -->
<g id="edge1" class="edge">
<title>Node2&#45;&gt;Node1</title>
<path fill="none" stroke="midnightblue" d="M1125.37,-578.3C1154.72,-568.33 1194.92,-553.14 1228,-535 1341.81,-472.6 1366.95,-449.18 1464,-363 1491.73,-338.38 1520.34,-305.76 1536.13,-287.01"/>
<polygon fill="midnightblue" stroke="midnightblue" points="1124.24,-574.99 1115.87,-581.47 1126.46,-581.63 1124.24,-574.99"/>
</g>
<!-- Node3 -->
<g id="node3" class="node">
<title>Node3</title>
<g id="a_node3"><a xlink:href="classdenoptim_1_1task_1_1_task.html" target="_top" xlink:title="A task that can throw exceptions.">
<polygon fill="white" stroke="black" points="771.5,-634.5 771.5,-653.5 872.5,-653.5 872.5,-634.5 771.5,-634.5"/>
<text text-anchor="middle" x="822" y="-641.5" font-family="Helvetica,sans-Serif" font-size="10.00">denoptim.task.Task</text>
</a>
</g>
</g>
<!-- Node3&#45;&gt;Node2 -->
<g id="edge2" class="edge">
<title>Node3&#45;&gt;Node2</title>
<path fill="none" stroke="midnightblue" d="M879.77,-632.43C926.61,-622.88 992.28,-609.49 1036.15,-600.55"/>
<polygon fill="midnightblue" stroke="midnightblue" points="878.88,-629.04 869.78,-634.46 880.28,-635.9 878.88,-629.04"/>
</g>
<!-- Node4 -->
<g id="node4" class="node">
<title>Node4</title>
<g id="a_node4"><a xlink:title=" ">
<polygon fill="white" stroke="black" points="480.5,-686.5 480.5,-705.5 576.5,-705.5 576.5,-686.5 480.5,-686.5"/>
<text text-anchor="middle" x="528.5" y="-693.5" font-family="Helvetica,sans-Serif" font-size="10.00">Callable&lt; Object &gt;</text>
</a>
</g>
</g>
<!-- Node4&#45;&gt;Node3 -->
<g id="edge3" class="edge">
<title>Node4&#45;&gt;Node3</title>
<path fill="none" stroke="midnightblue" d="M586.53,-689.49C625.9,-684.61 679.35,-677.19 726,-668 746.36,-663.99 768.89,-658.35 786.9,-653.55"/>
<polygon fill="midnightblue" stroke="midnightblue" points="586.09,-686.02 576.58,-690.71 586.94,-692.97 586.09,-686.02"/>
</g>
<!-- Node5 -->
<g id="node5" class="node">
<title>Node5</title>
<g id="a_node5"><a xlink:href="classdenoptim_1_1task_1_1_process_handler.html" target="_top" xlink:title=" ">
<polygon fill="white" stroke="black" points="454,-648.5 454,-667.5 603,-667.5 603,-648.5 454,-648.5"/>
<text text-anchor="middle" x="528.5" y="-655.5" font-family="Helvetica,sans-Serif" font-size="10.00">denoptim.task.ProcessHandler</text>
</a>
</g>
</g>
<!-- Node5&#45;&gt;Node3 -->
<g id="edge4" class="edge">
<title>Node5&#45;&gt;Node3</title>
<path fill="none" stroke="#9a32cd" stroke-dasharray="5,2" d="M613.11,-653.98C664.27,-651.53 727.99,-648.47 771.3,-646.39"/>
<polygon fill="#9a32cd" stroke="#9a32cd" points="612.88,-650.49 603.06,-654.47 613.21,-657.48 612.88,-650.49"/>
<text text-anchor="middle" x="673.5" y="-656" font-family="Helvetica,sans-Serif" font-size="10.00"> processHandler</text>
</g>
<!-- Node6 -->
<g id="node6" class="node">
<title>Node6</title>
<g id="a_node6"><a xlink:title=" ">
<polygon fill="white" stroke="black" points="512.5,-581.5 512.5,-600.5 544.5,-600.5 544.5,-581.5 512.5,-581.5"/>
<text text-anchor="middle" x="528.5" y="-588.5" font-family="Helvetica,sans-Serif" font-size="10.00">File</text>
</a>
</g>
</g>
<!-- Node6&#45;&gt;Node2 -->
<g id="edge6" class="edge">
<title>Node6&#45;&gt;Node2</title>
<path fill="none" stroke="#9a32cd" stroke-dasharray="5,2" d="M554.86,-591C636.05,-591 891.45,-591 1014.89,-591"/>
<polygon fill="#9a32cd" stroke="#9a32cd" points="554.59,-587.5 544.59,-591 554.59,-594.5 554.59,-587.5"/>
<text text-anchor="middle" x="822" y="-594" font-family="Helvetica,sans-Serif" font-size="10.00"> configFilePathName</text>
</g>
<!-- Node6&#45;&gt;Node3 -->
<g id="edge5" class="edge">
<title>Node6&#45;&gt;Node3</title>
<path fill="none" stroke="#9a32cd" stroke-dasharray="5,2" d="M554.64,-595.57C602.71,-604.31 708.48,-623.54 771.31,-634.97"/>
<polygon fill="#9a32cd" stroke="#9a32cd" points="555.23,-592.12 544.76,-593.77 553.97,-599.01 555.23,-592.12"/>
<text text-anchor="middle" x="673.5" y="-628" font-family="Helvetica,sans-Serif" font-size="10.00"> workDir</text>
</g>
<!-- Node14 -->
<g id="node14" class="node">
<title>Node14</title>
<g id="a_node14"><a xlink:href="classdenoptim_1_1utils_1_1_size_controlled_set.html" target="_top" xlink:title="Class meant to collect unique strings without leading to memory overflow.">
<polygon fill="white" stroke="black" points="744,-339.5 744,-358.5 900,-358.5 900,-339.5 744,-339.5"/>
<text text-anchor="middle" x="822" y="-346.5" font-family="Helvetica,sans-Serif" font-size="10.00">denoptim.utils.SizeControlledSet</text>
</a>
</g>
</g>
<!-- Node6&#45;&gt;Node14 -->
<g id="edge16" class="edge">
<title>Node6&#45;&gt;Node14</title>
<path fill="none" stroke="#9a32cd" stroke-dasharray="5,2" d="M553.97,-580.91C596.22,-562.18 682.46,-517.82 726,-452 746.82,-420.52 717.86,-396.23 744,-369 748.11,-364.72 753.02,-361.31 758.33,-358.6"/>
<polygon fill="#9a32cd" stroke="#9a32cd" points="552.5,-577.74 544.71,-584.93 555.28,-584.17 552.5,-577.74"/>
<text text-anchor="middle" x="673.5" y="-556" font-family="Helvetica,sans-Serif" font-size="10.00"> allData</text>
<text text-anchor="middle" x="673.5" y="-545" font-family="Helvetica,sans-Serif" font-size="10.00">dataOnDisk</text>
</g>
<!-- Node7 -->
<g id="node7" class="node">
<title>Node7</title>
<g id="a_node7"><a xlink:href="classdenoptim_1_1ga_1_1_evolutionary_algorithm.html" target="_top" xlink:title="DENOPTIM&#39;s evolutionary algorithm.">
<polygon fill="white" stroke="black" points="1022,-292 1022,-322 1146,-322 1146,-292 1022,-292"/>
<text text-anchor="start" x="1030" y="-310" font-family="Helvetica,sans-Serif" font-size="10.00">denoptim.ga.Evolutionary</text>
<text text-anchor="middle" x="1084" y="-299" font-family="Helvetica,sans-Serif" font-size="10.00">Algorithm</text>
</a>
</g>
</g>
<!-- Node7&#45;&gt;Node1 -->
<g id="edge7" class="edge">
<title>Node7&#45;&gt;Node1</title>
<path fill="none" stroke="#9a32cd" stroke-dasharray="5,2" d="M1156.3,-301.62C1244.96,-294.92 1395.13,-283.58 1481.66,-277.05"/>
<polygon fill="#9a32cd" stroke="#9a32cd" points="1155.78,-298.15 1146.07,-302.39 1156.31,-305.13 1155.78,-298.15"/>
<text text-anchor="middle" x="1311.5" y="-297" font-family="Helvetica,sans-Serif" font-size="10.00"> ea</text>
</g>
<!-- Node8 -->
<g id="node8" class="node">
<title>Node8</title>
<g id="a_node8"><a xlink:href="classdenoptim_1_1ga_1_1_external_cmds_listener.html" target="_top" xlink:title="Service that watches the interface folder (i.e., see GAParameters#interfaceDir) for instructions comi...">
<polygon fill="white" stroke="black" points="1246,-375 1246,-405 1377,-405 1377,-375 1246,-375"/>
<text text-anchor="start" x="1254" y="-393" font-family="Helvetica,sans-Serif" font-size="10.00">denoptim.ga.ExternalCmds</text>
<text text-anchor="middle" x="1311.5" y="-382" font-family="Helvetica,sans-Serif" font-size="10.00">Listener</text>
</a>
</g>
</g>
<!-- Node7&#45;&gt;Node8 -->
<g id="edge13" class="edge">
<title>Node7&#45;&gt;Node8</title>
<path fill="none" stroke="#9a32cd" stroke-dasharray="5,2" d="M1156.57,-309.1C1180.03,-311.71 1205.76,-316.7 1228,-326 1254.93,-337.26 1280.62,-359.67 1295.97,-374.75"/>
<polygon fill="#9a32cd" stroke="#9a32cd" points="1156.62,-305.59 1146.33,-308.09 1155.94,-312.56 1156.62,-305.59"/>
<text text-anchor="middle" x="1199.5" y="-329" font-family="Helvetica,sans-Serif" font-size="10.00"> ea</text>
</g>
<!-- Node8&#45;&gt;Node1 -->
<g id="edge36" class="edge">
<title>Node8&#45;&gt;Node1</title>
<path fill="none" stroke="#9a32cd" stroke-dasharray="5,2" d="M1352.1,-370.2C1398.95,-346.77 1475.92,-308.29 1518.25,-287.13"/>
<polygon fill="#9a32cd" stroke="#9a32cd" points="1350.25,-367.21 1342.87,-374.82 1353.38,-373.47 1350.25,-367.21"/>
<text text-anchor="middle" x="1429.5" y="-351" font-family="Helvetica,sans-Serif" font-size="10.00"> ecl</text>
</g>
<!-- Node8&#45;&gt;Node7 -->
<g id="edge8" class="edge">
<title>Node8&#45;&gt;Node7</title>
<path fill="none" stroke="#9a32cd" stroke-dasharray="5,2" d="M1260.17,-371.48C1219.7,-356.58 1163.55,-335.91 1125.84,-322.03"/>
<polygon fill="#9a32cd" stroke="#9a32cd" points="1258.99,-374.77 1269.59,-374.94 1261.41,-368.2 1258.99,-374.77"/>
<text text-anchor="middle" x="1199.5" y="-361" font-family="Helvetica,sans-Serif" font-size="10.00"> cmdListener</text>
</g>
<!-- Node9 -->
<g id="node9" class="node">
<title>Node9</title>
<g id="a_node9"><a xlink:title=" ">
<polygon fill="white" stroke="black" points="1055.5,-473.5 1055.5,-492.5 1112.5,-492.5 1112.5,-473.5 1055.5,-473.5"/>
<text text-anchor="middle" x="1084" y="-480.5" font-family="Helvetica,sans-Serif" font-size="10.00">Runnable</text>
</a>
</g>
</g>
<!-- Node9&#45;&gt;Node8 -->
<g id="edge9" class="edge">
<title>Node9&#45;&gt;Node8</title>
<path fill="none" stroke="midnightblue" d="M1122.75,-472.55C1132.6,-469.79 1143.2,-466.81 1153,-464 1186.4,-454.44 1196.34,-456.29 1228,-442 1250.38,-431.9 1273.87,-416.56 1290.04,-405.16"/>
<polygon fill="midnightblue" stroke="midnightblue" points="1121.51,-469.26 1112.81,-475.32 1123.39,-476 1121.51,-469.26"/>
</g>
<!-- Node10 -->
<g id="node10" class="node">
<title>Node10</title>
<g id="a_node10"><a xlink:title=" ">
<polygon fill="white" stroke="black" points="1065.5,-359.5 1065.5,-378.5 1102.5,-378.5 1102.5,-359.5 1065.5,-359.5"/>
<text text-anchor="middle" x="1084" y="-366.5" font-family="Helvetica,sans-Serif" font-size="10.00">Path</text>
</a>
</g>
</g>
<!-- Node10&#45;&gt;Node8 -->
<g id="edge10" class="edge">
<title>Node10&#45;&gt;Node8</title>
<path fill="none" stroke="#9a32cd" stroke-dasharray="5,2" d="M1112.76,-371.12C1141.59,-373.38 1187.98,-377.14 1228,-381 1233.74,-381.55 1239.69,-382.15 1245.66,-382.77"/>
<polygon fill="#9a32cd" stroke="#9a32cd" points="1112.87,-367.62 1102.62,-370.34 1112.32,-374.6 1112.87,-367.62"/>
<text text-anchor="middle" x="1199.5" y="-384" font-family="Helvetica,sans-Serif" font-size="10.00"> pathname</text>
</g>
<!-- Node11 -->
<g id="node11" class="node">
<title>Node11</title>
<g id="a_node11"><a xlink:title=" ">
<polygon fill="white" stroke="black" points="1045.5,-435.5 1045.5,-454.5 1122.5,-454.5 1122.5,-435.5 1045.5,-435.5"/>
<text text-anchor="middle" x="1084" y="-442.5" font-family="Helvetica,sans-Serif" font-size="10.00">WatchService</text>
</a>
</g>
</g>
<!-- Node11&#45;&gt;Node8 -->
<g id="edge11" class="edge">
<title>Node11&#45;&gt;Node8</title>
<path fill="none" stroke="#9a32cd" stroke-dasharray="5,2" d="M1132.45,-436.13C1160.41,-430.63 1196.37,-423.09 1228,-415 1239.45,-412.07 1251.7,-408.57 1263.15,-405.12"/>
<polygon fill="#9a32cd" stroke="#9a32cd" points="1131.69,-432.71 1122.54,-438.06 1133.03,-439.58 1131.69,-432.71"/>
<text text-anchor="middle" x="1199.5" y="-430" font-family="Helvetica,sans-Serif" font-size="10.00"> watcher</text>
</g>
<!-- Node12 -->
<g id="node12" class="node">
<title>Node12</title>
<g id="a_node12"><a xlink:title=" ">
<polygon fill="white" stroke="black" points="1053.5,-397.5 1053.5,-416.5 1114.5,-416.5 1114.5,-397.5 1053.5,-397.5"/>
<text text-anchor="middle" x="1084" y="-404.5" font-family="Helvetica,sans-Serif" font-size="10.00">WatchKey</text>
</a>
</g>
</g>
<!-- Node12&#45;&gt;Node8 -->
<g id="edge12" class="edge">
<title>Node12&#45;&gt;Node8</title>
<path fill="none" stroke="#9a32cd" stroke-dasharray="5,2" d="M1125.25,-403.97C1158.67,-401.45 1206.85,-397.81 1245.7,-394.89"/>
<polygon fill="#9a32cd" stroke="#9a32cd" points="1124.65,-400.5 1114.94,-404.74 1125.18,-407.48 1124.65,-400.5"/>
<text text-anchor="middle" x="1199.5" y="-403" font-family="Helvetica,sans-Serif" font-size="10.00"> key</text>
</g>
<!-- Node13 -->
<g id="node13" class="node">
<title>Node13</title>
<g id="a_node13"><a xlink:title=" ">
<polygon fill="white" stroke="black" points="219,-427.5 219,-446.5 266,-446.5 266,-427.5 219,-427.5"/>
<text text-anchor="middle" x="242.5" y="-434.5" font-family="Helvetica,sans-Serif" font-size="10.00">Logger</text>
</a>
</g>
</g>
<!-- Node13&#45;&gt;Node7 -->
<g id="edge35" class="edge">
<title>Node13&#45;&gt;Node7</title>
<path fill="none" stroke="#9a32cd" stroke-dasharray="5,2" d="M276.11,-439.25C372.4,-445.22 663.56,-458.38 900,-418 944.61,-410.38 962.79,-416.63 997,-387 1010.82,-375.03 1002.81,-363.63 1015,-350 1025.15,-338.65 1038.99,-329.17 1051.53,-322.03"/>
<polygon fill="#9a32cd" stroke="#9a32cd" points="276.32,-435.76 266.11,-438.61 275.87,-442.75 276.32,-435.76"/>
<text text-anchor="middle" x="673.5" y="-447" font-family="Helvetica,sans-Serif" font-size="10.00"> logger</text>
</g>
<!-- Node13&#45;&gt;Node8 -->
<g id="edge14" class="edge">
<title>Node13&#45;&gt;Node8</title>
<path fill="none" stroke="#9a32cd" stroke-dasharray="5,2" d="M271.41,-451.11C321.41,-475.03 430.13,-521 527.5,-521 527.5,-521 527.5,-521 1085,-521 1153.42,-521 1177.57,-510.24 1228,-464 1239.18,-453.75 1235.56,-446.01 1246,-435 1256.99,-423.4 1271.41,-413.01 1283.82,-405.14"/>
<polygon fill="#9a32cd" stroke="#9a32cd" points="272.74,-447.86 262.21,-446.64 269.68,-454.16 272.74,-447.86"/>
<text text-anchor="middle" x="822" y="-524" font-family="Helvetica,sans-Serif" font-size="10.00"> logger</text>
</g>
<!-- Node24 -->
<g id="node24" class="node">
<title>Node24</title>
<g id="a_node24"><a xlink:href="classdenoptim_1_1programs_1_1_run_time_parameters.html" target="_top" xlink:title="Collection of parameters controlling the behavior of the software.">
<polygon fill="white" stroke="black" points="458.5,-205 458.5,-235 598.5,-235 598.5,-205 458.5,-205"/>
<text text-anchor="start" x="466.5" y="-223" font-family="Helvetica,sans-Serif" font-size="10.00">denoptim.programs.RunTime</text>
<text text-anchor="middle" x="528.5" y="-212" font-family="Helvetica,sans-Serif" font-size="10.00">Parameters</text>
</a>
</g>
</g>
<!-- Node13&#45;&gt;Node24 -->
<g id="edge29" class="edge">
<title>Node13&#45;&gt;Node24</title>
<path fill="none" stroke="#9a32cd" stroke-dasharray="5,2" d="M262.86,-420.92C298.29,-391.23 375.45,-325.33 436,-265 444.47,-256.56 444.02,-251.58 454,-245 459.74,-241.22 466.11,-237.95 472.63,-235.14"/>
<polygon fill="#9a32cd" stroke="#9a32cd" points="260.61,-418.24 255.18,-427.34 265.1,-423.61 260.61,-418.24"/>
<text text-anchor="middle" x="398.5" y="-336" font-family="Helvetica,sans-Serif" font-size="10.00"> logger</text>
</g>
<!-- Node14&#45;&gt;Node7 -->
<g id="edge15" class="edge">
<title>Node14&#45;&gt;Node7</title>
<path fill="none" stroke="#9a32cd" stroke-dasharray="5,2" d="M905.59,-338.04C934.55,-333.95 967.26,-329.07 997,-324 1005.1,-322.62 1013.61,-321.06 1022,-319.47"/>
<polygon fill="#9a32cd" stroke="#9a32cd" points="904.93,-334.59 895.51,-339.45 905.9,-341.53 904.93,-334.59"/>
<text text-anchor="middle" x="957.5" y="-338" font-family="Helvetica,sans-Serif" font-size="10.00"> scs</text>
</g>
<!-- Node15 -->
<g id="node15" class="node">
<title>Node15</title>
<g id="a_node15"><a xlink:title=" ">
<polygon fill="white" stroke="black" points="491.5,-319.5 491.5,-338.5 565.5,-338.5 565.5,-319.5 491.5,-319.5"/>
<text text-anchor="middle" x="528.5" y="-326.5" font-family="Helvetica,sans-Serif" font-size="10.00">Set&lt; String &gt;</text>
</a>
</g>
</g>
<!-- Node15&#45;&gt;Node7 -->
<g id="edge18" class="edge">
<title>Node15&#45;&gt;Node7</title>
<path fill="none" stroke="#9a32cd" stroke-dasharray="5,2" d="M575.8,-326.69C619.24,-324.56 686.02,-321.38 744,-319 841.09,-315.02 953.85,-311.18 1021.75,-308.96"/>
<polygon fill="#9a32cd" stroke="#9a32cd" points="575.37,-323.21 565.55,-327.2 575.71,-330.2 575.37,-323.21"/>
<text text-anchor="middle" x="822" y="-322" font-family="Helvetica,sans-Serif" font-size="10.00"> candidatesToRemove</text>
</g>
<!-- Node15&#45;&gt;Node14 -->
<g id="edge17" class="edge">
<title>Node15&#45;&gt;Node14</title>
<path fill="none" stroke="#9a32cd" stroke-dasharray="5,2" d="M575.61,-332.16C620.71,-335.26 690.23,-340.03 743.78,-343.7"/>
<polygon fill="#9a32cd" stroke="#9a32cd" points="575.75,-328.67 565.54,-331.47 575.27,-335.65 575.75,-328.67"/>
<text text-anchor="middle" x="673.5" y="-344" font-family="Helvetica,sans-Serif" font-size="10.00"> data</text>
</g>
<!-- Node16 -->
<g id="node16" class="node">
<title>Node16</title>
<g id="a_node16"><a xlink:title=" ">
<polygon fill="white" stroke="black" points="784.5,-465.5 784.5,-484.5 859.5,-484.5 859.5,-465.5 784.5,-465.5"/>
<text text-anchor="middle" x="822" y="-472.5" font-family="Helvetica,sans-Serif" font-size="10.00">List&lt; String &gt;</text>
</a>
</g>
</g>
<!-- Node16&#45;&gt;Node7 -->
<g id="edge19" class="edge">
<title>Node16&#45;&gt;Node7</title>
<path fill="none" stroke="#9a32cd" stroke-dasharray="5,2" d="M869.69,-482.28C908.9,-485.55 963.7,-483.01 997,-451 1029.87,-419.4 989.57,-387.85 1015,-350 1022.95,-338.17 1035.36,-328.95 1047.41,-322.12"/>
<polygon fill="#9a32cd" stroke="#9a32cd" points="869.87,-478.78 859.58,-481.28 869.19,-485.74 869.87,-478.78"/>
<text text-anchor="middle" x="957.5" y="-485" font-family="Helvetica,sans-Serif" font-size="10.00"> candidatesToAdd</text>
</g>
<!-- Node17 -->
<g id="node17" class="node">
<title>Node17</title>
<g id="a_node17"><a xlink:title=" ">
<polygon fill="white" stroke="black" points="467.5,-157.5 467.5,-176.5 589.5,-176.5 589.5,-157.5 467.5,-157.5"/>
<text text-anchor="middle" x="528.5" y="-164.5" font-family="Helvetica,sans-Serif" font-size="10.00">List&lt; Future&lt; Object &gt; &gt;</text>
</a>
</g>
</g>
<!-- Node17&#45;&gt;Node7 -->
<g id="edge20" class="edge">
<title>Node17&#45;&gt;Node7</title>
<path fill="none" stroke="#9a32cd" stroke-dasharray="5,2" d="M599.77,-167.07C691.04,-167.74 845.17,-171.01 900,-185 946.42,-196.85 957.04,-205.58 997,-232 1024.1,-249.92 1051.77,-275.66 1068.16,-291.85"/>
<polygon fill="#9a32cd" stroke="#9a32cd" points="599.53,-163.57 589.51,-167.01 599.48,-170.57 599.53,-163.57"/>
<text text-anchor="middle" x="822" y="-188" font-family="Helvetica,sans-Serif" font-size="10.00"> futures</text>
</g>
<!-- Node20 -->
<g id="node20" class="node">
<title>Node20</title>
<g id="a_node20"><a xlink:href="classdenoptim_1_1task_1_1_tasks_batch_manager.html" target="_top" xlink:title="Class that manages the submission of a batch of tasks.">
<polygon fill="white" stroke="black" points="756,-104 756,-134 888,-134 888,-104 756,-104"/>
<text text-anchor="start" x="764" y="-122" font-family="Helvetica,sans-Serif" font-size="10.00">denoptim.task.TasksBatch</text>
<text text-anchor="middle" x="822" y="-111" font-family="Helvetica,sans-Serif" font-size="10.00">Manager</text>
</a>
</g>
</g>
<!-- Node17&#45;&gt;Node20 -->
<g id="edge26" class="edge">
<title>Node17&#45;&gt;Node20</title>
<path fill="none" stroke="#9a32cd" stroke-dasharray="5,2" d="M589.3,-155.62C599.85,-153.69 610.74,-151.75 621,-150 665.86,-142.36 716.51,-134.52 755.62,-128.63"/>
<polygon fill="#9a32cd" stroke="#9a32cd" points="588.51,-152.21 579.31,-157.47 589.78,-159.09 588.51,-152.21"/>
<text text-anchor="middle" x="673.5" y="-153" font-family="Helvetica,sans-Serif" font-size="10.00"> futures</text>
</g>
<!-- Node18 -->
<g id="node18" class="node">
<title>Node18</title>
<g id="a_node18"><a xlink:title=" ">
<polygon fill="white" stroke="black" points="758.5,-378 758.5,-408 885.5,-408 885.5,-378 758.5,-378"/>
<text text-anchor="start" x="766.5" y="-396" font-family="Helvetica,sans-Serif" font-size="10.00">ArrayList&lt; denoptim.task.</text>
<text text-anchor="middle" x="822" y="-385" font-family="Helvetica,sans-Serif" font-size="10.00">FitnessTask &gt;</text>
</a>
</g>
</g>
<!-- Node18&#45;&gt;Node7 -->
<g id="edge21" class="edge">
<title>Node18&#45;&gt;Node7</title>
<path fill="none" stroke="#9a32cd" stroke-dasharray="5,2" d="M895.66,-378.82C927.28,-371.69 964.46,-361.99 997,-350 1017.68,-342.38 1039.89,-331.19 1056.57,-322.13"/>
<polygon fill="#9a32cd" stroke="#9a32cd" points="894.61,-375.47 885.61,-381.04 896.13,-382.3 894.61,-375.47"/>
<text text-anchor="middle" x="957.5" y="-375" font-family="Helvetica,sans-Serif" font-size="10.00"> submitted</text>
</g>
<!-- Node19 -->
<g id="node19" class="node">
<title>Node19</title>
<g id="a_node19"><a xlink:title=" ">
<polygon fill="white" stroke="black" points="770,-254.5 770,-273.5 874,-273.5 874,-254.5 770,-254.5"/>
<text text-anchor="middle" x="822" y="-261.5" font-family="Helvetica,sans-Serif" font-size="10.00">ThreadPoolExecutor</text>
</a>
</g>
</g>
<!-- Node19&#45;&gt;Node7 -->
<g id="edge22" class="edge">
<title>Node19&#45;&gt;Node7</title>
<path fill="none" stroke="#9a32cd" stroke-dasharray="5,2" d="M884.37,-269.44C917.83,-272.89 959.87,-278.04 997,-285 1007.3,-286.93 1018.2,-289.39 1028.65,-291.96"/>
<polygon fill="#9a32cd" stroke="#9a32cd" points="884.58,-265.94 874.28,-268.42 883.88,-272.9 884.58,-265.94"/>
<text text-anchor="middle" x="957.5" y="-288" font-family="Helvetica,sans-Serif" font-size="10.00"> tpe</text>
</g>
<!-- Node20&#45;&gt;Node7 -->
<g id="edge23" class="edge">
<title>Node20&#45;&gt;Node7</title>
<path fill="none" stroke="#9a32cd" stroke-dasharray="5,2" d="M898.23,-118.22C931.15,-121.25 968.66,-129.64 997,-150 1046.72,-185.72 1070.85,-259.44 1079.32,-291.52"/>
<polygon fill="#9a32cd" stroke="#9a32cd" points="898.41,-114.72 888.17,-117.44 897.87,-121.7 898.41,-114.72"/>
<text text-anchor="middle" x="957.5" y="-153" font-family="Helvetica,sans-Serif" font-size="10.00"> tbm</text>
</g>
<!-- Node21 -->
<g id="node21" class="node">
<title>Node21</title>
<g id="a_node21"><a xlink:title=" ">
<polygon fill="white" stroke="black" points="465,-100 465,-130 592,-130 592,-100 465,-100"/>
<text text-anchor="start" x="473" y="-118" font-family="Helvetica,sans-Serif" font-size="10.00">ArrayList&lt; denoptim.task.</text>
<text text-anchor="middle" x="528.5" y="-107" font-family="Helvetica,sans-Serif" font-size="10.00">Task &gt;</text>
</a>
</g>
</g>
<!-- Node21&#45;&gt;Node20 -->
<g id="edge24" class="edge">
<title>Node21&#45;&gt;Node20</title>
<path fill="none" stroke="#9a32cd" stroke-dasharray="5,2" d="M602.53,-114.91C639.53,-114.98 685.16,-115.25 726,-116 735.65,-116.18 745.85,-116.43 755.85,-116.71"/>
<polygon fill="#9a32cd" stroke="#9a32cd" points="602.34,-111.41 592.34,-114.9 602.33,-118.41 602.34,-111.41"/>
<text text-anchor="middle" x="673.5" y="-119" font-family="Helvetica,sans-Serif" font-size="10.00"> taskList</text>
</g>
<!-- Node22 -->
<g id="node22" class="node">
<title>Node22</title>
<g id="a_node22"><a xlink:title=" ">
<polygon fill="white" stroke="black" points="485,-50.5 485,-69.5 572,-69.5 572,-50.5 485,-50.5"/>
<text text-anchor="middle" x="528.5" y="-57.5" font-family="Helvetica,sans-Serif" font-size="10.00">ExecutorService</text>
</a>
</g>
</g>
<!-- Node22&#45;&gt;Node1 -->
<g id="edge37" class="edge">
<title>Node22&#45;&gt;Node1</title>
<path fill="none" stroke="#9a32cd" stroke-dasharray="5,2" d="M582.54,-56.5C640.94,-52.96 737.62,-48 821,-48 821,-48 821,-48 1312.5,-48 1434.23,-48 1518.25,-206.73 1541.79,-256.95"/>
<polygon fill="#9a32cd" stroke="#9a32cd" points="582.21,-53.02 572.45,-57.13 582.64,-60 582.21,-53.02"/>
<text text-anchor="middle" x="1084" y="-51" font-family="Helvetica,sans-Serif" font-size="10.00"> executor</text>
</g>
<!-- Node22&#45;&gt;Node20 -->
<g id="edge25" class="edge">
<title>Node22&#45;&gt;Node20</title>
<path fill="none" stroke="#9a32cd" stroke-dasharray="5,2" d="M582.22,-70.67C630.93,-80.53 703.47,-95.21 755.81,-105.8"/>
<polygon fill="#9a32cd" stroke="#9a32cd" points="582.69,-67.2 572.2,-68.64 581.31,-74.06 582.69,-67.2"/>
<text text-anchor="middle" x="673.5" y="-102" font-family="Helvetica,sans-Serif" font-size="10.00"> eservice</text>
</g>
<!-- Node23 -->
<g id="node23" class="node">
<title>Node23</title>
<g id="a_node23"><a xlink:href="classdenoptim_1_1programs_1_1denovo_1_1_g_a_parameters.html" target="_top" xlink:title="Parameters for genetic algorithm.">
<polygon fill="white" stroke="black" points="754.5,-205 754.5,-235 889.5,-235 889.5,-205 754.5,-205"/>
<text text-anchor="start" x="762.5" y="-223" font-family="Helvetica,sans-Serif" font-size="10.00">denoptim.programs.denovo.</text>
<text text-anchor="middle" x="822" y="-212" font-family="Helvetica,sans-Serif" font-size="10.00">GAParameters</text>
</a>
</g>
</g>
<!-- Node23&#45;&gt;Node7 -->
<g id="edge27" class="edge">
<title>Node23&#45;&gt;Node7</title>
<path fill="none" stroke="#9a32cd" stroke-dasharray="5,2" d="M899.5,-231.52C930.4,-237.5 966,-246.1 997,-258 1019.94,-266.8 1044.09,-281.06 1060.93,-291.93"/>
<polygon fill="#9a32cd" stroke="#9a32cd" points="900.12,-228.08 889.65,-229.67 898.83,-234.96 900.12,-228.08"/>
<text text-anchor="middle" x="957.5" y="-261" font-family="Helvetica,sans-Serif" font-size="10.00"> settings</text>
</g>
<!-- Node24&#45;&gt;Node23 -->
<g id="edge28" class="edge">
<title>Node24&#45;&gt;Node23</title>
<path fill="none" stroke="midnightblue" d="M608.74,-220C654.38,-220 711.1,-220 754.42,-220"/>
<polygon fill="midnightblue" stroke="midnightblue" points="608.58,-216.5 598.58,-220 608.58,-223.5 608.58,-216.5"/>
</g>
<!-- Node25 -->
<g id="node25" class="node">
<title>Node25</title>
<g id="a_node25"><a xlink:href="classdenoptim_1_1utils_1_1_randomizer.html" target="_top" xlink:title="Tool to generate random numbers and random decisions.">
<polygon fill="white" stroke="black" points="177.5,-166.5 177.5,-185.5 307.5,-185.5 307.5,-166.5 177.5,-166.5"/>
<text text-anchor="middle" x="242.5" y="-173.5" font-family="Helvetica,sans-Serif" font-size="10.00">denoptim.utils.Randomizer</text>
</a>
</g>
</g>
<!-- Node25&#45;&gt;Node24 -->
<g id="edge30" class="edge">
<title>Node25&#45;&gt;Node24</title>
<path fill="none" stroke="#9a32cd" stroke-dasharray="5,2" d="M318.04,-187C353.74,-192.33 397.1,-198.88 436,-205 443.16,-206.13 450.62,-207.32 458.07,-208.52"/>
<polygon fill="#9a32cd" stroke="#9a32cd" points="318.11,-183.47 307.7,-185.46 317.07,-190.39 318.11,-183.47"/>
<text text-anchor="middle" x="398.5" y="-208" font-family="Helvetica,sans-Serif" font-size="10.00"> rng</text>
</g>
<!-- Node26 -->
<g id="node26" class="node">
<title>Node26</title>
<g id="a_node26"><a xlink:title=" ">
<polygon fill="white" stroke="black" points="0,-166.5 0,-185.5 92,-185.5 92,-166.5 0,-166.5"/>
<text text-anchor="middle" x="46" y="-173.5" font-family="Helvetica,sans-Serif" font-size="10.00">MersenneTwister</text>
</a>
</g>
</g>
<!-- Node26&#45;&gt;Node25 -->
<g id="edge31" class="edge">
<title>Node26&#45;&gt;Node25</title>
<path fill="none" stroke="#9a32cd" stroke-dasharray="5,2" d="M102.23,-176C125.67,-176 153.15,-176 177.48,-176"/>
<polygon fill="#9a32cd" stroke="#9a32cd" points="102.11,-172.5 92.11,-176 102.11,-179.5 102.11,-172.5"/>
<text text-anchor="middle" x="117" y="-179" font-family="Helvetica,sans-Serif" font-size="10.00"> mt</text>
</g>
<!-- Node27 -->
<g id="node27" class="node">
<title>Node27</title>
<g id="a_node27"><a xlink:title=" ">
<polygon fill="white" stroke="black" points="142,-253.5 142,-294.5 343,-294.5 343,-253.5 142,-253.5"/>
<text text-anchor="start" x="150" y="-282.5" font-family="Helvetica,sans-Serif" font-size="10.00">Map&lt; denoptim.programs.Run</text>
<text text-anchor="start" x="150" y="-271.5" font-family="Helvetica,sans-Serif" font-size="10.00">TimeParameters.ParametersType,</text>
<text text-anchor="middle" x="242.5" y="-260.5" font-family="Helvetica,sans-Serif" font-size="10.00"> denoptim.programs.RunTimeParameters &gt;</text>
</a>
</g>
</g>
<!-- Node27&#45;&gt;Node24 -->
<g id="edge32" class="edge">
<title>Node27&#45;&gt;Node24</title>
<path fill="none" stroke="#9a32cd" stroke-dasharray="5,2" d="M353.13,-253.16C388.51,-246.43 426.73,-239.16 458.34,-233.15"/>
<polygon fill="#9a32cd" stroke="#9a32cd" points="352.4,-249.73 343.23,-255.04 353.71,-256.61 352.4,-249.73"/>
<text text-anchor="middle" x="398.5" y="-253" font-family="Helvetica,sans-Serif" font-size="10.00"> otherParameters</text>
</g>
<!-- Node28 -->
<g id="node28" class="node">
<title>Node28</title>
<g id="a_node28"><a xlink:href="enumdenoptim_1_1programs_1_1_run_time_parameters_1_1_parameters_type.html" target="_top" xlink:title="Identifier of the type of parameters.">
<polygon fill="white" stroke="black" points="172.5,-205 172.5,-235 312.5,-235 312.5,-205 172.5,-205"/>
<text text-anchor="start" x="180.5" y="-223" font-family="Helvetica,sans-Serif" font-size="10.00">denoptim.programs.RunTime</text>
<text text-anchor="middle" x="242.5" y="-212" font-family="Helvetica,sans-Serif" font-size="10.00">Parameters.ParametersType</text>
</a>
</g>
</g>
<!-- Node28&#45;&gt;Node24 -->
<g id="edge33" class="edge">
<title>Node28&#45;&gt;Node24</title>
<path fill="none" stroke="#9a32cd" stroke-dasharray="5,2" d="M322.65,-220C365.18,-220 417.13,-220 458.08,-220"/>
<polygon fill="#9a32cd" stroke="#9a32cd" points="322.61,-216.5 312.61,-220 322.61,-223.5 322.61,-216.5"/>
<text text-anchor="middle" x="398.5" y="-223" font-family="Helvetica,sans-Serif" font-size="10.00"> paramType</text>
</g>
<!-- Node29 -->
<g id="node29" class="node">
<title>Node29</title>
<g id="a_node29"><a xlink:title=" ">
<polygon fill="white" stroke="black" points="458,-254 458,-284 599,-284 599,-254 458,-254"/>
<text text-anchor="start" x="466" y="-272" font-family="Helvetica,sans-Serif" font-size="10.00">List&lt; denoptim.utils.Mutation</text>
<text text-anchor="middle" x="528.5" y="-261" font-family="Helvetica,sans-Serif" font-size="10.00">Type &gt;</text>
</a>
</g>
</g>
<!-- Node29&#45;&gt;Node23 -->
<g id="edge34" class="edge">
<title>Node29&#45;&gt;Node23</title>
<path fill="none" stroke="#9a32cd" stroke-dasharray="5,2" d="M609.44,-255.56C654.9,-247.92 711.18,-238.46 754.25,-231.22"/>
<polygon fill="#9a32cd" stroke="#9a32cd" points="608.6,-252.15 599.32,-257.26 609.76,-259.06 608.6,-252.15"/>
<text text-anchor="middle" x="673.5" y="-256" font-family="Helvetica,sans-Serif" font-size="10.00"> excludedMutationTypes</text>
</g>
<!-- Node30 -->
<g id="node30" class="node">
<title>Node30</title>
<g id="a_node30"><a xlink:title=" ">
<polygon fill="white" stroke="black" points="1280.5,-0.5 1280.5,-19.5 1342.5,-19.5 1342.5,-0.5 1280.5,-0.5"/>
<text text-anchor="middle" x="1311.5" y="-7.5" font-family="Helvetica,sans-Serif" font-size="10.00">Future&lt;?&gt;</text>
</a>
</g>
</g>
<!-- Node30&#45;&gt;Node1 -->
<g id="edge38" class="edge">
<title>Node30&#45;&gt;Node1</title>
<path fill="none" stroke="#9a32cd" stroke-dasharray="5,2" d="M1353.02,-2.26C1386.31,1.69 1432.87,1.39 1464,-23 1539.64,-82.27 1548.02,-212.42 1548.61,-256.82"/>
<polygon fill="#9a32cd" stroke="#9a32cd" points="1352.15,1.15 1342.72,-3.67 1353.1,-5.78 1352.15,1.15"/>
<text text-anchor="middle" x="1429.5" y="-26" font-family="Helvetica,sans-Serif" font-size="10.00"> futureWatchers</text>
</g>
</g>
</svg>
