<?xml version="1.0" encoding="UTF-8" standalone="no"?>
<!DOCTYPE svg PUBLIC "-//W3C//DTD SVG 1.1//EN"
 "http://www.w3.org/Graphics/SVG/1.1/DTD/svg11.dtd">
<!-- Generated by graphviz version 3.0.0 (20220413.0242)
 -->
<!-- Title: denoptim.graph.Edge.getTrgAPClass Pages: 1 -->
<!--zoomable 323 -->
<svg id="main" version="1.1" xmlns="http://www.w3.org/2000/svg" xmlns:xlink="http://www.w3.org/1999/xlink" xml:space="preserve" onload="init(evt)">
<style type="text/css"><![CDATA[
.edge:hover path { stroke: red; }
.edge:hover polygon { stroke: red; fill: red; }
]]></style>
<script type="text/javascript"><![CDATA[
var edges = document.getElementsByTagName('g');
if (edges && edges.length) {
  for (var i=0;i<edges.length;i++) {
    if (edges[i].id.substr(0,4)=='edge') {
      edges[i].setAttribute('class','edge');
    }
  }
}
]]></script>
        <defs>
                <circle id="rim" cx="0" cy="0" r="7"/>
                <circle id="rim2" cx="0" cy="0" r="3.5"/>
                <g id="zoomPlus">
                        <use xlink:href="#rim" fill="#404040">
                                <set attributeName="fill" to="#808080" begin="zoomplus.mouseover" end="zoomplus.mouseout"/>
                        </use>
                        <path d="M-4,0h8M0,-4v8" fill="none" stroke="white" stroke-width="1.5" pointer-events="none"/>
                </g>
                <g id="zoomMin">
                        <use xlink:href="#rim" fill="#404040">
                                <set attributeName="fill" to="#808080" begin="zoomminus.mouseover" end="zoomminus.mouseout"/>
                        </use>
                        <path d="M-4,0h8" fill="none" stroke="white" stroke-width="1.5" pointer-events="none"/>
                </g>
                <g id="dirArrow">
                        <path fill="none" stroke="white" stroke-width="1.5" d="M0,-3.0v7 M-2.5,-0.5L0,-3.0L2.5,-0.5"/>
                </g>
               <g id="resetDef">
                       <use xlink:href="#rim2" fill="#404040">
                               <set attributeName="fill" to="#808080" begin="reset.mouseover" end="reset.mouseout"/>
                       </use>
               </g>
        </defs>

<script type="text/javascript">
var viewWidth = 1340;
var viewHeight = 323;
var sectionId = 'dynsection-18';
</script>
<script xlink:href="svgpan.js"/>
<svg id="graph" class="graph">
<g id="viewport">
<title>denoptim.graph.Edge.getTrgAPClass</title>
<polygon fill="white" stroke="transparent" points="-4,4 -4,-319 1336,-319 1336,4 -4,4"/>
<!-- Node1 -->
<g id="node1" class="node">
<title>Node1</title>
<g id="a_node1"><a xlink:title=" ">
<polygon fill="#bfbfbf" stroke="black" points="1195,-113.5 1195,-143.5 1332,-143.5 1332,-113.5 1195,-113.5"/>
<text text-anchor="start" x="1203" y="-131.5" font-family="Helvetica,sans-Serif" font-size="10.00">denoptim.graph.Edge.getTrg</text>
<text text-anchor="middle" x="1263.5" y="-120.5" font-family="Helvetica,sans-Serif" font-size="10.00">APClass</text>
</a>
</g>
</g>
<!-- Node2 -->
<g id="node2" class="node">
<title>Node2</title>
<g id="a_node2"><a xlink:href="classdenoptim_1_1graph_1_1rings_1_1_cyclic_graph_handler.html#a3608d608f5dc3f2e3cebb95929681410" target="_top" xlink:title="Evaluates the combination of a DENOPTIMGraph and a set of DENOPTIMRings and decides whether it&#39;s a pr...">
<polygon fill="white" stroke="black" points="989,-147.5 989,-177.5 1159,-177.5 1159,-147.5 989,-147.5"/>
<text text-anchor="start" x="997" y="-165.5" font-family="Helvetica,sans-Serif" font-size="10.00">denoptim.graph.rings.Cyclic</text>
<text text-anchor="middle" x="1074" y="-154.5" font-family="Helvetica,sans-Serif" font-size="10.00">GraphHandler.checkChelatesGraph</text>
</a>
</g>
</g>
<!-- Node1&#45;&gt;Node2 -->
<g id="edge1" class="edge">
<title>Node1&#45;&gt;Node2</title>
<path fill="none" stroke="midnightblue" d="M1184.88,-142.58C1175.99,-144.19 1166.91,-145.83 1157.96,-147.46"/>
<polygon fill="midnightblue" stroke="midnightblue" points="1185.59,-146 1194.81,-140.77 1184.34,-139.12 1185.59,-146"/>
</g>
<!-- Node14 -->
<g id="node14" class="node">
<title>Node14</title>
<g id="a_node14"><a xlink:href="classdenoptim_1_1ga_1_1_graph_operations.html#a4f66827484cc4de0ac568545fb2033c2" target="_top" xlink:title="Evaluate AP class&#45;compatibility of a pair of edges with respect to crossover.">
<polygon fill="white" stroke="black" points="996.5,-89.5 996.5,-119.5 1151.5,-119.5 1151.5,-89.5 996.5,-89.5"/>
<text text-anchor="start" x="1004.5" y="-107.5" font-family="Helvetica,sans-Serif" font-size="10.00">denoptim.ga.GraphOperations.is</text>
<text text-anchor="middle" x="1074" y="-96.5" font-family="Helvetica,sans-Serif" font-size="10.00">CrossoverPossible</text>
</a>
</g>
</g>
<!-- Node1&#45;&gt;Node14 -->
<g id="edge15" class="edge">
<title>Node1&#45;&gt;Node14</title>
<path fill="none" stroke="midnightblue" d="M1184.8,-118.55C1173.8,-117.15 1162.48,-115.7 1151.5,-114.29"/>
<polygon fill="midnightblue" stroke="midnightblue" points="1184.44,-122.04 1194.81,-119.84 1185.33,-115.09 1184.44,-122.04"/>
</g>
<!-- Node3 -->
<g id="node3" class="node">
<title>Node3</title>
<g id="a_node3"><a xlink:href="classdenoptim_1_1graph_1_1_d_graph.html#a7a4743d014e860237f4b20703ef9779b" target="_top" xlink:title="Evaluates the possibility of closing rings in this graph and generates all alternative graphs resulti...">
<polygon fill="white" stroke="black" points="789,-147.5 789,-177.5 944,-177.5 944,-147.5 789,-147.5"/>
<text text-anchor="start" x="797" y="-165.5" font-family="Helvetica,sans-Serif" font-size="10.00">denoptim.graph.DGraph.make</text>
<text text-anchor="middle" x="866.5" y="-154.5" font-family="Helvetica,sans-Serif" font-size="10.00">AllGraphsWithDifferentRingSets</text>
</a>
</g>
</g>
<!-- Node2&#45;&gt;Node3 -->
<g id="edge2" class="edge">
<title>Node2&#45;&gt;Node3</title>
<path fill="none" stroke="midnightblue" d="M978.74,-162.5C967.2,-162.5 955.52,-162.5 944.28,-162.5"/>
<polygon fill="midnightblue" stroke="midnightblue" points="978.82,-166 988.82,-162.5 978.82,-159 978.82,-166"/>
</g>
<!-- Node5 -->
<g id="node5" class="node">
<title>Node5</title>
<g id="a_node5"><a xlink:href="classdenoptim_1_1ga_1_1_e_a_utils.html#a1ddb932d4618434d435e4f85ce5e5eb5" target="_top" xlink:title="Evaluates the possibility of closing rings in a given graph and if any ring can be closed,...">
<polygon fill="white" stroke="black" points="801,-215.5 801,-245.5 932,-245.5 932,-215.5 801,-215.5"/>
<text text-anchor="start" x="809" y="-233.5" font-family="Helvetica,sans-Serif" font-size="10.00">denoptim.ga.EAUtils.setup</text>
<text text-anchor="middle" x="866.5" y="-222.5" font-family="Helvetica,sans-Serif" font-size="10.00">Rings</text>
</a>
</g>
</g>
<!-- Node2&#45;&gt;Node5 -->
<g id="edge4" class="edge">
<title>Node2&#45;&gt;Node5</title>
<path fill="none" stroke="midnightblue" d="M1017.77,-180.78C985.01,-191.62 943.99,-205.19 913.09,-215.41"/>
<polygon fill="midnightblue" stroke="midnightblue" points="1019.25,-183.97 1027.65,-177.51 1017.05,-177.33 1019.25,-183.97"/>
</g>
<!-- Node4 -->
<g id="node4" class="node">
<title>Node4</title>
<g id="a_node4"><a xlink:href="classdenoptim_1_1combinatorial_1_1_graph_building_task.html#a3eaee724fc921194fa158714aafe182d" target="_top" xlink:title="Calls the task.">
<polygon fill="white" stroke="black" points="577,-147.5 577,-177.5 722,-177.5 722,-147.5 577,-147.5"/>
<text text-anchor="start" x="585" y="-165.5" font-family="Helvetica,sans-Serif" font-size="10.00">denoptim.combinatorial.Graph</text>
<text text-anchor="middle" x="649.5" y="-154.5" font-family="Helvetica,sans-Serif" font-size="10.00">BuildingTask.call</text>
</a>
</g>
</g>
<!-- Node3&#45;&gt;Node4 -->
<g id="edge3" class="edge">
<title>Node3&#45;&gt;Node4</title>
<path fill="none" stroke="midnightblue" d="M778.76,-162.5C759.96,-162.5 740.29,-162.5 722.15,-162.5"/>
<polygon fill="midnightblue" stroke="midnightblue" points="778.79,-166 788.79,-162.5 778.79,-159 778.79,-166"/>
</g>
<!-- Node6 -->
<g id="node6" class="node">
<title>Node6</title>
<g id="a_node6"><a xlink:href="classdenoptim_1_1ga_1_1_e_a_utils.html#a5cb6bbe9f383bf821f3b1f1c5e60031b" target="_top" xlink:title=" ">
<polygon fill="white" stroke="black" points="586,-235.5 586,-265.5 713,-265.5 713,-235.5 586,-235.5"/>
<text text-anchor="start" x="594" y="-253.5" font-family="Helvetica,sans-Serif" font-size="10.00">denoptim.ga.EAUtils.build</text>
<text text-anchor="middle" x="649.5" y="-242.5" font-family="Helvetica,sans-Serif" font-size="10.00">CandidateByMutation</text>
</a>
</g>
</g>
<!-- Node5&#45;&gt;Node6 -->
<g id="edge5" class="edge">
<title>Node5&#45;&gt;Node6</title>
<path fill="none" stroke="midnightblue" d="M791.03,-237.43C765.63,-239.79 737.49,-242.41 713.11,-244.68"/>
<polygon fill="midnightblue" stroke="midnightblue" points="791.36,-240.91 800.99,-236.5 790.71,-233.94 791.36,-240.91"/>
</g>
<!-- Node11 -->
<g id="node11" class="node">
<title>Node11</title>
<g id="a_node11"><a xlink:href="classdenoptim_1_1ga_1_1_e_a_utils.html#a98553265dd4b441b11c6d97d098edb08" target="_top" xlink:title="Generates a new offspring by performing a crossover operation.">
<polygon fill="white" stroke="black" points="190,-164.5 190,-194.5 317,-194.5 317,-164.5 190,-164.5"/>
<text text-anchor="start" x="198" y="-182.5" font-family="Helvetica,sans-Serif" font-size="10.00">denoptim.ga.EAUtils.build</text>
<text text-anchor="middle" x="253.5" y="-171.5" font-family="Helvetica,sans-Serif" font-size="10.00">CandidateByXOver</text>
</a>
</g>
</g>
<!-- Node5&#45;&gt;Node11 -->
<g id="edge10" class="edge">
<title>Node5&#45;&gt;Node11</title>
<path fill="none" stroke="midnightblue" d="M790.65,-224.25C669.03,-214.1 430.73,-194.21 317.34,-184.75"/>
<polygon fill="midnightblue" stroke="midnightblue" points="790.72,-227.77 800.98,-225.11 791.31,-220.79 790.72,-227.77"/>
</g>
<!-- Node12 -->
<g id="node12" class="node">
<title>Node12</title>
<g id="a_node12"><a xlink:href="classdenoptim_1_1ga_1_1_e_a_utils.html#ad3d2daeb11e68a356e971ca1846596b5" target="_top" xlink:title=" ">
<polygon fill="white" stroke="black" points="586,-284.5 586,-314.5 713,-314.5 713,-284.5 586,-284.5"/>
<text text-anchor="start" x="594" y="-302.5" font-family="Helvetica,sans-Serif" font-size="10.00">denoptim.ga.EAUtils.build</text>
<text text-anchor="middle" x="649.5" y="-291.5" font-family="Helvetica,sans-Serif" font-size="10.00">CandidateFromScratch</text>
</a>
</g>
</g>
<!-- Node5&#45;&gt;Node12 -->
<g id="edge11" class="edge">
<title>Node5&#45;&gt;Node12</title>
<path fill="none" stroke="midnightblue" d="M818.49,-249.2C796.12,-257.77 768.87,-267.72 744,-275.5 734,-278.63 723.31,-281.65 712.87,-284.45"/>
<polygon fill="midnightblue" stroke="midnightblue" points="820.01,-252.37 828.08,-245.5 817.49,-245.84 820.01,-252.37"/>
</g>
<!-- Node7 -->
<g id="node7" class="node">
<title>Node7</title>
<g id="a_node7"><a xlink:href="classdenoptim_1_1ga_1_1_evolutionary_algorithm.html#a596b2f5f0b097c5b67a6e5163bd6fe66" target="_top" xlink:title="Generates a given number of new candidate items and adds them to the current population.">
<polygon fill="white" stroke="black" points="369,-235.5 369,-265.5 503,-265.5 503,-235.5 369,-235.5"/>
<text text-anchor="start" x="377" y="-253.5" font-family="Helvetica,sans-Serif" font-size="10.00">denoptim.ga.Evolutionary</text>
<text text-anchor="middle" x="436" y="-242.5" font-family="Helvetica,sans-Serif" font-size="10.00">Algorithm.evolvePopulation</text>
</a>
</g>
</g>
<!-- Node6&#45;&gt;Node7 -->
<g id="edge6" class="edge">
<title>Node6&#45;&gt;Node7</title>
<path fill="none" stroke="midnightblue" d="M575.63,-250.5C552.09,-250.5 526.14,-250.5 503.12,-250.5"/>
<polygon fill="midnightblue" stroke="midnightblue" points="575.9,-254 585.9,-250.5 575.9,-247 575.9,-254"/>
</g>
<!-- Node8 -->
<g id="node8" class="node">
<title>Node8</title>
<g id="a_node8"><a xlink:href="classdenoptim_1_1ga_1_1_evolutionary_algorithm.html#a6bfc2fa59b199da6259b5b6bad3d6de7" target="_top" xlink:title=" ">
<polygon fill="white" stroke="black" points="191.5,-259.5 191.5,-289.5 315.5,-289.5 315.5,-259.5 191.5,-259.5"/>
<text text-anchor="start" x="199.5" y="-277.5" font-family="Helvetica,sans-Serif" font-size="10.00">denoptim.ga.Evolutionary</text>
<text text-anchor="middle" x="253.5" y="-266.5" font-family="Helvetica,sans-Serif" font-size="10.00">Algorithm.run</text>
</a>
</g>
</g>
<!-- Node7&#45;&gt;Node8 -->
<g id="edge7" class="edge">
<title>Node7&#45;&gt;Node8</title>
<path fill="none" stroke="midnightblue" d="M358.49,-260.67C344.16,-262.58 329.37,-264.55 315.59,-266.38"/>
<polygon fill="midnightblue" stroke="midnightblue" points="359.36,-264.09 368.81,-259.3 358.44,-257.15 359.36,-264.09"/>
</g>
<!-- Node9 -->
<g id="node9" class="node">
<title>Node9</title>
<g id="a_node9"><a xlink:href="classdenoptim_1_1ga_1_1_evolutionary_algorithm.html#a0f2063b722b7291daf83d62acaa683d3" target="_top" xlink:title=" ">
<polygon fill="white" stroke="black" points="0,-283.5 0,-313.5 154,-313.5 154,-283.5 0,-283.5"/>
<text text-anchor="start" x="8" y="-301.5" font-family="Helvetica,sans-Serif" font-size="10.00">denoptim.ga.Evolutionary</text>
<text text-anchor="middle" x="77" y="-290.5" font-family="Helvetica,sans-Serif" font-size="10.00">Algorithm.EvolutionaryAlgorithm</text>
</a>
</g>
</g>
<!-- Node8&#45;&gt;Node9 -->
<g id="edge8" class="edge">
<title>Node8&#45;&gt;Node9</title>
<path fill="none" stroke="midnightblue" d="M181.41,-284.28C172.39,-285.52 163.13,-286.79 154.03,-288.04"/>
<polygon fill="midnightblue" stroke="midnightblue" points="182.04,-287.72 191.47,-282.89 181.08,-280.79 182.04,-287.72"/>
</g>
<!-- Node10 -->
<g id="node10" class="node">
<title>Node10</title>
<g id="a_node10"><a xlink:href="classdenoptim_1_1programs_1_1denovo_1_1_g_a_runner.html#a7cafd6d78727b89dce3e2c8d06f0dd7c" target="_top" xlink:title=" ">
<polygon fill="white" stroke="black" points="9.5,-234.5 9.5,-264.5 144.5,-264.5 144.5,-234.5 9.5,-234.5"/>
<text text-anchor="start" x="17.5" y="-252.5" font-family="Helvetica,sans-Serif" font-size="10.00">denoptim.programs.denovo.</text>
<text text-anchor="middle" x="77" y="-241.5" font-family="Helvetica,sans-Serif" font-size="10.00">GARunner.runProgram</text>
</a>
</g>
</g>
<!-- Node8&#45;&gt;Node10 -->
<g id="edge9" class="edge">
<title>Node8&#45;&gt;Node10</title>
<path fill="none" stroke="midnightblue" d="M181.39,-264.31C169.25,-262.57 156.67,-260.77 144.65,-259.05"/>
<polygon fill="midnightblue" stroke="midnightblue" points="181.07,-267.8 191.47,-265.76 182.07,-260.87 181.07,-267.8"/>
</g>
<!-- Node12&#45;&gt;Node7 -->
<g id="edge12" class="edge">
<title>Node12&#45;&gt;Node7</title>
<path fill="none" stroke="midnightblue" d="M576.12,-282.73C552.08,-277.16 525.46,-271 502.01,-265.56"/>
<polygon fill="midnightblue" stroke="midnightblue" points="575.37,-286.15 585.9,-285 576.95,-279.33 575.37,-286.15"/>
</g>
<!-- Node13 -->
<g id="node13" class="node">
<title>Node13</title>
<g id="a_node13"><a xlink:href="classdenoptim_1_1ga_1_1_evolutionary_algorithm.html#ad43588620dab3340e0d8b0042ec73618" target="_top" xlink:title="Fills up the population with candidates build from scratch.">
<polygon fill="white" stroke="black" points="366,-284.5 366,-314.5 506,-314.5 506,-284.5 366,-284.5"/>
<text text-anchor="start" x="374" y="-302.5" font-family="Helvetica,sans-Serif" font-size="10.00">denoptim.ga.Evolutionary</text>
<text text-anchor="middle" x="436" y="-291.5" font-family="Helvetica,sans-Serif" font-size="10.00">Algorithm.initializePopulation</text>
</a>
</g>
</g>
<!-- Node12&#45;&gt;Node13 -->
<g id="edge13" class="edge">
<title>Node12&#45;&gt;Node13</title>
<path fill="none" stroke="midnightblue" d="M575.71,-299.5C553.16,-299.5 528.39,-299.5 506.1,-299.5"/>
<polygon fill="midnightblue" stroke="midnightblue" points="575.9,-303 585.9,-299.5 575.9,-296 575.9,-303"/>
</g>
<!-- Node13&#45;&gt;Node8 -->
<g id="edge14" class="edge">
<title>Node13&#45;&gt;Node8</title>
<path fill="none" stroke="midnightblue" d="M355.75,-288.52C342.26,-286.66 328.43,-284.74 315.5,-282.95"/>
<polygon fill="midnightblue" stroke="midnightblue" points="355.6,-292.04 365.99,-289.94 356.56,-285.1 355.6,-292.04"/>
</g>
<!-- Node15 -->
<g id="node15" class="node">
<title>Node15</title>
<g id="a_node15"><a xlink:href="classdenoptim_1_1ga_1_1_graph_operations.html#ad30a49493cb4fbbee21a7589929bc680" target="_top" xlink:title="Identify crossover sites, i.e., subgraphs that can be swapped between two graphs (i....">
<polygon fill="white" stroke="black" points="780,-65.5 780,-95.5 953,-95.5 953,-65.5 780,-65.5"/>
<text text-anchor="start" x="788" y="-83.5" font-family="Helvetica,sans-Serif" font-size="10.00">denoptim.ga.GraphOperations.locate</text>
<text text-anchor="middle" x="866.5" y="-72.5" font-family="Helvetica,sans-Serif" font-size="10.00">CompatibleXOverPoints</text>
</a>
</g>
</g>
<!-- Node14&#45;&gt;Node15 -->
<g id="edge16" class="edge">
<title>Node14&#45;&gt;Node15</title>
<path fill="none" stroke="midnightblue" d="M986.43,-94.39C975.39,-93.1 964.09,-91.78 953.07,-90.49"/>
<polygon fill="midnightblue" stroke="midnightblue" points="986.14,-97.88 996.48,-95.56 986.95,-90.93 986.14,-97.88"/>
</g>
<!-- Node15&#45;&gt;Node15 -->
<g id="edge22" class="edge">
<title>Node15&#45;&gt;Node15</title>
<path fill="none" stroke="midnightblue" d="M903.1,-105.96C898.56,-110.68 886.36,-114 866.5,-114 833.91,-114 821.94,-105.06 830.6,-95.66"/>
<polygon fill="midnightblue" stroke="midnightblue" points="906.57,-105.4 902.4,-95.66 899.59,-105.87 906.57,-105.4"/>
</g>
<!-- Node16 -->
<g id="node16" class="node">
<title>Node16</title>
<g id="a_node16"><a xlink:href="classdenoptim_1_1ga_1_1_population.html#ab303d612f90e917a7b1b49eadc93c76e" target="_top" xlink:title="Returns a list of population members that can do crossover with the specified member.">
<polygon fill="white" stroke="black" points="583,-49.5 583,-79.5 716,-79.5 716,-49.5 583,-49.5"/>
<text text-anchor="start" x="591" y="-67.5" font-family="Helvetica,sans-Serif" font-size="10.00">denoptim.ga.Population.get</text>
<text text-anchor="middle" x="649.5" y="-56.5" font-family="Helvetica,sans-Serif" font-size="10.00">XoverPartners</text>
</a>
</g>
</g>
<!-- Node15&#45;&gt;Node16 -->
<g id="edge17" class="edge">
<title>Node15&#45;&gt;Node16</title>
<path fill="none" stroke="midnightblue" d="M769.9,-73.39C751.77,-72.04 733.19,-70.65 716.25,-69.39"/>
<polygon fill="midnightblue" stroke="midnightblue" points="769.68,-76.88 779.91,-74.13 770.2,-69.9 769.68,-76.88"/>
</g>
<!-- Node20 -->
<g id="node20" class="node">
<title>Node20</title>
<g id="a_node20"><a xlink:href="classdenoptim_1_1programs_1_1genetweeker_1_1_gene_ops_runner.html#ab0f92a94c4fb2334e7d3813e73fc4247" target="_top" xlink:title=" ">
<polygon fill="white" stroke="black" points="570,-0.5 570,-30.5 729,-30.5 729,-0.5 570,-0.5"/>
<text text-anchor="start" x="578" y="-18.5" font-family="Helvetica,sans-Serif" font-size="10.00">denoptim.programs.genetweeker.</text>
<text text-anchor="middle" x="649.5" y="-7.5" font-family="Helvetica,sans-Serif" font-size="10.00">GeneOpsRunner.runXOver</text>
</a>
</g>
</g>
<!-- Node15&#45;&gt;Node20 -->
<g id="edge23" class="edge">
<title>Node15&#45;&gt;Node20</title>
<path fill="none" stroke="midnightblue" d="M813.98,-62.17C792.46,-54.76 767.14,-46.36 744,-39.5 733.64,-36.43 722.56,-33.38 711.79,-30.54"/>
<polygon fill="midnightblue" stroke="midnightblue" points="812.98,-65.53 823.57,-65.5 815.27,-58.92 812.98,-65.53"/>
</g>
<!-- Node22 -->
<g id="node22" class="node">
<title>Node22</title>
<g id="a_node22"><a xlink:href="classdenoptim_1_1ga_1_1_graph_operations_test.html#a9fcf8fffef10a59df722c92e94da2815" target="_top" xlink:title=" ">
<polygon fill="white" stroke="black" points="555,-98.5 555,-128.5 744,-128.5 744,-98.5 555,-98.5"/>
<text text-anchor="start" x="563" y="-116.5" font-family="Helvetica,sans-Serif" font-size="10.00">denoptim.ga.GraphOperations</text>
<text text-anchor="middle" x="649.5" y="-105.5" font-family="Helvetica,sans-Serif" font-size="10.00">Test.testLocateCompatibleXOverPoints</text>
</a>
</g>
</g>
<!-- Node15&#45;&gt;Node22 -->
<g id="edge25" class="edge">
<title>Node15&#45;&gt;Node22</title>
<path fill="none" stroke="midnightblue" d="M769.96,-95.17C761.43,-96.47 752.79,-97.8 744.28,-99.11"/>
<polygon fill="midnightblue" stroke="midnightblue" points="770.56,-98.61 779.91,-93.64 769.49,-91.7 770.56,-98.61"/>
</g>
<!-- Node17 -->
<g id="node17" class="node">
<title>Node17</title>
<g id="a_node17"><a xlink:href="classdenoptim_1_1ga_1_1_e_a_utils.html#af1c589b6d5ba261e1417f3cd299e8e5d" target="_top" xlink:title="Perform fitness&#45;based, class&#45;compatible selection of parents that can do crossover operations.">
<polygon fill="white" stroke="black" points="353,-99 353,-118 519,-118 519,-99 353,-99"/>
<text text-anchor="middle" x="436" y="-106" font-family="Helvetica,sans-Serif" font-size="10.00">denoptim.ga.EAUtils.performFBCC</text>
</a>
</g>
</g>
<!-- Node16&#45;&gt;Node17 -->
<g id="edge18" class="edge">
<title>Node16&#45;&gt;Node17</title>
<path fill="none" stroke="midnightblue" d="M572.71,-80.27C542.69,-86.51 509.16,-93.49 482.94,-98.94"/>
<polygon fill="midnightblue" stroke="midnightblue" points="573.66,-83.64 582.74,-78.18 572.24,-76.79 573.66,-83.64"/>
</g>
<!-- Node18 -->
<g id="node18" class="node">
<title>Node18</title>
<g id="a_node18"><a xlink:href="classdenoptim_1_1ga_1_1_population_test.html#a5db0672054a9fc1dbc923310732fdb3a" target="_top" xlink:title=" ">
<polygon fill="white" stroke="black" points="358.5,-49.5 358.5,-79.5 513.5,-79.5 513.5,-49.5 358.5,-49.5"/>
<text text-anchor="start" x="366.5" y="-67.5" font-family="Helvetica,sans-Serif" font-size="10.00">denoptim.ga.PopulationTest.test</text>
<text text-anchor="middle" x="436" y="-56.5" font-family="Helvetica,sans-Serif" font-size="10.00">Clone</text>
</a>
</g>
</g>
<!-- Node16&#45;&gt;Node18 -->
<g id="edge20" class="edge">
<title>Node16&#45;&gt;Node18</title>
<path fill="none" stroke="midnightblue" d="M572.59,-64.5C553.49,-64.5 532.98,-64.5 513.83,-64.5"/>
<polygon fill="midnightblue" stroke="midnightblue" points="572.74,-68 582.74,-64.5 572.74,-61 572.74,-68"/>
</g>
<!-- Node19 -->
<g id="node19" class="node">
<title>Node19</title>
<g id="a_node19"><a xlink:href="classdenoptim_1_1ga_1_1_population_test.html#a278212ebff2501b7071d342f9a027599" target="_top" xlink:title=" ">
<polygon fill="white" stroke="black" points="358.5,-137.5 358.5,-167.5 513.5,-167.5 513.5,-137.5 358.5,-137.5"/>
<text text-anchor="start" x="366.5" y="-155.5" font-family="Helvetica,sans-Serif" font-size="10.00">denoptim.ga.PopulationTest.test</text>
<text text-anchor="middle" x="436" y="-144.5" font-family="Helvetica,sans-Serif" font-size="10.00">XOverCompatibility</text>
</a>
</g>
</g>
<!-- Node16&#45;&gt;Node19 -->
<g id="edge21" class="edge">
<title>Node16&#45;&gt;Node19</title>
<path fill="none" stroke="midnightblue" d="M573.25,-79.65C566.88,-82.17 560.7,-85.09 555,-88.5 534.75,-100.59 538.98,-114.96 519,-127.5 512.95,-131.3 506.29,-134.55 499.45,-137.33"/>
<polygon fill="midnightblue" stroke="midnightblue" points="574.47,-82.94 582.69,-76.26 572.1,-76.35 574.47,-82.94"/>
</g>
<!-- Node17&#45;&gt;Node11 -->
<g id="edge19" class="edge">
<title>Node17&#45;&gt;Node11</title>
<path fill="none" stroke="midnightblue" d="M377.78,-120.59C369.37,-122.91 360.89,-125.54 353,-128.5 327.03,-138.23 299.11,-153.15 279.65,-164.34"/>
<polygon fill="midnightblue" stroke="midnightblue" points="378.8,-123.95 387.58,-118.03 377.02,-117.18 378.8,-123.95"/>
</g>
<!-- Node21 -->
<g id="node21" class="node">
<title>Node21</title>
<g id="a_node21"><a xlink:href="classdenoptim_1_1programs_1_1genetweeker_1_1_gene_ops_runner.html#a3c2407eb1204a7b25600d3d347d98447" target="_top" xlink:title=" ">
<polygon fill="white" stroke="black" points="356.5,-0.5 356.5,-30.5 515.5,-30.5 515.5,-0.5 356.5,-0.5"/>
<text text-anchor="start" x="364.5" y="-18.5" font-family="Helvetica,sans-Serif" font-size="10.00">denoptim.programs.genetweeker.</text>
<text text-anchor="middle" x="436" y="-7.5" font-family="Helvetica,sans-Serif" font-size="10.00">GeneOpsRunner.runProgram</text>
</a>
</g>
</g>
<!-- Node20&#45;&gt;Node21 -->
<g id="edge24" class="edge">
<title>Node20&#45;&gt;Node21</title>
<path fill="none" stroke="midnightblue" d="M559.74,-15.5C545.16,-15.5 530.14,-15.5 515.82,-15.5"/>
<polygon fill="midnightblue" stroke="midnightblue" points="559.75,-19 569.75,-15.5 559.75,-12 559.75,-19"/>
</g>
</g>
</svg>
        <g id="navigator" transform="translate(0 0)" fill="#404254">
                <rect fill="#f2f5e9" fill-opacity="0.5" stroke="#606060" stroke-width=".5" x="0" y="0" width="60" height="60"/>
                <use id="zoomplus" xlink:href="#zoomPlus" x="17" y="9" onmousedown="handleZoom(evt,'in')"/>
                <use id="zoomminus" xlink:href="#zoomMin" x="42" y="9" onmousedown="handleZoom(evt,'out')"/>
                <use id="reset" xlink:href="#resetDef" x="30" y="36" onmousedown="handleReset()"/>
                <g id="arrowUp" xlink:href="#dirArrow" transform="translate(30 24)" onmousedown="handlePan(0,-1)">
                  <use xlink:href="#rim" fill="#404040">
                        <set attributeName="fill" to="#808080" begin="arrowUp.mouseover" end="arrowUp.mouseout"/>
                  </use>
                  <path fill="none" stroke="white" stroke-width="1.5" d="M0,-3.0v7 M-2.5,-0.5L0,-3.0L2.5,-0.5"/>
                </g>
                <g id="arrowRight" xlink:href="#dirArrow" transform="rotate(90) translate(36 -43)" onmousedown="handlePan(1,0)">
                  <use xlink:href="#rim" fill="#404040">
                        <set attributeName="fill" to="#808080" begin="arrowRight.mouseover" end="arrowRight.mouseout"/>
                  </use>
                  <path fill="none" stroke="white" stroke-width="1.5" d="M0,-3.0v7 M-2.5,-0.5L0,-3.0L2.5,-0.5"/>
                </g>
                <g id="arrowDown" xlink:href="#dirArrow" transform="rotate(180) translate(-30 -48)" onmousedown="handlePan(0,1)">
                  <use xlink:href="#rim" fill="#404040">
                        <set attributeName="fill" to="#808080" begin="arrowDown.mouseover" end="arrowDown.mouseout"/>
                  </use>
                  <path fill="none" stroke="white" stroke-width="1.5" d="M0,-3.0v7 M-2.5,-0.5L0,-3.0L2.5,-0.5"/>
                </g>
                <g id="arrowLeft" xlink:href="#dirArrow" transform="rotate(270) translate(-36 17)" onmousedown="handlePan(-1,0)">
                  <use xlink:href="#rim" fill="#404040">
                        <set attributeName="fill" to="#808080" begin="arrowLeft.mouseover" end="arrowLeft.mouseout"/>
                  </use>
                  <path fill="none" stroke="white" stroke-width="1.5" d="M0,-3.0v7 M-2.5,-0.5L0,-3.0L2.5,-0.5"/>
                </g>
        </g>
        <svg viewBox="0 0 15 15" width="100%" height="30px" preserveAspectRatio="xMaxYMin meet">
         <g id="arrow_out" transform="scale(0.3 0.3)">
          <a xlink:href="classdenoptim_1_1graph_1_1_edge_a662733a6744a63aec552a1cc2685d468_icgraph_org.svg" target="_base">
           <rect id="button" ry="5" rx="5" y="6" x="6" height="38" width="38"
                fill="#f2f5e9" fill-opacity="0.5" stroke="#606060" stroke-width="1.0"/>
           <path id="arrow"
             d="M 11.500037,31.436501 C 11.940474,20.09759 22.043105,11.32322 32.158766,21.979434 L 37.068811,17.246167 C 37.068811,17.246167 37.088388,32 37.088388,32 L 22.160133,31.978069 C 22.160133,31.978069 26.997745,27.140456 26.997745,27.140456 C 18.528582,18.264221 13.291696,25.230495 11.500037,31.436501 z"
             style="fill:#404040;"/>
          </a>
         </g>
        </svg>
</svg>
