<?xml version="1.0" encoding="UTF-8" standalone="no"?>
<!DOCTYPE svg PUBLIC "-//W3C//DTD SVG 1.1//EN"
 "http://www.w3.org/Graphics/SVG/1.1/DTD/svg11.dtd">
<!-- Generated by graphviz version 3.0.0 (20220413.0242)
 -->
<!-- Title: denoptim.programs.denovo.GAParameters.getNumberOfGenerations Pages: 1 -->
<!--zoomable 265 -->
<svg id="main" version="1.1" xmlns="http://www.w3.org/2000/svg" xmlns:xlink="http://www.w3.org/1999/xlink" xml:space="preserve" onload="init(evt)">
<style type="text/css"><![CDATA[
.edge:hover path { stroke: red; }
.edge:hover polygon { stroke: red; fill: red; }
]]></style>
<script type="text/javascript"><![CDATA[
var edges = document.getElementsByTagName('g');
if (edges && edges.length) {
  for (var i=0;i<edges.length;i++) {
    if (edges[i].id.substr(0,4)=='edge') {
      edges[i].setAttribute('class','edge');
    }
  }
}
]]></script>
        <defs>
                <circle id="rim" cx="0" cy="0" r="7"/>
                <circle id="rim2" cx="0" cy="0" r="3.5"/>
                <g id="zoomPlus">
                        <use xlink:href="#rim" fill="#404040">
                                <set attributeName="fill" to="#808080" begin="zoomplus.mouseover" end="zoomplus.mouseout"/>
                        </use>
                        <path d="M-4,0h8M0,-4v8" fill="none" stroke="white" stroke-width="1.5" pointer-events="none"/>
                </g>
                <g id="zoomMin">
                        <use xlink:href="#rim" fill="#404040">
                                <set attributeName="fill" to="#808080" begin="zoomminus.mouseover" end="zoomminus.mouseout"/>
                        </use>
                        <path d="M-4,0h8" fill="none" stroke="white" stroke-width="1.5" pointer-events="none"/>
                </g>
                <g id="dirArrow">
                        <path fill="none" stroke="white" stroke-width="1.5" d="M0,-3.0v7 M-2.5,-0.5L0,-3.0L2.5,-0.5"/>
                </g>
               <g id="resetDef">
                       <use xlink:href="#rim2" fill="#404040">
                               <set attributeName="fill" to="#808080" begin="reset.mouseover" end="reset.mouseout"/>
                       </use>
               </g>
        </defs>

<script type="text/javascript">
var viewWidth = 1105;
var viewHeight = 265;
var sectionId = 'dynsection-32';
</script>
<script xlink:href="svgpan.js"/>
<svg id="graph" class="graph">
<g id="viewport">
<title>denoptim.programs.denovo.GAParameters.getNumberOfGenerations</title>
<polygon fill="white" stroke="transparent" points="-4,4 -4,-260.64 1101,-260.64 1101,4 -4,4"/>
<!-- Node1 -->
<g id="node1" class="node">
<title>Node1</title>
<g id="a_node1"><a xlink:title=" ">
<polygon fill="#bfbfbf" stroke="black" points="903,-180.5 903,-210.5 1097,-210.5 1097,-180.5 903,-180.5"/>
<text text-anchor="start" x="911" y="-198.5" font-family="Helvetica,sans-Serif" font-size="10.00">denoptim.programs.denovo.</text>
<text text-anchor="middle" x="1000" y="-187.5" font-family="Helvetica,sans-Serif" font-size="10.00">GAParameters.getNumberOfGenerations</text>
</a>
</g>
</g>
<!-- Node2 -->
<g id="node2" class="node">
<title>Node2</title>
<g id="a_node2"><a xlink:href="classdenoptim_1_1ga_1_1_e_a_utils.html#aeb642f3a46a239c05e36bf385e7f5243" target="_top" xlink:title=" ">
<polygon fill="white" stroke="black" points="720,-180.5 720,-210.5 867,-210.5 867,-180.5 720,-180.5"/>
<text text-anchor="start" x="728" y="-198.5" font-family="Helvetica,sans-Serif" font-size="10.00">denoptim.ga.EAUtils.getPath</text>
<text text-anchor="middle" x="793.5" y="-187.5" font-family="Helvetica,sans-Serif" font-size="10.00">NameToGenerationDetailsFile</text>
</a>
</g>
</g>
<!-- Node1&#45;&gt;Node2 -->
<g id="edge1" class="edge">
<title>Node1&#45;&gt;Node2</title>
<path fill="none" stroke="midnightblue" d="M892.59,-195.5C883.94,-195.5 875.34,-195.5 867.02,-195.5"/>
<polygon fill="midnightblue" stroke="midnightblue" points="892.74,-199 902.74,-195.5 892.74,-192 892.74,-199"/>
</g>
<!-- Node3 -->
<g id="node3" class="node">
<title>Node3</title>
<g id="a_node3"><a xlink:href="classdenoptim_1_1ga_1_1_evolutionary_algorithm.html#a6bfc2fa59b199da6259b5b6bad3d6de7" target="_top" xlink:title=" ">
<polygon fill="white" stroke="black" points="190,-112.5 190,-142.5 314,-142.5 314,-112.5 190,-112.5"/>
<text text-anchor="start" x="198" y="-130.5" font-family="Helvetica,sans-Serif" font-size="10.00">denoptim.ga.Evolutionary</text>
<text text-anchor="middle" x="252" y="-119.5" font-family="Helvetica,sans-Serif" font-size="10.00">Algorithm.run</text>
</a>
</g>
</g>
<!-- Node1&#45;&gt;Node3 -->
<g id="edge17" class="edge">
<title>Node1&#45;&gt;Node3</title>
<path fill="none" stroke="midnightblue" d="M936.94,-213.05C817.6,-243.38 550.26,-294.61 350,-209.5 314.69,-194.49 282.57,-162 265.61,-142.73"/>
<polygon fill="midnightblue" stroke="midnightblue" points="937.84,-216.43 946.64,-210.54 936.09,-209.65 937.84,-216.43"/>
</g>
<!-- Node7 -->
<g id="node7" class="node">
<title>Node7</title>
<g id="a_node7"><a xlink:href="classdenoptim_1_1ga_1_1_e_a_utils.html#ad094b30fa7e429418af3f5ba26addfa4" target="_top" xlink:title=" ">
<polygon fill="white" stroke="black" points="723.5,-115.5 723.5,-145.5 863.5,-145.5 863.5,-115.5 723.5,-115.5"/>
<text text-anchor="start" x="731.5" y="-133.5" font-family="Helvetica,sans-Serif" font-size="10.00">denoptim.ga.EAUtils.getPath</text>
<text text-anchor="middle" x="793.5" y="-122.5" font-family="Helvetica,sans-Serif" font-size="10.00">NameToGenerationFolder</text>
</a>
</g>
</g>
<!-- Node1&#45;&gt;Node7 -->
<g id="edge6" class="edge">
<title>Node1&#45;&gt;Node7</title>
<path fill="none" stroke="midnightblue" d="M941.64,-177.27C910.22,-167.28 871.75,-155.05 842.03,-145.61"/>
<polygon fill="midnightblue" stroke="midnightblue" points="940.98,-180.73 951.57,-180.42 943.1,-174.06 940.98,-180.73"/>
</g>
<!-- Node2&#45;&gt;Node3 -->
<g id="edge2" class="edge">
<title>Node2&#45;&gt;Node3</title>
<path fill="none" stroke="midnightblue" d="M709.81,-208.13C701.11,-209.1 692.39,-209.92 684,-210.5 535.18,-220.74 491.09,-225.93 350,-177.5 324.02,-168.58 296.35,-153.72 277.24,-142.52"/>
<polygon fill="midnightblue" stroke="midnightblue" points="710.46,-211.58 719.98,-206.93 709.64,-204.62 710.46,-211.58"/>
</g>
<!-- Node6 -->
<g id="node6" class="node">
<title>Node6</title>
<g id="a_node6"><a xlink:href="classdenoptim_1_1io_1_1_denoptim_i_o_test.html#af5c2f9114881ebde82a83f922c0c23fe" target="_top" xlink:title=" ">
<polygon fill="white" stroke="black" points="526,-170.5 526,-200.5 684,-200.5 684,-170.5 526,-170.5"/>
<text text-anchor="start" x="534" y="-188.5" font-family="Helvetica,sans-Serif" font-size="10.00">denoptim.io.DenoptimIOTest.test</text>
<text text-anchor="middle" x="605" y="-177.5" font-family="Helvetica,sans-Serif" font-size="10.00">ReadGenerationFromSummary</text>
</a>
</g>
</g>
<!-- Node2&#45;&gt;Node6 -->
<g id="edge5" class="edge">
<title>Node2&#45;&gt;Node6</title>
<path fill="none" stroke="midnightblue" d="M709.65,-191.06C701.23,-190.61 692.68,-190.15 684.3,-189.7"/>
<polygon fill="midnightblue" stroke="midnightblue" points="709.69,-194.56 719.86,-191.61 710.06,-187.57 709.69,-194.56"/>
</g>
<!-- Node4 -->
<g id="node4" class="node">
<title>Node4</title>
<g id="a_node4"><a xlink:href="classdenoptim_1_1ga_1_1_evolutionary_algorithm.html#a0f2063b722b7291daf83d62acaa683d3" target="_top" xlink:title=" ">
<polygon fill="white" stroke="black" points="0,-137.5 0,-167.5 154,-167.5 154,-137.5 0,-137.5"/>
<text text-anchor="start" x="8" y="-155.5" font-family="Helvetica,sans-Serif" font-size="10.00">denoptim.ga.Evolutionary</text>
<text text-anchor="middle" x="77" y="-144.5" font-family="Helvetica,sans-Serif" font-size="10.00">Algorithm.EvolutionaryAlgorithm</text>
</a>
</g>
</g>
<!-- Node3&#45;&gt;Node4 -->
<g id="edge3" class="edge">
<title>Node3&#45;&gt;Node4</title>
<path fill="none" stroke="midnightblue" d="M179.44,-137.84C171.09,-139.05 162.54,-140.28 154.12,-141.5"/>
<polygon fill="midnightblue" stroke="midnightblue" points="180.12,-141.28 189.52,-136.38 179.12,-134.35 180.12,-141.28"/>
</g>
<!-- Node5 -->
<g id="node5" class="node">
<title>Node5</title>
<g id="a_node5"><a xlink:href="classdenoptim_1_1programs_1_1denovo_1_1_g_a_runner.html#a7cafd6d78727b89dce3e2c8d06f0dd7c" target="_top" xlink:title=" ">
<polygon fill="white" stroke="black" points="9.5,-88.5 9.5,-118.5 144.5,-118.5 144.5,-88.5 9.5,-88.5"/>
<text text-anchor="start" x="17.5" y="-106.5" font-family="Helvetica,sans-Serif" font-size="10.00">denoptim.programs.denovo.</text>
<text text-anchor="middle" x="77" y="-95.5" font-family="Helvetica,sans-Serif" font-size="10.00">GARunner.runProgram</text>
</a>
</g>
</g>
<!-- Node3&#45;&gt;Node5 -->
<g id="edge4" class="edge">
<title>Node3&#45;&gt;Node5</title>
<path fill="none" stroke="midnightblue" d="M179.48,-117.58C167.92,-115.97 156,-114.32 144.57,-112.73"/>
<polygon fill="midnightblue" stroke="midnightblue" points="179.13,-121.06 189.52,-118.97 180.1,-114.13 179.13,-121.06"/>
</g>
<!-- Node7&#45;&gt;Node6 -->
<g id="edge16" class="edge">
<title>Node7&#45;&gt;Node6</title>
<path fill="none" stroke="midnightblue" d="M731.75,-148.42C707.55,-155.55 680.02,-163.67 656.9,-170.49"/>
<polygon fill="midnightblue" stroke="midnightblue" points="732.94,-151.71 741.54,-145.53 730.96,-145 732.94,-151.71"/>
</g>
<!-- Node8 -->
<g id="node8" class="node">
<title>Node8</title>
<g id="a_node8"><a xlink:href="classdenoptim_1_1ga_1_1_e_a_utils.html#aab14b898988cd607e9d08f09f2ba10cb" target="_top" xlink:title="Creates a folder meant to hold all the data generated during a generation.">
<polygon fill="white" stroke="black" points="538,-44.5 538,-74.5 672,-74.5 672,-44.5 538,-44.5"/>
<text text-anchor="start" x="546" y="-62.5" font-family="Helvetica,sans-Serif" font-size="10.00">denoptim.ga.EAUtils.create</text>
<text text-anchor="middle" x="605" y="-51.5" font-family="Helvetica,sans-Serif" font-size="10.00">FolderForGeneration</text>
</a>
</g>
</g>
<!-- Node7&#45;&gt;Node8 -->
<g id="edge7" class="edge">
<title>Node7&#45;&gt;Node8</title>
<path fill="none" stroke="midnightblue" d="M743.34,-111.79C712.79,-100.16 674.04,-85.4 645.49,-74.54"/>
<polygon fill="midnightblue" stroke="midnightblue" points="742.36,-115.16 752.95,-115.44 744.85,-108.61 742.36,-115.16"/>
</g>
<!-- Node9 -->
<g id="node9" class="node">
<title>Node9</title>
<g id="a_node9"><a xlink:href="classdenoptim_1_1ga_1_1_evolutionary_algorithm.html#a596b2f5f0b097c5b67a6e5163bd6fe66" target="_top" xlink:title="Generates a given number of new candidate items and adds them to the current population.">
<polygon fill="white" stroke="black" points="353,-88.5 353,-118.5 487,-118.5 487,-88.5 353,-88.5"/>
<text text-anchor="start" x="361" y="-106.5" font-family="Helvetica,sans-Serif" font-size="10.00">denoptim.ga.Evolutionary</text>
<text text-anchor="middle" x="420" y="-95.5" font-family="Helvetica,sans-Serif" font-size="10.00">Algorithm.evolvePopulation</text>
</a>
</g>
</g>
<!-- Node7&#45;&gt;Node9 -->
<g id="edge11" class="edge">
<title>Node7&#45;&gt;Node9</title>
<path fill="none" stroke="midnightblue" d="M713.36,-124.75C646.03,-119.85 550.45,-112.91 487.14,-108.31"/>
<polygon fill="midnightblue" stroke="midnightblue" points="713.27,-128.25 723.49,-125.48 713.77,-121.27 713.27,-128.25"/>
</g>
<!-- Node10 -->
<g id="node10" class="node">
<title>Node10</title>
<g id="a_node10"><a xlink:href="classdenoptim_1_1ga_1_1_e_a_utils.html#aecbe9af608218e129a006ddae17ac66b" target="_top" xlink:title="Reads unique identifiers and initial population files according to the GAParameters.">
<polygon fill="white" stroke="black" points="353,-137.5 353,-167.5 487,-167.5 487,-137.5 353,-137.5"/>
<text text-anchor="start" x="361" y="-155.5" font-family="Helvetica,sans-Serif" font-size="10.00">denoptim.ga.EAUtils.import</text>
<text text-anchor="middle" x="420" y="-144.5" font-family="Helvetica,sans-Serif" font-size="10.00">InitialPopulation</text>
</a>
</g>
</g>
<!-- Node7&#45;&gt;Node10 -->
<g id="edge12" class="edge">
<title>Node7&#45;&gt;Node10</title>
<path fill="none" stroke="midnightblue" d="M713.36,-135.19C646.03,-139.17 550.45,-144.83 487.14,-148.58"/>
<polygon fill="midnightblue" stroke="midnightblue" points="713.72,-138.67 723.49,-134.59 713.3,-131.68 713.72,-138.67"/>
</g>
<!-- Node11 -->
<g id="node11" class="node">
<title>Node11</title>
<g id="a_node11"><a xlink:href="classdenoptim_1_1ga_1_1_evolutionary_algorithm.html#ad43588620dab3340e0d8b0042ec73618" target="_top" xlink:title="Fills up the population with candidates build from scratch.">
<polygon fill="white" stroke="black" points="350,-0.5 350,-30.5 490,-30.5 490,-0.5 350,-0.5"/>
<text text-anchor="start" x="358" y="-18.5" font-family="Helvetica,sans-Serif" font-size="10.00">denoptim.ga.Evolutionary</text>
<text text-anchor="middle" x="420" y="-7.5" font-family="Helvetica,sans-Serif" font-size="10.00">Algorithm.initializePopulation</text>
</a>
</g>
</g>
<!-- Node7&#45;&gt;Node11 -->
<g id="edge14" class="edge">
<title>Node7&#45;&gt;Node11</title>
<path fill="none" stroke="midnightblue" d="M774.26,-107.23C754.7,-84.21 721.37,-50.22 684,-34.5 622.18,-8.49 544.99,-6.03 490.26,-8.68"/>
<polygon fill="midnightblue" stroke="midnightblue" points="771.75,-109.68 780.82,-115.15 777.14,-105.22 771.75,-109.68"/>
</g>
<!-- Node8&#45;&gt;Node3 -->
<g id="edge10" class="edge">
<title>Node8&#45;&gt;Node3</title>
<path fill="none" stroke="midnightblue" d="M527.49,-57.49C476.36,-58.01 408.09,-62.35 350,-78.5 323.28,-85.93 295.26,-100.98 276.25,-112.46"/>
<polygon fill="midnightblue" stroke="midnightblue" points="527.82,-60.98 537.8,-57.43 527.78,-53.98 527.82,-60.98"/>
</g>
<!-- Node8&#45;&gt;Node9 -->
<g id="edge8" class="edge">
<title>Node8&#45;&gt;Node9</title>
<path fill="none" stroke="midnightblue" d="M531.73,-76.88C515.78,-80.71 499.02,-84.74 483.5,-88.47"/>
<polygon fill="midnightblue" stroke="midnightblue" points="532.63,-80.26 541.53,-74.52 530.99,-73.45 532.63,-80.26"/>
</g>
<!-- Node9&#45;&gt;Node3 -->
<g id="edge9" class="edge">
<title>Node9&#45;&gt;Node3</title>
<path fill="none" stroke="midnightblue" d="M342.9,-114.5C333.21,-115.9 323.41,-117.32 314.01,-118.68"/>
<polygon fill="midnightblue" stroke="midnightblue" points="343.52,-117.95 352.92,-113.05 342.52,-111.02 343.52,-117.95"/>
</g>
<!-- Node10&#45;&gt;Node3 -->
<g id="edge13" class="edge">
<title>Node10&#45;&gt;Node3</title>
<path fill="none" stroke="midnightblue" d="M342.9,-141.04C333.21,-139.58 323.41,-138.1 314.01,-136.69"/>
<polygon fill="midnightblue" stroke="midnightblue" points="342.51,-144.52 352.92,-142.55 343.55,-137.6 342.51,-144.52"/>
</g>
<!-- Node11&#45;&gt;Node3 -->
<g id="edge15" class="edge">
<title>Node11&#45;&gt;Node3</title>
<path fill="none" stroke="midnightblue" d="M369.72,-34.81C362.93,-38.07 356.18,-41.66 350,-45.5 318.35,-65.17 286.21,-94.6 268.03,-112.34"/>
<polygon fill="midnightblue" stroke="midnightblue" points="371.33,-37.92 378.95,-30.56 368.4,-31.56 371.33,-37.92"/>
</g>
</g>
</svg>
        <g id="navigator" transform="translate(0 0)" fill="#404254">
                <rect fill="#f2f5e9" fill-opacity="0.5" stroke="#606060" stroke-width=".5" x="0" y="0" width="60" height="60"/>
                <use id="zoomplus" xlink:href="#zoomPlus" x="17" y="9" onmousedown="handleZoom(evt,'in')"/>
                <use id="zoomminus" xlink:href="#zoomMin" x="42" y="9" onmousedown="handleZoom(evt,'out')"/>
                <use id="reset" xlink:href="#resetDef" x="30" y="36" onmousedown="handleReset()"/>
                <g id="arrowUp" xlink:href="#dirArrow" transform="translate(30 24)" onmousedown="handlePan(0,-1)">
                  <use xlink:href="#rim" fill="#404040">
                        <set attributeName="fill" to="#808080" begin="arrowUp.mouseover" end="arrowUp.mouseout"/>
                  </use>
                  <path fill="none" stroke="white" stroke-width="1.5" d="M0,-3.0v7 M-2.5,-0.5L0,-3.0L2.5,-0.5"/>
                </g>
                <g id="arrowRight" xlink:href="#dirArrow" transform="rotate(90) translate(36 -43)" onmousedown="handlePan(1,0)">
                  <use xlink:href="#rim" fill="#404040">
                        <set attributeName="fill" to="#808080" begin="arrowRight.mouseover" end="arrowRight.mouseout"/>
                  </use>
                  <path fill="none" stroke="white" stroke-width="1.5" d="M0,-3.0v7 M-2.5,-0.5L0,-3.0L2.5,-0.5"/>
                </g>
                <g id="arrowDown" xlink:href="#dirArrow" transform="rotate(180) translate(-30 -48)" onmousedown="handlePan(0,1)">
                  <use xlink:href="#rim" fill="#404040">
                        <set attributeName="fill" to="#808080" begin="arrowDown.mouseover" end="arrowDown.mouseout"/>
                  </use>
                  <path fill="none" stroke="white" stroke-width="1.5" d="M0,-3.0v7 M-2.5,-0.5L0,-3.0L2.5,-0.5"/>
                </g>
                <g id="arrowLeft" xlink:href="#dirArrow" transform="rotate(270) translate(-36 17)" onmousedown="handlePan(-1,0)">
                  <use xlink:href="#rim" fill="#404040">
                        <set attributeName="fill" to="#808080" begin="arrowLeft.mouseover" end="arrowLeft.mouseout"/>
                  </use>
                  <path fill="none" stroke="white" stroke-width="1.5" d="M0,-3.0v7 M-2.5,-0.5L0,-3.0L2.5,-0.5"/>
                </g>
        </g>
        <svg viewBox="0 0 15 15" width="100%" height="30px" preserveAspectRatio="xMaxYMin meet">
         <g id="arrow_out" transform="scale(0.3 0.3)">
          <a xlink:href="classdenoptim_1_1programs_1_1denovo_1_1_g_a_parameters_a71a6c20ceaf9395ab2a5eee83dbd5eb3_icgraph_org.svg" target="_base">
           <rect id="button" ry="5" rx="5" y="6" x="6" height="38" width="38"
                fill="#f2f5e9" fill-opacity="0.5" stroke="#606060" stroke-width="1.0"/>
           <path id="arrow"
             d="M 11.500037,31.436501 C 11.940474,20.09759 22.043105,11.32322 32.158766,21.979434 L 37.068811,17.246167 C 37.068811,17.246167 37.088388,32 37.088388,32 L 22.160133,31.978069 C 22.160133,31.978069 26.997745,27.140456 26.997745,27.140456 C 18.528582,18.264221 13.291696,25.230495 11.500037,31.436501 z"
             style="fill:#404040;"/>
          </a>
         </g>
        </svg>
</svg>
