<?xml version="1.0" encoding="UTF-8" standalone="no"?>
<!DOCTYPE svg PUBLIC "-//W3C//DTD SVG 1.1//EN"
 "http://www.w3.org/Graphics/SVG/1.1/DTD/svg11.dtd">
<!-- Generated by graphviz version 3.0.0 (20220413.0242)
 -->
<!-- Title: denoptim.fragspace.FragmentSpace.define Pages: 1 -->
<!--zoomable 813 -->
<svg id="main" version="1.1" xmlns="http://www.w3.org/2000/svg" xmlns:xlink="http://www.w3.org/1999/xlink" xml:space="preserve" onload="init(evt)">
<style type="text/css"><![CDATA[
.edge:hover path { stroke: red; }
.edge:hover polygon { stroke: red; fill: red; }
]]></style>
<script type="text/javascript"><![CDATA[
var edges = document.getElementsByTagName('g');
if (edges && edges.length) {
  for (var i=0;i<edges.length;i++) {
    if (edges[i].id.substr(0,4)=='edge') {
      edges[i].setAttribute('class','edge');
    }
  }
}
]]></script>
        <defs>
                <circle id="rim" cx="0" cy="0" r="7"/>
                <circle id="rim2" cx="0" cy="0" r="3.5"/>
                <g id="zoomPlus">
                        <use xlink:href="#rim" fill="#404040">
                                <set attributeName="fill" to="#808080" begin="zoomplus.mouseover" end="zoomplus.mouseout"/>
                        </use>
                        <path d="M-4,0h8M0,-4v8" fill="none" stroke="white" stroke-width="1.5" pointer-events="none"/>
                </g>
                <g id="zoomMin">
                        <use xlink:href="#rim" fill="#404040">
                                <set attributeName="fill" to="#808080" begin="zoomminus.mouseover" end="zoomminus.mouseout"/>
                        </use>
                        <path d="M-4,0h8" fill="none" stroke="white" stroke-width="1.5" pointer-events="none"/>
                </g>
                <g id="dirArrow">
                        <path fill="none" stroke="white" stroke-width="1.5" d="M0,-3.0v7 M-2.5,-0.5L0,-3.0L2.5,-0.5"/>
                </g>
               <g id="resetDef">
                       <use xlink:href="#rim2" fill="#404040">
                               <set attributeName="fill" to="#808080" begin="reset.mouseover" end="reset.mouseout"/>
                       </use>
               </g>
        </defs>

<script type="text/javascript">
var viewWidth = 943;
var viewHeight = 813;
var sectionId = 'dynsection-14';
</script>
<script xlink:href="svgpan.js"/>
<svg id="graph" class="graph">
<g id="viewport">
<title>denoptim.fragspace.FragmentSpace.define</title>
<polygon fill="white" stroke="transparent" points="-4,4 -4,-809 939,-809 939,4 -4,4"/>
<!-- Node1 -->
<g id="node1" class="node">
<title>Node1</title>
<g id="a_node1"><a xlink:title="Define all components of this fragment space.">
<polygon fill="#bfbfbf" stroke="black" points="0,-220.5 0,-250.5 145,-250.5 145,-220.5 0,-220.5"/>
<text text-anchor="start" x="8" y="-238.5" font-family="Helvetica,sans-Serif" font-size="10.00">denoptim.fragspace.Fragment</text>
<text text-anchor="middle" x="72.5" y="-227.5" font-family="Helvetica,sans-Serif" font-size="10.00">Space.define</text>
</a>
</g>
</g>
<!-- Node2 -->
<g id="node2" class="node">
<title>Node2</title>
<g id="a_node2"><a xlink:href="classdenoptim_1_1fragspace_1_1_fragment_space.html#a500eaadf61dbb4a0d9c1105f907212c7" target="_top" xlink:title="Performs grouping and classification operations on the library of building blocks of BBType#FRAGMENT.">
<polygon fill="white" stroke="black" points="186,-441.5 186,-471.5 355,-471.5 355,-441.5 186,-441.5"/>
<text text-anchor="start" x="194" y="-459.5" font-family="Helvetica,sans-Serif" font-size="10.00">denoptim.fragspace.Fragment</text>
<text text-anchor="middle" x="270.5" y="-448.5" font-family="Helvetica,sans-Serif" font-size="10.00">Space.groupAndClassifyFragments</text>
</a>
</g>
</g>
<!-- Node1&#45;&gt;Node2 -->
<g id="edge1" class="edge">
<title>Node1&#45;&gt;Node2</title>
<path fill="none" stroke="midnightblue" d="M77.36,-250.76C87.54,-287.87 118.76,-383.38 181,-432.5 182.78,-433.9 184.63,-435.22 186.54,-436.47"/>
<polygon fill="midnightblue" stroke="midnightblue" points="184.87,-439.54 195.29,-441.44 188.33,-433.45 184.87,-439.54"/>
</g>
<!-- Node19 -->
<g id="node19" class="node">
<title>Node19</title>
<g id="a_node19"><a xlink:href="classdenoptim_1_1fragspace_1_1_fragment_space.html#abbd24a68393f1849c2d742f944c1c348" target="_top" xlink:title=" ">
<polygon fill="white" stroke="black" points="198,-392.5 198,-422.5 343,-422.5 343,-392.5 198,-392.5"/>
<text text-anchor="start" x="206" y="-410.5" font-family="Helvetica,sans-Serif" font-size="10.00">denoptim.fragspace.Fragment</text>
<text text-anchor="middle" x="270.5" y="-399.5" font-family="Helvetica,sans-Serif" font-size="10.00">Space.setCappingLibrary</text>
</a>
</g>
</g>
<!-- Node1&#45;&gt;Node19 -->
<g id="edge20" class="edge">
<title>Node1&#45;&gt;Node19</title>
<path fill="none" stroke="midnightblue" d="M80.22,-250.72C94.33,-280.87 130.02,-348.34 181,-383.5 183.4,-385.15 185.9,-386.69 188.49,-388.12"/>
<polygon fill="midnightblue" stroke="midnightblue" points="187.04,-391.31 197.55,-392.6 190.14,-385.03 187.04,-391.31"/>
</g>
<!-- Node24 -->
<g id="node24" class="node">
<title>Node24</title>
<g id="a_node24"><a xlink:href="classdenoptim_1_1fragspace_1_1_fragment_space.html#a8d1502cdc46db8fe67ddc594ae1cb180" target="_top" xlink:title=" ">
<polygon fill="white" stroke="black" points="198,-343.5 198,-373.5 343,-373.5 343,-343.5 198,-343.5"/>
<text text-anchor="start" x="206" y="-361.5" font-family="Helvetica,sans-Serif" font-size="10.00">denoptim.fragspace.Fragment</text>
<text text-anchor="middle" x="270.5" y="-350.5" font-family="Helvetica,sans-Serif" font-size="10.00">Space.setCappingMap</text>
</a>
</g>
</g>
<!-- Node1&#45;&gt;Node24 -->
<g id="edge25" class="edge">
<title>Node1&#45;&gt;Node24</title>
<path fill="none" stroke="midnightblue" d="M85.73,-250.66C104.12,-272.45 141.02,-312.42 181,-334.5 184.26,-336.3 187.66,-337.97 191.15,-339.52"/>
<polygon fill="midnightblue" stroke="midnightblue" points="189.98,-342.82 200.56,-343.35 192.62,-336.34 189.98,-342.82"/>
</g>
<!-- Node25 -->
<g id="node25" class="node">
<title>Node25</title>
<g id="a_node25"><a xlink:href="classdenoptim_1_1fragspace_1_1_fragment_space.html#a2f5afb31f605b8d3b6908ac2c7683545" target="_top" xlink:title=" ">
<polygon fill="white" stroke="black" points="198,-294.5 198,-324.5 343,-324.5 343,-294.5 198,-294.5"/>
<text text-anchor="start" x="206" y="-312.5" font-family="Helvetica,sans-Serif" font-size="10.00">denoptim.fragspace.Fragment</text>
<text text-anchor="middle" x="270.5" y="-301.5" font-family="Helvetica,sans-Serif" font-size="10.00">Space.setCompatibilityMatrix</text>
</a>
</g>
</g>
<!-- Node1&#45;&gt;Node25 -->
<g id="edge26" class="edge">
<title>Node1&#45;&gt;Node25</title>
<path fill="none" stroke="midnightblue" d="M102.59,-250.68C123.9,-261.39 153.74,-275.55 181,-285.5 186.79,-287.61 192.85,-289.64 198.97,-291.55"/>
<polygon fill="midnightblue" stroke="midnightblue" points="198.02,-294.92 208.61,-294.46 200.05,-288.22 198.02,-294.92"/>
</g>
<!-- Node26 -->
<g id="node26" class="node">
<title>Node26</title>
<g id="a_node26"><a xlink:href="classdenoptim_1_1fragspace_1_1_fragment_space.html#a5d0471e0761aebff87d894c0bf39ecd7" target="_top" xlink:title=" ">
<polygon fill="white" stroke="black" points="198,-245.5 198,-275.5 343,-275.5 343,-245.5 198,-245.5"/>
<text text-anchor="start" x="206" y="-263.5" font-family="Helvetica,sans-Serif" font-size="10.00">denoptim.fragspace.Fragment</text>
<text text-anchor="middle" x="270.5" y="-252.5" font-family="Helvetica,sans-Serif" font-size="10.00">Space.setForbiddenEndList</text>
</a>
</g>
</g>
<!-- Node1&#45;&gt;Node26 -->
<g id="edge27" class="edge">
<title>Node1&#45;&gt;Node26</title>
<path fill="none" stroke="midnightblue" d="M145.09,-244.63C158.91,-246.39 173.48,-248.25 187.59,-250.05"/>
<polygon fill="midnightblue" stroke="midnightblue" points="187.41,-253.56 197.77,-251.35 188.3,-246.61 187.41,-253.56"/>
</g>
<!-- Node27 -->
<g id="node27" class="node">
<title>Node27</title>
<g id="a_node27"><a xlink:href="classdenoptim_1_1fragspace_1_1_fragment_space.html#a5f1ddd58bd4295a9d9d0cf867f3f6914" target="_top" xlink:title=" ">
<polygon fill="white" stroke="black" points="198,-196.5 198,-226.5 343,-226.5 343,-196.5 198,-196.5"/>
<text text-anchor="start" x="206" y="-214.5" font-family="Helvetica,sans-Serif" font-size="10.00">denoptim.fragspace.Fragment</text>
<text text-anchor="middle" x="270.5" y="-203.5" font-family="Helvetica,sans-Serif" font-size="10.00">Space.setFragmentLibrary</text>
</a>
</g>
</g>
<!-- Node1&#45;&gt;Node27 -->
<g id="edge28" class="edge">
<title>Node1&#45;&gt;Node27</title>
<path fill="none" stroke="midnightblue" d="M145.09,-226.73C158.91,-225.04 173.48,-223.26 187.59,-221.53"/>
<polygon fill="midnightblue" stroke="midnightblue" points="188.27,-224.97 197.77,-220.28 187.42,-218.02 188.27,-224.97"/>
</g>
<!-- Node28 -->
<g id="node28" class="node">
<title>Node28</title>
<g id="a_node28"><a xlink:href="classdenoptim_1_1fragspace_1_1_fragment_space_parameters.html#af140278c28ecf4c380d2b93d03ffbb41" target="_top" xlink:title="Sets the fragment space linked to these parameters.">
<polygon fill="white" stroke="black" points="181,-147.5 181,-177.5 360,-177.5 360,-147.5 181,-147.5"/>
<text text-anchor="start" x="189" y="-165.5" font-family="Helvetica,sans-Serif" font-size="10.00">denoptim.fragspace.Fragment</text>
<text text-anchor="middle" x="270.5" y="-154.5" font-family="Helvetica,sans-Serif" font-size="10.00">SpaceParameters.setFragmentSpace</text>
</a>
</g>
</g>
<!-- Node1&#45;&gt;Node28 -->
<g id="edge30" class="edge">
<title>Node1&#45;&gt;Node28</title>
<path fill="none" stroke="midnightblue" d="M104.06,-220.43C125.31,-210.31 154.48,-197.11 181,-187.5 187.71,-185.07 194.77,-182.73 201.86,-180.51"/>
<polygon fill="midnightblue" stroke="midnightblue" points="202.96,-183.84 211.51,-177.58 200.93,-177.14 202.96,-183.84"/>
</g>
<!-- Node29 -->
<g id="node29" class="node">
<title>Node29</title>
<g id="a_node29"><a xlink:href="classdenoptim_1_1fragspace_1_1_fragment_space.html#ae9f3a26c3e08408196f58254b6cd6a2e" target="_top" xlink:title=" ">
<polygon fill="white" stroke="black" points="193,-98.5 193,-128.5 348,-128.5 348,-98.5 193,-98.5"/>
<text text-anchor="start" x="201" y="-116.5" font-family="Helvetica,sans-Serif" font-size="10.00">denoptim.fragspace.Fragment</text>
<text text-anchor="middle" x="270.5" y="-105.5" font-family="Helvetica,sans-Serif" font-size="10.00">Space.setRCCompatibilityMatrix</text>
</a>
</g>
</g>
<!-- Node1&#45;&gt;Node29 -->
<g id="edge31" class="edge">
<title>Node1&#45;&gt;Node29</title>
<path fill="none" stroke="midnightblue" d="M86.07,-220.14C104.6,-198.5 141.37,-159.25 181,-137.5 184.43,-135.61 188.03,-133.87 191.71,-132.26"/>
<polygon fill="midnightblue" stroke="midnightblue" points="193.07,-135.49 201.04,-128.51 190.46,-128.99 193.07,-135.49"/>
</g>
<!-- Node30 -->
<g id="node30" class="node">
<title>Node30</title>
<g id="a_node30"><a xlink:href="classdenoptim_1_1fragspace_1_1_fragment_space.html#a26482f3889e4ad9b334784687df2fa18" target="_top" xlink:title=" ">
<polygon fill="white" stroke="black" points="198,-49.5 198,-79.5 343,-79.5 343,-49.5 198,-49.5"/>
<text text-anchor="start" x="206" y="-67.5" font-family="Helvetica,sans-Serif" font-size="10.00">denoptim.fragspace.Fragment</text>
<text text-anchor="middle" x="270.5" y="-56.5" font-family="Helvetica,sans-Serif" font-size="10.00">Space.setScaffoldLibrary</text>
</a>
</g>
</g>
<!-- Node1&#45;&gt;Node30 -->
<g id="edge32" class="edge">
<title>Node1&#45;&gt;Node30</title>
<path fill="none" stroke="midnightblue" d="M80.25,-220.39C94.41,-190.43 130.19,-123.42 181,-88.5 183.4,-86.85 185.91,-85.32 188.49,-83.89"/>
<polygon fill="midnightblue" stroke="midnightblue" points="190.14,-86.98 197.57,-79.42 187.05,-80.7 190.14,-86.98"/>
</g>
<!-- Node31 -->
<g id="node31" class="node">
<title>Node31</title>
<g id="a_node31"><a xlink:href="classdenoptim_1_1fragspace_1_1_fragment_space.html#ae0caec2ab73dfa1b2772b23b7266f846" target="_top" xlink:title=" ">
<polygon fill="white" stroke="black" points="198,-0.5 198,-30.5 343,-30.5 343,-0.5 198,-0.5"/>
<text text-anchor="start" x="206" y="-18.5" font-family="Helvetica,sans-Serif" font-size="10.00">denoptim.fragspace.Fragment</text>
<text text-anchor="middle" x="270.5" y="-7.5" font-family="Helvetica,sans-Serif" font-size="10.00">Space.setSymmConstraints</text>
</a>
</g>
</g>
<!-- Node1&#45;&gt;Node31 -->
<g id="edge34" class="edge">
<title>Node1&#45;&gt;Node31</title>
<path fill="none" stroke="midnightblue" d="M77.38,-220.32C87.62,-183.39 118.95,-88.36 181,-39.5 183.48,-37.54 186.12,-35.75 188.86,-34.1"/>
<polygon fill="midnightblue" stroke="midnightblue" points="190.72,-37.07 197.93,-29.31 187.46,-30.88 190.72,-37.07"/>
</g>
<!-- Node3 -->
<g id="node3" class="node">
<title>Node3</title>
<g id="a_node3"><a xlink:href="classdenoptim_1_1fragspace_1_1_fragment_space.html#a13df4c55db0679bb62fb833a91ef38b2" target="_top" xlink:title="Classify a fragment in terms of the number of APs and possibly their type (AP&#45;Class).">
<polygon fill="white" stroke="black" points="401,-539.5 401,-569.5 546,-569.5 546,-539.5 401,-539.5"/>
<text text-anchor="start" x="409" y="-557.5" font-family="Helvetica,sans-Serif" font-size="10.00">denoptim.fragspace.Fragment</text>
<text text-anchor="middle" x="473.5" y="-546.5" font-family="Helvetica,sans-Serif" font-size="10.00">Space.classifyFragment</text>
</a>
</g>
</g>
<!-- Node2&#45;&gt;Node3 -->
<g id="edge2" class="edge">
<title>Node2&#45;&gt;Node3</title>
<path fill="none" stroke="midnightblue" d="M293.59,-471.79C317.84,-488.04 358.35,-513.68 396,-530.5 400.3,-532.42 404.8,-534.25 409.37,-535.99"/>
<polygon fill="midnightblue" stroke="midnightblue" points="408.23,-539.3 418.82,-539.41 410.61,-532.71 408.23,-539.3"/>
</g>
<!-- Node15 -->
<g id="node15" class="node">
<title>Node15</title>
<g id="a_node15"><a xlink:href="classdenoptim_1_1fragspace_1_1_fragment_space.html#aed02226a5695be948ae2c33e787e22c3" target="_top" xlink:title=" ">
<polygon fill="white" stroke="black" points="401,-490.5 401,-520.5 546,-520.5 546,-490.5 401,-490.5"/>
<text text-anchor="start" x="409" y="-508.5" font-family="Helvetica,sans-Serif" font-size="10.00">denoptim.fragspace.Fragment</text>
<text text-anchor="middle" x="473.5" y="-497.5" font-family="Helvetica,sans-Serif" font-size="10.00">Space.getFragmentLibrary</text>
</a>
</g>
</g>
<!-- Node2&#45;&gt;Node15 -->
<g id="edge16" class="edge">
<title>Node2&#45;&gt;Node15</title>
<path fill="none" stroke="midnightblue" d="M333.17,-471.53C354.59,-476.76 378.78,-482.65 400.93,-488.05"/>
<polygon fill="midnightblue" stroke="midnightblue" points="400.4,-491.53 410.94,-490.49 402.06,-484.72 400.4,-491.53"/>
</g>
<!-- Node16 -->
<g id="node16" class="node">
<title>Node16</title>
<g id="a_node16"><a xlink:href="classdenoptim_1_1fragspace_1_1_fragment_space.html#a884b6bce64f9eebd532ac0a6d1142322" target="_top" xlink:title=" ">
<polygon fill="white" stroke="black" points="401,-441.5 401,-471.5 546,-471.5 546,-441.5 401,-441.5"/>
<text text-anchor="start" x="409" y="-459.5" font-family="Helvetica,sans-Serif" font-size="10.00">denoptim.fragspace.Fragment</text>
<text text-anchor="middle" x="473.5" y="-448.5" font-family="Helvetica,sans-Serif" font-size="10.00">Space.setAPClassesPerFrag</text>
</a>
</g>
</g>
<!-- Node2&#45;&gt;Node16 -->
<g id="edge17" class="edge">
<title>Node2&#45;&gt;Node16</title>
<path fill="none" stroke="midnightblue" d="M355.29,-456.5C367.03,-456.5 379.09,-456.5 390.8,-456.5"/>
<polygon fill="midnightblue" stroke="midnightblue" points="390.98,-460 400.98,-456.5 390.98,-453 390.98,-460"/>
</g>
<!-- Node17 -->
<g id="node17" class="node">
<title>Node17</title>
<g id="a_node17"><a xlink:href="classdenoptim_1_1fragspace_1_1_fragment_space.html#afc50d518876feef08a08e217b1e0b89f" target="_top" xlink:title=" ">
<polygon fill="white" stroke="black" points="399,-392.5 399,-422.5 548,-422.5 548,-392.5 399,-392.5"/>
<text text-anchor="start" x="407" y="-410.5" font-family="Helvetica,sans-Serif" font-size="10.00">denoptim.fragspace.Fragment</text>
<text text-anchor="middle" x="473.5" y="-399.5" font-family="Helvetica,sans-Serif" font-size="10.00">Space.setFragPoolPerNumAP</text>
</a>
</g>
</g>
<!-- Node2&#45;&gt;Node17 -->
<g id="edge18" class="edge">
<title>Node2&#45;&gt;Node17</title>
<path fill="none" stroke="midnightblue" d="M333.17,-441.47C354.59,-436.24 378.78,-430.35 400.93,-424.95"/>
<polygon fill="midnightblue" stroke="midnightblue" points="402.06,-428.28 410.94,-422.51 400.4,-421.47 402.06,-428.28"/>
</g>
<!-- Node18 -->
<g id="node18" class="node">
<title>Node18</title>
<g id="a_node18"><a xlink:href="classdenoptim_1_1fragspace_1_1_fragment_space.html#ae72c42542a9476a5c3ef2feba0979651" target="_top" xlink:title=" ">
<polygon fill="white" stroke="black" points="396.5,-343.5 396.5,-373.5 550.5,-373.5 550.5,-343.5 396.5,-343.5"/>
<text text-anchor="start" x="404.5" y="-361.5" font-family="Helvetica,sans-Serif" font-size="10.00">denoptim.fragspace.Fragment</text>
<text text-anchor="middle" x="473.5" y="-350.5" font-family="Helvetica,sans-Serif" font-size="10.00">Space.setFragsApsPerApClass</text>
</a>
</g>
</g>
<!-- Node2&#45;&gt;Node18 -->
<g id="edge19" class="edge">
<title>Node2&#45;&gt;Node18</title>
<path fill="none" stroke="midnightblue" d="M343.87,-441.37C349.55,-438.85 355.01,-435.92 360,-432.5 382.29,-417.22 374.11,-399.34 396,-383.5 398.66,-381.57 401.48,-379.79 404.4,-378.14"/>
<polygon fill="midnightblue" stroke="midnightblue" points="406.08,-381.22 413.43,-373.58 402.92,-374.97 406.08,-381.22"/>
</g>
<!-- Node4 -->
<g id="node4" class="node">
<title>Node4</title>
<g id="a_node4"><a xlink:href="classdenoptim_1_1graph_1_1_vertex.html#a274e9253fa2a75073e7fc14918e54eef" target="_top" xlink:title="Returns the list of all APClasses present on this vertex.">
<polygon fill="white" stroke="black" points="615,-774.5 615,-804.5 743,-804.5 743,-774.5 615,-774.5"/>
<text text-anchor="start" x="623" y="-792.5" font-family="Helvetica,sans-Serif" font-size="10.00">denoptim.graph.Vertex.get</text>
<text text-anchor="middle" x="679" y="-781.5" font-family="Helvetica,sans-Serif" font-size="10.00">AllAPClasses</text>
</a>
</g>
</g>
<!-- Node3&#45;&gt;Node4 -->
<g id="edge3" class="edge">
<title>Node3&#45;&gt;Node4</title>
<path fill="none" stroke="midnightblue" d="M478.58,-569.61C489.53,-607.33 523.16,-706.42 587,-759.5 592.54,-764.11 598.81,-768.01 605.41,-771.32"/>
<polygon fill="midnightblue" stroke="midnightblue" points="604.01,-774.53 614.56,-775.48 606.9,-768.16 604.01,-774.53"/>
</g>
<!-- Node5 -->
<g id="node5" class="node">
<title>Node5</title>
<g id="a_node5"><a xlink:href="classdenoptim_1_1graph_1_1_vertex.html#a022f7c9075b178f17e13339b215ee21f" target="_top" xlink:title=" ">
<polygon fill="white" stroke="black" points="807,-730.5 807,-760.5 935,-760.5 935,-730.5 807,-730.5"/>
<text text-anchor="start" x="815" y="-748.5" font-family="Helvetica,sans-Serif" font-size="10.00">denoptim.graph.Vertex.get</text>
<text text-anchor="middle" x="871" y="-737.5" font-family="Helvetica,sans-Serif" font-size="10.00">AttachmentPoints</text>
</a>
</g>
</g>
<!-- Node3&#45;&gt;Node5 -->
<g id="edge6" class="edge">
<title>Node3&#45;&gt;Node5</title>
<path fill="none" stroke="midnightblue" d="M479.19,-569.63C490.88,-604.48 524.94,-690.2 587,-726.5 650.48,-763.64 736.22,-763.91 796.64,-757.69"/>
<polygon fill="midnightblue" stroke="midnightblue" points="797.31,-761.14 806.86,-756.55 796.53,-754.18 797.31,-761.14"/>
</g>
<!-- Node6 -->
<g id="node6" class="node">
<title>Node6</title>
<g id="a_node6"><a xlink:href="classdenoptim_1_1graph_1_1_attachment_point.html#a31bed4cb29f6437bf8a888a1dda3fd95" target="_top" xlink:title="Returns the Attachment Point class.">
<polygon fill="white" stroke="black" points="611.5,-686.5 611.5,-716.5 746.5,-716.5 746.5,-686.5 611.5,-686.5"/>
<text text-anchor="start" x="619.5" y="-704.5" font-family="Helvetica,sans-Serif" font-size="10.00">denoptim.graph.Attachment</text>
<text text-anchor="middle" x="679" y="-693.5" font-family="Helvetica,sans-Serif" font-size="10.00">Point.getAPClass</text>
</a>
</g>
</g>
<!-- Node3&#45;&gt;Node6 -->
<g id="edge5" class="edge">
<title>Node3&#45;&gt;Node6</title>
<path fill="none" stroke="midnightblue" d="M483.97,-569.55C501.18,-595.64 540.2,-649.2 587,-677.5 591.63,-680.3 596.59,-682.78 601.71,-684.97"/>
<polygon fill="midnightblue" stroke="midnightblue" points="600.48,-688.25 611.06,-688.61 603.02,-681.72 600.48,-688.25"/>
</g>
<!-- Node7 -->
<g id="node7" class="node">
<title>Node7</title>
<g id="a_node7"><a xlink:href="classdenoptim_1_1fragspace_1_1_fragment_space.html#ae9d431ee87c4285c7d49d78b90ebe3a6" target="_top" xlink:title="Returns the list of fragments with given number of APs.">
<polygon fill="white" stroke="black" points="606.5,-637.5 606.5,-667.5 751.5,-667.5 751.5,-637.5 606.5,-637.5"/>
<text text-anchor="start" x="614.5" y="-655.5" font-family="Helvetica,sans-Serif" font-size="10.00">denoptim.fragspace.Fragment</text>
<text text-anchor="middle" x="679" y="-644.5" font-family="Helvetica,sans-Serif" font-size="10.00">Space.getFragsWithNumAps</text>
</a>
</g>
</g>
<!-- Node3&#45;&gt;Node7 -->
<g id="edge7" class="edge">
<title>Node3&#45;&gt;Node7</title>
<path fill="none" stroke="midnightblue" d="M493.3,-569.64C514.78,-586.26 551.56,-612.68 587,-628.5 591.43,-630.48 596.06,-632.32 600.77,-634.03"/>
<polygon fill="midnightblue" stroke="midnightblue" points="599.96,-637.45 610.55,-637.36 602.21,-630.82 599.96,-637.45"/>
</g>
<!-- Node8 -->
<g id="node8" class="node">
<title>Node8</title>
<g id="a_node8"><a xlink:href="classdenoptim_1_1graph_1_1_vertex.html#ac578a57700de26b2f0ba1fc7470129d0" target="_top" xlink:title=" ">
<polygon fill="white" stroke="black" points="615,-588.5 615,-618.5 743,-618.5 743,-588.5 615,-588.5"/>
<text text-anchor="start" x="623" y="-606.5" font-family="Helvetica,sans-Serif" font-size="10.00">denoptim.graph.Vertex.get</text>
<text text-anchor="middle" x="679" y="-595.5" font-family="Helvetica,sans-Serif" font-size="10.00">FreeAPCount</text>
</a>
</g>
</g>
<!-- Node3&#45;&gt;Node8 -->
<g id="edge8" class="edge">
<title>Node3&#45;&gt;Node8</title>
<path fill="none" stroke="midnightblue" d="M536.94,-569.53C558.72,-574.78 583.34,-580.71 605.84,-586.13"/>
<polygon fill="midnightblue" stroke="midnightblue" points="605.14,-589.56 615.68,-588.49 606.78,-582.75 605.14,-589.56"/>
</g>
<!-- Node9 -->
<g id="node9" class="node">
<title>Node9</title>
<g id="a_node9"><a xlink:href="classdenoptim_1_1fragspace_1_1_fragment_space.html#a989cebcb213d2c575f669398db4d2131" target="_top" xlink:title=" ">
<polygon fill="white" stroke="black" points="587,-539.5 587,-569.5 771,-569.5 771,-539.5 587,-539.5"/>
<text text-anchor="start" x="595" y="-557.5" font-family="Helvetica,sans-Serif" font-size="10.00">denoptim.fragspace.Fragment</text>
<text text-anchor="middle" x="679" y="-546.5" font-family="Helvetica,sans-Serif" font-size="10.00">Space.getMapAPClassesPerFragment</text>
</a>
</g>
</g>
<!-- Node3&#45;&gt;Node9 -->
<g id="edge10" class="edge">
<title>Node3&#45;&gt;Node9</title>
<path fill="none" stroke="midnightblue" d="M546.25,-554.5C556.12,-554.5 566.4,-554.5 576.68,-554.5"/>
<polygon fill="midnightblue" stroke="midnightblue" points="576.94,-558 586.94,-554.5 576.94,-551 576.94,-558"/>
</g>
<!-- Node10 -->
<g id="node10" class="node">
<title>Node10</title>
<g id="a_node10"><a xlink:href="classdenoptim_1_1fragspace_1_1_fragment_space.html#aa06ebee904c88b82e9e3dce899781106" target="_top" xlink:title=" ">
<polygon fill="white" stroke="black" points="591,-490.5 591,-520.5 767,-520.5 767,-490.5 591,-490.5"/>
<text text-anchor="start" x="599" y="-508.5" font-family="Helvetica,sans-Serif" font-size="10.00">denoptim.fragspace.Fragment</text>
<text text-anchor="middle" x="679" y="-497.5" font-family="Helvetica,sans-Serif" font-size="10.00">Space.getMapFragsAPsPerAPClass</text>
</a>
</g>
</g>
<!-- Node3&#45;&gt;Node10 -->
<g id="edge11" class="edge">
<title>Node3&#45;&gt;Node10</title>
<path fill="none" stroke="midnightblue" d="M536.94,-539.47C558.72,-534.22 583.34,-528.29 605.84,-522.87"/>
<polygon fill="midnightblue" stroke="midnightblue" points="606.78,-526.25 615.68,-520.51 605.14,-519.44 606.78,-526.25"/>
</g>
<!-- Node11 -->
<g id="node11" class="node">
<title>Node11</title>
<g id="a_node11"><a xlink:href="classdenoptim_1_1fragspace_1_1_fragment_space.html#a3aad125a846731307d56e68cd69b8ae5" target="_top" xlink:title=" ">
<polygon fill="white" stroke="black" points="595.5,-441.5 595.5,-471.5 762.5,-471.5 762.5,-441.5 595.5,-441.5"/>
<text text-anchor="start" x="603.5" y="-459.5" font-family="Helvetica,sans-Serif" font-size="10.00">denoptim.fragspace.Fragment</text>
<text text-anchor="middle" x="679" y="-448.5" font-family="Helvetica,sans-Serif" font-size="10.00">Space.getMapOfFragsPerNumAps</text>
</a>
</g>
</g>
<!-- Node3&#45;&gt;Node11 -->
<g id="edge12" class="edge">
<title>Node3&#45;&gt;Node11</title>
<path fill="none" stroke="midnightblue" d="M535.53,-539.35C540.99,-536.83 546.24,-533.9 551,-530.5 572.98,-514.79 564.74,-496.82 587,-481.5 589.92,-479.49 593,-477.64 596.19,-475.94"/>
<polygon fill="midnightblue" stroke="midnightblue" points="597.91,-478.99 605.43,-471.53 594.9,-472.68 597.91,-478.99"/>
</g>
<!-- Node12 -->
<g id="node12" class="node">
<title>Node12</title>
<g id="a_node12"><a xlink:href="classdenoptim_1_1graph_1_1_attachment_point.html#a77887ce020d49c189b89e049f12b70ba" target="_top" xlink:title="Check availability of this attachment point.">
<polygon fill="white" stroke="black" points="611.5,-392.5 611.5,-422.5 746.5,-422.5 746.5,-392.5 611.5,-392.5"/>
<text text-anchor="start" x="619.5" y="-410.5" font-family="Helvetica,sans-Serif" font-size="10.00">denoptim.graph.Attachment</text>
<text text-anchor="middle" x="679" y="-399.5" font-family="Helvetica,sans-Serif" font-size="10.00">Point.isAvailable</text>
</a>
</g>
</g>
<!-- Node3&#45;&gt;Node12 -->
<g id="edge13" class="edge">
<title>Node3&#45;&gt;Node12</title>
<path fill="none" stroke="midnightblue" d="M538.85,-539.45C543.25,-536.92 547.37,-533.96 551,-530.5 584.59,-498.49 552.84,-463.91 587,-432.5 591.48,-428.38 596.58,-424.93 602.02,-422.04"/>
<polygon fill="midnightblue" stroke="midnightblue" points="603.84,-425.06 611.45,-417.69 600.9,-418.7 603.84,-425.06"/>
</g>
<!-- Node13 -->
<g id="node13" class="node">
<title>Node13</title>
<g id="a_node13"><a xlink:href="classdenoptim_1_1fragspace_1_1_fragment_space.html#a1746f750aa65cefd1ed92ab55e750e63" target="_top" xlink:title="Adds the reference to a ring&#45;closing vertex (RCV) to the quick&#45;access list of RCVs known in this buil...">
<polygon fill="white" stroke="black" points="606.5,-343.5 606.5,-373.5 751.5,-373.5 751.5,-343.5 606.5,-343.5"/>
<text text-anchor="start" x="614.5" y="-361.5" font-family="Helvetica,sans-Serif" font-size="10.00">denoptim.fragspace.Fragment</text>
<text text-anchor="middle" x="679" y="-350.5" font-family="Helvetica,sans-Serif" font-size="10.00">Space.registerRCV</text>
</a>
</g>
</g>
<!-- Node3&#45;&gt;Node13 -->
<g id="edge14" class="edge">
<title>Node3&#45;&gt;Node13</title>
<path fill="none" stroke="midnightblue" d="M540.01,-539.44C544.03,-536.91 547.76,-533.95 551,-530.5 597.02,-481.44 540.11,-431.72 587,-383.5 590.08,-380.33 593.53,-377.55 597.23,-375.11"/>
<polygon fill="midnightblue" stroke="midnightblue" points="599.26,-377.98 606.26,-370.03 595.83,-371.88 599.26,-377.98"/>
</g>
<!-- Node14 -->
<g id="node14" class="node">
<title>Node14</title>
<g id="a_node14"><a xlink:href="classdenoptim_1_1fragspace_1_1_fragment_space.html#a47b278f84db073b1f06809f9c42cfae5" target="_top" xlink:title="Check usage of APClass&#45;based approach, i.e., uses attachment points with annotated data (i....">
<polygon fill="white" stroke="black" points="595,-294.5 595,-324.5 763,-324.5 763,-294.5 595,-294.5"/>
<text text-anchor="start" x="603" y="-312.5" font-family="Helvetica,sans-Serif" font-size="10.00">denoptim.fragspace.Fragment</text>
<text text-anchor="middle" x="679" y="-301.5" font-family="Helvetica,sans-Serif" font-size="10.00">Space.useAPclassBasedApproach</text>
</a>
</g>
</g>
<!-- Node3&#45;&gt;Node14 -->
<g id="edge15" class="edge">
<title>Node3&#45;&gt;Node14</title>
<path fill="none" stroke="midnightblue" d="M540.59,-539.43C544.43,-536.89 547.96,-533.94 551,-530.5 609.68,-464.16 527.14,-399.78 587,-334.5 588.22,-333.17 589.5,-331.91 590.84,-330.72"/>
<polygon fill="midnightblue" stroke="midnightblue" points="593.15,-333.35 599.05,-324.55 588.95,-327.76 593.15,-333.35"/>
</g>
<!-- Node4&#45;&gt;Node5 -->
<g id="edge4" class="edge">
<title>Node4&#45;&gt;Node5</title>
<path fill="none" stroke="midnightblue" d="M743,-774.91C760.32,-770.9 779.24,-766.52 797.07,-762.39"/>
<polygon fill="midnightblue" stroke="midnightblue" points="797.89,-765.79 806.84,-760.13 796.31,-758.97 797.89,-765.79"/>
</g>
<!-- Node8&#45;&gt;Node5 -->
<g id="edge9" class="edge">
<title>Node8&#45;&gt;Node5</title>
<path fill="none" stroke="midnightblue" d="M743.3,-615.56C753,-618.89 762.58,-623.12 771,-628.5 808.51,-652.46 839.27,-695.06 856.09,-721.71"/>
<polygon fill="midnightblue" stroke="midnightblue" points="853.22,-723.73 861.44,-730.42 859.18,-720.07 853.22,-723.73"/>
</g>
<!-- Node20 -->
<g id="node20" class="node">
<title>Node20</title>
<g id="a_node20"><a xlink:href="classdenoptim_1_1fragspace_1_1_fragment_space.html#a595ddccfe052fff28e9d79f721d816b9" target="_top" xlink:title="Takes a list of vertices and add them to a given library.">
<polygon fill="white" stroke="black" points="396,-196.5 396,-226.5 551,-226.5 551,-196.5 396,-196.5"/>
<text text-anchor="start" x="404" y="-214.5" font-family="Helvetica,sans-Serif" font-size="10.00">denoptim.fragspace.Fragment</text>
<text text-anchor="middle" x="473.5" y="-203.5" font-family="Helvetica,sans-Serif" font-size="10.00">Space.appendVerticesToLibrary</text>
</a>
</g>
</g>
<!-- Node19&#45;&gt;Node20 -->
<g id="edge21" class="edge">
<title>Node19&#45;&gt;Node20</title>
<path fill="none" stroke="midnightblue" d="M343.19,-393.07C349.15,-390.4 354.85,-387.24 360,-383.5 367.04,-378.39 428.67,-281.21 457.61,-235.23"/>
<polygon fill="midnightblue" stroke="midnightblue" points="460.73,-236.83 463.1,-226.5 454.81,-233.1 460.73,-236.83"/>
</g>
<!-- Node21 -->
<g id="node21" class="node">
<title>Node21</title>
<g id="a_node21"><a xlink:href="classdenoptim_1_1fragspace_1_1_fragment_space.html#a29a9f624b749868d8afd6aa5a987543d" target="_top" xlink:title="Takes a vertex and add it to a given library.">
<polygon fill="white" stroke="black" points="606,-196.5 606,-226.5 752,-226.5 752,-196.5 606,-196.5"/>
<text text-anchor="start" x="614" y="-214.5" font-family="Helvetica,sans-Serif" font-size="10.00">denoptim.fragspace.Fragment</text>
<text text-anchor="middle" x="679" y="-203.5" font-family="Helvetica,sans-Serif" font-size="10.00">Space.appendVertexToLibrary</text>
</a>
</g>
</g>
<!-- Node20&#45;&gt;Node21 -->
<g id="edge22" class="edge">
<title>Node20&#45;&gt;Node21</title>
<path fill="none" stroke="midnightblue" d="M551.14,-211.5C565.7,-211.5 580.99,-211.5 595.71,-211.5"/>
<polygon fill="midnightblue" stroke="midnightblue" points="595.79,-215 605.79,-211.5 595.79,-208 595.79,-215"/>
</g>
<!-- Node22 -->
<g id="node22" class="node">
<title>Node22</title>
<g id="a_node22"><a xlink:href="classdenoptim_1_1graph_1_1_vertex.html#a867032399d8aad0a894cbf5b51406ac4" target="_top" xlink:title=" ">
<polygon fill="white" stroke="black" points="807,-221.5 807,-251.5 935,-251.5 935,-221.5 807,-221.5"/>
<text text-anchor="start" x="815" y="-239.5" font-family="Helvetica,sans-Serif" font-size="10.00">denoptim.graph.Vertex.set</text>
<text text-anchor="middle" x="871" y="-228.5" font-family="Helvetica,sans-Serif" font-size="10.00">BuildingBlockId</text>
</a>
</g>
</g>
<!-- Node21&#45;&gt;Node22 -->
<g id="edge23" class="edge">
<title>Node21&#45;&gt;Node22</title>
<path fill="none" stroke="midnightblue" d="M752.1,-220.99C766.77,-222.92 782.22,-224.95 796.92,-226.88"/>
<polygon fill="midnightblue" stroke="midnightblue" points="796.59,-230.37 806.97,-228.21 797.51,-223.43 796.59,-230.37"/>
</g>
<!-- Node23 -->
<g id="node23" class="node">
<title>Node23</title>
<g id="a_node23"><a xlink:href="classdenoptim_1_1graph_1_1_vertex.html#ab8088bc1c894c7c916ca8d8a151fa905" target="_top" xlink:title=" ">
<polygon fill="white" stroke="black" points="807,-172.5 807,-202.5 935,-202.5 935,-172.5 807,-172.5"/>
<text text-anchor="start" x="815" y="-190.5" font-family="Helvetica,sans-Serif" font-size="10.00">denoptim.graph.Vertex.set</text>
<text text-anchor="middle" x="871" y="-179.5" font-family="Helvetica,sans-Serif" font-size="10.00">BuildingBlockType</text>
</a>
</g>
</g>
<!-- Node21&#45;&gt;Node23 -->
<g id="edge24" class="edge">
<title>Node21&#45;&gt;Node23</title>
<path fill="none" stroke="midnightblue" d="M752.1,-202.39C766.77,-200.54 782.22,-198.59 796.92,-196.73"/>
<polygon fill="midnightblue" stroke="midnightblue" points="797.48,-200.19 806.97,-195.46 796.61,-193.24 797.48,-200.19"/>
</g>
<!-- Node27&#45;&gt;Node20 -->
<g id="edge29" class="edge">
<title>Node27&#45;&gt;Node20</title>
<path fill="none" stroke="midnightblue" d="M343.21,-211.5C356.91,-211.5 371.39,-211.5 385.51,-211.5"/>
<polygon fill="midnightblue" stroke="midnightblue" points="385.71,-215 395.71,-211.5 385.71,-208 385.71,-215"/>
</g>
<!-- Node30&#45;&gt;Node20 -->
<g id="edge33" class="edge">
<title>Node30&#45;&gt;Node20</title>
<path fill="none" stroke="midnightblue" d="M342.12,-79.66C348.37,-82.18 354.43,-85.1 360,-88.5 402.14,-114.19 438.06,-160.24 457.35,-188.12"/>
<polygon fill="midnightblue" stroke="midnightblue" points="454.51,-190.17 463.01,-196.48 460.3,-186.24 454.51,-190.17"/>
</g>
</g>
</svg>
        <g id="navigator" transform="translate(0 0)" fill="#404254">
                <rect fill="#f2f5e9" fill-opacity="0.5" stroke="#606060" stroke-width=".5" x="0" y="0" width="60" height="60"/>
                <use id="zoomplus" xlink:href="#zoomPlus" x="17" y="9" onmousedown="handleZoom(evt,'in')"/>
                <use id="zoomminus" xlink:href="#zoomMin" x="42" y="9" onmousedown="handleZoom(evt,'out')"/>
                <use id="reset" xlink:href="#resetDef" x="30" y="36" onmousedown="handleReset()"/>
                <g id="arrowUp" xlink:href="#dirArrow" transform="translate(30 24)" onmousedown="handlePan(0,-1)">
                  <use xlink:href="#rim" fill="#404040">
                        <set attributeName="fill" to="#808080" begin="arrowUp.mouseover" end="arrowUp.mouseout"/>
                  </use>
                  <path fill="none" stroke="white" stroke-width="1.5" d="M0,-3.0v7 M-2.5,-0.5L0,-3.0L2.5,-0.5"/>
                </g>
                <g id="arrowRight" xlink:href="#dirArrow" transform="rotate(90) translate(36 -43)" onmousedown="handlePan(1,0)">
                  <use xlink:href="#rim" fill="#404040">
                        <set attributeName="fill" to="#808080" begin="arrowRight.mouseover" end="arrowRight.mouseout"/>
                  </use>
                  <path fill="none" stroke="white" stroke-width="1.5" d="M0,-3.0v7 M-2.5,-0.5L0,-3.0L2.5,-0.5"/>
                </g>
                <g id="arrowDown" xlink:href="#dirArrow" transform="rotate(180) translate(-30 -48)" onmousedown="handlePan(0,1)">
                  <use xlink:href="#rim" fill="#404040">
                        <set attributeName="fill" to="#808080" begin="arrowDown.mouseover" end="arrowDown.mouseout"/>
                  </use>
                  <path fill="none" stroke="white" stroke-width="1.5" d="M0,-3.0v7 M-2.5,-0.5L0,-3.0L2.5,-0.5"/>
                </g>
                <g id="arrowLeft" xlink:href="#dirArrow" transform="rotate(270) translate(-36 17)" onmousedown="handlePan(-1,0)">
                  <use xlink:href="#rim" fill="#404040">
                        <set attributeName="fill" to="#808080" begin="arrowLeft.mouseover" end="arrowLeft.mouseout"/>
                  </use>
                  <path fill="none" stroke="white" stroke-width="1.5" d="M0,-3.0v7 M-2.5,-0.5L0,-3.0L2.5,-0.5"/>
                </g>
        </g>
        <svg viewBox="0 0 15 15" width="100%" height="30px" preserveAspectRatio="xMaxYMin meet">
         <g id="arrow_out" transform="scale(0.3 0.3)">
          <a xlink:href="classdenoptim_1_1fragspace_1_1_fragment_space_a4792b534137a7989aab4ab2237d12438_cgraph_org.svg" target="_base">
           <rect id="button" ry="5" rx="5" y="6" x="6" height="38" width="38"
                fill="#f2f5e9" fill-opacity="0.5" stroke="#606060" stroke-width="1.0"/>
           <path id="arrow"
             d="M 11.500037,31.436501 C 11.940474,20.09759 22.043105,11.32322 32.158766,21.979434 L 37.068811,17.246167 C 37.068811,17.246167 37.088388,32 37.088388,32 L 22.160133,31.978069 C 22.160133,31.978069 26.997745,27.140456 26.997745,27.140456 C 18.528582,18.264221 13.291696,25.230495 11.500037,31.436501 z"
             style="fill:#404040;"/>
          </a>
         </g>
        </svg>
</svg>
