<?xml version="1.0" encoding="UTF-8" standalone="no"?>
<!DOCTYPE svg PUBLIC "-//W3C//DTD SVG 1.1//EN"
 "http://www.w3.org/Graphics/SVG/1.1/DTD/svg11.dtd">
<!-- Generated by graphviz version 3.0.0 (20220413.0242)
 -->
<!-- Title: denoptim.programs.denovo.GAParameters.convertProbabilityScheme Pages: 1 -->
<!--zoomable 404 -->
<svg id="main" version="1.1" xmlns="http://www.w3.org/2000/svg" xmlns:xlink="http://www.w3.org/1999/xlink" xml:space="preserve" onload="init(evt)">
<style type="text/css"><![CDATA[
.edge:hover path { stroke: red; }
.edge:hover polygon { stroke: red; fill: red; }
]]></style>
<script type="text/javascript"><![CDATA[
var edges = document.getElementsByTagName('g');
if (edges && edges.length) {
  for (var i=0;i<edges.length;i++) {
    if (edges[i].id.substr(0,4)=='edge') {
      edges[i].setAttribute('class','edge');
    }
  }
}
]]></script>
        <defs>
                <circle id="rim" cx="0" cy="0" r="7"/>
                <circle id="rim2" cx="0" cy="0" r="3.5"/>
                <g id="zoomPlus">
                        <use xlink:href="#rim" fill="#404040">
                                <set attributeName="fill" to="#808080" begin="zoomplus.mouseover" end="zoomplus.mouseout"/>
                        </use>
                        <path d="M-4,0h8M0,-4v8" fill="none" stroke="white" stroke-width="1.5" pointer-events="none"/>
                </g>
                <g id="zoomMin">
                        <use xlink:href="#rim" fill="#404040">
                                <set attributeName="fill" to="#808080" begin="zoomminus.mouseover" end="zoomminus.mouseout"/>
                        </use>
                        <path d="M-4,0h8" fill="none" stroke="white" stroke-width="1.5" pointer-events="none"/>
                </g>
                <g id="dirArrow">
                        <path fill="none" stroke="white" stroke-width="1.5" d="M0,-3.0v7 M-2.5,-0.5L0,-3.0L2.5,-0.5"/>
                </g>
               <g id="resetDef">
                       <use xlink:href="#rim2" fill="#404040">
                               <set attributeName="fill" to="#808080" begin="reset.mouseover" end="reset.mouseout"/>
                       </use>
               </g>
        </defs>

<script type="text/javascript">
var viewWidth = 748;
var viewHeight = 404;
var sectionId = 'dynsection-4';
</script>
<script xlink:href="svgpan.js"/>
<svg id="graph" class="graph">
<g id="viewport">
<title>denoptim.programs.denovo.GAParameters.convertProbabilityScheme</title>
<polygon fill="white" stroke="transparent" points="-4,4 -4,-399.5 744,-399.5 744,4 -4,4"/>
<!-- Node1 -->
<g id="node1" class="node">
<title>Node1</title>
<g id="a_node1"><a xlink:title=" ">
<polygon fill="#bfbfbf" stroke="black" points="579,-187.5 579,-228.5 740,-228.5 740,-187.5 579,-187.5"/>
<text text-anchor="start" x="587" y="-216.5" font-family="Helvetica,sans-Serif" font-size="10.00">denoptim.programs.denovo.</text>
<text text-anchor="start" x="587" y="-205.5" font-family="Helvetica,sans-Serif" font-size="10.00">GAParameters.convertProbability</text>
<text text-anchor="middle" x="659.5" y="-194.5" font-family="Helvetica,sans-Serif" font-size="10.00">Scheme</text>
</a>
</g>
</g>
<!-- Node2 -->
<g id="node2" class="node">
<title>Node2</title>
<g id="a_node2"><a xlink:href="classdenoptim_1_1gui_1_1_g_a_parameters_form.html#a44e653526253cfea892611376a7fa3bb" target="_top" xlink:title=" ">
<polygon fill="white" stroke="black" points="389.5,-316 389.5,-346 539.5,-346 539.5,-316 389.5,-316"/>
<text text-anchor="start" x="397.5" y="-334" font-family="Helvetica,sans-Serif" font-size="10.00">denoptim.gui.GAParameters</text>
<text text-anchor="middle" x="464.5" y="-323" font-family="Helvetica,sans-Serif" font-size="10.00">Form.createCrowdProbDataset</text>
</a>
</g>
</g>
<!-- Node1&#45;&gt;Node2 -->
<g id="edge1" class="edge">
<title>Node1&#45;&gt;Node2</title>
<path fill="none" stroke="midnightblue" d="M617.67,-234.02C578.6,-258.92 521.04,-295.6 489.08,-315.97"/>
<polygon fill="midnightblue" stroke="midnightblue" points="619.64,-236.91 626.2,-228.59 615.88,-231.01 619.64,-236.91"/>
</g>
<!-- Node6 -->
<g id="node6" class="node">
<title>Node6</title>
<g id="a_node6"><a xlink:href="classdenoptim_1_1gui_1_1_g_a_parameters_form.html#a22386cab9dce09cbf6708158ebd38276" target="_top" xlink:title=" ">
<polygon fill="white" stroke="black" points="395.5,-218 395.5,-248 533.5,-248 533.5,-218 395.5,-218"/>
<text text-anchor="start" x="403.5" y="-236" font-family="Helvetica,sans-Serif" font-size="10.00">denoptim.gui.GAParameters</text>
<text text-anchor="middle" x="464.5" y="-225" font-family="Helvetica,sans-Serif" font-size="10.00">Form.createLvlProbDataset</text>
</a>
</g>
</g>
<!-- Node1&#45;&gt;Node6 -->
<g id="edge6" class="edge">
<title>Node1&#45;&gt;Node6</title>
<path fill="none" stroke="midnightblue" d="M568.94,-219.6C557.04,-221.14 545,-222.7 533.55,-224.19"/>
<polygon fill="midnightblue" stroke="midnightblue" points="569.42,-223.07 578.89,-218.31 568.52,-216.13 569.42,-223.07"/>
</g>
<!-- Node9 -->
<g id="node9" class="node">
<title>Node9</title>
<g id="a_node9"><a xlink:href="classdenoptim_1_1gui_1_1_g_a_parameters_form.html#a5f0013b279214ea7c6226849afe8333d" target="_top" xlink:title=" ">
<polygon fill="white" stroke="black" points="386,-169 386,-199 543,-199 543,-169 386,-169"/>
<text text-anchor="start" x="394" y="-187" font-family="Helvetica,sans-Serif" font-size="10.00">denoptim.gui.GAParameters</text>
<text text-anchor="middle" x="464.5" y="-176" font-family="Helvetica,sans-Serif" font-size="10.00">Form.createMolSizeProbDataset</text>
</a>
</g>
</g>
<!-- Node1&#45;&gt;Node9 -->
<g id="edge11" class="edge">
<title>Node1&#45;&gt;Node9</title>
<path fill="none" stroke="midnightblue" d="M568.83,-196.85C560.22,-195.78 551.54,-194.7 543.07,-193.65"/>
<polygon fill="midnightblue" stroke="midnightblue" points="568.53,-200.34 578.89,-198.1 569.39,-193.39 568.53,-200.34"/>
</g>
<!-- Node12 -->
<g id="node12" class="node">
<title>Node12</title>
<g id="a_node12"><a xlink:href="classdenoptim_1_1programs_1_1denovo_1_1_g_a_parameters.html#a151bc101f1480bfd9f0df329e31e3990" target="_top" xlink:title="Processes a keyword/value pair and assign the related parameters.">
<polygon fill="white" stroke="black" points="386.5,-66 386.5,-96 542.5,-96 542.5,-66 386.5,-66"/>
<text text-anchor="start" x="394.5" y="-84" font-family="Helvetica,sans-Serif" font-size="10.00">denoptim.programs.denovo.</text>
<text text-anchor="middle" x="464.5" y="-73" font-family="Helvetica,sans-Serif" font-size="10.00">GAParameters.interpretKeyword</text>
</a>
</g>
</g>
<!-- Node1&#45;&gt;Node12 -->
<g id="edge16" class="edge">
<title>Node1&#45;&gt;Node12</title>
<path fill="none" stroke="midnightblue" d="M618.49,-181.67C579.16,-155.79 520.5,-117.19 488.45,-96.1"/>
<polygon fill="midnightblue" stroke="midnightblue" points="616.78,-184.74 627.06,-187.31 620.63,-178.89 616.78,-184.74"/>
</g>
<!-- Node3 -->
<g id="node3" class="node">
<title>Node3</title>
<g id="a_node3"><a xlink:href="classdenoptim_1_1gui_1_1_g_a_parameters_form.html#a567ed81852332217cc344d9a5ecd8eb0" target="_top" xlink:title=" ">
<polygon fill="white" stroke="black" points="190.5,-365 190.5,-395 333.5,-395 333.5,-365 190.5,-365"/>
<text text-anchor="start" x="198.5" y="-383" font-family="Helvetica,sans-Serif" font-size="10.00">denoptim.gui.GAParameters</text>
<text text-anchor="middle" x="262" y="-372" font-family="Helvetica,sans-Serif" font-size="10.00">Form.createCrowdProbGraph</text>
</a>
</g>
</g>
<!-- Node2&#45;&gt;Node3 -->
<g id="edge2" class="edge">
<title>Node2&#45;&gt;Node3</title>
<path fill="none" stroke="midnightblue" d="M391.99,-348.48C369.89,-353.88 345.76,-359.78 324.4,-364.99"/>
<polygon fill="midnightblue" stroke="midnightblue" points="393.1,-351.81 401.98,-346.03 391.44,-345.01 393.1,-351.81"/>
</g>
<!-- Node5 -->
<g id="node5" class="node">
<title>Node5</title>
<g id="a_node5"><a xlink:href="classdenoptim_1_1gui_1_1_g_a_parameters_form.html#a2e63957f5d08fb45f9a5fb3fbf5882a0" target="_top" xlink:title=" ">
<polygon fill="white" stroke="black" points="186,-316 186,-346 338,-346 338,-316 186,-316"/>
<text text-anchor="start" x="194" y="-334" font-family="Helvetica,sans-Serif" font-size="10.00">denoptim.gui.GAParameters</text>
<text text-anchor="middle" x="262" y="-323" font-family="Helvetica,sans-Serif" font-size="10.00">Form.updateCrowdProbDataset</text>
</a>
</g>
</g>
<!-- Node2&#45;&gt;Node5 -->
<g id="edge4" class="edge">
<title>Node2&#45;&gt;Node5</title>
<path fill="none" stroke="midnightblue" d="M379.1,-331C365.5,-331 351.49,-331 338.12,-331"/>
<polygon fill="midnightblue" stroke="midnightblue" points="379.41,-334.5 389.41,-331 379.41,-327.5 379.41,-334.5"/>
</g>
<!-- Node4 -->
<g id="node4" class="node">
<title>Node4</title>
<g id="a_node4"><a xlink:href="classdenoptim_1_1gui_1_1_g_a_parameters_form.html#a1da1237b4f0c1d5c5335abc8c2bb2602" target="_top" xlink:title=" ">
<polygon fill="white" stroke="black" points="0,-242 0,-272 138,-272 138,-242 0,-242"/>
<text text-anchor="start" x="8" y="-260" font-family="Helvetica,sans-Serif" font-size="10.00">denoptim.gui.GAParameters</text>
<text text-anchor="middle" x="69" y="-249" font-family="Helvetica,sans-Serif" font-size="10.00">Form.GAParametersForm</text>
</a>
</g>
</g>
<!-- Node3&#45;&gt;Node4 -->
<g id="edge3" class="edge">
<title>Node3&#45;&gt;Node4</title>
<path fill="none" stroke="midnightblue" d="M183.64,-360.89C180.32,-359.38 177.09,-357.75 174,-356 134.95,-333.9 99.4,-293.93 81.73,-272.15"/>
<polygon fill="midnightblue" stroke="midnightblue" points="182.59,-364.25 193.17,-364.87 185.29,-357.79 182.59,-364.25"/>
</g>
<!-- Node5&#45;&gt;Node4 -->
<g id="edge5" class="edge">
<title>Node5&#45;&gt;Node4</title>
<path fill="none" stroke="midnightblue" d="M190.92,-312.85C185.15,-311 179.45,-309.04 174,-307 147.55,-297.08 118.69,-282.92 98.09,-272.2"/>
<polygon fill="midnightblue" stroke="midnightblue" points="190.06,-316.25 200.64,-315.86 192.13,-309.56 190.06,-316.25"/>
</g>
<!-- Node7 -->
<g id="node7" class="node">
<title>Node7</title>
<g id="a_node7"><a xlink:href="classdenoptim_1_1gui_1_1_g_a_parameters_form.html#a158ba2f1ca48d1c41d976fb1e29270d4" target="_top" xlink:title=" ">
<polygon fill="white" stroke="black" points="193,-267 193,-297 331,-297 331,-267 193,-267"/>
<text text-anchor="start" x="201" y="-285" font-family="Helvetica,sans-Serif" font-size="10.00">denoptim.gui.GAParameters</text>
<text text-anchor="middle" x="262" y="-274" font-family="Helvetica,sans-Serif" font-size="10.00">Form.createLvlProbGraph</text>
</a>
</g>
</g>
<!-- Node6&#45;&gt;Node7 -->
<g id="edge7" class="edge">
<title>Node6&#45;&gt;Node7</title>
<path fill="none" stroke="midnightblue" d="M391.99,-250.48C369.89,-255.88 345.76,-261.78 324.4,-266.99"/>
<polygon fill="midnightblue" stroke="midnightblue" points="393.1,-253.81 401.98,-248.03 391.44,-247.01 393.1,-253.81"/>
</g>
<!-- Node8 -->
<g id="node8" class="node">
<title>Node8</title>
<g id="a_node8"><a xlink:href="classdenoptim_1_1gui_1_1_g_a_parameters_form.html#ad06889bcd32122fe3f16825f9525daca" target="_top" xlink:title=" ">
<polygon fill="white" stroke="black" points="188.5,-218 188.5,-248 335.5,-248 335.5,-218 188.5,-218"/>
<text text-anchor="start" x="196.5" y="-236" font-family="Helvetica,sans-Serif" font-size="10.00">denoptim.gui.GAParameters</text>
<text text-anchor="middle" x="262" y="-225" font-family="Helvetica,sans-Serif" font-size="10.00">Form.updateSubsProbDataset</text>
</a>
</g>
</g>
<!-- Node6&#45;&gt;Node8 -->
<g id="edge9" class="edge">
<title>Node6&#45;&gt;Node8</title>
<path fill="none" stroke="midnightblue" d="M385.31,-233C369,-233 351.87,-233 335.77,-233"/>
<polygon fill="midnightblue" stroke="midnightblue" points="385.34,-236.5 395.34,-233 385.34,-229.5 385.34,-236.5"/>
</g>
<!-- Node7&#45;&gt;Node4 -->
<g id="edge8" class="edge">
<title>Node7&#45;&gt;Node4</title>
<path fill="none" stroke="midnightblue" d="M182.72,-271.75C167.93,-269.82 152.57,-267.81 138.12,-265.92"/>
<polygon fill="midnightblue" stroke="midnightblue" points="182.48,-275.25 192.85,-273.08 183.39,-268.31 182.48,-275.25"/>
</g>
<!-- Node8&#45;&gt;Node4 -->
<g id="edge10" class="edge">
<title>Node8&#45;&gt;Node4</title>
<path fill="none" stroke="midnightblue" d="M178.12,-243.41C164.78,-245.09 151.1,-246.81 138.15,-248.44"/>
<polygon fill="midnightblue" stroke="midnightblue" points="178.76,-246.86 188.25,-242.14 177.89,-239.92 178.76,-246.86"/>
</g>
<!-- Node10 -->
<g id="node10" class="node">
<title>Node10</title>
<g id="a_node10"><a xlink:href="classdenoptim_1_1gui_1_1_g_a_parameters_form.html#a2343e3ea102ecd32a7d4e331b51cd160" target="_top" xlink:title=" ">
<polygon fill="white" stroke="black" points="191,-169 191,-199 333,-199 333,-169 191,-169"/>
<text text-anchor="start" x="199" y="-187" font-family="Helvetica,sans-Serif" font-size="10.00">denoptim.gui.GAParameters</text>
<text text-anchor="middle" x="262" y="-176" font-family="Helvetica,sans-Serif" font-size="10.00">Form.createMolSzProbGraph</text>
</a>
</g>
</g>
<!-- Node9&#45;&gt;Node10 -->
<g id="edge12" class="edge">
<title>Node9&#45;&gt;Node10</title>
<path fill="none" stroke="midnightblue" d="M375.69,-184C361.44,-184 346.86,-184 333.11,-184"/>
<polygon fill="midnightblue" stroke="midnightblue" points="375.98,-187.5 385.98,-184 375.98,-180.5 375.98,-187.5"/>
</g>
<!-- Node11 -->
<g id="node11" class="node">
<title>Node11</title>
<g id="a_node11"><a xlink:href="classdenoptim_1_1gui_1_1_g_a_parameters_form.html#a6fc27618b9532386f400bb1ea2b2ca1f" target="_top" xlink:title=" ">
<polygon fill="white" stroke="black" points="182.5,-120 182.5,-150 341.5,-150 341.5,-120 182.5,-120"/>
<text text-anchor="start" x="190.5" y="-138" font-family="Helvetica,sans-Serif" font-size="10.00">denoptim.gui.GAParameters</text>
<text text-anchor="middle" x="262" y="-127" font-family="Helvetica,sans-Serif" font-size="10.00">Form.updatemolSizeProbDataset</text>
</a>
</g>
</g>
<!-- Node9&#45;&gt;Node11 -->
<g id="edge14" class="edge">
<title>Node9&#45;&gt;Node11</title>
<path fill="none" stroke="midnightblue" d="M391.99,-166.52C369.89,-161.12 345.76,-155.22 324.4,-150.01"/>
<polygon fill="midnightblue" stroke="midnightblue" points="391.44,-169.99 401.98,-168.97 393.1,-163.19 391.44,-169.99"/>
</g>
<!-- Node10&#45;&gt;Node4 -->
<g id="edge13" class="edge">
<title>Node10&#45;&gt;Node4</title>
<path fill="none" stroke="midnightblue" d="M194.01,-202.13C187.2,-204.3 180.43,-206.61 174,-209 148.28,-218.57 120.07,-231.77 99.52,-241.9"/>
<polygon fill="midnightblue" stroke="midnightblue" points="195.45,-205.34 203.97,-199.04 193.38,-198.66 195.45,-205.34"/>
</g>
<!-- Node11&#45;&gt;Node4 -->
<g id="edge15" class="edge">
<title>Node11&#45;&gt;Node4</title>
<path fill="none" stroke="midnightblue" d="M186.15,-153.94C181.96,-155.79 177.87,-157.81 174,-160 135.54,-181.78 100.02,-220.52 82.13,-241.86"/>
<polygon fill="midnightblue" stroke="midnightblue" points="187.53,-157.16 195.49,-150.16 184.9,-150.67 187.53,-157.16"/>
</g>
<!-- Node13 -->
<g id="node13" class="node">
<title>Node13</title>
<g id="a_node13"><a xlink:href="classdenoptim_1_1programs_1_1denovo_1_1_g_a_parameters_test.html#aa838fcfa49302bd09aaf49cf36c3b5a9" target="_top" xlink:title=" ">
<polygon fill="white" stroke="black" points="174,-60.5 174,-101.5 350,-101.5 350,-60.5 174,-60.5"/>
<text text-anchor="start" x="182" y="-89.5" font-family="Helvetica,sans-Serif" font-size="10.00">denoptim.programs.denovo.</text>
<text text-anchor="start" x="182" y="-78.5" font-family="Helvetica,sans-Serif" font-size="10.00">GAParametersTest.testInterpretation</text>
<text text-anchor="middle" x="262" y="-67.5" font-family="Helvetica,sans-Serif" font-size="10.00">OfKeywords</text>
</a>
</g>
</g>
<!-- Node12&#45;&gt;Node13 -->
<g id="edge17" class="edge">
<title>Node12&#45;&gt;Node13</title>
<path fill="none" stroke="midnightblue" d="M376.22,-81C367.59,-81 358.84,-81 350.21,-81"/>
<polygon fill="midnightblue" stroke="midnightblue" points="376.27,-84.5 386.27,-81 376.27,-77.5 376.27,-84.5"/>
</g>
<!-- Node14 -->
<g id="node14" class="node">
<title>Node14</title>
<g id="a_node14"><a xlink:href="classdenoptim_1_1programs_1_1denovo_1_1_g_a_parameters_test.html#a5f7524a0ac50011f7bc3e7cb31689504" target="_top" xlink:title=" ">
<polygon fill="white" stroke="black" points="177.5,-0.5 177.5,-41.5 346.5,-41.5 346.5,-0.5 177.5,-0.5"/>
<text text-anchor="start" x="185.5" y="-29.5" font-family="Helvetica,sans-Serif" font-size="10.00">denoptim.programs.denovo.</text>
<text text-anchor="start" x="185.5" y="-18.5" font-family="Helvetica,sans-Serif" font-size="10.00">GAParametersTest.testYesNoTrue</text>
<text text-anchor="middle" x="262" y="-7.5" font-family="Helvetica,sans-Serif" font-size="10.00">FalseKeyword</text>
</a>
</g>
</g>
<!-- Node12&#45;&gt;Node14 -->
<g id="edge18" class="edge">
<title>Node12&#45;&gt;Node14</title>
<path fill="none" stroke="midnightblue" d="M403.36,-63C380.74,-56.23 354.87,-48.49 331.54,-41.51"/>
<polygon fill="midnightblue" stroke="midnightblue" points="402.58,-66.42 413.16,-65.94 404.59,-59.72 402.58,-66.42"/>
</g>
</g>
</svg>
        <g id="navigator" transform="translate(0 0)" fill="#404254">
                <rect fill="#f2f5e9" fill-opacity="0.5" stroke="#606060" stroke-width=".5" x="0" y="0" width="60" height="60"/>
                <use id="zoomplus" xlink:href="#zoomPlus" x="17" y="9" onmousedown="handleZoom(evt,'in')"/>
                <use id="zoomminus" xlink:href="#zoomMin" x="42" y="9" onmousedown="handleZoom(evt,'out')"/>
                <use id="reset" xlink:href="#resetDef" x="30" y="36" onmousedown="handleReset()"/>
                <g id="arrowUp" xlink:href="#dirArrow" transform="translate(30 24)" onmousedown="handlePan(0,-1)">
                  <use xlink:href="#rim" fill="#404040">
                        <set attributeName="fill" to="#808080" begin="arrowUp.mouseover" end="arrowUp.mouseout"/>
                  </use>
                  <path fill="none" stroke="white" stroke-width="1.5" d="M0,-3.0v7 M-2.5,-0.5L0,-3.0L2.5,-0.5"/>
                </g>
                <g id="arrowRight" xlink:href="#dirArrow" transform="rotate(90) translate(36 -43)" onmousedown="handlePan(1,0)">
                  <use xlink:href="#rim" fill="#404040">
                        <set attributeName="fill" to="#808080" begin="arrowRight.mouseover" end="arrowRight.mouseout"/>
                  </use>
                  <path fill="none" stroke="white" stroke-width="1.5" d="M0,-3.0v7 M-2.5,-0.5L0,-3.0L2.5,-0.5"/>
                </g>
                <g id="arrowDown" xlink:href="#dirArrow" transform="rotate(180) translate(-30 -48)" onmousedown="handlePan(0,1)">
                  <use xlink:href="#rim" fill="#404040">
                        <set attributeName="fill" to="#808080" begin="arrowDown.mouseover" end="arrowDown.mouseout"/>
                  </use>
                  <path fill="none" stroke="white" stroke-width="1.5" d="M0,-3.0v7 M-2.5,-0.5L0,-3.0L2.5,-0.5"/>
                </g>
                <g id="arrowLeft" xlink:href="#dirArrow" transform="rotate(270) translate(-36 17)" onmousedown="handlePan(-1,0)">
                  <use xlink:href="#rim" fill="#404040">
                        <set attributeName="fill" to="#808080" begin="arrowLeft.mouseover" end="arrowLeft.mouseout"/>
                  </use>
                  <path fill="none" stroke="white" stroke-width="1.5" d="M0,-3.0v7 M-2.5,-0.5L0,-3.0L2.5,-0.5"/>
                </g>
        </g>
        <svg viewBox="0 0 15 15" width="100%" height="30px" preserveAspectRatio="xMaxYMin meet">
         <g id="arrow_out" transform="scale(0.3 0.3)">
          <a xlink:href="classdenoptim_1_1programs_1_1denovo_1_1_g_a_parameters_a4488a01992b7a7f2cda6f3aa7baa25ab_icgraph_org.svg" target="_base">
           <rect id="button" ry="5" rx="5" y="6" x="6" height="38" width="38"
                fill="#f2f5e9" fill-opacity="0.5" stroke="#606060" stroke-width="1.0"/>
           <path id="arrow"
             d="M 11.500037,31.436501 C 11.940474,20.09759 22.043105,11.32322 32.158766,21.979434 L 37.068811,17.246167 C 37.068811,17.246167 37.088388,32 37.088388,32 L 22.160133,31.978069 C 22.160133,31.978069 26.997745,27.140456 26.997745,27.140456 C 18.528582,18.264221 13.291696,25.230495 11.500037,31.436501 z"
             style="fill:#404040;"/>
          </a>
         </g>
        </svg>
</svg>
