<?xml version="1.0" encoding="UTF-8" standalone="no"?>
<!DOCTYPE svg PUBLIC "-//W3C//DTD SVG 1.1//EN"
 "http://www.w3.org/Graphics/SVG/1.1/DTD/svg11.dtd">
<!-- Generated by graphviz version 3.0.0 (20220413.0242)
 -->
<!-- Title: denoptim.graph.AttachmentPoint.isAvailable Pages: 1 -->
<!--zoomable 729 -->
<svg id="main" version="1.1" xmlns="http://www.w3.org/2000/svg" xmlns:xlink="http://www.w3.org/1999/xlink" xml:space="preserve" onload="init(evt)">
<style type="text/css"><![CDATA[
.edge:hover path { stroke: red; }
.edge:hover polygon { stroke: red; fill: red; }
]]></style>
<script type="text/javascript"><![CDATA[
var edges = document.getElementsByTagName('g');
if (edges && edges.length) {
  for (var i=0;i<edges.length;i++) {
    if (edges[i].id.substr(0,4)=='edge') {
      edges[i].setAttribute('class','edge');
    }
  }
}
]]></script>
        <defs>
                <circle id="rim" cx="0" cy="0" r="7"/>
                <circle id="rim2" cx="0" cy="0" r="3.5"/>
                <g id="zoomPlus">
                        <use xlink:href="#rim" fill="#404040">
                                <set attributeName="fill" to="#808080" begin="zoomplus.mouseover" end="zoomplus.mouseout"/>
                        </use>
                        <path d="M-4,0h8M0,-4v8" fill="none" stroke="white" stroke-width="1.5" pointer-events="none"/>
                </g>
                <g id="zoomMin">
                        <use xlink:href="#rim" fill="#404040">
                                <set attributeName="fill" to="#808080" begin="zoomminus.mouseover" end="zoomminus.mouseout"/>
                        </use>
                        <path d="M-4,0h8" fill="none" stroke="white" stroke-width="1.5" pointer-events="none"/>
                </g>
                <g id="dirArrow">
                        <path fill="none" stroke="white" stroke-width="1.5" d="M0,-3.0v7 M-2.5,-0.5L0,-3.0L2.5,-0.5"/>
                </g>
               <g id="resetDef">
                       <use xlink:href="#rim2" fill="#404040">
                               <set attributeName="fill" to="#808080" begin="reset.mouseover" end="reset.mouseout"/>
                       </use>
               </g>
        </defs>

<script type="text/javascript">
var viewWidth = 1418;
var viewHeight = 729;
var sectionId = 'dynsection-38';
</script>
<script xlink:href="svgpan.js"/>
<svg id="graph" class="graph">
<g id="viewport">
<title>denoptim.graph.AttachmentPoint.isAvailable</title>
<polygon fill="white" stroke="transparent" points="-4,4 -4,-725 1414,-725 1414,4 -4,4"/>
<!-- Node1 -->
<g id="node1" class="node">
<title>Node1</title>
<g id="a_node1"><a xlink:title="Check availability of this attachment point.">
<polygon fill="#bfbfbf" stroke="black" points="1275,-304.5 1275,-334.5 1410,-334.5 1410,-304.5 1275,-304.5"/>
<text text-anchor="start" x="1283" y="-322.5" font-family="Helvetica,sans-Serif" font-size="10.00">denoptim.graph.Attachment</text>
<text text-anchor="middle" x="1342.5" y="-311.5" font-family="Helvetica,sans-Serif" font-size="10.00">Point.isAvailable</text>
</a>
</g>
</g>
<!-- Node2 -->
<g id="node2" class="node">
<title>Node2</title>
<g id="a_node2"><a xlink:href="classdenoptim_1_1fragspace_1_1_fragment_space.html#a13df4c55db0679bb62fb833a91ef38b2" target="_top" xlink:title="Classify a fragment in terms of the number of APs and possibly their type (AP&#45;Class).">
<polygon fill="white" stroke="black" points="1078.5,-514.5 1078.5,-544.5 1223.5,-544.5 1223.5,-514.5 1078.5,-514.5"/>
<text text-anchor="start" x="1086.5" y="-532.5" font-family="Helvetica,sans-Serif" font-size="10.00">denoptim.fragspace.Fragment</text>
<text text-anchor="middle" x="1151" y="-521.5" font-family="Helvetica,sans-Serif" font-size="10.00">Space.classifyFragment</text>
</a>
</g>
</g>
<!-- Node1&#45;&gt;Node2 -->
<g id="edge1" class="edge">
<title>Node1&#45;&gt;Node2</title>
<path fill="none" stroke="midnightblue" d="M1320.93,-342.29C1282.04,-385.4 1198.66,-477.79 1165.76,-514.25"/>
<polygon fill="midnightblue" stroke="midnightblue" points="1323.77,-344.37 1327.87,-334.6 1318.57,-339.68 1323.77,-344.37"/>
</g>
<!-- Node15 -->
<g id="node15" class="node">
<title>Node15</title>
<g id="a_node15"><a xlink:href="classdenoptim_1_1ga_1_1_graph_operations.html#a104e82aba7242a457da09540ff0400da" target="_top" xlink:title="function that will keep extending the graph.">
<polygon fill="white" stroke="black" points="1063,-338.5 1063,-368.5 1239,-368.5 1239,-338.5 1063,-338.5"/>
<text text-anchor="start" x="1071" y="-356.5" font-family="Helvetica,sans-Serif" font-size="10.00">denoptim.ga.GraphOperations.extend</text>
<text text-anchor="middle" x="1151" y="-345.5" font-family="Helvetica,sans-Serif" font-size="10.00">Graph</text>
</a>
</g>
</g>
<!-- Node1&#45;&gt;Node15 -->
<g id="edge18" class="edge">
<title>Node1&#45;&gt;Node15</title>
<path fill="none" stroke="midnightblue" d="M1265.01,-333.22C1255.36,-334.96 1245.44,-336.73 1235.69,-338.49"/>
<polygon fill="midnightblue" stroke="midnightblue" points="1265.73,-336.65 1274.96,-331.44 1264.49,-329.76 1265.73,-336.65"/>
</g>
<!-- Node16 -->
<g id="node16" class="node">
<title>Node16</title>
<g id="a_node16"><a xlink:href="classdenoptim_1_1graph_1_1_template.html#a049d3fd512e29df9e0dd7b94f484ce97" target="_top" xlink:title="Removes the mapping of the given inner AP from this template&#39;s surface, if such mapping exists.">
<polygon fill="white" stroke="black" points="1071,-271.5 1071,-301.5 1231,-301.5 1231,-271.5 1071,-271.5"/>
<text text-anchor="start" x="1079" y="-289.5" font-family="Helvetica,sans-Serif" font-size="10.00">denoptim.graph.Template.remove</text>
<text text-anchor="middle" x="1151" y="-278.5" font-family="Helvetica,sans-Serif" font-size="10.00">ProjectionOfInnerAP</text>
</a>
</g>
</g>
<!-- Node1&#45;&gt;Node16 -->
<g id="edge19" class="edge">
<title>Node1&#45;&gt;Node16</title>
<path fill="none" stroke="midnightblue" d="M1264.85,-306.15C1253.72,-304.21 1242.24,-302.21 1231.06,-300.27"/>
<polygon fill="midnightblue" stroke="midnightblue" points="1264.5,-309.64 1274.96,-307.91 1265.7,-302.75 1264.5,-309.64"/>
</g>
<!-- Node23 -->
<g id="node23" class="node">
<title>Node23</title>
<g id="a_node23"><a xlink:href="classdenoptim_1_1graph_1_1_d_graph.html#aefca90eb3594e935ee283f1e56fec5b4" target="_top" xlink:title="Replaced the subgraph represented by a given collection of vertices that belong to this graph.">
<polygon fill="white" stroke="black" points="853,-172.5 853,-202.5 1005,-202.5 1005,-172.5 853,-172.5"/>
<text text-anchor="start" x="861" y="-190.5" font-family="Helvetica,sans-Serif" font-size="10.00">denoptim.graph.DGraph.replace</text>
<text text-anchor="middle" x="929" y="-179.5" font-family="Helvetica,sans-Serif" font-size="10.00">SingleSubGraph</text>
</a>
</g>
</g>
<!-- Node1&#45;&gt;Node23 -->
<g id="edge41" class="edge">
<title>Node1&#45;&gt;Node23</title>
<path fill="none" stroke="midnightblue" d="M1309.79,-298.94C1290.08,-286.9 1263.83,-272.21 1239,-262.5 1161.75,-232.29 1068.74,-211.71 1005.08,-199.86"/>
<polygon fill="midnightblue" stroke="midnightblue" points="1308.02,-301.96 1318.37,-304.25 1311.71,-296.01 1308.02,-301.96"/>
</g>
<!-- Node3 -->
<g id="node3" class="node">
<title>Node3</title>
<g id="a_node3"><a xlink:href="classdenoptim_1_1fragspace_1_1_fragment_space.html#a32b0be109306e9c81fc830867296bc66" target="_top" xlink:title="Extracts a system of one or more fused rings and adds them to the fragment space if not already prese...">
<polygon fill="white" stroke="black" points="831,-563.5 831,-593.5 1027,-593.5 1027,-563.5 831,-563.5"/>
<text text-anchor="start" x="839" y="-581.5" font-family="Helvetica,sans-Serif" font-size="10.00">denoptim.fragspace.Fragment</text>
<text text-anchor="middle" x="929" y="-570.5" font-family="Helvetica,sans-Serif" font-size="10.00">Space.addFusedRingsToFragmentLibrary</text>
</a>
</g>
</g>
<!-- Node2&#45;&gt;Node3 -->
<g id="edge2" class="edge">
<title>Node2&#45;&gt;Node3</title>
<path fill="none" stroke="midnightblue" d="M1072.51,-546.76C1048,-552.22 1021.12,-558.21 997.37,-563.49"/>
<polygon fill="midnightblue" stroke="midnightblue" points="1073.5,-550.12 1082.5,-544.53 1071.98,-543.29 1073.5,-550.12"/>
</g>
<!-- Node4 -->
<g id="node4" class="node">
<title>Node4</title>
<g id="a_node4"><a xlink:href="classdenoptim_1_1fragspace_1_1_fragment_space.html#a500eaadf61dbb4a0d9c1105f907212c7" target="_top" xlink:title="Performs grouping and classification operations on the library of building blocks of BBType#FRAGMENT.">
<polygon fill="white" stroke="black" points="844.5,-514.5 844.5,-544.5 1013.5,-544.5 1013.5,-514.5 844.5,-514.5"/>
<text text-anchor="start" x="852.5" y="-532.5" font-family="Helvetica,sans-Serif" font-size="10.00">denoptim.fragspace.Fragment</text>
<text text-anchor="middle" x="929" y="-521.5" font-family="Helvetica,sans-Serif" font-size="10.00">Space.groupAndClassifyFragments</text>
</a>
</g>
</g>
<!-- Node2&#45;&gt;Node4 -->
<g id="edge3" class="edge">
<title>Node2&#45;&gt;Node4</title>
<path fill="none" stroke="midnightblue" d="M1068,-529.5C1050.32,-529.5 1031.62,-529.5 1013.88,-529.5"/>
<polygon fill="midnightblue" stroke="midnightblue" points="1068.27,-533 1078.27,-529.5 1068.27,-526 1068.27,-533"/>
</g>
<!-- Node5 -->
<g id="node5" class="node">
<title>Node5</title>
<g id="a_node5"><a xlink:href="classdenoptim_1_1fragspace_1_1_fragment_space.html#a4792b534137a7989aab4ab2237d12438" target="_top" xlink:title="Define all components of this fragment space.">
<polygon fill="white" stroke="black" points="644.5,-626.5 644.5,-656.5 789.5,-656.5 789.5,-626.5 644.5,-626.5"/>
<text text-anchor="start" x="652.5" y="-644.5" font-family="Helvetica,sans-Serif" font-size="10.00">denoptim.fragspace.Fragment</text>
<text text-anchor="middle" x="717" y="-633.5" font-family="Helvetica,sans-Serif" font-size="10.00">Space.define</text>
</a>
</g>
</g>
<!-- Node4&#45;&gt;Node5 -->
<g id="edge4" class="edge">
<title>Node4&#45;&gt;Node5</title>
<path fill="none" stroke="midnightblue" d="M846.43,-547.9C841.12,-549.9 835.93,-552.09 831,-554.5 792.29,-573.4 754,-606.8 733.44,-626.26"/>
<polygon fill="midnightblue" stroke="midnightblue" points="847.81,-551.13 856.09,-544.52 845.5,-544.52 847.81,-551.13"/>
</g>
<!-- Node7 -->
<g id="node7" class="node">
<title>Node7</title>
<g id="a_node7"><a xlink:href="classdenoptim_1_1fragspace_1_1_graph_link_finder_test.html#a5703166de7261111b98b40fce0c9fad6" target="_top" xlink:title=" ">
<polygon fill="white" stroke="black" points="652,-514.5 652,-544.5 782,-544.5 782,-514.5 652,-514.5"/>
<text text-anchor="start" x="660" y="-532.5" font-family="Helvetica,sans-Serif" font-size="10.00">denoptim.fragspace.Graph</text>
<text text-anchor="middle" x="717" y="-521.5" font-family="Helvetica,sans-Serif" font-size="10.00">LinkFinderTest.prepare</text>
</a>
</g>
</g>
<!-- Node4&#45;&gt;Node7 -->
<g id="edge6" class="edge">
<title>Node4&#45;&gt;Node7</title>
<path fill="none" stroke="midnightblue" d="M834.13,-529.5C816.58,-529.5 798.62,-529.5 782.22,-529.5"/>
<polygon fill="midnightblue" stroke="midnightblue" points="834.4,-533 844.4,-529.5 834.4,-526 834.4,-533"/>
</g>
<!-- Node6 -->
<g id="node6" class="node">
<title>Node6</title>
<g id="a_node6"><a xlink:href="classdenoptim_1_1fragspace_1_1_fragment_space.html#ad10ece408a10dbb06fa5d75747ae1fbb" target="_top" xlink:title="Define all components of a fragment space that implements the attachment point class&#45;approach.">
<polygon fill="white" stroke="black" points="434.5,-690.5 434.5,-720.5 579.5,-720.5 579.5,-690.5 434.5,-690.5"/>
<text text-anchor="start" x="442.5" y="-708.5" font-family="Helvetica,sans-Serif" font-size="10.00">denoptim.fragspace.Fragment</text>
<text text-anchor="middle" x="507" y="-697.5" font-family="Helvetica,sans-Serif" font-size="10.00">Space.FragmentSpace</text>
</a>
</g>
</g>
<!-- Node5&#45;&gt;Node6 -->
<g id="edge5" class="edge">
<title>Node5&#45;&gt;Node6</title>
<path fill="none" stroke="midnightblue" d="M657.62,-659.46C625.84,-669.24 586.97,-681.2 556.82,-690.48"/>
<polygon fill="midnightblue" stroke="midnightblue" points="658.7,-662.79 667.23,-656.51 656.65,-656.1 658.7,-662.79"/>
</g>
<!-- Node8 -->
<g id="node8" class="node">
<title>Node8</title>
<g id="a_node8"><a xlink:href="classdenoptim_1_1fragspace_1_1_graph_link_finder_test.html#a586ff58307127b487068fe2aa5e43359" target="_top" xlink:title="Creates a test graph that looks like this: v0(A)&#45;(A)v1(B)&#45;(C)v2.">
<polygon fill="white" stroke="black" points="426.5,-602.5 426.5,-632.5 587.5,-632.5 587.5,-602.5 426.5,-602.5"/>
<text text-anchor="start" x="434.5" y="-620.5" font-family="Helvetica,sans-Serif" font-size="10.00">denoptim.fragspace.Graph</text>
<text text-anchor="middle" x="507" y="-609.5" font-family="Helvetica,sans-Serif" font-size="10.00">LinkFinderTest.makeTestGraphA</text>
</a>
</g>
</g>
<!-- Node7&#45;&gt;Node8 -->
<g id="edge7" class="edge">
<title>Node7&#45;&gt;Node8</title>
<path fill="none" stroke="midnightblue" d="M680.72,-549.56C658.79,-561.53 629.77,-576.5 603,-587.5 589.72,-592.96 575.07,-598.03 561.33,-602.39"/>
<polygon fill="midnightblue" stroke="midnightblue" points="682.59,-552.52 689.66,-544.63 679.21,-546.39 682.59,-552.52"/>
</g>
<!-- Node9 -->
<g id="node9" class="node">
<title>Node9</title>
<g id="a_node9"><a xlink:href="classdenoptim_1_1fragspace_1_1_graph_link_finder_test.html#a10f29a0409c104973230371493a734ed" target="_top" xlink:title=" ">
<polygon fill="white" stroke="black" points="203,-636.5 203,-666.5 367,-666.5 367,-636.5 203,-636.5"/>
<text text-anchor="start" x="211" y="-654.5" font-family="Helvetica,sans-Serif" font-size="10.00">denoptim.fragspace.Graph</text>
<text text-anchor="middle" x="285" y="-643.5" font-family="Helvetica,sans-Serif" font-size="10.00">LinkFinderTest.testLinkFromEdge</text>
</a>
</g>
</g>
<!-- Node7&#45;&gt;Node9 -->
<g id="edge14" class="edge">
<title>Node7&#45;&gt;Node9</title>
<path fill="none" stroke="midnightblue" d="M696.54,-552.67C670.64,-582.82 625.47,-632.81 603,-642.5 527.92,-674.86 433.27,-672.7 367.03,-665.19"/>
<polygon fill="midnightblue" stroke="midnightblue" points="699.48,-554.62 703.3,-544.74 694.15,-550.07 699.48,-554.62"/>
</g>
<!-- Node10 -->
<g id="node10" class="node">
<title>Node10</title>
<g id="a_node10"><a xlink:href="classdenoptim_1_1fragspace_1_1_graph_link_finder_test.html#a11b5fce33ae34132f5b16a11b57aaae7" target="_top" xlink:title=" ">
<polygon fill="white" stroke="black" points="200,-568.5 200,-598.5 370,-598.5 370,-568.5 200,-568.5"/>
<text text-anchor="start" x="208" y="-586.5" font-family="Helvetica,sans-Serif" font-size="10.00">denoptim.fragspace.Graph</text>
<text text-anchor="middle" x="285" y="-575.5" font-family="Helvetica,sans-Serif" font-size="10.00">LinkFinderTest.testLinkFromVertex</text>
</a>
</g>
</g>
<!-- Node7&#45;&gt;Node10 -->
<g id="edge17" class="edge">
<title>Node7&#45;&gt;Node10</title>
<path fill="none" stroke="midnightblue" d="M644.77,-546.69C630.97,-549.62 616.58,-552.39 603,-554.5 524.5,-566.72 434.21,-574.36 370.12,-578.71"/>
<polygon fill="midnightblue" stroke="midnightblue" points="645.66,-550.08 654.69,-544.54 644.17,-543.24 645.66,-550.08"/>
</g>
<!-- Node11 -->
<g id="node11" class="node">
<title>Node11</title>
<g id="a_node11"><a xlink:href="classdenoptim_1_1fragspace_1_1_graph_link_finder_test.html#a788a4b1620fa0610d9f306e2e8b3a75a" target="_top" xlink:title="Creates a test graph that looks like this: v0(E)&#45;(E)v1.">
<polygon fill="white" stroke="black" points="427,-514.5 427,-544.5 587,-544.5 587,-514.5 427,-514.5"/>
<text text-anchor="start" x="435" y="-532.5" font-family="Helvetica,sans-Serif" font-size="10.00">denoptim.fragspace.Graph</text>
<text text-anchor="middle" x="507" y="-521.5" font-family="Helvetica,sans-Serif" font-size="10.00">LinkFinderTest.makeTestGraphE</text>
</a>
</g>
</g>
<!-- Node7&#45;&gt;Node11 -->
<g id="edge10" class="edge">
<title>Node7&#45;&gt;Node11</title>
<path fill="none" stroke="midnightblue" d="M641.67,-529.5C624.03,-529.5 605.15,-529.5 587.3,-529.5"/>
<polygon fill="midnightblue" stroke="midnightblue" points="641.9,-533 651.9,-529.5 641.9,-526 641.9,-533"/>
</g>
<!-- Node12 -->
<g id="node12" class="node">
<title>Node12</title>
<g id="a_node12"><a xlink:href="classdenoptim_1_1fragspace_1_1_graph_link_finder_test.html#a0ec3c77508e8ec583b570a6803056e9a" target="_top" xlink:title=" ">
<polygon fill="white" stroke="black" points="203,-487 203,-528 367,-528 367,-487 203,-487"/>
<text text-anchor="start" x="211" y="-516" font-family="Helvetica,sans-Serif" font-size="10.00">denoptim.fragspace.Graph</text>
<text text-anchor="start" x="211" y="-505" font-family="Helvetica,sans-Serif" font-size="10.00">LinkFinderTest.testLinkFromEdge</text>
<text text-anchor="middle" x="285" y="-494" font-family="Helvetica,sans-Serif" font-size="10.00">OneMatch</text>
</a>
</g>
</g>
<!-- Node7&#45;&gt;Node12 -->
<g id="edge16" class="edge">
<title>Node7&#45;&gt;Node12</title>
<path fill="none" stroke="midnightblue" d="M646.74,-512.4C632.37,-509.53 617.26,-507 603,-505.5 523.09,-497.11 431.22,-498.94 367.02,-502.06"/>
<polygon fill="midnightblue" stroke="midnightblue" points="646.05,-515.84 656.56,-514.44 647.47,-508.98 646.05,-515.84"/>
</g>
<!-- Node13 -->
<g id="node13" class="node">
<title>Node13</title>
<g id="a_node13"><a xlink:href="classdenoptim_1_1fragspace_1_1_graph_link_finder_test.html#a978d58856f04a9a844344ad2cacc812b" target="_top" xlink:title="Creates a test graph that looks like this: v0(F)&#45;(F)v1.">
<polygon fill="white" stroke="black" points="427,-426.5 427,-456.5 587,-456.5 587,-426.5 427,-426.5"/>
<text text-anchor="start" x="435" y="-444.5" font-family="Helvetica,sans-Serif" font-size="10.00">denoptim.fragspace.Graph</text>
<text text-anchor="middle" x="507" y="-433.5" font-family="Helvetica,sans-Serif" font-size="10.00">LinkFinderTest.makeTestGraphF</text>
</a>
</g>
</g>
<!-- Node7&#45;&gt;Node13 -->
<g id="edge12" class="edge">
<title>Node7&#45;&gt;Node13</title>
<path fill="none" stroke="midnightblue" d="M680.72,-509.44C658.79,-497.47 629.77,-482.5 603,-471.5 589.72,-466.04 575.07,-460.97 561.33,-456.61"/>
<polygon fill="midnightblue" stroke="midnightblue" points="679.21,-512.61 689.66,-514.37 682.59,-506.48 679.21,-512.61"/>
</g>
<!-- Node14 -->
<g id="node14" class="node">
<title>Node14</title>
<g id="a_node14"><a xlink:href="classdenoptim_1_1fragspace_1_1_graph_link_finder_test.html#a027bbe60b63ad7c458011fe4c4814ff7" target="_top" xlink:title=" ">
<polygon fill="white" stroke="black" points="203,-390 203,-431 367,-431 367,-390 203,-390"/>
<text text-anchor="start" x="211" y="-419" font-family="Helvetica,sans-Serif" font-size="10.00">denoptim.fragspace.Graph</text>
<text text-anchor="start" x="211" y="-408" font-family="Helvetica,sans-Serif" font-size="10.00">LinkFinderTest.testLinkFromEdge</text>
<text text-anchor="middle" x="285" y="-397" font-family="Helvetica,sans-Serif" font-size="10.00">NoMatch</text>
</a>
</g>
</g>
<!-- Node7&#45;&gt;Node14 -->
<g id="edge15" class="edge">
<title>Node7&#45;&gt;Node14</title>
<path fill="none" stroke="midnightblue" d="M700.57,-505.76C681.41,-478.66 645.94,-435.73 603,-417.5 527.88,-385.61 433.46,-388.3 367.28,-396.23"/>
<polygon fill="midnightblue" stroke="midnightblue" points="697.89,-508.03 706.43,-514.29 703.65,-504.06 697.89,-508.03"/>
</g>
<!-- Node8&#45;&gt;Node9 -->
<g id="edge8" class="edge">
<title>Node8&#45;&gt;Node9</title>
<path fill="none" stroke="midnightblue" d="M416.27,-631.37C400.07,-633.87 383.26,-636.47 367.31,-638.93"/>
<polygon fill="midnightblue" stroke="midnightblue" points="416.92,-634.81 426.26,-629.82 415.85,-627.89 416.92,-634.81"/>
</g>
<!-- Node8&#45;&gt;Node10 -->
<g id="edge9" class="edge">
<title>Node8&#45;&gt;Node10</title>
<path fill="none" stroke="midnightblue" d="M416.35,-603.65C401.13,-601.29 385.36,-598.86 370.28,-596.53"/>
<polygon fill="midnightblue" stroke="midnightblue" points="415.85,-607.11 426.26,-605.18 416.92,-600.19 415.85,-607.11"/>
</g>
<!-- Node11&#45;&gt;Node12 -->
<g id="edge11" class="edge">
<title>Node11&#45;&gt;Node12</title>
<path fill="none" stroke="midnightblue" d="M416.74,-520.57C400.29,-518.93 383.19,-517.22 367,-515.6"/>
<polygon fill="midnightblue" stroke="midnightblue" points="416.59,-524.08 426.89,-521.59 417.28,-517.11 416.59,-524.08"/>
</g>
<!-- Node13&#45;&gt;Node14 -->
<g id="edge13" class="edge">
<title>Node13&#45;&gt;Node14</title>
<path fill="none" stroke="midnightblue" d="M416.74,-428.92C400.29,-426.6 383.19,-424.2 367,-421.91"/>
<polygon fill="midnightblue" stroke="midnightblue" points="416.5,-432.42 426.89,-430.35 417.47,-425.49 416.5,-432.42"/>
</g>
<!-- Node16&#45;&gt;Node16 -->
<g id="edge23" class="edge">
<title>Node16&#45;&gt;Node16</title>
<path fill="none" stroke="midnightblue" d="M1184.76,-311.96C1180.57,-316.68 1169.32,-320 1151,-320 1120.94,-320 1109.9,-311.06 1117.89,-301.66"/>
<polygon fill="midnightblue" stroke="midnightblue" points="1188.23,-311.42 1184.11,-301.66 1181.25,-311.86 1188.23,-311.42"/>
</g>
<!-- Node17 -->
<g id="node17" class="node">
<title>Node17</title>
<g id="a_node17"><a xlink:href="classdenoptim_1_1graph_1_1_d_graph.html#af404e25092eabcdfbe69b5d7204e9483" target="_top" xlink:title="Mutates the graph by removing the chain where a given vertex is located up to the first branching (i....">
<polygon fill="white" stroke="black" points="853,-338.5 853,-368.5 1005,-368.5 1005,-338.5 853,-338.5"/>
<text text-anchor="start" x="861" y="-356.5" font-family="Helvetica,sans-Serif" font-size="10.00">denoptim.graph.DGraph.remove</text>
<text text-anchor="middle" x="929" y="-345.5" font-family="Helvetica,sans-Serif" font-size="10.00">ChainUpToBranching</text>
</a>
</g>
</g>
<!-- Node16&#45;&gt;Node17 -->
<g id="edge20" class="edge">
<title>Node16&#45;&gt;Node17</title>
<path fill="none" stroke="midnightblue" d="M1100.3,-305.07C1078.04,-313.07 1051.36,-322.24 1027,-329.5 1016.53,-332.62 1005.33,-335.66 994.41,-338.46"/>
<polygon fill="midnightblue" stroke="midnightblue" points="1101.66,-308.3 1109.87,-301.6 1099.28,-301.71 1101.66,-308.3"/>
</g>
<!-- Node20 -->
<g id="node20" class="node">
<title>Node20</title>
<g id="a_node20"><a xlink:href="classdenoptim_1_1graph_1_1_d_graph.html#a357b4099599e47ae47102123550771f8" target="_top" xlink:title="Remove a given vertex belonging to this graph and re&#45;connects the resulting graph branches as much as...">
<polygon fill="white" stroke="black" points="853,-271.5 853,-301.5 1005,-301.5 1005,-271.5 853,-271.5"/>
<text text-anchor="start" x="861" y="-289.5" font-family="Helvetica,sans-Serif" font-size="10.00">denoptim.graph.DGraph.remove</text>
<text text-anchor="middle" x="929" y="-278.5" font-family="Helvetica,sans-Serif" font-size="10.00">SingleVertexAndWeld</text>
</a>
</g>
</g>
<!-- Node16&#45;&gt;Node20 -->
<g id="edge24" class="edge">
<title>Node16&#45;&gt;Node20</title>
<path fill="none" stroke="midnightblue" d="M1060.73,-286.5C1042.27,-286.5 1023,-286.5 1005.11,-286.5"/>
<polygon fill="midnightblue" stroke="midnightblue" points="1060.89,-290 1070.89,-286.5 1060.89,-283 1060.89,-290"/>
</g>
<!-- Node16&#45;&gt;Node23 -->
<g id="edge29" class="edge">
<title>Node16&#45;&gt;Node23</title>
<path fill="none" stroke="midnightblue" d="M1107.43,-267.34C1065.37,-248.42 1001.9,-219.86 963.37,-202.51"/>
<polygon fill="midnightblue" stroke="midnightblue" points="1106.03,-270.55 1116.59,-271.46 1108.9,-264.17 1106.03,-270.55"/>
</g>
<!-- Node18 -->
<g id="node18" class="node">
<title>Node18</title>
<g id="a_node18"><a xlink:href="classdenoptim_1_1ga_1_1_graph_operations.html#afd659e74a056d1a6ae6f52513fee0be3" target="_top" xlink:title="Deletes the given vertex and all other vertexes that are not connected to more than 2 non&#45;capping gro...">
<polygon fill="white" stroke="black" points="420.5,-338.5 420.5,-368.5 593.5,-368.5 593.5,-338.5 420.5,-338.5"/>
<text text-anchor="start" x="428.5" y="-356.5" font-family="Helvetica,sans-Serif" font-size="10.00">denoptim.ga.GraphOperations.delete</text>
<text text-anchor="middle" x="507" y="-345.5" font-family="Helvetica,sans-Serif" font-size="10.00">Chain</text>
</a>
</g>
</g>
<!-- Node17&#45;&gt;Node18 -->
<g id="edge21" class="edge">
<title>Node17&#45;&gt;Node18</title>
<path fill="none" stroke="midnightblue" d="M842.88,-353.5C770.28,-353.5 666.41,-353.5 593.65,-353.5"/>
<polygon fill="midnightblue" stroke="midnightblue" points="842.91,-357 852.91,-353.5 842.91,-350 842.91,-357"/>
</g>
<!-- Node19 -->
<g id="node19" class="node">
<title>Node19</title>
<g id="a_node19"><a xlink:href="classdenoptim_1_1ga_1_1_graph_operations.html#a0c851972015fbb4b2a317b053b8b81d9" target="_top" xlink:title="Mutates the given vertex according to the given mutation type, if possible.">
<polygon fill="white" stroke="black" points="195,-324.5 195,-354.5 375,-354.5 375,-324.5 195,-324.5"/>
<text text-anchor="start" x="203" y="-342.5" font-family="Helvetica,sans-Serif" font-size="10.00">denoptim.ga.GraphOperations.perform</text>
<text text-anchor="middle" x="285" y="-331.5" font-family="Helvetica,sans-Serif" font-size="10.00">Mutation</text>
</a>
</g>
</g>
<!-- Node18&#45;&gt;Node19 -->
<g id="edge22" class="edge">
<title>Node18&#45;&gt;Node19</title>
<path fill="none" stroke="midnightblue" d="M410.14,-347.4C398.49,-346.66 386.63,-345.9 375.08,-345.17"/>
<polygon fill="midnightblue" stroke="midnightblue" points="410.11,-350.9 420.31,-348.05 410.55,-343.92 410.11,-350.9"/>
</g>
<!-- Node20&#45;&gt;Node20 -->
<g id="edge25" class="edge">
<title>Node20&#45;&gt;Node20</title>
<path fill="none" stroke="midnightblue" d="M966.67,-311.96C961.99,-316.68 949.44,-320 929,-320 895.46,-320 883.15,-311.06 892.05,-301.66"/>
<polygon fill="midnightblue" stroke="midnightblue" points="970.14,-311.39 965.95,-301.66 963.16,-311.88 970.14,-311.39"/>
</g>
<!-- Node21 -->
<g id="node21" class="node">
<title>Node21</title>
<g id="a_node21"><a xlink:href="classdenoptim_1_1graph_1_1_d_graph.html#a00209ca8b4a9623b41e7d9e1e62f69ec" target="_top" xlink:title="Remove a given vertex belonging to this graph and re&#45;connects the resulting graph branches as much as...">
<polygon fill="white" stroke="black" points="641,-294.5 641,-324.5 793,-324.5 793,-294.5 641,-294.5"/>
<text text-anchor="start" x="649" y="-312.5" font-family="Helvetica,sans-Serif" font-size="10.00">denoptim.graph.DGraph.remove</text>
<text text-anchor="middle" x="717" y="-301.5" font-family="Helvetica,sans-Serif" font-size="10.00">VertexAndWeld</text>
</a>
</g>
</g>
<!-- Node20&#45;&gt;Node21 -->
<g id="edge26" class="edge">
<title>Node20&#45;&gt;Node21</title>
<path fill="none" stroke="midnightblue" d="M842.65,-295.85C826.22,-297.65 809.12,-299.52 793.05,-301.28"/>
<polygon fill="midnightblue" stroke="midnightblue" points="843.22,-299.31 852.78,-294.74 842.46,-292.35 843.22,-299.31"/>
</g>
<!-- Node22 -->
<g id="node22" class="node">
<title>Node22</title>
<g id="a_node22"><a xlink:href="classdenoptim_1_1ga_1_1_graph_operations.html#ab3adb5141a8941bf23916bb516faee63" target="_top" xlink:title="Removes a vertex while merging as many of the child branches into the parent vertex.">
<polygon fill="white" stroke="black" points="411,-300 411,-319 603,-319 603,-300 411,-300"/>
<text text-anchor="middle" x="507" y="-307" font-family="Helvetica,sans-Serif" font-size="10.00">denoptim.ga.GraphOperations.deleteLink</text>
</a>
</g>
</g>
<!-- Node21&#45;&gt;Node22 -->
<g id="edge27" class="edge">
<title>Node21&#45;&gt;Node22</title>
<path fill="none" stroke="midnightblue" d="M630.77,-309.5C621.7,-309.5 612.44,-309.5 603.27,-309.5"/>
<polygon fill="midnightblue" stroke="midnightblue" points="630.91,-313 640.91,-309.5 630.91,-306 630.91,-313"/>
</g>
<!-- Node22&#45;&gt;Node19 -->
<g id="edge28" class="edge">
<title>Node22&#45;&gt;Node19</title>
<path fill="none" stroke="midnightblue" d="M425.94,-320.42C409.42,-322.67 391.92,-325.06 375.1,-327.35"/>
<polygon fill="midnightblue" stroke="midnightblue" points="426.65,-323.85 436.09,-319.03 425.71,-316.92 426.65,-323.85"/>
</g>
<!-- Node24 -->
<g id="node24" class="node">
<title>Node24</title>
<g id="a_node24"><a xlink:href="classdenoptim_1_1graph_1_1_d_graph.html#a4df69c91a742d22f8d14d44489aeac15" target="_top" xlink:title="Edit this graph according to a given list of edit tasks.">
<polygon fill="white" stroke="black" points="649,-245.5 649,-275.5 785,-275.5 785,-245.5 649,-245.5"/>
<text text-anchor="start" x="657" y="-263.5" font-family="Helvetica,sans-Serif" font-size="10.00">denoptim.graph.DGraph.edit</text>
<text text-anchor="middle" x="717" y="-252.5" font-family="Helvetica,sans-Serif" font-size="10.00">Graph</text>
</a>
</g>
</g>
<!-- Node23&#45;&gt;Node24 -->
<g id="edge30" class="edge">
<title>Node23&#45;&gt;Node24</title>
<path fill="none" stroke="midnightblue" d="M878.99,-206.24C853.96,-215.63 822.97,-226.99 795,-236.5 786.25,-239.47 776.89,-242.51 767.83,-245.38"/>
<polygon fill="midnightblue" stroke="midnightblue" points="880.49,-209.41 888.61,-202.61 878.02,-202.86 880.49,-209.41"/>
</g>
<!-- Node26 -->
<g id="node26" class="node">
<title>Node26</title>
<g id="a_node26"><a xlink:href="classdenoptim_1_1graph_1_1_d_graph.html#a86e888ef245d2bd40b49d145c7ef3af0" target="_top" xlink:title="Replaced the subgraph represented by a given collection of vertices that belong to this graph.">
<polygon fill="white" stroke="black" points="641,-196.5 641,-226.5 793,-226.5 793,-196.5 641,-196.5"/>
<text text-anchor="start" x="649" y="-214.5" font-family="Helvetica,sans-Serif" font-size="10.00">denoptim.graph.DGraph.replace</text>
<text text-anchor="middle" x="717" y="-203.5" font-family="Helvetica,sans-Serif" font-size="10.00">SubGraph</text>
</a>
</g>
</g>
<!-- Node23&#45;&gt;Node26 -->
<g id="edge32" class="edge">
<title>Node23&#45;&gt;Node26</title>
<path fill="none" stroke="midnightblue" d="M842.65,-197.25C826.22,-199.13 809.12,-201.09 793.05,-202.92"/>
<polygon fill="midnightblue" stroke="midnightblue" points="843.24,-200.71 852.78,-196.1 842.45,-193.75 843.24,-200.71"/>
</g>
<!-- Node31 -->
<g id="node31" class="node">
<title>Node31</title>
<g id="a_node31"><a xlink:href="classdenoptim_1_1graph_1_1_d_graph.html#adc362402e41af41656e820def73de5ad" target="_top" xlink:title="Replaced a given vertex belonging to this graph with a new vertex generated specifically for this pur...">
<polygon fill="white" stroke="black" points="641,-147.5 641,-177.5 793,-177.5 793,-147.5 641,-147.5"/>
<text text-anchor="start" x="649" y="-165.5" font-family="Helvetica,sans-Serif" font-size="10.00">denoptim.graph.DGraph.replace</text>
<text text-anchor="middle" x="717" y="-154.5" font-family="Helvetica,sans-Serif" font-size="10.00">Vertex</text>
</a>
</g>
</g>
<!-- Node23&#45;&gt;Node31 -->
<g id="edge37" class="edge">
<title>Node23&#45;&gt;Node31</title>
<path fill="none" stroke="midnightblue" d="M842.65,-177.34C826.22,-175.38 809.12,-173.35 793.05,-171.43"/>
<polygon fill="midnightblue" stroke="midnightblue" points="842.43,-180.84 852.78,-178.55 843.26,-173.89 842.43,-180.84"/>
</g>
<!-- Node32 -->
<g id="node32" class="node">
<title>Node32</title>
<g id="a_node32"><a xlink:href="classdenoptim_1_1graph_1_1_d_graph_test.html#aea227d615f6c2f3bac5839a8099a900d" target="_top" xlink:title=" ">
<polygon fill="white" stroke="black" points="639,-98.5 639,-128.5 795,-128.5 795,-98.5 639,-98.5"/>
<text text-anchor="start" x="647" y="-116.5" font-family="Helvetica,sans-Serif" font-size="10.00">denoptim.graph.DGraphTest.test</text>
<text text-anchor="middle" x="717" y="-105.5" font-family="Helvetica,sans-Serif" font-size="10.00">IsIsostructuralTo</text>
</a>
</g>
</g>
<!-- Node23&#45;&gt;Node32 -->
<g id="edge38" class="edge">
<title>Node23&#45;&gt;Node32</title>
<path fill="none" stroke="midnightblue" d="M880.45,-168.87C855.19,-159.16 823.55,-147.31 795,-137.5 786.26,-134.5 776.91,-131.45 767.84,-128.58"/>
<polygon fill="midnightblue" stroke="midnightblue" points="879.21,-172.14 889.8,-172.47 881.73,-165.61 879.21,-172.14"/>
</g>
<!-- Node33 -->
<g id="node33" class="node">
<title>Node33</title>
<g id="a_node33"><a xlink:href="classdenoptim_1_1graph_1_1_d_graph_test.html#a83a9624ea5dc6a2c515407b865b62611" target="_top" xlink:title=" ">
<polygon fill="white" stroke="black" points="639,-49.5 639,-79.5 795,-79.5 795,-49.5 639,-49.5"/>
<text text-anchor="start" x="647" y="-67.5" font-family="Helvetica,sans-Serif" font-size="10.00">denoptim.graph.DGraphTest.test</text>
<text text-anchor="middle" x="717" y="-56.5" font-family="Helvetica,sans-Serif" font-size="10.00">ReplaceSubGraph</text>
</a>
</g>
</g>
<!-- Node23&#45;&gt;Node33 -->
<g id="edge39" class="edge">
<title>Node23&#45;&gt;Node33</title>
<path fill="none" stroke="midnightblue" d="M903.95,-165.62C878.53,-143.48 836.43,-109.6 795,-88.5 788.51,-85.2 781.48,-82.24 774.4,-79.64"/>
<polygon fill="midnightblue" stroke="midnightblue" points="901.79,-168.38 911.6,-172.36 906.42,-163.13 901.79,-168.38"/>
</g>
<!-- Node34 -->
<g id="node34" class="node">
<title>Node34</title>
<g id="a_node34"><a xlink:href="classdenoptim_1_1graph_1_1_d_graph_test.html#a0c949ec1131a872dea53524614b3b42a" target="_top" xlink:title=" ">
<polygon fill="white" stroke="black" points="639,-0.5 639,-30.5 795,-30.5 795,-0.5 639,-0.5"/>
<text text-anchor="start" x="647" y="-18.5" font-family="Helvetica,sans-Serif" font-size="10.00">denoptim.graph.DGraphTest.test</text>
<text text-anchor="middle" x="717" y="-7.5" font-family="Helvetica,sans-Serif" font-size="10.00">ReplaceSubGraph_inTemplate</text>
</a>
</g>
</g>
<!-- Node23&#45;&gt;Node34 -->
<g id="edge40" class="edge">
<title>Node23&#45;&gt;Node34</title>
<path fill="none" stroke="midnightblue" d="M912.99,-164.03C890.96,-131.45 846.82,-72.75 795,-39.5 789.7,-36.1 783.88,-33.15 777.89,-30.6"/>
<polygon fill="midnightblue" stroke="midnightblue" points="910.15,-166.1 918.6,-172.49 915.99,-162.22 910.15,-166.1"/>
</g>
<!-- Node25 -->
<g id="node25" class="node">
<title>Node25</title>
<g id="a_node25"><a xlink:href="classdenoptim_1_1programs_1_1grapheditor_1_1_graph_editor.html#a649a62e3d4635ef4c19424fa49e6dcd4" target="_top" xlink:title=" ">
<polygon fill="white" stroke="black" points="431,-245.5 431,-275.5 583,-275.5 583,-245.5 431,-245.5"/>
<text text-anchor="start" x="439" y="-263.5" font-family="Helvetica,sans-Serif" font-size="10.00">denoptim.programs.grapheditor.</text>
<text text-anchor="middle" x="507" y="-252.5" font-family="Helvetica,sans-Serif" font-size="10.00">GraphEditor.runProgram</text>
</a>
</g>
</g>
<!-- Node24&#45;&gt;Node25 -->
<g id="edge31" class="edge">
<title>Node24&#45;&gt;Node25</title>
<path fill="none" stroke="midnightblue" d="M638.56,-260.5C620.49,-260.5 601.28,-260.5 583.3,-260.5"/>
<polygon fill="midnightblue" stroke="midnightblue" points="638.76,-264 648.76,-260.5 638.76,-257 638.76,-264"/>
</g>
<!-- Node27 -->
<g id="node27" class="node">
<title>Node27</title>
<g id="a_node27"><a xlink:href="classdenoptim_1_1ga_1_1_graph_operations.html#affb1be89a32e4a429bd7dbdfe0708419" target="_top" xlink:title="Performs the crossover that swaps the two subgraphs defining the given XoverSite.">
<polygon fill="white" stroke="black" points="417,-196.5 417,-226.5 597,-226.5 597,-196.5 417,-196.5"/>
<text text-anchor="start" x="425" y="-214.5" font-family="Helvetica,sans-Serif" font-size="10.00">denoptim.ga.GraphOperations.perform</text>
<text text-anchor="middle" x="507" y="-203.5" font-family="Helvetica,sans-Serif" font-size="10.00">Crossover</text>
</a>
</g>
</g>
<!-- Node26&#45;&gt;Node27 -->
<g id="edge33" class="edge">
<title>Node26&#45;&gt;Node27</title>
<path fill="none" stroke="midnightblue" d="M630.81,-211.5C619.71,-211.5 608.32,-211.5 597.15,-211.5"/>
<polygon fill="midnightblue" stroke="midnightblue" points="630.91,-215 640.91,-211.5 630.91,-208 630.91,-215"/>
</g>
<!-- Node28 -->
<g id="node28" class="node">
<title>Node28</title>
<g id="a_node28"><a xlink:href="classdenoptim_1_1ga_1_1_e_a_utils.html#a98553265dd4b441b11c6d97d098edb08" target="_top" xlink:title="Generates a new offspring by performing a crossover operation.">
<polygon fill="white" stroke="black" points="221.5,-221.5 221.5,-251.5 348.5,-251.5 348.5,-221.5 221.5,-221.5"/>
<text text-anchor="start" x="229.5" y="-239.5" font-family="Helvetica,sans-Serif" font-size="10.00">denoptim.ga.EAUtils.build</text>
<text text-anchor="middle" x="285" y="-228.5" font-family="Helvetica,sans-Serif" font-size="10.00">CandidateByXOver</text>
</a>
</g>
</g>
<!-- Node27&#45;&gt;Node28 -->
<g id="edge34" class="edge">
<title>Node27&#45;&gt;Node28</title>
<path fill="none" stroke="midnightblue" d="M406.85,-222.77C387.06,-225.02 366.78,-227.32 348.64,-229.38"/>
<polygon fill="midnightblue" stroke="midnightblue" points="407.29,-226.24 416.83,-221.63 406.5,-219.28 407.29,-226.24"/>
</g>
<!-- Node29 -->
<g id="node29" class="node">
<title>Node29</title>
<g id="a_node29"><a xlink:href="classdenoptim_1_1programs_1_1genetweeker_1_1_gene_ops_runner.html#ab0f92a94c4fb2334e7d3813e73fc4247" target="_top" xlink:title=" ">
<polygon fill="white" stroke="black" points="205.5,-172.5 205.5,-202.5 364.5,-202.5 364.5,-172.5 205.5,-172.5"/>
<text text-anchor="start" x="213.5" y="-190.5" font-family="Helvetica,sans-Serif" font-size="10.00">denoptim.programs.genetweeker.</text>
<text text-anchor="middle" x="285" y="-179.5" font-family="Helvetica,sans-Serif" font-size="10.00">GeneOpsRunner.runXOver</text>
</a>
</g>
</g>
<!-- Node27&#45;&gt;Node29 -->
<g id="edge35" class="edge">
<title>Node27&#45;&gt;Node29</title>
<path fill="none" stroke="midnightblue" d="M406.65,-200.66C392.58,-199.13 378.28,-197.57 364.68,-196.08"/>
<polygon fill="midnightblue" stroke="midnightblue" points="406.51,-204.17 416.83,-201.77 407.27,-197.21 406.51,-204.17"/>
</g>
<!-- Node30 -->
<g id="node30" class="node">
<title>Node30</title>
<g id="a_node30"><a xlink:href="classdenoptim_1_1programs_1_1genetweeker_1_1_gene_ops_runner.html#a3c2407eb1204a7b25600d3d347d98447" target="_top" xlink:title=" ">
<polygon fill="white" stroke="black" points="0,-172.5 0,-202.5 159,-202.5 159,-172.5 0,-172.5"/>
<text text-anchor="start" x="8" y="-190.5" font-family="Helvetica,sans-Serif" font-size="10.00">denoptim.programs.genetweeker.</text>
<text text-anchor="middle" x="79.5" y="-179.5" font-family="Helvetica,sans-Serif" font-size="10.00">GeneOpsRunner.runProgram</text>
</a>
</g>
</g>
<!-- Node29&#45;&gt;Node30 -->
<g id="edge36" class="edge">
<title>Node29&#45;&gt;Node30</title>
<path fill="none" stroke="midnightblue" d="M194.97,-187.5C183.09,-187.5 170.99,-187.5 159.3,-187.5"/>
<polygon fill="midnightblue" stroke="midnightblue" points="195.32,-191 205.32,-187.5 195.32,-184 195.32,-191"/>
</g>
</g>
</svg>
        <g id="navigator" transform="translate(0 0)" fill="#404254">
                <rect fill="#f2f5e9" fill-opacity="0.5" stroke="#606060" stroke-width=".5" x="0" y="0" width="60" height="60"/>
                <use id="zoomplus" xlink:href="#zoomPlus" x="17" y="9" onmousedown="handleZoom(evt,'in')"/>
                <use id="zoomminus" xlink:href="#zoomMin" x="42" y="9" onmousedown="handleZoom(evt,'out')"/>
                <use id="reset" xlink:href="#resetDef" x="30" y="36" onmousedown="handleReset()"/>
                <g id="arrowUp" xlink:href="#dirArrow" transform="translate(30 24)" onmousedown="handlePan(0,-1)">
                  <use xlink:href="#rim" fill="#404040">
                        <set attributeName="fill" to="#808080" begin="arrowUp.mouseover" end="arrowUp.mouseout"/>
                  </use>
                  <path fill="none" stroke="white" stroke-width="1.5" d="M0,-3.0v7 M-2.5,-0.5L0,-3.0L2.5,-0.5"/>
                </g>
                <g id="arrowRight" xlink:href="#dirArrow" transform="rotate(90) translate(36 -43)" onmousedown="handlePan(1,0)">
                  <use xlink:href="#rim" fill="#404040">
                        <set attributeName="fill" to="#808080" begin="arrowRight.mouseover" end="arrowRight.mouseout"/>
                  </use>
                  <path fill="none" stroke="white" stroke-width="1.5" d="M0,-3.0v7 M-2.5,-0.5L0,-3.0L2.5,-0.5"/>
                </g>
                <g id="arrowDown" xlink:href="#dirArrow" transform="rotate(180) translate(-30 -48)" onmousedown="handlePan(0,1)">
                  <use xlink:href="#rim" fill="#404040">
                        <set attributeName="fill" to="#808080" begin="arrowDown.mouseover" end="arrowDown.mouseout"/>
                  </use>
                  <path fill="none" stroke="white" stroke-width="1.5" d="M0,-3.0v7 M-2.5,-0.5L0,-3.0L2.5,-0.5"/>
                </g>
                <g id="arrowLeft" xlink:href="#dirArrow" transform="rotate(270) translate(-36 17)" onmousedown="handlePan(-1,0)">
                  <use xlink:href="#rim" fill="#404040">
                        <set attributeName="fill" to="#808080" begin="arrowLeft.mouseover" end="arrowLeft.mouseout"/>
                  </use>
                  <path fill="none" stroke="white" stroke-width="1.5" d="M0,-3.0v7 M-2.5,-0.5L0,-3.0L2.5,-0.5"/>
                </g>
        </g>
        <svg viewBox="0 0 15 15" width="100%" height="30px" preserveAspectRatio="xMaxYMin meet">
         <g id="arrow_out" transform="scale(0.3 0.3)">
          <a xlink:href="classdenoptim_1_1graph_1_1_attachment_point_a77887ce020d49c189b89e049f12b70ba_icgraph_org.svg" target="_base">
           <rect id="button" ry="5" rx="5" y="6" x="6" height="38" width="38"
                fill="#f2f5e9" fill-opacity="0.5" stroke="#606060" stroke-width="1.0"/>
           <path id="arrow"
             d="M 11.500037,31.436501 C 11.940474,20.09759 22.043105,11.32322 32.158766,21.979434 L 37.068811,17.246167 C 37.068811,17.246167 37.088388,32 37.088388,32 L 22.160133,31.978069 C 22.160133,31.978069 26.997745,27.140456 26.997745,27.140456 C 18.528582,18.264221 13.291696,25.230495 11.500037,31.436501 z"
             style="fill:#404040;"/>
          </a>
         </g>
        </svg>
</svg>
