<?xml version="1.0" encoding="UTF-8" standalone="no"?>
<!DOCTYPE svg PUBLIC "-//W3C//DTD SVG 1.1//EN"
 "http://www.w3.org/Graphics/SVG/1.1/DTD/svg11.dtd">
<!-- Generated by graphviz version 3.0.0 (20220413.0242)
 -->
<!-- Title: denoptim.gui.FSParamsDialog.FSParamsDialog Pages: 1 -->
<svg width="1078pt" height="546pt"
 viewBox="0.00 0.00 1078.00 545.50" xmlns="http://www.w3.org/2000/svg" xmlns:xlink="http://www.w3.org/1999/xlink">
<g id="graph0" class="graph" transform="scale(1 1) rotate(0) translate(4 541.5)">
<title>denoptim.gui.FSParamsDialog.FSParamsDialog</title>
<polygon fill="white" stroke="transparent" points="-4,4 -4,-541.5 1074,-541.5 1074,4 -4,4"/>
<!-- Node1 -->
<g id="node1" class="node">
<title>Node1</title>
<g id="a_node1"><a xlink:title="Constructor.">
<polygon fill="#bfbfbf" stroke="black" points="0,-266 0,-296 149,-296 149,-266 0,-266"/>
<text text-anchor="start" x="8" y="-284" font-family="Helvetica,sans-Serif" font-size="10.00">denoptim.gui.FSParamsDialog.</text>
<text text-anchor="middle" x="74.5" y="-273" font-family="Helvetica,sans-Serif" font-size="10.00">FSParamsDialog</text>
</a>
</g>
</g>
<!-- Node2 -->
<g id="node2" class="node">
<title>Node2</title>
<g id="a_node2"><a xlink:href="classdenoptim_1_1gui_1_1_g_u_i_modal_dialog.html#a2a2fc5b1a50e2ff8b54728dcf44f42f6" target="_top" xlink:title="Adds a component to the central part of this dialog frame.">
<polygon fill="white" stroke="black" points="190,-332 190,-362 353,-362 353,-332 190,-332"/>
<text text-anchor="start" x="198" y="-350" font-family="Helvetica,sans-Serif" font-size="10.00">denoptim.gui.GUIModalDialog.add</text>
<text text-anchor="middle" x="271.5" y="-339" font-family="Helvetica,sans-Serif" font-size="10.00">ToCentralPane</text>
</a>
</g>
</g>
<!-- Node1&#45;&gt;Node2 -->
<g id="edge1" class="edge">
<title>Node1&#45;&gt;Node2</title>
<path fill="none" stroke="midnightblue" d="M113.51,-296.02C134.47,-304.1 161.02,-314.02 185,-322 191.96,-324.32 199.28,-326.63 206.58,-328.87"/>
<polygon fill="midnightblue" stroke="midnightblue" points="205.91,-332.32 216.49,-331.87 207.93,-325.62 205.91,-332.32"/>
</g>
<!-- Node3 -->
<g id="node3" class="node">
<title>Node3</title>
<g id="a_node3"><a xlink:href="classdenoptim_1_1gui_1_1_g_u_i_modal_dialog.html#aef5c48b1c797dddd898f2564c330318c" target="_top" xlink:title="Closes the dialog window.">
<polygon fill="white" stroke="black" points="186.5,-293.5 186.5,-312.5 356.5,-312.5 356.5,-293.5 186.5,-293.5"/>
<text text-anchor="middle" x="271.5" y="-300.5" font-family="Helvetica,sans-Serif" font-size="10.00">denoptim.gui.GUIModalDialog.close</text>
</a>
</g>
</g>
<!-- Node1&#45;&gt;Node3 -->
<g id="edge2" class="edge">
<title>Node1&#45;&gt;Node3</title>
<path fill="none" stroke="midnightblue" d="M149.22,-289.32C158,-290.31 167.05,-291.33 176.06,-292.35"/>
<polygon fill="midnightblue" stroke="midnightblue" points="175.88,-295.85 186.21,-293.49 176.67,-288.89 175.88,-295.85"/>
</g>
<!-- Node4 -->
<g id="node4" class="node">
<title>Node4</title>
<g id="a_node4"><a xlink:href="classdenoptim_1_1gui_1_1_f_s_params_dialog.html#ae39602275c1287e6916f7693a0824b08" target="_top" xlink:title="Reads all the parameters, calls the interpreters, and eventually creates the static FragmentSpace obj...">
<polygon fill="white" stroke="black" points="185,-244 185,-274 358,-274 358,-244 185,-244"/>
<text text-anchor="start" x="193" y="-262" font-family="Helvetica,sans-Serif" font-size="10.00">denoptim.gui.FSParamsDialog.make</text>
<text text-anchor="middle" x="271.5" y="-251" font-family="Helvetica,sans-Serif" font-size="10.00">FragSpace</text>
</a>
</g>
</g>
<!-- Node1&#45;&gt;Node4 -->
<g id="edge3" class="edge">
<title>Node1&#45;&gt;Node4</title>
<path fill="none" stroke="midnightblue" d="M149.22,-272.68C157.59,-271.74 166.21,-270.77 174.82,-269.8"/>
<polygon fill="midnightblue" stroke="midnightblue" points="175.35,-273.26 184.89,-268.66 174.56,-266.3 175.35,-273.26"/>
</g>
<!-- Node16 -->
<g id="node16" class="node">
<title>Node16</title>
<g id="a_node16"><a xlink:href="classdenoptim_1_1gui_1_1_f_s_parameters_form.html#acf9f63e43965c7723e5b577212de9ecf" target="_top" xlink:title=" ">
<polygon fill="white" stroke="black" points="612,-6 612,-36 811,-36 811,-6 612,-6"/>
<text text-anchor="start" x="620" y="-24" font-family="Helvetica,sans-Serif" font-size="10.00">denoptim.gui.FSParameters</text>
<text text-anchor="middle" x="711.5" y="-13" font-family="Helvetica,sans-Serif" font-size="10.00">Form.possiblyReadParamsFromFSParFile</text>
</a>
</g>
</g>
<!-- Node1&#45;&gt;Node16 -->
<g id="edge25" class="edge">
<title>Node1&#45;&gt;Node16</title>
<path fill="none" stroke="midnightblue" d="M99.9,-265.98C152.24,-234.23 279.8,-159.35 394,-112 487.63,-73.18 514.27,-71.9 612,-45 619.99,-42.8 628.37,-40.6 636.73,-38.47"/>
<polygon fill="midnightblue" stroke="midnightblue" points="637.67,-41.84 646.51,-36.01 635.96,-35.06 637.67,-41.84"/>
</g>
<!-- Node5 -->
<g id="node5" class="node">
<title>Node5</title>
<g id="a_node5"><a xlink:href="classdenoptim_1_1fragspace_1_1_fragment_space_parameters.html#a7ba47e20c9b69f190c09c791e9caeca1" target="_top" xlink:title="Evaluate consistency of input parameters.">
<polygon fill="white" stroke="black" points="398.5,-318 398.5,-348 571.5,-348 571.5,-318 398.5,-318"/>
<text text-anchor="start" x="406.5" y="-336" font-family="Helvetica,sans-Serif" font-size="10.00">denoptim.fragspace.Fragment</text>
<text text-anchor="middle" x="485" y="-325" font-family="Helvetica,sans-Serif" font-size="10.00">SpaceParameters.checkParameters</text>
</a>
</g>
</g>
<!-- Node4&#45;&gt;Node5 -->
<g id="edge4" class="edge">
<title>Node4&#45;&gt;Node5</title>
<path fill="none" stroke="midnightblue" d="M332.69,-274.08C341.34,-276.97 350.01,-280.28 358,-284 375.43,-292.13 376.52,-299.99 394,-308 399.29,-310.42 404.86,-312.66 410.54,-314.71"/>
<polygon fill="midnightblue" stroke="midnightblue" points="409.56,-318.07 420.15,-317.99 411.82,-311.45 409.56,-318.07"/>
</g>
<!-- Node9 -->
<g id="node9" class="node">
<title>Node9</title>
<g id="a_node9"><a xlink:href="classdenoptim_1_1fragspace_1_1_fragment_space_parameters.html#a93693af51412000689dc7517151b9a05" target="_top" xlink:title=" ">
<polygon fill="white" stroke="black" points="395.5,-269 395.5,-299 574.5,-299 574.5,-269 395.5,-269"/>
<text text-anchor="start" x="403.5" y="-287" font-family="Helvetica,sans-Serif" font-size="10.00">denoptim.fragspace.Fragment</text>
<text text-anchor="middle" x="485" y="-276" font-family="Helvetica,sans-Serif" font-size="10.00">SpaceParameters.getFragmentSpace</text>
</a>
</g>
</g>
<!-- Node4&#45;&gt;Node9 -->
<g id="edge8" class="edge">
<title>Node4&#45;&gt;Node9</title>
<path fill="none" stroke="midnightblue" d="M358.22,-269.13C367.12,-270.18 376.22,-271.26 385.25,-272.33"/>
<polygon fill="midnightblue" stroke="midnightblue" points="385.06,-275.83 395.4,-273.53 385.88,-268.88 385.06,-275.83"/>
</g>
<!-- Node10 -->
<g id="node10" class="node">
<title>Node10</title>
<g id="a_node10"><a xlink:href="classdenoptim_1_1fragspace_1_1_fragment_space_parameters.html#a09e9320a769de9b184bfc12195db88df" target="_top" xlink:title="Read the information collected in the parameters stored in this class and create the fragment space a...">
<polygon fill="white" stroke="black" points="394,-220 394,-250 576,-250 576,-220 394,-220"/>
<text text-anchor="start" x="402" y="-238" font-family="Helvetica,sans-Serif" font-size="10.00">denoptim.fragspace.Fragment</text>
<text text-anchor="middle" x="485" y="-227" font-family="Helvetica,sans-Serif" font-size="10.00">SpaceParameters.processParameters</text>
</a>
</g>
</g>
<!-- Node4&#45;&gt;Node10 -->
<g id="edge9" class="edge">
<title>Node4&#45;&gt;Node10</title>
<path fill="none" stroke="midnightblue" d="M358.22,-249.27C366.61,-248.32 375.18,-247.35 383.71,-246.38"/>
<polygon fill="midnightblue" stroke="midnightblue" points="384.13,-249.85 393.68,-245.25 383.35,-242.9 384.13,-249.85"/>
</g>
<!-- Node12 -->
<g id="node12" class="node">
<title>Node12</title>
<g id="a_node12"><a xlink:href="classdenoptim_1_1gui_1_1_f_s_parameters_form.html#a06262c2710006e31961d2eeaa8df061e" target="_top" xlink:title=" ">
<polygon fill="white" stroke="black" points="414,-122 414,-152 556,-152 556,-122 414,-122"/>
<text text-anchor="start" x="422" y="-140" font-family="Helvetica,sans-Serif" font-size="10.00">denoptim.gui.FSParameters</text>
<text text-anchor="middle" x="485" y="-129" font-family="Helvetica,sans-Serif" font-size="10.00">Form.putParametersToString</text>
</a>
</g>
</g>
<!-- Node4&#45;&gt;Node12 -->
<g id="edge11" class="edge">
<title>Node4&#45;&gt;Node12</title>
<path fill="none" stroke="midnightblue" d="M298.86,-243.8C336.82,-221.9 406.96,-181.44 449.16,-157.1"/>
<polygon fill="midnightblue" stroke="midnightblue" points="451.06,-160.04 457.97,-152.01 447.56,-153.98 451.06,-160.04"/>
</g>
<!-- Node18 -->
<g id="node18" class="node">
<title>Node18</title>
<g id="a_node18"><a xlink:href="classdenoptim_1_1programs_1_1_run_time_parameters.html#a890aaf1919e171a9c3f9206c9a93aa3b" target="_top" xlink:title=" ">
<polygon fill="white" stroke="black" points="409,-416 409,-446 561,-446 561,-416 409,-416"/>
<text text-anchor="start" x="417" y="-434" font-family="Helvetica,sans-Serif" font-size="10.00">denoptim.programs.RunTime</text>
<text text-anchor="middle" x="485" y="-423" font-family="Helvetica,sans-Serif" font-size="10.00">Parameters.readParameterLine</text>
</a>
</g>
</g>
<!-- Node4&#45;&gt;Node18 -->
<g id="edge19" class="edge">
<title>Node4&#45;&gt;Node18</title>
<path fill="none" stroke="midnightblue" d="M342.7,-274.07C348.19,-276.84 353.38,-280.12 358,-284 385.7,-307.26 371.52,-328.65 394,-357 410.46,-377.76 433.63,-396.64 452.33,-410.14"/>
<polygon fill="midnightblue" stroke="midnightblue" points="450.39,-413.04 460.58,-415.94 454.42,-407.32 450.39,-413.04"/>
</g>
<!-- Node6 -->
<g id="node6" class="node">
<title>Node6</title>
<g id="a_node6"><a xlink:href="classdenoptim_1_1files_1_1_file_utils.html#a16bc762b79f5033f2323fb8728593334" target="_top" xlink:title=" ">
<polygon fill="white" stroke="black" points="640,-269 640,-299 783,-299 783,-269 640,-269"/>
<text text-anchor="start" x="648" y="-287" font-family="Helvetica,sans-Serif" font-size="10.00">denoptim.files.FileUtils.check</text>
<text text-anchor="middle" x="711.5" y="-276" font-family="Helvetica,sans-Serif" font-size="10.00">Exists</text>
</a>
</g>
</g>
<!-- Node5&#45;&gt;Node6 -->
<g id="edge5" class="edge">
<title>Node5&#45;&gt;Node6</title>
<path fill="none" stroke="midnightblue" d="M554.88,-317.97C579.23,-312.65 606.8,-306.63 631.9,-301.16"/>
<polygon fill="midnightblue" stroke="midnightblue" points="632.72,-304.56 641.75,-299.01 631.23,-297.72 632.72,-304.56"/>
</g>
<!-- Node7 -->
<g id="node7" class="node">
<title>Node7</title>
<g id="a_node7"><a xlink:href="classdenoptim_1_1programs_1_1_run_time_parameters.html#aaeaf94275f1b63439850a68a244a74c2" target="_top" xlink:title="Checks any of the parameter collections contained in this instance.">
<polygon fill="white" stroke="black" points="626.5,-367 626.5,-397 796.5,-397 796.5,-367 626.5,-367"/>
<text text-anchor="start" x="634.5" y="-385" font-family="Helvetica,sans-Serif" font-size="10.00">denoptim.programs.RunTime</text>
<text text-anchor="middle" x="711.5" y="-374" font-family="Helvetica,sans-Serif" font-size="10.00">Parameters.checkOtherParameters</text>
</a>
</g>
</g>
<!-- Node5&#45;&gt;Node7 -->
<g id="edge6" class="edge">
<title>Node5&#45;&gt;Node7</title>
<path fill="none" stroke="midnightblue" d="M554.88,-348.03C579.23,-353.35 606.8,-359.37 631.9,-364.84"/>
<polygon fill="midnightblue" stroke="midnightblue" points="631.23,-368.28 641.75,-366.99 632.72,-361.44 631.23,-368.28"/>
</g>
<!-- Node8 -->
<g id="node8" class="node">
<title>Node8</title>
<g id="a_node8"><a xlink:href="classdenoptim_1_1programs_1_1_run_time_parameters.html#a5d529ee791990d15bde012d8dcd6b5c1" target="_top" xlink:title="Get the name of the program specific logger.">
<polygon fill="white" stroke="black" points="641.5,-318 641.5,-348 781.5,-348 781.5,-318 641.5,-318"/>
<text text-anchor="start" x="649.5" y="-336" font-family="Helvetica,sans-Serif" font-size="10.00">denoptim.programs.RunTime</text>
<text text-anchor="middle" x="711.5" y="-325" font-family="Helvetica,sans-Serif" font-size="10.00">Parameters.getLogger</text>
</a>
</g>
</g>
<!-- Node5&#45;&gt;Node8 -->
<g id="edge7" class="edge">
<title>Node5&#45;&gt;Node8</title>
<path fill="none" stroke="midnightblue" d="M571.51,-333C591.05,-333 611.73,-333 631.01,-333"/>
<polygon fill="midnightblue" stroke="midnightblue" points="631.25,-336.5 641.25,-333 631.25,-329.5 631.25,-336.5"/>
</g>
<!-- Node11 -->
<g id="node11" class="node">
<title>Node11</title>
<g id="a_node11"><a xlink:href="classdenoptim_1_1programs_1_1_run_time_parameters.html#abcdf563c6c95b9a293cb0e71738355ff" target="_top" xlink:title="Processes any of the parameter collections contained in this instance.">
<polygon fill="white" stroke="black" points="622.5,-220 622.5,-250 800.5,-250 800.5,-220 622.5,-220"/>
<text text-anchor="start" x="630.5" y="-238" font-family="Helvetica,sans-Serif" font-size="10.00">denoptim.programs.RunTime</text>
<text text-anchor="middle" x="711.5" y="-227" font-family="Helvetica,sans-Serif" font-size="10.00">Parameters.processOtherParameters</text>
</a>
</g>
</g>
<!-- Node10&#45;&gt;Node11 -->
<g id="edge10" class="edge">
<title>Node10&#45;&gt;Node11</title>
<path fill="none" stroke="midnightblue" d="M576.02,-235C587.93,-235 600.19,-235 612.24,-235"/>
<polygon fill="midnightblue" stroke="midnightblue" points="612.29,-238.5 622.29,-235 612.29,-231.5 612.29,-238.5"/>
</g>
<!-- Node13 -->
<g id="node13" class="node">
<title>Node13</title>
<g id="a_node13"><a xlink:href="classdenoptim_1_1gui_1_1_parameters_form.html#a625c868bd274a682e1c81eaaefce8f5d" target="_top" xlink:title="Produced an overall string including one or more KEY:VALUE strings taken from a table.">
<polygon fill="white" stroke="black" points="630.5,-55 630.5,-85 792.5,-85 792.5,-55 630.5,-55"/>
<text text-anchor="start" x="638.5" y="-73" font-family="Helvetica,sans-Serif" font-size="10.00">denoptim.gui.ParametersForm.get</text>
<text text-anchor="middle" x="711.5" y="-62" font-family="Helvetica,sans-Serif" font-size="10.00">StringFromTable</text>
</a>
</g>
</g>
<!-- Node12&#45;&gt;Node13 -->
<g id="edge12" class="edge">
<title>Node12&#45;&gt;Node13</title>
<path fill="none" stroke="midnightblue" d="M536.38,-121.96C570.06,-111.91 614.54,-98.64 650.12,-88.02"/>
<polygon fill="midnightblue" stroke="midnightblue" points="651.32,-91.32 659.9,-85.1 649.31,-84.61 651.32,-91.32"/>
</g>
<!-- Node14 -->
<g id="node14" class="node">
<title>Node14</title>
<g id="a_node14"><a xlink:href="classdenoptim_1_1gui_1_1_parameters_form.html#adba801c985eb2aa293c9dc1ce455fb63" target="_top" xlink:title="Produced the KEY:VALUE string for a general text field.">
<polygon fill="white" stroke="black" points="630.5,-171 630.5,-201 792.5,-201 792.5,-171 630.5,-171"/>
<text text-anchor="start" x="638.5" y="-189" font-family="Helvetica,sans-Serif" font-size="10.00">denoptim.gui.ParametersForm.get</text>
<text text-anchor="middle" x="711.5" y="-178" font-family="Helvetica,sans-Serif" font-size="10.00">StringIfNotEmpty</text>
</a>
</g>
</g>
<!-- Node12&#45;&gt;Node14 -->
<g id="edge14" class="edge">
<title>Node12&#45;&gt;Node14</title>
<path fill="none" stroke="midnightblue" d="M554.88,-152.03C579.23,-157.35 606.8,-163.37 631.9,-168.84"/>
<polygon fill="midnightblue" stroke="midnightblue" points="631.23,-172.28 641.75,-170.99 632.72,-165.44 631.23,-172.28"/>
</g>
<!-- Node15 -->
<g id="node15" class="node">
<title>Node15</title>
<g id="a_node15"><a xlink:href="classdenoptim_1_1gui_1_1_parameters_form.html#a8fe7e5b6db435de65b2629b0e175cc82" target="_top" xlink:title="Produced the KEY:VALUE string for a on/off button.">
<polygon fill="white" stroke="black" points="630.5,-122 630.5,-152 792.5,-152 792.5,-122 630.5,-122"/>
<text text-anchor="start" x="638.5" y="-140" font-family="Helvetica,sans-Serif" font-size="10.00">denoptim.gui.ParametersForm.get</text>
<text text-anchor="middle" x="711.5" y="-129" font-family="Helvetica,sans-Serif" font-size="10.00">StringIfSelected</text>
</a>
</g>
</g>
<!-- Node12&#45;&gt;Node15 -->
<g id="edge15" class="edge">
<title>Node12&#45;&gt;Node15</title>
<path fill="none" stroke="midnightblue" d="M556.11,-137C576.43,-137 598.92,-137 620.29,-137"/>
<polygon fill="midnightblue" stroke="midnightblue" points="620.34,-140.5 630.34,-137 620.34,-133.5 620.34,-140.5"/>
</g>
<!-- Node12&#45;&gt;Node16 -->
<g id="edge16" class="edge">
<title>Node12&#45;&gt;Node16</title>
<path fill="none" stroke="midnightblue" d="M506.52,-121.94C541.84,-96.03 610.54,-45.68 612,-45 616.36,-42.97 620.91,-41.11 625.56,-39.39"/>
<polygon fill="midnightblue" stroke="midnightblue" points="626.9,-42.63 635.22,-36.07 624.63,-36.01 626.9,-42.63"/>
</g>
<!-- Node13&#45;&gt;Node13 -->
<g id="edge13" class="edge">
<title>Node13&#45;&gt;Node13</title>
<path fill="none" stroke="midnightblue" d="M672.11,-85.16C662.62,-94.56 675.75,-103.5 711.5,-103.5 733.29,-103.5 746.67,-100.18 751.66,-95.46"/>
<polygon fill="midnightblue" stroke="midnightblue" points="755.12,-94.87 750.89,-85.16 748.14,-95.39 755.12,-94.87"/>
</g>
<!-- Node17 -->
<g id="node17" class="node">
<title>Node17</title>
<g id="a_node17"><a xlink:href="classdenoptim_1_1gui_1_1_f_s_parameters_form.html#a3efd797a6bfa6106f3134ead85fcab5e" target="_top" xlink:title="Imports parameters from a properly formatted parameters file.">
<polygon fill="white" stroke="black" points="867.5,-0.5 867.5,-41.5 1049.5,-41.5 1049.5,-0.5 867.5,-0.5"/>
<text text-anchor="start" x="875.5" y="-29.5" font-family="Helvetica,sans-Serif" font-size="10.00">denoptim.gui.FSParameters</text>
<text text-anchor="start" x="875.5" y="-18.5" font-family="Helvetica,sans-Serif" font-size="10.00">Form.importParametersFromDenoptim</text>
<text text-anchor="middle" x="958.5" y="-7.5" font-family="Helvetica,sans-Serif" font-size="10.00">ParamsFile</text>
</a>
</g>
</g>
<!-- Node16&#45;&gt;Node17 -->
<g id="edge17" class="edge">
<title>Node16&#45;&gt;Node17</title>
<path fill="none" stroke="midnightblue" d="M811.09,-21C826.22,-21 841.85,-21 857.01,-21"/>
<polygon fill="midnightblue" stroke="midnightblue" points="857.43,-24.5 867.43,-21 857.43,-17.5 857.43,-24.5"/>
</g>
<!-- Node17&#45;&gt;Node17 -->
<g id="edge18" class="edge">
<title>Node17&#45;&gt;Node17</title>
<path fill="none" stroke="midnightblue" d="M913.29,-41.86C908.35,-51.54 923.43,-60 958.5,-60 980.42,-60 994.53,-56.7 1000.82,-51.86"/>
<polygon fill="midnightblue" stroke="midnightblue" points="1004.3,-52.44 1003.71,-41.86 997.57,-50.5 1004.3,-52.44"/>
</g>
<!-- Node19 -->
<g id="node19" class="node">
<title>Node19</title>
<g id="a_node19"><a xlink:href="classdenoptim_1_1programs_1_1_run_time_parameters.html#a38d652dfc85081f78687a61b32f9a283" target="_top" xlink:title="Builds the implementation of this class suitable to allocate parameters of the given type.">
<polygon fill="white" stroke="black" points="641.5,-483 641.5,-513 781.5,-513 781.5,-483 641.5,-483"/>
<text text-anchor="start" x="649.5" y="-501" font-family="Helvetica,sans-Serif" font-size="10.00">denoptim.programs.RunTime</text>
<text text-anchor="middle" x="711.5" y="-490" font-family="Helvetica,sans-Serif" font-size="10.00">Parameters.getInstanceFor</text>
</a>
</g>
</g>
<!-- Node18&#45;&gt;Node19 -->
<g id="edge20" class="edge">
<title>Node18&#45;&gt;Node19</title>
<path fill="none" stroke="midnightblue" d="M527.13,-446.08C551.61,-454.79 583.38,-465.65 612,-474 619.48,-476.18 627.33,-478.33 635.18,-480.39"/>
<polygon fill="midnightblue" stroke="midnightblue" points="634.55,-483.84 645.11,-482.94 636.3,-477.06 634.55,-483.84"/>
</g>
<!-- Node22 -->
<g id="node22" class="node">
<title>Node22</title>
<g id="a_node22"><a xlink:href="classdenoptim_1_1programs_1_1_run_time_parameters.html#a4cf7f93ac962a8979be6426b5b576384" target="_top" xlink:title="Processes a string looking for keyword and a possibly associated value.">
<polygon fill="white" stroke="black" points="640.5,-416 640.5,-446 782.5,-446 782.5,-416 640.5,-416"/>
<text text-anchor="start" x="648.5" y="-434" font-family="Helvetica,sans-Serif" font-size="10.00">denoptim.programs.RunTime</text>
<text text-anchor="middle" x="711.5" y="-423" font-family="Helvetica,sans-Serif" font-size="10.00">Parameters.interpretKeyword</text>
</a>
</g>
</g>
<!-- Node18&#45;&gt;Node22 -->
<g id="edge23" class="edge">
<title>Node18&#45;&gt;Node22</title>
<path fill="none" stroke="midnightblue" d="M561.07,-431C583.29,-431 607.7,-431 630.23,-431"/>
<polygon fill="midnightblue" stroke="midnightblue" points="630.44,-434.5 640.44,-431 630.44,-427.5 630.44,-434.5"/>
</g>
<!-- Node20 -->
<g id="node20" class="node">
<title>Node20</title>
<g id="a_node20"><a xlink:href="enumdenoptim_1_1programs_1_1_run_time_parameters_1_1_parameters_type.html#af225a4d21c1a04771222f81fe5622b2d" target="_top" xlink:title=" ">
<polygon fill="white" stroke="black" points="847,-458 847,-488 1070,-488 1070,-458 847,-458"/>
<text text-anchor="start" x="855" y="-476" font-family="Helvetica,sans-Serif" font-size="10.00">denoptim.programs.RunTime</text>
<text text-anchor="middle" x="958.5" y="-465" font-family="Helvetica,sans-Serif" font-size="10.00">Parameters.ParametersType.getImplementation</text>
</a>
</g>
</g>
<!-- Node19&#45;&gt;Node20 -->
<g id="edge21" class="edge">
<title>Node19&#45;&gt;Node20</title>
<path fill="none" stroke="midnightblue" d="M781.72,-490.94C798.88,-489.19 817.76,-487.26 836.59,-485.34"/>
<polygon fill="midnightblue" stroke="midnightblue" points="837.14,-488.8 846.73,-484.3 836.43,-481.84 837.14,-488.8"/>
</g>
<!-- Node21 -->
<g id="node21" class="node">
<title>Node21</title>
<g id="a_node21"><a xlink:href="classdenoptim_1_1programs_1_1_run_time_parameters.html#a0ff947a81c127a3460907c7cffb9843b" target="_top" xlink:title="Constructor.">
<polygon fill="white" stroke="black" points="879.5,-507 879.5,-537 1037.5,-537 1037.5,-507 879.5,-507"/>
<text text-anchor="start" x="887.5" y="-525" font-family="Helvetica,sans-Serif" font-size="10.00">denoptim.programs.RunTime</text>
<text text-anchor="middle" x="958.5" y="-514" font-family="Helvetica,sans-Serif" font-size="10.00">Parameters.RunTimeParameters</text>
</a>
</g>
</g>
<!-- Node19&#45;&gt;Node21 -->
<g id="edge22" class="edge">
<title>Node19&#45;&gt;Node21</title>
<path fill="none" stroke="midnightblue" d="M781.72,-504.78C808.94,-507.45 840.51,-510.54 869.32,-513.36"/>
<polygon fill="midnightblue" stroke="midnightblue" points="869.1,-516.86 879.39,-514.35 869.78,-509.89 869.1,-516.86"/>
</g>
<!-- Node22&#45;&gt;Node22 -->
<g id="edge24" class="edge">
<title>Node22&#45;&gt;Node22</title>
<path fill="none" stroke="midnightblue" d="M672.11,-446.16C662.62,-455.56 675.75,-464.5 711.5,-464.5 733.29,-464.5 746.67,-461.18 751.66,-456.46"/>
<polygon fill="midnightblue" stroke="midnightblue" points="755.12,-455.87 750.89,-446.16 748.14,-456.39 755.12,-455.87"/>
</g>
</g>
</svg>
