<?xml version="1.0" encoding="UTF-8" standalone="no"?>
<!DOCTYPE svg PUBLIC "-//W3C//DTD SVG 1.1//EN"
 "http://www.w3.org/Graphics/SVG/1.1/DTD/svg11.dtd">
<!-- Generated by graphviz version 3.0.0 (20220413.0242)
 -->
<!-- Title: denoptim.graph.Template.clone Pages: 1 -->
<!--zoomable 1346 -->
<svg id="main" version="1.1" xmlns="http://www.w3.org/2000/svg" xmlns:xlink="http://www.w3.org/1999/xlink" xml:space="preserve" onload="init(evt)">
<style type="text/css"><![CDATA[
.edge:hover path { stroke: red; }
.edge:hover polygon { stroke: red; fill: red; }
]]></style>
<script type="text/javascript"><![CDATA[
var edges = document.getElementsByTagName('g');
if (edges && edges.length) {
  for (var i=0;i<edges.length;i++) {
    if (edges[i].id.substr(0,4)=='edge') {
      edges[i].setAttribute('class','edge');
    }
  }
}
]]></script>
        <defs>
                <circle id="rim" cx="0" cy="0" r="7"/>
                <circle id="rim2" cx="0" cy="0" r="3.5"/>
                <g id="zoomPlus">
                        <use xlink:href="#rim" fill="#404040">
                                <set attributeName="fill" to="#808080" begin="zoomplus.mouseover" end="zoomplus.mouseout"/>
                        </use>
                        <path d="M-4,0h8M0,-4v8" fill="none" stroke="white" stroke-width="1.5" pointer-events="none"/>
                </g>
                <g id="zoomMin">
                        <use xlink:href="#rim" fill="#404040">
                                <set attributeName="fill" to="#808080" begin="zoomminus.mouseover" end="zoomminus.mouseout"/>
                        </use>
                        <path d="M-4,0h8" fill="none" stroke="white" stroke-width="1.5" pointer-events="none"/>
                </g>
                <g id="dirArrow">
                        <path fill="none" stroke="white" stroke-width="1.5" d="M0,-3.0v7 M-2.5,-0.5L0,-3.0L2.5,-0.5"/>
                </g>
               <g id="resetDef">
                       <use xlink:href="#rim2" fill="#404040">
                               <set attributeName="fill" to="#808080" begin="reset.mouseover" end="reset.mouseout"/>
                       </use>
               </g>
        </defs>

<script type="text/javascript">
var viewWidth = 1109;
var viewHeight = 1346;
var sectionId = 'dynsection-9';
</script>
<script xlink:href="svgpan.js"/>
<svg id="graph" class="graph">
<g id="viewport">
<title>denoptim.graph.Template.clone</title>
<polygon fill="white" stroke="transparent" points="-4,4 -4,-1342.48 1105,-1342.48 1105,4 -4,4"/>
<!-- Node1 -->
<g id="node1" class="node">
<title>Node1</title>
<g id="a_node1"><a xlink:title="Returns a deep copy of this template.">
<polygon fill="#bfbfbf" stroke="black" points="0,-447 0,-466 151,-466 151,-447 0,-447"/>
<text text-anchor="middle" x="75.5" y="-454" font-family="Helvetica,sans-Serif" font-size="10.00">denoptim.graph.Template.clone</text>
</a>
</g>
</g>
<!-- Node1&#45;&gt;Node1 -->
<g id="edge4" class="edge">
<title>Node1&#45;&gt;Node1</title>
<path fill="none" stroke="midnightblue" d="M45.91,-466.26C31.51,-475.07 41.38,-484.5 75.5,-484.5 99.49,-484.5 111.49,-479.84 111.5,-474"/>
<polygon fill="midnightblue" stroke="midnightblue" points="114.16,-471.73 105.09,-466.26 108.77,-476.19 114.16,-471.73"/>
</g>
<!-- Node2 -->
<g id="node2" class="node">
<title>Node2</title>
<g id="a_node2"><a xlink:href="classdenoptim_1_1graph_1_1_template.html#a97f3fd8552c85b78dcad22d4ce1f4b0a" target="_top" xlink:title="Adds attachment point (AP) to the list of required APs on this template.">
<polygon fill="white" stroke="black" points="197.5,-823.5 197.5,-853.5 340.5,-853.5 340.5,-823.5 197.5,-823.5"/>
<text text-anchor="start" x="205.5" y="-841.5" font-family="Helvetica,sans-Serif" font-size="10.00">denoptim.graph.Template.add</text>
<text text-anchor="middle" x="269" y="-830.5" font-family="Helvetica,sans-Serif" font-size="10.00">RequiredAP</text>
</a>
</g>
</g>
<!-- Node1&#45;&gt;Node2 -->
<g id="edge1" class="edge">
<title>Node1&#45;&gt;Node2</title>
<path fill="none" stroke="midnightblue" d="M76.6,-466.14C77.59,-511.29 87.7,-704.05 187,-808.5 190.44,-812.11 194.35,-815.29 198.55,-818.09"/>
<polygon fill="midnightblue" stroke="midnightblue" points="197.12,-821.32 207.53,-823.32 200.65,-815.27 197.12,-821.32"/>
</g>
<!-- Node4 -->
<g id="node4" class="node">
<title>Node4</title>
<g id="a_node4"><a xlink:href="classdenoptim_1_1graph_1_1_template.html#a7869ba705f5898855fe68dd443721f8e" target="_top" xlink:title=" ">
<polygon fill="white" stroke="black" points="398.5,-776.5 398.5,-806.5 539.5,-806.5 539.5,-776.5 398.5,-776.5"/>
<text text-anchor="start" x="406.5" y="-794.5" font-family="Helvetica,sans-Serif" font-size="10.00">denoptim.graph.Template.get</text>
<text text-anchor="middle" x="469" y="-783.5" font-family="Helvetica,sans-Serif" font-size="10.00">InnerGraph</text>
</a>
</g>
</g>
<!-- Node1&#45;&gt;Node4 -->
<g id="edge11" class="edge">
<title>Node1&#45;&gt;Node4</title>
<path fill="none" stroke="midnightblue" d="M76.34,-466.2C76.19,-510.65 82.02,-696.17 187,-775.5 245.72,-819.87 332.61,-817.57 394.2,-808.16"/>
<polygon fill="midnightblue" stroke="midnightblue" points="394.93,-811.58 404.24,-806.52 393.81,-804.67 394.93,-811.58"/>
</g>
<!-- Node5 -->
<g id="node5" class="node">
<title>Node5</title>
<g id="a_node5"><a xlink:href="classdenoptim_1_1graph_1_1_vertex.html#a6e237f0bbd68ebc3c6cd4278713ea7b2" target="_top" xlink:title="Copies all the string&#45;based properties and properties defined in the Vertex#uniquefyingPropertyKeys s...">
<polygon fill="white" stroke="black" points="201.5,-735.5 201.5,-765.5 336.5,-765.5 336.5,-735.5 201.5,-735.5"/>
<text text-anchor="start" x="209.5" y="-753.5" font-family="Helvetica,sans-Serif" font-size="10.00">denoptim.graph.Vertex.copy</text>
<text text-anchor="middle" x="269" y="-742.5" font-family="Helvetica,sans-Serif" font-size="10.00">StringBasedProperties</text>
</a>
</g>
</g>
<!-- Node1&#45;&gt;Node5 -->
<g id="edge5" class="edge">
<title>Node1&#45;&gt;Node5</title>
<path fill="none" stroke="midnightblue" d="M77.48,-466.05C81.95,-504.75 103.98,-651.42 187,-726.5 188.72,-728.06 190.54,-729.52 192.44,-730.88"/>
<polygon fill="midnightblue" stroke="midnightblue" points="190.86,-734.02 201.21,-736.27 194.53,-728.05 190.86,-734.02"/>
</g>
<!-- Node6 -->
<g id="node6" class="node">
<title>Node6</title>
<g id="a_node6"><a xlink:href="classdenoptim_1_1graph_1_1_attachment_point.html#a7e45846280a63bd2bf36b85e502ffa49" target="_top" xlink:title="The index of the source atom in the atom list of the fragment.">
<polygon fill="white" stroke="black" points="195,-686.5 195,-716.5 343,-716.5 343,-686.5 195,-686.5"/>
<text text-anchor="start" x="203" y="-704.5" font-family="Helvetica,sans-Serif" font-size="10.00">denoptim.graph.Attachment</text>
<text text-anchor="middle" x="269" y="-693.5" font-family="Helvetica,sans-Serif" font-size="10.00">Point.getAtomPositionNumber</text>
</a>
</g>
</g>
<!-- Node1&#45;&gt;Node6 -->
<g id="edge6" class="edge">
<title>Node1&#45;&gt;Node6</title>
<path fill="none" stroke="midnightblue" d="M78.45,-466.16C85.87,-500.49 115.66,-617.7 187,-677.5 188.52,-678.77 190.1,-679.98 191.74,-681.12"/>
<polygon fill="midnightblue" stroke="midnightblue" points="189.95,-684.13 200.32,-686.31 193.57,-678.14 189.95,-684.13"/>
</g>
<!-- Node7 -->
<g id="node7" class="node">
<title>Node7</title>
<g id="a_node7"><a xlink:href="classdenoptim_1_1graph_1_1_template.html#a7de3b3ecb0743c881a629727648955be" target="_top" xlink:title="Return the list of attachment points visible from outside the template, i.e., the so&#45;called outer APs...">
<polygon fill="white" stroke="black" points="198.5,-637.5 198.5,-667.5 339.5,-667.5 339.5,-637.5 198.5,-637.5"/>
<text text-anchor="start" x="206.5" y="-655.5" font-family="Helvetica,sans-Serif" font-size="10.00">denoptim.graph.Template.get</text>
<text text-anchor="middle" x="269" y="-644.5" font-family="Helvetica,sans-Serif" font-size="10.00">AttachmentPoints</text>
</a>
</g>
</g>
<!-- Node1&#45;&gt;Node7 -->
<g id="edge7" class="edge">
<title>Node1&#45;&gt;Node7</title>
<path fill="none" stroke="midnightblue" d="M79.99,-466.41C90.88,-495.85 127.11,-583.54 187,-628.5 188.86,-629.9 190.8,-631.21 192.8,-632.45"/>
<polygon fill="midnightblue" stroke="midnightblue" points="191.47,-635.71 201.93,-637.4 194.81,-629.56 191.47,-635.71"/>
</g>
<!-- Node8 -->
<g id="node8" class="node">
<title>Node8</title>
<g id="a_node8"><a xlink:href="classdenoptim_1_1graph_1_1_vertex.html#a200f775296c4c9804e3a2b59e065be8a" target="_top" xlink:title="Returns the index of the building block that should correspond to the position of the building block ...">
<polygon fill="white" stroke="black" points="205,-588.5 205,-618.5 333,-618.5 333,-588.5 205,-588.5"/>
<text text-anchor="start" x="213" y="-606.5" font-family="Helvetica,sans-Serif" font-size="10.00">denoptim.graph.Vertex.get</text>
<text text-anchor="middle" x="269" y="-595.5" font-family="Helvetica,sans-Serif" font-size="10.00">BuildingBlockId</text>
</a>
</g>
</g>
<!-- Node1&#45;&gt;Node8 -->
<g id="edge8" class="edge">
<title>Node1&#45;&gt;Node8</title>
<path fill="none" stroke="midnightblue" d="M82.41,-466.13C97.12,-489.27 137.74,-548.38 187,-579.5 189.64,-581.17 192.41,-582.73 195.25,-584.18"/>
<polygon fill="midnightblue" stroke="midnightblue" points="194.03,-587.47 204.58,-588.47 196.96,-581.11 194.03,-587.47"/>
</g>
<!-- Node9 -->
<g id="node9" class="node">
<title>Node9</title>
<g id="a_node9"><a xlink:href="classdenoptim_1_1graph_1_1_vertex.html#a46dadb5fd30f1877db91e97ae55c2dd8" target="_top" xlink:title=" ">
<polygon fill="white" stroke="black" points="205,-539.5 205,-569.5 333,-569.5 333,-539.5 205,-539.5"/>
<text text-anchor="start" x="213" y="-557.5" font-family="Helvetica,sans-Serif" font-size="10.00">denoptim.graph.Vertex.get</text>
<text text-anchor="middle" x="269" y="-546.5" font-family="Helvetica,sans-Serif" font-size="10.00">BuildingBlockType</text>
</a>
</g>
</g>
<!-- Node1&#45;&gt;Node9 -->
<g id="edge9" class="edge">
<title>Node1&#45;&gt;Node9</title>
<path fill="none" stroke="midnightblue" d="M88.36,-466.23C107.85,-481.78 148.34,-512.34 187,-530.5 191.07,-532.41 195.32,-534.21 199.66,-535.89"/>
<polygon fill="midnightblue" stroke="midnightblue" points="198.66,-539.25 209.25,-539.39 201.06,-532.68 198.66,-539.25"/>
</g>
<!-- Node10 -->
<g id="node10" class="node">
<title>Node10</title>
<g id="a_node10"><a xlink:href="classdenoptim_1_1graph_1_1_attachment_point.html#a9c1db3123b7f73aa20c0d1895f31f8d7" target="_top" xlink:title="Returns the end of the direction vector.">
<polygon fill="white" stroke="black" points="201.5,-490.5 201.5,-520.5 336.5,-520.5 336.5,-490.5 201.5,-490.5"/>
<text text-anchor="start" x="209.5" y="-508.5" font-family="Helvetica,sans-Serif" font-size="10.00">denoptim.graph.Attachment</text>
<text text-anchor="middle" x="269" y="-497.5" font-family="Helvetica,sans-Serif" font-size="10.00">Point.getDirectionVector</text>
</a>
</g>
</g>
<!-- Node1&#45;&gt;Node10 -->
<g id="edge10" class="edge">
<title>Node1&#45;&gt;Node10</title>
<path fill="none" stroke="midnightblue" d="M113.88,-466.06C138.12,-472.27 170.44,-480.54 199.22,-487.9"/>
<polygon fill="midnightblue" stroke="midnightblue" points="198.68,-491.37 209.23,-490.46 200.41,-484.59 198.68,-491.37"/>
</g>
<!-- Node11 -->
<g id="node11" class="node">
<title>Node11</title>
<g id="a_node11"><a xlink:href="classdenoptim_1_1graph_1_1_vertex.html#a5671e1d926fba782f48c494d61980d29" target="_top" xlink:title="Returns the mutation types that are constitutionally configures for this vertex irrespectively on the...">
<polygon fill="white" stroke="black" points="205,-441.5 205,-471.5 333,-471.5 333,-441.5 205,-441.5"/>
<text text-anchor="start" x="213" y="-459.5" font-family="Helvetica,sans-Serif" font-size="10.00">denoptim.graph.Vertex.get</text>
<text text-anchor="middle" x="269" y="-448.5" font-family="Helvetica,sans-Serif" font-size="10.00">UnfilteredMutationTypes</text>
</a>
</g>
</g>
<!-- Node1&#45;&gt;Node11 -->
<g id="edge12" class="edge">
<title>Node1&#45;&gt;Node11</title>
<path fill="none" stroke="midnightblue" d="M151.09,-456.5C165.37,-456.5 180.31,-456.5 194.56,-456.5"/>
<polygon fill="midnightblue" stroke="midnightblue" points="194.79,-460 204.79,-456.5 194.79,-453 194.79,-460"/>
</g>
<!-- Node12 -->
<g id="node12" class="node">
<title>Node12</title>
<g id="a_node12"><a xlink:href="classdenoptim_1_1graph_1_1_vertex.html#af44ae05546096ec9060d7207f38bc8e9" target="_top" xlink:title=" ">
<polygon fill="white" stroke="black" points="205,-392.5 205,-422.5 333,-422.5 333,-392.5 205,-392.5"/>
<text text-anchor="start" x="213" y="-410.5" font-family="Helvetica,sans-Serif" font-size="10.00">denoptim.graph.Vertex.get</text>
<text text-anchor="middle" x="269" y="-399.5" font-family="Helvetica,sans-Serif" font-size="10.00">VertexId</text>
</a>
</g>
</g>
<!-- Node1&#45;&gt;Node12 -->
<g id="edge13" class="edge">
<title>Node1&#45;&gt;Node12</title>
<path fill="none" stroke="midnightblue" d="M113.88,-446.94C138.12,-440.73 170.44,-432.46 199.22,-425.1"/>
<polygon fill="midnightblue" stroke="midnightblue" points="200.41,-428.41 209.23,-422.54 198.68,-421.63 200.41,-428.41"/>
</g>
<!-- Node13 -->
<g id="node13" class="node">
<title>Node13</title>
<g id="a_node13"><a xlink:href="classdenoptim_1_1utils_1_1_molecule_utils.html#a377eae6a6254a6d1bd0f218fc2552af3" target="_top" xlink:title="Constructs a copy of an atom container, i.e., a molecule that reflects the one given in the input arg...">
<polygon fill="white" stroke="black" points="187,-343.5 187,-373.5 351,-373.5 351,-343.5 187,-343.5"/>
<text text-anchor="start" x="195" y="-361.5" font-family="Helvetica,sans-Serif" font-size="10.00">denoptim.utils.MoleculeUtils.make</text>
<text text-anchor="middle" x="269" y="-350.5" font-family="Helvetica,sans-Serif" font-size="10.00">SameAs</text>
</a>
</g>
</g>
<!-- Node1&#45;&gt;Node13 -->
<g id="edge14" class="edge">
<title>Node1&#45;&gt;Node13</title>
<path fill="none" stroke="midnightblue" d="M88.41,-446.96C107.96,-431.71 148.54,-401.68 187,-383.5 191.91,-381.18 197.08,-379.01 202.34,-377"/>
<polygon fill="midnightblue" stroke="midnightblue" points="203.67,-380.24 211.87,-373.54 201.28,-373.66 203.67,-380.24"/>
</g>
<!-- Node15 -->
<g id="node15" class="node">
<title>Node15</title>
<g id="a_node15"><a xlink:href="classdenoptim_1_1graph_1_1_attachment_point.html#a54d64a8abc57153a64783ddb262f518c" target="_top" xlink:title="Set the index of the source atom in the list of atoms of the fragment.">
<polygon fill="white" stroke="black" points="195,-294.5 195,-324.5 343,-324.5 343,-294.5 195,-294.5"/>
<text text-anchor="start" x="203" y="-312.5" font-family="Helvetica,sans-Serif" font-size="10.00">denoptim.graph.Attachment</text>
<text text-anchor="middle" x="269" y="-301.5" font-family="Helvetica,sans-Serif" font-size="10.00">Point.setAtomPositionNumber</text>
</a>
</g>
</g>
<!-- Node1&#45;&gt;Node15 -->
<g id="edge17" class="edge">
<title>Node1&#45;&gt;Node15</title>
<path fill="none" stroke="midnightblue" d="M82.46,-446.98C97.26,-424.12 138.07,-365.66 187,-334.5 190.33,-332.38 193.84,-330.43 197.48,-328.64"/>
<polygon fill="midnightblue" stroke="midnightblue" points="199.01,-331.79 206.7,-324.5 196.14,-325.4 199.01,-331.79"/>
</g>
<!-- Node16 -->
<g id="node16" class="node">
<title>Node16</title>
<g id="a_node16"><a xlink:href="classdenoptim_1_1graph_1_1_vertex.html#a867032399d8aad0a894cbf5b51406ac4" target="_top" xlink:title=" ">
<polygon fill="white" stroke="black" points="205,-245.5 205,-275.5 333,-275.5 333,-245.5 205,-245.5"/>
<text text-anchor="start" x="213" y="-263.5" font-family="Helvetica,sans-Serif" font-size="10.00">denoptim.graph.Vertex.set</text>
<text text-anchor="middle" x="269" y="-252.5" font-family="Helvetica,sans-Serif" font-size="10.00">BuildingBlockId</text>
</a>
</g>
</g>
<!-- Node1&#45;&gt;Node16 -->
<g id="edge18" class="edge">
<title>Node1&#45;&gt;Node16</title>
<path fill="none" stroke="midnightblue" d="M80.03,-446.68C91.03,-417.5 127.55,-330.53 187,-285.5 189.78,-283.39 192.74,-281.46 195.83,-279.69"/>
<polygon fill="midnightblue" stroke="midnightblue" points="197.48,-282.78 204.8,-275.12 194.3,-276.54 197.48,-282.78"/>
</g>
<!-- Node17 -->
<g id="node17" class="node">
<title>Node17</title>
<g id="a_node17"><a xlink:href="classdenoptim_1_1graph_1_1_attachment_point.html#a5ec92eb2ffc5a1b3fadce0c816e481b7" target="_top" xlink:title="Sets the end of the 3D vector defining the direction of the AP in 3D.">
<polygon fill="white" stroke="black" points="201.5,-196.5 201.5,-226.5 336.5,-226.5 336.5,-196.5 201.5,-196.5"/>
<text text-anchor="start" x="209.5" y="-214.5" font-family="Helvetica,sans-Serif" font-size="10.00">denoptim.graph.Attachment</text>
<text text-anchor="middle" x="269" y="-203.5" font-family="Helvetica,sans-Serif" font-size="10.00">Point.setDirectionVector</text>
</a>
</g>
</g>
<!-- Node1&#45;&gt;Node17 -->
<g id="edge19" class="edge">
<title>Node1&#45;&gt;Node17</title>
<path fill="none" stroke="midnightblue" d="M78.48,-446.91C86.03,-412.83 116.2,-296.42 187,-236.5 189.02,-234.79 191.15,-233.21 193.37,-231.72"/>
<polygon fill="midnightblue" stroke="midnightblue" points="195.42,-234.58 202.31,-226.53 191.91,-228.52 195.42,-234.58"/>
</g>
<!-- Node18 -->
<g id="node18" class="node">
<title>Node18</title>
<g id="a_node18"><a xlink:href="classdenoptim_1_1graph_1_1_template.html#a405d47ac1a08ac9bd658bcdcc693a0a4" target="_top" xlink:title=" ">
<polygon fill="white" stroke="black" points="198.5,-899.5 198.5,-929.5 339.5,-929.5 339.5,-899.5 198.5,-899.5"/>
<text text-anchor="start" x="206.5" y="-917.5" font-family="Helvetica,sans-Serif" font-size="10.00">denoptim.graph.Template.set</text>
<text text-anchor="middle" x="269" y="-906.5" font-family="Helvetica,sans-Serif" font-size="10.00">InnerGraph</text>
</a>
</g>
</g>
<!-- Node1&#45;&gt;Node18 -->
<g id="edge20" class="edge">
<title>Node1&#45;&gt;Node18</title>
<path fill="none" stroke="midnightblue" d="M76.63,-466.16C77.77,-514.17 88.36,-730.18 187,-863.5 196.32,-876.09 209.75,-886.32 223.01,-894.23"/>
<polygon fill="midnightblue" stroke="midnightblue" points="221.67,-897.49 232.11,-899.33 225.1,-891.38 221.67,-897.49"/>
</g>
<!-- Node37 -->
<g id="node37" class="node">
<title>Node37</title>
<g id="a_node37"><a xlink:href="classdenoptim_1_1graph_1_1_vertex.html#a0e1114b16856fd16a2de9cface2ea806" target="_top" xlink:title=" ">
<polygon fill="white" stroke="black" points="205,-147.5 205,-177.5 333,-177.5 333,-147.5 205,-147.5"/>
<text text-anchor="start" x="213" y="-165.5" font-family="Helvetica,sans-Serif" font-size="10.00">denoptim.graph.Vertex.set</text>
<text text-anchor="middle" x="269" y="-154.5" font-family="Helvetica,sans-Serif" font-size="10.00">MutationTypes</text>
</a>
</g>
</g>
<!-- Node1&#45;&gt;Node37 -->
<g id="edge43" class="edge">
<title>Node1&#45;&gt;Node37</title>
<path fill="none" stroke="midnightblue" d="M77.54,-446.75C82.23,-407.89 104.8,-262.58 187,-187.5 189.77,-184.97 192.79,-182.69 195.99,-180.65"/>
<polygon fill="midnightblue" stroke="midnightblue" points="197.76,-183.67 204.8,-175.76 194.36,-177.55 197.76,-183.67"/>
</g>
<!-- Node38 -->
<g id="node38" class="node">
<title>Node38</title>
<g id="a_node38"><a xlink:href="classdenoptim_1_1graph_1_1_vertex.html#a1b3682ddb7fc71fdd981526b43d773dc" target="_top" xlink:title=" ">
<polygon fill="white" stroke="black" points="205,-98.5 205,-128.5 333,-128.5 333,-98.5 205,-98.5"/>
<text text-anchor="start" x="213" y="-116.5" font-family="Helvetica,sans-Serif" font-size="10.00">denoptim.graph.Vertex.set</text>
<text text-anchor="middle" x="269" y="-105.5" font-family="Helvetica,sans-Serif" font-size="10.00">Properties</text>
</a>
</g>
</g>
<!-- Node1&#45;&gt;Node38 -->
<g id="edge44" class="edge">
<title>Node1&#45;&gt;Node38</title>
<path fill="none" stroke="midnightblue" d="M76.85,-446.81C78.92,-403.92 93.03,-229.23 187,-138.5 189.76,-135.84 192.79,-133.46 196.01,-131.33"/>
<polygon fill="midnightblue" stroke="midnightblue" points="197.97,-134.25 204.94,-126.28 194.52,-128.16 197.97,-134.25"/>
</g>
<!-- Node39 -->
<g id="node39" class="node">
<title>Node39</title>
<g id="a_node39"><a xlink:href="classdenoptim_1_1graph_1_1_vertex.html#adcb4510b9e479d5c37f9ccc12f9f5c5f" target="_top" xlink:title=" ">
<polygon fill="white" stroke="black" points="205,-49.5 205,-79.5 333,-79.5 333,-49.5 205,-49.5"/>
<text text-anchor="start" x="213" y="-67.5" font-family="Helvetica,sans-Serif" font-size="10.00">denoptim.graph.Vertex.set</text>
<text text-anchor="middle" x="269" y="-56.5" font-family="Helvetica,sans-Serif" font-size="10.00">VertexId</text>
</a>
</g>
</g>
<!-- Node1&#45;&gt;Node39 -->
<g id="edge45" class="edge">
<title>Node1&#45;&gt;Node39</title>
<path fill="none" stroke="midnightblue" d="M76.3,-446.91C75.85,-400.24 80.2,-194.91 187,-88.5 189.7,-85.81 192.7,-83.41 195.89,-81.28"/>
<polygon fill="midnightblue" stroke="midnightblue" points="197.79,-84.23 204.75,-76.25 194.33,-78.14 197.79,-84.23"/>
</g>
<!-- Node40 -->
<g id="node40" class="node">
<title>Node40</title>
<g id="a_node40"><a xlink:href="classdenoptim_1_1graph_1_1_template.html#aad385a42d6afcdac25d87f9519644a00" target="_top" xlink:title=" ">
<polygon fill="white" stroke="black" points="205,-0.5 205,-30.5 333,-30.5 333,-0.5 205,-0.5"/>
<text text-anchor="start" x="213" y="-18.5" font-family="Helvetica,sans-Serif" font-size="10.00">denoptim.graph.Template.</text>
<text text-anchor="middle" x="269" y="-7.5" font-family="Helvetica,sans-Serif" font-size="10.00">Template</text>
</a>
</g>
</g>
<!-- Node1&#45;&gt;Node40 -->
<g id="edge46" class="edge">
<title>Node1&#45;&gt;Node40</title>
<path fill="none" stroke="midnightblue" d="M77.78,-446.75C85.44,-389.9 126.86,-101.41 187,-39.5 189.79,-36.62 192.92,-34.09 196.26,-31.85"/>
<polygon fill="midnightblue" stroke="midnightblue" points="198.02,-34.88 204.99,-26.89 194.57,-28.79 198.02,-34.88"/>
</g>
<!-- Node3 -->
<g id="node3" class="node">
<title>Node3</title>
<g id="a_node3"><a xlink:href="classdenoptim_1_1graph_1_1_template.html#a82c53a76c42c31848f394c3f7aab21b9" target="_top" xlink:title="Removes the molecular representation.">
<polygon fill="white" stroke="black" points="394.5,-825.5 394.5,-855.5 543.5,-855.5 543.5,-825.5 394.5,-825.5"/>
<text text-anchor="start" x="402.5" y="-843.5" font-family="Helvetica,sans-Serif" font-size="10.00">denoptim.graph.Template.clear</text>
<text text-anchor="middle" x="469" y="-832.5" font-family="Helvetica,sans-Serif" font-size="10.00">IAtomContainer</text>
</a>
</g>
</g>
<!-- Node2&#45;&gt;Node3 -->
<g id="edge2" class="edge">
<title>Node2&#45;&gt;Node3</title>
<path fill="none" stroke="midnightblue" d="M340.64,-839.21C354.67,-839.36 369.54,-839.51 383.96,-839.65"/>
<polygon fill="midnightblue" stroke="midnightblue" points="384.34,-843.16 394.37,-839.76 384.41,-836.16 384.34,-843.16"/>
</g>
<!-- Node2&#45;&gt;Node4 -->
<g id="edge3" class="edge">
<title>Node2&#45;&gt;Node4</title>
<path fill="none" stroke="midnightblue" d="M333.19,-823.5C352.84,-818.84 374.66,-813.66 394.92,-808.85"/>
<polygon fill="midnightblue" stroke="midnightblue" points="395.81,-812.23 404.73,-806.52 394.19,-805.42 395.81,-812.23"/>
</g>
<!-- Node14 -->
<g id="node14" class="node">
<title>Node14</title>
<g id="a_node14"><a xlink:href="classdenoptim_1_1utils_1_1_molecule_utils.html#a68a0db70d2e6d3252269574918177014" target="_top" xlink:title="Method that constructs an atom that reflect the same atom given as parameter in terms of element symb...">
<polygon fill="white" stroke="black" points="387,-343.5 387,-373.5 551,-373.5 551,-343.5 387,-343.5"/>
<text text-anchor="start" x="395" y="-361.5" font-family="Helvetica,sans-Serif" font-size="10.00">denoptim.utils.MoleculeUtils.make</text>
<text text-anchor="middle" x="469" y="-350.5" font-family="Helvetica,sans-Serif" font-size="10.00">SameAtomAs</text>
</a>
</g>
</g>
<!-- Node13&#45;&gt;Node14 -->
<g id="edge15" class="edge">
<title>Node13&#45;&gt;Node14</title>
<path fill="none" stroke="midnightblue" d="M351.11,-358.5C359.46,-358.5 367.99,-358.5 376.44,-358.5"/>
<polygon fill="midnightblue" stroke="midnightblue" points="376.7,-362 386.7,-358.5 376.7,-355 376.7,-362"/>
</g>
<!-- Node14&#45;&gt;Node14 -->
<g id="edge16" class="edge">
<title>Node14&#45;&gt;Node14</title>
<path fill="none" stroke="midnightblue" d="M435.19,-373.66C427.04,-383.06 438.31,-392 469,-392 487.7,-392 499.19,-388.68 503.47,-383.96"/>
<polygon fill="midnightblue" stroke="midnightblue" points="506.94,-383.41 502.81,-373.66 499.96,-383.86 506.94,-383.41"/>
</g>
<!-- Node18&#45;&gt;Node3 -->
<g id="edge35" class="edge">
<title>Node18&#45;&gt;Node3</title>
<path fill="none" stroke="midnightblue" d="M303.45,-899.47C326.66,-889.29 358.43,-875.86 387,-865.5 393.32,-863.21 399.97,-860.94 406.62,-858.75"/>
<polygon fill="midnightblue" stroke="midnightblue" points="407.88,-862.02 416.33,-855.62 405.74,-855.36 407.88,-862.02"/>
</g>
<!-- Node19 -->
<g id="node19" class="node">
<title>Node19</title>
<g id="a_node19"><a xlink:href="classdenoptim_1_1graph_1_1_template.html#a687f8680d7c74dacadeb80c85ced2be5" target="_top" xlink:title="Adds the projection of an AP in the template&#39;s inner graph (i.e., innerAP) to the list of APs visible...">
<polygon fill="white" stroke="black" points="397.5,-1065.5 397.5,-1095.5 540.5,-1095.5 540.5,-1065.5 397.5,-1065.5"/>
<text text-anchor="start" x="405.5" y="-1083.5" font-family="Helvetica,sans-Serif" font-size="10.00">denoptim.graph.Template.add</text>
<text text-anchor="middle" x="469" y="-1072.5" font-family="Helvetica,sans-Serif" font-size="10.00">InnerToOuterAPMapping</text>
</a>
</g>
</g>
<!-- Node18&#45;&gt;Node19 -->
<g id="edge21" class="edge">
<title>Node18&#45;&gt;Node19</title>
<path fill="none" stroke="midnightblue" d="M287.92,-929.52C323.1,-959.02 401.31,-1024.59 442.1,-1058.79"/>
<polygon fill="midnightblue" stroke="midnightblue" points="440.07,-1061.65 449.98,-1065.39 444.56,-1056.28 440.07,-1061.65"/>
</g>
<!-- Node31 -->
<g id="node31" class="node">
<title>Node31</title>
<g id="a_node31"><a xlink:href="classdenoptim_1_1graph_1_1_d_graph.html#a309d3784aeae9aedce785314e753bdc5" target="_top" xlink:title="Returns the list of available attachment points contained in this graph.">
<polygon fill="white" stroke="black" points="596,-967.5 596,-997.5 730,-997.5 730,-967.5 596,-967.5"/>
<text text-anchor="start" x="604" y="-985.5" font-family="Helvetica,sans-Serif" font-size="10.00">denoptim.graph.DGraph.get</text>
<text text-anchor="middle" x="663" y="-974.5" font-family="Helvetica,sans-Serif" font-size="10.00">AvailableAPs</text>
</a>
</g>
</g>
<!-- Node18&#45;&gt;Node31 -->
<g id="edge36" class="edge">
<title>Node18&#45;&gt;Node31</title>
<path fill="none" stroke="midnightblue" d="M298.44,-929.52C321.6,-940.98 355.5,-956.03 387,-963.5 452.87,-979.12 529.9,-983.28 585.65,-983.87"/>
<polygon fill="midnightblue" stroke="midnightblue" points="585.78,-987.37 595.81,-983.94 585.83,-980.37 585.78,-987.37"/>
</g>
<!-- Node33 -->
<g id="node33" class="node">
<title>Node33</title>
<g id="a_node33"><a xlink:href="classdenoptim_1_1graph_1_1_template.html#a1b1c82228b19609959356d3aa1f2a53b" target="_top" xlink:title=" ">
<polygon fill="white" stroke="black" points="401.5,-923.5 401.5,-953.5 536.5,-953.5 536.5,-923.5 401.5,-923.5"/>
<text text-anchor="start" x="409.5" y="-941.5" font-family="Helvetica,sans-Serif" font-size="10.00">denoptim.graph.Template.is</text>
<text text-anchor="middle" x="469" y="-930.5" font-family="Helvetica,sans-Serif" font-size="10.00">ValidInnerGraph</text>
</a>
</g>
</g>
<!-- Node18&#45;&gt;Node33 -->
<g id="edge38" class="edge">
<title>Node18&#45;&gt;Node33</title>
<path fill="none" stroke="midnightblue" d="M339.53,-922.93C356.14,-924.94 373.97,-927.1 390.9,-929.15"/>
<polygon fill="midnightblue" stroke="midnightblue" points="390.95,-932.69 401.3,-930.42 391.79,-925.74 390.95,-932.69"/>
</g>
<!-- Node36 -->
<g id="node36" class="node">
<title>Node36</title>
<g id="a_node36"><a xlink:href="classdenoptim_1_1graph_1_1_d_graph.html#a04463f5a015f34500e6c516d4ef0eabb" target="_top" xlink:title="Sets the reference to a template that embeds this graph, i.e., this graph&#39;s &quot;jacket&quot; template.">
<polygon fill="white" stroke="black" points="402,-874.5 402,-904.5 536,-904.5 536,-874.5 402,-874.5"/>
<text text-anchor="start" x="410" y="-892.5" font-family="Helvetica,sans-Serif" font-size="10.00">denoptim.graph.DGraph.set</text>
<text text-anchor="middle" x="469" y="-881.5" font-family="Helvetica,sans-Serif" font-size="10.00">TemplateJacket</text>
</a>
</g>
</g>
<!-- Node18&#45;&gt;Node36 -->
<g id="edge42" class="edge">
<title>Node18&#45;&gt;Node36</title>
<path fill="none" stroke="midnightblue" d="M339.53,-905.72C356.48,-903.58 374.7,-901.28 391.94,-899.1"/>
<polygon fill="midnightblue" stroke="midnightblue" points="392.48,-902.56 401.96,-897.84 391.6,-895.62 392.48,-902.56"/>
</g>
<!-- Node19&#45;&gt;Node19 -->
<g id="edge22" class="edge">
<title>Node19&#45;&gt;Node19</title>
<path fill="none" stroke="midnightblue" d="M435.19,-1095.66C427.04,-1105.06 438.31,-1114 469,-1114 487.7,-1114 499.19,-1110.68 503.47,-1105.96"/>
<polygon fill="midnightblue" stroke="midnightblue" points="506.94,-1105.41 502.81,-1095.66 499.96,-1105.86 506.94,-1105.41"/>
</g>
<!-- Node20 -->
<g id="node20" class="node">
<title>Node20</title>
<g id="a_node20"><a xlink:href="classdenoptim_1_1graph_1_1_attachment_point.html#a8dc9e31a8d2fb5ef6a9705cbf2ec22c9" target="_top" xlink:title="Returns a deep clone of this attachment point.">
<polygon fill="white" stroke="black" points="595.5,-1114.5 595.5,-1144.5 730.5,-1144.5 730.5,-1114.5 595.5,-1114.5"/>
<text text-anchor="start" x="603.5" y="-1132.5" font-family="Helvetica,sans-Serif" font-size="10.00">denoptim.graph.Attachment</text>
<text text-anchor="middle" x="663" y="-1121.5" font-family="Helvetica,sans-Serif" font-size="10.00">Point.clone</text>
</a>
</g>
</g>
<!-- Node19&#45;&gt;Node20 -->
<g id="edge23" class="edge">
<title>Node19&#45;&gt;Node20</title>
<path fill="none" stroke="midnightblue" d="M528.91,-1095.53C549.28,-1100.73 572.27,-1106.6 593.35,-1111.98"/>
<polygon fill="midnightblue" stroke="midnightblue" points="592.65,-1115.41 603.2,-1114.49 594.38,-1108.63 592.65,-1115.41"/>
</g>
<!-- Node25 -->
<g id="node25" class="node">
<title>Node25</title>
<g id="a_node25"><a xlink:href="classdenoptim_1_1graph_1_1_vertex.html#a6615f1c869173b8bd6d730c6683b9de4" target="_top" xlink:title="Returns the graph this vertex belongs to or null.">
<polygon fill="white" stroke="black" points="599,-1065.5 599,-1095.5 727,-1095.5 727,-1065.5 599,-1065.5"/>
<text text-anchor="start" x="607" y="-1083.5" font-family="Helvetica,sans-Serif" font-size="10.00">denoptim.graph.Vertex.get</text>
<text text-anchor="middle" x="663" y="-1072.5" font-family="Helvetica,sans-Serif" font-size="10.00">GraphOwner</text>
</a>
</g>
</g>
<!-- Node19&#45;&gt;Node25 -->
<g id="edge28" class="edge">
<title>Node19&#45;&gt;Node25</title>
<path fill="none" stroke="midnightblue" d="M540.68,-1080.5C556.29,-1080.5 572.86,-1080.5 588.58,-1080.5"/>
<polygon fill="midnightblue" stroke="midnightblue" points="588.77,-1084 598.77,-1080.5 588.77,-1077 588.77,-1084"/>
</g>
<!-- Node26 -->
<g id="node26" class="node">
<title>Node26</title>
<g id="a_node26"><a xlink:href="classdenoptim_1_1graph_1_1_a_p_tree_map.html#a9e1e1c1dd87ebfb469b6c705c00038b6" target="_top" xlink:title="Associates the specified value with the specified key in this map.">
<polygon fill="white" stroke="black" points="587,-1240 587,-1259 739,-1259 739,-1240 587,-1240"/>
<text text-anchor="middle" x="663" y="-1247" font-family="Helvetica,sans-Serif" font-size="10.00">denoptim.graph.APTreeMap.put</text>
</a>
</g>
</g>
<!-- Node19&#45;&gt;Node26 -->
<g id="edge29" class="edge">
<title>Node19&#45;&gt;Node26</title>
<path fill="none" stroke="midnightblue" d="M487.38,-1095.8C523.42,-1127.52 606.05,-1200.25 643.25,-1232.99"/>
<polygon fill="midnightblue" stroke="midnightblue" points="641.05,-1235.72 650.87,-1239.7 645.67,-1230.47 641.05,-1235.72"/>
</g>
<!-- Node30 -->
<g id="node30" class="node">
<title>Node30</title>
<g id="a_node30"><a xlink:href="classdenoptim_1_1graph_1_1_attachment_point.html#a76bfbe6cc3918c114c73974b2fe4e59d" target="_top" xlink:title="Sets the reference to the vertex that owns this attachment point.">
<polygon fill="white" stroke="black" points="595.5,-1016.5 595.5,-1046.5 730.5,-1046.5 730.5,-1016.5 595.5,-1016.5"/>
<text text-anchor="start" x="603.5" y="-1034.5" font-family="Helvetica,sans-Serif" font-size="10.00">denoptim.graph.Attachment</text>
<text text-anchor="middle" x="663" y="-1023.5" font-family="Helvetica,sans-Serif" font-size="10.00">Point.setOwner</text>
</a>
</g>
</g>
<!-- Node19&#45;&gt;Node30 -->
<g id="edge34" class="edge">
<title>Node19&#45;&gt;Node30</title>
<path fill="none" stroke="midnightblue" d="M528.91,-1065.47C549.28,-1060.27 572.27,-1054.4 593.35,-1049.02"/>
<polygon fill="midnightblue" stroke="midnightblue" points="594.38,-1052.37 603.2,-1046.51 592.65,-1045.59 594.38,-1052.37"/>
</g>
<!-- Node21 -->
<g id="node21" class="node">
<title>Node21</title>
<g id="a_node21"><a xlink:href="classdenoptim_1_1graph_1_1_attachment_point.html#a087f6102f1c542587ec2ec3c2240041f" target="_top" xlink:title="Constructor for undefined DENOPTIMAttachmentPoint.">
<polygon fill="white" stroke="black" points="782,-1136.5 782,-1166.5 917,-1166.5 917,-1136.5 782,-1136.5"/>
<text text-anchor="start" x="790" y="-1154.5" font-family="Helvetica,sans-Serif" font-size="10.00">denoptim.graph.Attachment</text>
<text text-anchor="middle" x="849.5" y="-1143.5" font-family="Helvetica,sans-Serif" font-size="10.00">Point.AttachmentPoint</text>
</a>
</g>
</g>
<!-- Node20&#45;&gt;Node21 -->
<g id="edge24" class="edge">
<title>Node20&#45;&gt;Node21</title>
<path fill="none" stroke="midnightblue" d="M730.61,-1137.44C743.93,-1139.03 758.03,-1140.71 771.67,-1142.34"/>
<polygon fill="midnightblue" stroke="midnightblue" points="771.64,-1145.86 781.99,-1143.57 772.47,-1138.91 771.64,-1145.86"/>
</g>
<!-- Node23 -->
<g id="node23" class="node">
<title>Node23</title>
<g id="a_node23"><a xlink:href="classdenoptim_1_1graph_1_1_a_p_class.html#a1781af804ce3ff7b7ed2d681fd1eeae3" target="_top" xlink:title="WARNING: this method does NOT clone! It just returns the reference to this.">
<polygon fill="white" stroke="black" points="775,-1098 775,-1117 924,-1117 924,-1098 775,-1098"/>
<text text-anchor="middle" x="849.5" y="-1105" font-family="Helvetica,sans-Serif" font-size="10.00">denoptim.graph.APClass.clone</text>
</a>
</g>
</g>
<!-- Node20&#45;&gt;Node23 -->
<g id="edge26" class="edge">
<title>Node20&#45;&gt;Node23</title>
<path fill="none" stroke="midnightblue" d="M730.61,-1121.56C741.71,-1120.23 753.34,-1118.85 764.8,-1117.48"/>
<polygon fill="midnightblue" stroke="midnightblue" points="765.29,-1120.95 774.8,-1116.29 764.46,-1114 765.29,-1120.95"/>
</g>
<!-- Node24 -->
<g id="node24" class="node">
<title>Node24</title>
<g id="a_node24"><a xlink:href="classdenoptim_1_1graph_1_1_attachment_point.html#ac8551521d38644f5109800b665957ee9" target="_top" xlink:title=" ">
<polygon fill="white" stroke="black" points="782,-1048.5 782,-1078.5 917,-1078.5 917,-1048.5 782,-1048.5"/>
<text text-anchor="start" x="790" y="-1066.5" font-family="Helvetica,sans-Serif" font-size="10.00">denoptim.graph.Attachment</text>
<text text-anchor="middle" x="849.5" y="-1055.5" font-family="Helvetica,sans-Serif" font-size="10.00">Point.getOwner</text>
</a>
</g>
</g>
<!-- Node20&#45;&gt;Node24 -->
<g id="edge27" class="edge">
<title>Node20&#45;&gt;Node24</title>
<path fill="none" stroke="midnightblue" d="M714.35,-1114.4C722.65,-1111.62 731.11,-1108.61 739,-1105.5 755.46,-1099.01 758.6,-1095.14 775,-1088.5 780.44,-1086.3 786.16,-1084.12 791.9,-1082.02"/>
<polygon fill="midnightblue" stroke="midnightblue" points="793.31,-1085.24 801.55,-1078.58 790.95,-1078.65 793.31,-1085.24"/>
</g>
<!-- Node22 -->
<g id="node22" class="node">
<title>Node22</title>
<g id="a_node22"><a xlink:href="classdenoptim_1_1utils_1_1_graph_utils.html#aacbefbc93a3463aa963c9923749deea1" target="_top" xlink:title="Unique counter for the number of molecules generated.">
<polygon fill="white" stroke="black" points="960,-1231.5 960,-1261.5 1101,-1261.5 1101,-1231.5 960,-1231.5"/>
<text text-anchor="start" x="968" y="-1249.5" font-family="Helvetica,sans-Serif" font-size="10.00">denoptim.utils.GraphUtils.get</text>
<text text-anchor="middle" x="1030.5" y="-1238.5" font-family="Helvetica,sans-Serif" font-size="10.00">UniqueAPIndex</text>
</a>
</g>
</g>
<!-- Node21&#45;&gt;Node22 -->
<g id="edge25" class="edge">
<title>Node21&#45;&gt;Node22</title>
<path fill="none" stroke="midnightblue" d="M900.63,-1166.61C908.59,-1169.56 916.62,-1172.87 924,-1176.5 951.96,-1190.24 981.3,-1210.23 1001.93,-1225.33"/>
<polygon fill="midnightblue" stroke="midnightblue" points="1000.08,-1228.32 1010.2,-1231.47 1004.26,-1222.7 1000.08,-1228.32"/>
</g>
<!-- Node26&#45;&gt;Node22 -->
<g id="edge31" class="edge">
<title>Node26&#45;&gt;Node22</title>
<path fill="none" stroke="midnightblue" d="M673.93,-1259.18C692.14,-1276.16 732.88,-1310.75 775,-1323.5 838.38,-1342.69 861.04,-1344.03 924,-1323.5 956.92,-1312.76 988.11,-1287.43 1007.92,-1268.74"/>
<polygon fill="midnightblue" stroke="midnightblue" points="1010.44,-1271.17 1015.18,-1261.7 1005.57,-1266.15 1010.44,-1271.17"/>
</g>
<!-- Node27 -->
<g id="node27" class="node">
<title>Node27</title>
<g id="a_node27"><a xlink:href="classdenoptim_1_1graph_1_1_attachment_point.html#a72dd6bd75a701cabb65832778da6e574" target="_top" xlink:title="Returns a unique integer that is used to sort list of attachment points.">
<polygon fill="white" stroke="black" points="782,-1283.5 782,-1313.5 917,-1313.5 917,-1283.5 782,-1283.5"/>
<text text-anchor="start" x="790" y="-1301.5" font-family="Helvetica,sans-Serif" font-size="10.00">denoptim.graph.Attachment</text>
<text text-anchor="middle" x="849.5" y="-1290.5" font-family="Helvetica,sans-Serif" font-size="10.00">Point.getID</text>
</a>
</g>
</g>
<!-- Node26&#45;&gt;Node27 -->
<g id="edge30" class="edge">
<title>Node26&#45;&gt;Node27</title>
<path fill="none" stroke="midnightblue" d="M700.01,-1259.06C723.27,-1265.24 754.24,-1273.46 781.87,-1280.8"/>
<polygon fill="midnightblue" stroke="midnightblue" points="781.32,-1284.28 791.88,-1283.46 783.11,-1277.51 781.32,-1284.28"/>
</g>
<!-- Node28 -->
<g id="node28" class="node">
<title>Node28</title>
<g id="a_node28"><a xlink:href="classdenoptim_1_1utils_1_1_graph_utils.html#ac53e72bfeb5251069c07ebc22994022a" target="_top" xlink:title="Reset the unique attachment point counter to the given value.">
<polygon fill="white" stroke="black" points="775,-1234.5 775,-1264.5 924,-1264.5 924,-1234.5 775,-1234.5"/>
<text text-anchor="start" x="783" y="-1252.5" font-family="Helvetica,sans-Serif" font-size="10.00">denoptim.utils.GraphUtils.reset</text>
<text text-anchor="middle" x="849.5" y="-1241.5" font-family="Helvetica,sans-Serif" font-size="10.00">UniqueAPCounter</text>
</a>
</g>
</g>
<!-- Node26&#45;&gt;Node28 -->
<g id="edge32" class="edge">
<title>Node26&#45;&gt;Node28</title>
<path fill="none" stroke="midnightblue" d="M739.04,-1249.5C747.41,-1249.5 755.98,-1249.5 764.45,-1249.5"/>
<polygon fill="midnightblue" stroke="midnightblue" points="764.72,-1253 774.72,-1249.5 764.72,-1246 764.72,-1253"/>
</g>
<!-- Node29 -->
<g id="node29" class="node">
<title>Node29</title>
<g id="a_node29"><a xlink:href="classdenoptim_1_1graph_1_1_attachment_point.html#a929c8f781b4c999a5228f322a3bd901e" target="_top" xlink:title="Sets the unique integer that is used to sort list of attachment points.">
<polygon fill="white" stroke="black" points="782,-1185.5 782,-1215.5 917,-1215.5 917,-1185.5 782,-1185.5"/>
<text text-anchor="start" x="790" y="-1203.5" font-family="Helvetica,sans-Serif" font-size="10.00">denoptim.graph.Attachment</text>
<text text-anchor="middle" x="849.5" y="-1192.5" font-family="Helvetica,sans-Serif" font-size="10.00">Point.setID</text>
</a>
</g>
</g>
<!-- Node26&#45;&gt;Node29 -->
<g id="edge33" class="edge">
<title>Node26&#45;&gt;Node29</title>
<path fill="none" stroke="midnightblue" d="M700.01,-1239.94C723.27,-1233.76 754.24,-1225.54 781.87,-1218.2"/>
<polygon fill="midnightblue" stroke="midnightblue" points="783.11,-1221.49 791.88,-1215.54 781.32,-1214.72 783.11,-1221.49"/>
</g>
<!-- Node32 -->
<g id="node32" class="node">
<title>Node32</title>
<g id="a_node32"><a xlink:href="classdenoptim_1_1graph_1_1_d_graph.html#a27e25f8f8e1516d81cc281e2795a9428" target="_top" xlink:title="Returns the list of all attachment points contained in this graph.">
<polygon fill="white" stroke="black" points="782.5,-967.5 782.5,-997.5 916.5,-997.5 916.5,-967.5 782.5,-967.5"/>
<text text-anchor="start" x="790.5" y="-985.5" font-family="Helvetica,sans-Serif" font-size="10.00">denoptim.graph.DGraph.get</text>
<text text-anchor="middle" x="849.5" y="-974.5" font-family="Helvetica,sans-Serif" font-size="10.00">AttachmentPoints</text>
</a>
</g>
</g>
<!-- Node31&#45;&gt;Node32 -->
<g id="edge37" class="edge">
<title>Node31&#45;&gt;Node32</title>
<path fill="none" stroke="midnightblue" d="M730.09,-982.5C743.73,-982.5 758.21,-982.5 772.19,-982.5"/>
<polygon fill="midnightblue" stroke="midnightblue" points="772.25,-986 782.25,-982.5 772.25,-979 772.25,-986"/>
</g>
<!-- Node33&#45;&gt;Node31 -->
<g id="edge40" class="edge">
<title>Node33&#45;&gt;Node31</title>
<path fill="none" stroke="midnightblue" d="M535.54,-953.52C551.98,-957.29 569.74,-961.36 586.62,-965.22"/>
<polygon fill="midnightblue" stroke="midnightblue" points="585.9,-968.65 596.43,-967.47 587.47,-961.83 585.9,-968.65"/>
</g>
<!-- Node34 -->
<g id="node34" class="node">
<title>Node34</title>
<g id="a_node34"><a xlink:href="classdenoptim_1_1graph_1_1_attachment_point.html#a31bed4cb29f6437bf8a888a1dda3fd95" target="_top" xlink:title="Returns the Attachment Point class.">
<polygon fill="white" stroke="black" points="595.5,-918.5 595.5,-948.5 730.5,-948.5 730.5,-918.5 595.5,-918.5"/>
<text text-anchor="start" x="603.5" y="-936.5" font-family="Helvetica,sans-Serif" font-size="10.00">denoptim.graph.Attachment</text>
<text text-anchor="middle" x="663" y="-925.5" font-family="Helvetica,sans-Serif" font-size="10.00">Point.getAPClass</text>
</a>
</g>
</g>
<!-- Node33&#45;&gt;Node34 -->
<g id="edge39" class="edge">
<title>Node33&#45;&gt;Node34</title>
<path fill="none" stroke="midnightblue" d="M536.61,-936.77C552.16,-936.36 568.85,-935.93 584.81,-935.51"/>
<polygon fill="midnightblue" stroke="midnightblue" points="585.27,-939 595.18,-935.24 585.09,-932 585.27,-939"/>
</g>
<!-- Node35 -->
<g id="node35" class="node">
<title>Node35</title>
<g id="a_node35"><a xlink:href="classdenoptim_1_1graph_1_1_template.html#af47237c84381d97803d99a7ee16ddc63" target="_top" xlink:title=" ">
<polygon fill="white" stroke="black" points="592.5,-869.5 592.5,-899.5 733.5,-899.5 733.5,-869.5 592.5,-869.5"/>
<text text-anchor="start" x="600.5" y="-887.5" font-family="Helvetica,sans-Serif" font-size="10.00">denoptim.graph.Template.get</text>
<text text-anchor="middle" x="663" y="-876.5" font-family="Helvetica,sans-Serif" font-size="10.00">RequiredAPs</text>
</a>
</g>
</g>
<!-- Node33&#45;&gt;Node35 -->
<g id="edge41" class="edge">
<title>Node33&#45;&gt;Node35</title>
<path fill="none" stroke="midnightblue" d="M523.48,-923.46C546.79,-916.9 574.29,-909.17 598.62,-902.33"/>
<polygon fill="midnightblue" stroke="midnightblue" points="599.79,-905.63 608.47,-899.55 597.9,-898.89 599.79,-905.63"/>
</g>
<!-- Node41 -->
<g id="node41" class="node">
<title>Node41</title>
<g id="a_node41"><a xlink:href="classdenoptim_1_1graph_1_1_vertex.html#ab8088bc1c894c7c916ca8d8a151fa905" target="_top" xlink:title=" ">
<polygon fill="white" stroke="black" points="405,-0.5 405,-30.5 533,-30.5 533,-0.5 405,-0.5"/>
<text text-anchor="start" x="413" y="-18.5" font-family="Helvetica,sans-Serif" font-size="10.00">denoptim.graph.Vertex.set</text>
<text text-anchor="middle" x="469" y="-7.5" font-family="Helvetica,sans-Serif" font-size="10.00">BuildingBlockType</text>
</a>
</g>
</g>
<!-- Node40&#45;&gt;Node41 -->
<g id="edge47" class="edge">
<title>Node40&#45;&gt;Node41</title>
<path fill="none" stroke="midnightblue" d="M333.19,-15.5C352.75,-15.5 374.46,-15.5 394.65,-15.5"/>
<polygon fill="midnightblue" stroke="midnightblue" points="394.73,-19 404.73,-15.5 394.73,-12 394.73,-19"/>
</g>
</g>
</svg>
        <g id="navigator" transform="translate(0 0)" fill="#404254">
                <rect fill="#f2f5e9" fill-opacity="0.5" stroke="#606060" stroke-width=".5" x="0" y="0" width="60" height="60"/>
                <use id="zoomplus" xlink:href="#zoomPlus" x="17" y="9" onmousedown="handleZoom(evt,'in')"/>
                <use id="zoomminus" xlink:href="#zoomMin" x="42" y="9" onmousedown="handleZoom(evt,'out')"/>
                <use id="reset" xlink:href="#resetDef" x="30" y="36" onmousedown="handleReset()"/>
                <g id="arrowUp" xlink:href="#dirArrow" transform="translate(30 24)" onmousedown="handlePan(0,-1)">
                  <use xlink:href="#rim" fill="#404040">
                        <set attributeName="fill" to="#808080" begin="arrowUp.mouseover" end="arrowUp.mouseout"/>
                  </use>
                  <path fill="none" stroke="white" stroke-width="1.5" d="M0,-3.0v7 M-2.5,-0.5L0,-3.0L2.5,-0.5"/>
                </g>
                <g id="arrowRight" xlink:href="#dirArrow" transform="rotate(90) translate(36 -43)" onmousedown="handlePan(1,0)">
                  <use xlink:href="#rim" fill="#404040">
                        <set attributeName="fill" to="#808080" begin="arrowRight.mouseover" end="arrowRight.mouseout"/>
                  </use>
                  <path fill="none" stroke="white" stroke-width="1.5" d="M0,-3.0v7 M-2.5,-0.5L0,-3.0L2.5,-0.5"/>
                </g>
                <g id="arrowDown" xlink:href="#dirArrow" transform="rotate(180) translate(-30 -48)" onmousedown="handlePan(0,1)">
                  <use xlink:href="#rim" fill="#404040">
                        <set attributeName="fill" to="#808080" begin="arrowDown.mouseover" end="arrowDown.mouseout"/>
                  </use>
                  <path fill="none" stroke="white" stroke-width="1.5" d="M0,-3.0v7 M-2.5,-0.5L0,-3.0L2.5,-0.5"/>
                </g>
                <g id="arrowLeft" xlink:href="#dirArrow" transform="rotate(270) translate(-36 17)" onmousedown="handlePan(-1,0)">
                  <use xlink:href="#rim" fill="#404040">
                        <set attributeName="fill" to="#808080" begin="arrowLeft.mouseover" end="arrowLeft.mouseout"/>
                  </use>
                  <path fill="none" stroke="white" stroke-width="1.5" d="M0,-3.0v7 M-2.5,-0.5L0,-3.0L2.5,-0.5"/>
                </g>
        </g>
        <svg viewBox="0 0 15 15" width="100%" height="30px" preserveAspectRatio="xMaxYMin meet">
         <g id="arrow_out" transform="scale(0.3 0.3)">
          <a xlink:href="classdenoptim_1_1graph_1_1_template_ac7d7400f47d4bad33f3755f1b3d19a3e_cgraph_org.svg" target="_base">
           <rect id="button" ry="5" rx="5" y="6" x="6" height="38" width="38"
                fill="#f2f5e9" fill-opacity="0.5" stroke="#606060" stroke-width="1.0"/>
           <path id="arrow"
             d="M 11.500037,31.436501 C 11.940474,20.09759 22.043105,11.32322 32.158766,21.979434 L 37.068811,17.246167 C 37.068811,17.246167 37.088388,32 37.088388,32 L 22.160133,31.978069 C 22.160133,31.978069 26.997745,27.140456 26.997745,27.140456 C 18.528582,18.264221 13.291696,25.230495 11.500037,31.436501 z"
             style="fill:#404040;"/>
          </a>
         </g>
        </svg>
</svg>
