<?xml version="1.0" encoding="UTF-8" standalone="no"?>
<!DOCTYPE svg PUBLIC "-//W3C//DTD SVG 1.1//EN"
 "http://www.w3.org/Graphics/SVG/1.1/DTD/svg11.dtd">
<!-- Generated by graphviz version 3.0.0 (20220413.0242)
 -->
<!-- Title: denoptim.fragmenter.ClusterableFragment Pages: 1 -->
<svg width="1313pt" height="693pt"
 viewBox="0.00 0.00 1313.00 692.50" xmlns="http://www.w3.org/2000/svg" xmlns:xlink="http://www.w3.org/1999/xlink">
<g id="graph0" class="graph" transform="scale(1 1) rotate(0) translate(4 688.5)">
<title>denoptim.fragmenter.ClusterableFragment</title>
<polygon fill="white" stroke="transparent" points="-4,4 -4,-688.5 1309,-688.5 1309,4 -4,4"/>
<!-- Node1 -->
<g id="node1" class="node">
<title>Node1</title>
<g id="a_node1"><a xlink:title="Represents a fragment that can be clustered based on the 3*N coordinate of atoms and attachment point...">
<polygon fill="#bfbfbf" stroke="black" points="940,-549.5 940,-579.5 1096,-579.5 1096,-549.5 940,-549.5"/>
<text text-anchor="start" x="948" y="-567.5" font-family="Helvetica,sans-Serif" font-size="10.00">denoptim.fragmenter.Clusterable</text>
<text text-anchor="middle" x="1018" y="-556.5" font-family="Helvetica,sans-Serif" font-size="10.00">Fragment</text>
</a>
</g>
</g>
<!-- Node2 -->
<g id="node2" class="node">
<title>Node2</title>
<g id="a_node2"><a xlink:title=" ">
<polygon fill="white" stroke="black" points="712,-511 712,-530 777,-530 777,-511 712,-511"/>
<text text-anchor="middle" x="744.5" y="-518" font-family="Helvetica,sans-Serif" font-size="10.00">Clusterable</text>
</a>
</g>
</g>
<!-- Node2&#45;&gt;Node1 -->
<g id="edge1" class="edge">
<title>Node2&#45;&gt;Node1</title>
<path fill="none" stroke="midnightblue" d="M787.23,-527.26C827.73,-533.83 890.17,-543.95 939.75,-551.98"/>
<polygon fill="midnightblue" stroke="midnightblue" points="787.61,-523.78 777.18,-525.63 786.49,-530.69 787.61,-523.78"/>
</g>
<!-- Node3 -->
<g id="node3" class="node">
<title>Node3</title>
<g id="a_node3"><a xlink:href="classdenoptim_1_1graph_1_1_fragment.html" target="_top" xlink:title="Class representing a continuously connected portion of chemical object holding attachment points.">
<polygon fill="white" stroke="black" points="681.5,-599 681.5,-618 807.5,-618 807.5,-599 681.5,-599"/>
<text text-anchor="middle" x="744.5" y="-606" font-family="Helvetica,sans-Serif" font-size="10.00">denoptim.graph.Fragment</text>
</a>
</g>
</g>
<!-- Node3&#45;&gt;Node1 -->
<g id="edge2" class="edge">
<title>Node3&#45;&gt;Node1</title>
<path fill="none" stroke="#9a32cd" stroke-dasharray="5,2" d="M814.43,-597.33C852.69,-591.13 900.39,-583.4 939.89,-577"/>
<polygon fill="#9a32cd" stroke="#9a32cd" points="813.72,-593.9 804.41,-598.95 814.84,-600.81 813.72,-593.9"/>
<text text-anchor="middle" x="887" y="-592.5" font-family="Helvetica,sans-Serif" font-size="10.00"> frag</text>
</g>
<!-- Node4 -->
<g id="node4" class="node">
<title>Node4</title>
<g id="a_node4"><a xlink:href="classdenoptim_1_1graph_1_1_vertex.html" target="_top" xlink:title="A vertex is a data structure that has an identity and holds a list of AttachmentPoints.">
<polygon fill="white" stroke="black" points="354,-265 354,-284 467,-284 467,-265 354,-265"/>
<text text-anchor="middle" x="410.5" y="-272" font-family="Helvetica,sans-Serif" font-size="10.00">denoptim.graph.Vertex</text>
</a>
</g>
</g>
<!-- Node4&#45;&gt;Node3 -->
<g id="edge3" class="edge">
<title>Node4&#45;&gt;Node3</title>
<path fill="none" stroke="midnightblue" d="M443.77,-288.23C494.5,-311.67 591.74,-364.57 637,-442.5 670.06,-499.42 610.59,-540.92 655,-589.5 662,-597.16 671.27,-602.13 681.18,-605.29"/>
<polygon fill="midnightblue" stroke="midnightblue" points="445.13,-285 434.57,-284.06 442.24,-291.38 445.13,-285"/>
</g>
<!-- Node15 -->
<g id="node15" class="node">
<title>Node15</title>
<g id="a_node15"><a xlink:href="classdenoptim_1_1graph_1_1_template.html" target="_top" xlink:title=" ">
<polygon fill="white" stroke="black" points="682,-219 682,-238 807,-238 807,-219 682,-219"/>
<text text-anchor="middle" x="744.5" y="-226" font-family="Helvetica,sans-Serif" font-size="10.00">denoptim.graph.Template</text>
</a>
</g>
</g>
<!-- Node4&#45;&gt;Node15 -->
<g id="edge18" class="edge">
<title>Node4&#45;&gt;Node15</title>
<path fill="none" stroke="midnightblue" d="M477.1,-265.41C536.58,-257.17 623.6,-245.11 681.82,-237.05"/>
<polygon fill="midnightblue" stroke="midnightblue" points="476.49,-261.96 467.07,-266.8 477.46,-268.89 476.49,-261.96"/>
</g>
<!-- Node5 -->
<g id="node5" class="node">
<title>Node5</title>
<g id="a_node5"><a xlink:title=" ">
<polygon fill="white" stroke="black" points="52.5,-376 52.5,-395 111.5,-395 111.5,-376 52.5,-376"/>
<text text-anchor="middle" x="82" y="-383" font-family="Helvetica,sans-Serif" font-size="10.00">Cloneable</text>
</a>
</g>
</g>
<!-- Node5&#45;&gt;Node4 -->
<g id="edge4" class="edge">
<title>Node5&#45;&gt;Node4</title>
<path fill="none" stroke="midnightblue" d="M121.61,-380.63C164.12,-374.47 233.99,-362 291,-340.5 331.1,-325.38 374.08,-298.4 395.57,-284.07"/>
<polygon fill="midnightblue" stroke="midnightblue" points="121.1,-377.17 111.68,-382.02 122.07,-384.1 121.1,-377.17"/>
</g>
<!-- Node6 -->
<g id="node6" class="node">
<title>Node6</title>
<g id="a_node6"><a xlink:href="classdenoptim_1_1graph_1_1_d_graph.html" target="_top" xlink:title="Container for the list of vertices and the edges that connect them.">
<polygon fill="white" stroke="black" points="959,-265 959,-284 1077,-284 1077,-265 959,-265"/>
<text text-anchor="middle" x="1018" y="-272" font-family="Helvetica,sans-Serif" font-size="10.00">denoptim.graph.DGraph</text>
</a>
</g>
</g>
<!-- Node5&#45;&gt;Node6 -->
<g id="edge6" class="edge">
<title>Node5&#45;&gt;Node6</title>
<path fill="none" stroke="midnightblue" d="M121.71,-390.35C233.99,-403.18 568.59,-432.71 834,-366.5 901.97,-349.54 973.7,-304.2 1003.15,-284.21"/>
<polygon fill="midnightblue" stroke="midnightblue" points="121.89,-386.85 111.55,-389.16 121.08,-393.8 121.89,-386.85"/>
</g>
<!-- Node12 -->
<g id="node12" class="node">
<title>Node12</title>
<g id="a_node12"><a xlink:href="classdenoptim_1_1graph_1_1_candidate.html" target="_top" xlink:title="A candidate is the combination of a denoptim graph with molecular representation and may include also...">
<polygon fill="white" stroke="black" points="1177,-488 1177,-507 1305,-507 1305,-488 1177,-488"/>
<text text-anchor="middle" x="1241" y="-495" font-family="Helvetica,sans-Serif" font-size="10.00">denoptim.graph.Candidate</text>
</a>
</g>
</g>
<!-- Node5&#45;&gt;Node12 -->
<g id="edge14" class="edge">
<title>Node5&#45;&gt;Node12</title>
<path fill="none" stroke="midnightblue" d="M91.86,-404.3C124.2,-469.87 242.79,-684.5 409.5,-684.5 409.5,-684.5 409.5,-684.5 1019,-684.5 1130.08,-684.5 1214.07,-545.14 1234.97,-507.03"/>
<polygon fill="midnightblue" stroke="midnightblue" points="94.92,-402.59 87.41,-395.11 88.62,-405.64 94.92,-402.59"/>
</g>
<!-- Node6&#45;&gt;Node4 -->
<g id="edge5" class="edge">
<title>Node6&#45;&gt;Node4</title>
<path fill="none" stroke="#9a32cd" stroke-dasharray="5,2" d="M948.74,-274.5C827.84,-274.5 578.32,-274.5 467.11,-274.5"/>
<polygon fill="#9a32cd" stroke="#9a32cd" points="948.98,-278 958.98,-274.5 948.98,-271 948.98,-278"/>
<text text-anchor="middle" x="744.5" y="-277.5" font-family="Helvetica,sans-Serif" font-size="10.00"> owner</text>
</g>
<!-- Node6&#45;&gt;Node12 -->
<g id="edge15" class="edge">
<title>Node6&#45;&gt;Node12</title>
<path fill="none" stroke="#9a32cd" stroke-dasharray="5,2" d="M1030.08,-292.9C1046.44,-319.18 1078.9,-368.18 1114,-403.5 1149.4,-439.12 1199,-472.1 1224.11,-487.83"/>
<polygon fill="#9a32cd" stroke="#9a32cd" points="1033.03,-291.01 1024.81,-284.31 1027.06,-294.67 1033.03,-291.01"/>
<text text-anchor="middle" x="1136.5" y="-442.5" font-family="Helvetica,sans-Serif" font-size="10.00"> graph</text>
</g>
<!-- Node6&#45;&gt;Node15 -->
<g id="edge19" class="edge">
<title>Node6&#45;&gt;Node15</title>
<path fill="none" stroke="#9a32cd" stroke-dasharray="5,2" d="M995.16,-259.05C976.66,-246.98 948.93,-231.15 922,-224.5 884.66,-215.27 841.51,-216.05 807.22,-219.25"/>
<polygon fill="#9a32cd" stroke="#9a32cd" points="993.44,-262.12 1003.69,-264.79 997.35,-256.31 993.44,-262.12"/>
<text text-anchor="middle" x="887" y="-227.5" font-family="Helvetica,sans-Serif" font-size="10.00"> innerGraph</text>
</g>
<!-- Node7 -->
<g id="node7" class="node">
<title>Node7</title>
<g id="a_node7"><a xlink:title=" ">
<polygon fill="white" stroke="black" points="678.5,-98.5 678.5,-128.5 810.5,-128.5 810.5,-98.5 678.5,-98.5"/>
<text text-anchor="start" x="686.5" y="-116.5" font-family="Helvetica,sans-Serif" font-size="10.00">ArrayList&lt; denoptim.graph.</text>
<text text-anchor="middle" x="744.5" y="-105.5" font-family="Helvetica,sans-Serif" font-size="10.00">Vertex &gt;</text>
</a>
</g>
</g>
<!-- Node7&#45;&gt;Node6 -->
<g id="edge7" class="edge">
<title>Node7&#45;&gt;Node6</title>
<path fill="none" stroke="#9a32cd" stroke-dasharray="5,2" d="M820.72,-126.88C853.74,-135.2 891.78,-148.29 922,-168.5 962.67,-195.7 997.26,-244.23 1010.84,-264.83"/>
<polygon fill="#9a32cd" stroke="#9a32cd" points="821.19,-123.39 810.65,-124.45 819.55,-130.2 821.19,-123.39"/>
<text text-anchor="middle" x="887" y="-171.5" font-family="Helvetica,sans-Serif" font-size="10.00"> gVertices</text>
</g>
<!-- Node8 -->
<g id="node8" class="node">
<title>Node8</title>
<g id="a_node8"><a xlink:title=" ">
<polygon fill="white" stroke="black" points="678.5,-49.5 678.5,-79.5 810.5,-79.5 810.5,-49.5 678.5,-49.5"/>
<text text-anchor="start" x="686.5" y="-67.5" font-family="Helvetica,sans-Serif" font-size="10.00">ArrayList&lt; denoptim.graph.</text>
<text text-anchor="middle" x="744.5" y="-56.5" font-family="Helvetica,sans-Serif" font-size="10.00">Edge &gt;</text>
</a>
</g>
</g>
<!-- Node8&#45;&gt;Node6 -->
<g id="edge8" class="edge">
<title>Node8&#45;&gt;Node6</title>
<path fill="none" stroke="#9a32cd" stroke-dasharray="5,2" d="M820.57,-75.83C854.45,-83.99 893.22,-97.9 922,-121.5 972.28,-162.74 1003.57,-237.97 1013.54,-264.73"/>
<polygon fill="#9a32cd" stroke="#9a32cd" points="821.23,-72.39 810.7,-73.58 819.67,-79.21 821.23,-72.39"/>
<text text-anchor="middle" x="887" y="-124.5" font-family="Helvetica,sans-Serif" font-size="10.00"> gEdges</text>
</g>
<!-- Node9 -->
<g id="node9" class="node">
<title>Node9</title>
<g id="a_node9"><a xlink:title=" ">
<polygon fill="white" stroke="black" points="678.5,-0.5 678.5,-30.5 810.5,-30.5 810.5,-0.5 678.5,-0.5"/>
<text text-anchor="start" x="686.5" y="-18.5" font-family="Helvetica,sans-Serif" font-size="10.00">ArrayList&lt; denoptim.graph.</text>
<text text-anchor="middle" x="744.5" y="-7.5" font-family="Helvetica,sans-Serif" font-size="10.00">Ring &gt;</text>
</a>
</g>
</g>
<!-- Node9&#45;&gt;Node6 -->
<g id="edge9" class="edge">
<title>Node9&#45;&gt;Node6</title>
<path fill="none" stroke="#9a32cd" stroke-dasharray="5,2" d="M820.59,-24.66C855.03,-32.24 894.26,-46.12 922,-71.5 983.73,-127.97 1008.78,-232.77 1015.22,-264.89"/>
<polygon fill="#9a32cd" stroke="#9a32cd" points="821.05,-21.18 810.55,-22.59 819.64,-28.03 821.05,-21.18"/>
<text text-anchor="middle" x="887" y="-74.5" font-family="Helvetica,sans-Serif" font-size="10.00"> gRings</text>
</g>
<!-- Node10 -->
<g id="node10" class="node">
<title>Node10</title>
<g id="a_node10"><a xlink:title=" ">
<polygon fill="white" stroke="black" points="667,-461.5 667,-491.5 822,-491.5 822,-461.5 667,-461.5"/>
<text text-anchor="start" x="675" y="-479.5" font-family="Helvetica,sans-Serif" font-size="10.00">ArrayList&lt; denoptim.graph.rings.</text>
<text text-anchor="middle" x="744.5" y="-468.5" font-family="Helvetica,sans-Serif" font-size="10.00">ClosableChain &gt;</text>
</a>
</g>
</g>
<!-- Node10&#45;&gt;Node6 -->
<g id="edge10" class="edge">
<title>Node10&#45;&gt;Node6</title>
<path fill="none" stroke="#9a32cd" stroke-dasharray="5,2" d="M832.64,-476.27C863.19,-472.49 896.27,-463.82 922,-445.5 980.65,-403.74 1007.31,-313.87 1014.74,-284.22"/>
<polygon fill="#9a32cd" stroke="#9a32cd" points="831.95,-472.83 822.38,-477.38 832.7,-479.79 831.95,-472.83"/>
<text text-anchor="middle" x="887" y="-475.5" font-family="Helvetica,sans-Serif" font-size="10.00"> closableChains</text>
</g>
<!-- Node11 -->
<g id="node11" class="node">
<title>Node11</title>
<g id="a_node11"><a xlink:title=" ">
<polygon fill="white" stroke="black" points="344.5,-423.5 344.5,-453.5 476.5,-453.5 476.5,-423.5 344.5,-423.5"/>
<text text-anchor="start" x="352.5" y="-441.5" font-family="Helvetica,sans-Serif" font-size="10.00">ArrayList&lt; denoptim.graph.</text>
<text text-anchor="middle" x="410.5" y="-430.5" font-family="Helvetica,sans-Serif" font-size="10.00">SymmetricSet &gt;</text>
</a>
</g>
</g>
<!-- Node11&#45;&gt;Node3 -->
<g id="edge33" class="edge">
<title>Node11&#45;&gt;Node3</title>
<path fill="none" stroke="#9a32cd" stroke-dasharray="5,2" d="M486.7,-443C548.02,-447.41 626.22,-454.99 637,-465.5 676.87,-504.38 616.97,-548.82 655,-589.5 662.08,-597.08 671.4,-602.01 681.32,-605.16"/>
<polygon fill="#9a32cd" stroke="#9a32cd" points="486.85,-439.51 476.63,-442.3 486.36,-446.49 486.85,-439.51"/>
<text text-anchor="middle" x="583.5" y="-468.5" font-family="Helvetica,sans-Serif" font-size="10.00"> lstSymAPs</text>
</g>
<!-- Node11&#45;&gt;Node6 -->
<g id="edge11" class="edge">
<title>Node11&#45;&gt;Node6</title>
<path fill="none" stroke="#9a32cd" stroke-dasharray="5,2" d="M486.87,-440.19C610.28,-441.73 849.01,-439.24 922,-399.5 971.08,-372.78 1002.47,-308.7 1013.03,-284.22"/>
<polygon fill="#9a32cd" stroke="#9a32cd" points="486.79,-436.69 476.75,-440.05 486.7,-443.69 486.79,-436.69"/>
<text text-anchor="middle" x="744.5" y="-440.5" font-family="Helvetica,sans-Serif" font-size="10.00"> symVertices</text>
</g>
<!-- Node12&#45;&gt;Node6 -->
<g id="edge12" class="edge">
<title>Node12&#45;&gt;Node6</title>
<path fill="none" stroke="#9a32cd" stroke-dasharray="5,2" d="M1227.85,-479.43C1212.86,-457.74 1186.05,-420.74 1159,-392.5 1116.35,-347.96 1057.94,-303.16 1032.15,-284.07"/>
<polygon fill="#9a32cd" stroke="#9a32cd" points="1225.15,-481.69 1233.68,-487.98 1230.94,-477.75 1225.15,-481.69"/>
<text text-anchor="middle" x="1136.5" y="-395.5" font-family="Helvetica,sans-Serif" font-size="10.00"> candidate</text>
</g>
<!-- Node13 -->
<g id="node13" class="node">
<title>Node13</title>
<g id="a_node13"><a xlink:title=" ">
<polygon fill="white" stroke="black" points="954,-488 954,-507 1082,-507 1082,-488 954,-488"/>
<text text-anchor="middle" x="1018" y="-495" font-family="Helvetica,sans-Serif" font-size="10.00">Comparable&lt; Candidate &gt;</text>
</a>
</g>
</g>
<!-- Node13&#45;&gt;Node12 -->
<g id="edge13" class="edge">
<title>Node13&#45;&gt;Node12</title>
<path fill="none" stroke="midnightblue" d="M1092.34,-497.5C1119.7,-497.5 1150.51,-497.5 1176.88,-497.5"/>
<polygon fill="midnightblue" stroke="midnightblue" points="1092.03,-494 1082.03,-497.5 1092.03,-501 1092.03,-494"/>
</g>
<!-- Node14 -->
<g id="node14" class="node">
<title>Node14</title>
<g id="a_node14"><a xlink:title=" ">
<polygon fill="white" stroke="black" points="368.5,-611 368.5,-630 452.5,-630 452.5,-611 368.5,-611"/>
<text text-anchor="middle" x="410.5" y="-618" font-family="Helvetica,sans-Serif" font-size="10.00">IAtomContainer</text>
</a>
</g>
</g>
<!-- Node14&#45;&gt;Node3 -->
<g id="edge34" class="edge">
<title>Node14&#45;&gt;Node3</title>
<path fill="none" stroke="#9a32cd" stroke-dasharray="5,2" d="M462.72,-618.65C521.6,-616.52 618.22,-613.03 681.35,-610.75"/>
<polygon fill="#9a32cd" stroke="#9a32cd" points="462.41,-615.16 452.54,-619.02 462.66,-622.15 462.41,-615.16"/>
<text text-anchor="middle" x="583.5" y="-618.5" font-family="Helvetica,sans-Serif" font-size="10.00"> mol</text>
</g>
<!-- Node14&#45;&gt;Node12 -->
<g id="edge16" class="edge">
<title>Node14&#45;&gt;Node12</title>
<path fill="none" stroke="#9a32cd" stroke-dasharray="5,2" d="M462.63,-628.5C579.35,-644.6 872.52,-672.67 1096,-589.5 1150.22,-569.32 1205.39,-526.5 1228.6,-507.24"/>
<polygon fill="#9a32cd" stroke="#9a32cd" points="462.95,-625.01 452.56,-627.08 461.97,-631.94 462.95,-625.01"/>
<text text-anchor="middle" x="887" y="-642.5" font-family="Helvetica,sans-Serif" font-size="10.00"> iac</text>
</g>
<!-- Node14&#45;&gt;Node15 -->
<g id="edge20" class="edge">
<title>Node14&#45;&gt;Node15</title>
<path fill="none" stroke="#9a32cd" stroke-dasharray="5,2" d="M462.58,-609.42C527.34,-595.13 631.35,-571.31 637,-564.5 681.34,-511.05 611.23,-306.42 655,-252.5 661.92,-243.97 671.54,-238.3 681.9,-234.56"/>
<polygon fill="#9a32cd" stroke="#9a32cd" points="461.56,-606.06 452.54,-611.62 463.06,-612.89 461.56,-606.06"/>
<text text-anchor="middle" x="583.5" y="-595.5" font-family="Helvetica,sans-Serif" font-size="10.00"> mol</text>
</g>
<!-- Node15&#45;&gt;Node6 -->
<g id="edge17" class="edge">
<title>Node15&#45;&gt;Node6</title>
<path fill="none" stroke="#9a32cd" stroke-dasharray="5,2" d="M817.3,-234.76C849.48,-238.15 887.81,-243 922,-249.5 943.28,-253.55 966.82,-259.73 985.15,-264.94"/>
<polygon fill="#9a32cd" stroke="#9a32cd" points="817.39,-231.25 807.08,-233.71 816.67,-238.21 817.39,-231.25"/>
<text text-anchor="middle" x="887" y="-252.5" font-family="Helvetica,sans-Serif" font-size="10.00"> templateJacket</text>
</g>
<!-- Node16 -->
<g id="node16" class="node">
<title>Node16</title>
<g id="a_node16"><a xlink:href="enumdenoptim_1_1graph_1_1_template_1_1_contract_level.html" target="_top" xlink:title="Enum specifying to what extent the template&#39;s inner graph can be changed.">
<polygon fill="white" stroke="black" points="346.5,-209.5 346.5,-239.5 474.5,-239.5 474.5,-209.5 346.5,-209.5"/>
<text text-anchor="start" x="354.5" y="-227.5" font-family="Helvetica,sans-Serif" font-size="10.00">denoptim.graph.Template.</text>
<text text-anchor="middle" x="410.5" y="-216.5" font-family="Helvetica,sans-Serif" font-size="10.00">ContractLevel</text>
</a>
</g>
</g>
<!-- Node16&#45;&gt;Node15 -->
<g id="edge21" class="edge">
<title>Node16&#45;&gt;Node15</title>
<path fill="none" stroke="#9a32cd" stroke-dasharray="5,2" d="M484.75,-223.81C528.86,-223.56 586.16,-223.55 637,-224.5 651.52,-224.77 667.15,-225.25 681.84,-225.79"/>
<polygon fill="#9a32cd" stroke="#9a32cd" points="484.66,-220.31 474.69,-223.87 484.71,-227.31 484.66,-220.31"/>
<text text-anchor="middle" x="583.5" y="-227.5" font-family="Helvetica,sans-Serif" font-size="10.00"> contractLevel</text>
</g>
<!-- Node17 -->
<g id="node17" class="node">
<title>Node17</title>
<g id="a_node17"><a xlink:title=" ">
<polygon fill="white" stroke="black" points="330.5,-160.5 330.5,-190.5 490.5,-190.5 490.5,-160.5 330.5,-160.5"/>
<text text-anchor="start" x="338.5" y="-178.5" font-family="Helvetica,sans-Serif" font-size="10.00">List&lt; denoptim.graph.Attachment</text>
<text text-anchor="middle" x="410.5" y="-167.5" font-family="Helvetica,sans-Serif" font-size="10.00">Point &gt;</text>
</a>
</g>
</g>
<!-- Node17&#45;&gt;Node15 -->
<g id="edge22" class="edge">
<title>Node17&#45;&gt;Node15</title>
<path fill="none" stroke="#9a32cd" stroke-dasharray="5,2" d="M500.71,-188.39C542.19,-194.52 592.16,-202.12 637,-209.5 654.88,-212.44 674.42,-215.87 691.82,-218.99"/>
<polygon fill="#9a32cd" stroke="#9a32cd" points="501.04,-184.9 490.63,-186.9 500.02,-191.82 501.04,-184.9"/>
<text text-anchor="middle" x="583.5" y="-212.5" font-family="Helvetica,sans-Serif" font-size="10.00"> requiredAPs</text>
</g>
<!-- Node18 -->
<g id="node18" class="node">
<title>Node18</title>
<g id="a_node18"><a xlink:href="classdenoptim_1_1graph_1_1_a_p_tree_map.html" target="_top" xlink:title="Attachment point mapping where keys are sorted by natural ordering, i.e., by AttachmentPoint#compareT...">
<polygon fill="white" stroke="black" points="342,-122 342,-141 479,-141 479,-122 342,-122"/>
<text text-anchor="middle" x="410.5" y="-129" font-family="Helvetica,sans-Serif" font-size="10.00">denoptim.graph.APTreeMap</text>
</a>
</g>
</g>
<!-- Node18&#45;&gt;Node15 -->
<g id="edge23" class="edge">
<title>Node18&#45;&gt;Node15</title>
<path fill="none" stroke="#9a32cd" stroke-dasharray="5,2" d="M473.74,-142.93C486.42,-145.35 499.65,-147.95 512,-150.5 567.76,-162.01 590.84,-145.17 637,-178.5 649.61,-187.6 642.4,-199.39 655,-208.5 662.91,-214.22 672.18,-218.35 681.69,-221.31"/>
<polygon fill="#9a32cd" stroke="#9a32cd" points="474.2,-139.46 463.73,-141.03 472.9,-146.33 474.2,-139.46"/>
<text text-anchor="middle" x="583.5" y="-181.5" font-family="Helvetica,sans-Serif" font-size="10.00"> innerToOuterAPs</text>
</g>
<!-- Node19 -->
<g id="node19" class="node">
<title>Node19</title>
<g id="a_node19"><a xlink:title=" ">
<polygon fill="white" stroke="black" points="12.5,-116.5 12.5,-146.5 151.5,-146.5 151.5,-116.5 12.5,-116.5"/>
<text text-anchor="start" x="20.5" y="-134.5" font-family="Helvetica,sans-Serif" font-size="10.00">TreeMap&lt; AttachmentPoint,</text>
<text text-anchor="middle" x="82" y="-123.5" font-family="Helvetica,sans-Serif" font-size="10.00"> AttachmentPoint &gt;</text>
</a>
</g>
</g>
<!-- Node19&#45;&gt;Node18 -->
<g id="edge24" class="edge">
<title>Node19&#45;&gt;Node18</title>
<path fill="none" stroke="midnightblue" d="M161.9,-131.5C216.9,-131.5 289.52,-131.5 341.87,-131.5"/>
<polygon fill="midnightblue" stroke="midnightblue" points="161.84,-128 151.84,-131.5 161.84,-135 161.84,-128"/>
</g>
<!-- Node20 -->
<g id="node20" class="node">
<title>Node20</title>
<g id="a_node20"><a xlink:title=" ">
<polygon fill="white" stroke="black" points="656,-304.5 656,-356.5 833,-356.5 833,-304.5 656,-304.5"/>
<text text-anchor="start" x="664" y="-344.5" font-family="Helvetica,sans-Serif" font-size="10.00">DefaultUndirectedGraph</text>
<text text-anchor="start" x="664" y="-333.5" font-family="Helvetica,sans-Serif" font-size="10.00">&lt; denoptim.graph.Vertex,</text>
<text text-anchor="start" x="664" y="-322.5" font-family="Helvetica,sans-Serif" font-size="10.00"> denoptim.graph.simplified.Undirected</text>
<text text-anchor="middle" x="744.5" y="-311.5" font-family="Helvetica,sans-Serif" font-size="10.00">Edge &gt;</text>
</a>
</g>
</g>
<!-- Node20&#45;&gt;Node6 -->
<g id="edge25" class="edge">
<title>Node20&#45;&gt;Node6</title>
<path fill="none" stroke="#9a32cd" stroke-dasharray="5,2" d="M843.3,-310.33C886.7,-301.38 935.72,-291.26 970.6,-284.07"/>
<polygon fill="#9a32cd" stroke="#9a32cd" points="842.36,-306.95 833.27,-312.4 843.77,-313.8 842.36,-306.95"/>
<text text-anchor="middle" x="887" y="-310.5" font-family="Helvetica,sans-Serif" font-size="10.00"> jGraph</text>
</g>
<!-- Node21 -->
<g id="node21" class="node">
<title>Node21</title>
<g id="a_node21"><a xlink:title=" ">
<polygon fill="white" stroke="black" points="655,-147.5 655,-199.5 834,-199.5 834,-147.5 655,-147.5"/>
<text text-anchor="start" x="663" y="-187.5" font-family="Helvetica,sans-Serif" font-size="10.00">DefaultUndirectedGraph</text>
<text text-anchor="start" x="663" y="-176.5" font-family="Helvetica,sans-Serif" font-size="10.00">&lt; denoptim.graph.simplified.</text>
<text text-anchor="start" x="663" y="-165.5" font-family="Helvetica,sans-Serif" font-size="10.00">Node, denoptim.graph.simplified.Node</text>
<text text-anchor="middle" x="744.5" y="-154.5" font-family="Helvetica,sans-Serif" font-size="10.00">Connection &gt;</text>
</a>
</g>
</g>
<!-- Node21&#45;&gt;Node6 -->
<g id="edge26" class="edge">
<title>Node21&#45;&gt;Node6</title>
<path fill="none" stroke="#9a32cd" stroke-dasharray="5,2" d="M843.97,-181.07C870.06,-185.37 897.71,-192.07 922,-202.5 957.56,-217.77 991.86,-249.15 1007.77,-264.96"/>
<polygon fill="#9a32cd" stroke="#9a32cd" points="844.47,-177.61 834.06,-179.54 843.4,-184.52 844.47,-177.61"/>
<text text-anchor="middle" x="887" y="-205.5" font-family="Helvetica,sans-Serif" font-size="10.00"> jGraphKernel</text>
</g>
<!-- Node22 -->
<g id="node22" class="node">
<title>Node22</title>
<g id="a_node22"><a xlink:href="enumdenoptim_1_1graph_1_1_vertex_1_1_b_b_type.html" target="_top" xlink:title="The type of building block.">
<polygon fill="white" stroke="black" points="7.5,-207 7.5,-226 156.5,-226 156.5,-207 7.5,-207"/>
<text text-anchor="middle" x="82" y="-214" font-family="Helvetica,sans-Serif" font-size="10.00">denoptim.graph.Vertex.BBType</text>
</a>
</g>
</g>
<!-- Node22&#45;&gt;Node4 -->
<g id="edge27" class="edge">
<title>Node22&#45;&gt;Node4</title>
<path fill="none" stroke="#9a32cd" stroke-dasharray="5,2" d="M166.98,-225.59C205.01,-230.28 250.44,-236.66 291,-244.5 306.68,-247.53 344.88,-257.37 373.7,-264.96"/>
<polygon fill="#9a32cd" stroke="#9a32cd" points="167.32,-222.11 156.97,-224.38 166.48,-229.06 167.32,-222.11"/>
<text text-anchor="middle" x="236.5" y="-247.5" font-family="Helvetica,sans-Serif" font-size="10.00"> buildingBlockType</text>
</g>
<!-- Node23 -->
<g id="node23" class="node">
<title>Node23</title>
<g id="a_node23"><a xlink:title=" ">
<polygon fill="white" stroke="black" points="25,-169 25,-188 139,-188 139,-169 25,-169"/>
<text text-anchor="middle" x="82" y="-176" font-family="Helvetica,sans-Serif" font-size="10.00">Map&lt; Object, Object &gt;</text>
</a>
</g>
</g>
<!-- Node23&#45;&gt;Node4 -->
<g id="edge28" class="edge">
<title>Node23&#45;&gt;Node4</title>
<path fill="none" stroke="#9a32cd" stroke-dasharray="5,2" d="M149.06,-174.95C193.14,-175.86 250.27,-183.73 291,-213.5 305.12,-223.82 295.34,-237.58 309,-248.5 321.74,-258.69 338.03,-264.92 353.77,-268.72"/>
<polygon fill="#9a32cd" stroke="#9a32cd" points="149.04,-171.45 139.01,-174.86 148.97,-178.45 149.04,-171.45"/>
<text text-anchor="middle" x="236.5" y="-216.5" font-family="Helvetica,sans-Serif" font-size="10.00"> properties</text>
</g>
<!-- Node24 -->
<g id="node24" class="node">
<title>Node24</title>
<g id="a_node24"><a xlink:title=" ">
<polygon fill="white" stroke="black" points="45,-333 45,-352 119,-352 119,-333 45,-333"/>
<text text-anchor="middle" x="82" y="-340" font-family="Helvetica,sans-Serif" font-size="10.00">Set&lt; String &gt;</text>
</a>
</g>
</g>
<!-- Node24&#45;&gt;Node4 -->
<g id="edge29" class="edge">
<title>Node24&#45;&gt;Node4</title>
<path fill="none" stroke="#9a32cd" stroke-dasharray="5,2" d="M129.24,-335.36C171.53,-328.57 235.73,-317.63 291,-305.5 319.87,-299.17 352.33,-290.57 375.96,-284.04"/>
<polygon fill="#9a32cd" stroke="#9a32cd" points="128.57,-331.92 119.25,-336.95 129.67,-338.84 128.57,-331.92"/>
<text text-anchor="middle" x="236.5" y="-328.5" font-family="Helvetica,sans-Serif" font-size="10.00"> uniquefyingPropertyKeys</text>
</g>
<!-- Node25 -->
<g id="node25" class="node">
<title>Node25</title>
<g id="a_node25"><a xlink:title=" ">
<polygon fill="white" stroke="black" points="11.5,-283.5 11.5,-313.5 152.5,-313.5 152.5,-283.5 11.5,-283.5"/>
<text text-anchor="start" x="19.5" y="-301.5" font-family="Helvetica,sans-Serif" font-size="10.00">List&lt; denoptim.utils.Mutation</text>
<text text-anchor="middle" x="82" y="-290.5" font-family="Helvetica,sans-Serif" font-size="10.00">Type &gt;</text>
</a>
</g>
</g>
<!-- Node25&#45;&gt;Node4 -->
<g id="edge30" class="edge">
<title>Node25&#45;&gt;Node4</title>
<path fill="none" stroke="#9a32cd" stroke-dasharray="5,2" d="M162.71,-292.64C221.93,-288.29 301.23,-282.46 353.77,-278.6"/>
<polygon fill="#9a32cd" stroke="#9a32cd" points="162.36,-289.16 152.64,-293.38 162.87,-296.14 162.36,-289.16"/>
<text text-anchor="middle" x="236.5" y="-293.5" font-family="Helvetica,sans-Serif" font-size="10.00"> allowedMutationTypes</text>
</g>
<!-- Node26 -->
<g id="node26" class="node">
<title>Node26</title>
<g id="a_node26"><a xlink:href="enumdenoptim_1_1graph_1_1_vertex_1_1_vertex_type.html" target="_top" xlink:title="Flag declaring the type of Vertex implementation.">
<polygon fill="white" stroke="black" points="0,-245 0,-264 164,-264 164,-245 0,-245"/>
<text text-anchor="middle" x="82" y="-252" font-family="Helvetica,sans-Serif" font-size="10.00">denoptim.graph.Vertex.VertexType</text>
</a>
</g>
</g>
<!-- Node26&#45;&gt;Node4 -->
<g id="edge31" class="edge">
<title>Node26&#45;&gt;Node4</title>
<path fill="none" stroke="#9a32cd" stroke-dasharray="5,2" d="M174.12,-258.86C210.49,-260.73 252.74,-263.04 291,-265.5 311.49,-266.82 333.95,-268.47 353.76,-270"/>
<polygon fill="#9a32cd" stroke="#9a32cd" points="174.19,-255.36 164.02,-258.35 173.83,-262.35 174.19,-255.36"/>
<text text-anchor="middle" x="236.5" y="-268.5" font-family="Helvetica,sans-Serif" font-size="10.00"> vertexType</text>
</g>
<!-- Node27 -->
<g id="node27" class="node">
<title>Node27</title>
<g id="a_node27"><a xlink:title=" ">
<polygon fill="white" stroke="black" points="344.5,-537.5 344.5,-567.5 476.5,-567.5 476.5,-537.5 344.5,-537.5"/>
<text text-anchor="start" x="352.5" y="-555.5" font-family="Helvetica,sans-Serif" font-size="10.00">ArrayList&lt; denoptim.graph.</text>
<text text-anchor="middle" x="410.5" y="-544.5" font-family="Helvetica,sans-Serif" font-size="10.00">AttachmentPoint &gt;</text>
</a>
</g>
</g>
<!-- Node27&#45;&gt;Node3 -->
<g id="edge32" class="edge">
<title>Node27&#45;&gt;Node3</title>
<path fill="none" stroke="#9a32cd" stroke-dasharray="5,2" d="M477.35,-535.54C525.22,-527.08 589.65,-524.09 637,-553.5 652.2,-562.94 640.86,-578.54 655,-589.5 662.7,-595.47 671.86,-599.66 681.33,-602.59"/>
<polygon fill="#9a32cd" stroke="#9a32cd" points="476.58,-532.12 467.4,-537.41 477.88,-539 476.58,-532.12"/>
<text text-anchor="middle" x="583.5" y="-556.5" font-family="Helvetica,sans-Serif" font-size="10.00"> lstAPs</text>
</g>
<!-- Node28 -->
<g id="node28" class="node">
<title>Node28</title>
<g id="a_node28"><a xlink:title=" ">
<polygon fill="white" stroke="black" points="309,-478 309,-519 512,-519 512,-478 309,-478"/>
<text text-anchor="start" x="317" y="-507" font-family="Helvetica,sans-Serif" font-size="10.00">DefaultUndirectedGraph</text>
<text text-anchor="start" x="317" y="-496" font-family="Helvetica,sans-Serif" font-size="10.00">&lt; denoptim.graph.FragIsomorph</text>
<text text-anchor="middle" x="410.5" y="-485" font-family="Helvetica,sans-Serif" font-size="10.00">Node, denoptim.graph.FragIsomorphEdge &gt;</text>
</a>
</g>
</g>
<!-- Node28&#45;&gt;Node3 -->
<g id="edge35" class="edge">
<title>Node28&#45;&gt;Node3</title>
<path fill="none" stroke="#9a32cd" stroke-dasharray="5,2" d="M522.19,-480.82C562.47,-480.46 605.74,-488.01 637,-514.5 663.15,-536.66 630.47,-565.55 655,-589.5 662.31,-596.64 671.61,-601.37 681.43,-604.47"/>
<polygon fill="#9a32cd" stroke="#9a32cd" points="521.93,-477.32 512.02,-481.07 522.11,-484.32 521.93,-477.32"/>
<text text-anchor="middle" x="583.5" y="-517.5" font-family="Helvetica,sans-Serif" font-size="10.00"> jGraphFragIsomorphism</text>
</g>
<!-- Node29 -->
<g id="node29" class="node">
<title>Node29</title>
<g id="a_node29"><a xlink:title=" ">
<polygon fill="white" stroke="black" points="680,-549.5 680,-579.5 809,-579.5 809,-549.5 680,-549.5"/>
<text text-anchor="start" x="688" y="-567.5" font-family="Helvetica,sans-Serif" font-size="10.00">List&lt; denoptim.graph.Frag</text>
<text text-anchor="middle" x="744.5" y="-556.5" font-family="Helvetica,sans-Serif" font-size="10.00">IsomorphNode &gt;</text>
</a>
</g>
</g>
<!-- Node29&#45;&gt;Node1 -->
<g id="edge36" class="edge">
<title>Node29&#45;&gt;Node1</title>
<path fill="none" stroke="#9a32cd" stroke-dasharray="5,2" d="M819.45,-564.5C856.75,-564.5 901.96,-564.5 939.71,-564.5"/>
<polygon fill="#9a32cd" stroke="#9a32cd" points="819.15,-561 809.15,-564.5 819.15,-568 819.15,-561"/>
<text text-anchor="middle" x="887" y="-567.5" font-family="Helvetica,sans-Serif" font-size="10.00"> orderedNodes</text>
</g>
</g>
</svg>
