<?xml version="1.0" encoding="UTF-8" standalone="no"?>
<!DOCTYPE svg PUBLIC "-//W3C//DTD SVG 1.1//EN"
 "http://www.w3.org/Graphics/SVG/1.1/DTD/svg11.dtd">
<!-- Generated by graphviz version 3.0.0 (20220413.0242)
 -->
<!-- Title: denoptim.graph.Candidate.getUID Pages: 1 -->
<svg width="904pt" height="308pt"
 viewBox="0.00 0.00 904.00 308.00" xmlns="http://www.w3.org/2000/svg" xmlns:xlink="http://www.w3.org/1999/xlink">
<g id="graph0" class="graph" transform="scale(1 1) rotate(0) translate(4 304)">
<title>denoptim.graph.Candidate.getUID</title>
<polygon fill="white" stroke="transparent" points="-4,4 -4,-304 900,-304 900,4 -4,4"/>
<!-- Node1 -->
<g id="node1" class="node">
<title>Node1</title>
<g id="a_node1"><a xlink:title=" ">
<polygon fill="#bfbfbf" stroke="black" points="735,-165 735,-184 896,-184 896,-165 735,-165"/>
<text text-anchor="middle" x="815.5" y="-172" font-family="Helvetica,sans-Serif" font-size="10.00">denoptim.graph.Candidate.getUID</text>
</a>
</g>
</g>
<!-- Node2 -->
<g id="node2" class="node">
<title>Node2</title>
<g id="a_node2"><a xlink:href="classdenoptim_1_1ga_1_1_offspring_evaluation_task.html#aab5b9c0b8a88922460f5c28ae161d1fa" target="_top" xlink:title=" ">
<polygon fill="white" stroke="black" points="544,-269.5 544,-299.5 699,-299.5 699,-269.5 544,-269.5"/>
<text text-anchor="start" x="552" y="-287.5" font-family="Helvetica,sans-Serif" font-size="10.00">denoptim.ga.OffspringEvaluation</text>
<text text-anchor="middle" x="621.5" y="-276.5" font-family="Helvetica,sans-Serif" font-size="10.00">Task.call</text>
</a>
</g>
</g>
<!-- Node1&#45;&gt;Node2 -->
<g id="edge1" class="edge">
<title>Node1&#45;&gt;Node2</title>
<path fill="none" stroke="midnightblue" d="M794.59,-190.44C772.27,-207.78 734.53,-235.56 699,-254.5 688.68,-260 677.12,-265.06 666.17,-269.39"/>
<polygon fill="midnightblue" stroke="midnightblue" points="796.92,-193.06 802.62,-184.13 792.6,-187.55 796.92,-193.06"/>
</g>
<!-- Node3 -->
<g id="node3" class="node">
<title>Node3</title>
<g id="a_node3"><a xlink:href="classdenoptim_1_1ga_1_1_evolutionary_algorithm.html#a596b2f5f0b097c5b67a6e5163bd6fe66" target="_top" xlink:title="Generates a given number of new candidate items and adds them to the current population.">
<polygon fill="white" stroke="black" points="362,-206.5 362,-236.5 496,-236.5 496,-206.5 362,-206.5"/>
<text text-anchor="start" x="370" y="-224.5" font-family="Helvetica,sans-Serif" font-size="10.00">denoptim.ga.Evolutionary</text>
<text text-anchor="middle" x="429" y="-213.5" font-family="Helvetica,sans-Serif" font-size="10.00">Algorithm.evolvePopulation</text>
</a>
</g>
</g>
<!-- Node1&#45;&gt;Node3 -->
<g id="edge2" class="edge">
<title>Node1&#45;&gt;Node3</title>
<path fill="none" stroke="midnightblue" d="M788.11,-188.68C765.27,-200.1 730.97,-215.24 699,-221.5 630.82,-234.84 551.06,-232.68 496.18,-228.52"/>
<polygon fill="midnightblue" stroke="midnightblue" points="789.85,-191.72 797.16,-184.05 786.66,-185.49 789.85,-191.72"/>
</g>
<!-- Node7 -->
<g id="node7" class="node">
<title>Node7</title>
<g id="a_node7"><a xlink:href="classdenoptim_1_1gui_1_1_molecule_view_panel.html#acfa83a9b27d29f5582ee14973e902aee" target="_top" xlink:title=" ">
<polygon fill="white" stroke="black" points="554.5,-181.5 554.5,-211.5 688.5,-211.5 688.5,-181.5 554.5,-181.5"/>
<text text-anchor="start" x="562.5" y="-199.5" font-family="Helvetica,sans-Serif" font-size="10.00">denoptim.gui.MoleculeView</text>
<text text-anchor="middle" x="621.5" y="-188.5" font-family="Helvetica,sans-Serif" font-size="10.00">Panel.fillDataTable</text>
</a>
</g>
</g>
<!-- Node1&#45;&gt;Node7 -->
<g id="edge6" class="edge">
<title>Node1&#45;&gt;Node7</title>
<path fill="none" stroke="midnightblue" d="M724.6,-184.8C712.48,-186.19 700.22,-187.59 688.61,-188.93"/>
<polygon fill="midnightblue" stroke="midnightblue" points="725.21,-188.25 734.74,-183.64 724.41,-181.3 725.21,-188.25"/>
</g>
<!-- Node8 -->
<g id="node8" class="node">
<title>Node8</title>
<g id="a_node8"><a xlink:href="classdenoptim_1_1ga_1_1_evolutionary_algorithm.html#ad43588620dab3340e0d8b0042ec73618" target="_top" xlink:title="Fills up the population with candidates build from scratch.">
<polygon fill="white" stroke="black" points="359,-137.5 359,-167.5 499,-167.5 499,-137.5 359,-137.5"/>
<text text-anchor="start" x="367" y="-155.5" font-family="Helvetica,sans-Serif" font-size="10.00">denoptim.ga.Evolutionary</text>
<text text-anchor="middle" x="429" y="-144.5" font-family="Helvetica,sans-Serif" font-size="10.00">Algorithm.initializePopulation</text>
</a>
</g>
</g>
<!-- Node1&#45;&gt;Node8 -->
<g id="edge7" class="edge">
<title>Node1&#45;&gt;Node8</title>
<path fill="none" stroke="midnightblue" d="M724.44,-169.35C655.65,-165.41 562.26,-160.07 499.25,-156.46"/>
<polygon fill="midnightblue" stroke="midnightblue" points="724.65,-172.86 734.83,-169.94 725.05,-165.88 724.65,-172.86"/>
</g>
<!-- Node9 -->
<g id="node9" class="node">
<title>Node9</title>
<g id="a_node9"><a xlink:href="classdenoptim_1_1ga_1_1_offspring_evaluation_task.html#ad3f876e486627cf11fb3e73be58f1973" target="_top" xlink:title=" ">
<polygon fill="white" stroke="black" points="544,-93.5 544,-123.5 699,-123.5 699,-93.5 544,-93.5"/>
<text text-anchor="start" x="552" y="-111.5" font-family="Helvetica,sans-Serif" font-size="10.00">denoptim.ga.OffspringEvaluation</text>
<text text-anchor="middle" x="621.5" y="-100.5" font-family="Helvetica,sans-Serif" font-size="10.00">Task.OffspringEvaluationTask</text>
</a>
</g>
</g>
<!-- Node1&#45;&gt;Node9 -->
<g id="edge9" class="edge">
<title>Node1&#45;&gt;Node9</title>
<path fill="none" stroke="midnightblue" d="M776.8,-161.54C745.11,-150.65 699.78,-135.07 666.45,-123.61"/>
<polygon fill="midnightblue" stroke="midnightblue" points="775.99,-164.96 786.58,-164.9 778.26,-158.34 775.99,-164.96"/>
</g>
<!-- Node10 -->
<g id="node10" class="node">
<title>Node10</title>
<g id="a_node10"><a xlink:href="classdenoptim_1_1ga_1_1_e_a_utils.html#aafeb26c06b39ccb444c440d8f1f2c340" target="_top" xlink:title="Write out summary for the current GA population.">
<polygon fill="white" stroke="black" points="554.5,-44.5 554.5,-74.5 688.5,-74.5 688.5,-44.5 554.5,-44.5"/>
<text text-anchor="start" x="562.5" y="-62.5" font-family="Helvetica,sans-Serif" font-size="10.00">denoptim.ga.EAUtils.output</text>
<text text-anchor="middle" x="621.5" y="-51.5" font-family="Helvetica,sans-Serif" font-size="10.00">PopulationDetails</text>
</a>
</g>
</g>
<!-- Node1&#45;&gt;Node10 -->
<g id="edge10" class="edge">
<title>Node1&#45;&gt;Node10</title>
<path fill="none" stroke="midnightblue" d="M797.17,-157.81C775.68,-137.92 737.21,-104.83 699,-84.5 691.97,-80.76 684.28,-77.45 676.56,-74.55"/>
<polygon fill="midnightblue" stroke="midnightblue" points="794.85,-160.44 804.53,-164.74 799.64,-155.34 794.85,-160.44"/>
</g>
<!-- Node4 -->
<g id="node4" class="node">
<title>Node4</title>
<g id="a_node4"><a xlink:href="classdenoptim_1_1ga_1_1_evolutionary_algorithm.html#a6bfc2fa59b199da6259b5b6bad3d6de7" target="_top" xlink:title=" ">
<polygon fill="white" stroke="black" points="190,-115.5 190,-145.5 314,-145.5 314,-115.5 190,-115.5"/>
<text text-anchor="start" x="198" y="-133.5" font-family="Helvetica,sans-Serif" font-size="10.00">denoptim.ga.Evolutionary</text>
<text text-anchor="middle" x="252" y="-122.5" font-family="Helvetica,sans-Serif" font-size="10.00">Algorithm.run</text>
</a>
</g>
</g>
<!-- Node3&#45;&gt;Node4 -->
<g id="edge3" class="edge">
<title>Node3&#45;&gt;Node4</title>
<path fill="none" stroke="midnightblue" d="M389.91,-201.69C357.44,-184.81 311.47,-160.9 281.94,-145.55"/>
<polygon fill="midnightblue" stroke="midnightblue" points="388.62,-204.96 399.1,-206.47 391.84,-198.75 388.62,-204.96"/>
</g>
<!-- Node5 -->
<g id="node5" class="node">
<title>Node5</title>
<g id="a_node5"><a xlink:href="classdenoptim_1_1ga_1_1_evolutionary_algorithm.html#a0f2063b722b7291daf83d62acaa683d3" target="_top" xlink:title=" ">
<polygon fill="white" stroke="black" points="0,-140.5 0,-170.5 154,-170.5 154,-140.5 0,-140.5"/>
<text text-anchor="start" x="8" y="-158.5" font-family="Helvetica,sans-Serif" font-size="10.00">denoptim.ga.Evolutionary</text>
<text text-anchor="middle" x="77" y="-147.5" font-family="Helvetica,sans-Serif" font-size="10.00">Algorithm.EvolutionaryAlgorithm</text>
</a>
</g>
</g>
<!-- Node4&#45;&gt;Node5 -->
<g id="edge4" class="edge">
<title>Node4&#45;&gt;Node5</title>
<path fill="none" stroke="midnightblue" d="M179.44,-140.84C171.09,-142.05 162.54,-143.28 154.12,-144.5"/>
<polygon fill="midnightblue" stroke="midnightblue" points="180.12,-144.28 189.52,-139.38 179.12,-137.35 180.12,-144.28"/>
</g>
<!-- Node6 -->
<g id="node6" class="node">
<title>Node6</title>
<g id="a_node6"><a xlink:href="classdenoptim_1_1programs_1_1denovo_1_1_g_a_runner.html#a7cafd6d78727b89dce3e2c8d06f0dd7c" target="_top" xlink:title=" ">
<polygon fill="white" stroke="black" points="9.5,-91.5 9.5,-121.5 144.5,-121.5 144.5,-91.5 9.5,-91.5"/>
<text text-anchor="start" x="17.5" y="-109.5" font-family="Helvetica,sans-Serif" font-size="10.00">denoptim.programs.denovo.</text>
<text text-anchor="middle" x="77" y="-98.5" font-family="Helvetica,sans-Serif" font-size="10.00">GARunner.runProgram</text>
</a>
</g>
</g>
<!-- Node4&#45;&gt;Node6 -->
<g id="edge5" class="edge">
<title>Node4&#45;&gt;Node6</title>
<path fill="none" stroke="midnightblue" d="M179.48,-120.58C167.92,-118.97 156,-117.32 144.57,-115.73"/>
<polygon fill="midnightblue" stroke="midnightblue" points="179.13,-124.06 189.52,-121.97 180.1,-117.13 179.13,-124.06"/>
</g>
<!-- Node8&#45;&gt;Node4 -->
<g id="edge8" class="edge">
<title>Node8&#45;&gt;Node4</title>
<path fill="none" stroke="midnightblue" d="M348.68,-142.53C337.04,-141.06 325.21,-139.58 314.01,-138.17"/>
<polygon fill="midnightblue" stroke="midnightblue" points="348.48,-146.03 358.84,-143.81 349.35,-139.08 348.48,-146.03"/>
</g>
<!-- Node10&#45;&gt;Node4 -->
<g id="edge13" class="edge">
<title>Node10&#45;&gt;Node4</title>
<path fill="none" stroke="midnightblue" d="M558.42,-77.26C542.1,-81.6 524.45,-85.99 508,-89.5 442.22,-103.52 365.98,-115.19 314.12,-122.45"/>
<polygon fill="midnightblue" stroke="midnightblue" points="559.65,-80.55 568.39,-74.57 557.83,-73.79 559.65,-80.55"/>
</g>
<!-- Node11 -->
<g id="node11" class="node">
<title>Node11</title>
<g id="a_node11"><a xlink:href="classdenoptim_1_1ga_1_1_e_a_utils.html#a5d3fb7536032d02b0f3243fa3738cf45" target="_top" xlink:title="Simply copies the files from the previous directories into the specified folder.">
<polygon fill="white" stroke="black" points="362,-49.5 362,-79.5 496,-79.5 496,-49.5 362,-49.5"/>
<text text-anchor="start" x="370" y="-67.5" font-family="Helvetica,sans-Serif" font-size="10.00">denoptim.ga.EAUtils.output</text>
<text text-anchor="middle" x="429" y="-56.5" font-family="Helvetica,sans-Serif" font-size="10.00">FinalResults</text>
</a>
</g>
</g>
<!-- Node10&#45;&gt;Node11 -->
<g id="edge11" class="edge">
<title>Node10&#45;&gt;Node11</title>
<path fill="none" stroke="midnightblue" d="M544.13,-61.5C528.29,-61.92 511.74,-62.35 496.3,-62.76"/>
<polygon fill="midnightblue" stroke="midnightblue" points="544.5,-65 554.41,-61.23 544.32,-58 544.5,-65"/>
</g>
<!-- Node12 -->
<g id="node12" class="node">
<title>Node12</title>
<g id="a_node12"><a xlink:href="classdenoptim_1_1io_1_1_denoptim_i_o_test.html#af5c2f9114881ebde82a83f922c0c23fe" target="_top" xlink:title=" ">
<polygon fill="white" stroke="black" points="350,-0.5 350,-30.5 508,-30.5 508,-0.5 350,-0.5"/>
<text text-anchor="start" x="358" y="-18.5" font-family="Helvetica,sans-Serif" font-size="10.00">denoptim.io.DenoptimIOTest.test</text>
<text text-anchor="middle" x="429" y="-7.5" font-family="Helvetica,sans-Serif" font-size="10.00">ReadGenerationFromSummary</text>
</a>
</g>
</g>
<!-- Node10&#45;&gt;Node12 -->
<g id="edge14" class="edge">
<title>Node10&#45;&gt;Node12</title>
<path fill="none" stroke="midnightblue" d="M545.27,-42.12C528.66,-38.29 511.21,-34.26 495.06,-30.53"/>
<polygon fill="midnightblue" stroke="midnightblue" points="544.94,-45.64 555.47,-44.48 546.52,-38.82 544.94,-45.64"/>
</g>
<!-- Node11&#45;&gt;Node4 -->
<g id="edge12" class="edge">
<title>Node11&#45;&gt;Node4</title>
<path fill="none" stroke="midnightblue" d="M378.2,-83.28C351.19,-93.47 318.27,-105.88 292.96,-115.43"/>
<polygon fill="midnightblue" stroke="midnightblue" points="379.73,-86.45 387.85,-79.64 377.26,-79.9 379.73,-86.45"/>
</g>
</g>
</svg>
