<?xml version="1.0" encoding="UTF-8" standalone="no"?>
<!DOCTYPE svg PUBLIC "-//W3C//DTD SVG 1.1//EN"
 "http://www.w3.org/Graphics/SVG/1.1/DTD/svg11.dtd">
<!-- Generated by graphviz version 3.0.0 (20220413.0242)
 -->
<!-- Title: denoptim.graph.AttachmentPoint.setAtomPositionNumber Pages: 1 -->
<svg width="3242pt" height="556pt"
 viewBox="0.00 0.00 3242.00 555.50" xmlns="http://www.w3.org/2000/svg" xmlns:xlink="http://www.w3.org/1999/xlink">
<g id="graph0" class="graph" transform="scale(1 1) rotate(0) translate(4 551.5)">
<title>denoptim.graph.AttachmentPoint.setAtomPositionNumber</title>
<polygon fill="white" stroke="transparent" points="-4,4 -4,-551.5 3238,-551.5 3238,4 -4,4"/>
<!-- Node1 -->
<g id="node1" class="node">
<title>Node1</title>
<g id="a_node1"><a xlink:title="Set the index of the source atom in the list of atoms of the fragment.">
<polygon fill="#bfbfbf" stroke="black" points="3086,-337 3086,-367 3234,-367 3234,-337 3086,-337"/>
<text text-anchor="start" x="3094" y="-355" font-family="Helvetica,sans-Serif" font-size="10.00">denoptim.graph.Attachment</text>
<text text-anchor="middle" x="3160" y="-344" font-family="Helvetica,sans-Serif" font-size="10.00">Point.setAtomPositionNumber</text>
</a>
</g>
</g>
<!-- Node2 -->
<g id="node2" class="node">
<title>Node2</title>
<g id="a_node2"><a xlink:href="classdenoptim_1_1graph_1_1_template.html#ac7d7400f47d4bad33f3755f1b3d19a3e" target="_top" xlink:title="Returns a deep copy of this template.">
<polygon fill="white" stroke="black" points="2886.5,-448.5 2886.5,-467.5 3037.5,-467.5 3037.5,-448.5 2886.5,-448.5"/>
<text text-anchor="middle" x="2962" y="-455.5" font-family="Helvetica,sans-Serif" font-size="10.00">denoptim.graph.Template.clone</text>
</a>
</g>
</g>
<!-- Node1&#45;&gt;Node2 -->
<g id="edge1" class="edge">
<title>Node1&#45;&gt;Node2</title>
<path fill="none" stroke="midnightblue" d="M3122.06,-371.98C3079.89,-394.78 3012.64,-431.15 2980.81,-448.37"/>
<polygon fill="midnightblue" stroke="midnightblue" points="3123.79,-375.02 3130.92,-367.19 3120.46,-368.87 3123.79,-375.02"/>
</g>
<!-- Node6 -->
<g id="node6" class="node">
<title>Node6</title>
<g id="a_node6"><a xlink:href="classdenoptim_1_1graph_1_1_fragment.html#afe608a1ee2180aa73c91b8cc0a5bb744" target="_top" xlink:title="Removes a list of atoms and updates the list of attachment points.">
<polygon fill="white" stroke="black" points="2881.5,-337 2881.5,-367 3042.5,-367 3042.5,-337 2881.5,-337"/>
<text text-anchor="start" x="2889.5" y="-355" font-family="Helvetica,sans-Serif" font-size="10.00">denoptim.graph.Fragment.remove</text>
<text text-anchor="middle" x="2962" y="-344" font-family="Helvetica,sans-Serif" font-size="10.00">Atoms</text>
</a>
</g>
</g>
<!-- Node1&#45;&gt;Node6 -->
<g id="edge6" class="edge">
<title>Node1&#45;&gt;Node6</title>
<path fill="none" stroke="midnightblue" d="M3075.44,-352C3064.6,-352 3053.52,-352 3042.74,-352"/>
<polygon fill="midnightblue" stroke="midnightblue" points="3075.74,-355.5 3085.74,-352 3075.74,-348.5 3075.74,-355.5"/>
</g>
<!-- Node14 -->
<g id="node14" class="node">
<title>Node14</title>
<g id="a_node14"><a xlink:href="classdenoptim_1_1graph_1_1_fragment.html#a8a6b413cc1a9c7276c9cfbd7e9284c99" target="_top" xlink:title="Changes the properties of each APs as to reflect the current atom list.">
<polygon fill="white" stroke="black" points="2874,-282.5 2874,-301.5 3050,-301.5 3050,-282.5 2874,-282.5"/>
<text text-anchor="middle" x="2962" y="-289.5" font-family="Helvetica,sans-Serif" font-size="10.00">denoptim.graph.Fragment.updateAPs</text>
</a>
</g>
</g>
<!-- Node1&#45;&gt;Node14 -->
<g id="edge14" class="edge">
<title>Node1&#45;&gt;Node14</title>
<path fill="none" stroke="midnightblue" d="M3100.19,-334C3065.34,-323.33 3022.56,-310.23 2994.14,-301.53"/>
<polygon fill="midnightblue" stroke="midnightblue" points="3099.21,-337.36 3109.79,-336.94 3101.26,-330.66 3099.21,-337.36"/>
</g>
<!-- Node2&#45;&gt;Node2 -->
<g id="edge2" class="edge">
<title>Node2&#45;&gt;Node2</title>
<path fill="none" stroke="midnightblue" d="M2999.12,-475.5C2999.12,-481.34 2986.74,-486 2962,-486 2926.81,-486 2916.64,-476.57 2931.48,-467.76"/>
<polygon fill="midnightblue" stroke="midnightblue" points="3001.67,-473.09 2992.52,-467.76 2996.34,-477.64 3001.67,-473.09"/>
</g>
<!-- Node3 -->
<g id="node3" class="node">
<title>Node3</title>
<g id="a_node3"><a xlink:href="classdenoptim_1_1graph_1_1_template_test.html#a72d37b4c24ad896838401b319b1d667e" target="_top" xlink:title=" ">
<polygon fill="white" stroke="black" points="2664,-419 2664,-449 2828,-449 2828,-419 2664,-419"/>
<text text-anchor="start" x="2672" y="-437" font-family="Helvetica,sans-Serif" font-size="10.00">denoptim.graph.TemplateTest.test</text>
<text text-anchor="middle" x="2746" y="-426" font-family="Helvetica,sans-Serif" font-size="10.00">Clone</text>
</a>
</g>
</g>
<!-- Node2&#45;&gt;Node3 -->
<g id="edge3" class="edge">
<title>Node2&#45;&gt;Node3</title>
<path fill="none" stroke="midnightblue" d="M2876.18,-448.49C2860.38,-446.72 2843.9,-444.87 2828.21,-443.11"/>
<polygon fill="midnightblue" stroke="midnightblue" points="2876.13,-452 2886.45,-449.64 2876.91,-445.05 2876.13,-452"/>
</g>
<!-- Node4 -->
<g id="node4" class="node">
<title>Node4</title>
<g id="a_node4"><a xlink:href="classdenoptim_1_1graph_1_1_attachment_point_test.html#af88d30ce68477984fe6179325d1540b2" target="_top" xlink:title=" ">
<polygon fill="white" stroke="black" points="2656,-517 2656,-547 2836,-547 2836,-517 2656,-517"/>
<text text-anchor="start" x="2664" y="-535" font-family="Helvetica,sans-Serif" font-size="10.00">denoptim.graph.Attachment</text>
<text text-anchor="middle" x="2746" y="-524" font-family="Helvetica,sans-Serif" font-size="10.00">PointTest.testHasConnectedSrcAtom</text>
</a>
</g>
</g>
<!-- Node2&#45;&gt;Node4 -->
<g id="edge4" class="edge">
<title>Node2&#45;&gt;Node4</title>
<path fill="none" stroke="midnightblue" d="M2930.79,-471.55C2906.14,-482.3 2870.24,-497.25 2838,-508 2828.55,-511.15 2818.43,-514.17 2808.5,-516.93"/>
<polygon fill="midnightblue" stroke="midnightblue" points="2932.23,-474.74 2939.98,-467.51 2929.42,-468.33 2932.23,-474.74"/>
</g>
<!-- Node5 -->
<g id="node5" class="node">
<title>Node5</title>
<g id="a_node5"><a xlink:href="classdenoptim_1_1graph_1_1_template_test.html#a50688358b5a557ee51683082427bdc14" target="_top" xlink:title=" ">
<polygon fill="white" stroke="black" points="2664,-468 2664,-498 2828,-498 2828,-468 2664,-468"/>
<text text-anchor="start" x="2672" y="-486" font-family="Helvetica,sans-Serif" font-size="10.00">denoptim.graph.TemplateTest.test</text>
<text text-anchor="middle" x="2746" y="-475" font-family="Helvetica,sans-Serif" font-size="10.00">NestedTemplateCloning</text>
</a>
</g>
</g>
<!-- Node2&#45;&gt;Node5 -->
<g id="edge5" class="edge">
<title>Node2&#45;&gt;Node5</title>
<path fill="none" stroke="midnightblue" d="M2876.18,-467.91C2860.38,-469.75 2843.9,-471.68 2828.21,-473.51"/>
<polygon fill="midnightblue" stroke="midnightblue" points="2876.93,-471.35 2886.45,-466.71 2876.12,-464.39 2876.93,-471.35"/>
</g>
<!-- Node7 -->
<g id="node7" class="node">
<title>Node7</title>
<g id="a_node7"><a xlink:href="classdenoptim_1_1fragmenter_1_1_fragmenter_tools.html#aebc1d42a9a2b8aae1e5030a1ba78a0b7" target="_top" xlink:title="Chops one chemical structure by applying the given cutting rules.">
<polygon fill="white" stroke="black" points="2667.5,-370 2667.5,-400 2824.5,-400 2824.5,-370 2667.5,-370"/>
<text text-anchor="start" x="2675.5" y="-388" font-family="Helvetica,sans-Serif" font-size="10.00">denoptim.fragmenter.Fragmenter</text>
<text text-anchor="middle" x="2746" y="-377" font-family="Helvetica,sans-Serif" font-size="10.00">Tools.fragmentation</text>
</a>
</g>
</g>
<!-- Node6&#45;&gt;Node7 -->
<g id="edge7" class="edge">
<title>Node6&#45;&gt;Node7</title>
<path fill="none" stroke="midnightblue" d="M2871.22,-365.84C2855.73,-368.23 2839.75,-370.7 2824.62,-373.03"/>
<polygon fill="midnightblue" stroke="midnightblue" points="2871.96,-369.27 2881.31,-364.29 2870.9,-362.35 2871.96,-369.27"/>
</g>
<!-- Node8 -->
<g id="node8" class="node">
<title>Node8</title>
<g id="a_node8"><a xlink:href="classdenoptim_1_1graph_1_1_fragment.html#a7deab5658f2c5176b3edd77fb714c0c2" target="_top" xlink:title=" ">
<polygon fill="white" stroke="black" points="2654,-331.5 2654,-350.5 2838,-350.5 2838,-331.5 2654,-331.5"/>
<text text-anchor="middle" x="2746" y="-338.5" font-family="Helvetica,sans-Serif" font-size="10.00">denoptim.graph.Fragment.removeAtom</text>
</a>
</g>
</g>
<!-- Node6&#45;&gt;Node8 -->
<g id="edge8" class="edge">
<title>Node6&#45;&gt;Node8</title>
<path fill="none" stroke="midnightblue" d="M2871.02,-347.38C2860.2,-346.82 2849.13,-346.25 2838.29,-345.69"/>
<polygon fill="midnightblue" stroke="midnightblue" points="2871.15,-350.89 2881.31,-347.9 2871.51,-343.9 2871.15,-350.89"/>
</g>
<!-- Node9 -->
<g id="node9" class="node">
<title>Node9</title>
<g id="a_node9"><a xlink:href="classdenoptim_1_1utils_1_1_molecule_utils.html#ae0fc307ce14bc73de8cb51459e122392" target="_top" xlink:title="Selects only the atoms that originate from a subgraph of a whole graph that originated the whole mole...">
<polygon fill="white" stroke="black" points="2436,-261 2436,-291 2606,-291 2606,-261 2436,-261"/>
<text text-anchor="start" x="2444" y="-279" font-family="Helvetica,sans-Serif" font-size="10.00">denoptim.utils.MoleculeUtils.extract</text>
<text text-anchor="middle" x="2521" y="-268" font-family="Helvetica,sans-Serif" font-size="10.00">IACForSubgraph</text>
</a>
</g>
</g>
<!-- Node8&#45;&gt;Node9 -->
<g id="edge9" class="edge">
<title>Node8&#45;&gt;Node9</title>
<path fill="none" stroke="midnightblue" d="M2702.21,-328.53C2665.56,-317.84 2612.67,-302.43 2573.66,-291.06"/>
<polygon fill="midnightblue" stroke="midnightblue" points="2701.52,-331.97 2712.1,-331.41 2703.47,-325.25 2701.52,-331.97"/>
</g>
<!-- Node11 -->
<g id="node11" class="node">
<title>Node11</title>
<g id="a_node11"><a xlink:href="classdenoptim_1_1gui_1_1_g_u_i_vertex_inspector.html#adc65cc0ba7fa1014ecb1ccc447953638" target="_top" xlink:title=" ">
<polygon fill="white" stroke="black" points="2424,-318 2424,-348 2618,-348 2618,-318 2424,-318"/>
<text text-anchor="start" x="2432" y="-336" font-family="Helvetica,sans-Serif" font-size="10.00">denoptim.gui.GUIVertexInspector.remove</text>
<text text-anchor="middle" x="2521" y="-325" font-family="Helvetica,sans-Serif" font-size="10.00">Atoms</text>
</a>
</g>
</g>
<!-- Node8&#45;&gt;Node11 -->
<g id="edge11" class="edge">
<title>Node8&#45;&gt;Node11</title>
<path fill="none" stroke="midnightblue" d="M2643.95,-337.38C2635.37,-337.07 2626.71,-336.76 2618.17,-336.45"/>
<polygon fill="midnightblue" stroke="midnightblue" points="2643.86,-340.87 2653.98,-337.73 2644.11,-333.88 2643.86,-340.87"/>
</g>
<!-- Node10 -->
<g id="node10" class="node">
<title>Node10</title>
<g id="a_node10"><a xlink:href="classdenoptim_1_1fragspace_1_1_fragment_space.html#a32b0be109306e9c81fc830867296bc66" target="_top" xlink:title="Extracts a system of one or more fused rings and adds them to the fragment space if not already prese...">
<polygon fill="white" stroke="black" points="2192,-261 2192,-291 2388,-291 2388,-261 2192,-261"/>
<text text-anchor="start" x="2200" y="-279" font-family="Helvetica,sans-Serif" font-size="10.00">denoptim.fragspace.Fragment</text>
<text text-anchor="middle" x="2290" y="-268" font-family="Helvetica,sans-Serif" font-size="10.00">Space.addFusedRingsToFragmentLibrary</text>
</a>
</g>
</g>
<!-- Node9&#45;&gt;Node10 -->
<g id="edge10" class="edge">
<title>Node9&#45;&gt;Node10</title>
<path fill="none" stroke="midnightblue" d="M2425.48,-276C2413.2,-276 2400.6,-276 2388.28,-276"/>
<polygon fill="midnightblue" stroke="midnightblue" points="2425.7,-279.5 2435.7,-276 2425.7,-272.5 2425.7,-279.5"/>
</g>
<!-- Node12 -->
<g id="node12" class="node">
<title>Node12</title>
<g id="a_node12"><a xlink:href="classdenoptim_1_1gui_1_1_g_u_i_vertex_inspector.html#acadecc92299a7ea46113c06382a1f333" target="_top" xlink:title="Initialize the panel and add buttons.">
<polygon fill="white" stroke="black" points="852,-213.5 852,-232.5 1049,-232.5 1049,-213.5 852,-213.5"/>
<text text-anchor="middle" x="950.5" y="-220.5" font-family="Helvetica,sans-Serif" font-size="10.00">denoptim.gui.GUIVertexInspector.initialize</text>
</a>
</g>
</g>
<!-- Node11&#45;&gt;Node12 -->
<g id="edge12" class="edge">
<title>Node11&#45;&gt;Node12</title>
<path fill="none" stroke="midnightblue" d="M2413.65,-333C2323.08,-333 2189.5,-333 2073,-333 2073,-333 2073,-333 1404,-333 1261.97,-333 1219.42,-359.88 1085,-314 1032.97,-296.24 982.36,-252.33 961.49,-232.73"/>
<polygon fill="midnightblue" stroke="midnightblue" points="2413.65,-336.5 2423.65,-333 2413.65,-329.5 2413.65,-336.5"/>
</g>
<!-- Node13 -->
<g id="node13" class="node">
<title>Node13</title>
<g id="a_node13"><a xlink:href="classdenoptim_1_1gui_1_1_g_u_i_vertex_inspector.html#abc5d3c33ad9b2b114ce43e9b2cd577bb" target="_top" xlink:title="Constructor.">
<polygon fill="white" stroke="black" points="623,-208 623,-238 785,-238 785,-208 623,-208"/>
<text text-anchor="start" x="631" y="-226" font-family="Helvetica,sans-Serif" font-size="10.00">denoptim.gui.GUIVertexInspector.</text>
<text text-anchor="middle" x="704" y="-215" font-family="Helvetica,sans-Serif" font-size="10.00">GUIVertexInspector</text>
</a>
</g>
</g>
<!-- Node12&#45;&gt;Node13 -->
<g id="edge13" class="edge">
<title>Node12&#45;&gt;Node13</title>
<path fill="none" stroke="midnightblue" d="M841.65,-223C822.71,-223 803.3,-223 785.27,-223"/>
<polygon fill="midnightblue" stroke="midnightblue" points="841.81,-226.5 851.81,-223 841.81,-219.5 841.81,-226.5"/>
</g>
<!-- Node14&#45;&gt;Node9 -->
<g id="edge15" class="edge">
<title>Node14&#45;&gt;Node9</title>
<path fill="none" stroke="midnightblue" d="M2863.53,-288.45C2786.33,-285.63 2679.61,-281.74 2606.11,-279.07"/>
<polygon fill="midnightblue" stroke="midnightblue" points="2863.62,-291.95 2873.74,-288.82 2863.88,-284.96 2863.62,-291.95"/>
</g>
<!-- Node14&#45;&gt;Node11 -->
<g id="edge54" class="edge">
<title>Node14&#45;&gt;Node11</title>
<path fill="none" stroke="midnightblue" d="M2863.62,-301.1C2790.56,-307.92 2691.02,-317.21 2618.24,-324.01"/>
<polygon fill="midnightblue" stroke="midnightblue" points="2864.11,-304.56 2873.74,-300.15 2863.46,-297.59 2864.11,-304.56"/>
</g>
<!-- Node15 -->
<g id="node15" class="node">
<title>Node15</title>
<g id="a_node15"><a xlink:href="classdenoptim_1_1graph_1_1_fragment.html#a1bfff4428fed83f00c78a9d254e5b4b4" target="_top" xlink:title="Collects APs currently defined as properties of the atoms.">
<polygon fill="white" stroke="black" points="2675,-206 2675,-236 2817,-236 2817,-206 2675,-206"/>
<text text-anchor="start" x="2683" y="-224" font-family="Helvetica,sans-Serif" font-size="10.00">denoptim.graph.Fragment.get</text>
<text text-anchor="middle" x="2746" y="-213" font-family="Helvetica,sans-Serif" font-size="10.00">CurrentAPs</text>
</a>
</g>
</g>
<!-- Node14&#45;&gt;Node15 -->
<g id="edge16" class="edge">
<title>Node14&#45;&gt;Node15</title>
<path fill="none" stroke="midnightblue" d="M2922.63,-279.17C2898.37,-271.07 2866.36,-260.4 2838,-251 2823.32,-246.13 2807.29,-240.84 2792.84,-236.08"/>
<polygon fill="midnightblue" stroke="midnightblue" points="2921.59,-282.52 2932.18,-282.36 2923.8,-275.88 2921.59,-282.52"/>
</g>
<!-- Node16 -->
<g id="node16" class="node">
<title>Node16</title>
<g id="a_node16"><a xlink:href="classdenoptim_1_1gui_1_1_fragment_view_panel.html#a31fd7e726b0845744515b63174e6d546" target="_top" xlink:title="Uses the AP of the Fragment to create a new map and table of APs.">
<polygon fill="white" stroke="black" points="2445,-206 2445,-236 2597,-236 2597,-206 2445,-206"/>
<text text-anchor="start" x="2453" y="-224" font-family="Helvetica,sans-Serif" font-size="10.00">denoptim.gui.FragmentView</text>
<text text-anchor="middle" x="2521" y="-213" font-family="Helvetica,sans-Serif" font-size="10.00">Panel.updateAPsMapAndTable</text>
</a>
</g>
</g>
<!-- Node15&#45;&gt;Node16 -->
<g id="edge17" class="edge">
<title>Node15&#45;&gt;Node16</title>
<path fill="none" stroke="midnightblue" d="M2664.48,-221C2642.57,-221 2618.92,-221 2597.3,-221"/>
<polygon fill="midnightblue" stroke="midnightblue" points="2664.75,-224.5 2674.75,-221 2664.75,-217.5 2664.75,-224.5"/>
</g>
<!-- Node17 -->
<g id="node17" class="node">
<title>Node17</title>
<g id="a_node17"><a xlink:href="classdenoptim_1_1gui_1_1_fragment_view_panel.html#ace0d1e97a4f3899a40c6bc9430be7aef" target="_top" xlink:title="Loads the given fragments to this viewer.">
<polygon fill="white" stroke="black" points="2218,-206 2218,-236 2362,-236 2362,-206 2218,-206"/>
<text text-anchor="start" x="2226" y="-224" font-family="Helvetica,sans-Serif" font-size="10.00">denoptim.gui.FragmentView</text>
<text text-anchor="middle" x="2290" y="-213" font-family="Helvetica,sans-Serif" font-size="10.00">Panel.loadFragmentToViewer</text>
</a>
</g>
</g>
<!-- Node16&#45;&gt;Node17 -->
<g id="edge18" class="edge">
<title>Node16&#45;&gt;Node17</title>
<path fill="none" stroke="midnightblue" d="M2434.59,-221C2410.71,-221 2385.03,-221 2362.07,-221"/>
<polygon fill="midnightblue" stroke="midnightblue" points="2434.7,-224.5 2444.7,-221 2434.7,-217.5 2434.7,-224.5"/>
</g>
<!-- Node18 -->
<g id="node18" class="node">
<title>Node18</title>
<g id="a_node18"><a xlink:href="classdenoptim_1_1gui_1_1_vertex_view_panel.html#a5de255e134fc5c4eea74c6b653ddb913" target="_top" xlink:title="Loads the given fragments to this viewer.">
<polygon fill="white" stroke="black" points="1988,-157 1988,-187 2156,-187 2156,-157 1988,-157"/>
<text text-anchor="start" x="1996" y="-175" font-family="Helvetica,sans-Serif" font-size="10.00">denoptim.gui.VertexViewPanel.load</text>
<text text-anchor="middle" x="2072" y="-164" font-family="Helvetica,sans-Serif" font-size="10.00">FragmentToViewer</text>
</a>
</g>
</g>
<!-- Node17&#45;&gt;Node18 -->
<g id="edge19" class="edge">
<title>Node17&#45;&gt;Node18</title>
<path fill="none" stroke="midnightblue" d="M2212.92,-203.74C2188.86,-198.28 2162.46,-192.29 2139.15,-187.01"/>
<polygon fill="midnightblue" stroke="midnightblue" points="2212.2,-207.17 2222.72,-205.97 2213.75,-200.34 2212.2,-207.17"/>
</g>
<!-- Node40 -->
<g id="node40" class="node">
<title>Node40</title>
<g id="a_node40"><a xlink:href="classdenoptim_1_1gui_1_1_graph_vertex_mol_viewer_panel.html#a5edf6f6270bf3d180455295bffb57df0" target="_top" xlink:title="Makes a clone of the given vertex and loads that clone into the nested visualization frame.">
<polygon fill="white" stroke="black" points="1994.5,-205.5 1994.5,-246.5 2149.5,-246.5 2149.5,-205.5 1994.5,-205.5"/>
<text text-anchor="start" x="2002.5" y="-234.5" font-family="Helvetica,sans-Serif" font-size="10.00">denoptim.gui.GraphVertex</text>
<text text-anchor="start" x="2002.5" y="-223.5" font-family="Helvetica,sans-Serif" font-size="10.00">MolViewerPanel.visualizeVertex</text>
<text text-anchor="middle" x="2072" y="-212.5" font-family="Helvetica,sans-Serif" font-size="10.00">InNestedViewer</text>
</a>
</g>
</g>
<!-- Node17&#45;&gt;Node40 -->
<g id="edge51" class="edge">
<title>Node17&#45;&gt;Node40</title>
<path fill="none" stroke="midnightblue" d="M2207.83,-222.88C2188.76,-223.32 2168.51,-223.79 2149.65,-224.23"/>
<polygon fill="midnightblue" stroke="midnightblue" points="2208.06,-226.37 2217.97,-222.64 2207.9,-219.38 2208.06,-226.37"/>
</g>
<!-- Node19 -->
<g id="node19" class="node">
<title>Node19</title>
<g id="a_node19"><a xlink:href="classdenoptim_1_1gui_1_1_vertex_view_panel.html#a23695fc49f5ff660a828bddbf74a5006" target="_top" xlink:title="Loads the given template to this viewer.">
<polygon fill="white" stroke="black" points="1759.5,-116 1759.5,-146 1927.5,-146 1927.5,-116 1759.5,-116"/>
<text text-anchor="start" x="1767.5" y="-134" font-family="Helvetica,sans-Serif" font-size="10.00">denoptim.gui.VertexViewPanel.load</text>
<text text-anchor="middle" x="1843.5" y="-123" font-family="Helvetica,sans-Serif" font-size="10.00">TemplateToViewer</text>
</a>
</g>
</g>
<!-- Node18&#45;&gt;Node19 -->
<g id="edge20" class="edge">
<title>Node18&#45;&gt;Node19</title>
<path fill="none" stroke="midnightblue" d="M1977.69,-155.11C1961.07,-152.1 1943.85,-148.98 1927.54,-146.03"/>
<polygon fill="midnightblue" stroke="midnightblue" points="1977.48,-158.63 1987.95,-156.97 1978.73,-151.74 1977.48,-158.63"/>
</g>
<!-- Node20 -->
<g id="node20" class="node">
<title>Node20</title>
<g id="a_node20"><a xlink:href="classdenoptim_1_1gui_1_1_vertex_view_panel.html#a697ecc5ef3352a5860a6a6a355d87d1b" target="_top" xlink:title="Loads the given vertex to this viewer.">
<polygon fill="white" stroke="black" points="1531,-160 1531,-190 1699,-190 1699,-160 1531,-160"/>
<text text-anchor="start" x="1539" y="-178" font-family="Helvetica,sans-Serif" font-size="10.00">denoptim.gui.VertexViewPanel.load</text>
<text text-anchor="middle" x="1615" y="-167" font-family="Helvetica,sans-Serif" font-size="10.00">VertexToViewer</text>
</a>
</g>
</g>
<!-- Node18&#45;&gt;Node20 -->
<g id="edge50" class="edge">
<title>Node18&#45;&gt;Node20</title>
<path fill="none" stroke="midnightblue" d="M1977.75,-172.61C1895.83,-173.15 1777.74,-173.93 1699.02,-174.45"/>
<polygon fill="midnightblue" stroke="midnightblue" points="1977.83,-176.11 1987.81,-172.55 1977.79,-169.11 1977.83,-176.11"/>
</g>
<!-- Node19&#45;&gt;Node20 -->
<g id="edge21" class="edge">
<title>Node19&#45;&gt;Node20</title>
<path fill="none" stroke="midnightblue" d="M1755.28,-147.94C1734.88,-151.91 1713.29,-156.1 1693.35,-159.97"/>
<polygon fill="midnightblue" stroke="midnightblue" points="1756.04,-151.36 1765.19,-146.02 1754.7,-144.49 1756.04,-151.36"/>
</g>
<!-- Node20&#45;&gt;Node12 -->
<g id="edge22" class="edge">
<title>Node20&#45;&gt;Node12</title>
<path fill="none" stroke="midnightblue" d="M1525.71,-191.83C1458.39,-203.77 1363.23,-218.75 1279,-225 1193.01,-231.38 1171.22,-225.65 1085,-225 1073.41,-224.91 1061.26,-224.78 1049.2,-224.63"/>
<polygon fill="midnightblue" stroke="midnightblue" points="1526.62,-195.22 1535.85,-190.02 1525.39,-188.33 1526.62,-195.22"/>
</g>
<!-- Node21 -->
<g id="node21" class="node">
<title>Node21</title>
<g id="a_node21"><a xlink:href="classdenoptim_1_1gui_1_1_g_u_i_vertex_inspector.html#ad9676f2418e5c4221fd7927d68cedad5" target="_top" xlink:title="Loads the fragments corresponding to the field index.">
<polygon fill="white" stroke="black" points="1315,-137 1315,-167 1495,-167 1495,-137 1315,-137"/>
<text text-anchor="start" x="1323" y="-155" font-family="Helvetica,sans-Serif" font-size="10.00">denoptim.gui.GUIVertexInspector.load</text>
<text text-anchor="middle" x="1405" y="-144" font-family="Helvetica,sans-Serif" font-size="10.00">CurrentVrtxIdxToViewer</text>
</a>
</g>
</g>
<!-- Node20&#45;&gt;Node21 -->
<g id="edge23" class="edge">
<title>Node20&#45;&gt;Node21</title>
<path fill="none" stroke="midnightblue" d="M1520.89,-164.7C1512.32,-163.76 1503.65,-162.8 1495.11,-161.85"/>
<polygon fill="midnightblue" stroke="midnightblue" points="1520.57,-168.19 1530.9,-165.81 1521.34,-161.23 1520.57,-168.19"/>
</g>
<!-- Node32 -->
<g id="node32" class="node">
<title>Node32</title>
<g id="a_node32"><a xlink:href="classdenoptim_1_1gui_1_1_g_u_i_vertex_selector.html#a9a6057c6f67098a32bd84f4f7bffe4a8" target="_top" xlink:title="Loads the vertices corresponding to the field index.">
<polygon fill="white" stroke="black" points="1317,-274 1317,-304 1493,-304 1493,-274 1317,-274"/>
<text text-anchor="start" x="1325" y="-292" font-family="Helvetica,sans-Serif" font-size="10.00">denoptim.gui.GUIVertexSelector.load</text>
<text text-anchor="middle" x="1405" y="-281" font-family="Helvetica,sans-Serif" font-size="10.00">CurrentVrtxIdxToViewer</text>
</a>
</g>
</g>
<!-- Node20&#45;&gt;Node32 -->
<g id="edge38" class="edge">
<title>Node20&#45;&gt;Node32</title>
<path fill="none" stroke="midnightblue" d="M1588.14,-196.6C1564.94,-215.14 1529.34,-241.56 1495,-259 1483.81,-264.68 1471.29,-269.66 1459.27,-273.85"/>
<polygon fill="midnightblue" stroke="midnightblue" points="1590.53,-199.17 1596.11,-190.16 1586.13,-193.73 1590.53,-199.17"/>
</g>
<!-- Node22 -->
<g id="node22" class="node">
<title>Node22</title>
<g id="a_node22"><a xlink:href="classdenoptim_1_1gui_1_1_g_u_i_vertex_inspector.html#a69d3deb57097286f9a01cdf256ec8d65" target="_top" xlink:title="Imports vertices.">
<polygon fill="white" stroke="black" points="1087.5,-39 1087.5,-69 1276.5,-69 1276.5,-39 1087.5,-39"/>
<text text-anchor="start" x="1095.5" y="-57" font-family="Helvetica,sans-Serif" font-size="10.00">denoptim.gui.GUIVertexInspector.import</text>
<text text-anchor="middle" x="1182" y="-46" font-family="Helvetica,sans-Serif" font-size="10.00">Vertices</text>
</a>
</g>
</g>
<!-- Node21&#45;&gt;Node22 -->
<g id="edge24" class="edge">
<title>Node21&#45;&gt;Node22</title>
<path fill="none" stroke="midnightblue" d="M1374.39,-131.12C1349.83,-114.65 1313.49,-92.17 1279,-78 1270.82,-74.64 1262.04,-71.66 1253.24,-69.04"/>
<polygon fill="midnightblue" stroke="midnightblue" points="1372.63,-134.16 1382.87,-136.89 1376.57,-128.37 1372.63,-134.16"/>
</g>
<!-- Node29 -->
<g id="node29" class="node">
<title>Node29</title>
<g id="a_node29"><a xlink:href="classdenoptim_1_1gui_1_1_g_u_i_vertex_inspector.html#a6e5cc3cb1cd2f98bf03934b3b2defa22" target="_top" xlink:title=" ">
<polygon fill="white" stroke="black" points="1085,-186 1085,-216 1279,-216 1279,-186 1085,-186"/>
<text text-anchor="start" x="1093" y="-204" font-family="Helvetica,sans-Serif" font-size="10.00">denoptim.gui.GUIVertexInspector.remove</text>
<text text-anchor="middle" x="1182" y="-193" font-family="Helvetica,sans-Serif" font-size="10.00">CurrentVrtx</text>
</a>
</g>
</g>
<!-- Node21&#45;&gt;Node29 -->
<g id="edge33" class="edge">
<title>Node21&#45;&gt;Node29</title>
<path fill="none" stroke="midnightblue" d="M1326.16,-169.26C1301.54,-174.72 1274.53,-180.71 1250.68,-185.99"/>
<polygon fill="midnightblue" stroke="midnightblue" points="1327.19,-172.62 1336.19,-167.03 1325.67,-165.78 1327.19,-172.62"/>
</g>
<!-- Node30 -->
<g id="node30" class="node">
<title>Node30</title>
<g id="a_node30"><a xlink:href="classdenoptim_1_1gui_1_1_g_u_i_vertex_inspector.html#a09363e21a5254efe8f128a99e82acbf0" target="_top" xlink:title=" ">
<polygon fill="white" stroke="black" points="1090.5,-88 1090.5,-118 1273.5,-118 1273.5,-88 1090.5,-88"/>
<text text-anchor="start" x="1098.5" y="-106" font-family="Helvetica,sans-Serif" font-size="10.00">denoptim.gui.GUIVertexInspector.save</text>
<text text-anchor="middle" x="1182" y="-95" font-family="Helvetica,sans-Serif" font-size="10.00">UnsavedChanges</text>
</a>
</g>
</g>
<!-- Node21&#45;&gt;Node30 -->
<g id="edge35" class="edge">
<title>Node21&#45;&gt;Node30</title>
<path fill="none" stroke="midnightblue" d="M1326.16,-134.74C1301.54,-129.28 1274.53,-123.29 1250.68,-118.01"/>
<polygon fill="midnightblue" stroke="midnightblue" points="1325.67,-138.22 1336.19,-136.97 1327.19,-131.38 1325.67,-138.22"/>
</g>
<!-- Node31 -->
<g id="node31" class="node">
<title>Node31</title>
<g id="a_node31"><a xlink:href="classdenoptim_1_1gui_1_1_g_u_i_vertex_inspector_1_1_vrtx_spinner_change_event.html#aca98b170c98a615d12f199d1ccdd26dd" target="_top" xlink:title=" ">
<polygon fill="white" stroke="black" points="1088.5,-137 1088.5,-167 1275.5,-167 1275.5,-137 1088.5,-137"/>
<text text-anchor="start" x="1096.5" y="-155" font-family="Helvetica,sans-Serif" font-size="10.00">denoptim.gui.GUIVertexInspector.</text>
<text text-anchor="middle" x="1182" y="-144" font-family="Helvetica,sans-Serif" font-size="10.00">VrtxSpinnerChangeEvent.stateChanged</text>
</a>
</g>
</g>
<!-- Node21&#45;&gt;Node31 -->
<g id="edge37" class="edge">
<title>Node21&#45;&gt;Node31</title>
<path fill="none" stroke="midnightblue" d="M1304.46,-152C1294.93,-152 1285.29,-152 1275.83,-152"/>
<polygon fill="midnightblue" stroke="midnightblue" points="1304.75,-155.5 1314.75,-152 1304.75,-148.5 1304.75,-155.5"/>
</g>
<!-- Node22&#45;&gt;Node12 -->
<g id="edge32" class="edge">
<title>Node22&#45;&gt;Node12</title>
<path fill="none" stroke="midnightblue" d="M1093.96,-73.22C1090.88,-74.7 1087.88,-76.29 1085,-78 1023.8,-114.34 973.92,-187.35 957.37,-213.45"/>
<polygon fill="midnightblue" stroke="midnightblue" points="1095.64,-76.31 1103.42,-69.13 1092.86,-69.89 1095.64,-76.31"/>
</g>
<!-- Node23 -->
<g id="node23" class="node">
<title>Node23</title>
<g id="a_node23"><a xlink:href="classdenoptim_1_1gui_1_1_g_u_i_vertex_inspector.html#a6698fa37bf04503e58c61f0543946834" target="_top" xlink:title="Imports fragments from a file.">
<polygon fill="white" stroke="black" points="856,-39 856,-69 1045,-69 1045,-39 856,-39"/>
<text text-anchor="start" x="864" y="-57" font-family="Helvetica,sans-Serif" font-size="10.00">denoptim.gui.GUIVertexInspector.import</text>
<text text-anchor="middle" x="950.5" y="-46" font-family="Helvetica,sans-Serif" font-size="10.00">VerticesFromFile</text>
</a>
</g>
</g>
<!-- Node22&#45;&gt;Node23 -->
<g id="edge25" class="edge">
<title>Node22&#45;&gt;Node23</title>
<path fill="none" stroke="midnightblue" d="M1077.17,-54C1066.54,-54 1055.77,-54 1045.25,-54"/>
<polygon fill="midnightblue" stroke="midnightblue" points="1077.32,-57.5 1087.32,-54 1077.32,-50.5 1077.32,-57.5"/>
</g>
<!-- Node24 -->
<g id="node24" class="node">
<title>Node24</title>
<g id="a_node24"><a xlink:href="classdenoptim_1_1gui_1_1_main_tool_bar.html#a1a2e06a2647032587d42155302b8c0a6" target="_top" xlink:title="Process a file that has a recognized file format and loads a suitable GUI card to visualize the file ...">
<polygon fill="white" stroke="black" points="620.5,-44.5 620.5,-63.5 787.5,-63.5 787.5,-44.5 620.5,-44.5"/>
<text text-anchor="middle" x="704" y="-51.5" font-family="Helvetica,sans-Serif" font-size="10.00">denoptim.gui.MainToolBar.openFile</text>
</a>
</g>
</g>
<!-- Node23&#45;&gt;Node24 -->
<g id="edge26" class="edge">
<title>Node23&#45;&gt;Node24</title>
<path fill="none" stroke="midnightblue" d="M845.64,-54C826.32,-54 806.38,-54 787.8,-54"/>
<polygon fill="midnightblue" stroke="midnightblue" points="845.67,-57.5 855.67,-54 845.67,-50.5 845.67,-57.5"/>
</g>
<!-- Node25 -->
<g id="node25" class="node">
<title>Node25</title>
<g id="a_node25"><a xlink:href="classdenoptim_1_1gui_1_1_main_tool_bar.html#a0df9ca063352fbc50f9476f3b2820926" target="_top" xlink:title="Initialize the contents of the tool bar.">
<polygon fill="white" stroke="black" points="167,-66.5 167,-85.5 332,-85.5 332,-66.5 167,-66.5"/>
<text text-anchor="middle" x="249.5" y="-73.5" font-family="Helvetica,sans-Serif" font-size="10.00">denoptim.gui.MainToolBar.initialize</text>
</a>
</g>
</g>
<!-- Node24&#45;&gt;Node25 -->
<g id="edge27" class="edge">
<title>Node24&#45;&gt;Node25</title>
<path fill="none" stroke="midnightblue" d="M646.44,-65.43C619.23,-70.37 586.05,-75.56 556,-78 472.72,-84.75 451.55,-78.71 368,-78 356.37,-77.9 344.1,-77.75 332.04,-77.57"/>
<polygon fill="midnightblue" stroke="midnightblue" points="647.37,-68.82 656.56,-63.56 646.09,-61.94 647.37,-68.82"/>
</g>
<!-- Node27 -->
<g id="node27" class="node">
<title>Node27</title>
<g id="a_node27"><a xlink:href="classdenoptim_1_1gui_1_1_g_u_i.html#a460fa99497f04de06d2adf8671a92441" target="_top" xlink:title="Launch the application.">
<polygon fill="white" stroke="black" points="408.5,-0.5 408.5,-19.5 515.5,-19.5 515.5,-0.5 408.5,-0.5"/>
<text text-anchor="middle" x="462" y="-7.5" font-family="Helvetica,sans-Serif" font-size="10.00">denoptim.gui.GUI.run</text>
</a>
</g>
</g>
<!-- Node24&#45;&gt;Node27 -->
<g id="edge29" class="edge">
<title>Node24&#45;&gt;Node27</title>
<path fill="none" stroke="midnightblue" d="M640.73,-42.58C601.67,-35.42 551.91,-26.3 514.97,-19.53"/>
<polygon fill="midnightblue" stroke="midnightblue" points="640.46,-46.09 650.92,-44.45 641.72,-39.21 640.46,-46.09"/>
</g>
<!-- Node28 -->
<g id="node28" class="node">
<title>Node28</title>
<g id="a_node28"><a xlink:href="classdenoptim_1_1gui_1_1_main_tool_bar.html#a94df24e485081c9b9d7441387f409e26" target="_top" xlink:title="Updated the the list of recent files in the &quot;open Recent&quot; menu.">
<polygon fill="white" stroke="black" points="382,-39 382,-69 542,-69 542,-39 382,-39"/>
<text text-anchor="start" x="390" y="-57" font-family="Helvetica,sans-Serif" font-size="10.00">denoptim.gui.MainToolBar.update</text>
<text text-anchor="middle" x="462" y="-46" font-family="Helvetica,sans-Serif" font-size="10.00">OpenRecentMenu</text>
</a>
</g>
</g>
<!-- Node24&#45;&gt;Node28 -->
<g id="edge30" class="edge">
<title>Node24&#45;&gt;Node28</title>
<path fill="none" stroke="midnightblue" d="M610.18,-54C587.7,-54 563.88,-54 542.1,-54"/>
<polygon fill="midnightblue" stroke="midnightblue" points="610.41,-57.5 620.41,-54 610.41,-50.5 610.41,-57.5"/>
</g>
<!-- Node26 -->
<g id="node26" class="node">
<title>Node26</title>
<g id="a_node26"><a xlink:href="classdenoptim_1_1gui_1_1_main_tool_bar.html#a36f4409849998e032342f49b19e6c5b5" target="_top" xlink:title="Constructor that build the tool bar.">
<polygon fill="white" stroke="black" points="0,-61 0,-91 131,-91 131,-61 0,-61"/>
<text text-anchor="start" x="8" y="-79" font-family="Helvetica,sans-Serif" font-size="10.00">denoptim.gui.MainToolBar.</text>
<text text-anchor="middle" x="65.5" y="-68" font-family="Helvetica,sans-Serif" font-size="10.00">MainToolBar</text>
</a>
</g>
</g>
<!-- Node25&#45;&gt;Node26 -->
<g id="edge28" class="edge">
<title>Node25&#45;&gt;Node26</title>
<path fill="none" stroke="midnightblue" d="M156.66,-76C147.99,-76 139.34,-76 131,-76"/>
<polygon fill="midnightblue" stroke="midnightblue" points="156.82,-79.5 166.82,-76 156.82,-72.5 156.82,-79.5"/>
</g>
<!-- Node28&#45;&gt;Node25 -->
<g id="edge31" class="edge">
<title>Node28&#45;&gt;Node25</title>
<path fill="none" stroke="midnightblue" d="M371.75,-63.33C358.62,-64.7 345.14,-66.11 332.16,-67.47"/>
<polygon fill="midnightblue" stroke="midnightblue" points="372.14,-66.81 381.72,-62.29 371.41,-59.84 372.14,-66.81"/>
</g>
<!-- Node29&#45;&gt;Node12 -->
<g id="edge34" class="edge">
<title>Node29&#45;&gt;Node12</title>
<path fill="none" stroke="midnightblue" d="M1074.68,-211.19C1066.14,-212.01 1057.53,-212.84 1049.06,-213.65"/>
<polygon fill="midnightblue" stroke="midnightblue" points="1075.05,-214.67 1084.67,-210.23 1074.38,-207.7 1075.05,-214.67"/>
</g>
<!-- Node30&#45;&gt;Node12 -->
<g id="edge36" class="edge">
<title>Node30&#45;&gt;Node12</title>
<path fill="none" stroke="midnightblue" d="M1098.53,-121.4C1093.89,-123.12 1089.35,-124.98 1085,-127 1034.5,-150.42 983.47,-193.86 962.03,-213.23"/>
<polygon fill="midnightblue" stroke="midnightblue" points="1099.86,-124.65 1108.17,-118.08 1097.57,-118.03 1099.86,-124.65"/>
</g>
<!-- Node33 -->
<g id="node33" class="node">
<title>Node33</title>
<g id="a_node33"><a xlink:href="classdenoptim_1_1gui_1_1_g_u_i_vertex_selector.html#a15c6a5de34e54f74d33c7c82f2a3125d" target="_top" xlink:title="Load the list of vertexes to choose from.">
<polygon fill="white" stroke="black" points="1094,-361.5 1094,-380.5 1270,-380.5 1270,-361.5 1094,-361.5"/>
<text text-anchor="middle" x="1182" y="-368.5" font-family="Helvetica,sans-Serif" font-size="10.00">denoptim.gui.GUIVertexSelector.load</text>
</a>
</g>
</g>
<!-- Node32&#45;&gt;Node33 -->
<g id="edge39" class="edge">
<title>Node32&#45;&gt;Node33</title>
<path fill="none" stroke="midnightblue" d="M1353.86,-307.6C1308.73,-324.35 1244.22,-348.28 1208.78,-361.44"/>
<polygon fill="midnightblue" stroke="midnightblue" points="1355.31,-310.8 1363.47,-304.04 1352.87,-304.24 1355.31,-310.8"/>
</g>
<!-- Node39 -->
<g id="node39" class="node">
<title>Node39</title>
<g id="a_node39"><a xlink:href="classdenoptim_1_1gui_1_1_g_u_i_vertex_selector_1_1_vrtx_spinner_change_event.html#aa4094444bbbf29fde85df9440ab5c0e7" target="_top" xlink:title=" ">
<polygon fill="white" stroke="black" points="1088.5,-274 1088.5,-304 1275.5,-304 1275.5,-274 1088.5,-274"/>
<text text-anchor="start" x="1096.5" y="-292" font-family="Helvetica,sans-Serif" font-size="10.00">denoptim.gui.GUIVertexSelector.</text>
<text text-anchor="middle" x="1182" y="-281" font-family="Helvetica,sans-Serif" font-size="10.00">VrtxSpinnerChangeEvent.stateChanged</text>
</a>
</g>
</g>
<!-- Node32&#45;&gt;Node39 -->
<g id="edge49" class="edge">
<title>Node32&#45;&gt;Node39</title>
<path fill="none" stroke="midnightblue" d="M1306.75,-289C1296.46,-289 1286.01,-289 1275.77,-289"/>
<polygon fill="midnightblue" stroke="midnightblue" points="1306.97,-292.5 1316.97,-289 1306.97,-285.5 1306.97,-292.5"/>
</g>
<!-- Node33&#45;&gt;Node12 -->
<g id="edge47" class="edge">
<title>Node33&#45;&gt;Node12</title>
<path fill="none" stroke="midnightblue" d="M1112.92,-358.62C1103.24,-355.55 1093.65,-351.73 1085,-347 1065.7,-336.43 1065.09,-328.02 1049,-313 1017.51,-283.6 980,-249.13 962.07,-232.68"/>
<polygon fill="midnightblue" stroke="midnightblue" points="1112.02,-362.01 1122.6,-361.46 1113.98,-355.29 1112.02,-362.01"/>
</g>
<!-- Node34 -->
<g id="node34" class="node">
<title>Node34</title>
<g id="a_node34"><a xlink:href="classdenoptim_1_1gui_1_1_g_u_i_graph_handler.html#af7024886a4203aa93d8cf7975f7c2e72" target="_top" xlink:title=" ">
<polygon fill="white" stroke="black" points="860,-356 860,-386 1041,-386 1041,-356 860,-356"/>
<text text-anchor="start" x="868" y="-374" font-family="Helvetica,sans-Serif" font-size="10.00">denoptim.gui.GUIGraphHandler.create</text>
<text text-anchor="middle" x="950.5" y="-363" font-family="Helvetica,sans-Serif" font-size="10.00">EmptyVertexAndPlaceItInGraph</text>
</a>
</g>
</g>
<!-- Node33&#45;&gt;Node34 -->
<g id="edge40" class="edge">
<title>Node33&#45;&gt;Node34</title>
<path fill="none" stroke="midnightblue" d="M1083.72,-371C1069.61,-371 1055.15,-371 1041.2,-371"/>
<polygon fill="midnightblue" stroke="midnightblue" points="1083.91,-374.5 1093.91,-371 1083.91,-367.5 1083.91,-374.5"/>
</g>
<!-- Node37 -->
<g id="node37" class="node">
<title>Node37</title>
<g id="a_node37"><a xlink:href="classdenoptim_1_1gui_1_1_g_u_i_graph_handler.html#a857bfe6291322daccf2af3fd9a28a356" target="_top" xlink:title="Start the construction of a new graph from scratch.">
<polygon fill="white" stroke="black" points="592,-400 592,-430 816,-430 816,-400 592,-400"/>
<text text-anchor="start" x="600" y="-418" font-family="Helvetica,sans-Serif" font-size="10.00">denoptim.gui.GUIGraphHandler.start</text>
<text text-anchor="middle" x="704" y="-407" font-family="Helvetica,sans-Serif" font-size="10.00">GraphFromFragSpaceOrCreationOfEmptyVertex</text>
</a>
</g>
</g>
<!-- Node33&#45;&gt;Node37 -->
<g id="edge48" class="edge">
<title>Node33&#45;&gt;Node37</title>
<path fill="none" stroke="midnightblue" d="M1128.42,-382.61C1104.33,-387.5 1075.34,-392.79 1049,-396 971.52,-405.44 883.64,-410.19 816.1,-412.58"/>
<polygon fill="midnightblue" stroke="midnightblue" points="1129.34,-385.99 1138.42,-380.54 1127.92,-379.14 1129.34,-385.99"/>
</g>
<!-- Node38 -->
<g id="node38" class="node">
<title>Node38</title>
<g id="a_node38"><a xlink:href="classdenoptim_1_1gui_1_1_g_u_i_graph_handler.html#a44e2ff798d22b73f966cb8393ceb4f18" target="_top" xlink:title="Extends the current graph by appending a node to a specific free AP on the growing graph.">
<polygon fill="white" stroke="black" points="613,-312 613,-342 795,-342 795,-312 613,-312"/>
<text text-anchor="start" x="621" y="-330" font-family="Helvetica,sans-Serif" font-size="10.00">denoptim.gui.GUIGraphHandler.extend</text>
<text text-anchor="middle" x="704" y="-319" font-family="Helvetica,sans-Serif" font-size="10.00">GraphFromFragSpace</text>
</a>
</g>
</g>
<!-- Node33&#45;&gt;Node38 -->
<g id="edge45" class="edge">
<title>Node33&#45;&gt;Node38</title>
<path fill="none" stroke="midnightblue" d="M1126.44,-359.54C1102.74,-354.96 1074.6,-350.06 1049,-347 963.17,-336.74 864.63,-331.69 795.08,-329.24"/>
<polygon fill="midnightblue" stroke="midnightblue" points="1125.81,-362.98 1136.3,-361.47 1127.16,-356.11 1125.81,-362.98"/>
</g>
<!-- Node35 -->
<g id="node35" class="node">
<title>Node35</title>
<g id="a_node35"><a xlink:href="classdenoptim_1_1gui_1_1_g_u_i_graph_handler.html#af5b000c105018cbd7c262b34f9750044" target="_top" xlink:title="Initialize the panel and add buttons.">
<polygon fill="white" stroke="black" points="368,-361.5 368,-380.5 556,-380.5 556,-361.5 368,-361.5"/>
<text text-anchor="middle" x="462" y="-368.5" font-family="Helvetica,sans-Serif" font-size="10.00">denoptim.gui.GUIGraphHandler.initialize</text>
</a>
</g>
</g>
<!-- Node34&#45;&gt;Node35 -->
<g id="edge41" class="edge">
<title>Node34&#45;&gt;Node35</title>
<path fill="none" stroke="midnightblue" d="M849.94,-371C763.83,-371 640.28,-371 556.11,-371"/>
<polygon fill="midnightblue" stroke="midnightblue" points="849.99,-374.5 859.99,-371 849.99,-367.5 849.99,-374.5"/>
</g>
<!-- Node34&#45;&gt;Node37 -->
<g id="edge43" class="edge">
<title>Node34&#45;&gt;Node37</title>
<path fill="none" stroke="midnightblue" d="M855.95,-387.84C833.75,-391.83 810.21,-396.07 788.5,-399.97"/>
<polygon fill="midnightblue" stroke="midnightblue" points="856.82,-391.24 866.04,-386.02 855.58,-384.35 856.82,-391.24"/>
</g>
<!-- Node36 -->
<g id="node36" class="node">
<title>Node36</title>
<g id="a_node36"><a xlink:href="classdenoptim_1_1gui_1_1_g_u_i_graph_handler.html#ab7d010d9a384f6b85edce47c95d6723b" target="_top" xlink:title="Constructor.">
<polygon fill="white" stroke="black" points="172.5,-356 172.5,-386 326.5,-386 326.5,-356 172.5,-356"/>
<text text-anchor="start" x="180.5" y="-374" font-family="Helvetica,sans-Serif" font-size="10.00">denoptim.gui.GUIGraphHandler.</text>
<text text-anchor="middle" x="249.5" y="-363" font-family="Helvetica,sans-Serif" font-size="10.00">GUIGraphHandler</text>
</a>
</g>
</g>
<!-- Node35&#45;&gt;Node36 -->
<g id="edge42" class="edge">
<title>Node35&#45;&gt;Node36</title>
<path fill="none" stroke="midnightblue" d="M357.73,-371C347.25,-371 336.75,-371 326.64,-371"/>
<polygon fill="midnightblue" stroke="midnightblue" points="357.75,-374.5 367.75,-371 357.75,-367.5 357.75,-374.5"/>
</g>
<!-- Node37&#45;&gt;Node35 -->
<g id="edge44" class="edge">
<title>Node37&#45;&gt;Node35</title>
<path fill="none" stroke="midnightblue" d="M611.07,-398.15C578.48,-392.17 542.96,-385.66 514.89,-380.51"/>
<polygon fill="midnightblue" stroke="midnightblue" points="610.61,-401.62 621.08,-399.98 611.87,-394.73 610.61,-401.62"/>
</g>
<!-- Node38&#45;&gt;Node35 -->
<g id="edge46" class="edge">
<title>Node38&#45;&gt;Node35</title>
<path fill="none" stroke="midnightblue" d="M611.07,-343.85C578.48,-349.83 542.96,-356.34 514.89,-361.49"/>
<polygon fill="midnightblue" stroke="midnightblue" points="611.87,-347.27 621.08,-342.02 610.61,-340.38 611.87,-347.27"/>
</g>
<!-- Node41 -->
<g id="node41" class="node">
<title>Node41</title>
<g id="a_node41"><a xlink:href="classdenoptim_1_1gui_1_1_graph_vertex_mol_viewer_panel.html#abab3007ca39f050b3b9916c4bcc994ca" target="_top" xlink:title="Loads the given graph into the graph viewer.">
<polygon fill="white" stroke="black" points="1765,-203.5 1765,-244.5 1922,-244.5 1922,-203.5 1765,-203.5"/>
<text text-anchor="start" x="1773" y="-232.5" font-family="Helvetica,sans-Serif" font-size="10.00">denoptim.gui.GraphVertex</text>
<text text-anchor="start" x="1773" y="-221.5" font-family="Helvetica,sans-Serif" font-size="10.00">MolViewerPanel.loadDnGraphTo</text>
<text text-anchor="middle" x="1843.5" y="-210.5" font-family="Helvetica,sans-Serif" font-size="10.00">Viewer</text>
</a>
</g>
</g>
<!-- Node40&#45;&gt;Node41 -->
<g id="edge52" class="edge">
<title>Node40&#45;&gt;Node41</title>
<path fill="none" stroke="midnightblue" d="M1984.11,-225.23C1963.76,-225.05 1942.19,-224.86 1922.26,-224.69"/>
<polygon fill="midnightblue" stroke="midnightblue" points="1984.29,-228.73 1994.32,-225.32 1984.35,-221.73 1984.29,-228.73"/>
</g>
<!-- Node42 -->
<g id="node42" class="node">
<title>Node42</title>
<g id="a_node42"><a xlink:href="classdenoptim_1_1gui_1_1_graph_vertex_mol_viewer_panel_1_1_node_clicked_listener.html#a4c7c2b6e03029c1850296cda96c5d6bc" target="_top" xlink:title=" ">
<polygon fill="white" stroke="black" points="1735,-263.5 1735,-304.5 1952,-304.5 1952,-263.5 1735,-263.5"/>
<text text-anchor="start" x="1743" y="-292.5" font-family="Helvetica,sans-Serif" font-size="10.00">denoptim.gui.GraphVertex</text>
<text text-anchor="start" x="1743" y="-281.5" font-family="Helvetica,sans-Serif" font-size="10.00">MolViewerPanel.NodeClickedListener.property</text>
<text text-anchor="middle" x="1843.5" y="-270.5" font-family="Helvetica,sans-Serif" font-size="10.00">Change</text>
</a>
</g>
</g>
<!-- Node40&#45;&gt;Node42 -->
<g id="edge53" class="edge">
<title>Node40&#45;&gt;Node42</title>
<path fill="none" stroke="midnightblue" d="M1984.46,-248.16C1964.79,-253.2 1943.97,-258.53 1924.58,-263.49"/>
<polygon fill="midnightblue" stroke="midnightblue" points="1985.5,-251.51 1994.32,-245.64 1983.76,-244.73 1985.5,-251.51"/>
</g>
</g>
</svg>
