<?xml version="1.0" encoding="UTF-8" standalone="no"?>
<!DOCTYPE svg PUBLIC "-//W3C//DTD SVG 1.1//EN"
 "http://www.w3.org/Graphics/SVG/1.1/DTD/svg11.dtd">
<!-- Generated by graphviz version 3.0.0 (20220413.0242)
 -->
<!-- Title: denoptim.utils.GeneralUtils.unionOfIntersectingSets Pages: 1 -->
<!--zoomable 219 -->
<svg id="main" version="1.1" xmlns="http://www.w3.org/2000/svg" xmlns:xlink="http://www.w3.org/1999/xlink" xml:space="preserve" onload="init(evt)">
<style type="text/css"><![CDATA[
.edge:hover path { stroke: red; }
.edge:hover polygon { stroke: red; fill: red; }
]]></style>
<script type="text/javascript"><![CDATA[
var edges = document.getElementsByTagName('g');
if (edges && edges.length) {
  for (var i=0;i<edges.length;i++) {
    if (edges[i].id.substr(0,4)=='edge') {
      edges[i].setAttribute('class','edge');
    }
  }
}
]]></script>
        <defs>
                <circle id="rim" cx="0" cy="0" r="7"/>
                <circle id="rim2" cx="0" cy="0" r="3.5"/>
                <g id="zoomPlus">
                        <use xlink:href="#rim" fill="#404040">
                                <set attributeName="fill" to="#808080" begin="zoomplus.mouseover" end="zoomplus.mouseout"/>
                        </use>
                        <path d="M-4,0h8M0,-4v8" fill="none" stroke="white" stroke-width="1.5" pointer-events="none"/>
                </g>
                <g id="zoomMin">
                        <use xlink:href="#rim" fill="#404040">
                                <set attributeName="fill" to="#808080" begin="zoomminus.mouseover" end="zoomminus.mouseout"/>
                        </use>
                        <path d="M-4,0h8" fill="none" stroke="white" stroke-width="1.5" pointer-events="none"/>
                </g>
                <g id="dirArrow">
                        <path fill="none" stroke="white" stroke-width="1.5" d="M0,-3.0v7 M-2.5,-0.5L0,-3.0L2.5,-0.5"/>
                </g>
               <g id="resetDef">
                       <use xlink:href="#rim2" fill="#404040">
                               <set attributeName="fill" to="#808080" begin="reset.mouseover" end="reset.mouseout"/>
                       </use>
               </g>
        </defs>

<script type="text/javascript">
var viewWidth = 589;
var viewHeight = 219;
var sectionId = 'dynsection-3';
</script>
<script xlink:href="svgpan.js"/>
<svg id="graph" class="graph">
<g id="viewport">
<title>denoptim.utils.GeneralUtils.unionOfIntersectingSets</title>
<polygon fill="white" stroke="transparent" points="-4,4 -4,-214.5 585,-214.5 585,4 -4,4"/>
<!-- Node1 -->
<g id="node1" class="node">
<title>Node1</title>
<g id="a_node1"><a xlink:title="Takes the union of any two sets in this list that intersect.">
<polygon fill="#bfbfbf" stroke="black" points="423,-71 423,-101 581,-101 581,-71 423,-71"/>
<text text-anchor="start" x="431" y="-89" font-family="Helvetica,sans-Serif" font-size="10.00">denoptim.utils.GeneralUtils.union</text>
<text text-anchor="middle" x="502" y="-78" font-family="Helvetica,sans-Serif" font-size="10.00">OfIntersectingSets</text>
</a>
</g>
</g>
<!-- Node2 -->
<g id="node2" class="node">
<title>Node2</title>
<g id="a_node2"><a xlink:href="classdenoptim_1_1graph_1_1_d_graph.html#a6fe5ab71083430bbab0b7d2e2f139c3a" target="_top" xlink:title="Extracts subgraphs that match the provided pattern.">
<polygon fill="white" stroke="black" points="235,-96 235,-126 384,-126 384,-96 235,-96"/>
<text text-anchor="start" x="243" y="-114" font-family="Helvetica,sans-Serif" font-size="10.00">denoptim.graph.DGraph.extract</text>
<text text-anchor="middle" x="309.5" y="-103" font-family="Helvetica,sans-Serif" font-size="10.00">Pattern</text>
</a>
</g>
</g>
<!-- Node1&#45;&gt;Node2 -->
<g id="edge1" class="edge">
<title>Node1&#45;&gt;Node2</title>
<path fill="none" stroke="midnightblue" d="M412.96,-97.55C403.31,-98.82 393.56,-100.1 384.12,-101.34"/>
<polygon fill="midnightblue" stroke="midnightblue" points="413.51,-101.01 422.97,-96.24 412.6,-94.07 413.51,-101.01"/>
</g>
<!-- Node7 -->
<g id="node7" class="node">
<title>Node7</title>
<g id="a_node7"><a xlink:href="classdenoptim_1_1utils_1_1_gen_utils_test.html#a0a0d440317ec08c08daee5651d16a810" target="_top" xlink:title=" ">
<polygon fill="white" stroke="black" points="232,-47 232,-77 387,-77 387,-47 232,-47"/>
<text text-anchor="start" x="240" y="-65" font-family="Helvetica,sans-Serif" font-size="10.00">denoptim.utils.GenUtilsTest.test</text>
<text text-anchor="middle" x="309.5" y="-54" font-family="Helvetica,sans-Serif" font-size="10.00">UnionOfSets</text>
</a>
</g>
</g>
<!-- Node1&#45;&gt;Node7 -->
<g id="edge6" class="edge">
<title>Node1&#45;&gt;Node7</title>
<path fill="none" stroke="midnightblue" d="M412.93,-74.9C404.33,-73.82 395.65,-72.73 387.18,-71.66"/>
<polygon fill="midnightblue" stroke="midnightblue" points="412.61,-78.39 422.97,-76.17 413.48,-71.45 412.61,-78.39"/>
</g>
<!-- Node3 -->
<g id="node3" class="node">
<title>Node3</title>
<g id="a_node3"><a xlink:href="classdenoptim_1_1fragspace_1_1_fragment_space.html#a32b0be109306e9c81fc830867296bc66" target="_top" xlink:title="Extracts a system of one or more fused rings and adds them to the fragment space if not already prese...">
<polygon fill="white" stroke="black" points="0,-180 0,-210 196,-210 196,-180 0,-180"/>
<text text-anchor="start" x="8" y="-198" font-family="Helvetica,sans-Serif" font-size="10.00">denoptim.fragspace.Fragment</text>
<text text-anchor="middle" x="98" y="-187" font-family="Helvetica,sans-Serif" font-size="10.00">Space.addFusedRingsToFragmentLibrary</text>
</a>
</g>
</g>
<!-- Node2&#45;&gt;Node3 -->
<g id="edge2" class="edge">
<title>Node2&#45;&gt;Node3</title>
<path fill="none" stroke="midnightblue" d="M275.44,-131.44C253.55,-144.26 223.85,-160.32 196,-171 187.33,-174.32 178.05,-177.31 168.79,-179.95"/>
<polygon fill="midnightblue" stroke="midnightblue" points="277.5,-134.29 284.31,-126.17 273.93,-128.27 277.5,-134.29"/>
</g>
<!-- Node4 -->
<g id="node4" class="node">
<title>Node4</title>
<g id="a_node4"><a xlink:href="classdenoptim_1_1ga_1_1_graph_operations_test.html#a81e15cea05ce67c5b0c2af89d301d072" target="_top" xlink:title=" ">
<polygon fill="white" stroke="black" points="25.5,-120.5 25.5,-161.5 170.5,-161.5 170.5,-120.5 25.5,-120.5"/>
<text text-anchor="start" x="33.5" y="-149.5" font-family="Helvetica,sans-Serif" font-size="10.00">denoptim.ga.GraphOperations</text>
<text text-anchor="start" x="33.5" y="-138.5" font-family="Helvetica,sans-Serif" font-size="10.00">Test.testExtractPattern</text>
<text text-anchor="middle" x="98" y="-127.5" font-family="Helvetica,sans-Serif" font-size="10.00">_fusedRings</text>
</a>
</g>
</g>
<!-- Node2&#45;&gt;Node4 -->
<g id="edge3" class="edge">
<title>Node2&#45;&gt;Node4</title>
<path fill="none" stroke="midnightblue" d="M225.03,-122.95C207.02,-125.53 188.14,-128.24 170.63,-130.74"/>
<polygon fill="midnightblue" stroke="midnightblue" points="225.53,-126.42 234.93,-121.53 224.54,-119.49 225.53,-126.42"/>
</g>
<!-- Node5 -->
<g id="node5" class="node">
<title>Node5</title>
<g id="a_node5"><a xlink:href="classdenoptim_1_1ga_1_1_graph_operations_test.html#a51afdfc40faf5bcc51609ddef161f078" target="_top" xlink:title=" ">
<polygon fill="white" stroke="black" points="25.5,-60.5 25.5,-101.5 170.5,-101.5 170.5,-60.5 25.5,-60.5"/>
<text text-anchor="start" x="33.5" y="-89.5" font-family="Helvetica,sans-Serif" font-size="10.00">denoptim.ga.GraphOperations</text>
<text text-anchor="start" x="33.5" y="-78.5" font-family="Helvetica,sans-Serif" font-size="10.00">Test.testExtractPattern</text>
<text text-anchor="middle" x="98" y="-67.5" font-family="Helvetica,sans-Serif" font-size="10.00">_returnsEmptyListIfNoRings</text>
</a>
</g>
</g>
<!-- Node2&#45;&gt;Node5 -->
<g id="edge4" class="edge">
<title>Node2&#45;&gt;Node5</title>
<path fill="none" stroke="midnightblue" d="M225.03,-99.05C207.02,-96.47 188.14,-93.76 170.63,-91.26"/>
<polygon fill="midnightblue" stroke="midnightblue" points="224.54,-102.51 234.93,-100.47 225.53,-95.58 224.54,-102.51"/>
</g>
<!-- Node6 -->
<g id="node6" class="node">
<title>Node6</title>
<g id="a_node6"><a xlink:href="classdenoptim_1_1ga_1_1_graph_operations_test.html#a161540d22b2ad17c44fc3e1a911a1367" target="_top" xlink:title=" ">
<polygon fill="white" stroke="black" points="25.5,-0.5 25.5,-41.5 170.5,-41.5 170.5,-0.5 25.5,-0.5"/>
<text text-anchor="start" x="33.5" y="-29.5" font-family="Helvetica,sans-Serif" font-size="10.00">denoptim.ga.GraphOperations</text>
<text text-anchor="start" x="33.5" y="-18.5" font-family="Helvetica,sans-Serif" font-size="10.00">Test.testExtractPattern</text>
<text text-anchor="middle" x="98" y="-7.5" font-family="Helvetica,sans-Serif" font-size="10.00">_singleRingSystem</text>
</a>
</g>
</g>
<!-- Node2&#45;&gt;Node6 -->
<g id="edge5" class="edge">
<title>Node2&#45;&gt;Node6</title>
<path fill="none" stroke="midnightblue" d="M240.74,-91.76C237.73,-90.28 234.8,-88.69 232,-87 212.65,-75.28 215.38,-62.69 196,-51 188.15,-46.27 179.49,-42.22 170.67,-38.77"/>
<polygon fill="midnightblue" stroke="midnightblue" points="239.42,-95.01 249.98,-95.91 242.29,-88.62 239.42,-95.01"/>
</g>
</g>
</svg>
        <g id="navigator" transform="translate(0 0)" fill="#404254">
                <rect fill="#f2f5e9" fill-opacity="0.5" stroke="#606060" stroke-width=".5" x="0" y="0" width="60" height="60"/>
                <use id="zoomplus" xlink:href="#zoomPlus" x="17" y="9" onmousedown="handleZoom(evt,'in')"/>
                <use id="zoomminus" xlink:href="#zoomMin" x="42" y="9" onmousedown="handleZoom(evt,'out')"/>
                <use id="reset" xlink:href="#resetDef" x="30" y="36" onmousedown="handleReset()"/>
                <g id="arrowUp" xlink:href="#dirArrow" transform="translate(30 24)" onmousedown="handlePan(0,-1)">
                  <use xlink:href="#rim" fill="#404040">
                        <set attributeName="fill" to="#808080" begin="arrowUp.mouseover" end="arrowUp.mouseout"/>
                  </use>
                  <path fill="none" stroke="white" stroke-width="1.5" d="M0,-3.0v7 M-2.5,-0.5L0,-3.0L2.5,-0.5"/>
                </g>
                <g id="arrowRight" xlink:href="#dirArrow" transform="rotate(90) translate(36 -43)" onmousedown="handlePan(1,0)">
                  <use xlink:href="#rim" fill="#404040">
                        <set attributeName="fill" to="#808080" begin="arrowRight.mouseover" end="arrowRight.mouseout"/>
                  </use>
                  <path fill="none" stroke="white" stroke-width="1.5" d="M0,-3.0v7 M-2.5,-0.5L0,-3.0L2.5,-0.5"/>
                </g>
                <g id="arrowDown" xlink:href="#dirArrow" transform="rotate(180) translate(-30 -48)" onmousedown="handlePan(0,1)">
                  <use xlink:href="#rim" fill="#404040">
                        <set attributeName="fill" to="#808080" begin="arrowDown.mouseover" end="arrowDown.mouseout"/>
                  </use>
                  <path fill="none" stroke="white" stroke-width="1.5" d="M0,-3.0v7 M-2.5,-0.5L0,-3.0L2.5,-0.5"/>
                </g>
                <g id="arrowLeft" xlink:href="#dirArrow" transform="rotate(270) translate(-36 17)" onmousedown="handlePan(-1,0)">
                  <use xlink:href="#rim" fill="#404040">
                        <set attributeName="fill" to="#808080" begin="arrowLeft.mouseover" end="arrowLeft.mouseout"/>
                  </use>
                  <path fill="none" stroke="white" stroke-width="1.5" d="M0,-3.0v7 M-2.5,-0.5L0,-3.0L2.5,-0.5"/>
                </g>
        </g>
        <svg viewBox="0 0 15 15" width="100%" height="30px" preserveAspectRatio="xMaxYMin meet">
         <g id="arrow_out" transform="scale(0.3 0.3)">
          <a xlink:href="classdenoptim_1_1utils_1_1_general_utils_ae1f0fdd37ef9401e17df1f19191389a4_icgraph_org.svg" target="_base">
           <rect id="button" ry="5" rx="5" y="6" x="6" height="38" width="38"
                fill="#f2f5e9" fill-opacity="0.5" stroke="#606060" stroke-width="1.0"/>
           <path id="arrow"
             d="M 11.500037,31.436501 C 11.940474,20.09759 22.043105,11.32322 32.158766,21.979434 L 37.068811,17.246167 C 37.068811,17.246167 37.088388,32 37.088388,32 L 22.160133,31.978069 C 22.160133,31.978069 26.997745,27.140456 26.997745,27.140456 C 18.528582,18.264221 13.291696,25.230495 11.500037,31.436501 z"
             style="fill:#404040;"/>
          </a>
         </g>
        </svg>
</svg>
