<?xml version="1.0" encoding="UTF-8" standalone="no"?>
<!DOCTYPE svg PUBLIC "-//W3C//DTD SVG 1.1//EN"
 "http://www.w3.org/Graphics/SVG/1.1/DTD/svg11.dtd">
<!-- Generated by graphviz version 3.0.0 (20220413.0242)
 -->
<!-- Title: denoptim.graph.Vertex.DENOPTIMVertexDeserializer.deserialize Pages: 1 -->
<!--zoomable 708 -->
<svg id="main" version="1.1" xmlns="http://www.w3.org/2000/svg" xmlns:xlink="http://www.w3.org/1999/xlink" xml:space="preserve" onload="init(evt)">
<style type="text/css"><![CDATA[
.edge:hover path { stroke: red; }
.edge:hover polygon { stroke: red; fill: red; }
]]></style>
<script type="text/javascript"><![CDATA[
var edges = document.getElementsByTagName('g');
if (edges && edges.length) {
  for (var i=0;i<edges.length;i++) {
    if (edges[i].id.substr(0,4)=='edge') {
      edges[i].setAttribute('class','edge');
    }
  }
}
]]></script>
        <defs>
                <circle id="rim" cx="0" cy="0" r="7"/>
                <circle id="rim2" cx="0" cy="0" r="3.5"/>
                <g id="zoomPlus">
                        <use xlink:href="#rim" fill="#404040">
                                <set attributeName="fill" to="#808080" begin="zoomplus.mouseover" end="zoomplus.mouseout"/>
                        </use>
                        <path d="M-4,0h8M0,-4v8" fill="none" stroke="white" stroke-width="1.5" pointer-events="none"/>
                </g>
                <g id="zoomMin">
                        <use xlink:href="#rim" fill="#404040">
                                <set attributeName="fill" to="#808080" begin="zoomminus.mouseover" end="zoomminus.mouseout"/>
                        </use>
                        <path d="M-4,0h8" fill="none" stroke="white" stroke-width="1.5" pointer-events="none"/>
                </g>
                <g id="dirArrow">
                        <path fill="none" stroke="white" stroke-width="1.5" d="M0,-3.0v7 M-2.5,-0.5L0,-3.0L2.5,-0.5"/>
                </g>
               <g id="resetDef">
                       <use xlink:href="#rim2" fill="#404040">
                               <set attributeName="fill" to="#808080" begin="reset.mouseover" end="reset.mouseout"/>
                       </use>
               </g>
        </defs>

<script type="text/javascript">
var viewWidth = 1390;
var viewHeight = 708;
var sectionId = 'dynsection-2';
</script>
<script xlink:href="svgpan.js"/>
<svg id="graph" class="graph">
<g id="viewport">
<title>denoptim.graph.Vertex.DENOPTIMVertexDeserializer.deserialize</title>
<polygon fill="white" stroke="transparent" points="-4,4 -4,-703.5 1386,-703.5 1386,4 -4,4"/>
<!-- Node1 -->
<g id="node1" class="node">
<title>Node1</title>
<g id="a_node1"><a xlink:title=" ">
<polygon fill="#bfbfbf" stroke="black" points="0,-526 0,-556 194,-556 194,-526 0,-526"/>
<text text-anchor="start" x="8" y="-544" font-family="Helvetica,sans-Serif" font-size="10.00">denoptim.graph.Vertex.DENOPTIMVertex</text>
<text text-anchor="middle" x="97" y="-533" font-family="Helvetica,sans-Serif" font-size="10.00">Deserializer.deserialize</text>
</a>
</g>
</g>
<!-- Node2 -->
<g id="node2" class="node">
<title>Node2</title>
<g id="a_node2"><a xlink:href="classdenoptim_1_1graph_1_1_empty_vertex.html#a007344403b58d841992afa5bd3362256" target="_top" xlink:title="Reads a JSON string and returns an instance of this class.">
<polygon fill="white" stroke="black" points="230,-587.5 230,-606.5 412,-606.5 412,-587.5 230,-587.5"/>
<text text-anchor="middle" x="321" y="-594.5" font-family="Helvetica,sans-Serif" font-size="10.00">denoptim.graph.EmptyVertex.fromJson</text>
</a>
</g>
</g>
<!-- Node1&#45;&gt;Node2 -->
<g id="edge1" class="edge">
<title>Node1&#45;&gt;Node2</title>
<path fill="none" stroke="midnightblue" d="M148.57,-556.01C173.06,-563.06 202.96,-571.36 230,-578 240.23,-580.51 251.15,-582.99 261.74,-585.28"/>
<polygon fill="midnightblue" stroke="midnightblue" points="261.25,-588.75 271.76,-587.42 262.71,-581.91 261.25,-588.75"/>
</g>
<!-- Node7 -->
<g id="node7" class="node">
<title>Node7</title>
<g id="a_node7"><a xlink:href="classdenoptim_1_1graph_1_1_fragment.html#ac54b13faabd9aaef2f6fbcf41d5310f7" target="_top" xlink:title="Reads a JSON string and returns an instance of this class.">
<polygon fill="white" stroke="black" points="236.5,-531.5 236.5,-550.5 405.5,-550.5 405.5,-531.5 236.5,-531.5"/>
<text text-anchor="middle" x="321" y="-538.5" font-family="Helvetica,sans-Serif" font-size="10.00">denoptim.graph.Fragment.fromJson</text>
</a>
</g>
</g>
<!-- Node1&#45;&gt;Node7 -->
<g id="edge7" class="edge">
<title>Node1&#45;&gt;Node7</title>
<path fill="none" stroke="midnightblue" d="M194.08,-541C204.74,-541 215.58,-541 226.21,-541"/>
<polygon fill="midnightblue" stroke="midnightblue" points="226.32,-544.5 236.32,-541 226.32,-537.5 226.32,-544.5"/>
</g>
<!-- Node12 -->
<g id="node12" class="node">
<title>Node12</title>
<g id="a_node12"><a xlink:href="classdenoptim_1_1graph_1_1_template.html#a1918656a5c1deed84daddfcf84757a3b" target="_top" xlink:title="Reads a JSON string and returns an instance of this class.">
<polygon fill="white" stroke="black" points="237,-377.5 237,-396.5 405,-396.5 405,-377.5 237,-377.5"/>
<text text-anchor="middle" x="321" y="-384.5" font-family="Helvetica,sans-Serif" font-size="10.00">denoptim.graph.Template.fromJson</text>
</a>
</g>
</g>
<!-- Node1&#45;&gt;Node12 -->
<g id="edge14" class="edge">
<title>Node1&#45;&gt;Node12</title>
<path fill="none" stroke="midnightblue" d="M119.69,-525.95C162.06,-496.56 255.41,-431.81 298.02,-402.25"/>
<polygon fill="midnightblue" stroke="midnightblue" points="300.08,-405.08 306.3,-396.5 296.09,-399.33 300.08,-405.08"/>
</g>
<!-- Node2&#45;&gt;Node2 -->
<g id="edge2" class="edge">
<title>Node2&#45;&gt;Node2</title>
<path fill="none" stroke="midnightblue" d="M289.25,-606.76C273.8,-615.57 284.39,-625 321,-625 347.32,-625 360.18,-620.13 359.61,-614.11"/>
<polygon fill="midnightblue" stroke="midnightblue" points="362.13,-611.69 352.75,-606.76 357.01,-616.46 362.13,-611.69"/>
</g>
<!-- Node3 -->
<g id="node3" class="node">
<title>Node3</title>
<g id="a_node3"><a xlink:href="classdenoptim_1_1graph_1_1_empty_vertex.html#afa1da6d6552c046f4c09f3ab030badfe" target="_top" xlink:title=" ">
<polygon fill="white" stroke="black" points="451,-669 451,-699 606,-699 606,-669 451,-669"/>
<text text-anchor="start" x="459" y="-687" font-family="Helvetica,sans-Serif" font-size="10.00">denoptim.graph.EmptyVertex.get</text>
<text text-anchor="middle" x="528.5" y="-676" font-family="Helvetica,sans-Serif" font-size="10.00">AttachmentPoints</text>
</a>
</g>
</g>
<!-- Node2&#45;&gt;Node3 -->
<g id="edge3" class="edge">
<title>Node2&#45;&gt;Node3</title>
<path fill="none" stroke="midnightblue" d="M338.7,-606.5C362.43,-619.74 407.55,-643.92 448,-660 453.02,-662 458.28,-663.92 463.6,-665.76"/>
<polygon fill="midnightblue" stroke="midnightblue" points="462.6,-669.11 473.19,-668.96 464.81,-662.47 462.6,-669.11"/>
</g>
<!-- Node4 -->
<g id="node4" class="node">
<title>Node4</title>
<g id="a_node4"><a xlink:href="classdenoptim_1_1json_1_1_d_e_n_o_p_t_i_mgson.html#a3e85cb26bb2f36407e309e41880ef191" target="_top" xlink:title=" ">
<polygon fill="white" stroke="black" points="645,-482 645,-512 812,-512 812,-482 645,-482"/>
<text text-anchor="start" x="653" y="-500" font-family="Helvetica,sans-Serif" font-size="10.00">denoptim.json.DENOPTIMgson.get</text>
<text text-anchor="middle" x="728.5" y="-489" font-family="Helvetica,sans-Serif" font-size="10.00">Reader</text>
</a>
</g>
</g>
<!-- Node2&#45;&gt;Node4 -->
<g id="edge4" class="edge">
<title>Node2&#45;&gt;Node4</title>
<path fill="none" stroke="midnightblue" d="M412.15,-599.98C469.84,-599.28 545.5,-593.44 609,-572 643.77,-560.26 678.68,-536.34 701.51,-518.66"/>
<polygon fill="midnightblue" stroke="midnightblue" points="703.97,-521.17 709.64,-512.22 699.63,-515.68 703.97,-521.17"/>
</g>
<!-- Node5 -->
<g id="node5" class="node">
<title>Node5</title>
<g id="a_node5"><a xlink:href="classdenoptim_1_1json_1_1_d_e_n_o_p_t_i_mgson.html#aa14de224ae5d1ae5156f11d5715d360c" target="_top" xlink:title=" ">
<polygon fill="white" stroke="black" points="848,-482 848,-512 1015,-512 1015,-482 848,-482"/>
<text text-anchor="start" x="856" y="-500" font-family="Helvetica,sans-Serif" font-size="10.00">denoptim.json.DENOPTIMgson.get</text>
<text text-anchor="middle" x="931.5" y="-489" font-family="Helvetica,sans-Serif" font-size="10.00">Instance</text>
</a>
</g>
</g>
<!-- Node4&#45;&gt;Node5 -->
<g id="edge5" class="edge">
<title>Node4&#45;&gt;Node5</title>
<path fill="none" stroke="midnightblue" d="M812.12,-497C820.61,-497 829.27,-497 837.85,-497"/>
<polygon fill="midnightblue" stroke="midnightblue" points="837.87,-500.5 847.87,-497 837.87,-493.5 837.87,-500.5"/>
</g>
<!-- Node6 -->
<g id="node6" class="node">
<title>Node6</title>
<g id="a_node6"><a xlink:href="classdenoptim_1_1json_1_1_d_e_n_o_p_t_i_mgson.html#a4aafec42bd09225870fdf330db93b84c" target="_top" xlink:title=" ">
<polygon fill="white" stroke="black" points="1051,-482 1051,-512 1205,-512 1205,-482 1051,-482"/>
<text text-anchor="start" x="1059" y="-500" font-family="Helvetica,sans-Serif" font-size="10.00">denoptim.json.DENOPTIMgson.</text>
<text text-anchor="middle" x="1128" y="-489" font-family="Helvetica,sans-Serif" font-size="10.00">DENOPTIMgson</text>
</a>
</g>
</g>
<!-- Node5&#45;&gt;Node6 -->
<g id="edge6" class="edge">
<title>Node5&#45;&gt;Node6</title>
<path fill="none" stroke="midnightblue" d="M1015.27,-497C1023.65,-497 1032.17,-497 1040.59,-497"/>
<polygon fill="midnightblue" stroke="midnightblue" points="1040.79,-500.5 1050.79,-497 1040.79,-493.5 1040.79,-500.5"/>
</g>
<!-- Node7&#45;&gt;Node4 -->
<g id="edge10" class="edge">
<title>Node7&#45;&gt;Node4</title>
<path fill="none" stroke="midnightblue" d="M384.41,-531.47C404.66,-528.54 427.26,-525.44 448,-523 510.19,-515.67 580.37,-509.15 634.85,-504.47"/>
<polygon fill="midnightblue" stroke="midnightblue" points="635.17,-507.95 644.84,-503.62 634.57,-500.98 635.17,-507.95"/>
</g>
<!-- Node7&#45;&gt;Node7 -->
<g id="edge8" class="edge">
<title>Node7&#45;&gt;Node7</title>
<path fill="none" stroke="midnightblue" d="M289.25,-550.76C273.8,-559.57 284.39,-569 321,-569 347.32,-569 360.18,-564.13 359.61,-558.11"/>
<polygon fill="midnightblue" stroke="midnightblue" points="362.13,-555.69 352.75,-550.76 357.01,-560.46 362.13,-555.69"/>
</g>
<!-- Node8 -->
<g id="node8" class="node">
<title>Node8</title>
<g id="a_node8"><a xlink:href="classdenoptim_1_1graph_1_1_fragment.html#a9f0d8233f6ed31316409d643b5e0f0cd" target="_top" xlink:title=" ">
<polygon fill="white" stroke="black" points="457.5,-532 457.5,-562 599.5,-562 599.5,-532 457.5,-532"/>
<text text-anchor="start" x="465.5" y="-550" font-family="Helvetica,sans-Serif" font-size="10.00">denoptim.graph.Fragment.get</text>
<text text-anchor="middle" x="528.5" y="-539" font-family="Helvetica,sans-Serif" font-size="10.00">AttachmentPoints</text>
</a>
</g>
</g>
<!-- Node7&#45;&gt;Node8 -->
<g id="edge9" class="edge">
<title>Node7&#45;&gt;Node8</title>
<path fill="none" stroke="midnightblue" d="M405.58,-543.44C419.31,-543.84 433.51,-544.26 447.15,-544.65"/>
<polygon fill="midnightblue" stroke="midnightblue" points="447.36,-548.16 457.46,-544.96 447.57,-541.16 447.36,-548.16"/>
</g>
<!-- Node9 -->
<g id="node9" class="node">
<title>Node9</title>
<g id="a_node9"><a xlink:href="classdenoptim_1_1graph_1_1_fragment.html#a8d33526e74e10db5d8db591544d6836a" target="_top" xlink:title="Takes the list of APs from the field of this class and projects the APs into properties of the IAtoms...">
<polygon fill="white" stroke="black" points="449.5,-620 449.5,-650 607.5,-650 607.5,-620 449.5,-620"/>
<text text-anchor="start" x="457.5" y="-638" font-family="Helvetica,sans-Serif" font-size="10.00">denoptim.graph.Fragment.project</text>
<text text-anchor="middle" x="528.5" y="-627" font-family="Helvetica,sans-Serif" font-size="10.00">ListAPToAtomProperties</text>
</a>
</g>
</g>
<!-- Node7&#45;&gt;Node9 -->
<g id="edge11" class="edge">
<title>Node7&#45;&gt;Node9</title>
<path fill="none" stroke="midnightblue" d="M346.64,-550.6C364.84,-557.82 390.14,-568.13 412,-578 438.03,-589.76 466.85,-603.98 489.18,-615.27"/>
<polygon fill="midnightblue" stroke="midnightblue" points="487.83,-618.51 498.33,-619.92 491,-612.27 487.83,-618.51"/>
</g>
<!-- Node10 -->
<g id="node10" class="node">
<title>Node10</title>
<g id="a_node10"><a xlink:href="classdenoptim_1_1graph_1_1_fragment.html#a551361a1155600e6e2fe4e37590c924f" target="_top" xlink:title=" ">
<polygon fill="white" stroke="black" points="657.5,-596 657.5,-626 799.5,-626 799.5,-596 657.5,-596"/>
<text text-anchor="start" x="665.5" y="-614" font-family="Helvetica,sans-Serif" font-size="10.00">denoptim.graph.Fragment.get</text>
<text text-anchor="middle" x="728.5" y="-603" font-family="Helvetica,sans-Serif" font-size="10.00">APsFromAtom</text>
</a>
</g>
</g>
<!-- Node9&#45;&gt;Node10 -->
<g id="edge12" class="edge">
<title>Node9&#45;&gt;Node10</title>
<path fill="none" stroke="midnightblue" d="M607.75,-625.51C620.63,-623.95 634,-622.33 646.94,-620.77"/>
<polygon fill="midnightblue" stroke="midnightblue" points="647.69,-624.2 657.2,-619.52 646.85,-617.25 647.69,-624.2"/>
</g>
<!-- Node11 -->
<g id="node11" class="node">
<title>Node11</title>
<g id="a_node11"><a xlink:href="classdenoptim_1_1graph_1_1_attachment_point.html#a7e45846280a63bd2bf36b85e502ffa49" target="_top" xlink:title="The index of the source atom in the atom list of the fragment.">
<polygon fill="white" stroke="black" points="654.5,-645 654.5,-675 802.5,-675 802.5,-645 654.5,-645"/>
<text text-anchor="start" x="662.5" y="-663" font-family="Helvetica,sans-Serif" font-size="10.00">denoptim.graph.Attachment</text>
<text text-anchor="middle" x="728.5" y="-652" font-family="Helvetica,sans-Serif" font-size="10.00">Point.getAtomPositionNumber</text>
</a>
</g>
</g>
<!-- Node9&#45;&gt;Node11 -->
<g id="edge13" class="edge">
<title>Node9&#45;&gt;Node11</title>
<path fill="none" stroke="midnightblue" d="M607.75,-644.88C619.75,-646.39 632.16,-647.96 644.26,-649.49"/>
<polygon fill="midnightblue" stroke="midnightblue" points="643.97,-652.98 654.33,-650.76 644.84,-646.04 643.97,-652.98"/>
</g>
<!-- Node12&#45;&gt;Node4 -->
<g id="edge20" class="edge">
<title>Node12&#45;&gt;Node4</title>
<path fill="none" stroke="midnightblue" d="M405.01,-390.42C463.42,-394.84 542.68,-404.94 609,-428 641.9,-439.44 675.9,-460.34 699,-476.15"/>
<polygon fill="midnightblue" stroke="midnightblue" points="697.08,-479.09 707.29,-481.93 701.09,-473.34 697.08,-479.09"/>
</g>
<!-- Node12&#45;&gt;Node12 -->
<g id="edge18" class="edge">
<title>Node12&#45;&gt;Node12</title>
<path fill="none" stroke="midnightblue" d="M289.25,-396.76C273.8,-405.57 284.39,-415 321,-415 347.32,-415 360.18,-410.13 359.61,-404.11"/>
<polygon fill="midnightblue" stroke="midnightblue" points="362.13,-401.69 352.75,-396.76 357.01,-406.46 362.13,-401.69"/>
</g>
<!-- Node13 -->
<g id="node13" class="node">
<title>Node13</title>
<g id="a_node13"><a xlink:href="classdenoptim_1_1graph_1_1_d_graph.html#aa5f803143b57df02989af878b098798f" target="_top" xlink:title="Reads a JSON string and returns an instance of this class.">
<polygon fill="white" stroke="black" points="448,-437.5 448,-456.5 609,-456.5 609,-437.5 448,-437.5"/>
<text text-anchor="middle" x="528.5" y="-444.5" font-family="Helvetica,sans-Serif" font-size="10.00">denoptim.graph.DGraph.fromJson</text>
</a>
</g>
</g>
<!-- Node12&#45;&gt;Node13 -->
<g id="edge15" class="edge">
<title>Node12&#45;&gt;Node13</title>
<path fill="none" stroke="midnightblue" d="M354.56,-396.51C389.78,-406.79 446.07,-423.23 484.81,-434.54"/>
<polygon fill="midnightblue" stroke="midnightblue" points="484.17,-438 494.75,-437.44 486.13,-431.28 484.17,-438"/>
</g>
<!-- Node14 -->
<g id="node14" class="node">
<title>Node14</title>
<g id="a_node14"><a xlink:href="classdenoptim_1_1graph_1_1_template.html#a7de3b3ecb0743c881a629727648955be" target="_top" xlink:title="Return the list of attachment points visible from outside the template, i.e., the so&#45;called outer APs...">
<polygon fill="white" stroke="black" points="458,-350 458,-380 599,-380 599,-350 458,-350"/>
<text text-anchor="start" x="466" y="-368" font-family="Helvetica,sans-Serif" font-size="10.00">denoptim.graph.Template.get</text>
<text text-anchor="middle" x="528.5" y="-357" font-family="Helvetica,sans-Serif" font-size="10.00">AttachmentPoints</text>
</a>
</g>
</g>
<!-- Node12&#45;&gt;Node14 -->
<g id="edge19" class="edge">
<title>Node12&#45;&gt;Node14</title>
<path fill="none" stroke="midnightblue" d="M405.29,-378.08C419.34,-376.58 433.9,-375.02 447.86,-373.53"/>
<polygon fill="midnightblue" stroke="midnightblue" points="448.34,-376.99 457.91,-372.45 447.59,-370.03 448.34,-376.99"/>
</g>
<!-- Node15 -->
<g id="node15" class="node">
<title>Node15</title>
<g id="a_node15"><a xlink:href="classdenoptim_1_1graph_1_1_template.html#a405d47ac1a08ac9bd658bcdcc693a0a4" target="_top" xlink:title=" ">
<polygon fill="white" stroke="black" points="458,-301 458,-331 599,-331 599,-301 458,-301"/>
<text text-anchor="start" x="466" y="-319" font-family="Helvetica,sans-Serif" font-size="10.00">denoptim.graph.Template.set</text>
<text text-anchor="middle" x="528.5" y="-308" font-family="Helvetica,sans-Serif" font-size="10.00">InnerGraph</text>
</a>
</g>
</g>
<!-- Node12&#45;&gt;Node15 -->
<g id="edge21" class="edge">
<title>Node12&#45;&gt;Node15</title>
<path fill="none" stroke="midnightblue" d="M346.46,-377.35C371.73,-367.5 412.38,-352.01 448,-340 453.92,-338.01 460.11,-336 466.31,-334.04"/>
<polygon fill="midnightblue" stroke="midnightblue" points="467.52,-337.33 476.03,-331.01 465.44,-330.65 467.52,-337.33"/>
</g>
<!-- Node35 -->
<g id="node35" class="node">
<title>Node35</title>
<g id="a_node35"><a xlink:href="classdenoptim_1_1graph_1_1_template.html#a8ec4d171f4457634263a61211fb3508b" target="_top" xlink:title=" ">
<polygon fill="white" stroke="black" points="650,-215 650,-245 807,-245 807,-215 650,-215"/>
<text text-anchor="start" x="658" y="-233" font-family="Helvetica,sans-Serif" font-size="10.00">denoptim.graph.Template.update</text>
<text text-anchor="middle" x="728.5" y="-222" font-family="Helvetica,sans-Serif" font-size="10.00">InnerToOuter</text>
</a>
</g>
</g>
<!-- Node12&#45;&gt;Node35 -->
<g id="edge44" class="edge">
<title>Node12&#45;&gt;Node35</title>
<path fill="none" stroke="midnightblue" d="M331.46,-377.38C351.21,-357.87 399.07,-313.62 448,-291 508.82,-262.89 583.15,-247.47 639.87,-239.16"/>
<polygon fill="midnightblue" stroke="midnightblue" points="640.48,-242.61 649.89,-237.74 639.49,-235.68 640.48,-242.61"/>
</g>
<!-- Node13&#45;&gt;Node4 -->
<g id="edge17" class="edge">
<title>Node13&#45;&gt;Node4</title>
<path fill="none" stroke="midnightblue" d="M567.21,-456.52C592.82,-462.99 627.46,-471.74 657.99,-479.45"/>
<polygon fill="midnightblue" stroke="midnightblue" points="657.19,-482.85 667.74,-481.91 658.9,-476.07 657.19,-482.85"/>
</g>
<!-- Node13&#45;&gt;Node13 -->
<g id="edge16" class="edge">
<title>Node13&#45;&gt;Node13</title>
<path fill="none" stroke="midnightblue" d="M497.67,-456.76C482.68,-465.57 492.95,-475 528.5,-475 553.49,-475 565.99,-470.34 566,-464.5"/>
<polygon fill="midnightblue" stroke="midnightblue" points="568.5,-462.05 559.33,-456.76 563.2,-466.62 568.5,-462.05"/>
</g>
<!-- Node16 -->
<g id="node16" class="node">
<title>Node16</title>
<g id="a_node16"><a xlink:href="classdenoptim_1_1graph_1_1_template.html#a687f8680d7c74dacadeb80c85ced2be5" target="_top" xlink:title="Adds the projection of an AP in the template&#39;s inner graph (i.e., innerAP) to the list of APs visible...">
<polygon fill="white" stroke="black" points="657,-137 657,-167 800,-167 800,-137 657,-137"/>
<text text-anchor="start" x="665" y="-155" font-family="Helvetica,sans-Serif" font-size="10.00">denoptim.graph.Template.add</text>
<text text-anchor="middle" x="728.5" y="-144" font-family="Helvetica,sans-Serif" font-size="10.00">InnerToOuterAPMapping</text>
</a>
</g>
</g>
<!-- Node15&#45;&gt;Node16 -->
<g id="edge22" class="edge">
<title>Node15&#45;&gt;Node16</title>
<path fill="none" stroke="midnightblue" d="M543.61,-300.66C564.57,-278.29 605.71,-236.02 645,-205 659.97,-193.18 677.63,-181.56 692.77,-172.22"/>
<polygon fill="midnightblue" stroke="midnightblue" points="694.62,-175.19 701.35,-167.01 690.98,-169.21 694.62,-175.19"/>
</g>
<!-- Node28 -->
<g id="node28" class="node">
<title>Node28</title>
<g id="a_node28"><a xlink:href="classdenoptim_1_1graph_1_1_template.html#a82c53a76c42c31848f394c3f7aab21b9" target="_top" xlink:title="Removes the molecular representation.">
<polygon fill="white" stroke="black" points="857,-274 857,-304 1006,-304 1006,-274 857,-274"/>
<text text-anchor="start" x="865" y="-292" font-family="Helvetica,sans-Serif" font-size="10.00">denoptim.graph.Template.clear</text>
<text text-anchor="middle" x="931.5" y="-281" font-family="Helvetica,sans-Serif" font-size="10.00">IAtomContainer</text>
</a>
</g>
</g>
<!-- Node15&#45;&gt;Node28 -->
<g id="edge36" class="edge">
<title>Node15&#45;&gt;Node28</title>
<path fill="none" stroke="midnightblue" d="M599.25,-314.18C656.48,-312.35 739.58,-308.94 812,-303 823.26,-302.08 835.1,-300.91 846.76,-299.65"/>
<polygon fill="midnightblue" stroke="midnightblue" points="847.39,-303.1 856.94,-298.52 846.61,-296.14 847.39,-303.1"/>
</g>
<!-- Node29 -->
<g id="node29" class="node">
<title>Node29</title>
<g id="a_node29"><a xlink:href="classdenoptim_1_1graph_1_1_d_graph.html#a309d3784aeae9aedce785314e753bdc5" target="_top" xlink:title="Returns the list of available attachment points contained in this graph.">
<polygon fill="white" stroke="black" points="864.5,-421 864.5,-451 998.5,-451 998.5,-421 864.5,-421"/>
<text text-anchor="start" x="872.5" y="-439" font-family="Helvetica,sans-Serif" font-size="10.00">denoptim.graph.DGraph.get</text>
<text text-anchor="middle" x="931.5" y="-428" font-family="Helvetica,sans-Serif" font-size="10.00">AvailableAPs</text>
</a>
</g>
</g>
<!-- Node15&#45;&gt;Node29 -->
<g id="edge37" class="edge">
<title>Node15&#45;&gt;Node29</title>
<path fill="none" stroke="midnightblue" d="M594.38,-331.16C599.57,-333.67 604.52,-336.6 609,-340 632.85,-358.14 619.8,-380.79 645,-397 707.24,-437.04 792.89,-443.83 854.11,-442.42"/>
<polygon fill="midnightblue" stroke="midnightblue" points="854.59,-445.91 864.48,-442.1 854.38,-438.91 854.59,-445.91"/>
</g>
<!-- Node31 -->
<g id="node31" class="node">
<title>Node31</title>
<g id="a_node31"><a xlink:href="classdenoptim_1_1graph_1_1_template.html#a1b1c82228b19609959356d3aa1f2a53b" target="_top" xlink:title=" ">
<polygon fill="white" stroke="black" points="661,-358 661,-388 796,-388 796,-358 661,-358"/>
<text text-anchor="start" x="669" y="-376" font-family="Helvetica,sans-Serif" font-size="10.00">denoptim.graph.Template.is</text>
<text text-anchor="middle" x="728.5" y="-365" font-family="Helvetica,sans-Serif" font-size="10.00">ValidInnerGraph</text>
</a>
</g>
</g>
<!-- Node15&#45;&gt;Node31 -->
<g id="edge39" class="edge">
<title>Node15&#45;&gt;Node31</title>
<path fill="none" stroke="midnightblue" d="M581.78,-331.05C607.5,-338.45 638.67,-347.43 665.57,-355.17"/>
<polygon fill="midnightblue" stroke="midnightblue" points="664.69,-358.56 675.27,-357.96 666.63,-351.83 664.69,-358.56"/>
</g>
<!-- Node34 -->
<g id="node34" class="node">
<title>Node34</title>
<g id="a_node34"><a xlink:href="classdenoptim_1_1graph_1_1_d_graph.html#a04463f5a015f34500e6c516d4ef0eabb" target="_top" xlink:title="Sets the reference to a template that embeds this graph, i.e., this graph&#39;s &quot;jacket&quot; template.">
<polygon fill="white" stroke="black" points="661.5,-264 661.5,-294 795.5,-294 795.5,-264 661.5,-264"/>
<text text-anchor="start" x="669.5" y="-282" font-family="Helvetica,sans-Serif" font-size="10.00">denoptim.graph.DGraph.set</text>
<text text-anchor="middle" x="728.5" y="-271" font-family="Helvetica,sans-Serif" font-size="10.00">TemplateJacket</text>
</a>
</g>
</g>
<!-- Node15&#45;&gt;Node34 -->
<g id="edge43" class="edge">
<title>Node15&#45;&gt;Node34</title>
<path fill="none" stroke="midnightblue" d="M599.03,-303.01C615.98,-299.84 634.2,-296.43 651.44,-293.21"/>
<polygon fill="midnightblue" stroke="midnightblue" points="652.28,-296.62 661.46,-291.34 650.99,-289.74 652.28,-296.62"/>
</g>
<!-- Node16&#45;&gt;Node16 -->
<g id="edge23" class="edge">
<title>Node16&#45;&gt;Node16</title>
<path fill="none" stroke="midnightblue" d="M693.65,-167.16C685.24,-176.56 696.86,-185.5 728.5,-185.5 747.78,-185.5 759.63,-182.18 764.04,-177.46"/>
<polygon fill="midnightblue" stroke="midnightblue" points="767.51,-176.91 763.35,-167.16 760.52,-177.37 767.51,-176.91"/>
</g>
<!-- Node17 -->
<g id="node17" class="node">
<title>Node17</title>
<g id="a_node17"><a xlink:href="classdenoptim_1_1graph_1_1_attachment_point.html#a8dc9e31a8d2fb5ef6a9705cbf2ec22c9" target="_top" xlink:title="Returns a deep clone of this attachment point.">
<polygon fill="white" stroke="black" points="864,-39 864,-69 999,-69 999,-39 864,-39"/>
<text text-anchor="start" x="872" y="-57" font-family="Helvetica,sans-Serif" font-size="10.00">denoptim.graph.Attachment</text>
<text text-anchor="middle" x="931.5" y="-46" font-family="Helvetica,sans-Serif" font-size="10.00">Point.clone</text>
</a>
</g>
</g>
<!-- Node16&#45;&gt;Node17 -->
<g id="edge24" class="edge">
<title>Node16&#45;&gt;Node17</title>
<path fill="none" stroke="midnightblue" d="M749.93,-136.79C772.8,-120.36 811.47,-94.34 848,-78 852.37,-76.05 856.93,-74.21 861.58,-72.48"/>
<polygon fill="midnightblue" stroke="midnightblue" points="862.92,-75.72 871.2,-69.1 860.6,-69.12 862.92,-75.72"/>
</g>
<!-- Node22 -->
<g id="node22" class="node">
<title>Node22</title>
<g id="a_node22"><a xlink:href="classdenoptim_1_1graph_1_1_vertex.html#a6615f1c869173b8bd6d730c6683b9de4" target="_top" xlink:title="Returns the graph this vertex belongs to or null.">
<polygon fill="white" stroke="black" points="867.5,-88 867.5,-118 995.5,-118 995.5,-88 867.5,-88"/>
<text text-anchor="start" x="875.5" y="-106" font-family="Helvetica,sans-Serif" font-size="10.00">denoptim.graph.Vertex.get</text>
<text text-anchor="middle" x="931.5" y="-95" font-family="Helvetica,sans-Serif" font-size="10.00">GraphOwner</text>
</a>
</g>
</g>
<!-- Node16&#45;&gt;Node22 -->
<g id="edge29" class="edge">
<title>Node16&#45;&gt;Node22</title>
<path fill="none" stroke="midnightblue" d="M791.17,-136.97C812.59,-131.74 836.78,-125.85 858.93,-120.45"/>
<polygon fill="midnightblue" stroke="midnightblue" points="860.06,-123.78 868.94,-118.01 858.4,-116.97 860.06,-123.78"/>
</g>
<!-- Node23 -->
<g id="node23" class="node">
<title>Node23</title>
<g id="a_node23"><a xlink:href="classdenoptim_1_1graph_1_1_a_p_tree_map.html#a9e1e1c1dd87ebfb469b6c705c00038b6" target="_top" xlink:title="Associates the specified value with the specified key in this map.">
<polygon fill="white" stroke="black" points="855.5,-186.5 855.5,-205.5 1007.5,-205.5 1007.5,-186.5 855.5,-186.5"/>
<text text-anchor="middle" x="931.5" y="-193.5" font-family="Helvetica,sans-Serif" font-size="10.00">denoptim.graph.APTreeMap.put</text>
</a>
</g>
</g>
<!-- Node16&#45;&gt;Node23 -->
<g id="edge30" class="edge">
<title>Node16&#45;&gt;Node23</title>
<path fill="none" stroke="midnightblue" d="M798.11,-167.02C823.88,-172.66 852.78,-178.99 876.98,-184.28"/>
<polygon fill="midnightblue" stroke="midnightblue" points="876.53,-187.77 887.05,-186.49 878.03,-180.93 876.53,-187.77"/>
</g>
<!-- Node27 -->
<g id="node27" class="node">
<title>Node27</title>
<g id="a_node27"><a xlink:href="classdenoptim_1_1graph_1_1_attachment_point.html#a76bfbe6cc3918c114c73974b2fe4e59d" target="_top" xlink:title="Sets the reference to the vertex that owns this attachment point.">
<polygon fill="white" stroke="black" points="864,-137 864,-167 999,-167 999,-137 864,-137"/>
<text text-anchor="start" x="872" y="-155" font-family="Helvetica,sans-Serif" font-size="10.00">denoptim.graph.Attachment</text>
<text text-anchor="middle" x="931.5" y="-144" font-family="Helvetica,sans-Serif" font-size="10.00">Point.setOwner</text>
</a>
</g>
</g>
<!-- Node16&#45;&gt;Node27 -->
<g id="edge35" class="edge">
<title>Node16&#45;&gt;Node27</title>
<path fill="none" stroke="midnightblue" d="M800.08,-152C817.39,-152 835.99,-152 853.58,-152"/>
<polygon fill="midnightblue" stroke="midnightblue" points="853.8,-155.5 863.8,-152 853.8,-148.5 853.8,-155.5"/>
</g>
<!-- Node18 -->
<g id="node18" class="node">
<title>Node18</title>
<g id="a_node18"><a xlink:href="classdenoptim_1_1graph_1_1_attachment_point.html#a087f6102f1c542587ec2ec3c2240041f" target="_top" xlink:title="Constructor for undefined DENOPTIMAttachmentPoint.">
<polygon fill="white" stroke="black" points="1060.5,-88 1060.5,-118 1195.5,-118 1195.5,-88 1060.5,-88"/>
<text text-anchor="start" x="1068.5" y="-106" font-family="Helvetica,sans-Serif" font-size="10.00">denoptim.graph.Attachment</text>
<text text-anchor="middle" x="1128" y="-95" font-family="Helvetica,sans-Serif" font-size="10.00">Point.AttachmentPoint</text>
</a>
</g>
</g>
<!-- Node17&#45;&gt;Node18 -->
<g id="edge25" class="edge">
<title>Node17&#45;&gt;Node18</title>
<path fill="none" stroke="midnightblue" d="M992.18,-69.03C1012.81,-74.23 1036.1,-80.1 1057.45,-85.48"/>
<polygon fill="midnightblue" stroke="midnightblue" points="1056.88,-88.94 1067.43,-87.99 1058.59,-82.16 1056.88,-88.94"/>
</g>
<!-- Node20 -->
<g id="node20" class="node">
<title>Node20</title>
<g id="a_node20"><a xlink:href="classdenoptim_1_1graph_1_1_a_p_class.html#a1781af804ce3ff7b7ed2d681fd1eeae3" target="_top" xlink:title="WARNING: this method does NOT clone! It just returns the reference to this.">
<polygon fill="white" stroke="black" points="1053.5,-0.5 1053.5,-19.5 1202.5,-19.5 1202.5,-0.5 1053.5,-0.5"/>
<text text-anchor="middle" x="1128" y="-7.5" font-family="Helvetica,sans-Serif" font-size="10.00">denoptim.graph.APClass.clone</text>
</a>
</g>
</g>
<!-- Node17&#45;&gt;Node20 -->
<g id="edge27" class="edge">
<title>Node17&#45;&gt;Node20</title>
<path fill="none" stroke="midnightblue" d="M998.89,-38.98C1023.72,-33.36 1051.54,-27.07 1074.9,-21.79"/>
<polygon fill="midnightblue" stroke="midnightblue" points="1075.97,-25.13 1084.95,-19.51 1074.42,-18.31 1075.97,-25.13"/>
</g>
<!-- Node21 -->
<g id="node21" class="node">
<title>Node21</title>
<g id="a_node21"><a xlink:href="classdenoptim_1_1graph_1_1_attachment_point.html#ac8551521d38644f5109800b665957ee9" target="_top" xlink:title=" ">
<polygon fill="white" stroke="black" points="1060.5,-39 1060.5,-69 1195.5,-69 1195.5,-39 1060.5,-39"/>
<text text-anchor="start" x="1068.5" y="-57" font-family="Helvetica,sans-Serif" font-size="10.00">denoptim.graph.Attachment</text>
<text text-anchor="middle" x="1128" y="-46" font-family="Helvetica,sans-Serif" font-size="10.00">Point.getOwner</text>
</a>
</g>
</g>
<!-- Node17&#45;&gt;Node21 -->
<g id="edge28" class="edge">
<title>Node17&#45;&gt;Node21</title>
<path fill="none" stroke="midnightblue" d="M999.16,-54C1015.56,-54 1033.24,-54 1050.07,-54"/>
<polygon fill="midnightblue" stroke="midnightblue" points="1050.42,-57.5 1060.42,-54 1050.42,-50.5 1050.42,-57.5"/>
</g>
<!-- Node19 -->
<g id="node19" class="node">
<title>Node19</title>
<g id="a_node19"><a xlink:href="classdenoptim_1_1utils_1_1_graph_utils.html#aacbefbc93a3463aa963c9923749deea1" target="_top" xlink:title="Unique counter for the number of molecules generated.">
<polygon fill="white" stroke="black" points="1241,-110 1241,-140 1382,-140 1382,-110 1241,-110"/>
<text text-anchor="start" x="1249" y="-128" font-family="Helvetica,sans-Serif" font-size="10.00">denoptim.utils.GraphUtils.get</text>
<text text-anchor="middle" x="1311.5" y="-117" font-family="Helvetica,sans-Serif" font-size="10.00">UniqueAPIndex</text>
</a>
</g>
</g>
<!-- Node18&#45;&gt;Node19 -->
<g id="edge26" class="edge">
<title>Node18&#45;&gt;Node19</title>
<path fill="none" stroke="midnightblue" d="M1195.55,-111.07C1206.98,-112.45 1218.95,-113.9 1230.68,-115.33"/>
<polygon fill="midnightblue" stroke="midnightblue" points="1230.56,-118.84 1240.91,-116.56 1231.4,-111.89 1230.56,-118.84"/>
</g>
<!-- Node23&#45;&gt;Node19 -->
<g id="edge32" class="edge">
<title>Node23&#45;&gt;Node19</title>
<path fill="none" stroke="midnightblue" d="M973.27,-186.4C986.6,-183.19 1001.45,-179.52 1015,-176 1031.07,-171.82 1034.77,-169.52 1051,-166 1110.86,-153 1179.33,-142.36 1230.9,-135.18"/>
<polygon fill="midnightblue" stroke="midnightblue" points="1231.56,-138.62 1240.98,-133.79 1230.6,-131.68 1231.56,-138.62"/>
</g>
<!-- Node24 -->
<g id="node24" class="node">
<title>Node24</title>
<g id="a_node24"><a xlink:href="classdenoptim_1_1graph_1_1_attachment_point.html#a72dd6bd75a701cabb65832778da6e574" target="_top" xlink:title="Returns a unique integer that is used to sort list of attachment points.">
<polygon fill="white" stroke="black" points="1060.5,-274 1060.5,-304 1195.5,-304 1195.5,-274 1060.5,-274"/>
<text text-anchor="start" x="1068.5" y="-292" font-family="Helvetica,sans-Serif" font-size="10.00">denoptim.graph.Attachment</text>
<text text-anchor="middle" x="1128" y="-281" font-family="Helvetica,sans-Serif" font-size="10.00">Point.getID</text>
</a>
</g>
</g>
<!-- Node23&#45;&gt;Node24 -->
<g id="edge31" class="edge">
<title>Node23&#45;&gt;Node24</title>
<path fill="none" stroke="midnightblue" d="M995.71,-205.57C1002.52,-208.03 1009.11,-211.12 1015,-215 1037.58,-229.85 1029.12,-248.13 1051,-264 1053.64,-265.92 1056.44,-267.69 1059.34,-269.34"/>
<polygon fill="midnightblue" stroke="midnightblue" points="1057.81,-272.48 1068.31,-273.88 1060.97,-266.24 1057.81,-272.48"/>
</g>
<!-- Node25 -->
<g id="node25" class="node">
<title>Node25</title>
<g id="a_node25"><a xlink:href="classdenoptim_1_1utils_1_1_graph_utils.html#ac53e72bfeb5251069c07ebc22994022a" target="_top" xlink:title="Reset the unique attachment point counter to the given value.">
<polygon fill="white" stroke="black" points="1053.5,-225 1053.5,-255 1202.5,-255 1202.5,-225 1053.5,-225"/>
<text text-anchor="start" x="1061.5" y="-243" font-family="Helvetica,sans-Serif" font-size="10.00">denoptim.utils.GraphUtils.reset</text>
<text text-anchor="middle" x="1128" y="-232" font-family="Helvetica,sans-Serif" font-size="10.00">UniqueAPCounter</text>
</a>
</g>
</g>
<!-- Node23&#45;&gt;Node25 -->
<g id="edge33" class="edge">
<title>Node23&#45;&gt;Node25</title>
<path fill="none" stroke="midnightblue" d="M974.7,-205.55C996.9,-210.57 1024.79,-216.88 1050.62,-222.72"/>
<polygon fill="midnightblue" stroke="midnightblue" points="1049.88,-226.14 1060.4,-224.93 1051.42,-219.31 1049.88,-226.14"/>
</g>
<!-- Node26 -->
<g id="node26" class="node">
<title>Node26</title>
<g id="a_node26"><a xlink:href="classdenoptim_1_1graph_1_1_attachment_point.html#a929c8f781b4c999a5228f322a3bd901e" target="_top" xlink:title="Sets the unique integer that is used to sort list of attachment points.">
<polygon fill="white" stroke="black" points="1060.5,-176 1060.5,-206 1195.5,-206 1195.5,-176 1060.5,-176"/>
<text text-anchor="start" x="1068.5" y="-194" font-family="Helvetica,sans-Serif" font-size="10.00">denoptim.graph.Attachment</text>
<text text-anchor="middle" x="1128" y="-183" font-family="Helvetica,sans-Serif" font-size="10.00">Point.setID</text>
</a>
</g>
</g>
<!-- Node23&#45;&gt;Node26 -->
<g id="edge34" class="edge">
<title>Node23&#45;&gt;Node26</title>
<path fill="none" stroke="midnightblue" d="M1007.7,-194.07C1021.63,-193.71 1036.21,-193.33 1050.19,-192.97"/>
<polygon fill="midnightblue" stroke="midnightblue" points="1050.34,-196.47 1060.25,-192.72 1050.16,-189.47 1050.34,-196.47"/>
</g>
<!-- Node30 -->
<g id="node30" class="node">
<title>Node30</title>
<g id="a_node30"><a xlink:href="classdenoptim_1_1graph_1_1_d_graph.html#a27e25f8f8e1516d81cc281e2795a9428" target="_top" xlink:title="Returns the list of all attachment points contained in this graph.">
<polygon fill="white" stroke="black" points="1061,-384 1061,-414 1195,-414 1195,-384 1061,-384"/>
<text text-anchor="start" x="1069" y="-402" font-family="Helvetica,sans-Serif" font-size="10.00">denoptim.graph.DGraph.get</text>
<text text-anchor="middle" x="1128" y="-391" font-family="Helvetica,sans-Serif" font-size="10.00">AttachmentPoints</text>
</a>
</g>
</g>
<!-- Node29&#45;&gt;Node30 -->
<g id="edge38" class="edge">
<title>Node29&#45;&gt;Node30</title>
<path fill="none" stroke="midnightblue" d="M998.62,-423.42C1015.38,-420.23 1033.51,-416.79 1050.72,-413.51"/>
<polygon fill="midnightblue" stroke="midnightblue" points="1051.56,-416.91 1060.73,-411.61 1050.25,-410.04 1051.56,-416.91"/>
</g>
<!-- Node31&#45;&gt;Node29 -->
<g id="edge41" class="edge">
<title>Node31&#45;&gt;Node29</title>
<path fill="none" stroke="midnightblue" d="M775.87,-388.06C797.73,-395.11 824.18,-403.57 848,-411 855.33,-413.29 863.04,-415.66 870.68,-418"/>
<polygon fill="midnightblue" stroke="midnightblue" points="869.7,-421.36 880.29,-420.93 871.74,-414.66 869.7,-421.36"/>
</g>
<!-- Node32 -->
<g id="node32" class="node">
<title>Node32</title>
<g id="a_node32"><a xlink:href="classdenoptim_1_1graph_1_1_attachment_point.html#a31bed4cb29f6437bf8a888a1dda3fd95" target="_top" xlink:title="Returns the Attachment Point class.">
<polygon fill="white" stroke="black" points="864,-323 864,-353 999,-353 999,-323 864,-323"/>
<text text-anchor="start" x="872" y="-341" font-family="Helvetica,sans-Serif" font-size="10.00">denoptim.graph.Attachment</text>
<text text-anchor="middle" x="931.5" y="-330" font-family="Helvetica,sans-Serif" font-size="10.00">Point.getAPClass</text>
</a>
</g>
</g>
<!-- Node31&#45;&gt;Node32 -->
<g id="edge40" class="edge">
<title>Node31&#45;&gt;Node32</title>
<path fill="none" stroke="midnightblue" d="M796.15,-361.39C814.56,-358.19 834.68,-354.69 853.61,-351.39"/>
<polygon fill="midnightblue" stroke="midnightblue" points="854.44,-354.8 863.69,-349.63 853.23,-347.9 854.44,-354.8"/>
</g>
<!-- Node33 -->
<g id="node33" class="node">
<title>Node33</title>
<g id="a_node33"><a xlink:href="classdenoptim_1_1graph_1_1_template.html#af47237c84381d97803d99a7ee16ddc63" target="_top" xlink:title=" ">
<polygon fill="white" stroke="black" points="861,-372 861,-402 1002,-402 1002,-372 861,-372"/>
<text text-anchor="start" x="869" y="-390" font-family="Helvetica,sans-Serif" font-size="10.00">denoptim.graph.Template.get</text>
<text text-anchor="middle" x="931.5" y="-379" font-family="Helvetica,sans-Serif" font-size="10.00">RequiredAPs</text>
</a>
</g>
</g>
<!-- Node31&#45;&gt;Node33 -->
<g id="edge42" class="edge">
<title>Node31&#45;&gt;Node33</title>
<path fill="none" stroke="midnightblue" d="M796.15,-377.64C813.62,-378.86 832.63,-380.18 850.71,-381.44"/>
<polygon fill="midnightblue" stroke="midnightblue" points="850.71,-384.95 860.93,-382.15 851.2,-377.97 850.71,-384.95"/>
</g>
<!-- Node35&#45;&gt;Node23 -->
<g id="edge48" class="edge">
<title>Node35&#45;&gt;Node23</title>
<path fill="none" stroke="midnightblue" d="M807.21,-216.85C826.04,-213.67 846,-210.29 864.24,-207.21"/>
<polygon fill="midnightblue" stroke="midnightblue" points="864.91,-210.65 874.18,-205.53 863.74,-203.74 864.91,-210.65"/>
</g>
<!-- Node35&#45;&gt;Node27 -->
<g id="edge49" class="edge">
<title>Node35&#45;&gt;Node27</title>
<path fill="none" stroke="midnightblue" d="M764.53,-214.99C779.23,-208.62 796.49,-201.04 812,-194 828.11,-186.68 831.49,-183.36 848,-177 854.19,-174.61 860.72,-172.31 867.27,-170.12"/>
<polygon fill="midnightblue" stroke="midnightblue" points="868.43,-173.42 876.86,-167 866.26,-166.76 868.43,-173.42"/>
</g>
<!-- Node35&#45;&gt;Node28 -->
<g id="edge45" class="edge">
<title>Node35&#45;&gt;Node28</title>
<path fill="none" stroke="midnightblue" d="M781.44,-245.07C791.58,-248.03 802.12,-251.1 812,-254 830.85,-259.52 851.37,-265.57 869.95,-271.07"/>
<polygon fill="midnightblue" stroke="midnightblue" points="869.19,-274.49 879.77,-273.97 871.17,-267.78 869.19,-274.49"/>
</g>
<!-- Node36 -->
<g id="node36" class="node">
<title>Node36</title>
<g id="a_node36"><a xlink:href="classdenoptim_1_1graph_1_1_d_graph.html#a3fc88e09bf84838d98d7583b457f637f" target="_top" xlink:title="Returns the attachment point with the given identifier, or null if no AP is found with the given iden...">
<polygon fill="white" stroke="black" points="864.5,-225 864.5,-255 998.5,-255 998.5,-225 864.5,-225"/>
<text text-anchor="start" x="872.5" y="-243" font-family="Helvetica,sans-Serif" font-size="10.00">denoptim.graph.DGraph.get</text>
<text text-anchor="middle" x="931.5" y="-232" font-family="Helvetica,sans-Serif" font-size="10.00">APWithId</text>
</a>
</g>
</g>
<!-- Node35&#45;&gt;Node36 -->
<g id="edge46" class="edge">
<title>Node35&#45;&gt;Node36</title>
<path fill="none" stroke="midnightblue" d="M807.21,-233.87C822.71,-234.64 838.97,-235.45 854.41,-236.21"/>
<polygon fill="midnightblue" stroke="midnightblue" points="854.26,-239.71 864.42,-236.71 854.61,-232.72 854.26,-239.71"/>
</g>
<!-- Node36&#45;&gt;Node30 -->
<g id="edge47" class="edge">
<title>Node36&#45;&gt;Node30</title>
<path fill="none" stroke="midnightblue" d="M998.72,-254.94C1004.46,-257.5 1009.99,-260.5 1015,-264 1037.15,-279.48 1034.04,-291.97 1051,-313 1068.74,-334.99 1090.14,-359.01 1105.71,-376.06"/>
<polygon fill="midnightblue" stroke="midnightblue" points="1103.5,-378.83 1112.84,-383.83 1108.66,-374.09 1103.5,-378.83"/>
</g>
</g>
</svg>
        <g id="navigator" transform="translate(0 0)" fill="#404254">
                <rect fill="#f2f5e9" fill-opacity="0.5" stroke="#606060" stroke-width=".5" x="0" y="0" width="60" height="60"/>
                <use id="zoomplus" xlink:href="#zoomPlus" x="17" y="9" onmousedown="handleZoom(evt,'in')"/>
                <use id="zoomminus" xlink:href="#zoomMin" x="42" y="9" onmousedown="handleZoom(evt,'out')"/>
                <use id="reset" xlink:href="#resetDef" x="30" y="36" onmousedown="handleReset()"/>
                <g id="arrowUp" xlink:href="#dirArrow" transform="translate(30 24)" onmousedown="handlePan(0,-1)">
                  <use xlink:href="#rim" fill="#404040">
                        <set attributeName="fill" to="#808080" begin="arrowUp.mouseover" end="arrowUp.mouseout"/>
                  </use>
                  <path fill="none" stroke="white" stroke-width="1.5" d="M0,-3.0v7 M-2.5,-0.5L0,-3.0L2.5,-0.5"/>
                </g>
                <g id="arrowRight" xlink:href="#dirArrow" transform="rotate(90) translate(36 -43)" onmousedown="handlePan(1,0)">
                  <use xlink:href="#rim" fill="#404040">
                        <set attributeName="fill" to="#808080" begin="arrowRight.mouseover" end="arrowRight.mouseout"/>
                  </use>
                  <path fill="none" stroke="white" stroke-width="1.5" d="M0,-3.0v7 M-2.5,-0.5L0,-3.0L2.5,-0.5"/>
                </g>
                <g id="arrowDown" xlink:href="#dirArrow" transform="rotate(180) translate(-30 -48)" onmousedown="handlePan(0,1)">
                  <use xlink:href="#rim" fill="#404040">
                        <set attributeName="fill" to="#808080" begin="arrowDown.mouseover" end="arrowDown.mouseout"/>
                  </use>
                  <path fill="none" stroke="white" stroke-width="1.5" d="M0,-3.0v7 M-2.5,-0.5L0,-3.0L2.5,-0.5"/>
                </g>
                <g id="arrowLeft" xlink:href="#dirArrow" transform="rotate(270) translate(-36 17)" onmousedown="handlePan(-1,0)">
                  <use xlink:href="#rim" fill="#404040">
                        <set attributeName="fill" to="#808080" begin="arrowLeft.mouseover" end="arrowLeft.mouseout"/>
                  </use>
                  <path fill="none" stroke="white" stroke-width="1.5" d="M0,-3.0v7 M-2.5,-0.5L0,-3.0L2.5,-0.5"/>
                </g>
        </g>
        <svg viewBox="0 0 15 15" width="100%" height="30px" preserveAspectRatio="xMaxYMin meet">
         <g id="arrow_out" transform="scale(0.3 0.3)">
          <a xlink:href="classdenoptim_1_1graph_1_1_vertex_1_1_d_e_n_o_p_t_i_m_vertex_deserializer_a281fc89776bbb6dbb93813fbb6eb2f70_cgraph_org.svg" target="_base">
           <rect id="button" ry="5" rx="5" y="6" x="6" height="38" width="38"
                fill="#f2f5e9" fill-opacity="0.5" stroke="#606060" stroke-width="1.0"/>
           <path id="arrow"
             d="M 11.500037,31.436501 C 11.940474,20.09759 22.043105,11.32322 32.158766,21.979434 L 37.068811,17.246167 C 37.068811,17.246167 37.088388,32 37.088388,32 L 22.160133,31.978069 C 22.160133,31.978069 26.997745,27.140456 26.997745,27.140456 C 18.528582,18.264221 13.291696,25.230495 11.500037,31.436501 z"
             style="fill:#404040;"/>
          </a>
         </g>
        </svg>
</svg>
