<?xml version="1.0" encoding="UTF-8" standalone="no"?>
<!DOCTYPE svg PUBLIC "-//W3C//DTD SVG 1.1//EN"
 "http://www.w3.org/Graphics/SVG/1.1/DTD/svg11.dtd">
<!-- Generated by graphviz version 3.0.0 (20220413.0242)
 -->
<!-- Title: denoptim.fragmenter.FragmenterTask.getResultFile Pages: 1 -->
<svg width="378pt" height="50pt"
 viewBox="0.00 0.00 378.00 50.00" xmlns="http://www.w3.org/2000/svg" xmlns:xlink="http://www.w3.org/1999/xlink">
<g id="graph0" class="graph" transform="scale(1 1) rotate(0) translate(4 46)">
<title>denoptim.fragmenter.FragmenterTask.getResultFile</title>
<polygon fill="white" stroke="transparent" points="-4,4 -4,-46 374,-46 374,4 -4,4"/>
<!-- Node1 -->
<g id="node1" class="node">
<title>Node1</title>
<g id="a_node1"><a xlink:title=" ">
<polygon fill="#bfbfbf" stroke="black" points="213,-6 213,-36 370,-36 370,-6 213,-6"/>
<text text-anchor="start" x="221" y="-24" font-family="Helvetica,sans-Serif" font-size="10.00">denoptim.fragmenter.Fragmenter</text>
<text text-anchor="middle" x="291.5" y="-13" font-family="Helvetica,sans-Serif" font-size="10.00">Task.getResultFile</text>
</a>
</g>
</g>
<!-- Node2 -->
<g id="node2" class="node">
<title>Node2</title>
<g id="a_node2"><a xlink:href="classdenoptim_1_1fragmenter_1_1_parallel_fragmentation_algorithm.html#a75a77e0ecff457691e706c0ca9da0736" target="_top" xlink:title=" ">
<polygon fill="white" stroke="black" points="0,-0.5 0,-41.5 177,-41.5 177,-0.5 0,-0.5"/>
<text text-anchor="start" x="8" y="-29.5" font-family="Helvetica,sans-Serif" font-size="10.00">denoptim.fragmenter.Parallel</text>
<text text-anchor="start" x="8" y="-18.5" font-family="Helvetica,sans-Serif" font-size="10.00">FragmentationAlgorithm.doPostFlight</text>
<text text-anchor="middle" x="88.5" y="-7.5" font-family="Helvetica,sans-Serif" font-size="10.00">Operations</text>
</a>
</g>
</g>
<!-- Node1&#45;&gt;Node2 -->
<g id="edge1" class="edge">
<title>Node1&#45;&gt;Node2</title>
<path fill="none" stroke="midnightblue" d="M202.54,-21C194.08,-21 185.49,-21 177.03,-21"/>
<polygon fill="midnightblue" stroke="midnightblue" points="202.79,-24.5 212.79,-21 202.79,-17.5 202.79,-24.5"/>
</g>
</g>
</svg>
