<?xml version="1.0" encoding="UTF-8" standalone="no"?>
<!DOCTYPE svg PUBLIC "-//W3C//DTD SVG 1.1//EN"
 "http://www.w3.org/Graphics/SVG/1.1/DTD/svg11.dtd">
<!-- Generated by graphviz version 3.0.0 (20220413.0242)
 -->
<!-- Title: denoptim.graph.Fragment.sameAs Pages: 1 -->
<svg width="715pt" height="292pt"
 viewBox="0.00 0.00 715.00 291.50" xmlns="http://www.w3.org/2000/svg" xmlns:xlink="http://www.w3.org/1999/xlink">
<g id="graph0" class="graph" transform="scale(1 1) rotate(0) translate(4 287.5)">
<title>denoptim.graph.Fragment.sameAs</title>
<polygon fill="white" stroke="transparent" points="-4,4 -4,-287.5 711,-287.5 711,4 -4,4"/>
<!-- Node1 -->
<g id="node1" class="node">
<title>Node1</title>
<g id="a_node1"><a xlink:title="Compares this and another fragment ignoring vertex IDs.">
<polygon fill="#bfbfbf" stroke="black" points="0,-170 0,-189 164,-189 164,-170 0,-170"/>
<text text-anchor="middle" x="82" y="-177" font-family="Helvetica,sans-Serif" font-size="10.00">denoptim.graph.Fragment.sameAs</text>
</a>
</g>
</g>
<!-- Node2 -->
<g id="node2" class="node">
<title>Node2</title>
<g id="a_node2"><a xlink:href="classdenoptim_1_1graph_1_1_fragment.html#ab6651f8664de0fb3ca604a0e91b0703b" target="_top" xlink:title=" ">
<polygon fill="white" stroke="black" points="200,-189.5 200,-219.5 365,-219.5 365,-189.5 200,-189.5"/>
<text text-anchor="start" x="208" y="-207.5" font-family="Helvetica,sans-Serif" font-size="10.00">denoptim.graph.Fragment.contains</text>
<text text-anchor="middle" x="282.5" y="-196.5" font-family="Helvetica,sans-Serif" font-size="10.00">Atoms</text>
</a>
</g>
</g>
<!-- Node1&#45;&gt;Node2 -->
<g id="edge1" class="edge">
<title>Node1&#45;&gt;Node2</title>
<path fill="none" stroke="midnightblue" d="M158.61,-189.02C168.82,-190.31 179.39,-191.64 189.84,-192.96"/>
<polygon fill="midnightblue" stroke="midnightblue" points="189.46,-196.44 199.82,-194.21 190.33,-189.49 189.46,-196.44"/>
</g>
<!-- Node3 -->
<g id="node3" class="node">
<title>Node3</title>
<g id="a_node3"><a xlink:href="classdenoptim_1_1graph_1_1_vertex.html#a7a48a6fb07f119d17a6c8eb091ee73ea" target="_top" xlink:title="Compares this and another vertex ignoring vertex IDs.">
<polygon fill="white" stroke="black" points="213,-140.5 213,-170.5 352,-170.5 352,-140.5 213,-140.5"/>
<text text-anchor="start" x="221" y="-158.5" font-family="Helvetica,sans-Serif" font-size="10.00">denoptim.graph.Vertex.same</text>
<text text-anchor="middle" x="282.5" y="-147.5" font-family="Helvetica,sans-Serif" font-size="10.00">VertexFeatures</text>
</a>
</g>
</g>
<!-- Node1&#45;&gt;Node3 -->
<g id="edge2" class="edge">
<title>Node1&#45;&gt;Node3</title>
<path fill="none" stroke="midnightblue" d="M161.74,-169.98C175.19,-168.35 189.18,-166.66 202.63,-165.04"/>
<polygon fill="midnightblue" stroke="midnightblue" points="203.3,-168.48 212.81,-163.81 202.46,-161.53 203.3,-168.48"/>
</g>
<!-- Node4 -->
<g id="node4" class="node">
<title>Node4</title>
<g id="a_node4"><a xlink:href="classdenoptim_1_1graph_1_1_vertex.html#aee39019987712f9784138e97917ac97f" target="_top" xlink:title="Get attachment point i on this vertex.">
<polygon fill="white" stroke="black" points="401,-264 401,-283 543,-283 543,-264 401,-264"/>
<text text-anchor="middle" x="472" y="-271" font-family="Helvetica,sans-Serif" font-size="10.00">denoptim.graph.Vertex.getAP</text>
</a>
</g>
</g>
<!-- Node3&#45;&gt;Node4 -->
<g id="edge3" class="edge">
<title>Node3&#45;&gt;Node4</title>
<path fill="none" stroke="midnightblue" d="M350.05,-170.64C355.42,-173.39 360.5,-176.65 365,-180.5 392.79,-204.28 372.83,-231.18 401,-254.5 403.04,-256.19 405.21,-257.72 407.49,-259.13"/>
<polygon fill="midnightblue" stroke="midnightblue" points="406.19,-262.4 416.68,-263.89 409.41,-256.18 406.19,-262.4"/>
</g>
<!-- Node6 -->
<g id="node6" class="node">
<title>Node6</title>
<g id="a_node6"><a xlink:href="classdenoptim_1_1graph_1_1_vertex.html#a200f775296c4c9804e3a2b59e065be8a" target="_top" xlink:title="Returns the index of the building block that should correspond to the position of the building block ...">
<polygon fill="white" stroke="black" points="408,-214.5 408,-244.5 536,-244.5 536,-214.5 408,-214.5"/>
<text text-anchor="start" x="416" y="-232.5" font-family="Helvetica,sans-Serif" font-size="10.00">denoptim.graph.Vertex.get</text>
<text text-anchor="middle" x="472" y="-221.5" font-family="Helvetica,sans-Serif" font-size="10.00">BuildingBlockId</text>
</a>
</g>
</g>
<!-- Node3&#45;&gt;Node6 -->
<g id="edge5" class="edge">
<title>Node3&#45;&gt;Node6</title>
<path fill="none" stroke="midnightblue" d="M340.92,-170.65C349.16,-173.53 357.41,-176.81 365,-180.5 382.52,-189.01 383.62,-196.7 401,-205.5 404.51,-207.28 408.18,-208.97 411.93,-210.58"/>
<polygon fill="midnightblue" stroke="midnightblue" points="410.75,-213.88 421.34,-214.39 413.38,-207.39 410.75,-213.88"/>
</g>
<!-- Node7 -->
<g id="node7" class="node">
<title>Node7</title>
<g id="a_node7"><a xlink:href="classdenoptim_1_1graph_1_1_vertex.html#a46dadb5fd30f1877db91e97ae55c2dd8" target="_top" xlink:title=" ">
<polygon fill="white" stroke="black" points="408,-165.5 408,-195.5 536,-195.5 536,-165.5 408,-165.5"/>
<text text-anchor="start" x="416" y="-183.5" font-family="Helvetica,sans-Serif" font-size="10.00">denoptim.graph.Vertex.get</text>
<text text-anchor="middle" x="472" y="-172.5" font-family="Helvetica,sans-Serif" font-size="10.00">BuildingBlockType</text>
</a>
</g>
</g>
<!-- Node3&#45;&gt;Node7 -->
<g id="edge6" class="edge">
<title>Node3&#45;&gt;Node7</title>
<path fill="none" stroke="midnightblue" d="M352.25,-164.67C367.03,-166.64 382.7,-168.73 397.64,-170.72"/>
<polygon fill="midnightblue" stroke="midnightblue" points="397.48,-174.23 407.85,-172.08 398.4,-167.29 397.48,-174.23"/>
</g>
<!-- Node8 -->
<g id="node8" class="node">
<title>Node8</title>
<g id="a_node8"><a xlink:href="classdenoptim_1_1graph_1_1_vertex.html#ac578a57700de26b2f0ba1fc7470129d0" target="_top" xlink:title=" ">
<polygon fill="white" stroke="black" points="408,-116.5 408,-146.5 536,-146.5 536,-116.5 408,-116.5"/>
<text text-anchor="start" x="416" y="-134.5" font-family="Helvetica,sans-Serif" font-size="10.00">denoptim.graph.Vertex.get</text>
<text text-anchor="middle" x="472" y="-123.5" font-family="Helvetica,sans-Serif" font-size="10.00">FreeAPCount</text>
</a>
</g>
</g>
<!-- Node3&#45;&gt;Node8 -->
<g id="edge7" class="edge">
<title>Node3&#45;&gt;Node8</title>
<path fill="none" stroke="midnightblue" d="M352.25,-146.7C367.03,-144.81 382.7,-142.8 397.64,-140.89"/>
<polygon fill="midnightblue" stroke="midnightblue" points="398.38,-144.32 407.85,-139.58 397.49,-137.38 398.38,-144.32"/>
</g>
<!-- Node9 -->
<g id="node9" class="node">
<title>Node9</title>
<g id="a_node9"><a xlink:href="classdenoptim_1_1graph_1_1_vertex.html#a514b89b11dff8939e74e5b95e749b703" target="_top" xlink:title=" ">
<polygon fill="white" stroke="black" points="408,-67.5 408,-97.5 536,-97.5 536,-67.5 408,-67.5"/>
<text text-anchor="start" x="416" y="-85.5" font-family="Helvetica,sans-Serif" font-size="10.00">denoptim.graph.Vertex.get</text>
<text text-anchor="middle" x="472" y="-74.5" font-family="Helvetica,sans-Serif" font-size="10.00">NumberOfAPs</text>
</a>
</g>
</g>
<!-- Node3&#45;&gt;Node9 -->
<g id="edge9" class="edge">
<title>Node3&#45;&gt;Node9</title>
<path fill="none" stroke="midnightblue" d="M319.07,-140.48C342.29,-130.8 373.32,-118.09 401,-107.5 406.56,-105.37 412.39,-103.2 418.21,-101.07"/>
<polygon fill="midnightblue" stroke="midnightblue" points="419.74,-104.24 427.95,-97.53 417.35,-97.66 419.74,-104.24"/>
</g>
<!-- Node10 -->
<g id="node10" class="node">
<title>Node10</title>
<g id="a_node10"><a xlink:href="classdenoptim_1_1graph_1_1_attachment_point.html#ab1226264e663d411606bc5af27dd921e" target="_top" xlink:title="Compares the features of this and another attachment point and decides if the two are same.">
<polygon fill="white" stroke="black" points="404.5,-0.5 404.5,-30.5 539.5,-30.5 539.5,-0.5 404.5,-0.5"/>
<text text-anchor="start" x="412.5" y="-18.5" font-family="Helvetica,sans-Serif" font-size="10.00">denoptim.graph.Attachment</text>
<text text-anchor="middle" x="472" y="-7.5" font-family="Helvetica,sans-Serif" font-size="10.00">Point.sameAs</text>
</a>
</g>
</g>
<!-- Node3&#45;&gt;Node10 -->
<g id="edge11" class="edge">
<title>Node3&#45;&gt;Node10</title>
<path fill="none" stroke="midnightblue" d="M300.42,-140.26C322.73,-120.46 363.55,-85.26 401,-58.5 411.99,-50.65 424.42,-42.72 435.73,-35.85"/>
<polygon fill="midnightblue" stroke="midnightblue" points="437.74,-38.73 444.51,-30.59 434.14,-32.73 437.74,-38.73"/>
</g>
<!-- Node5 -->
<g id="node5" class="node">
<title>Node5</title>
<g id="a_node5"><a xlink:href="classdenoptim_1_1graph_1_1_vertex.html#a022f7c9075b178f17e13339b215ee21f" target="_top" xlink:title=" ">
<polygon fill="white" stroke="black" points="579,-116.5 579,-146.5 707,-146.5 707,-116.5 579,-116.5"/>
<text text-anchor="start" x="587" y="-134.5" font-family="Helvetica,sans-Serif" font-size="10.00">denoptim.graph.Vertex.get</text>
<text text-anchor="middle" x="643" y="-123.5" font-family="Helvetica,sans-Serif" font-size="10.00">AttachmentPoints</text>
</a>
</g>
</g>
<!-- Node4&#45;&gt;Node5 -->
<g id="edge4" class="edge">
<title>Node4&#45;&gt;Node5</title>
<path fill="none" stroke="midnightblue" d="M523.61,-263.9C530.43,-261.44 537.1,-258.36 543,-254.5 581.96,-229.03 612.79,-183.23 629.14,-155.28"/>
<polygon fill="midnightblue" stroke="midnightblue" points="632.21,-156.96 634.12,-146.54 626.13,-153.5 632.21,-156.96"/>
</g>
<!-- Node8&#45;&gt;Node5 -->
<g id="edge8" class="edge">
<title>Node8&#45;&gt;Node5</title>
<path fill="none" stroke="midnightblue" d="M536.41,-131.5C546.91,-131.5 557.88,-131.5 568.61,-131.5"/>
<polygon fill="midnightblue" stroke="midnightblue" points="568.8,-135 578.8,-131.5 568.8,-128 568.8,-135"/>
</g>
<!-- Node9&#45;&gt;Node5 -->
<g id="edge10" class="edge">
<title>Node9&#45;&gt;Node5</title>
<path fill="none" stroke="midnightblue" d="M525.08,-97.6C542.6,-102.68 562.29,-108.39 580.46,-113.66"/>
<polygon fill="midnightblue" stroke="midnightblue" points="579.51,-117.03 590.09,-116.45 581.46,-110.3 579.51,-117.03"/>
</g>
<!-- Node10&#45;&gt;Node10 -->
<g id="edge12" class="edge">
<title>Node10&#45;&gt;Node10</title>
<path fill="none" stroke="midnightblue" d="M442.37,-30.66C435.23,-40.06 445.11,-49 472,-49 488.39,-49 498.46,-45.68 502.21,-40.96"/>
<polygon fill="midnightblue" stroke="midnightblue" points="505.68,-40.45 501.63,-30.66 498.69,-40.84 505.68,-40.45"/>
</g>
</g>
</svg>
