<?xml version="1.0" encoding="UTF-8" standalone="no"?>
<!DOCTYPE svg PUBLIC "-//W3C//DTD SVG 1.1//EN"
 "http://www.w3.org/Graphics/SVG/1.1/DTD/svg11.dtd">
<!-- Generated by graphviz version 3.0.0 (20220413.0242)
 -->
<!-- Title: denoptim.graph.Candidate.getFitness Pages: 1 -->
<svg width="1323pt" height="355pt"
 viewBox="0.00 0.00 1323.00 355.13" xmlns="http://www.w3.org/2000/svg" xmlns:xlink="http://www.w3.org/1999/xlink">
<g id="graph0" class="graph" transform="scale(1 1) rotate(0) translate(4 351.13)">
<title>denoptim.graph.Candidate.getFitness</title>
<polygon fill="white" stroke="transparent" points="-4,4 -4,-351.13 1319,-351.13 1319,4 -4,4"/>
<!-- Node1 -->
<g id="node1" class="node">
<title>Node1</title>
<g id="a_node1"><a xlink:title=" ">
<polygon fill="#bfbfbf" stroke="black" points="1171,-142.5 1171,-172.5 1315,-172.5 1315,-142.5 1171,-142.5"/>
<text text-anchor="start" x="1179" y="-160.5" font-family="Helvetica,sans-Serif" font-size="10.00">denoptim.graph.Candidate.get</text>
<text text-anchor="middle" x="1243" y="-149.5" font-family="Helvetica,sans-Serif" font-size="10.00">Fitness</text>
</a>
</g>
</g>
<!-- Node2 -->
<g id="node2" class="node">
<title>Node2</title>
<g id="a_node2"><a xlink:href="classdenoptim_1_1ga_1_1_offspring_evaluation_task.html#aab5b9c0b8a88922460f5c28ae161d1fa" target="_top" xlink:title=" ">
<polygon fill="white" stroke="black" points="549.5,-284.5 549.5,-314.5 704.5,-314.5 704.5,-284.5 549.5,-284.5"/>
<text text-anchor="start" x="557.5" y="-302.5" font-family="Helvetica,sans-Serif" font-size="10.00">denoptim.ga.OffspringEvaluation</text>
<text text-anchor="middle" x="627" y="-291.5" font-family="Helvetica,sans-Serif" font-size="10.00">Task.call</text>
</a>
</g>
</g>
<!-- Node1&#45;&gt;Node2 -->
<g id="edge1" class="edge">
<title>Node1&#45;&gt;Node2</title>
<path fill="none" stroke="midnightblue" d="M1232.43,-181.94C1217.49,-216.22 1185.08,-277.22 1135,-302.5 984.72,-378.37 776.02,-339.2 680.06,-314.54"/>
<polygon fill="midnightblue" stroke="midnightblue" points="1235.69,-183.2 1236.34,-172.63 1229.24,-180.49 1235.69,-183.2"/>
</g>
<!-- Node3 -->
<g id="node3" class="node">
<title>Node3</title>
<g id="a_node3"><a xlink:href="classdenoptim_1_1gui_1_1_molecule_view_panel.html#acfa83a9b27d29f5582ee14973e902aee" target="_top" xlink:title=" ">
<polygon fill="white" stroke="black" points="969,-164.5 969,-194.5 1103,-194.5 1103,-164.5 969,-164.5"/>
<text text-anchor="start" x="977" y="-182.5" font-family="Helvetica,sans-Serif" font-size="10.00">denoptim.gui.MoleculeView</text>
<text text-anchor="middle" x="1036" y="-171.5" font-family="Helvetica,sans-Serif" font-size="10.00">Panel.fillDataTable</text>
</a>
</g>
</g>
<!-- Node1&#45;&gt;Node3 -->
<g id="edge2" class="edge">
<title>Node1&#45;&gt;Node3</title>
<path fill="none" stroke="midnightblue" d="M1160.7,-166.22C1141.62,-168.27 1121.51,-170.43 1103.18,-172.4"/>
<polygon fill="midnightblue" stroke="midnightblue" points="1161.31,-169.68 1170.88,-165.13 1160.56,-162.72 1161.31,-169.68"/>
</g>
<!-- Node4 -->
<g id="node4" class="node">
<title>Node4</title>
<g id="a_node4"><a xlink:href="classdenoptim_1_1ga_1_1_population.html#afa798c05fd795d3860b2d6e44c9791e5" target="_top" xlink:title="Gets the maximum value of the fitness in this population.">
<polygon fill="white" stroke="black" points="969.5,-262.5 969.5,-292.5 1102.5,-292.5 1102.5,-262.5 969.5,-262.5"/>
<text text-anchor="start" x="977.5" y="-280.5" font-family="Helvetica,sans-Serif" font-size="10.00">denoptim.ga.Population.get</text>
<text text-anchor="middle" x="1036" y="-269.5" font-family="Helvetica,sans-Serif" font-size="10.00">MaxFitness</text>
</a>
</g>
</g>
<!-- Node1&#45;&gt;Node4 -->
<g id="edge3" class="edge">
<title>Node1&#45;&gt;Node4</title>
<path fill="none" stroke="midnightblue" d="M1222.83,-180.25C1203.04,-202.26 1170.19,-234.93 1135,-253.5 1125.01,-258.77 1113.83,-262.91 1102.7,-266.16"/>
<polygon fill="midnightblue" stroke="midnightblue" points="1225.52,-182.49 1229.5,-172.67 1220.27,-177.86 1225.52,-182.49"/>
</g>
<!-- Node8 -->
<g id="node8" class="node">
<title>Node8</title>
<g id="a_node8"><a xlink:href="classdenoptim_1_1ga_1_1_population.html#a0324ca75861e476b7f6480e740864ffb" target="_top" xlink:title="Gets the minimum value of the fitness in this population.">
<polygon fill="white" stroke="black" points="969.5,-213.5 969.5,-243.5 1102.5,-243.5 1102.5,-213.5 969.5,-213.5"/>
<text text-anchor="start" x="977.5" y="-231.5" font-family="Helvetica,sans-Serif" font-size="10.00">denoptim.ga.Population.get</text>
<text text-anchor="middle" x="1036" y="-220.5" font-family="Helvetica,sans-Serif" font-size="10.00">MinFitness</text>
</a>
</g>
</g>
<!-- Node1&#45;&gt;Node8 -->
<g id="edge8" class="edge">
<title>Node1&#45;&gt;Node8</title>
<path fill="none" stroke="midnightblue" d="M1202.58,-176.78C1182.65,-186.02 1157.89,-196.74 1135,-204.5 1124.63,-208.02 1113.49,-211.25 1102.56,-214.12"/>
<polygon fill="midnightblue" stroke="midnightblue" points="1204.09,-179.94 1211.66,-172.52 1201.12,-173.6 1204.09,-179.94"/>
</g>
<!-- Node9 -->
<g id="node9" class="node">
<title>Node9</title>
<g id="a_node9"><a xlink:href="classdenoptim_1_1ga_1_1_e_a_utils.html#aafeb26c06b39ccb444c440d8f1f2c340" target="_top" xlink:title="Write out summary for the current GA population.">
<polygon fill="white" stroke="black" points="560,-156.5 560,-186.5 694,-186.5 694,-156.5 560,-156.5"/>
<text text-anchor="start" x="568" y="-174.5" font-family="Helvetica,sans-Serif" font-size="10.00">denoptim.ga.EAUtils.output</text>
<text text-anchor="middle" x="627" y="-163.5" font-family="Helvetica,sans-Serif" font-size="10.00">PopulationDetails</text>
</a>
</g>
</g>
<!-- Node1&#45;&gt;Node9 -->
<g id="edge11" class="edge">
<title>Node1&#45;&gt;Node9</title>
<path fill="none" stroke="midnightblue" d="M1160.75,-155.82C1152.06,-155.69 1143.35,-155.58 1135,-155.5 1047,-154.68 1024.97,-153.22 937,-155.5 853.23,-157.67 756.81,-163.13 694.27,-167.08"/>
<polygon fill="midnightblue" stroke="midnightblue" points="1160.87,-159.32 1170.92,-155.99 1160.98,-152.33 1160.87,-159.32"/>
</g>
<!-- Node15 -->
<g id="node15" class="node">
<title>Node15</title>
<g id="a_node15"><a xlink:href="classdenoptim_1_1ga_1_1_selection_helper.html#a33a3272394cbc9320172cc6d98c39110" target="_top" xlink:title="Roulette wheel selection is implemented as follows:">
<polygon fill="white" stroke="black" points="937,-88 937,-107 1135,-107 1135,-88 937,-88"/>
<text text-anchor="middle" x="1036" y="-95" font-family="Helvetica,sans-Serif" font-size="10.00">denoptim.ga.SelectionHelper.performRWS</text>
</a>
</g>
</g>
<!-- Node1&#45;&gt;Node15 -->
<g id="edge18" class="edge">
<title>Node1&#45;&gt;Node15</title>
<path fill="none" stroke="midnightblue" d="M1190.59,-139.22C1173.06,-133.25 1153.26,-126.8 1135,-121.5 1116.83,-116.23 1096.55,-111.13 1079.17,-107"/>
<polygon fill="midnightblue" stroke="midnightblue" points="1189.48,-142.54 1200.08,-142.48 1191.76,-135.92 1189.48,-142.54"/>
</g>
<!-- Node21 -->
<g id="node21" class="node">
<title>Node21</title>
<g id="a_node21"><a xlink:href="classdenoptim_1_1ga_1_1_selection_helper.html#a7321afd6b693460681744b05496685f6" target="_top" xlink:title="Stochastic Uniform Sampling Note: this implementation is based on the WATCHMAKER framework http://wat...">
<polygon fill="white" stroke="black" points="937.5,-50 937.5,-69 1134.5,-69 1134.5,-50 937.5,-50"/>
<text text-anchor="middle" x="1036" y="-57" font-family="Helvetica,sans-Serif" font-size="10.00">denoptim.ga.SelectionHelper.performSUS</text>
</a>
</g>
</g>
<!-- Node1&#45;&gt;Node21 -->
<g id="edge26" class="edge">
<title>Node1&#45;&gt;Node21</title>
<path fill="none" stroke="midnightblue" d="M1218.86,-135.59C1198.4,-117.47 1166.92,-92.51 1135,-78.5 1126.11,-74.6 1116.43,-71.49 1106.71,-69.03"/>
<polygon fill="midnightblue" stroke="midnightblue" points="1216.64,-138.3 1226.4,-142.41 1221.33,-133.1 1216.64,-138.3"/>
</g>
<!-- Node22 -->
<g id="node22" class="node">
<title>Node22</title>
<g id="a_node22"><a xlink:href="classdenoptim_1_1ga_1_1_selection_helper.html#a8c9b38255efa029c6b672d26a03ce90c" target="_top" xlink:title="Select p individuals at random.">
<polygon fill="white" stroke="black" points="948,-0.5 948,-30.5 1124,-30.5 1124,-0.5 948,-0.5"/>
<text text-anchor="start" x="956" y="-18.5" font-family="Helvetica,sans-Serif" font-size="10.00">denoptim.ga.SelectionHelper.perform</text>
<text text-anchor="middle" x="1036" y="-7.5" font-family="Helvetica,sans-Serif" font-size="10.00">TournamentSelection</text>
</a>
</g>
</g>
<!-- Node1&#45;&gt;Node22 -->
<g id="edge28" class="edge">
<title>Node1&#45;&gt;Node22</title>
<path fill="none" stroke="midnightblue" d="M1226.83,-133.96C1208.35,-107.23 1174.67,-64.27 1135,-40.5 1128.52,-36.62 1121.46,-33.34 1114.18,-30.56"/>
<polygon fill="midnightblue" stroke="midnightblue" points="1224,-136.02 1232.49,-142.35 1229.8,-132.1 1224,-136.02"/>
</g>
<!-- Node5 -->
<g id="node5" class="node">
<title>Node5</title>
<g id="a_node5"><a xlink:href="classdenoptim_1_1ga_1_1_population.html#a43092319305b5aaef2c335cabadc7d06" target="_top" xlink:title="Checks if a given fitness value if within the given percentile of best candidates.">
<polygon fill="white" stroke="black" points="760,-213.5 760,-243.5 887,-243.5 887,-213.5 760,-213.5"/>
<text text-anchor="start" x="768" y="-231.5" font-family="Helvetica,sans-Serif" font-size="10.00">denoptim.ga.Population.is</text>
<text text-anchor="middle" x="823.5" y="-220.5" font-family="Helvetica,sans-Serif" font-size="10.00">WithinPercentile</text>
</a>
</g>
</g>
<!-- Node4&#45;&gt;Node5 -->
<g id="edge4" class="edge">
<title>Node4&#45;&gt;Node5</title>
<path fill="none" stroke="midnightblue" d="M960.63,-260.19C936.62,-254.6 910.24,-248.46 887.16,-243.09"/>
<polygon fill="midnightblue" stroke="midnightblue" points="959.88,-263.61 970.41,-262.47 961.47,-256.79 959.88,-263.61"/>
</g>
<!-- Node7 -->
<g id="node7" class="node">
<title>Node7</title>
<g id="a_node7"><a xlink:href="classdenoptim_1_1ga_1_1_population_test.html#aa40d0bedbf2ca22b34267aa8491d7ec3" target="_top" xlink:title=" ">
<polygon fill="white" stroke="black" points="746,-262.5 746,-292.5 901,-292.5 901,-262.5 746,-262.5"/>
<text text-anchor="start" x="754" y="-280.5" font-family="Helvetica,sans-Serif" font-size="10.00">denoptim.ga.PopulationTest.test</text>
<text text-anchor="middle" x="823.5" y="-269.5" font-family="Helvetica,sans-Serif" font-size="10.00">GetMinMax</text>
</a>
</g>
</g>
<!-- Node4&#45;&gt;Node7 -->
<g id="edge7" class="edge">
<title>Node4&#45;&gt;Node7</title>
<path fill="none" stroke="midnightblue" d="M959.23,-277.5C940.34,-277.5 920.08,-277.5 901.15,-277.5"/>
<polygon fill="midnightblue" stroke="midnightblue" points="959.26,-281 969.26,-277.5 959.26,-274 959.26,-281"/>
</g>
<!-- Node5&#45;&gt;Node2 -->
<g id="edge5" class="edge">
<title>Node5&#45;&gt;Node2</title>
<path fill="none" stroke="midnightblue" d="M765.44,-246.76C758.87,-248.98 752.28,-251.25 746,-253.5 718.67,-263.28 688.16,-275.21 665,-284.46"/>
<polygon fill="midnightblue" stroke="midnightblue" points="766.65,-250.05 775.02,-243.56 764.43,-243.41 766.65,-250.05"/>
</g>
<!-- Node6 -->
<g id="node6" class="node">
<title>Node6</title>
<g id="a_node6"><a xlink:href="classdenoptim_1_1ga_1_1_population_test.html#a6725ae8dc980dd79466800b489fc9620" target="_top" xlink:title=" ">
<polygon fill="white" stroke="black" points="549.5,-213.5 549.5,-243.5 704.5,-243.5 704.5,-213.5 549.5,-213.5"/>
<text text-anchor="start" x="557.5" y="-231.5" font-family="Helvetica,sans-Serif" font-size="10.00">denoptim.ga.PopulationTest.test</text>
<text text-anchor="middle" x="627" y="-220.5" font-family="Helvetica,sans-Serif" font-size="10.00">IsInPercentile</text>
</a>
</g>
</g>
<!-- Node5&#45;&gt;Node6 -->
<g id="edge6" class="edge">
<title>Node5&#45;&gt;Node6</title>
<path fill="none" stroke="midnightblue" d="M749.85,-228.5C735.15,-228.5 719.64,-228.5 704.8,-228.5"/>
<polygon fill="midnightblue" stroke="midnightblue" points="749.89,-232 759.89,-228.5 749.89,-225 749.89,-232"/>
</g>
<!-- Node8&#45;&gt;Node5 -->
<g id="edge9" class="edge">
<title>Node8&#45;&gt;Node5</title>
<path fill="none" stroke="midnightblue" d="M958.97,-228.5C935.42,-228.5 909.76,-228.5 887.22,-228.5"/>
<polygon fill="midnightblue" stroke="midnightblue" points="959.26,-232 969.26,-228.5 959.26,-225 959.26,-232"/>
</g>
<!-- Node8&#45;&gt;Node7 -->
<g id="edge10" class="edge">
<title>Node8&#45;&gt;Node7</title>
<path fill="none" stroke="midnightblue" d="M960.55,-245.83C937.18,-251.27 911.58,-257.23 888.97,-262.49"/>
<polygon fill="midnightblue" stroke="midnightblue" points="961.47,-249.21 970.41,-243.53 959.88,-242.39 961.47,-249.21"/>
</g>
<!-- Node10 -->
<g id="node10" class="node">
<title>Node10</title>
<g id="a_node10"><a xlink:href="classdenoptim_1_1ga_1_1_e_a_utils.html#a5d3fb7536032d02b0f3243fa3738cf45" target="_top" xlink:title="Simply copies the files from the previous directories into the specified folder.">
<polygon fill="white" stroke="black" points="362,-206.5 362,-236.5 496,-236.5 496,-206.5 362,-206.5"/>
<text text-anchor="start" x="370" y="-224.5" font-family="Helvetica,sans-Serif" font-size="10.00">denoptim.ga.EAUtils.output</text>
<text text-anchor="middle" x="429" y="-213.5" font-family="Helvetica,sans-Serif" font-size="10.00">FinalResults</text>
</a>
</g>
</g>
<!-- Node9&#45;&gt;Node10 -->
<g id="edge12" class="edge">
<title>Node9&#45;&gt;Node10</title>
<path fill="none" stroke="midnightblue" d="M557.46,-188.98C535.17,-194.67 510.64,-200.93 489.1,-206.42"/>
<polygon fill="midnightblue" stroke="midnightblue" points="558.37,-192.36 567.19,-186.5 556.64,-185.58 558.37,-192.36"/>
</g>
<!-- Node11 -->
<g id="node11" class="node">
<title>Node11</title>
<g id="a_node11"><a xlink:href="classdenoptim_1_1ga_1_1_evolutionary_algorithm.html#a6bfc2fa59b199da6259b5b6bad3d6de7" target="_top" xlink:title=" ">
<polygon fill="white" stroke="black" points="190,-113.5 190,-143.5 314,-143.5 314,-113.5 190,-113.5"/>
<text text-anchor="start" x="198" y="-131.5" font-family="Helvetica,sans-Serif" font-size="10.00">denoptim.ga.Evolutionary</text>
<text text-anchor="middle" x="252" y="-120.5" font-family="Helvetica,sans-Serif" font-size="10.00">Algorithm.run</text>
</a>
</g>
</g>
<!-- Node9&#45;&gt;Node11 -->
<g id="edge16" class="edge">
<title>Node9&#45;&gt;Node11</title>
<path fill="none" stroke="midnightblue" d="M549.78,-155.32C535.92,-152.76 521.56,-150.35 508,-148.5 442,-139.51 365.8,-134.19 314.01,-131.32"/>
<polygon fill="midnightblue" stroke="midnightblue" points="549.28,-158.79 559.76,-157.21 550.58,-151.91 549.28,-158.79"/>
</g>
<!-- Node14 -->
<g id="node14" class="node">
<title>Node14</title>
<g id="a_node14"><a xlink:href="classdenoptim_1_1io_1_1_denoptim_i_o_test.html#af5c2f9114881ebde82a83f922c0c23fe" target="_top" xlink:title=" ">
<polygon fill="white" stroke="black" points="350,-157.5 350,-187.5 508,-187.5 508,-157.5 350,-157.5"/>
<text text-anchor="start" x="358" y="-175.5" font-family="Helvetica,sans-Serif" font-size="10.00">denoptim.io.DenoptimIOTest.test</text>
<text text-anchor="middle" x="429" y="-164.5" font-family="Helvetica,sans-Serif" font-size="10.00">ReadGenerationFromSummary</text>
</a>
</g>
</g>
<!-- Node9&#45;&gt;Node14 -->
<g id="edge17" class="edge">
<title>Node9&#45;&gt;Node14</title>
<path fill="none" stroke="midnightblue" d="M549.68,-171.89C536.11,-171.96 521.96,-172.03 508.34,-172.1"/>
<polygon fill="midnightblue" stroke="midnightblue" points="549.93,-175.39 559.92,-171.84 549.9,-168.39 549.93,-175.39"/>
</g>
<!-- Node10&#45;&gt;Node11 -->
<g id="edge13" class="edge">
<title>Node10&#45;&gt;Node11</title>
<path fill="none" stroke="midnightblue" d="M361.8,-202.78C357.75,-201.13 353.79,-199.37 350,-197.5 319.98,-182.68 289.11,-158.99 270.49,-143.58"/>
<polygon fill="midnightblue" stroke="midnightblue" points="360.76,-206.13 371.35,-206.43 363.26,-199.59 360.76,-206.13"/>
</g>
<!-- Node12 -->
<g id="node12" class="node">
<title>Node12</title>
<g id="a_node12"><a xlink:href="classdenoptim_1_1ga_1_1_evolutionary_algorithm.html#a0f2063b722b7291daf83d62acaa683d3" target="_top" xlink:title=" ">
<polygon fill="white" stroke="black" points="0,-138.5 0,-168.5 154,-168.5 154,-138.5 0,-138.5"/>
<text text-anchor="start" x="8" y="-156.5" font-family="Helvetica,sans-Serif" font-size="10.00">denoptim.ga.Evolutionary</text>
<text text-anchor="middle" x="77" y="-145.5" font-family="Helvetica,sans-Serif" font-size="10.00">Algorithm.EvolutionaryAlgorithm</text>
</a>
</g>
</g>
<!-- Node11&#45;&gt;Node12 -->
<g id="edge14" class="edge">
<title>Node11&#45;&gt;Node12</title>
<path fill="none" stroke="midnightblue" d="M179.44,-138.84C171.09,-140.05 162.54,-141.28 154.12,-142.5"/>
<polygon fill="midnightblue" stroke="midnightblue" points="180.12,-142.28 189.52,-137.38 179.12,-135.35 180.12,-142.28"/>
</g>
<!-- Node13 -->
<g id="node13" class="node">
<title>Node13</title>
<g id="a_node13"><a xlink:href="classdenoptim_1_1programs_1_1denovo_1_1_g_a_runner.html#a7cafd6d78727b89dce3e2c8d06f0dd7c" target="_top" xlink:title=" ">
<polygon fill="white" stroke="black" points="9.5,-89.5 9.5,-119.5 144.5,-119.5 144.5,-89.5 9.5,-89.5"/>
<text text-anchor="start" x="17.5" y="-107.5" font-family="Helvetica,sans-Serif" font-size="10.00">denoptim.programs.denovo.</text>
<text text-anchor="middle" x="77" y="-96.5" font-family="Helvetica,sans-Serif" font-size="10.00">GARunner.runProgram</text>
</a>
</g>
</g>
<!-- Node11&#45;&gt;Node13 -->
<g id="edge15" class="edge">
<title>Node11&#45;&gt;Node13</title>
<path fill="none" stroke="midnightblue" d="M179.48,-118.58C167.92,-116.97 156,-115.32 144.57,-113.73"/>
<polygon fill="midnightblue" stroke="midnightblue" points="179.13,-122.06 189.52,-119.97 180.1,-115.13 179.13,-122.06"/>
</g>
<!-- Node16 -->
<g id="node16" class="node">
<title>Node16</title>
<g id="a_node16"><a xlink:href="classdenoptim_1_1ga_1_1_e_a_utils.html#aa58e7cef632419fceeeb96e09b3e09fc" target="_top" xlink:title="Selects a number of members from the given population.">
<polygon fill="white" stroke="black" points="757,-41.5 757,-71.5 890,-71.5 890,-41.5 757,-41.5"/>
<text text-anchor="start" x="765" y="-59.5" font-family="Helvetica,sans-Serif" font-size="10.00">denoptim.ga.EAUtils.select</text>
<text text-anchor="middle" x="823.5" y="-48.5" font-family="Helvetica,sans-Serif" font-size="10.00">BasedOnFitness</text>
</a>
</g>
</g>
<!-- Node15&#45;&gt;Node16 -->
<g id="edge19" class="edge">
<title>Node15&#45;&gt;Node16</title>
<path fill="none" stroke="midnightblue" d="M975.8,-86.04C963.01,-83.56 949.55,-80.94 937,-78.5 921.86,-75.55 905.58,-72.37 890.23,-69.37"/>
<polygon fill="midnightblue" stroke="midnightblue" points="975.41,-89.53 985.9,-88 976.74,-82.66 975.41,-89.53"/>
</g>
<!-- Node17 -->
<g id="node17" class="node">
<title>Node17</title>
<g id="a_node17"><a xlink:href="classdenoptim_1_1ga_1_1_e_a_utils.html#a5cb6bbe9f383bf821f3b1f1c5e60031b" target="_top" xlink:title=" ">
<polygon fill="white" stroke="black" points="563.5,-79.5 563.5,-109.5 690.5,-109.5 690.5,-79.5 563.5,-79.5"/>
<text text-anchor="start" x="571.5" y="-97.5" font-family="Helvetica,sans-Serif" font-size="10.00">denoptim.ga.EAUtils.build</text>
<text text-anchor="middle" x="627" y="-86.5" font-family="Helvetica,sans-Serif" font-size="10.00">CandidateByMutation</text>
</a>
</g>
</g>
<!-- Node16&#45;&gt;Node17 -->
<g id="edge20" class="edge">
<title>Node16&#45;&gt;Node17</title>
<path fill="none" stroke="midnightblue" d="M747,-71.25C728.37,-74.89 708.61,-78.75 690.66,-82.26"/>
<polygon fill="midnightblue" stroke="midnightblue" points="747.78,-74.66 756.92,-69.31 746.44,-67.79 747.78,-74.66"/>
</g>
<!-- Node19 -->
<g id="node19" class="node">
<title>Node19</title>
<g id="a_node19"><a xlink:href="classdenoptim_1_1ga_1_1_e_a_utils.html#a98553265dd4b441b11c6d97d098edb08" target="_top" xlink:title="Generates a new offspring by performing a crossover operation.">
<polygon fill="white" stroke="black" points="365.5,-5.5 365.5,-35.5 492.5,-35.5 492.5,-5.5 365.5,-5.5"/>
<text text-anchor="start" x="373.5" y="-23.5" font-family="Helvetica,sans-Serif" font-size="10.00">denoptim.ga.EAUtils.build</text>
<text text-anchor="middle" x="429" y="-12.5" font-family="Helvetica,sans-Serif" font-size="10.00">CandidateByXOver</text>
</a>
</g>
</g>
<!-- Node16&#45;&gt;Node19 -->
<g id="edge23" class="edge">
<title>Node16&#45;&gt;Node19</title>
<path fill="none" stroke="midnightblue" d="M746.74,-49.84C690.73,-44.88 612.6,-37.89 544,-31.5 527.37,-29.95 509.38,-28.23 492.71,-26.63"/>
<polygon fill="midnightblue" stroke="midnightblue" points="746.66,-53.34 756.93,-50.74 747.28,-46.37 746.66,-53.34"/>
</g>
<!-- Node20 -->
<g id="node20" class="node">
<title>Node20</title>
<g id="a_node20"><a xlink:href="classdenoptim_1_1ga_1_1_e_a_utils.html#af1c589b6d5ba261e1417f3cd299e8e5d" target="_top" xlink:title="Perform fitness&#45;based, class&#45;compatible selection of parents that can do crossover operations.">
<polygon fill="white" stroke="black" points="544,-3 544,-22 710,-22 710,-3 544,-3"/>
<text text-anchor="middle" x="627" y="-10" font-family="Helvetica,sans-Serif" font-size="10.00">denoptim.ga.EAUtils.performFBCC</text>
</a>
</g>
</g>
<!-- Node16&#45;&gt;Node20 -->
<g id="edge24" class="edge">
<title>Node16&#45;&gt;Node20</title>
<path fill="none" stroke="midnightblue" d="M747.04,-39.43C720.91,-33.52 692.58,-27.11 670.11,-22.03"/>
<polygon fill="midnightblue" stroke="midnightblue" points="746.4,-42.87 756.92,-41.66 747.94,-36.04 746.4,-42.87"/>
</g>
<!-- Node18 -->
<g id="node18" class="node">
<title>Node18</title>
<g id="a_node18"><a xlink:href="classdenoptim_1_1ga_1_1_evolutionary_algorithm.html#a596b2f5f0b097c5b67a6e5163bd6fe66" target="_top" xlink:title="Generates a given number of new candidate items and adds them to the current population.">
<polygon fill="white" stroke="black" points="362,-69.5 362,-99.5 496,-99.5 496,-69.5 362,-69.5"/>
<text text-anchor="start" x="370" y="-87.5" font-family="Helvetica,sans-Serif" font-size="10.00">denoptim.ga.Evolutionary</text>
<text text-anchor="middle" x="429" y="-76.5" font-family="Helvetica,sans-Serif" font-size="10.00">Algorithm.evolvePopulation</text>
</a>
</g>
</g>
<!-- Node17&#45;&gt;Node18 -->
<g id="edge21" class="edge">
<title>Node17&#45;&gt;Node18</title>
<path fill="none" stroke="midnightblue" d="M553.45,-90.8C534.63,-89.84 514.47,-88.81 496.02,-87.87"/>
<polygon fill="midnightblue" stroke="midnightblue" points="553.28,-94.29 563.45,-91.31 553.64,-87.3 553.28,-94.29"/>
</g>
<!-- Node18&#45;&gt;Node11 -->
<g id="edge22" class="edge">
<title>Node18&#45;&gt;Node11</title>
<path fill="none" stroke="midnightblue" d="M358.46,-101.99C343.33,-105.79 327.47,-109.78 312.76,-113.47"/>
<polygon fill="midnightblue" stroke="midnightblue" points="359.42,-105.35 368.26,-99.52 357.71,-98.56 359.42,-105.35"/>
</g>
<!-- Node20&#45;&gt;Node19 -->
<g id="edge25" class="edge">
<title>Node20&#45;&gt;Node19</title>
<path fill="none" stroke="midnightblue" d="M533.67,-16.27C519.79,-16.84 505.75,-17.41 492.69,-17.94"/>
<polygon fill="midnightblue" stroke="midnightblue" points="533.88,-19.76 543.73,-15.86 533.6,-12.77 533.88,-19.76"/>
</g>
<!-- Node21&#45;&gt;Node16 -->
<g id="edge27" class="edge">
<title>Node21&#45;&gt;Node16</title>
<path fill="none" stroke="midnightblue" d="M927.29,-57.97C914.62,-57.78 902,-57.6 890.16,-57.44"/>
<polygon fill="midnightblue" stroke="midnightblue" points="927.4,-61.47 937.45,-58.11 927.5,-54.47 927.4,-61.47"/>
</g>
<!-- Node22&#45;&gt;Node16 -->
<g id="edge29" class="edge">
<title>Node22&#45;&gt;Node16</title>
<path fill="none" stroke="midnightblue" d="M947.83,-32.48C928.58,-36.23 908.49,-40.14 890.25,-43.69"/>
<polygon fill="midnightblue" stroke="midnightblue" points="948.67,-35.88 957.81,-30.53 947.33,-29.01 948.67,-35.88"/>
</g>
</g>
</svg>
