<?xml version="1.0" encoding="UTF-8" standalone="no"?>
<!DOCTYPE svg PUBLIC "-//W3C//DTD SVG 1.1//EN"
 "http://www.w3.org/Graphics/SVG/1.1/DTD/svg11.dtd">
<!-- Generated by graphviz version 3.0.0 (20220413.0242)
 -->
<!-- Title: denoptim.graph.Vertex.getMutationTypes Pages: 1 -->
<svg width="561pt" height="186pt"
 viewBox="0.00 0.00 561.00 186.00" xmlns="http://www.w3.org/2000/svg" xmlns:xlink="http://www.w3.org/1999/xlink">
<g id="graph0" class="graph" transform="scale(1 1) rotate(0) translate(4 182)">
<title>denoptim.graph.Vertex.getMutationTypes</title>
<polygon fill="white" stroke="transparent" points="-4,4 -4,-182 557,-182 557,4 -4,4"/>
<!-- Node1 -->
<g id="node1" class="node">
<title>Node1</title>
<g id="a_node1"><a xlink:title="Returns the list of mutation types.">
<polygon fill="#bfbfbf" stroke="black" points="425,-73.5 425,-103.5 553,-103.5 553,-73.5 425,-73.5"/>
<text text-anchor="start" x="433" y="-91.5" font-family="Helvetica,sans-Serif" font-size="10.00">denoptim.graph.Vertex.get</text>
<text text-anchor="middle" x="489" y="-80.5" font-family="Helvetica,sans-Serif" font-size="10.00">MutationTypes</text>
</a>
</g>
</g>
<!-- Node1&#45;&gt;Node1 -->
<g id="edge7" class="edge">
<title>Node1&#45;&gt;Node1</title>
<path fill="none" stroke="midnightblue" d="M522.05,-113.96C517.95,-118.68 506.93,-122 489,-122 459.57,-122 448.77,-113.06 456.59,-103.66"/>
<polygon fill="midnightblue" stroke="midnightblue" points="525.52,-113.42 521.41,-103.66 518.54,-113.86 525.52,-113.42"/>
</g>
<!-- Node2 -->
<g id="node2" class="node">
<title>Node2</title>
<g id="a_node2"><a xlink:href="classdenoptim_1_1ga_1_1_graph_operations.html#afd659e74a056d1a6ae6f52513fee0be3" target="_top" xlink:title="Deletes the given vertex and all other vertexes that are not connected to more than 2 non&#45;capping gro...">
<polygon fill="white" stroke="black" points="216,-147.5 216,-177.5 389,-177.5 389,-147.5 216,-147.5"/>
<text text-anchor="start" x="224" y="-165.5" font-family="Helvetica,sans-Serif" font-size="10.00">denoptim.ga.GraphOperations.delete</text>
<text text-anchor="middle" x="302.5" y="-154.5" font-family="Helvetica,sans-Serif" font-size="10.00">Chain</text>
</a>
</g>
</g>
<!-- Node1&#45;&gt;Node2 -->
<g id="edge1" class="edge">
<title>Node1&#45;&gt;Node2</title>
<path fill="none" stroke="midnightblue" d="M452.78,-108.39C434.2,-118.34 410.8,-130.03 389,-138.5 380.67,-141.74 371.72,-144.74 362.86,-147.45"/>
<polygon fill="midnightblue" stroke="midnightblue" points="454.63,-111.37 461.75,-103.52 451.29,-105.22 454.63,-111.37"/>
</g>
<!-- Node4 -->
<g id="node4" class="node">
<title>Node4</title>
<g id="a_node4"><a xlink:href="classdenoptim_1_1graph_1_1_empty_vertex.html#adadd10327030c3aed688648b7a00857a" target="_top" xlink:title="A list of mutation sites from within this vertex.">
<polygon fill="white" stroke="black" points="225,-98.5 225,-128.5 380,-128.5 380,-98.5 225,-98.5"/>
<text text-anchor="start" x="233" y="-116.5" font-family="Helvetica,sans-Serif" font-size="10.00">denoptim.graph.EmptyVertex.get</text>
<text text-anchor="middle" x="302.5" y="-105.5" font-family="Helvetica,sans-Serif" font-size="10.00">MutationSites</text>
</a>
</g>
</g>
<!-- Node1&#45;&gt;Node4 -->
<g id="edge3" class="edge">
<title>Node1&#45;&gt;Node4</title>
<path fill="none" stroke="midnightblue" d="M414.84,-98.41C403.4,-99.96 391.55,-101.57 380.04,-103.13"/>
<polygon fill="midnightblue" stroke="midnightblue" points="415.32,-101.88 424.76,-97.07 414.38,-94.94 415.32,-101.88"/>
</g>
<!-- Node5 -->
<g id="node5" class="node">
<title>Node5</title>
<g id="a_node5"><a xlink:href="classdenoptim_1_1graph_1_1_fragment.html#a0685806b8ac90c0b23504a246618edec" target="_top" xlink:title="A list of mutation sites from within this vertex.">
<polygon fill="white" stroke="black" points="231.5,-49.5 231.5,-79.5 373.5,-79.5 373.5,-49.5 231.5,-49.5"/>
<text text-anchor="start" x="239.5" y="-67.5" font-family="Helvetica,sans-Serif" font-size="10.00">denoptim.graph.Fragment.get</text>
<text text-anchor="middle" x="302.5" y="-56.5" font-family="Helvetica,sans-Serif" font-size="10.00">MutationSites</text>
</a>
</g>
</g>
<!-- Node1&#45;&gt;Node5 -->
<g id="edge4" class="edge">
<title>Node1&#45;&gt;Node5</title>
<path fill="none" stroke="midnightblue" d="M414.57,-78.95C401.07,-77.19 387.01,-75.36 373.61,-73.62"/>
<polygon fill="midnightblue" stroke="midnightblue" points="414.4,-82.45 424.76,-80.27 415.3,-75.51 414.4,-82.45"/>
</g>
<!-- Node6 -->
<g id="node6" class="node">
<title>Node6</title>
<g id="a_node6"><a xlink:href="classdenoptim_1_1graph_1_1_template.html#a12b8da07fd36b5f756ec3c1cdbd3a8e9" target="_top" xlink:title="A list of mutation sites from within this vertex.">
<polygon fill="white" stroke="black" points="232,-0.5 232,-30.5 373,-30.5 373,-0.5 232,-0.5"/>
<text text-anchor="start" x="240" y="-18.5" font-family="Helvetica,sans-Serif" font-size="10.00">denoptim.graph.Template.get</text>
<text text-anchor="middle" x="302.5" y="-7.5" font-family="Helvetica,sans-Serif" font-size="10.00">MutationSites</text>
</a>
</g>
</g>
<!-- Node1&#45;&gt;Node6 -->
<g id="edge5" class="edge">
<title>Node1&#45;&gt;Node6</title>
<path fill="none" stroke="midnightblue" d="M451.07,-68.77C432.73,-59.45 410.04,-48.61 389,-40.5 379.76,-36.94 369.8,-33.6 360.06,-30.59"/>
<polygon fill="midnightblue" stroke="midnightblue" points="449.47,-71.89 459.97,-73.35 452.67,-65.66 449.47,-71.89"/>
</g>
<!-- Node3 -->
<g id="node3" class="node">
<title>Node3</title>
<g id="a_node3"><a xlink:href="classdenoptim_1_1ga_1_1_graph_operations.html#a0c851972015fbb4b2a317b053b8b81d9" target="_top" xlink:title="Mutates the given vertex according to the given mutation type, if possible.">
<polygon fill="white" stroke="black" points="0,-147.5 0,-177.5 180,-177.5 180,-147.5 0,-147.5"/>
<text text-anchor="start" x="8" y="-165.5" font-family="Helvetica,sans-Serif" font-size="10.00">denoptim.ga.GraphOperations.perform</text>
<text text-anchor="middle" x="90" y="-154.5" font-family="Helvetica,sans-Serif" font-size="10.00">Mutation</text>
</a>
</g>
</g>
<!-- Node2&#45;&gt;Node3 -->
<g id="edge2" class="edge">
<title>Node2&#45;&gt;Node3</title>
<path fill="none" stroke="midnightblue" d="M205.65,-162.5C197.21,-162.5 188.69,-162.5 180.31,-162.5"/>
<polygon fill="midnightblue" stroke="midnightblue" points="205.88,-166 215.88,-162.5 205.88,-159 205.88,-166"/>
</g>
<!-- Node7 -->
<g id="node7" class="node">
<title>Node7</title>
<g id="a_node7"><a xlink:href="classdenoptim_1_1ga_1_1_e_a_utils_test.html#ab7a37d3340d35ab586332ce2122e7bb0" target="_top" xlink:title=" ">
<polygon fill="white" stroke="black" points="8.5,-0.5 8.5,-30.5 171.5,-30.5 171.5,-0.5 8.5,-0.5"/>
<text text-anchor="start" x="16.5" y="-18.5" font-family="Helvetica,sans-Serif" font-size="10.00">denoptim.ga.EAUtilsTest.test</text>
<text text-anchor="middle" x="90" y="-7.5" font-family="Helvetica,sans-Serif" font-size="10.00">BuildGraphFromTemplateScaffold</text>
</a>
</g>
</g>
<!-- Node6&#45;&gt;Node7 -->
<g id="edge6" class="edge">
<title>Node6&#45;&gt;Node7</title>
<path fill="none" stroke="midnightblue" d="M221.9,-15.5C205.5,-15.5 188.2,-15.5 171.75,-15.5"/>
<polygon fill="midnightblue" stroke="midnightblue" points="221.99,-19 231.99,-15.5 221.99,-12 221.99,-19"/>
</g>
</g>
</svg>
