<?xml version="1.0" encoding="UTF-8" standalone="no"?>
<!DOCTYPE svg PUBLIC "-//W3C//DTD SVG 1.1//EN"
 "http://www.w3.org/Graphics/SVG/1.1/DTD/svg11.dtd">
<!-- Generated by graphviz version 3.0.0 (20220413.0242)
 -->
<!-- Title: denoptim.ga.EAUtils.selectBasedOnFitness Pages: 1 -->
<svg width="1433pt" height="256pt"
 viewBox="0.00 0.00 1433.00 255.68" xmlns="http://www.w3.org/2000/svg" xmlns:xlink="http://www.w3.org/1999/xlink">
<g id="graph0" class="graph" transform="scale(1 1) rotate(0) translate(4 251.68)">
<title>denoptim.ga.EAUtils.selectBasedOnFitness</title>
<polygon fill="white" stroke="transparent" points="-4,4 -4,-251.68 1429,-251.68 1429,4 -4,4"/>
<!-- Node1 -->
<g id="node1" class="node">
<title>Node1</title>
<g id="a_node1"><a xlink:title="Selects a number of members from the given population.">
<polygon fill="#bfbfbf" stroke="black" points="0,-119.18 0,-149.18 133,-149.18 133,-119.18 0,-119.18"/>
<text text-anchor="start" x="8" y="-137.18" font-family="Helvetica,sans-Serif" font-size="10.00">denoptim.ga.EAUtils.select</text>
<text text-anchor="middle" x="66.5" y="-126.18" font-family="Helvetica,sans-Serif" font-size="10.00">BasedOnFitness</text>
</a>
</g>
</g>
<!-- Node2 -->
<g id="node2" class="node">
<title>Node2</title>
<g id="a_node2"><a xlink:href="classdenoptim_1_1programs_1_1denovo_1_1_g_a_parameters.html#af6dcca07447adda7430aefca639ad907" target="_top" xlink:title=" ">
<polygon fill="white" stroke="black" points="171,-217.18 171,-247.18 365,-247.18 365,-217.18 171,-217.18"/>
<text text-anchor="start" x="179" y="-235.18" font-family="Helvetica,sans-Serif" font-size="10.00">denoptim.programs.denovo.</text>
<text text-anchor="middle" x="268" y="-224.18" font-family="Helvetica,sans-Serif" font-size="10.00">GAParameters.getSelectionStrategyType</text>
</a>
</g>
</g>
<!-- Node1&#45;&gt;Node2 -->
<g id="edge1" class="edge">
<title>Node1&#45;&gt;Node2</title>
<path fill="none" stroke="midnightblue" d="M83.8,-149.23C102.84,-166.02 135.97,-192.83 169,-208.18 173.39,-210.22 177.97,-212.1 182.65,-213.82"/>
<polygon fill="midnightblue" stroke="midnightblue" points="181.77,-217.22 192.37,-217.17 184.05,-210.61 181.77,-217.22"/>
</g>
<!-- Node3 -->
<g id="node3" class="node">
<title>Node3</title>
<g id="a_node3"><a xlink:href="classdenoptim_1_1ga_1_1_selection_helper.html#a22295591c1c461d8225b2ce54ee9f6e9" target="_top" xlink:title="Randomly select k individuals from the population.">
<polygon fill="white" stroke="black" points="180,-168.18 180,-198.18 356,-198.18 356,-168.18 180,-168.18"/>
<text text-anchor="start" x="188" y="-186.18" font-family="Helvetica,sans-Serif" font-size="10.00">denoptim.ga.SelectionHelper.perform</text>
<text text-anchor="middle" x="268" y="-175.18" font-family="Helvetica,sans-Serif" font-size="10.00">RandomSelection</text>
</a>
</g>
</g>
<!-- Node1&#45;&gt;Node3 -->
<g id="edge2" class="edge">
<title>Node1&#45;&gt;Node3</title>
<path fill="none" stroke="midnightblue" d="M128.42,-149.2C141.79,-152.49 155.87,-155.96 169,-159.18 177.68,-161.31 186.8,-163.55 195.83,-165.76"/>
<polygon fill="midnightblue" stroke="midnightblue" points="195.03,-169.17 205.57,-168.15 196.69,-162.37 195.03,-169.17"/>
</g>
<!-- Node12 -->
<g id="node12" class="node">
<title>Node12</title>
<g id="a_node12"><a xlink:href="classdenoptim_1_1ga_1_1_selection_helper.html#a33a3272394cbc9320172cc6d98c39110" target="_top" xlink:title="Roulette wheel selection is implemented as follows:">
<polygon fill="white" stroke="black" points="169,-80.68 169,-99.68 367,-99.68 367,-80.68 169,-80.68"/>
<text text-anchor="middle" x="268" y="-87.68" font-family="Helvetica,sans-Serif" font-size="10.00">denoptim.ga.SelectionHelper.performRWS</text>
</a>
</g>
</g>
<!-- Node1&#45;&gt;Node12 -->
<g id="edge11" class="edge">
<title>Node1&#45;&gt;Node12</title>
<path fill="none" stroke="midnightblue" d="M129.7,-119.15C142.67,-116.11 156.27,-112.98 169,-110.18 181.91,-107.34 195.8,-104.42 208.95,-101.72"/>
<polygon fill="midnightblue" stroke="midnightblue" points="209.74,-105.13 218.84,-99.7 208.34,-98.27 209.74,-105.13"/>
</g>
<!-- Node15 -->
<g id="node15" class="node">
<title>Node15</title>
<g id="a_node15"><a xlink:href="classdenoptim_1_1ga_1_1_selection_helper.html#a7321afd6b693460681744b05496685f6" target="_top" xlink:title="Stochastic Uniform Sampling Note: this implementation is based on the WATCHMAKER framework http://wat...">
<polygon fill="white" stroke="black" points="169.5,-42.68 169.5,-61.68 366.5,-61.68 366.5,-42.68 169.5,-42.68"/>
<text text-anchor="middle" x="268" y="-49.68" font-family="Helvetica,sans-Serif" font-size="10.00">denoptim.ga.SelectionHelper.performSUS</text>
</a>
</g>
</g>
<!-- Node1&#45;&gt;Node15 -->
<g id="edge17" class="edge">
<title>Node1&#45;&gt;Node15</title>
<path fill="none" stroke="midnightblue" d="M86.95,-119.08C106.58,-104.6 138.3,-83.21 169,-71.18 175.9,-68.48 183.23,-66.15 190.65,-64.14"/>
<polygon fill="midnightblue" stroke="midnightblue" points="191.59,-67.51 200.43,-61.68 189.88,-60.72 191.59,-67.51"/>
</g>
<!-- Node16 -->
<g id="node16" class="node">
<title>Node16</title>
<g id="a_node16"><a xlink:href="classdenoptim_1_1ga_1_1_selection_helper.html#a8c9b38255efa029c6b672d26a03ce90c" target="_top" xlink:title="Select p individuals at random.">
<polygon fill="white" stroke="black" points="180,-119.18 180,-149.18 356,-149.18 356,-119.18 180,-119.18"/>
<text text-anchor="start" x="188" y="-137.18" font-family="Helvetica,sans-Serif" font-size="10.00">denoptim.ga.SelectionHelper.perform</text>
<text text-anchor="middle" x="268" y="-126.18" font-family="Helvetica,sans-Serif" font-size="10.00">TournamentSelection</text>
</a>
</g>
</g>
<!-- Node1&#45;&gt;Node16 -->
<g id="edge21" class="edge">
<title>Node1&#45;&gt;Node16</title>
<path fill="none" stroke="midnightblue" d="M133.1,-134.18C144.81,-134.18 157.24,-134.18 169.62,-134.18"/>
<polygon fill="midnightblue" stroke="midnightblue" points="169.98,-137.68 179.98,-134.18 169.98,-130.68 169.98,-137.68"/>
</g>
<!-- Node4 -->
<g id="node4" class="node">
<title>Node4</title>
<g id="a_node4"><a xlink:href="classdenoptim_1_1programs_1_1_run_time_parameters.html#ad9db6420b91ff13e0a8b2d02402c0242" target="_top" xlink:title="Returns the current program&#45;specific randomizer.">
<polygon fill="white" stroke="black" points="418.5,-103.18 418.5,-133.18 558.5,-133.18 558.5,-103.18 418.5,-103.18"/>
<text text-anchor="start" x="426.5" y="-121.18" font-family="Helvetica,sans-Serif" font-size="10.00">denoptim.programs.RunTime</text>
<text text-anchor="middle" x="488.5" y="-110.18" font-family="Helvetica,sans-Serif" font-size="10.00">Parameters.getRandomizer</text>
</a>
</g>
</g>
<!-- Node3&#45;&gt;Node4 -->
<g id="edge3" class="edge">
<title>Node3&#45;&gt;Node4</title>
<path fill="none" stroke="midnightblue" d="M333.79,-168.17C344.91,-165.35 356.32,-162.3 367,-159.18 390.09,-152.44 415.32,-144.02 436.71,-136.57"/>
<polygon fill="midnightblue" stroke="midnightblue" points="437.96,-139.84 446.24,-133.22 435.64,-133.23 437.96,-139.84"/>
</g>
<!-- Node5 -->
<g id="node5" class="node">
<title>Node5</title>
<g id="a_node5"><a xlink:href="classdenoptim_1_1utils_1_1_randomizer.html#a1ac7cea6bdf732a6dd69f1a83e591ed5" target="_top" xlink:title="Chooses one member among the given collection.">
<polygon fill="white" stroke="black" points="403,-191.18 403,-221.18 574,-221.18 574,-191.18 403,-191.18"/>
<text text-anchor="start" x="411" y="-209.18" font-family="Helvetica,sans-Serif" font-size="10.00">denoptim.utils.Randomizer.randomly</text>
<text text-anchor="middle" x="488.5" y="-198.18" font-family="Helvetica,sans-Serif" font-size="10.00">ChooseOne</text>
</a>
</g>
</g>
<!-- Node3&#45;&gt;Node5 -->
<g id="edge4" class="edge">
<title>Node3&#45;&gt;Node5</title>
<path fill="none" stroke="midnightblue" d="M356.3,-192.37C368.28,-193.63 380.63,-194.93 392.73,-196.2"/>
<polygon fill="midnightblue" stroke="midnightblue" points="392.52,-199.7 402.83,-197.27 393.25,-192.74 392.52,-199.7"/>
</g>
<!-- Node6 -->
<g id="node6" class="node">
<title>Node6</title>
<g id="a_node6"><a xlink:href="classdenoptim_1_1utils_1_1_randomizer.html#a6949bec32b63f1207da17e0c136a1d58" target="_top" xlink:title="Returns a pseudo&#45;random, uniformly distributed int value between 0 (inclusive) and the specified valu...">
<polygon fill="white" stroke="black" points="610,-174.68 610,-193.68 771,-193.68 771,-174.68 610,-174.68"/>
<text text-anchor="middle" x="690.5" y="-181.68" font-family="Helvetica,sans-Serif" font-size="10.00">denoptim.utils.Randomizer.nextInt</text>
</a>
</g>
</g>
<!-- Node5&#45;&gt;Node6 -->
<g id="edge5" class="edge">
<title>Node5&#45;&gt;Node6</title>
<path fill="none" stroke="midnightblue" d="M574.03,-196.88C582.53,-195.95 591.19,-194.99 599.75,-194.05"/>
<polygon fill="midnightblue" stroke="midnightblue" points="600.18,-197.53 609.73,-192.95 599.41,-190.57 600.18,-197.53"/>
</g>
<!-- Node7 -->
<g id="node7" class="node">
<title>Node7</title>
<g id="a_node7"><a xlink:href="classdenoptim_1_1utils_1_1_randomizer.html#a6873dd710cc271ed81bfa45411a62359" target="_top" xlink:title="Returns the random number generator.">
<polygon fill="white" stroke="black" points="807,-149.68 807,-168.68 974,-168.68 974,-149.68 807,-149.68"/>
<text text-anchor="middle" x="890.5" y="-156.68" font-family="Helvetica,sans-Serif" font-size="10.00">denoptim.utils.Randomizer.getRNG</text>
</a>
</g>
</g>
<!-- Node6&#45;&gt;Node7 -->
<g id="edge6" class="edge">
<title>Node6&#45;&gt;Node7</title>
<path fill="none" stroke="midnightblue" d="M766.92,-174.66C778.96,-173.14 791.49,-171.56 803.75,-170.01"/>
<polygon fill="midnightblue" stroke="midnightblue" points="804.48,-173.44 813.96,-168.72 803.6,-166.5 804.48,-173.44"/>
</g>
<!-- Node10 -->
<g id="node10" class="node">
<title>Node10</title>
<g id="a_node10"><a xlink:href="classdenoptim_1_1utils_1_1_randomizer.html#acaa5e386da195d9454fae611ed554c48" target="_top" xlink:title="Utility to debug: writes some log in file &#39;/tmp/rng_debug_log&#39;.">
<polygon fill="white" stroke="black" points="815,-111.68 815,-130.68 966,-130.68 966,-111.68 815,-111.68"/>
<text text-anchor="middle" x="890.5" y="-118.68" font-family="Helvetica,sans-Serif" font-size="10.00">denoptim.utils.Randomizer.print</text>
</a>
</g>
</g>
<!-- Node6&#45;&gt;Node10 -->
<g id="edge9" class="edge">
<title>Node6&#45;&gt;Node10</title>
<path fill="none" stroke="midnightblue" d="M743.74,-174.64C753.03,-172.12 762.45,-169.01 771,-165.18 788.78,-157.22 789.19,-148.06 807,-140.18 812.64,-137.68 818.66,-135.49 824.77,-133.58"/>
<polygon fill="midnightblue" stroke="midnightblue" points="825.77,-136.93 834.41,-130.79 823.83,-130.2 825.77,-136.93"/>
</g>
<!-- Node8 -->
<g id="node8" class="node">
<title>Node8</title>
<g id="a_node8"><a xlink:href="classdenoptim_1_1utils_1_1_randomizer.html#aaaeda6dedda5664a47a2a9a68194162a" target="_top" xlink:title="Initializes this random number generator (RNG) using a random seed that is generated on&#45;the&#45;fly rando...">
<polygon fill="white" stroke="black" points="1010,-149.68 1010,-168.68 1199,-168.68 1199,-149.68 1010,-149.68"/>
<text text-anchor="middle" x="1104.5" y="-156.68" font-family="Helvetica,sans-Serif" font-size="10.00">denoptim.utils.Randomizer.initialiseRNG</text>
</a>
</g>
</g>
<!-- Node7&#45;&gt;Node8 -->
<g id="edge7" class="edge">
<title>Node7&#45;&gt;Node8</title>
<path fill="none" stroke="midnightblue" d="M974.07,-159.18C982.51,-159.18 991.16,-159.18 999.79,-159.18"/>
<polygon fill="midnightblue" stroke="midnightblue" points="999.89,-162.68 1009.89,-159.18 999.89,-155.68 999.89,-162.68"/>
</g>
<!-- Node9 -->
<g id="node9" class="node">
<title>Node9</title>
<g id="a_node9"><a xlink:href="classdenoptim_1_1utils_1_1_randomizer.html#ad74f0608d3e2e10caa8873ae059367a7" target="_top" xlink:title=" ">
<polygon fill="white" stroke="black" points="1235,-149.68 1235,-168.68 1425,-168.68 1425,-149.68 1235,-149.68"/>
<text text-anchor="middle" x="1330" y="-156.68" font-family="Helvetica,sans-Serif" font-size="10.00">denoptim.utils.Randomizer.initialiseSeed</text>
</a>
</g>
</g>
<!-- Node8&#45;&gt;Node9 -->
<g id="edge8" class="edge">
<title>Node8&#45;&gt;Node9</title>
<path fill="none" stroke="midnightblue" d="M1199.31,-159.18C1207.64,-159.18 1216.09,-159.18 1224.5,-159.18"/>
<polygon fill="midnightblue" stroke="midnightblue" points="1224.71,-162.68 1234.71,-159.18 1224.71,-155.68 1224.71,-162.68"/>
</g>
<!-- Node11 -->
<g id="node11" class="node">
<title>Node11</title>
<g id="a_node11"><a xlink:href="classdenoptim_1_1io_1_1_denoptim_i_o.html#adc7de175de66792f4f37f1661c10e7f8" target="_top" xlink:title="Write text&#45;like data file.">
<polygon fill="white" stroke="black" points="1022.5,-111.68 1022.5,-130.68 1186.5,-130.68 1186.5,-111.68 1022.5,-111.68"/>
<text text-anchor="middle" x="1104.5" y="-118.68" font-family="Helvetica,sans-Serif" font-size="10.00">denoptim.io.DenoptimIO.writeData</text>
</a>
</g>
</g>
<!-- Node10&#45;&gt;Node11 -->
<g id="edge10" class="edge">
<title>Node10&#45;&gt;Node11</title>
<path fill="none" stroke="midnightblue" d="M966.24,-121.18C981.11,-121.18 996.87,-121.18 1012.22,-121.18"/>
<polygon fill="midnightblue" stroke="midnightblue" points="1012.23,-124.68 1022.23,-121.18 1012.23,-117.68 1012.23,-124.68"/>
</g>
<!-- Node12&#45;&gt;Node4 -->
<g id="edge13" class="edge">
<title>Node12&#45;&gt;Node4</title>
<path fill="none" stroke="midnightblue" d="M343.28,-99.7C364.21,-102.38 387.06,-105.31 408.27,-108.03"/>
<polygon fill="midnightblue" stroke="midnightblue" points="407.85,-111.5 418.21,-109.3 408.74,-104.56 407.85,-111.5"/>
</g>
<!-- Node13 -->
<g id="node13" class="node">
<title>Node13</title>
<g id="a_node13"><a xlink:href="classdenoptim_1_1graph_1_1_candidate.html#a0738609a1a3bec92633440d449a62c67" target="_top" xlink:title=" ">
<polygon fill="white" stroke="black" points="416.5,-54.18 416.5,-84.18 560.5,-84.18 560.5,-54.18 416.5,-54.18"/>
<text text-anchor="start" x="424.5" y="-72.18" font-family="Helvetica,sans-Serif" font-size="10.00">denoptim.graph.Candidate.get</text>
<text text-anchor="middle" x="488.5" y="-61.18" font-family="Helvetica,sans-Serif" font-size="10.00">Fitness</text>
</a>
</g>
</g>
<!-- Node12&#45;&gt;Node13 -->
<g id="edge12" class="edge">
<title>Node12&#45;&gt;Node13</title>
<path fill="none" stroke="midnightblue" d="M367.07,-80.76C380.13,-79.5 393.42,-78.22 406.16,-77"/>
<polygon fill="midnightblue" stroke="midnightblue" points="406.63,-80.47 416.25,-76.03 405.96,-73.5 406.63,-80.47"/>
</g>
<!-- Node14 -->
<g id="node14" class="node">
<title>Node14</title>
<g id="a_node14"><a xlink:href="classdenoptim_1_1utils_1_1_randomizer.html#abedece0dc015bf122af76a2ca10bfccd" target="_top" xlink:title="Returns the next pseudo&#45;random, uniformly distributed double value between 0.0 and 1....">
<polygon fill="white" stroke="black" points="615.5,-54.18 615.5,-84.18 765.5,-84.18 765.5,-54.18 615.5,-54.18"/>
<text text-anchor="start" x="623.5" y="-72.18" font-family="Helvetica,sans-Serif" font-size="10.00">denoptim.utils.Randomizer.next</text>
<text text-anchor="middle" x="690.5" y="-61.18" font-family="Helvetica,sans-Serif" font-size="10.00">Double</text>
</a>
</g>
</g>
<!-- Node12&#45;&gt;Node14 -->
<g id="edge14" class="edge">
<title>Node12&#45;&gt;Node14</title>
<path fill="none" stroke="midnightblue" d="M339,-80.65C348.62,-78.18 358.21,-75.08 367,-71.18 385.28,-63.07 384.03,-50.5 403,-44.18 475.1,-20.15 498.43,-36.1 574,-44.18 589.56,-45.85 606.11,-48.74 621.67,-51.98"/>
<polygon fill="midnightblue" stroke="midnightblue" points="621.21,-55.46 631.73,-54.15 622.69,-48.62 621.21,-55.46"/>
</g>
<!-- Node14&#45;&gt;Node7 -->
<g id="edge15" class="edge">
<title>Node14&#45;&gt;Node7</title>
<path fill="none" stroke="midnightblue" d="M717.85,-84.28C733.44,-93.33 753.49,-105.18 771,-116.18 787.28,-126.41 789.34,-132.56 807,-140.18 812.85,-142.7 819.07,-144.91 825.39,-146.85"/>
<polygon fill="midnightblue" stroke="midnightblue" points="824.77,-150.31 835.34,-149.67 826.67,-143.57 824.77,-150.31"/>
</g>
<!-- Node14&#45;&gt;Node10 -->
<g id="edge16" class="edge">
<title>Node14&#45;&gt;Node10</title>
<path fill="none" stroke="midnightblue" d="M748.77,-84.22C778.78,-92.1 815.05,-101.63 843.25,-109.03"/>
<polygon fill="midnightblue" stroke="midnightblue" points="842.69,-112.5 853.25,-111.66 844.46,-105.73 842.69,-112.5"/>
</g>
<!-- Node15&#45;&gt;Node4 -->
<g id="edge19" class="edge">
<title>Node15&#45;&gt;Node4</title>
<path fill="none" stroke="midnightblue" d="M335.28,-61.68C346.07,-64.18 356.98,-67.29 367,-71.18 384.48,-77.96 385.86,-85.57 403,-93.18 408.28,-95.53 413.85,-97.73 419.5,-99.77"/>
<polygon fill="midnightblue" stroke="midnightblue" points="418.46,-103.11 429.05,-103.06 420.74,-96.5 418.46,-103.11"/>
</g>
<!-- Node15&#45;&gt;Node13 -->
<g id="edge18" class="edge">
<title>Node15&#45;&gt;Node13</title>
<path fill="none" stroke="midnightblue" d="M366.75,-59.79C379.93,-60.81 393.33,-61.85 406.18,-62.85"/>
<polygon fill="midnightblue" stroke="midnightblue" points="406.12,-66.36 416.36,-63.65 406.66,-59.38 406.12,-66.36"/>
</g>
<!-- Node15&#45;&gt;Node14 -->
<g id="edge20" class="edge">
<title>Node15&#45;&gt;Node14</title>
<path fill="none" stroke="midnightblue" d="M292.71,-42.57C319.11,-32.43 363.3,-17.12 403,-11.18 478.16,0.06 500.05,6.34 574,-11.18 604.51,-18.41 636.13,-35.03 658.55,-48.63"/>
<polygon fill="midnightblue" stroke="midnightblue" points="656.93,-51.75 667.27,-54.05 660.63,-45.8 656.93,-51.75"/>
</g>
<!-- Node16&#45;&gt;Node4 -->
<g id="edge23" class="edge">
<title>Node16&#45;&gt;Node4</title>
<path fill="none" stroke="midnightblue" d="M356.3,-127.79C373.43,-126.53 391.31,-125.22 408.16,-123.99"/>
<polygon fill="midnightblue" stroke="midnightblue" points="408.78,-127.45 418.5,-123.23 408.27,-120.47 408.78,-127.45"/>
</g>
<!-- Node16&#45;&gt;Node5 -->
<g id="edge27" class="edge">
<title>Node16&#45;&gt;Node5</title>
<path fill="none" stroke="midnightblue" d="M335.15,-149.21C345.9,-152.18 356.84,-155.52 367,-159.18 383.65,-165.17 386.64,-169.43 403,-176.18 412.6,-180.14 422.93,-184.07 432.96,-187.72"/>
<polygon fill="midnightblue" stroke="midnightblue" points="431.86,-191.04 442.45,-191.13 434.22,-184.45 431.86,-191.04"/>
</g>
<!-- Node16&#45;&gt;Node13 -->
<g id="edge22" class="edge">
<title>Node16&#45;&gt;Node13</title>
<path fill="none" stroke="midnightblue" d="M334.3,-119.16C345.31,-116.16 356.55,-112.81 367,-109.18 383.54,-103.44 386.54,-99.14 403,-93.18 408.6,-91.15 414.47,-89.18 420.38,-87.3"/>
<polygon fill="midnightblue" stroke="midnightblue" points="421.81,-90.52 430.33,-84.23 419.74,-83.83 421.81,-90.52"/>
</g>
<!-- Node17 -->
<g id="node17" class="node">
<title>Node17</title>
<g id="a_node17"><a xlink:href="classdenoptim_1_1utils_1_1_randomizer.html#a110f1f5570f2ccd121a19d7df730e5fd" target="_top" xlink:title="Returns the next pseudo&#45;random, uniformly distributed boolean value from this random number generator...">
<polygon fill="white" stroke="black" points="615.5,-125.18 615.5,-155.18 765.5,-155.18 765.5,-125.18 615.5,-125.18"/>
<text text-anchor="start" x="623.5" y="-143.18" font-family="Helvetica,sans-Serif" font-size="10.00">denoptim.utils.Randomizer.next</text>
<text text-anchor="middle" x="690.5" y="-132.18" font-family="Helvetica,sans-Serif" font-size="10.00">Boolean</text>
</a>
</g>
</g>
<!-- Node16&#45;&gt;Node17 -->
<g id="edge24" class="edge">
<title>Node16&#45;&gt;Node17</title>
<path fill="none" stroke="midnightblue" d="M356.18,-140.89C371.76,-141.84 387.85,-142.67 403,-143.18 478.96,-145.73 498.01,-144.17 574,-143.18 584.11,-143.05 594.71,-142.85 605.22,-142.62"/>
<polygon fill="midnightblue" stroke="midnightblue" points="605.34,-146.12 615.26,-142.39 605.18,-139.12 605.34,-146.12"/>
</g>
<!-- Node17&#45;&gt;Node7 -->
<g id="edge25" class="edge">
<title>Node17&#45;&gt;Node7</title>
<path fill="none" stroke="midnightblue" d="M765.51,-147.28C775.75,-148.26 786.37,-149.28 796.89,-150.29"/>
<polygon fill="midnightblue" stroke="midnightblue" points="796.65,-153.79 806.94,-151.26 797.32,-146.82 796.65,-153.79"/>
</g>
<!-- Node17&#45;&gt;Node10 -->
<g id="edge26" class="edge">
<title>Node17&#45;&gt;Node10</title>
<path fill="none" stroke="midnightblue" d="M765.51,-133.08C778.25,-131.86 791.58,-130.58 804.58,-129.33"/>
<polygon fill="midnightblue" stroke="midnightblue" points="805.3,-132.78 814.92,-128.34 804.63,-125.81 805.3,-132.78"/>
</g>
</g>
</svg>
