<?xml version="1.0" encoding="UTF-8" standalone="no"?>
<!DOCTYPE svg PUBLIC "-//W3C//DTD SVG 1.1//EN"
 "http://www.w3.org/Graphics/SVG/1.1/DTD/svg11.dtd">
<!-- Generated by graphviz version 3.0.0 (20220413.0242)
 -->
<!-- Title: denoptim.graph.Template.sameAs Pages: 1 -->
<svg width="691pt" height="292pt"
 viewBox="0.00 0.00 691.00 292.00" xmlns="http://www.w3.org/2000/svg" xmlns:xlink="http://www.w3.org/1999/xlink">
<g id="graph0" class="graph" transform="scale(1 1) rotate(0) translate(4 288)">
<title>denoptim.graph.Template.sameAs</title>
<polygon fill="white" stroke="transparent" points="-4,4 -4,-288 687,-288 687,4 -4,4"/>
<!-- Node1 -->
<g id="node1" class="node">
<title>Node1</title>
<g id="a_node1"><a xlink:title="Compares this and another template ignoring vertex IDs.">
<polygon fill="#bfbfbf" stroke="black" points="0,-215 0,-234 164,-234 164,-215 0,-215"/>
<text text-anchor="middle" x="82" y="-222" font-family="Helvetica,sans-Serif" font-size="10.00">denoptim.graph.Template.sameAs</text>
</a>
</g>
</g>
<!-- Node1&#45;&gt;Node1 -->
<g id="edge3" class="edge">
<title>Node1&#45;&gt;Node1</title>
<path fill="none" stroke="midnightblue" d="M53.02,-234.26C38.93,-243.07 48.59,-252.5 82,-252.5 104.97,-252.5 116.72,-248.04 117.23,-242.39"/>
<polygon fill="midnightblue" stroke="midnightblue" points="119.85,-240.05 110.98,-234.26 114.3,-244.32 119.85,-240.05"/>
</g>
<!-- Node2 -->
<g id="node2" class="node">
<title>Node2</title>
<g id="a_node2"><a xlink:href="classdenoptim_1_1graph_1_1_vertex.html#a200f775296c4c9804e3a2b59e065be8a" target="_top" xlink:title="Returns the index of the building block that should correspond to the position of the building block ...">
<polygon fill="white" stroke="black" points="384,-253.5 384,-283.5 512,-283.5 512,-253.5 384,-253.5"/>
<text text-anchor="start" x="392" y="-271.5" font-family="Helvetica,sans-Serif" font-size="10.00">denoptim.graph.Vertex.get</text>
<text text-anchor="middle" x="448" y="-260.5" font-family="Helvetica,sans-Serif" font-size="10.00">BuildingBlockId</text>
</a>
</g>
</g>
<!-- Node1&#45;&gt;Node2 -->
<g id="edge1" class="edge">
<title>Node1&#45;&gt;Node2</title>
<path fill="none" stroke="midnightblue" d="M121.24,-234.02C143.98,-239.35 173.48,-245.66 200,-249.5 258.02,-257.89 324.28,-262.73 373.55,-265.43"/>
<polygon fill="midnightblue" stroke="midnightblue" points="373.63,-268.94 383.8,-265.97 374,-261.95 373.63,-268.94"/>
</g>
<!-- Node3 -->
<g id="node3" class="node">
<title>Node3</title>
<g id="a_node3"><a xlink:href="classdenoptim_1_1graph_1_1_template.html#a7869ba705f5898855fe68dd443721f8e" target="_top" xlink:title=" ">
<polygon fill="white" stroke="black" points="200,-209.5 200,-239.5 341,-239.5 341,-209.5 200,-209.5"/>
<text text-anchor="start" x="208" y="-227.5" font-family="Helvetica,sans-Serif" font-size="10.00">denoptim.graph.Template.get</text>
<text text-anchor="middle" x="270.5" y="-216.5" font-family="Helvetica,sans-Serif" font-size="10.00">InnerGraph</text>
</a>
</g>
</g>
<!-- Node1&#45;&gt;Node3 -->
<g id="edge2" class="edge">
<title>Node1&#45;&gt;Node3</title>
<path fill="none" stroke="midnightblue" d="M164.26,-224.5C172.7,-224.5 181.28,-224.5 189.71,-224.5"/>
<polygon fill="midnightblue" stroke="midnightblue" points="189.89,-228 199.89,-224.5 189.89,-221 189.89,-228"/>
</g>
<!-- Node4 -->
<g id="node4" class="node">
<title>Node4</title>
<g id="a_node4"><a xlink:href="classdenoptim_1_1graph_1_1_vertex.html#a7a48a6fb07f119d17a6c8eb091ee73ea" target="_top" xlink:title="Compares this and another vertex ignoring vertex IDs.">
<polygon fill="white" stroke="black" points="201,-160.5 201,-190.5 340,-190.5 340,-160.5 201,-160.5"/>
<text text-anchor="start" x="209" y="-178.5" font-family="Helvetica,sans-Serif" font-size="10.00">denoptim.graph.Vertex.same</text>
<text text-anchor="middle" x="270.5" y="-167.5" font-family="Helvetica,sans-Serif" font-size="10.00">VertexFeatures</text>
</a>
</g>
</g>
<!-- Node1&#45;&gt;Node4 -->
<g id="edge4" class="edge">
<title>Node1&#45;&gt;Node4</title>
<path fill="none" stroke="midnightblue" d="M119.4,-214.94C143.01,-208.73 174.49,-200.46 202.52,-193.1"/>
<polygon fill="midnightblue" stroke="midnightblue" points="203.49,-196.46 212.27,-190.54 201.71,-189.69 203.49,-196.46"/>
</g>
<!-- Node4&#45;&gt;Node2 -->
<g id="edge7" class="edge">
<title>Node4&#45;&gt;Node2</title>
<path fill="none" stroke="midnightblue" d="M323.15,-190.55C329.42,-193.38 335.53,-196.68 341,-200.5 361.44,-214.77 356.55,-229.25 377,-243.5 379.84,-245.48 382.85,-247.32 385.97,-249.02"/>
<polygon fill="midnightblue" stroke="midnightblue" points="384.47,-252.18 394.98,-253.48 387.57,-245.91 384.47,-252.18"/>
</g>
<!-- Node5 -->
<g id="node5" class="node">
<title>Node5</title>
<g id="a_node5"><a xlink:href="classdenoptim_1_1graph_1_1_vertex.html#aee39019987712f9784138e97917ac97f" target="_top" xlink:title="Get attachment point i on this vertex.">
<polygon fill="white" stroke="black" points="377,-215 377,-234 519,-234 519,-215 377,-215"/>
<text text-anchor="middle" x="448" y="-222" font-family="Helvetica,sans-Serif" font-size="10.00">denoptim.graph.Vertex.getAP</text>
</a>
</g>
</g>
<!-- Node4&#45;&gt;Node5 -->
<g id="edge5" class="edge">
<title>Node4&#45;&gt;Node5</title>
<path fill="none" stroke="midnightblue" d="M323.79,-190.5C340.75,-195.33 359.66,-200.68 377,-205.5 384.94,-207.71 393.39,-210.02 401.57,-212.25"/>
<polygon fill="midnightblue" stroke="midnightblue" points="400.8,-215.67 411.37,-214.92 402.63,-208.92 400.8,-215.67"/>
</g>
<!-- Node7 -->
<g id="node7" class="node">
<title>Node7</title>
<g id="a_node7"><a xlink:href="classdenoptim_1_1graph_1_1_vertex.html#a46dadb5fd30f1877db91e97ae55c2dd8" target="_top" xlink:title=" ">
<polygon fill="white" stroke="black" points="384,-165.5 384,-195.5 512,-195.5 512,-165.5 384,-165.5"/>
<text text-anchor="start" x="392" y="-183.5" font-family="Helvetica,sans-Serif" font-size="10.00">denoptim.graph.Vertex.get</text>
<text text-anchor="middle" x="448" y="-172.5" font-family="Helvetica,sans-Serif" font-size="10.00">BuildingBlockType</text>
</a>
</g>
</g>
<!-- Node4&#45;&gt;Node7 -->
<g id="edge8" class="edge">
<title>Node4&#45;&gt;Node7</title>
<path fill="none" stroke="midnightblue" d="M340.11,-177.45C351.15,-177.77 362.61,-178.1 373.76,-178.41"/>
<polygon fill="midnightblue" stroke="midnightblue" points="373.79,-181.92 383.88,-178.7 373.99,-174.92 373.79,-181.92"/>
</g>
<!-- Node8 -->
<g id="node8" class="node">
<title>Node8</title>
<g id="a_node8"><a xlink:href="classdenoptim_1_1graph_1_1_vertex.html#ac578a57700de26b2f0ba1fc7470129d0" target="_top" xlink:title=" ">
<polygon fill="white" stroke="black" points="384,-116.5 384,-146.5 512,-146.5 512,-116.5 384,-116.5"/>
<text text-anchor="start" x="392" y="-134.5" font-family="Helvetica,sans-Serif" font-size="10.00">denoptim.graph.Vertex.get</text>
<text text-anchor="middle" x="448" y="-123.5" font-family="Helvetica,sans-Serif" font-size="10.00">FreeAPCount</text>
</a>
</g>
</g>
<!-- Node4&#45;&gt;Node8 -->
<g id="edge9" class="edge">
<title>Node4&#45;&gt;Node8</title>
<path fill="none" stroke="midnightblue" d="M331.41,-160.48C346.15,-156.78 362.06,-152.79 377.23,-148.99"/>
<polygon fill="midnightblue" stroke="midnightblue" points="378.22,-152.35 387.07,-146.53 376.51,-145.56 378.22,-152.35"/>
</g>
<!-- Node9 -->
<g id="node9" class="node">
<title>Node9</title>
<g id="a_node9"><a xlink:href="classdenoptim_1_1graph_1_1_vertex.html#a514b89b11dff8939e74e5b95e749b703" target="_top" xlink:title=" ">
<polygon fill="white" stroke="black" points="384,-67.5 384,-97.5 512,-97.5 512,-67.5 384,-67.5"/>
<text text-anchor="start" x="392" y="-85.5" font-family="Helvetica,sans-Serif" font-size="10.00">denoptim.graph.Vertex.get</text>
<text text-anchor="middle" x="448" y="-74.5" font-family="Helvetica,sans-Serif" font-size="10.00">NumberOfAPs</text>
</a>
</g>
</g>
<!-- Node4&#45;&gt;Node9 -->
<g id="edge11" class="edge">
<title>Node4&#45;&gt;Node9</title>
<path fill="none" stroke="midnightblue" d="M291.69,-160.49C312.33,-145.62 345.72,-122.91 377,-107.5 381.33,-105.37 385.89,-103.32 390.52,-101.39"/>
<polygon fill="midnightblue" stroke="midnightblue" points="392.08,-104.53 400.07,-97.58 389.48,-98.03 392.08,-104.53"/>
</g>
<!-- Node10 -->
<g id="node10" class="node">
<title>Node10</title>
<g id="a_node10"><a xlink:href="classdenoptim_1_1graph_1_1_attachment_point.html#ab1226264e663d411606bc5af27dd921e" target="_top" xlink:title="Compares the features of this and another attachment point and decides if the two are same.">
<polygon fill="white" stroke="black" points="380.5,-0.5 380.5,-30.5 515.5,-30.5 515.5,-0.5 380.5,-0.5"/>
<text text-anchor="start" x="388.5" y="-18.5" font-family="Helvetica,sans-Serif" font-size="10.00">denoptim.graph.Attachment</text>
<text text-anchor="middle" x="448" y="-7.5" font-family="Helvetica,sans-Serif" font-size="10.00">Point.sameAs</text>
</a>
</g>
</g>
<!-- Node4&#45;&gt;Node10 -->
<g id="edge13" class="edge">
<title>Node4&#45;&gt;Node10</title>
<path fill="none" stroke="midnightblue" d="M282.96,-160.19C301.15,-136.54 338.52,-90.51 377,-58.5 387.04,-50.15 398.84,-42.27 409.87,-35.6"/>
<polygon fill="midnightblue" stroke="midnightblue" points="411.66,-38.61 418.5,-30.52 408.11,-32.58 411.66,-38.61"/>
</g>
<!-- Node6 -->
<g id="node6" class="node">
<title>Node6</title>
<g id="a_node6"><a xlink:href="classdenoptim_1_1graph_1_1_vertex.html#a022f7c9075b178f17e13339b215ee21f" target="_top" xlink:title=" ">
<polygon fill="white" stroke="black" points="555,-116.5 555,-146.5 683,-146.5 683,-116.5 555,-116.5"/>
<text text-anchor="start" x="563" y="-134.5" font-family="Helvetica,sans-Serif" font-size="10.00">denoptim.graph.Vertex.get</text>
<text text-anchor="middle" x="619" y="-123.5" font-family="Helvetica,sans-Serif" font-size="10.00">AttachmentPoints</text>
</a>
</g>
</g>
<!-- Node5&#45;&gt;Node6 -->
<g id="edge6" class="edge">
<title>Node5&#45;&gt;Node6</title>
<path fill="none" stroke="midnightblue" d="M493.98,-214.99C502.5,-212.44 511.19,-209.31 519,-205.5 547.02,-191.85 575.11,-169.86 594.18,-153.4"/>
<polygon fill="midnightblue" stroke="midnightblue" points="596.57,-155.95 601.77,-146.72 591.95,-150.7 596.57,-155.95"/>
</g>
<!-- Node8&#45;&gt;Node6 -->
<g id="edge10" class="edge">
<title>Node8&#45;&gt;Node6</title>
<path fill="none" stroke="midnightblue" d="M512.41,-131.5C522.91,-131.5 533.88,-131.5 544.61,-131.5"/>
<polygon fill="midnightblue" stroke="midnightblue" points="544.8,-135 554.8,-131.5 544.8,-128 544.8,-135"/>
</g>
<!-- Node9&#45;&gt;Node6 -->
<g id="edge12" class="edge">
<title>Node9&#45;&gt;Node6</title>
<path fill="none" stroke="midnightblue" d="M501.08,-97.6C518.6,-102.68 538.29,-108.39 556.46,-113.66"/>
<polygon fill="midnightblue" stroke="midnightblue" points="555.51,-117.03 566.09,-116.45 557.46,-110.3 555.51,-117.03"/>
</g>
<!-- Node10&#45;&gt;Node10 -->
<g id="edge14" class="edge">
<title>Node10&#45;&gt;Node10</title>
<path fill="none" stroke="midnightblue" d="M418.37,-30.66C411.23,-40.06 421.11,-49 448,-49 464.39,-49 474.46,-45.68 478.21,-40.96"/>
<polygon fill="midnightblue" stroke="midnightblue" points="481.68,-40.45 477.63,-30.66 474.69,-40.84 481.68,-40.45"/>
</g>
</g>
</svg>
