<?xml version="1.0" encoding="UTF-8" standalone="no"?>
<!DOCTYPE svg PUBLIC "-//W3C//DTD SVG 1.1//EN"
 "http://www.w3.org/Graphics/SVG/1.1/DTD/svg11.dtd">
<!-- Generated by graphviz version 3.0.0 (20220413.0242)
 -->
<!-- Title: denoptim.graph.rings.ChainLink Pages: 1 -->
<!--zoomable 676 -->
<svg id="main" version="1.1" xmlns="http://www.w3.org/2000/svg" xmlns:xlink="http://www.w3.org/1999/xlink" xml:space="preserve" onload="init(evt)">
<style type="text/css"><![CDATA[
.edge:hover path { stroke: red; }
.edge:hover polygon { stroke: red; fill: red; }
]]></style>
<script type="text/javascript"><![CDATA[
var edges = document.getElementsByTagName('g');
if (edges && edges.length) {
  for (var i=0;i<edges.length;i++) {
    if (edges[i].id.substr(0,4)=='edge') {
      edges[i].setAttribute('class','edge');
    }
  }
}
]]></script>
        <defs>
                <circle id="rim" cx="0" cy="0" r="7"/>
                <circle id="rim2" cx="0" cy="0" r="3.5"/>
                <g id="zoomPlus">
                        <use xlink:href="#rim" fill="#404040">
                                <set attributeName="fill" to="#808080" begin="zoomplus.mouseover" end="zoomplus.mouseout"/>
                        </use>
                        <path d="M-4,0h8M0,-4v8" fill="none" stroke="white" stroke-width="1.5" pointer-events="none"/>
                </g>
                <g id="zoomMin">
                        <use xlink:href="#rim" fill="#404040">
                                <set attributeName="fill" to="#808080" begin="zoomminus.mouseover" end="zoomminus.mouseout"/>
                        </use>
                        <path d="M-4,0h8" fill="none" stroke="white" stroke-width="1.5" pointer-events="none"/>
                </g>
                <g id="dirArrow">
                        <path fill="none" stroke="white" stroke-width="1.5" d="M0,-3.0v7 M-2.5,-0.5L0,-3.0L2.5,-0.5"/>
                </g>
               <g id="resetDef">
                       <use xlink:href="#rim2" fill="#404040">
                               <set attributeName="fill" to="#808080" begin="reset.mouseover" end="reset.mouseout"/>
                       </use>
               </g>
        </defs>

<script type="text/javascript">
var viewWidth = 1213;
var viewHeight = 676;
var sectionId = 'dynsection-1';
</script>
<script xlink:href="svgpan.js"/>
<svg id="graph" class="graph">
<g id="viewport">
<title>denoptim.graph.rings.ChainLink</title>
<polygon fill="white" stroke="transparent" points="-4,4 -4,-671.56 1209,-671.56 1209,4 -4,4"/>
<!-- Node1 -->
<g id="node1" class="node">
<title>Node1</title>
<g id="a_node1"><a xlink:title="ChainLink represents a vertex in a closable chain.">
<polygon fill="#bfbfbf" stroke="black" points="596.5,-571 596.5,-590 748.5,-590 748.5,-571 596.5,-571"/>
<text text-anchor="middle" x="672.5" y="-578" font-family="Helvetica,sans-Serif" font-size="10.00">denoptim.graph.rings.ChainLink</text>
</a>
</g>
</g>
<!-- Node2 -->
<g id="node2" class="node">
<title>Node2</title>
<g id="a_node2"><a xlink:title=" ">
<polygon fill="white" stroke="black" points="52.5,-600 52.5,-619 111.5,-619 111.5,-600 52.5,-600"/>
<text text-anchor="middle" x="82" y="-607" font-family="Helvetica,sans-Serif" font-size="10.00">Cloneable</text>
</a>
</g>
</g>
<!-- Node2&#45;&gt;Node1 -->
<g id="edge1" class="edge">
<title>Node2&#45;&gt;Node1</title>
<path fill="none" stroke="midnightblue" d="M121.96,-607.58C218.43,-602.83 469.71,-590.44 596.3,-584.21"/>
<polygon fill="midnightblue" stroke="midnightblue" points="121.6,-604.09 111.78,-608.08 121.94,-611.09 121.6,-604.09"/>
</g>
<!-- Node3 -->
<g id="node3" class="node">
<title>Node3</title>
<g id="a_node3"><a xlink:href="classdenoptim_1_1graph_1_1_vertex.html" target="_top" xlink:title="A vertex is a data structure that has an identity and holds a list of AttachmentPoints.">
<polygon fill="white" stroke="black" points="332.5,-497 332.5,-516 445.5,-516 445.5,-497 332.5,-497"/>
<text text-anchor="middle" x="389" y="-504" font-family="Helvetica,sans-Serif" font-size="10.00">denoptim.graph.Vertex</text>
</a>
</g>
</g>
<!-- Node2&#45;&gt;Node3 -->
<g id="edge3" class="edge">
<title>Node2&#45;&gt;Node3</title>
<path fill="none" stroke="midnightblue" d="M121.44,-598.09C172.39,-582.9 259.53,-556.65 291,-545.5 317.01,-536.29 346.33,-524.27 365.86,-516.02"/>
<polygon fill="midnightblue" stroke="midnightblue" points="120.34,-594.77 111.76,-600.98 122.34,-601.48 120.34,-594.77"/>
</g>
<!-- Node4 -->
<g id="node4" class="node">
<title>Node4</title>
<g id="a_node4"><a xlink:href="classdenoptim_1_1graph_1_1_d_graph.html" target="_top" xlink:title="Container for the list of vertices and the edges that connect them.">
<polygon fill="white" stroke="black" points="873,-334 873,-353 991,-353 991,-334 873,-334"/>
<text text-anchor="middle" x="932" y="-341" font-family="Helvetica,sans-Serif" font-size="10.00">denoptim.graph.DGraph</text>
</a>
</g>
</g>
<!-- Node2&#45;&gt;Node4 -->
<g id="edge5" class="edge">
<title>Node2&#45;&gt;Node4</title>
<path fill="none" stroke="midnightblue" d="M121.77,-617.87C228.37,-639.05 533.17,-687.08 762,-599.5 809.73,-581.23 824.47,-569.77 850,-525.5 873,-485.62 849.19,-465.52 868,-423.5 880.86,-394.78 906.29,-367.32 920.6,-353.26"/>
<polygon fill="midnightblue" stroke="midnightblue" points="122.28,-614.41 111.79,-615.85 120.9,-621.27 122.28,-614.41"/>
</g>
<!-- Node10 -->
<g id="node10" class="node">
<title>Node10</title>
<g id="a_node10"><a xlink:href="classdenoptim_1_1graph_1_1_candidate.html" target="_top" xlink:title="A candidate is the combination of a denoptim graph with molecular representation and may include also...">
<polygon fill="white" stroke="black" points="1077,-433 1077,-452 1205,-452 1205,-433 1077,-433"/>
<text text-anchor="middle" x="1141" y="-440" font-family="Helvetica,sans-Serif" font-size="10.00">denoptim.graph.Candidate</text>
</a>
</g>
</g>
<!-- Node2&#45;&gt;Node10 -->
<g id="edge13" class="edge">
<title>Node2&#45;&gt;Node10</title>
<path fill="none" stroke="midnightblue" d="M110.96,-623.45C130.39,-632.47 157.16,-643.6 182,-649.5 271.38,-670.73 296.13,-666.5 388,-666.5 388,-666.5 388,-666.5 933,-666.5 1051.61,-666.5 1121.14,-495 1136.67,-452.12"/>
<polygon fill="midnightblue" stroke="midnightblue" points="112.32,-620.22 101.79,-619.09 109.32,-626.54 112.32,-620.22"/>
</g>
<!-- Node3&#45;&gt;Node1 -->
<g id="edge2" class="edge">
<title>Node3&#45;&gt;Node1</title>
<path fill="none" stroke="#9a32cd" stroke-dasharray="5,2" d="M422.3,-519.9C440.97,-527.28 465.05,-536.2 487,-542.5 528.97,-554.53 577.34,-564.35 614.02,-570.99"/>
<polygon fill="#9a32cd" stroke="#9a32cd" points="423.38,-516.56 412.8,-516.09 420.78,-523.06 423.38,-516.56"/>
<text text-anchor="middle" x="526" y="-563.5" font-family="Helvetica,sans-Serif" font-size="10.00"> ftype</text>
</g>
<!-- Node13 -->
<g id="node13" class="node">
<title>Node13</title>
<g id="a_node13"><a xlink:href="classdenoptim_1_1graph_1_1_template.html" target="_top" xlink:title=" ">
<polygon fill="white" stroke="black" points="610,-50 610,-69 735,-69 735,-50 610,-50"/>
<text text-anchor="middle" x="672.5" y="-57" font-family="Helvetica,sans-Serif" font-size="10.00">denoptim.graph.Template</text>
</a>
</g>
</g>
<!-- Node3&#45;&gt;Node13 -->
<g id="edge17" class="edge">
<title>Node3&#45;&gt;Node13</title>
<path fill="none" stroke="midnightblue" d="M404.59,-488.92C421.01,-468.81 448.12,-434.64 469,-403.5 516.25,-333.03 538.35,-319.05 565,-238.5 576.24,-204.53 558.99,-105.03 583,-78.5 590.07,-70.69 599.49,-65.67 609.57,-62.51"/>
<polygon fill="midnightblue" stroke="midnightblue" points="401.7,-486.92 398.06,-496.87 407.11,-491.36 401.7,-486.92"/>
</g>
<!-- Node4&#45;&gt;Node3 -->
<g id="edge4" class="edge">
<title>Node4&#45;&gt;Node3</title>
<path fill="none" stroke="#9a32cd" stroke-dasharray="5,2" d="M913.51,-360.94C899.2,-376.19 879.51,-399.57 868,-423.5 852.77,-455.17 877.39,-478.48 850,-500.5 789.31,-549.29 554.18,-527.23 445.57,-513.95"/>
<polygon fill="#9a32cd" stroke="#9a32cd" points="916.4,-362.99 920.82,-353.36 911.36,-358.13 916.4,-362.99"/>
<text text-anchor="middle" x="672.5" y="-533.5" font-family="Helvetica,sans-Serif" font-size="10.00"> owner</text>
</g>
<!-- Node4&#45;&gt;Node10 -->
<g id="edge14" class="edge">
<title>Node4&#45;&gt;Node10</title>
<path fill="none" stroke="#9a32cd" stroke-dasharray="5,2" d="M1001.3,-350.11C1020.67,-353.8 1041.29,-359.55 1059,-368.5 1090.79,-384.57 1119.36,-416.65 1132.45,-432.77"/>
<polygon fill="#9a32cd" stroke="#9a32cd" points="1001.76,-346.63 991.3,-348.36 1000.55,-353.53 1001.76,-346.63"/>
<text text-anchor="middle" x="1036.5" y="-371.5" font-family="Helvetica,sans-Serif" font-size="10.00"> graph</text>
</g>
<!-- Node4&#45;&gt;Node13 -->
<g id="edge18" class="edge">
<title>Node4&#45;&gt;Node13</title>
<path fill="none" stroke="#9a32cd" stroke-dasharray="5,2" d="M926.93,-323.89C918.23,-285.68 894.86,-200.01 850,-142.5 820.25,-104.37 806.15,-98.23 762,-78.5 753.39,-74.65 743.96,-71.57 734.56,-69.09"/>
<polygon fill="#9a32cd" stroke="#9a32cd" points="923.53,-324.72 929.08,-333.74 930.37,-323.22 923.53,-324.72"/>
<text text-anchor="middle" x="815" y="-145.5" font-family="Helvetica,sans-Serif" font-size="10.00"> innerGraph</text>
</g>
<!-- Node5 -->
<g id="node5" class="node">
<title>Node5</title>
<g id="a_node5"><a xlink:title=" ">
<polygon fill="white" stroke="black" points="606.5,-426.5 606.5,-456.5 738.5,-456.5 738.5,-426.5 606.5,-426.5"/>
<text text-anchor="start" x="614.5" y="-444.5" font-family="Helvetica,sans-Serif" font-size="10.00">ArrayList&lt; denoptim.graph.</text>
<text text-anchor="middle" x="672.5" y="-433.5" font-family="Helvetica,sans-Serif" font-size="10.00">Vertex &gt;</text>
</a>
</g>
</g>
<!-- Node5&#45;&gt;Node4 -->
<g id="edge6" class="edge">
<title>Node5&#45;&gt;Node4</title>
<path fill="none" stroke="#9a32cd" stroke-dasharray="5,2" d="M743.15,-423.67C776.16,-414.25 815.77,-401.51 850,-386.5 873.04,-376.4 898.49,-362.38 914.61,-353.14"/>
<polygon fill="#9a32cd" stroke="#9a32cd" points="741.81,-420.41 733.13,-426.49 743.7,-427.15 741.81,-420.41"/>
<text text-anchor="middle" x="815" y="-413.5" font-family="Helvetica,sans-Serif" font-size="10.00"> gVertices</text>
</g>
<!-- Node6 -->
<g id="node6" class="node">
<title>Node6</title>
<g id="a_node6"><a xlink:title=" ">
<polygon fill="white" stroke="black" points="606.5,-377.5 606.5,-407.5 738.5,-407.5 738.5,-377.5 606.5,-377.5"/>
<text text-anchor="start" x="614.5" y="-395.5" font-family="Helvetica,sans-Serif" font-size="10.00">ArrayList&lt; denoptim.graph.</text>
<text text-anchor="middle" x="672.5" y="-384.5" font-family="Helvetica,sans-Serif" font-size="10.00">Edge &gt;</text>
</a>
</g>
</g>
<!-- Node6&#45;&gt;Node4 -->
<g id="edge7" class="edge">
<title>Node6&#45;&gt;Node4</title>
<path fill="none" stroke="#9a32cd" stroke-dasharray="5,2" d="M748.84,-378.16C791.33,-370.08 843.27,-360.19 880.79,-353.05"/>
<polygon fill="#9a32cd" stroke="#9a32cd" points="747.98,-374.76 738.81,-380.07 749.29,-381.64 747.98,-374.76"/>
<text text-anchor="middle" x="815" y="-374.5" font-family="Helvetica,sans-Serif" font-size="10.00"> gEdges</text>
</g>
<!-- Node7 -->
<g id="node7" class="node">
<title>Node7</title>
<g id="a_node7"><a xlink:title=" ">
<polygon fill="white" stroke="black" points="606.5,-328.5 606.5,-358.5 738.5,-358.5 738.5,-328.5 606.5,-328.5"/>
<text text-anchor="start" x="614.5" y="-346.5" font-family="Helvetica,sans-Serif" font-size="10.00">ArrayList&lt; denoptim.graph.</text>
<text text-anchor="middle" x="672.5" y="-335.5" font-family="Helvetica,sans-Serif" font-size="10.00">Ring &gt;</text>
</a>
</g>
</g>
<!-- Node7&#45;&gt;Node4 -->
<g id="edge8" class="edge">
<title>Node7&#45;&gt;Node4</title>
<path fill="none" stroke="#9a32cd" stroke-dasharray="5,2" d="M748.94,-343.5C788.47,-343.5 836.14,-343.5 872.79,-343.5"/>
<polygon fill="#9a32cd" stroke="#9a32cd" points="748.81,-340 738.81,-343.5 748.81,-347 748.81,-340"/>
<text text-anchor="middle" x="815" y="-346.5" font-family="Helvetica,sans-Serif" font-size="10.00"> gRings</text>
</g>
<!-- Node8 -->
<g id="node8" class="node">
<title>Node8</title>
<g id="a_node8"><a xlink:title=" ">
<polygon fill="white" stroke="black" points="595,-279.5 595,-309.5 750,-309.5 750,-279.5 595,-279.5"/>
<text text-anchor="start" x="603" y="-297.5" font-family="Helvetica,sans-Serif" font-size="10.00">ArrayList&lt; denoptim.graph.rings.</text>
<text text-anchor="middle" x="672.5" y="-286.5" font-family="Helvetica,sans-Serif" font-size="10.00">ClosableChain &gt;</text>
</a>
</g>
</g>
<!-- Node8&#45;&gt;Node4 -->
<g id="edge9" class="edge">
<title>Node8&#45;&gt;Node4</title>
<path fill="none" stroke="#9a32cd" stroke-dasharray="5,2" d="M760.12,-310.98C800.24,-318.62 846.49,-327.42 880.75,-333.94"/>
<polygon fill="#9a32cd" stroke="#9a32cd" points="760.54,-307.5 750.06,-309.07 759.23,-314.38 760.54,-307.5"/>
<text text-anchor="middle" x="815" y="-331.5" font-family="Helvetica,sans-Serif" font-size="10.00"> closableChains</text>
</g>
<!-- Node9 -->
<g id="node9" class="node">
<title>Node9</title>
<g id="a_node9"><a xlink:title=" ">
<polygon fill="white" stroke="black" points="606.5,-230.5 606.5,-260.5 738.5,-260.5 738.5,-230.5 606.5,-230.5"/>
<text text-anchor="start" x="614.5" y="-248.5" font-family="Helvetica,sans-Serif" font-size="10.00">ArrayList&lt; denoptim.graph.</text>
<text text-anchor="middle" x="672.5" y="-237.5" font-family="Helvetica,sans-Serif" font-size="10.00">SymmetricSet &gt;</text>
</a>
</g>
</g>
<!-- Node9&#45;&gt;Node4 -->
<g id="edge10" class="edge">
<title>Node9&#45;&gt;Node4</title>
<path fill="none" stroke="#9a32cd" stroke-dasharray="5,2" d="M741.8,-263.4C748.64,-265.38 755.47,-267.43 762,-269.5 801.67,-282.07 811.89,-284.78 850,-301.5 872.77,-311.49 898.08,-325.03 914.25,-334"/>
<polygon fill="#9a32cd" stroke="#9a32cd" points="742.36,-259.92 731.78,-260.56 740.44,-266.66 742.36,-259.92"/>
<text text-anchor="middle" x="815" y="-304.5" font-family="Helvetica,sans-Serif" font-size="10.00"> symVertices</text>
</g>
<!-- Node10&#45;&gt;Node4 -->
<g id="edge11" class="edge">
<title>Node10&#45;&gt;Node4</title>
<path fill="none" stroke="#9a32cd" stroke-dasharray="5,2" d="M1110.72,-428.5C1068.09,-408.11 990.03,-370.78 953.22,-353.17"/>
<polygon fill="#9a32cd" stroke="#9a32cd" points="1109.47,-431.78 1120,-432.93 1112.49,-425.46 1109.47,-431.78"/>
<text text-anchor="middle" x="1036.5" y="-404.5" font-family="Helvetica,sans-Serif" font-size="10.00"> candidate</text>
</g>
<!-- Node11 -->
<g id="node11" class="node">
<title>Node11</title>
<g id="a_node11"><a xlink:title=" ">
<polygon fill="white" stroke="black" points="868,-433 868,-452 996,-452 996,-433 868,-433"/>
<text text-anchor="middle" x="932" y="-440" font-family="Helvetica,sans-Serif" font-size="10.00">Comparable&lt; Candidate &gt;</text>
</a>
</g>
</g>
<!-- Node11&#45;&gt;Node10 -->
<g id="edge12" class="edge">
<title>Node11&#45;&gt;Node10</title>
<path fill="none" stroke="midnightblue" d="M1006.29,-442.5C1029.32,-442.5 1054.53,-442.5 1076.8,-442.5"/>
<polygon fill="midnightblue" stroke="midnightblue" points="1006.23,-439 996.23,-442.5 1006.23,-446 1006.23,-439"/>
</g>
<!-- Node12 -->
<g id="node12" class="node">
<title>Node12</title>
<g id="a_node12"><a xlink:title=" ">
<polygon fill="white" stroke="black" points="347,-375 347,-394 431,-394 431,-375 347,-375"/>
<text text-anchor="middle" x="389" y="-382" font-family="Helvetica,sans-Serif" font-size="10.00">IAtomContainer</text>
</a>
</g>
</g>
<!-- Node12&#45;&gt;Node10 -->
<g id="edge15" class="edge">
<title>Node12&#45;&gt;Node10</title>
<path fill="none" stroke="#9a32cd" stroke-dasharray="5,2" d="M415.1,-399.07C450.93,-418.94 519.47,-453.56 583,-466.5 769.13,-504.4 997.22,-470.09 1093.56,-452.01"/>
<polygon fill="#9a32cd" stroke="#9a32cd" points="416.73,-395.97 406.3,-394.12 413.3,-402.07 416.73,-395.97"/>
<text text-anchor="middle" x="815" y="-486.5" font-family="Helvetica,sans-Serif" font-size="10.00"> iac</text>
</g>
<!-- Node12&#45;&gt;Node13 -->
<g id="edge19" class="edge">
<title>Node12&#45;&gt;Node13</title>
<path fill="none" stroke="#9a32cd" stroke-dasharray="5,2" d="M401.56,-366.12C443.05,-300.15 582.12,-79.11 583,-78.5 590.99,-72.92 600.3,-68.93 609.82,-66.08"/>
<polygon fill="#9a32cd" stroke="#9a32cd" points="398.53,-364.36 396.17,-374.69 404.46,-368.09 398.53,-364.36"/>
<text text-anchor="middle" x="526" y="-226.5" font-family="Helvetica,sans-Serif" font-size="10.00"> mol</text>
</g>
<!-- Node13&#45;&gt;Node4 -->
<g id="edge16" class="edge">
<title>Node13&#45;&gt;Node4</title>
<path fill="none" stroke="#9a32cd" stroke-dasharray="5,2" d="M712.73,-47.35C751.62,-37.91 810.89,-30.84 850,-60.5 895.91,-95.32 923.79,-288.38 929.78,-333.89"/>
<polygon fill="#9a32cd" stroke="#9a32cd" points="711.63,-44.02 702.82,-49.92 713.38,-50.8 711.63,-44.02"/>
<text text-anchor="middle" x="815" y="-63.5" font-family="Helvetica,sans-Serif" font-size="10.00"> templateJacket</text>
</g>
<!-- Node14 -->
<g id="node14" class="node">
<title>Node14</title>
<g id="a_node14"><a xlink:href="enumdenoptim_1_1graph_1_1_template_1_1_contract_level.html" target="_top" xlink:title="Enum specifying to what extent the template&#39;s inner graph can be changed.">
<polygon fill="white" stroke="black" points="325,-93.5 325,-123.5 453,-123.5 453,-93.5 325,-93.5"/>
<text text-anchor="start" x="333" y="-111.5" font-family="Helvetica,sans-Serif" font-size="10.00">denoptim.graph.Template.</text>
<text text-anchor="middle" x="389" y="-100.5" font-family="Helvetica,sans-Serif" font-size="10.00">ContractLevel</text>
</a>
</g>
</g>
<!-- Node14&#45;&gt;Node13 -->
<g id="edge20" class="edge">
<title>Node14&#45;&gt;Node13</title>
<path fill="none" stroke="#9a32cd" stroke-dasharray="5,2" d="M463.19,-95.76C511.16,-87.41 572.85,-76.67 616.61,-69.05"/>
<polygon fill="#9a32cd" stroke="#9a32cd" points="462.43,-92.34 453.17,-97.5 463.63,-99.24 462.43,-92.34"/>
<text text-anchor="middle" x="526" y="-94.5" font-family="Helvetica,sans-Serif" font-size="10.00"> contractLevel</text>
</g>
<!-- Node15 -->
<g id="node15" class="node">
<title>Node15</title>
<g id="a_node15"><a xlink:title=" ">
<polygon fill="white" stroke="black" points="309,-44.5 309,-74.5 469,-74.5 469,-44.5 309,-44.5"/>
<text text-anchor="start" x="317" y="-62.5" font-family="Helvetica,sans-Serif" font-size="10.00">List&lt; denoptim.graph.Attachment</text>
<text text-anchor="middle" x="389" y="-51.5" font-family="Helvetica,sans-Serif" font-size="10.00">Point &gt;</text>
</a>
</g>
</g>
<!-- Node15&#45;&gt;Node13 -->
<g id="edge21" class="edge">
<title>Node15&#45;&gt;Node13</title>
<path fill="none" stroke="#9a32cd" stroke-dasharray="5,2" d="M479.24,-59.5C521.78,-59.5 571.6,-59.5 609.87,-59.5"/>
<polygon fill="#9a32cd" stroke="#9a32cd" points="479.16,-56 469.16,-59.5 479.16,-63 479.16,-56"/>
<text text-anchor="middle" x="526" y="-62.5" font-family="Helvetica,sans-Serif" font-size="10.00"> requiredAPs</text>
</g>
<!-- Node16 -->
<g id="node16" class="node">
<title>Node16</title>
<g id="a_node16"><a xlink:href="classdenoptim_1_1graph_1_1_a_p_tree_map.html" target="_top" xlink:title="Attachment point mapping where keys are sorted by natural ordering, i.e., by AttachmentPoint#compareT...">
<polygon fill="white" stroke="black" points="320.5,-6 320.5,-25 457.5,-25 457.5,-6 320.5,-6"/>
<text text-anchor="middle" x="389" y="-13" font-family="Helvetica,sans-Serif" font-size="10.00">denoptim.graph.APTreeMap</text>
</a>
</g>
</g>
<!-- Node16&#45;&gt;Node13 -->
<g id="edge22" class="edge">
<title>Node16&#45;&gt;Node13</title>
<path fill="none" stroke="#9a32cd" stroke-dasharray="5,2" d="M461,-26.6C507.11,-33.8 566.58,-43.1 610.54,-49.97"/>
<polygon fill="#9a32cd" stroke="#9a32cd" points="461.5,-23.13 451.08,-25.05 460.42,-30.05 461.5,-23.13"/>
<text text-anchor="middle" x="526" y="-46.5" font-family="Helvetica,sans-Serif" font-size="10.00"> innerToOuterAPs</text>
</g>
<!-- Node17 -->
<g id="node17" class="node">
<title>Node17</title>
<g id="a_node17"><a xlink:title=" ">
<polygon fill="white" stroke="black" points="12.5,-0.5 12.5,-30.5 151.5,-30.5 151.5,-0.5 12.5,-0.5"/>
<text text-anchor="start" x="20.5" y="-18.5" font-family="Helvetica,sans-Serif" font-size="10.00">TreeMap&lt; AttachmentPoint,</text>
<text text-anchor="middle" x="82" y="-7.5" font-family="Helvetica,sans-Serif" font-size="10.00"> AttachmentPoint &gt;</text>
</a>
</g>
</g>
<!-- Node17&#45;&gt;Node16 -->
<g id="edge23" class="edge">
<title>Node17&#45;&gt;Node16</title>
<path fill="none" stroke="midnightblue" d="M162.1,-15.5C211.22,-15.5 273.68,-15.5 320.47,-15.5"/>
<polygon fill="midnightblue" stroke="midnightblue" points="161.83,-12 151.83,-15.5 161.83,-19 161.83,-12"/>
</g>
<!-- Node18 -->
<g id="node18" class="node">
<title>Node18</title>
<g id="a_node18"><a xlink:title=" ">
<polygon fill="white" stroke="black" points="584,-159.5 584,-211.5 761,-211.5 761,-159.5 584,-159.5"/>
<text text-anchor="start" x="592" y="-199.5" font-family="Helvetica,sans-Serif" font-size="10.00">DefaultUndirectedGraph</text>
<text text-anchor="start" x="592" y="-188.5" font-family="Helvetica,sans-Serif" font-size="10.00">&lt; denoptim.graph.Vertex,</text>
<text text-anchor="start" x="592" y="-177.5" font-family="Helvetica,sans-Serif" font-size="10.00"> denoptim.graph.simplified.Undirected</text>
<text text-anchor="middle" x="672.5" y="-166.5" font-family="Helvetica,sans-Serif" font-size="10.00">Edge &gt;</text>
</a>
</g>
</g>
<!-- Node18&#45;&gt;Node4 -->
<g id="edge24" class="edge">
<title>Node18&#45;&gt;Node4</title>
<path fill="none" stroke="#9a32cd" stroke-dasharray="5,2" d="M763.41,-215.21C792.42,-226.96 823.81,-242.12 850,-260.5 881.14,-282.37 910.45,-317.19 923.66,-333.91"/>
<polygon fill="#9a32cd" stroke="#9a32cd" points="764.67,-211.95 754.08,-211.51 762.09,-218.45 764.67,-211.95"/>
<text text-anchor="middle" x="815" y="-263.5" font-family="Helvetica,sans-Serif" font-size="10.00"> jGraph</text>
</g>
<!-- Node19 -->
<g id="node19" class="node">
<title>Node19</title>
<g id="a_node19"><a xlink:title=" ">
<polygon fill="white" stroke="black" points="583,-88.5 583,-140.5 762,-140.5 762,-88.5 583,-88.5"/>
<text text-anchor="start" x="591" y="-128.5" font-family="Helvetica,sans-Serif" font-size="10.00">DefaultUndirectedGraph</text>
<text text-anchor="start" x="591" y="-117.5" font-family="Helvetica,sans-Serif" font-size="10.00">&lt; denoptim.graph.simplified.</text>
<text text-anchor="start" x="591" y="-106.5" font-family="Helvetica,sans-Serif" font-size="10.00">Node, denoptim.graph.simplified.Node</text>
<text text-anchor="middle" x="672.5" y="-95.5" font-family="Helvetica,sans-Serif" font-size="10.00">Connection &gt;</text>
</a>
</g>
</g>
<!-- Node19&#45;&gt;Node4 -->
<g id="edge25" class="edge">
<title>Node19&#45;&gt;Node4</title>
<path fill="none" stroke="#9a32cd" stroke-dasharray="5,2" d="M755.25,-144.67C787.9,-159.88 823.87,-181.02 850,-208.5 888.24,-248.71 916.77,-310.04 926.94,-333.71"/>
<polygon fill="#9a32cd" stroke="#9a32cd" points="756.7,-141.48 746.14,-140.53 753.8,-147.85 756.7,-141.48"/>
<text text-anchor="middle" x="815" y="-211.5" font-family="Helvetica,sans-Serif" font-size="10.00"> jGraphKernel</text>
</g>
<!-- Node20 -->
<g id="node20" class="node">
<title>Node20</title>
<g id="a_node20"><a xlink:href="enumdenoptim_1_1graph_1_1_vertex_1_1_b_b_type.html" target="_top" xlink:title="The type of building block.">
<polygon fill="white" stroke="black" points="7.5,-535 7.5,-554 156.5,-554 156.5,-535 7.5,-535"/>
<text text-anchor="middle" x="82" y="-542" font-family="Helvetica,sans-Serif" font-size="10.00">denoptim.graph.Vertex.BBType</text>
</a>
</g>
</g>
<!-- Node20&#45;&gt;Node3 -->
<g id="edge26" class="edge">
<title>Node20&#45;&gt;Node3</title>
<path fill="none" stroke="#9a32cd" stroke-dasharray="5,2" d="M166.82,-534.06C219.42,-527.5 285.8,-519.23 332.05,-513.47"/>
<polygon fill="#9a32cd" stroke="#9a32cd" points="166.32,-530.59 156.83,-535.3 167.19,-537.54 166.32,-530.59"/>
<text text-anchor="middle" x="236.5" y="-533.5" font-family="Helvetica,sans-Serif" font-size="10.00"> buildingBlockType</text>
</g>
<!-- Node21 -->
<g id="node21" class="node">
<title>Node21</title>
<g id="a_node21"><a xlink:title=" ">
<polygon fill="white" stroke="black" points="25,-497 25,-516 139,-516 139,-497 25,-497"/>
<text text-anchor="middle" x="82" y="-504" font-family="Helvetica,sans-Serif" font-size="10.00">Map&lt; Object, Object &gt;</text>
</a>
</g>
</g>
<!-- Node21&#45;&gt;Node3 -->
<g id="edge27" class="edge">
<title>Node21&#45;&gt;Node3</title>
<path fill="none" stroke="#9a32cd" stroke-dasharray="5,2" d="M149.58,-506.5C204.26,-506.5 280.81,-506.5 332.29,-506.5"/>
<polygon fill="#9a32cd" stroke="#9a32cd" points="149.3,-503 139.3,-506.5 149.3,-510 149.3,-503"/>
<text text-anchor="middle" x="236.5" y="-509.5" font-family="Helvetica,sans-Serif" font-size="10.00"> properties</text>
</g>
<!-- Node22 -->
<g id="node22" class="node">
<title>Node22</title>
<g id="a_node22"><a xlink:title=" ">
<polygon fill="white" stroke="black" points="45,-459 45,-478 119,-478 119,-459 45,-459"/>
<text text-anchor="middle" x="82" y="-466" font-family="Helvetica,sans-Serif" font-size="10.00">Set&lt; String &gt;</text>
</a>
</g>
</g>
<!-- Node22&#45;&gt;Node3 -->
<g id="edge28" class="edge">
<title>Node22&#45;&gt;Node3</title>
<path fill="none" stroke="#9a32cd" stroke-dasharray="5,2" d="M129.1,-473.02C171.3,-477.29 235.43,-484.14 291,-491.5 304.43,-493.28 318.87,-495.4 332.41,-497.48"/>
<polygon fill="#9a32cd" stroke="#9a32cd" points="129.43,-469.54 119.13,-472.02 128.73,-476.5 129.43,-469.54"/>
<text text-anchor="middle" x="236.5" y="-494.5" font-family="Helvetica,sans-Serif" font-size="10.00"> uniquefyingPropertyKeys</text>
</g>
<!-- Node23 -->
<g id="node23" class="node">
<title>Node23</title>
<g id="a_node23"><a xlink:title=" ">
<polygon fill="white" stroke="black" points="11.5,-409.5 11.5,-439.5 152.5,-439.5 152.5,-409.5 11.5,-409.5"/>
<text text-anchor="start" x="19.5" y="-427.5" font-family="Helvetica,sans-Serif" font-size="10.00">List&lt; denoptim.utils.Mutation</text>
<text text-anchor="middle" x="82" y="-416.5" font-family="Helvetica,sans-Serif" font-size="10.00">Type &gt;</text>
</a>
</g>
</g>
<!-- Node23&#45;&gt;Node3 -->
<g id="edge29" class="edge">
<title>Node23&#45;&gt;Node3</title>
<path fill="none" stroke="#9a32cd" stroke-dasharray="5,2" d="M163.11,-435.07C202.21,-441.35 249.61,-450.64 291,-463.5 319.5,-472.36 350.77,-487.22 369.9,-496.95"/>
<polygon fill="#9a32cd" stroke="#9a32cd" points="163.26,-431.55 152.84,-433.46 162.18,-438.47 163.26,-431.55"/>
<text text-anchor="middle" x="236.5" y="-466.5" font-family="Helvetica,sans-Serif" font-size="10.00"> allowedMutationTypes</text>
</g>
<!-- Node24 -->
<g id="node24" class="node">
<title>Node24</title>
<g id="a_node24"><a xlink:href="enumdenoptim_1_1graph_1_1_vertex_1_1_vertex_type.html" target="_top" xlink:title="Flag declaring the type of Vertex implementation.">
<polygon fill="white" stroke="black" points="0,-371 0,-390 164,-390 164,-371 0,-371"/>
<text text-anchor="middle" x="82" y="-378" font-family="Helvetica,sans-Serif" font-size="10.00">denoptim.graph.Vertex.VertexType</text>
</a>
</g>
</g>
<!-- Node24&#45;&gt;Node3 -->
<g id="edge30" class="edge">
<title>Node24&#45;&gt;Node3</title>
<path fill="none" stroke="#9a32cd" stroke-dasharray="5,2" d="M174.04,-389.21C211.66,-395.34 254.83,-405.77 291,-423.5 329.01,-442.13 364.3,-479.17 379.77,-496.77"/>
<polygon fill="#9a32cd" stroke="#9a32cd" points="174.52,-385.74 164.1,-387.67 173.44,-392.66 174.52,-385.74"/>
<text text-anchor="middle" x="236.5" y="-426.5" font-family="Helvetica,sans-Serif" font-size="10.00"> vertexType</text>
</g>
</g>
</svg>
        <g id="navigator" transform="translate(0 0)" fill="#404254">
                <rect fill="#f2f5e9" fill-opacity="0.5" stroke="#606060" stroke-width=".5" x="0" y="0" width="60" height="60"/>
                <use id="zoomplus" xlink:href="#zoomPlus" x="17" y="9" onmousedown="handleZoom(evt,'in')"/>
                <use id="zoomminus" xlink:href="#zoomMin" x="42" y="9" onmousedown="handleZoom(evt,'out')"/>
                <use id="reset" xlink:href="#resetDef" x="30" y="36" onmousedown="handleReset()"/>
                <g id="arrowUp" xlink:href="#dirArrow" transform="translate(30 24)" onmousedown="handlePan(0,-1)">
                  <use xlink:href="#rim" fill="#404040">
                        <set attributeName="fill" to="#808080" begin="arrowUp.mouseover" end="arrowUp.mouseout"/>
                  </use>
                  <path fill="none" stroke="white" stroke-width="1.5" d="M0,-3.0v7 M-2.5,-0.5L0,-3.0L2.5,-0.5"/>
                </g>
                <g id="arrowRight" xlink:href="#dirArrow" transform="rotate(90) translate(36 -43)" onmousedown="handlePan(1,0)">
                  <use xlink:href="#rim" fill="#404040">
                        <set attributeName="fill" to="#808080" begin="arrowRight.mouseover" end="arrowRight.mouseout"/>
                  </use>
                  <path fill="none" stroke="white" stroke-width="1.5" d="M0,-3.0v7 M-2.5,-0.5L0,-3.0L2.5,-0.5"/>
                </g>
                <g id="arrowDown" xlink:href="#dirArrow" transform="rotate(180) translate(-30 -48)" onmousedown="handlePan(0,1)">
                  <use xlink:href="#rim" fill="#404040">
                        <set attributeName="fill" to="#808080" begin="arrowDown.mouseover" end="arrowDown.mouseout"/>
                  </use>
                  <path fill="none" stroke="white" stroke-width="1.5" d="M0,-3.0v7 M-2.5,-0.5L0,-3.0L2.5,-0.5"/>
                </g>
                <g id="arrowLeft" xlink:href="#dirArrow" transform="rotate(270) translate(-36 17)" onmousedown="handlePan(-1,0)">
                  <use xlink:href="#rim" fill="#404040">
                        <set attributeName="fill" to="#808080" begin="arrowLeft.mouseover" end="arrowLeft.mouseout"/>
                  </use>
                  <path fill="none" stroke="white" stroke-width="1.5" d="M0,-3.0v7 M-2.5,-0.5L0,-3.0L2.5,-0.5"/>
                </g>
        </g>
        <svg viewBox="0 0 15 15" width="100%" height="30px" preserveAspectRatio="xMaxYMin meet">
         <g id="arrow_out" transform="scale(0.3 0.3)">
          <a xlink:href="classdenoptim_1_1graph_1_1rings_1_1_chain_link__coll__graph_org.svg" target="_base">
           <rect id="button" ry="5" rx="5" y="6" x="6" height="38" width="38"
                fill="#f2f5e9" fill-opacity="0.5" stroke="#606060" stroke-width="1.0"/>
           <path id="arrow"
             d="M 11.500037,31.436501 C 11.940474,20.09759 22.043105,11.32322 32.158766,21.979434 L 37.068811,17.246167 C 37.068811,17.246167 37.088388,32 37.088388,32 L 22.160133,31.978069 C 22.160133,31.978069 26.997745,27.140456 26.997745,27.140456 C 18.528582,18.264221 13.291696,25.230495 11.500037,31.436501 z"
             style="fill:#404040;"/>
          </a>
         </g>
        </svg>
</svg>
