<?xml version="1.0" encoding="UTF-8" standalone="no"?>
<!DOCTYPE svg PUBLIC "-//W3C//DTD SVG 1.1//EN"
 "http://www.w3.org/Graphics/SVG/1.1/DTD/svg11.dtd">
<!-- Generated by graphviz version 3.0.0 (20220413.0242)
 -->
<!-- Title: denoptim.gui.GraphVertexMolViewerPanel.bringCardToTopOfMolViewer Pages: 1 -->
<!--zoomable 527 -->
<svg id="main" version="1.1" xmlns="http://www.w3.org/2000/svg" xmlns:xlink="http://www.w3.org/1999/xlink" xml:space="preserve" onload="init(evt)">
<style type="text/css"><![CDATA[
.edge:hover path { stroke: red; }
.edge:hover polygon { stroke: red; fill: red; }
]]></style>
<script type="text/javascript"><![CDATA[
var edges = document.getElementsByTagName('g');
if (edges && edges.length) {
  for (var i=0;i<edges.length;i++) {
    if (edges[i].id.substr(0,4)=='edge') {
      edges[i].setAttribute('class','edge');
    }
  }
}
]]></script>
        <defs>
                <circle id="rim" cx="0" cy="0" r="7"/>
                <circle id="rim2" cx="0" cy="0" r="3.5"/>
                <g id="zoomPlus">
                        <use xlink:href="#rim" fill="#404040">
                                <set attributeName="fill" to="#808080" begin="zoomplus.mouseover" end="zoomplus.mouseout"/>
                        </use>
                        <path d="M-4,0h8M0,-4v8" fill="none" stroke="white" stroke-width="1.5" pointer-events="none"/>
                </g>
                <g id="zoomMin">
                        <use xlink:href="#rim" fill="#404040">
                                <set attributeName="fill" to="#808080" begin="zoomminus.mouseover" end="zoomminus.mouseout"/>
                        </use>
                        <path d="M-4,0h8" fill="none" stroke="white" stroke-width="1.5" pointer-events="none"/>
                </g>
                <g id="dirArrow">
                        <path fill="none" stroke="white" stroke-width="1.5" d="M0,-3.0v7 M-2.5,-0.5L0,-3.0L2.5,-0.5"/>
                </g>
               <g id="resetDef">
                       <use xlink:href="#rim2" fill="#404040">
                               <set attributeName="fill" to="#808080" begin="reset.mouseover" end="reset.mouseout"/>
                       </use>
               </g>
        </defs>

<script type="text/javascript">
var viewWidth = 2074;
var viewHeight = 527;
var sectionId = 'dynsection-6';
</script>
<script xlink:href="svgpan.js"/>
<svg id="graph" class="graph">
<g id="viewport">
<title>denoptim.gui.GraphVertexMolViewerPanel.bringCardToTopOfMolViewer</title>
<polygon fill="white" stroke="transparent" points="-4,4 -4,-522.59 2070,-522.59 2070,4 -4,4"/>
<!-- Node1 -->
<g id="node1" class="node">
<title>Node1</title>
<g id="a_node1"><a xlink:title="Allows to show the given card in the molecular structure viewer.">
<polygon fill="#bfbfbf" stroke="black" points="1908,-177.59 1908,-218.59 2066,-218.59 2066,-177.59 1908,-177.59"/>
<text text-anchor="start" x="1916" y="-206.59" font-family="Helvetica,sans-Serif" font-size="10.00">denoptim.gui.GraphVertex</text>
<text text-anchor="start" x="1916" y="-195.59" font-family="Helvetica,sans-Serif" font-size="10.00">MolViewerPanel.bringCardToTop</text>
<text text-anchor="middle" x="1987" y="-184.59" font-family="Helvetica,sans-Serif" font-size="10.00">OfMolViewer</text>
</a>
</g>
</g>
<!-- Node2 -->
<g id="node2" class="node">
<title>Node2</title>
<g id="a_node2"><a xlink:href="classdenoptim_1_1gui_1_1_graph_vertex_mol_viewer_panel.html#a5a72b0b91e2f169d5b9a473d0bc04a3f" target="_top" xlink:title="Clears the molecular viewer and hides it behind the empty card.">
<polygon fill="white" stroke="black" points="1715.5,-226.59 1715.5,-267.59 1867.5,-267.59 1867.5,-226.59 1715.5,-226.59"/>
<text text-anchor="start" x="1723.5" y="-255.59" font-family="Helvetica,sans-Serif" font-size="10.00">denoptim.gui.GraphVertex</text>
<text text-anchor="start" x="1723.5" y="-244.59" font-family="Helvetica,sans-Serif" font-size="10.00">MolViewerPanel.clearMolecular</text>
<text text-anchor="middle" x="1791.5" y="-233.59" font-family="Helvetica,sans-Serif" font-size="10.00">Viewer</text>
</a>
</g>
</g>
<!-- Node1&#45;&gt;Node2 -->
<g id="edge1" class="edge">
<title>Node1&#45;&gt;Node2</title>
<path fill="none" stroke="midnightblue" d="M1897.87,-220.4C1887.82,-222.95 1877.66,-225.52 1867.8,-228.02"/>
<polygon fill="midnightblue" stroke="midnightblue" points="1899.02,-223.72 1907.85,-217.87 1897.3,-216.94 1899.02,-223.72"/>
</g>
<!-- Node19 -->
<g id="node19" class="node">
<title>Node19</title>
<g id="a_node19"><a xlink:href="classdenoptim_1_1gui_1_1_g_u_i_graph_handler.html#a11c5c55e0930e8eb7304416707016522" target="_top" xlink:title=" ">
<polygon fill="white" stroke="black" points="818,-488.09 818,-518.09 1004,-518.09 1004,-488.09 818,-488.09"/>
<text text-anchor="start" x="826" y="-506.09" font-family="Helvetica,sans-Serif" font-size="10.00">denoptim.gui.GUIGraphHandler.remove</text>
<text text-anchor="middle" x="911" y="-495.09" font-family="Helvetica,sans-Serif" font-size="10.00">CurrentDnGraph</text>
</a>
</g>
</g>
<!-- Node1&#45;&gt;Node19 -->
<g id="edge39" class="edge">
<title>Node1&#45;&gt;Node19</title>
<path fill="none" stroke="midnightblue" d="M1967.29,-227.38C1916.41,-303.04 1767.34,-499.09 1588.5,-499.09 1588.5,-499.09 1588.5,-499.09 1369,-499.09 1242.65,-499.09 1096.65,-500.63 1004.34,-501.8"/>
<polygon fill="midnightblue" stroke="midnightblue" points="1970.39,-229.04 1973,-218.77 1964.55,-225.17 1970.39,-229.04"/>
</g>
<!-- Node24 -->
<g id="node24" class="node">
<title>Node24</title>
<g id="a_node24"><a xlink:href="classdenoptim_1_1gui_1_1_graph_vertex_mol_viewer_panel.html#ac58ac806c3220d9a069f7259c843dbaa" target="_top" xlink:title="Loads the given graph into the graph viewer.">
<polygon fill="white" stroke="black" points="1291.5,-198.59 1291.5,-239.59 1448.5,-239.59 1448.5,-198.59 1291.5,-198.59"/>
<text text-anchor="start" x="1299.5" y="-227.59" font-family="Helvetica,sans-Serif" font-size="10.00">denoptim.gui.GraphVertex</text>
<text text-anchor="start" x="1299.5" y="-216.59" font-family="Helvetica,sans-Serif" font-size="10.00">MolViewerPanel.loadDnGraphTo</text>
<text text-anchor="middle" x="1370" y="-205.59" font-family="Helvetica,sans-Serif" font-size="10.00">Viewer</text>
</a>
</g>
</g>
<!-- Node1&#45;&gt;Node24 -->
<g id="edge30" class="edge">
<title>Node1&#45;&gt;Node24</title>
<path fill="none" stroke="midnightblue" d="M1897.5,-201.11C1777.01,-205.22 1563.23,-212.52 1448.65,-216.43"/>
<polygon fill="midnightblue" stroke="midnightblue" points="1897.92,-204.6 1907.8,-200.76 1897.68,-197.6 1897.92,-204.6"/>
</g>
<!-- Node28 -->
<g id="node28" class="node">
<title>Node28</title>
<g id="a_node28"><a xlink:href="classdenoptim_1_1gui_1_1_graph_vertex_mol_viewer_panel.html#ab50cb5be3164a9e6ea3d87d21c7d5416" target="_top" xlink:title="Triggers the generation of the molecular representation of the loaded graph.">
<polygon fill="white" stroke="black" points="1290,-80.59 1290,-121.59 1450,-121.59 1450,-80.59 1290,-80.59"/>
<text text-anchor="start" x="1298" y="-109.59" font-family="Helvetica,sans-Serif" font-size="10.00">denoptim.gui.GraphVertex</text>
<text text-anchor="start" x="1298" y="-98.59" font-family="Helvetica,sans-Serif" font-size="10.00">MolViewerPanel.renderMolViever</text>
<text text-anchor="middle" x="1370" y="-87.59" font-family="Helvetica,sans-Serif" font-size="10.00">ToNeedUpdate</text>
</a>
</g>
</g>
<!-- Node1&#45;&gt;Node28 -->
<g id="edge40" class="edge">
<title>Node1&#45;&gt;Node28</title>
<path fill="none" stroke="midnightblue" d="M1897.91,-184.19C1777.99,-165.28 1565.17,-131.71 1450.11,-113.56"/>
<polygon fill="midnightblue" stroke="midnightblue" points="1897.37,-187.65 1907.8,-185.75 1898.47,-180.74 1897.37,-187.65"/>
</g>
<!-- Node29 -->
<g id="node29" class="node">
<title>Node29</title>
<g id="a_node29"><a xlink:href="classdenoptim_1_1gui_1_1_graph_vertex_mol_viewer_panel.html#afb0f2245fdfc8158581b4cbcf2b239d1" target="_top" xlink:title="Updates the molecular representation of the loaded graph.">
<polygon fill="white" stroke="black" points="1711,-36.59 1711,-77.59 1872,-77.59 1872,-36.59 1711,-36.59"/>
<text text-anchor="start" x="1719" y="-65.59" font-family="Helvetica,sans-Serif" font-size="10.00">denoptim.gui.GraphVertex</text>
<text text-anchor="start" x="1719" y="-54.59" font-family="Helvetica,sans-Serif" font-size="10.00">MolViewerPanel.updateMolevular</text>
<text text-anchor="middle" x="1791.5" y="-43.59" font-family="Helvetica,sans-Serif" font-size="10.00">Viewer</text>
</a>
</g>
</g>
<!-- Node1&#45;&gt;Node29 -->
<g id="edge43" class="edge">
<title>Node1&#45;&gt;Node29</title>
<path fill="none" stroke="midnightblue" d="M1953.31,-170.89C1930.87,-152.56 1900.16,-128.16 1872,-108.09 1857.31,-97.61 1840.57,-86.73 1826.25,-77.71"/>
<polygon fill="midnightblue" stroke="midnightblue" points="1951.24,-173.71 1961.19,-177.34 1955.67,-168.3 1951.24,-173.71"/>
</g>
<!-- Node3 -->
<g id="node3" class="node">
<title>Node3</title>
<g id="a_node3"><a xlink:href="classdenoptim_1_1gui_1_1_graph_vertex_mol_viewer_panel.html#aa6856d61cbbaa2fa6919e1c87d088bd3" target="_top" xlink:title="Clears the current graph viewer but keeps track of the latest graph loaded.">
<polygon fill="white" stroke="black" points="1500,-306.09 1500,-336.09 1675,-336.09 1675,-306.09 1500,-306.09"/>
<text text-anchor="start" x="1508" y="-324.09" font-family="Helvetica,sans-Serif" font-size="10.00">denoptim.gui.GraphVertex</text>
<text text-anchor="middle" x="1587.5" y="-313.09" font-family="Helvetica,sans-Serif" font-size="10.00">MolViewerPanel.clearCurrentSystem</text>
</a>
</g>
</g>
<!-- Node2&#45;&gt;Node3 -->
<g id="edge2" class="edge">
<title>Node2&#45;&gt;Node3</title>
<path fill="none" stroke="midnightblue" d="M1724.94,-271.1C1693.55,-282.6 1656.92,-296.02 1629.53,-306.06"/>
<polygon fill="midnightblue" stroke="midnightblue" points="1726.31,-274.33 1734.5,-267.6 1723.91,-267.75 1726.31,-274.33"/>
</g>
<!-- Node21 -->
<g id="node21" class="node">
<title>Node21</title>
<g id="a_node21"><a xlink:href="classdenoptim_1_1gui_1_1_g_u_i_graph_handler.html#a181eab5645926023fe23b1886aa98583" target="_top" xlink:title=" ">
<polygon fill="white" stroke="black" points="1276,-140.09 1276,-170.09 1464,-170.09 1464,-140.09 1276,-140.09"/>
<text text-anchor="start" x="1284" y="-158.09" font-family="Helvetica,sans-Serif" font-size="10.00">denoptim.gui.GUIGraphHandler.initialize</text>
<text text-anchor="middle" x="1370" y="-147.09" font-family="Helvetica,sans-Serif" font-size="10.00">CurrentGraph</text>
</a>
</g>
</g>
<!-- Node2&#45;&gt;Node21 -->
<g id="edge24" class="edge">
<title>Node2&#45;&gt;Node21</title>
<path fill="none" stroke="midnightblue" d="M1705.17,-228.37C1626.82,-211.19 1512.2,-186.05 1439.62,-170.14"/>
<polygon fill="midnightblue" stroke="midnightblue" points="1704.5,-231.81 1715.02,-230.53 1706,-224.97 1704.5,-231.81"/>
</g>
<!-- Node4 -->
<g id="node4" class="node">
<title>Node4</title>
<g id="a_node4"><a xlink:href="classdenoptim_1_1gui_1_1_g_u_i_graph_handler.html#ab5c539d49c8d6af83e4cf4596465a97b" target="_top" xlink:title="Clears the current graph viewer but keeps track of the latest graph loaded.">
<polygon fill="white" stroke="black" points="1282.5,-390.09 1282.5,-420.09 1457.5,-420.09 1457.5,-390.09 1282.5,-390.09"/>
<text text-anchor="start" x="1290.5" y="-408.09" font-family="Helvetica,sans-Serif" font-size="10.00">denoptim.gui.GUIGraphHandler.clear</text>
<text text-anchor="middle" x="1370" y="-397.09" font-family="Helvetica,sans-Serif" font-size="10.00">CurrentSystem</text>
</a>
</g>
</g>
<!-- Node3&#45;&gt;Node4 -->
<g id="edge3" class="edge">
<title>Node3&#45;&gt;Node4</title>
<path fill="none" stroke="midnightblue" d="M1538.44,-339.82C1499.59,-354.96 1445.61,-376 1409.56,-390.06"/>
<polygon fill="midnightblue" stroke="midnightblue" points="1539.93,-343 1547.97,-336.1 1537.38,-336.47 1539.93,-343"/>
</g>
<!-- Node5 -->
<g id="node5" class="node">
<title>Node5</title>
<g id="a_node5"><a xlink:href="classdenoptim_1_1gui_1_1_g_u_i_graph_handler.html#ad71f3e0107bfa15b942563cfcf6f260a" target="_top" xlink:title="Loads the graph corresponding to the field currGrphIdx.">
<polygon fill="white" stroke="black" points="1063.5,-390.09 1063.5,-420.09 1235.5,-420.09 1235.5,-390.09 1063.5,-390.09"/>
<text text-anchor="start" x="1071.5" y="-408.09" font-family="Helvetica,sans-Serif" font-size="10.00">denoptim.gui.GUIGraphHandler.load</text>
<text text-anchor="middle" x="1149.5" y="-397.09" font-family="Helvetica,sans-Serif" font-size="10.00">CurrentGraphIdxToViewer</text>
</a>
</g>
</g>
<!-- Node4&#45;&gt;Node5 -->
<g id="edge4" class="edge">
<title>Node4&#45;&gt;Node5</title>
<path fill="none" stroke="midnightblue" d="M1272.17,-405.09C1259.99,-405.09 1247.61,-405.09 1235.64,-405.09"/>
<polygon fill="midnightblue" stroke="midnightblue" points="1272.33,-408.59 1282.33,-405.09 1272.33,-401.59 1272.33,-408.59"/>
</g>
<!-- Node4&#45;&gt;Node19 -->
<g id="edge23" class="edge">
<title>Node4&#45;&gt;Node19</title>
<path fill="none" stroke="midnightblue" d="M1288.78,-422.29C1201.94,-440.91 1064.79,-470.32 982.11,-488.05"/>
<polygon fill="midnightblue" stroke="midnightblue" points="1289.55,-425.7 1298.6,-420.18 1288.08,-418.86 1289.55,-425.7"/>
</g>
<!-- Node6 -->
<g id="node6" class="node">
<title>Node6</title>
<g id="a_node6"><a xlink:href="classdenoptim_1_1gui_1_1_g_u_i_graph_handler.html#a9c42cf2eaeda70e10b570a290cce5518" target="_top" xlink:title=" ">
<polygon fill="white" stroke="black" points="818.5,-341.09 818.5,-371.09 1003.5,-371.09 1003.5,-341.09 818.5,-341.09"/>
<text text-anchor="start" x="826.5" y="-359.09" font-family="Helvetica,sans-Serif" font-size="10.00">denoptim.gui.GUIGraphHandler.append</text>
<text text-anchor="middle" x="911" y="-348.09" font-family="Helvetica,sans-Serif" font-size="10.00">GraphsFromFile</text>
</a>
</g>
</g>
<!-- Node5&#45;&gt;Node6 -->
<g id="edge5" class="edge">
<title>Node5&#45;&gt;Node6</title>
<path fill="none" stroke="midnightblue" d="M1065.91,-387.97C1039.37,-382.47 1010.18,-376.43 984.43,-371.09"/>
<polygon fill="midnightblue" stroke="midnightblue" points="1065.43,-391.45 1075.93,-390.05 1066.85,-384.59 1065.43,-391.45"/>
</g>
<!-- Node9 -->
<g id="node9" class="node">
<title>Node9</title>
<g id="a_node9"><a xlink:href="classdenoptim_1_1gui_1_1_g_u_i_graph_handler.html#a81df728192225395c24224607bc63eee" target="_top" xlink:title="Imports graphs from file.">
<polygon fill="white" stroke="black" points="820.5,-390.09 820.5,-420.09 1001.5,-420.09 1001.5,-390.09 820.5,-390.09"/>
<text text-anchor="start" x="828.5" y="-408.09" font-family="Helvetica,sans-Serif" font-size="10.00">denoptim.gui.GUIGraphHandler.import</text>
<text text-anchor="middle" x="911" y="-397.09" font-family="Helvetica,sans-Serif" font-size="10.00">GraphsFromFile</text>
</a>
</g>
</g>
<!-- Node5&#45;&gt;Node9 -->
<g id="edge8" class="edge">
<title>Node5&#45;&gt;Node9</title>
<path fill="none" stroke="midnightblue" d="M1053.03,-405.09C1036.14,-405.09 1018.61,-405.09 1001.88,-405.09"/>
<polygon fill="midnightblue" stroke="midnightblue" points="1053.45,-408.59 1063.45,-405.09 1053.45,-401.59 1053.45,-408.59"/>
</g>
<!-- Node5&#45;&gt;Node19 -->
<g id="edge20" class="edge">
<title>Node5&#45;&gt;Node19</title>
<path fill="none" stroke="midnightblue" d="M1094.01,-424.27C1082.02,-429.56 1069.71,-435.86 1059,-443.09 1040.24,-455.74 1042.87,-468.25 1023,-479.09 1016.68,-482.53 1009.91,-485.48 1002.94,-488.01"/>
<polygon fill="midnightblue" stroke="midnightblue" points="1095.67,-427.37 1103.52,-420.26 1092.95,-420.92 1095.67,-427.37"/>
</g>
<!-- Node20 -->
<g id="node20" class="node">
<title>Node20</title>
<g id="a_node20"><a xlink:href="classdenoptim_1_1gui_1_1_g_u_i_graph_handler_1_1_graph_spinner_change_event.html#ac1da07025d32dbd73ec5104a66676dc9" target="_top" xlink:title=" ">
<polygon fill="white" stroke="black" points="813,-439.09 813,-469.09 1009,-469.09 1009,-439.09 813,-439.09"/>
<text text-anchor="start" x="821" y="-457.09" font-family="Helvetica,sans-Serif" font-size="10.00">denoptim.gui.GUIGraphHandler.</text>
<text text-anchor="middle" x="911" y="-446.09" font-family="Helvetica,sans-Serif" font-size="10.00">GraphSpinnerChangeEvent.stateChanged</text>
</a>
</g>
</g>
<!-- Node5&#45;&gt;Node20 -->
<g id="edge22" class="edge">
<title>Node5&#45;&gt;Node20</title>
<path fill="none" stroke="midnightblue" d="M1065.91,-422.2C1039.37,-427.7 1010.18,-433.74 984.43,-439.08"/>
<polygon fill="midnightblue" stroke="midnightblue" points="1066.85,-425.58 1075.93,-420.12 1065.43,-418.72 1066.85,-425.58"/>
</g>
<!-- Node7 -->
<g id="node7" class="node">
<title>Node7</title>
<g id="a_node7"><a xlink:href="classdenoptim_1_1gui_1_1_g_u_i_graph_handler.html#af5b000c105018cbd7c262b34f9750044" target="_top" xlink:title="Initialize the panel and add buttons.">
<polygon fill="white" stroke="black" points="570.5,-161.59 570.5,-180.59 758.5,-180.59 758.5,-161.59 570.5,-161.59"/>
<text text-anchor="middle" x="664.5" y="-168.59" font-family="Helvetica,sans-Serif" font-size="10.00">denoptim.gui.GUIGraphHandler.initialize</text>
</a>
</g>
</g>
<!-- Node6&#45;&gt;Node7 -->
<g id="edge6" class="edge">
<title>Node6&#45;&gt;Node7</title>
<path fill="none" stroke="midnightblue" d="M809.04,-337.49C805.58,-335.84 802.22,-334.04 799,-332.09 733.82,-292.51 685.74,-209.52 670.57,-180.98"/>
<polygon fill="midnightblue" stroke="midnightblue" points="807.84,-340.79 818.41,-341.54 810.62,-334.36 807.84,-340.79"/>
</g>
<!-- Node8 -->
<g id="node8" class="node">
<title>Node8</title>
<g id="a_node8"><a xlink:href="classdenoptim_1_1gui_1_1_g_u_i_graph_handler.html#ab7d010d9a384f6b85edce47c95d6723b" target="_top" xlink:title="Constructor.">
<polygon fill="white" stroke="black" points="372,-156.09 372,-186.09 526,-186.09 526,-156.09 372,-156.09"/>
<text text-anchor="start" x="380" y="-174.09" font-family="Helvetica,sans-Serif" font-size="10.00">denoptim.gui.GUIGraphHandler.</text>
<text text-anchor="middle" x="449" y="-163.09" font-family="Helvetica,sans-Serif" font-size="10.00">GUIGraphHandler</text>
</a>
</g>
</g>
<!-- Node7&#45;&gt;Node8 -->
<g id="edge7" class="edge">
<title>Node7&#45;&gt;Node8</title>
<path fill="none" stroke="midnightblue" d="M560.35,-171.09C548.8,-171.09 537.19,-171.09 526.07,-171.09"/>
<polygon fill="midnightblue" stroke="midnightblue" points="560.48,-174.59 570.48,-171.09 560.48,-167.59 560.48,-174.59"/>
</g>
<!-- Node9&#45;&gt;Node7 -->
<g id="edge9" class="edge">
<title>Node9&#45;&gt;Node7</title>
<path fill="none" stroke="midnightblue" d="M810.99,-388.19C806.81,-386.08 802.79,-383.73 799,-381.09 796.54,-379.37 697.51,-222 671.63,-180.84"/>
<polygon fill="midnightblue" stroke="midnightblue" points="809.83,-391.5 820.38,-392.4 812.69,-385.11 809.83,-391.5"/>
</g>
<!-- Node10 -->
<g id="node10" class="node">
<title>Node10</title>
<g id="a_node10"><a xlink:href="classdenoptim_1_1gui_1_1_g_u_i_inspect_f_s_e_run.html#aa30815ac9aa8f815fd24c115afaabd62" target="_top" xlink:title="Initialize the panel and add buttons.">
<polygon fill="white" stroke="black" points="566,-335.59 566,-354.59 763,-354.59 763,-335.59 566,-335.59"/>
<text text-anchor="middle" x="664.5" y="-342.59" font-family="Helvetica,sans-Serif" font-size="10.00">denoptim.gui.GUIInspectFSERun.initialize</text>
</a>
</g>
</g>
<!-- Node9&#45;&gt;Node10 -->
<g id="edge10" class="edge">
<title>Node9&#45;&gt;Node10</title>
<path fill="none" stroke="midnightblue" d="M828.13,-387.87C818.3,-385.66 808.41,-383.37 799,-381.09 764.83,-372.79 726.05,-362.2 699.12,-354.66"/>
<polygon fill="midnightblue" stroke="midnightblue" points="827.41,-391.3 837.93,-390.06 828.93,-384.47 827.41,-391.3"/>
</g>
<!-- Node12 -->
<g id="node12" class="node">
<title>Node12</title>
<g id="a_node12"><a xlink:href="classdenoptim_1_1gui_1_1_g_u_i_inspect_g_a_run.html#ad63012fa4fa9bec2e54ce86425039186" target="_top" xlink:title="Initialize the panel and add buttons.">
<polygon fill="white" stroke="black" points="568.5,-460.59 568.5,-479.59 760.5,-479.59 760.5,-460.59 568.5,-460.59"/>
<text text-anchor="middle" x="664.5" y="-467.59" font-family="Helvetica,sans-Serif" font-size="10.00">denoptim.gui.GUIInspectGARun.initialize</text>
</a>
</g>
</g>
<!-- Node9&#45;&gt;Node12 -->
<g id="edge12" class="edge">
<title>Node9&#45;&gt;Node12</title>
<path fill="none" stroke="midnightblue" d="M829.75,-422.46C819.38,-424.91 808.92,-427.49 799,-430.09 763.07,-439.5 722.23,-452.01 695.29,-460.51"/>
<polygon fill="midnightblue" stroke="midnightblue" points="830.71,-425.83 839.65,-420.15 829.12,-419.02 830.71,-425.83"/>
</g>
<!-- Node14 -->
<g id="node14" class="node">
<title>Node14</title>
<g id="a_node14"><a xlink:href="classdenoptim_1_1gui_1_1_main_tool_bar.html#a1a2e06a2647032587d42155302b8c0a6" target="_top" xlink:title="Process a file that has a recognized file format and loads a suitable GUI card to visualize the file ...">
<polygon fill="white" stroke="black" points="581,-395.59 581,-414.59 748,-414.59 748,-395.59 581,-395.59"/>
<text text-anchor="middle" x="664.5" y="-402.59" font-family="Helvetica,sans-Serif" font-size="10.00">denoptim.gui.MainToolBar.openFile</text>
</a>
</g>
</g>
<!-- Node9&#45;&gt;Node14 -->
<g id="edge14" class="edge">
<title>Node9&#45;&gt;Node14</title>
<path fill="none" stroke="midnightblue" d="M810.31,-405.09C789.69,-405.09 768.18,-405.09 748.25,-405.09"/>
<polygon fill="midnightblue" stroke="midnightblue" points="810.35,-408.59 820.35,-405.09 810.35,-401.59 810.35,-408.59"/>
</g>
<!-- Node11 -->
<g id="node11" class="node">
<title>Node11</title>
<g id="a_node11"><a xlink:href="classdenoptim_1_1gui_1_1_g_u_i_inspect_f_s_e_run.html#aa4cc9386cd3e91865c486ba914af789d" target="_top" xlink:title="Constructor.">
<polygon fill="white" stroke="black" points="368,-308.09 368,-338.09 530,-338.09 530,-308.09 368,-308.09"/>
<text text-anchor="start" x="376" y="-326.09" font-family="Helvetica,sans-Serif" font-size="10.00">denoptim.gui.GUIInspectFSERun.</text>
<text text-anchor="middle" x="449" y="-315.09" font-family="Helvetica,sans-Serif" font-size="10.00">GUIInspectFSERun</text>
</a>
</g>
</g>
<!-- Node10&#45;&gt;Node11 -->
<g id="edge11" class="edge">
<title>Node10&#45;&gt;Node11</title>
<path fill="none" stroke="midnightblue" d="M561.15,-334.54C550.74,-333.47 540.27,-332.39 530.15,-331.34"/>
<polygon fill="midnightblue" stroke="midnightblue" points="560.79,-338.02 571.1,-335.56 561.51,-331.06 560.79,-338.02"/>
</g>
<!-- Node13 -->
<g id="node13" class="node">
<title>Node13</title>
<g id="a_node13"><a xlink:href="classdenoptim_1_1gui_1_1_g_u_i_inspect_g_a_run.html#aefffdc97385f7a524badf71808a3053b" target="_top" xlink:title="Constructor.">
<polygon fill="white" stroke="black" points="370,-483.09 370,-513.09 528,-513.09 528,-483.09 370,-483.09"/>
<text text-anchor="start" x="378" y="-501.09" font-family="Helvetica,sans-Serif" font-size="10.00">denoptim.gui.GUIInspectGARun.</text>
<text text-anchor="middle" x="449" y="-490.09" font-family="Helvetica,sans-Serif" font-size="10.00">GUIInspectGARun</text>
</a>
</g>
</g>
<!-- Node12&#45;&gt;Node13 -->
<g id="edge13" class="edge">
<title>Node12&#45;&gt;Node13</title>
<path fill="none" stroke="midnightblue" d="M580.85,-480.92C563.55,-483.19 545.36,-485.58 528.23,-487.83"/>
<polygon fill="midnightblue" stroke="midnightblue" points="581.46,-484.37 590.92,-479.6 580.55,-477.43 581.46,-484.37"/>
</g>
<!-- Node15 -->
<g id="node15" class="node">
<title>Node15</title>
<g id="a_node15"><a xlink:href="classdenoptim_1_1gui_1_1_main_tool_bar.html#a0df9ca063352fbc50f9476f3b2820926" target="_top" xlink:title="Initialize the contents of the tool bar.">
<polygon fill="white" stroke="black" points="167,-417.59 167,-436.59 332,-436.59 332,-417.59 167,-417.59"/>
<text text-anchor="middle" x="249.5" y="-424.59" font-family="Helvetica,sans-Serif" font-size="10.00">denoptim.gui.MainToolBar.initialize</text>
</a>
</g>
</g>
<!-- Node14&#45;&gt;Node15 -->
<g id="edge15" class="edge">
<title>Node14&#45;&gt;Node15</title>
<path fill="none" stroke="midnightblue" d="M570.55,-410.04C498.93,-413.85 400.88,-419.08 332.24,-422.73"/>
<polygon fill="midnightblue" stroke="midnightblue" points="571.12,-413.51 580.92,-409.48 570.74,-406.52 571.12,-413.51"/>
</g>
<!-- Node17 -->
<g id="node17" class="node">
<title>Node17</title>
<g id="a_node17"><a xlink:href="classdenoptim_1_1gui_1_1_g_u_i.html#a460fa99497f04de06d2adf8671a92441" target="_top" xlink:title="Launch the application.">
<polygon fill="white" stroke="black" points="395.5,-357.59 395.5,-376.59 502.5,-376.59 502.5,-357.59 395.5,-357.59"/>
<text text-anchor="middle" x="449" y="-364.59" font-family="Helvetica,sans-Serif" font-size="10.00">denoptim.gui.GUI.run</text>
</a>
</g>
</g>
<!-- Node14&#45;&gt;Node17 -->
<g id="edge17" class="edge">
<title>Node14&#45;&gt;Node17</title>
<path fill="none" stroke="midnightblue" d="M600.03,-393.79C568.95,-388.26 531.98,-381.68 502.51,-376.43"/>
<polygon fill="midnightblue" stroke="midnightblue" points="599.44,-397.24 609.9,-395.55 600.67,-390.35 599.44,-397.24"/>
</g>
<!-- Node18 -->
<g id="node18" class="node">
<title>Node18</title>
<g id="a_node18"><a xlink:href="classdenoptim_1_1gui_1_1_main_tool_bar.html#a94df24e485081c9b9d7441387f409e26" target="_top" xlink:title="Updated the the list of recent files in the &quot;open Recent&quot; menu.">
<polygon fill="white" stroke="black" points="369,-434.09 369,-464.09 529,-464.09 529,-434.09 369,-434.09"/>
<text text-anchor="start" x="377" y="-452.09" font-family="Helvetica,sans-Serif" font-size="10.00">denoptim.gui.MainToolBar.update</text>
<text text-anchor="middle" x="449" y="-441.09" font-family="Helvetica,sans-Serif" font-size="10.00">OpenRecentMenu</text>
</a>
</g>
</g>
<!-- Node14&#45;&gt;Node18 -->
<g id="edge18" class="edge">
<title>Node14&#45;&gt;Node18</title>
<path fill="none" stroke="midnightblue" d="M607.21,-416.69C581.46,-421.99 550.62,-428.35 523.1,-434.02"/>
<polygon fill="midnightblue" stroke="midnightblue" points="608.09,-420.08 617.17,-414.63 606.67,-413.22 608.09,-420.08"/>
</g>
<!-- Node16 -->
<g id="node16" class="node">
<title>Node16</title>
<g id="a_node16"><a xlink:href="classdenoptim_1_1gui_1_1_main_tool_bar.html#a36f4409849998e032342f49b19e6c5b5" target="_top" xlink:title="Constructor that build the tool bar.">
<polygon fill="white" stroke="black" points="0,-412.09 0,-442.09 131,-442.09 131,-412.09 0,-412.09"/>
<text text-anchor="start" x="8" y="-430.09" font-family="Helvetica,sans-Serif" font-size="10.00">denoptim.gui.MainToolBar.</text>
<text text-anchor="middle" x="65.5" y="-419.09" font-family="Helvetica,sans-Serif" font-size="10.00">MainToolBar</text>
</a>
</g>
</g>
<!-- Node15&#45;&gt;Node16 -->
<g id="edge16" class="edge">
<title>Node15&#45;&gt;Node16</title>
<path fill="none" stroke="midnightblue" d="M156.66,-427.09C147.99,-427.09 139.34,-427.09 131,-427.09"/>
<polygon fill="midnightblue" stroke="midnightblue" points="156.82,-430.59 166.82,-427.09 156.82,-423.59 156.82,-430.59"/>
</g>
<!-- Node18&#45;&gt;Node15 -->
<g id="edge19" class="edge">
<title>Node18&#45;&gt;Node15</title>
<path fill="none" stroke="midnightblue" d="M358.59,-439.13C349.83,-438.15 340.97,-437.16 332.29,-436.2"/>
<polygon fill="midnightblue" stroke="midnightblue" points="358.48,-442.64 368.81,-440.26 359.26,-435.68 358.48,-442.64"/>
</g>
<!-- Node19&#45;&gt;Node7 -->
<g id="edge21" class="edge">
<title>Node19&#45;&gt;Node7</title>
<path fill="none" stroke="midnightblue" d="M809.04,-487.18C805.46,-484.8 802.09,-482.12 799,-479.09 749.16,-430.14 789.96,-390.53 763,-326.09 738.09,-266.55 691.38,-203.97 673.1,-180.61"/>
<polygon fill="midnightblue" stroke="midnightblue" points="807.36,-490.25 817.77,-492.2 810.84,-484.18 807.36,-490.25"/>
</g>
<!-- Node22 -->
<g id="node22" class="node">
<title>Node22</title>
<g id="a_node22"><a xlink:href="classdenoptim_1_1gui_1_1_g_u_i_graph_handler.html#af7024886a4203aa93d8cf7975f7c2e72" target="_top" xlink:title=" ">
<polygon fill="white" stroke="black" points="1059,-90.09 1059,-120.09 1240,-120.09 1240,-90.09 1059,-90.09"/>
<text text-anchor="start" x="1067" y="-108.09" font-family="Helvetica,sans-Serif" font-size="10.00">denoptim.gui.GUIGraphHandler.create</text>
<text text-anchor="middle" x="1149.5" y="-97.09" font-family="Helvetica,sans-Serif" font-size="10.00">EmptyVertexAndPlaceItInGraph</text>
</a>
</g>
</g>
<!-- Node21&#45;&gt;Node22 -->
<g id="edge25" class="edge">
<title>Node21&#45;&gt;Node22</title>
<path fill="none" stroke="midnightblue" d="M1293.6,-137.83C1268.48,-132.08 1240.72,-125.73 1216.39,-120.16"/>
<polygon fill="midnightblue" stroke="midnightblue" points="1292.91,-141.27 1303.44,-140.08 1294.48,-134.44 1292.91,-141.27"/>
</g>
<!-- Node23 -->
<g id="node23" class="node">
<title>Node23</title>
<g id="a_node23"><a xlink:href="classdenoptim_1_1gui_1_1_g_u_i_graph_handler.html#a857bfe6291322daccf2af3fd9a28a356" target="_top" xlink:title="Start the construction of a new graph from scratch.">
<polygon fill="white" stroke="black" points="799,-134.09 799,-164.09 1023,-164.09 1023,-134.09 799,-134.09"/>
<text text-anchor="start" x="807" y="-152.09" font-family="Helvetica,sans-Serif" font-size="10.00">denoptim.gui.GUIGraphHandler.start</text>
<text text-anchor="middle" x="911" y="-141.09" font-family="Helvetica,sans-Serif" font-size="10.00">GraphFromFragSpaceOrCreationOfEmptyVertex</text>
</a>
</g>
</g>
<!-- Node21&#45;&gt;Node23 -->
<g id="edge29" class="edge">
<title>Node21&#45;&gt;Node23</title>
<path fill="none" stroke="midnightblue" d="M1265.93,-153.73C1193.63,-152.78 1097.05,-151.52 1023.04,-150.54"/>
<polygon fill="midnightblue" stroke="midnightblue" points="1265.92,-157.23 1275.97,-153.86 1266.02,-150.23 1265.92,-157.23"/>
</g>
<!-- Node22&#45;&gt;Node7 -->
<g id="edge26" class="edge">
<title>Node22&#45;&gt;Node7</title>
<path fill="none" stroke="midnightblue" d="M1048.76,-103.56C978.35,-104.24 882.12,-108.71 799,-125.09 758.35,-133.09 713.19,-150.58 687.19,-161.53"/>
<polygon fill="midnightblue" stroke="midnightblue" points="1048.98,-107.06 1058.96,-103.49 1048.93,-100.06 1048.98,-107.06"/>
</g>
<!-- Node22&#45;&gt;Node23 -->
<g id="edge27" class="edge">
<title>Node22&#45;&gt;Node23</title>
<path fill="none" stroke="midnightblue" d="M1057.72,-121.98C1036.33,-125.95 1013.68,-130.17 992.77,-134.06"/>
<polygon fill="midnightblue" stroke="midnightblue" points="1058.58,-125.37 1067.77,-120.1 1057.3,-118.49 1058.58,-125.37"/>
</g>
<!-- Node23&#45;&gt;Node7 -->
<g id="edge28" class="edge">
<title>Node23&#45;&gt;Node7</title>
<path fill="none" stroke="midnightblue" d="M788.79,-159.99C778.72,-160.9 768.65,-161.8 758.84,-162.69"/>
<polygon fill="midnightblue" stroke="midnightblue" points="789.19,-163.47 798.84,-159.09 788.57,-156.5 789.19,-163.47"/>
</g>
<!-- Node24&#45;&gt;Node5 -->
<g id="edge33" class="edge">
<title>Node24&#45;&gt;Node5</title>
<path fill="none" stroke="midnightblue" d="M1337.09,-246.25C1290.41,-285.98 1205.09,-358.61 1168.23,-389.99"/>
<polygon fill="midnightblue" stroke="midnightblue" points="1339.44,-248.85 1344.78,-239.7 1334.9,-243.52 1339.44,-248.85"/>
</g>
<!-- Node24&#45;&gt;Node7 -->
<g id="edge32" class="edge">
<title>Node24&#45;&gt;Node7</title>
<path fill="none" stroke="midnightblue" d="M1281.14,-213.15C1219.07,-208.96 1133.94,-203.19 1059,-198.09 956.18,-191.08 838.26,-182.98 758.52,-177.49"/>
<polygon fill="midnightblue" stroke="midnightblue" points="1281.07,-216.66 1291.28,-213.84 1281.54,-209.67 1281.07,-216.66"/>
</g>
<!-- Node24&#45;&gt;Node22 -->
<g id="edge31" class="edge">
<title>Node24&#45;&gt;Node22</title>
<path fill="none" stroke="midnightblue" d="M1306.8,-194.44C1296.4,-189.91 1285.81,-185.04 1276,-180.09 1239.07,-161.43 1198.29,-136.12 1173.53,-120.2"/>
<polygon fill="midnightblue" stroke="midnightblue" points="1305.7,-197.78 1316.27,-198.5 1308.46,-191.34 1305.7,-197.78"/>
</g>
<!-- Node24&#45;&gt;Node23 -->
<g id="edge35" class="edge">
<title>Node24&#45;&gt;Node23</title>
<path fill="none" stroke="midnightblue" d="M1281.25,-205.65C1203.73,-193.77 1090.79,-176.47 1010.26,-164.14"/>
<polygon fill="midnightblue" stroke="midnightblue" points="1281.06,-209.16 1291.48,-207.21 1282.12,-202.24 1281.06,-209.16"/>
</g>
<!-- Node24&#45;&gt;Node24 -->
<g id="edge34" class="edge">
<title>Node24&#45;&gt;Node24</title>
<path fill="none" stroke="midnightblue" d="M1407.16,-249.94C1401.64,-254.78 1389.25,-258.09 1370,-258.09 1339.2,-258.09 1325.97,-249.63 1330.3,-239.95"/>
<polygon fill="midnightblue" stroke="midnightblue" points="1410.63,-250.5 1409.7,-239.95 1403.85,-248.78 1410.63,-250.5"/>
</g>
<!-- Node25 -->
<g id="node25" class="node">
<title>Node25</title>
<g id="a_node25"><a xlink:href="classdenoptim_1_1gui_1_1_graph_vertex_mol_viewer_panel.html#a5edf6f6270bf3d180455295bffb57df0" target="_top" xlink:title="Makes a clone of the given vertex and loads that clone into the nested visualization frame.">
<polygon fill="white" stroke="black" points="1072,-253.59 1072,-294.59 1227,-294.59 1227,-253.59 1072,-253.59"/>
<text text-anchor="start" x="1080" y="-282.59" font-family="Helvetica,sans-Serif" font-size="10.00">denoptim.gui.GraphVertex</text>
<text text-anchor="start" x="1080" y="-271.59" font-family="Helvetica,sans-Serif" font-size="10.00">MolViewerPanel.visualizeVertex</text>
<text text-anchor="middle" x="1149.5" y="-260.59" font-family="Helvetica,sans-Serif" font-size="10.00">InNestedViewer</text>
</a>
</g>
</g>
<!-- Node24&#45;&gt;Node25 -->
<g id="edge36" class="edge">
<title>Node24&#45;&gt;Node25</title>
<path fill="none" stroke="midnightblue" d="M1281.47,-241.12C1263.5,-245.64 1244.71,-250.37 1227.17,-254.79"/>
<polygon fill="midnightblue" stroke="midnightblue" points="1282.51,-244.47 1291.35,-238.63 1280.8,-237.68 1282.51,-244.47"/>
</g>
<!-- Node26 -->
<g id="node26" class="node">
<title>Node26</title>
<g id="a_node26"><a xlink:href="classdenoptim_1_1gui_1_1_graph_vertex_mol_viewer_panel.html#abab3007ca39f050b3b9916c4bcc994ca" target="_top" xlink:title="Loads the given graph into the graph viewer.">
<polygon fill="white" stroke="black" points="832.5,-221.59 832.5,-262.59 989.5,-262.59 989.5,-221.59 832.5,-221.59"/>
<text text-anchor="start" x="840.5" y="-250.59" font-family="Helvetica,sans-Serif" font-size="10.00">denoptim.gui.GraphVertex</text>
<text text-anchor="start" x="840.5" y="-239.59" font-family="Helvetica,sans-Serif" font-size="10.00">MolViewerPanel.loadDnGraphTo</text>
<text text-anchor="middle" x="911" y="-228.59" font-family="Helvetica,sans-Serif" font-size="10.00">Viewer</text>
</a>
</g>
</g>
<!-- Node25&#45;&gt;Node26 -->
<g id="edge37" class="edge">
<title>Node25&#45;&gt;Node26</title>
<path fill="none" stroke="midnightblue" d="M1061.72,-262.34C1038.1,-259.15 1012.68,-255.71 989.61,-252.59"/>
<polygon fill="midnightblue" stroke="midnightblue" points="1061.34,-265.82 1071.72,-263.7 1062.27,-258.89 1061.34,-265.82"/>
</g>
<!-- Node27 -->
<g id="node27" class="node">
<title>Node27</title>
<g id="a_node27"><a xlink:href="classdenoptim_1_1gui_1_1_graph_vertex_mol_viewer_panel_1_1_node_clicked_listener.html#a4c7c2b6e03029c1850296cda96c5d6bc" target="_top" xlink:title=" ">
<polygon fill="white" stroke="black" points="802.5,-281.59 802.5,-322.59 1019.5,-322.59 1019.5,-281.59 802.5,-281.59"/>
<text text-anchor="start" x="810.5" y="-310.59" font-family="Helvetica,sans-Serif" font-size="10.00">denoptim.gui.GraphVertex</text>
<text text-anchor="start" x="810.5" y="-299.59" font-family="Helvetica,sans-Serif" font-size="10.00">MolViewerPanel.NodeClickedListener.property</text>
<text text-anchor="middle" x="911" y="-288.59" font-family="Helvetica,sans-Serif" font-size="10.00">Change</text>
</a>
</g>
</g>
<!-- Node25&#45;&gt;Node27 -->
<g id="edge38" class="edge">
<title>Node25&#45;&gt;Node27</title>
<path fill="none" stroke="midnightblue" d="M1061.46,-284.39C1047.89,-286 1033.73,-287.67 1019.76,-289.33"/>
<polygon fill="midnightblue" stroke="midnightblue" points="1062.2,-287.83 1071.72,-283.18 1061.37,-280.88 1062.2,-287.83"/>
</g>
<!-- Node28&#45;&gt;Node7 -->
<g id="edge42" class="edge">
<title>Node28&#45;&gt;Node7</title>
<path fill="none" stroke="midnightblue" d="M1279.53,-85.51C1165.44,-69.08 963.24,-51.53 799,-99.09 751.45,-112.86 701.74,-145.23 678.69,-161.46"/>
<polygon fill="midnightblue" stroke="midnightblue" points="1279.22,-89 1289.62,-87 1280.24,-82.08 1279.22,-89"/>
</g>
<!-- Node28&#45;&gt;Node22 -->
<g id="edge41" class="edge">
<title>Node28&#45;&gt;Node22</title>
<path fill="none" stroke="midnightblue" d="M1279.49,-102.72C1266.51,-102.96 1253.15,-103.21 1240.16,-103.44"/>
<polygon fill="midnightblue" stroke="midnightblue" points="1279.87,-106.22 1289.81,-102.54 1279.75,-99.22 1279.87,-106.22"/>
</g>
<!-- Node30 -->
<g id="node30" class="node">
<title>Node30</title>
<g id="a_node30"><a xlink:href="classdenoptim_1_1gui_1_1_g_u_i_graph_handler.html#ad54901fb2a09953591c971ffc48f3de1" target="_top" xlink:title=" ">
<polygon fill="white" stroke="black" points="1500,-16.09 1500,-46.09 1675,-46.09 1675,-16.09 1500,-16.09"/>
<text text-anchor="start" x="1508" y="-34.09" font-family="Helvetica,sans-Serif" font-size="10.00">denoptim.gui.GUIGraphHandler.save</text>
<text text-anchor="middle" x="1587.5" y="-23.09" font-family="Helvetica,sans-Serif" font-size="10.00">UnsavedChanges</text>
</a>
</g>
</g>
<!-- Node29&#45;&gt;Node30 -->
<g id="edge44" class="edge">
<title>Node29&#45;&gt;Node30</title>
<path fill="none" stroke="midnightblue" d="M1701,-45.57C1692.46,-44.47 1683.82,-43.35 1675.31,-42.26"/>
<polygon fill="midnightblue" stroke="midnightblue" points="1700.59,-49.04 1710.95,-46.85 1701.48,-42.1 1700.59,-49.04"/>
</g>
<!-- Node30&#45;&gt;Node7 -->
<g id="edge45" class="edge">
<title>Node30&#45;&gt;Node7</title>
<path fill="none" stroke="midnightblue" d="M1489.48,-16.61C1336.98,2.1 1034.31,22.71 799,-65.09 743.27,-85.88 692.75,-139.37 673.62,-161.39"/>
<polygon fill="midnightblue" stroke="midnightblue" points="1489.4,-20.13 1499.76,-17.9 1490.27,-13.18 1489.4,-20.13"/>
</g>
</g>
</svg>
        <g id="navigator" transform="translate(0 0)" fill="#404254">
                <rect fill="#f2f5e9" fill-opacity="0.5" stroke="#606060" stroke-width=".5" x="0" y="0" width="60" height="60"/>
                <use id="zoomplus" xlink:href="#zoomPlus" x="17" y="9" onmousedown="handleZoom(evt,'in')"/>
                <use id="zoomminus" xlink:href="#zoomMin" x="42" y="9" onmousedown="handleZoom(evt,'out')"/>
                <use id="reset" xlink:href="#resetDef" x="30" y="36" onmousedown="handleReset()"/>
                <g id="arrowUp" xlink:href="#dirArrow" transform="translate(30 24)" onmousedown="handlePan(0,-1)">
                  <use xlink:href="#rim" fill="#404040">
                        <set attributeName="fill" to="#808080" begin="arrowUp.mouseover" end="arrowUp.mouseout"/>
                  </use>
                  <path fill="none" stroke="white" stroke-width="1.5" d="M0,-3.0v7 M-2.5,-0.5L0,-3.0L2.5,-0.5"/>
                </g>
                <g id="arrowRight" xlink:href="#dirArrow" transform="rotate(90) translate(36 -43)" onmousedown="handlePan(1,0)">
                  <use xlink:href="#rim" fill="#404040">
                        <set attributeName="fill" to="#808080" begin="arrowRight.mouseover" end="arrowRight.mouseout"/>
                  </use>
                  <path fill="none" stroke="white" stroke-width="1.5" d="M0,-3.0v7 M-2.5,-0.5L0,-3.0L2.5,-0.5"/>
                </g>
                <g id="arrowDown" xlink:href="#dirArrow" transform="rotate(180) translate(-30 -48)" onmousedown="handlePan(0,1)">
                  <use xlink:href="#rim" fill="#404040">
                        <set attributeName="fill" to="#808080" begin="arrowDown.mouseover" end="arrowDown.mouseout"/>
                  </use>
                  <path fill="none" stroke="white" stroke-width="1.5" d="M0,-3.0v7 M-2.5,-0.5L0,-3.0L2.5,-0.5"/>
                </g>
                <g id="arrowLeft" xlink:href="#dirArrow" transform="rotate(270) translate(-36 17)" onmousedown="handlePan(-1,0)">
                  <use xlink:href="#rim" fill="#404040">
                        <set attributeName="fill" to="#808080" begin="arrowLeft.mouseover" end="arrowLeft.mouseout"/>
                  </use>
                  <path fill="none" stroke="white" stroke-width="1.5" d="M0,-3.0v7 M-2.5,-0.5L0,-3.0L2.5,-0.5"/>
                </g>
        </g>
        <svg viewBox="0 0 15 15" width="100%" height="30px" preserveAspectRatio="xMaxYMin meet">
         <g id="arrow_out" transform="scale(0.3 0.3)">
          <a xlink:href="classdenoptim_1_1gui_1_1_graph_vertex_mol_viewer_panel_a71ebb2645638b3512d2f4bb137c7d77d_icgraph_org.svg" target="_base">
           <rect id="button" ry="5" rx="5" y="6" x="6" height="38" width="38"
                fill="#f2f5e9" fill-opacity="0.5" stroke="#606060" stroke-width="1.0"/>
           <path id="arrow"
             d="M 11.500037,31.436501 C 11.940474,20.09759 22.043105,11.32322 32.158766,21.979434 L 37.068811,17.246167 C 37.068811,17.246167 37.088388,32 37.088388,32 L 22.160133,31.978069 C 22.160133,31.978069 26.997745,27.140456 26.997745,27.140456 C 18.528582,18.264221 13.291696,25.230495 11.500037,31.436501 z"
             style="fill:#404040;"/>
          </a>
         </g>
        </svg>
</svg>
