<?xml version="1.0" encoding="UTF-8" standalone="no"?>
<!DOCTYPE svg PUBLIC "-//W3C//DTD SVG 1.1//EN"
 "http://www.w3.org/Graphics/SVG/1.1/DTD/svg11.dtd">
<!-- Generated by graphviz version 3.0.0 (20220413.0242)
 -->
<!-- Title: denoptim.gui.GUIInspectGARun.importGARunData Pages: 1 -->
<svg width="807pt" height="831pt"
 viewBox="0.00 0.00 807.00 831.00" xmlns="http://www.w3.org/2000/svg" xmlns:xlink="http://www.w3.org/1999/xlink">
<g id="graph0" class="graph" transform="scale(1 1) rotate(0) translate(4 827)">
<title>denoptim.gui.GUIInspectGARun.importGARunData</title>
<polygon fill="white" stroke="transparent" points="-4,4 -4,-827 803,-827 803,4 -4,4"/>
<!-- Node1 -->
<g id="node1" class="node">
<title>Node1</title>
<g id="a_node1"><a xlink:title=" ">
<polygon fill="#bfbfbf" stroke="black" points="0,-439.5 0,-469.5 185,-469.5 185,-439.5 0,-439.5"/>
<text text-anchor="start" x="8" y="-457.5" font-family="Helvetica,sans-Serif" font-size="10.00">denoptim.gui.GUIInspectGARun.import</text>
<text text-anchor="middle" x="92.5" y="-446.5" font-family="Helvetica,sans-Serif" font-size="10.00">GARunData</text>
</a>
</g>
</g>
<!-- Node2 -->
<g id="node2" class="node">
<title>Node2</title>
<g id="a_node2"><a xlink:href="classdenoptim_1_1gui_1_1_g_u_i_inspect_g_a_run.html#a3f8fe730afa2012143c6365e7a9d79cc" target="_top" xlink:title="Modal dialog to display visual examples of line colors and strokes.">
<polygon fill="white" stroke="black" points="224.5,-712.5 224.5,-742.5 402.5,-742.5 402.5,-712.5 224.5,-712.5"/>
<text text-anchor="start" x="232.5" y="-730.5" font-family="Helvetica,sans-Serif" font-size="10.00">denoptim.gui.GUIInspectGARun.build</text>
<text text-anchor="middle" x="313.5" y="-719.5" font-family="Helvetica,sans-Serif" font-size="10.00">AndFillMonitorPlot</text>
</a>
</g>
</g>
<!-- Node1&#45;&gt;Node2 -->
<g id="edge1" class="edge">
<title>Node1&#45;&gt;Node2</title>
<path fill="none" stroke="midnightblue" d="M96.67,-469.54C106.64,-512.98 141.51,-639.6 221,-703.5 222.58,-704.77 224.23,-705.98 225.92,-707.12"/>
<polygon fill="midnightblue" stroke="midnightblue" points="224.39,-710.28 234.79,-712.32 227.93,-704.24 224.39,-710.28"/>
</g>
<!-- Node7 -->
<g id="node7" class="node">
<title>Node7</title>
<g id="a_node7"><a xlink:href="classdenoptim_1_1gui_1_1_g_u_i_inspect_g_a_run.html#afe7e7a12c08dba4f2ecb97274064d35b" target="_top" xlink:title=" ">
<polygon fill="white" stroke="black" points="221.5,-565.5 221.5,-595.5 405.5,-595.5 405.5,-565.5 221.5,-565.5"/>
<text text-anchor="start" x="229.5" y="-583.5" font-family="Helvetica,sans-Serif" font-size="10.00">denoptim.gui.GUIInspectGARun.chose</text>
<text text-anchor="middle" x="313.5" y="-572.5" font-family="Helvetica,sans-Serif" font-size="10.00">AmongPossiblyOverlapping</text>
</a>
</g>
</g>
<!-- Node1&#45;&gt;Node7 -->
<g id="edge7" class="edge">
<title>Node1&#45;&gt;Node7</title>
<path fill="none" stroke="midnightblue" d="M110.01,-469.8C133.22,-490.6 177.52,-527.8 221,-550.5 229.16,-554.76 238.05,-558.58 246.97,-561.94"/>
<polygon fill="midnightblue" stroke="midnightblue" points="246.03,-565.33 256.63,-565.42 248.4,-558.74 246.03,-565.33"/>
</g>
<!-- Node8 -->
<g id="node8" class="node">
<title>Node8</title>
<g id="a_node8"><a xlink:href="classdenoptim_1_1graph_1_1_candidate_l_w.html#a95069843e337d5e85a5434aceb8e9c42" target="_top" xlink:title=" ">
<polygon fill="white" stroke="black" points="468,-483.5 468,-513.5 596,-513.5 596,-483.5 468,-483.5"/>
<text text-anchor="start" x="476" y="-501.5" font-family="Helvetica,sans-Serif" font-size="10.00">denoptim.graph.Candidate</text>
<text text-anchor="middle" x="532" y="-490.5" font-family="Helvetica,sans-Serif" font-size="10.00">LW.getFitness</text>
</a>
</g>
</g>
<!-- Node1&#45;&gt;Node8 -->
<g id="edge8" class="edge">
<title>Node1&#45;&gt;Node8</title>
<path fill="none" stroke="midnightblue" d="M161.38,-469.54C180.57,-473.32 201.53,-477.01 221,-479.5 301.55,-489.82 394.63,-494.57 457.6,-496.74"/>
<polygon fill="midnightblue" stroke="midnightblue" points="457.72,-500.24 467.83,-497.08 457.96,-493.25 457.72,-500.24"/>
</g>
<!-- Node9 -->
<g id="node9" class="node">
<title>Node9</title>
<g id="a_node9"><a xlink:href="classdenoptim_1_1graph_1_1_candidate_l_w.html#ae0d754f27cb1396b28fadfa6e1cfcd92" target="_top" xlink:title=" ">
<polygon fill="white" stroke="black" points="468,-532.5 468,-562.5 596,-562.5 596,-532.5 468,-532.5"/>
<text text-anchor="start" x="476" y="-550.5" font-family="Helvetica,sans-Serif" font-size="10.00">denoptim.graph.Candidate</text>
<text text-anchor="middle" x="532" y="-539.5" font-family="Helvetica,sans-Serif" font-size="10.00">LW.getGeneration</text>
</a>
</g>
</g>
<!-- Node1&#45;&gt;Node9 -->
<g id="edge9" class="edge">
<title>Node1&#45;&gt;Node9</title>
<path fill="none" stroke="midnightblue" d="M129.18,-469.5C154.43,-479.59 189.29,-492.46 221,-500.5 300.72,-520.72 394.32,-533.44 457.65,-540.48"/>
<polygon fill="midnightblue" stroke="midnightblue" points="457.62,-543.99 467.94,-541.6 458.38,-537.03 457.62,-543.99"/>
</g>
<!-- Node10 -->
<g id="node10" class="node">
<title>Node10</title>
<g id="a_node10"><a xlink:href="classdenoptim_1_1gui_1_1_g_u_i_inspect_g_a_run.html#a9a5cf8d6ae31378ae37fcfb3031c567e" target="_top" xlink:title=" ">
<polygon fill="white" stroke="black" points="228,-439.5 228,-469.5 399,-469.5 399,-439.5 228,-439.5"/>
<text text-anchor="start" x="236" y="-457.5" font-family="Helvetica,sans-Serif" font-size="10.00">denoptim.gui.GUIInspectGARun.get</text>
<text text-anchor="middle" x="313.5" y="-446.5" font-family="Helvetica,sans-Serif" font-size="10.00">OverlappingItems</text>
</a>
</g>
</g>
<!-- Node1&#45;&gt;Node10 -->
<g id="edge10" class="edge">
<title>Node1&#45;&gt;Node10</title>
<path fill="none" stroke="midnightblue" d="M185.11,-454.5C195.85,-454.5 206.84,-454.5 217.63,-454.5"/>
<polygon fill="midnightblue" stroke="midnightblue" points="217.9,-458 227.9,-454.5 217.9,-451 217.9,-458"/>
</g>
<!-- Node11 -->
<g id="node11" class="node">
<title>Node11</title>
<g id="a_node11"><a xlink:href="classdenoptim_1_1graph_1_1_candidate_l_w.html#a015435de7c18b38757709c97bd46f10d" target="_top" xlink:title=" ">
<polygon fill="white" stroke="black" points="468,-318.5 468,-348.5 596,-348.5 596,-318.5 468,-318.5"/>
<text text-anchor="start" x="476" y="-336.5" font-family="Helvetica,sans-Serif" font-size="10.00">denoptim.graph.Candidate</text>
<text text-anchor="middle" x="532" y="-325.5" font-family="Helvetica,sans-Serif" font-size="10.00">LW.hasFitness</text>
</a>
</g>
</g>
<!-- Node1&#45;&gt;Node11 -->
<g id="edge15" class="edge">
<title>Node1&#45;&gt;Node11</title>
<path fill="none" stroke="midnightblue" d="M114.44,-439.27C138.79,-422.35 180.8,-395.58 221,-381.5 263.43,-366.64 380.05,-350.99 457.53,-341.74"/>
<polygon fill="midnightblue" stroke="midnightblue" points="458.2,-345.19 467.72,-340.53 457.38,-338.23 458.2,-345.19"/>
</g>
<!-- Node12 -->
<g id="node12" class="node">
<title>Node12</title>
<g id="a_node12"><a xlink:href="classdenoptim_1_1utils_1_1_general_utils.html#ab0c97460520e98fa670681d851754703" target="_top" xlink:title="returns the padded string with zeroes placed to the left of &#39;number&#39; up to reach the desired number o...">
<polygon fill="white" stroke="black" points="239,-302.5 239,-332.5 388,-332.5 388,-302.5 239,-302.5"/>
<text text-anchor="start" x="247" y="-320.5" font-family="Helvetica,sans-Serif" font-size="10.00">denoptim.utils.GeneralUtils.get</text>
<text text-anchor="middle" x="313.5" y="-309.5" font-family="Helvetica,sans-Serif" font-size="10.00">PaddedString</text>
</a>
</g>
</g>
<!-- Node1&#45;&gt;Node12 -->
<g id="edge14" class="edge">
<title>Node1&#45;&gt;Node12</title>
<path fill="none" stroke="midnightblue" d="M107.78,-439.25C129.98,-416.36 175.04,-373.06 221,-347.5 228.64,-343.25 236.98,-339.48 245.42,-336.18"/>
<polygon fill="midnightblue" stroke="midnightblue" points="246.79,-339.41 254.95,-332.65 244.35,-332.84 246.79,-339.41"/>
</g>
<!-- Node13 -->
<g id="node13" class="node">
<title>Node13</title>
<g id="a_node13"><a xlink:href="classdenoptim_1_1io_1_1_denoptim_i_o.html#aab1bd788e028b3a5b77dca355e8d557b" target="_top" xlink:title="Read only selected data from a GA produced items.">
<polygon fill="white" stroke="black" points="243,-220.5 243,-250.5 384,-250.5 384,-220.5 243,-220.5"/>
<text text-anchor="start" x="251" y="-238.5" font-family="Helvetica,sans-Serif" font-size="10.00">denoptim.io.DenoptimIO.read</text>
<text text-anchor="middle" x="313.5" y="-227.5" font-family="Helvetica,sans-Serif" font-size="10.00">LightWeightCandidate</text>
</a>
</g>
</g>
<!-- Node1&#45;&gt;Node13 -->
<g id="edge16" class="edge">
<title>Node1&#45;&gt;Node13</title>
<path fill="none" stroke="midnightblue" d="M102.97,-439.36C122.4,-409.08 169.33,-340.02 221,-293.5 237.19,-278.93 257.46,-265.67 274.8,-255.52"/>
<polygon fill="midnightblue" stroke="midnightblue" points="276.62,-258.51 283.56,-250.5 273.15,-252.43 276.62,-258.51"/>
</g>
<!-- Node20 -->
<g id="node20" class="node">
<title>Node20</title>
<g id="a_node20"><a xlink:href="classdenoptim_1_1io_1_1_denoptim_i_o.html#a2cda5028becae07d4a0ac873a9352768" target="_top" xlink:title="Read the pathnames to the population members from a FileFormat#GENSUMMARY file.">
<polygon fill="white" stroke="black" points="240,-614.5 240,-644.5 387,-644.5 387,-614.5 240,-614.5"/>
<text text-anchor="start" x="248" y="-632.5" font-family="Helvetica,sans-Serif" font-size="10.00">denoptim.io.DenoptimIO.read</text>
<text text-anchor="middle" x="313.5" y="-621.5" font-family="Helvetica,sans-Serif" font-size="10.00">PopulationMemberPathnames</text>
</a>
</g>
</g>
<!-- Node1&#45;&gt;Node20 -->
<g id="edge23" class="edge">
<title>Node1&#45;&gt;Node20</title>
<path fill="none" stroke="midnightblue" d="M101.86,-469.58C119.61,-500.16 164.13,-569.6 221,-605.5 224.01,-607.4 227.16,-609.15 230.41,-610.76"/>
<polygon fill="midnightblue" stroke="midnightblue" points="229.25,-614.07 239.81,-614.94 232.1,-607.68 229.25,-614.07"/>
</g>
<!-- Node21 -->
<g id="node21" class="node">
<title>Node21</title>
<g id="a_node21"><a xlink:href="classdenoptim_1_1io_1_1_denoptim_i_o.html#a888315451366a81a41786fe6aea46d46" target="_top" xlink:title="Read the min, max, mean, and median of a population from FileFormat#GENSUMMARY file.">
<polygon fill="white" stroke="black" points="243,-663.5 243,-693.5 384,-693.5 384,-663.5 243,-663.5"/>
<text text-anchor="start" x="251" y="-681.5" font-family="Helvetica,sans-Serif" font-size="10.00">denoptim.io.DenoptimIO.read</text>
<text text-anchor="middle" x="313.5" y="-670.5" font-family="Helvetica,sans-Serif" font-size="10.00">PopulationProps</text>
</a>
</g>
</g>
<!-- Node1&#45;&gt;Node21 -->
<g id="edge25" class="edge">
<title>Node1&#45;&gt;Node21</title>
<path fill="none" stroke="midnightblue" d="M98.64,-469.5C112.26,-506.92 152.95,-604.9 221,-654.5 224.94,-657.37 229.2,-659.9 233.64,-662.13"/>
<polygon fill="midnightblue" stroke="midnightblue" points="232.44,-665.42 243,-666.29 235.28,-659.02 232.44,-665.42"/>
</g>
<!-- Node22 -->
<g id="node22" class="node">
<title>Node22</title>
<g id="a_node22"><a xlink:href="classdenoptim_1_1gui_1_1_g_u_i_inspect_g_a_run.html#a2b7d3fce2af7d87f440dc68c574da8b1" target="_top" xlink:title=" ">
<polygon fill="white" stroke="black" points="221,-171.5 221,-201.5 406,-201.5 406,-171.5 221,-171.5"/>
<text text-anchor="start" x="229" y="-189.5" font-family="Helvetica,sans-Serif" font-size="10.00">denoptim.gui.GUIInspectGARun.render</text>
<text text-anchor="middle" x="313.5" y="-178.5" font-family="Helvetica,sans-Serif" font-size="10.00">ViewWithoutSelectedItems</text>
</a>
</g>
</g>
<!-- Node1&#45;&gt;Node22 -->
<g id="edge27" class="edge">
<title>Node1&#45;&gt;Node22</title>
<path fill="none" stroke="midnightblue" d="M96.97,-439.24C107.52,-396.37 143.4,-273.89 221,-211.5 223.08,-209.83 225.26,-208.27 227.52,-206.82"/>
<polygon fill="midnightblue" stroke="midnightblue" points="229.61,-209.66 236.61,-201.7 226.18,-203.56 229.61,-209.66"/>
</g>
<!-- Node26 -->
<g id="node26" class="node">
<title>Node26</title>
<g id="a_node26"><a xlink:href="classdenoptim_1_1gui_1_1_g_u_i_inspect_g_a_run.html#a4eab97fdfc9d8117177459e50180ee67" target="_top" xlink:title=" ">
<polygon fill="white" stroke="black" points="221,-390.5 221,-420.5 406,-420.5 406,-390.5 221,-390.5"/>
<text text-anchor="start" x="229" y="-408.5" font-family="Helvetica,sans-Serif" font-size="10.00">denoptim.gui.GUIInspectGARun.render</text>
<text text-anchor="middle" x="313.5" y="-397.5" font-family="Helvetica,sans-Serif" font-size="10.00">ViewWithSelectedItem</text>
</a>
</g>
</g>
<!-- Node1&#45;&gt;Node26 -->
<g id="edge31" class="edge">
<title>Node1&#45;&gt;Node26</title>
<path fill="none" stroke="midnightblue" d="M160.7,-439.47C184.34,-434.17 211.1,-428.19 235.5,-422.73"/>
<polygon fill="midnightblue" stroke="midnightblue" points="236.44,-426.11 245.43,-420.51 234.91,-419.27 236.44,-426.11"/>
</g>
<!-- Node29 -->
<g id="node29" class="node">
<title>Node29</title>
<g id="a_node29"><a xlink:href="classdenoptim_1_1graph_1_1_candidate_l_w.html#abeb30140b862fc08d90bdd6d2290b9b6" target="_top" xlink:title=" ">
<polygon fill="white" stroke="black" points="249.5,-122.5 249.5,-152.5 377.5,-152.5 377.5,-122.5 249.5,-122.5"/>
<text text-anchor="start" x="257.5" y="-140.5" font-family="Helvetica,sans-Serif" font-size="10.00">denoptim.graph.Candidate</text>
<text text-anchor="middle" x="313.5" y="-129.5" font-family="Helvetica,sans-Serif" font-size="10.00">LW.setGeneration</text>
</a>
</g>
</g>
<!-- Node1&#45;&gt;Node29 -->
<g id="edge37" class="edge">
<title>Node1&#45;&gt;Node29</title>
<path fill="none" stroke="midnightblue" d="M95.49,-439.42C102.66,-391.24 131.66,-239.74 221,-162.5 226.57,-157.69 232.98,-153.79 239.77,-150.64"/>
<polygon fill="midnightblue" stroke="midnightblue" points="241.28,-153.81 249.22,-146.79 238.64,-147.32 241.28,-153.81"/>
</g>
<!-- Node3 -->
<g id="node3" class="node">
<title>Node3</title>
<g id="a_node3"><a xlink:href="classdenoptim_1_1gui_1_1_scrollable_j_pupup_menu.html#abed0c4ce1f87a5be689f05d377ff9848" target="_top" xlink:title="Add a check box to the list of check boxes to display in the menu.">
<polygon fill="white" stroke="black" points="457.5,-792.5 457.5,-822.5 606.5,-822.5 606.5,-792.5 457.5,-792.5"/>
<text text-anchor="start" x="465.5" y="-810.5" font-family="Helvetica,sans-Serif" font-size="10.00">denoptim.gui.ScrollableJPupup</text>
<text text-anchor="middle" x="532" y="-799.5" font-family="Helvetica,sans-Serif" font-size="10.00">Menu.addCheckBox</text>
</a>
</g>
</g>
<!-- Node2&#45;&gt;Node3 -->
<g id="edge2" class="edge">
<title>Node2&#45;&gt;Node3</title>
<path fill="none" stroke="midnightblue" d="M345.15,-742.52C370.66,-754.64 408.14,-771.57 442,-783.5 447.94,-785.59 454.16,-787.61 460.44,-789.53"/>
<polygon fill="midnightblue" stroke="midnightblue" points="459.72,-792.96 470.3,-792.45 461.71,-786.25 459.72,-792.96"/>
</g>
<!-- Node4 -->
<g id="node4" class="node">
<title>Node4</title>
<g id="a_node4"><a xlink:href="enumdenoptim_1_1logging_1_1_counter_i_d.html#a9e7a6825141da490fbb146db05242ca4" target="_top" xlink:title=" ">
<polygon fill="white" stroke="black" points="469.5,-743.5 469.5,-773.5 594.5,-773.5 594.5,-743.5 469.5,-743.5"/>
<text text-anchor="start" x="477.5" y="-761.5" font-family="Helvetica,sans-Serif" font-size="10.00">denoptim.logging.Counter</text>
<text text-anchor="middle" x="532" y="-750.5" font-family="Helvetica,sans-Serif" font-size="10.00">ID.getDescription</text>
</a>
</g>
</g>
<!-- Node2&#45;&gt;Node4 -->
<g id="edge3" class="edge">
<title>Node2&#45;&gt;Node4</title>
<path fill="none" stroke="midnightblue" d="M402.56,-740.11C421.43,-742.81 441.14,-745.63 459.3,-748.23"/>
<polygon fill="midnightblue" stroke="midnightblue" points="458.82,-751.7 469.21,-749.65 459.81,-744.77 458.82,-751.7"/>
</g>
<!-- Node5 -->
<g id="node5" class="node">
<title>Node5</title>
<g id="a_node5"><a xlink:href="enumdenoptim_1_1logging_1_1_counter_i_d.html#a63a44b7afb772b979182aa0eb83ea1ac" target="_top" xlink:title="Returns a string representing the mane of this counter in a way that is pretty enough to be shown in ...">
<polygon fill="white" stroke="black" points="469.5,-694.5 469.5,-724.5 594.5,-724.5 594.5,-694.5 469.5,-694.5"/>
<text text-anchor="start" x="477.5" y="-712.5" font-family="Helvetica,sans-Serif" font-size="10.00">denoptim.logging.Counter</text>
<text text-anchor="middle" x="532" y="-701.5" font-family="Helvetica,sans-Serif" font-size="10.00">ID.getPrettyName</text>
</a>
</g>
</g>
<!-- Node2&#45;&gt;Node5 -->
<g id="edge4" class="edge">
<title>Node2&#45;&gt;Node5</title>
<path fill="none" stroke="midnightblue" d="M402.56,-720.18C421.34,-718.62 440.96,-716.99 459.05,-715.48"/>
<polygon fill="midnightblue" stroke="midnightblue" points="459.54,-718.95 469.21,-714.64 458.96,-711.98 459.54,-718.95"/>
</g>
<!-- Node6 -->
<g id="node6" class="node">
<title>Node6</title>
<g id="a_node6"><a xlink:href="classdenoptim_1_1io_1_1_denoptim_i_o.html#ad5bee53baea572e1d76f8dd0bf3ddd76" target="_top" xlink:title="Read list of data as text.">
<polygon fill="white" stroke="black" points="453,-638 453,-657 611,-657 611,-638 453,-638"/>
<text text-anchor="middle" x="532" y="-645" font-family="Helvetica,sans-Serif" font-size="10.00">denoptim.io.DenoptimIO.readList</text>
</a>
</g>
</g>
<!-- Node2&#45;&gt;Node6 -->
<g id="edge5" class="edge">
<title>Node2&#45;&gt;Node6</title>
<path fill="none" stroke="midnightblue" d="M379.02,-712.38C388.17,-709.71 397.39,-706.74 406,-703.5 422.74,-697.2 425.77,-693.02 442,-685.5 460.35,-677 481.12,-668.1 497.98,-661.04"/>
<polygon fill="midnightblue" stroke="midnightblue" points="499.52,-664.19 507.41,-657.12 496.83,-657.73 499.52,-664.19"/>
</g>
<!-- Node6&#45;&gt;Node6 -->
<g id="edge6" class="edge">
<title>Node6&#45;&gt;Node6</title>
<path fill="none" stroke="midnightblue" d="M501.79,-657.26C487.09,-666.07 497.16,-675.5 532,-675.5 556.49,-675.5 568.74,-670.84 568.75,-665"/>
<polygon fill="midnightblue" stroke="midnightblue" points="571.33,-662.64 562.21,-657.26 565.99,-667.16 571.33,-662.64"/>
</g>
<!-- Node10&#45;&gt;Node8 -->
<g id="edge11" class="edge">
<title>Node10&#45;&gt;Node8</title>
<path fill="none" stroke="midnightblue" d="M388.4,-469.52C410.92,-474.1 435.64,-479.12 458.09,-483.68"/>
<polygon fill="midnightblue" stroke="midnightblue" points="457.4,-487.11 467.89,-485.67 458.79,-480.25 457.4,-487.11"/>
</g>
<!-- Node10&#45;&gt;Node9 -->
<g id="edge12" class="edge">
<title>Node10&#45;&gt;Node9</title>
<path fill="none" stroke="midnightblue" d="M338.59,-469.75C363.64,-485.06 404.36,-508.48 442,-523.5 447.11,-525.54 452.45,-527.46 457.87,-529.27"/>
<polygon fill="midnightblue" stroke="midnightblue" points="457.09,-532.69 467.68,-532.38 459.21,-526.02 457.09,-532.69"/>
</g>
<!-- Node10&#45;&gt;Node11 -->
<g id="edge13" class="edge">
<title>Node10&#45;&gt;Node11</title>
<path fill="none" stroke="midnightblue" d="M392.25,-439.37C397.15,-436.85 401.79,-433.92 406,-430.5 433.78,-407.95 414.42,-381.29 442,-358.5 446.95,-354.41 452.53,-350.98 458.42,-348.12"/>
<polygon fill="midnightblue" stroke="midnightblue" points="460.08,-351.22 467.89,-344.06 457.32,-344.79 460.08,-351.22"/>
</g>
<!-- Node14 -->
<g id="node14" class="node">
<title>Node14</title>
<g id="a_node14"><a xlink:href="classdenoptim_1_1io_1_1_denoptim_i_o.html#ab0e2d1314d9babeda94e65c471832df1" target="_top" xlink:title="Extract selected properties from SDF files.">
<polygon fill="white" stroke="black" points="461.5,-269.5 461.5,-299.5 602.5,-299.5 602.5,-269.5 461.5,-269.5"/>
<text text-anchor="start" x="469.5" y="-287.5" font-family="Helvetica,sans-Serif" font-size="10.00">denoptim.io.DenoptimIO.read</text>
<text text-anchor="middle" x="532" y="-276.5" font-family="Helvetica,sans-Serif" font-size="10.00">SDFProperties</text>
</a>
</g>
</g>
<!-- Node13&#45;&gt;Node14 -->
<g id="edge17" class="edge">
<title>Node13&#45;&gt;Node14</title>
<path fill="none" stroke="midnightblue" d="M380.93,-250.53C404.31,-255.83 430.76,-261.81 454.88,-267.27"/>
<polygon fill="midnightblue" stroke="midnightblue" points="454.17,-270.7 464.7,-269.49 455.72,-263.87 454.17,-270.7"/>
</g>
<!-- Node16 -->
<g id="node16" class="node">
<title>Node16</title>
<g id="a_node16"><a xlink:href="classdenoptim_1_1graph_1_1_candidate_l_w.html#a5b0854960a04b31ce12b5d0bdbcfbad6" target="_top" xlink:title=" ">
<polygon fill="white" stroke="black" points="468,-220.5 468,-250.5 596,-250.5 596,-220.5 468,-220.5"/>
<text text-anchor="start" x="476" y="-238.5" font-family="Helvetica,sans-Serif" font-size="10.00">denoptim.graph.Candidate</text>
<text text-anchor="middle" x="532" y="-227.5" font-family="Helvetica,sans-Serif" font-size="10.00">LW.setError</text>
</a>
</g>
</g>
<!-- Node13&#45;&gt;Node16 -->
<g id="edge19" class="edge">
<title>Node13&#45;&gt;Node16</title>
<path fill="none" stroke="midnightblue" d="M384.19,-235.5C407.66,-235.5 433.92,-235.5 457.66,-235.5"/>
<polygon fill="midnightblue" stroke="midnightblue" points="457.67,-239 467.67,-235.5 457.67,-232 457.67,-239"/>
</g>
<!-- Node17 -->
<g id="node17" class="node">
<title>Node17</title>
<g id="a_node17"><a xlink:href="classdenoptim_1_1graph_1_1_candidate_l_w.html#a382d6d04e131453c7c4736de583ea996" target="_top" xlink:title=" ">
<polygon fill="white" stroke="black" points="468,-171.5 468,-201.5 596,-201.5 596,-171.5 468,-171.5"/>
<text text-anchor="start" x="476" y="-189.5" font-family="Helvetica,sans-Serif" font-size="10.00">denoptim.graph.Candidate</text>
<text text-anchor="middle" x="532" y="-178.5" font-family="Helvetica,sans-Serif" font-size="10.00">LW.setFitness</text>
</a>
</g>
</g>
<!-- Node13&#45;&gt;Node17 -->
<g id="edge20" class="edge">
<title>Node13&#45;&gt;Node17</title>
<path fill="none" stroke="midnightblue" d="M380.93,-220.47C405.29,-214.95 432.99,-208.68 457.9,-203.04"/>
<polygon fill="midnightblue" stroke="midnightblue" points="458.68,-206.46 467.66,-200.84 457.14,-199.63 458.68,-206.46"/>
</g>
<!-- Node18 -->
<g id="node18" class="node">
<title>Node18</title>
<g id="a_node18"><a xlink:href="classdenoptim_1_1graph_1_1_candidate_l_w.html#aa375e204e094848126768561901a32e4" target="_top" xlink:title=" ">
<polygon fill="white" stroke="black" points="468,-122.5 468,-152.5 596,-152.5 596,-122.5 468,-122.5"/>
<text text-anchor="start" x="476" y="-140.5" font-family="Helvetica,sans-Serif" font-size="10.00">denoptim.graph.Candidate</text>
<text text-anchor="middle" x="532" y="-129.5" font-family="Helvetica,sans-Serif" font-size="10.00">LW.setGeneratingSource</text>
</a>
</g>
</g>
<!-- Node13&#45;&gt;Node18 -->
<g id="edge21" class="edge">
<title>Node13&#45;&gt;Node18</title>
<path fill="none" stroke="midnightblue" d="M384.17,-222.67C391.88,-219.69 399.34,-216.02 406,-211.5 428.35,-196.31 419.78,-177.88 442,-162.5 447.11,-158.96 452.71,-155.92 458.53,-153.31"/>
<polygon fill="midnightblue" stroke="midnightblue" points="459.88,-156.55 467.83,-149.55 457.25,-150.06 459.88,-156.55"/>
</g>
<!-- Node19 -->
<g id="node19" class="node">
<title>Node19</title>
<g id="a_node19"><a xlink:href="classdenoptim_1_1graph_1_1_candidate_l_w.html#a7458628d4e902ca60749a5986a14ecc0" target="_top" xlink:title="Sets level that generated this graph in a fragment space exploration experiment.">
<polygon fill="white" stroke="black" points="468,-73.5 468,-103.5 596,-103.5 596,-73.5 468,-73.5"/>
<text text-anchor="start" x="476" y="-91.5" font-family="Helvetica,sans-Serif" font-size="10.00">denoptim.graph.Candidate</text>
<text text-anchor="middle" x="532" y="-80.5" font-family="Helvetica,sans-Serif" font-size="10.00">LW.setLevel</text>
</a>
</g>
</g>
<!-- Node13&#45;&gt;Node19 -->
<g id="edge22" class="edge">
<title>Node13&#45;&gt;Node19</title>
<path fill="none" stroke="midnightblue" d="M384.19,-225.03C392.17,-221.66 399.69,-217.25 406,-211.5 440.6,-179.96 407.51,-144.16 442,-112.5 446.8,-108.1 452.32,-104.49 458.21,-101.53"/>
<polygon fill="midnightblue" stroke="midnightblue" points="459.95,-104.59 467.72,-97.4 457.16,-98.17 459.95,-104.59"/>
</g>
<!-- Node15 -->
<g id="node15" class="node">
<title>Node15</title>
<g id="a_node15"><a xlink:href="classdenoptim_1_1io_1_1_denoptim_i_o.html#a48102bb79e9cc581e8c6ef527e003b08" target="_top" xlink:title="Reads a file containing multiple molecules (multiple SD format))">
<polygon fill="white" stroke="black" points="658,-269.5 658,-299.5 799,-299.5 799,-269.5 658,-269.5"/>
<text text-anchor="start" x="666" y="-287.5" font-family="Helvetica,sans-Serif" font-size="10.00">denoptim.io.DenoptimIO.read</text>
<text text-anchor="middle" x="728.5" y="-276.5" font-family="Helvetica,sans-Serif" font-size="10.00">SDFFile</text>
</a>
</g>
</g>
<!-- Node14&#45;&gt;Node15 -->
<g id="edge18" class="edge">
<title>Node14&#45;&gt;Node15</title>
<path fill="none" stroke="midnightblue" d="M602.67,-284.5C617.28,-284.5 632.8,-284.5 647.75,-284.5"/>
<polygon fill="midnightblue" stroke="midnightblue" points="647.99,-288 657.99,-284.5 647.99,-281 647.99,-288"/>
</g>
<!-- Node20&#45;&gt;Node6 -->
<g id="edge24" class="edge">
<title>Node20&#45;&gt;Node6</title>
<path fill="none" stroke="midnightblue" d="M387.19,-635.54C405.02,-637.03 424.3,-638.63 442.77,-640.16"/>
<polygon fill="midnightblue" stroke="midnightblue" points="442.67,-643.67 452.93,-641.01 443.25,-636.69 442.67,-643.67"/>
</g>
<!-- Node21&#45;&gt;Node6 -->
<g id="edge26" class="edge">
<title>Node21&#45;&gt;Node6</title>
<path fill="none" stroke="midnightblue" d="M384.19,-668.52C406.59,-665.31 431.52,-661.74 454.39,-658.47"/>
<polygon fill="midnightblue" stroke="midnightblue" points="454.98,-661.92 464.39,-657.04 453.99,-654.99 454.98,-661.92"/>
</g>
<!-- Node23 -->
<g id="node23" class="node">
<title>Node23</title>
<g id="a_node23"><a xlink:href="classdenoptim_1_1gui_1_1_molecule_view_panel.html#a700b2ae92d1de1c0be3e1bbde5cae71d" target="_top" xlink:title="Removes the currently visualized molecule and AP table.">
<polygon fill="white" stroke="black" points="465,-24.5 465,-54.5 599,-54.5 599,-24.5 465,-24.5"/>
<text text-anchor="start" x="473" y="-42.5" font-family="Helvetica,sans-Serif" font-size="10.00">denoptim.gui.MoleculeView</text>
<text text-anchor="middle" x="532" y="-31.5" font-family="Helvetica,sans-Serif" font-size="10.00">Panel.clearAll</text>
</a>
</g>
</g>
<!-- Node22&#45;&gt;Node23 -->
<g id="edge28" class="edge">
<title>Node22&#45;&gt;Node23</title>
<path fill="none" stroke="midnightblue" d="M393.58,-171.42C398.05,-168.88 402.24,-165.93 406,-162.5 440.6,-130.96 407.51,-95.16 442,-63.5 446.05,-59.78 450.62,-56.63 455.49,-53.95"/>
<polygon fill="midnightblue" stroke="midnightblue" points="457.02,-57.1 464.55,-49.64 454.02,-50.78 457.02,-57.1"/>
</g>
<!-- Node24 -->
<g id="node24" class="node">
<title>Node24</title>
<g id="a_node24"><a xlink:href="classdenoptim_1_1gui_1_1_molecule_view_panel.html#a0917c33381934f156d4196b46819276b" target="_top" xlink:title="Clears the table of attachment points.">
<polygon fill="white" stroke="black" points="661.5,-0.5 661.5,-30.5 795.5,-30.5 795.5,-0.5 661.5,-0.5"/>
<text text-anchor="start" x="669.5" y="-18.5" font-family="Helvetica,sans-Serif" font-size="10.00">denoptim.gui.MoleculeView</text>
<text text-anchor="middle" x="728.5" y="-7.5" font-family="Helvetica,sans-Serif" font-size="10.00">Panel.cleardataTable</text>
</a>
</g>
</g>
<!-- Node23&#45;&gt;Node24 -->
<g id="edge29" class="edge">
<title>Node23&#45;&gt;Node24</title>
<path fill="none" stroke="midnightblue" d="M599.12,-31.34C615.88,-29.27 634.01,-27.04 651.22,-24.91"/>
<polygon fill="midnightblue" stroke="midnightblue" points="651.74,-28.38 661.23,-23.68 650.88,-21.43 651.74,-28.38"/>
</g>
<!-- Node25 -->
<g id="node25" class="node">
<title>Node25</title>
<g id="a_node25"><a xlink:href="classdenoptim_1_1gui_1_1_molecule_view_panel.html#a20eef80a872503d11d3253d5557e0876" target="_top" xlink:title="Clears the molecular viewer.">
<polygon fill="white" stroke="black" points="660,-49.5 660,-79.5 797,-79.5 797,-49.5 660,-49.5"/>
<text text-anchor="start" x="668" y="-67.5" font-family="Helvetica,sans-Serif" font-size="10.00">denoptim.gui.MoleculeView</text>
<text text-anchor="middle" x="728.5" y="-56.5" font-family="Helvetica,sans-Serif" font-size="10.00">Panel.clearMolecularViewer</text>
</a>
</g>
</g>
<!-- Node23&#45;&gt;Node25 -->
<g id="edge30" class="edge">
<title>Node23&#45;&gt;Node25</title>
<path fill="none" stroke="midnightblue" d="M599.12,-48C615.35,-50.09 632.88,-52.34 649.61,-54.49"/>
<polygon fill="midnightblue" stroke="midnightblue" points="649.54,-58.01 659.91,-55.81 650.44,-51.07 649.54,-58.01"/>
</g>
<!-- Node26&#45;&gt;Node8 -->
<g id="edge32" class="edge">
<title>Node26&#45;&gt;Node8</title>
<path fill="none" stroke="midnightblue" d="M386.79,-420.61C393.54,-423.38 400.06,-426.64 406,-430.5 427.19,-444.26 420.79,-460.78 442,-474.5 446.99,-477.73 452.41,-480.53 458.03,-482.95"/>
<polygon fill="midnightblue" stroke="midnightblue" points="457.03,-486.32 467.62,-486.69 459.57,-479.8 457.03,-486.32"/>
</g>
<!-- Node26&#45;&gt;Node9 -->
<g id="edge33" class="edge">
<title>Node26&#45;&gt;Node9</title>
<path fill="none" stroke="midnightblue" d="M391.77,-420.59C396.9,-423.37 401.72,-426.64 406,-430.5 438.91,-460.19 409.04,-493.86 442,-523.5 446.84,-527.85 452.39,-531.43 458.3,-534.37"/>
<polygon fill="midnightblue" stroke="midnightblue" points="457.27,-537.73 467.84,-538.47 460.04,-531.3 457.27,-537.73"/>
</g>
<!-- Node27 -->
<g id="node27" class="node">
<title>Node27</title>
<g id="a_node27"><a xlink:href="classdenoptim_1_1graph_1_1_candidate_l_w.html#a73f9188a92ff8dde58db2d344accde90" target="_top" xlink:title=" ">
<polygon fill="white" stroke="black" points="468,-434.5 468,-464.5 596,-464.5 596,-434.5 468,-434.5"/>
<text text-anchor="start" x="476" y="-452.5" font-family="Helvetica,sans-Serif" font-size="10.00">denoptim.graph.Candidate</text>
<text text-anchor="middle" x="532" y="-441.5" font-family="Helvetica,sans-Serif" font-size="10.00">LW.getPathToFile</text>
</a>
</g>
</g>
<!-- Node26&#45;&gt;Node27 -->
<g id="edge34" class="edge">
<title>Node26&#45;&gt;Node27</title>
<path fill="none" stroke="midnightblue" d="M388.4,-420.52C410.92,-425.1 435.64,-430.12 458.09,-434.68"/>
<polygon fill="midnightblue" stroke="midnightblue" points="457.4,-438.11 467.89,-436.67 458.79,-431.25 457.4,-438.11"/>
</g>
<!-- Node28 -->
<g id="node28" class="node">
<title>Node28</title>
<g id="a_node28"><a xlink:href="classdenoptim_1_1gui_1_1_molecule_view_panel.html#aa64c40b887997341511f076c73f51480" target="_top" xlink:title="Loads a structure in the Jmol viewer.">
<polygon fill="white" stroke="black" points="442,-367.5 442,-397.5 622,-397.5 622,-367.5 442,-367.5"/>
<text text-anchor="start" x="450" y="-385.5" font-family="Helvetica,sans-Serif" font-size="10.00">denoptim.gui.MoleculeView</text>
<text text-anchor="middle" x="532" y="-374.5" font-family="Helvetica,sans-Serif" font-size="10.00">Panel.loadChemicalStructureFromFile</text>
</a>
</g>
</g>
<!-- Node26&#45;&gt;Node28 -->
<g id="edge35" class="edge">
<title>Node26&#45;&gt;Node28</title>
<path fill="none" stroke="midnightblue" d="M406,-395.78C414.55,-394.87 423.23,-393.95 431.84,-393.03"/>
<polygon fill="midnightblue" stroke="midnightblue" points="432.32,-396.5 441.9,-391.97 431.58,-389.54 432.32,-396.5"/>
</g>
<!-- Node28&#45;&gt;Node28 -->
<g id="edge36" class="edge">
<title>Node28&#45;&gt;Node28</title>
<path fill="none" stroke="midnightblue" d="M497.84,-397.66C489.61,-407.06 500.99,-416 532,-416 550.9,-416 562.5,-412.68 566.83,-407.96"/>
<polygon fill="midnightblue" stroke="midnightblue" points="570.3,-407.41 566.16,-397.66 563.31,-407.87 570.3,-407.41"/>
</g>
</g>
</svg>
