<?xml version="1.0" encoding="UTF-8" standalone="no"?>
<!DOCTYPE svg PUBLIC "-//W3C//DTD SVG 1.1//EN"
 "http://www.w3.org/Graphics/SVG/1.1/DTD/svg11.dtd">
<!-- Generated by graphviz version 3.0.0 (20220413.0242)
 -->
<!-- Title: denoptim.gui.GUIGraphHandler.enableGraphDependentButtons Pages: 1 -->
<svg width="1466pt" height="334pt"
 viewBox="0.00 0.00 1466.00 334.00" xmlns="http://www.w3.org/2000/svg" xmlns:xlink="http://www.w3.org/1999/xlink">
<g id="graph0" class="graph" transform="scale(1 1) rotate(0) translate(4 330)">
<title>denoptim.gui.GUIGraphHandler.enableGraphDependentButtons</title>
<polygon fill="white" stroke="transparent" points="-4,4 -4,-330 1462,-330 1462,4 -4,4"/>
<!-- Node1 -->
<g id="node1" class="node">
<title>Node1</title>
<g id="a_node1"><a xlink:title=" ">
<polygon fill="#bfbfbf" stroke="black" points="1276,-232.5 1276,-262.5 1458,-262.5 1458,-232.5 1276,-232.5"/>
<text text-anchor="start" x="1284" y="-250.5" font-family="Helvetica,sans-Serif" font-size="10.00">denoptim.gui.GUIGraphHandler.enable</text>
<text text-anchor="middle" x="1367" y="-239.5" font-family="Helvetica,sans-Serif" font-size="10.00">GraphDependentButtons</text>
</a>
</g>
</g>
<!-- Node2 -->
<g id="node2" class="node">
<title>Node2</title>
<g id="a_node2"><a xlink:href="classdenoptim_1_1gui_1_1_g_u_i_graph_handler.html#af7024886a4203aa93d8cf7975f7c2e72" target="_top" xlink:title=" ">
<polygon fill="white" stroke="black" points="1059,-295.5 1059,-325.5 1240,-325.5 1240,-295.5 1059,-295.5"/>
<text text-anchor="start" x="1067" y="-313.5" font-family="Helvetica,sans-Serif" font-size="10.00">denoptim.gui.GUIGraphHandler.create</text>
<text text-anchor="middle" x="1149.5" y="-302.5" font-family="Helvetica,sans-Serif" font-size="10.00">EmptyVertexAndPlaceItInGraph</text>
</a>
</g>
</g>
<!-- Node1&#45;&gt;Node2 -->
<g id="edge1" class="edge">
<title>Node1&#45;&gt;Node2</title>
<path fill="none" stroke="midnightblue" d="M1304.8,-265.39C1272.27,-274.9 1232.73,-286.46 1201.82,-295.5"/>
<polygon fill="midnightblue" stroke="midnightblue" points="1306.04,-268.68 1314.66,-262.51 1304.08,-261.96 1306.04,-268.68"/>
</g>
<!-- Node5 -->
<g id="node5" class="node">
<title>Node5</title>
<g id="a_node5"><a xlink:href="classdenoptim_1_1gui_1_1_g_u_i_graph_handler.html#a857bfe6291322daccf2af3fd9a28a356" target="_top" xlink:title="Start the construction of a new graph from scratch.">
<polygon fill="white" stroke="black" points="799,-262.5 799,-292.5 1023,-292.5 1023,-262.5 799,-262.5"/>
<text text-anchor="start" x="807" y="-280.5" font-family="Helvetica,sans-Serif" font-size="10.00">denoptim.gui.GUIGraphHandler.start</text>
<text text-anchor="middle" x="911" y="-269.5" font-family="Helvetica,sans-Serif" font-size="10.00">GraphFromFragSpaceOrCreationOfEmptyVertex</text>
</a>
</g>
</g>
<!-- Node1&#45;&gt;Node5 -->
<g id="edge25" class="edge">
<title>Node1&#45;&gt;Node5</title>
<path fill="none" stroke="midnightblue" d="M1265.37,-254.15C1193.7,-258.89 1097.35,-265.25 1023.36,-270.14"/>
<polygon fill="midnightblue" stroke="midnightblue" points="1266.01,-257.61 1275.76,-253.46 1265.55,-250.63 1266.01,-257.61"/>
</g>
<!-- Node6 -->
<g id="node6" class="node">
<title>Node6</title>
<g id="a_node6"><a xlink:href="classdenoptim_1_1gui_1_1_g_u_i_graph_handler.html#ad71f3e0107bfa15b942563cfcf6f260a" target="_top" xlink:title="Loads the graph corresponding to the field currGrphIdx.">
<polygon fill="white" stroke="black" points="1063.5,-164.5 1063.5,-194.5 1235.5,-194.5 1235.5,-164.5 1063.5,-164.5"/>
<text text-anchor="start" x="1071.5" y="-182.5" font-family="Helvetica,sans-Serif" font-size="10.00">denoptim.gui.GUIGraphHandler.load</text>
<text text-anchor="middle" x="1149.5" y="-171.5" font-family="Helvetica,sans-Serif" font-size="10.00">CurrentGraphIdxToViewer</text>
</a>
</g>
</g>
<!-- Node1&#45;&gt;Node6 -->
<g id="edge6" class="edge">
<title>Node1&#45;&gt;Node6</title>
<path fill="none" stroke="midnightblue" d="M1308.52,-229.36C1274.1,-218.5 1230.86,-204.86 1198.31,-194.59"/>
<polygon fill="midnightblue" stroke="midnightblue" points="1307.85,-232.82 1318.44,-232.49 1309.96,-226.15 1307.85,-232.82"/>
</g>
<!-- Node18 -->
<g id="node18" class="node">
<title>Node18</title>
<g id="a_node18"><a xlink:href="classdenoptim_1_1gui_1_1_g_u_i_graph_handler.html#a11c5c55e0930e8eb7304416707016522" target="_top" xlink:title=" ">
<polygon fill="white" stroke="black" points="818,-213.5 818,-243.5 1004,-243.5 1004,-213.5 818,-213.5"/>
<text text-anchor="start" x="826" y="-231.5" font-family="Helvetica,sans-Serif" font-size="10.00">denoptim.gui.GUIGraphHandler.remove</text>
<text text-anchor="middle" x="911" y="-220.5" font-family="Helvetica,sans-Serif" font-size="10.00">CurrentDnGraph</text>
</a>
</g>
</g>
<!-- Node1&#45;&gt;Node18 -->
<g id="edge24" class="edge">
<title>Node1&#45;&gt;Node18</title>
<path fill="none" stroke="midnightblue" d="M1265.42,-243.29C1187.31,-240.02 1079.87,-235.53 1004.01,-232.35"/>
<polygon fill="midnightblue" stroke="midnightblue" points="1265.62,-246.8 1275.76,-243.72 1265.92,-239.81 1265.62,-246.8"/>
</g>
<!-- Node3 -->
<g id="node3" class="node">
<title>Node3</title>
<g id="a_node3"><a xlink:href="classdenoptim_1_1gui_1_1_g_u_i_graph_handler.html#af5b000c105018cbd7c262b34f9750044" target="_top" xlink:title="Initialize the panel and add buttons.">
<polygon fill="white" stroke="black" points="570.5,-225 570.5,-244 758.5,-244 758.5,-225 570.5,-225"/>
<text text-anchor="middle" x="664.5" y="-232" font-family="Helvetica,sans-Serif" font-size="10.00">denoptim.gui.GUIGraphHandler.initialize</text>
</a>
</g>
</g>
<!-- Node2&#45;&gt;Node3 -->
<g id="edge2" class="edge">
<title>Node2&#45;&gt;Node3</title>
<path fill="none" stroke="midnightblue" d="M1048.47,-319.38C977.72,-322.9 881.21,-322.09 799,-301.5 752.21,-289.78 702.94,-259.72 679.49,-244.16"/>
<polygon fill="midnightblue" stroke="midnightblue" points="1048.92,-322.86 1058.71,-318.83 1048.54,-315.87 1048.92,-322.86"/>
</g>
<!-- Node2&#45;&gt;Node5 -->
<g id="edge4" class="edge">
<title>Node2&#45;&gt;Node5</title>
<path fill="none" stroke="midnightblue" d="M1048.76,-296.58C1039.11,-295.24 1029.29,-293.87 1019.56,-292.51"/>
<polygon fill="midnightblue" stroke="midnightblue" points="1048.36,-300.06 1058.75,-297.98 1049.33,-293.13 1048.36,-300.06"/>
</g>
<!-- Node4 -->
<g id="node4" class="node">
<title>Node4</title>
<g id="a_node4"><a xlink:href="classdenoptim_1_1gui_1_1_g_u_i_graph_handler.html#ab7d010d9a384f6b85edce47c95d6723b" target="_top" xlink:title="Constructor.">
<polygon fill="white" stroke="black" points="372,-225.5 372,-255.5 526,-255.5 526,-225.5 372,-225.5"/>
<text text-anchor="start" x="380" y="-243.5" font-family="Helvetica,sans-Serif" font-size="10.00">denoptim.gui.GUIGraphHandler.</text>
<text text-anchor="middle" x="449" y="-232.5" font-family="Helvetica,sans-Serif" font-size="10.00">GUIGraphHandler</text>
</a>
</g>
</g>
<!-- Node3&#45;&gt;Node4 -->
<g id="edge3" class="edge">
<title>Node3&#45;&gt;Node4</title>
<path fill="none" stroke="midnightblue" d="M560.35,-237.4C548.8,-237.72 537.19,-238.05 526.07,-238.36"/>
<polygon fill="midnightblue" stroke="midnightblue" points="560.58,-240.89 570.48,-237.11 560.38,-233.9 560.58,-240.89"/>
</g>
<!-- Node5&#45;&gt;Node3 -->
<g id="edge5" class="edge">
<title>Node5&#45;&gt;Node3</title>
<path fill="none" stroke="midnightblue" d="M814.58,-260.72C782.36,-255.05 747.53,-248.93 719.64,-244.02"/>
<polygon fill="midnightblue" stroke="midnightblue" points="814.03,-264.18 824.49,-262.46 815.24,-257.28 814.03,-264.18"/>
</g>
<!-- Node7 -->
<g id="node7" class="node">
<title>Node7</title>
<g id="a_node7"><a xlink:href="classdenoptim_1_1gui_1_1_g_u_i_graph_handler.html#a9c42cf2eaeda70e10b570a290cce5518" target="_top" xlink:title=" ">
<polygon fill="white" stroke="black" points="818.5,-115.5 818.5,-145.5 1003.5,-145.5 1003.5,-115.5 818.5,-115.5"/>
<text text-anchor="start" x="826.5" y="-133.5" font-family="Helvetica,sans-Serif" font-size="10.00">denoptim.gui.GUIGraphHandler.append</text>
<text text-anchor="middle" x="911" y="-122.5" font-family="Helvetica,sans-Serif" font-size="10.00">GraphsFromFile</text>
</a>
</g>
</g>
<!-- Node6&#45;&gt;Node7 -->
<g id="edge7" class="edge">
<title>Node6&#45;&gt;Node7</title>
<path fill="none" stroke="midnightblue" d="M1065.91,-162.39C1039.37,-156.89 1010.18,-150.84 984.43,-145.51"/>
<polygon fill="midnightblue" stroke="midnightblue" points="1065.43,-165.86 1075.93,-164.47 1066.85,-159.01 1065.43,-165.86"/>
</g>
<!-- Node8 -->
<g id="node8" class="node">
<title>Node8</title>
<g id="a_node8"><a xlink:href="classdenoptim_1_1gui_1_1_g_u_i_graph_handler.html#a81df728192225395c24224607bc63eee" target="_top" xlink:title="Imports graphs from file.">
<polygon fill="white" stroke="black" points="820.5,-66.5 820.5,-96.5 1001.5,-96.5 1001.5,-66.5 820.5,-66.5"/>
<text text-anchor="start" x="828.5" y="-84.5" font-family="Helvetica,sans-Serif" font-size="10.00">denoptim.gui.GUIGraphHandler.import</text>
<text text-anchor="middle" x="911" y="-73.5" font-family="Helvetica,sans-Serif" font-size="10.00">GraphsFromFile</text>
</a>
</g>
</g>
<!-- Node6&#45;&gt;Node8 -->
<g id="edge9" class="edge">
<title>Node6&#45;&gt;Node8</title>
<path fill="none" stroke="midnightblue" d="M1119.32,-158.63C1094.72,-141.96 1058.04,-119.2 1023,-105.5 1014.28,-102.09 1004.97,-99.12 995.6,-96.54"/>
<polygon fill="midnightblue" stroke="midnightblue" points="1117.58,-161.68 1127.81,-164.47 1121.55,-155.92 1117.58,-161.68"/>
</g>
<!-- Node6&#45;&gt;Node18 -->
<g id="edge21" class="edge">
<title>Node6&#45;&gt;Node18</title>
<path fill="none" stroke="midnightblue" d="M1065.91,-196.61C1039.37,-202.11 1010.18,-208.16 984.43,-213.49"/>
<polygon fill="midnightblue" stroke="midnightblue" points="1066.85,-199.99 1075.93,-194.53 1065.43,-193.14 1066.85,-199.99"/>
</g>
<!-- Node19 -->
<g id="node19" class="node">
<title>Node19</title>
<g id="a_node19"><a xlink:href="classdenoptim_1_1gui_1_1_g_u_i_graph_handler_1_1_graph_spinner_change_event.html#ac1da07025d32dbd73ec5104a66676dc9" target="_top" xlink:title=" ">
<polygon fill="white" stroke="black" points="813,-164.5 813,-194.5 1009,-194.5 1009,-164.5 813,-164.5"/>
<text text-anchor="start" x="821" y="-182.5" font-family="Helvetica,sans-Serif" font-size="10.00">denoptim.gui.GUIGraphHandler.</text>
<text text-anchor="middle" x="911" y="-171.5" font-family="Helvetica,sans-Serif" font-size="10.00">GraphSpinnerChangeEvent.stateChanged</text>
</a>
</g>
</g>
<!-- Node6&#45;&gt;Node19 -->
<g id="edge23" class="edge">
<title>Node6&#45;&gt;Node19</title>
<path fill="none" stroke="midnightblue" d="M1053.44,-179.5C1038.86,-179.5 1023.78,-179.5 1009.15,-179.5"/>
<polygon fill="midnightblue" stroke="midnightblue" points="1053.45,-183 1063.45,-179.5 1053.45,-176 1053.45,-183"/>
</g>
<!-- Node7&#45;&gt;Node3 -->
<g id="edge8" class="edge">
<title>Node7&#45;&gt;Node3</title>
<path fill="none" stroke="midnightblue" d="M816.14,-148.49C810.28,-150.32 804.52,-152.32 799,-154.5 751.51,-173.27 701.38,-207.93 678.39,-224.79"/>
<polygon fill="midnightblue" stroke="midnightblue" points="817.48,-151.74 826.08,-145.56 815.5,-145.03 817.48,-151.74"/>
</g>
<!-- Node8&#45;&gt;Node3 -->
<g id="edge10" class="edge">
<title>Node8&#45;&gt;Node3</title>
<path fill="none" stroke="midnightblue" d="M811.05,-99.11C806.88,-101.03 802.84,-103.15 799,-105.5 777.45,-118.69 780.58,-131.36 763,-149.5 734.4,-179.01 696.87,-209.76 677.79,-224.91"/>
<polygon fill="midnightblue" stroke="midnightblue" points="812.48,-102.31 820.37,-95.24 809.79,-95.85 812.48,-102.31"/>
</g>
<!-- Node9 -->
<g id="node9" class="node">
<title>Node9</title>
<g id="a_node9"><a xlink:href="classdenoptim_1_1gui_1_1_g_u_i_inspect_f_s_e_run.html#aa30815ac9aa8f815fd24c115afaabd62" target="_top" xlink:title="Initialize the panel and add buttons.">
<polygon fill="white" stroke="black" points="566,-58 566,-77 763,-77 763,-58 566,-58"/>
<text text-anchor="middle" x="664.5" y="-65" font-family="Helvetica,sans-Serif" font-size="10.00">denoptim.gui.GUIInspectFSERun.initialize</text>
</a>
</g>
</g>
<!-- Node8&#45;&gt;Node9 -->
<g id="edge11" class="edge">
<title>Node8&#45;&gt;Node9</title>
<path fill="none" stroke="midnightblue" d="M810.26,-75.79C794.79,-74.9 778.82,-73.99 763.38,-73.1"/>
<polygon fill="midnightblue" stroke="midnightblue" points="810.16,-79.29 820.35,-76.37 810.56,-72.3 810.16,-79.29"/>
</g>
<!-- Node11 -->
<g id="node11" class="node">
<title>Node11</title>
<g id="a_node11"><a xlink:href="classdenoptim_1_1gui_1_1_g_u_i_inspect_g_a_run.html#ad63012fa4fa9bec2e54ce86425039186" target="_top" xlink:title="Initialize the panel and add buttons.">
<polygon fill="white" stroke="black" points="568.5,-15 568.5,-34 760.5,-34 760.5,-15 568.5,-15"/>
<text text-anchor="middle" x="664.5" y="-22" font-family="Helvetica,sans-Serif" font-size="10.00">denoptim.gui.GUIInspectGARun.initialize</text>
</a>
</g>
</g>
<!-- Node8&#45;&gt;Node11 -->
<g id="edge13" class="edge">
<title>Node8&#45;&gt;Node11</title>
<path fill="none" stroke="midnightblue" d="M835.44,-64.12C793.09,-54.25 741.69,-42.26 706.58,-34.08"/>
<polygon fill="midnightblue" stroke="midnightblue" points="834.91,-67.59 845.44,-66.45 836.5,-60.77 834.91,-67.59"/>
</g>
<!-- Node13 -->
<g id="node13" class="node">
<title>Node13</title>
<g id="a_node13"><a xlink:href="classdenoptim_1_1gui_1_1_main_tool_bar.html#a1a2e06a2647032587d42155302b8c0a6" target="_top" xlink:title="Process a file that has a recognized file format and loads a suitable GUI card to visualize the file ...">
<polygon fill="white" stroke="black" points="581,-121 581,-140 748,-140 748,-121 581,-121"/>
<text text-anchor="middle" x="664.5" y="-128" font-family="Helvetica,sans-Serif" font-size="10.00">denoptim.gui.MainToolBar.openFile</text>
</a>
</g>
</g>
<!-- Node8&#45;&gt;Node13 -->
<g id="edge15" class="edge">
<title>Node8&#45;&gt;Node13</title>
<path fill="none" stroke="midnightblue" d="M825.06,-98.52C787.53,-106.04 744.83,-114.6 713.04,-120.97"/>
<polygon fill="midnightblue" stroke="midnightblue" points="825.86,-101.93 834.98,-96.53 824.49,-95.07 825.86,-101.93"/>
</g>
<!-- Node10 -->
<g id="node10" class="node">
<title>Node10</title>
<g id="a_node10"><a xlink:href="classdenoptim_1_1gui_1_1_g_u_i_inspect_f_s_e_run.html#aa4cc9386cd3e91865c486ba914af789d" target="_top" xlink:title="Constructor.">
<polygon fill="white" stroke="black" points="368,-49.5 368,-79.5 530,-79.5 530,-49.5 368,-49.5"/>
<text text-anchor="start" x="376" y="-67.5" font-family="Helvetica,sans-Serif" font-size="10.00">denoptim.gui.GUIInspectFSERun.</text>
<text text-anchor="middle" x="449" y="-56.5" font-family="Helvetica,sans-Serif" font-size="10.00">GUIInspectFSERun</text>
</a>
</g>
</g>
<!-- Node9&#45;&gt;Node10 -->
<g id="edge12" class="edge">
<title>Node9&#45;&gt;Node10</title>
<path fill="none" stroke="midnightblue" d="M555.69,-65.99C547.06,-65.86 538.44,-65.74 530.05,-65.62"/>
<polygon fill="midnightblue" stroke="midnightblue" points="555.76,-69.49 565.81,-66.13 555.86,-62.49 555.76,-69.49"/>
</g>
<!-- Node12 -->
<g id="node12" class="node">
<title>Node12</title>
<g id="a_node12"><a xlink:href="classdenoptim_1_1gui_1_1_g_u_i_inspect_g_a_run.html#aefffdc97385f7a524badf71808a3053b" target="_top" xlink:title="Constructor.">
<polygon fill="white" stroke="black" points="370,-0.5 370,-30.5 528,-30.5 528,-0.5 370,-0.5"/>
<text text-anchor="start" x="378" y="-18.5" font-family="Helvetica,sans-Serif" font-size="10.00">denoptim.gui.GUIInspectGARun.</text>
<text text-anchor="middle" x="449" y="-7.5" font-family="Helvetica,sans-Serif" font-size="10.00">GUIInspectGARun</text>
</a>
</g>
</g>
<!-- Node11&#45;&gt;Node12 -->
<g id="edge14" class="edge">
<title>Node11&#45;&gt;Node12</title>
<path fill="none" stroke="midnightblue" d="M558.18,-20.06C548.03,-19.63 537.87,-19.2 528.06,-18.79"/>
<polygon fill="midnightblue" stroke="midnightblue" points="558.16,-23.56 568.3,-20.49 558.46,-16.57 558.16,-23.56"/>
</g>
<!-- Node14 -->
<g id="node14" class="node">
<title>Node14</title>
<g id="a_node14"><a xlink:href="classdenoptim_1_1gui_1_1_main_tool_bar.html#a0df9ca063352fbc50f9476f3b2820926" target="_top" xlink:title="Initialize the contents of the tool bar.">
<polygon fill="white" stroke="black" points="167,-165 167,-184 332,-184 332,-165 167,-165"/>
<text text-anchor="middle" x="249.5" y="-172" font-family="Helvetica,sans-Serif" font-size="10.00">denoptim.gui.MainToolBar.initialize</text>
</a>
</g>
</g>
<!-- Node13&#45;&gt;Node14 -->
<g id="edge16" class="edge">
<title>Node13&#45;&gt;Node14</title>
<path fill="none" stroke="midnightblue" d="M633.3,-144.14C606.73,-155.36 566.66,-170.36 530,-176.5 464.07,-187.54 388.17,-186.12 332.11,-182.45"/>
<polygon fill="midnightblue" stroke="midnightblue" points="634.99,-147.23 642.79,-140.06 632.23,-140.8 634.99,-147.23"/>
</g>
<!-- Node16 -->
<g id="node16" class="node">
<title>Node16</title>
<g id="a_node16"><a xlink:href="classdenoptim_1_1gui_1_1_g_u_i.html#a460fa99497f04de06d2adf8671a92441" target="_top" xlink:title="Launch the application.">
<polygon fill="white" stroke="black" points="395.5,-99 395.5,-118 502.5,-118 502.5,-99 395.5,-99"/>
<text text-anchor="middle" x="449" y="-106" font-family="Helvetica,sans-Serif" font-size="10.00">denoptim.gui.GUI.run</text>
</a>
</g>
</g>
<!-- Node13&#45;&gt;Node16 -->
<g id="edge18" class="edge">
<title>Node13&#45;&gt;Node16</title>
<path fill="none" stroke="midnightblue" d="M570.7,-120.94C547.44,-118.54 523.28,-116.05 502.74,-113.93"/>
<polygon fill="midnightblue" stroke="midnightblue" points="570.65,-124.45 580.96,-121.99 571.37,-117.49 570.65,-124.45"/>
</g>
<!-- Node17 -->
<g id="node17" class="node">
<title>Node17</title>
<g id="a_node17"><a xlink:href="classdenoptim_1_1gui_1_1_main_tool_bar.html#a94df24e485081c9b9d7441387f409e26" target="_top" xlink:title="Updated the the list of recent files in the &quot;open Recent&quot; menu.">
<polygon fill="white" stroke="black" points="369,-137.5 369,-167.5 529,-167.5 529,-137.5 369,-137.5"/>
<text text-anchor="start" x="377" y="-155.5" font-family="Helvetica,sans-Serif" font-size="10.00">denoptim.gui.MainToolBar.update</text>
<text text-anchor="middle" x="449" y="-144.5" font-family="Helvetica,sans-Serif" font-size="10.00">OpenRecentMenu</text>
</a>
</g>
</g>
<!-- Node13&#45;&gt;Node17 -->
<g id="edge19" class="edge">
<title>Node13&#45;&gt;Node17</title>
<path fill="none" stroke="midnightblue" d="M570.9,-140.04C556.99,-141.47 542.76,-142.94 529.17,-144.34"/>
<polygon fill="midnightblue" stroke="midnightblue" points="571.37,-143.51 580.96,-139.01 570.65,-136.55 571.37,-143.51"/>
</g>
<!-- Node15 -->
<g id="node15" class="node">
<title>Node15</title>
<g id="a_node15"><a xlink:href="classdenoptim_1_1gui_1_1_main_tool_bar.html#a36f4409849998e032342f49b19e6c5b5" target="_top" xlink:title="Constructor that build the tool bar.">
<polygon fill="white" stroke="black" points="0,-159.5 0,-189.5 131,-189.5 131,-159.5 0,-159.5"/>
<text text-anchor="start" x="8" y="-177.5" font-family="Helvetica,sans-Serif" font-size="10.00">denoptim.gui.MainToolBar.</text>
<text text-anchor="middle" x="65.5" y="-166.5" font-family="Helvetica,sans-Serif" font-size="10.00">MainToolBar</text>
</a>
</g>
</g>
<!-- Node14&#45;&gt;Node15 -->
<g id="edge17" class="edge">
<title>Node14&#45;&gt;Node15</title>
<path fill="none" stroke="midnightblue" d="M156.66,-174.5C147.99,-174.5 139.34,-174.5 131,-174.5"/>
<polygon fill="midnightblue" stroke="midnightblue" points="156.82,-178 166.82,-174.5 156.82,-171 156.82,-178"/>
</g>
<!-- Node17&#45;&gt;Node14 -->
<g id="edge20" class="edge">
<title>Node17&#45;&gt;Node14</title>
<path fill="none" stroke="midnightblue" d="M358.59,-162.46C349.83,-163.44 340.97,-164.42 332.29,-165.39"/>
<polygon fill="midnightblue" stroke="midnightblue" points="359.26,-165.91 368.81,-161.32 358.48,-158.95 359.26,-165.91"/>
</g>
<!-- Node18&#45;&gt;Node3 -->
<g id="edge22" class="edge">
<title>Node18&#45;&gt;Node3</title>
<path fill="none" stroke="midnightblue" d="M807.85,-231.01C791.56,-231.41 774.79,-231.82 758.72,-232.21"/>
<polygon fill="midnightblue" stroke="midnightblue" points="808,-234.5 817.91,-230.76 807.83,-227.51 808,-234.5"/>
</g>
</g>
</svg>
