<?xml version="1.0" encoding="UTF-8" standalone="no"?>
<!DOCTYPE svg PUBLIC "-//W3C//DTD SVG 1.1//EN"
 "http://www.w3.org/Graphics/SVG/1.1/DTD/svg11.dtd">
<!-- Generated by graphviz version 3.0.0 (20220413.0242)
 -->
<!-- Title: denoptim.graph.Edge.getBondType Pages: 1 -->
<svg width="1397pt" height="529pt"
 viewBox="0.00 0.00 1397.00 529.00" xmlns="http://www.w3.org/2000/svg" xmlns:xlink="http://www.w3.org/1999/xlink">
<g id="graph0" class="graph" transform="scale(1 1) rotate(0) translate(4 525)">
<title>denoptim.graph.Edge.getBondType</title>
<polygon fill="white" stroke="transparent" points="-4,4 -4,-525 1393,-525 1393,4 -4,4"/>
<!-- Node1 -->
<g id="node1" class="node">
<title>Node1</title>
<g id="a_node1"><a xlink:title=" ">
<polygon fill="#bfbfbf" stroke="black" points="1223,-232 1223,-251 1389,-251 1389,-232 1223,-232"/>
<text text-anchor="middle" x="1306" y="-239" font-family="Helvetica,sans-Serif" font-size="10.00">denoptim.graph.Edge.getBondType</text>
</a>
</g>
</g>
<!-- Node2 -->
<g id="node2" class="node">
<title>Node2</title>
<g id="a_node2"><a xlink:href="classdenoptim_1_1graph_1_1_edge.html#a32e31de78eb07c2ac9eb0424e1530efd" target="_top" xlink:title="Compares this and another edge ignoring the directionality of both, i.e., as if both edges were undir...">
<polygon fill="white" stroke="black" points="1023,-483.5 1023,-513.5 1169,-513.5 1169,-483.5 1023,-483.5"/>
<text text-anchor="start" x="1031" y="-501.5" font-family="Helvetica,sans-Serif" font-size="10.00">denoptim.graph.Edge.compare</text>
<text text-anchor="middle" x="1096" y="-490.5" font-family="Helvetica,sans-Serif" font-size="10.00">AsUndirected</text>
</a>
</g>
</g>
<!-- Node1&#45;&gt;Node2 -->
<g id="edge1" class="edge">
<title>Node1&#45;&gt;Node2</title>
<path fill="none" stroke="midnightblue" d="M1299.59,-261.09C1286.91,-303.54 1251.38,-404.84 1187,-462.5 1177.1,-471.37 1164.74,-478.19 1152.38,-483.39"/>
<polygon fill="midnightblue" stroke="midnightblue" points="1302.97,-261.99 1302.38,-251.41 1296.25,-260.05 1302.97,-261.99"/>
</g>
<!-- Node4 -->
<g id="node4" class="node">
<title>Node4</title>
<g id="a_node4"><a xlink:href="classdenoptim_1_1graph_1_1_d_graph.html#a4df69c91a742d22f8d14d44489aeac15" target="_top" xlink:title="Edit this graph according to a given list of edit tasks.">
<polygon fill="white" stroke="black" points="814.5,-392.5 814.5,-422.5 950.5,-422.5 950.5,-392.5 814.5,-392.5"/>
<text text-anchor="start" x="822.5" y="-410.5" font-family="Helvetica,sans-Serif" font-size="10.00">denoptim.graph.DGraph.edit</text>
<text text-anchor="middle" x="882.5" y="-399.5" font-family="Helvetica,sans-Serif" font-size="10.00">Graph</text>
</a>
</g>
</g>
<!-- Node1&#45;&gt;Node4 -->
<g id="edge3" class="edge">
<title>Node1&#45;&gt;Node4</title>
<path fill="none" stroke="midnightblue" d="M1275.64,-255.4C1217.84,-282.43 1084.84,-342.98 969,-383.5 959.98,-386.66 950.31,-389.69 940.84,-392.48"/>
<polygon fill="midnightblue" stroke="midnightblue" points="1277.33,-258.47 1284.9,-251.06 1274.36,-252.14 1277.33,-258.47"/>
</g>
<!-- Node6 -->
<g id="node6" class="node">
<title>Node6</title>
<g id="a_node6"><a xlink:href="classdenoptim_1_1graph_1_1rings_1_1_cyclic_graph_handler.html#a08b02946eaac7c2cbbe6e71332d702e6" target="_top" xlink:title="Identifies a random combination of ring closing paths and returns it as list of DENOPTIMRings ready t...">
<polygon fill="white" stroke="black" points="1005,-412 1005,-453 1187,-453 1187,-412 1005,-412"/>
<text text-anchor="start" x="1013" y="-441" font-family="Helvetica,sans-Serif" font-size="10.00">denoptim.graph.rings.Cyclic</text>
<text text-anchor="start" x="1013" y="-430" font-family="Helvetica,sans-Serif" font-size="10.00">GraphHandler.getRandomCombination</text>
<text text-anchor="middle" x="1096" y="-419" font-family="Helvetica,sans-Serif" font-size="10.00">OfRings</text>
</a>
</g>
</g>
<!-- Node1&#45;&gt;Node6 -->
<g id="edge5" class="edge">
<title>Node1&#45;&gt;Node6</title>
<path fill="none" stroke="midnightblue" d="M1291.57,-259.29C1270.91,-285.97 1229.28,-337.1 1187,-373.5 1170.43,-387.76 1150.21,-401.31 1133.13,-411.82"/>
<polygon fill="midnightblue" stroke="midnightblue" points="1294.44,-261.3 1297.75,-251.23 1288.88,-257.04 1294.44,-261.3"/>
</g>
<!-- Node16 -->
<g id="node16" class="node">
<title>Node16</title>
<g id="a_node16"><a xlink:href="classdenoptim_1_1graph_1_1rings_1_1_path_sub_graph.html#a5c018cc9952d2cac46a5d44f8bf06d8c" target="_top" xlink:title="Constructs a new PathSubGraph specifying the first and last vertex of the path.">
<polygon fill="white" stroke="black" points="1032,-202.5 1032,-232.5 1160,-232.5 1160,-202.5 1032,-202.5"/>
<text text-anchor="start" x="1040" y="-220.5" font-family="Helvetica,sans-Serif" font-size="10.00">denoptim.graph.rings.Path</text>
<text text-anchor="middle" x="1096" y="-209.5" font-family="Helvetica,sans-Serif" font-size="10.00">SubGraph.PathSubGraph</text>
</a>
</g>
</g>
<!-- Node1&#45;&gt;Node16 -->
<g id="edge17" class="edge">
<title>Node1&#45;&gt;Node16</title>
<path fill="none" stroke="midnightblue" d="M1212.43,-230.82C1194.7,-228.77 1176.53,-226.68 1160.01,-224.77"/>
<polygon fill="midnightblue" stroke="midnightblue" points="1212.46,-234.35 1222.79,-232.01 1213.26,-227.39 1212.46,-234.35"/>
</g>
<!-- Node17 -->
<g id="node17" class="node">
<title>Node17</title>
<g id="a_node17"><a xlink:href="classdenoptim_1_1graph_1_1_d_graph.html#af404e25092eabcdfbe69b5d7204e9483" target="_top" xlink:title="Mutates the graph by removing the chain where a given vertex is located up to the first branching (i....">
<polygon fill="white" stroke="black" points="1020,-135.5 1020,-165.5 1172,-165.5 1172,-135.5 1020,-135.5"/>
<text text-anchor="start" x="1028" y="-153.5" font-family="Helvetica,sans-Serif" font-size="10.00">denoptim.graph.DGraph.remove</text>
<text text-anchor="middle" x="1096" y="-142.5" font-family="Helvetica,sans-Serif" font-size="10.00">ChainUpToBranching</text>
</a>
</g>
</g>
<!-- Node1&#45;&gt;Node17 -->
<g id="edge18" class="edge">
<title>Node1&#45;&gt;Node17</title>
<path fill="none" stroke="midnightblue" d="M1273.56,-227.74C1235.38,-211.04 1171.19,-182.96 1131.63,-165.65"/>
<polygon fill="midnightblue" stroke="midnightblue" points="1272.57,-231.13 1283.13,-231.93 1275.37,-224.72 1272.57,-231.13"/>
</g>
<!-- Node20 -->
<g id="node20" class="node">
<title>Node20</title>
<g id="a_node20"><a xlink:href="classdenoptim_1_1graph_1_1_d_graph.html#aefca90eb3594e935ee283f1e56fec5b4" target="_top" xlink:title="Replaced the subgraph represented by a given collection of vertices that belong to this graph.">
<polygon fill="white" stroke="black" points="1020,-251.5 1020,-281.5 1172,-281.5 1172,-251.5 1020,-251.5"/>
<text text-anchor="start" x="1028" y="-269.5" font-family="Helvetica,sans-Serif" font-size="10.00">denoptim.graph.DGraph.replace</text>
<text text-anchor="middle" x="1096" y="-258.5" font-family="Helvetica,sans-Serif" font-size="10.00">SingleSubGraph</text>
</a>
</g>
</g>
<!-- Node1&#45;&gt;Node20 -->
<g id="edge21" class="edge">
<title>Node1&#45;&gt;Node20</title>
<path fill="none" stroke="midnightblue" d="M1215.8,-252.22C1201.28,-253.97 1186.38,-255.76 1172.24,-257.46"/>
<polygon fill="midnightblue" stroke="midnightblue" points="1216.26,-255.69 1225.77,-251.02 1215.42,-248.74 1216.26,-255.69"/>
</g>
<!-- Node29 -->
<g id="node29" class="node">
<title>Node29</title>
<g id="a_node29"><a xlink:href="classdenoptim_1_1graph_1_1_edge.html#a1799d4f41f26b56897fbba446a9ccca8" target="_top" xlink:title="Compares this and another edge ignoring edge and vertex IDs.">
<polygon fill="white" stroke="black" points="1023.5,-64 1023.5,-83 1168.5,-83 1168.5,-64 1023.5,-64"/>
<text text-anchor="middle" x="1096" y="-71" font-family="Helvetica,sans-Serif" font-size="10.00">denoptim.graph.Edge.sameAs</text>
</a>
</g>
</g>
<!-- Node1&#45;&gt;Node29 -->
<g id="edge32" class="edge">
<title>Node1&#45;&gt;Node29</title>
<path fill="none" stroke="midnightblue" d="M1289.76,-224.23C1268.3,-200.5 1227.26,-157.26 1187,-126.5 1164.09,-109 1134.92,-92.79 1116.1,-83.02"/>
<polygon fill="midnightblue" stroke="midnightblue" points="1287.23,-226.65 1296.5,-231.76 1292.44,-221.98 1287.23,-226.65"/>
</g>
<!-- Node32 -->
<g id="node32" class="node">
<title>Node32</title>
<g id="a_node32"><a xlink:href="classdenoptim_1_1graph_1_1_edge_1_1_d_e_n_o_p_t_i_m_edge_serializer.html#ac241e0a82349f1480db9a6ff1da5fd71" target="_top" xlink:title=" ">
<polygon fill="white" stroke="black" points="1005,-14.5 1005,-44.5 1187,-44.5 1187,-14.5 1005,-14.5"/>
<text text-anchor="start" x="1013" y="-32.5" font-family="Helvetica,sans-Serif" font-size="10.00">denoptim.graph.Edge.DENOPTIMEdge</text>
<text text-anchor="middle" x="1096" y="-21.5" font-family="Helvetica,sans-Serif" font-size="10.00">Serializer.serialize</text>
</a>
</g>
</g>
<!-- Node1&#45;&gt;Node32 -->
<g id="edge36" class="edge">
<title>Node1&#45;&gt;Node32</title>
<path fill="none" stroke="midnightblue" d="M1298.26,-222.14C1283.98,-184.02 1246.98,-99.1 1187,-54.5 1181.79,-50.63 1176.02,-47.36 1169.98,-44.59"/>
<polygon fill="midnightblue" stroke="midnightblue" points="1294.98,-223.37 1301.68,-231.57 1301.56,-220.98 1294.98,-223.37"/>
</g>
<!-- Node3 -->
<g id="node3" class="node">
<title>Node3</title>
<g id="a_node3"><a xlink:href="classdenoptim_1_1graph_1_1_edge_test.html#aeb47a9169ac3c3583ac5c1c061431599" target="_top" xlink:title=" ">
<polygon fill="white" stroke="black" points="810,-490.5 810,-520.5 955,-520.5 955,-490.5 810,-490.5"/>
<text text-anchor="start" x="818" y="-508.5" font-family="Helvetica,sans-Serif" font-size="10.00">denoptim.graph.EdgeTest.test</text>
<text text-anchor="middle" x="882.5" y="-497.5" font-family="Helvetica,sans-Serif" font-size="10.00">UndirectedComparison</text>
</a>
</g>
</g>
<!-- Node2&#45;&gt;Node3 -->
<g id="edge2" class="edge">
<title>Node2&#45;&gt;Node3</title>
<path fill="none" stroke="midnightblue" d="M1012.66,-501.23C993.63,-501.85 973.54,-502.52 955.01,-503.13"/>
<polygon fill="midnightblue" stroke="midnightblue" points="1012.93,-504.72 1022.81,-500.89 1012.69,-497.72 1012.93,-504.72"/>
</g>
<!-- Node5 -->
<g id="node5" class="node">
<title>Node5</title>
<g id="a_node5"><a xlink:href="classdenoptim_1_1programs_1_1grapheditor_1_1_graph_editor.html#a649a62e3d4635ef4c19424fa49e6dcd4" target="_top" xlink:title=" ">
<polygon fill="white" stroke="black" points="594,-353.5 594,-383.5 746,-383.5 746,-353.5 594,-353.5"/>
<text text-anchor="start" x="602" y="-371.5" font-family="Helvetica,sans-Serif" font-size="10.00">denoptim.programs.grapheditor.</text>
<text text-anchor="middle" x="670" y="-360.5" font-family="Helvetica,sans-Serif" font-size="10.00">GraphEditor.runProgram</text>
</a>
</g>
</g>
<!-- Node4&#45;&gt;Node5 -->
<g id="edge4" class="edge">
<title>Node4&#45;&gt;Node5</title>
<path fill="none" stroke="midnightblue" d="M804.26,-393.19C785.35,-389.69 765.13,-385.94 746.31,-382.45"/>
<polygon fill="midnightblue" stroke="midnightblue" points="803.85,-396.67 814.32,-395.05 805.12,-389.79 803.85,-396.67"/>
</g>
<!-- Node7 -->
<g id="node7" class="node">
<title>Node7</title>
<g id="a_node7"><a xlink:href="classdenoptim_1_1ga_1_1_e_a_utils.html#a1ddb932d4618434d435e4f85ce5e5eb5" target="_top" xlink:title="Evaluates the possibility of closing rings in a given graph and if any ring can be closed,...">
<polygon fill="white" stroke="black" points="817,-441.5 817,-471.5 948,-471.5 948,-441.5 817,-441.5"/>
<text text-anchor="start" x="825" y="-459.5" font-family="Helvetica,sans-Serif" font-size="10.00">denoptim.ga.EAUtils.setup</text>
<text text-anchor="middle" x="882.5" y="-448.5" font-family="Helvetica,sans-Serif" font-size="10.00">Rings</text>
</a>
</g>
</g>
<!-- Node6&#45;&gt;Node7 -->
<g id="edge6" class="edge">
<title>Node6&#45;&gt;Node7</title>
<path fill="none" stroke="midnightblue" d="M994.64,-443.89C978.82,-445.68 962.85,-447.5 948.13,-449.17"/>
<polygon fill="midnightblue" stroke="midnightblue" points="995.46,-447.32 1005,-442.71 994.67,-440.36 995.46,-447.32"/>
</g>
<!-- Node8 -->
<g id="node8" class="node">
<title>Node8</title>
<g id="a_node8"><a xlink:href="classdenoptim_1_1ga_1_1_e_a_utils.html#a5cb6bbe9f383bf821f3b1f1c5e60031b" target="_top" xlink:title=" ">
<polygon fill="white" stroke="black" points="606.5,-490.5 606.5,-520.5 733.5,-520.5 733.5,-490.5 606.5,-490.5"/>
<text text-anchor="start" x="614.5" y="-508.5" font-family="Helvetica,sans-Serif" font-size="10.00">denoptim.ga.EAUtils.build</text>
<text text-anchor="middle" x="670" y="-497.5" font-family="Helvetica,sans-Serif" font-size="10.00">CandidateByMutation</text>
</a>
</g>
</g>
<!-- Node7&#45;&gt;Node8 -->
<g id="edge7" class="edge">
<title>Node7&#45;&gt;Node8</title>
<path fill="none" stroke="midnightblue" d="M807.13,-473.81C783.12,-479.4 756.74,-485.54 733.66,-490.91"/>
<polygon fill="midnightblue" stroke="midnightblue" points="807.97,-477.21 816.91,-471.53 806.38,-470.39 807.97,-477.21"/>
</g>
<!-- Node13 -->
<g id="node13" class="node">
<title>Node13</title>
<g id="a_node13"><a xlink:href="classdenoptim_1_1ga_1_1_e_a_utils.html#a98553265dd4b441b11c6d97d098edb08" target="_top" xlink:title="Generates a new offspring by performing a crossover operation.">
<polygon fill="white" stroke="black" points="401,-368.5 401,-398.5 528,-398.5 528,-368.5 401,-368.5"/>
<text text-anchor="start" x="409" y="-386.5" font-family="Helvetica,sans-Serif" font-size="10.00">denoptim.ga.EAUtils.build</text>
<text text-anchor="middle" x="464.5" y="-375.5" font-family="Helvetica,sans-Serif" font-size="10.00">CandidateByXOver</text>
</a>
</g>
</g>
<!-- Node7&#45;&gt;Node13 -->
<g id="edge12" class="edge">
<title>Node7&#45;&gt;Node13</title>
<path fill="none" stroke="midnightblue" d="M806.89,-441.39C791.4,-438.36 775.18,-435.26 760,-432.5 680.19,-417.98 587.9,-402.9 528.22,-393.37"/>
<polygon fill="midnightblue" stroke="midnightblue" points="806.45,-444.87 816.94,-443.37 807.8,-438.01 806.45,-444.87"/>
</g>
<!-- Node14 -->
<g id="node14" class="node">
<title>Node14</title>
<g id="a_node14"><a xlink:href="classdenoptim_1_1ga_1_1_e_a_utils.html#ad3d2daeb11e68a356e971ca1846596b5" target="_top" xlink:title=" ">
<polygon fill="white" stroke="black" points="606.5,-441.5 606.5,-471.5 733.5,-471.5 733.5,-441.5 606.5,-441.5"/>
<text text-anchor="start" x="614.5" y="-459.5" font-family="Helvetica,sans-Serif" font-size="10.00">denoptim.ga.EAUtils.build</text>
<text text-anchor="middle" x="670" y="-448.5" font-family="Helvetica,sans-Serif" font-size="10.00">CandidateFromScratch</text>
</a>
</g>
</g>
<!-- Node7&#45;&gt;Node14 -->
<g id="edge13" class="edge">
<title>Node7&#45;&gt;Node14</title>
<path fill="none" stroke="midnightblue" d="M806.81,-456.5C782.88,-456.5 756.64,-456.5 733.66,-456.5"/>
<polygon fill="midnightblue" stroke="midnightblue" points="806.91,-460 816.91,-456.5 806.91,-453 806.91,-460"/>
</g>
<!-- Node9 -->
<g id="node9" class="node">
<title>Node9</title>
<g id="a_node9"><a xlink:href="classdenoptim_1_1ga_1_1_evolutionary_algorithm.html#a596b2f5f0b097c5b67a6e5163bd6fe66" target="_top" xlink:title="Generates a given number of new candidate items and adds them to the current population.">
<polygon fill="white" stroke="black" points="397.5,-490.5 397.5,-520.5 531.5,-520.5 531.5,-490.5 397.5,-490.5"/>
<text text-anchor="start" x="405.5" y="-508.5" font-family="Helvetica,sans-Serif" font-size="10.00">denoptim.ga.Evolutionary</text>
<text text-anchor="middle" x="464.5" y="-497.5" font-family="Helvetica,sans-Serif" font-size="10.00">Algorithm.evolvePopulation</text>
</a>
</g>
</g>
<!-- Node8&#45;&gt;Node9 -->
<g id="edge8" class="edge">
<title>Node8&#45;&gt;Node9</title>
<path fill="none" stroke="midnightblue" d="M596.1,-505.5C575.03,-505.5 552.16,-505.5 531.53,-505.5"/>
<polygon fill="midnightblue" stroke="midnightblue" points="596.28,-509 606.28,-505.5 596.28,-502 596.28,-509"/>
</g>
<!-- Node10 -->
<g id="node10" class="node">
<title>Node10</title>
<g id="a_node10"><a xlink:href="classdenoptim_1_1ga_1_1_evolutionary_algorithm.html#a6bfc2fa59b199da6259b5b6bad3d6de7" target="_top" xlink:title=" ">
<polygon fill="white" stroke="black" points="207.5,-465.5 207.5,-495.5 331.5,-495.5 331.5,-465.5 207.5,-465.5"/>
<text text-anchor="start" x="215.5" y="-483.5" font-family="Helvetica,sans-Serif" font-size="10.00">denoptim.ga.Evolutionary</text>
<text text-anchor="middle" x="269.5" y="-472.5" font-family="Helvetica,sans-Serif" font-size="10.00">Algorithm.run</text>
</a>
</g>
</g>
<!-- Node9&#45;&gt;Node10 -->
<g id="edge9" class="edge">
<title>Node9&#45;&gt;Node10</title>
<path fill="none" stroke="midnightblue" d="M387.23,-495.62C368.8,-493.23 349.33,-490.71 331.7,-488.43"/>
<polygon fill="midnightblue" stroke="midnightblue" points="386.98,-499.12 397.35,-496.93 387.88,-492.18 386.98,-499.12"/>
</g>
<!-- Node11 -->
<g id="node11" class="node">
<title>Node11</title>
<g id="a_node11"><a xlink:href="classdenoptim_1_1ga_1_1_evolutionary_algorithm.html#a0f2063b722b7291daf83d62acaa683d3" target="_top" xlink:title=" ">
<polygon fill="white" stroke="black" points="0,-490.5 0,-520.5 154,-520.5 154,-490.5 0,-490.5"/>
<text text-anchor="start" x="8" y="-508.5" font-family="Helvetica,sans-Serif" font-size="10.00">denoptim.ga.Evolutionary</text>
<text text-anchor="middle" x="77" y="-497.5" font-family="Helvetica,sans-Serif" font-size="10.00">Algorithm.EvolutionaryAlgorithm</text>
</a>
</g>
</g>
<!-- Node10&#45;&gt;Node11 -->
<g id="edge10" class="edge">
<title>Node10&#45;&gt;Node11</title>
<path fill="none" stroke="midnightblue" d="M197.32,-489.84C183.21,-491.69 168.35,-493.64 154.09,-495.51"/>
<polygon fill="midnightblue" stroke="midnightblue" points="197.98,-493.28 207.44,-488.51 197.07,-486.34 197.98,-493.28"/>
</g>
<!-- Node12 -->
<g id="node12" class="node">
<title>Node12</title>
<g id="a_node12"><a xlink:href="classdenoptim_1_1programs_1_1denovo_1_1_g_a_runner.html#a7cafd6d78727b89dce3e2c8d06f0dd7c" target="_top" xlink:title=" ">
<polygon fill="white" stroke="black" points="9.5,-441.5 9.5,-471.5 144.5,-471.5 144.5,-441.5 9.5,-441.5"/>
<text text-anchor="start" x="17.5" y="-459.5" font-family="Helvetica,sans-Serif" font-size="10.00">denoptim.programs.denovo.</text>
<text text-anchor="middle" x="77" y="-448.5" font-family="Helvetica,sans-Serif" font-size="10.00">GARunner.runProgram</text>
</a>
</g>
</g>
<!-- Node10&#45;&gt;Node12 -->
<g id="edge11" class="edge">
<title>Node10&#45;&gt;Node12</title>
<path fill="none" stroke="midnightblue" d="M197.41,-471.54C180.13,-469.37 161.72,-467.05 144.65,-464.9"/>
<polygon fill="midnightblue" stroke="midnightblue" points="197.08,-475.03 207.44,-472.81 197.95,-468.08 197.08,-475.03"/>
</g>
<!-- Node14&#45;&gt;Node9 -->
<g id="edge14" class="edge">
<title>Node14&#45;&gt;Node9</title>
<path fill="none" stroke="midnightblue" d="M596.72,-473.9C574.21,-479.32 549.59,-485.25 527.82,-490.49"/>
<polygon fill="midnightblue" stroke="midnightblue" points="597.66,-477.28 606.56,-471.53 596.02,-470.47 597.66,-477.28"/>
</g>
<!-- Node15 -->
<g id="node15" class="node">
<title>Node15</title>
<g id="a_node15"><a xlink:href="classdenoptim_1_1ga_1_1_evolutionary_algorithm.html#ad43588620dab3340e0d8b0042ec73618" target="_top" xlink:title="Fills up the population with candidates build from scratch.">
<polygon fill="white" stroke="black" points="394.5,-441.5 394.5,-471.5 534.5,-471.5 534.5,-441.5 394.5,-441.5"/>
<text text-anchor="start" x="402.5" y="-459.5" font-family="Helvetica,sans-Serif" font-size="10.00">denoptim.ga.Evolutionary</text>
<text text-anchor="middle" x="464.5" y="-448.5" font-family="Helvetica,sans-Serif" font-size="10.00">Algorithm.initializePopulation</text>
</a>
</g>
</g>
<!-- Node14&#45;&gt;Node15 -->
<g id="edge15" class="edge">
<title>Node14&#45;&gt;Node15</title>
<path fill="none" stroke="midnightblue" d="M596.01,-456.5C576.05,-456.5 554.49,-456.5 534.74,-456.5"/>
<polygon fill="midnightblue" stroke="midnightblue" points="596.28,-460 606.28,-456.5 596.28,-453 596.28,-460"/>
</g>
<!-- Node15&#45;&gt;Node10 -->
<g id="edge16" class="edge">
<title>Node15&#45;&gt;Node10</title>
<path fill="none" stroke="midnightblue" d="M384.18,-466.36C366.69,-468.54 348.43,-470.81 331.78,-472.88"/>
<polygon fill="midnightblue" stroke="midnightblue" points="384.88,-469.8 394.37,-465.1 384.01,-462.86 384.88,-469.8"/>
</g>
<!-- Node18 -->
<g id="node18" class="node">
<title>Node18</title>
<g id="a_node18"><a xlink:href="classdenoptim_1_1ga_1_1_graph_operations.html#afd659e74a056d1a6ae6f52513fee0be3" target="_top" xlink:title="Deletes the given vertex and all other vertexes that are not connected to more than 2 non&#45;capping gro...">
<polygon fill="white" stroke="black" points="796,-98.5 796,-128.5 969,-128.5 969,-98.5 796,-98.5"/>
<text text-anchor="start" x="804" y="-116.5" font-family="Helvetica,sans-Serif" font-size="10.00">denoptim.ga.GraphOperations.delete</text>
<text text-anchor="middle" x="882.5" y="-105.5" font-family="Helvetica,sans-Serif" font-size="10.00">Chain</text>
</a>
</g>
</g>
<!-- Node17&#45;&gt;Node18 -->
<g id="edge19" class="edge">
<title>Node17&#45;&gt;Node18</title>
<path fill="none" stroke="midnightblue" d="M1009.73,-135.58C996.39,-133.25 982.59,-130.84 969.23,-128.5"/>
<polygon fill="midnightblue" stroke="midnightblue" points="1009.38,-139.08 1019.84,-137.35 1010.59,-132.18 1009.38,-139.08"/>
</g>
<!-- Node19 -->
<g id="node19" class="node">
<title>Node19</title>
<g id="a_node19"><a xlink:href="classdenoptim_1_1ga_1_1_graph_operations.html#a0c851972015fbb4b2a317b053b8b81d9" target="_top" xlink:title="Mutates the given vertex according to the given mutation type, if possible.">
<polygon fill="white" stroke="black" points="580,-98.5 580,-128.5 760,-128.5 760,-98.5 580,-98.5"/>
<text text-anchor="start" x="588" y="-116.5" font-family="Helvetica,sans-Serif" font-size="10.00">denoptim.ga.GraphOperations.perform</text>
<text text-anchor="middle" x="670" y="-105.5" font-family="Helvetica,sans-Serif" font-size="10.00">Mutation</text>
</a>
</g>
</g>
<!-- Node18&#45;&gt;Node19 -->
<g id="edge20" class="edge">
<title>Node18&#45;&gt;Node19</title>
<path fill="none" stroke="midnightblue" d="M785.65,-113.5C777.21,-113.5 768.69,-113.5 760.31,-113.5"/>
<polygon fill="midnightblue" stroke="midnightblue" points="785.88,-117 795.88,-113.5 785.88,-110 785.88,-117"/>
</g>
<!-- Node20&#45;&gt;Node4 -->
<g id="edge22" class="edge">
<title>Node20&#45;&gt;Node4</title>
<path fill="none" stroke="midnightblue" d="M1068.73,-288.45C1050.47,-303.97 1025.78,-325.49 1005,-345.5 988.24,-361.64 988.92,-371.48 969,-383.5 963.32,-386.93 957.14,-389.88 950.79,-392.42"/>
<polygon fill="midnightblue" stroke="midnightblue" points="1071.26,-290.89 1076.63,-281.76 1066.74,-285.55 1071.26,-290.89"/>
</g>
<!-- Node21 -->
<g id="node21" class="node">
<title>Node21</title>
<g id="a_node21"><a xlink:href="classdenoptim_1_1graph_1_1_d_graph.html#a86e888ef245d2bd40b49d145c7ef3af0" target="_top" xlink:title="Replaced the subgraph represented by a given collection of vertices that belong to this graph.">
<polygon fill="white" stroke="black" points="806.5,-294.5 806.5,-324.5 958.5,-324.5 958.5,-294.5 806.5,-294.5"/>
<text text-anchor="start" x="814.5" y="-312.5" font-family="Helvetica,sans-Serif" font-size="10.00">denoptim.graph.DGraph.replace</text>
<text text-anchor="middle" x="882.5" y="-301.5" font-family="Helvetica,sans-Serif" font-size="10.00">SubGraph</text>
</a>
</g>
</g>
<!-- Node20&#45;&gt;Node21 -->
<g id="edge23" class="edge">
<title>Node20&#45;&gt;Node21</title>
<path fill="none" stroke="midnightblue" d="M1010.76,-283.63C993.12,-287.21 974.66,-290.97 957.43,-294.47"/>
<polygon fill="midnightblue" stroke="midnightblue" points="1011.93,-286.96 1021.03,-281.54 1010.53,-280.1 1011.93,-286.96"/>
</g>
<!-- Node25 -->
<g id="node25" class="node">
<title>Node25</title>
<g id="a_node25"><a xlink:href="classdenoptim_1_1graph_1_1_d_graph.html#adc362402e41af41656e820def73de5ad" target="_top" xlink:title="Replaced a given vertex belonging to this graph with a new vertex generated specifically for this pur...">
<polygon fill="white" stroke="black" points="806.5,-245.5 806.5,-275.5 958.5,-275.5 958.5,-245.5 806.5,-245.5"/>
<text text-anchor="start" x="814.5" y="-263.5" font-family="Helvetica,sans-Serif" font-size="10.00">denoptim.graph.DGraph.replace</text>
<text text-anchor="middle" x="882.5" y="-252.5" font-family="Helvetica,sans-Serif" font-size="10.00">Vertex</text>
</a>
</g>
</g>
<!-- Node20&#45;&gt;Node25 -->
<g id="edge28" class="edge">
<title>Node20&#45;&gt;Node25</title>
<path fill="none" stroke="midnightblue" d="M1009.49,-264.07C992.7,-263.6 975.2,-263.1 958.78,-262.64"/>
<polygon fill="midnightblue" stroke="midnightblue" points="1009.74,-267.58 1019.84,-264.37 1009.94,-260.59 1009.74,-267.58"/>
</g>
<!-- Node26 -->
<g id="node26" class="node">
<title>Node26</title>
<g id="a_node26"><a xlink:href="classdenoptim_1_1graph_1_1_d_graph_test.html#aea227d615f6c2f3bac5839a8099a900d" target="_top" xlink:title=" ">
<polygon fill="white" stroke="black" points="804.5,-196.5 804.5,-226.5 960.5,-226.5 960.5,-196.5 804.5,-196.5"/>
<text text-anchor="start" x="812.5" y="-214.5" font-family="Helvetica,sans-Serif" font-size="10.00">denoptim.graph.DGraphTest.test</text>
<text text-anchor="middle" x="882.5" y="-203.5" font-family="Helvetica,sans-Serif" font-size="10.00">IsIsostructuralTo</text>
</a>
</g>
</g>
<!-- Node20&#45;&gt;Node26 -->
<g id="edge29" class="edge">
<title>Node20&#45;&gt;Node26</title>
<path fill="none" stroke="midnightblue" d="M1027.2,-248.87C999.5,-241.67 967.79,-233.42 941.22,-226.51"/>
<polygon fill="midnightblue" stroke="midnightblue" points="1026.65,-252.34 1037.21,-251.47 1028.41,-245.57 1026.65,-252.34"/>
</g>
<!-- Node27 -->
<g id="node27" class="node">
<title>Node27</title>
<g id="a_node27"><a xlink:href="classdenoptim_1_1graph_1_1_d_graph_test.html#a83a9624ea5dc6a2c515407b865b62611" target="_top" xlink:title=" ">
<polygon fill="white" stroke="black" points="804.5,-147.5 804.5,-177.5 960.5,-177.5 960.5,-147.5 804.5,-147.5"/>
<text text-anchor="start" x="812.5" y="-165.5" font-family="Helvetica,sans-Serif" font-size="10.00">denoptim.graph.DGraphTest.test</text>
<text text-anchor="middle" x="882.5" y="-154.5" font-family="Helvetica,sans-Serif" font-size="10.00">ReplaceSubGraph</text>
</a>
</g>
</g>
<!-- Node20&#45;&gt;Node27 -->
<g id="edge30" class="edge">
<title>Node20&#45;&gt;Node27</title>
<path fill="none" stroke="midnightblue" d="M1011.43,-246.7C1009.21,-245.39 1007.06,-243.99 1005,-242.5 981.32,-225.38 992.47,-204.9 969,-187.5 963.78,-183.63 957.97,-180.36 951.91,-177.59"/>
<polygon fill="midnightblue" stroke="midnightblue" points="1009.81,-249.8 1020.29,-251.35 1013.06,-243.6 1009.81,-249.8"/>
</g>
<!-- Node28 -->
<g id="node28" class="node">
<title>Node28</title>
<g id="a_node28"><a xlink:href="classdenoptim_1_1graph_1_1_d_graph_test.html#a0c949ec1131a872dea53524614b3b42a" target="_top" xlink:title=" ">
<polygon fill="white" stroke="black" points="804.5,-343.5 804.5,-373.5 960.5,-373.5 960.5,-343.5 804.5,-343.5"/>
<text text-anchor="start" x="812.5" y="-361.5" font-family="Helvetica,sans-Serif" font-size="10.00">denoptim.graph.DGraphTest.test</text>
<text text-anchor="middle" x="882.5" y="-350.5" font-family="Helvetica,sans-Serif" font-size="10.00">ReplaceSubGraph_inTemplate</text>
</a>
</g>
</g>
<!-- Node20&#45;&gt;Node28 -->
<g id="edge31" class="edge">
<title>Node20&#45;&gt;Node28</title>
<path fill="none" stroke="midnightblue" d="M1062.02,-286.92C1037.16,-301.66 1001.84,-321.22 969,-334.5 961,-337.74 952.4,-340.71 943.86,-343.37"/>
<polygon fill="midnightblue" stroke="midnightblue" points="1063.91,-289.87 1070.69,-281.73 1060.31,-283.86 1063.91,-289.87"/>
</g>
<!-- Node22 -->
<g id="node22" class="node">
<title>Node22</title>
<g id="a_node22"><a xlink:href="classdenoptim_1_1ga_1_1_graph_operations.html#affb1be89a32e4a429bd7dbdfe0708419" target="_top" xlink:title="Performs the crossover that swaps the two subgraphs defining the given XoverSite.">
<polygon fill="white" stroke="black" points="580,-299.5 580,-329.5 760,-329.5 760,-299.5 580,-299.5"/>
<text text-anchor="start" x="588" y="-317.5" font-family="Helvetica,sans-Serif" font-size="10.00">denoptim.ga.GraphOperations.perform</text>
<text text-anchor="middle" x="670" y="-306.5" font-family="Helvetica,sans-Serif" font-size="10.00">Crossover</text>
</a>
</g>
</g>
<!-- Node21&#45;&gt;Node22 -->
<g id="edge24" class="edge">
<title>Node21&#45;&gt;Node22</title>
<path fill="none" stroke="midnightblue" d="M796.08,-311.53C784.23,-311.81 772.02,-312.1 760.1,-312.38"/>
<polygon fill="midnightblue" stroke="midnightblue" points="796.48,-315.02 806.4,-311.28 796.32,-308.02 796.48,-315.02"/>
</g>
<!-- Node22&#45;&gt;Node13 -->
<g id="edge25" class="edge">
<title>Node22&#45;&gt;Node13</title>
<path fill="none" stroke="midnightblue" d="M614.36,-332.89C603,-336.72 591.11,-340.74 580,-344.5 556.73,-352.39 530.81,-361.21 509.53,-368.47"/>
<polygon fill="midnightblue" stroke="midnightblue" points="615.81,-336.09 624.17,-329.58 613.58,-329.46 615.81,-336.09"/>
</g>
<!-- Node23 -->
<g id="node23" class="node">
<title>Node23</title>
<g id="a_node23"><a xlink:href="classdenoptim_1_1programs_1_1genetweeker_1_1_gene_ops_runner.html#ab0f92a94c4fb2334e7d3813e73fc4247" target="_top" xlink:title=" ">
<polygon fill="white" stroke="black" points="385,-299.5 385,-329.5 544,-329.5 544,-299.5 385,-299.5"/>
<text text-anchor="start" x="393" y="-317.5" font-family="Helvetica,sans-Serif" font-size="10.00">denoptim.programs.genetweeker.</text>
<text text-anchor="middle" x="464.5" y="-306.5" font-family="Helvetica,sans-Serif" font-size="10.00">GeneOpsRunner.runXOver</text>
</a>
</g>
</g>
<!-- Node22&#45;&gt;Node23 -->
<g id="edge26" class="edge">
<title>Node22&#45;&gt;Node23</title>
<path fill="none" stroke="midnightblue" d="M569.7,-314.5C561.12,-314.5 552.53,-314.5 544.15,-314.5"/>
<polygon fill="midnightblue" stroke="midnightblue" points="569.74,-318 579.74,-314.5 569.74,-311 569.74,-318"/>
</g>
<!-- Node24 -->
<g id="node24" class="node">
<title>Node24</title>
<g id="a_node24"><a xlink:href="classdenoptim_1_1programs_1_1genetweeker_1_1_gene_ops_runner.html#a3c2407eb1204a7b25600d3d347d98447" target="_top" xlink:title=" ">
<polygon fill="white" stroke="black" points="190,-299.5 190,-329.5 349,-329.5 349,-299.5 190,-299.5"/>
<text text-anchor="start" x="198" y="-317.5" font-family="Helvetica,sans-Serif" font-size="10.00">denoptim.programs.genetweeker.</text>
<text text-anchor="middle" x="269.5" y="-306.5" font-family="Helvetica,sans-Serif" font-size="10.00">GeneOpsRunner.runProgram</text>
</a>
</g>
</g>
<!-- Node23&#45;&gt;Node24 -->
<g id="edge27" class="edge">
<title>Node23&#45;&gt;Node24</title>
<path fill="none" stroke="midnightblue" d="M374.98,-314.5C366.39,-314.5 357.72,-314.5 349.24,-314.5"/>
<polygon fill="midnightblue" stroke="midnightblue" points="375,-318 385,-314.5 375,-311 375,-318"/>
</g>
<!-- Node29&#45;&gt;Node29 -->
<g id="edge33" class="edge">
<title>Node29&#45;&gt;Node29</title>
<path fill="none" stroke="midnightblue" d="M1135.28,-90.12C1136.65,-96.36 1123.56,-101.5 1096,-101.5 1058.47,-101.5 1047.77,-91.96 1063.89,-83.11"/>
<polygon fill="midnightblue" stroke="midnightblue" points="1137.7,-87.6 1128.11,-83.11 1132.81,-92.6 1137.7,-87.6"/>
</g>
<!-- Node30 -->
<g id="node30" class="node">
<title>Node30</title>
<g id="a_node30"><a xlink:href="classdenoptim_1_1graph_1_1_edge_test.html#a3069ad18e9587a0315ec276104e64f77" target="_top" xlink:title=" ">
<polygon fill="white" stroke="black" points="810,-0.5 810,-30.5 955,-30.5 955,-0.5 810,-0.5"/>
<text text-anchor="start" x="818" y="-18.5" font-family="Helvetica,sans-Serif" font-size="10.00">denoptim.graph.EdgeTest.test</text>
<text text-anchor="middle" x="882.5" y="-7.5" font-family="Helvetica,sans-Serif" font-size="10.00">SameAs_DiffBndTyp</text>
</a>
</g>
</g>
<!-- Node29&#45;&gt;Node30 -->
<g id="edge34" class="edge">
<title>Node29&#45;&gt;Node30</title>
<path fill="none" stroke="midnightblue" d="M1032.7,-61.73C1023.36,-59.57 1013.88,-57.14 1005,-54.5 988.55,-49.6 985.25,-46.03 969,-40.5 958.9,-37.07 948.03,-33.67 937.54,-30.53"/>
<polygon fill="midnightblue" stroke="midnightblue" points="1032.24,-65.21 1042.76,-63.98 1033.77,-58.38 1032.24,-65.21"/>
</g>
<!-- Node31 -->
<g id="node31" class="node">
<title>Node31</title>
<g id="a_node31"><a xlink:href="classdenoptim_1_1graph_1_1_edge_test.html#a56c2ae67fa720a5a4f9fe3fccaddb54a" target="_top" xlink:title=" ">
<polygon fill="white" stroke="black" points="810,-49.5 810,-79.5 955,-79.5 955,-49.5 810,-49.5"/>
<text text-anchor="start" x="818" y="-67.5" font-family="Helvetica,sans-Serif" font-size="10.00">denoptim.graph.EdgeTest.test</text>
<text text-anchor="middle" x="882.5" y="-56.5" font-family="Helvetica,sans-Serif" font-size="10.00">SameAs_Equal</text>
</a>
</g>
</g>
<!-- Node29&#45;&gt;Node31 -->
<g id="edge35" class="edge">
<title>Node29&#45;&gt;Node31</title>
<path fill="none" stroke="midnightblue" d="M1013.18,-70.02C994,-69.2 973.72,-68.34 955.03,-67.54"/>
<polygon fill="midnightblue" stroke="midnightblue" points="1013.26,-73.52 1023.4,-70.45 1013.55,-66.53 1013.26,-73.52"/>
</g>
</g>
</svg>
