<?xml version="1.0" encoding="UTF-8" standalone="no"?>
<!DOCTYPE svg PUBLIC "-//W3C//DTD SVG 1.1//EN"
 "http://www.w3.org/Graphics/SVG/1.1/DTD/svg11.dtd">
<!-- Generated by graphviz version 3.0.0 (20220413.0242)
 -->
<!-- Title: denoptim.graph.Vertex.getIAtomContainer Pages: 1 -->
<svg width="592pt" height="359pt"
 viewBox="0.00 0.00 592.00 359.00" xmlns="http://www.w3.org/2000/svg" xmlns:xlink="http://www.w3.org/1999/xlink">
<g id="graph0" class="graph" transform="scale(1 1) rotate(0) translate(4 355)">
<title>denoptim.graph.Vertex.getIAtomContainer</title>
<polygon fill="white" stroke="transparent" points="-4,4 -4,-355 588,-355 588,4 -4,4"/>
<!-- Node1 -->
<g id="node1" class="node">
<title>Node1</title>
<g id="a_node1"><a xlink:title=" ">
<polygon fill="#bfbfbf" stroke="black" points="456,-153 456,-183 584,-183 584,-153 456,-153"/>
<text text-anchor="start" x="464" y="-171" font-family="Helvetica,sans-Serif" font-size="10.00">denoptim.graph.Vertex.get</text>
<text text-anchor="middle" x="520" y="-160" font-family="Helvetica,sans-Serif" font-size="10.00">IAtomContainer</text>
</a>
</g>
</g>
<!-- Node2 -->
<g id="node2" class="node">
<title>Node2</title>
<g id="a_node2"><a xlink:href="classdenoptim_1_1molecularmodeling_1_1_three_dim_tree_builder.html#a0ba24f9b6e98f948d35c7853fdc543f5" target="_top" xlink:title="Recursive method that appends branches of building blocks following the edges of the graph.">
<polygon fill="white" stroke="black" points="220,-291.5 220,-332.5 420,-332.5 420,-291.5 220,-291.5"/>
<text text-anchor="start" x="228" y="-320.5" font-family="Helvetica,sans-Serif" font-size="10.00">denoptim.molecularmodeling.</text>
<text text-anchor="start" x="228" y="-309.5" font-family="Helvetica,sans-Serif" font-size="10.00">ThreeDimTreeBuilder.append3DFragments</text>
<text text-anchor="middle" x="320" y="-298.5" font-family="Helvetica,sans-Serif" font-size="10.00">ViaEdges</text>
</a>
</g>
</g>
<!-- Node1&#45;&gt;Node2 -->
<g id="edge1" class="edge">
<title>Node1&#45;&gt;Node2</title>
<path fill="none" stroke="midnightblue" d="M502.56,-191.4C484.68,-215.33 454.07,-252.14 420,-275 410.48,-281.39 399.7,-286.86 388.86,-291.49"/>
<polygon fill="midnightblue" stroke="midnightblue" points="505.47,-193.36 508.55,-183.22 499.82,-189.22 505.47,-193.36"/>
</g>
<!-- Node3 -->
<g id="node3" class="node">
<title>Node3</title>
<g id="a_node3"><a xlink:href="classdenoptim_1_1molecularmodeling_1_1_three_dim_tree_builder.html#acbaf5061621ed283eecc80a51b523422" target="_top" xlink:title="Created a three&#45;dimensional molecular representation from a given DGraph.">
<polygon fill="white" stroke="black" points="7.5,-293.5 7.5,-334.5 176.5,-334.5 176.5,-293.5 7.5,-293.5"/>
<text text-anchor="start" x="15.5" y="-322.5" font-family="Helvetica,sans-Serif" font-size="10.00">denoptim.molecularmodeling.</text>
<text text-anchor="start" x="15.5" y="-311.5" font-family="Helvetica,sans-Serif" font-size="10.00">ThreeDimTreeBuilder.convertGraph</text>
<text text-anchor="middle" x="92" y="-300.5" font-family="Helvetica,sans-Serif" font-size="10.00">To3DAtomContainer</text>
</a>
</g>
</g>
<!-- Node1&#45;&gt;Node3 -->
<g id="edge4" class="edge">
<title>Node1&#45;&gt;Node3</title>
<path fill="none" stroke="midnightblue" d="M493.78,-189.73C474.7,-205.09 447.22,-225.01 420,-237 336.62,-273.74 308.63,-260.87 220,-282 204.85,-285.61 188.71,-289.58 173.21,-293.46"/>
<polygon fill="midnightblue" stroke="midnightblue" points="496.16,-192.3 501.67,-183.25 491.72,-186.89 496.16,-192.3"/>
</g>
<!-- Node4 -->
<g id="node4" class="node">
<title>Node4</title>
<g id="a_node4"><a xlink:href="classdenoptim_1_1fragmenter_1_1_fragmenter_tools.html#ac485c253cfb295e84e2d77b2c253b5b8" target="_top" xlink:title="Determines the name of the MW slot to use when comparing the given fragment with previously stored fr...">
<polygon fill="white" stroke="black" points="241.5,-197 241.5,-227 398.5,-227 398.5,-197 241.5,-197"/>
<text text-anchor="start" x="249.5" y="-215" font-family="Helvetica,sans-Serif" font-size="10.00">denoptim.fragmenter.Fragmenter</text>
<text text-anchor="middle" x="320" y="-204" font-family="Helvetica,sans-Serif" font-size="10.00">Tools.getMWSlotIdentifier</text>
</a>
</g>
</g>
<!-- Node1&#45;&gt;Node4 -->
<g id="edge5" class="edge">
<title>Node1&#45;&gt;Node4</title>
<path fill="none" stroke="midnightblue" d="M445.87,-184.25C427.17,-188.41 407.14,-192.86 388.72,-196.95"/>
<polygon fill="midnightblue" stroke="midnightblue" points="446.8,-187.63 455.81,-182.04 445.29,-180.8 446.8,-187.63"/>
</g>
<!-- Node8 -->
<g id="node8" class="node">
<title>Node8</title>
<g id="a_node8"><a xlink:href="classdenoptim_1_1gui_1_1_g_u_i_vertex_inspector.html#acadecc92299a7ea46113c06382a1f333" target="_top" xlink:title="Initialize the panel and add buttons.">
<polygon fill="white" stroke="black" points="221.5,-158.5 221.5,-177.5 418.5,-177.5 418.5,-158.5 221.5,-158.5"/>
<text text-anchor="middle" x="320" y="-165.5" font-family="Helvetica,sans-Serif" font-size="10.00">denoptim.gui.GUIVertexInspector.initialize</text>
</a>
</g>
</g>
<!-- Node1&#45;&gt;Node8 -->
<g id="edge9" class="edge">
<title>Node1&#45;&gt;Node8</title>
<path fill="none" stroke="midnightblue" d="M445.61,-168C436.79,-168 427.69,-168 418.6,-168"/>
<polygon fill="midnightblue" stroke="midnightblue" points="445.81,-171.5 455.81,-168 445.81,-164.5 445.81,-171.5"/>
</g>
<!-- Node10 -->
<g id="node10" class="node">
<title>Node10</title>
<g id="a_node10"><a xlink:href="classdenoptim_1_1json_1_1_d_e_n_o_p_t_i_mgson_test.html#ac2186d67581bef7c19379247af6672d6" target="_top" xlink:title=" ">
<polygon fill="white" stroke="black" points="224.5,-109 224.5,-139 415.5,-139 415.5,-109 224.5,-109"/>
<text text-anchor="start" x="232.5" y="-127" font-family="Helvetica,sans-Serif" font-size="10.00">denoptim.json.DENOPTIMgson</text>
<text text-anchor="middle" x="320" y="-116" font-family="Helvetica,sans-Serif" font-size="10.00">Test.testMolecularFragmentSerialization</text>
</a>
</g>
</g>
<!-- Node1&#45;&gt;Node10 -->
<g id="edge11" class="edge">
<title>Node1&#45;&gt;Node10</title>
<path fill="none" stroke="midnightblue" d="M445.87,-151.75C427.17,-147.59 407.14,-143.14 388.72,-139.05"/>
<polygon fill="midnightblue" stroke="midnightblue" points="445.29,-155.2 455.81,-153.96 446.8,-148.37 445.29,-155.2"/>
</g>
<!-- Node11 -->
<g id="node11" class="node">
<title>Node11</title>
<g id="a_node11"><a xlink:href="classdenoptim_1_1json_1_1_d_e_n_o_p_t_i_mgson_test.html#a78e6eb5e60124f63897dd28e1c21082d" target="_top" xlink:title=" ">
<polygon fill="white" stroke="black" points="244,-60 244,-90 396,-90 396,-60 244,-60"/>
<text text-anchor="start" x="252" y="-78" font-family="Helvetica,sans-Serif" font-size="10.00">denoptim.json.DENOPTIMgson</text>
<text text-anchor="middle" x="320" y="-67" font-family="Helvetica,sans-Serif" font-size="10.00">Test.testTemplateSerialization</text>
</a>
</g>
</g>
<!-- Node1&#45;&gt;Node11 -->
<g id="edge12" class="edge">
<title>Node1&#45;&gt;Node11</title>
<path fill="none" stroke="midnightblue" d="M493.72,-146.4C474.61,-131.11 447.12,-111.22 420,-99 412.42,-95.59 404.29,-92.62 396.06,-90.04"/>
<polygon fill="midnightblue" stroke="midnightblue" points="491.66,-149.24 501.62,-152.85 496.09,-143.82 491.66,-149.24"/>
</g>
<!-- Node12 -->
<g id="node12" class="node">
<title>Node12</title>
<g id="a_node12"><a xlink:href="classdenoptim_1_1fragspace_1_1_fragment_space_test.html#a692723b803a64dd25e775b2f8726fe27" target="_top" xlink:title="Works with this graph:">
<polygon fill="white" stroke="black" points="227.5,-0.5 227.5,-41.5 412.5,-41.5 412.5,-0.5 227.5,-0.5"/>
<text text-anchor="start" x="235.5" y="-29.5" font-family="Helvetica,sans-Serif" font-size="10.00">denoptim.fragspace.Fragment</text>
<text text-anchor="start" x="235.5" y="-18.5" font-family="Helvetica,sans-Serif" font-size="10.00">SpaceTest.testUseWholeMolGeometry</text>
<text text-anchor="middle" x="320" y="-7.5" font-family="Helvetica,sans-Serif" font-size="10.00">ForExtractedTemplates</text>
</a>
</g>
</g>
<!-- Node1&#45;&gt;Node12 -->
<g id="edge13" class="edge">
<title>Node1&#45;&gt;Node12</title>
<path fill="none" stroke="midnightblue" d="M505.06,-144.12C488.22,-117.34 457.44,-74.47 420,-50 415.2,-46.86 410.06,-44.06 404.73,-41.55"/>
<polygon fill="midnightblue" stroke="midnightblue" points="502.21,-146.17 510.42,-152.87 508.18,-142.51 502.21,-146.17"/>
</g>
<!-- Node2&#45;&gt;Node2 -->
<g id="edge2" class="edge">
<title>Node2&#45;&gt;Node2</title>
<path fill="none" stroke="midnightblue" d="M354.41,-342.86C349.29,-347.7 337.82,-351 320,-351 291.48,-351 279.23,-342.54 283.24,-332.86"/>
<polygon fill="midnightblue" stroke="midnightblue" points="357.88,-343.4 356.76,-332.86 351.06,-341.8 357.88,-343.4"/>
</g>
<!-- Node2&#45;&gt;Node3 -->
<g id="edge3" class="edge">
<title>Node2&#45;&gt;Node3</title>
<path fill="none" stroke="midnightblue" d="M209.66,-312.97C198.51,-313.07 187.32,-313.17 176.51,-313.26"/>
<polygon fill="midnightblue" stroke="midnightblue" points="209.9,-316.47 219.87,-312.88 209.84,-309.47 209.9,-316.47"/>
</g>
<!-- Node5 -->
<g id="node5" class="node">
<title>Node5</title>
<g id="a_node5"><a xlink:href="classdenoptim_1_1fragmenter_1_1_conformer_extractor_task.html#a597e54ad1e629a89449ef6e9a150cb2b" target="_top" xlink:title="Constructs a task that will analyze the isomorphic family of the given fragment.">
<polygon fill="white" stroke="black" points="0,-245 0,-275 184,-275 184,-245 0,-245"/>
<text text-anchor="start" x="8" y="-263" font-family="Helvetica,sans-Serif" font-size="10.00">denoptim.fragmenter.Conformer</text>
<text text-anchor="middle" x="92" y="-252" font-family="Helvetica,sans-Serif" font-size="10.00">ExtractorTask.ConformerExtractorTask</text>
</a>
</g>
</g>
<!-- Node4&#45;&gt;Node5 -->
<g id="edge6" class="edge">
<title>Node4&#45;&gt;Node5</title>
<path fill="none" stroke="midnightblue" d="M238.18,-229.17C213.82,-234.34 187.28,-239.98 163.64,-245"/>
<polygon fill="midnightblue" stroke="midnightblue" points="239.06,-232.56 248.11,-227.06 237.6,-225.71 239.06,-232.56"/>
</g>
<!-- Node6 -->
<g id="node6" class="node">
<title>Node6</title>
<g id="a_node6"><a xlink:href="classdenoptim_1_1fragmenter_1_1_fragmenter_tools.html#a82c4a82da2a3283a870a8c8af94f0a4e" target="_top" xlink:title="Management of fragments: includes application of fragment filters, rejection rules,...">
<polygon fill="white" stroke="black" points="11.5,-196 11.5,-226 172.5,-226 172.5,-196 11.5,-196"/>
<text text-anchor="start" x="19.5" y="-214" font-family="Helvetica,sans-Serif" font-size="10.00">denoptim.fragmenter.Fragmenter</text>
<text text-anchor="middle" x="92" y="-203" font-family="Helvetica,sans-Serif" font-size="10.00">Tools.manageFragmentCollection</text>
</a>
</g>
</g>
<!-- Node4&#45;&gt;Node6 -->
<g id="edge7" class="edge">
<title>Node4&#45;&gt;Node6</title>
<path fill="none" stroke="midnightblue" d="M231,-211.61C211.84,-211.53 191.67,-211.44 172.84,-211.35"/>
<polygon fill="midnightblue" stroke="midnightblue" points="231.21,-215.11 241.22,-211.66 231.24,-208.11 231.21,-215.11"/>
</g>
<!-- Node7 -->
<g id="node7" class="node">
<title>Node7</title>
<g id="a_node7"><a xlink:href="classdenoptim_1_1fragmenter_1_1_fragmenter_tools_test.html#a5a2c187a2929b398bf814b504a7db3a0" target="_top" xlink:title=" ">
<polygon fill="white" stroke="black" points="9,-147 9,-177 175,-177 175,-147 9,-147"/>
<text text-anchor="start" x="17" y="-165" font-family="Helvetica,sans-Serif" font-size="10.00">denoptim.fragmenter.Fragmenter</text>
<text text-anchor="middle" x="92" y="-154" font-family="Helvetica,sans-Serif" font-size="10.00">ToolsTest.testGetMWSlotIdentifier</text>
</a>
</g>
</g>
<!-- Node4&#45;&gt;Node7 -->
<g id="edge8" class="edge">
<title>Node4&#45;&gt;Node7</title>
<path fill="none" stroke="midnightblue" d="M241.35,-194.82C215.29,-189.05 186.43,-182.67 161.15,-177.08"/>
<polygon fill="midnightblue" stroke="midnightblue" points="240.67,-198.26 251.19,-197 242.18,-191.42 240.67,-198.26"/>
</g>
<!-- Node9 -->
<g id="node9" class="node">
<title>Node9</title>
<g id="a_node9"><a xlink:href="classdenoptim_1_1gui_1_1_g_u_i_vertex_inspector.html#abc5d3c33ad9b2b114ce43e9b2cd577bb" target="_top" xlink:title="Constructor.">
<polygon fill="white" stroke="black" points="11,-98 11,-128 173,-128 173,-98 11,-98"/>
<text text-anchor="start" x="19" y="-116" font-family="Helvetica,sans-Serif" font-size="10.00">denoptim.gui.GUIVertexInspector.</text>
<text text-anchor="middle" x="92" y="-105" font-family="Helvetica,sans-Serif" font-size="10.00">GUIVertexInspector</text>
</a>
</g>
</g>
<!-- Node8&#45;&gt;Node9 -->
<g id="edge10" class="edge">
<title>Node8&#45;&gt;Node9</title>
<path fill="none" stroke="midnightblue" d="M256.75,-156.39C244.52,-153.83 231.82,-150.99 220,-148 203.78,-143.89 200.09,-141.58 184,-137 173.47,-134 162.22,-130.93 151.35,-128.03"/>
<polygon fill="midnightblue" stroke="midnightblue" points="256.39,-159.89 266.89,-158.46 257.8,-153.03 256.39,-159.89"/>
</g>
</g>
</svg>
