<?xml version="1.0" encoding="UTF-8" standalone="no"?>
<!DOCTYPE svg PUBLIC "-//W3C//DTD SVG 1.1//EN"
 "http://www.w3.org/Graphics/SVG/1.1/DTD/svg11.dtd">
<!-- Generated by graphviz version 3.0.0 (20220413.0242)
 -->
<!-- Title: denoptim.gui.GraphVertexMolViewerPanel.loadDnGraphToViewer Pages: 1 -->
<!--zoomable 432 -->
<svg id="main" version="1.1" xmlns="http://www.w3.org/2000/svg" xmlns:xlink="http://www.w3.org/1999/xlink" xml:space="preserve" onload="init(evt)">
<style type="text/css"><![CDATA[
.edge:hover path { stroke: red; }
.edge:hover polygon { stroke: red; fill: red; }
]]></style>
<script type="text/javascript"><![CDATA[
var edges = document.getElementsByTagName('g');
if (edges && edges.length) {
  for (var i=0;i<edges.length;i++) {
    if (edges[i].id.substr(0,4)=='edge') {
      edges[i].setAttribute('class','edge');
    }
  }
}
]]></script>
        <defs>
                <circle id="rim" cx="0" cy="0" r="7"/>
                <circle id="rim2" cx="0" cy="0" r="3.5"/>
                <g id="zoomPlus">
                        <use xlink:href="#rim" fill="#404040">
                                <set attributeName="fill" to="#808080" begin="zoomplus.mouseover" end="zoomplus.mouseout"/>
                        </use>
                        <path d="M-4,0h8M0,-4v8" fill="none" stroke="white" stroke-width="1.5" pointer-events="none"/>
                </g>
                <g id="zoomMin">
                        <use xlink:href="#rim" fill="#404040">
                                <set attributeName="fill" to="#808080" begin="zoomminus.mouseover" end="zoomminus.mouseout"/>
                        </use>
                        <path d="M-4,0h8" fill="none" stroke="white" stroke-width="1.5" pointer-events="none"/>
                </g>
                <g id="dirArrow">
                        <path fill="none" stroke="white" stroke-width="1.5" d="M0,-3.0v7 M-2.5,-0.5L0,-3.0L2.5,-0.5"/>
                </g>
               <g id="resetDef">
                       <use xlink:href="#rim2" fill="#404040">
                               <set attributeName="fill" to="#808080" begin="reset.mouseover" end="reset.mouseout"/>
                       </use>
               </g>
        </defs>

<script type="text/javascript">
var viewWidth = 1441;
var viewHeight = 432;
var sectionId = 'dynsection-26';
</script>
<script xlink:href="svgpan.js"/>
<svg id="graph" class="graph">
<g id="viewport">
<title>denoptim.gui.GraphVertexMolViewerPanel.loadDnGraphToViewer</title>
<polygon fill="white" stroke="transparent" points="-4,4 -4,-427.5 1437,-427.5 1437,4 -4,4"/>
<!-- Node1 -->
<g id="node1" class="node">
<title>Node1</title>
<g id="a_node1"><a xlink:title="Loads the given graph into the graph viewer.">
<polygon fill="#bfbfbf" stroke="black" points="1276,-305.5 1276,-346.5 1433,-346.5 1433,-305.5 1276,-305.5"/>
<text text-anchor="start" x="1284" y="-334.5" font-family="Helvetica,sans-Serif" font-size="10.00">denoptim.gui.GraphVertex</text>
<text text-anchor="start" x="1284" y="-323.5" font-family="Helvetica,sans-Serif" font-size="10.00">MolViewerPanel.loadDnGraphTo</text>
<text text-anchor="middle" x="1354.5" y="-312.5" font-family="Helvetica,sans-Serif" font-size="10.00">Viewer</text>
</a>
</g>
</g>
<!-- Node1&#45;&gt;Node1 -->
<g id="edge25" class="edge">
<title>Node1&#45;&gt;Node1</title>
<path fill="none" stroke="midnightblue" d="M1389.6,-356.86C1384.38,-361.7 1372.68,-365 1354.5,-365 1325.41,-365 1312.92,-356.54 1317.01,-346.86"/>
<polygon fill="midnightblue" stroke="midnightblue" points="1393.06,-357.4 1391.99,-346.86 1386.26,-355.77 1393.06,-357.4"/>
</g>
<!-- Node2 -->
<g id="node2" class="node">
<title>Node2</title>
<g id="a_node2"><a xlink:href="classdenoptim_1_1gui_1_1_g_u_i_graph_handler.html#af7024886a4203aa93d8cf7975f7c2e72" target="_top" xlink:title=" ">
<polygon fill="white" stroke="black" points="1059,-393 1059,-423 1240,-423 1240,-393 1059,-393"/>
<text text-anchor="start" x="1067" y="-411" font-family="Helvetica,sans-Serif" font-size="10.00">denoptim.gui.GUIGraphHandler.create</text>
<text text-anchor="middle" x="1149.5" y="-400" font-family="Helvetica,sans-Serif" font-size="10.00">EmptyVertexAndPlaceItInGraph</text>
</a>
</g>
</g>
<!-- Node1&#45;&gt;Node2 -->
<g id="edge1" class="edge">
<title>Node1&#45;&gt;Node2</title>
<path fill="none" stroke="midnightblue" d="M1302.17,-350.92C1282.87,-359.91 1260.61,-369.85 1240,-378 1226.74,-383.24 1212.16,-388.39 1198.68,-392.89"/>
<polygon fill="midnightblue" stroke="midnightblue" points="1303.82,-354.01 1311.38,-346.59 1300.84,-347.67 1303.82,-354.01"/>
</g>
<!-- Node3 -->
<g id="node3" class="node">
<title>Node3</title>
<g id="a_node3"><a xlink:href="classdenoptim_1_1gui_1_1_g_u_i_graph_handler.html#af5b000c105018cbd7c262b34f9750044" target="_top" xlink:title="Initialize the panel and add buttons.">
<polygon fill="white" stroke="black" points="570.5,-294.5 570.5,-313.5 758.5,-313.5 758.5,-294.5 570.5,-294.5"/>
<text text-anchor="middle" x="664.5" y="-301.5" font-family="Helvetica,sans-Serif" font-size="10.00">denoptim.gui.GUIGraphHandler.initialize</text>
</a>
</g>
</g>
<!-- Node1&#45;&gt;Node3 -->
<g id="edge6" class="edge">
<title>Node1&#45;&gt;Node3</title>
<path fill="none" stroke="midnightblue" d="M1265.58,-323.19C1135.26,-319.02 891.93,-311.24 758.65,-306.98"/>
<polygon fill="midnightblue" stroke="midnightblue" points="1265.81,-326.7 1275.92,-323.52 1266.03,-319.7 1265.81,-326.7"/>
</g>
<!-- Node5 -->
<g id="node5" class="node">
<title>Node5</title>
<g id="a_node5"><a xlink:href="classdenoptim_1_1gui_1_1_g_u_i_graph_handler.html#a857bfe6291322daccf2af3fd9a28a356" target="_top" xlink:title="Start the construction of a new graph from scratch.">
<polygon fill="white" stroke="black" points="799,-355 799,-385 1023,-385 1023,-355 799,-355"/>
<text text-anchor="start" x="807" y="-373" font-family="Helvetica,sans-Serif" font-size="10.00">denoptim.gui.GUIGraphHandler.start</text>
<text text-anchor="middle" x="911" y="-362" font-family="Helvetica,sans-Serif" font-size="10.00">GraphFromFragSpaceOrCreationOfEmptyVertex</text>
</a>
</g>
</g>
<!-- Node1&#45;&gt;Node5 -->
<g id="edge26" class="edge">
<title>Node1&#45;&gt;Node5</title>
<path fill="none" stroke="midnightblue" d="M1265.79,-337.1C1257.08,-338.12 1248.37,-339.1 1240,-340 1167.94,-347.74 1086.83,-355.17 1023.29,-360.7"/>
<polygon fill="midnightblue" stroke="midnightblue" points="1266.48,-340.54 1276,-335.89 1265.66,-333.59 1266.48,-340.54"/>
</g>
<!-- Node6 -->
<g id="node6" class="node">
<title>Node6</title>
<g id="a_node6"><a xlink:href="classdenoptim_1_1gui_1_1_g_u_i_graph_handler.html#ad71f3e0107bfa15b942563cfcf6f260a" target="_top" xlink:title="Loads the graph corresponding to the field currGrphIdx.">
<polygon fill="white" stroke="black" points="1063.5,-218 1063.5,-248 1235.5,-248 1235.5,-218 1063.5,-218"/>
<text text-anchor="start" x="1071.5" y="-236" font-family="Helvetica,sans-Serif" font-size="10.00">denoptim.gui.GUIGraphHandler.load</text>
<text text-anchor="middle" x="1149.5" y="-225" font-family="Helvetica,sans-Serif" font-size="10.00">CurrentGraphIdxToViewer</text>
</a>
</g>
</g>
<!-- Node1&#45;&gt;Node6 -->
<g id="edge7" class="edge">
<title>Node1&#45;&gt;Node6</title>
<path fill="none" stroke="midnightblue" d="M1299.57,-301.29C1262.66,-284.38 1214.91,-262.51 1183.52,-248.13"/>
<polygon fill="midnightblue" stroke="midnightblue" points="1298.15,-304.49 1308.7,-305.48 1301.07,-298.13 1298.15,-304.49"/>
</g>
<!-- Node20 -->
<g id="node20" class="node">
<title>Node20</title>
<g id="a_node20"><a xlink:href="classdenoptim_1_1gui_1_1_graph_vertex_mol_viewer_panel.html#a5edf6f6270bf3d180455295bffb57df0" target="_top" xlink:title="Makes a clone of the given vertex and loads that clone into the nested visualization frame.">
<polygon fill="white" stroke="black" points="1072,-60.5 1072,-101.5 1227,-101.5 1227,-60.5 1072,-60.5"/>
<text text-anchor="start" x="1080" y="-89.5" font-family="Helvetica,sans-Serif" font-size="10.00">denoptim.gui.GraphVertex</text>
<text text-anchor="start" x="1080" y="-78.5" font-family="Helvetica,sans-Serif" font-size="10.00">MolViewerPanel.visualizeVertex</text>
<text text-anchor="middle" x="1149.5" y="-67.5" font-family="Helvetica,sans-Serif" font-size="10.00">InNestedViewer</text>
</a>
</g>
</g>
<!-- Node1&#45;&gt;Node20 -->
<g id="edge27" class="edge">
<title>Node1&#45;&gt;Node20</title>
<path fill="none" stroke="midnightblue" d="M1329.69,-297.27C1288.31,-247.32 1204.06,-145.64 1167.76,-101.84"/>
<polygon fill="midnightblue" stroke="midnightblue" points="1327.12,-299.64 1336.19,-305.11 1332.51,-295.18 1327.12,-299.64"/>
</g>
<!-- Node2&#45;&gt;Node3 -->
<g id="edge2" class="edge">
<title>Node2&#45;&gt;Node3</title>
<path fill="none" stroke="midnightblue" d="M1048.52,-418.74C977.19,-422.96 879.95,-421.62 799,-395 746.51,-377.74 695.75,-333.15 675.14,-313.52"/>
<polygon fill="midnightblue" stroke="midnightblue" points="1049.1,-422.21 1058.85,-418.08 1048.65,-415.22 1049.1,-422.21"/>
</g>
<!-- Node2&#45;&gt;Node5 -->
<g id="edge4" class="edge">
<title>Node2&#45;&gt;Node5</title>
<path fill="none" stroke="midnightblue" d="M1048.48,-391.93C1034.27,-389.65 1019.7,-387.31 1005.62,-385.04"/>
<polygon fill="midnightblue" stroke="midnightblue" points="1048.32,-395.45 1058.75,-393.58 1049.43,-388.54 1048.32,-395.45"/>
</g>
<!-- Node4 -->
<g id="node4" class="node">
<title>Node4</title>
<g id="a_node4"><a xlink:href="classdenoptim_1_1gui_1_1_g_u_i_graph_handler.html#ab7d010d9a384f6b85edce47c95d6723b" target="_top" xlink:title="Constructor.">
<polygon fill="white" stroke="black" points="372,-289 372,-319 526,-319 526,-289 372,-289"/>
<text text-anchor="start" x="380" y="-307" font-family="Helvetica,sans-Serif" font-size="10.00">denoptim.gui.GUIGraphHandler.</text>
<text text-anchor="middle" x="449" y="-296" font-family="Helvetica,sans-Serif" font-size="10.00">GUIGraphHandler</text>
</a>
</g>
</g>
<!-- Node3&#45;&gt;Node4 -->
<g id="edge3" class="edge">
<title>Node3&#45;&gt;Node4</title>
<path fill="none" stroke="midnightblue" d="M560.35,-304C548.8,-304 537.19,-304 526.07,-304"/>
<polygon fill="midnightblue" stroke="midnightblue" points="560.48,-307.5 570.48,-304 560.48,-300.5 560.48,-307.5"/>
</g>
<!-- Node5&#45;&gt;Node3 -->
<g id="edge5" class="edge">
<title>Node5&#45;&gt;Node3</title>
<path fill="none" stroke="midnightblue" d="M844.31,-352.27C798.24,-339.83 738.43,-323.69 701,-313.58"/>
<polygon fill="midnightblue" stroke="midnightblue" points="843.65,-355.71 854.21,-354.94 845.47,-348.96 843.65,-355.71"/>
</g>
<!-- Node7 -->
<g id="node7" class="node">
<title>Node7</title>
<g id="a_node7"><a xlink:href="classdenoptim_1_1gui_1_1_g_u_i_graph_handler.html#a9c42cf2eaeda70e10b570a290cce5518" target="_top" xlink:title=" ">
<polygon fill="white" stroke="black" points="818.5,-267 818.5,-297 1003.5,-297 1003.5,-267 818.5,-267"/>
<text text-anchor="start" x="826.5" y="-285" font-family="Helvetica,sans-Serif" font-size="10.00">denoptim.gui.GUIGraphHandler.append</text>
<text text-anchor="middle" x="911" y="-274" font-family="Helvetica,sans-Serif" font-size="10.00">GraphsFromFile</text>
</a>
</g>
</g>
<!-- Node6&#45;&gt;Node7 -->
<g id="edge8" class="edge">
<title>Node6&#45;&gt;Node7</title>
<path fill="none" stroke="midnightblue" d="M1065.91,-250.11C1039.37,-255.61 1010.18,-261.66 984.43,-266.99"/>
<polygon fill="midnightblue" stroke="midnightblue" points="1066.85,-253.49 1075.93,-248.03 1065.43,-246.64 1066.85,-253.49"/>
</g>
<!-- Node8 -->
<g id="node8" class="node">
<title>Node8</title>
<g id="a_node8"><a xlink:href="classdenoptim_1_1gui_1_1_g_u_i_graph_handler.html#a81df728192225395c24224607bc63eee" target="_top" xlink:title="Imports graphs from file.">
<polygon fill="white" stroke="black" points="820.5,-169 820.5,-199 1001.5,-199 1001.5,-169 820.5,-169"/>
<text text-anchor="start" x="828.5" y="-187" font-family="Helvetica,sans-Serif" font-size="10.00">denoptim.gui.GUIGraphHandler.import</text>
<text text-anchor="middle" x="911" y="-176" font-family="Helvetica,sans-Serif" font-size="10.00">GraphsFromFile</text>
</a>
</g>
</g>
<!-- Node6&#45;&gt;Node8 -->
<g id="edge10" class="edge">
<title>Node6&#45;&gt;Node8</title>
<path fill="none" stroke="midnightblue" d="M1065.91,-215.89C1039.37,-210.39 1010.18,-204.34 984.43,-199.01"/>
<polygon fill="midnightblue" stroke="midnightblue" points="1065.43,-219.36 1075.93,-217.97 1066.85,-212.51 1065.43,-219.36"/>
</g>
<!-- Node18 -->
<g id="node18" class="node">
<title>Node18</title>
<g id="a_node18"><a xlink:href="classdenoptim_1_1gui_1_1_g_u_i_graph_handler.html#a11c5c55e0930e8eb7304416707016522" target="_top" xlink:title=" ">
<polygon fill="white" stroke="black" points="818,-218 818,-248 1004,-248 1004,-218 818,-218"/>
<text text-anchor="start" x="826" y="-236" font-family="Helvetica,sans-Serif" font-size="10.00">denoptim.gui.GUIGraphHandler.remove</text>
<text text-anchor="middle" x="911" y="-225" font-family="Helvetica,sans-Serif" font-size="10.00">CurrentDnGraph</text>
</a>
</g>
</g>
<!-- Node6&#45;&gt;Node18 -->
<g id="edge22" class="edge">
<title>Node6&#45;&gt;Node18</title>
<path fill="none" stroke="midnightblue" d="M1053.45,-233C1037.24,-233 1020.43,-233 1004.29,-233"/>
<polygon fill="midnightblue" stroke="midnightblue" points="1053.45,-236.5 1063.45,-233 1053.45,-229.5 1053.45,-236.5"/>
</g>
<!-- Node19 -->
<g id="node19" class="node">
<title>Node19</title>
<g id="a_node19"><a xlink:href="classdenoptim_1_1gui_1_1_g_u_i_graph_handler_1_1_graph_spinner_change_event.html#ac1da07025d32dbd73ec5104a66676dc9" target="_top" xlink:title=" ">
<polygon fill="white" stroke="black" points="813,-120 813,-150 1009,-150 1009,-120 813,-120"/>
<text text-anchor="start" x="821" y="-138" font-family="Helvetica,sans-Serif" font-size="10.00">denoptim.gui.GUIGraphHandler.</text>
<text text-anchor="middle" x="911" y="-127" font-family="Helvetica,sans-Serif" font-size="10.00">GraphSpinnerChangeEvent.stateChanged</text>
</a>
</g>
</g>
<!-- Node6&#45;&gt;Node19 -->
<g id="edge24" class="edge">
<title>Node6&#45;&gt;Node19</title>
<path fill="none" stroke="midnightblue" d="M1119.32,-212.13C1094.72,-195.46 1058.04,-172.7 1023,-159 1014.28,-155.59 1004.97,-152.62 995.6,-150.04"/>
<polygon fill="midnightblue" stroke="midnightblue" points="1117.58,-215.18 1127.81,-217.97 1121.55,-209.42 1117.58,-215.18"/>
</g>
<!-- Node7&#45;&gt;Node3 -->
<g id="edge9" class="edge">
<title>Node7&#45;&gt;Node3</title>
<path fill="none" stroke="midnightblue" d="M808.11,-291.17C791.69,-292.65 774.77,-294.17 758.57,-295.63"/>
<polygon fill="midnightblue" stroke="midnightblue" points="808.62,-294.64 818.26,-290.25 807.99,-287.66 808.62,-294.64"/>
</g>
<!-- Node8&#45;&gt;Node3 -->
<g id="edge11" class="edge">
<title>Node8&#45;&gt;Node3</title>
<path fill="none" stroke="midnightblue" d="M810.72,-202.12C806.68,-203.9 802.76,-205.85 799,-208 778.52,-219.7 781.38,-232.22 763,-247 738.4,-266.78 706.18,-284.23 685.65,-294.45"/>
<polygon fill="midnightblue" stroke="midnightblue" points="812.35,-205.24 820.33,-198.28 809.75,-198.74 812.35,-205.24"/>
</g>
<!-- Node9 -->
<g id="node9" class="node">
<title>Node9</title>
<g id="a_node9"><a xlink:href="classdenoptim_1_1gui_1_1_g_u_i_inspect_f_s_e_run.html#aa30815ac9aa8f815fd24c115afaabd62" target="_top" xlink:title="Initialize the panel and add buttons.">
<polygon fill="white" stroke="black" points="566,-218.5 566,-237.5 763,-237.5 763,-218.5 566,-218.5"/>
<text text-anchor="middle" x="664.5" y="-225.5" font-family="Helvetica,sans-Serif" font-size="10.00">denoptim.gui.GUIInspectFSERun.initialize</text>
</a>
</g>
</g>
<!-- Node8&#45;&gt;Node9 -->
<g id="edge12" class="edge">
<title>Node8&#45;&gt;Node9</title>
<path fill="none" stroke="midnightblue" d="M816.34,-200.85C783.14,-206.83 746.96,-213.34 718.36,-218.49"/>
<polygon fill="midnightblue" stroke="midnightblue" points="817.32,-204.24 826.54,-199.02 816.08,-197.35 817.32,-204.24"/>
</g>
<!-- Node11 -->
<g id="node11" class="node">
<title>Node11</title>
<g id="a_node11"><a xlink:href="classdenoptim_1_1gui_1_1_g_u_i_inspect_g_a_run.html#ad63012fa4fa9bec2e54ce86425039186" target="_top" xlink:title="Initialize the panel and add buttons.">
<polygon fill="white" stroke="black" points="568.5,-174.5 568.5,-193.5 760.5,-193.5 760.5,-174.5 568.5,-174.5"/>
<text text-anchor="middle" x="664.5" y="-181.5" font-family="Helvetica,sans-Serif" font-size="10.00">denoptim.gui.GUIInspectGARun.initialize</text>
</a>
</g>
</g>
<!-- Node8&#45;&gt;Node11 -->
<g id="edge14" class="edge">
<title>Node8&#45;&gt;Node11</title>
<path fill="none" stroke="midnightblue" d="M810.27,-184C793.96,-184 777.1,-184 760.9,-184"/>
<polygon fill="midnightblue" stroke="midnightblue" points="810.35,-187.5 820.35,-184 810.35,-180.5 810.35,-187.5"/>
</g>
<!-- Node13 -->
<g id="node13" class="node">
<title>Node13</title>
<g id="a_node13"><a xlink:href="classdenoptim_1_1gui_1_1_main_tool_bar.html#a1a2e06a2647032587d42155302b8c0a6" target="_top" xlink:title="Process a file that has a recognized file format and loads a suitable GUI card to visualize the file ...">
<polygon fill="white" stroke="black" points="581,-111.5 581,-130.5 748,-130.5 748,-111.5 581,-111.5"/>
<text text-anchor="middle" x="664.5" y="-118.5" font-family="Helvetica,sans-Serif" font-size="10.00">denoptim.gui.MainToolBar.openFile</text>
</a>
</g>
</g>
<!-- Node8&#45;&gt;Node13 -->
<g id="edge16" class="edge">
<title>Node8&#45;&gt;Node13</title>
<path fill="none" stroke="midnightblue" d="M830.8,-166.73C820.09,-164.23 809.26,-161.61 799,-159 763.97,-150.08 724.16,-138.56 697.19,-130.56"/>
<polygon fill="midnightblue" stroke="midnightblue" points="830.05,-170.15 840.58,-168.99 831.63,-163.33 830.05,-170.15"/>
</g>
<!-- Node10 -->
<g id="node10" class="node">
<title>Node10</title>
<g id="a_node10"><a xlink:href="classdenoptim_1_1gui_1_1_g_u_i_inspect_f_s_e_run.html#aa4cc9386cd3e91865c486ba914af789d" target="_top" xlink:title="Constructor.">
<polygon fill="white" stroke="black" points="368,-218 368,-248 530,-248 530,-218 368,-218"/>
<text text-anchor="start" x="376" y="-236" font-family="Helvetica,sans-Serif" font-size="10.00">denoptim.gui.GUIInspectFSERun.</text>
<text text-anchor="middle" x="449" y="-225" font-family="Helvetica,sans-Serif" font-size="10.00">GUIInspectFSERun</text>
</a>
</g>
</g>
<!-- Node9&#45;&gt;Node10 -->
<g id="edge13" class="edge">
<title>Node9&#45;&gt;Node10</title>
<path fill="none" stroke="midnightblue" d="M555.69,-230.52C547.06,-230.73 538.44,-230.93 530.05,-231.13"/>
<polygon fill="midnightblue" stroke="midnightblue" points="555.89,-234.02 565.81,-230.29 555.73,-227.02 555.89,-234.02"/>
</g>
<!-- Node12 -->
<g id="node12" class="node">
<title>Node12</title>
<g id="a_node12"><a xlink:href="classdenoptim_1_1gui_1_1_g_u_i_inspect_g_a_run.html#aefffdc97385f7a524badf71808a3053b" target="_top" xlink:title="Constructor.">
<polygon fill="white" stroke="black" points="370,-169 370,-199 528,-199 528,-169 370,-169"/>
<text text-anchor="start" x="378" y="-187" font-family="Helvetica,sans-Serif" font-size="10.00">denoptim.gui.GUIInspectGARun.</text>
<text text-anchor="middle" x="449" y="-176" font-family="Helvetica,sans-Serif" font-size="10.00">GUIInspectGARun</text>
</a>
</g>
</g>
<!-- Node11&#45;&gt;Node12 -->
<g id="edge15" class="edge">
<title>Node11&#45;&gt;Node12</title>
<path fill="none" stroke="midnightblue" d="M558.18,-184C548.03,-184 537.87,-184 528.06,-184"/>
<polygon fill="midnightblue" stroke="midnightblue" points="558.3,-187.5 568.3,-184 558.3,-180.5 558.3,-187.5"/>
</g>
<!-- Node14 -->
<g id="node14" class="node">
<title>Node14</title>
<g id="a_node14"><a xlink:href="classdenoptim_1_1gui_1_1_main_tool_bar.html#a0df9ca063352fbc50f9476f3b2820926" target="_top" xlink:title="Initialize the contents of the tool bar.">
<polygon fill="white" stroke="black" points="167,-89.5 167,-108.5 332,-108.5 332,-89.5 167,-89.5"/>
<text text-anchor="middle" x="249.5" y="-96.5" font-family="Helvetica,sans-Serif" font-size="10.00">denoptim.gui.MainToolBar.initialize</text>
</a>
</g>
</g>
<!-- Node13&#45;&gt;Node14 -->
<g id="edge17" class="edge">
<title>Node13&#45;&gt;Node14</title>
<path fill="none" stroke="midnightblue" d="M570.54,-125.39C512.24,-127.06 435.59,-127.27 368,-121 342.17,-118.6 313.55,-113.3 291.02,-108.5"/>
<polygon fill="midnightblue" stroke="midnightblue" points="570.95,-128.88 580.84,-125.08 570.73,-121.89 570.95,-128.88"/>
</g>
<!-- Node16 -->
<g id="node16" class="node">
<title>Node16</title>
<g id="a_node16"><a xlink:href="classdenoptim_1_1gui_1_1_g_u_i.html#a460fa99497f04de06d2adf8671a92441" target="_top" xlink:title="Launch the application.">
<polygon fill="white" stroke="black" points="395.5,-92.5 395.5,-111.5 502.5,-111.5 502.5,-92.5 395.5,-92.5"/>
<text text-anchor="middle" x="449" y="-99.5" font-family="Helvetica,sans-Serif" font-size="10.00">denoptim.gui.GUI.run</text>
</a>
</g>
</g>
<!-- Node13&#45;&gt;Node16 -->
<g id="edge19" class="edge">
<title>Node13&#45;&gt;Node16</title>
<path fill="none" stroke="midnightblue" d="M570.7,-112.74C547.44,-110.67 523.28,-108.52 502.74,-106.69"/>
<polygon fill="midnightblue" stroke="midnightblue" points="570.68,-116.25 580.96,-113.65 571.3,-109.28 570.68,-116.25"/>
</g>
<!-- Node17 -->
<g id="node17" class="node">
<title>Node17</title>
<g id="a_node17"><a xlink:href="classdenoptim_1_1gui_1_1_main_tool_bar.html#a94df24e485081c9b9d7441387f409e26" target="_top" xlink:title="Updated the the list of recent files in the &quot;open Recent&quot; menu.">
<polygon fill="white" stroke="black" points="369,-43 369,-73 529,-73 529,-43 369,-43"/>
<text text-anchor="start" x="377" y="-61" font-family="Helvetica,sans-Serif" font-size="10.00">denoptim.gui.MainToolBar.update</text>
<text text-anchor="middle" x="449" y="-50" font-family="Helvetica,sans-Serif" font-size="10.00">OpenRecentMenu</text>
</a>
</g>
</g>
<!-- Node13&#45;&gt;Node17 -->
<g id="edge20" class="edge">
<title>Node13&#45;&gt;Node17</title>
<path fill="none" stroke="midnightblue" d="M621.29,-108.55C586.76,-98.36 537.79,-83.91 501.05,-73.07"/>
<polygon fill="midnightblue" stroke="midnightblue" points="620.49,-111.96 631.07,-111.43 622.47,-105.24 620.49,-111.96"/>
</g>
<!-- Node15 -->
<g id="node15" class="node">
<title>Node15</title>
<g id="a_node15"><a xlink:href="classdenoptim_1_1gui_1_1_main_tool_bar.html#a36f4409849998e032342f49b19e6c5b5" target="_top" xlink:title="Constructor that build the tool bar.">
<polygon fill="white" stroke="black" points="0,-84 0,-114 131,-114 131,-84 0,-84"/>
<text text-anchor="start" x="8" y="-102" font-family="Helvetica,sans-Serif" font-size="10.00">denoptim.gui.MainToolBar.</text>
<text text-anchor="middle" x="65.5" y="-91" font-family="Helvetica,sans-Serif" font-size="10.00">MainToolBar</text>
</a>
</g>
</g>
<!-- Node14&#45;&gt;Node15 -->
<g id="edge18" class="edge">
<title>Node14&#45;&gt;Node15</title>
<path fill="none" stroke="midnightblue" d="M156.66,-99C147.99,-99 139.34,-99 131,-99"/>
<polygon fill="midnightblue" stroke="midnightblue" points="156.82,-102.5 166.82,-99 156.82,-95.5 156.82,-102.5"/>
</g>
<!-- Node17&#45;&gt;Node14 -->
<g id="edge21" class="edge">
<title>Node17&#45;&gt;Node14</title>
<path fill="none" stroke="midnightblue" d="M365.56,-75.11C341.96,-80.01 317.09,-85.18 296.52,-89.45"/>
<polygon fill="midnightblue" stroke="midnightblue" points="366.5,-78.49 375.58,-73.03 365.08,-71.64 366.5,-78.49"/>
</g>
<!-- Node18&#45;&gt;Node3 -->
<g id="edge23" class="edge">
<title>Node18&#45;&gt;Node3</title>
<path fill="none" stroke="midnightblue" d="M827.98,-250.4C818.17,-252.8 808.33,-255.35 799,-258 760.8,-268.85 717.48,-284.39 690.83,-294.34"/>
<polygon fill="midnightblue" stroke="midnightblue" points="828.85,-253.79 837.76,-248.06 827.22,-246.98 828.85,-253.79"/>
</g>
<!-- Node21 -->
<g id="node21" class="node">
<title>Node21</title>
<g id="a_node21"><a xlink:href="classdenoptim_1_1gui_1_1_graph_vertex_mol_viewer_panel.html#abab3007ca39f050b3b9916c4bcc994ca" target="_top" xlink:title="Loads the given graph into the graph viewer.">
<polygon fill="white" stroke="black" points="832.5,-60.5 832.5,-101.5 989.5,-101.5 989.5,-60.5 832.5,-60.5"/>
<text text-anchor="start" x="840.5" y="-89.5" font-family="Helvetica,sans-Serif" font-size="10.00">denoptim.gui.GraphVertex</text>
<text text-anchor="start" x="840.5" y="-78.5" font-family="Helvetica,sans-Serif" font-size="10.00">MolViewerPanel.loadDnGraphTo</text>
<text text-anchor="middle" x="911" y="-67.5" font-family="Helvetica,sans-Serif" font-size="10.00">Viewer</text>
</a>
</g>
</g>
<!-- Node20&#45;&gt;Node21 -->
<g id="edge28" class="edge">
<title>Node20&#45;&gt;Node21</title>
<path fill="none" stroke="midnightblue" d="M1061.4,-81C1037.88,-81 1012.58,-81 989.61,-81"/>
<polygon fill="midnightblue" stroke="midnightblue" points="1061.72,-84.5 1071.72,-81 1061.72,-77.5 1061.72,-84.5"/>
</g>
<!-- Node22 -->
<g id="node22" class="node">
<title>Node22</title>
<g id="a_node22"><a xlink:href="classdenoptim_1_1gui_1_1_graph_vertex_mol_viewer_panel_1_1_node_clicked_listener.html#a4c7c2b6e03029c1850296cda96c5d6bc" target="_top" xlink:title=" ">
<polygon fill="white" stroke="black" points="802.5,-0.5 802.5,-41.5 1019.5,-41.5 1019.5,-0.5 802.5,-0.5"/>
<text text-anchor="start" x="810.5" y="-29.5" font-family="Helvetica,sans-Serif" font-size="10.00">denoptim.gui.GraphVertex</text>
<text text-anchor="start" x="810.5" y="-18.5" font-family="Helvetica,sans-Serif" font-size="10.00">MolViewerPanel.NodeClickedListener.property</text>
<text text-anchor="middle" x="911" y="-7.5" font-family="Helvetica,sans-Serif" font-size="10.00">Change</text>
</a>
</g>
</g>
<!-- Node20&#45;&gt;Node22 -->
<g id="edge29" class="edge">
<title>Node20&#45;&gt;Node22</title>
<path fill="none" stroke="midnightblue" d="M1061.83,-59.01C1039.29,-53.29 1015.1,-47.16 992.87,-41.52"/>
<polygon fill="midnightblue" stroke="midnightblue" points="1061.16,-62.45 1071.72,-61.52 1062.88,-55.67 1061.16,-62.45"/>
</g>
</g>
</svg>
        <g id="navigator" transform="translate(0 0)" fill="#404254">
                <rect fill="#f2f5e9" fill-opacity="0.5" stroke="#606060" stroke-width=".5" x="0" y="0" width="60" height="60"/>
                <use id="zoomplus" xlink:href="#zoomPlus" x="17" y="9" onmousedown="handleZoom(evt,'in')"/>
                <use id="zoomminus" xlink:href="#zoomMin" x="42" y="9" onmousedown="handleZoom(evt,'out')"/>
                <use id="reset" xlink:href="#resetDef" x="30" y="36" onmousedown="handleReset()"/>
                <g id="arrowUp" xlink:href="#dirArrow" transform="translate(30 24)" onmousedown="handlePan(0,-1)">
                  <use xlink:href="#rim" fill="#404040">
                        <set attributeName="fill" to="#808080" begin="arrowUp.mouseover" end="arrowUp.mouseout"/>
                  </use>
                  <path fill="none" stroke="white" stroke-width="1.5" d="M0,-3.0v7 M-2.5,-0.5L0,-3.0L2.5,-0.5"/>
                </g>
                <g id="arrowRight" xlink:href="#dirArrow" transform="rotate(90) translate(36 -43)" onmousedown="handlePan(1,0)">
                  <use xlink:href="#rim" fill="#404040">
                        <set attributeName="fill" to="#808080" begin="arrowRight.mouseover" end="arrowRight.mouseout"/>
                  </use>
                  <path fill="none" stroke="white" stroke-width="1.5" d="M0,-3.0v7 M-2.5,-0.5L0,-3.0L2.5,-0.5"/>
                </g>
                <g id="arrowDown" xlink:href="#dirArrow" transform="rotate(180) translate(-30 -48)" onmousedown="handlePan(0,1)">
                  <use xlink:href="#rim" fill="#404040">
                        <set attributeName="fill" to="#808080" begin="arrowDown.mouseover" end="arrowDown.mouseout"/>
                  </use>
                  <path fill="none" stroke="white" stroke-width="1.5" d="M0,-3.0v7 M-2.5,-0.5L0,-3.0L2.5,-0.5"/>
                </g>
                <g id="arrowLeft" xlink:href="#dirArrow" transform="rotate(270) translate(-36 17)" onmousedown="handlePan(-1,0)">
                  <use xlink:href="#rim" fill="#404040">
                        <set attributeName="fill" to="#808080" begin="arrowLeft.mouseover" end="arrowLeft.mouseout"/>
                  </use>
                  <path fill="none" stroke="white" stroke-width="1.5" d="M0,-3.0v7 M-2.5,-0.5L0,-3.0L2.5,-0.5"/>
                </g>
        </g>
        <svg viewBox="0 0 15 15" width="100%" height="30px" preserveAspectRatio="xMaxYMin meet">
         <g id="arrow_out" transform="scale(0.3 0.3)">
          <a xlink:href="classdenoptim_1_1gui_1_1_graph_vertex_mol_viewer_panel_ac58ac806c3220d9a069f7259c843dbaa_icgraph_org.svg" target="_base">
           <rect id="button" ry="5" rx="5" y="6" x="6" height="38" width="38"
                fill="#f2f5e9" fill-opacity="0.5" stroke="#606060" stroke-width="1.0"/>
           <path id="arrow"
             d="M 11.500037,31.436501 C 11.940474,20.09759 22.043105,11.32322 32.158766,21.979434 L 37.068811,17.246167 C 37.068811,17.246167 37.088388,32 37.088388,32 L 22.160133,31.978069 C 22.160133,31.978069 26.997745,27.140456 26.997745,27.140456 C 18.528582,18.264221 13.291696,25.230495 11.500037,31.436501 z"
             style="fill:#404040;"/>
          </a>
         </g>
        </svg>
</svg>
