<?xml version="1.0" encoding="UTF-8" standalone="no"?>
<!DOCTYPE svg PUBLIC "-//W3C//DTD SVG 1.1//EN"
 "http://www.w3.org/Graphics/SVG/1.1/DTD/svg11.dtd">
<!-- Generated by graphviz version 3.0.0 (20220413.0242)
 -->
<!-- Title: denoptim.graph.Template.updateInnerApID Pages: 1 -->
<!--zoomable 272 -->
<svg id="main" version="1.1" xmlns="http://www.w3.org/2000/svg" xmlns:xlink="http://www.w3.org/1999/xlink" xml:space="preserve" onload="init(evt)">
<style type="text/css"><![CDATA[
.edge:hover path { stroke: red; }
.edge:hover polygon { stroke: red; fill: red; }
]]></style>
<script type="text/javascript"><![CDATA[
var edges = document.getElementsByTagName('g');
if (edges && edges.length) {
  for (var i=0;i<edges.length;i++) {
    if (edges[i].id.substr(0,4)=='edge') {
      edges[i].setAttribute('class','edge');
    }
  }
}
]]></script>
        <defs>
                <circle id="rim" cx="0" cy="0" r="7"/>
                <circle id="rim2" cx="0" cy="0" r="3.5"/>
                <g id="zoomPlus">
                        <use xlink:href="#rim" fill="#404040">
                                <set attributeName="fill" to="#808080" begin="zoomplus.mouseover" end="zoomplus.mouseout"/>
                        </use>
                        <path d="M-4,0h8M0,-4v8" fill="none" stroke="white" stroke-width="1.5" pointer-events="none"/>
                </g>
                <g id="zoomMin">
                        <use xlink:href="#rim" fill="#404040">
                                <set attributeName="fill" to="#808080" begin="zoomminus.mouseover" end="zoomminus.mouseout"/>
                        </use>
                        <path d="M-4,0h8" fill="none" stroke="white" stroke-width="1.5" pointer-events="none"/>
                </g>
                <g id="dirArrow">
                        <path fill="none" stroke="white" stroke-width="1.5" d="M0,-3.0v7 M-2.5,-0.5L0,-3.0L2.5,-0.5"/>
                </g>
               <g id="resetDef">
                       <use xlink:href="#rim2" fill="#404040">
                               <set attributeName="fill" to="#808080" begin="reset.mouseover" end="reset.mouseout"/>
                       </use>
               </g>
        </defs>

<script type="text/javascript">
var viewWidth = 876;
var viewHeight = 272;
var sectionId = 'dynsection-49';
</script>
<script xlink:href="svgpan.js"/>
<svg id="graph" class="graph">
<g id="viewport">
<title>denoptim.graph.Template.updateInnerApID</title>
<polygon fill="white" stroke="transparent" points="-4,4 -4,-268 872,-268 872,4 -4,4"/>
<!-- Node1 -->
<g id="node1" class="node">
<title>Node1</title>
<g id="a_node1"><a xlink:title="Replaces a given link between APs on the surface of this template (i.e., outerAP) and the correspondi...">
<polygon fill="#bfbfbf" stroke="black" points="0,-135.5 0,-165.5 157,-165.5 157,-135.5 0,-135.5"/>
<text text-anchor="start" x="8" y="-153.5" font-family="Helvetica,sans-Serif" font-size="10.00">denoptim.graph.Template.update</text>
<text text-anchor="middle" x="78.5" y="-142.5" font-family="Helvetica,sans-Serif" font-size="10.00">InnerApID</text>
</a>
</g>
</g>
<!-- Node2 -->
<g id="node2" class="node">
<title>Node2</title>
<g id="a_node2"><a xlink:href="classdenoptim_1_1graph_1_1_attachment_point.html#a31bed4cb29f6437bf8a888a1dda3fd95" target="_top" xlink:title="Returns the Attachment Point class.">
<polygon fill="white" stroke="black" points="201.5,-179.5 201.5,-209.5 336.5,-209.5 336.5,-179.5 201.5,-179.5"/>
<text text-anchor="start" x="209.5" y="-197.5" font-family="Helvetica,sans-Serif" font-size="10.00">denoptim.graph.Attachment</text>
<text text-anchor="middle" x="269" y="-186.5" font-family="Helvetica,sans-Serif" font-size="10.00">Point.getAPClass</text>
</a>
</g>
</g>
<!-- Node1&#45;&gt;Node2 -->
<g id="edge1" class="edge">
<title>Node1&#45;&gt;Node2</title>
<path fill="none" stroke="midnightblue" d="M143.84,-165.52C159.83,-169.25 177.1,-173.28 193.53,-177.12"/>
<polygon fill="midnightblue" stroke="midnightblue" points="193.09,-180.61 203.63,-179.47 194.68,-173.79 193.09,-180.61"/>
</g>
<!-- Node3 -->
<g id="node3" class="node">
<title>Node3</title>
<g id="a_node3"><a xlink:href="classdenoptim_1_1graph_1_1_a_p_tree_map.html#a9e1e1c1dd87ebfb469b6c705c00038b6" target="_top" xlink:title="Associates the specified value with the specified key in this map.">
<polygon fill="white" stroke="black" points="193,-141 193,-160 345,-160 345,-141 193,-141"/>
<text text-anchor="middle" x="269" y="-148" font-family="Helvetica,sans-Serif" font-size="10.00">denoptim.graph.APTreeMap.put</text>
</a>
</g>
</g>
<!-- Node1&#45;&gt;Node3 -->
<g id="edge2" class="edge">
<title>Node1&#45;&gt;Node3</title>
<path fill="none" stroke="midnightblue" d="M157.26,-150.5C165.62,-150.5 174.16,-150.5 182.61,-150.5"/>
<polygon fill="midnightblue" stroke="midnightblue" points="182.85,-154 192.85,-150.5 182.85,-147 182.85,-154"/>
</g>
<!-- Node8 -->
<g id="node8" class="node">
<title>Node8</title>
<g id="a_node8"><a xlink:href="classdenoptim_1_1graph_1_1_attachment_point.html#a13c466d60a1ed85384812ca2ff63fdb2" target="_top" xlink:title="Set the Attachment Point class.">
<polygon fill="white" stroke="black" points="201.5,-58.5 201.5,-88.5 336.5,-88.5 336.5,-58.5 201.5,-58.5"/>
<text text-anchor="start" x="209.5" y="-76.5" font-family="Helvetica,sans-Serif" font-size="10.00">denoptim.graph.Attachment</text>
<text text-anchor="middle" x="269" y="-65.5" font-family="Helvetica,sans-Serif" font-size="10.00">Point.setAPClass</text>
</a>
</g>
</g>
<!-- Node1&#45;&gt;Node8 -->
<g id="edge7" class="edge">
<title>Node1&#45;&gt;Node8</title>
<path fill="none" stroke="midnightblue" d="M116.29,-135.47C146.42,-123.16 189.23,-105.68 221.69,-92.42"/>
<polygon fill="midnightblue" stroke="midnightblue" points="223.05,-95.64 230.98,-88.62 220.4,-89.16 223.05,-95.64"/>
</g>
<!-- Node4 -->
<g id="node4" class="node">
<title>Node4</title>
<g id="a_node4"><a xlink:href="classdenoptim_1_1graph_1_1_attachment_point.html#a72dd6bd75a701cabb65832778da6e574" target="_top" xlink:title="Returns a unique integer that is used to sort list of attachment points.">
<polygon fill="white" stroke="black" points="388,-233.5 388,-263.5 523,-263.5 523,-233.5 388,-233.5"/>
<text text-anchor="start" x="396" y="-251.5" font-family="Helvetica,sans-Serif" font-size="10.00">denoptim.graph.Attachment</text>
<text text-anchor="middle" x="455.5" y="-240.5" font-family="Helvetica,sans-Serif" font-size="10.00">Point.getID</text>
</a>
</g>
</g>
<!-- Node3&#45;&gt;Node4 -->
<g id="edge3" class="edge">
<title>Node3&#45;&gt;Node4</title>
<path fill="none" stroke="midnightblue" d="M324.96,-160.14C332.08,-162.8 338.98,-166.18 345,-170.5 368.45,-187.3 358.02,-207.06 381,-224.5 382.82,-225.88 384.73,-227.19 386.7,-228.42"/>
<polygon fill="midnightblue" stroke="midnightblue" points="385.25,-231.62 395.7,-233.37 388.62,-225.49 385.25,-231.62"/>
</g>
<!-- Node5 -->
<g id="node5" class="node">
<title>Node5</title>
<g id="a_node5"><a xlink:href="classdenoptim_1_1utils_1_1_graph_utils.html#aacbefbc93a3463aa963c9923749deea1" target="_top" xlink:title="Unique counter for the number of molecules generated.">
<polygon fill="white" stroke="black" points="385,-184.5 385,-214.5 526,-214.5 526,-184.5 385,-184.5"/>
<text text-anchor="start" x="393" y="-202.5" font-family="Helvetica,sans-Serif" font-size="10.00">denoptim.utils.GraphUtils.get</text>
<text text-anchor="middle" x="455.5" y="-191.5" font-family="Helvetica,sans-Serif" font-size="10.00">UniqueAPIndex</text>
</a>
</g>
</g>
<!-- Node3&#45;&gt;Node5 -->
<g id="edge4" class="edge">
<title>Node3&#45;&gt;Node5</title>
<path fill="none" stroke="midnightblue" d="M306.01,-160.06C329.27,-166.24 360.24,-174.46 387.87,-181.8"/>
<polygon fill="midnightblue" stroke="midnightblue" points="387.32,-185.28 397.88,-184.46 389.11,-178.51 387.32,-185.28"/>
</g>
<!-- Node6 -->
<g id="node6" class="node">
<title>Node6</title>
<g id="a_node6"><a xlink:href="classdenoptim_1_1utils_1_1_graph_utils.html#ac53e72bfeb5251069c07ebc22994022a" target="_top" xlink:title="Reset the unique attachment point counter to the given value.">
<polygon fill="white" stroke="black" points="381,-135.5 381,-165.5 530,-165.5 530,-135.5 381,-135.5"/>
<text text-anchor="start" x="389" y="-153.5" font-family="Helvetica,sans-Serif" font-size="10.00">denoptim.utils.GraphUtils.reset</text>
<text text-anchor="middle" x="455.5" y="-142.5" font-family="Helvetica,sans-Serif" font-size="10.00">UniqueAPCounter</text>
</a>
</g>
</g>
<!-- Node3&#45;&gt;Node6 -->
<g id="edge5" class="edge">
<title>Node3&#45;&gt;Node6</title>
<path fill="none" stroke="midnightblue" d="M345.04,-150.5C353.41,-150.5 361.98,-150.5 370.45,-150.5"/>
<polygon fill="midnightblue" stroke="midnightblue" points="370.72,-154 380.72,-150.5 370.72,-147 370.72,-154"/>
</g>
<!-- Node7 -->
<g id="node7" class="node">
<title>Node7</title>
<g id="a_node7"><a xlink:href="classdenoptim_1_1graph_1_1_attachment_point.html#a929c8f781b4c999a5228f322a3bd901e" target="_top" xlink:title="Sets the unique integer that is used to sort list of attachment points.">
<polygon fill="white" stroke="black" points="388,-86.5 388,-116.5 523,-116.5 523,-86.5 388,-86.5"/>
<text text-anchor="start" x="396" y="-104.5" font-family="Helvetica,sans-Serif" font-size="10.00">denoptim.graph.Attachment</text>
<text text-anchor="middle" x="455.5" y="-93.5" font-family="Helvetica,sans-Serif" font-size="10.00">Point.setID</text>
</a>
</g>
</g>
<!-- Node3&#45;&gt;Node7 -->
<g id="edge6" class="edge">
<title>Node3&#45;&gt;Node7</title>
<path fill="none" stroke="midnightblue" d="M306.01,-140.94C329.27,-134.76 360.24,-126.54 387.87,-119.2"/>
<polygon fill="midnightblue" stroke="midnightblue" points="389.11,-122.49 397.88,-116.54 387.32,-115.72 389.11,-122.49"/>
</g>
<!-- Node9 -->
<g id="node9" class="node">
<title>Node9</title>
<g id="a_node9"><a xlink:href="classdenoptim_1_1graph_1_1_a_p_class.html#ac957566ebf8db3b83713ed0c12a56a3f" target="_top" xlink:title="Creates an APClass if it does not exist already, or returns the reference to the existing instance.">
<polygon fill="white" stroke="black" points="381,-30 381,-49 530,-49 530,-30 381,-30"/>
<text text-anchor="middle" x="455.5" y="-37" font-family="Helvetica,sans-Serif" font-size="10.00">denoptim.graph.APClass.make</text>
</a>
</g>
</g>
<!-- Node8&#45;&gt;Node9 -->
<g id="edge8" class="edge">
<title>Node8&#45;&gt;Node9</title>
<path fill="none" stroke="midnightblue" d="M336.61,-61.23C354.98,-57.84 374.84,-54.18 392.91,-50.85"/>
<polygon fill="midnightblue" stroke="midnightblue" points="393.55,-54.29 402.75,-49.04 392.28,-47.41 393.55,-54.29"/>
</g>
<!-- Node9&#45;&gt;Node9 -->
<g id="edge12" class="edge">
<title>Node9&#45;&gt;Node9</title>
<path fill="none" stroke="midnightblue" d="M428.37,-49.26C415.18,-58.07 424.22,-67.5 455.5,-67.5 477.01,-67.5 488,-63.04 488.48,-57.39"/>
<polygon fill="midnightblue" stroke="midnightblue" points="491.31,-55.33 482.63,-49.26 485.63,-59.42 491.31,-55.33"/>
</g>
<!-- Node10 -->
<g id="node10" class="node">
<title>Node10</title>
<g id="a_node10"><a xlink:href="classdenoptim_1_1graph_1_1_a_p_class.html#a6981e4878a844276c416f5cd31a80b66" target="_top" xlink:title="Evaluate is a candidate string can be used as APClass.">
<polygon fill="white" stroke="black" points="566,-24.5 566,-54.5 699,-54.5 699,-24.5 566,-24.5"/>
<text text-anchor="start" x="574" y="-42.5" font-family="Helvetica,sans-Serif" font-size="10.00">denoptim.graph.APClass.is</text>
<text text-anchor="middle" x="632.5" y="-31.5" font-family="Helvetica,sans-Serif" font-size="10.00">ValidAPClassString</text>
</a>
</g>
</g>
<!-- Node9&#45;&gt;Node10 -->
<g id="edge9" class="edge">
<title>Node9&#45;&gt;Node10</title>
<path fill="none" stroke="midnightblue" d="M530.21,-39.5C538.64,-39.5 547.25,-39.5 555.71,-39.5"/>
<polygon fill="midnightblue" stroke="midnightblue" points="555.94,-43 565.94,-39.5 555.94,-36 555.94,-43"/>
</g>
<!-- Node11 -->
<g id="node11" class="node">
<title>Node11</title>
<g id="a_node11"><a xlink:href="classdenoptim_1_1graph_1_1_a_p_class.html#a6ce0fb88cd79a6e154d889496c88455b" target="_top" xlink:title="Evaluates the given string as a candidate attachment point rule, i.e., as name of a fragmentation rul...">
<polygon fill="white" stroke="black" points="735,-49.5 735,-79.5 868,-79.5 868,-49.5 735,-49.5"/>
<text text-anchor="start" x="743" y="-67.5" font-family="Helvetica,sans-Serif" font-size="10.00">denoptim.graph.APClass.is</text>
<text text-anchor="middle" x="801.5" y="-56.5" font-family="Helvetica,sans-Serif" font-size="10.00">ValidAPRuleString</text>
</a>
</g>
</g>
<!-- Node10&#45;&gt;Node11 -->
<g id="edge10" class="edge">
<title>Node10&#45;&gt;Node11</title>
<path fill="none" stroke="midnightblue" d="M699.02,-49.31C707.5,-50.58 716.23,-51.88 724.85,-53.17"/>
<polygon fill="midnightblue" stroke="midnightblue" points="724.48,-56.66 734.89,-54.68 725.52,-49.74 724.48,-56.66"/>
</g>
<!-- Node12 -->
<g id="node12" class="node">
<title>Node12</title>
<g id="a_node12"><a xlink:href="classdenoptim_1_1graph_1_1_a_p_class.html#ac13faa6d99c5b9c3f89a42f00f4744ea" target="_top" xlink:title="Evaluate the given string as a candidate for attachment point subclass, i.e., the attachment point cl...">
<polygon fill="white" stroke="black" points="735,-0.5 735,-30.5 868,-30.5 868,-0.5 735,-0.5"/>
<text text-anchor="start" x="743" y="-18.5" font-family="Helvetica,sans-Serif" font-size="10.00">denoptim.graph.APClass.is</text>
<text text-anchor="middle" x="801.5" y="-7.5" font-family="Helvetica,sans-Serif" font-size="10.00">ValidAPSubCLassString</text>
</a>
</g>
</g>
<!-- Node10&#45;&gt;Node12 -->
<g id="edge11" class="edge">
<title>Node10&#45;&gt;Node12</title>
<path fill="none" stroke="midnightblue" d="M699.02,-30.08C707.5,-28.87 716.23,-27.61 724.85,-26.37"/>
<polygon fill="midnightblue" stroke="midnightblue" points="725.49,-29.82 734.89,-24.93 724.5,-22.89 725.49,-29.82"/>
</g>
</g>
</svg>
        <g id="navigator" transform="translate(0 0)" fill="#404254">
                <rect fill="#f2f5e9" fill-opacity="0.5" stroke="#606060" stroke-width=".5" x="0" y="0" width="60" height="60"/>
                <use id="zoomplus" xlink:href="#zoomPlus" x="17" y="9" onmousedown="handleZoom(evt,'in')"/>
                <use id="zoomminus" xlink:href="#zoomMin" x="42" y="9" onmousedown="handleZoom(evt,'out')"/>
                <use id="reset" xlink:href="#resetDef" x="30" y="36" onmousedown="handleReset()"/>
                <g id="arrowUp" xlink:href="#dirArrow" transform="translate(30 24)" onmousedown="handlePan(0,-1)">
                  <use xlink:href="#rim" fill="#404040">
                        <set attributeName="fill" to="#808080" begin="arrowUp.mouseover" end="arrowUp.mouseout"/>
                  </use>
                  <path fill="none" stroke="white" stroke-width="1.5" d="M0,-3.0v7 M-2.5,-0.5L0,-3.0L2.5,-0.5"/>
                </g>
                <g id="arrowRight" xlink:href="#dirArrow" transform="rotate(90) translate(36 -43)" onmousedown="handlePan(1,0)">
                  <use xlink:href="#rim" fill="#404040">
                        <set attributeName="fill" to="#808080" begin="arrowRight.mouseover" end="arrowRight.mouseout"/>
                  </use>
                  <path fill="none" stroke="white" stroke-width="1.5" d="M0,-3.0v7 M-2.5,-0.5L0,-3.0L2.5,-0.5"/>
                </g>
                <g id="arrowDown" xlink:href="#dirArrow" transform="rotate(180) translate(-30 -48)" onmousedown="handlePan(0,1)">
                  <use xlink:href="#rim" fill="#404040">
                        <set attributeName="fill" to="#808080" begin="arrowDown.mouseover" end="arrowDown.mouseout"/>
                  </use>
                  <path fill="none" stroke="white" stroke-width="1.5" d="M0,-3.0v7 M-2.5,-0.5L0,-3.0L2.5,-0.5"/>
                </g>
                <g id="arrowLeft" xlink:href="#dirArrow" transform="rotate(270) translate(-36 17)" onmousedown="handlePan(-1,0)">
                  <use xlink:href="#rim" fill="#404040">
                        <set attributeName="fill" to="#808080" begin="arrowLeft.mouseover" end="arrowLeft.mouseout"/>
                  </use>
                  <path fill="none" stroke="white" stroke-width="1.5" d="M0,-3.0v7 M-2.5,-0.5L0,-3.0L2.5,-0.5"/>
                </g>
        </g>
        <svg viewBox="0 0 15 15" width="100%" height="30px" preserveAspectRatio="xMaxYMin meet">
         <g id="arrow_out" transform="scale(0.3 0.3)">
          <a xlink:href="classdenoptim_1_1graph_1_1_template_a61cc569f5d46c943ca1981653eaa5869_cgraph_org.svg" target="_base">
           <rect id="button" ry="5" rx="5" y="6" x="6" height="38" width="38"
                fill="#f2f5e9" fill-opacity="0.5" stroke="#606060" stroke-width="1.0"/>
           <path id="arrow"
             d="M 11.500037,31.436501 C 11.940474,20.09759 22.043105,11.32322 32.158766,21.979434 L 37.068811,17.246167 C 37.068811,17.246167 37.088388,32 37.088388,32 L 22.160133,31.978069 C 22.160133,31.978069 26.997745,27.140456 26.997745,27.140456 C 18.528582,18.264221 13.291696,25.230495 11.500037,31.436501 z"
             style="fill:#404040;"/>
          </a>
         </g>
        </svg>
</svg>
