<?xml version="1.0" encoding="UTF-8" standalone="no"?>
<!DOCTYPE svg PUBLIC "-//W3C//DTD SVG 1.1//EN"
 "http://www.w3.org/Graphics/SVG/1.1/DTD/svg11.dtd">
<!-- Generated by graphviz version 3.0.0 (20220413.0242)
 -->
<!-- Title: denoptim.programs.denovo.GAParameters.getPopulationSize Pages: 1 -->
<svg width="695pt" height="166pt"
 viewBox="0.00 0.00 695.00 165.50" xmlns="http://www.w3.org/2000/svg" xmlns:xlink="http://www.w3.org/1999/xlink">
<g id="graph0" class="graph" transform="scale(1 1) rotate(0) translate(4 161.5)">
<title>denoptim.programs.denovo.GAParameters.getPopulationSize</title>
<polygon fill="white" stroke="transparent" points="-4,4 -4,-161.5 691,-161.5 691,4 -4,4"/>
<!-- Node1 -->
<g id="node1" class="node">
<title>Node1</title>
<g id="a_node1"><a xlink:title=" ">
<polygon fill="#bfbfbf" stroke="black" points="526,-61 526,-91 687,-91 687,-61 526,-61"/>
<text text-anchor="start" x="534" y="-79" font-family="Helvetica,sans-Serif" font-size="10.00">denoptim.programs.denovo.</text>
<text text-anchor="middle" x="606.5" y="-68" font-family="Helvetica,sans-Serif" font-size="10.00">GAParameters.getPopulationSize</text>
</a>
</g>
</g>
<!-- Node2 -->
<g id="node2" class="node">
<title>Node2</title>
<g id="a_node2"><a xlink:href="classdenoptim_1_1ga_1_1_evolutionary_algorithm.html#a596b2f5f0b097c5b67a6e5163bd6fe66" target="_top" xlink:title="Generates a given number of new candidate items and adds them to the current population.">
<polygon fill="white" stroke="black" points="353,-127 353,-157 487,-157 487,-127 353,-127"/>
<text text-anchor="start" x="361" y="-145" font-family="Helvetica,sans-Serif" font-size="10.00">denoptim.ga.Evolutionary</text>
<text text-anchor="middle" x="420" y="-134" font-family="Helvetica,sans-Serif" font-size="10.00">Algorithm.evolvePopulation</text>
</a>
</g>
</g>
<!-- Node1&#45;&gt;Node2 -->
<g id="edge1" class="edge">
<title>Node1&#45;&gt;Node2</title>
<path fill="none" stroke="midnightblue" d="M553.74,-94.52C525.13,-104.75 490.05,-117.3 463.13,-126.93"/>
<polygon fill="midnightblue" stroke="midnightblue" points="554.94,-97.81 563.17,-91.14 552.58,-91.21 554.94,-97.81"/>
</g>
<!-- Node3 -->
<g id="node3" class="node">
<title>Node3</title>
<g id="a_node3"><a xlink:href="classdenoptim_1_1ga_1_1_evolutionary_algorithm.html#a6bfc2fa59b199da6259b5b6bad3d6de7" target="_top" xlink:title=" ">
<polygon fill="white" stroke="black" points="190,-61 190,-91 314,-91 314,-61 190,-61"/>
<text text-anchor="start" x="198" y="-79" font-family="Helvetica,sans-Serif" font-size="10.00">denoptim.ga.Evolutionary</text>
<text text-anchor="middle" x="252" y="-68" font-family="Helvetica,sans-Serif" font-size="10.00">Algorithm.run</text>
</a>
</g>
</g>
<!-- Node1&#45;&gt;Node3 -->
<g id="edge7" class="edge">
<title>Node1&#45;&gt;Node3</title>
<path fill="none" stroke="midnightblue" d="M515.77,-78.56C507.06,-78.74 498.36,-78.89 490,-79 427.78,-79.81 412.21,-79.96 350,-79 338.38,-78.82 325.97,-78.52 314.05,-78.18"/>
<polygon fill="midnightblue" stroke="midnightblue" points="516.06,-82.05 525.98,-78.34 515.9,-75.06 516.06,-82.05"/>
</g>
<!-- Node6 -->
<g id="node6" class="node">
<title>Node6</title>
<g id="a_node6"><a xlink:href="classdenoptim_1_1ga_1_1_evolutionary_algorithm.html#ad43588620dab3340e0d8b0042ec73618" target="_top" xlink:title="Fills up the population with candidates build from scratch.">
<polygon fill="white" stroke="black" points="350,-39 350,-69 490,-69 490,-39 350,-39"/>
<text text-anchor="start" x="358" y="-57" font-family="Helvetica,sans-Serif" font-size="10.00">denoptim.ga.Evolutionary</text>
<text text-anchor="middle" x="420" y="-46" font-family="Helvetica,sans-Serif" font-size="10.00">Algorithm.initializePopulation</text>
</a>
</g>
</g>
<!-- Node1&#45;&gt;Node6 -->
<g id="edge5" class="edge">
<title>Node1&#45;&gt;Node6</title>
<path fill="none" stroke="midnightblue" d="M515.83,-65.31C507.21,-64.28 498.55,-63.25 490.17,-62.25"/>
<polygon fill="midnightblue" stroke="midnightblue" points="515.57,-68.8 525.92,-66.51 516.4,-61.85 515.57,-68.8"/>
</g>
<!-- Node7 -->
<g id="node7" class="node">
<title>Node7</title>
<g id="a_node7"><a xlink:href="classdenoptim_1_1ga_1_1_population.html#ad8ec3c95a1d421aa61f9a9fa058f4c7a" target="_top" xlink:title="Removes all the elements exceeding the given size.">
<polygon fill="white" stroke="black" points="352,-0.5 352,-19.5 488,-19.5 488,-0.5 352,-0.5"/>
<text text-anchor="middle" x="420" y="-7.5" font-family="Helvetica,sans-Serif" font-size="10.00">denoptim.ga.Population.trim</text>
</a>
</g>
</g>
<!-- Node1&#45;&gt;Node7 -->
<g id="edge8" class="edge">
<title>Node1&#45;&gt;Node7</title>
<path fill="none" stroke="midnightblue" d="M560.77,-57.01C539.51,-48.29 513.63,-38.11 490,-30 479.15,-26.28 467.18,-22.65 456.31,-19.52"/>
<polygon fill="midnightblue" stroke="midnightblue" points="559.61,-60.32 570.19,-60.91 562.29,-53.85 559.61,-60.32"/>
</g>
<!-- Node2&#45;&gt;Node3 -->
<g id="edge2" class="edge">
<title>Node2&#45;&gt;Node3</title>
<path fill="none" stroke="midnightblue" d="M371.42,-123.08C345.87,-112.92 314.81,-100.57 290.91,-91.07"/>
<polygon fill="midnightblue" stroke="midnightblue" points="370.33,-126.42 380.92,-126.86 372.92,-119.91 370.33,-126.42"/>
</g>
<!-- Node4 -->
<g id="node4" class="node">
<title>Node4</title>
<g id="a_node4"><a xlink:href="classdenoptim_1_1ga_1_1_evolutionary_algorithm.html#a0f2063b722b7291daf83d62acaa683d3" target="_top" xlink:title=" ">
<polygon fill="white" stroke="black" points="0,-86 0,-116 154,-116 154,-86 0,-86"/>
<text text-anchor="start" x="8" y="-104" font-family="Helvetica,sans-Serif" font-size="10.00">denoptim.ga.Evolutionary</text>
<text text-anchor="middle" x="77" y="-93" font-family="Helvetica,sans-Serif" font-size="10.00">Algorithm.EvolutionaryAlgorithm</text>
</a>
</g>
</g>
<!-- Node3&#45;&gt;Node4 -->
<g id="edge3" class="edge">
<title>Node3&#45;&gt;Node4</title>
<path fill="none" stroke="midnightblue" d="M179.44,-86.34C171.09,-87.55 162.54,-88.78 154.12,-90"/>
<polygon fill="midnightblue" stroke="midnightblue" points="180.12,-89.78 189.52,-84.88 179.12,-82.85 180.12,-89.78"/>
</g>
<!-- Node5 -->
<g id="node5" class="node">
<title>Node5</title>
<g id="a_node5"><a xlink:href="classdenoptim_1_1programs_1_1denovo_1_1_g_a_runner.html#a7cafd6d78727b89dce3e2c8d06f0dd7c" target="_top" xlink:title=" ">
<polygon fill="white" stroke="black" points="9.5,-37 9.5,-67 144.5,-67 144.5,-37 9.5,-37"/>
<text text-anchor="start" x="17.5" y="-55" font-family="Helvetica,sans-Serif" font-size="10.00">denoptim.programs.denovo.</text>
<text text-anchor="middle" x="77" y="-44" font-family="Helvetica,sans-Serif" font-size="10.00">GARunner.runProgram</text>
</a>
</g>
</g>
<!-- Node3&#45;&gt;Node5 -->
<g id="edge4" class="edge">
<title>Node3&#45;&gt;Node5</title>
<path fill="none" stroke="midnightblue" d="M179.48,-66.08C167.92,-64.47 156,-62.82 144.57,-61.23"/>
<polygon fill="midnightblue" stroke="midnightblue" points="179.13,-69.56 189.52,-67.47 180.1,-62.63 179.13,-69.56"/>
</g>
<!-- Node6&#45;&gt;Node3 -->
<g id="edge6" class="edge">
<title>Node6&#45;&gt;Node3</title>
<path fill="none" stroke="midnightblue" d="M339.6,-64.52C331.08,-65.65 322.5,-66.79 314.24,-67.88"/>
<polygon fill="midnightblue" stroke="midnightblue" points="340.11,-67.99 349.56,-63.2 339.19,-61.05 340.11,-67.99"/>
</g>
<!-- Node7&#45;&gt;Node3 -->
<g id="edge9" class="edge">
<title>Node7&#45;&gt;Node3</title>
<path fill="none" stroke="midnightblue" d="M372.34,-22.42C364.8,-24.74 357.14,-27.29 350,-30 326.47,-38.92 300.79,-51.23 281.76,-60.86"/>
<polygon fill="midnightblue" stroke="midnightblue" points="373.53,-25.71 382.11,-19.51 371.53,-19.01 373.53,-25.71"/>
</g>
</g>
</svg>
