<?xml version="1.0" encoding="UTF-8" standalone="no"?>
<!DOCTYPE svg PUBLIC "-//W3C//DTD SVG 1.1//EN"
 "http://www.w3.org/Graphics/SVG/1.1/DTD/svg11.dtd">
<!-- Generated by graphviz version 3.0.0 (20220413.0242)
 -->
<!-- Title: denoptim.graph.Edge Pages: 1 -->
<svg width="1304pt" height="837pt"
 viewBox="0.00 0.00 1304.00 837.46" xmlns="http://www.w3.org/2000/svg" xmlns:xlink="http://www.w3.org/1999/xlink">
<g id="graph0" class="graph" transform="scale(1 1) rotate(0) translate(4 833.46)">
<title>denoptim.graph.Edge</title>
<polygon fill="white" stroke="transparent" points="-4,4 -4,-833.46 1300,-833.46 1300,4 -4,4"/>
<!-- Node1 -->
<g id="node1" class="node">
<title>Node1</title>
<g id="a_node1"><a xlink:title="This class represents the edge between two vertices.">
<polygon fill="#bfbfbf" stroke="black" points="969.5,-52.96 969.5,-71.96 1076.5,-71.96 1076.5,-52.96 969.5,-52.96"/>
<text text-anchor="middle" x="1023" y="-59.96" font-family="Helvetica,sans-Serif" font-size="10.00">denoptim.graph.Edge</text>
</a>
</g>
</g>
<!-- Node2 -->
<g id="node2" class="node">
<title>Node2</title>
<g id="a_node2"><a xlink:href="classdenoptim_1_1graph_1_1_attachment_point.html" target="_top" xlink:title="An attachment point (AP) is a possibility to attach a Vertex onto the vertex holding the AP (i....">
<polygon fill="white" stroke="black" points="696,-195.46 696,-225.46 831,-225.46 831,-195.46 696,-195.46"/>
<text text-anchor="start" x="704" y="-213.46" font-family="Helvetica,sans-Serif" font-size="10.00">denoptim.graph.Attachment</text>
<text text-anchor="middle" x="763.5" y="-202.46" font-family="Helvetica,sans-Serif" font-size="10.00">Point</text>
</a>
</g>
</g>
<!-- Node2&#45;&gt;Node1 -->
<g id="edge1" class="edge">
<title>Node2&#45;&gt;Node1</title>
<path fill="none" stroke="#9a32cd" stroke-dasharray="5,2" d="M799.49,-190.35C855.67,-158.06 963.89,-95.85 1005.31,-72.05"/>
<polygon fill="#9a32cd" stroke="#9a32cd" points="797.53,-187.43 790.61,-195.45 801.02,-193.5 797.53,-187.43"/>
<text text-anchor="middle" x="906" y="-159.46" font-family="Helvetica,sans-Serif" font-size="10.00"> srcAP</text>
<text text-anchor="middle" x="906" y="-148.46" font-family="Helvetica,sans-Serif" font-size="10.00">trgAP</text>
</g>
<!-- Node33 -->
<g id="node33" class="node">
<title>Node33</title>
<g id="a_node33"><a xlink:href="classdenoptim_1_1graph_1_1_edge.html" target="_top" xlink:title="This class represents the edge between two vertices.">
<polygon fill="white" stroke="black" points="969.5,-221.96 969.5,-240.96 1076.5,-240.96 1076.5,-221.96 969.5,-221.96"/>
<text text-anchor="middle" x="1023" y="-228.96" font-family="Helvetica,sans-Serif" font-size="10.00">denoptim.graph.Edge</text>
</a>
</g>
</g>
<!-- Node2&#45;&gt;Node33 -->
<g id="edge41" class="edge">
<title>Node2&#45;&gt;Node33</title>
<path fill="none" stroke="#9a32cd" stroke-dasharray="5,2" d="M816.11,-192.63C852.44,-183.1 901.45,-176.45 941,-193.46 951.69,-198.05 949.1,-206.35 959,-212.46 965.22,-216.3 972.27,-219.4 979.34,-221.9"/>
<polygon fill="#9a32cd" stroke="#9a32cd" points="814.91,-189.33 806.21,-195.38 816.78,-196.07 814.91,-189.33"/>
<text text-anchor="middle" x="906" y="-207.46" font-family="Helvetica,sans-Serif" font-size="10.00"> srcAP</text>
<text text-anchor="middle" x="906" y="-196.46" font-family="Helvetica,sans-Serif" font-size="10.00">trgAP</text>
</g>
<!-- Node3 -->
<g id="node3" class="node">
<title>Node3</title>
<g id="a_node3"><a xlink:title=" ">
<polygon fill="white" stroke="black" points="143.5,-276.96 143.5,-295.96 202.5,-295.96 202.5,-276.96 143.5,-276.96"/>
<text text-anchor="middle" x="173" y="-283.96" font-family="Helvetica,sans-Serif" font-size="10.00">Cloneable</text>
</a>
</g>
</g>
<!-- Node3&#45;&gt;Node2 -->
<g id="edge2" class="edge">
<title>Node3&#45;&gt;Node2</title>
<path fill="none" stroke="midnightblue" d="M206.97,-272.93C248.07,-256.01 320.41,-226.02 382,-199.46 390.04,-195.99 391.44,-193.28 400,-191.46 501.56,-169.9 622.54,-183.96 695.88,-196.72"/>
<polygon fill="midnightblue" stroke="midnightblue" points="205.38,-269.8 197.47,-276.84 208.05,-276.27 205.38,-269.8"/>
</g>
<!-- Node5 -->
<g id="node5" class="node">
<title>Node5</title>
<g id="a_node5"><a xlink:href="classdenoptim_1_1graph_1_1_a_p_class.html" target="_top" xlink:title=" ">
<polygon fill="white" stroke="black" points="418.5,-124.96 418.5,-143.96 541.5,-143.96 541.5,-124.96 418.5,-124.96"/>
<text text-anchor="middle" x="480" y="-131.96" font-family="Helvetica,sans-Serif" font-size="10.00">denoptim.graph.APClass</text>
</a>
</g>
</g>
<!-- Node3&#45;&gt;Node5 -->
<g id="edge5" class="edge">
<title>Node3&#45;&gt;Node5</title>
<path fill="none" stroke="midnightblue" d="M189.44,-269.43C207.63,-250.38 239.62,-219.91 273,-202.46 317.42,-179.23 337.47,-196.49 382,-173.46 391.25,-168.67 390.84,-163.4 400,-158.46 411.23,-152.4 424.2,-147.65 436.34,-144.04"/>
<polygon fill="midnightblue" stroke="midnightblue" points="186.8,-267.13 182.53,-276.82 191.91,-271.91 186.8,-267.13"/>
</g>
<!-- Node11 -->
<g id="node11" class="node">
<title>Node11</title>
<g id="a_node11"><a xlink:href="classdenoptim_1_1graph_1_1_vertex.html" target="_top" xlink:title="A vertex is a data structure that has an identity and holds a list of AttachmentPoints.">
<polygon fill="white" stroke="black" points="423.5,-459.96 423.5,-478.96 536.5,-478.96 536.5,-459.96 423.5,-459.96"/>
<text text-anchor="middle" x="480" y="-466.96" font-family="Helvetica,sans-Serif" font-size="10.00">denoptim.graph.Vertex</text>
</a>
</g>
</g>
<!-- Node3&#45;&gt;Node11 -->
<g id="edge12" class="edge">
<title>Node3&#45;&gt;Node11</title>
<path fill="none" stroke="midnightblue" d="M202.32,-300.55C251.23,-325.02 349.44,-374.72 382,-395.46 414.69,-416.28 450.21,-445.15 467.81,-459.92"/>
<polygon fill="midnightblue" stroke="midnightblue" points="203.73,-297.35 193.22,-296.01 200.61,-303.61 203.73,-297.35"/>
</g>
<!-- Node12 -->
<g id="node12" class="node">
<title>Node12</title>
<g id="a_node12"><a xlink:href="classdenoptim_1_1graph_1_1_d_graph.html" target="_top" xlink:title="Container for the list of vertices and the edges that connect them.">
<polygon fill="white" stroke="black" points="964,-526.96 964,-545.96 1082,-545.96 1082,-526.96 964,-526.96"/>
<text text-anchor="middle" x="1023" y="-533.96" font-family="Helvetica,sans-Serif" font-size="10.00">denoptim.graph.DGraph</text>
</a>
</g>
</g>
<!-- Node3&#45;&gt;Node12 -->
<g id="edge14" class="edge">
<title>Node3&#45;&gt;Node12</title>
<path fill="none" stroke="midnightblue" d="M212.78,-285.5C317.7,-283.83 615.23,-285.11 853,-344.46 892.95,-354.43 909.88,-346.49 941,-373.46 991.15,-416.91 1013.53,-498.76 1019.95,-526.77"/>
<polygon fill="midnightblue" stroke="midnightblue" points="212.6,-282.01 202.66,-285.68 212.73,-289.01 212.6,-282.01"/>
</g>
<!-- Node18 -->
<g id="node18" class="node">
<title>Node18</title>
<g id="a_node18"><a xlink:href="classdenoptim_1_1graph_1_1_candidate.html" target="_top" xlink:title="A candidate is the combination of a denoptim graph with molecular representation and may include also...">
<polygon fill="white" stroke="black" points="1168,-492.96 1168,-511.96 1296,-511.96 1296,-492.96 1168,-492.96"/>
<text text-anchor="middle" x="1232" y="-499.96" font-family="Helvetica,sans-Serif" font-size="10.00">denoptim.graph.Candidate</text>
</a>
</g>
</g>
<!-- Node3&#45;&gt;Node18 -->
<g id="edge22" class="edge">
<title>Node3&#45;&gt;Node18</title>
<path fill="none" stroke="midnightblue" d="M213.02,-294.46C270.84,-305.61 382.8,-324.46 479,-324.46 479,-324.46 479,-324.46 1024,-324.46 1128.27,-324.46 1206.2,-455.92 1226.06,-492.89"/>
<polygon fill="midnightblue" stroke="midnightblue" points="213.35,-290.96 202.87,-292.48 212.01,-297.83 213.35,-290.96"/>
</g>
<!-- Node4 -->
<g id="node4" class="node">
<title>Node4</title>
<g id="a_node4"><a xlink:title=" ">
<polygon fill="white" stroke="black" points="401,-200.96 401,-219.96 559,-219.96 559,-200.96 401,-200.96"/>
<text text-anchor="middle" x="480" y="-207.96" font-family="Helvetica,sans-Serif" font-size="10.00">Comparable&lt; AttachmentPoint &gt;</text>
</a>
</g>
</g>
<!-- Node4&#45;&gt;Node2 -->
<g id="edge3" class="edge">
<title>Node4&#45;&gt;Node2</title>
<path fill="none" stroke="midnightblue" d="M569.28,-210.46C610.17,-210.46 657.95,-210.46 695.77,-210.46"/>
<polygon fill="midnightblue" stroke="midnightblue" points="569.04,-206.96 559.04,-210.46 569.04,-213.96 569.04,-206.96"/>
</g>
<!-- Node5&#45;&gt;Node2 -->
<g id="edge4" class="edge">
<title>Node5&#45;&gt;Node2</title>
<path fill="none" stroke="#9a32cd" stroke-dasharray="5,2" d="M552.09,-132.42C584.44,-133.33 622.82,-137.04 656,-147.46 689.2,-157.88 723.03,-180.34 743.4,-195.43"/>
<polygon fill="#9a32cd" stroke="#9a32cd" points="551.88,-128.91 541.81,-132.21 551.74,-135.91 551.88,-128.91"/>
<text text-anchor="middle" x="617" y="-150.46" font-family="Helvetica,sans-Serif" font-size="10.00"> apClass</text>
</g>
<!-- Node6 -->
<g id="node6" class="node">
<title>Node6</title>
<g id="a_node6"><a xlink:title=" ">
<polygon fill="white" stroke="black" points="111.5,-105.96 111.5,-124.96 234.5,-124.96 234.5,-105.96 111.5,-105.96"/>
<text text-anchor="middle" x="173" y="-112.96" font-family="Helvetica,sans-Serif" font-size="10.00">Comparable&lt; APClass &gt;</text>
</a>
</g>
</g>
<!-- Node6&#45;&gt;Node5 -->
<g id="edge6" class="edge">
<title>Node6&#45;&gt;Node5</title>
<path fill="none" stroke="midnightblue" d="M244.89,-119.87C297.52,-123.15 368.52,-127.58 418.49,-130.69"/>
<polygon fill="midnightblue" stroke="midnightblue" points="244.82,-116.36 234.62,-119.23 244.39,-123.35 244.82,-116.36"/>
</g>
<!-- Node7 -->
<g id="node7" class="node">
<title>Node7</title>
<g id="a_node7"><a xlink:title=" ">
<polygon fill="white" stroke="black" points="95.5,-143.96 95.5,-162.96 250.5,-162.96 250.5,-143.96 95.5,-143.96"/>
<text text-anchor="middle" x="173" y="-150.96" font-family="Helvetica,sans-Serif" font-size="10.00">Set&lt; denoptim.graph.APClass &gt;</text>
</a>
</g>
</g>
<!-- Node7&#45;&gt;Node5 -->
<g id="edge7" class="edge">
<title>Node7&#45;&gt;Node5</title>
<path fill="none" stroke="#9a32cd" stroke-dasharray="5,2" d="M260.79,-148.05C311.09,-144.92 373.17,-141.05 418.24,-138.24"/>
<polygon fill="#9a32cd" stroke="#9a32cd" points="260.33,-144.57 250.57,-148.69 260.77,-151.56 260.33,-144.57"/>
<text text-anchor="middle" x="327.5" y="-161.46" font-family="Helvetica,sans-Serif" font-size="10.00"> RCAAPCLASSSET</text>
<text text-anchor="middle" x="327.5" y="-150.46" font-family="Helvetica,sans-Serif" font-size="10.00">uniqueAPClasses</text>
</g>
<!-- Node8 -->
<g id="node8" class="node">
<title>Node8</title>
<g id="a_node8"><a xlink:href="enumdenoptim_1_1graph_1_1_edge_1_1_bond_type.html" target="_top" xlink:title="Possible chemical bond types an edge can represent.">
<polygon fill="white" stroke="black" points="97,-38.96 97,-57.96 249,-57.96 249,-38.96 97,-38.96"/>
<text text-anchor="middle" x="173" y="-45.96" font-family="Helvetica,sans-Serif" font-size="10.00">denoptim.graph.Edge.BondType</text>
</a>
</g>
</g>
<!-- Node8&#45;&gt;Node1 -->
<g id="edge44" class="edge">
<title>Node8&#45;&gt;Node1</title>
<path fill="none" stroke="#9a32cd" stroke-dasharray="5,2" d="M246.11,-37.59C255.15,-36.43 264.28,-35.34 273,-34.46 568.37,-4.42 650.01,24.44 941,-34.46 961.27,-38.56 983.41,-46.46 999.41,-52.83"/>
<polygon fill="#9a32cd" stroke="#9a32cd" points="245.41,-34.15 235.96,-38.94 246.34,-41.09 245.41,-34.15"/>
<text text-anchor="middle" x="617" y="-6.46" font-family="Helvetica,sans-Serif" font-size="10.00"> bondType</text>
</g>
<!-- Node8&#45;&gt;Node5 -->
<g id="edge8" class="edge">
<title>Node8&#45;&gt;Node5</title>
<path fill="none" stroke="#9a32cd" stroke-dasharray="5,2" d="M234.59,-59.99C276.42,-68.55 333.1,-81.33 382,-96.46 408.44,-104.64 437.92,-116.61 457.37,-124.93"/>
<polygon fill="#9a32cd" stroke="#9a32cd" points="235.06,-56.52 224.56,-57.96 233.67,-63.38 235.06,-56.52"/>
<text text-anchor="middle" x="327.5" y="-110.46" font-family="Helvetica,sans-Serif" font-size="10.00"> DEFAULTBT</text>
<text text-anchor="middle" x="327.5" y="-99.46" font-family="Helvetica,sans-Serif" font-size="10.00">bndTyp</text>
</g>
<!-- Node8&#45;&gt;Node33 -->
<g id="edge42" class="edge">
<title>Node8&#45;&gt;Node33</title>
<path fill="none" stroke="#9a32cd" stroke-dasharray="5,2" d="M259.47,-42.31C438.28,-31.4 843.33,-17.45 941,-106.46 976.32,-138.65 927.38,-176.63 959,-212.46 962.4,-216.31 966.55,-219.4 971.09,-221.87"/>
<polygon fill="#9a32cd" stroke="#9a32cd" points="259.08,-38.83 249.32,-42.94 259.52,-45.82 259.08,-38.83"/>
<text text-anchor="middle" x="617" y="-41.46" font-family="Helvetica,sans-Serif" font-size="10.00"> bondType</text>
</g>
<!-- Node9 -->
<g id="node9" class="node">
<title>Node9</title>
<g id="a_node9"><a xlink:title=" ">
<polygon fill="white" stroke="black" points="0,-38.96 0,-57.96 42,-57.96 42,-38.96 0,-38.96"/>
<text text-anchor="middle" x="21" y="-45.96" font-family="Helvetica,sans-Serif" font-size="10.00">IBond</text>
</a>
</g>
</g>
<!-- Node9&#45;&gt;Node8 -->
<g id="edge9" class="edge">
<title>Node9&#45;&gt;Node8</title>
<path fill="none" stroke="#9a32cd" stroke-dasharray="5,2" d="M52.4,-48.46C65.37,-48.46 81.12,-48.46 96.89,-48.46"/>
<polygon fill="#9a32cd" stroke="#9a32cd" points="52.23,-44.96 42.23,-48.46 52.23,-51.96 52.23,-44.96"/>
<text text-anchor="middle" x="66.5" y="-51.46" font-family="Helvetica,sans-Serif" font-size="10.00"> bo</text>
</g>
<!-- Node10 -->
<g id="node10" class="node">
<title>Node10</title>
<g id="a_node10"><a xlink:title=" ">
<polygon fill="white" stroke="black" points="455,-238.96 455,-257.96 505,-257.96 505,-238.96 455,-238.96"/>
<text text-anchor="middle" x="480" y="-245.96" font-family="Helvetica,sans-Serif" font-size="10.00">Point3d</text>
</a>
</g>
</g>
<!-- Node10&#45;&gt;Node2 -->
<g id="edge10" class="edge">
<title>Node10&#45;&gt;Node2</title>
<path fill="none" stroke="#9a32cd" stroke-dasharray="5,2" d="M515.04,-243.86C559.67,-237.84 638.97,-227.13 695.78,-219.46"/>
<polygon fill="#9a32cd" stroke="#9a32cd" points="514.44,-240.41 505,-245.22 515.38,-247.35 514.44,-240.41"/>
<text text-anchor="middle" x="617" y="-237.46" font-family="Helvetica,sans-Serif" font-size="10.00"> dirVec</text>
</g>
<!-- Node11&#45;&gt;Node2 -->
<g id="edge11" class="edge">
<title>Node11&#45;&gt;Node2</title>
<path fill="none" stroke="#9a32cd" stroke-dasharray="5,2" d="M531.49,-457.01C570.09,-445.16 622.24,-423.78 656,-388.46 670.6,-373.18 664.13,-363.14 674,-344.46 697.96,-299.1 733.2,-249.72 751.12,-225.53"/>
<polygon fill="#9a32cd" stroke="#9a32cd" points="530.09,-453.77 521.49,-459.96 532.07,-460.48 530.09,-453.77"/>
<text text-anchor="middle" x="617" y="-442.46" font-family="Helvetica,sans-Serif" font-size="10.00"> owner</text>
</g>
<!-- Node21 -->
<g id="node21" class="node">
<title>Node21</title>
<g id="a_node21"><a xlink:href="classdenoptim_1_1graph_1_1_template.html" target="_top" xlink:title=" ">
<polygon fill="white" stroke="black" points="701,-646.96 701,-665.96 826,-665.96 826,-646.96 701,-646.96"/>
<text text-anchor="middle" x="763.5" y="-653.96" font-family="Helvetica,sans-Serif" font-size="10.00">denoptim.graph.Template</text>
</a>
</g>
</g>
<!-- Node11&#45;&gt;Node21 -->
<g id="edge26" class="edge">
<title>Node11&#45;&gt;Node21</title>
<path fill="none" stroke="midnightblue" d="M500.49,-485.78C533.07,-513.18 600.5,-570.35 656,-620.46 664.17,-627.83 664.26,-632.34 674,-637.46 682.35,-641.85 691.64,-645.22 700.98,-647.82"/>
<polygon fill="midnightblue" stroke="midnightblue" points="502.53,-482.93 492.62,-479.18 498.03,-488.29 502.53,-482.93"/>
</g>
<!-- Node12&#45;&gt;Node11 -->
<g id="edge13" class="edge">
<title>Node12&#45;&gt;Node11</title>
<path fill="none" stroke="#9a32cd" stroke-dasharray="5,2" d="M991.04,-522.89C957.7,-509.02 902.73,-488.31 853,-479.46 742.16,-459.74 609.86,-462.23 536.67,-465.83"/>
<polygon fill="#9a32cd" stroke="#9a32cd" points="990.09,-526.29 1000.67,-526.95 992.82,-519.84 990.09,-526.29"/>
<text text-anchor="middle" x="763.5" y="-482.46" font-family="Helvetica,sans-Serif" font-size="10.00"> owner</text>
</g>
<!-- Node12&#45;&gt;Node18 -->
<g id="edge23" class="edge">
<title>Node12&#45;&gt;Node18</title>
<path fill="none" stroke="#9a32cd" stroke-dasharray="5,2" d="M1049.67,-522.15C1065.17,-514.34 1085.62,-505.47 1105,-501.46 1125.14,-497.29 1147.47,-496.32 1167.68,-496.76"/>
<polygon fill="#9a32cd" stroke="#9a32cd" points="1047.96,-519.1 1040.71,-526.82 1051.2,-525.3 1047.96,-519.1"/>
<text text-anchor="middle" x="1127.5" y="-504.46" font-family="Helvetica,sans-Serif" font-size="10.00"> graph</text>
</g>
<!-- Node12&#45;&gt;Node21 -->
<g id="edge27" class="edge">
<title>Node12&#45;&gt;Node21</title>
<path fill="none" stroke="#9a32cd" stroke-dasharray="5,2" d="M1004.43,-553.15C988.78,-567.28 964.76,-587.29 941,-600.46 912.1,-616.47 900.52,-610.63 871,-625.46 862.41,-629.77 861.86,-633.72 853,-637.46 843.88,-641.31 833.89,-644.42 824.01,-646.91"/>
<polygon fill="#9a32cd" stroke="#9a32cd" points="1006.81,-555.71 1011.8,-546.36 1002.07,-550.56 1006.81,-555.71"/>
<text text-anchor="middle" x="906" y="-628.46" font-family="Helvetica,sans-Serif" font-size="10.00"> innerGraph</text>
</g>
<!-- Node13 -->
<g id="node13" class="node">
<title>Node13</title>
<g id="a_node13"><a xlink:title=" ">
<polygon fill="white" stroke="black" points="697.5,-597.46 697.5,-627.46 829.5,-627.46 829.5,-597.46 697.5,-597.46"/>
<text text-anchor="start" x="705.5" y="-615.46" font-family="Helvetica,sans-Serif" font-size="10.00">ArrayList&lt; denoptim.graph.</text>
<text text-anchor="middle" x="763.5" y="-604.46" font-family="Helvetica,sans-Serif" font-size="10.00">Vertex &gt;</text>
</a>
</g>
</g>
<!-- Node13&#45;&gt;Node12 -->
<g id="edge15" class="edge">
<title>Node13&#45;&gt;Node12</title>
<path fill="none" stroke="#9a32cd" stroke-dasharray="5,2" d="M838.75,-594.86C870.46,-586.89 907.75,-576.92 941,-566.46 960.45,-560.34 982.1,-552.25 998.12,-546.02"/>
<polygon fill="#9a32cd" stroke="#9a32cd" points="837.52,-591.56 828.66,-597.37 839.21,-598.35 837.52,-591.56"/>
<text text-anchor="middle" x="906" y="-588.46" font-family="Helvetica,sans-Serif" font-size="10.00"> gVertices</text>
</g>
<!-- Node14 -->
<g id="node14" class="node">
<title>Node14</title>
<g id="a_node14"><a xlink:title=" ">
<polygon fill="white" stroke="black" points="697.5,-548.46 697.5,-578.46 829.5,-578.46 829.5,-548.46 697.5,-548.46"/>
<text text-anchor="start" x="705.5" y="-566.46" font-family="Helvetica,sans-Serif" font-size="10.00">ArrayList&lt; denoptim.graph.</text>
<text text-anchor="middle" x="763.5" y="-555.46" font-family="Helvetica,sans-Serif" font-size="10.00">Edge &gt;</text>
</a>
</g>
</g>
<!-- Node14&#45;&gt;Node12 -->
<g id="edge16" class="edge">
<title>Node14&#45;&gt;Node12</title>
<path fill="none" stroke="#9a32cd" stroke-dasharray="5,2" d="M839.94,-555.55C879.47,-551.4 927.14,-546.4 963.79,-542.56"/>
<polygon fill="#9a32cd" stroke="#9a32cd" points="839.39,-552.09 829.81,-556.61 840.12,-559.05 839.39,-552.09"/>
<text text-anchor="middle" x="906" y="-554.46" font-family="Helvetica,sans-Serif" font-size="10.00"> gEdges</text>
</g>
<!-- Node15 -->
<g id="node15" class="node">
<title>Node15</title>
<g id="a_node15"><a xlink:title=" ">
<polygon fill="white" stroke="black" points="697.5,-499.46 697.5,-529.46 829.5,-529.46 829.5,-499.46 697.5,-499.46"/>
<text text-anchor="start" x="705.5" y="-517.46" font-family="Helvetica,sans-Serif" font-size="10.00">ArrayList&lt; denoptim.graph.</text>
<text text-anchor="middle" x="763.5" y="-506.46" font-family="Helvetica,sans-Serif" font-size="10.00">Ring &gt;</text>
</a>
</g>
</g>
<!-- Node15&#45;&gt;Node12 -->
<g id="edge17" class="edge">
<title>Node15&#45;&gt;Node12</title>
<path fill="none" stroke="#9a32cd" stroke-dasharray="5,2" d="M839.54,-517.93C870.94,-519.69 907.78,-522.17 941,-525.46 948.34,-526.18 956.05,-527.07 963.66,-528.02"/>
<polygon fill="#9a32cd" stroke="#9a32cd" points="839.73,-514.43 829.55,-517.38 839.35,-521.42 839.73,-514.43"/>
<text text-anchor="middle" x="906" y="-528.46" font-family="Helvetica,sans-Serif" font-size="10.00"> gRings</text>
</g>
<!-- Node16 -->
<g id="node16" class="node">
<title>Node16</title>
<g id="a_node16"><a xlink:title=" ">
<polygon fill="white" stroke="black" points="686,-402.46 686,-432.46 841,-432.46 841,-402.46 686,-402.46"/>
<text text-anchor="start" x="694" y="-420.46" font-family="Helvetica,sans-Serif" font-size="10.00">ArrayList&lt; denoptim.graph.rings.</text>
<text text-anchor="middle" x="763.5" y="-409.46" font-family="Helvetica,sans-Serif" font-size="10.00">ClosableChain &gt;</text>
</a>
</g>
</g>
<!-- Node16&#45;&gt;Node12 -->
<g id="edge18" class="edge">
<title>Node16&#45;&gt;Node12</title>
<path fill="none" stroke="#9a32cd" stroke-dasharray="5,2" d="M851.19,-418.78C881.1,-422.25 913.88,-429.63 941,-444.46 977.41,-464.37 1005.35,-507.33 1016.6,-526.67"/>
<polygon fill="#9a32cd" stroke="#9a32cd" points="851.48,-415.29 841.17,-417.74 850.76,-422.25 851.48,-415.29"/>
<text text-anchor="middle" x="906" y="-447.46" font-family="Helvetica,sans-Serif" font-size="10.00"> closableChains</text>
</g>
<!-- Node17 -->
<g id="node17" class="node">
<title>Node17</title>
<g id="a_node17"><a xlink:title=" ">
<polygon fill="white" stroke="black" points="697.5,-353.46 697.5,-383.46 829.5,-383.46 829.5,-353.46 697.5,-353.46"/>
<text text-anchor="start" x="705.5" y="-371.46" font-family="Helvetica,sans-Serif" font-size="10.00">ArrayList&lt; denoptim.graph.</text>
<text text-anchor="middle" x="763.5" y="-360.46" font-family="Helvetica,sans-Serif" font-size="10.00">SymmetricSet &gt;</text>
</a>
</g>
</g>
<!-- Node17&#45;&gt;Node12 -->
<g id="edge19" class="edge">
<title>Node17&#45;&gt;Node12</title>
<path fill="none" stroke="#9a32cd" stroke-dasharray="5,2" d="M840.03,-371.57C873.45,-376.09 911.72,-385.87 941,-406.46 985.59,-437.81 1010.71,-502.31 1018.95,-526.77"/>
<polygon fill="#9a32cd" stroke="#9a32cd" points="840.17,-368.06 829.82,-370.33 839.33,-375.01 840.17,-368.06"/>
<text text-anchor="middle" x="906" y="-409.46" font-family="Helvetica,sans-Serif" font-size="10.00"> symVertices</text>
</g>
<!-- Node18&#45;&gt;Node12 -->
<g id="edge20" class="edge">
<title>Node18&#45;&gt;Node12</title>
<path fill="none" stroke="#9a32cd" stroke-dasharray="5,2" d="M1163.2,-513.59C1136.94,-517.91 1107.18,-522.8 1081.94,-526.94"/>
<polygon fill="#9a32cd" stroke="#9a32cd" points="1163.78,-517.05 1173.08,-511.97 1162.64,-510.14 1163.78,-517.05"/>
<text text-anchor="middle" x="1127.5" y="-525.46" font-family="Helvetica,sans-Serif" font-size="10.00"> candidate</text>
</g>
<!-- Node19 -->
<g id="node19" class="node">
<title>Node19</title>
<g id="a_node19"><a xlink:title=" ">
<polygon fill="white" stroke="black" points="959,-183.96 959,-202.96 1087,-202.96 1087,-183.96 959,-183.96"/>
<text text-anchor="middle" x="1023" y="-190.96" font-family="Helvetica,sans-Serif" font-size="10.00">Comparable&lt; Candidate &gt;</text>
</a>
</g>
</g>
<!-- Node19&#45;&gt;Node18 -->
<g id="edge21" class="edge">
<title>Node19&#45;&gt;Node18</title>
<path fill="none" stroke="midnightblue" d="M1079.1,-207.39C1081.87,-208.91 1084.53,-210.59 1087,-212.46 1186.86,-287.77 1221.91,-451.24 1229.38,-492.73"/>
<polygon fill="midnightblue" stroke="midnightblue" points="1080.46,-204.16 1069.92,-203.07 1077.48,-210.5 1080.46,-204.16"/>
</g>
<!-- Node20 -->
<g id="node20" class="node">
<title>Node20</title>
<g id="a_node20"><a xlink:title=" ">
<polygon fill="white" stroke="black" points="438,-766.96 438,-785.96 522,-785.96 522,-766.96 438,-766.96"/>
<text text-anchor="middle" x="480" y="-773.96" font-family="Helvetica,sans-Serif" font-size="10.00">IAtomContainer</text>
</a>
</g>
</g>
<!-- Node20&#45;&gt;Node18 -->
<g id="edge24" class="edge">
<title>Node20&#45;&gt;Node18</title>
<path fill="none" stroke="#9a32cd" stroke-dasharray="5,2" d="M518.26,-789.19C585.89,-810.42 732.93,-847.95 853,-818.46 1041.15,-772.25 1192.26,-560.44 1224.59,-512.24"/>
<polygon fill="#9a32cd" stroke="#9a32cd" points="519.08,-785.78 508.49,-786.06 516.95,-792.44 519.08,-785.78"/>
<text text-anchor="middle" x="906" y="-815.46" font-family="Helvetica,sans-Serif" font-size="10.00"> iac</text>
</g>
<!-- Node20&#45;&gt;Node21 -->
<g id="edge28" class="edge">
<title>Node20&#45;&gt;Node21</title>
<path fill="none" stroke="#9a32cd" stroke-dasharray="5,2" d="M524.85,-763.86C562.32,-751.61 616.3,-730.31 656,-699.46 666.25,-691.49 663.03,-683.4 674,-676.46 682.12,-671.32 691.39,-667.49 700.81,-664.64"/>
<polygon fill="#9a32cd" stroke="#9a32cd" points="523.69,-760.55 515.22,-766.93 525.81,-767.22 523.69,-760.55"/>
<text text-anchor="middle" x="617" y="-745.46" font-family="Helvetica,sans-Serif" font-size="10.00"> mol</text>
</g>
<!-- Node21&#45;&gt;Node12 -->
<g id="edge25" class="edge">
<title>Node21&#45;&gt;Node12</title>
<path fill="none" stroke="#9a32cd" stroke-dasharray="5,2" d="M836.61,-661.59C870.17,-660.95 909.53,-655.67 941,-638.46 980.48,-616.86 1007.52,-567.2 1017.61,-546.16"/>
<polygon fill="#9a32cd" stroke="#9a32cd" points="836.37,-658.09 826.39,-661.65 836.41,-665.09 836.37,-658.09"/>
<text text-anchor="middle" x="906" y="-661.46" font-family="Helvetica,sans-Serif" font-size="10.00"> templateJacket</text>
</g>
<!-- Node22 -->
<g id="node22" class="node">
<title>Node22</title>
<g id="a_node22"><a xlink:href="enumdenoptim_1_1graph_1_1_template_1_1_contract_level.html" target="_top" xlink:title="Enum specifying to what extent the template&#39;s inner graph can be changed.">
<polygon fill="white" stroke="black" points="416,-592.46 416,-622.46 544,-622.46 544,-592.46 416,-592.46"/>
<text text-anchor="start" x="424" y="-610.46" font-family="Helvetica,sans-Serif" font-size="10.00">denoptim.graph.Template.</text>
<text text-anchor="middle" x="480" y="-599.46" font-family="Helvetica,sans-Serif" font-size="10.00">ContractLevel</text>
</a>
</g>
</g>
<!-- Node22&#45;&gt;Node21 -->
<g id="edge29" class="edge">
<title>Node22&#45;&gt;Node21</title>
<path fill="none" stroke="#9a32cd" stroke-dasharray="5,2" d="M554.19,-620.2C602.16,-628.55 663.85,-639.29 707.61,-646.9"/>
<polygon fill="#9a32cd" stroke="#9a32cd" points="554.63,-616.72 544.17,-618.45 553.43,-623.62 554.63,-616.72"/>
<text text-anchor="middle" x="617" y="-640.46" font-family="Helvetica,sans-Serif" font-size="10.00"> contractLevel</text>
</g>
<!-- Node23 -->
<g id="node23" class="node">
<title>Node23</title>
<g id="a_node23"><a xlink:title=" ">
<polygon fill="white" stroke="black" points="400,-641.46 400,-671.46 560,-671.46 560,-641.46 400,-641.46"/>
<text text-anchor="start" x="408" y="-659.46" font-family="Helvetica,sans-Serif" font-size="10.00">List&lt; denoptim.graph.Attachment</text>
<text text-anchor="middle" x="480" y="-648.46" font-family="Helvetica,sans-Serif" font-size="10.00">Point &gt;</text>
</a>
</g>
</g>
<!-- Node23&#45;&gt;Node21 -->
<g id="edge30" class="edge">
<title>Node23&#45;&gt;Node21</title>
<path fill="none" stroke="#9a32cd" stroke-dasharray="5,2" d="M570.24,-656.46C612.78,-656.46 662.6,-656.46 700.87,-656.46"/>
<polygon fill="#9a32cd" stroke="#9a32cd" points="570.16,-652.96 560.16,-656.46 570.16,-659.96 570.16,-652.96"/>
<text text-anchor="middle" x="617" y="-659.46" font-family="Helvetica,sans-Serif" font-size="10.00"> requiredAPs</text>
</g>
<!-- Node24 -->
<g id="node24" class="node">
<title>Node24</title>
<g id="a_node24"><a xlink:href="classdenoptim_1_1graph_1_1_a_p_tree_map.html" target="_top" xlink:title="Attachment point mapping where keys are sorted by natural ordering, i.e., by AttachmentPoint#compareT...">
<polygon fill="white" stroke="black" points="411.5,-690.96 411.5,-709.96 548.5,-709.96 548.5,-690.96 411.5,-690.96"/>
<text text-anchor="middle" x="480" y="-697.96" font-family="Helvetica,sans-Serif" font-size="10.00">denoptim.graph.APTreeMap</text>
</a>
</g>
</g>
<!-- Node24&#45;&gt;Node21 -->
<g id="edge31" class="edge">
<title>Node24&#45;&gt;Node21</title>
<path fill="none" stroke="#9a32cd" stroke-dasharray="5,2" d="M552,-689.36C598.11,-682.15 657.58,-672.86 701.54,-665.99"/>
<polygon fill="#9a32cd" stroke="#9a32cd" points="551.42,-685.91 542.08,-690.91 552.5,-692.82 551.42,-685.91"/>
<text text-anchor="middle" x="617" y="-687.46" font-family="Helvetica,sans-Serif" font-size="10.00"> innerToOuterAPs</text>
</g>
<!-- Node25 -->
<g id="node25" class="node">
<title>Node25</title>
<g id="a_node25"><a xlink:title=" ">
<polygon fill="white" stroke="black" points="103.5,-685.46 103.5,-715.46 242.5,-715.46 242.5,-685.46 103.5,-685.46"/>
<text text-anchor="start" x="111.5" y="-703.46" font-family="Helvetica,sans-Serif" font-size="10.00">TreeMap&lt; AttachmentPoint,</text>
<text text-anchor="middle" x="173" y="-692.46" font-family="Helvetica,sans-Serif" font-size="10.00"> AttachmentPoint &gt;</text>
</a>
</g>
</g>
<!-- Node25&#45;&gt;Node24 -->
<g id="edge32" class="edge">
<title>Node25&#45;&gt;Node24</title>
<path fill="none" stroke="midnightblue" d="M253.1,-700.46C302.22,-700.46 364.68,-700.46 411.47,-700.46"/>
<polygon fill="midnightblue" stroke="midnightblue" points="252.83,-696.96 242.83,-700.46 252.83,-703.96 252.83,-696.96"/>
</g>
<!-- Node26 -->
<g id="node26" class="node">
<title>Node26</title>
<g id="a_node26"><a xlink:title=" ">
<polygon fill="white" stroke="black" points="675,-756.46 675,-808.46 852,-808.46 852,-756.46 675,-756.46"/>
<text text-anchor="start" x="683" y="-796.46" font-family="Helvetica,sans-Serif" font-size="10.00">DefaultUndirectedGraph</text>
<text text-anchor="start" x="683" y="-785.46" font-family="Helvetica,sans-Serif" font-size="10.00">&lt; denoptim.graph.Vertex,</text>
<text text-anchor="start" x="683" y="-774.46" font-family="Helvetica,sans-Serif" font-size="10.00"> denoptim.graph.simplified.Undirected</text>
<text text-anchor="middle" x="763.5" y="-763.46" font-family="Helvetica,sans-Serif" font-size="10.00">Edge &gt;</text>
</a>
</g>
</g>
<!-- Node26&#45;&gt;Node12 -->
<g id="edge33" class="edge">
<title>Node26&#45;&gt;Node12</title>
<path fill="none" stroke="#9a32cd" stroke-dasharray="5,2" d="M861.88,-761.27C890.01,-751.38 919.02,-737.06 941,-716.46 994.01,-666.78 1014.77,-575.94 1020.34,-546.18"/>
<polygon fill="#9a32cd" stroke="#9a32cd" points="860.75,-757.96 852.38,-764.46 862.97,-764.59 860.75,-757.96"/>
<text text-anchor="middle" x="906" y="-760.46" font-family="Helvetica,sans-Serif" font-size="10.00"> jGraph</text>
</g>
<!-- Node27 -->
<g id="node27" class="node">
<title>Node27</title>
<g id="a_node27"><a xlink:title=" ">
<polygon fill="white" stroke="black" points="674,-685.46 674,-737.46 853,-737.46 853,-685.46 674,-685.46"/>
<text text-anchor="start" x="682" y="-725.46" font-family="Helvetica,sans-Serif" font-size="10.00">DefaultUndirectedGraph</text>
<text text-anchor="start" x="682" y="-714.46" font-family="Helvetica,sans-Serif" font-size="10.00">&lt; denoptim.graph.simplified.</text>
<text text-anchor="start" x="682" y="-703.46" font-family="Helvetica,sans-Serif" font-size="10.00">Node, denoptim.graph.simplified.Node</text>
<text text-anchor="middle" x="763.5" y="-692.46" font-family="Helvetica,sans-Serif" font-size="10.00">Connection &gt;</text>
</a>
</g>
</g>
<!-- Node27&#45;&gt;Node12 -->
<g id="edge34" class="edge">
<title>Node27&#45;&gt;Node12</title>
<path fill="none" stroke="#9a32cd" stroke-dasharray="5,2" d="M863.29,-704.79C890.38,-699.25 918.47,-689.7 941,-673.46 987.18,-640.18 1011.49,-571.75 1019.22,-546.29"/>
<polygon fill="#9a32cd" stroke="#9a32cd" points="862.55,-701.37 853.37,-706.66 863.84,-708.25 862.55,-701.37"/>
<text text-anchor="middle" x="906" y="-704.46" font-family="Helvetica,sans-Serif" font-size="10.00"> jGraphKernel</text>
</g>
<!-- Node28 -->
<g id="node28" class="node">
<title>Node28</title>
<g id="a_node28"><a xlink:href="enumdenoptim_1_1graph_1_1_vertex_1_1_b_b_type.html" target="_top" xlink:title="The type of building block.">
<polygon fill="white" stroke="black" points="98.5,-547.96 98.5,-566.96 247.5,-566.96 247.5,-547.96 98.5,-547.96"/>
<text text-anchor="middle" x="173" y="-554.96" font-family="Helvetica,sans-Serif" font-size="10.00">denoptim.graph.Vertex.BBType</text>
</a>
</g>
</g>
<!-- Node28&#45;&gt;Node11 -->
<g id="edge35" class="edge">
<title>Node28&#45;&gt;Node11</title>
<path fill="none" stroke="#9a32cd" stroke-dasharray="5,2" d="M257.68,-547.92C296.21,-542.08 342.13,-533.04 382,-519.46 412.49,-509.07 445.26,-490.43 463.84,-479.08"/>
<polygon fill="#9a32cd" stroke="#9a32cd" points="256.92,-544.5 247.53,-549.41 257.94,-551.42 256.92,-544.5"/>
<text text-anchor="middle" x="327.5" y="-547.46" font-family="Helvetica,sans-Serif" font-size="10.00"> buildingBlockType</text>
</g>
<!-- Node29 -->
<g id="node29" class="node">
<title>Node29</title>
<g id="a_node29"><a xlink:title=" ">
<polygon fill="white" stroke="black" points="116,-373.96 116,-392.96 230,-392.96 230,-373.96 116,-373.96"/>
<text text-anchor="middle" x="173" y="-380.96" font-family="Helvetica,sans-Serif" font-size="10.00">Map&lt; Object, Object &gt;</text>
</a>
</g>
</g>
<!-- Node29&#45;&gt;Node2 -->
<g id="edge43" class="edge">
<title>Node29&#45;&gt;Node2</title>
<path fill="none" stroke="#9a32cd" stroke-dasharray="5,2" d="M235.2,-371.91C276.84,-363.64 333.06,-351.66 382,-338.46 505.62,-305.1 534.97,-291.26 656,-249.46 678.05,-241.84 702.51,-232.92 722.42,-225.53"/>
<polygon fill="#9a32cd" stroke="#9a32cd" points="234.34,-368.51 225.21,-373.88 235.7,-375.38 234.34,-368.51"/>
<text text-anchor="middle" x="480" y="-335.46" font-family="Helvetica,sans-Serif" font-size="10.00"> properties</text>
</g>
<!-- Node29&#45;&gt;Node11 -->
<g id="edge36" class="edge">
<title>Node29&#45;&gt;Node11</title>
<path fill="none" stroke="#9a32cd" stroke-dasharray="5,2" d="M239.97,-393.39C281.34,-400.52 335.45,-411.52 382,-426.46 410.24,-435.52 441.32,-450.19 460.51,-459.83"/>
<polygon fill="#9a32cd" stroke="#9a32cd" points="240.46,-389.92 230.01,-391.7 239.29,-396.82 240.46,-389.92"/>
<text text-anchor="middle" x="327.5" y="-429.46" font-family="Helvetica,sans-Serif" font-size="10.00"> properties</text>
</g>
<!-- Node30 -->
<g id="node30" class="node">
<title>Node30</title>
<g id="a_node30"><a xlink:title=" ">
<polygon fill="white" stroke="black" points="136,-509.96 136,-528.96 210,-528.96 210,-509.96 136,-509.96"/>
<text text-anchor="middle" x="173" y="-516.96" font-family="Helvetica,sans-Serif" font-size="10.00">Set&lt; String &gt;</text>
</a>
</g>
</g>
<!-- Node30&#45;&gt;Node11 -->
<g id="edge37" class="edge">
<title>Node30&#45;&gt;Node11</title>
<path fill="none" stroke="#9a32cd" stroke-dasharray="5,2" d="M220.1,-512.78C262.29,-506.57 326.43,-496.89 382,-487.46 397.37,-484.85 414.07,-481.82 429.21,-479"/>
<polygon fill="#9a32cd" stroke="#9a32cd" points="219.51,-509.33 210.13,-514.24 220.53,-516.26 219.51,-509.33"/>
<text text-anchor="middle" x="327.5" y="-507.46" font-family="Helvetica,sans-Serif" font-size="10.00"> uniquefyingPropertyKeys</text>
</g>
<!-- Node31 -->
<g id="node31" class="node">
<title>Node31</title>
<g id="a_node31"><a xlink:title=" ">
<polygon fill="white" stroke="black" points="102.5,-460.46 102.5,-490.46 243.5,-490.46 243.5,-460.46 102.5,-460.46"/>
<text text-anchor="start" x="110.5" y="-478.46" font-family="Helvetica,sans-Serif" font-size="10.00">List&lt; denoptim.utils.Mutation</text>
<text text-anchor="middle" x="173" y="-467.46" font-family="Helvetica,sans-Serif" font-size="10.00">Type &gt;</text>
</a>
</g>
</g>
<!-- Node31&#45;&gt;Node11 -->
<g id="edge38" class="edge">
<title>Node31&#45;&gt;Node11</title>
<path fill="none" stroke="#9a32cd" stroke-dasharray="5,2" d="M253.7,-473.89C307.06,-472.84 375.96,-471.49 423.44,-470.55"/>
<polygon fill="#9a32cd" stroke="#9a32cd" points="253.52,-470.39 243.59,-474.09 253.66,-477.39 253.52,-470.39"/>
<text text-anchor="middle" x="327.5" y="-475.46" font-family="Helvetica,sans-Serif" font-size="10.00"> allowedMutationTypes</text>
</g>
<!-- Node32 -->
<g id="node32" class="node">
<title>Node32</title>
<g id="a_node32"><a xlink:href="enumdenoptim_1_1graph_1_1_vertex_1_1_vertex_type.html" target="_top" xlink:title="Flag declaring the type of Vertex implementation.">
<polygon fill="white" stroke="black" points="91,-421.96 91,-440.96 255,-440.96 255,-421.96 91,-421.96"/>
<text text-anchor="middle" x="173" y="-428.96" font-family="Helvetica,sans-Serif" font-size="10.00">denoptim.graph.Vertex.VertexType</text>
</a>
</g>
</g>
<!-- Node32&#45;&gt;Node11 -->
<g id="edge39" class="edge">
<title>Node32&#45;&gt;Node11</title>
<path fill="none" stroke="#9a32cd" stroke-dasharray="5,2" d="M265.16,-441.41C301.54,-445.53 343.78,-450.5 382,-455.46 395.41,-457.2 409.85,-459.21 423.38,-461.15"/>
<polygon fill="#9a32cd" stroke="#9a32cd" points="265.39,-437.91 255.06,-440.27 264.61,-444.87 265.39,-437.91"/>
<text text-anchor="middle" x="327.5" y="-458.46" font-family="Helvetica,sans-Serif" font-size="10.00"> vertexType</text>
</g>
<!-- Node33&#45;&gt;Node2 -->
<g id="edge40" class="edge">
<title>Node33&#45;&gt;Node2</title>
<path fill="none" stroke="#9a32cd" stroke-dasharray="5,2" d="M959.3,-226.34C920.49,-223.18 870.68,-219.12 831.15,-215.89"/>
<polygon fill="#9a32cd" stroke="#9a32cd" points="959.18,-229.85 969.43,-227.17 959.75,-222.87 959.18,-229.85"/>
<text text-anchor="middle" x="906" y="-227.46" font-family="Helvetica,sans-Serif" font-size="10.00"> user</text>
</g>
</g>
</svg>
