<?xml version="1.0" encoding="UTF-8" standalone="no"?>
<!DOCTYPE svg PUBLIC "-//W3C//DTD SVG 1.1//EN"
 "http://www.w3.org/Graphics/SVG/1.1/DTD/svg11.dtd">
<!-- Generated by graphviz version 3.0.0 (20220413.0242)
 -->
<!-- Title: denoptim.graph.rings.RingClosureParameters.getRCDistTolerance Pages: 1 -->
<svg width="2184pt" height="227pt"
 viewBox="0.00 0.00 2184.00 226.50" xmlns="http://www.w3.org/2000/svg" xmlns:xlink="http://www.w3.org/1999/xlink">
<g id="graph0" class="graph" transform="scale(1 1) rotate(0) translate(4 222.5)">
<title>denoptim.graph.rings.RingClosureParameters.getRCDistTolerance</title>
<polygon fill="white" stroke="transparent" points="-4,4 -4,-222.5 2180,-222.5 2180,4 -4,4"/>
<!-- Node1 -->
<g id="node1" class="node">
<title>Node1</title>
<g id="a_node1"><a xlink:title=" ">
<polygon fill="#bfbfbf" stroke="black" points="1987,-155.5 1987,-185.5 2176,-185.5 2176,-155.5 1987,-155.5"/>
<text text-anchor="start" x="1995" y="-173.5" font-family="Helvetica,sans-Serif" font-size="10.00">denoptim.graph.rings.Ring</text>
<text text-anchor="middle" x="2081.5" y="-162.5" font-family="Helvetica,sans-Serif" font-size="10.00">ClosureParameters.getRCDistTolerance</text>
</a>
</g>
</g>
<!-- Node2 -->
<g id="node2" class="node">
<title>Node2</title>
<g id="a_node2"><a xlink:href="classdenoptim_1_1molecularmodeling_1_1_ring_closure_tool.html#a065481cf3ca3229eee8b417fa3f7c0b5" target="_top" xlink:title="Makes new rings by connecting pairs of atoms that hold properly arranged RingClosingAttractors.">
<polygon fill="white" stroke="black" points="1802.5,-180.5 1802.5,-210.5 1944.5,-210.5 1944.5,-180.5 1802.5,-180.5"/>
<text text-anchor="start" x="1810.5" y="-198.5" font-family="Helvetica,sans-Serif" font-size="10.00">denoptim.molecularmodeling.</text>
<text text-anchor="middle" x="1873.5" y="-187.5" font-family="Helvetica,sans-Serif" font-size="10.00">RingClosureTool.closeRings</text>
</a>
</g>
</g>
<!-- Node1&#45;&gt;Node2 -->
<g id="edge1" class="edge">
<title>Node1&#45;&gt;Node2</title>
<path fill="none" stroke="midnightblue" d="M1976.88,-183.08C1966.02,-184.39 1955.16,-185.71 1944.8,-186.97"/>
<polygon fill="midnightblue" stroke="midnightblue" points="1977.34,-186.55 1986.84,-181.87 1976.49,-179.6 1977.34,-186.55"/>
</g>
<!-- Node7 -->
<g id="node7" class="node">
<title>Node7</title>
<g id="a_node7"><a xlink:href="classdenoptim_1_1graph_1_1rings_1_1_ring_closure.html#a3f5608b6f2844cb59cd1c709c5912072" target="_top" xlink:title="Returns the list of min/max values defining the closability conditions.">
<polygon fill="white" stroke="black" points="1796,-131.5 1796,-161.5 1951,-161.5 1951,-131.5 1796,-131.5"/>
<text text-anchor="start" x="1804" y="-149.5" font-family="Helvetica,sans-Serif" font-size="10.00">denoptim.graph.rings.Ring</text>
<text text-anchor="middle" x="1873.5" y="-138.5" font-family="Helvetica,sans-Serif" font-size="10.00">Closure.getClosabilityConditions</text>
</a>
</g>
</g>
<!-- Node1&#45;&gt;Node7 -->
<g id="edge6" class="edge">
<title>Node1&#45;&gt;Node7</title>
<path fill="none" stroke="midnightblue" d="M1976.77,-158.42C1968.19,-157.41 1959.61,-156.42 1951.27,-155.44"/>
<polygon fill="midnightblue" stroke="midnightblue" points="1976.51,-161.91 1986.84,-159.59 1977.32,-154.95 1976.51,-161.91"/>
</g>
<!-- Node3 -->
<g id="node3" class="node">
<title>Node3</title>
<g id="a_node3"><a xlink:href="classdenoptim_1_1molecularmodeling_1_1_ring_closure_tool.html#abd87e8b7391948be1c3156eb9d131be7" target="_top" xlink:title="Attempts to close rings by finding the conformation that allows to join heads and tails of atom speci...">
<polygon fill="white" stroke="black" points="1584,-181.5 1584,-211.5 1760,-211.5 1760,-181.5 1584,-181.5"/>
<text text-anchor="start" x="1592" y="-199.5" font-family="Helvetica,sans-Serif" font-size="10.00">denoptim.molecularmodeling.</text>
<text text-anchor="middle" x="1672" y="-188.5" font-family="Helvetica,sans-Serif" font-size="10.00">RingClosureTool.attemptRingClosure</text>
</a>
</g>
</g>
<!-- Node2&#45;&gt;Node3 -->
<g id="edge2" class="edge">
<title>Node2&#45;&gt;Node3</title>
<path fill="none" stroke="midnightblue" d="M1792.36,-195.9C1781.73,-195.95 1770.8,-196.01 1760.06,-196.06"/>
<polygon fill="midnightblue" stroke="midnightblue" points="1792.46,-199.4 1802.44,-195.85 1792.43,-192.4 1792.46,-199.4"/>
</g>
<!-- Node4 -->
<g id="node4" class="node">
<title>Node4</title>
<g id="a_node4"><a xlink:href="classdenoptim_1_1molecularmodeling_1_1_ring_closure_tool.html#a26896649739e0a5e63dd88079c6efe7a" target="_top" xlink:title="Performs one or more attempts to close rings by conformational adaptation.">
<polygon fill="white" stroke="black" points="1356,-181.5 1356,-211.5 1548,-211.5 1548,-181.5 1356,-181.5"/>
<text text-anchor="start" x="1364" y="-199.5" font-family="Helvetica,sans-Serif" font-size="10.00">denoptim.molecularmodeling.</text>
<text text-anchor="middle" x="1452" y="-188.5" font-family="Helvetica,sans-Serif" font-size="10.00">RingClosureTool.attemptAllRingClosures</text>
</a>
</g>
</g>
<!-- Node3&#45;&gt;Node4 -->
<g id="edge3" class="edge">
<title>Node3&#45;&gt;Node4</title>
<path fill="none" stroke="midnightblue" d="M1573.64,-196.5C1565.19,-196.5 1556.63,-196.5 1548.19,-196.5"/>
<polygon fill="midnightblue" stroke="midnightblue" points="1573.9,-200 1583.9,-196.5 1573.9,-193 1573.9,-200"/>
</g>
<!-- Node5 -->
<g id="node5" class="node">
<title>Node5</title>
<g id="a_node5"><a xlink:href="classdenoptim_1_1molecularmodeling_1_1_multi_molecular_model_builder.html#a6a8e314f3fb37f66c32c8c4d5695b8a4" target="_top" xlink:title="Given the graph representation of the molecular constitution, along with the 3D coordinates of the fr...">
<polygon fill="white" stroke="black" points="1151,-177 1151,-218 1309,-218 1309,-177 1151,-177"/>
<text text-anchor="start" x="1159" y="-206" font-family="Helvetica,sans-Serif" font-size="10.00">denoptim.molecularmodeling.</text>
<text text-anchor="start" x="1159" y="-195" font-family="Helvetica,sans-Serif" font-size="10.00">MultiMolecularModelBuilder.build</text>
<text text-anchor="middle" x="1230" y="-184" font-family="Helvetica,sans-Serif" font-size="10.00">Multi3DStructure</text>
</a>
</g>
</g>
<!-- Node4&#45;&gt;Node5 -->
<g id="edge4" class="edge">
<title>Node4&#45;&gt;Node5</title>
<path fill="none" stroke="midnightblue" d="M1345.53,-196.98C1333.28,-197.04 1320.96,-197.09 1309.17,-197.14"/>
<polygon fill="midnightblue" stroke="midnightblue" points="1345.8,-200.48 1355.78,-196.93 1345.77,-193.48 1345.8,-200.48"/>
</g>
<!-- Node6 -->
<g id="node6" class="node">
<title>Node6</title>
<g id="a_node6"><a xlink:href="classdenoptim_1_1programs_1_1moldecularmodelbuilder_1_1_molecular_model_builder.html#ad2e44290de6a861274def677044e9754" target="_top" xlink:title=" ">
<polygon fill="white" stroke="black" points="898,-182.5 898,-212.5 1104,-212.5 1104,-182.5 898,-182.5"/>
<text text-anchor="start" x="906" y="-200.5" font-family="Helvetica,sans-Serif" font-size="10.00">denoptim.programs.moldecularmodelbuilder.</text>
<text text-anchor="middle" x="1001" y="-189.5" font-family="Helvetica,sans-Serif" font-size="10.00">MolecularModelBuilder.runProgram</text>
</a>
</g>
</g>
<!-- Node5&#45;&gt;Node6 -->
<g id="edge5" class="edge">
<title>Node5&#45;&gt;Node6</title>
<path fill="none" stroke="midnightblue" d="M1140.55,-197.5C1128.67,-197.5 1116.41,-197.5 1104.32,-197.5"/>
<polygon fill="midnightblue" stroke="midnightblue" points="1140.88,-201 1150.88,-197.5 1140.88,-194 1140.88,-201"/>
</g>
<!-- Node8 -->
<g id="node8" class="node">
<title>Node8</title>
<g id="a_node8"><a xlink:href="classdenoptim_1_1graph_1_1rings_1_1_ring_closure_finder.html#a51c84fa00fdd0c1c2642f21070f222fa" target="_top" xlink:title="Giving a list of points in 3D space (the path) this method evaluates whether it exists at least one c...">
<polygon fill="white" stroke="black" points="1592,-131.5 1592,-161.5 1752,-161.5 1752,-131.5 1592,-131.5"/>
<text text-anchor="start" x="1600" y="-149.5" font-family="Helvetica,sans-Serif" font-size="10.00">denoptim.graph.rings.Ring</text>
<text text-anchor="middle" x="1672" y="-138.5" font-family="Helvetica,sans-Serif" font-size="10.00">ClosureFinder.evaluateClosability</text>
</a>
</g>
</g>
<!-- Node7&#45;&gt;Node8 -->
<g id="edge7" class="edge">
<title>Node7&#45;&gt;Node8</title>
<path fill="none" stroke="midnightblue" d="M1785.8,-146.5C1774.68,-146.5 1763.33,-146.5 1752.33,-146.5"/>
<polygon fill="midnightblue" stroke="midnightblue" points="1785.94,-150 1795.94,-146.5 1785.94,-143 1785.94,-150"/>
</g>
<!-- Node9 -->
<g id="node9" class="node">
<title>Node9</title>
<g id="a_node9"><a xlink:href="classdenoptim_1_1graph_1_1rings_1_1_cyclic_graph_handler.html#ab2b4cde037177c1fc44191de9b023dc3" target="_top" xlink:title="Method to evaluate the closability of a single path in a graph representing a molecule.">
<polygon fill="white" stroke="black" points="1356,-130.5 1356,-160.5 1548,-160.5 1548,-130.5 1356,-130.5"/>
<text text-anchor="start" x="1364" y="-148.5" font-family="Helvetica,sans-Serif" font-size="10.00">denoptim.graph.rings.Cyclic</text>
<text text-anchor="middle" x="1452" y="-137.5" font-family="Helvetica,sans-Serif" font-size="10.00">GraphHandler.evaluate3DPathClosability</text>
</a>
</g>
</g>
<!-- Node8&#45;&gt;Node9 -->
<g id="edge8" class="edge">
<title>Node8&#45;&gt;Node9</title>
<path fill="none" stroke="midnightblue" d="M1581.86,-146.09C1570.72,-146.04 1559.3,-145.99 1548.08,-145.94"/>
<polygon fill="midnightblue" stroke="midnightblue" points="1581.97,-149.59 1591.99,-146.14 1582,-142.59 1581.97,-149.59"/>
</g>
<!-- Node10 -->
<g id="node10" class="node">
<title>Node10</title>
<g id="a_node10"><a xlink:href="classdenoptim_1_1graph_1_1rings_1_1_cyclic_graph_handler.html#abd43d52fe626625dab3da6a32038e57b" target="_top" xlink:title="Method to evaluate the closability of a single path in a graph representing a molecule.">
<polygon fill="white" stroke="black" points="1140,-128.5 1140,-158.5 1320,-158.5 1320,-128.5 1140,-128.5"/>
<text text-anchor="start" x="1148" y="-146.5" font-family="Helvetica,sans-Serif" font-size="10.00">denoptim.graph.rings.Cyclic</text>
<text text-anchor="middle" x="1230" y="-135.5" font-family="Helvetica,sans-Serif" font-size="10.00">GraphHandler.evaluatePathClosability</text>
</a>
</g>
</g>
<!-- Node9&#45;&gt;Node10 -->
<g id="edge9" class="edge">
<title>Node9&#45;&gt;Node10</title>
<path fill="none" stroke="midnightblue" d="M1345.75,-144.54C1337.17,-144.47 1328.56,-144.39 1320.11,-144.31"/>
<polygon fill="midnightblue" stroke="midnightblue" points="1345.75,-148.04 1355.78,-144.63 1345.82,-141.04 1345.75,-148.04"/>
</g>
<!-- Node11 -->
<g id="node11" class="node">
<title>Node11</title>
<g id="a_node11"><a xlink:href="classdenoptim_1_1graph_1_1rings_1_1_cyclic_graph_handler.html#a3ce96322723f45d9285a248ebcef94d3" target="_top" xlink:title="Identifies all possible ring closing paths and returns them as list of DENOPTIMRings ready to be appe...">
<polygon fill="white" stroke="black" points="909,-123 909,-164 1093,-164 1093,-123 909,-123"/>
<text text-anchor="start" x="917" y="-152" font-family="Helvetica,sans-Serif" font-size="10.00">denoptim.graph.rings.Cyclic</text>
<text text-anchor="start" x="917" y="-141" font-family="Helvetica,sans-Serif" font-size="10.00">GraphHandler.getPossibleCombination</text>
<text text-anchor="middle" x="1001" y="-130" font-family="Helvetica,sans-Serif" font-size="10.00">OfRings</text>
</a>
</g>
</g>
<!-- Node10&#45;&gt;Node11 -->
<g id="edge10" class="edge">
<title>Node10&#45;&gt;Node11</title>
<path fill="none" stroke="midnightblue" d="M1129.75,-143.5C1117.55,-143.5 1105.12,-143.5 1093.05,-143.5"/>
<polygon fill="midnightblue" stroke="midnightblue" points="1129.94,-147 1139.94,-143.5 1129.94,-140 1129.94,-147"/>
</g>
<!-- Node23 -->
<g id="node23" class="node">
<title>Node23</title>
<g id="a_node23"><a xlink:href="classdenoptim_1_1graph_1_1rings_1_1_cyclic_graph_handler.html#a08b02946eaac7c2cbbe6e71332d702e6" target="_top" xlink:title="Identifies a random combination of ring closing paths and returns it as list of DENOPTIMRings ready t...">
<polygon fill="white" stroke="black" points="910,-63 910,-104 1092,-104 1092,-63 910,-63"/>
<text text-anchor="start" x="918" y="-92" font-family="Helvetica,sans-Serif" font-size="10.00">denoptim.graph.rings.Cyclic</text>
<text text-anchor="start" x="918" y="-81" font-family="Helvetica,sans-Serif" font-size="10.00">GraphHandler.getRandomCombination</text>
<text text-anchor="middle" x="1001" y="-70" font-family="Helvetica,sans-Serif" font-size="10.00">OfRings</text>
</a>
</g>
</g>
<!-- Node10&#45;&gt;Node23 -->
<g id="edge24" class="edge">
<title>Node10&#45;&gt;Node23</title>
<path fill="none" stroke="midnightblue" d="M1162.28,-125.87C1136.36,-119.01 1106.48,-111.12 1079.6,-104.01"/>
<polygon fill="midnightblue" stroke="midnightblue" points="1161.45,-129.27 1172.01,-128.44 1163.24,-122.5 1161.45,-129.27"/>
</g>
<!-- Node12 -->
<g id="node12" class="node">
<title>Node12</title>
<g id="a_node12"><a xlink:href="classdenoptim_1_1graph_1_1_d_graph.html#a7a4743d014e860237f4b20703ef9779b" target="_top" xlink:title="Evaluates the possibility of closing rings in this graph and generates all alternative graphs resulti...">
<polygon fill="white" stroke="black" points="707,-137.5 707,-167.5 862,-167.5 862,-137.5 707,-137.5"/>
<text text-anchor="start" x="715" y="-155.5" font-family="Helvetica,sans-Serif" font-size="10.00">denoptim.graph.DGraph.make</text>
<text text-anchor="middle" x="784.5" y="-144.5" font-family="Helvetica,sans-Serif" font-size="10.00">AllGraphsWithDifferentRingSets</text>
</a>
</g>
</g>
<!-- Node11&#45;&gt;Node12 -->
<g id="edge11" class="edge">
<title>Node11&#45;&gt;Node12</title>
<path fill="none" stroke="midnightblue" d="M898.49,-147.76C886.27,-148.27 873.95,-148.79 862.17,-149.28"/>
<polygon fill="midnightblue" stroke="midnightblue" points="898.88,-151.25 908.72,-147.33 898.58,-144.25 898.88,-151.25"/>
</g>
<!-- Node14 -->
<g id="node14" class="node">
<title>Node14</title>
<g id="a_node14"><a xlink:href="classdenoptim_1_1ga_1_1_e_a_utils.html#a1ddb932d4618434d435e4f85ce5e5eb5" target="_top" xlink:title="Evaluates the possibility of closing rings in a given graph and if any ring can be closed,...">
<polygon fill="white" stroke="black" points="719,-68.5 719,-98.5 850,-98.5 850,-68.5 719,-68.5"/>
<text text-anchor="start" x="727" y="-86.5" font-family="Helvetica,sans-Serif" font-size="10.00">denoptim.ga.EAUtils.setup</text>
<text text-anchor="middle" x="784.5" y="-75.5" font-family="Helvetica,sans-Serif" font-size="10.00">Rings</text>
</a>
</g>
</g>
<!-- Node11&#45;&gt;Node14 -->
<g id="edge13" class="edge">
<title>Node11&#45;&gt;Node14</title>
<path fill="none" stroke="midnightblue" d="M916.63,-120.18C890.64,-112.91 862.68,-105.09 839.28,-98.54"/>
<polygon fill="midnightblue" stroke="midnightblue" points="915.91,-123.61 926.48,-122.94 917.79,-116.87 915.91,-123.61"/>
</g>
<!-- Node13 -->
<g id="node13" class="node">
<title>Node13</title>
<g id="a_node13"><a xlink:href="classdenoptim_1_1combinatorial_1_1_graph_building_task.html#a3eaee724fc921194fa158714aafe182d" target="_top" xlink:title="Calls the task.">
<polygon fill="white" stroke="black" points="526,-147.5 526,-177.5 671,-177.5 671,-147.5 526,-147.5"/>
<text text-anchor="start" x="534" y="-165.5" font-family="Helvetica,sans-Serif" font-size="10.00">denoptim.combinatorial.Graph</text>
<text text-anchor="middle" x="598.5" y="-154.5" font-family="Helvetica,sans-Serif" font-size="10.00">BuildingTask.call</text>
</a>
</g>
</g>
<!-- Node12&#45;&gt;Node13 -->
<g id="edge12" class="edge">
<title>Node12&#45;&gt;Node13</title>
<path fill="none" stroke="midnightblue" d="M696.75,-157.21C688.15,-157.68 679.49,-158.15 671.07,-158.61"/>
<polygon fill="midnightblue" stroke="midnightblue" points="697,-160.71 706.8,-156.67 696.62,-153.72 697,-160.71"/>
</g>
<!-- Node15 -->
<g id="node15" class="node">
<title>Node15</title>
<g id="a_node15"><a xlink:href="classdenoptim_1_1ga_1_1_e_a_utils.html#a5cb6bbe9f383bf821f3b1f1c5e60031b" target="_top" xlink:title=" ">
<polygon fill="white" stroke="black" points="535,-98.5 535,-128.5 662,-128.5 662,-98.5 535,-98.5"/>
<text text-anchor="start" x="543" y="-116.5" font-family="Helvetica,sans-Serif" font-size="10.00">denoptim.ga.EAUtils.build</text>
<text text-anchor="middle" x="598.5" y="-105.5" font-family="Helvetica,sans-Serif" font-size="10.00">CandidateByMutation</text>
</a>
</g>
</g>
<!-- Node14&#45;&gt;Node15 -->
<g id="edge14" class="edge">
<title>Node14&#45;&gt;Node15</title>
<path fill="none" stroke="midnightblue" d="M708.81,-95.68C693.31,-98.21 677.12,-100.84 662.1,-103.29"/>
<polygon fill="midnightblue" stroke="midnightblue" points="709.58,-99.1 718.89,-94.03 708.45,-92.19 709.58,-99.1"/>
</g>
<!-- Node20 -->
<g id="node20" class="node">
<title>Node20</title>
<g id="a_node20"><a xlink:href="classdenoptim_1_1ga_1_1_e_a_utils.html#a98553265dd4b441b11c6d97d098edb08" target="_top" xlink:title="Generates a new offspring by performing a crossover operation.">
<polygon fill="white" stroke="black" points="535,-49.5 535,-79.5 662,-79.5 662,-49.5 535,-49.5"/>
<text text-anchor="start" x="543" y="-67.5" font-family="Helvetica,sans-Serif" font-size="10.00">denoptim.ga.EAUtils.build</text>
<text text-anchor="middle" x="598.5" y="-56.5" font-family="Helvetica,sans-Serif" font-size="10.00">CandidateByXOver</text>
</a>
</g>
</g>
<!-- Node14&#45;&gt;Node20 -->
<g id="edge19" class="edge">
<title>Node14&#45;&gt;Node20</title>
<path fill="none" stroke="midnightblue" d="M708.81,-75.79C693.31,-74.19 677.12,-72.52 662.1,-70.96"/>
<polygon fill="midnightblue" stroke="midnightblue" points="708.58,-79.28 718.89,-76.83 709.3,-72.32 708.58,-79.28"/>
</g>
<!-- Node21 -->
<g id="node21" class="node">
<title>Node21</title>
<g id="a_node21"><a xlink:href="classdenoptim_1_1ga_1_1_e_a_utils.html#ad3d2daeb11e68a356e971ca1846596b5" target="_top" xlink:title=" ">
<polygon fill="white" stroke="black" points="535,-0.5 535,-30.5 662,-30.5 662,-0.5 535,-0.5"/>
<text text-anchor="start" x="543" y="-18.5" font-family="Helvetica,sans-Serif" font-size="10.00">denoptim.ga.EAUtils.build</text>
<text text-anchor="middle" x="598.5" y="-7.5" font-family="Helvetica,sans-Serif" font-size="10.00">CandidateFromScratch</text>
</a>
</g>
</g>
<!-- Node14&#45;&gt;Node21 -->
<g id="edge20" class="edge">
<title>Node14&#45;&gt;Node21</title>
<path fill="none" stroke="midnightblue" d="M737.13,-64.78C716.91,-56.76 692.87,-47.44 671,-39.5 662.75,-36.51 653.93,-33.43 645.39,-30.53"/>
<polygon fill="midnightblue" stroke="midnightblue" points="735.84,-68.03 746.43,-68.47 738.43,-61.53 735.84,-68.03"/>
</g>
<!-- Node16 -->
<g id="node16" class="node">
<title>Node16</title>
<g id="a_node16"><a xlink:href="classdenoptim_1_1ga_1_1_evolutionary_algorithm.html#a596b2f5f0b097c5b67a6e5163bd6fe66" target="_top" xlink:title="Generates a given number of new candidate items and adds them to the current population.">
<polygon fill="white" stroke="black" points="353,-49.5 353,-79.5 487,-79.5 487,-49.5 353,-49.5"/>
<text text-anchor="start" x="361" y="-67.5" font-family="Helvetica,sans-Serif" font-size="10.00">denoptim.ga.Evolutionary</text>
<text text-anchor="middle" x="420" y="-56.5" font-family="Helvetica,sans-Serif" font-size="10.00">Algorithm.evolvePopulation</text>
</a>
</g>
</g>
<!-- Node15&#45;&gt;Node16 -->
<g id="edge15" class="edge">
<title>Node15&#45;&gt;Node16</title>
<path fill="none" stroke="midnightblue" d="M533.31,-95.68C514.25,-90.39 493.57,-84.65 475.22,-79.55"/>
<polygon fill="midnightblue" stroke="midnightblue" points="532.53,-99.1 543.1,-98.4 534.4,-92.35 532.53,-99.1"/>
</g>
<!-- Node17 -->
<g id="node17" class="node">
<title>Node17</title>
<g id="a_node17"><a xlink:href="classdenoptim_1_1ga_1_1_evolutionary_algorithm.html#a6bfc2fa59b199da6259b5b6bad3d6de7" target="_top" xlink:title=" ">
<polygon fill="white" stroke="black" points="190,-24.5 190,-54.5 314,-54.5 314,-24.5 190,-24.5"/>
<text text-anchor="start" x="198" y="-42.5" font-family="Helvetica,sans-Serif" font-size="10.00">denoptim.ga.Evolutionary</text>
<text text-anchor="middle" x="252" y="-31.5" font-family="Helvetica,sans-Serif" font-size="10.00">Algorithm.run</text>
</a>
</g>
</g>
<!-- Node16&#45;&gt;Node17 -->
<g id="edge16" class="edge">
<title>Node16&#45;&gt;Node17</title>
<path fill="none" stroke="midnightblue" d="M342.9,-53.04C333.21,-51.58 323.41,-50.1 314.01,-48.69"/>
<polygon fill="midnightblue" stroke="midnightblue" points="342.51,-56.52 352.92,-54.55 343.55,-49.6 342.51,-56.52"/>
</g>
<!-- Node18 -->
<g id="node18" class="node">
<title>Node18</title>
<g id="a_node18"><a xlink:href="classdenoptim_1_1ga_1_1_evolutionary_algorithm.html#a0f2063b722b7291daf83d62acaa683d3" target="_top" xlink:title=" ">
<polygon fill="white" stroke="black" points="0,-49.5 0,-79.5 154,-79.5 154,-49.5 0,-49.5"/>
<text text-anchor="start" x="8" y="-67.5" font-family="Helvetica,sans-Serif" font-size="10.00">denoptim.ga.Evolutionary</text>
<text text-anchor="middle" x="77" y="-56.5" font-family="Helvetica,sans-Serif" font-size="10.00">Algorithm.EvolutionaryAlgorithm</text>
</a>
</g>
</g>
<!-- Node17&#45;&gt;Node18 -->
<g id="edge17" class="edge">
<title>Node17&#45;&gt;Node18</title>
<path fill="none" stroke="midnightblue" d="M179.44,-49.84C171.09,-51.05 162.54,-52.28 154.12,-53.5"/>
<polygon fill="midnightblue" stroke="midnightblue" points="180.12,-53.28 189.52,-48.38 179.12,-46.35 180.12,-53.28"/>
</g>
<!-- Node19 -->
<g id="node19" class="node">
<title>Node19</title>
<g id="a_node19"><a xlink:href="classdenoptim_1_1programs_1_1denovo_1_1_g_a_runner.html#a7cafd6d78727b89dce3e2c8d06f0dd7c" target="_top" xlink:title=" ">
<polygon fill="white" stroke="black" points="9.5,-0.5 9.5,-30.5 144.5,-30.5 144.5,-0.5 9.5,-0.5"/>
<text text-anchor="start" x="17.5" y="-18.5" font-family="Helvetica,sans-Serif" font-size="10.00">denoptim.programs.denovo.</text>
<text text-anchor="middle" x="77" y="-7.5" font-family="Helvetica,sans-Serif" font-size="10.00">GARunner.runProgram</text>
</a>
</g>
</g>
<!-- Node17&#45;&gt;Node19 -->
<g id="edge18" class="edge">
<title>Node17&#45;&gt;Node19</title>
<path fill="none" stroke="midnightblue" d="M179.48,-29.58C167.92,-27.97 156,-26.32 144.57,-24.73"/>
<polygon fill="midnightblue" stroke="midnightblue" points="179.13,-33.06 189.52,-30.97 180.1,-26.13 179.13,-33.06"/>
</g>
<!-- Node21&#45;&gt;Node16 -->
<g id="edge21" class="edge">
<title>Node21&#45;&gt;Node16</title>
<path fill="none" stroke="midnightblue" d="M533.31,-33.32C514.25,-38.61 493.57,-44.35 475.22,-49.45"/>
<polygon fill="midnightblue" stroke="midnightblue" points="534.4,-36.65 543.1,-30.6 532.53,-29.9 534.4,-36.65"/>
</g>
<!-- Node22 -->
<g id="node22" class="node">
<title>Node22</title>
<g id="a_node22"><a xlink:href="classdenoptim_1_1ga_1_1_evolutionary_algorithm.html#ad43588620dab3340e0d8b0042ec73618" target="_top" xlink:title="Fills up the population with candidates build from scratch.">
<polygon fill="white" stroke="black" points="350,-0.5 350,-30.5 490,-30.5 490,-0.5 350,-0.5"/>
<text text-anchor="start" x="358" y="-18.5" font-family="Helvetica,sans-Serif" font-size="10.00">denoptim.ga.Evolutionary</text>
<text text-anchor="middle" x="420" y="-7.5" font-family="Helvetica,sans-Serif" font-size="10.00">Algorithm.initializePopulation</text>
</a>
</g>
</g>
<!-- Node21&#45;&gt;Node22 -->
<g id="edge22" class="edge">
<title>Node21&#45;&gt;Node22</title>
<path fill="none" stroke="midnightblue" d="M524.46,-15.5C513.1,-15.5 501.39,-15.5 490.12,-15.5"/>
<polygon fill="midnightblue" stroke="midnightblue" points="524.78,-19 534.78,-15.5 524.78,-12 524.78,-19"/>
</g>
<!-- Node22&#45;&gt;Node17 -->
<g id="edge23" class="edge">
<title>Node22&#45;&gt;Node17</title>
<path fill="none" stroke="midnightblue" d="M339.6,-26.98C331.08,-28.21 322.5,-29.45 314.24,-30.65"/>
<polygon fill="midnightblue" stroke="midnightblue" points="340.17,-30.43 349.56,-25.54 339.16,-23.51 340.17,-30.43"/>
</g>
<!-- Node23&#45;&gt;Node14 -->
<g id="edge25" class="edge">
<title>Node23&#45;&gt;Node14</title>
<path fill="none" stroke="midnightblue" d="M899.56,-83.5C882.78,-83.5 865.78,-83.5 850.21,-83.5"/>
<polygon fill="midnightblue" stroke="midnightblue" points="899.97,-87 909.97,-83.5 899.96,-80 899.97,-87"/>
</g>
</g>
</svg>
