<?xml version="1.0" encoding="UTF-8" standalone="no"?>
<!DOCTYPE svg PUBLIC "-//W3C//DTD SVG 1.1//EN"
 "http://www.w3.org/Graphics/SVG/1.1/DTD/svg11.dtd">
<!-- Generated by graphviz version 3.0.0 (20220413.0242)
 -->
<!-- Title: denoptim.io.IteractingAtomContainerReader.IteractingAtomContainerReader Pages: 1 -->
<svg width="874pt" height="84pt"
 viewBox="0.00 0.00 874.00 84.00" xmlns="http://www.w3.org/2000/svg" xmlns:xlink="http://www.w3.org/1999/xlink">
<g id="graph0" class="graph" transform="scale(1 1) rotate(0) translate(4 80)">
<title>denoptim.io.IteractingAtomContainerReader.IteractingAtomContainerReader</title>
<polygon fill="white" stroke="transparent" points="-4,4 -4,-80 870,-80 870,4 -4,4"/>
<!-- Node1 -->
<g id="node1" class="node">
<title>Node1</title>
<g id="a_node1"><a xlink:title="Constructs an iterator over the containers that can be found in the given file.">
<polygon fill="#bfbfbf" stroke="black" points="0,-8.5 0,-49.5 155,-49.5 155,-8.5 0,-8.5"/>
<text text-anchor="start" x="8" y="-37.5" font-family="Helvetica,sans-Serif" font-size="10.00">denoptim.io.IteractingAtom</text>
<text text-anchor="start" x="8" y="-26.5" font-family="Helvetica,sans-Serif" font-size="10.00">ContainerReader.IteractingAtom</text>
<text text-anchor="middle" x="77.5" y="-15.5" font-family="Helvetica,sans-Serif" font-size="10.00">ContainerReader</text>
</a>
</g>
</g>
<!-- Node2 -->
<g id="node2" class="node">
<title>Node2</title>
<g id="a_node2"><a xlink:href="classdenoptim_1_1io_1_1_denoptim_i_o.html#aded8f83abc7d4310a5d95312a29363af" target="_top" xlink:title="Returns a single collection with all atom containers found in a file of any format.">
<polygon fill="white" stroke="black" points="191,-14 191,-44 332,-44 332,-14 191,-14"/>
<text text-anchor="start" x="199" y="-32" font-family="Helvetica,sans-Serif" font-size="10.00">denoptim.io.DenoptimIO.read</text>
<text text-anchor="middle" x="261.5" y="-21" font-family="Helvetica,sans-Serif" font-size="10.00">AllAtomContainers</text>
</a>
</g>
</g>
<!-- Node1&#45;&gt;Node2 -->
<g id="edge1" class="edge">
<title>Node1&#45;&gt;Node2</title>
<path fill="none" stroke="midnightblue" d="M155.16,-29C163.58,-29 172.18,-29 180.64,-29"/>
<polygon fill="midnightblue" stroke="midnightblue" points="180.88,-32.5 190.88,-29 180.88,-25.5 180.88,-32.5"/>
</g>
<!-- Node2&#45;&gt;Node2 -->
<g id="edge7" class="edge">
<title>Node2&#45;&gt;Node2</title>
<path fill="none" stroke="midnightblue" d="M231.87,-44.16C224.73,-53.56 234.61,-62.5 261.5,-62.5 277.89,-62.5 287.96,-59.18 291.71,-54.46"/>
<polygon fill="midnightblue" stroke="midnightblue" points="295.18,-53.95 291.13,-44.16 288.19,-54.34 295.18,-53.95"/>
</g>
<!-- Node3 -->
<g id="node3" class="node">
<title>Node3</title>
<g id="a_node3"><a xlink:href="classdenoptim_1_1files_1_1_file_utils.html#ae2209fbdfdcf1fdf0499e32989b057b5" target="_top" xlink:title="Looks for a writable location where to put temporary files and returns an absolute pathname to the fo...">
<polygon fill="white" stroke="black" points="368,-14 368,-44 498,-44 498,-14 368,-14"/>
<text text-anchor="start" x="376" y="-32" font-family="Helvetica,sans-Serif" font-size="10.00">denoptim.files.FileUtils.get</text>
<text text-anchor="middle" x="433" y="-21" font-family="Helvetica,sans-Serif" font-size="10.00">TempFolder</text>
</a>
</g>
</g>
<!-- Node2&#45;&gt;Node3 -->
<g id="edge2" class="edge">
<title>Node2&#45;&gt;Node3</title>
<path fill="none" stroke="midnightblue" d="M332.42,-29C340.78,-29 349.35,-29 357.77,-29"/>
<polygon fill="midnightblue" stroke="midnightblue" points="357.95,-32.5 367.95,-29 357.95,-25.5 357.95,-32.5"/>
</g>
<!-- Node4 -->
<g id="node4" class="node">
<title>Node4</title>
<g id="a_node4"><a xlink:href="classdenoptim_1_1files_1_1_file_utils.html#abb578573334c0bc633d537d987223e63" target="_top" xlink:title="Check whether we can write and read to a given pathname.">
<polygon fill="white" stroke="black" points="534,-14 534,-44 666,-44 666,-14 534,-14"/>
<text text-anchor="start" x="542" y="-32" font-family="Helvetica,sans-Serif" font-size="10.00">denoptim.files.FileUtils.can</text>
<text text-anchor="middle" x="600" y="-21" font-family="Helvetica,sans-Serif" font-size="10.00">WriteAndReadTo</text>
</a>
</g>
</g>
<!-- Node3&#45;&gt;Node4 -->
<g id="edge3" class="edge">
<title>Node3&#45;&gt;Node4</title>
<path fill="none" stroke="midnightblue" d="M498.27,-29C506.56,-29 515.12,-29 523.58,-29"/>
<polygon fill="midnightblue" stroke="midnightblue" points="523.82,-32.5 533.82,-29 523.82,-25.5 523.82,-32.5"/>
</g>
<!-- Node5 -->
<g id="node5" class="node">
<title>Node5</title>
<g id="a_node5"><a xlink:href="classdenoptim_1_1io_1_1_denoptim_i_o.html#ad5bee53baea572e1d76f8dd0bf3ddd76" target="_top" xlink:title="Read list of data as text.">
<polygon fill="white" stroke="black" points="705,-38.5 705,-57.5 863,-57.5 863,-38.5 705,-38.5"/>
<text text-anchor="middle" x="784" y="-45.5" font-family="Helvetica,sans-Serif" font-size="10.00">denoptim.io.DenoptimIO.readList</text>
</a>
</g>
</g>
<!-- Node4&#45;&gt;Node5 -->
<g id="edge4" class="edge">
<title>Node4&#45;&gt;Node5</title>
<path fill="none" stroke="midnightblue" d="M666.19,-35.81C675.5,-36.78 685.21,-37.79 694.87,-38.8"/>
<polygon fill="midnightblue" stroke="midnightblue" points="694.59,-42.29 704.9,-39.85 695.32,-35.33 694.59,-42.29"/>
</g>
<!-- Node6 -->
<g id="node6" class="node">
<title>Node6</title>
<g id="a_node6"><a xlink:href="classdenoptim_1_1io_1_1_denoptim_i_o.html#adc7de175de66792f4f37f1661c10e7f8" target="_top" xlink:title="Write text&#45;like data file.">
<polygon fill="white" stroke="black" points="702,-0.5 702,-19.5 866,-19.5 866,-0.5 702,-0.5"/>
<text text-anchor="middle" x="784" y="-7.5" font-family="Helvetica,sans-Serif" font-size="10.00">denoptim.io.DenoptimIO.writeData</text>
</a>
</g>
</g>
<!-- Node4&#45;&gt;Node6 -->
<g id="edge6" class="edge">
<title>Node4&#45;&gt;Node6</title>
<path fill="none" stroke="midnightblue" d="M666.19,-22.19C674.48,-21.33 683.07,-20.43 691.67,-19.53"/>
<polygon fill="midnightblue" stroke="midnightblue" points="692.17,-23 701.75,-18.48 691.44,-16.04 692.17,-23"/>
</g>
<!-- Node5&#45;&gt;Node5 -->
<g id="edge5" class="edge">
<title>Node5&#45;&gt;Node5</title>
<path fill="none" stroke="midnightblue" d="M755.64,-57.76C741.84,-66.57 751.3,-76 784,-76 806.48,-76 817.98,-71.54 818.48,-65.89"/>
<polygon fill="midnightblue" stroke="midnightblue" points="821.17,-63.64 812.36,-57.76 815.58,-67.85 821.17,-63.64"/>
</g>
</g>
</svg>
