<?xml version="1.0" encoding="UTF-8" standalone="no"?>
<!DOCTYPE svg PUBLIC "-//W3C//DTD SVG 1.1//EN"
 "http://www.w3.org/Graphics/SVG/1.1/DTD/svg11.dtd">
<!-- Generated by graphviz version 3.0.0 (20220413.0242)
 -->
<!-- Title: denoptim.programs.RunTimeParameters.setParameters Pages: 1 -->
<svg width="648pt" height="627pt"
 viewBox="0.00 0.00 648.00 627.00" xmlns="http://www.w3.org/2000/svg" xmlns:xlink="http://www.w3.org/1999/xlink">
<g id="graph0" class="graph" transform="scale(1 1) rotate(0) translate(4 623)">
<title>denoptim.programs.RunTimeParameters.setParameters</title>
<polygon fill="white" stroke="transparent" points="-4,4 -4,-623 644,-623 644,4 -4,4"/>
<!-- Node1 -->
<g id="node1" class="node">
<title>Node1</title>
<g id="a_node1"><a xlink:title=" ">
<polygon fill="#bfbfbf" stroke="black" points="500,-98.5 500,-128.5 640,-128.5 640,-98.5 500,-98.5"/>
<text text-anchor="start" x="508" y="-116.5" font-family="Helvetica,sans-Serif" font-size="10.00">denoptim.programs.RunTime</text>
<text text-anchor="middle" x="570" y="-105.5" font-family="Helvetica,sans-Serif" font-size="10.00">Parameters.setParameters</text>
</a>
</g>
</g>
<!-- Node2 -->
<g id="node2" class="node">
<title>Node2</title>
<g id="a_node2"><a xlink:href="classdenoptim_1_1ga_1_1_population_test.html#a2ef43616462d84e8adced384182ca92c" target="_top" xlink:title=" ">
<polygon fill="white" stroke="black" points="265.5,-349 265.5,-368 436.5,-368 436.5,-349 265.5,-349"/>
<text text-anchor="middle" x="351" y="-356" font-family="Helvetica,sans-Serif" font-size="10.00">denoptim.ga.PopulationTest.prepare</text>
</a>
</g>
</g>
<!-- Node1&#45;&gt;Node2 -->
<g id="edge1" class="edge">
<title>Node1&#45;&gt;Node2</title>
<path fill="none" stroke="midnightblue" d="M548.61,-136.52C502.55,-188.53 392.02,-313.31 360.51,-348.89"/>
<polygon fill="midnightblue" stroke="midnightblue" points="551.42,-138.63 555.43,-128.83 546.18,-133.99 551.42,-138.63"/>
</g>
<!-- Node13 -->
<g id="node13" class="node">
<title>Node13</title>
<g id="a_node13"><a xlink:href="classdenoptim_1_1programs_1_1genetweeker_1_1_gene_ops_runner_parameters.html#a98b6c6b389e456945a968edc31086451" target="_top" xlink:title="Processes all parameters and initialize related objects.">
<polygon fill="white" stroke="black" points="238,-147.5 238,-177.5 464,-177.5 464,-147.5 238,-147.5"/>
<text text-anchor="start" x="246" y="-165.5" font-family="Helvetica,sans-Serif" font-size="10.00">denoptim.programs.genetweeker.</text>
<text text-anchor="middle" x="351" y="-154.5" font-family="Helvetica,sans-Serif" font-size="10.00">GeneOpsRunnerParameters.processParameters</text>
</a>
</g>
</g>
<!-- Node1&#45;&gt;Node13 -->
<g id="edge12" class="edge">
<title>Node1&#45;&gt;Node13</title>
<path fill="none" stroke="midnightblue" d="M493.59,-130.79C483.64,-133.05 473.58,-135.34 464,-137.5 449.62,-140.75 434.19,-144.21 419.53,-147.48"/>
<polygon fill="midnightblue" stroke="midnightblue" points="494.51,-134.17 503.48,-128.53 492.95,-127.34 494.51,-134.17"/>
</g>
<!-- Node15 -->
<g id="node15" class="node">
<title>Node15</title>
<g id="a_node15"><a xlink:href="classdenoptim_1_1programs_1_1genetweeker_1_1_gene_ops_runner.html#adb60b4cb2cda6a912a831974c5303df4" target="_top" xlink:title=" ">
<polygon fill="white" stroke="black" points="271.5,-98.5 271.5,-128.5 430.5,-128.5 430.5,-98.5 271.5,-98.5"/>
<text text-anchor="start" x="279.5" y="-116.5" font-family="Helvetica,sans-Serif" font-size="10.00">denoptim.programs.genetweeker.</text>
<text text-anchor="middle" x="351" y="-105.5" font-family="Helvetica,sans-Serif" font-size="10.00">GeneOpsRunner.runMutation</text>
</a>
</g>
</g>
<!-- Node1&#45;&gt;Node15 -->
<g id="edge14" class="edge">
<title>Node1&#45;&gt;Node15</title>
<path fill="none" stroke="midnightblue" d="M489.55,-113.5C470.39,-113.5 449.92,-113.5 430.78,-113.5"/>
<polygon fill="midnightblue" stroke="midnightblue" points="489.74,-117 499.74,-113.5 489.74,-110 489.74,-117"/>
</g>
<!-- Node16 -->
<g id="node16" class="node">
<title>Node16</title>
<g id="a_node16"><a xlink:href="classdenoptim_1_1ga_1_1_e_a_utils_test.html#a9aa17c44bb5d48c83e350c36cd68af68" target="_top" xlink:title=" ">
<polygon fill="white" stroke="black" points="279.5,-49.5 279.5,-79.5 422.5,-79.5 422.5,-49.5 279.5,-49.5"/>
<text text-anchor="start" x="287.5" y="-67.5" font-family="Helvetica,sans-Serif" font-size="10.00">denoptim.ga.EAUtilsTest.test</text>
<text text-anchor="middle" x="351" y="-56.5" font-family="Helvetica,sans-Serif" font-size="10.00">AvoidRedundantXOver</text>
</a>
</g>
</g>
<!-- Node1&#45;&gt;Node16 -->
<g id="edge16" class="edge">
<title>Node1&#45;&gt;Node16</title>
<path fill="none" stroke="midnightblue" d="M496.86,-96.1C485.86,-93.51 474.64,-90.91 464,-88.5 450.62,-85.47 436.31,-82.33 422.55,-79.36"/>
<polygon fill="midnightblue" stroke="midnightblue" points="496.33,-99.57 506.87,-98.46 497.94,-92.76 496.33,-99.57"/>
</g>
<!-- Node17 -->
<g id="node17" class="node">
<title>Node17</title>
<g id="a_node17"><a xlink:href="classdenoptim_1_1ga_1_1_e_a_utils_test.html#ab7a37d3340d35ab586332ce2122e7bb0" target="_top" xlink:title=" ">
<polygon fill="white" stroke="black" points="269.5,-0.5 269.5,-30.5 432.5,-30.5 432.5,-0.5 269.5,-0.5"/>
<text text-anchor="start" x="277.5" y="-18.5" font-family="Helvetica,sans-Serif" font-size="10.00">denoptim.ga.EAUtilsTest.test</text>
<text text-anchor="middle" x="351" y="-7.5" font-family="Helvetica,sans-Serif" font-size="10.00">BuildGraphFromTemplateScaffold</text>
</a>
</g>
</g>
<!-- Node1&#45;&gt;Node17 -->
<g id="edge17" class="edge">
<title>Node1&#45;&gt;Node17</title>
<path fill="none" stroke="midnightblue" d="M544.35,-91.75C524.11,-75.02 493.99,-52.62 464,-39.5 454.16,-35.19 443.49,-31.64 432.78,-28.71"/>
<polygon fill="midnightblue" stroke="midnightblue" points="542.22,-94.54 552.12,-98.3 546.73,-89.18 542.22,-94.54"/>
</g>
<!-- Node3 -->
<g id="node3" class="node">
<title>Node3</title>
<g id="a_node3"><a xlink:href="classdenoptim_1_1ga_1_1_e_a_utils_test.html#ae0baa3684be9b8a4af611083649a9e6d" target="_top" xlink:title=" ">
<polygon fill="white" stroke="black" points="2.5,-588.5 2.5,-618.5 199.5,-618.5 199.5,-588.5 2.5,-588.5"/>
<text text-anchor="start" x="10.5" y="-606.5" font-family="Helvetica,sans-Serif" font-size="10.00">denoptim.ga.EAUtilsTest.test</text>
<text text-anchor="middle" x="101" y="-595.5" font-family="Helvetica,sans-Serif" font-size="10.00">BuildByXOver_Embedded_FixedStructure</text>
</a>
</g>
</g>
<!-- Node2&#45;&gt;Node3 -->
<g id="edge2" class="edge">
<title>Node2&#45;&gt;Node3</title>
<path fill="none" stroke="midnightblue" d="M342.85,-377.72C325.72,-421.03 277.98,-526.61 202,-579.5 197.02,-582.97 191.6,-585.94 185.94,-588.48"/>
<polygon fill="midnightblue" stroke="midnightblue" points="346.14,-378.93 346.47,-368.34 339.61,-376.41 346.14,-378.93"/>
</g>
<!-- Node4 -->
<g id="node4" class="node">
<title>Node4</title>
<g id="a_node4"><a xlink:href="classdenoptim_1_1ga_1_1_e_a_utils_test.html#ad4662f1a3a989020f953f7034d7c1beb" target="_top" xlink:title="NB: the graphs from methods getPairOfTestGraphsB() and getPairOfTestGraphsBxo() and &#160;&#160;getPairOfTestGr...">
<polygon fill="white" stroke="black" points="24.5,-539.5 24.5,-569.5 177.5,-569.5 177.5,-539.5 24.5,-539.5"/>
<text text-anchor="start" x="32.5" y="-557.5" font-family="Helvetica,sans-Serif" font-size="10.00">denoptim.ga.EAUtilsTest.test</text>
<text text-anchor="middle" x="101" y="-546.5" font-family="Helvetica,sans-Serif" font-size="10.00">BuildByXOver_Embedded_Free</text>
</a>
</g>
</g>
<!-- Node2&#45;&gt;Node4 -->
<g id="edge3" class="edge">
<title>Node2&#45;&gt;Node4</title>
<path fill="none" stroke="midnightblue" d="M339.57,-376.99C318.48,-412.62 267.16,-490.74 202,-530.5 194.46,-535.1 186.09,-538.82 177.5,-541.83"/>
<polygon fill="midnightblue" stroke="midnightblue" points="342.72,-378.55 344.7,-368.14 336.66,-375.04 342.72,-378.55"/>
</g>
<!-- Node5 -->
<g id="node5" class="node">
<title>Node5</title>
<g id="a_node5"><a xlink:href="classdenoptim_1_1ga_1_1_e_a_utils_test.html#af8cfc323dd7d12090ddf4b836a3349cf" target="_top" xlink:title="NB: the graphs from methods getPairOfTestGraphsB() and getPairOfTestGraphsBxo() and &#160;&#160;getPairOfTestGr...">
<polygon fill="white" stroke="black" points="0,-490.5 0,-520.5 202,-520.5 202,-490.5 0,-490.5"/>
<text text-anchor="start" x="8" y="-508.5" font-family="Helvetica,sans-Serif" font-size="10.00">denoptim.ga.EAUtilsTest.test</text>
<text text-anchor="middle" x="101" y="-497.5" font-family="Helvetica,sans-Serif" font-size="10.00">BuildByXOver_Embedded_FreeBackwards</text>
</a>
</g>
</g>
<!-- Node2&#45;&gt;Node5 -->
<g id="edge4" class="edge">
<title>Node2&#45;&gt;Node5</title>
<path fill="none" stroke="midnightblue" d="M334.49,-375.69C309.35,-402.49 256.95,-453.97 202,-481.5 195.14,-484.94 187.76,-487.9 180.23,-490.45"/>
<polygon fill="midnightblue" stroke="midnightblue" points="337.18,-377.95 341.39,-368.23 332.04,-373.2 337.18,-377.95"/>
</g>
<!-- Node6 -->
<g id="node6" class="node">
<title>Node6</title>
<g id="a_node6"><a xlink:href="classdenoptim_1_1ga_1_1_e_a_utils_test.html#a52682a0cc73283eafd36d345b6929ea8" target="_top" xlink:title=" ">
<polygon fill="white" stroke="black" points="29.5,-441.5 29.5,-471.5 172.5,-471.5 172.5,-441.5 29.5,-441.5"/>
<text text-anchor="start" x="37.5" y="-459.5" font-family="Helvetica,sans-Serif" font-size="10.00">denoptim.ga.EAUtilsTest.test</text>
<text text-anchor="middle" x="101" y="-448.5" font-family="Helvetica,sans-Serif" font-size="10.00">BuildByXOver_SubGraph</text>
</a>
</g>
</g>
<!-- Node2&#45;&gt;Node6 -->
<g id="edge5" class="edge">
<title>Node2&#45;&gt;Node6</title>
<path fill="none" stroke="midnightblue" d="M324.71,-373.39C295.86,-389.83 246.86,-416.15 202,-432.5 192.61,-435.92 182.54,-439 172.54,-441.71"/>
<polygon fill="midnightblue" stroke="midnightblue" points="326.77,-376.24 333.68,-368.22 323.27,-370.18 326.77,-376.24"/>
</g>
<!-- Node7 -->
<g id="node7" class="node">
<title>Node7</title>
<g id="a_node7"><a xlink:href="classdenoptim_1_1ga_1_1_population_test.html#a5db0672054a9fc1dbc923310732fdb3a" target="_top" xlink:title=" ">
<polygon fill="white" stroke="black" points="23.5,-392.5 23.5,-422.5 178.5,-422.5 178.5,-392.5 23.5,-392.5"/>
<text text-anchor="start" x="31.5" y="-410.5" font-family="Helvetica,sans-Serif" font-size="10.00">denoptim.ga.PopulationTest.test</text>
<text text-anchor="middle" x="101" y="-399.5" font-family="Helvetica,sans-Serif" font-size="10.00">Clone</text>
</a>
</g>
</g>
<!-- Node2&#45;&gt;Node7 -->
<g id="edge6" class="edge">
<title>Node2&#45;&gt;Node7</title>
<path fill="none" stroke="midnightblue" d="M291.69,-370.02C257.84,-376.71 214.8,-385.21 178.28,-392.43"/>
<polygon fill="midnightblue" stroke="midnightblue" points="292.76,-373.38 301.89,-368.01 291.4,-366.51 292.76,-373.38"/>
</g>
<!-- Node8 -->
<g id="node8" class="node">
<title>Node8</title>
<g id="a_node8"><a xlink:href="classdenoptim_1_1utils_1_1_graph_conversion_tool_test.html#a9cf6fcaba3bac28b528db1eb73c21c62" target="_top" xlink:title=" ">
<polygon fill="white" stroke="black" points="2.5,-343.5 2.5,-373.5 199.5,-373.5 199.5,-343.5 2.5,-343.5"/>
<text text-anchor="start" x="10.5" y="-361.5" font-family="Helvetica,sans-Serif" font-size="10.00">denoptim.utils.GraphConversion</text>
<text text-anchor="middle" x="101" y="-350.5" font-family="Helvetica,sans-Serif" font-size="10.00">ToolTest.testGetJGraphKernelFromGraph</text>
</a>
</g>
</g>
<!-- Node2&#45;&gt;Node8 -->
<g id="edge7" class="edge">
<title>Node2&#45;&gt;Node8</title>
<path fill="none" stroke="midnightblue" d="M255.3,-358.5C237.03,-358.5 217.86,-358.5 199.5,-358.5"/>
<polygon fill="midnightblue" stroke="midnightblue" points="255.35,-362 265.35,-358.5 255.35,-355 255.35,-362"/>
</g>
<!-- Node9 -->
<g id="node9" class="node">
<title>Node9</title>
<g id="a_node9"><a xlink:href="classdenoptim_1_1ga_1_1_population_test.html#aa40d0bedbf2ca22b34267aa8491d7ec3" target="_top" xlink:title=" ">
<polygon fill="white" stroke="black" points="23.5,-294.5 23.5,-324.5 178.5,-324.5 178.5,-294.5 23.5,-294.5"/>
<text text-anchor="start" x="31.5" y="-312.5" font-family="Helvetica,sans-Serif" font-size="10.00">denoptim.ga.PopulationTest.test</text>
<text text-anchor="middle" x="101" y="-301.5" font-family="Helvetica,sans-Serif" font-size="10.00">GetMinMax</text>
</a>
</g>
</g>
<!-- Node2&#45;&gt;Node9 -->
<g id="edge8" class="edge">
<title>Node2&#45;&gt;Node9</title>
<path fill="none" stroke="midnightblue" d="M291.69,-346.98C257.84,-340.29 214.8,-331.79 178.28,-324.57"/>
<polygon fill="midnightblue" stroke="midnightblue" points="291.4,-350.49 301.89,-348.99 292.76,-343.62 291.4,-350.49"/>
</g>
<!-- Node10 -->
<g id="node10" class="node">
<title>Node10</title>
<g id="a_node10"><a xlink:href="classdenoptim_1_1ga_1_1_population_test.html#a6725ae8dc980dd79466800b489fc9620" target="_top" xlink:title=" ">
<polygon fill="white" stroke="black" points="23.5,-245.5 23.5,-275.5 178.5,-275.5 178.5,-245.5 23.5,-245.5"/>
<text text-anchor="start" x="31.5" y="-263.5" font-family="Helvetica,sans-Serif" font-size="10.00">denoptim.ga.PopulationTest.test</text>
<text text-anchor="middle" x="101" y="-252.5" font-family="Helvetica,sans-Serif" font-size="10.00">IsInPercentile</text>
</a>
</g>
</g>
<!-- Node2&#45;&gt;Node10 -->
<g id="edge9" class="edge">
<title>Node2&#45;&gt;Node10</title>
<path fill="none" stroke="midnightblue" d="M324.65,-343.91C295.75,-327.78 246.71,-301.9 202,-285.5 191.92,-281.8 181.07,-278.46 170.37,-275.52"/>
<polygon fill="midnightblue" stroke="midnightblue" points="323.21,-347.12 333.64,-348.98 326.65,-341.02 323.21,-347.12"/>
</g>
<!-- Node11 -->
<g id="node11" class="node">
<title>Node11</title>
<g id="a_node11"><a xlink:href="classdenoptim_1_1ga_1_1_population_test.html#a94541e70343daaeaf733289dab8f2dee" target="_top" xlink:title=" ">
<polygon fill="white" stroke="black" points="23.5,-196.5 23.5,-226.5 178.5,-226.5 178.5,-196.5 23.5,-196.5"/>
<text text-anchor="start" x="31.5" y="-214.5" font-family="Helvetica,sans-Serif" font-size="10.00">denoptim.ga.PopulationTest.test</text>
<text text-anchor="middle" x="101" y="-203.5" font-family="Helvetica,sans-Serif" font-size="10.00">PopulationVersion</text>
</a>
</g>
</g>
<!-- Node2&#45;&gt;Node11 -->
<g id="edge10" class="edge">
<title>Node2&#45;&gt;Node11</title>
<path fill="none" stroke="midnightblue" d="M334.43,-341.51C309.21,-315.03 256.69,-264.09 202,-236.5 194.33,-232.63 186.02,-229.33 177.58,-226.53"/>
<polygon fill="midnightblue" stroke="midnightblue" points="331.96,-343.99 341.36,-348.89 337.07,-339.2 331.96,-343.99"/>
</g>
<!-- Node12 -->
<g id="node12" class="node">
<title>Node12</title>
<g id="a_node12"><a xlink:href="classdenoptim_1_1ga_1_1_population_test.html#a278212ebff2501b7071d342f9a027599" target="_top" xlink:title=" ">
<polygon fill="white" stroke="black" points="23.5,-147.5 23.5,-177.5 178.5,-177.5 178.5,-147.5 23.5,-147.5"/>
<text text-anchor="start" x="31.5" y="-165.5" font-family="Helvetica,sans-Serif" font-size="10.00">denoptim.ga.PopulationTest.test</text>
<text text-anchor="middle" x="101" y="-154.5" font-family="Helvetica,sans-Serif" font-size="10.00">XOverCompatibility</text>
</a>
</g>
</g>
<!-- Node2&#45;&gt;Node12 -->
<g id="edge11" class="edge">
<title>Node2&#45;&gt;Node12</title>
<path fill="none" stroke="midnightblue" d="M339.51,-340.17C318.31,-304.85 266.82,-227.34 202,-187.5 194.76,-183.05 186.76,-179.39 178.54,-176.38"/>
<polygon fill="midnightblue" stroke="midnightblue" points="336.58,-342.1 344.67,-348.95 342.62,-338.55 336.58,-342.1"/>
</g>
<!-- Node14 -->
<g id="node14" class="node">
<title>Node14</title>
<g id="a_node14"><a xlink:href="classdenoptim_1_1programs_1_1genetweeker_1_1_gene_ops_runner.html#a3c2407eb1204a7b25600d3d347d98447" target="_top" xlink:title=" ">
<polygon fill="white" stroke="black" points="21.5,-98.5 21.5,-128.5 180.5,-128.5 180.5,-98.5 21.5,-98.5"/>
<text text-anchor="start" x="29.5" y="-116.5" font-family="Helvetica,sans-Serif" font-size="10.00">denoptim.programs.genetweeker.</text>
<text text-anchor="middle" x="101" y="-105.5" font-family="Helvetica,sans-Serif" font-size="10.00">GeneOpsRunner.runProgram</text>
</a>
</g>
</g>
<!-- Node13&#45;&gt;Node14 -->
<g id="edge13" class="edge">
<title>Node13&#45;&gt;Node14</title>
<path fill="none" stroke="midnightblue" d="M263.76,-145.46C235.83,-139.94 205.07,-133.87 177.95,-128.51"/>
<polygon fill="midnightblue" stroke="midnightblue" points="263.42,-148.96 273.91,-147.47 264.77,-142.09 263.42,-148.96"/>
</g>
<!-- Node15&#45;&gt;Node14 -->
<g id="edge15" class="edge">
<title>Node15&#45;&gt;Node14</title>
<path fill="none" stroke="midnightblue" d="M260.87,-113.5C234.64,-113.5 206.13,-113.5 180.6,-113.5"/>
<polygon fill="midnightblue" stroke="midnightblue" points="261.19,-117 271.19,-113.5 261.19,-110 261.19,-117"/>
</g>
</g>
</svg>
