<?xml version="1.0" encoding="UTF-8" standalone="no"?>
<!DOCTYPE svg PUBLIC "-//W3C//DTD SVG 1.1//EN"
 "http://www.w3.org/Graphics/SVG/1.1/DTD/svg11.dtd">
<!-- Generated by graphviz version 3.0.0 (20220413.0242)
 -->
<!-- Title: denoptim.io.DenoptimIO.writeCandidateToFile Pages: 1 -->
<svg width="936pt" height="210pt"
 viewBox="0.00 0.00 936.00 210.00" xmlns="http://www.w3.org/2000/svg" xmlns:xlink="http://www.w3.org/1999/xlink">
<g id="graph0" class="graph" transform="scale(1 1) rotate(0) translate(4 206)">
<title>denoptim.io.DenoptimIO.writeCandidateToFile</title>
<polygon fill="white" stroke="transparent" points="-4,4 -4,-206 932,-206 932,4 -4,4"/>
<!-- Node1 -->
<g id="node1" class="node">
<title>Node1</title>
<g id="a_node1"><a xlink:title="Writes one candidate item to file.">
<polygon fill="#bfbfbf" stroke="black" points="785,-73.5 785,-103.5 928,-103.5 928,-73.5 785,-73.5"/>
<text text-anchor="start" x="793" y="-91.5" font-family="Helvetica,sans-Serif" font-size="10.00">denoptim.io.DenoptimIO.write</text>
<text text-anchor="middle" x="856.5" y="-80.5" font-family="Helvetica,sans-Serif" font-size="10.00">CandidateToFile</text>
</a>
</g>
</g>
<!-- Node2 -->
<g id="node2" class="node">
<title>Node2</title>
<g id="a_node2"><a xlink:href="classdenoptim_1_1ga_1_1_e_a_utils.html#a2f160fc3fb0488bb995d1e008a706ed4" target="_top" xlink:title="Reconstruct the molecular population from the file.">
<polygon fill="white" stroke="black" points="583,-134.5 583,-164.5 749,-164.5 749,-134.5 583,-134.5"/>
<text text-anchor="start" x="591" y="-152.5" font-family="Helvetica,sans-Serif" font-size="10.00">denoptim.ga.EAUtils.getPopulation</text>
<text text-anchor="middle" x="666" y="-141.5" font-family="Helvetica,sans-Serif" font-size="10.00">FromFile</text>
</a>
</g>
</g>
<!-- Node1&#45;&gt;Node2 -->
<g id="edge1" class="edge">
<title>Node1&#45;&gt;Node2</title>
<path fill="none" stroke="midnightblue" d="M799.08,-106.76C771.73,-115.61 739.28,-126.11 713.39,-134.49"/>
<polygon fill="midnightblue" stroke="midnightblue" points="800.47,-109.99 808.9,-103.58 798.31,-103.33 800.47,-109.99"/>
</g>
<!-- Node7 -->
<g id="node7" class="node">
<title>Node7</title>
<g id="a_node7"><a xlink:href="classdenoptim_1_1task_1_1_fitness_task.html#afbea956df1830ac1fde3f7d71a588353" target="_top" xlink:title="This method runs the actual evaluation of the fitness, whether that is run internally (i....">
<polygon fill="white" stroke="black" points="591.5,-73.5 591.5,-103.5 740.5,-103.5 740.5,-73.5 591.5,-73.5"/>
<text text-anchor="start" x="599.5" y="-91.5" font-family="Helvetica,sans-Serif" font-size="10.00">denoptim.task.FitnessTask.run</text>
<text text-anchor="middle" x="666" y="-80.5" font-family="Helvetica,sans-Serif" font-size="10.00">FitnessProvider</text>
</a>
</g>
</g>
<!-- Node1&#45;&gt;Node7 -->
<g id="edge6" class="edge">
<title>Node1&#45;&gt;Node7</title>
<path fill="none" stroke="midnightblue" d="M774.53,-88.5C763.27,-88.5 751.75,-88.5 740.64,-88.5"/>
<polygon fill="midnightblue" stroke="midnightblue" points="774.77,-92 784.77,-88.5 774.77,-85 774.77,-92"/>
</g>
<!-- Node12 -->
<g id="node12" class="node">
<title>Node12</title>
<g id="a_node12"><a xlink:href="classdenoptim_1_1io_1_1_denoptim_i_o_test.html#af5c2f9114881ebde82a83f922c0c23fe" target="_top" xlink:title=" ">
<polygon fill="white" stroke="black" points="587,-24.5 587,-54.5 745,-54.5 745,-24.5 587,-24.5"/>
<text text-anchor="start" x="595" y="-42.5" font-family="Helvetica,sans-Serif" font-size="10.00">denoptim.io.DenoptimIOTest.test</text>
<text text-anchor="middle" x="666" y="-31.5" font-family="Helvetica,sans-Serif" font-size="10.00">ReadGenerationFromSummary</text>
</a>
</g>
</g>
<!-- Node1&#45;&gt;Node12 -->
<g id="edge11" class="edge">
<title>Node1&#45;&gt;Node12</title>
<path fill="none" stroke="midnightblue" d="M787.71,-70.88C767.08,-65.52 744.62,-59.68 724.73,-54.51"/>
<polygon fill="midnightblue" stroke="midnightblue" points="787.1,-74.34 797.66,-73.47 788.86,-67.56 787.1,-74.34"/>
</g>
<!-- Node3 -->
<g id="node3" class="node">
<title>Node3</title>
<g id="a_node3"><a xlink:href="classdenoptim_1_1ga_1_1_e_a_utils.html#aecbe9af608218e129a006ddae17ac66b" target="_top" xlink:title="Reads unique identifiers and initial population files according to the GAParameters.">
<polygon fill="white" stroke="black" points="392,-147.5 392,-177.5 526,-177.5 526,-147.5 392,-147.5"/>
<text text-anchor="start" x="400" y="-165.5" font-family="Helvetica,sans-Serif" font-size="10.00">denoptim.ga.EAUtils.import</text>
<text text-anchor="middle" x="459" y="-154.5" font-family="Helvetica,sans-Serif" font-size="10.00">InitialPopulation</text>
</a>
</g>
</g>
<!-- Node2&#45;&gt;Node3 -->
<g id="edge2" class="edge">
<title>Node2&#45;&gt;Node3</title>
<path fill="none" stroke="midnightblue" d="M572.58,-155.36C556.92,-156.35 540.95,-157.37 526.15,-158.31"/>
<polygon fill="midnightblue" stroke="midnightblue" points="573.04,-158.84 582.8,-154.71 572.6,-151.85 573.04,-158.84"/>
</g>
<!-- Node4 -->
<g id="node4" class="node">
<title>Node4</title>
<g id="a_node4"><a xlink:href="classdenoptim_1_1ga_1_1_evolutionary_algorithm.html#a6bfc2fa59b199da6259b5b6bad3d6de7" target="_top" xlink:title=" ">
<polygon fill="white" stroke="black" points="200.5,-147.5 200.5,-177.5 324.5,-177.5 324.5,-147.5 200.5,-147.5"/>
<text text-anchor="start" x="208.5" y="-165.5" font-family="Helvetica,sans-Serif" font-size="10.00">denoptim.ga.Evolutionary</text>
<text text-anchor="middle" x="262.5" y="-154.5" font-family="Helvetica,sans-Serif" font-size="10.00">Algorithm.run</text>
</a>
</g>
</g>
<!-- Node3&#45;&gt;Node4 -->
<g id="edge3" class="edge">
<title>Node3&#45;&gt;Node4</title>
<path fill="none" stroke="midnightblue" d="M381.77,-162.5C362.78,-162.5 342.67,-162.5 324.53,-162.5"/>
<polygon fill="midnightblue" stroke="midnightblue" points="381.88,-166 391.88,-162.5 381.88,-159 381.88,-166"/>
</g>
<!-- Node5 -->
<g id="node5" class="node">
<title>Node5</title>
<g id="a_node5"><a xlink:href="classdenoptim_1_1ga_1_1_evolutionary_algorithm.html#a0f2063b722b7291daf83d62acaa683d3" target="_top" xlink:title=" ">
<polygon fill="white" stroke="black" points="0,-171.5 0,-201.5 154,-201.5 154,-171.5 0,-171.5"/>
<text text-anchor="start" x="8" y="-189.5" font-family="Helvetica,sans-Serif" font-size="10.00">denoptim.ga.Evolutionary</text>
<text text-anchor="middle" x="77" y="-178.5" font-family="Helvetica,sans-Serif" font-size="10.00">Algorithm.EvolutionaryAlgorithm</text>
</a>
</g>
</g>
<!-- Node4&#45;&gt;Node5 -->
<g id="edge4" class="edge">
<title>Node4&#45;&gt;Node5</title>
<path fill="none" stroke="midnightblue" d="M190.17,-171.83C178.37,-173.37 166.09,-174.98 154.18,-176.54"/>
<polygon fill="midnightblue" stroke="midnightblue" points="190.94,-175.26 200.4,-170.49 190.03,-168.32 190.94,-175.26"/>
</g>
<!-- Node6 -->
<g id="node6" class="node">
<title>Node6</title>
<g id="a_node6"><a xlink:href="classdenoptim_1_1programs_1_1denovo_1_1_g_a_runner.html#a7cafd6d78727b89dce3e2c8d06f0dd7c" target="_top" xlink:title=" ">
<polygon fill="white" stroke="black" points="9.5,-122.5 9.5,-152.5 144.5,-152.5 144.5,-122.5 9.5,-122.5"/>
<text text-anchor="start" x="17.5" y="-140.5" font-family="Helvetica,sans-Serif" font-size="10.00">denoptim.programs.denovo.</text>
<text text-anchor="middle" x="77" y="-129.5" font-family="Helvetica,sans-Serif" font-size="10.00">GARunner.runProgram</text>
</a>
</g>
</g>
<!-- Node4&#45;&gt;Node6 -->
<g id="edge5" class="edge">
<title>Node4&#45;&gt;Node6</title>
<path fill="none" stroke="midnightblue" d="M190.15,-152.78C175.13,-150.73 159.35,-148.58 144.52,-146.56"/>
<polygon fill="midnightblue" stroke="midnightblue" points="190.02,-156.29 200.4,-154.18 190.96,-149.36 190.02,-156.29"/>
</g>
<!-- Node8 -->
<g id="node8" class="node">
<title>Node8</title>
<g id="a_node8"><a xlink:href="classdenoptim_1_1ga_1_1_offspring_evaluation_task.html#aab5b9c0b8a88922460f5c28ae161d1fa" target="_top" xlink:title=" ">
<polygon fill="white" stroke="black" points="381.5,-98.5 381.5,-128.5 536.5,-128.5 536.5,-98.5 381.5,-98.5"/>
<text text-anchor="start" x="389.5" y="-116.5" font-family="Helvetica,sans-Serif" font-size="10.00">denoptim.ga.OffspringEvaluation</text>
<text text-anchor="middle" x="459" y="-105.5" font-family="Helvetica,sans-Serif" font-size="10.00">Task.call</text>
</a>
</g>
</g>
<!-- Node7&#45;&gt;Node8 -->
<g id="edge7" class="edge">
<title>Node7&#45;&gt;Node8</title>
<path fill="none" stroke="midnightblue" d="M581.15,-98.73C566.38,-100.53 551.08,-102.39 536.52,-104.17"/>
<polygon fill="midnightblue" stroke="midnightblue" points="581.78,-102.18 591.28,-97.49 580.93,-95.23 581.78,-102.18"/>
</g>
<!-- Node9 -->
<g id="node9" class="node">
<title>Node9</title>
<g id="a_node9"><a xlink:href="classdenoptim_1_1programs_1_1fitnessevaluator_1_1_fitness_evaluation_task.html#a498b4214d06fc161d92cf1a38635ece3" target="_top" xlink:title=" ">
<polygon fill="white" stroke="black" points="373,-49.5 373,-79.5 545,-79.5 545,-49.5 373,-49.5"/>
<text text-anchor="start" x="381" y="-67.5" font-family="Helvetica,sans-Serif" font-size="10.00">denoptim.programs.fitnessevaluator.</text>
<text text-anchor="middle" x="459" y="-56.5" font-family="Helvetica,sans-Serif" font-size="10.00">FitnessEvaluationTask.call</text>
</a>
</g>
</g>
<!-- Node7&#45;&gt;Node9 -->
<g id="edge8" class="edge">
<title>Node7&#45;&gt;Node9</title>
<path fill="none" stroke="midnightblue" d="M581.02,-78.67C569.22,-77.29 557.09,-75.87 545.27,-74.48"/>
<polygon fill="midnightblue" stroke="midnightblue" points="580.94,-82.18 591.28,-79.87 581.75,-75.23 580.94,-82.18"/>
</g>
<!-- Node10 -->
<g id="node10" class="node">
<title>Node10</title>
<g id="a_node10"><a xlink:href="classdenoptim_1_1combinatorial_1_1_graph_building_task.html#a6b74fb1e5678145e094259bfa2401bd4" target="_top" xlink:title=" ">
<polygon fill="white" stroke="black" points="371,-0.5 371,-30.5 547,-30.5 547,-0.5 371,-0.5"/>
<text text-anchor="start" x="379" y="-18.5" font-family="Helvetica,sans-Serif" font-size="10.00">denoptim.combinatorial.Graph</text>
<text text-anchor="middle" x="459" y="-7.5" font-family="Helvetica,sans-Serif" font-size="10.00">BuildingTask.sendToFitnessProvider</text>
</a>
</g>
</g>
<!-- Node7&#45;&gt;Node10 -->
<g id="edge9" class="edge">
<title>Node7&#45;&gt;Node10</title>
<path fill="none" stroke="midnightblue" d="M595.82,-69.92C591.43,-68.23 587.12,-66.42 583,-64.5 565.57,-56.37 564.45,-48.58 547,-40.5 538.87,-36.73 530.05,-33.41 521.25,-30.51"/>
<polygon fill="midnightblue" stroke="midnightblue" points="594.94,-73.32 605.53,-73.43 597.32,-66.73 594.94,-73.32"/>
</g>
<!-- Node11 -->
<g id="node11" class="node">
<title>Node11</title>
<g id="a_node11"><a xlink:href="classdenoptim_1_1combinatorial_1_1_graph_building_task.html#a3eaee724fc921194fa158714aafe182d" target="_top" xlink:title="Calls the task.">
<polygon fill="white" stroke="black" points="190,-0.5 190,-30.5 335,-30.5 335,-0.5 190,-0.5"/>
<text text-anchor="start" x="198" y="-18.5" font-family="Helvetica,sans-Serif" font-size="10.00">denoptim.combinatorial.Graph</text>
<text text-anchor="middle" x="262.5" y="-7.5" font-family="Helvetica,sans-Serif" font-size="10.00">BuildingTask.call</text>
</a>
</g>
</g>
<!-- Node10&#45;&gt;Node11 -->
<g id="edge10" class="edge">
<title>Node10&#45;&gt;Node11</title>
<path fill="none" stroke="midnightblue" d="M360.89,-15.5C352.27,-15.5 343.64,-15.5 335.29,-15.5"/>
<polygon fill="midnightblue" stroke="midnightblue" points="360.99,-19 370.99,-15.5 360.99,-12 360.99,-19"/>
</g>
</g>
</svg>
