<?xml version="1.0" encoding="UTF-8" standalone="no"?>
<!DOCTYPE svg PUBLIC "-//W3C//DTD SVG 1.1//EN"
 "http://www.w3.org/Graphics/SVG/1.1/DTD/svg11.dtd">
<!-- Generated by graphviz version 3.0.0 (20220413.0242)
 -->
<!-- Title: denoptim.graph.Vertex.sameAs Pages: 1 -->
<svg width="676pt" height="292pt"
 viewBox="0.00 0.00 676.00 291.50" xmlns="http://www.w3.org/2000/svg" xmlns:xlink="http://www.w3.org/1999/xlink">
<g id="graph0" class="graph" transform="scale(1 1) rotate(0) translate(4 287.5)">
<title>denoptim.graph.Vertex.sameAs</title>
<polygon fill="white" stroke="transparent" points="-4,4 -4,-287.5 672,-287.5 672,4 -4,4"/>
<!-- Node1 -->
<g id="node1" class="node">
<title>Node1</title>
<g id="a_node1"><a xlink:title="Compares this and another vertex ignoring vertex IDs.">
<polygon fill="#bfbfbf" stroke="black" points="0,-146 0,-165 151,-165 151,-146 0,-146"/>
<text text-anchor="middle" x="75.5" y="-153" font-family="Helvetica,sans-Serif" font-size="10.00">denoptim.graph.Vertex.sameAs</text>
</a>
</g>
</g>
<!-- Node2 -->
<g id="node2" class="node">
<title>Node2</title>
<g id="a_node2"><a xlink:href="classdenoptim_1_1graph_1_1_vertex.html#a7a48a6fb07f119d17a6c8eb091ee73ea" target="_top" xlink:title="Compares this and another vertex ignoring vertex IDs.">
<polygon fill="white" stroke="black" points="187,-140.5 187,-170.5 326,-170.5 326,-140.5 187,-140.5"/>
<text text-anchor="start" x="195" y="-158.5" font-family="Helvetica,sans-Serif" font-size="10.00">denoptim.graph.Vertex.same</text>
<text text-anchor="middle" x="256.5" y="-147.5" font-family="Helvetica,sans-Serif" font-size="10.00">VertexFeatures</text>
</a>
</g>
</g>
<!-- Node1&#45;&gt;Node2 -->
<g id="edge1" class="edge">
<title>Node1&#45;&gt;Node2</title>
<path fill="none" stroke="midnightblue" d="M151.12,-155.5C159.5,-155.5 168.07,-155.5 176.51,-155.5"/>
<polygon fill="midnightblue" stroke="midnightblue" points="176.73,-159 186.73,-155.5 176.73,-152 176.73,-159"/>
</g>
<!-- Node3 -->
<g id="node3" class="node">
<title>Node3</title>
<g id="a_node3"><a xlink:href="classdenoptim_1_1graph_1_1_vertex.html#aee39019987712f9784138e97917ac97f" target="_top" xlink:title="Get attachment point i on this vertex.">
<polygon fill="white" stroke="black" points="362,-264 362,-283 504,-283 504,-264 362,-264"/>
<text text-anchor="middle" x="433" y="-271" font-family="Helvetica,sans-Serif" font-size="10.00">denoptim.graph.Vertex.getAP</text>
</a>
</g>
</g>
<!-- Node2&#45;&gt;Node3 -->
<g id="edge2" class="edge">
<title>Node2&#45;&gt;Node3</title>
<path fill="none" stroke="midnightblue" d="M269.29,-170.67C287.05,-192.48 322.78,-232.47 362,-254.5 365.94,-256.71 370.14,-258.67 374.46,-260.42"/>
<polygon fill="midnightblue" stroke="midnightblue" points="373.46,-263.78 384.06,-263.89 375.85,-257.19 373.46,-263.78"/>
</g>
<!-- Node5 -->
<g id="node5" class="node">
<title>Node5</title>
<g id="a_node5"><a xlink:href="classdenoptim_1_1graph_1_1_vertex.html#a200f775296c4c9804e3a2b59e065be8a" target="_top" xlink:title="Returns the index of the building block that should correspond to the position of the building block ...">
<polygon fill="white" stroke="black" points="369,-214.5 369,-244.5 497,-244.5 497,-214.5 369,-214.5"/>
<text text-anchor="start" x="377" y="-232.5" font-family="Helvetica,sans-Serif" font-size="10.00">denoptim.graph.Vertex.get</text>
<text text-anchor="middle" x="433" y="-221.5" font-family="Helvetica,sans-Serif" font-size="10.00">BuildingBlockId</text>
</a>
</g>
</g>
<!-- Node2&#45;&gt;Node5 -->
<g id="edge4" class="edge">
<title>Node2&#45;&gt;Node5</title>
<path fill="none" stroke="midnightblue" d="M286.82,-170.65C307.54,-181.08 336.13,-194.92 362,-205.5 366.45,-207.32 371.09,-209.12 375.78,-210.87"/>
<polygon fill="midnightblue" stroke="midnightblue" points="374.81,-214.24 385.4,-214.37 377.2,-207.66 374.81,-214.24"/>
</g>
<!-- Node6 -->
<g id="node6" class="node">
<title>Node6</title>
<g id="a_node6"><a xlink:href="classdenoptim_1_1graph_1_1_vertex.html#a46dadb5fd30f1877db91e97ae55c2dd8" target="_top" xlink:title=" ">
<polygon fill="white" stroke="black" points="369,-165.5 369,-195.5 497,-195.5 497,-165.5 369,-165.5"/>
<text text-anchor="start" x="377" y="-183.5" font-family="Helvetica,sans-Serif" font-size="10.00">denoptim.graph.Vertex.get</text>
<text text-anchor="middle" x="433" y="-172.5" font-family="Helvetica,sans-Serif" font-size="10.00">BuildingBlockType</text>
</a>
</g>
</g>
<!-- Node2&#45;&gt;Node6 -->
<g id="edge5" class="edge">
<title>Node2&#45;&gt;Node6</title>
<path fill="none" stroke="midnightblue" d="M326.22,-165.34C336.84,-166.87 347.85,-168.44 358.57,-169.98"/>
<polygon fill="midnightblue" stroke="midnightblue" points="358.35,-173.48 368.74,-171.44 359.34,-166.55 358.35,-173.48"/>
</g>
<!-- Node7 -->
<g id="node7" class="node">
<title>Node7</title>
<g id="a_node7"><a xlink:href="classdenoptim_1_1graph_1_1_vertex.html#ac578a57700de26b2f0ba1fc7470129d0" target="_top" xlink:title=" ">
<polygon fill="white" stroke="black" points="369,-116.5 369,-146.5 497,-146.5 497,-116.5 369,-116.5"/>
<text text-anchor="start" x="377" y="-134.5" font-family="Helvetica,sans-Serif" font-size="10.00">denoptim.graph.Vertex.get</text>
<text text-anchor="middle" x="433" y="-123.5" font-family="Helvetica,sans-Serif" font-size="10.00">FreeAPCount</text>
</a>
</g>
</g>
<!-- Node2&#45;&gt;Node7 -->
<g id="edge6" class="edge">
<title>Node2&#45;&gt;Node7</title>
<path fill="none" stroke="midnightblue" d="M326.22,-146.05C336.84,-144.59 347.85,-143.07 358.57,-141.6"/>
<polygon fill="midnightblue" stroke="midnightblue" points="359.31,-145.03 368.74,-140.2 358.36,-138.1 359.31,-145.03"/>
</g>
<!-- Node8 -->
<g id="node8" class="node">
<title>Node8</title>
<g id="a_node8"><a xlink:href="classdenoptim_1_1graph_1_1_vertex.html#a514b89b11dff8939e74e5b95e749b703" target="_top" xlink:title=" ">
<polygon fill="white" stroke="black" points="369,-67.5 369,-97.5 497,-97.5 497,-67.5 369,-67.5"/>
<text text-anchor="start" x="377" y="-85.5" font-family="Helvetica,sans-Serif" font-size="10.00">denoptim.graph.Vertex.get</text>
<text text-anchor="middle" x="433" y="-74.5" font-family="Helvetica,sans-Serif" font-size="10.00">NumberOfAPs</text>
</a>
</g>
</g>
<!-- Node2&#45;&gt;Node8 -->
<g id="edge8" class="edge">
<title>Node2&#45;&gt;Node8</title>
<path fill="none" stroke="midnightblue" d="M288.28,-140.5C308.93,-130.65 336.85,-117.74 362,-107.5 367.36,-105.32 372.99,-103.13 378.63,-101.01"/>
<polygon fill="midnightblue" stroke="midnightblue" points="379.92,-104.27 388.09,-97.52 377.49,-97.7 379.92,-104.27"/>
</g>
<!-- Node9 -->
<g id="node9" class="node">
<title>Node9</title>
<g id="a_node9"><a xlink:href="classdenoptim_1_1graph_1_1_attachment_point.html#ab1226264e663d411606bc5af27dd921e" target="_top" xlink:title="Compares the features of this and another attachment point and decides if the two are same.">
<polygon fill="white" stroke="black" points="365.5,-0.5 365.5,-30.5 500.5,-30.5 500.5,-0.5 365.5,-0.5"/>
<text text-anchor="start" x="373.5" y="-18.5" font-family="Helvetica,sans-Serif" font-size="10.00">denoptim.graph.Attachment</text>
<text text-anchor="middle" x="433" y="-7.5" font-family="Helvetica,sans-Serif" font-size="10.00">Point.sameAs</text>
</a>
</g>
</g>
<!-- Node2&#45;&gt;Node9 -->
<g id="edge10" class="edge">
<title>Node2&#45;&gt;Node9</title>
<path fill="none" stroke="midnightblue" d="M271.9,-140.38C291.34,-120.41 327.5,-84.7 362,-58.5 372.58,-50.47 384.72,-42.59 395.89,-35.82"/>
<polygon fill="midnightblue" stroke="midnightblue" points="397.79,-38.76 404.59,-30.64 394.21,-32.75 397.79,-38.76"/>
</g>
<!-- Node4 -->
<g id="node4" class="node">
<title>Node4</title>
<g id="a_node4"><a xlink:href="classdenoptim_1_1graph_1_1_vertex.html#a022f7c9075b178f17e13339b215ee21f" target="_top" xlink:title=" ">
<polygon fill="white" stroke="black" points="540,-116.5 540,-146.5 668,-146.5 668,-116.5 540,-116.5"/>
<text text-anchor="start" x="548" y="-134.5" font-family="Helvetica,sans-Serif" font-size="10.00">denoptim.graph.Vertex.get</text>
<text text-anchor="middle" x="604" y="-123.5" font-family="Helvetica,sans-Serif" font-size="10.00">AttachmentPoints</text>
</a>
</g>
</g>
<!-- Node3&#45;&gt;Node4 -->
<g id="edge3" class="edge">
<title>Node3&#45;&gt;Node4</title>
<path fill="none" stroke="midnightblue" d="M484.61,-263.9C491.43,-261.44 498.1,-258.36 504,-254.5 542.96,-229.03 573.79,-183.23 590.14,-155.28"/>
<polygon fill="midnightblue" stroke="midnightblue" points="593.21,-156.96 595.12,-146.54 587.13,-153.5 593.21,-156.96"/>
</g>
<!-- Node7&#45;&gt;Node4 -->
<g id="edge7" class="edge">
<title>Node7&#45;&gt;Node4</title>
<path fill="none" stroke="midnightblue" d="M497.41,-131.5C507.91,-131.5 518.88,-131.5 529.61,-131.5"/>
<polygon fill="midnightblue" stroke="midnightblue" points="529.8,-135 539.8,-131.5 529.8,-128 529.8,-135"/>
</g>
<!-- Node8&#45;&gt;Node4 -->
<g id="edge9" class="edge">
<title>Node8&#45;&gt;Node4</title>
<path fill="none" stroke="midnightblue" d="M486.08,-97.6C503.6,-102.68 523.29,-108.39 541.46,-113.66"/>
<polygon fill="midnightblue" stroke="midnightblue" points="540.51,-117.03 551.09,-116.45 542.46,-110.3 540.51,-117.03"/>
</g>
<!-- Node9&#45;&gt;Node9 -->
<g id="edge11" class="edge">
<title>Node9&#45;&gt;Node9</title>
<path fill="none" stroke="midnightblue" d="M403.37,-30.66C396.23,-40.06 406.11,-49 433,-49 449.39,-49 459.46,-45.68 463.21,-40.96"/>
<polygon fill="midnightblue" stroke="midnightblue" points="466.68,-40.45 462.63,-30.66 459.69,-40.84 466.68,-40.45"/>
</g>
</g>
</svg>
