<?xml version="1.0" encoding="UTF-8" standalone="no"?>
<!DOCTYPE svg PUBLIC "-//W3C//DTD SVG 1.1//EN"
 "http://www.w3.org/Graphics/SVG/1.1/DTD/svg11.dtd">
<!-- Generated by graphviz version 3.0.0 (20220413.0242)
 -->
<!-- Title: denoptim.utils.Randomizer.nextInt Pages: 1 -->
<svg width="1556pt" height="522pt"
 viewBox="0.00 0.00 1556.00 521.50" xmlns="http://www.w3.org/2000/svg" xmlns:xlink="http://www.w3.org/1999/xlink">
<g id="graph0" class="graph" transform="scale(1 1) rotate(0) translate(4 517.5)">
<title>denoptim.utils.Randomizer.nextInt</title>
<polygon fill="white" stroke="transparent" points="-4,4 -4,-517.5 1552,-517.5 1552,4 -4,4"/>
<!-- Node1 -->
<g id="node1" class="node">
<title>Node1</title>
<g id="a_node1"><a xlink:title="Returns a pseudo&#45;random, uniformly distributed int value between 0 (inclusive) and the specified valu...">
<polygon fill="#bfbfbf" stroke="black" points="1387,-301.5 1387,-320.5 1548,-320.5 1548,-301.5 1387,-301.5"/>
<text text-anchor="middle" x="1467.5" y="-308.5" font-family="Helvetica,sans-Serif" font-size="10.00">denoptim.utils.Randomizer.nextInt</text>
</a>
</g>
</g>
<!-- Node2 -->
<g id="node2" class="node">
<title>Node2</title>
<g id="a_node2"><a xlink:href="classdenoptim_1_1graph_1_1rings_1_1_cyclic_graph_handler.html#a08b02946eaac7c2cbbe6e71332d702e6" target="_top" xlink:title="Identifies a random combination of ring closing paths and returns it as list of DENOPTIMRings ready t...">
<polygon fill="white" stroke="black" points="1169,-377.5 1169,-418.5 1351,-418.5 1351,-377.5 1169,-377.5"/>
<text text-anchor="start" x="1177" y="-406.5" font-family="Helvetica,sans-Serif" font-size="10.00">denoptim.graph.rings.Cyclic</text>
<text text-anchor="start" x="1177" y="-395.5" font-family="Helvetica,sans-Serif" font-size="10.00">GraphHandler.getRandomCombination</text>
<text text-anchor="middle" x="1260" y="-384.5" font-family="Helvetica,sans-Serif" font-size="10.00">OfRings</text>
</a>
</g>
</g>
<!-- Node1&#45;&gt;Node2 -->
<g id="edge1" class="edge">
<title>Node1&#45;&gt;Node2</title>
<path fill="none" stroke="midnightblue" d="M1434.42,-324.58C1400.97,-338.74 1348.14,-361.11 1309.58,-377.43"/>
<polygon fill="midnightblue" stroke="midnightblue" points="1435.88,-327.76 1443.72,-320.64 1433.15,-321.32 1435.88,-327.76"/>
</g>
<!-- Node12 -->
<g id="node12" class="node">
<title>Node12</title>
<g id="a_node12"><a xlink:href="classdenoptim_1_1molecularmodeling_1_1_three_dim_tree_builder.html#a6ef3c605f4c86de64db48e322f338119" target="_top" xlink:title=" ">
<polygon fill="white" stroke="black" points="1169,-73 1169,-103 1351,-103 1351,-73 1169,-73"/>
<text text-anchor="start" x="1177" y="-91" font-family="Helvetica,sans-Serif" font-size="10.00">denoptim.molecularmodeling.</text>
<text text-anchor="middle" x="1260" y="-80" font-family="Helvetica,sans-Serif" font-size="10.00">ThreeDimTreeBuilder.getRandomPoint</text>
</a>
</g>
</g>
<!-- Node1&#45;&gt;Node12 -->
<g id="edge13" class="edge">
<title>Node1&#45;&gt;Node12</title>
<path fill="none" stroke="midnightblue" d="M1450.75,-293.9C1411.86,-251.71 1311.81,-143.13 1274.92,-103.11"/>
<polygon fill="midnightblue" stroke="midnightblue" points="1448.32,-296.44 1457.67,-301.42 1453.47,-291.69 1448.32,-296.44"/>
</g>
<!-- Node15 -->
<g id="node15" class="node">
<title>Node15</title>
<g id="a_node15"><a xlink:href="classdenoptim_1_1fragspace_1_1_fragment_space.html#a95408f868832d8fac28eee1c1e793fab" target="_top" xlink:title="Randomly select a scaffold and return a fully configured clone of it.">
<polygon fill="white" stroke="black" points="1187.5,-467 1187.5,-497 1332.5,-497 1332.5,-467 1187.5,-467"/>
<text text-anchor="start" x="1195.5" y="-485" font-family="Helvetica,sans-Serif" font-size="10.00">denoptim.fragspace.Fragment</text>
<text text-anchor="middle" x="1260" y="-474" font-family="Helvetica,sans-Serif" font-size="10.00">Space.makeRandomScaffold</text>
</a>
</g>
</g>
<!-- Node1&#45;&gt;Node15 -->
<g id="edge18" class="edge">
<title>Node1&#45;&gt;Node15</title>
<path fill="none" stroke="midnightblue" d="M1452,-328.22C1431.19,-352.3 1390.95,-396.6 1351,-428 1331.95,-442.98 1308.4,-456.97 1290.17,-466.95"/>
<polygon fill="midnightblue" stroke="midnightblue" points="1454.67,-330.47 1458.51,-320.6 1449.35,-325.92 1454.67,-330.47"/>
</g>
<!-- Node18 -->
<g id="node18" class="node">
<title>Node18</title>
<g id="a_node18"><a xlink:href="classdenoptim_1_1utils_1_1_randomizer.html#a1ac7cea6bdf732a6dd69f1a83e591ed5" target="_top" xlink:title="Chooses one member among the given collection.">
<polygon fill="white" stroke="black" points="1174.5,-269 1174.5,-299 1345.5,-299 1345.5,-269 1174.5,-269"/>
<text text-anchor="start" x="1182.5" y="-287" font-family="Helvetica,sans-Serif" font-size="10.00">denoptim.utils.Randomizer.randomly</text>
<text text-anchor="middle" x="1260" y="-276" font-family="Helvetica,sans-Serif" font-size="10.00">ChooseOne</text>
</a>
</g>
</g>
<!-- Node1&#45;&gt;Node18 -->
<g id="edge22" class="edge">
<title>Node1&#45;&gt;Node18</title>
<path fill="none" stroke="midnightblue" d="M1384.06,-300.17C1371.46,-298.51 1358.45,-296.8 1345.8,-295.14"/>
<polygon fill="midnightblue" stroke="midnightblue" points="1383.68,-303.65 1394.05,-301.48 1384.59,-296.71 1383.68,-303.65"/>
</g>
<!-- Node3 -->
<g id="node3" class="node">
<title>Node3</title>
<g id="a_node3"><a xlink:href="classdenoptim_1_1ga_1_1_e_a_utils.html#a1ddb932d4618434d435e4f85ce5e5eb5" target="_top" xlink:title="Evaluates the possibility of closing rings in a given graph and if any ring can be closed,...">
<polygon fill="white" stroke="black" points="747,-412 747,-442 878,-442 878,-412 747,-412"/>
<text text-anchor="start" x="755" y="-430" font-family="Helvetica,sans-Serif" font-size="10.00">denoptim.ga.EAUtils.setup</text>
<text text-anchor="middle" x="812.5" y="-419" font-family="Helvetica,sans-Serif" font-size="10.00">Rings</text>
</a>
</g>
</g>
<!-- Node2&#45;&gt;Node3 -->
<g id="edge2" class="edge">
<title>Node2&#45;&gt;Node3</title>
<path fill="none" stroke="midnightblue" d="M1201.43,-422.09C1180.3,-429.74 1155.94,-437.19 1133,-441 1045.64,-455.5 943.11,-446.49 878.23,-437.65"/>
<polygon fill="midnightblue" stroke="midnightblue" points="1202.74,-425.34 1210.9,-418.58 1200.31,-418.78 1202.74,-425.34"/>
</g>
<!-- Node4 -->
<g id="node4" class="node">
<title>Node4</title>
<g id="a_node4"><a xlink:href="classdenoptim_1_1ga_1_1_e_a_utils.html#a5cb6bbe9f383bf821f3b1f1c5e60031b" target="_top" xlink:title=" ">
<polygon fill="white" stroke="black" points="545.5,-346 545.5,-376 672.5,-376 672.5,-346 545.5,-346"/>
<text text-anchor="start" x="553.5" y="-364" font-family="Helvetica,sans-Serif" font-size="10.00">denoptim.ga.EAUtils.build</text>
<text text-anchor="middle" x="609" y="-353" font-family="Helvetica,sans-Serif" font-size="10.00">CandidateByMutation</text>
</a>
</g>
</g>
<!-- Node3&#45;&gt;Node4 -->
<g id="edge3" class="edge">
<title>Node3&#45;&gt;Node4</title>
<path fill="none" stroke="midnightblue" d="M755.63,-408.7C724.31,-398.44 685.71,-385.8 656.13,-376.11"/>
<polygon fill="midnightblue" stroke="midnightblue" points="754.93,-412.15 765.52,-411.94 757.11,-405.5 754.93,-412.15"/>
</g>
<!-- Node9 -->
<g id="node9" class="node">
<title>Node9</title>
<g id="a_node9"><a xlink:href="classdenoptim_1_1ga_1_1_e_a_utils.html#a98553265dd4b441b11c6d97d098edb08" target="_top" xlink:title="Generates a new offspring by performing a crossover operation.">
<polygon fill="white" stroke="black" points="356.5,-283 356.5,-313 483.5,-313 483.5,-283 356.5,-283"/>
<text text-anchor="start" x="364.5" y="-301" font-family="Helvetica,sans-Serif" font-size="10.00">denoptim.ga.EAUtils.build</text>
<text text-anchor="middle" x="420" y="-290" font-family="Helvetica,sans-Serif" font-size="10.00">CandidateByXOver</text>
</a>
</g>
</g>
<!-- Node3&#45;&gt;Node9 -->
<g id="edge8" class="edge">
<title>Node3&#45;&gt;Node9</title>
<path fill="none" stroke="midnightblue" d="M736.85,-427.36C677.37,-425.08 593.21,-416.02 526,-386 487.56,-368.83 452.08,-333.34 433.84,-313.06"/>
<polygon fill="midnightblue" stroke="midnightblue" points="736.81,-430.86 746.92,-427.69 737.04,-423.86 736.81,-430.86"/>
</g>
<!-- Node10 -->
<g id="node10" class="node">
<title>Node10</title>
<g id="a_node10"><a xlink:href="classdenoptim_1_1ga_1_1_e_a_utils.html#ad3d2daeb11e68a356e971ca1846596b5" target="_top" xlink:title=" ">
<polygon fill="white" stroke="black" points="545.5,-434 545.5,-464 672.5,-464 672.5,-434 545.5,-434"/>
<text text-anchor="start" x="553.5" y="-452" font-family="Helvetica,sans-Serif" font-size="10.00">denoptim.ga.EAUtils.build</text>
<text text-anchor="middle" x="609" y="-441" font-family="Helvetica,sans-Serif" font-size="10.00">CandidateFromScratch</text>
</a>
</g>
</g>
<!-- Node3&#45;&gt;Node10 -->
<g id="edge9" class="edge">
<title>Node3&#45;&gt;Node10</title>
<path fill="none" stroke="midnightblue" d="M736.69,-435.17C715.57,-437.47 692.82,-439.96 672.5,-442.18"/>
<polygon fill="midnightblue" stroke="midnightblue" points="737.35,-438.62 746.91,-434.05 736.59,-431.66 737.35,-438.62"/>
</g>
<!-- Node5 -->
<g id="node5" class="node">
<title>Node5</title>
<g id="a_node5"><a xlink:href="classdenoptim_1_1ga_1_1_evolutionary_algorithm.html#a596b2f5f0b097c5b67a6e5163bd6fe66" target="_top" xlink:title="Generates a given number of new candidate items and adds them to the current population.">
<polygon fill="white" stroke="black" points="353,-385 353,-415 487,-415 487,-385 353,-385"/>
<text text-anchor="start" x="361" y="-403" font-family="Helvetica,sans-Serif" font-size="10.00">denoptim.ga.Evolutionary</text>
<text text-anchor="middle" x="420" y="-392" font-family="Helvetica,sans-Serif" font-size="10.00">Algorithm.evolvePopulation</text>
</a>
</g>
</g>
<!-- Node4&#45;&gt;Node5 -->
<g id="edge4" class="edge">
<title>Node4&#45;&gt;Node5</title>
<path fill="none" stroke="midnightblue" d="M535.24,-376.17C519.45,-379.47 502.84,-382.93 487.32,-386.17"/>
<polygon fill="midnightblue" stroke="midnightblue" points="536.4,-379.51 545.47,-374.04 534.97,-372.66 536.4,-379.51"/>
</g>
<!-- Node6 -->
<g id="node6" class="node">
<title>Node6</title>
<g id="a_node6"><a xlink:href="classdenoptim_1_1ga_1_1_evolutionary_algorithm.html#a6bfc2fa59b199da6259b5b6bad3d6de7" target="_top" xlink:title=" ">
<polygon fill="white" stroke="black" points="190,-409 190,-439 314,-439 314,-409 190,-409"/>
<text text-anchor="start" x="198" y="-427" font-family="Helvetica,sans-Serif" font-size="10.00">denoptim.ga.Evolutionary</text>
<text text-anchor="middle" x="252" y="-416" font-family="Helvetica,sans-Serif" font-size="10.00">Algorithm.run</text>
</a>
</g>
</g>
<!-- Node5&#45;&gt;Node6 -->
<g id="edge5" class="edge">
<title>Node5&#45;&gt;Node6</title>
<path fill="none" stroke="midnightblue" d="M342.9,-411C333.21,-412.4 323.41,-413.82 314.01,-415.18"/>
<polygon fill="midnightblue" stroke="midnightblue" points="343.52,-414.45 352.92,-409.55 342.52,-407.52 343.52,-414.45"/>
</g>
<!-- Node7 -->
<g id="node7" class="node">
<title>Node7</title>
<g id="a_node7"><a xlink:href="classdenoptim_1_1ga_1_1_evolutionary_algorithm.html#a0f2063b722b7291daf83d62acaa683d3" target="_top" xlink:title=" ">
<polygon fill="white" stroke="black" points="0,-434 0,-464 154,-464 154,-434 0,-434"/>
<text text-anchor="start" x="8" y="-452" font-family="Helvetica,sans-Serif" font-size="10.00">denoptim.ga.Evolutionary</text>
<text text-anchor="middle" x="77" y="-441" font-family="Helvetica,sans-Serif" font-size="10.00">Algorithm.EvolutionaryAlgorithm</text>
</a>
</g>
</g>
<!-- Node6&#45;&gt;Node7 -->
<g id="edge6" class="edge">
<title>Node6&#45;&gt;Node7</title>
<path fill="none" stroke="midnightblue" d="M179.44,-434.34C171.09,-435.55 162.54,-436.78 154.12,-438"/>
<polygon fill="midnightblue" stroke="midnightblue" points="180.12,-437.78 189.52,-432.88 179.12,-430.85 180.12,-437.78"/>
</g>
<!-- Node8 -->
<g id="node8" class="node">
<title>Node8</title>
<g id="a_node8"><a xlink:href="classdenoptim_1_1programs_1_1denovo_1_1_g_a_runner.html#a7cafd6d78727b89dce3e2c8d06f0dd7c" target="_top" xlink:title=" ">
<polygon fill="white" stroke="black" points="9.5,-385 9.5,-415 144.5,-415 144.5,-385 9.5,-385"/>
<text text-anchor="start" x="17.5" y="-403" font-family="Helvetica,sans-Serif" font-size="10.00">denoptim.programs.denovo.</text>
<text text-anchor="middle" x="77" y="-392" font-family="Helvetica,sans-Serif" font-size="10.00">GARunner.runProgram</text>
</a>
</g>
</g>
<!-- Node6&#45;&gt;Node8 -->
<g id="edge7" class="edge">
<title>Node6&#45;&gt;Node8</title>
<path fill="none" stroke="midnightblue" d="M179.48,-414.08C167.92,-412.47 156,-410.82 144.57,-409.23"/>
<polygon fill="midnightblue" stroke="midnightblue" points="179.13,-417.56 189.52,-415.47 180.1,-410.63 179.13,-417.56"/>
</g>
<!-- Node10&#45;&gt;Node5 -->
<g id="edge10" class="edge">
<title>Node10&#45;&gt;Node5</title>
<path fill="none" stroke="midnightblue" d="M540.75,-431.38C520.29,-426.02 498,-420.18 478.27,-415.01"/>
<polygon fill="midnightblue" stroke="midnightblue" points="540.06,-434.82 550.62,-433.97 541.84,-428.04 540.06,-434.82"/>
</g>
<!-- Node11 -->
<g id="node11" class="node">
<title>Node11</title>
<g id="a_node11"><a xlink:href="classdenoptim_1_1ga_1_1_evolutionary_algorithm.html#ad43588620dab3340e0d8b0042ec73618" target="_top" xlink:title="Fills up the population with candidates build from scratch.">
<polygon fill="white" stroke="black" points="350,-434 350,-464 490,-464 490,-434 350,-434"/>
<text text-anchor="start" x="358" y="-452" font-family="Helvetica,sans-Serif" font-size="10.00">denoptim.ga.Evolutionary</text>
<text text-anchor="middle" x="420" y="-441" font-family="Helvetica,sans-Serif" font-size="10.00">Algorithm.initializePopulation</text>
</a>
</g>
</g>
<!-- Node10&#45;&gt;Node11 -->
<g id="edge11" class="edge">
<title>Node10&#45;&gt;Node11</title>
<path fill="none" stroke="midnightblue" d="M535.34,-449C520.51,-449 504.94,-449 490.23,-449"/>
<polygon fill="midnightblue" stroke="midnightblue" points="535.47,-452.5 545.47,-449 535.47,-445.5 535.47,-452.5"/>
</g>
<!-- Node11&#45;&gt;Node6 -->
<g id="edge12" class="edge">
<title>Node11&#45;&gt;Node6</title>
<path fill="none" stroke="midnightblue" d="M339.6,-437.04C331.08,-435.76 322.5,-434.47 314.24,-433.22"/>
<polygon fill="midnightblue" stroke="midnightblue" points="339.15,-440.51 349.56,-438.54 340.2,-433.59 339.15,-440.51"/>
</g>
<!-- Node13 -->
<g id="node13" class="node">
<title>Node13</title>
<g id="a_node13"><a xlink:href="classdenoptim_1_1molecularmodeling_1_1_three_dim_tree_builder.html#a0ba24f9b6e98f948d35c7853fdc543f5" target="_top" xlink:title="Recursive method that appends branches of building blocks following the edges of the graph.">
<polygon fill="white" stroke="black" points="933,-0.5 933,-41.5 1133,-41.5 1133,-0.5 933,-0.5"/>
<text text-anchor="start" x="941" y="-29.5" font-family="Helvetica,sans-Serif" font-size="10.00">denoptim.molecularmodeling.</text>
<text text-anchor="start" x="941" y="-18.5" font-family="Helvetica,sans-Serif" font-size="10.00">ThreeDimTreeBuilder.append3DFragments</text>
<text text-anchor="middle" x="1033" y="-7.5" font-family="Helvetica,sans-Serif" font-size="10.00">ViaEdges</text>
</a>
</g>
</g>
<!-- Node12&#45;&gt;Node13 -->
<g id="edge14" class="edge">
<title>Node12&#45;&gt;Node13</title>
<path fill="none" stroke="midnightblue" d="M1198.76,-70.06C1169.29,-61.29 1133.67,-50.68 1103.09,-41.57"/>
<polygon fill="midnightblue" stroke="midnightblue" points="1197.92,-73.46 1208.51,-72.96 1199.92,-66.76 1197.92,-73.46"/>
</g>
<!-- Node14 -->
<g id="node14" class="node">
<title>Node14</title>
<g id="a_node14"><a xlink:href="classdenoptim_1_1molecularmodeling_1_1_three_dim_tree_builder.html#acbaf5061621ed283eecc80a51b523422" target="_top" xlink:title="Created a three&#45;dimensional molecular representation from a given DGraph.">
<polygon fill="white" stroke="black" points="728,-9.5 728,-50.5 897,-50.5 897,-9.5 728,-9.5"/>
<text text-anchor="start" x="736" y="-38.5" font-family="Helvetica,sans-Serif" font-size="10.00">denoptim.molecularmodeling.</text>
<text text-anchor="start" x="736" y="-27.5" font-family="Helvetica,sans-Serif" font-size="10.00">ThreeDimTreeBuilder.convertGraph</text>
<text text-anchor="middle" x="812.5" y="-16.5" font-family="Helvetica,sans-Serif" font-size="10.00">To3DAtomContainer</text>
</a>
</g>
</g>
<!-- Node12&#45;&gt;Node14 -->
<g id="edge17" class="edge">
<title>Node12&#45;&gt;Node14</title>
<path fill="none" stroke="midnightblue" d="M1158.77,-88.79C1093.87,-87.68 1007.82,-83.14 933,-69 910.81,-64.8 887.02,-57.63 866.57,-50.56"/>
<polygon fill="midnightblue" stroke="midnightblue" points="1158.95,-92.29 1169,-88.94 1159.05,-85.29 1158.95,-92.29"/>
</g>
<!-- Node13&#45;&gt;Node13 -->
<g id="edge15" class="edge">
<title>Node13&#45;&gt;Node13</title>
<path fill="none" stroke="midnightblue" d="M1070.85,-51.86C1065.22,-56.7 1052.6,-60 1033,-60 1001.63,-60 988.15,-51.54 992.57,-41.86"/>
<polygon fill="midnightblue" stroke="midnightblue" points="1074.32,-52.42 1073.43,-41.86 1067.54,-50.67 1074.32,-52.42"/>
</g>
<!-- Node13&#45;&gt;Node14 -->
<g id="edge16" class="edge">
<title>Node13&#45;&gt;Node14</title>
<path fill="none" stroke="midnightblue" d="M922.85,-25.5C914.22,-25.85 905.58,-26.21 897.16,-26.55"/>
<polygon fill="midnightblue" stroke="midnightblue" points="923.13,-28.99 932.98,-25.08 922.84,-21.99 923.13,-28.99"/>
</g>
<!-- Node16 -->
<g id="node16" class="node">
<title>Node16</title>
<g id="a_node16"><a xlink:href="classdenoptim_1_1ga_1_1_e_a_utils.html#a87ea0ad600ad26e1a89a4947abcfef86" target="_top" xlink:title="Graph construction starts with selecting a random core/scaffold.">
<polygon fill="white" stroke="black" points="749,-483 749,-513 876,-513 876,-483 749,-483"/>
<text text-anchor="start" x="757" y="-501" font-family="Helvetica,sans-Serif" font-size="10.00">denoptim.ga.EAUtils.build</text>
<text text-anchor="middle" x="812.5" y="-490" font-family="Helvetica,sans-Serif" font-size="10.00">Graph</text>
</a>
</g>
</g>
<!-- Node15&#45;&gt;Node16 -->
<g id="edge19" class="edge">
<title>Node15&#45;&gt;Node16</title>
<path fill="none" stroke="midnightblue" d="M1177.34,-484.93C1090.52,-488.05 955.09,-492.91 876.26,-495.75"/>
<polygon fill="midnightblue" stroke="midnightblue" points="1177.55,-488.43 1187.42,-484.57 1177.3,-481.43 1177.55,-488.43"/>
</g>
<!-- Node16&#45;&gt;Node10 -->
<g id="edge20" class="edge">
<title>Node16&#45;&gt;Node10</title>
<path fill="none" stroke="midnightblue" d="M739.93,-480.6C717.64,-475.18 693.26,-469.25 671.71,-464.01"/>
<polygon fill="midnightblue" stroke="midnightblue" points="739.13,-484 749.67,-482.97 740.78,-477.2 739.13,-484"/>
</g>
<!-- Node17 -->
<g id="node17" class="node">
<title>Node17</title>
<g id="a_node17"><a xlink:href="classdenoptim_1_1ga_1_1_e_a_utils_test.html#ab7a37d3340d35ab586332ce2122e7bb0" target="_top" xlink:title=" ">
<polygon fill="white" stroke="black" points="527.5,-483 527.5,-513 690.5,-513 690.5,-483 527.5,-483"/>
<text text-anchor="start" x="535.5" y="-501" font-family="Helvetica,sans-Serif" font-size="10.00">denoptim.ga.EAUtilsTest.test</text>
<text text-anchor="middle" x="609" y="-490" font-family="Helvetica,sans-Serif" font-size="10.00">BuildGraphFromTemplateScaffold</text>
</a>
</g>
</g>
<!-- Node16&#45;&gt;Node17 -->
<g id="edge21" class="edge">
<title>Node16&#45;&gt;Node17</title>
<path fill="none" stroke="midnightblue" d="M738.77,-498C723.2,-498 706.66,-498 690.8,-498"/>
<polygon fill="midnightblue" stroke="midnightblue" points="738.85,-501.5 748.85,-498 738.85,-494.5 738.85,-501.5"/>
</g>
<!-- Node19 -->
<g id="node19" class="node">
<title>Node19</title>
<g id="a_node19"><a xlink:href="classdenoptim_1_1fragspace_1_1_a_p_map_finder.html#ae5c8afa4b7defd6ce35df0fa1c5facf2" target="_top" xlink:title="Searches for mappings between the AttachmentPoints on the two lists.">
<polygon fill="white" stroke="black" points="965,-117 965,-147 1101,-147 1101,-117 965,-117"/>
<text text-anchor="start" x="973" y="-135" font-family="Helvetica,sans-Serif" font-size="10.00">denoptim.fragspace.APMap</text>
<text text-anchor="middle" x="1033" y="-124" font-family="Helvetica,sans-Serif" font-size="10.00">Finder.findAllMappings</text>
</a>
</g>
</g>
<!-- Node18&#45;&gt;Node19 -->
<g id="edge23" class="edge">
<title>Node18&#45;&gt;Node19</title>
<path fill="none" stroke="midnightblue" d="M1242.26,-260.6C1220.42,-231.8 1179.45,-183.5 1133,-157 1123.22,-151.42 1112.2,-147.07 1101.16,-143.69"/>
<polygon fill="midnightblue" stroke="midnightblue" points="1239.64,-262.93 1248.41,-268.86 1245.25,-258.75 1239.64,-262.93"/>
</g>
<!-- Node21 -->
<g id="node21" class="node">
<title>Node21</title>
<g id="a_node21"><a xlink:href="classdenoptim_1_1fragspace_1_1_fragment_space.html#af556efa5109b1a7edfe10bdfcfdfdd00" target="_top" xlink:title="Select a compatible capping group for the given APClass.">
<polygon fill="white" stroke="black" points="960.5,-401 960.5,-431 1105.5,-431 1105.5,-401 960.5,-401"/>
<text text-anchor="start" x="968.5" y="-419" font-family="Helvetica,sans-Serif" font-size="10.00">denoptim.fragspace.Fragment</text>
<text text-anchor="middle" x="1033" y="-408" font-family="Helvetica,sans-Serif" font-size="10.00">Space.getCappingFragment</text>
</a>
</g>
</g>
<!-- Node18&#45;&gt;Node21 -->
<g id="edge25" class="edge">
<title>Node18&#45;&gt;Node21</title>
<path fill="none" stroke="midnightblue" d="M1235.58,-306.43C1205.74,-334.57 1155.36,-380.55 1133,-392 1124.42,-396.39 1115.01,-400 1105.5,-402.96"/>
<polygon fill="midnightblue" stroke="midnightblue" points="1238.2,-308.77 1243.05,-299.35 1233.39,-303.68 1238.2,-308.77"/>
</g>
<!-- Node22 -->
<g id="node22" class="node">
<title>Node22</title>
<g id="a_node22"><a xlink:href="classdenoptim_1_1ga_1_1_e_a_utils.html#af1c589b6d5ba261e1417f3cd299e8e5d" target="_top" xlink:title="Perform fitness&#45;based, class&#45;compatible selection of parents that can do crossover operations.">
<polygon fill="white" stroke="black" points="526,-269.5 526,-288.5 692,-288.5 692,-269.5 526,-269.5"/>
<text text-anchor="middle" x="609" y="-276.5" font-family="Helvetica,sans-Serif" font-size="10.00">denoptim.ga.EAUtils.performFBCC</text>
</a>
</g>
</g>
<!-- Node18&#45;&gt;Node22 -->
<g id="edge26" class="edge">
<title>Node18&#45;&gt;Node22</title>
<path fill="none" stroke="midnightblue" d="M1211.48,-265.59C1188.21,-257.53 1159.55,-249.01 1133,-245 955.02,-218.09 906.23,-219.83 728,-245 695.28,-249.62 658.92,-261.11 635.33,-269.46"/>
<polygon fill="midnightblue" stroke="midnightblue" points="1210.5,-268.96 1221.1,-269 1212.84,-262.36 1210.5,-268.96"/>
</g>
<!-- Node23 -->
<g id="node23" class="node">
<title>Node23</title>
<g id="a_node23"><a xlink:href="classdenoptim_1_1ga_1_1_selection_helper.html#a22295591c1c461d8225b2ce54ee9f6e9" target="_top" xlink:title="Randomly select k individuals from the population.">
<polygon fill="white" stroke="black" points="945,-352 945,-382 1121,-382 1121,-352 945,-352"/>
<text text-anchor="start" x="953" y="-370" font-family="Helvetica,sans-Serif" font-size="10.00">denoptim.ga.SelectionHelper.perform</text>
<text text-anchor="middle" x="1033" y="-359" font-family="Helvetica,sans-Serif" font-size="10.00">RandomSelection</text>
</a>
</g>
</g>
<!-- Node18&#45;&gt;Node23 -->
<g id="edge28" class="edge">
<title>Node18&#45;&gt;Node23</title>
<path fill="none" stroke="midnightblue" d="M1222.15,-303.65C1197.45,-316.22 1163.92,-332.14 1133,-343 1123.66,-346.28 1113.66,-349.28 1103.75,-351.95"/>
<polygon fill="midnightblue" stroke="midnightblue" points="1223.86,-306.7 1231.16,-299.02 1220.66,-300.48 1223.86,-306.7"/>
</g>
<!-- Node25 -->
<g id="node25" class="node">
<title>Node25</title>
<g id="a_node25"><a xlink:href="classdenoptim_1_1ga_1_1_selection_helper.html#a8c9b38255efa029c6b672d26a03ce90c" target="_top" xlink:title="Select p individuals at random.">
<polygon fill="white" stroke="black" points="945,-303 945,-333 1121,-333 1121,-303 945,-303"/>
<text text-anchor="start" x="953" y="-321" font-family="Helvetica,sans-Serif" font-size="10.00">denoptim.ga.SelectionHelper.perform</text>
<text text-anchor="middle" x="1033" y="-310" font-family="Helvetica,sans-Serif" font-size="10.00">TournamentSelection</text>
</a>
</g>
</g>
<!-- Node18&#45;&gt;Node25 -->
<g id="edge33" class="edge">
<title>Node18&#45;&gt;Node25</title>
<path fill="none" stroke="midnightblue" d="M1164.02,-298.35C1149.85,-300.49 1135.29,-302.69 1121.29,-304.81"/>
<polygon fill="midnightblue" stroke="midnightblue" points="1164.89,-301.76 1174.26,-296.81 1163.85,-294.84 1164.89,-301.76"/>
</g>
<!-- Node26 -->
<g id="node26" class="node">
<title>Node26</title>
<g id="a_node26"><a xlink:href="classdenoptim_1_1programs_1_1genetweeker_1_1_gene_ops_runner.html#ab0f92a94c4fb2334e7d3813e73fc4247" target="_top" xlink:title=" ">
<polygon fill="white" stroke="black" points="953.5,-254 953.5,-284 1112.5,-284 1112.5,-254 953.5,-254"/>
<text text-anchor="start" x="961.5" y="-272" font-family="Helvetica,sans-Serif" font-size="10.00">denoptim.programs.genetweeker.</text>
<text text-anchor="middle" x="1033" y="-261" font-family="Helvetica,sans-Serif" font-size="10.00">GeneOpsRunner.runXOver</text>
</a>
</g>
</g>
<!-- Node18&#45;&gt;Node26 -->
<g id="edge35" class="edge">
<title>Node18&#45;&gt;Node26</title>
<path fill="none" stroke="midnightblue" d="M1164.23,-277.68C1147.08,-276.54 1129.36,-275.36 1112.73,-274.25"/>
<polygon fill="midnightblue" stroke="midnightblue" points="1164.05,-281.18 1174.26,-278.35 1164.51,-274.19 1164.05,-281.18"/>
</g>
<!-- Node28 -->
<g id="node28" class="node">
<title>Node28</title>
<g id="a_node28"><a xlink:href="classdenoptim_1_1ga_1_1_e_a_utils.html#ac8c9339d352074aafb4a8e3cc206b0d6" target="_top" xlink:title="Chose randomly a vertex that is neither scaffold or capping group.">
<polygon fill="white" stroke="black" points="966.5,-166 966.5,-196 1099.5,-196 1099.5,-166 966.5,-166"/>
<text text-anchor="start" x="974.5" y="-184" font-family="Helvetica,sans-Serif" font-size="10.00">denoptim.ga.EAUtils.select</text>
<text text-anchor="middle" x="1033" y="-173" font-family="Helvetica,sans-Serif" font-size="10.00">NonScaffoldNonCapVertex</text>
</a>
</g>
</g>
<!-- Node18&#45;&gt;Node28 -->
<g id="edge37" class="edge">
<title>Node18&#45;&gt;Node28</title>
<path fill="none" stroke="midnightblue" d="M1227.99,-263.31C1203.11,-247.4 1166.87,-225.71 1133,-211 1119.9,-205.31 1105.39,-200.27 1091.61,-196.01"/>
<polygon fill="midnightblue" stroke="midnightblue" points="1226.31,-266.4 1236.61,-268.89 1230.12,-260.52 1226.31,-266.4"/>
</g>
<!-- Node20 -->
<g id="node20" class="node">
<title>Node20</title>
<g id="a_node20"><a xlink:href="classdenoptim_1_1fragspace_1_1_a_p_map_finder.html#ada1b2c2155faeefced1d9a64f82a6668" target="_top" xlink:title="Constructor that launches the search for a mapping between the AttachmentPoints on the first vertex t...">
<polygon fill="white" stroke="black" points="744.5,-78 744.5,-108 880.5,-108 880.5,-78 744.5,-78"/>
<text text-anchor="start" x="752.5" y="-96" font-family="Helvetica,sans-Serif" font-size="10.00">denoptim.fragspace.APMap</text>
<text text-anchor="middle" x="812.5" y="-85" font-family="Helvetica,sans-Serif" font-size="10.00">Finder.APMapFinder</text>
</a>
</g>
</g>
<!-- Node19&#45;&gt;Node20 -->
<g id="edge24" class="edge">
<title>Node19&#45;&gt;Node20</title>
<path fill="none" stroke="midnightblue" d="M955.09,-118.27C930.86,-113.95 904.3,-109.21 880.79,-105.01"/>
<polygon fill="midnightblue" stroke="midnightblue" points="954.5,-121.72 964.96,-120.03 955.73,-114.83 954.5,-121.72"/>
</g>
<!-- Node22&#45;&gt;Node9 -->
<g id="edge27" class="edge">
<title>Node22&#45;&gt;Node9</title>
<path fill="none" stroke="midnightblue" d="M515.93,-288.35C504.96,-289.47 493.97,-290.59 483.56,-291.64"/>
<polygon fill="midnightblue" stroke="midnightblue" points="516.38,-291.83 525.98,-287.33 515.68,-284.86 516.38,-291.83"/>
</g>
<!-- Node24 -->
<g id="node24" class="node">
<title>Node24</title>
<g id="a_node24"><a xlink:href="classdenoptim_1_1ga_1_1_e_a_utils.html#aa58e7cef632419fceeeb96e09b3e09fc" target="_top" xlink:title="Selects a number of members from the given population.">
<polygon fill="white" stroke="black" points="746,-303 746,-333 879,-333 879,-303 746,-303"/>
<text text-anchor="start" x="754" y="-321" font-family="Helvetica,sans-Serif" font-size="10.00">denoptim.ga.EAUtils.select</text>
<text text-anchor="middle" x="812.5" y="-310" font-family="Helvetica,sans-Serif" font-size="10.00">BasedOnFitness</text>
</a>
</g>
</g>
<!-- Node23&#45;&gt;Node24 -->
<g id="edge29" class="edge">
<title>Node23&#45;&gt;Node24</title>
<path fill="none" stroke="midnightblue" d="M954.9,-349.71C930.2,-344.17 903.1,-338.09 879.29,-332.75"/>
<polygon fill="midnightblue" stroke="midnightblue" points="954.43,-353.19 964.96,-351.97 955.97,-346.36 954.43,-353.19"/>
</g>
<!-- Node24&#45;&gt;Node4 -->
<g id="edge30" class="edge">
<title>Node24&#45;&gt;Node4</title>
<path fill="none" stroke="midnightblue" d="M736,-334.11C715.08,-338.58 692.61,-343.37 672.53,-347.66"/>
<polygon fill="midnightblue" stroke="midnightblue" points="736.75,-337.53 745.8,-332.02 735.29,-330.68 736.75,-337.53"/>
</g>
<!-- Node24&#45;&gt;Node9 -->
<g id="edge31" class="edge">
<title>Node24&#45;&gt;Node9</title>
<path fill="none" stroke="midnightblue" d="M735.58,-314.11C662.11,-310.35 552.08,-304.71 483.52,-301.2"/>
<polygon fill="midnightblue" stroke="midnightblue" points="735.53,-317.61 745.7,-314.63 735.89,-310.62 735.53,-317.61"/>
</g>
<!-- Node24&#45;&gt;Node22 -->
<g id="edge32" class="edge">
<title>Node24&#45;&gt;Node22</title>
<path fill="none" stroke="midnightblue" d="M735.75,-303.34C710.18,-298.39 682.31,-292.99 659.32,-288.55"/>
<polygon fill="midnightblue" stroke="midnightblue" points="735.32,-306.82 745.8,-305.28 736.65,-299.95 735.32,-306.82"/>
</g>
<!-- Node25&#45;&gt;Node24 -->
<g id="edge34" class="edge">
<title>Node25&#45;&gt;Node24</title>
<path fill="none" stroke="midnightblue" d="M934.63,-318C915.85,-318 896.59,-318 879.12,-318"/>
<polygon fill="midnightblue" stroke="midnightblue" points="934.7,-321.5 944.7,-318 934.7,-314.5 934.7,-321.5"/>
</g>
<!-- Node27 -->
<g id="node27" class="node">
<title>Node27</title>
<g id="a_node27"><a xlink:href="classdenoptim_1_1programs_1_1genetweeker_1_1_gene_ops_runner.html#a3c2407eb1204a7b25600d3d347d98447" target="_top" xlink:title=" ">
<polygon fill="white" stroke="black" points="733,-254 733,-284 892,-284 892,-254 733,-254"/>
<text text-anchor="start" x="741" y="-272" font-family="Helvetica,sans-Serif" font-size="10.00">denoptim.programs.genetweeker.</text>
<text text-anchor="middle" x="812.5" y="-261" font-family="Helvetica,sans-Serif" font-size="10.00">GeneOpsRunner.runProgram</text>
</a>
</g>
</g>
<!-- Node26&#45;&gt;Node27 -->
<g id="edge36" class="edge">
<title>Node26&#45;&gt;Node27</title>
<path fill="none" stroke="midnightblue" d="M943.03,-269C926.16,-269 908.63,-269 892.11,-269"/>
<polygon fill="midnightblue" stroke="midnightblue" points="943.43,-272.5 953.43,-269 943.43,-265.5 943.43,-272.5"/>
</g>
<!-- Node28&#45;&gt;Node9 -->
<g id="edge38" class="edge">
<title>Node28&#45;&gt;Node9</title>
<path fill="none" stroke="midnightblue" d="M961.51,-163.89C899.38,-151.54 806.76,-139.78 728,-157 615.12,-181.68 494.17,-251.87 444.42,-282.92"/>
<polygon fill="midnightblue" stroke="midnightblue" points="961.09,-167.38 971.59,-165.95 962.5,-160.52 961.09,-167.38"/>
</g>
<!-- Node29 -->
<g id="node29" class="node">
<title>Node29</title>
<g id="a_node29"><a xlink:href="classdenoptim_1_1ga_1_1_e_a_utils_test.html#a60b1ca7ac8b9d3775e72bd7cea418f1a" target="_top" xlink:title=" ">
<polygon fill="white" stroke="black" points="732,-166 732,-196 893,-196 893,-166 732,-166"/>
<text text-anchor="start" x="740" y="-184" font-family="Helvetica,sans-Serif" font-size="10.00">denoptim.ga.EAUtilsTest.test</text>
<text text-anchor="middle" x="812.5" y="-173" font-family="Helvetica,sans-Serif" font-size="10.00">SelectNonScaffoldNonCapVertex</text>
</a>
</g>
</g>
<!-- Node28&#45;&gt;Node29 -->
<g id="edge39" class="edge">
<title>Node28&#45;&gt;Node29</title>
<path fill="none" stroke="midnightblue" d="M956.29,-181C935.94,-181 913.87,-181 893.3,-181"/>
<polygon fill="midnightblue" stroke="midnightblue" points="956.44,-184.5 966.44,-181 956.44,-177.5 956.44,-184.5"/>
</g>
</g>
</svg>
