<?xml version="1.0" encoding="UTF-8" standalone="no"?>
<!DOCTYPE svg PUBLIC "-//W3C//DTD SVG 1.1//EN"
 "http://www.w3.org/Graphics/SVG/1.1/DTD/svg11.dtd">
<!-- Generated by graphviz version 3.0.0 (20220413.0242)
 -->
<!-- Title: denoptim.combinatorial.CEBLUtils.storeAllGraphsOfLevel Pages: 1 -->
<svg width="1016pt" height="820pt"
 viewBox="0.00 0.00 1016.00 819.50" xmlns="http://www.w3.org/2000/svg" xmlns:xlink="http://www.w3.org/1999/xlink">
<g id="graph0" class="graph" transform="scale(1 1) rotate(0) translate(4 815.5)">
<title>denoptim.combinatorial.CEBLUtils.storeAllGraphsOfLevel</title>
<polygon fill="white" stroke="transparent" points="-4,4 -4,-815.5 1012,-815.5 1012,4 -4,4"/>
<!-- Node1 -->
<g id="node1" class="node">
<title>Node1</title>
<g id="a_node1"><a xlink:title="Serialize all DENOPTIMGraphs to file.">
<polygon fill="#bfbfbf" stroke="black" points="0,-292.5 0,-322.5 188,-322.5 188,-292.5 0,-292.5"/>
<text text-anchor="start" x="8" y="-310.5" font-family="Helvetica,sans-Serif" font-size="10.00">denoptim.combinatorial.CEBLUtils.store</text>
<text text-anchor="middle" x="94" y="-299.5" font-family="Helvetica,sans-Serif" font-size="10.00">AllGraphsOfLevel</text>
</a>
</g>
</g>
<!-- Node2 -->
<g id="node2" class="node">
<title>Node2</title>
<g id="a_node2"><a xlink:href="classdenoptim_1_1graph_1_1_d_graph.html#a6f0b9a42074fe224ae52cee5f5875a7c" target="_top" xlink:title="Returns almost &quot;deep&#45;copy&quot; of this graph.">
<polygon fill="white" stroke="black" points="246.5,-513 246.5,-532 389.5,-532 389.5,-513 246.5,-513"/>
<text text-anchor="middle" x="318" y="-520" font-family="Helvetica,sans-Serif" font-size="10.00">denoptim.graph.DGraph.clone</text>
</a>
</g>
</g>
<!-- Node1&#45;&gt;Node2 -->
<g id="edge1" class="edge">
<title>Node1&#45;&gt;Node2</title>
<path fill="none" stroke="midnightblue" d="M110.61,-322.62C150.85,-361.59 257.88,-465.25 299.81,-505.85"/>
<polygon fill="midnightblue" stroke="midnightblue" points="297.45,-508.44 307.07,-512.88 302.32,-503.41 297.45,-508.44"/>
</g>
<!-- Node19 -->
<g id="node19" class="node">
<title>Node19</title>
<g id="a_node19"><a xlink:href="classdenoptim_1_1combinatorial_1_1_c_e_b_l_utils.html#ad12e9fc00e6e4286f4b3320591053f30" target="_top" xlink:title="Serialize a DENOPTIMGraph to a file.">
<polygon fill="white" stroke="black" points="224,-123.5 224,-153.5 412,-153.5 412,-123.5 224,-123.5"/>
<text text-anchor="start" x="232" y="-141.5" font-family="Helvetica,sans-Serif" font-size="10.00">denoptim.combinatorial.CEBLUtils.store</text>
<text text-anchor="middle" x="318" y="-130.5" font-family="Helvetica,sans-Serif" font-size="10.00">GraphOfLevel</text>
</a>
</g>
</g>
<!-- Node1&#45;&gt;Node19 -->
<g id="edge20" class="edge">
<title>Node1&#45;&gt;Node19</title>
<path fill="none" stroke="midnightblue" d="M115.09,-292.2C154.8,-261.98 243.4,-194.53 288.88,-159.91"/>
<polygon fill="midnightblue" stroke="midnightblue" points="291.28,-162.48 297.11,-153.64 287.04,-156.91 291.28,-162.48"/>
</g>
<!-- Node2&#45;&gt;Node2 -->
<g id="edge3" class="edge">
<title>Node2&#45;&gt;Node2</title>
<path fill="none" stroke="midnightblue" d="M284.37,-532.11C267.47,-540.96 278.68,-550.5 318,-550.5 346.87,-550.5 360.59,-545.36 359.15,-539.12"/>
<polygon fill="midnightblue" stroke="midnightblue" points="361.33,-536.37 351.63,-532.11 356.56,-541.49 361.33,-536.37"/>
</g>
<!-- Node3 -->
<g id="node3" class="node">
<title>Node3</title>
<g id="a_node3"><a xlink:href="classdenoptim_1_1graph_1_1_ring.html#a26caae2f4e91d37ffb2f7f3becd97a8e" target="_top" xlink:title="Append a DENOPTIMVertex to the list.">
<polygon fill="white" stroke="black" points="463,-792 463,-811 613,-811 613,-792 463,-792"/>
<text text-anchor="middle" x="538" y="-799" font-family="Helvetica,sans-Serif" font-size="10.00">denoptim.graph.Ring.addVertex</text>
</a>
</g>
</g>
<!-- Node2&#45;&gt;Node3 -->
<g id="edge2" class="edge">
<title>Node2&#45;&gt;Node3</title>
<path fill="none" stroke="midnightblue" d="M320.69,-532.18C327.96,-570.71 360.24,-714.35 448,-782.5 450.21,-784.21 452.53,-785.78 454.95,-787.21"/>
<polygon fill="midnightblue" stroke="midnightblue" points="453.56,-790.43 464.06,-791.84 456.72,-784.19 453.56,-790.43"/>
</g>
<!-- Node4 -->
<g id="node4" class="node">
<title>Node4</title>
<g id="a_node4"><a xlink:href="classdenoptim_1_1graph_1_1_vertex.html#a05e1f8f3d4595534fb18c8d6b7e4a82d" target="_top" xlink:title="Returns a deep&#45;copy of this vertex.">
<polygon fill="white" stroke="black" points="469,-754 469,-773 607,-773 607,-754 469,-754"/>
<text text-anchor="middle" x="538" y="-761" font-family="Helvetica,sans-Serif" font-size="10.00">denoptim.graph.Vertex.clone</text>
</a>
</g>
</g>
<!-- Node2&#45;&gt;Node4 -->
<g id="edge4" class="edge">
<title>Node2&#45;&gt;Node4</title>
<path fill="none" stroke="midnightblue" d="M321.62,-532.43C331.45,-567.69 369.69,-687.72 448,-744.5 451.53,-747.06 455.32,-749.28 459.29,-751.22"/>
<polygon fill="midnightblue" stroke="midnightblue" points="458.25,-754.58 468.83,-755.24 460.97,-748.13 458.25,-754.58"/>
</g>
<!-- Node5 -->
<g id="node5" class="node">
<title>Node5</title>
<g id="a_node5"><a xlink:href="classdenoptim_1_1graph_1_1_d_graph.html#a8c53e13b64166fc85fc9a7787dadd46b" target="_top" xlink:title=" ">
<polygon fill="white" stroke="black" points="461.5,-716 461.5,-735 614.5,-735 614.5,-716 461.5,-716"/>
<text text-anchor="middle" x="538" y="-723" font-family="Helvetica,sans-Serif" font-size="10.00">denoptim.graph.DGraph.DGraph</text>
</a>
</g>
</g>
<!-- Node2&#45;&gt;Node5 -->
<g id="edge5" class="edge">
<title>Node2&#45;&gt;Node5</title>
<path fill="none" stroke="midnightblue" d="M322.66,-532.01C335.01,-562.8 378.39,-660.41 448,-706.5 450.99,-708.48 454.15,-710.26 457.42,-711.85"/>
<polygon fill="midnightblue" stroke="midnightblue" points="456.34,-715.19 466.91,-715.89 459.08,-708.75 456.34,-715.19"/>
</g>
<!-- Node6 -->
<g id="node6" class="node">
<title>Node6</title>
<g id="a_node6"><a xlink:href="classdenoptim_1_1graph_1_1_attachment_point.html#a774671253396558cf35ab75613762174" target="_top" xlink:title="Returns the bond type preferred by this attachment point as defined by the APClass,...">
<polygon fill="white" stroke="black" points="470.5,-666.5 470.5,-696.5 605.5,-696.5 605.5,-666.5 470.5,-666.5"/>
<text text-anchor="start" x="478.5" y="-684.5" font-family="Helvetica,sans-Serif" font-size="10.00">denoptim.graph.Attachment</text>
<text text-anchor="middle" x="538" y="-673.5" font-family="Helvetica,sans-Serif" font-size="10.00">Point.getBondType</text>
</a>
</g>
</g>
<!-- Node2&#45;&gt;Node6 -->
<g id="edge6" class="edge">
<title>Node2&#45;&gt;Node6</title>
<path fill="none" stroke="midnightblue" d="M325.27,-532.04C342.04,-556.77 390.58,-623.41 448,-657.5 452.09,-659.93 456.42,-662.11 460.89,-664.08"/>
<polygon fill="midnightblue" stroke="midnightblue" points="459.64,-667.35 470.22,-667.82 462.25,-660.85 459.64,-667.35"/>
</g>
<!-- Node8 -->
<g id="node8" class="node">
<title>Node8</title>
<g id="a_node8"><a xlink:href="classdenoptim_1_1graph_1_1_vertex.html#a367c9d31e4bb13c16e865389c154a767" target="_top" xlink:title="Returns the position of the given AP in the list of APs of this vertex.">
<polygon fill="white" stroke="black" points="474,-617.5 474,-647.5 602,-647.5 602,-617.5 474,-617.5"/>
<text text-anchor="start" x="482" y="-635.5" font-family="Helvetica,sans-Serif" font-size="10.00">denoptim.graph.Vertex.get</text>
<text text-anchor="middle" x="538" y="-624.5" font-family="Helvetica,sans-Serif" font-size="10.00">IndexOfAP</text>
</a>
</g>
</g>
<!-- Node2&#45;&gt;Node8 -->
<g id="edge8" class="edge">
<title>Node2&#45;&gt;Node8</title>
<path fill="none" stroke="midnightblue" d="M332.35,-532.23C355.13,-548.5 403.42,-581.5 448,-602.5 456.96,-606.72 466.68,-610.63 476.3,-614.13"/>
<polygon fill="midnightblue" stroke="midnightblue" points="475.25,-617.47 485.84,-617.5 477.58,-610.87 475.25,-617.47"/>
</g>
<!-- Node10 -->
<g id="node10" class="node">
<title>Node10</title>
<g id="a_node10"><a xlink:href="classdenoptim_1_1graph_1_1_vertex.html#af44ae05546096ec9060d7207f38bc8e9" target="_top" xlink:title=" ">
<polygon fill="white" stroke="black" points="880,-551.5 880,-581.5 1008,-581.5 1008,-551.5 880,-551.5"/>
<text text-anchor="start" x="888" y="-569.5" font-family="Helvetica,sans-Serif" font-size="10.00">denoptim.graph.Vertex.get</text>
<text text-anchor="middle" x="944" y="-558.5" font-family="Helvetica,sans-Serif" font-size="10.00">VertexId</text>
</a>
</g>
</g>
<!-- Node2&#45;&gt;Node10 -->
<g id="edge10" class="edge">
<title>Node2&#45;&gt;Node10</title>
<path fill="none" stroke="midnightblue" d="M338.51,-532.06C363.27,-543.61 407.63,-562.37 448,-569.5 595.95,-595.61 772.66,-584.66 869.86,-575.09"/>
<polygon fill="midnightblue" stroke="midnightblue" points="870.28,-578.57 879.88,-574.08 869.58,-571.6 870.28,-578.57"/>
</g>
<!-- Node11 -->
<g id="node11" class="node">
<title>Node11</title>
<g id="a_node11"><a xlink:href="classdenoptim_1_1graph_1_1_d_graph.html#af68c6f4772e3a77bbb4a63f98dc53d04" target="_top" xlink:title=" ">
<polygon fill="white" stroke="black" points="471,-529.5 471,-559.5 605,-559.5 605,-529.5 471,-529.5"/>
<text text-anchor="start" x="479" y="-547.5" font-family="Helvetica,sans-Serif" font-size="10.00">denoptim.graph.DGraph.get</text>
<text text-anchor="middle" x="538" y="-536.5" font-family="Helvetica,sans-Serif" font-size="10.00">VertexWithId</text>
</a>
</g>
</g>
<!-- Node2&#45;&gt;Node11 -->
<g id="edge11" class="edge">
<title>Node2&#45;&gt;Node11</title>
<path fill="none" stroke="midnightblue" d="M389.78,-529.64C412.41,-531.93 437.57,-534.47 460.58,-536.79"/>
<polygon fill="midnightblue" stroke="midnightblue" points="460.34,-540.28 470.65,-537.8 461.05,-533.32 460.34,-540.28"/>
</g>
<!-- Node13 -->
<g id="node13" class="node">
<title>Node13</title>
<g id="a_node13"><a xlink:href="classdenoptim_1_1graph_1_1_ring.html#a4d36b4964430194b787e708d47b00af5" target="_top" xlink:title="Set the bond type (i.e., bond order) of the chord connecting the head and the tail vertices.">
<polygon fill="white" stroke="black" points="456,-491 456,-510 620,-510 620,-491 456,-491"/>
<text text-anchor="middle" x="538" y="-498" font-family="Helvetica,sans-Serif" font-size="10.00">denoptim.graph.Ring.setBondType</text>
</a>
</g>
</g>
<!-- Node2&#45;&gt;Node13 -->
<g id="edge14" class="edge">
<title>Node2&#45;&gt;Node13</title>
<path fill="none" stroke="midnightblue" d="M389.78,-515.36C407.69,-513.55 427.19,-511.58 445.95,-509.69"/>
<polygon fill="midnightblue" stroke="midnightblue" points="446.38,-513.16 455.98,-508.68 445.68,-506.2 446.38,-513.16"/>
</g>
<!-- Node14 -->
<g id="node14" class="node">
<title>Node14</title>
<g id="a_node14"><a xlink:href="classdenoptim_1_1graph_1_1_d_graph.html#a30bfc345b743b8859c842b3b4e3ca5fa" target="_top" xlink:title=" ">
<polygon fill="white" stroke="black" points="471,-441.5 471,-471.5 605,-471.5 605,-441.5 471,-441.5"/>
<text text-anchor="start" x="479" y="-459.5" font-family="Helvetica,sans-Serif" font-size="10.00">denoptim.graph.DGraph.set</text>
<text text-anchor="middle" x="538" y="-448.5" font-family="Helvetica,sans-Serif" font-size="10.00">CandidateClosableChains</text>
</a>
</g>
</g>
<!-- Node2&#45;&gt;Node14 -->
<g id="edge15" class="edge">
<title>Node2&#45;&gt;Node14</title>
<path fill="none" stroke="midnightblue" d="M348.12,-512.94C374.2,-504.44 413.55,-491.81 448,-481.5 455.96,-479.12 464.33,-476.68 472.64,-474.3"/>
<polygon fill="midnightblue" stroke="midnightblue" points="473.66,-477.65 482.32,-471.55 471.74,-470.92 473.66,-477.65"/>
</g>
<!-- Node15 -->
<g id="node15" class="node">
<title>Node15</title>
<g id="a_node15"><a xlink:href="classdenoptim_1_1graph_1_1_d_graph.html#a421ce3718c62761e49a4dd4d0f20682c" target="_top" xlink:title=" ">
<polygon fill="white" stroke="black" points="471,-392.5 471,-422.5 605,-422.5 605,-392.5 471,-392.5"/>
<text text-anchor="start" x="479" y="-410.5" font-family="Helvetica,sans-Serif" font-size="10.00">denoptim.graph.DGraph.set</text>
<text text-anchor="middle" x="538" y="-399.5" font-family="Helvetica,sans-Serif" font-size="10.00">GraphId</text>
</a>
</g>
</g>
<!-- Node2&#45;&gt;Node15 -->
<g id="edge16" class="edge">
<title>Node2&#45;&gt;Node15</title>
<path fill="none" stroke="midnightblue" d="M329.93,-512.92C351.23,-494.74 400.35,-455.02 448,-432.5 452.99,-430.14 458.24,-427.97 463.6,-425.97"/>
<polygon fill="midnightblue" stroke="midnightblue" points="465.04,-429.17 473.32,-422.56 462.72,-422.57 465.04,-429.17"/>
</g>
<!-- Node16 -->
<g id="node16" class="node">
<title>Node16</title>
<g id="a_node16"><a xlink:href="classdenoptim_1_1graph_1_1_d_graph.html#af5cb07ab0686739e6e1713da9d8959c1" target="_top" xlink:title=" ">
<polygon fill="white" stroke="black" points="471,-343.5 471,-373.5 605,-373.5 605,-343.5 471,-343.5"/>
<text text-anchor="start" x="479" y="-361.5" font-family="Helvetica,sans-Serif" font-size="10.00">denoptim.graph.DGraph.set</text>
<text text-anchor="middle" x="538" y="-350.5" font-family="Helvetica,sans-Serif" font-size="10.00">LocalMsg</text>
</a>
</g>
</g>
<!-- Node2&#45;&gt;Node16 -->
<g id="edge17" class="edge">
<title>Node2&#45;&gt;Node16</title>
<path fill="none" stroke="midnightblue" d="M325.22,-512.71C341.86,-487.31 390.12,-418.85 448,-383.5 452.15,-380.97 456.56,-378.68 461.11,-376.63"/>
<polygon fill="midnightblue" stroke="midnightblue" points="462.71,-379.75 470.63,-372.71 460.05,-373.28 462.71,-379.75"/>
</g>
<!-- Node17 -->
<g id="node17" class="node">
<title>Node17</title>
<g id="a_node17"><a xlink:href="classdenoptim_1_1graph_1_1_d_graph.html#a5126283bcf1434c3366ea17bfac2c55f" target="_top" xlink:title=" ">
<polygon fill="white" stroke="black" points="471,-294.5 471,-324.5 605,-324.5 605,-294.5 471,-294.5"/>
<text text-anchor="start" x="479" y="-312.5" font-family="Helvetica,sans-Serif" font-size="10.00">denoptim.graph.DGraph.set</text>
<text text-anchor="middle" x="538" y="-301.5" font-family="Helvetica,sans-Serif" font-size="10.00">Rings</text>
</a>
</g>
</g>
<!-- Node2&#45;&gt;Node17 -->
<g id="edge18" class="edge">
<title>Node2&#45;&gt;Node17</title>
<path fill="none" stroke="midnightblue" d="M322.72,-512.96C335.26,-482.06 379.14,-383.83 448,-334.5 452.21,-331.48 456.78,-328.83 461.55,-326.49"/>
<polygon fill="midnightblue" stroke="midnightblue" points="463.16,-329.61 470.91,-322.38 460.35,-323.2 463.16,-329.61"/>
</g>
<!-- Node18 -->
<g id="node18" class="node">
<title>Node18</title>
<g id="a_node18"><a xlink:href="classdenoptim_1_1graph_1_1_d_graph.html#a98b344e795e1b992802f957ca63d19ca" target="_top" xlink:title=" ">
<polygon fill="white" stroke="black" points="471,-245.5 471,-275.5 605,-275.5 605,-245.5 471,-245.5"/>
<text text-anchor="start" x="479" y="-263.5" font-family="Helvetica,sans-Serif" font-size="10.00">denoptim.graph.DGraph.set</text>
<text text-anchor="middle" x="538" y="-252.5" font-family="Helvetica,sans-Serif" font-size="10.00">SymmetricVertexSets</text>
</a>
</g>
</g>
<!-- Node2&#45;&gt;Node18 -->
<g id="edge19" class="edge">
<title>Node2&#45;&gt;Node18</title>
<path fill="none" stroke="midnightblue" d="M321.4,-512.59C330.75,-476.26 368.15,-349.16 448,-285.5 452.13,-282.21 456.67,-279.35 461.44,-276.87"/>
<polygon fill="midnightblue" stroke="midnightblue" points="463.24,-279.89 470.87,-272.54 460.32,-273.53 463.24,-279.89"/>
</g>
<!-- Node7 -->
<g id="node7" class="node">
<title>Node7</title>
<g id="a_node7"><a xlink:href="classdenoptim_1_1graph_1_1_a_p_class.html#a7ecbfcc68b17ef630d0f46ccb6bb763b" target="_top" xlink:title=" ">
<polygon fill="white" stroke="black" points="684.5,-666.5 684.5,-696.5 823.5,-696.5 823.5,-666.5 684.5,-666.5"/>
<text text-anchor="start" x="692.5" y="-684.5" font-family="Helvetica,sans-Serif" font-size="10.00">denoptim.graph.APClass.get</text>
<text text-anchor="middle" x="754" y="-673.5" font-family="Helvetica,sans-Serif" font-size="10.00">BondType</text>
</a>
</g>
</g>
<!-- Node6&#45;&gt;Node7 -->
<g id="edge7" class="edge">
<title>Node6&#45;&gt;Node7</title>
<path fill="none" stroke="midnightblue" d="M605.54,-681.5C627.24,-681.5 651.55,-681.5 674.08,-681.5"/>
<polygon fill="midnightblue" stroke="midnightblue" points="674.29,-685 684.29,-681.5 674.29,-678 674.29,-685"/>
</g>
<!-- Node9 -->
<g id="node9" class="node">
<title>Node9</title>
<g id="a_node9"><a xlink:href="classdenoptim_1_1graph_1_1_vertex.html#a022f7c9075b178f17e13339b215ee21f" target="_top" xlink:title=" ">
<polygon fill="white" stroke="black" points="690,-617.5 690,-647.5 818,-647.5 818,-617.5 690,-617.5"/>
<text text-anchor="start" x="698" y="-635.5" font-family="Helvetica,sans-Serif" font-size="10.00">denoptim.graph.Vertex.get</text>
<text text-anchor="middle" x="754" y="-624.5" font-family="Helvetica,sans-Serif" font-size="10.00">AttachmentPoints</text>
</a>
</g>
</g>
<!-- Node8&#45;&gt;Node9 -->
<g id="edge9" class="edge">
<title>Node8&#45;&gt;Node9</title>
<path fill="none" stroke="midnightblue" d="M602.05,-632.5C626.32,-632.5 654.25,-632.5 679.43,-632.5"/>
<polygon fill="midnightblue" stroke="midnightblue" points="679.66,-636 689.66,-632.5 679.66,-629 679.66,-636"/>
</g>
<!-- Node12 -->
<g id="node12" class="node">
<title>Node12</title>
<g id="a_node12"><a xlink:href="classdenoptim_1_1graph_1_1_d_graph.html#aff14a66b89e52205a4b6b6a633de0e7e" target="_top" xlink:title="Returns the position of the first vertex that has the given ID.">
<polygon fill="white" stroke="black" points="682.5,-529.5 682.5,-559.5 825.5,-559.5 825.5,-529.5 682.5,-529.5"/>
<text text-anchor="start" x="690.5" y="-547.5" font-family="Helvetica,sans-Serif" font-size="10.00">denoptim.graph.DGraph.index</text>
<text text-anchor="middle" x="754" y="-536.5" font-family="Helvetica,sans-Serif" font-size="10.00">OfVertexWithID</text>
</a>
</g>
</g>
<!-- Node11&#45;&gt;Node12 -->
<g id="edge12" class="edge">
<title>Node11&#45;&gt;Node12</title>
<path fill="none" stroke="midnightblue" d="M605.25,-544.5C626.43,-544.5 650.12,-544.5 672.22,-544.5"/>
<polygon fill="midnightblue" stroke="midnightblue" points="672.24,-548 682.24,-544.5 672.24,-541 672.24,-548"/>
</g>
<!-- Node12&#45;&gt;Node10 -->
<g id="edge13" class="edge">
<title>Node12&#45;&gt;Node10</title>
<path fill="none" stroke="midnightblue" d="M825.54,-552.75C840.02,-554.45 855.28,-556.24 869.85,-557.94"/>
<polygon fill="midnightblue" stroke="midnightblue" points="869.46,-561.42 879.8,-559.1 870.28,-554.47 869.46,-561.42"/>
</g>
<!-- Node20 -->
<g id="node20" class="node">
<title>Node20</title>
<g id="a_node20"><a xlink:href="classdenoptim_1_1files_1_1_singleton_file_access.html#abc80e55c6f9dd98eab751454d40d9869" target="_top" xlink:title="Returns the single instance of this class.">
<polygon fill="white" stroke="black" points="478.5,-196.5 478.5,-226.5 597.5,-226.5 597.5,-196.5 478.5,-196.5"/>
<text text-anchor="start" x="486.5" y="-214.5" font-family="Helvetica,sans-Serif" font-size="10.00">denoptim.files.Singleton</text>
<text text-anchor="middle" x="538" y="-203.5" font-family="Helvetica,sans-Serif" font-size="10.00">FileAccess.getInstance</text>
</a>
</g>
</g>
<!-- Node19&#45;&gt;Node20 -->
<g id="edge21" class="edge">
<title>Node19&#45;&gt;Node20</title>
<path fill="none" stroke="midnightblue" d="M355.63,-153.53C381.27,-163.77 416.43,-177.28 448,-187.5 454.55,-189.62 461.41,-191.71 468.29,-193.71"/>
<polygon fill="midnightblue" stroke="midnightblue" points="467.77,-197.2 478.35,-196.58 469.69,-190.47 467.77,-197.2"/>
</g>
<!-- Node21 -->
<g id="node21" class="node">
<title>Node21</title>
<g id="a_node21"><a xlink:href="classdenoptim_1_1combinatorial_1_1_c_e_b_l_utils.html#ab3c17463c9705fb6bf49302dbf804922" target="_top" xlink:title=" ">
<polygon fill="white" stroke="black" points="448,-147.5 448,-177.5 628,-177.5 628,-147.5 448,-147.5"/>
<text text-anchor="start" x="456" y="-165.5" font-family="Helvetica,sans-Serif" font-size="10.00">denoptim.combinatorial.CEBLUtils.get</text>
<text text-anchor="middle" x="538" y="-154.5" font-family="Helvetica,sans-Serif" font-size="10.00">NameOfStorageDir</text>
</a>
</g>
</g>
<!-- Node19&#45;&gt;Node21 -->
<g id="edge22" class="edge">
<title>Node19&#45;&gt;Node21</title>
<path fill="none" stroke="midnightblue" d="M412.08,-148.75C420.57,-149.68 429.18,-150.63 437.72,-151.57"/>
<polygon fill="midnightblue" stroke="midnightblue" points="437.37,-155.05 447.69,-152.67 438.13,-148.09 437.37,-155.05"/>
</g>
<!-- Node23 -->
<g id="node23" class="node">
<title>Node23</title>
<g id="a_node23"><a xlink:href="classdenoptim_1_1combinatorial_1_1_c_e_b_l_utils.html#a619a913713d68c4cd0c8ab77e5c7dcfc" target="_top" xlink:title=" ">
<polygon fill="white" stroke="black" points="448,-49.5 448,-79.5 628,-79.5 628,-49.5 448,-49.5"/>
<text text-anchor="start" x="456" y="-67.5" font-family="Helvetica,sans-Serif" font-size="10.00">denoptim.combinatorial.CEBLUtils.get</text>
<text text-anchor="middle" x="538" y="-56.5" font-family="Helvetica,sans-Serif" font-size="10.00">NameOfStorageFile</text>
</a>
</g>
</g>
<!-- Node19&#45;&gt;Node23 -->
<g id="edge24" class="edge">
<title>Node19&#45;&gt;Node23</title>
<path fill="none" stroke="midnightblue" d="M354.77,-123.45C380.46,-112.94 416.04,-98.97 448,-88.5 454.44,-86.39 461.18,-84.32 467.95,-82.34"/>
<polygon fill="midnightblue" stroke="midnightblue" points="469.2,-85.62 477.85,-79.5 467.28,-78.89 469.2,-85.62"/>
</g>
<!-- Node25 -->
<g id="node25" class="node">
<title>Node25</title>
<g id="a_node25"><a xlink:href="classdenoptim_1_1combinatorial_1_1_c_e_b_l_utils.html#a81272dec7db92720a60e2457b21e8b7b" target="_top" xlink:title=" ">
<polygon fill="white" stroke="black" points="448,-98.5 448,-128.5 628,-128.5 628,-98.5 448,-98.5"/>
<text text-anchor="start" x="456" y="-116.5" font-family="Helvetica,sans-Serif" font-size="10.00">denoptim.combinatorial.CEBLUtils.get</text>
<text text-anchor="middle" x="538" y="-105.5" font-family="Helvetica,sans-Serif" font-size="10.00">NameOfStorageIndexFile</text>
</a>
</g>
</g>
<!-- Node19&#45;&gt;Node25 -->
<g id="edge27" class="edge">
<title>Node19&#45;&gt;Node25</title>
<path fill="none" stroke="midnightblue" d="M412.08,-127.83C420.57,-126.85 429.18,-125.86 437.72,-124.89"/>
<polygon fill="midnightblue" stroke="midnightblue" points="438.15,-128.36 447.69,-123.74 437.36,-121.4 438.15,-128.36"/>
</g>
<!-- Node26 -->
<g id="node26" class="node">
<title>Node26</title>
<g id="a_node26"><a xlink:href="classdenoptim_1_1files_1_1_singleton_file_access.html#af81115e8399dba03b329dde446f0dac4" target="_top" xlink:title="Write data as an unformatted string to a text file.">
<polygon fill="white" stroke="black" points="478.5,-0.5 478.5,-30.5 597.5,-30.5 597.5,-0.5 478.5,-0.5"/>
<text text-anchor="start" x="486.5" y="-18.5" font-family="Helvetica,sans-Serif" font-size="10.00">denoptim.files.Singleton</text>
<text text-anchor="middle" x="538" y="-7.5" font-family="Helvetica,sans-Serif" font-size="10.00">FileAccess.writeData</text>
</a>
</g>
</g>
<!-- Node19&#45;&gt;Node26 -->
<g id="edge29" class="edge">
<title>Node19&#45;&gt;Node26</title>
<path fill="none" stroke="midnightblue" d="M334.31,-123.46C357.18,-101.81 402.44,-62.01 448,-39.5 454.51,-36.28 461.51,-33.45 468.62,-30.97"/>
<polygon fill="midnightblue" stroke="midnightblue" points="469.92,-34.23 478.34,-27.8 467.75,-27.57 469.92,-34.23"/>
</g>
<!-- Node22 -->
<g id="node22" class="node">
<title>Node22</title>
<g id="a_node22"><a xlink:href="classdenoptim_1_1programs_1_1combinatorial_1_1_c_e_b_l_parameters.html#a39bafb4f1bdb25ae05ac2aa3e38fb440" target="_top" xlink:title=" ">
<polygon fill="white" stroke="black" points="673.5,-98.5 673.5,-128.5 834.5,-128.5 834.5,-98.5 673.5,-98.5"/>
<text text-anchor="start" x="681.5" y="-116.5" font-family="Helvetica,sans-Serif" font-size="10.00">denoptim.programs.combinatorial.</text>
<text text-anchor="middle" x="754" y="-105.5" font-family="Helvetica,sans-Serif" font-size="10.00">CEBLParameters.getDBRoot</text>
</a>
</g>
</g>
<!-- Node21&#45;&gt;Node22 -->
<g id="edge23" class="edge">
<title>Node21&#45;&gt;Node22</title>
<path fill="none" stroke="midnightblue" d="M604.66,-147.47C627.67,-142.2 653.69,-136.24 677.44,-130.8"/>
<polygon fill="midnightblue" stroke="midnightblue" points="678.5,-134.15 687.46,-128.51 676.93,-127.33 678.5,-134.15"/>
</g>
<!-- Node23&#45;&gt;Node22 -->
<g id="edge26" class="edge">
<title>Node23&#45;&gt;Node22</title>
<path fill="none" stroke="midnightblue" d="M604.66,-79.53C627.67,-84.8 653.69,-90.76 677.44,-96.2"/>
<polygon fill="midnightblue" stroke="midnightblue" points="676.93,-99.67 687.46,-98.49 678.5,-92.85 676.93,-99.67"/>
</g>
<!-- Node24 -->
<g id="node24" class="node">
<title>Node24</title>
<g id="a_node24"><a xlink:href="classdenoptim_1_1combinatorial_1_1_c_e_b_l_utils.html#aa572dda48af5d30ddf635464dc8695ac" target="_top" xlink:title=" ">
<polygon fill="white" stroke="black" points="664,-49.5 664,-79.5 844,-79.5 844,-49.5 664,-49.5"/>
<text text-anchor="start" x="672" y="-67.5" font-family="Helvetica,sans-Serif" font-size="10.00">denoptim.combinatorial.CEBLUtils.get</text>
<text text-anchor="middle" x="754" y="-56.5" font-family="Helvetica,sans-Serif" font-size="10.00">BaseNameOfStorageFile</text>
</a>
</g>
</g>
<!-- Node23&#45;&gt;Node24 -->
<g id="edge25" class="edge">
<title>Node23&#45;&gt;Node24</title>
<path fill="none" stroke="midnightblue" d="M628.21,-64.5C636.7,-64.5 645.34,-64.5 653.92,-64.5"/>
<polygon fill="midnightblue" stroke="midnightblue" points="653.94,-68 663.94,-64.5 653.94,-61 653.94,-68"/>
</g>
<!-- Node25&#45;&gt;Node22 -->
<g id="edge28" class="edge">
<title>Node25&#45;&gt;Node22</title>
<path fill="none" stroke="midnightblue" d="M628.21,-113.5C639.83,-113.5 651.73,-113.5 663.36,-113.5"/>
<polygon fill="midnightblue" stroke="midnightblue" points="663.49,-117 673.49,-113.5 663.49,-110 663.49,-117"/>
</g>
<!-- Node27 -->
<g id="node27" class="node">
<title>Node27</title>
<g id="a_node27"><a xlink:href="classdenoptim_1_1io_1_1_denoptim_i_o.html#adc7de175de66792f4f37f1661c10e7f8" target="_top" xlink:title="Write text&#45;like data file.">
<polygon fill="white" stroke="black" points="672,-6 672,-25 836,-25 836,-6 672,-6"/>
<text text-anchor="middle" x="754" y="-13" font-family="Helvetica,sans-Serif" font-size="10.00">denoptim.io.DenoptimIO.writeData</text>
</a>
</g>
</g>
<!-- Node26&#45;&gt;Node27 -->
<g id="edge30" class="edge">
<title>Node26&#45;&gt;Node27</title>
<path fill="none" stroke="midnightblue" d="M597.76,-15.5C617.52,-15.5 640.06,-15.5 661.72,-15.5"/>
<polygon fill="midnightblue" stroke="midnightblue" points="661.93,-19 671.93,-15.5 661.93,-12 661.93,-19"/>
</g>
</g>
</svg>
