<?xml version="1.0" encoding="UTF-8" standalone="no"?>
<!DOCTYPE svg PUBLIC "-//W3C//DTD SVG 1.1//EN"
 "http://www.w3.org/Graphics/SVG/1.1/DTD/svg11.dtd">
<!-- Generated by graphviz version 3.0.0 (20220413.0242)
 -->
<!-- Title: denoptim.graph.DGraph.getSymmetricSetCount Pages: 1 -->
<svg width="985pt" height="617pt"
 viewBox="0.00 0.00 985.00 617.00" xmlns="http://www.w3.org/2000/svg" xmlns:xlink="http://www.w3.org/1999/xlink">
<g id="graph0" class="graph" transform="scale(1 1) rotate(0) translate(4 613)">
<title>denoptim.graph.DGraph.getSymmetricSetCount</title>
<polygon fill="white" stroke="transparent" points="-4,4 -4,-613 981,-613 981,4 -4,4"/>
<!-- Node1 -->
<g id="node1" class="node">
<title>Node1</title>
<g id="a_node1"><a xlink:title="Returns the number of symmetric sets of vertices.">
<polygon fill="#bfbfbf" stroke="black" points="843,-147.5 843,-177.5 977,-177.5 977,-147.5 843,-147.5"/>
<text text-anchor="start" x="851" y="-165.5" font-family="Helvetica,sans-Serif" font-size="10.00">denoptim.graph.DGraph.get</text>
<text text-anchor="middle" x="910" y="-154.5" font-family="Helvetica,sans-Serif" font-size="10.00">SymmetricSetCount</text>
</a>
</g>
</g>
<!-- Node2 -->
<g id="node2" class="node">
<title>Node2</title>
<g id="a_node2"><a xlink:href="classdenoptim_1_1graph_1_1_d_graph.html#a956d0e807af7dbbad5267138e35cdb3d" target="_top" xlink:title="Compare this and another graph ignoring the vertex IDs.">
<polygon fill="white" stroke="black" points="627,-295 627,-314 783,-314 783,-295 627,-295"/>
<text text-anchor="middle" x="705" y="-302" font-family="Helvetica,sans-Serif" font-size="10.00">denoptim.graph.DGraph.sameAs</text>
</a>
</g>
</g>
<!-- Node1&#45;&gt;Node2 -->
<g id="edge1" class="edge">
<title>Node1&#45;&gt;Node2</title>
<path fill="none" stroke="midnightblue" d="M895.81,-186.55C879.03,-214.73 847.33,-260.6 807,-284.5 799.62,-288.87 791.45,-292.31 783.06,-295.01"/>
<polygon fill="midnightblue" stroke="midnightblue" points="898.94,-188.14 900.92,-177.73 892.88,-184.63 898.94,-188.14"/>
</g>
<!-- Node18 -->
<g id="node18" class="node">
<title>Node18</title>
<g id="a_node18"><a xlink:href="classdenoptim_1_1graph_1_1_d_graph_test.html#ad372c95de212882f1c7b64adb4b760ea" target="_top" xlink:title=" ">
<polygon fill="white" stroke="black" points="627,-245.5 627,-275.5 783,-275.5 783,-245.5 627,-245.5"/>
<text text-anchor="start" x="635" y="-263.5" font-family="Helvetica,sans-Serif" font-size="10.00">denoptim.graph.DGraphTest.test</text>
<text text-anchor="middle" x="705" y="-252.5" font-family="Helvetica,sans-Serif" font-size="10.00">Clone</text>
</a>
</g>
</g>
<!-- Node1&#45;&gt;Node18 -->
<g id="edge17" class="edge">
<title>Node1&#45;&gt;Node18</title>
<path fill="none" stroke="midnightblue" d="M884.38,-184.23C864.69,-200.54 835.73,-222.26 807,-235.5 798.72,-239.32 789.77,-242.6 780.74,-245.42"/>
<polygon fill="midnightblue" stroke="midnightblue" points="886.83,-186.74 892.22,-177.61 882.32,-181.39 886.83,-186.74"/>
</g>
<!-- Node19 -->
<g id="node19" class="node">
<title>Node19</title>
<g id="a_node19"><a xlink:href="classdenoptim_1_1graph_1_1_d_graph_test.html#a88c2fd8a1b401d9aa25bf85869bc28c7" target="_top" xlink:title=" ">
<polygon fill="white" stroke="black" points="603,-196.5 603,-226.5 807,-226.5 807,-196.5 603,-196.5"/>
<text text-anchor="start" x="611" y="-214.5" font-family="Helvetica,sans-Serif" font-size="10.00">denoptim.graph.DGraphTest.test</text>
<text text-anchor="middle" x="705" y="-203.5" font-family="Helvetica,sans-Serif" font-size="10.00">ConvertSymmetricLabelsToSymmetricSets</text>
</a>
</g>
</g>
<!-- Node1&#45;&gt;Node19 -->
<g id="edge18" class="edge">
<title>Node1&#45;&gt;Node19</title>
<path fill="none" stroke="midnightblue" d="M836.9,-179.9C814.44,-185.32 789.88,-191.25 768.17,-196.49"/>
<polygon fill="midnightblue" stroke="midnightblue" points="837.81,-183.28 846.71,-177.53 836.17,-176.48 837.81,-183.28"/>
</g>
<!-- Node20 -->
<g id="node20" class="node">
<title>Node20</title>
<g id="a_node20"><a xlink:href="classdenoptim_1_1graph_1_1_d_graph_test.html#a6b4a7a889a0e36c8b2dc97bcd8055c9e" target="_top" xlink:title=" ">
<polygon fill="white" stroke="black" points="627,-147.5 627,-177.5 783,-177.5 783,-147.5 627,-147.5"/>
<text text-anchor="start" x="635" y="-165.5" font-family="Helvetica,sans-Serif" font-size="10.00">denoptim.graph.DGraphTest.test</text>
<text text-anchor="middle" x="705" y="-154.5" font-family="Helvetica,sans-Serif" font-size="10.00">ExtractSubgraph</text>
</a>
</g>
</g>
<!-- Node1&#45;&gt;Node20 -->
<g id="edge19" class="edge">
<title>Node1&#45;&gt;Node20</title>
<path fill="none" stroke="midnightblue" d="M832.35,-162.5C816.22,-162.5 799.19,-162.5 783.04,-162.5"/>
<polygon fill="midnightblue" stroke="midnightblue" points="832.81,-166 842.81,-162.5 832.81,-159 832.81,-166"/>
</g>
<!-- Node21 -->
<g id="node21" class="node">
<title>Node21</title>
<g id="a_node21"><a xlink:href="classdenoptim_1_1graph_1_1_d_graph_test.html#a337ce2733050aa5d37cec418eb7d9081" target="_top" xlink:title=" ">
<polygon fill="white" stroke="black" points="627,-98.5 627,-128.5 783,-128.5 783,-98.5 627,-98.5"/>
<text text-anchor="start" x="635" y="-116.5" font-family="Helvetica,sans-Serif" font-size="10.00">denoptim.graph.DGraphTest.test</text>
<text text-anchor="middle" x="705" y="-105.5" font-family="Helvetica,sans-Serif" font-size="10.00">RemoveVertex</text>
</a>
</g>
</g>
<!-- Node1&#45;&gt;Node21 -->
<g id="edge20" class="edge">
<title>Node1&#45;&gt;Node21</title>
<path fill="none" stroke="midnightblue" d="M838.14,-145.06C827.7,-142.52 817.07,-139.93 807,-137.5 794.91,-134.58 782,-131.49 769.59,-128.54"/>
<polygon fill="midnightblue" stroke="midnightblue" points="837.52,-148.52 848.07,-147.49 839.19,-141.72 837.52,-148.52"/>
</g>
<!-- Node22 -->
<g id="node22" class="node">
<title>Node22</title>
<g id="a_node22"><a xlink:href="classdenoptim_1_1graph_1_1_d_graph_test.html#a83a9624ea5dc6a2c515407b865b62611" target="_top" xlink:title=" ">
<polygon fill="white" stroke="black" points="627,-49.5 627,-79.5 783,-79.5 783,-49.5 627,-49.5"/>
<text text-anchor="start" x="635" y="-67.5" font-family="Helvetica,sans-Serif" font-size="10.00">denoptim.graph.DGraphTest.test</text>
<text text-anchor="middle" x="705" y="-56.5" font-family="Helvetica,sans-Serif" font-size="10.00">ReplaceSubGraph</text>
</a>
</g>
</g>
<!-- Node1&#45;&gt;Node22 -->
<g id="edge21" class="edge">
<title>Node1&#45;&gt;Node22</title>
<path fill="none" stroke="midnightblue" d="M884.82,-140.68C865.17,-124.06 836.05,-101.84 807,-88.5 799.47,-85.04 791.38,-82.05 783.18,-79.47"/>
<polygon fill="midnightblue" stroke="midnightblue" points="882.77,-143.53 892.63,-147.42 887.34,-138.23 882.77,-143.53"/>
</g>
<!-- Node23 -->
<g id="node23" class="node">
<title>Node23</title>
<g id="a_node23"><a xlink:href="classdenoptim_1_1graph_1_1_d_graph_test.html#a3b99d7012da487a88acf937e3c9f5ea4" target="_top" xlink:title=" ">
<polygon fill="white" stroke="black" points="627,-0.5 627,-30.5 783,-30.5 783,-0.5 627,-0.5"/>
<text text-anchor="start" x="635" y="-18.5" font-family="Helvetica,sans-Serif" font-size="10.00">denoptim.graph.DGraphTest.test</text>
<text text-anchor="middle" x="705" y="-7.5" font-family="Helvetica,sans-Serif" font-size="10.00">ReplaceVertex</text>
</a>
</g>
</g>
<!-- Node1&#45;&gt;Node23 -->
<g id="edge22" class="edge">
<title>Node1&#45;&gt;Node23</title>
<path fill="none" stroke="midnightblue" d="M895.71,-138.51C878.82,-110.35 847.01,-64.36 807,-39.5 799.65,-34.93 791.51,-31.24 783.13,-28.24"/>
<polygon fill="midnightblue" stroke="midnightblue" points="892.78,-140.45 900.85,-147.32 898.83,-136.92 892.78,-140.45"/>
</g>
<!-- Node3 -->
<g id="node3" class="node">
<title>Node3</title>
<g id="a_node3"><a xlink:href="classdenoptim_1_1ga_1_1_population.html#ab303d612f90e917a7b1b49eadc93c76e" target="_top" xlink:title="Returns a list of population members that can do crossover with the specified member.">
<polygon fill="white" stroke="black" points="399.5,-534.5 399.5,-564.5 532.5,-564.5 532.5,-534.5 399.5,-534.5"/>
<text text-anchor="start" x="407.5" y="-552.5" font-family="Helvetica,sans-Serif" font-size="10.00">denoptim.ga.Population.get</text>
<text text-anchor="middle" x="466" y="-541.5" font-family="Helvetica,sans-Serif" font-size="10.00">XoverPartners</text>
</a>
</g>
</g>
<!-- Node2&#45;&gt;Node3 -->
<g id="edge2" class="edge">
<title>Node2&#45;&gt;Node3</title>
<path fill="none" stroke="midnightblue" d="M697.72,-323.98C682.65,-367.43 640.2,-472.61 567,-525.5 556.87,-532.82 544.8,-537.93 532.62,-541.49"/>
<polygon fill="midnightblue" stroke="midnightblue" points="701.09,-324.92 700.96,-314.33 694.46,-322.69 701.09,-324.92"/>
</g>
<!-- Node8 -->
<g id="node8" class="node">
<title>Node8</title>
<g id="a_node8"><a xlink:href="classdenoptim_1_1ga_1_1_e_a_utils_test.html#ad4662f1a3a989020f953f7034d7c1beb" target="_top" xlink:title="NB: the graphs from methods getPairOfTestGraphsB() and getPairOfTestGraphsBxo() and &#160;&#160;getPairOfTestGr...">
<polygon fill="white" stroke="black" points="389.5,-485.5 389.5,-515.5 542.5,-515.5 542.5,-485.5 389.5,-485.5"/>
<text text-anchor="start" x="397.5" y="-503.5" font-family="Helvetica,sans-Serif" font-size="10.00">denoptim.ga.EAUtilsTest.test</text>
<text text-anchor="middle" x="466" y="-492.5" font-family="Helvetica,sans-Serif" font-size="10.00">BuildByXOver_Embedded_Free</text>
</a>
</g>
</g>
<!-- Node2&#45;&gt;Node8 -->
<g id="edge7" class="edge">
<title>Node2&#45;&gt;Node8</title>
<path fill="none" stroke="midnightblue" d="M694.41,-323.3C675.26,-358.84 628.79,-435.88 567,-475.5 559.54,-480.28 551.23,-484.15 542.67,-487.28"/>
<polygon fill="midnightblue" stroke="midnightblue" points="697.71,-324.54 699.27,-314.06 691.51,-321.28 697.71,-324.54"/>
</g>
<!-- Node9 -->
<g id="node9" class="node">
<title>Node9</title>
<g id="a_node9"><a xlink:href="classdenoptim_1_1ga_1_1_e_a_utils_test.html#af8cfc323dd7d12090ddf4b836a3349cf" target="_top" xlink:title="NB: the graphs from methods getPairOfTestGraphsB() and getPairOfTestGraphsBxo() and &#160;&#160;getPairOfTestGr...">
<polygon fill="white" stroke="black" points="365,-436.5 365,-466.5 567,-466.5 567,-436.5 365,-436.5"/>
<text text-anchor="start" x="373" y="-454.5" font-family="Helvetica,sans-Serif" font-size="10.00">denoptim.ga.EAUtilsTest.test</text>
<text text-anchor="middle" x="466" y="-443.5" font-family="Helvetica,sans-Serif" font-size="10.00">BuildByXOver_Embedded_FreeBackwards</text>
</a>
</g>
</g>
<!-- Node2&#45;&gt;Node9 -->
<g id="edge8" class="edge">
<title>Node2&#45;&gt;Node9</title>
<path fill="none" stroke="midnightblue" d="M689.57,-321.88C666.49,-348.53 618.58,-399.24 567,-426.5 559.64,-430.39 551.66,-433.69 543.52,-436.49"/>
<polygon fill="midnightblue" stroke="midnightblue" points="692.35,-324.02 696.16,-314.14 687.02,-319.48 692.35,-324.02"/>
</g>
<!-- Node10 -->
<g id="node10" class="node">
<title>Node10</title>
<g id="a_node10"><a xlink:href="classdenoptim_1_1graph_1_1_d_graph_test.html#af7cca36ac677cae488ebd9a866061ba1" target="_top" xlink:title=" ">
<polygon fill="white" stroke="black" points="388,-387.5 388,-417.5 544,-417.5 544,-387.5 388,-387.5"/>
<text text-anchor="start" x="396" y="-405.5" font-family="Helvetica,sans-Serif" font-size="10.00">denoptim.graph.DGraphTest.test</text>
<text text-anchor="middle" x="466" y="-394.5" font-family="Helvetica,sans-Serif" font-size="10.00">SameAs_DiffRings</text>
</a>
</g>
</g>
<!-- Node2&#45;&gt;Node10 -->
<g id="edge9" class="edge">
<title>Node2&#45;&gt;Node10</title>
<path fill="none" stroke="midnightblue" d="M680.34,-319.42C653.68,-335.67 608.63,-361.49 567,-377.5 557.31,-381.23 546.88,-384.55 536.54,-387.46"/>
<polygon fill="midnightblue" stroke="midnightblue" points="682.29,-322.33 688.97,-314.1 678.62,-316.37 682.29,-322.33"/>
</g>
<!-- Node11 -->
<g id="node11" class="node">
<title>Node11</title>
<g id="a_node11"><a xlink:href="classdenoptim_1_1graph_1_1_d_graph_test.html#a64805f4f059b37a9be325ce5ac8374ce" target="_top" xlink:title=" ">
<polygon fill="white" stroke="black" points="388,-338.5 388,-368.5 544,-368.5 544,-338.5 388,-338.5"/>
<text text-anchor="start" x="396" y="-356.5" font-family="Helvetica,sans-Serif" font-size="10.00">denoptim.graph.DGraphTest.test</text>
<text text-anchor="middle" x="466" y="-345.5" font-family="Helvetica,sans-Serif" font-size="10.00">SameAs_DiffSymmSet</text>
</a>
</g>
</g>
<!-- Node2&#45;&gt;Node11 -->
<g id="edge10" class="edge">
<title>Node2&#45;&gt;Node11</title>
<path fill="none" stroke="midnightblue" d="M647.86,-316.11C615.57,-322.78 574.65,-331.24 539.9,-338.43"/>
<polygon fill="midnightblue" stroke="midnightblue" points="648.94,-319.46 658.02,-314.01 647.52,-312.6 648.94,-319.46"/>
</g>
<!-- Node12 -->
<g id="node12" class="node">
<title>Node12</title>
<g id="a_node12"><a xlink:href="classdenoptim_1_1graph_1_1_d_graph_test.html#a3a00bffb3f72683ef63569ed038fe8e1" target="_top" xlink:title=" ">
<polygon fill="white" stroke="black" points="388,-289.5 388,-319.5 544,-319.5 544,-289.5 388,-289.5"/>
<text text-anchor="start" x="396" y="-307.5" font-family="Helvetica,sans-Serif" font-size="10.00">denoptim.graph.DGraphTest.test</text>
<text text-anchor="middle" x="466" y="-296.5" font-family="Helvetica,sans-Serif" font-size="10.00">SameAs_DiffVertex</text>
</a>
</g>
</g>
<!-- Node2&#45;&gt;Node12 -->
<g id="edge11" class="edge">
<title>Node2&#45;&gt;Node12</title>
<path fill="none" stroke="midnightblue" d="M616.66,-304.5C592.9,-304.5 567.33,-304.5 544.17,-304.5"/>
<polygon fill="midnightblue" stroke="midnightblue" points="616.73,-308 626.73,-304.5 616.73,-301 616.73,-308"/>
</g>
<!-- Node13 -->
<g id="node13" class="node">
<title>Node13</title>
<g id="a_node13"><a xlink:href="classdenoptim_1_1graph_1_1_d_graph_test.html#a3c40acdcc664e0010478429cbb0bb7ac" target="_top" xlink:title=" ">
<polygon fill="white" stroke="black" points="388,-240.5 388,-270.5 544,-270.5 544,-240.5 388,-240.5"/>
<text text-anchor="start" x="396" y="-258.5" font-family="Helvetica,sans-Serif" font-size="10.00">denoptim.graph.DGraphTest.test</text>
<text text-anchor="middle" x="466" y="-247.5" font-family="Helvetica,sans-Serif" font-size="10.00">SameAs_DisorderRings</text>
</a>
</g>
</g>
<!-- Node2&#45;&gt;Node13 -->
<g id="edge12" class="edge">
<title>Node2&#45;&gt;Node13</title>
<path fill="none" stroke="midnightblue" d="M645.25,-293.02C631.39,-290.27 616.67,-287.31 603,-284.5 581.36,-280.05 557.82,-275.08 536.5,-270.52"/>
<polygon fill="midnightblue" stroke="midnightblue" points="644.68,-296.47 655.17,-294.98 646.04,-289.6 644.68,-296.47"/>
</g>
<!-- Node14 -->
<g id="node14" class="node">
<title>Node14</title>
<g id="a_node14"><a xlink:href="classdenoptim_1_1graph_1_1_d_graph_test.html#ae71f1b47a3b17f3589caf6534bff5982" target="_top" xlink:title=" ">
<polygon fill="white" stroke="black" points="388,-191.5 388,-221.5 544,-221.5 544,-191.5 388,-191.5"/>
<text text-anchor="start" x="396" y="-209.5" font-family="Helvetica,sans-Serif" font-size="10.00">denoptim.graph.DGraphTest.test</text>
<text text-anchor="middle" x="466" y="-198.5" font-family="Helvetica,sans-Serif" font-size="10.00">SameAs_Equal</text>
</a>
</g>
</g>
<!-- Node2&#45;&gt;Node14 -->
<g id="edge13" class="edge">
<title>Node2&#45;&gt;Node14</title>
<path fill="none" stroke="midnightblue" d="M617.57,-292.36C612.46,-290.14 607.55,-287.54 603,-284.5 579.02,-268.47 590.66,-247 567,-230.5 560.04,-225.65 552.23,-221.77 544.11,-218.67"/>
<polygon fill="midnightblue" stroke="midnightblue" points="616.38,-295.65 626.97,-295.96 618.88,-289.12 616.38,-295.65"/>
</g>
<!-- Node15 -->
<g id="node15" class="node">
<title>Node15</title>
<g id="a_node15"><a xlink:href="classdenoptim_1_1graph_1_1_d_graph_test.html#ac79cc6d29df4c3b5e6e96643912115f5" target="_top" xlink:title=" ">
<polygon fill="white" stroke="black" points="388,-142.5 388,-172.5 544,-172.5 544,-142.5 388,-142.5"/>
<text text-anchor="start" x="396" y="-160.5" font-family="Helvetica,sans-Serif" font-size="10.00">denoptim.graph.DGraphTest.test</text>
<text text-anchor="middle" x="466" y="-149.5" font-family="Helvetica,sans-Serif" font-size="10.00">SameAs_SameRings</text>
</a>
</g>
</g>
<!-- Node2&#45;&gt;Node15 -->
<g id="edge14" class="edge">
<title>Node2&#45;&gt;Node15</title>
<path fill="none" stroke="midnightblue" d="M617.35,-294.02C612.19,-291.41 607.34,-288.27 603,-284.5 566.38,-252.71 602.97,-214.02 567,-181.5 560.38,-175.51 552.53,-170.95 544.18,-167.48"/>
<polygon fill="midnightblue" stroke="midnightblue" points="616.36,-297.4 626.92,-298.16 619.13,-290.98 616.36,-297.4"/>
</g>
<!-- Node16 -->
<g id="node16" class="node">
<title>Node16</title>
<g id="a_node16"><a xlink:href="classdenoptim_1_1graph_1_1_d_graph_test.html#a2cb527dcac2a1f307d70dfda13965786" target="_top" xlink:title=" ">
<polygon fill="white" stroke="black" points="388,-93.5 388,-123.5 544,-123.5 544,-93.5 388,-93.5"/>
<text text-anchor="start" x="396" y="-111.5" font-family="Helvetica,sans-Serif" font-size="10.00">denoptim.graph.DGraphTest.test</text>
<text text-anchor="middle" x="466" y="-100.5" font-family="Helvetica,sans-Serif" font-size="10.00">SameAs_SameSymmSet</text>
</a>
</g>
</g>
<!-- Node2&#45;&gt;Node16 -->
<g id="edge15" class="edge">
<title>Node2&#45;&gt;Node16</title>
<path fill="none" stroke="midnightblue" d="M617.57,-294.89C612.26,-292.09 607.33,-288.67 603,-284.5 553.01,-236.33 616.02,-181.66 567,-132.5 560.57,-126.05 552.73,-121.22 544.31,-117.62"/>
<polygon fill="midnightblue" stroke="midnightblue" points="616.25,-298.13 626.81,-299.02 619.11,-291.74 616.25,-298.13"/>
</g>
<!-- Node17 -->
<g id="node17" class="node">
<title>Node17</title>
<g id="a_node17"><a xlink:href="classdenoptim_1_1io_1_1_denoptim_i_o_test.html#a716f5e1ae52b617c411ab57cb83ee78a" target="_top" xlink:title=" ">
<polygon fill="white" stroke="black" points="374,-44.5 374,-74.5 558,-74.5 558,-44.5 374,-44.5"/>
<text text-anchor="start" x="382" y="-62.5" font-family="Helvetica,sans-Serif" font-size="10.00">denoptim.io.DenoptimIOTest.test</text>
<text text-anchor="middle" x="466" y="-51.5" font-family="Helvetica,sans-Serif" font-size="10.00">SerializeDeserializeDENOPTIMGraphs</text>
</a>
</g>
</g>
<!-- Node2&#45;&gt;Node17 -->
<g id="edge16" class="edge">
<title>Node2&#45;&gt;Node17</title>
<path fill="none" stroke="midnightblue" d="M617.61,-295.32C612.25,-292.43 607.29,-288.87 603,-284.5 539.42,-219.74 629.28,-149.52 567,-83.5 563.81,-80.12 560.24,-77.18 556.4,-74.63"/>
<polygon fill="midnightblue" stroke="midnightblue" points="616.41,-298.62 626.97,-299.56 619.31,-292.25 616.41,-298.62"/>
</g>
<!-- Node4 -->
<g id="node4" class="node">
<title>Node4</title>
<g id="a_node4"><a xlink:href="classdenoptim_1_1ga_1_1_e_a_utils.html#af1c589b6d5ba261e1417f3cd299e8e5d" target="_top" xlink:title="Perform fitness&#45;based, class&#45;compatible selection of parents that can do crossover operations.">
<polygon fill="white" stroke="black" points="163,-584 163,-603 329,-603 329,-584 163,-584"/>
<text text-anchor="middle" x="246" y="-591" font-family="Helvetica,sans-Serif" font-size="10.00">denoptim.ga.EAUtils.performFBCC</text>
</a>
</g>
</g>
<!-- Node3&#45;&gt;Node4 -->
<g id="edge3" class="edge">
<title>Node3&#45;&gt;Node4</title>
<path fill="none" stroke="midnightblue" d="M389.21,-564.8C357.63,-571.17 321.95,-578.37 294.22,-583.97"/>
<polygon fill="midnightblue" stroke="midnightblue" points="390.19,-568.17 399.3,-562.76 388.8,-561.31 390.19,-568.17"/>
</g>
<!-- Node6 -->
<g id="node6" class="node">
<title>Node6</title>
<g id="a_node6"><a xlink:href="classdenoptim_1_1ga_1_1_population_test.html#a5db0672054a9fc1dbc923310732fdb3a" target="_top" xlink:title=" ">
<polygon fill="white" stroke="black" points="168.5,-534.5 168.5,-564.5 323.5,-564.5 323.5,-534.5 168.5,-534.5"/>
<text text-anchor="start" x="176.5" y="-552.5" font-family="Helvetica,sans-Serif" font-size="10.00">denoptim.ga.PopulationTest.test</text>
<text text-anchor="middle" x="246" y="-541.5" font-family="Helvetica,sans-Serif" font-size="10.00">Clone</text>
</a>
</g>
</g>
<!-- Node3&#45;&gt;Node6 -->
<g id="edge5" class="edge">
<title>Node3&#45;&gt;Node6</title>
<path fill="none" stroke="midnightblue" d="M389.07,-549.5C367.9,-549.5 344.89,-549.5 323.68,-549.5"/>
<polygon fill="midnightblue" stroke="midnightblue" points="389.3,-553 399.3,-549.5 389.3,-546 389.3,-553"/>
</g>
<!-- Node7 -->
<g id="node7" class="node">
<title>Node7</title>
<g id="a_node7"><a xlink:href="classdenoptim_1_1ga_1_1_population_test.html#a278212ebff2501b7071d342f9a027599" target="_top" xlink:title=" ">
<polygon fill="white" stroke="black" points="168.5,-485.5 168.5,-515.5 323.5,-515.5 323.5,-485.5 168.5,-485.5"/>
<text text-anchor="start" x="176.5" y="-503.5" font-family="Helvetica,sans-Serif" font-size="10.00">denoptim.ga.PopulationTest.test</text>
<text text-anchor="middle" x="246" y="-492.5" font-family="Helvetica,sans-Serif" font-size="10.00">XOverCompatibility</text>
</a>
</g>
</g>
<!-- Node3&#45;&gt;Node7 -->
<g id="edge6" class="edge">
<title>Node3&#45;&gt;Node7</title>
<path fill="none" stroke="midnightblue" d="M389.33,-532.49C364.85,-526.99 337.89,-520.93 314.08,-515.58"/>
<polygon fill="midnightblue" stroke="midnightblue" points="388.77,-535.95 399.3,-534.73 390.31,-529.12 388.77,-535.95"/>
</g>
<!-- Node5 -->
<g id="node5" class="node">
<title>Node5</title>
<g id="a_node5"><a xlink:href="classdenoptim_1_1ga_1_1_e_a_utils.html#a98553265dd4b441b11c6d97d098edb08" target="_top" xlink:title="Generates a new offspring by performing a crossover operation.">
<polygon fill="white" stroke="black" points="0,-578.5 0,-608.5 127,-608.5 127,-578.5 0,-578.5"/>
<text text-anchor="start" x="8" y="-596.5" font-family="Helvetica,sans-Serif" font-size="10.00">denoptim.ga.EAUtils.build</text>
<text text-anchor="middle" x="63.5" y="-585.5" font-family="Helvetica,sans-Serif" font-size="10.00">CandidateByXOver</text>
</a>
</g>
</g>
<!-- Node4&#45;&gt;Node5 -->
<g id="edge4" class="edge">
<title>Node4&#45;&gt;Node5</title>
<path fill="none" stroke="midnightblue" d="M152.77,-593.5C144.11,-593.5 135.47,-593.5 127.17,-593.5"/>
<polygon fill="midnightblue" stroke="midnightblue" points="152.94,-597 162.94,-593.5 152.94,-590 152.94,-597"/>
</g>
</g>
</svg>
