<?xml version="1.0" encoding="UTF-8" standalone="no"?>
<!DOCTYPE svg PUBLIC "-//W3C//DTD SVG 1.1//EN"
 "http://www.w3.org/Graphics/SVG/1.1/DTD/svg11.dtd">
<!-- Generated by graphviz version 3.0.0 (20220413.0242)
 -->
<!-- Title: denoptim.fragspace.FragmentSpace.getRCCompatibilityMatrix Pages: 1 -->
<svg width="1929pt" height="186pt"
 viewBox="0.00 0.00 1929.00 186.00" xmlns="http://www.w3.org/2000/svg" xmlns:xlink="http://www.w3.org/1999/xlink">
<g id="graph0" class="graph" transform="scale(1 1) rotate(0) translate(4 182)">
<title>denoptim.fragspace.FragmentSpace.getRCCompatibilityMatrix</title>
<polygon fill="white" stroke="transparent" points="-4,4 -4,-182 1925,-182 1925,4 -4,4"/>
<!-- Node1 -->
<g id="node1" class="node">
<title>Node1</title>
<g id="a_node1"><a xlink:title="Returns the compatibility matrix for ring closing fragment&#45;fragment connections or null if not provid...">
<polygon fill="#bfbfbf" stroke="black" points="1766,-61.5 1766,-91.5 1921,-91.5 1921,-61.5 1766,-61.5"/>
<text text-anchor="start" x="1774" y="-79.5" font-family="Helvetica,sans-Serif" font-size="10.00">denoptim.fragspace.Fragment</text>
<text text-anchor="middle" x="1843.5" y="-68.5" font-family="Helvetica,sans-Serif" font-size="10.00">Space.getRCCompatibilityMatrix</text>
</a>
</g>
</g>
<!-- Node2 -->
<g id="node2" class="node">
<title>Node2</title>
<g id="a_node2"><a xlink:href="classdenoptim_1_1graph_1_1rings_1_1_cyclic_graph_handler.html#a8dcec9483dc562e8696ea90a65842327" target="_top" xlink:title="Method to analyze a pair of vertices and evaluate whether they respect the criteria for being the two...">
<polygon fill="white" stroke="black" points="1577,-61.5 1577,-91.5 1730,-91.5 1730,-61.5 1577,-61.5"/>
<text text-anchor="start" x="1585" y="-79.5" font-family="Helvetica,sans-Serif" font-size="10.00">denoptim.graph.rings.Cyclic</text>
<text text-anchor="middle" x="1653.5" y="-68.5" font-family="Helvetica,sans-Serif" font-size="10.00">GraphHandler.evaluateRCVPair</text>
</a>
</g>
</g>
<!-- Node1&#45;&gt;Node2 -->
<g id="edge1" class="edge">
<title>Node1&#45;&gt;Node2</title>
<path fill="none" stroke="midnightblue" d="M1755.75,-76.5C1747.18,-76.5 1738.53,-76.5 1730.08,-76.5"/>
<polygon fill="midnightblue" stroke="midnightblue" points="1755.76,-80 1765.76,-76.5 1755.76,-73 1755.76,-80"/>
</g>
<!-- Node3 -->
<g id="node3" class="node">
<title>Node3</title>
<g id="a_node3"><a xlink:href="classdenoptim_1_1graph_1_1rings_1_1_cyclic_graph_handler_1_1_ring_size_manager.html#a68b1aa5cd1df8bb959064588e994b74e" target="_top" xlink:title=" ">
<polygon fill="white" stroke="black" points="1345,-56 1345,-97 1541,-97 1541,-56 1345,-56"/>
<text text-anchor="start" x="1353" y="-85" font-family="Helvetica,sans-Serif" font-size="10.00">denoptim.graph.rings.Cyclic</text>
<text text-anchor="start" x="1353" y="-74" font-family="Helvetica,sans-Serif" font-size="10.00">GraphHandler.RingSizeManager.calculate</text>
<text text-anchor="middle" x="1443" y="-63" font-family="Helvetica,sans-Serif" font-size="10.00">CompatibilityOfAllRCAPairs</text>
</a>
</g>
</g>
<!-- Node2&#45;&gt;Node3 -->
<g id="edge2" class="edge">
<title>Node2&#45;&gt;Node3</title>
<path fill="none" stroke="midnightblue" d="M1566.71,-76.5C1558.25,-76.5 1549.62,-76.5 1541.06,-76.5"/>
<polygon fill="midnightblue" stroke="midnightblue" points="1566.93,-80 1576.93,-76.5 1566.93,-73 1566.93,-80"/>
</g>
<!-- Node4 -->
<g id="node4" class="node">
<title>Node4</title>
<g id="a_node4"><a xlink:href="classdenoptim_1_1graph_1_1rings_1_1_cyclic_graph_handler_1_1_ring_size_manager.html#a0fc0f3889f18d330fc50f28a4264ca21" target="_top" xlink:title=" ">
<polygon fill="white" stroke="black" points="1127,-83 1127,-124 1300,-124 1300,-83 1127,-83"/>
<text text-anchor="start" x="1135" y="-112" font-family="Helvetica,sans-Serif" font-size="10.00">denoptim.graph.rings.Cyclic</text>
<text text-anchor="start" x="1135" y="-101" font-family="Helvetica,sans-Serif" font-size="10.00">GraphHandler.RingSizeManager.add</text>
<text text-anchor="middle" x="1213.5" y="-90" font-family="Helvetica,sans-Serif" font-size="10.00">RingClosingBond</text>
</a>
</g>
</g>
<!-- Node3&#45;&gt;Node4 -->
<g id="edge3" class="edge">
<title>Node3&#45;&gt;Node4</title>
<path fill="none" stroke="midnightblue" d="M1334.72,-89.23C1323.13,-90.61 1311.46,-91.99 1300.18,-93.33"/>
<polygon fill="midnightblue" stroke="midnightblue" points="1335.34,-92.68 1344.86,-88.03 1334.52,-85.73 1335.34,-92.68"/>
</g>
<!-- Node15 -->
<g id="node15" class="node">
<title>Node15</title>
<g id="a_node15"><a xlink:href="classdenoptim_1_1graph_1_1rings_1_1_cyclic_graph_handler_1_1_ring_size_manager.html#a9b1b85afae57c94c9059527bd796259c" target="_top" xlink:title=" ">
<polygon fill="white" stroke="black" points="1118,-34.5 1118,-64.5 1309,-64.5 1309,-34.5 1118,-34.5"/>
<text text-anchor="start" x="1126" y="-52.5" font-family="Helvetica,sans-Serif" font-size="10.00">denoptim.graph.rings.Cyclic</text>
<text text-anchor="middle" x="1213.5" y="-41.5" font-family="Helvetica,sans-Serif" font-size="10.00">GraphHandler.RingSizeManager.initialize</text>
</a>
</g>
</g>
<!-- Node3&#45;&gt;Node15 -->
<g id="edge16" class="edge">
<title>Node3&#45;&gt;Node15</title>
<path fill="none" stroke="midnightblue" d="M1334.83,-63.78C1326.25,-62.76 1317.63,-61.74 1309.15,-60.73"/>
<polygon fill="midnightblue" stroke="midnightblue" points="1334.52,-67.27 1344.86,-64.97 1335.34,-60.32 1334.52,-67.27"/>
</g>
<!-- Node5 -->
<g id="node5" class="node">
<title>Node5</title>
<g id="a_node5"><a xlink:href="classdenoptim_1_1graph_1_1rings_1_1_cyclic_graph_handler.html#a08b02946eaac7c2cbbe6e71332d702e6" target="_top" xlink:title="Identifies a random combination of ring closing paths and returns it as list of DENOPTIMRings ready t...">
<polygon fill="white" stroke="black" points="899,-83 899,-124 1081,-124 1081,-83 899,-83"/>
<text text-anchor="start" x="907" y="-112" font-family="Helvetica,sans-Serif" font-size="10.00">denoptim.graph.rings.Cyclic</text>
<text text-anchor="start" x="907" y="-101" font-family="Helvetica,sans-Serif" font-size="10.00">GraphHandler.getRandomCombination</text>
<text text-anchor="middle" x="990" y="-90" font-family="Helvetica,sans-Serif" font-size="10.00">OfRings</text>
</a>
</g>
</g>
<!-- Node4&#45;&gt;Node5 -->
<g id="edge4" class="edge">
<title>Node4&#45;&gt;Node5</title>
<path fill="none" stroke="midnightblue" d="M1116.6,-103.5C1104.84,-103.5 1092.85,-103.5 1081.18,-103.5"/>
<polygon fill="midnightblue" stroke="midnightblue" points="1116.86,-107 1126.86,-103.5 1116.86,-100 1116.86,-107"/>
</g>
<!-- Node6 -->
<g id="node6" class="node">
<title>Node6</title>
<g id="a_node6"><a xlink:href="classdenoptim_1_1ga_1_1_e_a_utils.html#a1ddb932d4618434d435e4f85ce5e5eb5" target="_top" xlink:title="Evaluates the possibility of closing rings in a given graph and if any ring can be closed,...">
<polygon fill="white" stroke="black" points="719,-88.5 719,-118.5 850,-118.5 850,-88.5 719,-88.5"/>
<text text-anchor="start" x="727" y="-106.5" font-family="Helvetica,sans-Serif" font-size="10.00">denoptim.ga.EAUtils.setup</text>
<text text-anchor="middle" x="784.5" y="-95.5" font-family="Helvetica,sans-Serif" font-size="10.00">Rings</text>
</a>
</g>
</g>
<!-- Node5&#45;&gt;Node6 -->
<g id="edge5" class="edge">
<title>Node5&#45;&gt;Node6</title>
<path fill="none" stroke="midnightblue" d="M888.84,-103.5C875.72,-103.5 862.56,-103.5 850.24,-103.5"/>
<polygon fill="midnightblue" stroke="midnightblue" points="888.85,-107 898.85,-103.5 888.85,-100 888.85,-107"/>
</g>
<!-- Node7 -->
<g id="node7" class="node">
<title>Node7</title>
<g id="a_node7"><a xlink:href="classdenoptim_1_1ga_1_1_e_a_utils.html#a5cb6bbe9f383bf821f3b1f1c5e60031b" target="_top" xlink:title=" ">
<polygon fill="white" stroke="black" points="535,-147.5 535,-177.5 662,-177.5 662,-147.5 535,-147.5"/>
<text text-anchor="start" x="543" y="-165.5" font-family="Helvetica,sans-Serif" font-size="10.00">denoptim.ga.EAUtils.build</text>
<text text-anchor="middle" x="598.5" y="-154.5" font-family="Helvetica,sans-Serif" font-size="10.00">CandidateByMutation</text>
</a>
</g>
</g>
<!-- Node6&#45;&gt;Node7 -->
<g id="edge6" class="edge">
<title>Node6&#45;&gt;Node7</title>
<path fill="none" stroke="midnightblue" d="M726.93,-121.64C701.09,-129.92 670.86,-139.62 646.32,-147.49"/>
<polygon fill="midnightblue" stroke="midnightblue" points="728.14,-124.93 736.59,-118.54 726,-118.26 728.14,-124.93"/>
</g>
<!-- Node12 -->
<g id="node12" class="node">
<title>Node12</title>
<g id="a_node12"><a xlink:href="classdenoptim_1_1ga_1_1_e_a_utils.html#a98553265dd4b441b11c6d97d098edb08" target="_top" xlink:title="Generates a new offspring by performing a crossover operation.">
<polygon fill="white" stroke="black" points="535,-98.5 535,-128.5 662,-128.5 662,-98.5 535,-98.5"/>
<text text-anchor="start" x="543" y="-116.5" font-family="Helvetica,sans-Serif" font-size="10.00">denoptim.ga.EAUtils.build</text>
<text text-anchor="middle" x="598.5" y="-105.5" font-family="Helvetica,sans-Serif" font-size="10.00">CandidateByXOver</text>
</a>
</g>
</g>
<!-- Node6&#45;&gt;Node12 -->
<g id="edge11" class="edge">
<title>Node6&#45;&gt;Node12</title>
<path fill="none" stroke="midnightblue" d="M708.81,-107.56C693.31,-108.4 677.12,-109.28 662.1,-110.1"/>
<polygon fill="midnightblue" stroke="midnightblue" points="709.09,-111.05 718.89,-107.01 708.71,-104.06 709.09,-111.05"/>
</g>
<!-- Node13 -->
<g id="node13" class="node">
<title>Node13</title>
<g id="a_node13"><a xlink:href="classdenoptim_1_1ga_1_1_e_a_utils.html#ad3d2daeb11e68a356e971ca1846596b5" target="_top" xlink:title=" ">
<polygon fill="white" stroke="black" points="535,-49.5 535,-79.5 662,-79.5 662,-49.5 535,-49.5"/>
<text text-anchor="start" x="543" y="-67.5" font-family="Helvetica,sans-Serif" font-size="10.00">denoptim.ga.EAUtils.build</text>
<text text-anchor="middle" x="598.5" y="-56.5" font-family="Helvetica,sans-Serif" font-size="10.00">CandidateFromScratch</text>
</a>
</g>
</g>
<!-- Node6&#45;&gt;Node13 -->
<g id="edge12" class="edge">
<title>Node6&#45;&gt;Node13</title>
<path fill="none" stroke="midnightblue" d="M708.81,-87.67C693.31,-84.38 677.12,-80.95 662.1,-77.77"/>
<polygon fill="midnightblue" stroke="midnightblue" points="708.38,-91.16 718.89,-89.8 709.83,-84.31 708.38,-91.16"/>
</g>
<!-- Node8 -->
<g id="node8" class="node">
<title>Node8</title>
<g id="a_node8"><a xlink:href="classdenoptim_1_1ga_1_1_evolutionary_algorithm.html#a596b2f5f0b097c5b67a6e5163bd6fe66" target="_top" xlink:title="Generates a given number of new candidate items and adds them to the current population.">
<polygon fill="white" stroke="black" points="353,-98.5 353,-128.5 487,-128.5 487,-98.5 353,-98.5"/>
<text text-anchor="start" x="361" y="-116.5" font-family="Helvetica,sans-Serif" font-size="10.00">denoptim.ga.Evolutionary</text>
<text text-anchor="middle" x="420" y="-105.5" font-family="Helvetica,sans-Serif" font-size="10.00">Algorithm.evolvePopulation</text>
</a>
</g>
</g>
<!-- Node7&#45;&gt;Node8 -->
<g id="edge7" class="edge">
<title>Node7&#45;&gt;Node8</title>
<path fill="none" stroke="midnightblue" d="M533.31,-144.68C514.25,-139.39 493.57,-133.65 475.22,-128.55"/>
<polygon fill="midnightblue" stroke="midnightblue" points="532.53,-148.1 543.1,-147.4 534.4,-141.35 532.53,-148.1"/>
</g>
<!-- Node9 -->
<g id="node9" class="node">
<title>Node9</title>
<g id="a_node9"><a xlink:href="classdenoptim_1_1ga_1_1_evolutionary_algorithm.html#a6bfc2fa59b199da6259b5b6bad3d6de7" target="_top" xlink:title=" ">
<polygon fill="white" stroke="black" points="190,-73.5 190,-103.5 314,-103.5 314,-73.5 190,-73.5"/>
<text text-anchor="start" x="198" y="-91.5" font-family="Helvetica,sans-Serif" font-size="10.00">denoptim.ga.Evolutionary</text>
<text text-anchor="middle" x="252" y="-80.5" font-family="Helvetica,sans-Serif" font-size="10.00">Algorithm.run</text>
</a>
</g>
</g>
<!-- Node8&#45;&gt;Node9 -->
<g id="edge8" class="edge">
<title>Node8&#45;&gt;Node9</title>
<path fill="none" stroke="midnightblue" d="M342.9,-102.04C333.21,-100.58 323.41,-99.1 314.01,-97.69"/>
<polygon fill="midnightblue" stroke="midnightblue" points="342.51,-105.52 352.92,-103.55 343.55,-98.6 342.51,-105.52"/>
</g>
<!-- Node10 -->
<g id="node10" class="node">
<title>Node10</title>
<g id="a_node10"><a xlink:href="classdenoptim_1_1ga_1_1_evolutionary_algorithm.html#a0f2063b722b7291daf83d62acaa683d3" target="_top" xlink:title=" ">
<polygon fill="white" stroke="black" points="0,-98.5 0,-128.5 154,-128.5 154,-98.5 0,-98.5"/>
<text text-anchor="start" x="8" y="-116.5" font-family="Helvetica,sans-Serif" font-size="10.00">denoptim.ga.Evolutionary</text>
<text text-anchor="middle" x="77" y="-105.5" font-family="Helvetica,sans-Serif" font-size="10.00">Algorithm.EvolutionaryAlgorithm</text>
</a>
</g>
</g>
<!-- Node9&#45;&gt;Node10 -->
<g id="edge9" class="edge">
<title>Node9&#45;&gt;Node10</title>
<path fill="none" stroke="midnightblue" d="M179.44,-98.84C171.09,-100.05 162.54,-101.28 154.12,-102.5"/>
<polygon fill="midnightblue" stroke="midnightblue" points="180.12,-102.28 189.52,-97.38 179.12,-95.35 180.12,-102.28"/>
</g>
<!-- Node11 -->
<g id="node11" class="node">
<title>Node11</title>
<g id="a_node11"><a xlink:href="classdenoptim_1_1programs_1_1denovo_1_1_g_a_runner.html#a7cafd6d78727b89dce3e2c8d06f0dd7c" target="_top" xlink:title=" ">
<polygon fill="white" stroke="black" points="9.5,-49.5 9.5,-79.5 144.5,-79.5 144.5,-49.5 9.5,-49.5"/>
<text text-anchor="start" x="17.5" y="-67.5" font-family="Helvetica,sans-Serif" font-size="10.00">denoptim.programs.denovo.</text>
<text text-anchor="middle" x="77" y="-56.5" font-family="Helvetica,sans-Serif" font-size="10.00">GARunner.runProgram</text>
</a>
</g>
</g>
<!-- Node9&#45;&gt;Node11 -->
<g id="edge10" class="edge">
<title>Node9&#45;&gt;Node11</title>
<path fill="none" stroke="midnightblue" d="M179.48,-78.58C167.92,-76.97 156,-75.32 144.57,-73.73"/>
<polygon fill="midnightblue" stroke="midnightblue" points="179.13,-82.06 189.52,-79.97 180.1,-75.13 179.13,-82.06"/>
</g>
<!-- Node13&#45;&gt;Node8 -->
<g id="edge13" class="edge">
<title>Node13&#45;&gt;Node8</title>
<path fill="none" stroke="midnightblue" d="M533.31,-82.32C514.25,-87.61 493.57,-93.35 475.22,-98.45"/>
<polygon fill="midnightblue" stroke="midnightblue" points="534.4,-85.65 543.1,-79.6 532.53,-78.9 534.4,-85.65"/>
</g>
<!-- Node14 -->
<g id="node14" class="node">
<title>Node14</title>
<g id="a_node14"><a xlink:href="classdenoptim_1_1ga_1_1_evolutionary_algorithm.html#ad43588620dab3340e0d8b0042ec73618" target="_top" xlink:title="Fills up the population with candidates build from scratch.">
<polygon fill="white" stroke="black" points="350,-49.5 350,-79.5 490,-79.5 490,-49.5 350,-49.5"/>
<text text-anchor="start" x="358" y="-67.5" font-family="Helvetica,sans-Serif" font-size="10.00">denoptim.ga.Evolutionary</text>
<text text-anchor="middle" x="420" y="-56.5" font-family="Helvetica,sans-Serif" font-size="10.00">Algorithm.initializePopulation</text>
</a>
</g>
</g>
<!-- Node13&#45;&gt;Node14 -->
<g id="edge14" class="edge">
<title>Node13&#45;&gt;Node14</title>
<path fill="none" stroke="midnightblue" d="M524.46,-64.5C513.1,-64.5 501.39,-64.5 490.12,-64.5"/>
<polygon fill="midnightblue" stroke="midnightblue" points="524.78,-68 534.78,-64.5 524.78,-61 524.78,-68"/>
</g>
<!-- Node14&#45;&gt;Node9 -->
<g id="edge15" class="edge">
<title>Node14&#45;&gt;Node9</title>
<path fill="none" stroke="midnightblue" d="M339.6,-75.98C331.08,-77.21 322.5,-78.45 314.24,-79.65"/>
<polygon fill="midnightblue" stroke="midnightblue" points="340.17,-79.43 349.56,-74.54 339.16,-72.51 340.17,-79.43"/>
</g>
<!-- Node15&#45;&gt;Node5 -->
<g id="edge21" class="edge">
<title>Node15&#45;&gt;Node5</title>
<path fill="none" stroke="midnightblue" d="M1141,-66.93C1120,-72.05 1096.84,-77.7 1075.13,-82.99"/>
<polygon fill="midnightblue" stroke="midnightblue" points="1141.91,-70.31 1150.8,-64.54 1140.26,-63.51 1141.91,-70.31"/>
</g>
<!-- Node16 -->
<g id="node16" class="node">
<title>Node16</title>
<g id="a_node16"><a xlink:href="classdenoptim_1_1graph_1_1rings_1_1_cyclic_graph_handler.html#a3ce96322723f45d9285a248ebcef94d3" target="_top" xlink:title="Identifies all possible ring closing paths and returns them as list of DENOPTIMRings ready to be appe...">
<polygon fill="white" stroke="black" points="898,-23 898,-64 1082,-64 1082,-23 898,-23"/>
<text text-anchor="start" x="906" y="-52" font-family="Helvetica,sans-Serif" font-size="10.00">denoptim.graph.rings.Cyclic</text>
<text text-anchor="start" x="906" y="-41" font-family="Helvetica,sans-Serif" font-size="10.00">GraphHandler.getPossibleCombination</text>
<text text-anchor="middle" x="990" y="-30" font-family="Helvetica,sans-Serif" font-size="10.00">OfRings</text>
</a>
</g>
</g>
<!-- Node15&#45;&gt;Node16 -->
<g id="edge17" class="edge">
<title>Node15&#45;&gt;Node16</title>
<path fill="none" stroke="midnightblue" d="M1107.85,-46.67C1099.25,-46.43 1090.59,-46.2 1082.1,-45.97"/>
<polygon fill="midnightblue" stroke="midnightblue" points="1107.83,-50.17 1117.92,-46.94 1108.02,-43.17 1107.83,-50.17"/>
</g>
<!-- Node16&#45;&gt;Node6 -->
<g id="edge20" class="edge">
<title>Node16&#45;&gt;Node6</title>
<path fill="none" stroke="midnightblue" d="M909.58,-66.92C885.02,-74.16 858.63,-81.94 836.53,-88.46"/>
<polygon fill="midnightblue" stroke="midnightblue" points="910.65,-70.25 919.25,-64.06 908.67,-63.54 910.65,-70.25"/>
</g>
<!-- Node17 -->
<g id="node17" class="node">
<title>Node17</title>
<g id="a_node17"><a xlink:href="classdenoptim_1_1graph_1_1_d_graph.html#a7a4743d014e860237f4b20703ef9779b" target="_top" xlink:title="Evaluates the possibility of closing rings in this graph and generates all alternative graphs resulti...">
<polygon fill="white" stroke="black" points="707,-9.5 707,-39.5 862,-39.5 862,-9.5 707,-9.5"/>
<text text-anchor="start" x="715" y="-27.5" font-family="Helvetica,sans-Serif" font-size="10.00">denoptim.graph.DGraph.make</text>
<text text-anchor="middle" x="784.5" y="-16.5" font-family="Helvetica,sans-Serif" font-size="10.00">AllGraphsWithDifferentRingSets</text>
</a>
</g>
</g>
<!-- Node16&#45;&gt;Node17 -->
<g id="edge18" class="edge">
<title>Node16&#45;&gt;Node17</title>
<path fill="none" stroke="midnightblue" d="M887.84,-34.06C879.2,-33.25 870.56,-32.44 862.16,-31.66"/>
<polygon fill="midnightblue" stroke="midnightblue" points="887.68,-37.56 897.96,-35 888.33,-30.59 887.68,-37.56"/>
</g>
<!-- Node18 -->
<g id="node18" class="node">
<title>Node18</title>
<g id="a_node18"><a xlink:href="classdenoptim_1_1combinatorial_1_1_graph_building_task.html#a3eaee724fc921194fa158714aafe182d" target="_top" xlink:title="Calls the task.">
<polygon fill="white" stroke="black" points="526,-0.5 526,-30.5 671,-30.5 671,-0.5 526,-0.5"/>
<text text-anchor="start" x="534" y="-18.5" font-family="Helvetica,sans-Serif" font-size="10.00">denoptim.combinatorial.Graph</text>
<text text-anchor="middle" x="598.5" y="-7.5" font-family="Helvetica,sans-Serif" font-size="10.00">BuildingTask.call</text>
</a>
</g>
</g>
<!-- Node17&#45;&gt;Node18 -->
<g id="edge19" class="edge">
<title>Node17&#45;&gt;Node18</title>
<path fill="none" stroke="midnightblue" d="M696.75,-20.26C688.15,-19.84 679.49,-19.41 671.07,-19"/>
<polygon fill="midnightblue" stroke="midnightblue" points="696.64,-23.76 706.8,-20.75 696.98,-16.76 696.64,-23.76"/>
</g>
</g>
</svg>
