<?xml version="1.0" encoding="UTF-8" standalone="no"?>
<!DOCTYPE svg PUBLIC "-//W3C//DTD SVG 1.1//EN"
 "http://www.w3.org/Graphics/SVG/1.1/DTD/svg11.dtd">
<!-- Generated by graphviz version 3.0.0 (20220413.0242)
 -->
<!-- Title: denoptim.programs.RunTimeParameters.readYesNoTrueFalse Pages: 1 -->
<svg width="573pt" height="290pt"
 viewBox="0.00 0.00 573.00 290.00" xmlns="http://www.w3.org/2000/svg" xmlns:xlink="http://www.w3.org/1999/xlink">
<g id="graph0" class="graph" transform="scale(1 1) rotate(0) translate(4 286)">
<title>denoptim.programs.RunTimeParameters.readYesNoTrueFalse</title>
<polygon fill="white" stroke="transparent" points="-4,4 -4,-286 569,-286 569,4 -4,4"/>
<!-- Node1 -->
<g id="node1" class="node">
<title>Node1</title>
<g id="a_node1"><a xlink:title="Reads a string searching for any common way to say either yes/true (including shorthand t/y) or no/fa...">
<polygon fill="#bfbfbf" stroke="black" points="404,-156 404,-186 565,-186 565,-156 404,-156"/>
<text text-anchor="start" x="412" y="-174" font-family="Helvetica,sans-Serif" font-size="10.00">denoptim.programs.RunTime</text>
<text text-anchor="middle" x="484.5" y="-163" font-family="Helvetica,sans-Serif" font-size="10.00">Parameters.readYesNoTrueFalse</text>
</a>
</g>
</g>
<!-- Node2 -->
<g id="node2" class="node">
<title>Node2</title>
<g id="a_node2"><a xlink:href="classdenoptim_1_1gui_1_1_fitness_parameters_form.html#a7733fc4b4f35b5c59ea9212f328b9c40" target="_top" xlink:title=" ">
<polygon fill="white" stroke="black" points="212,-205 212,-235 368,-235 368,-205 212,-205"/>
<text text-anchor="start" x="220" y="-223" font-family="Helvetica,sans-Serif" font-size="10.00">denoptim.gui.FitnessParameters</text>
<text text-anchor="middle" x="290" y="-212" font-family="Helvetica,sans-Serif" font-size="10.00">Form.importSingleParameter</text>
</a>
</g>
</g>
<!-- Node1&#45;&gt;Node2 -->
<g id="edge1" class="edge">
<title>Node1&#45;&gt;Node2</title>
<path fill="none" stroke="midnightblue" d="M414.55,-188.55C393.42,-193.93 370.36,-199.8 349.95,-204.99"/>
<polygon fill="midnightblue" stroke="midnightblue" points="415.61,-191.89 424.44,-186.03 413.88,-185.11 415.61,-191.89"/>
</g>
<!-- Node3 -->
<g id="node3" class="node">
<title>Node3</title>
<g id="a_node3"><a xlink:href="classdenoptim_1_1fitness_1_1_fitness_parameters.html#ad950662f851c42ff6638e104d54fb2d4" target="_top" xlink:title="Processes a keyword/value pair and assign the related parameters.">
<polygon fill="white" stroke="black" points="219,-156 219,-186 361,-186 361,-156 219,-156"/>
<text text-anchor="start" x="227" y="-174" font-family="Helvetica,sans-Serif" font-size="10.00">denoptim.fitness.Fitness</text>
<text text-anchor="middle" x="290" y="-163" font-family="Helvetica,sans-Serif" font-size="10.00">Parameters.interpretKeyword</text>
</a>
</g>
</g>
<!-- Node1&#45;&gt;Node3 -->
<g id="edge2" class="edge">
<title>Node1&#45;&gt;Node3</title>
<path fill="none" stroke="midnightblue" d="M393.78,-171C382.81,-171 371.73,-171 361.1,-171"/>
<polygon fill="midnightblue" stroke="midnightblue" points="393.81,-174.5 403.81,-171 393.81,-167.5 393.81,-174.5"/>
</g>
<!-- Node7 -->
<g id="node7" class="node">
<title>Node7</title>
<g id="a_node7"><a xlink:href="classdenoptim_1_1programs_1_1denovo_1_1_g_a_parameters.html#a151bc101f1480bfd9f0df329e31e3990" target="_top" xlink:title="Processes a keyword/value pair and assign the related parameters.">
<polygon fill="white" stroke="black" points="212,-66 212,-96 368,-96 368,-66 212,-66"/>
<text text-anchor="start" x="220" y="-84" font-family="Helvetica,sans-Serif" font-size="10.00">denoptim.programs.denovo.</text>
<text text-anchor="middle" x="290" y="-73" font-family="Helvetica,sans-Serif" font-size="10.00">GAParameters.interpretKeyword</text>
</a>
</g>
</g>
<!-- Node1&#45;&gt;Node7 -->
<g id="edge6" class="edge">
<title>Node1&#45;&gt;Node7</title>
<path fill="none" stroke="midnightblue" d="M442.13,-151.66C406.56,-135.03 355.98,-111.38 323.33,-96.11"/>
<polygon fill="midnightblue" stroke="midnightblue" points="440.74,-154.87 451.28,-155.94 443.7,-148.53 440.74,-154.87"/>
</g>
<!-- Node4 -->
<g id="node4" class="node">
<title>Node4</title>
<g id="a_node4"><a xlink:href="classdenoptim_1_1fitness_1_1_fitness_provider_test.html#a2272dbcf72c993b4544719ddf64c98b6" target="_top" xlink:title=" ">
<polygon fill="white" stroke="black" points="15,-240.5 15,-281.5 161,-281.5 161,-240.5 15,-240.5"/>
<text text-anchor="start" x="23" y="-269.5" font-family="Helvetica,sans-Serif" font-size="10.00">denoptim.fitness.Fitness</text>
<text text-anchor="start" x="23" y="-258.5" font-family="Helvetica,sans-Serif" font-size="10.00">ProviderTest.testGetConstant</text>
<text text-anchor="middle" x="88" y="-247.5" font-family="Helvetica,sans-Serif" font-size="10.00">Fitness</text>
</a>
</g>
</g>
<!-- Node3&#45;&gt;Node4 -->
<g id="edge3" class="edge">
<title>Node3&#45;&gt;Node4</title>
<path fill="none" stroke="midnightblue" d="M222.75,-190.25C219.04,-192.02 215.42,-193.94 212,-196 192.89,-207.52 195,-219.3 176,-231 170.42,-234.43 164.4,-237.54 158.22,-240.33"/>
<polygon fill="midnightblue" stroke="midnightblue" points="224.4,-193.35 232.16,-186.13 221.6,-186.94 224.4,-193.35"/>
</g>
<!-- Node5 -->
<g id="node5" class="node">
<title>Node5</title>
<g id="a_node5"><a xlink:href="classdenoptim_1_1fitness_1_1_fitness_provider_test.html#ac3684e1e2969ee1c883ab279d4d5c048" target="_top" xlink:title="This test is reproducing most of what done in FitnessParametersTest#testProcessExpressions() so if bo...">
<polygon fill="white" stroke="black" points="9,-180.5 9,-221.5 167,-221.5 167,-180.5 9,-180.5"/>
<text text-anchor="start" x="17" y="-209.5" font-family="Helvetica,sans-Serif" font-size="10.00">denoptim.fitness.Fitness</text>
<text text-anchor="start" x="17" y="-198.5" font-family="Helvetica,sans-Serif" font-size="10.00">ProviderTest.testGetFitnessWith</text>
<text text-anchor="middle" x="88" y="-187.5" font-family="Helvetica,sans-Serif" font-size="10.00">ParametrizedDescriptors</text>
</a>
</g>
</g>
<!-- Node3&#45;&gt;Node5 -->
<g id="edge4" class="edge">
<title>Node3&#45;&gt;Node5</title>
<path fill="none" stroke="midnightblue" d="M208.49,-183.08C194.89,-185.12 180.79,-187.23 167.25,-189.26"/>
<polygon fill="midnightblue" stroke="midnightblue" points="209.4,-186.48 218.77,-181.53 208.36,-179.56 209.4,-186.48"/>
</g>
<!-- Node6 -->
<g id="node6" class="node">
<title>Node6</title>
<g id="a_node6"><a xlink:href="classdenoptim_1_1fitness_1_1_fitness_expression_parser_test.html#ad8c3056173f2ab17ebb7c12133ea03a8" target="_top" xlink:title=" ">
<polygon fill="white" stroke="black" points="4.5,-120.5 4.5,-161.5 171.5,-161.5 171.5,-120.5 4.5,-120.5"/>
<text text-anchor="start" x="12.5" y="-149.5" font-family="Helvetica,sans-Serif" font-size="10.00">denoptim.fitness.Fitness</text>
<text text-anchor="start" x="12.5" y="-138.5" font-family="Helvetica,sans-Serif" font-size="10.00">ExpressionParserTest.testProcess</text>
<text text-anchor="middle" x="88" y="-127.5" font-family="Helvetica,sans-Serif" font-size="10.00">Expressions</text>
</a>
</g>
</g>
<!-- Node3&#45;&gt;Node6 -->
<g id="edge5" class="edge">
<title>Node3&#45;&gt;Node6</title>
<path fill="none" stroke="midnightblue" d="M208.67,-158.95C196.51,-157.13 183.95,-155.24 171.75,-153.41"/>
<polygon fill="midnightblue" stroke="midnightblue" points="208.36,-162.44 218.77,-160.47 209.4,-155.52 208.36,-162.44"/>
</g>
<!-- Node8 -->
<g id="node8" class="node">
<title>Node8</title>
<g id="a_node8"><a xlink:href="classdenoptim_1_1programs_1_1denovo_1_1_g_a_parameters_test.html#aa838fcfa49302bd09aaf49cf36c3b5a9" target="_top" xlink:title=" ">
<polygon fill="white" stroke="black" points="0,-60.5 0,-101.5 176,-101.5 176,-60.5 0,-60.5"/>
<text text-anchor="start" x="8" y="-89.5" font-family="Helvetica,sans-Serif" font-size="10.00">denoptim.programs.denovo.</text>
<text text-anchor="start" x="8" y="-78.5" font-family="Helvetica,sans-Serif" font-size="10.00">GAParametersTest.testInterpretation</text>
<text text-anchor="middle" x="88" y="-67.5" font-family="Helvetica,sans-Serif" font-size="10.00">OfKeywords</text>
</a>
</g>
</g>
<!-- Node7&#45;&gt;Node8 -->
<g id="edge7" class="edge">
<title>Node7&#45;&gt;Node8</title>
<path fill="none" stroke="midnightblue" d="M201.75,-81C193.32,-81 184.76,-81 176.33,-81"/>
<polygon fill="midnightblue" stroke="midnightblue" points="201.96,-84.5 211.96,-81 201.96,-77.5 201.96,-84.5"/>
</g>
<!-- Node9 -->
<g id="node9" class="node">
<title>Node9</title>
<g id="a_node9"><a xlink:href="classdenoptim_1_1programs_1_1denovo_1_1_g_a_parameters_test.html#a5f7524a0ac50011f7bc3e7cb31689504" target="_top" xlink:title=" ">
<polygon fill="white" stroke="black" points="3.5,-0.5 3.5,-41.5 172.5,-41.5 172.5,-0.5 3.5,-0.5"/>
<text text-anchor="start" x="11.5" y="-29.5" font-family="Helvetica,sans-Serif" font-size="10.00">denoptim.programs.denovo.</text>
<text text-anchor="start" x="11.5" y="-18.5" font-family="Helvetica,sans-Serif" font-size="10.00">GAParametersTest.testYesNoTrue</text>
<text text-anchor="middle" x="88" y="-7.5" font-family="Helvetica,sans-Serif" font-size="10.00">FalseKeyword</text>
</a>
</g>
</g>
<!-- Node7&#45;&gt;Node9 -->
<g id="edge8" class="edge">
<title>Node7&#45;&gt;Node9</title>
<path fill="none" stroke="midnightblue" d="M229.01,-63C206.45,-56.23 180.64,-48.49 157.37,-41.51"/>
<polygon fill="midnightblue" stroke="midnightblue" points="228.21,-66.42 238.79,-65.94 230.22,-59.71 228.21,-66.42"/>
</g>
</g>
</svg>
