<?xml version="1.0" encoding="UTF-8" standalone="no"?>
<!DOCTYPE svg PUBLIC "-//W3C//DTD SVG 1.1//EN"
 "http://www.w3.org/Graphics/SVG/1.1/DTD/svg11.dtd">
<!-- Generated by graphviz version 3.0.0 (20220413.0242)
 -->
<!-- Title: denoptim.graph.DGraph.getSourceVertex Pages: 1 -->
<svg width="982pt" height="373pt"
 viewBox="0.00 0.00 982.00 373.00" xmlns="http://www.w3.org/2000/svg" xmlns:xlink="http://www.w3.org/1999/xlink">
<g id="graph0" class="graph" transform="scale(1 1) rotate(0) translate(4 369)">
<title>denoptim.graph.DGraph.getSourceVertex</title>
<polygon fill="white" stroke="transparent" points="-4,4 -4,-369 978,-369 978,4 -4,4"/>
<!-- Node1 -->
<g id="node1" class="node">
<title>Node1</title>
<g id="a_node1"><a xlink:title="Identifies and return the vertex from which the spanning tree originates.">
<polygon fill="#bfbfbf" stroke="black" points="840,-129.5 840,-159.5 974,-159.5 974,-129.5 840,-129.5"/>
<text text-anchor="start" x="848" y="-147.5" font-family="Helvetica,sans-Serif" font-size="10.00">denoptim.graph.DGraph.get</text>
<text text-anchor="middle" x="907" y="-136.5" font-family="Helvetica,sans-Serif" font-size="10.00">SourceVertex</text>
</a>
</g>
</g>
<!-- Node2 -->
<g id="node2" class="node">
<title>Node2</title>
<g id="a_node2"><a xlink:href="classdenoptim_1_1graph_1_1_d_graph.html#a9f63f3990784eee06842737c42bfc08d" target="_top" xlink:title="Flips edges in the graph so that the scaffold is the only source vertex.">
<polygon fill="white" stroke="black" points="661.5,-242.5 661.5,-272.5 790.5,-272.5 790.5,-242.5 661.5,-242.5"/>
<text text-anchor="start" x="669.5" y="-260.5" font-family="Helvetica,sans-Serif" font-size="10.00">denoptim.graph.DGraph.fix</text>
<text text-anchor="middle" x="726" y="-249.5" font-family="Helvetica,sans-Serif" font-size="10.00">EdgeDirections</text>
</a>
</g>
</g>
<!-- Node1&#45;&gt;Node2 -->
<g id="edge1" class="edge">
<title>Node1&#45;&gt;Node2</title>
<path fill="none" stroke="midnightblue" d="M883.01,-166.76C863.29,-184.93 833.48,-210.34 804,-227.5 794.21,-233.2 783.12,-238.24 772.48,-242.49"/>
<polygon fill="midnightblue" stroke="midnightblue" points="885.65,-169.08 890.56,-159.7 880.86,-163.97 885.65,-169.08"/>
</g>
<!-- Node3 -->
<g id="node3" class="node">
<title>Node3</title>
<g id="a_node3"><a xlink:href="classdenoptim_1_1graph_1_1_d_graph.html#a45b3ec4b3b4d6384e49093e9b9449537" target="_top" xlink:title="Sets the vertex at the lowest level as the scaffold, changes the &#160;&#160;directions of edges so that the sc...">
<polygon fill="white" stroke="black" points="461,-231.5 461,-261.5 611,-261.5 611,-231.5 461,-231.5"/>
<text text-anchor="start" x="469" y="-249.5" font-family="Helvetica,sans-Serif" font-size="10.00">denoptim.graph.DGraph.reorder</text>
<text text-anchor="middle" x="536" y="-238.5" font-family="Helvetica,sans-Serif" font-size="10.00">VertexList</text>
</a>
</g>
</g>
<!-- Node1&#45;&gt;Node3 -->
<g id="edge14" class="edge">
<title>Node1&#45;&gt;Node3</title>
<path fill="none" stroke="midnightblue" d="M867.18,-163.88C848.44,-172.64 825.43,-182.57 804,-189.5 740.19,-210.15 665.35,-225.38 611.16,-234.88"/>
<polygon fill="midnightblue" stroke="midnightblue" points="868.75,-167 876.28,-159.55 865.75,-160.68 868.75,-167"/>
</g>
<!-- Node8 -->
<g id="node8" class="node">
<title>Node8</title>
<g id="a_node8"><a xlink:href="classdenoptim_1_1ga_1_1_graph_operations_test.html#a161540d22b2ad17c44fc3e1a911a1367" target="_top" xlink:title=" ">
<polygon fill="white" stroke="black" points="25.5,-155 25.5,-196 170.5,-196 170.5,-155 25.5,-155"/>
<text text-anchor="start" x="33.5" y="-184" font-family="Helvetica,sans-Serif" font-size="10.00">denoptim.ga.GraphOperations</text>
<text text-anchor="start" x="33.5" y="-173" font-family="Helvetica,sans-Serif" font-size="10.00">Test.testExtractPattern</text>
<text text-anchor="middle" x="98" y="-162" font-family="Helvetica,sans-Serif" font-size="10.00">_singleRingSystem</text>
</a>
</g>
</g>
<!-- Node1&#45;&gt;Node8 -->
<g id="edge15" class="edge">
<title>Node1&#45;&gt;Node8</title>
<path fill="none" stroke="midnightblue" d="M829.8,-153.38C821.1,-154.2 812.37,-154.93 804,-155.5 572.81,-171.22 298.15,-174.63 170.64,-175.34"/>
<polygon fill="midnightblue" stroke="midnightblue" points="830.34,-156.85 839.95,-152.39 829.66,-149.88 830.34,-156.85"/>
</g>
<!-- Node9 -->
<g id="node9" class="node">
<title>Node9</title>
<g id="a_node9"><a xlink:href="classdenoptim_1_1graph_1_1_d_graph.html#a357b4099599e47ae47102123550771f8" target="_top" xlink:title="Remove a given vertex belonging to this graph and re&#45;connects the resulting graph branches as much as...">
<polygon fill="white" stroke="black" points="650,-98.5 650,-128.5 802,-128.5 802,-98.5 650,-98.5"/>
<text text-anchor="start" x="658" y="-116.5" font-family="Helvetica,sans-Serif" font-size="10.00">denoptim.graph.DGraph.remove</text>
<text text-anchor="middle" x="726" y="-105.5" font-family="Helvetica,sans-Serif" font-size="10.00">SingleVertexAndWeld</text>
</a>
</g>
</g>
<!-- Node1&#45;&gt;Node9 -->
<g id="edge9" class="edge">
<title>Node1&#45;&gt;Node9</title>
<path fill="none" stroke="midnightblue" d="M829.98,-131.33C820.79,-129.74 811.41,-128.12 802.23,-126.53"/>
<polygon fill="midnightblue" stroke="midnightblue" points="829.4,-134.79 839.86,-133.04 830.6,-127.89 829.4,-134.79"/>
</g>
<!-- Node13 -->
<g id="node13" class="node">
<title>Node13</title>
<g id="a_node13"><a xlink:href="classdenoptim_1_1graph_1_1_d_graph_test.html#a428fb92fa7fcf1312fc2eb81cf7fac4f" target="_top" xlink:title=" ">
<polygon fill="white" stroke="black" points="648,-49.5 648,-79.5 804,-79.5 804,-49.5 648,-49.5"/>
<text text-anchor="start" x="656" y="-67.5" font-family="Helvetica,sans-Serif" font-size="10.00">denoptim.graph.DGraphTest.test</text>
<text text-anchor="middle" x="726" y="-56.5" font-family="Helvetica,sans-Serif" font-size="10.00">GetSourceVertex</text>
</a>
</g>
</g>
<!-- Node1&#45;&gt;Node13 -->
<g id="edge16" class="edge">
<title>Node1&#45;&gt;Node13</title>
<path fill="none" stroke="midnightblue" d="M872.74,-124.03C853.2,-112.57 827.75,-98.6 804,-88.5 796.4,-85.27 788.21,-82.25 780.11,-79.52"/>
<polygon fill="midnightblue" stroke="midnightblue" points="871.16,-127.16 881.55,-129.26 874.74,-121.14 871.16,-127.16"/>
</g>
<!-- Node14 -->
<g id="node14" class="node">
<title>Node14</title>
<g id="a_node14"><a xlink:href="classdenoptim_1_1graph_1_1_d_graph_test.html#a83a9624ea5dc6a2c515407b865b62611" target="_top" xlink:title=" ">
<polygon fill="white" stroke="black" points="648,-0.5 648,-30.5 804,-30.5 804,-0.5 648,-0.5"/>
<text text-anchor="start" x="656" y="-18.5" font-family="Helvetica,sans-Serif" font-size="10.00">denoptim.graph.DGraphTest.test</text>
<text text-anchor="middle" x="726" y="-7.5" font-family="Helvetica,sans-Serif" font-size="10.00">ReplaceSubGraph</text>
</a>
</g>
</g>
<!-- Node1&#45;&gt;Node14 -->
<g id="edge17" class="edge">
<title>Node1&#45;&gt;Node14</title>
<path fill="none" stroke="midnightblue" d="M889.06,-121.19C870.64,-97.42 839.1,-61.07 804,-39.5 798.51,-36.13 792.51,-33.19 786.36,-30.65"/>
<polygon fill="midnightblue" stroke="midnightblue" points="886.4,-123.47 895.24,-129.32 891.98,-119.24 886.4,-123.47"/>
</g>
<!-- Node2&#45;&gt;Node2 -->
<g id="edge2" class="edge">
<title>Node2&#45;&gt;Node2</title>
<path fill="none" stroke="midnightblue" d="M757.98,-282.96C754.01,-287.68 743.35,-291 726,-291 697.52,-291 687.07,-282.06 694.63,-272.66"/>
<polygon fill="midnightblue" stroke="midnightblue" points="761.46,-282.43 757.37,-272.66 754.47,-282.85 761.46,-282.43"/>
</g>
<!-- Node2&#45;&gt;Node3 -->
<g id="edge3" class="edge">
<title>Node2&#45;&gt;Node3</title>
<path fill="none" stroke="midnightblue" d="M651.02,-253.17C637.96,-252.41 624.36,-251.61 611.29,-250.85"/>
<polygon fill="midnightblue" stroke="midnightblue" points="651.16,-256.69 661.35,-253.78 651.57,-249.7 651.16,-256.69"/>
</g>
<!-- Node4 -->
<g id="node4" class="node">
<title>Node4</title>
<g id="a_node4"><a xlink:href="classdenoptim_1_1graph_1_1_d_graph.html#a6fe5ab71083430bbab0b7d2e2f139c3a" target="_top" xlink:title="Extracts subgraphs that match the provided pattern.">
<polygon fill="white" stroke="black" points="253.5,-231.5 253.5,-261.5 402.5,-261.5 402.5,-231.5 253.5,-231.5"/>
<text text-anchor="start" x="261.5" y="-249.5" font-family="Helvetica,sans-Serif" font-size="10.00">denoptim.graph.DGraph.extract</text>
<text text-anchor="middle" x="328" y="-238.5" font-family="Helvetica,sans-Serif" font-size="10.00">Pattern</text>
</a>
</g>
</g>
<!-- Node3&#45;&gt;Node4 -->
<g id="edge4" class="edge">
<title>Node3&#45;&gt;Node4</title>
<path fill="none" stroke="midnightblue" d="M450.6,-246.5C434.74,-246.5 418.27,-246.5 402.77,-246.5"/>
<polygon fill="midnightblue" stroke="midnightblue" points="450.92,-250 460.92,-246.5 450.92,-243 450.92,-250"/>
</g>
<!-- Node5 -->
<g id="node5" class="node">
<title>Node5</title>
<g id="a_node5"><a xlink:href="classdenoptim_1_1fragspace_1_1_fragment_space.html#a32b0be109306e9c81fc830867296bc66" target="_top" xlink:title="Extracts a system of one or more fused rings and adds them to the fragment space if not already prese...">
<polygon fill="white" stroke="black" points="0,-334.5 0,-364.5 196,-364.5 196,-334.5 0,-334.5"/>
<text text-anchor="start" x="8" y="-352.5" font-family="Helvetica,sans-Serif" font-size="10.00">denoptim.fragspace.Fragment</text>
<text text-anchor="middle" x="98" y="-341.5" font-family="Helvetica,sans-Serif" font-size="10.00">Space.addFusedRingsToFragmentLibrary</text>
</a>
</g>
</g>
<!-- Node4&#45;&gt;Node5 -->
<g id="edge5" class="edge">
<title>Node4&#45;&gt;Node5</title>
<path fill="none" stroke="midnightblue" d="M297.75,-267.66C272.06,-285.37 233.1,-310.14 196,-325.5 187.83,-328.89 179.06,-331.87 170.26,-334.49"/>
<polygon fill="midnightblue" stroke="midnightblue" points="300.07,-270.32 306.26,-261.72 296.06,-264.58 300.07,-270.32"/>
</g>
<!-- Node6 -->
<g id="node6" class="node">
<title>Node6</title>
<g id="a_node6"><a xlink:href="classdenoptim_1_1ga_1_1_graph_operations_test.html#a81e15cea05ce67c5b0c2af89d301d072" target="_top" xlink:title=" ">
<polygon fill="white" stroke="black" points="25.5,-275 25.5,-316 170.5,-316 170.5,-275 25.5,-275"/>
<text text-anchor="start" x="33.5" y="-304" font-family="Helvetica,sans-Serif" font-size="10.00">denoptim.ga.GraphOperations</text>
<text text-anchor="start" x="33.5" y="-293" font-family="Helvetica,sans-Serif" font-size="10.00">Test.testExtractPattern</text>
<text text-anchor="middle" x="98" y="-282" font-family="Helvetica,sans-Serif" font-size="10.00">_fusedRings</text>
</a>
</g>
</g>
<!-- Node4&#45;&gt;Node6 -->
<g id="edge6" class="edge">
<title>Node4&#45;&gt;Node6</title>
<path fill="none" stroke="midnightblue" d="M246.94,-263.71C222.15,-269.03 194.99,-274.87 170.79,-280.07"/>
<polygon fill="midnightblue" stroke="midnightblue" points="248,-267.06 257.04,-261.53 246.53,-260.21 248,-267.06"/>
</g>
<!-- Node7 -->
<g id="node7" class="node">
<title>Node7</title>
<g id="a_node7"><a xlink:href="classdenoptim_1_1ga_1_1_graph_operations_test.html#a51afdfc40faf5bcc51609ddef161f078" target="_top" xlink:title=" ">
<polygon fill="white" stroke="black" points="25.5,-215 25.5,-256 170.5,-256 170.5,-215 25.5,-215"/>
<text text-anchor="start" x="33.5" y="-244" font-family="Helvetica,sans-Serif" font-size="10.00">denoptim.ga.GraphOperations</text>
<text text-anchor="start" x="33.5" y="-233" font-family="Helvetica,sans-Serif" font-size="10.00">Test.testExtractPattern</text>
<text text-anchor="middle" x="98" y="-222" font-family="Helvetica,sans-Serif" font-size="10.00">_returnsEmptyListIfNoRings</text>
</a>
</g>
</g>
<!-- Node4&#45;&gt;Node7 -->
<g id="edge7" class="edge">
<title>Node4&#45;&gt;Node7</title>
<path fill="none" stroke="midnightblue" d="M243.19,-242.46C219.33,-241.31 193.57,-240.06 170.51,-238.95"/>
<polygon fill="midnightblue" stroke="midnightblue" points="243.13,-245.96 253.29,-242.94 243.47,-238.97 243.13,-245.96"/>
</g>
<!-- Node4&#45;&gt;Node8 -->
<g id="edge8" class="edge">
<title>Node4&#45;&gt;Node8</title>
<path fill="none" stroke="midnightblue" d="M269.54,-228.47C246.66,-221.3 220.09,-213 196,-205.5 186.15,-202.44 175.74,-199.21 165.54,-196.05"/>
<polygon fill="midnightblue" stroke="midnightblue" points="268.51,-231.82 279.1,-231.47 270.61,-225.14 268.51,-231.82"/>
</g>
<!-- Node9&#45;&gt;Node9 -->
<g id="edge10" class="edge">
<title>Node9&#45;&gt;Node9</title>
<path fill="none" stroke="midnightblue" d="M757.98,-138.96C754.01,-143.68 743.35,-147 726,-147 697.52,-147 687.07,-138.06 694.63,-128.66"/>
<polygon fill="midnightblue" stroke="midnightblue" points="761.46,-138.43 757.37,-128.66 754.47,-138.85 761.46,-138.43"/>
</g>
<!-- Node10 -->
<g id="node10" class="node">
<title>Node10</title>
<g id="a_node10"><a xlink:href="classdenoptim_1_1graph_1_1_d_graph.html#a00209ca8b4a9623b41e7d9e1e62f69ec" target="_top" xlink:title="Remove a given vertex belonging to this graph and re&#45;connects the resulting graph branches as much as...">
<polygon fill="white" stroke="black" points="460,-98.5 460,-128.5 612,-128.5 612,-98.5 460,-98.5"/>
<text text-anchor="start" x="468" y="-116.5" font-family="Helvetica,sans-Serif" font-size="10.00">denoptim.graph.DGraph.remove</text>
<text text-anchor="middle" x="536" y="-105.5" font-family="Helvetica,sans-Serif" font-size="10.00">VertexAndWeld</text>
</a>
</g>
</g>
<!-- Node9&#45;&gt;Node10 -->
<g id="edge11" class="edge">
<title>Node9&#45;&gt;Node10</title>
<path fill="none" stroke="midnightblue" d="M639.65,-113.5C630.53,-113.5 621.3,-113.5 612.3,-113.5"/>
<polygon fill="midnightblue" stroke="midnightblue" points="639.89,-117 649.89,-113.5 639.89,-110 639.89,-117"/>
</g>
<!-- Node11 -->
<g id="node11" class="node">
<title>Node11</title>
<g id="a_node11"><a xlink:href="classdenoptim_1_1ga_1_1_graph_operations.html#ab3adb5141a8941bf23916bb516faee63" target="_top" xlink:title="Removes a vertex while merging as many of the child branches into the parent vertex.">
<polygon fill="white" stroke="black" points="232,-104 232,-123 424,-123 424,-104 232,-104"/>
<text text-anchor="middle" x="328" y="-111" font-family="Helvetica,sans-Serif" font-size="10.00">denoptim.ga.GraphOperations.deleteLink</text>
</a>
</g>
</g>
<!-- Node10&#45;&gt;Node11 -->
<g id="edge12" class="edge">
<title>Node10&#45;&gt;Node11</title>
<path fill="none" stroke="midnightblue" d="M449.58,-113.5C441.15,-113.5 432.57,-113.5 424.06,-113.5"/>
<polygon fill="midnightblue" stroke="midnightblue" points="449.75,-117 459.75,-113.5 449.75,-110 449.75,-117"/>
</g>
<!-- Node12 -->
<g id="node12" class="node">
<title>Node12</title>
<g id="a_node12"><a xlink:href="classdenoptim_1_1ga_1_1_graph_operations.html#a0c851972015fbb4b2a317b053b8b81d9" target="_top" xlink:title="Mutates the given vertex according to the given mutation type, if possible.">
<polygon fill="white" stroke="black" points="8,-98.5 8,-128.5 188,-128.5 188,-98.5 8,-98.5"/>
<text text-anchor="start" x="16" y="-116.5" font-family="Helvetica,sans-Serif" font-size="10.00">denoptim.ga.GraphOperations.perform</text>
<text text-anchor="middle" x="98" y="-105.5" font-family="Helvetica,sans-Serif" font-size="10.00">Mutation</text>
</a>
</g>
</g>
<!-- Node11&#45;&gt;Node12 -->
<g id="edge13" class="edge">
<title>Node11&#45;&gt;Node12</title>
<path fill="none" stroke="midnightblue" d="M221.68,-113.5C210.43,-113.5 199.08,-113.5 188.05,-113.5"/>
<polygon fill="midnightblue" stroke="midnightblue" points="221.96,-117 231.96,-113.5 221.96,-110 221.96,-117"/>
</g>
</g>
</svg>
