<?xml version="1.0" encoding="UTF-8" standalone="no"?>
<!DOCTYPE svg PUBLIC "-//W3C//DTD SVG 1.1//EN"
 "http://www.w3.org/Graphics/SVG/1.1/DTD/svg11.dtd">
<!-- Generated by graphviz version 3.0.0 (20220413.0242)
 -->
<!-- Title: denoptim.gui.GAParametersForm.createCrowdProbDataset Pages: 1 -->
<svg width="520pt" height="88pt"
 viewBox="0.00 0.00 520.00 88.00" xmlns="http://www.w3.org/2000/svg" xmlns:xlink="http://www.w3.org/1999/xlink">
<g id="graph0" class="graph" transform="scale(1 1) rotate(0) translate(4 84)">
<title>denoptim.gui.GAParametersForm.createCrowdProbDataset</title>
<polygon fill="white" stroke="transparent" points="-4,4 -4,-84 516,-84 516,4 -4,4"/>
<!-- Node1 -->
<g id="node1" class="node">
<title>Node1</title>
<g id="a_node1"><a xlink:title=" ">
<polygon fill="#bfbfbf" stroke="black" points="362,-24.5 362,-54.5 512,-54.5 512,-24.5 362,-24.5"/>
<text text-anchor="start" x="370" y="-42.5" font-family="Helvetica,sans-Serif" font-size="10.00">denoptim.gui.GAParameters</text>
<text text-anchor="middle" x="437" y="-31.5" font-family="Helvetica,sans-Serif" font-size="10.00">Form.createCrowdProbDataset</text>
</a>
</g>
</g>
<!-- Node2 -->
<g id="node2" class="node">
<title>Node2</title>
<g id="a_node2"><a xlink:href="classdenoptim_1_1gui_1_1_g_a_parameters_form.html#a567ed81852332217cc344d9a5ecd8eb0" target="_top" xlink:title=" ">
<polygon fill="white" stroke="black" points="178.5,-49.5 178.5,-79.5 321.5,-79.5 321.5,-49.5 178.5,-49.5"/>
<text text-anchor="start" x="186.5" y="-67.5" font-family="Helvetica,sans-Serif" font-size="10.00">denoptim.gui.GAParameters</text>
<text text-anchor="middle" x="250" y="-56.5" font-family="Helvetica,sans-Serif" font-size="10.00">Form.createCrowdProbGraph</text>
</a>
</g>
</g>
<!-- Node1&#45;&gt;Node2 -->
<g id="edge1" class="edge">
<title>Node1&#45;&gt;Node2</title>
<path fill="none" stroke="midnightblue" d="M351.79,-50.88C341.69,-52.24 331.47,-53.63 321.59,-54.96"/>
<polygon fill="midnightblue" stroke="midnightblue" points="352.38,-54.33 361.82,-49.52 351.44,-47.4 352.38,-54.33"/>
</g>
<!-- Node4 -->
<g id="node4" class="node">
<title>Node4</title>
<g id="a_node4"><a xlink:href="classdenoptim_1_1gui_1_1_g_a_parameters_form.html#a2e63957f5d08fb45f9a5fb3fbf5882a0" target="_top" xlink:title=" ">
<polygon fill="white" stroke="black" points="174,-0.5 174,-30.5 326,-30.5 326,-0.5 174,-0.5"/>
<text text-anchor="start" x="182" y="-18.5" font-family="Helvetica,sans-Serif" font-size="10.00">denoptim.gui.GAParameters</text>
<text text-anchor="middle" x="250" y="-7.5" font-family="Helvetica,sans-Serif" font-size="10.00">Form.updateCrowdProbDataset</text>
</a>
</g>
</g>
<!-- Node1&#45;&gt;Node4 -->
<g id="edge3" class="edge">
<title>Node1&#45;&gt;Node4</title>
<path fill="none" stroke="midnightblue" d="M351.82,-28.58C343.24,-27.47 334.57,-26.34 326.1,-25.24"/>
<polygon fill="midnightblue" stroke="midnightblue" points="351.45,-32.06 361.82,-29.88 352.35,-25.12 351.45,-32.06"/>
</g>
<!-- Node3 -->
<g id="node3" class="node">
<title>Node3</title>
<g id="a_node3"><a xlink:href="classdenoptim_1_1gui_1_1_g_a_parameters_form.html#a1da1237b4f0c1d5c5335abc8c2bb2602" target="_top" xlink:title=" ">
<polygon fill="white" stroke="black" points="0,-24.5 0,-54.5 138,-54.5 138,-24.5 0,-24.5"/>
<text text-anchor="start" x="8" y="-42.5" font-family="Helvetica,sans-Serif" font-size="10.00">denoptim.gui.GAParameters</text>
<text text-anchor="middle" x="69" y="-31.5" font-family="Helvetica,sans-Serif" font-size="10.00">Form.GAParametersForm</text>
</a>
</g>
</g>
<!-- Node2&#45;&gt;Node3 -->
<g id="edge2" class="edge">
<title>Node2&#45;&gt;Node3</title>
<path fill="none" stroke="midnightblue" d="M168.27,-53.23C158.22,-51.82 148.02,-50.4 138.19,-49.02"/>
<polygon fill="midnightblue" stroke="midnightblue" points="167.87,-56.7 178.25,-54.62 168.83,-49.77 167.87,-56.7"/>
</g>
<!-- Node4&#45;&gt;Node3 -->
<g id="edge4" class="edge">
<title>Node4&#45;&gt;Node3</title>
<path fill="none" stroke="midnightblue" d="M163.79,-26.92C155.18,-28.08 146.5,-29.24 138.1,-30.37"/>
<polygon fill="midnightblue" stroke="midnightblue" points="164.42,-30.37 173.87,-25.57 163.49,-23.43 164.42,-30.37"/>
</g>
</g>
</svg>
