<?xml version="1.0" encoding="UTF-8" standalone="no"?>
<!DOCTYPE svg PUBLIC "-//W3C//DTD SVG 1.1//EN"
 "http://www.w3.org/Graphics/SVG/1.1/DTD/svg11.dtd">
<!-- Generated by graphviz version 3.0.0 (20220413.0242)
 -->
<!-- Title: denoptim.utils.MathUtils.angle Pages: 1 -->
<!--zoomable 318 -->
<svg id="main" version="1.1" xmlns="http://www.w3.org/2000/svg" xmlns:xlink="http://www.w3.org/1999/xlink" xml:space="preserve" onload="init(evt)">
<style type="text/css"><![CDATA[
.edge:hover path { stroke: red; }
.edge:hover polygon { stroke: red; fill: red; }
]]></style>
<script type="text/javascript"><![CDATA[
var edges = document.getElementsByTagName('g');
if (edges && edges.length) {
  for (var i=0;i<edges.length;i++) {
    if (edges[i].id.substr(0,4)=='edge') {
      edges[i].setAttribute('class','edge');
    }
  }
}
]]></script>
        <defs>
                <circle id="rim" cx="0" cy="0" r="7"/>
                <circle id="rim2" cx="0" cy="0" r="3.5"/>
                <g id="zoomPlus">
                        <use xlink:href="#rim" fill="#404040">
                                <set attributeName="fill" to="#808080" begin="zoomplus.mouseover" end="zoomplus.mouseout"/>
                        </use>
                        <path d="M-4,0h8M0,-4v8" fill="none" stroke="white" stroke-width="1.5" pointer-events="none"/>
                </g>
                <g id="zoomMin">
                        <use xlink:href="#rim" fill="#404040">
                                <set attributeName="fill" to="#808080" begin="zoomminus.mouseover" end="zoomminus.mouseout"/>
                        </use>
                        <path d="M-4,0h8" fill="none" stroke="white" stroke-width="1.5" pointer-events="none"/>
                </g>
                <g id="dirArrow">
                        <path fill="none" stroke="white" stroke-width="1.5" d="M0,-3.0v7 M-2.5,-0.5L0,-3.0L2.5,-0.5"/>
                </g>
               <g id="resetDef">
                       <use xlink:href="#rim2" fill="#404040">
                               <set attributeName="fill" to="#808080" begin="reset.mouseover" end="reset.mouseout"/>
                       </use>
               </g>
        </defs>

<script type="text/javascript">
var viewWidth = 1985;
var viewHeight = 318;
var sectionId = 'dynsection-2';
</script>
<script xlink:href="svgpan.js"/>
<svg id="graph" class="graph">
<g id="viewport">
<title>denoptim.utils.MathUtils.angle</title>
<polygon fill="white" stroke="transparent" points="-4,4 -4,-314 1981,-314 1981,4 -4,4"/>
<!-- Node1 -->
<g id="node1" class="node">
<title>Node1</title>
<g id="a_node1"><a xlink:title="Calculate the angle between the 3 points.">
<polygon fill="#bfbfbf" stroke="black" points="1831,-94 1831,-113 1977,-113 1977,-94 1831,-94"/>
<text text-anchor="middle" x="1904" y="-101" font-family="Helvetica,sans-Serif" font-size="10.00">denoptim.utils.MathUtils.angle</text>
</a>
</g>
</g>
<!-- Node1&#45;&gt;Node1 -->
<g id="edge6" class="edge">
<title>Node1&#45;&gt;Node1</title>
<path fill="none" stroke="midnightblue" d="M1940,-121C1939.99,-126.84 1927.99,-131.5 1904,-131.5 1869.88,-131.5 1860.01,-122.07 1874.41,-113.26"/>
<polygon fill="midnightblue" stroke="midnightblue" points="1942.66,-118.73 1933.59,-113.26 1937.27,-123.19 1942.66,-118.73"/>
</g>
<!-- Node2 -->
<g id="node2" class="node">
<title>Node2</title>
<g id="a_node2"><a xlink:href="classdenoptim_1_1utils_1_1_dummy_atom_handler.html#a100cd8246e61d933a6420fac5c22160a" target="_top" xlink:title="Append dummy atoms on otherwise linear arrangements of atoms.">
<polygon fill="white" stroke="black" points="1628,-210.5 1628,-240.5 1795,-240.5 1795,-210.5 1628,-210.5"/>
<text text-anchor="start" x="1636" y="-228.5" font-family="Helvetica,sans-Serif" font-size="10.00">denoptim.utils.DummyAtom</text>
<text text-anchor="middle" x="1711.5" y="-217.5" font-family="Helvetica,sans-Serif" font-size="10.00">Handler.addDummiesOnLinearities</text>
</a>
</g>
</g>
<!-- Node1&#45;&gt;Node2 -->
<g id="edge1" class="edge">
<title>Node1&#45;&gt;Node2</title>
<path fill="none" stroke="midnightblue" d="M1881.42,-118.98C1859.84,-134.29 1825.56,-158.18 1795,-177.5 1776.79,-189.01 1755.8,-201.21 1739.55,-210.43"/>
<polygon fill="midnightblue" stroke="midnightblue" points="1883.46,-121.82 1889.58,-113.17 1879.4,-116.12 1883.46,-121.82"/>
</g>
<!-- Node7 -->
<g id="node7" class="node">
<title>Node7</title>
<g id="a_node7"><a xlink:href="classdenoptim_1_1utils_1_1_math_utils.html#ac697c4b44f2cc17f369c23672ed6f68e" target="_top" xlink:title="compute the angle between two vectors a &amp; b of same length">
<polygon fill="white" stroke="black" points="1630.5,-137.5 1630.5,-167.5 1792.5,-167.5 1792.5,-137.5 1630.5,-137.5"/>
<text text-anchor="start" x="1638.5" y="-155.5" font-family="Helvetica,sans-Serif" font-size="10.00">denoptim.utils.MathUtils.calculate</text>
<text text-anchor="middle" x="1711.5" y="-144.5" font-family="Helvetica,sans-Serif" font-size="10.00">Angle</text>
</a>
</g>
</g>
<!-- Node1&#45;&gt;Node7 -->
<g id="edge7" class="edge">
<title>Node1&#45;&gt;Node7</title>
<path fill="none" stroke="midnightblue" d="M1855.95,-115.6C1830.27,-122.21 1798.24,-130.45 1770.96,-137.46"/>
<polygon fill="midnightblue" stroke="midnightblue" points="1857,-118.94 1865.82,-113.06 1855.26,-112.17 1857,-118.94"/>
</g>
<!-- Node9 -->
<g id="node9" class="node">
<title>Node9</title>
<g id="a_node9"><a xlink:href="classdenoptim_1_1graph_1_1rings_1_1_ring_closure_finder.html#a51c84fa00fdd0c1c2642f21070f222fa" target="_top" xlink:title="Giving a list of points in 3D space (the path) this method evaluates whether it exists at least one c...">
<polygon fill="white" stroke="black" points="1631.5,-88.5 1631.5,-118.5 1791.5,-118.5 1791.5,-88.5 1631.5,-88.5"/>
<text text-anchor="start" x="1639.5" y="-106.5" font-family="Helvetica,sans-Serif" font-size="10.00">denoptim.graph.rings.Ring</text>
<text text-anchor="middle" x="1711.5" y="-95.5" font-family="Helvetica,sans-Serif" font-size="10.00">ClosureFinder.evaluateClosability</text>
</a>
</g>
</g>
<!-- Node1&#45;&gt;Node9 -->
<g id="edge9" class="edge">
<title>Node1&#45;&gt;Node9</title>
<path fill="none" stroke="midnightblue" d="M1820.94,-103.5C1811.22,-103.5 1801.31,-103.5 1791.63,-103.5"/>
<polygon fill="midnightblue" stroke="midnightblue" points="1820.98,-107 1830.98,-103.5 1820.98,-100 1820.98,-107"/>
</g>
<!-- Node25 -->
<g id="node25" class="node">
<title>Node25</title>
<g id="a_node25"><a xlink:href="classdenoptim_1_1integration_1_1tinker_1_1_tinker_utils.html#aae018598945eacf2b1c984b2efc3c6a0" target="_top" xlink:title="Convert IAtomContainer to TinkerMolecule.">
<polygon fill="white" stroke="black" points="1427.5,-7.5 1427.5,-37.5 1559.5,-37.5 1559.5,-7.5 1427.5,-7.5"/>
<text text-anchor="start" x="1435.5" y="-25.5" font-family="Helvetica,sans-Serif" font-size="10.00">denoptim.integration.tinker.</text>
<text text-anchor="middle" x="1493.5" y="-14.5" font-family="Helvetica,sans-Serif" font-size="10.00">TinkerUtils.getICFromIAC</text>
</a>
</g>
</g>
<!-- Node1&#45;&gt;Node25 -->
<g id="edge28" class="edge">
<title>Node1&#45;&gt;Node25</title>
<path fill="none" stroke="midnightblue" d="M1851.57,-91.73C1833.69,-87.73 1813.49,-83.31 1795,-79.5 1714.13,-62.85 1620.63,-45.39 1559.68,-34.26"/>
<polygon fill="midnightblue" stroke="midnightblue" points="1851,-95.19 1861.52,-93.97 1852.53,-88.36 1851,-95.19"/>
</g>
<!-- Node29 -->
<g id="node29" class="node">
<title>Node29</title>
<g id="a_node29"><a xlink:href="classdenoptim_1_1integration_1_1tinker_1_1_tinker_utils.html#a21e253c52a22329d2cbfd27131a54afa" target="_top" xlink:title=" ">
<polygon fill="white" stroke="black" points="1637.5,-0.5 1637.5,-30.5 1785.5,-30.5 1785.5,-0.5 1637.5,-0.5"/>
<text text-anchor="start" x="1645.5" y="-18.5" font-family="Helvetica,sans-Serif" font-size="10.00">denoptim.integration.tinker.</text>
<text text-anchor="middle" x="1711.5" y="-7.5" font-family="Helvetica,sans-Serif" font-size="10.00">TinkerUtils.getThirdRefAtomId</text>
</a>
</g>
</g>
<!-- Node1&#45;&gt;Node29 -->
<g id="edge32" class="edge">
<title>Node1&#45;&gt;Node29</title>
<path fill="none" stroke="midnightblue" d="M1878.07,-88.78C1856.51,-76.38 1824.27,-58.6 1795,-45.5 1783.04,-40.15 1769.8,-35 1757.5,-30.53"/>
<polygon fill="midnightblue" stroke="midnightblue" points="1876.5,-91.91 1886.9,-93.91 1880.01,-85.86 1876.5,-91.91"/>
</g>
<!-- Node3 -->
<g id="node3" class="node">
<title>Node3</title>
<g id="a_node3"><a xlink:href="classdenoptim_1_1gui_1_1_g_u_i_vertex_inspector.html#acadecc92299a7ea46113c06382a1f333" target="_top" xlink:title="Initialize the panel and add buttons.">
<polygon fill="white" stroke="black" points="1395,-285 1395,-304 1592,-304 1592,-285 1395,-285"/>
<text text-anchor="middle" x="1493.5" y="-292" font-family="Helvetica,sans-Serif" font-size="10.00">denoptim.gui.GUIVertexInspector.initialize</text>
</a>
</g>
</g>
<!-- Node2&#45;&gt;Node3 -->
<g id="edge2" class="edge">
<title>Node2&#45;&gt;Node3</title>
<path fill="none" stroke="midnightblue" d="M1670.21,-244.95C1647.63,-255.23 1618.73,-267.35 1592,-275.5 1579.79,-279.22 1566.5,-282.38 1553.76,-284.99"/>
<polygon fill="midnightblue" stroke="midnightblue" points="1671.86,-248.05 1679.47,-240.68 1668.92,-241.69 1671.86,-248.05"/>
</g>
<!-- Node5 -->
<g id="node5" class="node">
<title>Node5</title>
<g id="a_node5"><a xlink:href="classdenoptim_1_1fragmenter_1_1_fragmenter_tools.html#a82c4a82da2a3283a870a8c8af94f0a4e" target="_top" xlink:title="Management of fragments: includes application of fragment filters, rejection rules,...">
<polygon fill="white" stroke="black" points="1413,-235.5 1413,-265.5 1574,-265.5 1574,-235.5 1413,-235.5"/>
<text text-anchor="start" x="1421" y="-253.5" font-family="Helvetica,sans-Serif" font-size="10.00">denoptim.fragmenter.Fragmenter</text>
<text text-anchor="middle" x="1493.5" y="-242.5" font-family="Helvetica,sans-Serif" font-size="10.00">Tools.manageFragmentCollection</text>
</a>
</g>
</g>
<!-- Node2&#45;&gt;Node5 -->
<g id="edge4" class="edge">
<title>Node2&#45;&gt;Node5</title>
<path fill="none" stroke="midnightblue" d="M1617.91,-236.22C1603.36,-237.9 1588.42,-239.63 1574.19,-241.28"/>
<polygon fill="midnightblue" stroke="midnightblue" points="1618.38,-239.69 1627.92,-235.06 1617.58,-232.73 1618.38,-239.69"/>
</g>
<!-- Node6 -->
<g id="node6" class="node">
<title>Node6</title>
<g id="a_node6"><a xlink:href="classdenoptim_1_1graph_1_1_fragment_test.html#aa17f42b21847b022c3d7a87876e17717" target="_top" xlink:title=" ">
<polygon fill="white" stroke="black" points="1411.5,-186.5 1411.5,-216.5 1575.5,-216.5 1575.5,-186.5 1411.5,-186.5"/>
<text text-anchor="start" x="1419.5" y="-204.5" font-family="Helvetica,sans-Serif" font-size="10.00">denoptim.graph.FragmentTest.test</text>
<text text-anchor="middle" x="1493.5" y="-193.5" font-family="Helvetica,sans-Serif" font-size="10.00">IsomorphicInLinear</text>
</a>
</g>
</g>
<!-- Node2&#45;&gt;Node6 -->
<g id="edge5" class="edge">
<title>Node2&#45;&gt;Node6</title>
<path fill="none" stroke="midnightblue" d="M1617.78,-215.2C1603.75,-213.64 1589.37,-212.04 1575.61,-210.51"/>
<polygon fill="midnightblue" stroke="midnightblue" points="1617.59,-218.7 1627.92,-216.32 1618.36,-211.74 1617.59,-218.7"/>
</g>
<!-- Node4 -->
<g id="node4" class="node">
<title>Node4</title>
<g id="a_node4"><a xlink:href="classdenoptim_1_1gui_1_1_g_u_i_vertex_inspector.html#abc5d3c33ad9b2b114ce43e9b2cd577bb" target="_top" xlink:title="Constructor.">
<polygon fill="white" stroke="black" points="1183,-279.5 1183,-309.5 1345,-309.5 1345,-279.5 1183,-279.5"/>
<text text-anchor="start" x="1191" y="-297.5" font-family="Helvetica,sans-Serif" font-size="10.00">denoptim.gui.GUIVertexInspector.</text>
<text text-anchor="middle" x="1264" y="-286.5" font-family="Helvetica,sans-Serif" font-size="10.00">GUIVertexInspector</text>
</a>
</g>
</g>
<!-- Node3&#45;&gt;Node4 -->
<g id="edge3" class="edge">
<title>Node3&#45;&gt;Node4</title>
<path fill="none" stroke="midnightblue" d="M1384.6,-294.5C1371.35,-294.5 1358,-294.5 1345.26,-294.5"/>
<polygon fill="midnightblue" stroke="midnightblue" points="1384.7,-298 1394.7,-294.5 1384.7,-291 1384.7,-298"/>
</g>
<!-- Node8 -->
<g id="node8" class="node">
<title>Node8</title>
<g id="a_node8"><a xlink:href="classdenoptim_1_1utils_1_1_math_utils.html#aab91f5150ef82c7e3c04c350fa2bfe0f" target="_top" xlink:title="Calculates angle (in degrees) between vectors BA and BC.">
<polygon fill="white" stroke="black" points="1425,-137.5 1425,-167.5 1562,-167.5 1562,-137.5 1425,-137.5"/>
<text text-anchor="start" x="1433" y="-155.5" font-family="Helvetica,sans-Serif" font-size="10.00">denoptim.utils.MathUtils.get</text>
<text text-anchor="middle" x="1493.5" y="-144.5" font-family="Helvetica,sans-Serif" font-size="10.00">Angle</text>
</a>
</g>
</g>
<!-- Node7&#45;&gt;Node8 -->
<g id="edge8" class="edge">
<title>Node7&#45;&gt;Node8</title>
<path fill="none" stroke="midnightblue" d="M1620.28,-152.5C1600.8,-152.5 1580.54,-152.5 1562.1,-152.5"/>
<polygon fill="midnightblue" stroke="midnightblue" points="1620.38,-156 1630.38,-152.5 1620.38,-149 1620.38,-156"/>
</g>
<!-- Node10 -->
<g id="node10" class="node">
<title>Node10</title>
<g id="a_node10"><a xlink:href="classdenoptim_1_1graph_1_1rings_1_1_cyclic_graph_handler.html#ab2b4cde037177c1fc44191de9b023dc3" target="_top" xlink:title="Method to evaluate the closability of a single path in a graph representing a molecule.">
<polygon fill="white" stroke="black" points="1397.5,-88.5 1397.5,-118.5 1589.5,-118.5 1589.5,-88.5 1397.5,-88.5"/>
<text text-anchor="start" x="1405.5" y="-106.5" font-family="Helvetica,sans-Serif" font-size="10.00">denoptim.graph.rings.Cyclic</text>
<text text-anchor="middle" x="1493.5" y="-95.5" font-family="Helvetica,sans-Serif" font-size="10.00">GraphHandler.evaluate3DPathClosability</text>
</a>
</g>
</g>
<!-- Node9&#45;&gt;Node10 -->
<g id="edge10" class="edge">
<title>Node9&#45;&gt;Node10</title>
<path fill="none" stroke="midnightblue" d="M1621.08,-103.5C1610.76,-103.5 1600.22,-103.5 1589.83,-103.5"/>
<polygon fill="midnightblue" stroke="midnightblue" points="1621.3,-107 1631.3,-103.5 1621.3,-100 1621.3,-107"/>
</g>
<!-- Node11 -->
<g id="node11" class="node">
<title>Node11</title>
<g id="a_node11"><a xlink:href="classdenoptim_1_1graph_1_1rings_1_1_cyclic_graph_handler.html#abd43d52fe626625dab3da6a32038e57b" target="_top" xlink:title="Method to evaluate the closability of a single path in a graph representing a molecule.">
<polygon fill="white" stroke="black" points="1174,-88.5 1174,-118.5 1354,-118.5 1354,-88.5 1174,-88.5"/>
<text text-anchor="start" x="1182" y="-106.5" font-family="Helvetica,sans-Serif" font-size="10.00">denoptim.graph.rings.Cyclic</text>
<text text-anchor="middle" x="1264" y="-95.5" font-family="Helvetica,sans-Serif" font-size="10.00">GraphHandler.evaluatePathClosability</text>
</a>
</g>
</g>
<!-- Node10&#45;&gt;Node11 -->
<g id="edge11" class="edge">
<title>Node10&#45;&gt;Node11</title>
<path fill="none" stroke="midnightblue" d="M1387.27,-103.5C1376.26,-103.5 1365.14,-103.5 1354.33,-103.5"/>
<polygon fill="midnightblue" stroke="midnightblue" points="1387.34,-107 1397.34,-103.5 1387.34,-100 1387.34,-107"/>
</g>
<!-- Node12 -->
<g id="node12" class="node">
<title>Node12</title>
<g id="a_node12"><a xlink:href="classdenoptim_1_1graph_1_1rings_1_1_cyclic_graph_handler.html#a3ce96322723f45d9285a248ebcef94d3" target="_top" xlink:title="Identifies all possible ring closing paths and returns them as list of DENOPTIMRings ready to be appe...">
<polygon fill="white" stroke="black" points="949,-136 949,-177 1133,-177 1133,-136 949,-136"/>
<text text-anchor="start" x="957" y="-165" font-family="Helvetica,sans-Serif" font-size="10.00">denoptim.graph.rings.Cyclic</text>
<text text-anchor="start" x="957" y="-154" font-family="Helvetica,sans-Serif" font-size="10.00">GraphHandler.getPossibleCombination</text>
<text text-anchor="middle" x="1041" y="-143" font-family="Helvetica,sans-Serif" font-size="10.00">OfRings</text>
</a>
</g>
</g>
<!-- Node11&#45;&gt;Node12 -->
<g id="edge12" class="edge">
<title>Node11&#45;&gt;Node12</title>
<path fill="none" stroke="midnightblue" d="M1190.28,-120.94C1170.23,-125.75 1148.29,-131.01 1127.59,-135.97"/>
<polygon fill="midnightblue" stroke="midnightblue" points="1191.35,-124.28 1200.26,-118.55 1189.72,-117.47 1191.35,-124.28"/>
</g>
<!-- Node24 -->
<g id="node24" class="node">
<title>Node24</title>
<g id="a_node24"><a xlink:href="classdenoptim_1_1graph_1_1rings_1_1_cyclic_graph_handler.html#a08b02946eaac7c2cbbe6e71332d702e6" target="_top" xlink:title="Identifies a random combination of ring closing paths and returns it as list of DENOPTIMRings ready t...">
<polygon fill="white" stroke="black" points="950,-76 950,-117 1132,-117 1132,-76 950,-76"/>
<text text-anchor="start" x="958" y="-105" font-family="Helvetica,sans-Serif" font-size="10.00">denoptim.graph.rings.Cyclic</text>
<text text-anchor="start" x="958" y="-94" font-family="Helvetica,sans-Serif" font-size="10.00">GraphHandler.getRandomCombination</text>
<text text-anchor="middle" x="1041" y="-83" font-family="Helvetica,sans-Serif" font-size="10.00">OfRings</text>
</a>
</g>
</g>
<!-- Node11&#45;&gt;Node24 -->
<g id="edge26" class="edge">
<title>Node11&#45;&gt;Node24</title>
<path fill="none" stroke="midnightblue" d="M1163.43,-100.35C1153.06,-100.02 1142.56,-99.69 1132.31,-99.36"/>
<polygon fill="midnightblue" stroke="midnightblue" points="1163.64,-103.85 1173.75,-100.67 1163.86,-96.86 1163.64,-103.85"/>
</g>
<!-- Node13 -->
<g id="node13" class="node">
<title>Node13</title>
<g id="a_node13"><a xlink:href="classdenoptim_1_1graph_1_1_d_graph.html#a7a4743d014e860237f4b20703ef9779b" target="_top" xlink:title="Evaluates the possibility of closing rings in this graph and generates all alternative graphs resulti...">
<polygon fill="white" stroke="black" points="732.5,-160.5 732.5,-190.5 887.5,-190.5 887.5,-160.5 732.5,-160.5"/>
<text text-anchor="start" x="740.5" y="-178.5" font-family="Helvetica,sans-Serif" font-size="10.00">denoptim.graph.DGraph.make</text>
<text text-anchor="middle" x="810" y="-167.5" font-family="Helvetica,sans-Serif" font-size="10.00">AllGraphsWithDifferentRingSets</text>
</a>
</g>
</g>
<!-- Node12&#45;&gt;Node13 -->
<g id="edge13" class="edge">
<title>Node12&#45;&gt;Node13</title>
<path fill="none" stroke="midnightblue" d="M938.82,-164.89C921.71,-166.31 904.2,-167.77 887.84,-169.12"/>
<polygon fill="midnightblue" stroke="midnightblue" points="939.16,-168.38 948.84,-164.06 938.58,-161.4 939.16,-168.38"/>
</g>
<!-- Node15 -->
<g id="node15" class="node">
<title>Node15</title>
<g id="a_node15"><a xlink:href="classdenoptim_1_1ga_1_1_e_a_utils.html#a1ddb932d4618434d435e4f85ce5e5eb5" target="_top" xlink:title="Evaluates the possibility of closing rings in a given graph and if any ring can be closed,...">
<polygon fill="white" stroke="black" points="744.5,-81.5 744.5,-111.5 875.5,-111.5 875.5,-81.5 744.5,-81.5"/>
<text text-anchor="start" x="752.5" y="-99.5" font-family="Helvetica,sans-Serif" font-size="10.00">denoptim.ga.EAUtils.setup</text>
<text text-anchor="middle" x="810" y="-88.5" font-family="Helvetica,sans-Serif" font-size="10.00">Rings</text>
</a>
</g>
</g>
<!-- Node12&#45;&gt;Node15 -->
<g id="edge15" class="edge">
<title>Node12&#45;&gt;Node15</title>
<path fill="none" stroke="midnightblue" d="M951.73,-133.37C923.78,-126.05 893.62,-118.15 868.42,-111.54"/>
<polygon fill="midnightblue" stroke="midnightblue" points="950.95,-136.79 961.51,-135.94 952.73,-130.02 950.95,-136.79"/>
</g>
<!-- Node14 -->
<g id="node14" class="node">
<title>Node14</title>
<g id="a_node14"><a xlink:href="classdenoptim_1_1combinatorial_1_1_graph_building_task.html#a3eaee724fc921194fa158714aafe182d" target="_top" xlink:title="Calls the task.">
<polygon fill="white" stroke="black" points="526,-170.5 526,-200.5 671,-200.5 671,-170.5 526,-170.5"/>
<text text-anchor="start" x="534" y="-188.5" font-family="Helvetica,sans-Serif" font-size="10.00">denoptim.combinatorial.Graph</text>
<text text-anchor="middle" x="598.5" y="-177.5" font-family="Helvetica,sans-Serif" font-size="10.00">BuildingTask.call</text>
</a>
</g>
</g>
<!-- Node13&#45;&gt;Node14 -->
<g id="edge14" class="edge">
<title>Node13&#45;&gt;Node14</title>
<path fill="none" stroke="midnightblue" d="M722.06,-179.65C705.16,-180.46 687.63,-181.29 671.29,-182.07"/>
<polygon fill="midnightblue" stroke="midnightblue" points="722.65,-183.13 732.48,-179.15 722.32,-176.13 722.65,-183.13"/>
</g>
<!-- Node16 -->
<g id="node16" class="node">
<title>Node16</title>
<g id="a_node16"><a xlink:href="classdenoptim_1_1ga_1_1_e_a_utils.html#a5cb6bbe9f383bf821f3b1f1c5e60031b" target="_top" xlink:title=" ">
<polygon fill="white" stroke="black" points="535,-121.5 535,-151.5 662,-151.5 662,-121.5 535,-121.5"/>
<text text-anchor="start" x="543" y="-139.5" font-family="Helvetica,sans-Serif" font-size="10.00">denoptim.ga.EAUtils.build</text>
<text text-anchor="middle" x="598.5" y="-128.5" font-family="Helvetica,sans-Serif" font-size="10.00">CandidateByMutation</text>
</a>
</g>
</g>
<!-- Node15&#45;&gt;Node16 -->
<g id="edge16" class="edge">
<title>Node15&#45;&gt;Node16</title>
<path fill="none" stroke="midnightblue" d="M734.44,-110.74C710.75,-115.26 684.81,-120.21 662.06,-124.56"/>
<polygon fill="midnightblue" stroke="midnightblue" points="735.27,-114.14 744.43,-108.83 733.95,-107.27 735.27,-114.14"/>
</g>
<!-- Node21 -->
<g id="node21" class="node">
<title>Node21</title>
<g id="a_node21"><a xlink:href="classdenoptim_1_1ga_1_1_e_a_utils.html#a98553265dd4b441b11c6d97d098edb08" target="_top" xlink:title="Generates a new offspring by performing a crossover operation.">
<polygon fill="white" stroke="black" points="535,-72.5 535,-102.5 662,-102.5 662,-72.5 535,-72.5"/>
<text text-anchor="start" x="543" y="-90.5" font-family="Helvetica,sans-Serif" font-size="10.00">denoptim.ga.EAUtils.build</text>
<text text-anchor="middle" x="598.5" y="-79.5" font-family="Helvetica,sans-Serif" font-size="10.00">CandidateByXOver</text>
</a>
</g>
</g>
<!-- Node15&#45;&gt;Node21 -->
<g id="edge21" class="edge">
<title>Node15&#45;&gt;Node21</title>
<path fill="none" stroke="midnightblue" d="M734.44,-93.3C710.75,-92.28 684.81,-91.16 662.06,-90.19"/>
<polygon fill="midnightblue" stroke="midnightblue" points="734.29,-96.79 744.43,-93.73 734.59,-89.8 734.29,-96.79"/>
</g>
<!-- Node22 -->
<g id="node22" class="node">
<title>Node22</title>
<g id="a_node22"><a xlink:href="classdenoptim_1_1ga_1_1_e_a_utils.html#ad3d2daeb11e68a356e971ca1846596b5" target="_top" xlink:title=" ">
<polygon fill="white" stroke="black" points="535,-23.5 535,-53.5 662,-53.5 662,-23.5 535,-23.5"/>
<text text-anchor="start" x="543" y="-41.5" font-family="Helvetica,sans-Serif" font-size="10.00">denoptim.ga.EAUtils.build</text>
<text text-anchor="middle" x="598.5" y="-30.5" font-family="Helvetica,sans-Serif" font-size="10.00">CandidateFromScratch</text>
</a>
</g>
</g>
<!-- Node15&#45;&gt;Node22 -->
<g id="edge22" class="edge">
<title>Node15&#45;&gt;Node22</title>
<path fill="none" stroke="midnightblue" d="M745.09,-78.81C715.93,-70.73 681.77,-61.28 653.86,-53.55"/>
<polygon fill="midnightblue" stroke="midnightblue" points="744.2,-82.19 754.78,-81.49 746.07,-75.45 744.2,-82.19"/>
</g>
<!-- Node17 -->
<g id="node17" class="node">
<title>Node17</title>
<g id="a_node17"><a xlink:href="classdenoptim_1_1ga_1_1_evolutionary_algorithm.html#a596b2f5f0b097c5b67a6e5163bd6fe66" target="_top" xlink:title="Generates a given number of new candidate items and adds them to the current population.">
<polygon fill="white" stroke="black" points="353,-72.5 353,-102.5 487,-102.5 487,-72.5 353,-72.5"/>
<text text-anchor="start" x="361" y="-90.5" font-family="Helvetica,sans-Serif" font-size="10.00">denoptim.ga.Evolutionary</text>
<text text-anchor="middle" x="420" y="-79.5" font-family="Helvetica,sans-Serif" font-size="10.00">Algorithm.evolvePopulation</text>
</a>
</g>
</g>
<!-- Node16&#45;&gt;Node17 -->
<g id="edge17" class="edge">
<title>Node16&#45;&gt;Node17</title>
<path fill="none" stroke="midnightblue" d="M533.31,-118.68C514.25,-113.39 493.57,-107.65 475.22,-102.55"/>
<polygon fill="midnightblue" stroke="midnightblue" points="532.53,-122.1 543.1,-121.4 534.4,-115.35 532.53,-122.1"/>
</g>
<!-- Node18 -->
<g id="node18" class="node">
<title>Node18</title>
<g id="a_node18"><a xlink:href="classdenoptim_1_1ga_1_1_evolutionary_algorithm.html#a6bfc2fa59b199da6259b5b6bad3d6de7" target="_top" xlink:title=" ">
<polygon fill="white" stroke="black" points="190,-47.5 190,-77.5 314,-77.5 314,-47.5 190,-47.5"/>
<text text-anchor="start" x="198" y="-65.5" font-family="Helvetica,sans-Serif" font-size="10.00">denoptim.ga.Evolutionary</text>
<text text-anchor="middle" x="252" y="-54.5" font-family="Helvetica,sans-Serif" font-size="10.00">Algorithm.run</text>
</a>
</g>
</g>
<!-- Node17&#45;&gt;Node18 -->
<g id="edge18" class="edge">
<title>Node17&#45;&gt;Node18</title>
<path fill="none" stroke="midnightblue" d="M342.9,-76.04C333.21,-74.58 323.41,-73.1 314.01,-71.69"/>
<polygon fill="midnightblue" stroke="midnightblue" points="342.51,-79.52 352.92,-77.55 343.55,-72.6 342.51,-79.52"/>
</g>
<!-- Node19 -->
<g id="node19" class="node">
<title>Node19</title>
<g id="a_node19"><a xlink:href="classdenoptim_1_1ga_1_1_evolutionary_algorithm.html#a0f2063b722b7291daf83d62acaa683d3" target="_top" xlink:title=" ">
<polygon fill="white" stroke="black" points="0,-72.5 0,-102.5 154,-102.5 154,-72.5 0,-72.5"/>
<text text-anchor="start" x="8" y="-90.5" font-family="Helvetica,sans-Serif" font-size="10.00">denoptim.ga.Evolutionary</text>
<text text-anchor="middle" x="77" y="-79.5" font-family="Helvetica,sans-Serif" font-size="10.00">Algorithm.EvolutionaryAlgorithm</text>
</a>
</g>
</g>
<!-- Node18&#45;&gt;Node19 -->
<g id="edge19" class="edge">
<title>Node18&#45;&gt;Node19</title>
<path fill="none" stroke="midnightblue" d="M179.44,-72.84C171.09,-74.05 162.54,-75.28 154.12,-76.5"/>
<polygon fill="midnightblue" stroke="midnightblue" points="180.12,-76.28 189.52,-71.38 179.12,-69.35 180.12,-76.28"/>
</g>
<!-- Node20 -->
<g id="node20" class="node">
<title>Node20</title>
<g id="a_node20"><a xlink:href="classdenoptim_1_1programs_1_1denovo_1_1_g_a_runner.html#a7cafd6d78727b89dce3e2c8d06f0dd7c" target="_top" xlink:title=" ">
<polygon fill="white" stroke="black" points="9.5,-23.5 9.5,-53.5 144.5,-53.5 144.5,-23.5 9.5,-23.5"/>
<text text-anchor="start" x="17.5" y="-41.5" font-family="Helvetica,sans-Serif" font-size="10.00">denoptim.programs.denovo.</text>
<text text-anchor="middle" x="77" y="-30.5" font-family="Helvetica,sans-Serif" font-size="10.00">GARunner.runProgram</text>
</a>
</g>
</g>
<!-- Node18&#45;&gt;Node20 -->
<g id="edge20" class="edge">
<title>Node18&#45;&gt;Node20</title>
<path fill="none" stroke="midnightblue" d="M179.48,-52.58C167.92,-50.97 156,-49.32 144.57,-47.73"/>
<polygon fill="midnightblue" stroke="midnightblue" points="179.13,-56.06 189.52,-53.97 180.1,-49.13 179.13,-56.06"/>
</g>
<!-- Node22&#45;&gt;Node17 -->
<g id="edge23" class="edge">
<title>Node22&#45;&gt;Node17</title>
<path fill="none" stroke="midnightblue" d="M533.31,-56.32C514.25,-61.61 493.57,-67.35 475.22,-72.45"/>
<polygon fill="midnightblue" stroke="midnightblue" points="534.4,-59.65 543.1,-53.6 532.53,-52.9 534.4,-59.65"/>
</g>
<!-- Node23 -->
<g id="node23" class="node">
<title>Node23</title>
<g id="a_node23"><a xlink:href="classdenoptim_1_1ga_1_1_evolutionary_algorithm.html#ad43588620dab3340e0d8b0042ec73618" target="_top" xlink:title="Fills up the population with candidates build from scratch.">
<polygon fill="white" stroke="black" points="350,-23.5 350,-53.5 490,-53.5 490,-23.5 350,-23.5"/>
<text text-anchor="start" x="358" y="-41.5" font-family="Helvetica,sans-Serif" font-size="10.00">denoptim.ga.Evolutionary</text>
<text text-anchor="middle" x="420" y="-30.5" font-family="Helvetica,sans-Serif" font-size="10.00">Algorithm.initializePopulation</text>
</a>
</g>
</g>
<!-- Node22&#45;&gt;Node23 -->
<g id="edge24" class="edge">
<title>Node22&#45;&gt;Node23</title>
<path fill="none" stroke="midnightblue" d="M524.46,-38.5C513.1,-38.5 501.39,-38.5 490.12,-38.5"/>
<polygon fill="midnightblue" stroke="midnightblue" points="524.78,-42 534.78,-38.5 524.78,-35 524.78,-42"/>
</g>
<!-- Node23&#45;&gt;Node18 -->
<g id="edge25" class="edge">
<title>Node23&#45;&gt;Node18</title>
<path fill="none" stroke="midnightblue" d="M339.6,-49.98C331.08,-51.21 322.5,-52.45 314.24,-53.65"/>
<polygon fill="midnightblue" stroke="midnightblue" points="340.17,-53.43 349.56,-48.54 339.16,-46.51 340.17,-53.43"/>
</g>
<!-- Node24&#45;&gt;Node15 -->
<g id="edge27" class="edge">
<title>Node24&#45;&gt;Node15</title>
<path fill="none" stroke="midnightblue" d="M939.58,-96.5C917.89,-96.5 895.52,-96.5 875.63,-96.5"/>
<polygon fill="midnightblue" stroke="midnightblue" points="939.82,-100 949.82,-96.5 939.82,-93 939.82,-100"/>
</g>
<!-- Node26 -->
<g id="node26" class="node">
<title>Node26</title>
<g id="a_node26"><a xlink:href="classdenoptim_1_1molecularmodeling_1_1_multi_molecular_model_builder.html#a1cd879265bf12e9c2980efae1e8e74aa" target="_top" xlink:title="Generate 3D structure by assembling 3D fragments according to attachment point vector and following t...">
<polygon fill="white" stroke="black" points="1169,-7.5 1169,-37.5 1359,-37.5 1359,-7.5 1169,-7.5"/>
<text text-anchor="start" x="1177" y="-25.5" font-family="Helvetica,sans-Serif" font-size="10.00">denoptim.molecularmodeling.</text>
<text text-anchor="middle" x="1264" y="-14.5" font-family="Helvetica,sans-Serif" font-size="10.00">MultiMolecularModelBuilder.build3DTree</text>
</a>
</g>
</g>
<!-- Node25&#45;&gt;Node26 -->
<g id="edge29" class="edge">
<title>Node25&#45;&gt;Node26</title>
<path fill="none" stroke="midnightblue" d="M1417.15,-22.5C1398.55,-22.5 1378.39,-22.5 1359.02,-22.5"/>
<polygon fill="midnightblue" stroke="midnightblue" points="1417.31,-26 1427.31,-22.5 1417.31,-19 1417.31,-26"/>
</g>
<!-- Node27 -->
<g id="node27" class="node">
<title>Node27</title>
<g id="a_node27"><a xlink:href="classdenoptim_1_1molecularmodeling_1_1_multi_molecular_model_builder.html#a6a8e314f3fb37f66c32c8c4d5695b8a4" target="_top" xlink:title="Given the graph representation of the molecular constitution, along with the 3D coordinates of the fr...">
<polygon fill="white" stroke="black" points="962,-2 962,-43 1120,-43 1120,-2 962,-2"/>
<text text-anchor="start" x="970" y="-31" font-family="Helvetica,sans-Serif" font-size="10.00">denoptim.molecularmodeling.</text>
<text text-anchor="start" x="970" y="-20" font-family="Helvetica,sans-Serif" font-size="10.00">MultiMolecularModelBuilder.build</text>
<text text-anchor="middle" x="1041" y="-9" font-family="Helvetica,sans-Serif" font-size="10.00">Multi3DStructure</text>
</a>
</g>
</g>
<!-- Node26&#45;&gt;Node27 -->
<g id="edge30" class="edge">
<title>Node26&#45;&gt;Node27</title>
<path fill="none" stroke="midnightblue" d="M1158.65,-22.5C1145.74,-22.5 1132.73,-22.5 1120.31,-22.5"/>
<polygon fill="midnightblue" stroke="midnightblue" points="1158.96,-26 1168.96,-22.5 1158.96,-19 1158.96,-26"/>
</g>
<!-- Node28 -->
<g id="node28" class="node">
<title>Node28</title>
<g id="a_node28"><a xlink:href="classdenoptim_1_1programs_1_1moldecularmodelbuilder_1_1_molecular_model_builder.html#ad2e44290de6a861274def677044e9754" target="_top" xlink:title=" ">
<polygon fill="white" stroke="black" points="707,-7.5 707,-37.5 913,-37.5 913,-7.5 707,-7.5"/>
<text text-anchor="start" x="715" y="-25.5" font-family="Helvetica,sans-Serif" font-size="10.00">denoptim.programs.moldecularmodelbuilder.</text>
<text text-anchor="middle" x="810" y="-14.5" font-family="Helvetica,sans-Serif" font-size="10.00">MolecularModelBuilder.runProgram</text>
</a>
</g>
</g>
<!-- Node27&#45;&gt;Node28 -->
<g id="edge31" class="edge">
<title>Node27&#45;&gt;Node28</title>
<path fill="none" stroke="midnightblue" d="M951.79,-22.5C939.13,-22.5 926.01,-22.5 913.11,-22.5"/>
<polygon fill="midnightblue" stroke="midnightblue" points="951.83,-26 961.83,-22.5 951.83,-19 951.83,-26"/>
</g>
<!-- Node29&#45;&gt;Node25 -->
<g id="edge33" class="edge">
<title>Node29&#45;&gt;Node25</title>
<path fill="none" stroke="midnightblue" d="M1627.19,-18.2C1604.77,-18.93 1580.85,-19.7 1559.58,-20.39"/>
<polygon fill="midnightblue" stroke="midnightblue" points="1627.49,-21.69 1637.37,-17.87 1627.26,-14.7 1627.49,-21.69"/>
</g>
</g>
</svg>
        <g id="navigator" transform="translate(0 0)" fill="#404254">
                <rect fill="#f2f5e9" fill-opacity="0.5" stroke="#606060" stroke-width=".5" x="0" y="0" width="60" height="60"/>
                <use id="zoomplus" xlink:href="#zoomPlus" x="17" y="9" onmousedown="handleZoom(evt,'in')"/>
                <use id="zoomminus" xlink:href="#zoomMin" x="42" y="9" onmousedown="handleZoom(evt,'out')"/>
                <use id="reset" xlink:href="#resetDef" x="30" y="36" onmousedown="handleReset()"/>
                <g id="arrowUp" xlink:href="#dirArrow" transform="translate(30 24)" onmousedown="handlePan(0,-1)">
                  <use xlink:href="#rim" fill="#404040">
                        <set attributeName="fill" to="#808080" begin="arrowUp.mouseover" end="arrowUp.mouseout"/>
                  </use>
                  <path fill="none" stroke="white" stroke-width="1.5" d="M0,-3.0v7 M-2.5,-0.5L0,-3.0L2.5,-0.5"/>
                </g>
                <g id="arrowRight" xlink:href="#dirArrow" transform="rotate(90) translate(36 -43)" onmousedown="handlePan(1,0)">
                  <use xlink:href="#rim" fill="#404040">
                        <set attributeName="fill" to="#808080" begin="arrowRight.mouseover" end="arrowRight.mouseout"/>
                  </use>
                  <path fill="none" stroke="white" stroke-width="1.5" d="M0,-3.0v7 M-2.5,-0.5L0,-3.0L2.5,-0.5"/>
                </g>
                <g id="arrowDown" xlink:href="#dirArrow" transform="rotate(180) translate(-30 -48)" onmousedown="handlePan(0,1)">
                  <use xlink:href="#rim" fill="#404040">
                        <set attributeName="fill" to="#808080" begin="arrowDown.mouseover" end="arrowDown.mouseout"/>
                  </use>
                  <path fill="none" stroke="white" stroke-width="1.5" d="M0,-3.0v7 M-2.5,-0.5L0,-3.0L2.5,-0.5"/>
                </g>
                <g id="arrowLeft" xlink:href="#dirArrow" transform="rotate(270) translate(-36 17)" onmousedown="handlePan(-1,0)">
                  <use xlink:href="#rim" fill="#404040">
                        <set attributeName="fill" to="#808080" begin="arrowLeft.mouseover" end="arrowLeft.mouseout"/>
                  </use>
                  <path fill="none" stroke="white" stroke-width="1.5" d="M0,-3.0v7 M-2.5,-0.5L0,-3.0L2.5,-0.5"/>
                </g>
        </g>
        <svg viewBox="0 0 15 15" width="100%" height="30px" preserveAspectRatio="xMaxYMin meet">
         <g id="arrow_out" transform="scale(0.3 0.3)">
          <a xlink:href="classdenoptim_1_1utils_1_1_math_utils_a334843fcf3bc5056d3262754feac30cf_icgraph_org.svg" target="_base">
           <rect id="button" ry="5" rx="5" y="6" x="6" height="38" width="38"
                fill="#f2f5e9" fill-opacity="0.5" stroke="#606060" stroke-width="1.0"/>
           <path id="arrow"
             d="M 11.500037,31.436501 C 11.940474,20.09759 22.043105,11.32322 32.158766,21.979434 L 37.068811,17.246167 C 37.068811,17.246167 37.088388,32 37.088388,32 L 22.160133,31.978069 C 22.160133,31.978069 26.997745,27.140456 26.997745,27.140456 C 18.528582,18.264221 13.291696,25.230495 11.500037,31.436501 z"
             style="fill:#404040;"/>
          </a>
         </g>
        </svg>
</svg>
