<?xml version="1.0" encoding="UTF-8" standalone="no"?>
<!DOCTYPE svg PUBLIC "-//W3C//DTD SVG 1.1//EN"
 "http://www.w3.org/Graphics/SVG/1.1/DTD/svg11.dtd">
<!-- Generated by graphviz version 3.0.0 (20220413.0242)
 -->
<!-- Title: denoptim.gui.FragmentViewPanel Pages: 1 -->
<svg width="1294pt" height="960pt"
 viewBox="0.00 0.00 1294.00 959.50" xmlns="http://www.w3.org/2000/svg" xmlns:xlink="http://www.w3.org/1999/xlink">
<g id="graph0" class="graph" transform="scale(1 1) rotate(0) translate(4 955.5)">
<title>denoptim.gui.FragmentViewPanel</title>
<polygon fill="white" stroke="transparent" points="-4,4 -4,-955.5 1290,-955.5 1290,4 -4,4"/>
<!-- Node1 -->
<g id="node1" class="node">
<title>Node1</title>
<g id="a_node1"><a xlink:title="A panel with a molecular viewer and attachment point table.">
<polygon fill="#bfbfbf" stroke="black" points="940,-746.5 940,-776.5 1077,-776.5 1077,-746.5 940,-746.5"/>
<text text-anchor="start" x="948" y="-764.5" font-family="Helvetica,sans-Serif" font-size="10.00">denoptim.gui.FragmentView</text>
<text text-anchor="middle" x="1008.5" y="-753.5" font-family="Helvetica,sans-Serif" font-size="10.00">Panel</text>
</a>
</g>
</g>
<!-- Node2 -->
<g id="node2" class="node">
<title>Node2</title>
<g id="a_node2"><a xlink:title=" ">
<polygon fill="white" stroke="black" points="712.5,-790 712.5,-809 776.5,-809 776.5,-790 712.5,-790"/>
<text text-anchor="middle" x="744.5" y="-797" font-family="Helvetica,sans-Serif" font-size="10.00">JSplitPane</text>
</a>
</g>
</g>
<!-- Node2&#45;&gt;Node1 -->
<g id="edge1" class="edge">
<title>Node2&#45;&gt;Node1</title>
<path fill="none" stroke="midnightblue" d="M786.85,-794.2C822.65,-789.53 875.79,-782.42 922,-775.5 927.8,-774.63 933.82,-773.7 939.85,-772.75"/>
<polygon fill="midnightblue" stroke="midnightblue" points="786.25,-790.75 776.78,-795.51 787.15,-797.69 786.25,-790.75"/>
</g>
<!-- Node3 -->
<g id="node3" class="node">
<title>Node3</title>
<g id="a_node3"><a xlink:href="interfacedenoptim_1_1gui_1_1_i_vertex_a_p_selection.html" target="_top" xlink:title="Interface for all vertex viewers that intend to allow selection of attachment points.">
<polygon fill="white" stroke="black" points="665.5,-752 665.5,-771 823.5,-771 823.5,-752 665.5,-752"/>
<text text-anchor="middle" x="744.5" y="-759" font-family="Helvetica,sans-Serif" font-size="10.00">denoptim.gui.IVertexAPSelection</text>
</a>
</g>
</g>
<!-- Node3&#45;&gt;Node1 -->
<g id="edge2" class="edge">
<title>Node3&#45;&gt;Node1</title>
<path fill="none" stroke="midnightblue" d="M833.86,-761.5C868.48,-761.5 907.55,-761.5 939.85,-761.5"/>
<polygon fill="midnightblue" stroke="midnightblue" points="833.75,-758 823.75,-761.5 833.75,-765 833.75,-758"/>
</g>
<!-- Node4 -->
<g id="node4" class="node">
<title>Node4</title>
<g id="a_node4"><a xlink:href="classdenoptim_1_1graph_1_1_fragment.html" target="_top" xlink:title="Class representing a continuously connected portion of chemical object holding attachment points.">
<polygon fill="white" stroke="black" points="681.5,-588 681.5,-607 807.5,-607 807.5,-588 681.5,-588"/>
<text text-anchor="middle" x="744.5" y="-595" font-family="Helvetica,sans-Serif" font-size="10.00">denoptim.graph.Fragment</text>
</a>
</g>
</g>
<!-- Node4&#45;&gt;Node1 -->
<g id="edge3" class="edge">
<title>Node4&#45;&gt;Node1</title>
<path fill="none" stroke="#9a32cd" stroke-dasharray="5,2" d="M817.56,-602.03C851.66,-607.08 891.49,-617.44 922,-638.5 962.45,-666.42 989.78,-720.16 1001.31,-746.37"/>
<polygon fill="#9a32cd" stroke="#9a32cd" points="818.02,-598.56 807.64,-600.69 817.08,-605.5 818.02,-598.56"/>
<text text-anchor="middle" x="887" y="-641.5" font-family="Helvetica,sans-Serif" font-size="10.00"> fragment</text>
</g>
<!-- Node5 -->
<g id="node5" class="node">
<title>Node5</title>
<g id="a_node5"><a xlink:href="classdenoptim_1_1graph_1_1_vertex.html" target="_top" xlink:title="A vertex is a data structure that has an identity and holds a list of AttachmentPoints.">
<polygon fill="white" stroke="black" points="354,-297 354,-316 467,-316 467,-297 354,-297"/>
<text text-anchor="middle" x="410.5" y="-304" font-family="Helvetica,sans-Serif" font-size="10.00">denoptim.graph.Vertex</text>
</a>
</g>
</g>
<!-- Node5&#45;&gt;Node4 -->
<g id="edge4" class="edge">
<title>Node5&#45;&gt;Node4</title>
<path fill="none" stroke="midnightblue" d="M477.2,-311.8C536.14,-318.03 616.44,-330.7 637,-354.5 668.92,-391.45 623.77,-535.96 655,-573.5 661.82,-581.7 671.14,-587.25 681.17,-590.98"/>
<polygon fill="midnightblue" stroke="midnightblue" points="477.5,-308.31 467.2,-310.78 476.79,-315.27 477.5,-308.31"/>
</g>
<!-- Node16 -->
<g id="node16" class="node">
<title>Node16</title>
<g id="a_node16"><a xlink:href="classdenoptim_1_1graph_1_1_template.html" target="_top" xlink:title=" ">
<polygon fill="white" stroke="black" points="682,-361 682,-380 807,-380 807,-361 682,-361"/>
<text text-anchor="middle" x="744.5" y="-368" font-family="Helvetica,sans-Serif" font-size="10.00">denoptim.graph.Template</text>
</a>
</g>
</g>
<!-- Node5&#45;&gt;Node16 -->
<g id="edge19" class="edge">
<title>Node5&#45;&gt;Node16</title>
<path fill="none" stroke="midnightblue" d="M471.58,-295.77C519.8,-290.38 587.4,-290.35 637,-320.5 650.29,-328.58 642.4,-341.39 655,-350.5 662.91,-356.22 672.18,-360.35 681.69,-363.31"/>
<polygon fill="midnightblue" stroke="midnightblue" points="471.1,-292.3 461.6,-296.99 471.95,-299.25 471.1,-292.3"/>
</g>
<!-- Node6 -->
<g id="node6" class="node">
<title>Node6</title>
<g id="a_node6"><a xlink:title=" ">
<polygon fill="white" stroke="black" points="52.5,-434 52.5,-453 111.5,-453 111.5,-434 52.5,-434"/>
<text text-anchor="middle" x="82" y="-441" font-family="Helvetica,sans-Serif" font-size="10.00">Cloneable</text>
</a>
</g>
</g>
<!-- Node6&#45;&gt;Node5 -->
<g id="edge5" class="edge">
<title>Node6&#45;&gt;Node5</title>
<path fill="none" stroke="midnightblue" d="M121.92,-437.16C178.72,-427.57 278.93,-409.25 291,-397.5 314.64,-374.5 285.01,-348.14 309,-325.5 321.01,-314.17 337.56,-308.56 353.76,-306.02"/>
<polygon fill="midnightblue" stroke="midnightblue" points="121.13,-433.74 111.85,-438.84 122.29,-440.65 121.13,-433.74"/>
</g>
<!-- Node7 -->
<g id="node7" class="node">
<title>Node7</title>
<g id="a_node7"><a xlink:href="classdenoptim_1_1graph_1_1_d_graph.html" target="_top" xlink:title="Container for the list of vertices and the edges that connect them.">
<polygon fill="white" stroke="black" points="949.5,-337 949.5,-356 1067.5,-356 1067.5,-337 949.5,-337"/>
<text text-anchor="middle" x="1008.5" y="-344" font-family="Helvetica,sans-Serif" font-size="10.00">denoptim.graph.DGraph</text>
</a>
</g>
</g>
<!-- Node6&#45;&gt;Node7 -->
<g id="edge7" class="edge">
<title>Node6&#45;&gt;Node7</title>
<path fill="none" stroke="midnightblue" d="M121.82,-444.89C255.33,-449.42 694.93,-462.2 834,-439.5 874.64,-432.86 885.48,-429.53 922,-410.5 951.43,-395.16 981.51,-369.98 996.94,-356.22"/>
<polygon fill="midnightblue" stroke="midnightblue" points="121.78,-441.39 111.66,-444.54 121.54,-448.38 121.78,-441.39"/>
</g>
<!-- Node13 -->
<g id="node13" class="node">
<title>Node13</title>
<g id="a_node13"><a xlink:href="classdenoptim_1_1graph_1_1_candidate.html" target="_top" xlink:title="A candidate is the combination of a denoptim graph with molecular representation and may include also...">
<polygon fill="white" stroke="black" points="1158,-446 1158,-465 1286,-465 1286,-446 1158,-446"/>
<text text-anchor="middle" x="1222" y="-453" font-family="Helvetica,sans-Serif" font-size="10.00">denoptim.graph.Candidate</text>
</a>
</g>
</g>
<!-- Node6&#45;&gt;Node13 -->
<g id="edge15" class="edge">
<title>Node6&#45;&gt;Node13</title>
<path fill="none" stroke="midnightblue" d="M85.71,-463.3C99.77,-557.02 172.99,-951.5 409.5,-951.5 409.5,-951.5 409.5,-951.5 1009.5,-951.5 1119.26,-951.5 1205.4,-535.31 1219.1,-465.41"/>
<polygon fill="midnightblue" stroke="midnightblue" points="89.15,-462.59 84.26,-453.19 82.22,-463.59 89.15,-462.59"/>
</g>
<!-- Node7&#45;&gt;Node5 -->
<g id="edge6" class="edge">
<title>Node7&#45;&gt;Node5</title>
<path fill="none" stroke="#9a32cd" stroke-dasharray="5,2" d="M1004.27,-326.72C993.39,-267.79 951.88,-94.79 834,-50.5 759.53,-22.52 728.11,-19.14 655,-50.5 529.86,-104.18 438.64,-257.27 416.62,-296.99"/>
<polygon fill="#9a32cd" stroke="#9a32cd" points="1000.88,-327.66 1006.05,-336.91 1007.78,-326.45 1000.88,-327.66"/>
<text text-anchor="middle" x="744.5" y="-53.5" font-family="Helvetica,sans-Serif" font-size="10.00"> owner</text>
</g>
<!-- Node7&#45;&gt;Node13 -->
<g id="edge16" class="edge">
<title>Node7&#45;&gt;Node13</title>
<path fill="none" stroke="#9a32cd" stroke-dasharray="5,2" d="M1034.78,-361.22C1051.68,-370.94 1074.5,-383.8 1095,-394.5 1131.62,-413.62 1175.17,-434.25 1200.29,-445.95"/>
<polygon fill="#9a32cd" stroke="#9a32cd" points="1036.46,-358.15 1026.05,-356.18 1032.96,-364.21 1036.46,-358.15"/>
<text text-anchor="middle" x="1117.5" y="-419.5" font-family="Helvetica,sans-Serif" font-size="10.00"> graph</text>
</g>
<!-- Node7&#45;&gt;Node16 -->
<g id="edge20" class="edge">
<title>Node7&#45;&gt;Node16</title>
<path fill="none" stroke="#9a32cd" stroke-dasharray="5,2" d="M938.84,-345.63C933.14,-345.58 927.47,-345.53 922,-345.5 890.89,-345.32 882.83,-341.3 852,-345.5 843.77,-346.62 842.05,-348.47 834,-350.5 819.64,-354.11 803.89,-357.77 789.72,-360.95"/>
<polygon fill="#9a32cd" stroke="#9a32cd" points="939.06,-349.13 949.09,-345.73 939.12,-342.13 939.06,-349.13"/>
<text text-anchor="middle" x="887" y="-348.5" font-family="Helvetica,sans-Serif" font-size="10.00"> innerGraph</text>
</g>
<!-- Node8 -->
<g id="node8" class="node">
<title>Node8</title>
<g id="a_node8"><a xlink:title=" ">
<polygon fill="white" stroke="black" points="678.5,-399.5 678.5,-429.5 810.5,-429.5 810.5,-399.5 678.5,-399.5"/>
<text text-anchor="start" x="686.5" y="-417.5" font-family="Helvetica,sans-Serif" font-size="10.00">ArrayList&lt; denoptim.graph.</text>
<text text-anchor="middle" x="744.5" y="-406.5" font-family="Helvetica,sans-Serif" font-size="10.00">Vertex &gt;</text>
</a>
</g>
</g>
<!-- Node8&#45;&gt;Node7 -->
<g id="edge8" class="edge">
<title>Node8&#45;&gt;Node7</title>
<path fill="none" stroke="#9a32cd" stroke-dasharray="5,2" d="M820.74,-402.54C852.32,-396.76 889.24,-388.99 922,-379.5 944.16,-373.08 968.65,-363.34 985.71,-356.11"/>
<polygon fill="#9a32cd" stroke="#9a32cd" points="819.92,-399.13 810.69,-404.34 821.15,-406.02 819.92,-399.13"/>
<text text-anchor="middle" x="887" y="-398.5" font-family="Helvetica,sans-Serif" font-size="10.00"> gVertices</text>
</g>
<!-- Node9 -->
<g id="node9" class="node">
<title>Node9</title>
<g id="a_node9"><a xlink:title=" ">
<polygon fill="white" stroke="black" points="678.5,-311.5 678.5,-341.5 810.5,-341.5 810.5,-311.5 678.5,-311.5"/>
<text text-anchor="start" x="686.5" y="-329.5" font-family="Helvetica,sans-Serif" font-size="10.00">ArrayList&lt; denoptim.graph.</text>
<text text-anchor="middle" x="744.5" y="-318.5" font-family="Helvetica,sans-Serif" font-size="10.00">Edge &gt;</text>
</a>
</g>
</g>
<!-- Node9&#45;&gt;Node7 -->
<g id="edge9" class="edge">
<title>Node9&#45;&gt;Node7</title>
<path fill="none" stroke="#9a32cd" stroke-dasharray="5,2" d="M820.92,-312.47C852.37,-308.81 889.16,-307.38 922,-313.5 945.93,-317.96 971.8,-328.87 988.74,-336.94"/>
<polygon fill="#9a32cd" stroke="#9a32cd" points="820.39,-309.01 810.91,-313.73 821.27,-315.95 820.39,-309.01"/>
<text text-anchor="middle" x="887" y="-316.5" font-family="Helvetica,sans-Serif" font-size="10.00"> gEdges</text>
</g>
<!-- Node10 -->
<g id="node10" class="node">
<title>Node10</title>
<g id="a_node10"><a xlink:title=" ">
<polygon fill="white" stroke="black" points="678.5,-262.5 678.5,-292.5 810.5,-292.5 810.5,-262.5 678.5,-262.5"/>
<text text-anchor="start" x="686.5" y="-280.5" font-family="Helvetica,sans-Serif" font-size="10.00">ArrayList&lt; denoptim.graph.</text>
<text text-anchor="middle" x="744.5" y="-269.5" font-family="Helvetica,sans-Serif" font-size="10.00">Ring &gt;</text>
</a>
</g>
</g>
<!-- Node10&#45;&gt;Node7 -->
<g id="edge10" class="edge">
<title>Node10&#45;&gt;Node7</title>
<path fill="none" stroke="#9a32cd" stroke-dasharray="5,2" d="M820.82,-277.34C852.71,-279.16 889.84,-283.8 922,-294.5 950.68,-304.04 979.87,-324.64 995.63,-336.85"/>
<polygon fill="#9a32cd" stroke="#9a32cd" points="820.82,-273.84 810.66,-276.85 820.48,-280.83 820.82,-273.84"/>
<text text-anchor="middle" x="887" y="-297.5" font-family="Helvetica,sans-Serif" font-size="10.00"> gRings</text>
</g>
<!-- Node11 -->
<g id="node11" class="node">
<title>Node11</title>
<g id="a_node11"><a xlink:title=" ">
<polygon fill="white" stroke="black" points="667,-213.5 667,-243.5 822,-243.5 822,-213.5 667,-213.5"/>
<text text-anchor="start" x="675" y="-231.5" font-family="Helvetica,sans-Serif" font-size="10.00">ArrayList&lt; denoptim.graph.rings.</text>
<text text-anchor="middle" x="744.5" y="-220.5" font-family="Helvetica,sans-Serif" font-size="10.00">ClosableChain &gt;</text>
</a>
</g>
</g>
<!-- Node11&#45;&gt;Node7 -->
<g id="edge11" class="edge">
<title>Node11&#45;&gt;Node7</title>
<path fill="none" stroke="#9a32cd" stroke-dasharray="5,2" d="M832,-236.91C861.74,-242.28 894.47,-251.08 922,-265.5 956.6,-283.62 987.16,-319.79 1000.45,-336.99"/>
<polygon fill="#9a32cd" stroke="#9a32cd" points="832.48,-233.44 822.04,-235.21 831.31,-240.34 832.48,-233.44"/>
<text text-anchor="middle" x="887" y="-268.5" font-family="Helvetica,sans-Serif" font-size="10.00"> closableChains</text>
</g>
<!-- Node12 -->
<g id="node12" class="node">
<title>Node12</title>
<g id="a_node12"><a xlink:title=" ">
<polygon fill="white" stroke="black" points="344.5,-553.5 344.5,-583.5 476.5,-583.5 476.5,-553.5 344.5,-553.5"/>
<text text-anchor="start" x="352.5" y="-571.5" font-family="Helvetica,sans-Serif" font-size="10.00">ArrayList&lt; denoptim.graph.</text>
<text text-anchor="middle" x="410.5" y="-560.5" font-family="Helvetica,sans-Serif" font-size="10.00">SymmetricSet &gt;</text>
</a>
</g>
</g>
<!-- Node12&#45;&gt;Node4 -->
<g id="edge34" class="edge">
<title>Node12&#45;&gt;Node4</title>
<path fill="none" stroke="#9a32cd" stroke-dasharray="5,2" d="M486.66,-575.07C545.41,-580.2 626.1,-587.25 681.26,-592.06"/>
<polygon fill="#9a32cd" stroke="#9a32cd" points="486.96,-571.58 476.7,-574.19 486.35,-578.55 486.96,-571.58"/>
<text text-anchor="middle" x="583.5" y="-590.5" font-family="Helvetica,sans-Serif" font-size="10.00"> lstSymAPs</text>
</g>
<!-- Node12&#45;&gt;Node7 -->
<g id="edge12" class="edge">
<title>Node12&#45;&gt;Node7</title>
<path fill="none" stroke="#9a32cd" stroke-dasharray="5,2" d="M486.82,-565.81C620.96,-560.31 890.22,-545.85 922,-517.5 949.52,-492.95 924.59,-470 940,-436.5 955.02,-403.85 983.32,-371.64 998.05,-356.1"/>
<polygon fill="#9a32cd" stroke="#9a32cd" points="486.47,-562.32 476.62,-566.22 486.75,-569.31 486.47,-562.32"/>
<text text-anchor="middle" x="744.5" y="-559.5" font-family="Helvetica,sans-Serif" font-size="10.00"> symVertices</text>
</g>
<!-- Node13&#45;&gt;Node7 -->
<g id="edge13" class="edge">
<title>Node13&#45;&gt;Node7</title>
<path fill="none" stroke="#9a32cd" stroke-dasharray="5,2" d="M1205.56,-437.8C1190.4,-421.47 1165.85,-397.67 1140,-383.5 1116.36,-370.54 1087.76,-361.77 1063.36,-356.04"/>
<polygon fill="#9a32cd" stroke="#9a32cd" points="1203.28,-440.5 1212.59,-445.57 1208.47,-435.8 1203.28,-440.5"/>
<text text-anchor="middle" x="1117.5" y="-386.5" font-family="Helvetica,sans-Serif" font-size="10.00"> candidate</text>
</g>
<!-- Node14 -->
<g id="node14" class="node">
<title>Node14</title>
<g id="a_node14"><a xlink:title=" ">
<polygon fill="white" stroke="black" points="944.5,-446 944.5,-465 1072.5,-465 1072.5,-446 944.5,-446"/>
<text text-anchor="middle" x="1008.5" y="-453" font-family="Helvetica,sans-Serif" font-size="10.00">Comparable&lt; Candidate &gt;</text>
</a>
</g>
</g>
<!-- Node14&#45;&gt;Node13 -->
<g id="edge14" class="edge">
<title>Node14&#45;&gt;Node13</title>
<path fill="none" stroke="midnightblue" d="M1082.95,-455.5C1107.33,-455.5 1134.25,-455.5 1157.79,-455.5"/>
<polygon fill="midnightblue" stroke="midnightblue" points="1082.67,-452 1072.67,-455.5 1082.67,-459 1082.67,-452"/>
</g>
<!-- Node15 -->
<g id="node15" class="node">
<title>Node15</title>
<g id="a_node15"><a xlink:title=" ">
<polygon fill="white" stroke="black" points="368.5,-493 368.5,-512 452.5,-512 452.5,-493 368.5,-493"/>
<text text-anchor="middle" x="410.5" y="-500" font-family="Helvetica,sans-Serif" font-size="10.00">IAtomContainer</text>
</a>
</g>
</g>
<!-- Node15&#45;&gt;Node4 -->
<g id="edge35" class="edge">
<title>Node15&#45;&gt;Node4</title>
<path fill="none" stroke="#9a32cd" stroke-dasharray="5,2" d="M462.39,-513.49C508.7,-524.19 578.54,-542.1 637,-564.5 645.35,-567.7 646.64,-570.31 655,-573.5 669.88,-579.17 686.63,-584.07 701.53,-587.94"/>
<polygon fill="#9a32cd" stroke="#9a32cd" points="463.12,-510.07 452.59,-511.25 461.56,-516.89 463.12,-510.07"/>
<text text-anchor="middle" x="583.5" y="-567.5" font-family="Helvetica,sans-Serif" font-size="10.00"> mol</text>
</g>
<!-- Node15&#45;&gt;Node13 -->
<g id="edge17" class="edge">
<title>Node15&#45;&gt;Node13</title>
<path fill="none" stroke="#9a32cd" stroke-dasharray="5,2" d="M463.12,-500.98C575.03,-497.55 848.33,-488.38 1077,-474.5 1105.04,-472.8 1112.13,-473.01 1140,-469.5 1149.77,-468.27 1160.16,-466.69 1170.12,-465.03"/>
<polygon fill="#9a32cd" stroke="#9a32cd" points="462.69,-497.49 452.8,-501.3 462.91,-504.49 462.69,-497.49"/>
<text text-anchor="middle" x="887" y="-488.5" font-family="Helvetica,sans-Serif" font-size="10.00"> iac</text>
</g>
<!-- Node15&#45;&gt;Node16 -->
<g id="edge21" class="edge">
<title>Node15&#45;&gt;Node16</title>
<path fill="none" stroke="#9a32cd" stroke-dasharray="5,2" d="M446.18,-489.27C491.22,-471.6 571.8,-438.35 637,-402.5 645.43,-397.87 646.16,-394.29 655,-390.5 664.99,-386.22 676.02,-382.79 686.81,-380.07"/>
<polygon fill="#9a32cd" stroke="#9a32cd" points="444.91,-486.01 436.86,-492.9 447.45,-492.53 444.91,-486.01"/>
<text text-anchor="middle" x="583.5" y="-455.5" font-family="Helvetica,sans-Serif" font-size="10.00"> mol</text>
</g>
<!-- Node16&#45;&gt;Node7 -->
<g id="edge18" class="edge">
<title>Node16&#45;&gt;Node7</title>
<path fill="none" stroke="#9a32cd" stroke-dasharray="5,2" d="M817.44,-366.78C849.49,-364.82 887.68,-362.07 922,-358.5 930.8,-357.58 940.08,-356.45 949.16,-355.26"/>
<polygon fill="#9a32cd" stroke="#9a32cd" points="817.04,-363.3 807.26,-367.39 817.45,-370.28 817.04,-363.3"/>
<text text-anchor="middle" x="887" y="-367.5" font-family="Helvetica,sans-Serif" font-size="10.00"> templateJacket</text>
</g>
<!-- Node17 -->
<g id="node17" class="node">
<title>Node17</title>
<g id="a_node17"><a xlink:href="enumdenoptim_1_1graph_1_1_template_1_1_contract_level.html" target="_top" xlink:title="Enum specifying to what extent the template&#39;s inner graph can be changed.">
<polygon fill="white" stroke="black" points="346.5,-384.5 346.5,-414.5 474.5,-414.5 474.5,-384.5 346.5,-384.5"/>
<text text-anchor="start" x="354.5" y="-402.5" font-family="Helvetica,sans-Serif" font-size="10.00">denoptim.graph.Template.</text>
<text text-anchor="middle" x="410.5" y="-391.5" font-family="Helvetica,sans-Serif" font-size="10.00">ContractLevel</text>
</a>
</g>
</g>
<!-- Node17&#45;&gt;Node16 -->
<g id="edge22" class="edge">
<title>Node17&#45;&gt;Node16</title>
<path fill="none" stroke="#9a32cd" stroke-dasharray="5,2" d="M484.75,-393.1C543.88,-387.94 626.13,-380.75 681.91,-375.88"/>
<polygon fill="#9a32cd" stroke="#9a32cd" points="484.39,-389.62 474.73,-393.98 484.99,-396.59 484.39,-389.62"/>
<text text-anchor="middle" x="583.5" y="-390.5" font-family="Helvetica,sans-Serif" font-size="10.00"> contractLevel</text>
</g>
<!-- Node18 -->
<g id="node18" class="node">
<title>Node18</title>
<g id="a_node18"><a xlink:title=" ">
<polygon fill="white" stroke="black" points="330.5,-335.5 330.5,-365.5 490.5,-365.5 490.5,-335.5 330.5,-335.5"/>
<text text-anchor="start" x="338.5" y="-353.5" font-family="Helvetica,sans-Serif" font-size="10.00">List&lt; denoptim.graph.Attachment</text>
<text text-anchor="middle" x="410.5" y="-342.5" font-family="Helvetica,sans-Serif" font-size="10.00">Point &gt;</text>
</a>
</g>
</g>
<!-- Node18&#45;&gt;Node16 -->
<g id="edge23" class="edge">
<title>Node18&#45;&gt;Node16</title>
<path fill="none" stroke="#9a32cd" stroke-dasharray="5,2" d="M500.74,-355.88C558.03,-359.33 630.96,-363.72 681.86,-366.79"/>
<polygon fill="#9a32cd" stroke="#9a32cd" points="500.79,-352.37 490.6,-355.27 500.37,-359.36 500.79,-352.37"/>
<text text-anchor="middle" x="583.5" y="-367.5" font-family="Helvetica,sans-Serif" font-size="10.00"> requiredAPs</text>
</g>
<!-- Node19 -->
<g id="node19" class="node">
<title>Node19</title>
<g id="a_node19"><a xlink:href="classdenoptim_1_1graph_1_1_a_p_tree_map.html" target="_top" xlink:title="Attachment point mapping where keys are sorted by natural ordering, i.e., by AttachmentPoint#compareT...">
<polygon fill="white" stroke="black" points="342,-6 342,-25 479,-25 479,-6 342,-6"/>
<text text-anchor="middle" x="410.5" y="-13" font-family="Helvetica,sans-Serif" font-size="10.00">denoptim.graph.APTreeMap</text>
</a>
</g>
</g>
<!-- Node19&#45;&gt;Node16 -->
<g id="edge24" class="edge">
<title>Node19&#45;&gt;Node16</title>
<path fill="none" stroke="#9a32cd" stroke-dasharray="5,2" d="M430.54,-31.81C474.1,-70.17 581.5,-171.07 637,-278.5 652.14,-307.8 631.41,-327.44 655,-350.5 662.43,-357.77 671.92,-362.62 681.9,-365.81"/>
<polygon fill="#9a32cd" stroke="#9a32cd" points="432.78,-29.12 422.95,-25.18 428.18,-34.39 432.78,-29.12"/>
<text text-anchor="middle" x="583.5" y="-281.5" font-family="Helvetica,sans-Serif" font-size="10.00"> innerToOuterAPs</text>
</g>
<!-- Node20 -->
<g id="node20" class="node">
<title>Node20</title>
<g id="a_node20"><a xlink:title=" ">
<polygon fill="white" stroke="black" points="12.5,-0.5 12.5,-30.5 151.5,-30.5 151.5,-0.5 12.5,-0.5"/>
<text text-anchor="start" x="20.5" y="-18.5" font-family="Helvetica,sans-Serif" font-size="10.00">TreeMap&lt; AttachmentPoint,</text>
<text text-anchor="middle" x="82" y="-7.5" font-family="Helvetica,sans-Serif" font-size="10.00"> AttachmentPoint &gt;</text>
</a>
</g>
</g>
<!-- Node20&#45;&gt;Node19 -->
<g id="edge25" class="edge">
<title>Node20&#45;&gt;Node19</title>
<path fill="none" stroke="midnightblue" d="M161.9,-15.5C216.9,-15.5 289.52,-15.5 341.87,-15.5"/>
<polygon fill="midnightblue" stroke="midnightblue" points="161.84,-12 151.84,-15.5 161.84,-19 161.84,-12"/>
</g>
<!-- Node21 -->
<g id="node21" class="node">
<title>Node21</title>
<g id="a_node21"><a xlink:title=" ">
<polygon fill="white" stroke="black" points="656,-142.5 656,-194.5 833,-194.5 833,-142.5 656,-142.5"/>
<text text-anchor="start" x="664" y="-182.5" font-family="Helvetica,sans-Serif" font-size="10.00">DefaultUndirectedGraph</text>
<text text-anchor="start" x="664" y="-171.5" font-family="Helvetica,sans-Serif" font-size="10.00">&lt; denoptim.graph.Vertex,</text>
<text text-anchor="start" x="664" y="-160.5" font-family="Helvetica,sans-Serif" font-size="10.00"> denoptim.graph.simplified.Undirected</text>
<text text-anchor="middle" x="744.5" y="-149.5" font-family="Helvetica,sans-Serif" font-size="10.00">Edge &gt;</text>
</a>
</g>
</g>
<!-- Node21&#45;&gt;Node7 -->
<g id="edge26" class="edge">
<title>Node21&#45;&gt;Node7</title>
<path fill="none" stroke="#9a32cd" stroke-dasharray="5,2" d="M842.91,-188.48C870.22,-197.16 898.76,-209.39 922,-226.5 963.61,-257.13 992.79,-314.14 1003.25,-336.82"/>
<polygon fill="#9a32cd" stroke="#9a32cd" points="843.9,-185.13 833.31,-185.56 841.86,-191.82 843.9,-185.13"/>
<text text-anchor="middle" x="887" y="-229.5" font-family="Helvetica,sans-Serif" font-size="10.00"> jGraph</text>
</g>
<!-- Node22 -->
<g id="node22" class="node">
<title>Node22</title>
<g id="a_node22"><a xlink:title=" ">
<polygon fill="white" stroke="black" points="655,-71.5 655,-123.5 834,-123.5 834,-71.5 655,-71.5"/>
<text text-anchor="start" x="663" y="-111.5" font-family="Helvetica,sans-Serif" font-size="10.00">DefaultUndirectedGraph</text>
<text text-anchor="start" x="663" y="-100.5" font-family="Helvetica,sans-Serif" font-size="10.00">&lt; denoptim.graph.simplified.</text>
<text text-anchor="start" x="663" y="-89.5" font-family="Helvetica,sans-Serif" font-size="10.00">Node, denoptim.graph.simplified.Node</text>
<text text-anchor="middle" x="744.5" y="-78.5" font-family="Helvetica,sans-Serif" font-size="10.00">Connection &gt;</text>
</a>
</g>
</g>
<!-- Node22&#45;&gt;Node7 -->
<g id="edge27" class="edge">
<title>Node22&#45;&gt;Node7</title>
<path fill="none" stroke="#9a32cd" stroke-dasharray="5,2" d="M843.85,-127.25C871.73,-139.36 900.35,-155.76 922,-177.5 970.72,-226.43 997.04,-308.81 1004.93,-336.83"/>
<polygon fill="#9a32cd" stroke="#9a32cd" points="845.01,-123.94 834.44,-123.3 842.31,-130.39 845.01,-123.94"/>
<text text-anchor="middle" x="887" y="-180.5" font-family="Helvetica,sans-Serif" font-size="10.00"> jGraphKernel</text>
</g>
<!-- Node23 -->
<g id="node23" class="node">
<title>Node23</title>
<g id="a_node23"><a xlink:href="enumdenoptim_1_1graph_1_1_vertex_1_1_b_b_type.html" target="_top" xlink:title="The type of building block.">
<polygon fill="white" stroke="black" points="7.5,-335 7.5,-354 156.5,-354 156.5,-335 7.5,-335"/>
<text text-anchor="middle" x="82" y="-342" font-family="Helvetica,sans-Serif" font-size="10.00">denoptim.graph.Vertex.BBType</text>
</a>
</g>
</g>
<!-- Node23&#45;&gt;Node5 -->
<g id="edge28" class="edge">
<title>Node23&#45;&gt;Node5</title>
<path fill="none" stroke="#9a32cd" stroke-dasharray="5,2" d="M166.66,-335.55C204.63,-331.41 250.1,-326.35 291,-321.5 311.49,-319.07 333.95,-316.26 353.76,-313.74"/>
<polygon fill="#9a32cd" stroke="#9a32cd" points="166.24,-332.08 156.67,-336.64 166.99,-339.04 166.24,-332.08"/>
<text text-anchor="middle" x="236.5" y="-337.5" font-family="Helvetica,sans-Serif" font-size="10.00"> buildingBlockType</text>
</g>
<!-- Node24 -->
<g id="node24" class="node">
<title>Node24</title>
<g id="a_node24"><a xlink:title=" ">
<polygon fill="white" stroke="black" points="25,-297 25,-316 139,-316 139,-297 25,-297"/>
<text text-anchor="middle" x="82" y="-304" font-family="Helvetica,sans-Serif" font-size="10.00">Map&lt; Object, Object &gt;</text>
</a>
</g>
</g>
<!-- Node24&#45;&gt;Node5 -->
<g id="edge29" class="edge">
<title>Node24&#45;&gt;Node5</title>
<path fill="none" stroke="#9a32cd" stroke-dasharray="5,2" d="M149.28,-306.5C209.46,-306.5 297.21,-306.5 353.83,-306.5"/>
<polygon fill="#9a32cd" stroke="#9a32cd" points="149.13,-303 139.13,-306.5 149.13,-310 149.13,-303"/>
<text text-anchor="middle" x="236.5" y="-309.5" font-family="Helvetica,sans-Serif" font-size="10.00"> properties</text>
</g>
<!-- Node25 -->
<g id="node25" class="node">
<title>Node25</title>
<g id="a_node25"><a xlink:title=" ">
<polygon fill="white" stroke="black" points="45,-259 45,-278 119,-278 119,-259 45,-259"/>
<text text-anchor="middle" x="82" y="-266" font-family="Helvetica,sans-Serif" font-size="10.00">Set&lt; String &gt;</text>
</a>
</g>
</g>
<!-- Node25&#45;&gt;Node5 -->
<g id="edge30" class="edge">
<title>Node25&#45;&gt;Node5</title>
<path fill="none" stroke="#9a32cd" stroke-dasharray="5,2" d="M129.06,-273.38C171.22,-277.9 235.34,-284.9 291,-291.5 311.49,-293.93 333.95,-296.74 353.76,-299.26"/>
<polygon fill="#9a32cd" stroke="#9a32cd" points="129.41,-269.9 119.09,-272.32 128.66,-276.86 129.41,-269.9"/>
<text text-anchor="middle" x="236.5" y="-294.5" font-family="Helvetica,sans-Serif" font-size="10.00"> uniquefyingPropertyKeys</text>
</g>
<!-- Node26 -->
<g id="node26" class="node">
<title>Node26</title>
<g id="a_node26"><a xlink:title=" ">
<polygon fill="white" stroke="black" points="11.5,-209.5 11.5,-239.5 152.5,-239.5 152.5,-209.5 11.5,-209.5"/>
<text text-anchor="start" x="19.5" y="-227.5" font-family="Helvetica,sans-Serif" font-size="10.00">List&lt; denoptim.utils.Mutation</text>
<text text-anchor="middle" x="82" y="-216.5" font-family="Helvetica,sans-Serif" font-size="10.00">Type &gt;</text>
</a>
</g>
</g>
<!-- Node26&#45;&gt;Node5 -->
<g id="edge31" class="edge">
<title>Node26&#45;&gt;Node5</title>
<path fill="none" stroke="#9a32cd" stroke-dasharray="5,2" d="M163.15,-237.01C202.06,-243.81 249.3,-253.17 291,-264.5 324.49,-273.6 362.09,-287.6 385.78,-296.9"/>
<polygon fill="#9a32cd" stroke="#9a32cd" points="163.38,-233.5 152.93,-235.24 162.19,-240.39 163.38,-233.5"/>
<text text-anchor="middle" x="236.5" y="-267.5" font-family="Helvetica,sans-Serif" font-size="10.00"> allowedMutationTypes</text>
</g>
<!-- Node27 -->
<g id="node27" class="node">
<title>Node27</title>
<g id="a_node27"><a xlink:href="enumdenoptim_1_1graph_1_1_vertex_1_1_vertex_type.html" target="_top" xlink:title="Flag declaring the type of Vertex implementation.">
<polygon fill="white" stroke="black" points="0,-373 0,-392 164,-392 164,-373 0,-373"/>
<text text-anchor="middle" x="82" y="-380" font-family="Helvetica,sans-Serif" font-size="10.00">denoptim.graph.Vertex.VertexType</text>
</a>
</g>
</g>
<!-- Node27&#45;&gt;Node5 -->
<g id="edge32" class="edge">
<title>Node27&#45;&gt;Node5</title>
<path fill="none" stroke="#9a32cd" stroke-dasharray="5,2" d="M174.3,-382.88C212.64,-379.41 256.29,-370.42 291,-349.5 302.42,-342.62 297.68,-332.55 309,-325.5 322.34,-317.19 338.47,-312.36 353.86,-309.59"/>
<polygon fill="#9a32cd" stroke="#9a32cd" points="173.85,-379.4 164.16,-383.68 174.41,-386.38 173.85,-379.4"/>
<text text-anchor="middle" x="236.5" y="-385.5" font-family="Helvetica,sans-Serif" font-size="10.00"> vertexType</text>
</g>
<!-- Node28 -->
<g id="node28" class="node">
<title>Node28</title>
<g id="a_node28"><a xlink:title=" ">
<polygon fill="white" stroke="black" points="344.5,-667.5 344.5,-697.5 476.5,-697.5 476.5,-667.5 344.5,-667.5"/>
<text text-anchor="start" x="352.5" y="-685.5" font-family="Helvetica,sans-Serif" font-size="10.00">ArrayList&lt; denoptim.graph.</text>
<text text-anchor="middle" x="410.5" y="-674.5" font-family="Helvetica,sans-Serif" font-size="10.00">AttachmentPoint &gt;</text>
</a>
</g>
</g>
<!-- Node28&#45;&gt;Node4 -->
<g id="edge33" class="edge">
<title>Node28&#45;&gt;Node4</title>
<path fill="none" stroke="#9a32cd" stroke-dasharray="5,2" d="M486.96,-674.48C532.24,-667.51 589.99,-654.71 637,-631.5 646.34,-626.89 645.64,-621.06 655,-616.5 663.19,-612.51 672.22,-609.35 681.28,-606.86"/>
<polygon fill="#9a32cd" stroke="#9a32cd" points="486.29,-671.05 476.91,-675.97 487.31,-677.97 486.29,-671.05"/>
<text text-anchor="middle" x="583.5" y="-667.5" font-family="Helvetica,sans-Serif" font-size="10.00"> lstAPs</text>
</g>
<!-- Node29 -->
<g id="node29" class="node">
<title>Node29</title>
<g id="a_node29"><a xlink:title=" ">
<polygon fill="white" stroke="black" points="309,-608 309,-649 512,-649 512,-608 309,-608"/>
<text text-anchor="start" x="317" y="-637" font-family="Helvetica,sans-Serif" font-size="10.00">DefaultUndirectedGraph</text>
<text text-anchor="start" x="317" y="-626" font-family="Helvetica,sans-Serif" font-size="10.00">&lt; denoptim.graph.FragIsomorph</text>
<text text-anchor="middle" x="410.5" y="-615" font-family="Helvetica,sans-Serif" font-size="10.00">Node, denoptim.graph.FragIsomorphEdge &gt;</text>
</a>
</g>
</g>
<!-- Node29&#45;&gt;Node4 -->
<g id="edge36" class="edge">
<title>Node29&#45;&gt;Node4</title>
<path fill="none" stroke="#9a32cd" stroke-dasharray="5,2" d="M522.15,-618.17C575.17,-613.22 636.69,-607.47 681.4,-603.3"/>
<polygon fill="#9a32cd" stroke="#9a32cd" points="521.64,-614.7 512.01,-619.11 522.29,-621.67 521.64,-614.7"/>
<text text-anchor="middle" x="583.5" y="-619.5" font-family="Helvetica,sans-Serif" font-size="10.00"> jGraphFragIsomorphism</text>
</g>
<!-- Node30 -->
<g id="node30" class="node">
<title>Node30</title>
<g id="a_node30"><a xlink:title=" ">
<polygon fill="white" stroke="black" points="671,-702.5 671,-732.5 818,-732.5 818,-702.5 671,-702.5"/>
<text text-anchor="start" x="679" y="-720.5" font-family="Helvetica,sans-Serif" font-size="10.00">Map&lt; Integer, denoptim.graph.</text>
<text text-anchor="middle" x="744.5" y="-709.5" font-family="Helvetica,sans-Serif" font-size="10.00">AttachmentPoint &gt;</text>
</a>
</g>
</g>
<!-- Node30&#45;&gt;Node1 -->
<g id="edge37" class="edge">
<title>Node30&#45;&gt;Node1</title>
<path fill="none" stroke="#9a32cd" stroke-dasharray="5,2" d="M827.98,-730.86C857.64,-735.72 891.33,-741.29 922,-746.5 927.79,-747.48 933.81,-748.52 939.84,-749.56"/>
<polygon fill="#9a32cd" stroke="#9a32cd" points="828.53,-727.41 818.09,-729.25 827.4,-734.31 828.53,-727.41"/>
<text text-anchor="middle" x="887" y="-749.5" font-family="Helvetica,sans-Serif" font-size="10.00"> mapAPs</text>
</g>
<!-- Node31 -->
<g id="node31" class="node">
<title>Node31</title>
<g id="a_node31"><a xlink:href="classdenoptim_1_1gui_1_1_jmol_panel.html" target="_top" xlink:title=" ">
<polygon fill="white" stroke="black" points="685,-828 685,-847 804,-847 804,-828 685,-828"/>
<text text-anchor="middle" x="744.5" y="-835" font-family="Helvetica,sans-Serif" font-size="10.00">denoptim.gui.JmolPanel</text>
</a>
</g>
</g>
<!-- Node31&#45;&gt;Node1 -->
<g id="edge38" class="edge">
<title>Node31&#45;&gt;Node1</title>
<path fill="none" stroke="#9a32cd" stroke-dasharray="5,2" d="M802.79,-825.77C813.2,-823.48 823.95,-821 834,-818.5 873.45,-808.67 883.37,-806.19 922,-793.5 937.66,-788.35 954.71,-782.11 969.43,-776.51"/>
<polygon fill="#9a32cd" stroke="#9a32cd" points="801.97,-822.37 792.94,-827.91 803.45,-829.21 801.97,-822.37"/>
<text text-anchor="middle" x="887" y="-816.5" font-family="Helvetica,sans-Serif" font-size="10.00"> jmolPanel</text>
</g>
<!-- Node32 -->
<g id="node32" class="node">
<title>Node32</title>
<g id="a_node32"><a xlink:title=" ">
<polygon fill="white" stroke="black" points="387,-790 387,-809 434,-809 434,-790 387,-790"/>
<text text-anchor="middle" x="410.5" y="-797" font-family="Helvetica,sans-Serif" font-size="10.00">JPanel</text>
</a>
</g>
</g>
<!-- Node32&#45;&gt;Node31 -->
<g id="edge39" class="edge">
<title>Node32&#45;&gt;Node31</title>
<path fill="none" stroke="midnightblue" d="M444.1,-803.23C499.98,-809.63 614.78,-822.77 684.87,-830.79"/>
<polygon fill="midnightblue" stroke="midnightblue" points="444.39,-799.74 434.06,-802.08 443.6,-806.7 444.39,-799.74"/>
</g>
<!-- Node33 -->
<g id="node33" class="node">
<title>Node33</title>
<g id="a_node33"><a xlink:title=" ">
<polygon fill="white" stroke="black" points="376.5,-866 376.5,-885 444.5,-885 444.5,-866 376.5,-866"/>
<text text-anchor="middle" x="410.5" y="-873" font-family="Helvetica,sans-Serif" font-size="10.00">JmolViewer</text>
</a>
</g>
</g>
<!-- Node33&#45;&gt;Node31 -->
<g id="edge40" class="edge">
<title>Node33&#45;&gt;Node31</title>
<path fill="none" stroke="#9a32cd" stroke-dasharray="5,2" d="M454.88,-871.57C500.32,-867.34 573.76,-860.18 637,-852.5 652.57,-850.61 669.39,-848.35 684.96,-846.16"/>
<polygon fill="#9a32cd" stroke="#9a32cd" points="454.42,-868.1 444.79,-872.51 455.07,-875.07 454.42,-868.1"/>
<text text-anchor="middle" x="583.5" y="-866.5" font-family="Helvetica,sans-Serif" font-size="10.00"> viewer</text>
</g>
<!-- Node34 -->
<g id="node34" class="node">
<title>Node34</title>
<g id="a_node34"><a xlink:title=" ">
<polygon fill="white" stroke="black" points="379.5,-828 379.5,-847 441.5,-847 441.5,-828 379.5,-828"/>
<text text-anchor="middle" x="410.5" y="-835" font-family="Helvetica,sans-Serif" font-size="10.00">Dimension</text>
</a>
</g>
</g>
<!-- Node34&#45;&gt;Node31 -->
<g id="edge41" class="edge">
<title>Node34&#45;&gt;Node31</title>
<path fill="none" stroke="#9a32cd" stroke-dasharray="5,2" d="M451.81,-837.5C509.95,-837.5 617.72,-837.5 684.73,-837.5"/>
<polygon fill="#9a32cd" stroke="#9a32cd" points="451.55,-834 441.55,-837.5 451.55,-841 451.55,-834"/>
<text text-anchor="middle" x="583.5" y="-840.5" font-family="Helvetica,sans-Serif" font-size="10.00"> hostPanelSize</text>
</g>
<!-- Node35 -->
<g id="node35" class="node">
<title>Node35</title>
<g id="a_node35"><a xlink:title=" ">
<polygon fill="white" stroke="black" points="710,-664 710,-683 779,-683 779,-664 710,-664"/>
<text text-anchor="middle" x="744.5" y="-671" font-family="Helvetica,sans-Serif" font-size="10.00">JScrollPane</text>
</a>
</g>
</g>
<!-- Node35&#45;&gt;Node1 -->
<g id="edge42" class="edge">
<title>Node35&#45;&gt;Node1</title>
<path fill="none" stroke="#9a32cd" stroke-dasharray="5,2" d="M789.32,-682.81C803.61,-686.01 819.53,-689.73 834,-693.5 873.47,-703.78 884.01,-704.68 922,-719.5 941.88,-727.25 963.43,-737.86 979.93,-746.47"/>
<polygon fill="#9a32cd" stroke="#9a32cd" points="789.76,-679.32 779.24,-680.59 788.25,-686.16 789.76,-679.32"/>
<text text-anchor="middle" x="887" y="-722.5" font-family="Helvetica,sans-Serif" font-size="10.00"> tabPanel</text>
</g>
<!-- Node36 -->
<g id="node36" class="node">
<title>Node36</title>
<g id="a_node36"><a xlink:title=" ">
<polygon fill="white" stroke="black" points="695.5,-626 695.5,-645 793.5,-645 793.5,-626 695.5,-626"/>
<text text-anchor="middle" x="744.5" y="-633" font-family="Helvetica,sans-Serif" font-size="10.00">DefaultTableModel</text>
</a>
</g>
</g>
<!-- Node36&#45;&gt;Node1 -->
<g id="edge43" class="edge">
<title>Node36&#45;&gt;Node1</title>
<path fill="none" stroke="#9a32cd" stroke-dasharray="5,2" d="M804.17,-643.09C840.04,-649.62 885.83,-661.45 922,-682.5 951.52,-699.68 979.33,-728.6 994.82,-746.28"/>
<polygon fill="#9a32cd" stroke="#9a32cd" points="804.31,-639.56 793.86,-641.3 803.12,-646.46 804.31,-639.56"/>
<text text-anchor="middle" x="887" y="-685.5" font-family="Helvetica,sans-Serif" font-size="10.00"> apTabModel</text>
</g>
<!-- Node37 -->
<g id="node37" class="node">
<title>Node37</title>
<g id="a_node37"><a xlink:title=" ">
<polygon fill="white" stroke="black" points="721.5,-904 721.5,-923 767.5,-923 767.5,-904 721.5,-904"/>
<text text-anchor="middle" x="744.5" y="-911" font-family="Helvetica,sans-Serif" font-size="10.00">JTable</text>
</a>
</g>
</g>
<!-- Node37&#45;&gt;Node1 -->
<g id="edge44" class="edge">
<title>Node37&#45;&gt;Node1</title>
<path fill="none" stroke="#9a32cd" stroke-dasharray="5,2" d="M778.14,-911.92C815.71,-908.7 877.9,-898.96 922,-869.5 958.59,-845.06 986.75,-799.96 999.7,-776.52"/>
<polygon fill="#9a32cd" stroke="#9a32cd" points="777.49,-908.46 767.78,-912.69 778.01,-915.44 777.49,-908.46"/>
<text text-anchor="middle" x="887" y="-901.5" font-family="Helvetica,sans-Serif" font-size="10.00"> apTable</text>
</g>
<!-- Node38 -->
<g id="node38" class="node">
<title>Node38</title>
<g id="a_node38"><a xlink:title=" ">
<polygon fill="white" stroke="black" points="709,-866 709,-885 780,-885 780,-866 709,-866"/>
<text text-anchor="middle" x="744.5" y="-873" font-family="Helvetica,sans-Serif" font-size="10.00">JComponent</text>
</a>
</g>
</g>
<!-- Node38&#45;&gt;Node1 -->
<g id="edge45" class="edge">
<title>Node38&#45;&gt;Node1</title>
<path fill="none" stroke="#9a32cd" stroke-dasharray="5,2" d="M790,-869.36C826.97,-862.96 880.1,-850.65 922,-828.5 948.67,-814.4 975.4,-791.75 991.7,-776.75"/>
<polygon fill="#9a32cd" stroke="#9a32cd" points="789.32,-865.93 780.03,-871.02 790.46,-872.83 789.32,-865.93"/>
<text text-anchor="middle" x="887" y="-857.5" font-family="Helvetica,sans-Serif" font-size="10.00"> parent</text>
</g>
</g>
</svg>
