<?xml version="1.0" encoding="UTF-8" standalone="no"?>
<!DOCTYPE svg PUBLIC "-//W3C//DTD SVG 1.1//EN"
 "http://www.w3.org/Graphics/SVG/1.1/DTD/svg11.dtd">
<!-- Generated by graphviz version 3.0.0 (20220413.0242)
 -->
<!-- Title: denoptim.gui.CompatibilityMatrixForm.TrgRemovalListener Pages: 1 -->
<svg width="747pt" height="148pt"
 viewBox="0.00 0.00 747.00 148.00" xmlns="http://www.w3.org/2000/svg" xmlns:xlink="http://www.w3.org/1999/xlink">
<g id="graph0" class="graph" transform="scale(1 1) rotate(0) translate(4 144)">
<title>denoptim.gui.CompatibilityMatrixForm.TrgRemovalListener</title>
<polygon fill="white" stroke="transparent" points="-4,4 -4,-144 743,-144 743,4 -4,4"/>
<!-- Node1 -->
<g id="node1" class="node">
<title>Node1</title>
<g id="a_node1"><a xlink:title="Listens for clicks that require removal of a compatible APClass (i.e., the target APClass) from the e...">
<polygon fill="#bfbfbf" stroke="black" points="584,-77 584,-107 739,-107 739,-77 584,-77"/>
<text text-anchor="start" x="592" y="-95" font-family="Helvetica,sans-Serif" font-size="10.00">denoptim.gui.Compatibility</text>
<text text-anchor="middle" x="661.5" y="-84" font-family="Helvetica,sans-Serif" font-size="10.00">MatrixForm.TrgRemovalListener</text>
</a>
</g>
</g>
<!-- Node2 -->
<g id="node2" class="node">
<title>Node2</title>
<g id="a_node2"><a xlink:title=" ">
<polygon fill="white" stroke="black" points="371,-101.5 371,-120.5 492,-120.5 492,-101.5 371,-101.5"/>
<text text-anchor="middle" x="431.5" y="-108.5" font-family="Helvetica,sans-Serif" font-size="10.00">PropertyChangeListener</text>
</a>
</g>
</g>
<!-- Node2&#45;&gt;Node1 -->
<g id="edge1" class="edge">
<title>Node2&#45;&gt;Node1</title>
<path fill="none" stroke="midnightblue" d="M502.16,-105.19C527.92,-103.05 557.26,-100.6 583.62,-98.41"/>
<polygon fill="midnightblue" stroke="midnightblue" points="501.78,-101.71 492.11,-106.03 502.36,-108.69 501.78,-101.71"/>
</g>
<!-- Node3 -->
<g id="node3" class="node">
<title>Node3</title>
<g id="a_node3"><a xlink:href="classdenoptim_1_1graph_1_1_a_p_class.html" target="_top" xlink:title=" ">
<polygon fill="white" stroke="black" points="370,-63.5 370,-82.5 493,-82.5 493,-63.5 370,-63.5"/>
<text text-anchor="middle" x="431.5" y="-70.5" font-family="Helvetica,sans-Serif" font-size="10.00">denoptim.graph.APClass</text>
</a>
</g>
</g>
<!-- Node3&#45;&gt;Node1 -->
<g id="edge2" class="edge">
<title>Node3&#45;&gt;Node1</title>
<path fill="none" stroke="#9a32cd" stroke-dasharray="5,2" d="M503,-78.87C528.6,-81.01 557.64,-83.43 583.76,-85.6"/>
<polygon fill="#9a32cd" stroke="#9a32cd" points="503.26,-75.38 493,-78.04 502.68,-82.36 503.26,-75.38"/>
<text text-anchor="middle" x="538.5" y="-86" font-family="Helvetica,sans-Serif" font-size="10.00"> srcAPClass</text>
</g>
<!-- Node4 -->
<g id="node4" class="node">
<title>Node4</title>
<g id="a_node4"><a xlink:title=" ">
<polygon fill="white" stroke="black" points="139,-120.5 139,-139.5 198,-139.5 198,-120.5 139,-120.5"/>
<text text-anchor="middle" x="168.5" y="-127.5" font-family="Helvetica,sans-Serif" font-size="10.00">Cloneable</text>
</a>
</g>
</g>
<!-- Node4&#45;&gt;Node3 -->
<g id="edge3" class="edge">
<title>Node4&#45;&gt;Node3</title>
<path fill="none" stroke="midnightblue" d="M208,-123.58C245.07,-117.18 302.63,-106.63 352,-95 367.43,-91.37 384.38,-86.7 398.58,-82.6"/>
<polygon fill="midnightblue" stroke="midnightblue" points="207.37,-120.14 198.11,-125.28 208.55,-127.04 207.37,-120.14"/>
</g>
<!-- Node5 -->
<g id="node5" class="node">
<title>Node5</title>
<g id="a_node5"><a xlink:title=" ">
<polygon fill="white" stroke="black" points="107,-82.5 107,-101.5 230,-101.5 230,-82.5 107,-82.5"/>
<text text-anchor="middle" x="168.5" y="-89.5" font-family="Helvetica,sans-Serif" font-size="10.00">Comparable&lt; APClass &gt;</text>
</a>
</g>
</g>
<!-- Node5&#45;&gt;Node3 -->
<g id="edge4" class="edge">
<title>Node5&#45;&gt;Node3</title>
<path fill="none" stroke="midnightblue" d="M240.12,-86.86C280.68,-83.91 331.09,-80.24 369.84,-77.42"/>
<polygon fill="midnightblue" stroke="midnightblue" points="239.75,-83.38 230.03,-87.59 240.26,-90.36 239.75,-83.38"/>
</g>
<!-- Node6 -->
<g id="node6" class="node">
<title>Node6</title>
<g id="a_node6"><a xlink:title=" ">
<polygon fill="white" stroke="black" points="91,-44.5 91,-63.5 246,-63.5 246,-44.5 91,-44.5"/>
<text text-anchor="middle" x="168.5" y="-51.5" font-family="Helvetica,sans-Serif" font-size="10.00">Set&lt; denoptim.graph.APClass &gt;</text>
</a>
</g>
</g>
<!-- Node6&#45;&gt;Node3 -->
<g id="edge5" class="edge">
<title>Node6&#45;&gt;Node3</title>
<path fill="none" stroke="#9a32cd" stroke-dasharray="5,2" d="M256.27,-48.93C286.65,-48.37 320.93,-49.1 352,-53 368.19,-55.03 385.82,-59.33 400.27,-63.42"/>
<polygon fill="#9a32cd" stroke="#9a32cd" points="256.04,-45.43 246.13,-49.16 256.21,-52.43 256.04,-45.43"/>
<text text-anchor="middle" x="308" y="-67" font-family="Helvetica,sans-Serif" font-size="10.00"> RCAAPCLASSSET</text>
<text text-anchor="middle" x="308" y="-56" font-family="Helvetica,sans-Serif" font-size="10.00">uniqueAPClasses</text>
</g>
<!-- Node7 -->
<g id="node7" class="node">
<title>Node7</title>
<g id="a_node7"><a xlink:href="enumdenoptim_1_1graph_1_1_edge_1_1_bond_type.html" target="_top" xlink:title="Possible chemical bond types an edge can represent.">
<polygon fill="white" stroke="black" points="92.5,-0.5 92.5,-19.5 244.5,-19.5 244.5,-0.5 92.5,-0.5"/>
<text text-anchor="middle" x="168.5" y="-7.5" font-family="Helvetica,sans-Serif" font-size="10.00">denoptim.graph.Edge.BondType</text>
</a>
</g>
</g>
<!-- Node7&#45;&gt;Node3 -->
<g id="edge6" class="edge">
<title>Node7&#45;&gt;Node3</title>
<path fill="none" stroke="#9a32cd" stroke-dasharray="5,2" d="M255.24,-6.73C286.38,-7.84 321.41,-11.83 352,-22 378.84,-30.92 405.46,-51.27 419.76,-63.4"/>
<polygon fill="#9a32cd" stroke="#9a32cd" points="254.93,-3.22 244.84,-6.46 254.75,-10.22 254.93,-3.22"/>
<text text-anchor="middle" x="308" y="-36" font-family="Helvetica,sans-Serif" font-size="10.00"> DEFAULTBT</text>
<text text-anchor="middle" x="308" y="-25" font-family="Helvetica,sans-Serif" font-size="10.00">bndTyp</text>
</g>
<!-- Node8 -->
<g id="node8" class="node">
<title>Node8</title>
<g id="a_node8"><a xlink:title=" ">
<polygon fill="white" stroke="black" points="0,-0.5 0,-19.5 42,-19.5 42,-0.5 0,-0.5"/>
<text text-anchor="middle" x="21" y="-7.5" font-family="Helvetica,sans-Serif" font-size="10.00">IBond</text>
</a>
</g>
</g>
<!-- Node8&#45;&gt;Node7 -->
<g id="edge7" class="edge">
<title>Node8&#45;&gt;Node7</title>
<path fill="none" stroke="#9a32cd" stroke-dasharray="5,2" d="M52.33,-10C64.08,-10 78.11,-10 92.26,-10"/>
<polygon fill="#9a32cd" stroke="#9a32cd" points="52.23,-6.5 42.23,-10 52.23,-13.5 52.23,-6.5"/>
<text text-anchor="middle" x="66.5" y="-13" font-family="Helvetica,sans-Serif" font-size="10.00"> bo</text>
</g>
</g>
</svg>
