<?xml version="1.0" encoding="UTF-8" standalone="no"?>
<!DOCTYPE svg PUBLIC "-//W3C//DTD SVG 1.1//EN"
 "http://www.w3.org/Graphics/SVG/1.1/DTD/svg11.dtd">
<!-- Generated by graphviz version 3.0.0 (20220413.0242)
 -->
<!-- Title: denoptim.graph.EmptyVertex Pages: 1 -->
<!--zoomable 611 -->
<svg id="main" version="1.1" xmlns="http://www.w3.org/2000/svg" xmlns:xlink="http://www.w3.org/1999/xlink" xml:space="preserve" onload="init(evt)">
<style type="text/css"><![CDATA[
.edge:hover path { stroke: red; }
.edge:hover polygon { stroke: red; fill: red; }
]]></style>
<script type="text/javascript"><![CDATA[
var edges = document.getElementsByTagName('g');
if (edges && edges.length) {
  for (var i=0;i<edges.length;i++) {
    if (edges[i].id.substr(0,4)=='edge') {
      edges[i].setAttribute('class','edge');
    }
  }
}
]]></script>
        <defs>
                <circle id="rim" cx="0" cy="0" r="7"/>
                <circle id="rim2" cx="0" cy="0" r="3.5"/>
                <g id="zoomPlus">
                        <use xlink:href="#rim" fill="#404040">
                                <set attributeName="fill" to="#808080" begin="zoomplus.mouseover" end="zoomplus.mouseout"/>
                        </use>
                        <path d="M-4,0h8M0,-4v8" fill="none" stroke="white" stroke-width="1.5" pointer-events="none"/>
                </g>
                <g id="zoomMin">
                        <use xlink:href="#rim" fill="#404040">
                                <set attributeName="fill" to="#808080" begin="zoomminus.mouseover" end="zoomminus.mouseout"/>
                        </use>
                        <path d="M-4,0h8" fill="none" stroke="white" stroke-width="1.5" pointer-events="none"/>
                </g>
                <g id="dirArrow">
                        <path fill="none" stroke="white" stroke-width="1.5" d="M0,-3.0v7 M-2.5,-0.5L0,-3.0L2.5,-0.5"/>
                </g>
               <g id="resetDef">
                       <use xlink:href="#rim2" fill="#404040">
                               <set attributeName="fill" to="#808080" begin="reset.mouseover" end="reset.mouseout"/>
                       </use>
               </g>
        </defs>

<script type="text/javascript">
var viewWidth = 1213;
var viewHeight = 611;
var sectionId = 'dynsection-1';
</script>
<script xlink:href="svgpan.js"/>
<svg id="graph" class="graph">
<g id="viewport">
<title>denoptim.graph.EmptyVertex</title>
<polygon fill="white" stroke="transparent" points="-4,4 -4,-606.76 1209,-606.76 1209,4 -4,4"/>
<!-- Node1 -->
<g id="node1" class="node">
<title>Node1</title>
<g id="a_node1"><a xlink:title="An empty vertex has the behaviors of a vertex, but has no molecular structure.">
<polygon fill="#bfbfbf" stroke="black" points="602.5,-276.26 602.5,-295.26 742.5,-295.26 742.5,-276.26 602.5,-276.26"/>
<text text-anchor="middle" x="672.5" y="-283.26" font-family="Helvetica,sans-Serif" font-size="10.00">denoptim.graph.EmptyVertex</text>
</a>
</g>
</g>
<!-- Node2 -->
<g id="node2" class="node">
<title>Node2</title>
<g id="a_node2"><a xlink:href="classdenoptim_1_1graph_1_1_vertex.html" target="_top" xlink:title="A vertex is a data structure that has an identity and holds a list of AttachmentPoints.">
<polygon fill="white" stroke="black" points="332.5,-199.26 332.5,-218.26 445.5,-218.26 445.5,-199.26 332.5,-199.26"/>
<text text-anchor="middle" x="389" y="-206.26" font-family="Helvetica,sans-Serif" font-size="10.00">denoptim.graph.Vertex</text>
</a>
</g>
</g>
<!-- Node2&#45;&gt;Node1 -->
<g id="edge1" class="edge">
<title>Node2&#45;&gt;Node1</title>
<path fill="none" stroke="midnightblue" d="M441.37,-220.69C450.59,-222.95 460.1,-225.37 469,-227.76 520.05,-241.5 532.15,-247.29 583,-261.76 600.15,-266.64 619.23,-271.85 635.27,-276.16"/>
<polygon fill="midnightblue" stroke="midnightblue" points="442.06,-217.26 431.52,-218.3 440.41,-224.06 442.06,-217.26"/>
</g>
<!-- Node13 -->
<g id="node13" class="node">
<title>Node13</title>
<g id="a_node13"><a xlink:href="classdenoptim_1_1graph_1_1_template.html" target="_top" xlink:title=" ">
<polygon fill="white" stroke="black" points="610,-140.26 610,-159.26 735,-159.26 735,-140.26 610,-140.26"/>
<text text-anchor="middle" x="672.5" y="-147.26" font-family="Helvetica,sans-Serif" font-size="10.00">denoptim.graph.Template</text>
</a>
</g>
</g>
<!-- Node2&#45;&gt;Node13 -->
<g id="edge16" class="edge">
<title>Node2&#45;&gt;Node13</title>
<path fill="none" stroke="midnightblue" d="M445.42,-197.15C498.23,-186.08 576.79,-169.61 626.02,-159.29"/>
<polygon fill="midnightblue" stroke="midnightblue" points="444.61,-193.74 435.54,-199.22 446.05,-200.59 444.61,-193.74"/>
</g>
<!-- Node3 -->
<g id="node3" class="node">
<title>Node3</title>
<g id="a_node3"><a xlink:title=" ">
<polygon fill="white" stroke="black" points="52.5,-336.26 52.5,-355.26 111.5,-355.26 111.5,-336.26 52.5,-336.26"/>
<text text-anchor="middle" x="82" y="-343.26" font-family="Helvetica,sans-Serif" font-size="10.00">Cloneable</text>
</a>
</g>
</g>
<!-- Node3&#45;&gt;Node2 -->
<g id="edge2" class="edge">
<title>Node3&#45;&gt;Node2</title>
<path fill="none" stroke="midnightblue" d="M121.92,-340.21C178.73,-331.76 278.94,-315.43 291,-303.76 315.95,-279.63 284.5,-252.35 309,-227.76 315.37,-221.37 323.5,-216.98 332.1,-214"/>
<polygon fill="midnightblue" stroke="midnightblue" points="121.23,-336.77 111.85,-341.69 122.25,-343.69 121.23,-336.77"/>
</g>
<!-- Node4 -->
<g id="node4" class="node">
<title>Node4</title>
<g id="a_node4"><a xlink:href="classdenoptim_1_1graph_1_1_d_graph.html" target="_top" xlink:title="Container for the list of vertices and the edges that connect them.">
<polygon fill="white" stroke="black" points="873,-237.26 873,-256.26 991,-256.26 991,-237.26 873,-237.26"/>
<text text-anchor="middle" x="932" y="-244.26" font-family="Helvetica,sans-Serif" font-size="10.00">denoptim.graph.DGraph</text>
</a>
</g>
</g>
<!-- Node3&#45;&gt;Node4 -->
<g id="edge4" class="edge">
<title>Node3&#45;&gt;Node4</title>
<path fill="none" stroke="midnightblue" d="M121.58,-347.23C226,-350.41 522.39,-354.02 762,-304.76 816.39,-293.58 877.34,-269.68 909.09,-256.31"/>
<polygon fill="midnightblue" stroke="midnightblue" points="121.62,-343.73 111.51,-346.91 121.39,-350.73 121.62,-343.73"/>
</g>
<!-- Node10 -->
<g id="node10" class="node">
<title>Node10</title>
<g id="a_node10"><a xlink:href="classdenoptim_1_1graph_1_1_candidate.html" target="_top" xlink:title="A candidate is the combination of a denoptim graph with molecular representation and may include also...">
<polygon fill="white" stroke="black" points="1077,-217.26 1077,-236.26 1205,-236.26 1205,-217.26 1077,-217.26"/>
<text text-anchor="middle" x="1141" y="-224.26" font-family="Helvetica,sans-Serif" font-size="10.00">denoptim.graph.Candidate</text>
</a>
</g>
</g>
<!-- Node3&#45;&gt;Node10 -->
<g id="edge12" class="edge">
<title>Node3&#45;&gt;Node10</title>
<path fill="none" stroke="midnightblue" d="M93.14,-364.54C126.63,-423.77 240.07,-602.76 388,-602.76 388,-602.76 388,-602.76 933,-602.76 1105.51,-602.76 1135.29,-295.29 1139.42,-236.43"/>
<polygon fill="midnightblue" stroke="midnightblue" points="96.05,-362.57 88.14,-355.52 89.92,-365.97 96.05,-362.57"/>
</g>
<!-- Node4&#45;&gt;Node2 -->
<g id="edge3" class="edge">
<title>Node4&#45;&gt;Node2</title>
<path fill="none" stroke="#9a32cd" stroke-dasharray="5,2" d="M862.56,-241.35C831.82,-238.95 795.09,-236.15 762,-233.76 649.82,-225.68 518.56,-217.05 445.79,-212.34"/>
<polygon fill="#9a32cd" stroke="#9a32cd" points="862.5,-244.85 872.74,-242.14 863.04,-237.87 862.5,-244.85"/>
<text text-anchor="middle" x="672.5" y="-236.76" font-family="Helvetica,sans-Serif" font-size="10.00"> owner</text>
</g>
<!-- Node4&#45;&gt;Node10 -->
<g id="edge13" class="edge">
<title>Node4&#45;&gt;Node10</title>
<path fill="none" stroke="#9a32cd" stroke-dasharray="5,2" d="M971.99,-234.52C985.19,-230.95 1000.1,-227.53 1014,-225.76 1034.4,-223.16 1056.8,-222.6 1076.99,-222.94"/>
<polygon fill="#9a32cd" stroke="#9a32cd" points="970.95,-231.18 962.27,-237.26 972.85,-237.91 970.95,-231.18"/>
<text text-anchor="middle" x="1036.5" y="-228.76" font-family="Helvetica,sans-Serif" font-size="10.00"> graph</text>
</g>
<!-- Node4&#45;&gt;Node13 -->
<g id="edge17" class="edge">
<title>Node4&#45;&gt;Node13</title>
<path fill="none" stroke="#9a32cd" stroke-dasharray="5,2" d="M895.66,-232.68C885.81,-227.51 875.71,-220.89 868,-212.76 855.14,-199.2 865.05,-185.84 850,-174.76 832.12,-161.6 778.82,-155.34 735.44,-152.38"/>
<polygon fill="#9a32cd" stroke="#9a32cd" points="894.41,-235.96 904.93,-237.19 897.47,-229.67 894.41,-235.96"/>
<text text-anchor="middle" x="815" y="-177.76" font-family="Helvetica,sans-Serif" font-size="10.00"> innerGraph</text>
</g>
<!-- Node5 -->
<g id="node5" class="node">
<title>Node5</title>
<g id="a_node5"><a xlink:title=" ">
<polygon fill="white" stroke="black" points="606.5,-90.76 606.5,-120.76 738.5,-120.76 738.5,-90.76 606.5,-90.76"/>
<text text-anchor="start" x="614.5" y="-108.76" font-family="Helvetica,sans-Serif" font-size="10.00">ArrayList&lt; denoptim.graph.</text>
<text text-anchor="middle" x="672.5" y="-97.76" font-family="Helvetica,sans-Serif" font-size="10.00">Vertex &gt;</text>
</a>
</g>
</g>
<!-- Node5&#45;&gt;Node4 -->
<g id="edge5" class="edge">
<title>Node5&#45;&gt;Node4</title>
<path fill="none" stroke="#9a32cd" stroke-dasharray="5,2" d="M748.96,-91.46C783.67,-89.33 823.03,-93.83 850,-117.76 882.15,-146.28 842.63,-178.08 868,-212.76 876.22,-224 889.3,-231.91 901.43,-237.26"/>
<polygon fill="#9a32cd" stroke="#9a32cd" points="748.52,-87.99 738.83,-92.28 749.08,-94.96 748.52,-87.99"/>
<text text-anchor="middle" x="815" y="-120.76" font-family="Helvetica,sans-Serif" font-size="10.00"> gVertices</text>
</g>
<!-- Node6 -->
<g id="node6" class="node">
<title>Node6</title>
<g id="a_node6"><a xlink:title=" ">
<polygon fill="white" stroke="black" points="606.5,-41.76 606.5,-71.76 738.5,-71.76 738.5,-41.76 606.5,-41.76"/>
<text text-anchor="start" x="614.5" y="-59.76" font-family="Helvetica,sans-Serif" font-size="10.00">ArrayList&lt; denoptim.graph.</text>
<text text-anchor="middle" x="672.5" y="-48.76" font-family="Helvetica,sans-Serif" font-size="10.00">Edge &gt;</text>
</a>
</g>
</g>
<!-- Node6&#45;&gt;Node4 -->
<g id="edge6" class="edge">
<title>Node6&#45;&gt;Node4</title>
<path fill="none" stroke="#9a32cd" stroke-dasharray="5,2" d="M749.14,-45.72C784.29,-45 823.96,-51.2 850,-76.76 893.52,-119.47 833.38,-162.57 868,-212.76 875.76,-224.02 888.49,-231.88 900.47,-237.18"/>
<polygon fill="#9a32cd" stroke="#9a32cd" points="748.74,-42.23 738.89,-46.12 749.02,-49.22 748.74,-42.23"/>
<text text-anchor="middle" x="815" y="-79.76" font-family="Helvetica,sans-Serif" font-size="10.00"> gEdges</text>
</g>
<!-- Node7 -->
<g id="node7" class="node">
<title>Node7</title>
<g id="a_node7"><a xlink:title=" ">
<polygon fill="white" stroke="black" points="606.5,-543.76 606.5,-573.76 738.5,-573.76 738.5,-543.76 606.5,-543.76"/>
<text text-anchor="start" x="614.5" y="-561.76" font-family="Helvetica,sans-Serif" font-size="10.00">ArrayList&lt; denoptim.graph.</text>
<text text-anchor="middle" x="672.5" y="-550.76" font-family="Helvetica,sans-Serif" font-size="10.00">Ring &gt;</text>
</a>
</g>
</g>
<!-- Node7&#45;&gt;Node4 -->
<g id="edge7" class="edge">
<title>Node7&#45;&gt;Node4</title>
<path fill="none" stroke="#9a32cd" stroke-dasharray="5,2" d="M748.57,-548.29C783.99,-539.6 824.07,-523.74 850,-494.76 915.84,-421.18 928.28,-293.08 930.53,-256.67"/>
<polygon fill="#9a32cd" stroke="#9a32cd" points="747.68,-544.9 738.71,-550.55 749.24,-551.72 747.68,-544.9"/>
<text text-anchor="middle" x="815" y="-540.76" font-family="Helvetica,sans-Serif" font-size="10.00"> gRings</text>
</g>
<!-- Node8 -->
<g id="node8" class="node">
<title>Node8</title>
<g id="a_node8"><a xlink:title=" ">
<polygon fill="white" stroke="black" points="595,-494.76 595,-524.76 750,-524.76 750,-494.76 595,-494.76"/>
<text text-anchor="start" x="603" y="-512.76" font-family="Helvetica,sans-Serif" font-size="10.00">ArrayList&lt; denoptim.graph.rings.</text>
<text text-anchor="middle" x="672.5" y="-501.76" font-family="Helvetica,sans-Serif" font-size="10.00">ClosableChain &gt;</text>
</a>
</g>
</g>
<!-- Node8&#45;&gt;Node4 -->
<g id="edge8" class="edge">
<title>Node8&#45;&gt;Node4</title>
<path fill="none" stroke="#9a32cd" stroke-dasharray="5,2" d="M752.34,-491.64C786.66,-480.06 824.72,-461.6 850,-432.76 899.22,-376.61 922.47,-285.9 929.01,-256.38"/>
<polygon fill="#9a32cd" stroke="#9a32cd" points="751.22,-488.33 742.77,-494.73 753.37,-494.99 751.22,-488.33"/>
<text text-anchor="middle" x="815" y="-482.76" font-family="Helvetica,sans-Serif" font-size="10.00"> closableChains</text>
</g>
<!-- Node9 -->
<g id="node9" class="node">
<title>Node9</title>
<g id="a_node9"><a xlink:title=" ">
<polygon fill="white" stroke="black" points="323,-237.76 323,-267.76 455,-267.76 455,-237.76 323,-237.76"/>
<text text-anchor="start" x="331" y="-255.76" font-family="Helvetica,sans-Serif" font-size="10.00">ArrayList&lt; denoptim.graph.</text>
<text text-anchor="middle" x="389" y="-244.76" font-family="Helvetica,sans-Serif" font-size="10.00">SymmetricSet &gt;</text>
</a>
</g>
</g>
<!-- Node9&#45;&gt;Node1 -->
<g id="edge31" class="edge">
<title>Node9&#45;&gt;Node1</title>
<path fill="none" stroke="#9a32cd" stroke-dasharray="5,2" d="M465.31,-261.59C507.84,-266.58 560.63,-272.76 602.14,-277.63"/>
<polygon fill="#9a32cd" stroke="#9a32cd" points="465.63,-258.1 455.29,-260.42 464.81,-265.06 465.63,-258.1"/>
<text text-anchor="middle" x="526" y="-276.76" font-family="Helvetica,sans-Serif" font-size="10.00"> lstSymAPs</text>
</g>
<!-- Node9&#45;&gt;Node4 -->
<g id="edge9" class="edge">
<title>Node9&#45;&gt;Node4</title>
<path fill="none" stroke="#9a32cd" stroke-dasharray="5,2" d="M465.54,-251.92C574.76,-250.71 774.45,-248.5 872.93,-247.41"/>
<polygon fill="#9a32cd" stroke="#9a32cd" points="465.22,-248.43 455.26,-252.04 465.3,-255.43 465.22,-248.43"/>
<text text-anchor="middle" x="672.5" y="-253.76" font-family="Helvetica,sans-Serif" font-size="10.00"> symVertices</text>
</g>
<!-- Node10&#45;&gt;Node4 -->
<g id="edge10" class="edge">
<title>Node10&#45;&gt;Node4</title>
<path fill="none" stroke="#9a32cd" stroke-dasharray="5,2" d="M1069.46,-237.57C1065.93,-238 1062.43,-238.4 1059,-238.76 1036.88,-241.1 1012.49,-242.84 991.11,-244.09"/>
<polygon fill="#9a32cd" stroke="#9a32cd" points="1070,-241.03 1079.47,-236.29 1069.11,-234.09 1070,-241.03"/>
<text text-anchor="middle" x="1036.5" y="-245.76" font-family="Helvetica,sans-Serif" font-size="10.00"> candidate</text>
</g>
<!-- Node11 -->
<g id="node11" class="node">
<title>Node11</title>
<g id="a_node11"><a xlink:title=" ">
<polygon fill="white" stroke="black" points="868,-184.26 868,-203.26 996,-203.26 996,-184.26 868,-184.26"/>
<text text-anchor="middle" x="932" y="-191.26" font-family="Helvetica,sans-Serif" font-size="10.00">Comparable&lt; Candidate &gt;</text>
</a>
</g>
</g>
<!-- Node11&#45;&gt;Node10 -->
<g id="edge11" class="edge">
<title>Node11&#45;&gt;Node10</title>
<path fill="none" stroke="midnightblue" d="M1002.78,-204.89C1027.87,-208.89 1055.93,-213.36 1080.11,-217.21"/>
<polygon fill="midnightblue" stroke="midnightblue" points="1003.02,-201.38 992.6,-203.26 1001.92,-208.29 1003.02,-201.38"/>
</g>
<!-- Node12 -->
<g id="node12" class="node">
<title>Node12</title>
<g id="a_node12"><a xlink:title=" ">
<polygon fill="white" stroke="black" points="347,-8.26 347,-27.26 431,-27.26 431,-8.26 347,-8.26"/>
<text text-anchor="middle" x="389" y="-15.26" font-family="Helvetica,sans-Serif" font-size="10.00">IAtomContainer</text>
</a>
</g>
</g>
<!-- Node12&#45;&gt;Node10 -->
<g id="edge14" class="edge">
<title>Node12&#45;&gt;Node10</title>
<path fill="none" stroke="#9a32cd" stroke-dasharray="5,2" d="M441.37,-10.46C528.06,-0.09 707.83,12.95 850,-32.76 974.56,-72.81 1095.38,-183.39 1130.1,-216.97"/>
<polygon fill="#9a32cd" stroke="#9a32cd" points="440.77,-7.01 431.27,-11.71 441.63,-13.95 440.77,-7.01"/>
<text text-anchor="middle" x="815" y="-35.76" font-family="Helvetica,sans-Serif" font-size="10.00"> iac</text>
</g>
<!-- Node12&#45;&gt;Node13 -->
<g id="edge18" class="edge">
<title>Node12&#45;&gt;Node13</title>
<path fill="none" stroke="#9a32cd" stroke-dasharray="5,2" d="M441.09,-19.5C480.02,-23.53 532.32,-35.22 565,-67.76 585.33,-88.01 562.11,-110.09 583,-129.76 590.45,-136.78 599.83,-141.52 609.67,-144.7"/>
<polygon fill="#9a32cd" stroke="#9a32cd" points="441.27,-16 431,-18.59 440.65,-22.97 441.27,-16"/>
<text text-anchor="middle" x="526" y="-70.76" font-family="Helvetica,sans-Serif" font-size="10.00"> mol</text>
</g>
<!-- Node13&#45;&gt;Node4 -->
<g id="edge15" class="edge">
<title>Node13&#45;&gt;Node4</title>
<path fill="none" stroke="#9a32cd" stroke-dasharray="5,2" d="M732.95,-138.65C776.98,-131.88 832.28,-126.92 850,-140.76 876,-161.06 847.76,-186.71 868,-212.76 876.62,-223.85 889.9,-231.78 902.05,-237.17"/>
<polygon fill="#9a32cd" stroke="#9a32cd" points="732.22,-135.22 722.89,-140.26 733.32,-142.14 732.22,-135.22"/>
<text text-anchor="middle" x="815" y="-143.76" font-family="Helvetica,sans-Serif" font-size="10.00"> templateJacket</text>
</g>
<!-- Node14 -->
<g id="node14" class="node">
<title>Node14</title>
<g id="a_node14"><a xlink:href="enumdenoptim_1_1graph_1_1_template_1_1_contract_level.html" target="_top" xlink:title="Enum specifying to what extent the template&#39;s inner graph can be changed.">
<polygon fill="white" stroke="black" points="325,-100.76 325,-130.76 453,-130.76 453,-100.76 325,-100.76"/>
<text text-anchor="start" x="333" y="-118.76" font-family="Helvetica,sans-Serif" font-size="10.00">denoptim.graph.Template.</text>
<text text-anchor="middle" x="389" y="-107.76" font-family="Helvetica,sans-Serif" font-size="10.00">ContractLevel</text>
</a>
</g>
</g>
<!-- Node14&#45;&gt;Node13 -->
<g id="edge19" class="edge">
<title>Node14&#45;&gt;Node13</title>
<path fill="none" stroke="#9a32cd" stroke-dasharray="5,2" d="M463.21,-123.19C494.58,-126.5 531.62,-130.6 565,-134.76 579.54,-136.58 595.18,-138.69 609.88,-140.74"/>
<polygon fill="#9a32cd" stroke="#9a32cd" points="463.55,-119.7 453.24,-122.14 462.82,-126.66 463.55,-119.7"/>
<text text-anchor="middle" x="526" y="-137.76" font-family="Helvetica,sans-Serif" font-size="10.00"> contractLevel</text>
</g>
<!-- Node15 -->
<g id="node15" class="node">
<title>Node15</title>
<g id="a_node15"><a xlink:title=" ">
<polygon fill="white" stroke="black" points="309,-51.76 309,-81.76 469,-81.76 469,-51.76 309,-51.76"/>
<text text-anchor="start" x="317" y="-69.76" font-family="Helvetica,sans-Serif" font-size="10.00">List&lt; denoptim.graph.Attachment</text>
<text text-anchor="middle" x="389" y="-58.76" font-family="Helvetica,sans-Serif" font-size="10.00">Point &gt;</text>
</a>
</g>
</g>
<!-- Node15&#45;&gt;Node13 -->
<g id="edge20" class="edge">
<title>Node15&#45;&gt;Node13</title>
<path fill="none" stroke="#9a32cd" stroke-dasharray="5,2" d="M479.23,-80.09C507.88,-86.84 538.92,-96.88 565,-111.76 574.83,-117.37 573.09,-124.3 583,-129.76 591.28,-134.32 600.54,-137.85 609.86,-140.57"/>
<polygon fill="#9a32cd" stroke="#9a32cd" points="479.74,-76.62 469.21,-77.84 478.2,-83.45 479.74,-76.62"/>
<text text-anchor="middle" x="526" y="-114.76" font-family="Helvetica,sans-Serif" font-size="10.00"> requiredAPs</text>
</g>
<!-- Node16 -->
<g id="node16" class="node">
<title>Node16</title>
<g id="a_node16"><a xlink:href="classdenoptim_1_1graph_1_1_a_p_tree_map.html" target="_top" xlink:title="Attachment point mapping where keys are sorted by natural ordering, i.e., by AttachmentPoint#compareT...">
<polygon fill="white" stroke="black" points="320.5,-150.26 320.5,-169.26 457.5,-169.26 457.5,-150.26 320.5,-150.26"/>
<text text-anchor="middle" x="389" y="-157.26" font-family="Helvetica,sans-Serif" font-size="10.00">denoptim.graph.APTreeMap</text>
</a>
</g>
</g>
<!-- Node16&#45;&gt;Node13 -->
<g id="edge21" class="edge">
<title>Node16&#45;&gt;Node13</title>
<path fill="none" stroke="#9a32cd" stroke-dasharray="5,2" d="M467.74,-151.95C474.25,-151.48 480.74,-151.07 487,-150.76 527.95,-148.75 574.08,-148.5 609.96,-148.76"/>
<polygon fill="#9a32cd" stroke="#9a32cd" points="467.22,-148.48 457.52,-152.74 467.76,-155.46 467.22,-148.48"/>
<text text-anchor="middle" x="526" y="-153.76" font-family="Helvetica,sans-Serif" font-size="10.00"> innerToOuterAPs</text>
</g>
<!-- Node17 -->
<g id="node17" class="node">
<title>Node17</title>
<g id="a_node17"><a xlink:title=" ">
<polygon fill="white" stroke="black" points="12.5,-74.76 12.5,-104.76 151.5,-104.76 151.5,-74.76 12.5,-74.76"/>
<text text-anchor="start" x="20.5" y="-92.76" font-family="Helvetica,sans-Serif" font-size="10.00">TreeMap&lt; AttachmentPoint,</text>
<text text-anchor="middle" x="82" y="-81.76" font-family="Helvetica,sans-Serif" font-size="10.00"> AttachmentPoint &gt;</text>
</a>
</g>
</g>
<!-- Node17&#45;&gt;Node16 -->
<g id="edge22" class="edge">
<title>Node17&#45;&gt;Node16</title>
<path fill="none" stroke="midnightblue" d="M161.97,-82.43C203.21,-82.3 252.88,-88.26 291,-111.76 303.59,-119.52 296.99,-131.12 309,-139.76 315.09,-144.14 322.04,-147.56 329.24,-150.24"/>
<polygon fill="midnightblue" stroke="midnightblue" points="161.9,-78.93 151.95,-82.58 162.01,-85.93 161.9,-78.93"/>
</g>
<!-- Node18 -->
<g id="node18" class="node">
<title>Node18</title>
<g id="a_node18"><a xlink:title=" ">
<polygon fill="white" stroke="black" points="584,-423.76 584,-475.76 761,-475.76 761,-423.76 584,-423.76"/>
<text text-anchor="start" x="592" y="-463.76" font-family="Helvetica,sans-Serif" font-size="10.00">DefaultUndirectedGraph</text>
<text text-anchor="start" x="592" y="-452.76" font-family="Helvetica,sans-Serif" font-size="10.00">&lt; denoptim.graph.Vertex,</text>
<text text-anchor="start" x="592" y="-441.76" font-family="Helvetica,sans-Serif" font-size="10.00"> denoptim.graph.simplified.Undirected</text>
<text text-anchor="middle" x="672.5" y="-430.76" font-family="Helvetica,sans-Serif" font-size="10.00">Edge &gt;</text>
</a>
</g>
</g>
<!-- Node18&#45;&gt;Node4 -->
<g id="edge23" class="edge">
<title>Node18&#45;&gt;Node4</title>
<path fill="none" stroke="#9a32cd" stroke-dasharray="5,2" d="M771,-423.32C798.59,-412.61 827.26,-398.08 850,-378.76 891.8,-343.24 918.42,-280.51 927.51,-256.49"/>
<polygon fill="#9a32cd" stroke="#9a32cd" points="769.44,-420.17 761.3,-426.95 771.89,-426.73 769.44,-420.17"/>
<text text-anchor="middle" x="815" y="-420.76" font-family="Helvetica,sans-Serif" font-size="10.00"> jGraph</text>
</g>
<!-- Node19 -->
<g id="node19" class="node">
<title>Node19</title>
<g id="a_node19"><a xlink:title=" ">
<polygon fill="white" stroke="black" points="583,-352.76 583,-404.76 762,-404.76 762,-352.76 583,-352.76"/>
<text text-anchor="start" x="591" y="-392.76" font-family="Helvetica,sans-Serif" font-size="10.00">DefaultUndirectedGraph</text>
<text text-anchor="start" x="591" y="-381.76" font-family="Helvetica,sans-Serif" font-size="10.00">&lt; denoptim.graph.simplified.</text>
<text text-anchor="start" x="591" y="-370.76" font-family="Helvetica,sans-Serif" font-size="10.00">Node, denoptim.graph.simplified.Node</text>
<text text-anchor="middle" x="672.5" y="-359.76" font-family="Helvetica,sans-Serif" font-size="10.00">Connection &gt;</text>
</a>
</g>
</g>
<!-- Node19&#45;&gt;Node4 -->
<g id="edge24" class="edge">
<title>Node19&#45;&gt;Node4</title>
<path fill="none" stroke="#9a32cd" stroke-dasharray="5,2" d="M772.43,-366.9C798.89,-360.83 826.61,-351.65 850,-337.76 885.28,-316.81 913.61,-275.35 925.26,-256.5"/>
<polygon fill="#9a32cd" stroke="#9a32cd" points="771.4,-363.55 762.37,-369.08 772.88,-370.39 771.4,-363.55"/>
<text text-anchor="middle" x="815" y="-366.76" font-family="Helvetica,sans-Serif" font-size="10.00"> jGraphKernel</text>
</g>
<!-- Node20 -->
<g id="node20" class="node">
<title>Node20</title>
<g id="a_node20"><a xlink:href="enumdenoptim_1_1graph_1_1_vertex_1_1_b_b_type.html" target="_top" xlink:title="The type of building block.">
<polygon fill="white" stroke="black" points="7.5,-200.26 7.5,-219.26 156.5,-219.26 156.5,-200.26 7.5,-200.26"/>
<text text-anchor="middle" x="82" y="-207.26" font-family="Helvetica,sans-Serif" font-size="10.00">denoptim.graph.Vertex.BBType</text>
</a>
</g>
</g>
<!-- Node20&#45;&gt;Node2 -->
<g id="edge25" class="edge">
<title>Node20&#45;&gt;Node2</title>
<path fill="none" stroke="#9a32cd" stroke-dasharray="5,2" d="M167.15,-209.49C219.7,-209.31 285.89,-209.1 332.05,-208.95"/>
<polygon fill="#9a32cd" stroke="#9a32cd" points="166.82,-205.99 156.83,-209.52 166.84,-212.99 166.82,-205.99"/>
<text text-anchor="middle" x="236.5" y="-212.76" font-family="Helvetica,sans-Serif" font-size="10.00"> buildingBlockType</text>
</g>
<!-- Node21 -->
<g id="node21" class="node">
<title>Node21</title>
<g id="a_node21"><a xlink:title=" ">
<polygon fill="white" stroke="black" points="25,-162.26 25,-181.26 139,-181.26 139,-162.26 25,-162.26"/>
<text text-anchor="middle" x="82" y="-169.26" font-family="Helvetica,sans-Serif" font-size="10.00">Map&lt; Object, Object &gt;</text>
</a>
</g>
</g>
<!-- Node21&#45;&gt;Node2 -->
<g id="edge26" class="edge">
<title>Node21&#45;&gt;Node2</title>
<path fill="none" stroke="#9a32cd" stroke-dasharray="5,2" d="M149.23,-178.52C190.13,-182.83 243.66,-188.73 291,-194.76 304.42,-196.47 318.86,-198.47 332.39,-200.41"/>
<polygon fill="#9a32cd" stroke="#9a32cd" points="149.43,-175.02 139.12,-177.46 148.7,-181.98 149.43,-175.02"/>
<text text-anchor="middle" x="236.5" y="-197.76" font-family="Helvetica,sans-Serif" font-size="10.00"> properties</text>
</g>
<!-- Node22 -->
<g id="node22" class="node">
<title>Node22</title>
<g id="a_node22"><a xlink:title=" ">
<polygon fill="white" stroke="black" points="45,-124.26 45,-143.26 119,-143.26 119,-124.26 45,-124.26"/>
<text text-anchor="middle" x="82" y="-131.26" font-family="Helvetica,sans-Serif" font-size="10.00">Set&lt; String &gt;</text>
</a>
</g>
</g>
<!-- Node22&#45;&gt;Node2 -->
<g id="edge27" class="edge">
<title>Node22&#45;&gt;Node2</title>
<path fill="none" stroke="#9a32cd" stroke-dasharray="5,2" d="M129.2,-136.21C172.23,-139.66 237.6,-147.95 291,-167.76 299.79,-171.02 300.58,-174.64 309,-178.76 325.07,-186.64 343.77,-193.82 358.94,-199.18"/>
<polygon fill="#9a32cd" stroke="#9a32cd" points="129.26,-132.7 119.03,-135.45 128.74,-139.68 129.26,-132.7"/>
<text text-anchor="middle" x="236.5" y="-170.76" font-family="Helvetica,sans-Serif" font-size="10.00"> uniquefyingPropertyKeys</text>
</g>
<!-- Node23 -->
<g id="node23" class="node">
<title>Node23</title>
<g id="a_node23"><a xlink:title=" ">
<polygon fill="white" stroke="black" points="11.5,-276.76 11.5,-306.76 152.5,-306.76 152.5,-276.76 11.5,-276.76"/>
<text text-anchor="start" x="19.5" y="-294.76" font-family="Helvetica,sans-Serif" font-size="10.00">List&lt; denoptim.utils.Mutation</text>
<text text-anchor="middle" x="82" y="-283.76" font-family="Helvetica,sans-Serif" font-size="10.00">Type &gt;</text>
</a>
</g>
</g>
<!-- Node23&#45;&gt;Node2 -->
<g id="edge28" class="edge">
<title>Node23&#45;&gt;Node2</title>
<path fill="none" stroke="#9a32cd" stroke-dasharray="5,2" d="M162.8,-290.69C203.83,-286.85 253.04,-276.88 291,-252.76 302.56,-245.42 297.63,-235.39 309,-227.76 316.03,-223.04 324.1,-219.49 332.34,-216.82"/>
<polygon fill="#9a32cd" stroke="#9a32cd" points="162.51,-287.2 152.83,-291.52 163.09,-294.18 162.51,-287.2"/>
<text text-anchor="middle" x="236.5" y="-291.76" font-family="Helvetica,sans-Serif" font-size="10.00"> allowedMutationTypes</text>
</g>
<!-- Node24 -->
<g id="node24" class="node">
<title>Node24</title>
<g id="a_node24"><a xlink:href="enumdenoptim_1_1graph_1_1_vertex_1_1_vertex_type.html" target="_top" xlink:title="Flag declaring the type of Vertex implementation.">
<polygon fill="white" stroke="black" points="0,-238.26 0,-257.26 164,-257.26 164,-238.26 0,-238.26"/>
<text text-anchor="middle" x="82" y="-245.26" font-family="Helvetica,sans-Serif" font-size="10.00">denoptim.graph.Vertex.VertexType</text>
</a>
</g>
</g>
<!-- Node24&#45;&gt;Node2 -->
<g id="edge29" class="edge">
<title>Node24&#45;&gt;Node2</title>
<path fill="none" stroke="#9a32cd" stroke-dasharray="5,2" d="M174.22,-238.74C210.61,-234.86 252.84,-230.02 291,-224.76 304.78,-222.86 319.62,-220.55 333.44,-218.28"/>
<polygon fill="#9a32cd" stroke="#9a32cd" points="173.7,-235.27 164.12,-239.81 174.44,-242.24 173.7,-235.27"/>
<text text-anchor="middle" x="236.5" y="-240.76" font-family="Helvetica,sans-Serif" font-size="10.00"> vertexType</text>
</g>
<!-- Node25 -->
<g id="node25" class="node">
<title>Node25</title>
<g id="a_node25"><a xlink:title=" ">
<polygon fill="white" stroke="black" points="323,-286.76 323,-316.76 455,-316.76 455,-286.76 323,-286.76"/>
<text text-anchor="start" x="331" y="-304.76" font-family="Helvetica,sans-Serif" font-size="10.00">ArrayList&lt; denoptim.graph.</text>
<text text-anchor="middle" x="389" y="-293.76" font-family="Helvetica,sans-Serif" font-size="10.00">AttachmentPoint &gt;</text>
</a>
</g>
</g>
<!-- Node25&#45;&gt;Node1 -->
<g id="edge30" class="edge">
<title>Node25&#45;&gt;Node1</title>
<path fill="none" stroke="#9a32cd" stroke-dasharray="5,2" d="M465.56,-301.51C496.42,-301.02 532.45,-299.96 565,-297.76 577.07,-296.95 589.87,-295.77 602.26,-294.47"/>
<polygon fill="#9a32cd" stroke="#9a32cd" points="465.25,-298.01 455.3,-301.65 465.35,-305.01 465.25,-298.01"/>
<text text-anchor="middle" x="526" y="-304.76" font-family="Helvetica,sans-Serif" font-size="10.00"> lstAPs</text>
</g>
</g>
</svg>
        <g id="navigator" transform="translate(0 0)" fill="#404254">
                <rect fill="#f2f5e9" fill-opacity="0.5" stroke="#606060" stroke-width=".5" x="0" y="0" width="60" height="60"/>
                <use id="zoomplus" xlink:href="#zoomPlus" x="17" y="9" onmousedown="handleZoom(evt,'in')"/>
                <use id="zoomminus" xlink:href="#zoomMin" x="42" y="9" onmousedown="handleZoom(evt,'out')"/>
                <use id="reset" xlink:href="#resetDef" x="30" y="36" onmousedown="handleReset()"/>
                <g id="arrowUp" xlink:href="#dirArrow" transform="translate(30 24)" onmousedown="handlePan(0,-1)">
                  <use xlink:href="#rim" fill="#404040">
                        <set attributeName="fill" to="#808080" begin="arrowUp.mouseover" end="arrowUp.mouseout"/>
                  </use>
                  <path fill="none" stroke="white" stroke-width="1.5" d="M0,-3.0v7 M-2.5,-0.5L0,-3.0L2.5,-0.5"/>
                </g>
                <g id="arrowRight" xlink:href="#dirArrow" transform="rotate(90) translate(36 -43)" onmousedown="handlePan(1,0)">
                  <use xlink:href="#rim" fill="#404040">
                        <set attributeName="fill" to="#808080" begin="arrowRight.mouseover" end="arrowRight.mouseout"/>
                  </use>
                  <path fill="none" stroke="white" stroke-width="1.5" d="M0,-3.0v7 M-2.5,-0.5L0,-3.0L2.5,-0.5"/>
                </g>
                <g id="arrowDown" xlink:href="#dirArrow" transform="rotate(180) translate(-30 -48)" onmousedown="handlePan(0,1)">
                  <use xlink:href="#rim" fill="#404040">
                        <set attributeName="fill" to="#808080" begin="arrowDown.mouseover" end="arrowDown.mouseout"/>
                  </use>
                  <path fill="none" stroke="white" stroke-width="1.5" d="M0,-3.0v7 M-2.5,-0.5L0,-3.0L2.5,-0.5"/>
                </g>
                <g id="arrowLeft" xlink:href="#dirArrow" transform="rotate(270) translate(-36 17)" onmousedown="handlePan(-1,0)">
                  <use xlink:href="#rim" fill="#404040">
                        <set attributeName="fill" to="#808080" begin="arrowLeft.mouseover" end="arrowLeft.mouseout"/>
                  </use>
                  <path fill="none" stroke="white" stroke-width="1.5" d="M0,-3.0v7 M-2.5,-0.5L0,-3.0L2.5,-0.5"/>
                </g>
        </g>
        <svg viewBox="0 0 15 15" width="100%" height="30px" preserveAspectRatio="xMaxYMin meet">
         <g id="arrow_out" transform="scale(0.3 0.3)">
          <a xlink:href="classdenoptim_1_1graph_1_1_empty_vertex__coll__graph_org.svg" target="_base">
           <rect id="button" ry="5" rx="5" y="6" x="6" height="38" width="38"
                fill="#f2f5e9" fill-opacity="0.5" stroke="#606060" stroke-width="1.0"/>
           <path id="arrow"
             d="M 11.500037,31.436501 C 11.940474,20.09759 22.043105,11.32322 32.158766,21.979434 L 37.068811,17.246167 C 37.068811,17.246167 37.088388,32 37.088388,32 L 22.160133,31.978069 C 22.160133,31.978069 26.997745,27.140456 26.997745,27.140456 C 18.528582,18.264221 13.291696,25.230495 11.500037,31.436501 z"
             style="fill:#404040;"/>
          </a>
         </g>
        </svg>
</svg>
