<?xml version="1.0" encoding="UTF-8" standalone="no"?>
<!DOCTYPE svg PUBLIC "-//W3C//DTD SVG 1.1//EN"
 "http://www.w3.org/Graphics/SVG/1.1/DTD/svg11.dtd">
<!-- Generated by graphviz version 3.0.0 (20220413.0242)
 -->
<!-- Title: denoptim.gui.GraphViewerPanel.JVertex Pages: 1 -->
<svg width="1306pt" height="884pt"
 viewBox="0.00 0.00 1306.00 883.62" xmlns="http://www.w3.org/2000/svg" xmlns:xlink="http://www.w3.org/1999/xlink">
<g id="graph0" class="graph" transform="scale(1 1) rotate(0) translate(4 879.62)">
<title>denoptim.gui.GraphViewerPanel.JVertex</title>
<polygon fill="white" stroke="transparent" points="-4,4 -4,-879.62 1302,-879.62 1302,4 -4,4"/>
<!-- Node1 -->
<g id="node1" class="node">
<title>Node1</title>
<g id="a_node1"><a xlink:title="a vertex in the JUNG Graph.">
<polygon fill="#bfbfbf" stroke="black" points="959,-744.62 959,-774.62 1089,-774.62 1089,-744.62 959,-744.62"/>
<text text-anchor="start" x="967" y="-762.62" font-family="Helvetica,sans-Serif" font-size="10.00">denoptim.gui.GraphViewer</text>
<text text-anchor="middle" x="1024" y="-751.62" font-family="Helvetica,sans-Serif" font-size="10.00">Panel.JVertex</text>
</a>
</g>
</g>
<!-- Node2 -->
<g id="node2" class="node">
<title>Node2</title>
<g id="a_node2"><a xlink:href="classdenoptim_1_1graph_1_1_vertex.html" target="_top" xlink:title="A vertex is a data structure that has an identity and holds a list of AttachmentPoints.">
<polygon fill="white" stroke="black" points="423.5,-696.12 423.5,-715.12 536.5,-715.12 536.5,-696.12 423.5,-696.12"/>
<text text-anchor="middle" x="480" y="-703.12" font-family="Helvetica,sans-Serif" font-size="10.00">denoptim.graph.Vertex</text>
</a>
</g>
</g>
<!-- Node2&#45;&gt;Node1 -->
<g id="edge1" class="edge">
<title>Node2&#45;&gt;Node1</title>
<path fill="none" stroke="#9a32cd" stroke-dasharray="5,2" d="M504.29,-720.43C539.42,-741.81 608.82,-780.32 674,-794.62 778.39,-817.53 903.67,-792.58 972.14,-774.62"/>
<polygon fill="#9a32cd" stroke="#9a32cd" points="506.06,-717.42 495.72,-715.14 502.39,-723.37 506.06,-717.42"/>
<text text-anchor="middle" x="763.5" y="-806.62" font-family="Helvetica,sans-Serif" font-size="10.00"> dnpVertex</text>
</g>
<!-- Node13 -->
<g id="node13" class="node">
<title>Node13</title>
<g id="a_node13"><a xlink:href="classdenoptim_1_1graph_1_1_template.html" target="_top" xlink:title=" ">
<polygon fill="white" stroke="black" points="701,-97.12 701,-116.12 826,-116.12 826,-97.12 701,-97.12"/>
<text text-anchor="middle" x="763.5" y="-104.12" font-family="Helvetica,sans-Serif" font-size="10.00">denoptim.graph.Template</text>
</a>
</g>
</g>
<!-- Node2&#45;&gt;Node13 -->
<g id="edge16" class="edge">
<title>Node2&#45;&gt;Node13</title>
<path fill="none" stroke="midnightblue" d="M546.17,-696.26C551.24,-693.71 555.95,-690.55 560,-686.62 581.82,-665.45 563.54,-647.36 578,-620.62 602.86,-574.65 636.39,-581.06 656,-532.62 672.99,-490.66 644.78,-160.19 674,-125.62 680.9,-117.46 690.38,-112.29 700.58,-109.11"/>
<polygon fill="midnightblue" stroke="midnightblue" points="544.6,-693.12 536.72,-700.2 547.3,-699.58 544.6,-693.12"/>
</g>
<!-- Node25 -->
<g id="node25" class="node">
<title>Node25</title>
<g id="a_node25"><a xlink:href="classdenoptim_1_1graph_1_1_attachment_point.html" target="_top" xlink:title="An attachment point (AP) is a possibility to attach a Vertex onto the vertex holding the AP (i....">
<polygon fill="white" stroke="black" points="696,-656.62 696,-686.62 831,-686.62 831,-656.62 696,-656.62"/>
<text text-anchor="start" x="704" y="-674.62" font-family="Helvetica,sans-Serif" font-size="10.00">denoptim.graph.Attachment</text>
<text text-anchor="middle" x="763.5" y="-663.62" font-family="Helvetica,sans-Serif" font-size="10.00">Point</text>
</a>
</g>
</g>
<!-- Node2&#45;&gt;Node25 -->
<g id="edge40" class="edge">
<title>Node2&#45;&gt;Node25</title>
<path fill="none" stroke="#9a32cd" stroke-dasharray="5,2" d="M546.82,-697.67C591.66,-692.25 650.83,-685.11 695.85,-679.67"/>
<polygon fill="#9a32cd" stroke="#9a32cd" points="546.12,-694.23 536.62,-698.9 546.96,-701.18 546.12,-694.23"/>
<text text-anchor="middle" x="617" y="-696.62" font-family="Helvetica,sans-Serif" font-size="10.00"> owner</text>
</g>
<!-- Node3 -->
<g id="node3" class="node">
<title>Node3</title>
<g id="a_node3"><a xlink:title=" ">
<polygon fill="white" stroke="black" points="143.5,-562.12 143.5,-581.12 202.5,-581.12 202.5,-562.12 143.5,-562.12"/>
<text text-anchor="middle" x="173" y="-569.12" font-family="Helvetica,sans-Serif" font-size="10.00">Cloneable</text>
</a>
</g>
</g>
<!-- Node3&#45;&gt;Node2 -->
<g id="edge2" class="edge">
<title>Node3&#45;&gt;Node2</title>
<path fill="none" stroke="midnightblue" d="M202.41,-585.75C222.19,-595.57 249.18,-608.93 273,-620.62 321.36,-644.35 335.77,-645.97 382,-673.62 390.47,-678.69 391.03,-682.5 400,-686.62 408.33,-690.45 417.53,-693.56 426.61,-696.07"/>
<polygon fill="midnightblue" stroke="midnightblue" points="203.84,-582.55 193.33,-581.24 200.73,-588.82 203.84,-582.55"/>
</g>
<!-- Node4 -->
<g id="node4" class="node">
<title>Node4</title>
<g id="a_node4"><a xlink:href="classdenoptim_1_1graph_1_1_d_graph.html" target="_top" xlink:title="Container for the list of vertices and the edges that connect them.">
<polygon fill="white" stroke="black" points="965,-283.12 965,-302.12 1083,-302.12 1083,-283.12 965,-283.12"/>
<text text-anchor="middle" x="1024" y="-290.12" font-family="Helvetica,sans-Serif" font-size="10.00">denoptim.graph.DGraph</text>
</a>
</g>
</g>
<!-- Node3&#45;&gt;Node4 -->
<g id="edge4" class="edge">
<title>Node3&#45;&gt;Node4</title>
<path fill="none" stroke="midnightblue" d="M212.88,-566.88C311.67,-554.77 570.56,-522.59 656,-507.62 744.27,-492.15 768.09,-493.27 853,-464.62 893.88,-450.82 914.7,-457.82 941,-423.62 968.8,-387.48 931.25,-358.8 959,-322.62 966.17,-313.27 976.96,-306.72 987.65,-302.18"/>
<polygon fill="midnightblue" stroke="midnightblue" points="212.23,-563.43 202.73,-568.12 213.08,-570.38 212.23,-563.43"/>
</g>
<!-- Node10 -->
<g id="node10" class="node">
<title>Node10</title>
<g id="a_node10"><a xlink:href="classdenoptim_1_1graph_1_1_candidate.html" target="_top" xlink:title="A candidate is the combination of a denoptim graph with molecular representation and may include also...">
<polygon fill="white" stroke="black" points="1170,-306.12 1170,-325.12 1298,-325.12 1298,-306.12 1170,-306.12"/>
<text text-anchor="middle" x="1234" y="-313.12" font-family="Helvetica,sans-Serif" font-size="10.00">denoptim.graph.Candidate</text>
</a>
</g>
</g>
<!-- Node3&#45;&gt;Node10 -->
<g id="edge12" class="edge">
<title>Node3&#45;&gt;Node10</title>
<path fill="none" stroke="midnightblue" d="M212.8,-572.65C318.36,-574.34 618.53,-571.74 853,-497.62 1001.56,-450.66 1165.97,-355.85 1217.01,-325.33"/>
<polygon fill="midnightblue" stroke="midnightblue" points="212.69,-569.15 202.63,-572.46 212.56,-576.14 212.69,-569.15"/>
</g>
<!-- Node3&#45;&gt;Node25 -->
<g id="edge31" class="edge">
<title>Node3&#45;&gt;Node25</title>
<path fill="none" stroke="midnightblue" d="M212.9,-578.23C311.49,-594.98 572.09,-639.27 695.67,-660.26"/>
<polygon fill="midnightblue" stroke="midnightblue" points="213.23,-574.74 202.78,-576.51 212.06,-581.64 213.23,-574.74"/>
</g>
<!-- Node27 -->
<g id="node27" class="node">
<title>Node27</title>
<g id="a_node27"><a xlink:href="classdenoptim_1_1graph_1_1_a_p_class.html" target="_top" xlink:title=" ">
<polygon fill="white" stroke="black" points="418.5,-486.12 418.5,-505.12 541.5,-505.12 541.5,-486.12 418.5,-486.12"/>
<text text-anchor="middle" x="480" y="-493.12" font-family="Helvetica,sans-Serif" font-size="10.00">denoptim.graph.APClass</text>
</a>
</g>
</g>
<!-- Node3&#45;&gt;Node27 -->
<g id="edge34" class="edge">
<title>Node3&#45;&gt;Node27</title>
<path fill="none" stroke="midnightblue" d="M206.7,-558.26C225.79,-550.83 250.49,-541.86 273,-535.62 321.28,-522.25 377.12,-511.7 418.48,-504.8"/>
<polygon fill="midnightblue" stroke="midnightblue" points="205.28,-555.06 197.27,-561.98 207.85,-561.57 205.28,-555.06"/>
</g>
<!-- Node4&#45;&gt;Node2 -->
<g id="edge3" class="edge">
<title>Node4&#45;&gt;Node2</title>
<path fill="none" stroke="#9a32cd" stroke-dasharray="5,2" d="M977.02,-306.8C970.01,-310.86 963.59,-316.04 959,-322.62 931.85,-361.6 970.01,-498 941,-535.62 836.45,-671.21 718.02,-566.08 578,-664.62 567.67,-671.89 570.7,-679.9 560,-686.62 552.95,-691.05 544.95,-694.44 536.82,-697.04"/>
<polygon fill="#9a32cd" stroke="#9a32cd" points="978.76,-309.84 986.14,-302.23 975.63,-303.58 978.76,-309.84"/>
<text text-anchor="middle" x="763.5" y="-624.62" font-family="Helvetica,sans-Serif" font-size="10.00"> owner</text>
</g>
<!-- Node4&#45;&gt;Node10 -->
<g id="edge13" class="edge">
<title>Node4&#45;&gt;Node10</title>
<path fill="none" stroke="#9a32cd" stroke-dasharray="5,2" d="M1093.29,-284.8C1112.39,-284 1133.09,-284.44 1152,-287.62 1172.84,-291.12 1195.48,-299.35 1211.51,-305.99"/>
<polygon fill="#9a32cd" stroke="#9a32cd" points="1092.96,-281.31 1083.17,-285.34 1093.34,-288.3 1092.96,-281.31"/>
<text text-anchor="middle" x="1129.5" y="-290.62" font-family="Helvetica,sans-Serif" font-size="10.00"> graph</text>
</g>
<!-- Node4&#45;&gt;Node13 -->
<g id="edge17" class="edge">
<title>Node4&#45;&gt;Node13</title>
<path fill="none" stroke="#9a32cd" stroke-dasharray="5,2" d="M1019.9,-272.85C1013.01,-236.26 992.75,-158.47 941,-122.62 907.99,-99.75 862.77,-96.04 826.37,-97.9"/>
<polygon fill="#9a32cd" stroke="#9a32cd" points="1016.46,-273.53 1021.63,-282.79 1023.36,-272.34 1016.46,-273.53"/>
<text text-anchor="middle" x="906" y="-125.62" font-family="Helvetica,sans-Serif" font-size="10.00"> innerGraph</text>
</g>
<!-- Node5 -->
<g id="node5" class="node">
<title>Node5</title>
<g id="a_node5"><a xlink:title=" ">
<polygon fill="white" stroke="black" points="697.5,-47.62 697.5,-77.62 829.5,-77.62 829.5,-47.62 697.5,-47.62"/>
<text text-anchor="start" x="705.5" y="-65.62" font-family="Helvetica,sans-Serif" font-size="10.00">ArrayList&lt; denoptim.graph.</text>
<text text-anchor="middle" x="763.5" y="-54.62" font-family="Helvetica,sans-Serif" font-size="10.00">Vertex &gt;</text>
</a>
</g>
</g>
<!-- Node5&#45;&gt;Node4 -->
<g id="edge5" class="edge">
<title>Node5&#45;&gt;Node4</title>
<path fill="none" stroke="#9a32cd" stroke-dasharray="5,2" d="M840.13,-55.47C874.11,-56.15 912.8,-62.75 941,-84.62 1007.25,-136 1020.08,-248.76 1022.47,-282.74"/>
<polygon fill="#9a32cd" stroke="#9a32cd" points="839.76,-51.97 829.75,-55.45 839.74,-58.97 839.76,-51.97"/>
<text text-anchor="middle" x="906" y="-87.62" font-family="Helvetica,sans-Serif" font-size="10.00"> gVertices</text>
</g>
<!-- Node6 -->
<g id="node6" class="node">
<title>Node6</title>
<g id="a_node6"><a xlink:title=" ">
<polygon fill="white" stroke="black" points="697.5,-424.62 697.5,-454.62 829.5,-454.62 829.5,-424.62 697.5,-424.62"/>
<text text-anchor="start" x="705.5" y="-442.62" font-family="Helvetica,sans-Serif" font-size="10.00">ArrayList&lt; denoptim.graph.</text>
<text text-anchor="middle" x="763.5" y="-431.62" font-family="Helvetica,sans-Serif" font-size="10.00">Edge &gt;</text>
</a>
</g>
</g>
<!-- Node6&#45;&gt;Node4 -->
<g id="edge6" class="edge">
<title>Node6&#45;&gt;Node4</title>
<path fill="none" stroke="#9a32cd" stroke-dasharray="5,2" d="M835.01,-421.62C841.13,-419.72 847.2,-417.71 853,-415.62 893.42,-401.06 912.17,-407.47 941,-375.62 957.7,-357.18 942.41,-341.16 959,-322.62 967.26,-313.38 978.97,-306.77 990.11,-302.14"/>
<polygon fill="#9a32cd" stroke="#9a32cd" points="833.94,-418.28 825.37,-424.51 835.95,-424.99 833.94,-418.28"/>
<text text-anchor="middle" x="906" y="-411.62" font-family="Helvetica,sans-Serif" font-size="10.00"> gEdges</text>
</g>
<!-- Node7 -->
<g id="node7" class="node">
<title>Node7</title>
<g id="a_node7"><a xlink:title=" ">
<polygon fill="white" stroke="black" points="697.5,-375.62 697.5,-405.62 829.5,-405.62 829.5,-375.62 697.5,-375.62"/>
<text text-anchor="start" x="705.5" y="-393.62" font-family="Helvetica,sans-Serif" font-size="10.00">ArrayList&lt; denoptim.graph.</text>
<text text-anchor="middle" x="763.5" y="-382.62" font-family="Helvetica,sans-Serif" font-size="10.00">Ring &gt;</text>
</a>
</g>
</g>
<!-- Node7&#45;&gt;Node4 -->
<g id="edge7" class="edge">
<title>Node7&#45;&gt;Node4</title>
<path fill="none" stroke="#9a32cd" stroke-dasharray="5,2" d="M829.16,-372.79C837.2,-370.44 845.31,-368.02 853,-365.62 892.45,-353.33 904.29,-354.59 941,-335.62 949.77,-331.09 950.5,-327.63 959,-322.62 972.11,-314.9 987.54,-307.62 999.96,-302.17"/>
<polygon fill="#9a32cd" stroke="#9a32cd" points="828.03,-369.47 819.4,-375.6 829.98,-376.19 828.03,-369.47"/>
<text text-anchor="middle" x="906" y="-363.62" font-family="Helvetica,sans-Serif" font-size="10.00"> gRings</text>
</g>
<!-- Node8 -->
<g id="node8" class="node">
<title>Node8</title>
<g id="a_node8"><a xlink:title=" ">
<polygon fill="white" stroke="black" points="686,-326.62 686,-356.62 841,-356.62 841,-326.62 686,-326.62"/>
<text text-anchor="start" x="694" y="-344.62" font-family="Helvetica,sans-Serif" font-size="10.00">ArrayList&lt; denoptim.graph.rings.</text>
<text text-anchor="middle" x="763.5" y="-333.62" font-family="Helvetica,sans-Serif" font-size="10.00">ClosableChain &gt;</text>
</a>
</g>
</g>
<!-- Node8&#45;&gt;Node4 -->
<g id="edge8" class="edge">
<title>Node8&#45;&gt;Node4</title>
<path fill="none" stroke="#9a32cd" stroke-dasharray="5,2" d="M850.89,-325.25C891.4,-317.57 938.24,-308.69 972.81,-302.13"/>
<polygon fill="#9a32cd" stroke="#9a32cd" points="850.18,-321.82 841.01,-327.12 851.49,-328.69 850.18,-321.82"/>
<text text-anchor="middle" x="906" y="-323.62" font-family="Helvetica,sans-Serif" font-size="10.00"> closableChains</text>
</g>
<!-- Node9 -->
<g id="node9" class="node">
<title>Node9</title>
<g id="a_node9"><a xlink:title=" ">
<polygon fill="white" stroke="black" points="697.5,-277.62 697.5,-307.62 829.5,-307.62 829.5,-277.62 697.5,-277.62"/>
<text text-anchor="start" x="705.5" y="-295.62" font-family="Helvetica,sans-Serif" font-size="10.00">ArrayList&lt; denoptim.graph.</text>
<text text-anchor="middle" x="763.5" y="-284.62" font-family="Helvetica,sans-Serif" font-size="10.00">SymmetricSet &gt;</text>
</a>
</g>
</g>
<!-- Node9&#45;&gt;Node4 -->
<g id="edge9" class="edge">
<title>Node9&#45;&gt;Node4</title>
<path fill="none" stroke="#9a32cd" stroke-dasharray="5,2" d="M839.93,-292.62C879.78,-292.62 927.93,-292.62 964.85,-292.62"/>
<polygon fill="#9a32cd" stroke="#9a32cd" points="839.73,-289.12 829.73,-292.62 839.73,-296.12 839.73,-289.12"/>
<text text-anchor="middle" x="906" y="-295.62" font-family="Helvetica,sans-Serif" font-size="10.00"> symVertices</text>
</g>
<!-- Node10&#45;&gt;Node4 -->
<g id="edge10" class="edge">
<title>Node10&#45;&gt;Node4</title>
<path fill="none" stroke="#9a32cd" stroke-dasharray="5,2" d="M1159.51,-307.49C1134.49,-304.73 1106.88,-301.67 1083.22,-299.06"/>
<polygon fill="#9a32cd" stroke="#9a32cd" points="1159.37,-311 1169.69,-308.62 1160.14,-304.04 1159.37,-311"/>
<text text-anchor="middle" x="1129.5" y="-309.62" font-family="Helvetica,sans-Serif" font-size="10.00"> candidate</text>
</g>
<!-- Node11 -->
<g id="node11" class="node">
<title>Node11</title>
<g id="a_node11"><a xlink:title=" ">
<polygon fill="white" stroke="black" points="960,-332.12 960,-351.12 1088,-351.12 1088,-332.12 960,-332.12"/>
<text text-anchor="middle" x="1024" y="-339.12" font-family="Helvetica,sans-Serif" font-size="10.00">Comparable&lt; Candidate &gt;</text>
</a>
</g>
</g>
<!-- Node11&#45;&gt;Node10 -->
<g id="edge11" class="edge">
<title>Node11&#45;&gt;Node10</title>
<path fill="none" stroke="midnightblue" d="M1098.42,-332.44C1121.69,-329.53 1147.19,-326.35 1169.69,-323.53"/>
<polygon fill="midnightblue" stroke="midnightblue" points="1097.74,-329 1088.25,-333.71 1098.61,-335.95 1097.74,-329"/>
</g>
<!-- Node12 -->
<g id="node12" class="node">
<title>Node12</title>
<g id="a_node12"><a xlink:title=" ">
<polygon fill="white" stroke="black" points="438,-66.12 438,-85.12 522,-85.12 522,-66.12 438,-66.12"/>
<text text-anchor="middle" x="480" y="-73.12" font-family="Helvetica,sans-Serif" font-size="10.00">IAtomContainer</text>
</a>
</g>
</g>
<!-- Node12&#45;&gt;Node10 -->
<g id="edge14" class="edge">
<title>Node12&#45;&gt;Node10</title>
<path fill="none" stroke="#9a32cd" stroke-dasharray="5,2" d="M531.9,-66.18C541.44,-63.63 551.17,-60.48 560,-56.62 568.81,-52.77 568.91,-47.74 578,-44.62 730.61,7.72 792.97,20.54 941,-43.62 1082.44,-104.93 1198.59,-265.14 1226.57,-306.02"/>
<polygon fill="#9a32cd" stroke="#9a32cd" points="530.94,-62.81 522.08,-68.62 532.63,-69.6 530.94,-62.81"/>
<text text-anchor="middle" x="906" y="-46.62" font-family="Helvetica,sans-Serif" font-size="10.00"> iac</text>
</g>
<!-- Node12&#45;&gt;Node13 -->
<g id="edge18" class="edge">
<title>Node12&#45;&gt;Node13</title>
<path fill="none" stroke="#9a32cd" stroke-dasharray="5,2" d="M532.29,-81.27C579.74,-86.49 650.37,-94.27 700.87,-99.83"/>
<polygon fill="#9a32cd" stroke="#9a32cd" points="532.56,-77.78 522.23,-80.16 531.79,-84.74 532.56,-77.78"/>
<text text-anchor="middle" x="617" y="-98.62" font-family="Helvetica,sans-Serif" font-size="10.00"> mol</text>
</g>
<!-- Node13&#45;&gt;Node4 -->
<g id="edge15" class="edge">
<title>Node13&#45;&gt;Node4</title>
<path fill="none" stroke="#9a32cd" stroke-dasharray="5,2" d="M836,-119.13C841.86,-121.01 847.59,-123.16 853,-125.62 932.82,-161.98 997.02,-252.65 1016.73,-282.74"/>
<polygon fill="#9a32cd" stroke="#9a32cd" points="836.66,-115.68 826.08,-116.23 834.69,-122.4 836.66,-115.68"/>
<text text-anchor="middle" x="906" y="-188.62" font-family="Helvetica,sans-Serif" font-size="10.00"> templateJacket</text>
</g>
<!-- Node14 -->
<g id="node14" class="node">
<title>Node14</title>
<g id="a_node14"><a xlink:href="enumdenoptim_1_1graph_1_1_template_1_1_contract_level.html" target="_top" xlink:title="Enum specifying to what extent the template&#39;s inner graph can be changed.">
<polygon fill="white" stroke="black" points="416,-153.62 416,-183.62 544,-183.62 544,-153.62 416,-153.62"/>
<text text-anchor="start" x="424" y="-171.62" font-family="Helvetica,sans-Serif" font-size="10.00">denoptim.graph.Template.</text>
<text text-anchor="middle" x="480" y="-160.62" font-family="Helvetica,sans-Serif" font-size="10.00">ContractLevel</text>
</a>
</g>
</g>
<!-- Node14&#45;&gt;Node13 -->
<g id="edge19" class="edge">
<title>Node14&#45;&gt;Node13</title>
<path fill="none" stroke="#9a32cd" stroke-dasharray="5,2" d="M554.37,-153.66C585.76,-147.01 622.77,-138.84 656,-130.62 664.06,-128.63 665.94,-127.6 674,-125.62 687.43,-122.32 702.08,-119.04 715.53,-116.16"/>
<polygon fill="#9a32cd" stroke="#9a32cd" points="553.45,-150.28 544.38,-155.77 554.89,-157.13 553.45,-150.28"/>
<text text-anchor="middle" x="617" y="-151.62" font-family="Helvetica,sans-Serif" font-size="10.00"> contractLevel</text>
</g>
<!-- Node15 -->
<g id="node15" class="node">
<title>Node15</title>
<g id="a_node15"><a xlink:title=" ">
<polygon fill="white" stroke="black" points="400,-104.62 400,-134.62 560,-134.62 560,-104.62 400,-104.62"/>
<text text-anchor="start" x="408" y="-122.62" font-family="Helvetica,sans-Serif" font-size="10.00">List&lt; denoptim.graph.Attachment</text>
<text text-anchor="middle" x="480" y="-111.62" font-family="Helvetica,sans-Serif" font-size="10.00">Point &gt;</text>
</a>
</g>
</g>
<!-- Node15&#45;&gt;Node13 -->
<g id="edge20" class="edge">
<title>Node15&#45;&gt;Node13</title>
<path fill="none" stroke="#9a32cd" stroke-dasharray="5,2" d="M570.24,-115.5C612.78,-113.53 662.6,-111.23 700.87,-109.47"/>
<polygon fill="#9a32cd" stroke="#9a32cd" points="569.99,-112.01 560.16,-115.96 570.31,-119 569.99,-112.01"/>
<text text-anchor="middle" x="617" y="-118.62" font-family="Helvetica,sans-Serif" font-size="10.00"> requiredAPs</text>
</g>
<!-- Node16 -->
<g id="node16" class="node">
<title>Node16</title>
<g id="a_node16"><a xlink:href="classdenoptim_1_1graph_1_1_a_p_tree_map.html" target="_top" xlink:title="Attachment point mapping where keys are sorted by natural ordering, i.e., by AttachmentPoint#compareT...">
<polygon fill="white" stroke="black" points="411.5,-28.12 411.5,-47.12 548.5,-47.12 548.5,-28.12 411.5,-28.12"/>
<text text-anchor="middle" x="480" y="-35.12" font-family="Helvetica,sans-Serif" font-size="10.00">denoptim.graph.APTreeMap</text>
</a>
</g>
</g>
<!-- Node16&#45;&gt;Node13 -->
<g id="edge21" class="edge">
<title>Node16&#45;&gt;Node13</title>
<path fill="none" stroke="#9a32cd" stroke-dasharray="5,2" d="M558.71,-44.22C590.05,-49.02 625.85,-57.31 656,-71.62 665.41,-76.09 664.66,-82.01 674,-86.62 682.76,-90.94 692.46,-94.35 702.15,-97.02"/>
<polygon fill="#9a32cd" stroke="#9a32cd" points="559.1,-40.74 548.71,-42.78 558.11,-47.67 559.1,-40.74"/>
<text text-anchor="middle" x="617" y="-74.62" font-family="Helvetica,sans-Serif" font-size="10.00"> innerToOuterAPs</text>
</g>
<!-- Node17 -->
<g id="node17" class="node">
<title>Node17</title>
<g id="a_node17"><a xlink:title=" ">
<polygon fill="white" stroke="black" points="103.5,-22.62 103.5,-52.62 242.5,-52.62 242.5,-22.62 103.5,-22.62"/>
<text text-anchor="start" x="111.5" y="-40.62" font-family="Helvetica,sans-Serif" font-size="10.00">TreeMap&lt; AttachmentPoint,</text>
<text text-anchor="middle" x="173" y="-29.62" font-family="Helvetica,sans-Serif" font-size="10.00"> AttachmentPoint &gt;</text>
</a>
</g>
</g>
<!-- Node17&#45;&gt;Node16 -->
<g id="edge22" class="edge">
<title>Node17&#45;&gt;Node16</title>
<path fill="none" stroke="midnightblue" d="M253.1,-37.62C302.22,-37.62 364.68,-37.62 411.47,-37.62"/>
<polygon fill="midnightblue" stroke="midnightblue" points="252.83,-34.12 242.83,-37.62 252.83,-41.12 252.83,-34.12"/>
</g>
<!-- Node18 -->
<g id="node18" class="node">
<title>Node18</title>
<g id="a_node18"><a xlink:title=" ">
<polygon fill="white" stroke="black" points="675,-206.62 675,-258.62 852,-258.62 852,-206.62 675,-206.62"/>
<text text-anchor="start" x="683" y="-246.62" font-family="Helvetica,sans-Serif" font-size="10.00">DefaultUndirectedGraph</text>
<text text-anchor="start" x="683" y="-235.62" font-family="Helvetica,sans-Serif" font-size="10.00">&lt; denoptim.graph.Vertex,</text>
<text text-anchor="start" x="683" y="-224.62" font-family="Helvetica,sans-Serif" font-size="10.00"> denoptim.graph.simplified.Undirected</text>
<text text-anchor="middle" x="763.5" y="-213.62" font-family="Helvetica,sans-Serif" font-size="10.00">Edge &gt;</text>
</a>
</g>
</g>
<!-- Node18&#45;&gt;Node4 -->
<g id="edge23" class="edge">
<title>Node18&#45;&gt;Node4</title>
<path fill="none" stroke="#9a32cd" stroke-dasharray="5,2" d="M861.91,-255.23C903.46,-264.87 949.69,-275.61 981.93,-283.09"/>
<polygon fill="#9a32cd" stroke="#9a32cd" points="862.55,-251.79 852.02,-252.93 860.97,-258.6 862.55,-251.79"/>
<text text-anchor="middle" x="906" y="-276.62" font-family="Helvetica,sans-Serif" font-size="10.00"> jGraph</text>
</g>
<!-- Node19 -->
<g id="node19" class="node">
<title>Node19</title>
<g id="a_node19"><a xlink:title=" ">
<polygon fill="white" stroke="black" points="674,-135.62 674,-187.62 853,-187.62 853,-135.62 674,-135.62"/>
<text text-anchor="start" x="682" y="-175.62" font-family="Helvetica,sans-Serif" font-size="10.00">DefaultUndirectedGraph</text>
<text text-anchor="start" x="682" y="-164.62" font-family="Helvetica,sans-Serif" font-size="10.00">&lt; denoptim.graph.simplified.</text>
<text text-anchor="start" x="682" y="-153.62" font-family="Helvetica,sans-Serif" font-size="10.00">Node, denoptim.graph.simplified.Node</text>
<text text-anchor="middle" x="763.5" y="-142.62" font-family="Helvetica,sans-Serif" font-size="10.00">Connection &gt;</text>
</a>
</g>
</g>
<!-- Node19&#45;&gt;Node4 -->
<g id="edge24" class="edge">
<title>Node19&#45;&gt;Node4</title>
<path fill="none" stroke="#9a32cd" stroke-dasharray="5,2" d="M842.19,-191.71C845.86,-193.33 849.48,-194.97 853,-196.62 912.24,-224.36 978.78,-264.84 1007.94,-283.08"/>
<polygon fill="#9a32cd" stroke="#9a32cd" points="843.55,-188.49 832.99,-187.73 840.78,-194.91 843.55,-188.49"/>
<text text-anchor="middle" x="906" y="-244.62" font-family="Helvetica,sans-Serif" font-size="10.00"> jGraphKernel</text>
</g>
<!-- Node20 -->
<g id="node20" class="node">
<title>Node20</title>
<g id="a_node20"><a xlink:href="enumdenoptim_1_1graph_1_1_vertex_1_1_b_b_type.html" target="_top" xlink:title="The type of building block.">
<polygon fill="white" stroke="black" points="98.5,-696.12 98.5,-715.12 247.5,-715.12 247.5,-696.12 98.5,-696.12"/>
<text text-anchor="middle" x="173" y="-703.12" font-family="Helvetica,sans-Serif" font-size="10.00">denoptim.graph.Vertex.BBType</text>
</a>
</g>
</g>
<!-- Node20&#45;&gt;Node2 -->
<g id="edge25" class="edge">
<title>Node20&#45;&gt;Node2</title>
<path fill="none" stroke="#9a32cd" stroke-dasharray="5,2" d="M258.15,-705.62C310.7,-705.62 376.89,-705.62 423.05,-705.62"/>
<polygon fill="#9a32cd" stroke="#9a32cd" points="257.83,-702.12 247.83,-705.62 257.83,-709.12 257.83,-702.12"/>
<text text-anchor="middle" x="327.5" y="-708.62" font-family="Helvetica,sans-Serif" font-size="10.00"> buildingBlockType</text>
</g>
<!-- Node21 -->
<g id="node21" class="node">
<title>Node21</title>
<g id="a_node21"><a xlink:title=" ">
<polygon fill="white" stroke="black" points="116,-830.12 116,-849.12 230,-849.12 230,-830.12 116,-830.12"/>
<text text-anchor="middle" x="173" y="-837.12" font-family="Helvetica,sans-Serif" font-size="10.00">Map&lt; Object, Object &gt;</text>
</a>
</g>
</g>
<!-- Node21&#45;&gt;Node2 -->
<g id="edge26" class="edge">
<title>Node21&#45;&gt;Node2</title>
<path fill="none" stroke="#9a32cd" stroke-dasharray="5,2" d="M240.22,-830.98C282.5,-823.59 337.53,-810.4 382,-787.62 419.29,-768.52 454.66,-732.6 470.42,-715.35"/>
<polygon fill="#9a32cd" stroke="#9a32cd" points="239.59,-827.54 230.31,-832.65 240.75,-834.44 239.59,-827.54"/>
<text text-anchor="middle" x="327.5" y="-825.62" font-family="Helvetica,sans-Serif" font-size="10.00"> properties</text>
</g>
<!-- Node21&#45;&gt;Node25 -->
<g id="edge44" class="edge">
<title>Node21&#45;&gt;Node25</title>
<path fill="none" stroke="#9a32cd" stroke-dasharray="5,2" d="M227.26,-851.01C303.95,-864.85 448.49,-881.22 560,-836.62 614.3,-814.9 623.87,-795.49 656,-746.62 668.98,-726.89 656.72,-712.72 674,-696.62 680.31,-690.74 687.89,-686.23 695.93,-682.77"/>
<polygon fill="#9a32cd" stroke="#9a32cd" points="227.83,-847.56 217.35,-849.17 226.55,-854.44 227.83,-847.56"/>
<text text-anchor="middle" x="480" y="-867.62" font-family="Helvetica,sans-Serif" font-size="10.00"> properties</text>
</g>
<!-- Node22 -->
<g id="node22" class="node">
<title>Node22</title>
<g id="a_node22"><a xlink:title=" ">
<polygon fill="white" stroke="black" points="136,-658.12 136,-677.12 210,-677.12 210,-658.12 136,-658.12"/>
<text text-anchor="middle" x="173" y="-665.12" font-family="Helvetica,sans-Serif" font-size="10.00">Set&lt; String &gt;</text>
</a>
</g>
</g>
<!-- Node22&#45;&gt;Node2 -->
<g id="edge27" class="edge">
<title>Node22&#45;&gt;Node2</title>
<path fill="none" stroke="#9a32cd" stroke-dasharray="5,2" d="M220.1,-672.14C262.3,-676.41 326.43,-683.26 382,-690.62 395.43,-692.4 409.87,-694.52 423.41,-696.6"/>
<polygon fill="#9a32cd" stroke="#9a32cd" points="220.43,-668.66 210.13,-671.14 219.73,-675.62 220.43,-668.66"/>
<text text-anchor="middle" x="327.5" y="-693.62" font-family="Helvetica,sans-Serif" font-size="10.00"> uniquefyingPropertyKeys</text>
</g>
<!-- Node23 -->
<g id="node23" class="node">
<title>Node23</title>
<g id="a_node23"><a xlink:title=" ">
<polygon fill="white" stroke="black" points="102.5,-772.62 102.5,-802.62 243.5,-802.62 243.5,-772.62 102.5,-772.62"/>
<text text-anchor="start" x="110.5" y="-790.62" font-family="Helvetica,sans-Serif" font-size="10.00">List&lt; denoptim.utils.Mutation</text>
<text text-anchor="middle" x="173" y="-779.62" font-family="Helvetica,sans-Serif" font-size="10.00">Type &gt;</text>
</a>
</g>
</g>
<!-- Node23&#45;&gt;Node2 -->
<g id="edge28" class="edge">
<title>Node23&#45;&gt;Node2</title>
<path fill="none" stroke="#9a32cd" stroke-dasharray="5,2" d="M254.06,-776.43C293.14,-769.91 340.55,-760.41 382,-747.62 410.06,-738.96 440.93,-724.72 460.14,-715.26"/>
<polygon fill="#9a32cd" stroke="#9a32cd" points="253.1,-773.04 243.79,-778.11 254.22,-779.95 253.1,-773.04"/>
<text text-anchor="middle" x="327.5" y="-775.62" font-family="Helvetica,sans-Serif" font-size="10.00"> allowedMutationTypes</text>
</g>
<!-- Node24 -->
<g id="node24" class="node">
<title>Node24</title>
<g id="a_node24"><a xlink:href="enumdenoptim_1_1graph_1_1_vertex_1_1_vertex_type.html" target="_top" xlink:title="Flag declaring the type of Vertex implementation.">
<polygon fill="white" stroke="black" points="91,-734.12 91,-753.12 255,-753.12 255,-734.12 91,-734.12"/>
<text text-anchor="middle" x="173" y="-741.12" font-family="Helvetica,sans-Serif" font-size="10.00">denoptim.graph.Vertex.VertexType</text>
</a>
</g>
</g>
<!-- Node24&#45;&gt;Node2 -->
<g id="edge29" class="edge">
<title>Node24&#45;&gt;Node2</title>
<path fill="none" stroke="#9a32cd" stroke-dasharray="5,2" d="M265.2,-734.4C301.58,-730.5 343.81,-725.68 382,-720.62 395.43,-718.84 409.87,-716.72 423.41,-714.64"/>
<polygon fill="#9a32cd" stroke="#9a32cd" points="264.67,-730.94 255.1,-735.48 265.41,-737.9 264.67,-730.94"/>
<text text-anchor="middle" x="327.5" y="-735.62" font-family="Helvetica,sans-Serif" font-size="10.00"> vertexType</text>
</g>
<!-- Node25&#45;&gt;Node1 -->
<g id="edge30" class="edge">
<title>Node25&#45;&gt;Node1</title>
<path fill="none" stroke="#9a32cd" stroke-dasharray="5,2" d="M834.77,-689.35C867.44,-698.24 906.59,-709.84 941,-722.62 958.28,-729.04 977.05,-737.4 992.27,-744.55"/>
<polygon fill="#9a32cd" stroke="#9a32cd" points="835.42,-685.9 824.86,-686.68 833.6,-692.66 835.42,-685.9"/>
<text text-anchor="middle" x="906" y="-725.62" font-family="Helvetica,sans-Serif" font-size="10.00"> ap</text>
</g>
<!-- Node33 -->
<g id="node33" class="node">
<title>Node33</title>
<g id="a_node33"><a xlink:href="classdenoptim_1_1graph_1_1_edge.html" target="_top" xlink:title="This class represents the edge between two vertices.">
<polygon fill="white" stroke="black" points="970.5,-620.12 970.5,-639.12 1077.5,-639.12 1077.5,-620.12 970.5,-620.12"/>
<text text-anchor="middle" x="1024" y="-627.12" font-family="Helvetica,sans-Serif" font-size="10.00">denoptim.graph.Edge</text>
</a>
</g>
</g>
<!-- Node25&#45;&gt;Node33 -->
<g id="edge42" class="edge">
<title>Node25&#45;&gt;Node33</title>
<path fill="none" stroke="#9a32cd" stroke-dasharray="5,2" d="M810.43,-652.65C824.15,-646.92 839.21,-640.57 853,-634.62 861.04,-631.15 862.44,-628.44 871,-626.62 903.53,-619.72 940.86,-620.34 970.39,-622.74"/>
<polygon fill="#9a32cd" stroke="#9a32cd" points="809.06,-649.42 801.18,-656.5 811.75,-655.89 809.06,-649.42"/>
<text text-anchor="middle" x="906" y="-640.62" font-family="Helvetica,sans-Serif" font-size="10.00"> srcAP</text>
<text text-anchor="middle" x="906" y="-629.62" font-family="Helvetica,sans-Serif" font-size="10.00">trgAP</text>
</g>
<!-- Node26 -->
<g id="node26" class="node">
<title>Node26</title>
<g id="a_node26"><a xlink:title=" ">
<polygon fill="white" stroke="black" points="401,-808.12 401,-827.12 559,-827.12 559,-808.12 401,-808.12"/>
<text text-anchor="middle" x="480" y="-815.12" font-family="Helvetica,sans-Serif" font-size="10.00">Comparable&lt; AttachmentPoint &gt;</text>
</a>
</g>
</g>
<!-- Node26&#45;&gt;Node25 -->
<g id="edge32" class="edge">
<title>Node26&#45;&gt;Node25</title>
<path fill="none" stroke="midnightblue" d="M505.84,-802.49C539.9,-781.65 602.92,-742.83 656,-708.62 664.08,-703.41 665.27,-700.64 674,-696.62 682.12,-692.88 690.92,-689.58 699.72,-686.71"/>
<polygon fill="midnightblue" stroke="midnightblue" points="503.74,-799.67 497.03,-807.87 507.39,-805.64 503.74,-799.67"/>
</g>
<!-- Node27&#45;&gt;Node25 -->
<g id="edge33" class="edge">
<title>Node27&#45;&gt;Node25</title>
<path fill="none" stroke="#9a32cd" stroke-dasharray="5,2" d="M526.41,-508.25C565.7,-521.35 621.49,-545.51 656,-584.62 671.63,-602.33 657.73,-617.5 674,-634.62 682.95,-644.03 694.66,-651.15 706.62,-656.49"/>
<polygon fill="#9a32cd" stroke="#9a32cd" points="527.39,-504.89 516.8,-505.15 525.25,-511.55 527.39,-504.89"/>
<text text-anchor="middle" x="617" y="-587.62" font-family="Helvetica,sans-Serif" font-size="10.00"> apClass</text>
</g>
<!-- Node28 -->
<g id="node28" class="node">
<title>Node28</title>
<g id="a_node28"><a xlink:title=" ">
<polygon fill="white" stroke="black" points="111.5,-488.12 111.5,-507.12 234.5,-507.12 234.5,-488.12 111.5,-488.12"/>
<text text-anchor="middle" x="173" y="-495.12" font-family="Helvetica,sans-Serif" font-size="10.00">Comparable&lt; APClass &gt;</text>
</a>
</g>
</g>
<!-- Node28&#45;&gt;Node27 -->
<g id="edge35" class="edge">
<title>Node28&#45;&gt;Node27</title>
<path fill="none" stroke="midnightblue" d="M244.89,-497.16C297.52,-496.81 368.52,-496.34 418.49,-496.02"/>
<polygon fill="midnightblue" stroke="midnightblue" points="244.6,-493.66 234.62,-497.22 244.65,-500.66 244.6,-493.66"/>
</g>
<!-- Node29 -->
<g id="node29" class="node">
<title>Node29</title>
<g id="a_node29"><a xlink:title=" ">
<polygon fill="white" stroke="black" points="95.5,-450.12 95.5,-469.12 250.5,-469.12 250.5,-450.12 95.5,-450.12"/>
<text text-anchor="middle" x="173" y="-457.12" font-family="Helvetica,sans-Serif" font-size="10.00">Set&lt; denoptim.graph.APClass &gt;</text>
</a>
</g>
</g>
<!-- Node29&#45;&gt;Node27 -->
<g id="edge36" class="edge">
<title>Node29&#45;&gt;Node27</title>
<path fill="none" stroke="#9a32cd" stroke-dasharray="5,2" d="M261.31,-459.67C298.66,-460.77 342.66,-463.47 382,-469.62 405.08,-473.23 430.58,-480.18 449.63,-485.99"/>
<polygon fill="#9a32cd" stroke="#9a32cd" points="261.04,-456.17 250.95,-459.41 260.86,-463.16 261.04,-456.17"/>
<text text-anchor="middle" x="327.5" y="-483.62" font-family="Helvetica,sans-Serif" font-size="10.00"> RCAAPCLASSSET</text>
<text text-anchor="middle" x="327.5" y="-472.62" font-family="Helvetica,sans-Serif" font-size="10.00">uniqueAPClasses</text>
</g>
<!-- Node30 -->
<g id="node30" class="node">
<title>Node30</title>
<g id="a_node30"><a xlink:href="enumdenoptim_1_1graph_1_1_edge_1_1_bond_type.html" target="_top" xlink:title="Possible chemical bond types an edge can represent.">
<polygon fill="white" stroke="black" points="97,-389.12 97,-408.12 249,-408.12 249,-389.12 97,-389.12"/>
<text text-anchor="middle" x="173" y="-396.12" font-family="Helvetica,sans-Serif" font-size="10.00">denoptim.graph.Edge.BondType</text>
</a>
</g>
</g>
<!-- Node30&#45;&gt;Node27 -->
<g id="edge37" class="edge">
<title>Node30&#45;&gt;Node27</title>
<path fill="none" stroke="#9a32cd" stroke-dasharray="5,2" d="M259.21,-405.15C297.67,-410.06 343.1,-418.64 382,-433.62 415.57,-446.55 449.89,-471.95 467.3,-485.89"/>
<polygon fill="#9a32cd" stroke="#9a32cd" points="259.43,-401.65 249.08,-403.92 258.58,-408.6 259.43,-401.65"/>
<text text-anchor="middle" x="327.5" y="-447.62" font-family="Helvetica,sans-Serif" font-size="10.00"> DEFAULTBT</text>
<text text-anchor="middle" x="327.5" y="-436.62" font-family="Helvetica,sans-Serif" font-size="10.00">bndTyp</text>
</g>
<!-- Node30&#45;&gt;Node33 -->
<g id="edge43" class="edge">
<title>Node30&#45;&gt;Node33</title>
<path fill="none" stroke="#9a32cd" stroke-dasharray="5,2" d="M259.65,-394.13C297.43,-393.72 342.21,-395.39 382,-402.62 637.25,-449.01 926.61,-583.02 1003.44,-620.05"/>
<polygon fill="#9a32cd" stroke="#9a32cd" points="259.13,-390.63 249.18,-394.29 259.24,-397.63 259.13,-390.63"/>
<text text-anchor="middle" x="617" y="-477.62" font-family="Helvetica,sans-Serif" font-size="10.00"> bondType</text>
</g>
<!-- Node31 -->
<g id="node31" class="node">
<title>Node31</title>
<g id="a_node31"><a xlink:title=" ">
<polygon fill="white" stroke="black" points="0,-389.12 0,-408.12 42,-408.12 42,-389.12 0,-389.12"/>
<text text-anchor="middle" x="21" y="-396.12" font-family="Helvetica,sans-Serif" font-size="10.00">IBond</text>
</a>
</g>
</g>
<!-- Node31&#45;&gt;Node30 -->
<g id="edge38" class="edge">
<title>Node31&#45;&gt;Node30</title>
<path fill="none" stroke="#9a32cd" stroke-dasharray="5,2" d="M52.4,-398.62C65.37,-398.62 81.12,-398.62 96.89,-398.62"/>
<polygon fill="#9a32cd" stroke="#9a32cd" points="52.23,-395.12 42.23,-398.62 52.23,-402.12 52.23,-395.12"/>
<text text-anchor="middle" x="66.5" y="-401.62" font-family="Helvetica,sans-Serif" font-size="10.00"> bo</text>
</g>
<!-- Node32 -->
<g id="node32" class="node">
<title>Node32</title>
<g id="a_node32"><a xlink:title=" ">
<polygon fill="white" stroke="black" points="455,-658.12 455,-677.12 505,-677.12 505,-658.12 455,-658.12"/>
<text text-anchor="middle" x="480" y="-665.12" font-family="Helvetica,sans-Serif" font-size="10.00">Point3d</text>
</a>
</g>
</g>
<!-- Node32&#45;&gt;Node25 -->
<g id="edge39" class="edge">
<title>Node32&#45;&gt;Node25</title>
<path fill="none" stroke="#9a32cd" stroke-dasharray="5,2" d="M515.04,-668.1C559.67,-668.74 638.97,-669.87 695.78,-670.67"/>
<polygon fill="#9a32cd" stroke="#9a32cd" points="515.05,-664.6 505,-667.96 514.95,-671.6 515.05,-664.6"/>
<text text-anchor="middle" x="617" y="-672.62" font-family="Helvetica,sans-Serif" font-size="10.00"> dirVec</text>
</g>
<!-- Node33&#45;&gt;Node25 -->
<g id="edge41" class="edge">
<title>Node33&#45;&gt;Node25</title>
<path fill="none" stroke="#9a32cd" stroke-dasharray="5,2" d="M983.79,-642.05C970.33,-645.93 955.11,-649.9 941,-652.62 904.99,-659.56 864.32,-664.15 831.1,-667.08"/>
<polygon fill="#9a32cd" stroke="#9a32cd" points="985.08,-645.32 993.68,-639.12 983.1,-638.6 985.08,-645.32"/>
<text text-anchor="middle" x="906" y="-665.62" font-family="Helvetica,sans-Serif" font-size="10.00"> user</text>
</g>
<!-- Node34 -->
<g id="node34" class="node">
<title>Node34</title>
<g id="a_node34"><a xlink:href="enumdenoptim_1_1gui_1_1_graph_viewer_panel_1_1_j_vertex_type.html" target="_top" xlink:title=" ">
<polygon fill="white" stroke="black" points="698.5,-754.62 698.5,-784.62 828.5,-784.62 828.5,-754.62 698.5,-754.62"/>
<text text-anchor="start" x="706.5" y="-772.62" font-family="Helvetica,sans-Serif" font-size="10.00">denoptim.gui.GraphViewer</text>
<text text-anchor="middle" x="763.5" y="-761.62" font-family="Helvetica,sans-Serif" font-size="10.00">Panel.JVertexType</text>
</a>
</g>
</g>
<!-- Node34&#45;&gt;Node1 -->
<g id="edge45" class="edge">
<title>Node34&#45;&gt;Node1</title>
<path fill="none" stroke="#9a32cd" stroke-dasharray="5,2" d="M839.18,-766.73C876.98,-765.27 922.41,-763.51 958.65,-762.11"/>
<polygon fill="#9a32cd" stroke="#9a32cd" points="838.59,-763.25 828.73,-767.14 838.86,-770.25 838.59,-763.25"/>
<text text-anchor="middle" x="906" y="-767.62" font-family="Helvetica,sans-Serif" font-size="10.00"> vtype</text>
</g>
<!-- Node35 -->
<g id="node35" class="node">
<title>Node35</title>
<g id="a_node35"><a xlink:href="classdenoptim_1_1gui_1_1_graph_viewer_panel_1_1_j_edge.html" target="_top" xlink:title="An edge in the JUNG Graph.">
<polygon fill="white" stroke="black" points="698.5,-705.62 698.5,-735.62 828.5,-735.62 828.5,-705.62 698.5,-705.62"/>
<text text-anchor="start" x="706.5" y="-723.62" font-family="Helvetica,sans-Serif" font-size="10.00">denoptim.gui.GraphViewer</text>
<text text-anchor="middle" x="763.5" y="-712.62" font-family="Helvetica,sans-Serif" font-size="10.00">Panel.JEdge</text>
</a>
</g>
</g>
<!-- Node35&#45;&gt;Node1 -->
<g id="edge46" class="edge">
<title>Node35&#45;&gt;Node1</title>
<path fill="none" stroke="#9a32cd" stroke-dasharray="5,2" d="M838.69,-731.81C876.59,-737.53 922.26,-744.42 958.65,-749.91"/>
<polygon fill="#9a32cd" stroke="#9a32cd" points="839.14,-728.34 828.73,-730.31 838.1,-735.26 839.14,-728.34"/>
<text text-anchor="middle" x="906" y="-749.62" font-family="Helvetica,sans-Serif" font-size="10.00"> edgeToParent</text>
</g>
</g>
</svg>
