<?xml version="1.0" encoding="UTF-8" standalone="no"?>
<!DOCTYPE svg PUBLIC "-//W3C//DTD SVG 1.1//EN"
 "http://www.w3.org/Graphics/SVG/1.1/DTD/svg11.dtd">
<!-- Generated by graphviz version 3.0.0 (20220413.0242)
 -->
<!-- Title: denoptim.logging.Monitor.changeBy Pages: 1 -->
<!--zoomable 203 -->
<svg id="main" version="1.1" xmlns="http://www.w3.org/2000/svg" xmlns:xlink="http://www.w3.org/1999/xlink" xml:space="preserve" onload="init(evt)">
<style type="text/css"><![CDATA[
.edge:hover path { stroke: red; }
.edge:hover polygon { stroke: red; fill: red; }
]]></style>
<script type="text/javascript"><![CDATA[
var edges = document.getElementsByTagName('g');
if (edges && edges.length) {
  for (var i=0;i<edges.length;i++) {
    if (edges[i].id.substr(0,4)=='edge') {
      edges[i].setAttribute('class','edge');
    }
  }
}
]]></script>
        <defs>
                <circle id="rim" cx="0" cy="0" r="7"/>
                <circle id="rim2" cx="0" cy="0" r="3.5"/>
                <g id="zoomPlus">
                        <use xlink:href="#rim" fill="#404040">
                                <set attributeName="fill" to="#808080" begin="zoomplus.mouseover" end="zoomplus.mouseout"/>
                        </use>
                        <path d="M-4,0h8M0,-4v8" fill="none" stroke="white" stroke-width="1.5" pointer-events="none"/>
                </g>
                <g id="zoomMin">
                        <use xlink:href="#rim" fill="#404040">
                                <set attributeName="fill" to="#808080" begin="zoomminus.mouseover" end="zoomminus.mouseout"/>
                        </use>
                        <path d="M-4,0h8" fill="none" stroke="white" stroke-width="1.5" pointer-events="none"/>
                </g>
                <g id="dirArrow">
                        <path fill="none" stroke="white" stroke-width="1.5" d="M0,-3.0v7 M-2.5,-0.5L0,-3.0L2.5,-0.5"/>
                </g>
               <g id="resetDef">
                       <use xlink:href="#rim2" fill="#404040">
                               <set attributeName="fill" to="#808080" begin="reset.mouseover" end="reset.mouseout"/>
                       </use>
               </g>
        </defs>

<script type="text/javascript">
var viewWidth = 1306;
var viewHeight = 203;
var sectionId = 'dynsection-3';
</script>
<script xlink:href="svgpan.js"/>
<svg id="graph" class="graph">
<g id="viewport">
<title>denoptim.logging.Monitor.changeBy</title>
<polygon fill="white" stroke="transparent" points="-4,4 -4,-199.35 1302,-199.35 1302,4 -4,4"/>
<!-- Node1 -->
<g id="node1" class="node">
<title>Node1</title>
<g id="a_node1"><a xlink:title=" ">
<polygon fill="#bfbfbf" stroke="black" points="1129,-91 1129,-110 1298,-110 1298,-91 1129,-91"/>
<text text-anchor="middle" x="1213.5" y="-98" font-family="Helvetica,sans-Serif" font-size="10.00">denoptim.logging.Monitor.changeBy</text>
</a>
</g>
</g>
<!-- Node2 -->
<g id="node2" class="node">
<title>Node2</title>
<g id="a_node2"><a xlink:href="classdenoptim_1_1logging_1_1_monitor.html#a812601472cdab77ab6ba85d6d8fd572a" target="_top" xlink:title=" ">
<polygon fill="white" stroke="black" points="921.5,-148 921.5,-167 1087.5,-167 1087.5,-148 921.5,-148"/>
<text text-anchor="middle" x="1004.5" y="-155" font-family="Helvetica,sans-Serif" font-size="10.00">denoptim.logging.Monitor.decrease</text>
</a>
</g>
</g>
<!-- Node1&#45;&gt;Node2 -->
<g id="edge1" class="edge">
<title>Node1&#45;&gt;Node2</title>
<path fill="none" stroke="midnightblue" d="M1175.16,-113.37C1151.73,-121.2 1120.79,-131.08 1093,-138.5 1080.23,-141.91 1066.3,-145.15 1053.38,-147.95"/>
<polygon fill="midnightblue" stroke="midnightblue" points="1176.35,-116.66 1184.71,-110.16 1174.12,-110.03 1176.35,-116.66"/>
</g>
<!-- Node3 -->
<g id="node3" class="node">
<title>Node3</title>
<g id="a_node3"><a xlink:href="classdenoptim_1_1logging_1_1_monitor.html#a07ac44676c9786a66eab57f744441c05" target="_top" xlink:title=" ">
<polygon fill="white" stroke="black" points="916,-110 916,-129 1093,-129 1093,-110 916,-110"/>
<text text-anchor="middle" x="1004.5" y="-117" font-family="Helvetica,sans-Serif" font-size="10.00">denoptim.logging.Monitor.decreaseBy</text>
</a>
</g>
</g>
<!-- Node1&#45;&gt;Node3 -->
<g id="edge2" class="edge">
<title>Node1&#45;&gt;Node3</title>
<path fill="none" stroke="midnightblue" d="M1118.89,-109.09C1110.31,-109.88 1101.65,-110.67 1093.13,-111.46"/>
<polygon fill="midnightblue" stroke="midnightblue" points="1119.26,-112.57 1128.9,-108.17 1118.62,-105.6 1119.26,-112.57"/>
</g>
<!-- Node4 -->
<g id="node4" class="node">
<title>Node4</title>
<g id="a_node4"><a xlink:href="classdenoptim_1_1logging_1_1_monitor.html#a70e3e14ab63e7e39ed3ce7d895aa01cf" target="_top" xlink:title=" ">
<polygon fill="white" stroke="black" points="923,-72 923,-91 1086,-91 1086,-72 923,-72"/>
<text text-anchor="middle" x="1004.5" y="-79" font-family="Helvetica,sans-Serif" font-size="10.00">denoptim.logging.Monitor.increase</text>
</a>
</g>
</g>
<!-- Node1&#45;&gt;Node4 -->
<g id="edge3" class="edge">
<title>Node1&#45;&gt;Node4</title>
<path fill="none" stroke="midnightblue" d="M1118.89,-91.91C1107.93,-90.9 1096.82,-89.88 1086.05,-88.89"/>
<polygon fill="midnightblue" stroke="midnightblue" points="1118.62,-95.4 1128.9,-92.83 1119.26,-88.43 1118.62,-95.4"/>
</g>
<!-- Node14 -->
<g id="node14" class="node">
<title>Node14</title>
<g id="a_node14"><a xlink:href="classdenoptim_1_1logging_1_1_monitor.html#a7280b2e431de1bd65b83590558824d68" target="_top" xlink:title=" ">
<polygon fill="white" stroke="black" points="917.5,-34 917.5,-53 1091.5,-53 1091.5,-34 917.5,-34"/>
<text text-anchor="middle" x="1004.5" y="-41" font-family="Helvetica,sans-Serif" font-size="10.00">denoptim.logging.Monitor.increaseBy</text>
</a>
</g>
</g>
<!-- Node1&#45;&gt;Node14 -->
<g id="edge16" class="edge">
<title>Node1&#45;&gt;Node14</title>
<path fill="none" stroke="midnightblue" d="M1175.16,-87.63C1151.73,-79.8 1120.79,-69.92 1093,-62.5 1080.23,-59.09 1066.3,-55.85 1053.38,-53.05"/>
<polygon fill="midnightblue" stroke="midnightblue" points="1174.12,-90.97 1184.71,-90.84 1176.35,-84.34 1174.12,-90.97"/>
</g>
<!-- Node5 -->
<g id="node5" class="node">
<title>Node5</title>
<g id="a_node5"><a xlink:href="classdenoptim_1_1ga_1_1_e_a_utils.html#a87ea0ad600ad26e1a89a4947abcfef86" target="_top" xlink:title="Graph construction starts with selecting a random core/scaffold.">
<polygon fill="white" stroke="black" points="739,-88.5 739,-118.5 866,-118.5 866,-88.5 739,-88.5"/>
<text text-anchor="start" x="747" y="-106.5" font-family="Helvetica,sans-Serif" font-size="10.00">denoptim.ga.EAUtils.build</text>
<text text-anchor="middle" x="802.5" y="-95.5" font-family="Helvetica,sans-Serif" font-size="10.00">Graph</text>
</a>
</g>
</g>
<!-- Node4&#45;&gt;Node5 -->
<g id="edge4" class="edge">
<title>Node4&#45;&gt;Node5</title>
<path fill="none" stroke="midnightblue" d="M912.48,-91.51C896.81,-93.24 880.83,-94.99 866.11,-96.61"/>
<polygon fill="midnightblue" stroke="midnightblue" points="913.17,-94.96 922.73,-90.38 912.41,-88 913.17,-94.96"/>
</g>
<!-- Node7 -->
<g id="node7" class="node">
<title>Node7</title>
<g id="a_node7"><a xlink:href="classdenoptim_1_1ga_1_1_evolutionary_algorithm.html#a596b2f5f0b097c5b67a6e5163bd6fe66" target="_top" xlink:title="Generates a given number of new candidate items and adds them to the current population.">
<polygon fill="white" stroke="black" points="353,-115.5 353,-145.5 487,-145.5 487,-115.5 353,-115.5"/>
<text text-anchor="start" x="361" y="-133.5" font-family="Helvetica,sans-Serif" font-size="10.00">denoptim.ga.Evolutionary</text>
<text text-anchor="middle" x="420" y="-122.5" font-family="Helvetica,sans-Serif" font-size="10.00">Algorithm.evolvePopulation</text>
</a>
</g>
</g>
<!-- Node4&#45;&gt;Node7 -->
<g id="edge14" class="edge">
<title>Node4&#45;&gt;Node7</title>
<path fill="none" stroke="midnightblue" d="M932.76,-93.95C926.98,-95.84 921.32,-98.01 916,-100.5 897.64,-109.09 898.2,-119.57 880,-128.5 737.4,-198.46 681.33,-210.68 526,-177.5 497.48,-171.41 467.34,-156.98 446.7,-145.7"/>
<polygon fill="midnightblue" stroke="midnightblue" points="933.98,-97.24 942.56,-91.04 931.98,-90.54 933.98,-97.24"/>
</g>
<!-- Node11 -->
<g id="node11" class="node">
<title>Node11</title>
<g id="a_node11"><a xlink:href="classdenoptim_1_1ga_1_1_evolutionary_algorithm.html#ad43588620dab3340e0d8b0042ec73618" target="_top" xlink:title="Fills up the population with candidates build from scratch.">
<polygon fill="white" stroke="black" points="350,-66.5 350,-96.5 490,-96.5 490,-66.5 350,-66.5"/>
<text text-anchor="start" x="358" y="-84.5" font-family="Helvetica,sans-Serif" font-size="10.00">denoptim.ga.Evolutionary</text>
<text text-anchor="middle" x="420" y="-73.5" font-family="Helvetica,sans-Serif" font-size="10.00">Algorithm.initializePopulation</text>
</a>
</g>
</g>
<!-- Node4&#45;&gt;Node11 -->
<g id="edge15" class="edge">
<title>Node4&#45;&gt;Node11</title>
<path fill="none" stroke="midnightblue" d="M912.71,-79.04C901.69,-78.82 890.59,-78.63 880,-78.5 722.68,-76.59 683.32,-76.25 526,-78.5 514.42,-78.67 502.13,-78.93 490.18,-79.24"/>
<polygon fill="midnightblue" stroke="midnightblue" points="912.72,-82.54 922.79,-79.26 912.87,-75.55 912.72,-82.54"/>
</g>
<!-- Node13 -->
<g id="node13" class="node">
<title>Node13</title>
<g id="a_node13"><a xlink:href="classdenoptim_1_1ga_1_1_offspring_evaluation_task.html#aab5b9c0b8a88922460f5c28ae161d1fa" target="_top" xlink:title=" ">
<polygon fill="white" stroke="black" points="725,-0.5 725,-30.5 880,-30.5 880,-0.5 725,-0.5"/>
<text text-anchor="start" x="733" y="-18.5" font-family="Helvetica,sans-Serif" font-size="10.00">denoptim.ga.OffspringEvaluation</text>
<text text-anchor="middle" x="802.5" y="-7.5" font-family="Helvetica,sans-Serif" font-size="10.00">Task.call</text>
</a>
</g>
</g>
<!-- Node4&#45;&gt;Node13 -->
<g id="edge13" class="edge">
<title>Node4&#45;&gt;Node13</title>
<path fill="none" stroke="midnightblue" d="M940.23,-69.56C932,-67.48 923.74,-65.13 916,-62.5 899.25,-56.81 896.25,-52.51 880,-45.5 868.21,-40.41 855.26,-35.19 843.41,-30.57"/>
<polygon fill="midnightblue" stroke="midnightblue" points="939.68,-73.03 950.22,-71.96 941.31,-66.22 939.68,-73.03"/>
</g>
<!-- Node6 -->
<g id="node6" class="node">
<title>Node6</title>
<g id="a_node6"><a xlink:href="classdenoptim_1_1ga_1_1_e_a_utils.html#ad3d2daeb11e68a356e971ca1846596b5" target="_top" xlink:title=" ">
<polygon fill="white" stroke="black" points="544,-88.5 544,-118.5 671,-118.5 671,-88.5 544,-88.5"/>
<text text-anchor="start" x="552" y="-106.5" font-family="Helvetica,sans-Serif" font-size="10.00">denoptim.ga.EAUtils.build</text>
<text text-anchor="middle" x="607.5" y="-95.5" font-family="Helvetica,sans-Serif" font-size="10.00">CandidateFromScratch</text>
</a>
</g>
</g>
<!-- Node5&#45;&gt;Node6 -->
<g id="edge5" class="edge">
<title>Node5&#45;&gt;Node6</title>
<path fill="none" stroke="midnightblue" d="M728.77,-103.5C709.81,-103.5 689.56,-103.5 671.18,-103.5"/>
<polygon fill="midnightblue" stroke="midnightblue" points="728.84,-107 738.84,-103.5 728.84,-100 728.84,-107"/>
</g>
<!-- Node12 -->
<g id="node12" class="node">
<title>Node12</title>
<g id="a_node12"><a xlink:href="classdenoptim_1_1ga_1_1_e_a_utils_test.html#ab7a37d3340d35ab586332ce2122e7bb0" target="_top" xlink:title=" ">
<polygon fill="white" stroke="black" points="526,-137.5 526,-167.5 689,-167.5 689,-137.5 526,-137.5"/>
<text text-anchor="start" x="534" y="-155.5" font-family="Helvetica,sans-Serif" font-size="10.00">denoptim.ga.EAUtilsTest.test</text>
<text text-anchor="middle" x="607.5" y="-144.5" font-family="Helvetica,sans-Serif" font-size="10.00">BuildGraphFromTemplateScaffold</text>
</a>
</g>
</g>
<!-- Node5&#45;&gt;Node12 -->
<g id="edge12" class="edge">
<title>Node5&#45;&gt;Node12</title>
<path fill="none" stroke="midnightblue" d="M732.38,-121.05C711.18,-126.43 688.07,-132.3 667.61,-137.49"/>
<polygon fill="midnightblue" stroke="midnightblue" points="733.45,-124.39 742.28,-118.53 731.73,-117.6 733.45,-124.39"/>
</g>
<!-- Node6&#45;&gt;Node7 -->
<g id="edge6" class="edge">
<title>Node6&#45;&gt;Node7</title>
<path fill="none" stroke="midnightblue" d="M533.94,-114.06C518.5,-116.31 502.27,-118.67 487.08,-120.88"/>
<polygon fill="midnightblue" stroke="midnightblue" points="534.57,-117.51 543.96,-112.6 533.56,-110.58 534.57,-117.51"/>
</g>
<!-- Node6&#45;&gt;Node11 -->
<g id="edge10" class="edge">
<title>Node6&#45;&gt;Node11</title>
<path fill="none" stroke="midnightblue" d="M533.69,-94.86C519.4,-93.17 504.45,-91.4 490.29,-89.72"/>
<polygon fill="midnightblue" stroke="midnightblue" points="533.61,-98.38 543.96,-96.08 534.44,-91.43 533.61,-98.38"/>
</g>
<!-- Node8 -->
<g id="node8" class="node">
<title>Node8</title>
<g id="a_node8"><a xlink:href="classdenoptim_1_1ga_1_1_evolutionary_algorithm.html#a6bfc2fa59b199da6259b5b6bad3d6de7" target="_top" xlink:title=" ">
<polygon fill="white" stroke="black" points="190,-90.5 190,-120.5 314,-120.5 314,-90.5 190,-90.5"/>
<text text-anchor="start" x="198" y="-108.5" font-family="Helvetica,sans-Serif" font-size="10.00">denoptim.ga.Evolutionary</text>
<text text-anchor="middle" x="252" y="-97.5" font-family="Helvetica,sans-Serif" font-size="10.00">Algorithm.run</text>
</a>
</g>
</g>
<!-- Node7&#45;&gt;Node8 -->
<g id="edge7" class="edge">
<title>Node7&#45;&gt;Node8</title>
<path fill="none" stroke="midnightblue" d="M342.9,-119.04C333.21,-117.58 323.41,-116.1 314.01,-114.69"/>
<polygon fill="midnightblue" stroke="midnightblue" points="342.51,-122.52 352.92,-120.55 343.55,-115.6 342.51,-122.52"/>
</g>
<!-- Node9 -->
<g id="node9" class="node">
<title>Node9</title>
<g id="a_node9"><a xlink:href="classdenoptim_1_1ga_1_1_evolutionary_algorithm.html#a0f2063b722b7291daf83d62acaa683d3" target="_top" xlink:title=" ">
<polygon fill="white" stroke="black" points="0,-115.5 0,-145.5 154,-145.5 154,-115.5 0,-115.5"/>
<text text-anchor="start" x="8" y="-133.5" font-family="Helvetica,sans-Serif" font-size="10.00">denoptim.ga.Evolutionary</text>
<text text-anchor="middle" x="77" y="-122.5" font-family="Helvetica,sans-Serif" font-size="10.00">Algorithm.EvolutionaryAlgorithm</text>
</a>
</g>
</g>
<!-- Node8&#45;&gt;Node9 -->
<g id="edge8" class="edge">
<title>Node8&#45;&gt;Node9</title>
<path fill="none" stroke="midnightblue" d="M179.44,-115.84C171.09,-117.05 162.54,-118.28 154.12,-119.5"/>
<polygon fill="midnightblue" stroke="midnightblue" points="180.12,-119.28 189.52,-114.38 179.12,-112.35 180.12,-119.28"/>
</g>
<!-- Node10 -->
<g id="node10" class="node">
<title>Node10</title>
<g id="a_node10"><a xlink:href="classdenoptim_1_1programs_1_1denovo_1_1_g_a_runner.html#a7cafd6d78727b89dce3e2c8d06f0dd7c" target="_top" xlink:title=" ">
<polygon fill="white" stroke="black" points="9.5,-66.5 9.5,-96.5 144.5,-96.5 144.5,-66.5 9.5,-66.5"/>
<text text-anchor="start" x="17.5" y="-84.5" font-family="Helvetica,sans-Serif" font-size="10.00">denoptim.programs.denovo.</text>
<text text-anchor="middle" x="77" y="-73.5" font-family="Helvetica,sans-Serif" font-size="10.00">GARunner.runProgram</text>
</a>
</g>
</g>
<!-- Node8&#45;&gt;Node10 -->
<g id="edge9" class="edge">
<title>Node8&#45;&gt;Node10</title>
<path fill="none" stroke="midnightblue" d="M179.48,-95.58C167.92,-93.97 156,-92.32 144.57,-90.73"/>
<polygon fill="midnightblue" stroke="midnightblue" points="179.13,-99.06 189.52,-96.97 180.1,-92.13 179.13,-99.06"/>
</g>
<!-- Node11&#45;&gt;Node8 -->
<g id="edge11" class="edge">
<title>Node11&#45;&gt;Node8</title>
<path fill="none" stroke="midnightblue" d="M339.6,-92.98C331.08,-94.21 322.5,-95.45 314.24,-96.65"/>
<polygon fill="midnightblue" stroke="midnightblue" points="340.17,-96.43 349.56,-91.54 339.16,-89.51 340.17,-96.43"/>
</g>
</g>
</svg>
        <g id="navigator" transform="translate(0 0)" fill="#404254">
                <rect fill="#f2f5e9" fill-opacity="0.5" stroke="#606060" stroke-width=".5" x="0" y="0" width="60" height="60"/>
                <use id="zoomplus" xlink:href="#zoomPlus" x="17" y="9" onmousedown="handleZoom(evt,'in')"/>
                <use id="zoomminus" xlink:href="#zoomMin" x="42" y="9" onmousedown="handleZoom(evt,'out')"/>
                <use id="reset" xlink:href="#resetDef" x="30" y="36" onmousedown="handleReset()"/>
                <g id="arrowUp" xlink:href="#dirArrow" transform="translate(30 24)" onmousedown="handlePan(0,-1)">
                  <use xlink:href="#rim" fill="#404040">
                        <set attributeName="fill" to="#808080" begin="arrowUp.mouseover" end="arrowUp.mouseout"/>
                  </use>
                  <path fill="none" stroke="white" stroke-width="1.5" d="M0,-3.0v7 M-2.5,-0.5L0,-3.0L2.5,-0.5"/>
                </g>
                <g id="arrowRight" xlink:href="#dirArrow" transform="rotate(90) translate(36 -43)" onmousedown="handlePan(1,0)">
                  <use xlink:href="#rim" fill="#404040">
                        <set attributeName="fill" to="#808080" begin="arrowRight.mouseover" end="arrowRight.mouseout"/>
                  </use>
                  <path fill="none" stroke="white" stroke-width="1.5" d="M0,-3.0v7 M-2.5,-0.5L0,-3.0L2.5,-0.5"/>
                </g>
                <g id="arrowDown" xlink:href="#dirArrow" transform="rotate(180) translate(-30 -48)" onmousedown="handlePan(0,1)">
                  <use xlink:href="#rim" fill="#404040">
                        <set attributeName="fill" to="#808080" begin="arrowDown.mouseover" end="arrowDown.mouseout"/>
                  </use>
                  <path fill="none" stroke="white" stroke-width="1.5" d="M0,-3.0v7 M-2.5,-0.5L0,-3.0L2.5,-0.5"/>
                </g>
                <g id="arrowLeft" xlink:href="#dirArrow" transform="rotate(270) translate(-36 17)" onmousedown="handlePan(-1,0)">
                  <use xlink:href="#rim" fill="#404040">
                        <set attributeName="fill" to="#808080" begin="arrowLeft.mouseover" end="arrowLeft.mouseout"/>
                  </use>
                  <path fill="none" stroke="white" stroke-width="1.5" d="M0,-3.0v7 M-2.5,-0.5L0,-3.0L2.5,-0.5"/>
                </g>
        </g>
        <svg viewBox="0 0 15 15" width="100%" height="30px" preserveAspectRatio="xMaxYMin meet">
         <g id="arrow_out" transform="scale(0.3 0.3)">
          <a xlink:href="classdenoptim_1_1logging_1_1_monitor_ade26a9010bd7c28e7c2b215b76bc8e43_icgraph_org.svg" target="_base">
           <rect id="button" ry="5" rx="5" y="6" x="6" height="38" width="38"
                fill="#f2f5e9" fill-opacity="0.5" stroke="#606060" stroke-width="1.0"/>
           <path id="arrow"
             d="M 11.500037,31.436501 C 11.940474,20.09759 22.043105,11.32322 32.158766,21.979434 L 37.068811,17.246167 C 37.068811,17.246167 37.088388,32 37.088388,32 L 22.160133,31.978069 C 22.160133,31.978069 26.997745,27.140456 26.997745,27.140456 C 18.528582,18.264221 13.291696,25.230495 11.500037,31.436501 z"
             style="fill:#404040;"/>
          </a>
         </g>
        </svg>
</svg>
