<?xml version="1.0" encoding="UTF-8" standalone="no"?>
<!DOCTYPE svg PUBLIC "-//W3C//DTD SVG 1.1//EN"
 "http://www.w3.org/Graphics/SVG/1.1/DTD/svg11.dtd">
<!-- Generated by graphviz version 3.0.0 (20220413.0242)
 -->
<!-- Title: denoptim.task.ParallelAsynchronousTaskExecutor.ParallelAsynchronousTaskExecutor Pages: 1 -->
<svg width="627pt" height="137pt"
 viewBox="0.00 0.00 627.00 137.00" xmlns="http://www.w3.org/2000/svg" xmlns:xlink="http://www.w3.org/1999/xlink">
<g id="graph0" class="graph" transform="scale(1 1) rotate(0) translate(4 133)">
<title>denoptim.task.ParallelAsynchronousTaskExecutor.ParallelAsynchronousTaskExecutor</title>
<polygon fill="white" stroke="transparent" points="-4,4 -4,-133 623,-133 623,4 -4,4"/>
<!-- Node1 -->
<g id="node1" class="node">
<title>Node1</title>
<g id="a_node1"><a xlink:title="Constructor.">
<polygon fill="#bfbfbf" stroke="black" points="0,-68 0,-109 194,-109 194,-68 0,-68"/>
<text text-anchor="start" x="8" y="-97" font-family="Helvetica,sans-Serif" font-size="10.00">denoptim.task.ParallelAsynchronous</text>
<text text-anchor="start" x="8" y="-86" font-family="Helvetica,sans-Serif" font-size="10.00">TaskExecutor.ParallelAsynchronousTask</text>
<text text-anchor="middle" x="97" y="-75" font-family="Helvetica,sans-Serif" font-size="10.00">Executor</text>
</a>
</g>
</g>
<!-- Node2 -->
<g id="node2" class="node">
<title>Node2</title>
<g id="a_node2"><a xlink:href="classdenoptim_1_1task_1_1_parallel_asynchronous_task_executor.html#aa3f3f77b12bd51d5897f920487cf3ba3" target="_top" xlink:title="clean all reference to submitted tasks">
<polygon fill="white" stroke="black" points="230,-98.5 230,-128.5 403,-128.5 403,-98.5 230,-98.5"/>
<text text-anchor="start" x="238" y="-116.5" font-family="Helvetica,sans-Serif" font-size="10.00">denoptim.task.ParallelAsynchronous</text>
<text text-anchor="middle" x="316.5" y="-105.5" font-family="Helvetica,sans-Serif" font-size="10.00">TaskExecutor.cleanup</text>
</a>
</g>
</g>
<!-- Node1&#45;&gt;Node2 -->
<g id="edge1" class="edge">
<title>Node1&#45;&gt;Node2</title>
<path fill="none" stroke="midnightblue" d="M194.03,-99.54C202.62,-100.53 211.32,-101.52 219.9,-102.51"/>
<polygon fill="midnightblue" stroke="midnightblue" points="219.58,-106 229.91,-103.66 220.38,-99.04 219.58,-106"/>
</g>
<!-- Node3 -->
<g id="node3" class="node">
<title>Node3</title>
<g id="a_node3"><a xlink:href="classdenoptim_1_1task_1_1_parallel_asynchronous_task_executor.html#a4d34273c8d0c31d4eba5d40280473c69" target="_top" xlink:title="Run the parallelized task.">
<polygon fill="white" stroke="black" points="230,-49.5 230,-79.5 403,-79.5 403,-49.5 230,-49.5"/>
<text text-anchor="start" x="238" y="-67.5" font-family="Helvetica,sans-Serif" font-size="10.00">denoptim.task.ParallelAsynchronous</text>
<text text-anchor="middle" x="316.5" y="-56.5" font-family="Helvetica,sans-Serif" font-size="10.00">TaskExecutor.run</text>
</a>
</g>
</g>
<!-- Node1&#45;&gt;Node3 -->
<g id="edge2" class="edge">
<title>Node1&#45;&gt;Node3</title>
<path fill="none" stroke="midnightblue" d="M194.03,-77.9C202.62,-76.96 211.32,-76 219.9,-75.05"/>
<polygon fill="midnightblue" stroke="midnightblue" points="220.36,-78.52 229.91,-73.94 219.59,-71.56 220.36,-78.52"/>
</g>
<!-- Node4 -->
<g id="node4" class="node">
<title>Node4</title>
<g id="a_node4"><a xlink:href="classdenoptim_1_1task_1_1_parallel_asynchronous_task_executor.html#abb79453d3ddc23c3f39297070d1904fd" target="_top" xlink:title="Implementations of this method must call the submitTask(Task, String) method to actually send the tas...">
<polygon fill="white" stroke="black" points="439,-98.5 439,-128.5 619,-128.5 619,-98.5 439,-98.5"/>
<text text-anchor="start" x="447" y="-116.5" font-family="Helvetica,sans-Serif" font-size="10.00">denoptim.task.ParallelAsynchronous</text>
<text text-anchor="middle" x="529" y="-105.5" font-family="Helvetica,sans-Serif" font-size="10.00">TaskExecutor.createAndSubmitTasks</text>
</a>
</g>
</g>
<!-- Node3&#45;&gt;Node4 -->
<g id="edge3" class="edge">
<title>Node3&#45;&gt;Node4</title>
<path fill="none" stroke="midnightblue" d="M382.09,-79.53C404.72,-84.8 430.31,-90.76 453.67,-96.2"/>
<polygon fill="midnightblue" stroke="midnightblue" points="453,-99.64 463.53,-98.49 454.59,-92.82 453,-99.64"/>
</g>
<!-- Node5 -->
<g id="node5" class="node">
<title>Node5</title>
<g id="a_node5"><a xlink:href="classdenoptim_1_1task_1_1_parallel_asynchronous_task_executor.html#a3cd2e9cf92e87d1daf4dbda7be9e4b58" target="_top" xlink:title=" ">
<polygon fill="white" stroke="black" points="439,-49.5 439,-79.5 619,-79.5 619,-49.5 439,-49.5"/>
<text text-anchor="start" x="447" y="-67.5" font-family="Helvetica,sans-Serif" font-size="10.00">denoptim.task.ParallelAsynchronous</text>
<text text-anchor="middle" x="529" y="-56.5" font-family="Helvetica,sans-Serif" font-size="10.00">TaskExecutor.doPostFlightOperations</text>
</a>
</g>
</g>
<!-- Node3&#45;&gt;Node5 -->
<g id="edge4" class="edge">
<title>Node3&#45;&gt;Node5</title>
<path fill="none" stroke="midnightblue" d="M403.12,-64.5C411.45,-64.5 419.96,-64.5 428.41,-64.5"/>
<polygon fill="midnightblue" stroke="midnightblue" points="428.69,-68 438.69,-64.5 428.69,-61 428.69,-68"/>
</g>
<!-- Node6 -->
<g id="node6" class="node">
<title>Node6</title>
<g id="a_node6"><a xlink:href="classdenoptim_1_1task_1_1_parallel_asynchronous_task_executor.html#a26657a7869d63e260067523aca319037" target="_top" xlink:title=" ">
<polygon fill="white" stroke="black" points="441.5,-0.5 441.5,-30.5 616.5,-30.5 616.5,-0.5 441.5,-0.5"/>
<text text-anchor="start" x="449.5" y="-18.5" font-family="Helvetica,sans-Serif" font-size="10.00">denoptim.task.ParallelAsynchronous</text>
<text text-anchor="middle" x="529" y="-7.5" font-family="Helvetica,sans-Serif" font-size="10.00">TaskExecutor.doPreFlightOperations</text>
</a>
</g>
</g>
<!-- Node3&#45;&gt;Node6 -->
<g id="edge5" class="edge">
<title>Node3&#45;&gt;Node6</title>
<path fill="none" stroke="midnightblue" d="M382.09,-49.47C404.72,-44.2 430.31,-38.24 453.67,-32.8"/>
<polygon fill="midnightblue" stroke="midnightblue" points="454.59,-36.18 463.53,-30.51 453,-29.36 454.59,-36.18"/>
</g>
</g>
</svg>
