<?xml version="1.0" encoding="UTF-8" standalone="no"?>
<!DOCTYPE svg PUBLIC "-//W3C//DTD SVG 1.1//EN"
 "http://www.w3.org/Graphics/SVG/1.1/DTD/svg11.dtd">
<!-- Generated by graphviz version 3.0.0 (20220413.0242)
 -->
<!-- Title: denoptim.graph.Template.addInnerToOuterAPMapping Pages: 1 -->
<svg width="701pt" height="313pt"
 viewBox="0.00 0.00 701.00 313.00" xmlns="http://www.w3.org/2000/svg" xmlns:xlink="http://www.w3.org/1999/xlink">
<g id="graph0" class="graph" transform="scale(1 1) rotate(0) translate(4 309)">
<title>denoptim.graph.Template.addInnerToOuterAPMapping</title>
<polygon fill="white" stroke="transparent" points="-4,4 -4,-309 697,-309 697,4 -4,4"/>
<!-- Node1 -->
<g id="node1" class="node">
<title>Node1</title>
<g id="a_node1"><a xlink:title="Adds the projection of an AP in the template&#39;s inner graph (i.e., innerAP) to the list of APs visible...">
<polygon fill="#bfbfbf" stroke="black" points="0,-120.5 0,-150.5 143,-150.5 143,-120.5 0,-120.5"/>
<text text-anchor="start" x="8" y="-138.5" font-family="Helvetica,sans-Serif" font-size="10.00">denoptim.graph.Template.add</text>
<text text-anchor="middle" x="71.5" y="-127.5" font-family="Helvetica,sans-Serif" font-size="10.00">InnerToOuterAPMapping</text>
</a>
</g>
</g>
<!-- Node1&#45;&gt;Node1 -->
<g id="edge1" class="edge">
<title>Node1&#45;&gt;Node1</title>
<path fill="none" stroke="midnightblue" d="M39.78,-150.66C32.13,-160.06 42.71,-169 71.5,-169 89.05,-169 99.83,-165.68 103.84,-160.96"/>
<polygon fill="midnightblue" stroke="midnightblue" points="107.31,-160.43 103.22,-150.66 100.33,-160.85 107.31,-160.43"/>
</g>
<!-- Node2 -->
<g id="node2" class="node">
<title>Node2</title>
<g id="a_node2"><a xlink:href="classdenoptim_1_1graph_1_1_attachment_point.html#a8dc9e31a8d2fb5ef6a9705cbf2ec22c9" target="_top" xlink:title="Returns a deep clone of this attachment point.">
<polygon fill="white" stroke="black" points="187.5,-210.5 187.5,-240.5 322.5,-240.5 322.5,-210.5 187.5,-210.5"/>
<text text-anchor="start" x="195.5" y="-228.5" font-family="Helvetica,sans-Serif" font-size="10.00">denoptim.graph.Attachment</text>
<text text-anchor="middle" x="255" y="-217.5" font-family="Helvetica,sans-Serif" font-size="10.00">Point.clone</text>
</a>
</g>
</g>
<!-- Node1&#45;&gt;Node2 -->
<g id="edge2" class="edge">
<title>Node1&#45;&gt;Node2</title>
<path fill="none" stroke="midnightblue" d="M102.88,-150.56C133.5,-165.75 180.92,-189.26 214.46,-205.89"/>
<polygon fill="midnightblue" stroke="midnightblue" points="213.01,-209.08 223.52,-210.39 216.12,-202.81 213.01,-209.08"/>
</g>
<!-- Node7 -->
<g id="node7" class="node">
<title>Node7</title>
<g id="a_node7"><a xlink:href="classdenoptim_1_1graph_1_1_vertex.html#a6615f1c869173b8bd6d730c6683b9de4" target="_top" xlink:title="Returns the graph this vertex belongs to or null.">
<polygon fill="white" stroke="black" points="191,-142.5 191,-172.5 319,-172.5 319,-142.5 191,-142.5"/>
<text text-anchor="start" x="199" y="-160.5" font-family="Helvetica,sans-Serif" font-size="10.00">denoptim.graph.Vertex.get</text>
<text text-anchor="middle" x="255" y="-149.5" font-family="Helvetica,sans-Serif" font-size="10.00">GraphOwner</text>
</a>
</g>
</g>
<!-- Node1&#45;&gt;Node7 -->
<g id="edge7" class="edge">
<title>Node1&#45;&gt;Node7</title>
<path fill="none" stroke="midnightblue" d="M143.19,-144.07C155.48,-145.56 168.28,-147.11 180.64,-148.61"/>
<polygon fill="midnightblue" stroke="midnightblue" points="180.54,-152.12 190.89,-149.85 181.38,-145.17 180.54,-152.12"/>
</g>
<!-- Node8 -->
<g id="node8" class="node">
<title>Node8</title>
<g id="a_node8"><a xlink:href="classdenoptim_1_1graph_1_1_a_p_tree_map.html#a9e1e1c1dd87ebfb469b6c705c00038b6" target="_top" xlink:title="Associates the specified value with the specified key in this map.">
<polygon fill="white" stroke="black" points="179,-104 179,-123 331,-123 331,-104 179,-104"/>
<text text-anchor="middle" x="255" y="-111" font-family="Helvetica,sans-Serif" font-size="10.00">denoptim.graph.APTreeMap.put</text>
</a>
</g>
</g>
<!-- Node1&#45;&gt;Node8 -->
<g id="edge8" class="edge">
<title>Node1&#45;&gt;Node8</title>
<path fill="none" stroke="midnightblue" d="M143.19,-126.93C151.56,-125.92 160.17,-124.87 168.72,-123.84"/>
<polygon fill="midnightblue" stroke="midnightblue" points="169.19,-127.31 178.7,-122.63 168.35,-120.36 169.19,-127.31"/>
</g>
<!-- Node12 -->
<g id="node12" class="node">
<title>Node12</title>
<g id="a_node12"><a xlink:href="classdenoptim_1_1graph_1_1_attachment_point.html#a76bfbe6cc3918c114c73974b2fe4e59d" target="_top" xlink:title="Sets the reference to the vertex that owns this attachment point.">
<polygon fill="white" stroke="black" points="187.5,-54.5 187.5,-84.5 322.5,-84.5 322.5,-54.5 187.5,-54.5"/>
<text text-anchor="start" x="195.5" y="-72.5" font-family="Helvetica,sans-Serif" font-size="10.00">denoptim.graph.Attachment</text>
<text text-anchor="middle" x="255" y="-61.5" font-family="Helvetica,sans-Serif" font-size="10.00">Point.setOwner</text>
</a>
</g>
</g>
<!-- Node1&#45;&gt;Node12 -->
<g id="edge13" class="edge">
<title>Node1&#45;&gt;Node12</title>
<path fill="none" stroke="midnightblue" d="M110.3,-120.47C130.58,-112.52 156.06,-102.73 179,-94.5 185.25,-92.26 191.81,-89.97 198.35,-87.73"/>
<polygon fill="midnightblue" stroke="midnightblue" points="199.53,-91.03 207.88,-84.51 197.28,-84.4 199.53,-91.03"/>
</g>
<!-- Node3 -->
<g id="node3" class="node">
<title>Node3</title>
<g id="a_node3"><a xlink:href="classdenoptim_1_1graph_1_1_attachment_point.html#a087f6102f1c542587ec2ec3c2240041f" target="_top" xlink:title="Constructor for undefined DENOPTIMAttachmentPoint.">
<polygon fill="white" stroke="black" points="374,-274.5 374,-304.5 509,-304.5 509,-274.5 374,-274.5"/>
<text text-anchor="start" x="382" y="-292.5" font-family="Helvetica,sans-Serif" font-size="10.00">denoptim.graph.Attachment</text>
<text text-anchor="middle" x="441.5" y="-281.5" font-family="Helvetica,sans-Serif" font-size="10.00">Point.AttachmentPoint</text>
</a>
</g>
</g>
<!-- Node2&#45;&gt;Node3 -->
<g id="edge3" class="edge">
<title>Node2&#45;&gt;Node3</title>
<path fill="none" stroke="midnightblue" d="M298.4,-240.51C319.07,-247.8 344.32,-256.66 367,-264.5 373.25,-266.66 379.8,-268.91 386.31,-271.14"/>
<polygon fill="midnightblue" stroke="midnightblue" points="385.18,-274.45 395.78,-274.37 387.44,-267.83 385.18,-274.45"/>
</g>
<!-- Node5 -->
<g id="node5" class="node">
<title>Node5</title>
<g id="a_node5"><a xlink:href="classdenoptim_1_1graph_1_1_a_p_class.html#a1781af804ce3ff7b7ed2d681fd1eeae3" target="_top" xlink:title="WARNING: this method does NOT clone! It just returns the reference to this.">
<polygon fill="white" stroke="black" points="367,-236 367,-255 516,-255 516,-236 367,-236"/>
<text text-anchor="middle" x="441.5" y="-243" font-family="Helvetica,sans-Serif" font-size="10.00">denoptim.graph.APClass.clone</text>
</a>
</g>
</g>
<!-- Node2&#45;&gt;Node5 -->
<g id="edge5" class="edge">
<title>Node2&#45;&gt;Node5</title>
<path fill="none" stroke="midnightblue" d="M322.61,-232.72C333.71,-233.92 345.34,-235.18 356.8,-236.43"/>
<polygon fill="midnightblue" stroke="midnightblue" points="356.48,-239.91 366.8,-237.51 357.24,-232.95 356.48,-239.91"/>
</g>
<!-- Node6 -->
<g id="node6" class="node">
<title>Node6</title>
<g id="a_node6"><a xlink:href="classdenoptim_1_1graph_1_1_attachment_point.html#ac8551521d38644f5109800b665957ee9" target="_top" xlink:title=" ">
<polygon fill="white" stroke="black" points="374,-186.5 374,-216.5 509,-216.5 509,-186.5 374,-186.5"/>
<text text-anchor="start" x="382" y="-204.5" font-family="Helvetica,sans-Serif" font-size="10.00">denoptim.graph.Attachment</text>
<text text-anchor="middle" x="441.5" y="-193.5" font-family="Helvetica,sans-Serif" font-size="10.00">Point.getOwner</text>
</a>
</g>
</g>
<!-- Node2&#45;&gt;Node6 -->
<g id="edge6" class="edge">
<title>Node2&#45;&gt;Node6</title>
<path fill="none" stroke="midnightblue" d="M322.61,-216.84C336.06,-215.09 350.31,-213.23 364.07,-211.44"/>
<polygon fill="midnightblue" stroke="midnightblue" points="364.52,-214.91 373.99,-210.15 363.62,-207.97 364.52,-214.91"/>
</g>
<!-- Node4 -->
<g id="node4" class="node">
<title>Node4</title>
<g id="a_node4"><a xlink:href="classdenoptim_1_1utils_1_1_graph_utils.html#aacbefbc93a3463aa963c9923749deea1" target="_top" xlink:title="Unique counter for the number of molecules generated.">
<polygon fill="white" stroke="black" points="552,-208.5 552,-238.5 693,-238.5 693,-208.5 552,-208.5"/>
<text text-anchor="start" x="560" y="-226.5" font-family="Helvetica,sans-Serif" font-size="10.00">denoptim.utils.GraphUtils.get</text>
<text text-anchor="middle" x="622.5" y="-215.5" font-family="Helvetica,sans-Serif" font-size="10.00">UniqueAPIndex</text>
</a>
</g>
</g>
<!-- Node3&#45;&gt;Node4 -->
<g id="edge4" class="edge">
<title>Node3&#45;&gt;Node4</title>
<path fill="none" stroke="midnightblue" d="M487.7,-274.47C497.08,-271.25 506.88,-267.82 516,-264.5 535.25,-257.49 556.32,-249.39 574.53,-242.25"/>
<polygon fill="midnightblue" stroke="midnightblue" points="576.03,-245.42 584.05,-238.5 573.46,-238.91 576.03,-245.42"/>
</g>
<!-- Node8&#45;&gt;Node4 -->
<g id="edge10" class="edge">
<title>Node8&#45;&gt;Node4</title>
<path fill="none" stroke="midnightblue" d="M298.57,-123.05C361.42,-137.31 475.93,-163.94 516,-177.5 538.12,-184.98 562.03,-195.22 581.49,-204.14"/>
<polygon fill="midnightblue" stroke="midnightblue" points="580.11,-207.36 590.66,-208.39 583.06,-201.01 580.11,-207.36"/>
</g>
<!-- Node9 -->
<g id="node9" class="node">
<title>Node9</title>
<g id="a_node9"><a xlink:href="classdenoptim_1_1graph_1_1_attachment_point.html#a72dd6bd75a701cabb65832778da6e574" target="_top" xlink:title="Returns a unique integer that is used to sort list of attachment points.">
<polygon fill="white" stroke="black" points="374,-98.5 374,-128.5 509,-128.5 509,-98.5 374,-98.5"/>
<text text-anchor="start" x="382" y="-116.5" font-family="Helvetica,sans-Serif" font-size="10.00">denoptim.graph.Attachment</text>
<text text-anchor="middle" x="441.5" y="-105.5" font-family="Helvetica,sans-Serif" font-size="10.00">Point.getID</text>
</a>
</g>
</g>
<!-- Node8&#45;&gt;Node9 -->
<g id="edge9" class="edge">
<title>Node8&#45;&gt;Node9</title>
<path fill="none" stroke="midnightblue" d="M331.04,-113.5C341.78,-113.5 352.84,-113.5 363.61,-113.5"/>
<polygon fill="midnightblue" stroke="midnightblue" points="363.83,-117 373.83,-113.5 363.83,-110 363.83,-117"/>
</g>
<!-- Node10 -->
<g id="node10" class="node">
<title>Node10</title>
<g id="a_node10"><a xlink:href="classdenoptim_1_1utils_1_1_graph_utils.html#ac53e72bfeb5251069c07ebc22994022a" target="_top" xlink:title="Reset the unique attachment point counter to the given value.">
<polygon fill="white" stroke="black" points="367,-49.5 367,-79.5 516,-79.5 516,-49.5 367,-49.5"/>
<text text-anchor="start" x="375" y="-67.5" font-family="Helvetica,sans-Serif" font-size="10.00">denoptim.utils.GraphUtils.reset</text>
<text text-anchor="middle" x="441.5" y="-56.5" font-family="Helvetica,sans-Serif" font-size="10.00">UniqueAPCounter</text>
</a>
</g>
</g>
<!-- Node8&#45;&gt;Node10 -->
<g id="edge11" class="edge">
<title>Node8&#45;&gt;Node10</title>
<path fill="none" stroke="midnightblue" d="M294.19,-103.98C306,-100.99 319.05,-97.65 331,-94.5 345.85,-90.58 361.81,-86.27 376.82,-82.17"/>
<polygon fill="midnightblue" stroke="midnightblue" points="377.81,-85.53 386.53,-79.51 375.96,-78.78 377.81,-85.53"/>
</g>
<!-- Node11 -->
<g id="node11" class="node">
<title>Node11</title>
<g id="a_node11"><a xlink:href="classdenoptim_1_1graph_1_1_attachment_point.html#a929c8f781b4c999a5228f322a3bd901e" target="_top" xlink:title="Sets the unique integer that is used to sort list of attachment points.">
<polygon fill="white" stroke="black" points="374,-0.5 374,-30.5 509,-30.5 509,-0.5 374,-0.5"/>
<text text-anchor="start" x="382" y="-18.5" font-family="Helvetica,sans-Serif" font-size="10.00">denoptim.graph.Attachment</text>
<text text-anchor="middle" x="441.5" y="-7.5" font-family="Helvetica,sans-Serif" font-size="10.00">Point.setID</text>
</a>
</g>
</g>
<!-- Node8&#45;&gt;Node11 -->
<g id="edge12" class="edge">
<title>Node8&#45;&gt;Node11</title>
<path fill="none" stroke="midnightblue" d="M312.88,-103.92C319.31,-101.46 325.52,-98.38 331,-94.5 354.55,-77.85 344.13,-58.08 367,-40.5 369.43,-38.63 372.01,-36.89 374.7,-35.29"/>
<polygon fill="midnightblue" stroke="midnightblue" points="376.39,-38.35 383.57,-30.56 373.09,-32.17 376.39,-38.35"/>
</g>
</g>
</svg>
