<?xml version="1.0" encoding="UTF-8" standalone="no"?>
<!DOCTYPE svg PUBLIC "-//W3C//DTD SVG 1.1//EN"
 "http://www.w3.org/Graphics/SVG/1.1/DTD/svg11.dtd">
<!-- Generated by graphviz version 3.0.0 (20220413.0242)
 -->
<!-- Title: denoptim.fragmenter.ParallelFragmentationAlgorithm.doPreFlightOperations Pages: 1 -->
<!--zoomable 577 -->
<svg id="main" version="1.1" xmlns="http://www.w3.org/2000/svg" xmlns:xlink="http://www.w3.org/1999/xlink" xml:space="preserve" onload="init(evt)">
<style type="text/css"><![CDATA[
.edge:hover path { stroke: red; }
.edge:hover polygon { stroke: red; fill: red; }
]]></style>
<script type="text/javascript"><![CDATA[
var edges = document.getElementsByTagName('g');
if (edges && edges.length) {
  for (var i=0;i<edges.length;i++) {
    if (edges[i].id.substr(0,4)=='edge') {
      edges[i].setAttribute('class','edge');
    }
  }
}
]]></script>
        <defs>
                <circle id="rim" cx="0" cy="0" r="7"/>
                <circle id="rim2" cx="0" cy="0" r="3.5"/>
                <g id="zoomPlus">
                        <use xlink:href="#rim" fill="#404040">
                                <set attributeName="fill" to="#808080" begin="zoomplus.mouseover" end="zoomplus.mouseout"/>
                        </use>
                        <path d="M-4,0h8M0,-4v8" fill="none" stroke="white" stroke-width="1.5" pointer-events="none"/>
                </g>
                <g id="zoomMin">
                        <use xlink:href="#rim" fill="#404040">
                                <set attributeName="fill" to="#808080" begin="zoomminus.mouseover" end="zoomminus.mouseout"/>
                        </use>
                        <path d="M-4,0h8" fill="none" stroke="white" stroke-width="1.5" pointer-events="none"/>
                </g>
                <g id="dirArrow">
                        <path fill="none" stroke="white" stroke-width="1.5" d="M0,-3.0v7 M-2.5,-0.5L0,-3.0L2.5,-0.5"/>
                </g>
               <g id="resetDef">
                       <use xlink:href="#rim2" fill="#404040">
                               <set attributeName="fill" to="#808080" begin="reset.mouseover" end="reset.mouseout"/>
                       </use>
               </g>
        </defs>

<script type="text/javascript">
var viewWidth = 786;
var viewHeight = 577;
var sectionId = 'dynsection-5';
</script>
<script xlink:href="svgpan.js"/>
<svg id="graph" class="graph">
<g id="viewport">
<title>denoptim.fragmenter.ParallelFragmentationAlgorithm.doPreFlightOperations</title>
<polygon fill="white" stroke="transparent" points="-4,4 -4,-573 782,-573 782,4 -4,4"/>
<!-- Node1 -->
<g id="node1" class="node">
<title>Node1</title>
<g id="a_node1"><a xlink:title=" ">
<polygon fill="#bfbfbf" stroke="black" points="0,-317 0,-358 172,-358 172,-317 0,-317"/>
<text text-anchor="start" x="8" y="-346" font-family="Helvetica,sans-Serif" font-size="10.00">denoptim.fragmenter.Parallel</text>
<text text-anchor="start" x="8" y="-335" font-family="Helvetica,sans-Serif" font-size="10.00">FragmentationAlgorithm.doPreFlight</text>
<text text-anchor="middle" x="86" y="-324" font-family="Helvetica,sans-Serif" font-size="10.00">Operations</text>
</a>
</g>
</g>
<!-- Node2 -->
<g id="node2" class="node">
<title>Node2</title>
<g id="a_node2"><a xlink:href="classdenoptim_1_1programs_1_1fragmenter_1_1_fragmenter_parameters.html#a5dceaf88ed2df1829f77d6ec22f43a41" target="_top" xlink:title=" ">
<polygon fill="white" stroke="black" points="406.5,-538.5 406.5,-568.5 598.5,-568.5 598.5,-538.5 406.5,-538.5"/>
<text text-anchor="start" x="414.5" y="-556.5" font-family="Helvetica,sans-Serif" font-size="10.00">denoptim.programs.fragmenter.</text>
<text text-anchor="middle" x="502.5" y="-545.5" font-family="Helvetica,sans-Serif" font-size="10.00">FragmenterParameters.doCheckFormula</text>
</a>
</g>
</g>
<!-- Node1&#45;&gt;Node2 -->
<g id="edge1" class="edge">
<title>Node1&#45;&gt;Node2</title>
<path fill="none" stroke="midnightblue" d="M103.88,-358.11C125.64,-383.54 165.74,-426.68 208,-453.5 272.48,-494.41 355.62,-520.69 416.94,-535.99"/>
<polygon fill="midnightblue" stroke="midnightblue" points="416.42,-539.46 426.97,-538.44 418.09,-532.66 416.42,-539.46"/>
</g>
<!-- Node3 -->
<g id="node3" class="node">
<title>Node3</title>
<g id="a_node3"><a xlink:href="classdenoptim_1_1programs_1_1_run_time_parameters.html#a5d529ee791990d15bde012d8dcd6b5c1" target="_top" xlink:title="Get the name of the program specific logger.">
<polygon fill="white" stroke="black" points="432.5,-489.5 432.5,-519.5 572.5,-519.5 572.5,-489.5 432.5,-489.5"/>
<text text-anchor="start" x="440.5" y="-507.5" font-family="Helvetica,sans-Serif" font-size="10.00">denoptim.programs.RunTime</text>
<text text-anchor="middle" x="502.5" y="-496.5" font-family="Helvetica,sans-Serif" font-size="10.00">Parameters.getLogger</text>
</a>
</g>
</g>
<!-- Node1&#45;&gt;Node3 -->
<g id="edge2" class="edge">
<title>Node1&#45;&gt;Node3</title>
<path fill="none" stroke="midnightblue" d="M117.38,-358.2C141.29,-373.9 175.83,-395.3 208,-410.5 292.39,-450.37 316.64,-453.54 406,-480.5 413.17,-482.66 420.68,-484.79 428.21,-486.83"/>
<polygon fill="midnightblue" stroke="midnightblue" points="427.52,-490.26 438.09,-489.45 429.32,-483.5 427.52,-490.26"/>
</g>
<!-- Node4 -->
<g id="node4" class="node">
<title>Node4</title>
<g id="a_node4"><a xlink:href="classdenoptim_1_1programs_1_1fragmenter_1_1_fragmenter_parameters.html#a49cb9bef7ce9aec3bc6d7bb948e2c8ae" target="_top" xlink:title=" ">
<polygon fill="white" stroke="black" points="412.5,-440.5 412.5,-470.5 592.5,-470.5 592.5,-440.5 412.5,-440.5"/>
<text text-anchor="start" x="420.5" y="-458.5" font-family="Helvetica,sans-Serif" font-size="10.00">denoptim.programs.fragmenter.</text>
<text text-anchor="middle" x="502.5" y="-447.5" font-family="Helvetica,sans-Serif" font-size="10.00">FragmenterParameters.getNumTasks</text>
</a>
</g>
</g>
<!-- Node1&#45;&gt;Node4 -->
<g id="edge3" class="edge">
<title>Node1&#45;&gt;Node4</title>
<path fill="none" stroke="midnightblue" d="M153.68,-358C218.06,-377.59 318.41,-407.6 406,-431.5 413.8,-433.63 421.97,-435.79 430.12,-437.9"/>
<polygon fill="midnightblue" stroke="midnightblue" points="429.46,-441.34 440.01,-440.44 431.2,-434.56 429.46,-441.34"/>
</g>
<!-- Node5 -->
<g id="node5" class="node">
<title>Node5</title>
<g id="a_node5"><a xlink:href="classdenoptim_1_1fragmenter_1_1_parallel_fragmentation_algorithm.html#a389a6f58aaccd6cac08e5888fde01f5c" target="_top" xlink:title="Builds the pathname of the structure file generated for one of the parallel threads.">
<polygon fill="white" stroke="black" points="414.5,-49 414.5,-90 590.5,-90 590.5,-49 414.5,-49"/>
<text text-anchor="start" x="422.5" y="-78" font-family="Helvetica,sans-Serif" font-size="10.00">denoptim.fragmenter.Parallel</text>
<text text-anchor="start" x="422.5" y="-67" font-family="Helvetica,sans-Serif" font-size="10.00">FragmentationAlgorithm.getStructure</text>
<text text-anchor="middle" x="502.5" y="-56" font-family="Helvetica,sans-Serif" font-size="10.00">FileNameBatch</text>
</a>
</g>
</g>
<!-- Node1&#45;&gt;Node5 -->
<g id="edge4" class="edge">
<title>Node1&#45;&gt;Node5</title>
<path fill="none" stroke="midnightblue" d="M109.19,-316.67C158.72,-271.19 283.57,-162.1 406,-99.5 409.79,-97.56 413.72,-95.72 417.74,-93.98"/>
<polygon fill="midnightblue" stroke="midnightblue" points="419.32,-97.11 427.25,-90.08 416.67,-90.64 419.32,-97.11"/>
</g>
<!-- Node7 -->
<g id="node7" class="node">
<title>Node7</title>
<g id="a_node7"><a xlink:href="classdenoptim_1_1programs_1_1fragmenter_1_1_fragmenter_parameters.html#aa6a5a224915e27e9631f90fecafcc977" target="_top" xlink:title=" ">
<polygon fill="white" stroke="black" points="406,-0.5 406,-30.5 599,-30.5 599,-0.5 406,-0.5"/>
<text text-anchor="start" x="414" y="-18.5" font-family="Helvetica,sans-Serif" font-size="10.00">denoptim.programs.fragmenter.</text>
<text text-anchor="middle" x="502.5" y="-7.5" font-family="Helvetica,sans-Serif" font-size="10.00">FragmenterParameters.getStructuresFile</text>
</a>
</g>
</g>
<!-- Node1&#45;&gt;Node7 -->
<g id="edge6" class="edge">
<title>Node1&#45;&gt;Node7</title>
<path fill="none" stroke="midnightblue" d="M92.85,-316.97C106.17,-273.73 142.77,-172.61 208,-115.5 260.47,-69.57 334.98,-44.51 395.8,-30.97"/>
<polygon fill="midnightblue" stroke="midnightblue" points="396.79,-34.34 405.83,-28.81 395.32,-27.5 396.79,-34.34"/>
</g>
<!-- Node8 -->
<g id="node8" class="node">
<title>Node8</title>
<g id="a_node8"><a xlink:href="classdenoptim_1_1fragmenter_1_1_parallel_fragmentation_algorithm.html#a968df3903fa6d1aafc1d88750fb9bf24" target="_top" xlink:title="Splits the input data (from FragmenterParameters) into batches suitable for parallel batch processing...">
<polygon fill="white" stroke="black" points="208,-293 208,-334 370,-334 370,-293 208,-293"/>
<text text-anchor="start" x="216" y="-322" font-family="Helvetica,sans-Serif" font-size="10.00">denoptim.fragmenter.Parallel</text>
<text text-anchor="start" x="216" y="-311" font-family="Helvetica,sans-Serif" font-size="10.00">FragmentationAlgorithm.splitInput</text>
<text text-anchor="middle" x="289" y="-300" font-family="Helvetica,sans-Serif" font-size="10.00">ForThreads</text>
</a>
</g>
</g>
<!-- Node1&#45;&gt;Node8 -->
<g id="edge7" class="edge">
<title>Node1&#45;&gt;Node8</title>
<path fill="none" stroke="midnightblue" d="M172.24,-327.32C180.61,-326.32 189.12,-325.31 197.54,-324.3"/>
<polygon fill="midnightblue" stroke="midnightblue" points="198.23,-327.74 207.74,-323.08 197.4,-320.79 198.23,-327.74"/>
</g>
<!-- Node6 -->
<g id="node6" class="node">
<title>Node6</title>
<g id="a_node6"><a xlink:href="classdenoptim_1_1programs_1_1_run_time_parameters.html#a37f87b26bd9a229cfd84e9c487f6495a" target="_top" xlink:title="Gets the pathname to the working directory.">
<polygon fill="white" stroke="black" points="635,-54.5 635,-84.5 778,-84.5 778,-54.5 635,-54.5"/>
<text text-anchor="start" x="643" y="-72.5" font-family="Helvetica,sans-Serif" font-size="10.00">denoptim.programs.RunTime</text>
<text text-anchor="middle" x="706.5" y="-61.5" font-family="Helvetica,sans-Serif" font-size="10.00">Parameters.getWorkDirectory</text>
</a>
</g>
</g>
<!-- Node5&#45;&gt;Node6 -->
<g id="edge5" class="edge">
<title>Node5&#45;&gt;Node6</title>
<path fill="none" stroke="midnightblue" d="M590.63,-69.5C601.91,-69.5 613.43,-69.5 624.61,-69.5"/>
<polygon fill="midnightblue" stroke="midnightblue" points="624.76,-73 634.76,-69.5 624.76,-66 624.76,-73"/>
</g>
<!-- Node8&#45;&gt;Node2 -->
<g id="edge9" class="edge">
<title>Node8&#45;&gt;Node2</title>
<path fill="none" stroke="midnightblue" d="M295.02,-334.09C306.65,-377.32 339.7,-477.82 406,-529.5 407.81,-530.91 409.69,-532.24 411.63,-533.49"/>
<polygon fill="midnightblue" stroke="midnightblue" points="410.05,-536.62 420.48,-538.49 413.5,-530.52 410.05,-536.62"/>
</g>
<!-- Node8&#45;&gt;Node3 -->
<g id="edge13" class="edge">
<title>Node8&#45;&gt;Node3</title>
<path fill="none" stroke="midnightblue" d="M298.4,-334.03C314.05,-369.61 351.12,-442.56 406,-480.5 411.17,-484.07 416.82,-487.11 422.71,-489.7"/>
<polygon fill="midnightblue" stroke="midnightblue" points="421.54,-493.01 432.13,-493.41 424.11,-486.49 421.54,-493.01"/>
</g>
<!-- Node8&#45;&gt;Node4 -->
<g id="edge14" class="edge">
<title>Node8&#45;&gt;Node4</title>
<path fill="none" stroke="midnightblue" d="M310.43,-334.1C326.62,-350.45 349.8,-373.89 370,-394.5 386.06,-410.88 386.12,-420.05 406,-431.5 409.06,-433.26 412.24,-434.89 415.51,-436.41"/>
<polygon fill="midnightblue" stroke="midnightblue" points="414.35,-439.71 424.92,-440.37 417.06,-433.26 414.35,-439.71"/>
</g>
<!-- Node8&#45;&gt;Node5 -->
<g id="edge15" class="edge">
<title>Node8&#45;&gt;Node5</title>
<path fill="none" stroke="midnightblue" d="M317.47,-292.83C334.92,-278.32 356.67,-257.46 370,-234.5 401.19,-180.8 363.06,-144.36 406,-99.5 407.05,-98.4 408.14,-97.34 409.27,-96.32"/>
<polygon fill="midnightblue" stroke="midnightblue" points="411.46,-99.05 417.18,-90.14 407.15,-93.54 411.46,-99.05"/>
</g>
<!-- Node8&#45;&gt;Node7 -->
<g id="edge16" class="edge">
<title>Node8&#45;&gt;Node7</title>
<path fill="none" stroke="midnightblue" d="M297.57,-292.72C319.92,-231.87 385.3,-57.23 406,-39.5 407.38,-38.31 408.82,-37.19 410.3,-36.11"/>
<polygon fill="midnightblue" stroke="midnightblue" points="412.57,-38.82 419.19,-30.54 408.86,-32.88 412.57,-38.82"/>
</g>
<!-- Node9 -->
<g id="node9" class="node">
<title>Node9</title>
<g id="a_node9"><a xlink:href="classdenoptim_1_1programs_1_1fragmenter_1_1_fragmenter_parameters.html#ac75656ab1a925a9af3d894403c1833be" target="_top" xlink:title=" ">
<polygon fill="white" stroke="black" points="415.5,-206 415.5,-247 589.5,-247 589.5,-206 415.5,-206"/>
<text text-anchor="start" x="423.5" y="-235" font-family="Helvetica,sans-Serif" font-size="10.00">denoptim.programs.fragmenter.</text>
<text text-anchor="start" x="423.5" y="-224" font-family="Helvetica,sans-Serif" font-size="10.00">FragmenterParameters.acceptUnset</text>
<text text-anchor="middle" x="502.5" y="-213" font-family="Helvetica,sans-Serif" font-size="10.00">ToSingeBO</text>
</a>
</g>
</g>
<!-- Node8&#45;&gt;Node9 -->
<g id="edge8" class="edge">
<title>Node8&#45;&gt;Node9</title>
<path fill="none" stroke="midnightblue" d="M328.26,-292.87C350.56,-281.31 379.44,-267.13 406,-256.5 411.14,-254.44 416.49,-252.43 421.9,-250.49"/>
<polygon fill="midnightblue" stroke="midnightblue" points="423.4,-253.67 431.69,-247.07 421.1,-247.06 423.4,-253.67"/>
</g>
<!-- Node10 -->
<g id="node10" class="node">
<title>Node10</title>
<g id="a_node10"><a xlink:href="classdenoptim_1_1utils_1_1_molecule_utils.html#ab217b40e0b54cad6f9857b2103d4fd69" target="_top" xlink:title="Sets bond order = single to all otherwise unset bonds.">
<polygon fill="white" stroke="black" points="417.5,-157.5 417.5,-187.5 587.5,-187.5 587.5,-157.5 417.5,-157.5"/>
<text text-anchor="start" x="425.5" y="-175.5" font-family="Helvetica,sans-Serif" font-size="10.00">denoptim.utils.MoleculeUtils.ensure</text>
<text text-anchor="middle" x="502.5" y="-164.5" font-family="Helvetica,sans-Serif" font-size="10.00">NoUnsetBondOrders</text>
</a>
</g>
</g>
<!-- Node8&#45;&gt;Node10 -->
<g id="edge10" class="edge">
<title>Node8&#45;&gt;Node10</title>
<path fill="none" stroke="midnightblue" d="M311.25,-292.9C327.48,-277.07 350.33,-254.58 370,-234.5 386.28,-217.88 385.92,-208.25 406,-196.5 409.04,-194.72 412.22,-193.07 415.48,-191.54"/>
<polygon fill="midnightblue" stroke="midnightblue" points="417.04,-194.68 424.87,-187.55 414.3,-188.24 417.04,-194.68"/>
</g>
<!-- Node11 -->
<g id="node11" class="node">
<title>Node11</title>
<g id="a_node11"><a xlink:href="classdenoptim_1_1programs_1_1fragmenter_1_1_fragmenter_parameters.html#a91b482bfac4005ca38540c1bd1e71f6b" target="_top" xlink:title=" ">
<polygon fill="white" stroke="black" points="416,-108.5 416,-138.5 589,-138.5 589,-108.5 416,-108.5"/>
<text text-anchor="start" x="424" y="-126.5" font-family="Helvetica,sans-Serif" font-size="10.00">denoptim.programs.fragmenter.</text>
<text text-anchor="middle" x="502.5" y="-115.5" font-family="Helvetica,sans-Serif" font-size="10.00">FragmenterParameters.getFormulae</text>
</a>
</g>
</g>
<!-- Node8&#45;&gt;Node11 -->
<g id="edge11" class="edge">
<title>Node8&#45;&gt;Node11</title>
<path fill="none" stroke="midnightblue" d="M315.71,-292.85C332.85,-278.03 354.92,-256.82 370,-234.5 393.19,-200.16 374.72,-175.67 406,-148.5 407.79,-146.95 409.66,-145.49 411.6,-144.12"/>
<polygon fill="midnightblue" stroke="midnightblue" points="413.82,-146.87 420.53,-138.67 410.17,-140.89 413.82,-146.87"/>
</g>
<!-- Node12 -->
<g id="node12" class="node">
<title>Node12</title>
<g id="a_node12"><a xlink:href="classdenoptim_1_1fragmenter_1_1_parallel_fragmentation_algorithm.html#af92ae1d57d04c96f7045372d9f342cea" target="_top" xlink:title="Takes the molecular formula from the given list of formulae and using the &#39;Title&#39; property of the ind...">
<polygon fill="white" stroke="black" points="417,-381 417,-422 588,-422 588,-381 417,-381"/>
<text text-anchor="start" x="425" y="-410" font-family="Helvetica,sans-Serif" font-size="10.00">denoptim.fragmenter.Parallel</text>
<text text-anchor="start" x="425" y="-399" font-family="Helvetica,sans-Serif" font-size="10.00">FragmentationAlgorithm.getFormula</text>
<text text-anchor="middle" x="502.5" y="-388" font-family="Helvetica,sans-Serif" font-size="10.00">ForMol</text>
</a>
</g>
</g>
<!-- Node8&#45;&gt;Node12 -->
<g id="edge12" class="edge">
<title>Node8&#45;&gt;Node12</title>
<path fill="none" stroke="midnightblue" d="M326.32,-334.06C348.81,-346.26 378.54,-361.45 406,-372.5 410.39,-374.27 414.93,-375.99 419.54,-377.65"/>
<polygon fill="midnightblue" stroke="midnightblue" points="418.47,-380.99 429.07,-380.98 420.78,-374.38 418.47,-380.99"/>
</g>
<!-- Node13 -->
<g id="node13" class="node">
<title>Node13</title>
<g id="a_node13"><a xlink:href="classdenoptim_1_1utils_1_1_molecule_utils.html#a364533d507e42ebb43dc537c0e3ad3a4" target="_top" xlink:title="Sets zero implicit hydrogen count to all atoms.">
<polygon fill="white" stroke="black" points="420,-332.5 420,-362.5 585,-362.5 585,-332.5 420,-332.5"/>
<text text-anchor="start" x="428" y="-350.5" font-family="Helvetica,sans-Serif" font-size="10.00">denoptim.utils.MoleculeUtils.set</text>
<text text-anchor="middle" x="502.5" y="-339.5" font-family="Helvetica,sans-Serif" font-size="10.00">ZeroImplicitHydrogensToAllAtoms</text>
</a>
</g>
</g>
<!-- Node8&#45;&gt;Node13 -->
<g id="edge17" class="edge">
<title>Node8&#45;&gt;Node13</title>
<path fill="none" stroke="midnightblue" d="M370.26,-326.4C383.2,-328.48 396.69,-330.65 409.88,-332.77"/>
<polygon fill="midnightblue" stroke="midnightblue" points="409.46,-336.25 419.89,-334.38 410.57,-329.34 409.46,-336.25"/>
</g>
<!-- Node14 -->
<g id="node14" class="node">
<title>Node14</title>
<g id="a_node14"><a xlink:href="classdenoptim_1_1io_1_1_denoptim_i_o.html#a33af2ecd8e9f62a54855b2a7866262b3" target="_top" xlink:title="Writes IAtomContainer to SDF file.">
<polygon fill="white" stroke="black" points="431,-265.5 431,-295.5 574,-295.5 574,-265.5 431,-265.5"/>
<text text-anchor="start" x="439" y="-283.5" font-family="Helvetica,sans-Serif" font-size="10.00">denoptim.io.DenoptimIO.write</text>
<text text-anchor="middle" x="502.5" y="-272.5" font-family="Helvetica,sans-Serif" font-size="10.00">SDFFile</text>
</a>
</g>
</g>
<!-- Node8&#45;&gt;Node14 -->
<g id="edge18" class="edge">
<title>Node8&#45;&gt;Node14</title>
<path fill="none" stroke="midnightblue" d="M370.26,-300.98C386.81,-298.4 404.24,-295.67 420.81,-293.09"/>
<polygon fill="midnightblue" stroke="midnightblue" points="421.65,-296.5 430.99,-291.5 420.57,-289.58 421.65,-296.5"/>
</g>
<!-- Node14&#45;&gt;Node14 -->
<g id="edge19" class="edge">
<title>Node14&#45;&gt;Node14</title>
<path fill="none" stroke="midnightblue" d="M466.95,-295.66C458.38,-305.06 470.23,-314 502.5,-314 522.17,-314 534.25,-310.68 538.75,-305.96"/>
<polygon fill="midnightblue" stroke="midnightblue" points="542.22,-305.4 538.05,-295.66 535.23,-305.87 542.22,-305.4"/>
</g>
</g>
</svg>
        <g id="navigator" transform="translate(0 0)" fill="#404254">
                <rect fill="#f2f5e9" fill-opacity="0.5" stroke="#606060" stroke-width=".5" x="0" y="0" width="60" height="60"/>
                <use id="zoomplus" xlink:href="#zoomPlus" x="17" y="9" onmousedown="handleZoom(evt,'in')"/>
                <use id="zoomminus" xlink:href="#zoomMin" x="42" y="9" onmousedown="handleZoom(evt,'out')"/>
                <use id="reset" xlink:href="#resetDef" x="30" y="36" onmousedown="handleReset()"/>
                <g id="arrowUp" xlink:href="#dirArrow" transform="translate(30 24)" onmousedown="handlePan(0,-1)">
                  <use xlink:href="#rim" fill="#404040">
                        <set attributeName="fill" to="#808080" begin="arrowUp.mouseover" end="arrowUp.mouseout"/>
                  </use>
                  <path fill="none" stroke="white" stroke-width="1.5" d="M0,-3.0v7 M-2.5,-0.5L0,-3.0L2.5,-0.5"/>
                </g>
                <g id="arrowRight" xlink:href="#dirArrow" transform="rotate(90) translate(36 -43)" onmousedown="handlePan(1,0)">
                  <use xlink:href="#rim" fill="#404040">
                        <set attributeName="fill" to="#808080" begin="arrowRight.mouseover" end="arrowRight.mouseout"/>
                  </use>
                  <path fill="none" stroke="white" stroke-width="1.5" d="M0,-3.0v7 M-2.5,-0.5L0,-3.0L2.5,-0.5"/>
                </g>
                <g id="arrowDown" xlink:href="#dirArrow" transform="rotate(180) translate(-30 -48)" onmousedown="handlePan(0,1)">
                  <use xlink:href="#rim" fill="#404040">
                        <set attributeName="fill" to="#808080" begin="arrowDown.mouseover" end="arrowDown.mouseout"/>
                  </use>
                  <path fill="none" stroke="white" stroke-width="1.5" d="M0,-3.0v7 M-2.5,-0.5L0,-3.0L2.5,-0.5"/>
                </g>
                <g id="arrowLeft" xlink:href="#dirArrow" transform="rotate(270) translate(-36 17)" onmousedown="handlePan(-1,0)">
                  <use xlink:href="#rim" fill="#404040">
                        <set attributeName="fill" to="#808080" begin="arrowLeft.mouseover" end="arrowLeft.mouseout"/>
                  </use>
                  <path fill="none" stroke="white" stroke-width="1.5" d="M0,-3.0v7 M-2.5,-0.5L0,-3.0L2.5,-0.5"/>
                </g>
        </g>
        <svg viewBox="0 0 15 15" width="100%" height="30px" preserveAspectRatio="xMaxYMin meet">
         <g id="arrow_out" transform="scale(0.3 0.3)">
          <a xlink:href="classdenoptim_1_1fragmenter_1_1_parallel_fragmentation_algorithm_a13ae260c713d9b901a9aa71152c615ad_cgraph_org.svg" target="_base">
           <rect id="button" ry="5" rx="5" y="6" x="6" height="38" width="38"
                fill="#f2f5e9" fill-opacity="0.5" stroke="#606060" stroke-width="1.0"/>
           <path id="arrow"
             d="M 11.500037,31.436501 C 11.940474,20.09759 22.043105,11.32322 32.158766,21.979434 L 37.068811,17.246167 C 37.068811,17.246167 37.088388,32 37.088388,32 L 22.160133,31.978069 C 22.160133,31.978069 26.997745,27.140456 26.997745,27.140456 C 18.528582,18.264221 13.291696,25.230495 11.500037,31.436501 z"
             style="fill:#404040;"/>
          </a>
         </g>
        </svg>
</svg>
