<?xml version="1.0" encoding="UTF-8" standalone="no"?>
<!DOCTYPE svg PUBLIC "-//W3C//DTD SVG 1.1//EN"
 "http://www.w3.org/Graphics/SVG/1.1/DTD/svg11.dtd">
<!-- Generated by graphviz version 3.0.0 (20220413.0242)
 -->
<!-- Title: denoptim.utils.GraphConversionTool.getGraphFromString Pages: 1 -->
<!--zoomable 423 -->
<svg id="main" version="1.1" xmlns="http://www.w3.org/2000/svg" xmlns:xlink="http://www.w3.org/1999/xlink" xml:space="preserve" onload="init(evt)">
<style type="text/css"><![CDATA[
.edge:hover path { stroke: red; }
.edge:hover polygon { stroke: red; fill: red; }
]]></style>
<script type="text/javascript"><![CDATA[
var edges = document.getElementsByTagName('g');
if (edges && edges.length) {
  for (var i=0;i<edges.length;i++) {
    if (edges[i].id.substr(0,4)=='edge') {
      edges[i].setAttribute('class','edge');
    }
  }
}
]]></script>
        <defs>
                <circle id="rim" cx="0" cy="0" r="7"/>
                <circle id="rim2" cx="0" cy="0" r="3.5"/>
                <g id="zoomPlus">
                        <use xlink:href="#rim" fill="#404040">
                                <set attributeName="fill" to="#808080" begin="zoomplus.mouseover" end="zoomplus.mouseout"/>
                        </use>
                        <path d="M-4,0h8M0,-4v8" fill="none" stroke="white" stroke-width="1.5" pointer-events="none"/>
                </g>
                <g id="zoomMin">
                        <use xlink:href="#rim" fill="#404040">
                                <set attributeName="fill" to="#808080" begin="zoomminus.mouseover" end="zoomminus.mouseout"/>
                        </use>
                        <path d="M-4,0h8" fill="none" stroke="white" stroke-width="1.5" pointer-events="none"/>
                </g>
                <g id="dirArrow">
                        <path fill="none" stroke="white" stroke-width="1.5" d="M0,-3.0v7 M-2.5,-0.5L0,-3.0L2.5,-0.5"/>
                </g>
               <g id="resetDef">
                       <use xlink:href="#rim2" fill="#404040">
                               <set attributeName="fill" to="#808080" begin="reset.mouseover" end="reset.mouseout"/>
                       </use>
               </g>
        </defs>

<script type="text/javascript">
var viewWidth = 914;
var viewHeight = 423;
var sectionId = 'dynsection-0';
</script>
<script xlink:href="svgpan.js"/>
<svg id="graph" class="graph">
<g id="viewport">
<title>denoptim.utils.GraphConversionTool.getGraphFromString</title>
<polygon fill="white" stroke="transparent" points="-4,4 -4,-419 910,-419 910,4 -4,4"/>
<!-- Node1 -->
<g id="node1" class="node">
<title>Node1</title>
<g id="a_node1"><a xlink:title="Given a formatted string&#45;like representation of a DENOPTIM graph create the corresponding DENOPTIMGra...">
<polygon fill="#bfbfbf" stroke="black" points="0,-186.5 0,-216.5 154,-216.5 154,-186.5 0,-186.5"/>
<text text-anchor="start" x="8" y="-204.5" font-family="Helvetica,sans-Serif" font-size="10.00">denoptim.utils.GraphConversion</text>
<text text-anchor="middle" x="77" y="-193.5" font-family="Helvetica,sans-Serif" font-size="10.00">Tool.getGraphFromString</text>
</a>
</g>
</g>
<!-- Node2 -->
<g id="node2" class="node">
<title>Node2</title>
<g id="a_node2"><a xlink:href="classdenoptim_1_1graph_1_1_empty_vertex.html#af9d9965c880b45d82e9b4cc10e60efa7" target="_top" xlink:title="Adds an attachment point with a no APClass or other attribute.">
<polygon fill="white" stroke="black" points="198,-390 198,-409 369,-409 369,-390 198,-390"/>
<text text-anchor="middle" x="283.5" y="-397" font-family="Helvetica,sans-Serif" font-size="10.00">denoptim.graph.EmptyVertex.addAP</text>
</a>
</g>
</g>
<!-- Node1&#45;&gt;Node2 -->
<g id="edge1" class="edge">
<title>Node1&#45;&gt;Node2</title>
<path fill="none" stroke="midnightblue" d="M82.82,-216.65C94.78,-251.66 129.33,-338.36 190,-380.5 192.76,-382.42 195.67,-384.15 198.69,-385.71"/>
<polygon fill="midnightblue" stroke="midnightblue" points="197.48,-389.01 208.04,-389.92 200.36,-382.62 197.48,-389.01"/>
</g>
<!-- Node4 -->
<g id="node4" class="node">
<title>Node4</title>
<g id="a_node4"><a xlink:href="classdenoptim_1_1graph_1_1_vertex.html#aee39019987712f9784138e97917ac97f" target="_top" xlink:title="Get attachment point i on this vertex.">
<polygon fill="white" stroke="black" points="212.5,-352 212.5,-371 354.5,-371 354.5,-352 212.5,-352"/>
<text text-anchor="middle" x="283.5" y="-359" font-family="Helvetica,sans-Serif" font-size="10.00">denoptim.graph.Vertex.getAP</text>
</a>
</g>
</g>
<!-- Node1&#45;&gt;Node4 -->
<g id="edge3" class="edge">
<title>Node1&#45;&gt;Node4</title>
<path fill="none" stroke="midnightblue" d="M85.43,-216.72C100.65,-246.15 138.33,-310.75 190,-342.5 194.06,-345 198.4,-347.17 202.89,-349.07"/>
<polygon fill="midnightblue" stroke="midnightblue" points="201.7,-352.36 212.29,-352.57 204.15,-345.8 201.7,-352.36"/>
</g>
<!-- Node6 -->
<g id="node6" class="node">
<title>Node6</title>
<g id="a_node6"><a xlink:href="classdenoptim_1_1graph_1_1_vertex.html#a514b89b11dff8939e74e5b95e749b703" target="_top" xlink:title=" ">
<polygon fill="white" stroke="black" points="219.5,-302.5 219.5,-332.5 347.5,-332.5 347.5,-302.5 219.5,-302.5"/>
<text text-anchor="start" x="227.5" y="-320.5" font-family="Helvetica,sans-Serif" font-size="10.00">denoptim.graph.Vertex.get</text>
<text text-anchor="middle" x="283.5" y="-309.5" font-family="Helvetica,sans-Serif" font-size="10.00">NumberOfAPs</text>
</a>
</g>
</g>
<!-- Node1&#45;&gt;Node6 -->
<g id="edge5" class="edge">
<title>Node1&#45;&gt;Node6</title>
<path fill="none" stroke="midnightblue" d="M92.07,-216.6C111.96,-237.05 150.31,-273.3 190,-293.5 196.16,-296.63 202.76,-299.38 209.5,-301.79"/>
<polygon fill="midnightblue" stroke="midnightblue" points="208.85,-305.26 219.44,-305.08 211.05,-298.62 208.85,-305.26"/>
</g>
<!-- Node7 -->
<g id="node7" class="node">
<title>Node7</title>
<g id="a_node7"><a xlink:href="classdenoptim_1_1graph_1_1_vertex.html#af44ae05546096ec9060d7207f38bc8e9" target="_top" xlink:title=" ">
<polygon fill="white" stroke="black" points="219.5,-253.5 219.5,-283.5 347.5,-283.5 347.5,-253.5 219.5,-253.5"/>
<text text-anchor="start" x="227.5" y="-271.5" font-family="Helvetica,sans-Serif" font-size="10.00">denoptim.graph.Vertex.get</text>
<text text-anchor="middle" x="283.5" y="-260.5" font-family="Helvetica,sans-Serif" font-size="10.00">VertexId</text>
</a>
</g>
</g>
<!-- Node1&#45;&gt;Node7 -->
<g id="edge7" class="edge">
<title>Node1&#45;&gt;Node7</title>
<path fill="none" stroke="midnightblue" d="M114.2,-216.59C135.96,-225.36 164.31,-236.27 190,-244.5 196.73,-246.66 203.79,-248.76 210.87,-250.77"/>
<polygon fill="midnightblue" stroke="midnightblue" points="209.95,-254.15 220.52,-253.45 211.82,-247.4 209.95,-254.15"/>
</g>
<!-- Node8 -->
<g id="node8" class="node">
<title>Node8</title>
<g id="a_node8"><a xlink:href="classdenoptim_1_1graph_1_1_vertex.html#aeed71fb5a76a745190ea6f0e3e0b939d" target="_top" xlink:title="Builds a new molecular fragment kind of vertex.">
<polygon fill="white" stroke="black" points="217,-186.5 217,-216.5 350,-216.5 350,-186.5 217,-186.5"/>
<text text-anchor="start" x="225" y="-204.5" font-family="Helvetica,sans-Serif" font-size="10.00">denoptim.graph.Vertex.new</text>
<text text-anchor="middle" x="283.5" y="-193.5" font-family="Helvetica,sans-Serif" font-size="10.00">VertexFromLibrary</text>
</a>
</g>
</g>
<!-- Node1&#45;&gt;Node8 -->
<g id="edge8" class="edge">
<title>Node1&#45;&gt;Node8</title>
<path fill="none" stroke="midnightblue" d="M154.15,-201.5C171.17,-201.5 189.23,-201.5 206.25,-201.5"/>
<polygon fill="midnightblue" stroke="midnightblue" points="206.7,-205 216.7,-201.5 206.7,-198 206.7,-205"/>
</g>
<!-- Node10 -->
<g id="node10" class="node">
<title>Node10</title>
<g id="a_node10"><a xlink:href="enumdenoptim_1_1graph_1_1_vertex_1_1_b_b_type.html#a98d45f9fb02ed946e4d2600d731dc0ca" target="_top" xlink:title="Translates the integer into the enum.">
<polygon fill="white" stroke="black" points="190,-148 190,-167 377,-167 377,-148 190,-148"/>
<text text-anchor="middle" x="283.5" y="-155" font-family="Helvetica,sans-Serif" font-size="10.00">denoptim.graph.Vertex.BBType.parseInt</text>
</a>
</g>
</g>
<!-- Node1&#45;&gt;Node10 -->
<g id="edge11" class="edge">
<title>Node1&#45;&gt;Node10</title>
<path fill="none" stroke="midnightblue" d="M147.81,-186.48C174.14,-180.81 203.69,-174.46 228.38,-169.14"/>
<polygon fill="midnightblue" stroke="midnightblue" points="229.25,-172.54 238.29,-167.01 227.78,-165.69 229.25,-172.54"/>
</g>
<!-- Node11 -->
<g id="node11" class="node">
<title>Node11</title>
<g id="a_node11"><a xlink:href="enumdenoptim_1_1graph_1_1_edge_1_1_bond_type.html#a662c8cd4eb991324b763ac99709d8a6a" target="_top" xlink:title=" ">
<polygon fill="white" stroke="black" points="218,-98.5 218,-128.5 349,-128.5 349,-98.5 218,-98.5"/>
<text text-anchor="start" x="226" y="-116.5" font-family="Helvetica,sans-Serif" font-size="10.00">denoptim.graph.Edge.Bond</text>
<text text-anchor="middle" x="283.5" y="-105.5" font-family="Helvetica,sans-Serif" font-size="10.00">Type.parseStr</text>
</a>
</g>
</g>
<!-- Node1&#45;&gt;Node11 -->
<g id="edge12" class="edge">
<title>Node1&#45;&gt;Node11</title>
<path fill="none" stroke="midnightblue" d="M100.75,-186.47C122.8,-172.45 157.58,-151.76 190,-138.5 196.1,-136 202.54,-133.68 209.05,-131.54"/>
<polygon fill="midnightblue" stroke="midnightblue" points="210.13,-134.87 218.61,-128.53 208.02,-128.19 210.13,-134.87"/>
</g>
<!-- Node12 -->
<g id="node12" class="node">
<title>Node12</title>
<g id="a_node12"><a xlink:href="classdenoptim_1_1graph_1_1_attachment_point.html#a13c466d60a1ed85384812ca2ff63fdb2" target="_top" xlink:title="Set the Attachment Point class.">
<polygon fill="white" stroke="black" points="216,-49.5 216,-79.5 351,-79.5 351,-49.5 216,-49.5"/>
<text text-anchor="start" x="224" y="-67.5" font-family="Helvetica,sans-Serif" font-size="10.00">denoptim.graph.Attachment</text>
<text text-anchor="middle" x="283.5" y="-56.5" font-family="Helvetica,sans-Serif" font-size="10.00">Point.setAPClass</text>
</a>
</g>
</g>
<!-- Node1&#45;&gt;Node12 -->
<g id="edge13" class="edge">
<title>Node1&#45;&gt;Node12</title>
<path fill="none" stroke="midnightblue" d="M88.91,-186.31C107.09,-162.13 145.97,-114.98 190,-89.5 195.07,-86.56 200.5,-83.96 206.09,-81.66"/>
<polygon fill="midnightblue" stroke="midnightblue" points="207.5,-84.87 215.62,-78.06 205.03,-78.32 207.5,-84.87"/>
</g>
<!-- Node17 -->
<g id="node17" class="node">
<title>Node17</title>
<g id="a_node17"><a xlink:href="classdenoptim_1_1graph_1_1_d_graph.html#a421ce3718c62761e49a4dd4d0f20682c" target="_top" xlink:title=" ">
<polygon fill="white" stroke="black" points="216.5,-0.5 216.5,-30.5 350.5,-30.5 350.5,-0.5 216.5,-0.5"/>
<text text-anchor="start" x="224.5" y="-18.5" font-family="Helvetica,sans-Serif" font-size="10.00">denoptim.graph.DGraph.set</text>
<text text-anchor="middle" x="283.5" y="-7.5" font-family="Helvetica,sans-Serif" font-size="10.00">GraphId</text>
</a>
</g>
</g>
<!-- Node1&#45;&gt;Node17 -->
<g id="edge19" class="edge">
<title>Node1&#45;&gt;Node17</title>
<path fill="none" stroke="midnightblue" d="M84.1,-186.29C97.85,-153.98 134.5,-78.28 190,-39.5 195.18,-35.88 200.86,-32.81 206.78,-30.2"/>
<polygon fill="midnightblue" stroke="midnightblue" points="208.23,-33.39 216.25,-26.47 205.66,-26.88 208.23,-33.39"/>
</g>
<!-- Node3 -->
<g id="node3" class="node">
<title>Node3</title>
<g id="a_node3"><a xlink:href="classdenoptim_1_1graph_1_1_empty_vertex.html#afa1da6d6552c046f4c09f3ab030badfe" target="_top" xlink:title=" ">
<polygon fill="white" stroke="black" points="413,-384.5 413,-414.5 568,-414.5 568,-384.5 413,-384.5"/>
<text text-anchor="start" x="421" y="-402.5" font-family="Helvetica,sans-Serif" font-size="10.00">denoptim.graph.EmptyVertex.get</text>
<text text-anchor="middle" x="490.5" y="-391.5" font-family="Helvetica,sans-Serif" font-size="10.00">AttachmentPoints</text>
</a>
</g>
</g>
<!-- Node2&#45;&gt;Node3 -->
<g id="edge2" class="edge">
<title>Node2&#45;&gt;Node3</title>
<path fill="none" stroke="midnightblue" d="M369.06,-399.5C380.13,-399.5 391.48,-399.5 402.58,-399.5"/>
<polygon fill="midnightblue" stroke="midnightblue" points="402.68,-403 412.68,-399.5 402.68,-396 402.68,-403"/>
</g>
<!-- Node5 -->
<g id="node5" class="node">
<title>Node5</title>
<g id="a_node5"><a xlink:href="classdenoptim_1_1graph_1_1_vertex.html#a022f7c9075b178f17e13339b215ee21f" target="_top" xlink:title=" ">
<polygon fill="white" stroke="black" points="426.5,-318.5 426.5,-348.5 554.5,-348.5 554.5,-318.5 426.5,-318.5"/>
<text text-anchor="start" x="434.5" y="-336.5" font-family="Helvetica,sans-Serif" font-size="10.00">denoptim.graph.Vertex.get</text>
<text text-anchor="middle" x="490.5" y="-325.5" font-family="Helvetica,sans-Serif" font-size="10.00">AttachmentPoints</text>
</a>
</g>
</g>
<!-- Node4&#45;&gt;Node5 -->
<g id="edge4" class="edge">
<title>Node4&#45;&gt;Node5</title>
<path fill="none" stroke="midnightblue" d="M354.19,-351.98C374.15,-349.26 395.96,-346.28 416.14,-343.52"/>
<polygon fill="midnightblue" stroke="midnightblue" points="416.77,-346.97 426.2,-342.15 415.82,-340.03 416.77,-346.97"/>
</g>
<!-- Node6&#45;&gt;Node5 -->
<g id="edge6" class="edge">
<title>Node6&#45;&gt;Node5</title>
<path fill="none" stroke="midnightblue" d="M347.68,-322.43C369.31,-324.12 393.69,-326.02 416.06,-327.77"/>
<polygon fill="midnightblue" stroke="midnightblue" points="415.93,-331.27 426.18,-328.56 416.48,-324.29 415.93,-331.27"/>
</g>
<!-- Node8&#45;&gt;Node8 -->
<g id="edge10" class="edge">
<title>Node8&#45;&gt;Node8</title>
<path fill="none" stroke="midnightblue" d="M247.6,-216.66C238.94,-226.06 250.91,-235 283.5,-235 303.36,-235 315.56,-231.68 320.1,-226.96"/>
<polygon fill="midnightblue" stroke="midnightblue" points="323.57,-226.4 319.4,-216.66 316.59,-226.87 323.57,-226.4"/>
</g>
<!-- Node9 -->
<g id="node9" class="node">
<title>Node9</title>
<g id="a_node9"><a xlink:href="classdenoptim_1_1utils_1_1_graph_utils.html#a9d08e1ef48052456de71c3c6955f1945" target="_top" xlink:title="Unique counter for the number of graph vertices generated.">
<polygon fill="white" stroke="black" points="420,-186.5 420,-216.5 561,-216.5 561,-186.5 420,-186.5"/>
<text text-anchor="start" x="428" y="-204.5" font-family="Helvetica,sans-Serif" font-size="10.00">denoptim.utils.GraphUtils.get</text>
<text text-anchor="middle" x="490.5" y="-193.5" font-family="Helvetica,sans-Serif" font-size="10.00">UniqueVertexIndex</text>
</a>
</g>
</g>
<!-- Node8&#45;&gt;Node9 -->
<g id="edge9" class="edge">
<title>Node8&#45;&gt;Node9</title>
<path fill="none" stroke="midnightblue" d="M350.21,-201.5C369.16,-201.5 390.04,-201.5 409.74,-201.5"/>
<polygon fill="midnightblue" stroke="midnightblue" points="409.92,-205 419.92,-201.5 409.92,-198 409.92,-205"/>
</g>
<!-- Node13 -->
<g id="node13" class="node">
<title>Node13</title>
<g id="a_node13"><a xlink:href="classdenoptim_1_1graph_1_1_a_p_class.html#ac957566ebf8db3b83713ed0c12a56a3f" target="_top" xlink:title="Creates an APClass if it does not exist already, or returns the reference to the existing instance.">
<polygon fill="white" stroke="black" points="416,-55 416,-74 565,-74 565,-55 416,-55"/>
<text text-anchor="middle" x="490.5" y="-62" font-family="Helvetica,sans-Serif" font-size="10.00">denoptim.graph.APClass.make</text>
</a>
</g>
</g>
<!-- Node12&#45;&gt;Node13 -->
<g id="edge14" class="edge">
<title>Node12&#45;&gt;Node13</title>
<path fill="none" stroke="midnightblue" d="M351.06,-64.5C368.52,-64.5 387.57,-64.5 405.8,-64.5"/>
<polygon fill="midnightblue" stroke="midnightblue" points="405.83,-68 415.83,-64.5 405.83,-61 405.83,-68"/>
</g>
<!-- Node13&#45;&gt;Node13 -->
<g id="edge18" class="edge">
<title>Node13&#45;&gt;Node13</title>
<path fill="none" stroke="midnightblue" d="M462.76,-74.26C449.26,-83.07 458.51,-92.5 490.5,-92.5 512.49,-92.5 523.74,-88.04 524.23,-82.39"/>
<polygon fill="midnightblue" stroke="midnightblue" points="526.99,-80.23 518.24,-74.26 521.35,-84.38 526.99,-80.23"/>
</g>
<!-- Node14 -->
<g id="node14" class="node">
<title>Node14</title>
<g id="a_node14"><a xlink:href="classdenoptim_1_1graph_1_1_a_p_class.html#a6981e4878a844276c416f5cd31a80b66" target="_top" xlink:title="Evaluate is a candidate string can be used as APClass.">
<polygon fill="white" stroke="black" points="604,-49.5 604,-79.5 737,-79.5 737,-49.5 604,-49.5"/>
<text text-anchor="start" x="612" y="-67.5" font-family="Helvetica,sans-Serif" font-size="10.00">denoptim.graph.APClass.is</text>
<text text-anchor="middle" x="670.5" y="-56.5" font-family="Helvetica,sans-Serif" font-size="10.00">ValidAPClassString</text>
</a>
</g>
</g>
<!-- Node13&#45;&gt;Node14 -->
<g id="edge15" class="edge">
<title>Node13&#45;&gt;Node14</title>
<path fill="none" stroke="midnightblue" d="M565.18,-64.5C574.6,-64.5 584.24,-64.5 593.69,-64.5"/>
<polygon fill="midnightblue" stroke="midnightblue" points="593.84,-68 603.84,-64.5 593.84,-61 593.84,-68"/>
</g>
<!-- Node15 -->
<g id="node15" class="node">
<title>Node15</title>
<g id="a_node15"><a xlink:href="classdenoptim_1_1graph_1_1_a_p_class.html#a6ce0fb88cd79a6e154d889496c88455b" target="_top" xlink:title="Evaluates the given string as a candidate attachment point rule, i.e., as name of a fragmentation rul...">
<polygon fill="white" stroke="black" points="773,-74.5 773,-104.5 906,-104.5 906,-74.5 773,-74.5"/>
<text text-anchor="start" x="781" y="-92.5" font-family="Helvetica,sans-Serif" font-size="10.00">denoptim.graph.APClass.is</text>
<text text-anchor="middle" x="839.5" y="-81.5" font-family="Helvetica,sans-Serif" font-size="10.00">ValidAPRuleString</text>
</a>
</g>
</g>
<!-- Node14&#45;&gt;Node15 -->
<g id="edge16" class="edge">
<title>Node14&#45;&gt;Node15</title>
<path fill="none" stroke="midnightblue" d="M737.02,-74.31C745.5,-75.58 754.23,-76.88 762.85,-78.17"/>
<polygon fill="midnightblue" stroke="midnightblue" points="762.48,-81.66 772.89,-79.68 763.52,-74.74 762.48,-81.66"/>
</g>
<!-- Node16 -->
<g id="node16" class="node">
<title>Node16</title>
<g id="a_node16"><a xlink:href="classdenoptim_1_1graph_1_1_a_p_class.html#ac13faa6d99c5b9c3f89a42f00f4744ea" target="_top" xlink:title="Evaluate the given string as a candidate for attachment point subclass, i.e., the attachment point cl...">
<polygon fill="white" stroke="black" points="773,-25.5 773,-55.5 906,-55.5 906,-25.5 773,-25.5"/>
<text text-anchor="start" x="781" y="-43.5" font-family="Helvetica,sans-Serif" font-size="10.00">denoptim.graph.APClass.is</text>
<text text-anchor="middle" x="839.5" y="-32.5" font-family="Helvetica,sans-Serif" font-size="10.00">ValidAPSubCLassString</text>
</a>
</g>
</g>
<!-- Node14&#45;&gt;Node16 -->
<g id="edge17" class="edge">
<title>Node14&#45;&gt;Node16</title>
<path fill="none" stroke="midnightblue" d="M737.02,-55.08C745.5,-53.87 754.23,-52.61 762.85,-51.37"/>
<polygon fill="midnightblue" stroke="midnightblue" points="763.49,-54.82 772.89,-49.93 762.5,-47.89 763.49,-54.82"/>
</g>
</g>
</svg>
        <g id="navigator" transform="translate(0 0)" fill="#404254">
                <rect fill="#f2f5e9" fill-opacity="0.5" stroke="#606060" stroke-width=".5" x="0" y="0" width="60" height="60"/>
                <use id="zoomplus" xlink:href="#zoomPlus" x="17" y="9" onmousedown="handleZoom(evt,'in')"/>
                <use id="zoomminus" xlink:href="#zoomMin" x="42" y="9" onmousedown="handleZoom(evt,'out')"/>
                <use id="reset" xlink:href="#resetDef" x="30" y="36" onmousedown="handleReset()"/>
                <g id="arrowUp" xlink:href="#dirArrow" transform="translate(30 24)" onmousedown="handlePan(0,-1)">
                  <use xlink:href="#rim" fill="#404040">
                        <set attributeName="fill" to="#808080" begin="arrowUp.mouseover" end="arrowUp.mouseout"/>
                  </use>
                  <path fill="none" stroke="white" stroke-width="1.5" d="M0,-3.0v7 M-2.5,-0.5L0,-3.0L2.5,-0.5"/>
                </g>
                <g id="arrowRight" xlink:href="#dirArrow" transform="rotate(90) translate(36 -43)" onmousedown="handlePan(1,0)">
                  <use xlink:href="#rim" fill="#404040">
                        <set attributeName="fill" to="#808080" begin="arrowRight.mouseover" end="arrowRight.mouseout"/>
                  </use>
                  <path fill="none" stroke="white" stroke-width="1.5" d="M0,-3.0v7 M-2.5,-0.5L0,-3.0L2.5,-0.5"/>
                </g>
                <g id="arrowDown" xlink:href="#dirArrow" transform="rotate(180) translate(-30 -48)" onmousedown="handlePan(0,1)">
                  <use xlink:href="#rim" fill="#404040">
                        <set attributeName="fill" to="#808080" begin="arrowDown.mouseover" end="arrowDown.mouseout"/>
                  </use>
                  <path fill="none" stroke="white" stroke-width="1.5" d="M0,-3.0v7 M-2.5,-0.5L0,-3.0L2.5,-0.5"/>
                </g>
                <g id="arrowLeft" xlink:href="#dirArrow" transform="rotate(270) translate(-36 17)" onmousedown="handlePan(-1,0)">
                  <use xlink:href="#rim" fill="#404040">
                        <set attributeName="fill" to="#808080" begin="arrowLeft.mouseover" end="arrowLeft.mouseout"/>
                  </use>
                  <path fill="none" stroke="white" stroke-width="1.5" d="M0,-3.0v7 M-2.5,-0.5L0,-3.0L2.5,-0.5"/>
                </g>
        </g>
        <svg viewBox="0 0 15 15" width="100%" height="30px" preserveAspectRatio="xMaxYMin meet">
         <g id="arrow_out" transform="scale(0.3 0.3)">
          <a xlink:href="classdenoptim_1_1utils_1_1_graph_conversion_tool_abf9ddf4333b1151356a00b686f93604d_cgraph_org.svg" target="_base">
           <rect id="button" ry="5" rx="5" y="6" x="6" height="38" width="38"
                fill="#f2f5e9" fill-opacity="0.5" stroke="#606060" stroke-width="1.0"/>
           <path id="arrow"
             d="M 11.500037,31.436501 C 11.940474,20.09759 22.043105,11.32322 32.158766,21.979434 L 37.068811,17.246167 C 37.068811,17.246167 37.088388,32 37.088388,32 L 22.160133,31.978069 C 22.160133,31.978069 26.997745,27.140456 26.997745,27.140456 C 18.528582,18.264221 13.291696,25.230495 11.500037,31.436501 z"
             style="fill:#404040;"/>
          </a>
         </g>
        </svg>
</svg>
