<?xml version="1.0" encoding="UTF-8" standalone="no"?>
<!DOCTYPE svg PUBLIC "-//W3C//DTD SVG 1.1//EN"
 "http://www.w3.org/Graphics/SVG/1.1/DTD/svg11.dtd">
<!-- Generated by graphviz version 3.0.0 (20220413.0242)
 -->
<!-- Title: denoptim.graph.Fragment Pages: 1 -->
<!--zoomable 725 -->
<svg id="main" version="1.1" xmlns="http://www.w3.org/2000/svg" xmlns:xlink="http://www.w3.org/1999/xlink" xml:space="preserve" onload="init(evt)">
<style type="text/css"><![CDATA[
.edge:hover path { stroke: red; }
.edge:hover polygon { stroke: red; fill: red; }
]]></style>
<script type="text/javascript"><![CDATA[
var edges = document.getElementsByTagName('g');
if (edges && edges.length) {
  for (var i=0;i<edges.length;i++) {
    if (edges[i].id.substr(0,4)=='edge') {
      edges[i].setAttribute('class','edge');
    }
  }
}
]]></script>
        <defs>
                <circle id="rim" cx="0" cy="0" r="7"/>
                <circle id="rim2" cx="0" cy="0" r="3.5"/>
                <g id="zoomPlus">
                        <use xlink:href="#rim" fill="#404040">
                                <set attributeName="fill" to="#808080" begin="zoomplus.mouseover" end="zoomplus.mouseout"/>
                        </use>
                        <path d="M-4,0h8M0,-4v8" fill="none" stroke="white" stroke-width="1.5" pointer-events="none"/>
                </g>
                <g id="zoomMin">
                        <use xlink:href="#rim" fill="#404040">
                                <set attributeName="fill" to="#808080" begin="zoomminus.mouseover" end="zoomminus.mouseout"/>
                        </use>
                        <path d="M-4,0h8" fill="none" stroke="white" stroke-width="1.5" pointer-events="none"/>
                </g>
                <g id="dirArrow">
                        <path fill="none" stroke="white" stroke-width="1.5" d="M0,-3.0v7 M-2.5,-0.5L0,-3.0L2.5,-0.5"/>
                </g>
               <g id="resetDef">
                       <use xlink:href="#rim2" fill="#404040">
                               <set attributeName="fill" to="#808080" begin="reset.mouseover" end="reset.mouseout"/>
                       </use>
               </g>
        </defs>

<script type="text/javascript">
var viewWidth = 1285;
var viewHeight = 725;
var sectionId = 'dynsection-1';
</script>
<script xlink:href="svgpan.js"/>
<svg id="graph" class="graph">
<g id="viewport">
<title>denoptim.graph.Fragment</title>
<polygon fill="white" stroke="transparent" points="-4,4 -4,-720.5 1281,-720.5 1281,4 -4,4"/>
<!-- Node1 -->
<g id="node1" class="node">
<title>Node1</title>
<g id="a_node1"><a xlink:title="Class representing a continuously connected portion of chemical object holding attachment points.">
<polygon fill="#bfbfbf" stroke="black" points="681.5,-512 681.5,-531 807.5,-531 807.5,-512 681.5,-512"/>
<text text-anchor="middle" x="744.5" y="-519" font-family="Helvetica,sans-Serif" font-size="10.00">denoptim.graph.Fragment</text>
</a>
</g>
</g>
<!-- Node2 -->
<g id="node2" class="node">
<title>Node2</title>
<g id="a_node2"><a xlink:href="classdenoptim_1_1graph_1_1_vertex.html" target="_top" xlink:title="A vertex is a data structure that has an identity and holds a list of AttachmentPoints.">
<polygon fill="white" stroke="black" points="354,-473 354,-492 467,-492 467,-473 354,-473"/>
<text text-anchor="middle" x="410.5" y="-480" font-family="Helvetica,sans-Serif" font-size="10.00">denoptim.graph.Vertex</text>
</a>
</g>
</g>
<!-- Node2&#45;&gt;Node1 -->
<g id="edge1" class="edge">
<title>Node2&#45;&gt;Node1</title>
<path fill="none" stroke="midnightblue" d="M477.07,-490.2C536.35,-497.17 623.01,-507.35 681.24,-514.19"/>
<polygon fill="midnightblue" stroke="midnightblue" points="477.41,-486.72 467.07,-489.03 476.59,-493.67 477.41,-486.72"/>
</g>
<!-- Node13 -->
<g id="node13" class="node">
<title>Node13</title>
<g id="a_node13"><a xlink:href="classdenoptim_1_1graph_1_1_template.html" target="_top" xlink:title=" ">
<polygon fill="white" stroke="black" points="682,-50 682,-69 807,-69 807,-50 682,-50"/>
<text text-anchor="middle" x="744.5" y="-57" font-family="Helvetica,sans-Serif" font-size="10.00">denoptim.graph.Template</text>
</a>
</g>
</g>
<!-- Node2&#45;&gt;Node13 -->
<g id="edge16" class="edge">
<title>Node2&#45;&gt;Node13</title>
<path fill="none" stroke="midnightblue" d="M477.47,-475.29C540.16,-467.78 626.42,-455.46 637,-443.5 663.91,-413.09 628.71,-109.44 655,-78.5 661.92,-70.36 671.41,-65.2 681.61,-62.02"/>
<polygon fill="midnightblue" stroke="midnightblue" points="476.76,-471.85 467.24,-476.5 477.58,-478.8 476.76,-471.85"/>
</g>
<!-- Node3 -->
<g id="node3" class="node">
<title>Node3</title>
<g id="a_node3"><a xlink:title=" ">
<polygon fill="white" stroke="black" points="52.5,-669 52.5,-688 111.5,-688 111.5,-669 52.5,-669"/>
<text text-anchor="middle" x="82" y="-676" font-family="Helvetica,sans-Serif" font-size="10.00">Cloneable</text>
</a>
</g>
</g>
<!-- Node3&#45;&gt;Node2 -->
<g id="edge2" class="edge">
<title>Node3&#45;&gt;Node2</title>
<path fill="none" stroke="midnightblue" d="M121.55,-669.54C168.71,-656.53 247.6,-627.82 291,-573.5 311.59,-547.73 285.01,-524.14 309,-501.5 321.01,-490.17 337.56,-484.56 353.76,-482.02"/>
<polygon fill="midnightblue" stroke="midnightblue" points="120.48,-666.2 111.71,-672.15 122.27,-672.96 120.48,-666.2"/>
</g>
<!-- Node4 -->
<g id="node4" class="node">
<title>Node4</title>
<g id="a_node4"><a xlink:href="classdenoptim_1_1graph_1_1_d_graph.html" target="_top" xlink:title="Container for the list of vertices and the edges that connect them.">
<polygon fill="white" stroke="black" points="945,-329 945,-348 1063,-348 1063,-329 945,-329"/>
<text text-anchor="middle" x="1004" y="-336" font-family="Helvetica,sans-Serif" font-size="10.00">denoptim.graph.DGraph</text>
</a>
</g>
</g>
<!-- Node3&#45;&gt;Node4 -->
<g id="edge4" class="edge">
<title>Node3&#45;&gt;Node4</title>
<path fill="none" stroke="midnightblue" d="M121.55,-681.03C236.01,-686.98 581.57,-693.69 834,-579.5 877.36,-559.89 897.26,-559.15 922,-518.5 954.39,-465.29 906.84,-432.23 940,-379.5 949.03,-365.14 965.14,-354.79 978.8,-348.08"/>
<polygon fill="midnightblue" stroke="midnightblue" points="121.7,-677.53 111.52,-680.48 121.31,-684.52 121.7,-677.53"/>
</g>
<!-- Node10 -->
<g id="node10" class="node">
<title>Node10</title>
<g id="a_node10"><a xlink:href="classdenoptim_1_1graph_1_1_candidate.html" target="_top" xlink:title="A candidate is the combination of a denoptim graph with molecular representation and may include also...">
<polygon fill="white" stroke="black" points="1149,-389 1149,-408 1277,-408 1277,-389 1149,-389"/>
<text text-anchor="middle" x="1213" y="-396" font-family="Helvetica,sans-Serif" font-size="10.00">denoptim.graph.Candidate</text>
</a>
</g>
</g>
<!-- Node3&#45;&gt;Node10 -->
<g id="edge12" class="edge">
<title>Node3&#45;&gt;Node10</title>
<path fill="none" stroke="midnightblue" d="M121.87,-686.42C140.07,-689.91 162.08,-693.82 182,-696.5 282.59,-710.04 308,-716.5 409.5,-716.5 409.5,-716.5 409.5,-716.5 1005,-716.5 1156.18,-716.5 1202.66,-460.93 1210.66,-408.02"/>
<polygon fill="midnightblue" stroke="midnightblue" points="122.4,-682.96 111.91,-684.48 121.06,-689.83 122.4,-682.96"/>
</g>
<!-- Node4&#45;&gt;Node2 -->
<g id="edge3" class="edge">
<title>Node4&#45;&gt;Node2</title>
<path fill="none" stroke="#9a32cd" stroke-dasharray="5,2" d="M971.39,-352.83C959.97,-359.45 947.95,-368.35 940,-379.5 920.85,-406.36 947.37,-430.42 922,-451.5 887.68,-480.01 592.55,-482.86 467.31,-482.77"/>
<polygon fill="#9a32cd" stroke="#9a32cd" points="973.18,-355.84 980.32,-348.01 969.86,-349.68 973.18,-355.84"/>
<text text-anchor="middle" x="744.5" y="-483.5" font-family="Helvetica,sans-Serif" font-size="10.00"> owner</text>
</g>
<!-- Node4&#45;&gt;Node10 -->
<g id="edge13" class="edge">
<title>Node4&#45;&gt;Node10</title>
<path fill="none" stroke="#9a32cd" stroke-dasharray="5,2" d="M1047.79,-350.9C1086.75,-362.2 1143.46,-378.63 1179.01,-388.94"/>
<polygon fill="#9a32cd" stroke="#9a32cd" points="1048.38,-347.43 1037.8,-348.01 1046.43,-354.15 1048.38,-347.43"/>
<text text-anchor="middle" x="1108.5" y="-377.5" font-family="Helvetica,sans-Serif" font-size="10.00"> graph</text>
</g>
<!-- Node4&#45;&gt;Node13 -->
<g id="edge17" class="edge">
<title>Node4&#45;&gt;Node13</title>
<path fill="none" stroke="#9a32cd" stroke-dasharray="5,2" d="M1003.79,-318.85C1004.61,-268.68 999.08,-135.4 922,-73.5 885.81,-44.44 830.91,-44.79 791.96,-49.97"/>
<polygon fill="#9a32cd" stroke="#9a32cd" points="1000.28,-318.9 1003.51,-328.99 1007.28,-319.09 1000.28,-318.9"/>
<text text-anchor="middle" x="887" y="-76.5" font-family="Helvetica,sans-Serif" font-size="10.00"> innerGraph</text>
</g>
<!-- Node5 -->
<g id="node5" class="node">
<title>Node5</title>
<g id="a_node5"><a xlink:title=" ">
<polygon fill="white" stroke="black" points="678.5,-377.5 678.5,-407.5 810.5,-407.5 810.5,-377.5 678.5,-377.5"/>
<text text-anchor="start" x="686.5" y="-395.5" font-family="Helvetica,sans-Serif" font-size="10.00">ArrayList&lt; denoptim.graph.</text>
<text text-anchor="middle" x="744.5" y="-384.5" font-family="Helvetica,sans-Serif" font-size="10.00">Vertex &gt;</text>
</a>
</g>
</g>
<!-- Node5&#45;&gt;Node4 -->
<g id="edge5" class="edge">
<title>Node5&#45;&gt;Node4</title>
<path fill="none" stroke="#9a32cd" stroke-dasharray="5,2" d="M820.51,-377.5C851.9,-371.15 888.74,-363.59 922,-356.5 934.54,-353.83 948.15,-350.84 960.57,-348.07"/>
<polygon fill="#9a32cd" stroke="#9a32cd" points="819.63,-374.11 810.52,-379.52 821.02,-380.97 819.63,-374.11"/>
<text text-anchor="middle" x="887" y="-374.5" font-family="Helvetica,sans-Serif" font-size="10.00"> gVertices</text>
</g>
<!-- Node6 -->
<g id="node6" class="node">
<title>Node6</title>
<g id="a_node6"><a xlink:title=" ">
<polygon fill="white" stroke="black" points="678.5,-328.5 678.5,-358.5 810.5,-358.5 810.5,-328.5 678.5,-328.5"/>
<text text-anchor="start" x="686.5" y="-346.5" font-family="Helvetica,sans-Serif" font-size="10.00">ArrayList&lt; denoptim.graph.</text>
<text text-anchor="middle" x="744.5" y="-335.5" font-family="Helvetica,sans-Serif" font-size="10.00">Edge &gt;</text>
</a>
</g>
</g>
<!-- Node6&#45;&gt;Node4 -->
<g id="edge6" class="edge">
<title>Node6&#45;&gt;Node4</title>
<path fill="none" stroke="#9a32cd" stroke-dasharray="5,2" d="M820.94,-342.04C860.47,-341.27 908.14,-340.34 944.79,-339.63"/>
<polygon fill="#9a32cd" stroke="#9a32cd" points="820.74,-338.54 810.81,-342.23 820.88,-345.54 820.74,-338.54"/>
<text text-anchor="middle" x="887" y="-344.5" font-family="Helvetica,sans-Serif" font-size="10.00"> gEdges</text>
</g>
<!-- Node7 -->
<g id="node7" class="node">
<title>Node7</title>
<g id="a_node7"><a xlink:title=" ">
<polygon fill="white" stroke="black" points="678.5,-279.5 678.5,-309.5 810.5,-309.5 810.5,-279.5 678.5,-279.5"/>
<text text-anchor="start" x="686.5" y="-297.5" font-family="Helvetica,sans-Serif" font-size="10.00">ArrayList&lt; denoptim.graph.</text>
<text text-anchor="middle" x="744.5" y="-286.5" font-family="Helvetica,sans-Serif" font-size="10.00">Ring &gt;</text>
</a>
</g>
</g>
<!-- Node7&#45;&gt;Node4 -->
<g id="edge7" class="edge">
<title>Node7&#45;&gt;Node4</title>
<path fill="none" stroke="#9a32cd" stroke-dasharray="5,2" d="M820.9,-307.38C861.37,-314.3 910.38,-322.67 947.36,-328.99"/>
<polygon fill="#9a32cd" stroke="#9a32cd" points="821.26,-303.89 810.81,-305.66 820.08,-310.79 821.26,-303.89"/>
<text text-anchor="middle" x="887" y="-327.5" font-family="Helvetica,sans-Serif" font-size="10.00"> gRings</text>
</g>
<!-- Node8 -->
<g id="node8" class="node">
<title>Node8</title>
<g id="a_node8"><a xlink:title=" ">
<polygon fill="white" stroke="black" points="667,-230.5 667,-260.5 822,-260.5 822,-230.5 667,-230.5"/>
<text text-anchor="start" x="675" y="-248.5" font-family="Helvetica,sans-Serif" font-size="10.00">ArrayList&lt; denoptim.graph.rings.</text>
<text text-anchor="middle" x="744.5" y="-237.5" font-family="Helvetica,sans-Serif" font-size="10.00">ClosableChain &gt;</text>
</a>
</g>
</g>
<!-- Node8&#45;&gt;Node4 -->
<g id="edge8" class="edge">
<title>Node8&#45;&gt;Node4</title>
<path fill="none" stroke="#9a32cd" stroke-dasharray="5,2" d="M814.11,-263.32C847.21,-272.72 887.2,-285.25 922,-299.5 943.95,-308.49 968.39,-320.55 984.63,-328.87"/>
<polygon fill="#9a32cd" stroke="#9a32cd" points="814.64,-259.84 804.07,-260.51 812.75,-266.58 814.64,-259.84"/>
<text text-anchor="middle" x="887" y="-302.5" font-family="Helvetica,sans-Serif" font-size="10.00"> closableChains</text>
</g>
<!-- Node9 -->
<g id="node9" class="node">
<title>Node9</title>
<g id="a_node9"><a xlink:title=" ">
<polygon fill="white" stroke="black" points="344.5,-511.5 344.5,-541.5 476.5,-541.5 476.5,-511.5 344.5,-511.5"/>
<text text-anchor="start" x="352.5" y="-529.5" font-family="Helvetica,sans-Serif" font-size="10.00">ArrayList&lt; denoptim.graph.</text>
<text text-anchor="middle" x="410.5" y="-518.5" font-family="Helvetica,sans-Serif" font-size="10.00">SymmetricSet &gt;</text>
</a>
</g>
</g>
<!-- Node9&#45;&gt;Node1 -->
<g id="edge31" class="edge">
<title>Node9&#45;&gt;Node1</title>
<path fill="none" stroke="#9a32cd" stroke-dasharray="5,2" d="M487.03,-525.36C545.75,-524.48 626.21,-523.27 681.26,-522.44"/>
<polygon fill="#9a32cd" stroke="#9a32cd" points="486.64,-521.87 476.7,-525.52 486.75,-528.87 486.64,-521.87"/>
<text text-anchor="middle" x="583.5" y="-528.5" font-family="Helvetica,sans-Serif" font-size="10.00"> lstSymAPs</text>
</g>
<!-- Node9&#45;&gt;Node4 -->
<g id="edge9" class="edge">
<title>Node9&#45;&gt;Node4</title>
<path fill="none" stroke="#9a32cd" stroke-dasharray="5,2" d="M482.77,-543.6C568.55,-560.88 715.79,-579.9 834,-540.5 880.38,-525.04 896.14,-515.99 922,-474.5 944.73,-438.03 916.07,-415.2 940,-379.5 949.52,-365.3 965.79,-354.9 979.42,-348.12"/>
<polygon fill="#9a32cd" stroke="#9a32cd" points="483.38,-540.16 472.88,-541.56 481.96,-547.01 483.38,-540.16"/>
<text text-anchor="middle" x="744.5" y="-567.5" font-family="Helvetica,sans-Serif" font-size="10.00"> symVertices</text>
</g>
<!-- Node10&#45;&gt;Node4 -->
<g id="edge10" class="edge">
<title>Node10&#45;&gt;Node4</title>
<path fill="none" stroke="#9a32cd" stroke-dasharray="5,2" d="M1195.15,-381.27C1179.92,-367 1156.09,-347.78 1131,-339.5 1109.6,-332.44 1085.03,-330.9 1063.29,-331.58"/>
<polygon fill="#9a32cd" stroke="#9a32cd" points="1193.07,-384.13 1202.68,-388.58 1197.95,-379.1 1193.07,-384.13"/>
<text text-anchor="middle" x="1108.5" y="-342.5" font-family="Helvetica,sans-Serif" font-size="10.00"> candidate</text>
</g>
<!-- Node11 -->
<g id="node11" class="node">
<title>Node11</title>
<g id="a_node11"><a xlink:title=" ">
<polygon fill="white" stroke="black" points="940,-389 940,-408 1068,-408 1068,-389 940,-389"/>
<text text-anchor="middle" x="1004" y="-396" font-family="Helvetica,sans-Serif" font-size="10.00">Comparable&lt; Candidate &gt;</text>
</a>
</g>
</g>
<!-- Node11&#45;&gt;Node10 -->
<g id="edge11" class="edge">
<title>Node11&#45;&gt;Node10</title>
<path fill="none" stroke="midnightblue" d="M1078.29,-398.5C1101.32,-398.5 1126.53,-398.5 1148.8,-398.5"/>
<polygon fill="midnightblue" stroke="midnightblue" points="1078.23,-395 1068.23,-398.5 1078.23,-402 1078.23,-395"/>
</g>
<!-- Node12 -->
<g id="node12" class="node">
<title>Node12</title>
<g id="a_node12"><a xlink:title=" ">
<polygon fill="white" stroke="black" points="368.5,-389 368.5,-408 452.5,-408 452.5,-389 368.5,-389"/>
<text text-anchor="middle" x="410.5" y="-396" font-family="Helvetica,sans-Serif" font-size="10.00">IAtomContainer</text>
</a>
</g>
</g>
<!-- Node12&#45;&gt;Node1 -->
<g id="edge32" class="edge">
<title>Node12&#45;&gt;Node1</title>
<path fill="none" stroke="#9a32cd" stroke-dasharray="5,2" d="M457.95,-410.78C505.02,-424.36 578.97,-448.84 637,-482.5 646.01,-487.73 645.76,-492.69 655,-497.5 666.86,-503.67 680.47,-508.38 693.4,-511.92"/>
<polygon fill="#9a32cd" stroke="#9a32cd" points="458.9,-407.41 448.33,-408.05 456.99,-414.15 458.9,-407.41"/>
<text text-anchor="middle" x="583.5" y="-485.5" font-family="Helvetica,sans-Serif" font-size="10.00"> mol</text>
</g>
<!-- Node12&#45;&gt;Node10 -->
<g id="edge14" class="edge">
<title>Node12&#45;&gt;Node10</title>
<path fill="none" stroke="#9a32cd" stroke-dasharray="5,2" d="M462.89,-403.35C512.13,-407.75 588.56,-413.93 655,-416.5 838.42,-423.59 884.59,-424.77 1068,-417.5 1096.07,-416.39 1103.13,-416.01 1131,-412.5 1140.77,-411.27 1151.16,-409.69 1161.12,-408.03"/>
<polygon fill="#9a32cd" stroke="#9a32cd" points="463.09,-399.86 452.81,-402.44 462.46,-406.83 463.09,-399.86"/>
<text text-anchor="middle" x="887" y="-425.5" font-family="Helvetica,sans-Serif" font-size="10.00"> iac</text>
</g>
<!-- Node12&#45;&gt;Node13 -->
<g id="edge18" class="edge">
<title>Node12&#45;&gt;Node13</title>
<path fill="none" stroke="#9a32cd" stroke-dasharray="5,2" d="M425.74,-380.88C462,-335.81 560.39,-212.36 637,-105.5 645.4,-93.78 643.07,-86.61 655,-78.5 663.06,-73.02 672.4,-69.08 681.94,-66.26"/>
<polygon fill="#9a32cd" stroke="#9a32cd" points="422.89,-378.84 419.34,-388.82 428.34,-383.23 422.89,-378.84"/>
<text text-anchor="middle" x="583.5" y="-246.5" font-family="Helvetica,sans-Serif" font-size="10.00"> mol</text>
</g>
<!-- Node13&#45;&gt;Node4 -->
<g id="edge15" class="edge">
<title>Node13&#45;&gt;Node4</title>
<path fill="none" stroke="#9a32cd" stroke-dasharray="5,2" d="M817.04,-71.93C822.89,-73.82 828.61,-76 834,-78.5 878.83,-99.32 891.85,-107.33 922,-146.5 968.79,-207.28 993.63,-299.06 1000.79,-328.82"/>
<polygon fill="#9a32cd" stroke="#9a32cd" points="817.71,-68.48 807.12,-69 815.72,-75.19 817.71,-68.48"/>
<text text-anchor="middle" x="887" y="-149.5" font-family="Helvetica,sans-Serif" font-size="10.00"> templateJacket</text>
</g>
<!-- Node14 -->
<g id="node14" class="node">
<title>Node14</title>
<g id="a_node14"><a xlink:href="enumdenoptim_1_1graph_1_1_template_1_1_contract_level.html" target="_top" xlink:title="Enum specifying to what extent the template&#39;s inner graph can be changed.">
<polygon fill="white" stroke="black" points="346.5,-93.5 346.5,-123.5 474.5,-123.5 474.5,-93.5 346.5,-93.5"/>
<text text-anchor="start" x="354.5" y="-111.5" font-family="Helvetica,sans-Serif" font-size="10.00">denoptim.graph.Template.</text>
<text text-anchor="middle" x="410.5" y="-100.5" font-family="Helvetica,sans-Serif" font-size="10.00">ContractLevel</text>
</a>
</g>
</g>
<!-- Node14&#45;&gt;Node13 -->
<g id="edge19" class="edge">
<title>Node14&#45;&gt;Node13</title>
<path fill="none" stroke="#9a32cd" stroke-dasharray="5,2" d="M484.75,-97.69C543.88,-88.96 626.13,-76.82 681.91,-68.59"/>
<polygon fill="#9a32cd" stroke="#9a32cd" points="484.11,-94.25 474.73,-99.17 485.13,-101.17 484.11,-94.25"/>
<text text-anchor="middle" x="583.5" y="-93.5" font-family="Helvetica,sans-Serif" font-size="10.00"> contractLevel</text>
</g>
<!-- Node15 -->
<g id="node15" class="node">
<title>Node15</title>
<g id="a_node15"><a xlink:title=" ">
<polygon fill="white" stroke="black" points="330.5,-44.5 330.5,-74.5 490.5,-74.5 490.5,-44.5 330.5,-44.5"/>
<text text-anchor="start" x="338.5" y="-62.5" font-family="Helvetica,sans-Serif" font-size="10.00">List&lt; denoptim.graph.Attachment</text>
<text text-anchor="middle" x="410.5" y="-51.5" font-family="Helvetica,sans-Serif" font-size="10.00">Point &gt;</text>
</a>
</g>
</g>
<!-- Node15&#45;&gt;Node13 -->
<g id="edge20" class="edge">
<title>Node15&#45;&gt;Node13</title>
<path fill="none" stroke="#9a32cd" stroke-dasharray="5,2" d="M500.74,-59.5C558.03,-59.5 630.96,-59.5 681.86,-59.5"/>
<polygon fill="#9a32cd" stroke="#9a32cd" points="500.6,-56 490.6,-59.5 500.6,-63 500.6,-56"/>
<text text-anchor="middle" x="583.5" y="-62.5" font-family="Helvetica,sans-Serif" font-size="10.00"> requiredAPs</text>
</g>
<!-- Node16 -->
<g id="node16" class="node">
<title>Node16</title>
<g id="a_node16"><a xlink:href="classdenoptim_1_1graph_1_1_a_p_tree_map.html" target="_top" xlink:title="Attachment point mapping where keys are sorted by natural ordering, i.e., by AttachmentPoint#compareT...">
<polygon fill="white" stroke="black" points="342,-6 342,-25 479,-25 479,-6 342,-6"/>
<text text-anchor="middle" x="410.5" y="-13" font-family="Helvetica,sans-Serif" font-size="10.00">denoptim.graph.APTreeMap</text>
</a>
</g>
</g>
<!-- Node16&#45;&gt;Node13 -->
<g id="edge21" class="edge">
<title>Node16&#45;&gt;Node13</title>
<path fill="none" stroke="#9a32cd" stroke-dasharray="5,2" d="M489.06,-25.24C532.57,-30.76 587.83,-37.88 637,-44.5 651.53,-46.46 667.16,-48.62 681.85,-50.69"/>
<polygon fill="#9a32cd" stroke="#9a32cd" points="489.48,-21.77 479.12,-23.98 488.6,-28.71 489.48,-21.77"/>
<text text-anchor="middle" x="583.5" y="-47.5" font-family="Helvetica,sans-Serif" font-size="10.00"> innerToOuterAPs</text>
</g>
<!-- Node17 -->
<g id="node17" class="node">
<title>Node17</title>
<g id="a_node17"><a xlink:title=" ">
<polygon fill="white" stroke="black" points="12.5,-0.5 12.5,-30.5 151.5,-30.5 151.5,-0.5 12.5,-0.5"/>
<text text-anchor="start" x="20.5" y="-18.5" font-family="Helvetica,sans-Serif" font-size="10.00">TreeMap&lt; AttachmentPoint,</text>
<text text-anchor="middle" x="82" y="-7.5" font-family="Helvetica,sans-Serif" font-size="10.00"> AttachmentPoint &gt;</text>
</a>
</g>
</g>
<!-- Node17&#45;&gt;Node16 -->
<g id="edge22" class="edge">
<title>Node17&#45;&gt;Node16</title>
<path fill="none" stroke="midnightblue" d="M161.9,-15.5C216.9,-15.5 289.52,-15.5 341.87,-15.5"/>
<polygon fill="midnightblue" stroke="midnightblue" points="161.84,-12 151.84,-15.5 161.84,-19 161.84,-12"/>
</g>
<!-- Node18 -->
<g id="node18" class="node">
<title>Node18</title>
<g id="a_node18"><a xlink:title=" ">
<polygon fill="white" stroke="black" points="656,-159.5 656,-211.5 833,-211.5 833,-159.5 656,-159.5"/>
<text text-anchor="start" x="664" y="-199.5" font-family="Helvetica,sans-Serif" font-size="10.00">DefaultUndirectedGraph</text>
<text text-anchor="start" x="664" y="-188.5" font-family="Helvetica,sans-Serif" font-size="10.00">&lt; denoptim.graph.Vertex,</text>
<text text-anchor="start" x="664" y="-177.5" font-family="Helvetica,sans-Serif" font-size="10.00"> denoptim.graph.simplified.Undirected</text>
<text text-anchor="middle" x="744.5" y="-166.5" font-family="Helvetica,sans-Serif" font-size="10.00">Edge &gt;</text>
</a>
</g>
</g>
<!-- Node18&#45;&gt;Node4 -->
<g id="edge23" class="edge">
<title>Node18&#45;&gt;Node4</title>
<path fill="none" stroke="#9a32cd" stroke-dasharray="5,2" d="M833.01,-215.45C862.55,-227.53 894.88,-243.02 922,-261.5 951.83,-281.82 981.07,-313.26 994.83,-328.93"/>
<polygon fill="#9a32cd" stroke="#9a32cd" points="834.11,-212.12 823.53,-211.65 831.51,-218.62 834.11,-212.12"/>
<text text-anchor="middle" x="887" y="-264.5" font-family="Helvetica,sans-Serif" font-size="10.00"> jGraph</text>
</g>
<!-- Node19 -->
<g id="node19" class="node">
<title>Node19</title>
<g id="a_node19"><a xlink:title=" ">
<polygon fill="white" stroke="black" points="655,-88.5 655,-140.5 834,-140.5 834,-88.5 655,-88.5"/>
<text text-anchor="start" x="663" y="-128.5" font-family="Helvetica,sans-Serif" font-size="10.00">DefaultUndirectedGraph</text>
<text text-anchor="start" x="663" y="-117.5" font-family="Helvetica,sans-Serif" font-size="10.00">&lt; denoptim.graph.simplified.</text>
<text text-anchor="start" x="663" y="-106.5" font-family="Helvetica,sans-Serif" font-size="10.00">Node, denoptim.graph.simplified.Node</text>
<text text-anchor="middle" x="744.5" y="-95.5" font-family="Helvetica,sans-Serif" font-size="10.00">Connection &gt;</text>
</a>
</g>
</g>
<!-- Node19&#45;&gt;Node4 -->
<g id="edge24" class="edge">
<title>Node19&#45;&gt;Node4</title>
<path fill="none" stroke="#9a32cd" stroke-dasharray="5,2" d="M825.8,-144.8C858.73,-160.28 895.3,-181.78 922,-209.5 959.05,-247.98 988.06,-306.05 998.65,-328.84"/>
<polygon fill="#9a32cd" stroke="#9a32cd" points="827.16,-141.57 816.62,-140.59 824.25,-147.94 827.16,-141.57"/>
<text text-anchor="middle" x="887" y="-212.5" font-family="Helvetica,sans-Serif" font-size="10.00"> jGraphKernel</text>
</g>
<!-- Node20 -->
<g id="node20" class="node">
<title>Node20</title>
<g id="a_node20"><a xlink:href="enumdenoptim_1_1graph_1_1_vertex_1_1_b_b_type.html" target="_top" xlink:title="The type of building block.">
<polygon fill="white" stroke="black" points="7.5,-511 7.5,-530 156.5,-530 156.5,-511 7.5,-511"/>
<text text-anchor="middle" x="82" y="-518" font-family="Helvetica,sans-Serif" font-size="10.00">denoptim.graph.Vertex.BBType</text>
</a>
</g>
</g>
<!-- Node20&#45;&gt;Node2 -->
<g id="edge25" class="edge">
<title>Node20&#45;&gt;Node2</title>
<path fill="none" stroke="#9a32cd" stroke-dasharray="5,2" d="M166.66,-511.55C204.63,-507.41 250.1,-502.35 291,-497.5 311.49,-495.07 333.95,-492.26 353.76,-489.74"/>
<polygon fill="#9a32cd" stroke="#9a32cd" points="166.24,-508.08 156.67,-512.64 166.99,-515.04 166.24,-508.08"/>
<text text-anchor="middle" x="236.5" y="-513.5" font-family="Helvetica,sans-Serif" font-size="10.00"> buildingBlockType</text>
</g>
<!-- Node21 -->
<g id="node21" class="node">
<title>Node21</title>
<g id="a_node21"><a xlink:title=" ">
<polygon fill="white" stroke="black" points="25,-473 25,-492 139,-492 139,-473 25,-473"/>
<text text-anchor="middle" x="82" y="-480" font-family="Helvetica,sans-Serif" font-size="10.00">Map&lt; Object, Object &gt;</text>
</a>
</g>
</g>
<!-- Node21&#45;&gt;Node2 -->
<g id="edge26" class="edge">
<title>Node21&#45;&gt;Node2</title>
<path fill="none" stroke="#9a32cd" stroke-dasharray="5,2" d="M149.28,-482.5C209.46,-482.5 297.21,-482.5 353.83,-482.5"/>
<polygon fill="#9a32cd" stroke="#9a32cd" points="149.13,-479 139.13,-482.5 149.13,-486 149.13,-479"/>
<text text-anchor="middle" x="236.5" y="-485.5" font-family="Helvetica,sans-Serif" font-size="10.00"> properties</text>
</g>
<!-- Node22 -->
<g id="node22" class="node">
<title>Node22</title>
<g id="a_node22"><a xlink:title=" ">
<polygon fill="white" stroke="black" points="45,-435 45,-454 119,-454 119,-435 45,-435"/>
<text text-anchor="middle" x="82" y="-442" font-family="Helvetica,sans-Serif" font-size="10.00">Set&lt; String &gt;</text>
</a>
</g>
</g>
<!-- Node22&#45;&gt;Node2 -->
<g id="edge27" class="edge">
<title>Node22&#45;&gt;Node2</title>
<path fill="none" stroke="#9a32cd" stroke-dasharray="5,2" d="M129.06,-449.38C171.22,-453.9 235.34,-460.9 291,-467.5 311.49,-469.93 333.95,-472.74 353.76,-475.26"/>
<polygon fill="#9a32cd" stroke="#9a32cd" points="129.41,-445.9 119.09,-448.32 128.66,-452.86 129.41,-445.9"/>
<text text-anchor="middle" x="236.5" y="-470.5" font-family="Helvetica,sans-Serif" font-size="10.00"> uniquefyingPropertyKeys</text>
</g>
<!-- Node23 -->
<g id="node23" class="node">
<title>Node23</title>
<g id="a_node23"><a xlink:title=" ">
<polygon fill="white" stroke="black" points="11.5,-385.5 11.5,-415.5 152.5,-415.5 152.5,-385.5 11.5,-385.5"/>
<text text-anchor="start" x="19.5" y="-403.5" font-family="Helvetica,sans-Serif" font-size="10.00">List&lt; denoptim.utils.Mutation</text>
<text text-anchor="middle" x="82" y="-392.5" font-family="Helvetica,sans-Serif" font-size="10.00">Type &gt;</text>
</a>
</g>
</g>
<!-- Node23&#45;&gt;Node2 -->
<g id="edge28" class="edge">
<title>Node23&#45;&gt;Node2</title>
<path fill="none" stroke="#9a32cd" stroke-dasharray="5,2" d="M163.15,-413.01C202.06,-419.81 249.3,-429.17 291,-440.5 324.49,-449.6 362.09,-463.6 385.78,-472.9"/>
<polygon fill="#9a32cd" stroke="#9a32cd" points="163.38,-409.5 152.93,-411.24 162.19,-416.39 163.38,-409.5"/>
<text text-anchor="middle" x="236.5" y="-443.5" font-family="Helvetica,sans-Serif" font-size="10.00"> allowedMutationTypes</text>
</g>
<!-- Node24 -->
<g id="node24" class="node">
<title>Node24</title>
<g id="a_node24"><a xlink:href="enumdenoptim_1_1graph_1_1_vertex_1_1_vertex_type.html" target="_top" xlink:title="Flag declaring the type of Vertex implementation.">
<polygon fill="white" stroke="black" points="0,-549 0,-568 164,-568 164,-549 0,-549"/>
<text text-anchor="middle" x="82" y="-556" font-family="Helvetica,sans-Serif" font-size="10.00">denoptim.graph.Vertex.VertexType</text>
</a>
</g>
</g>
<!-- Node24&#45;&gt;Node2 -->
<g id="edge29" class="edge">
<title>Node24&#45;&gt;Node2</title>
<path fill="none" stroke="#9a32cd" stroke-dasharray="5,2" d="M174.3,-558.88C212.64,-555.41 256.29,-546.42 291,-525.5 302.42,-518.62 297.68,-508.55 309,-501.5 322.34,-493.19 338.47,-488.36 353.86,-485.59"/>
<polygon fill="#9a32cd" stroke="#9a32cd" points="173.85,-555.4 164.16,-559.68 174.41,-562.38 173.85,-555.4"/>
<text text-anchor="middle" x="236.5" y="-561.5" font-family="Helvetica,sans-Serif" font-size="10.00"> vertexType</text>
</g>
<!-- Node25 -->
<g id="node25" class="node">
<title>Node25</title>
<g id="a_node25"><a xlink:title=" ">
<polygon fill="white" stroke="black" points="344.5,-619.5 344.5,-649.5 476.5,-649.5 476.5,-619.5 344.5,-619.5"/>
<text text-anchor="start" x="352.5" y="-637.5" font-family="Helvetica,sans-Serif" font-size="10.00">ArrayList&lt; denoptim.graph.</text>
<text text-anchor="middle" x="410.5" y="-626.5" font-family="Helvetica,sans-Serif" font-size="10.00">AttachmentPoint &gt;</text>
</a>
</g>
</g>
<!-- Node25&#45;&gt;Node1 -->
<g id="edge30" class="edge">
<title>Node25&#45;&gt;Node1</title>
<path fill="none" stroke="#9a32cd" stroke-dasharray="5,2" d="M486.26,-617.05C494.95,-614.9 503.68,-612.69 512,-610.5 567.91,-595.78 590.9,-609.39 637,-574.5 649.1,-565.35 642.83,-554.56 655,-545.5 663.55,-539.13 673.69,-534.45 684,-531.01"/>
<polygon fill="#9a32cd" stroke="#9a32cd" points="485.36,-613.67 476.48,-619.44 487.03,-620.46 485.36,-613.67"/>
<text text-anchor="middle" x="583.5" y="-609.5" font-family="Helvetica,sans-Serif" font-size="10.00"> lstAPs</text>
</g>
<!-- Node26 -->
<g id="node26" class="node">
<title>Node26</title>
<g id="a_node26"><a xlink:title=" ">
<polygon fill="white" stroke="black" points="309,-560 309,-601 512,-601 512,-560 309,-560"/>
<text text-anchor="start" x="317" y="-589" font-family="Helvetica,sans-Serif" font-size="10.00">DefaultUndirectedGraph</text>
<text text-anchor="start" x="317" y="-578" font-family="Helvetica,sans-Serif" font-size="10.00">&lt; denoptim.graph.FragIsomorph</text>
<text text-anchor="middle" x="410.5" y="-567" font-family="Helvetica,sans-Serif" font-size="10.00">Node, denoptim.graph.FragIsomorphEdge &gt;</text>
</a>
</g>
</g>
<!-- Node26&#45;&gt;Node1 -->
<g id="edge33" class="edge">
<title>Node26&#45;&gt;Node1</title>
<path fill="none" stroke="#9a32cd" stroke-dasharray="5,2" d="M522.43,-560.85C558.92,-554.37 599.7,-547.14 637,-540.5 654.29,-537.42 673.16,-534.06 690.14,-531.03"/>
<polygon fill="#9a32cd" stroke="#9a32cd" points="521.49,-557.46 512.25,-562.65 522.71,-564.35 521.49,-557.46"/>
<text text-anchor="middle" x="583.5" y="-562.5" font-family="Helvetica,sans-Serif" font-size="10.00"> jGraphFragIsomorphism</text>
</g>
</g>
</svg>
        <g id="navigator" transform="translate(0 0)" fill="#404254">
                <rect fill="#f2f5e9" fill-opacity="0.5" stroke="#606060" stroke-width=".5" x="0" y="0" width="60" height="60"/>
                <use id="zoomplus" xlink:href="#zoomPlus" x="17" y="9" onmousedown="handleZoom(evt,'in')"/>
                <use id="zoomminus" xlink:href="#zoomMin" x="42" y="9" onmousedown="handleZoom(evt,'out')"/>
                <use id="reset" xlink:href="#resetDef" x="30" y="36" onmousedown="handleReset()"/>
                <g id="arrowUp" xlink:href="#dirArrow" transform="translate(30 24)" onmousedown="handlePan(0,-1)">
                  <use xlink:href="#rim" fill="#404040">
                        <set attributeName="fill" to="#808080" begin="arrowUp.mouseover" end="arrowUp.mouseout"/>
                  </use>
                  <path fill="none" stroke="white" stroke-width="1.5" d="M0,-3.0v7 M-2.5,-0.5L0,-3.0L2.5,-0.5"/>
                </g>
                <g id="arrowRight" xlink:href="#dirArrow" transform="rotate(90) translate(36 -43)" onmousedown="handlePan(1,0)">
                  <use xlink:href="#rim" fill="#404040">
                        <set attributeName="fill" to="#808080" begin="arrowRight.mouseover" end="arrowRight.mouseout"/>
                  </use>
                  <path fill="none" stroke="white" stroke-width="1.5" d="M0,-3.0v7 M-2.5,-0.5L0,-3.0L2.5,-0.5"/>
                </g>
                <g id="arrowDown" xlink:href="#dirArrow" transform="rotate(180) translate(-30 -48)" onmousedown="handlePan(0,1)">
                  <use xlink:href="#rim" fill="#404040">
                        <set attributeName="fill" to="#808080" begin="arrowDown.mouseover" end="arrowDown.mouseout"/>
                  </use>
                  <path fill="none" stroke="white" stroke-width="1.5" d="M0,-3.0v7 M-2.5,-0.5L0,-3.0L2.5,-0.5"/>
                </g>
                <g id="arrowLeft" xlink:href="#dirArrow" transform="rotate(270) translate(-36 17)" onmousedown="handlePan(-1,0)">
                  <use xlink:href="#rim" fill="#404040">
                        <set attributeName="fill" to="#808080" begin="arrowLeft.mouseover" end="arrowLeft.mouseout"/>
                  </use>
                  <path fill="none" stroke="white" stroke-width="1.5" d="M0,-3.0v7 M-2.5,-0.5L0,-3.0L2.5,-0.5"/>
                </g>
        </g>
        <svg viewBox="0 0 15 15" width="100%" height="30px" preserveAspectRatio="xMaxYMin meet">
         <g id="arrow_out" transform="scale(0.3 0.3)">
          <a xlink:href="classdenoptim_1_1graph_1_1_fragment__coll__graph_org.svg" target="_base">
           <rect id="button" ry="5" rx="5" y="6" x="6" height="38" width="38"
                fill="#f2f5e9" fill-opacity="0.5" stroke="#606060" stroke-width="1.0"/>
           <path id="arrow"
             d="M 11.500037,31.436501 C 11.940474,20.09759 22.043105,11.32322 32.158766,21.979434 L 37.068811,17.246167 C 37.068811,17.246167 37.088388,32 37.088388,32 L 22.160133,31.978069 C 22.160133,31.978069 26.997745,27.140456 26.997745,27.140456 C 18.528582,18.264221 13.291696,25.230495 11.500037,31.436501 z"
             style="fill:#404040;"/>
          </a>
         </g>
        </svg>
</svg>
