<?xml version="1.0" encoding="UTF-8" standalone="no"?>
<!DOCTYPE svg PUBLIC "-//W3C//DTD SVG 1.1//EN"
 "http://www.w3.org/Graphics/SVG/1.1/DTD/svg11.dtd">
<!-- Generated by graphviz version 3.0.0 (20220413.0242)
 -->
<!-- Title: denoptim.graph.Fragment.removeAP Pages: 1 -->
<!--zoomable 292 -->
<svg id="main" version="1.1" xmlns="http://www.w3.org/2000/svg" xmlns:xlink="http://www.w3.org/1999/xlink" xml:space="preserve" onload="init(evt)">
<style type="text/css"><![CDATA[
.edge:hover path { stroke: red; }
.edge:hover polygon { stroke: red; fill: red; }
]]></style>
<script type="text/javascript"><![CDATA[
var edges = document.getElementsByTagName('g');
if (edges && edges.length) {
  for (var i=0;i<edges.length;i++) {
    if (edges[i].id.substr(0,4)=='edge') {
      edges[i].setAttribute('class','edge');
    }
  }
}
]]></script>
        <defs>
                <circle id="rim" cx="0" cy="0" r="7"/>
                <circle id="rim2" cx="0" cy="0" r="3.5"/>
                <g id="zoomPlus">
                        <use xlink:href="#rim" fill="#404040">
                                <set attributeName="fill" to="#808080" begin="zoomplus.mouseover" end="zoomplus.mouseout"/>
                        </use>
                        <path d="M-4,0h8M0,-4v8" fill="none" stroke="white" stroke-width="1.5" pointer-events="none"/>
                </g>
                <g id="zoomMin">
                        <use xlink:href="#rim" fill="#404040">
                                <set attributeName="fill" to="#808080" begin="zoomminus.mouseover" end="zoomminus.mouseout"/>
                        </use>
                        <path d="M-4,0h8" fill="none" stroke="white" stroke-width="1.5" pointer-events="none"/>
                </g>
                <g id="dirArrow">
                        <path fill="none" stroke="white" stroke-width="1.5" d="M0,-3.0v7 M-2.5,-0.5L0,-3.0L2.5,-0.5"/>
                </g>
               <g id="resetDef">
                       <use xlink:href="#rim2" fill="#404040">
                               <set attributeName="fill" to="#808080" begin="reset.mouseover" end="reset.mouseout"/>
                       </use>
               </g>
        </defs>

<script type="text/javascript">
var viewWidth = 781;
var viewHeight = 292;
var sectionId = 'dynsection-54';
</script>
<script xlink:href="svgpan.js"/>
<svg id="graph" class="graph">
<g id="viewport">
<title>denoptim.graph.Fragment.removeAP</title>
<polygon fill="white" stroke="transparent" points="-4,4 -4,-288 777,-288 777,4 -4,4"/>
<!-- Node1 -->
<g id="node1" class="node">
<title>Node1</title>
<g id="a_node1"><a xlink:title=" ">
<polygon fill="#bfbfbf" stroke="black" points="0,-148 0,-167 174,-167 174,-148 0,-148"/>
<text text-anchor="middle" x="87" y="-155" font-family="Helvetica,sans-Serif" font-size="10.00">denoptim.graph.Fragment.removeAP</text>
</a>
</g>
</g>
<!-- Node2 -->
<g id="node2" class="node">
<title>Node2</title>
<g id="a_node2"><a xlink:href="classdenoptim_1_1graph_1_1_fragment.html#a18eeaacf99e3c1cbaeef4f7ad651cc48" target="_top" xlink:title="Returns the number of APs currently defined on a specific atom source.">
<polygon fill="white" stroke="black" points="218,-235.5 218,-265.5 360,-265.5 360,-235.5 218,-235.5"/>
<text text-anchor="start" x="226" y="-253.5" font-family="Helvetica,sans-Serif" font-size="10.00">denoptim.graph.Fragment.get</text>
<text text-anchor="middle" x="289" y="-242.5" font-family="Helvetica,sans-Serif" font-size="10.00">APCountOnAtom</text>
</a>
</g>
</g>
<!-- Node1&#45;&gt;Node2 -->
<g id="edge1" class="edge">
<title>Node1&#45;&gt;Node2</title>
<path fill="none" stroke="midnightblue" d="M102.49,-167.07C124.82,-181.5 169.32,-208.98 210,-226.5 214.6,-228.48 219.42,-230.37 224.3,-232.16"/>
<polygon fill="midnightblue" stroke="midnightblue" points="223.15,-235.46 233.74,-235.47 225.46,-228.86 223.15,-235.46"/>
</g>
<!-- Node3 -->
<g id="node3" class="node">
<title>Node3</title>
<g id="a_node3"><a xlink:href="classdenoptim_1_1graph_1_1_fragment.html#a551361a1155600e6e2fe4e37590c924f" target="_top" xlink:title=" ">
<polygon fill="white" stroke="black" points="218,-186.5 218,-216.5 360,-216.5 360,-186.5 218,-186.5"/>
<text text-anchor="start" x="226" y="-204.5" font-family="Helvetica,sans-Serif" font-size="10.00">denoptim.graph.Fragment.get</text>
<text text-anchor="middle" x="289" y="-193.5" font-family="Helvetica,sans-Serif" font-size="10.00">APsFromAtom</text>
</a>
</g>
</g>
<!-- Node1&#45;&gt;Node3 -->
<g id="edge3" class="edge">
<title>Node1&#45;&gt;Node3</title>
<path fill="none" stroke="midnightblue" d="M131.4,-167.05C154.22,-172.07 182.9,-178.38 209.46,-184.22"/>
<polygon fill="midnightblue" stroke="midnightblue" points="209,-187.7 219.52,-186.43 210.51,-180.87 209,-187.7"/>
</g>
<!-- Node4 -->
<g id="node4" class="node">
<title>Node4</title>
<g id="a_node4"><a xlink:href="classdenoptim_1_1graph_1_1_attachment_point.html#a7e45846280a63bd2bf36b85e502ffa49" target="_top" xlink:title="The index of the source atom in the atom list of the fragment.">
<polygon fill="white" stroke="black" points="612,-142.5 612,-172.5 760,-172.5 760,-142.5 612,-142.5"/>
<text text-anchor="start" x="620" y="-160.5" font-family="Helvetica,sans-Serif" font-size="10.00">denoptim.graph.Attachment</text>
<text text-anchor="middle" x="686" y="-149.5" font-family="Helvetica,sans-Serif" font-size="10.00">Point.getAtomPositionNumber</text>
</a>
</g>
</g>
<!-- Node1&#45;&gt;Node4 -->
<g id="edge4" class="edge">
<title>Node1&#45;&gt;Node4</title>
<path fill="none" stroke="midnightblue" d="M174.17,-157.5C288.31,-157.5 488.31,-157.5 601.23,-157.5"/>
<polygon fill="midnightblue" stroke="midnightblue" points="601.55,-161 611.55,-157.5 601.55,-154 601.55,-161"/>
</g>
<!-- Node5 -->
<g id="node5" class="node">
<title>Node5</title>
<g id="a_node5"><a xlink:href="classdenoptim_1_1graph_1_1_fragment.html#a9f0d8233f6ed31316409d643b5e0f0cd" target="_top" xlink:title=" ">
<polygon fill="white" stroke="black" points="412.5,-98.5 412.5,-128.5 554.5,-128.5 554.5,-98.5 412.5,-98.5"/>
<text text-anchor="start" x="420.5" y="-116.5" font-family="Helvetica,sans-Serif" font-size="10.00">denoptim.graph.Fragment.get</text>
<text text-anchor="middle" x="483.5" y="-105.5" font-family="Helvetica,sans-Serif" font-size="10.00">AttachmentPoints</text>
</a>
</g>
</g>
<!-- Node1&#45;&gt;Node5 -->
<g id="edge5" class="edge">
<title>Node1&#45;&gt;Node5</title>
<path fill="none" stroke="midnightblue" d="M170.35,-148C183.61,-146.48 197.18,-144.94 210,-143.5 274.65,-136.23 347.95,-128.17 402.23,-122.24"/>
<polygon fill="midnightblue" stroke="midnightblue" points="402.92,-125.68 412.48,-121.12 402.16,-118.73 402.92,-125.68"/>
</g>
<!-- Node6 -->
<g id="node6" class="node">
<title>Node6</title>
<g id="a_node6"><a xlink:href="classdenoptim_1_1graph_1_1_fragment.html#ab272daa0515a1ee2fb99a2eb6a81a4a0" target="_top" xlink:title="Depends on an healthy list of attachment points with properly set pointers to the source atoms.">
<polygon fill="white" stroke="black" points="210,-52.5 210,-82.5 368,-82.5 368,-52.5 210,-52.5"/>
<text text-anchor="start" x="218" y="-70.5" font-family="Helvetica,sans-Serif" font-size="10.00">denoptim.graph.Fragment.update</text>
<text text-anchor="middle" x="289" y="-59.5" font-family="Helvetica,sans-Serif" font-size="10.00">SymmetryRelations</text>
</a>
</g>
</g>
<!-- Node1&#45;&gt;Node6 -->
<g id="edge6" class="edge">
<title>Node1&#45;&gt;Node6</title>
<path fill="none" stroke="midnightblue" d="M109.15,-147.95C133.48,-136.97 174.61,-118.42 210,-102.5 221.32,-97.41 233.56,-91.91 244.92,-86.82"/>
<polygon fill="midnightblue" stroke="midnightblue" points="246.52,-89.93 254.21,-82.65 243.65,-83.55 246.52,-89.93"/>
</g>
<!-- Node2&#45;&gt;Node2 -->
<g id="edge2" class="edge">
<title>Node2&#45;&gt;Node2</title>
<path fill="none" stroke="midnightblue" d="M255.19,-265.66C247.04,-275.06 258.31,-284 289,-284 307.7,-284 319.19,-280.68 323.47,-275.96"/>
<polygon fill="midnightblue" stroke="midnightblue" points="326.94,-275.41 322.81,-265.66 319.96,-275.86 326.94,-275.41"/>
</g>
<!-- Node6&#45;&gt;Node5 -->
<g id="edge7" class="edge">
<title>Node6&#45;&gt;Node5</title>
<path fill="none" stroke="midnightblue" d="M353.03,-82.56C371.16,-86.89 391.07,-91.65 409.73,-96.11"/>
<polygon fill="midnightblue" stroke="midnightblue" points="409.12,-99.56 419.66,-98.48 410.74,-92.75 409.12,-99.56"/>
</g>
<!-- Node7 -->
<g id="node7" class="node">
<title>Node7</title>
<g id="a_node7"><a xlink:href="classdenoptim_1_1graph_1_1_fragment.html#a41f439afd1ed84bc64fa895b440f47ce" target="_top" xlink:title=" ">
<polygon fill="white" stroke="black" points="404,-49.5 404,-79.5 563,-79.5 563,-49.5 404,-49.5"/>
<text text-anchor="start" x="412" y="-67.5" font-family="Helvetica,sans-Serif" font-size="10.00">denoptim.graph.Fragment.identify</text>
<text text-anchor="middle" x="483.5" y="-56.5" font-family="Helvetica,sans-Serif" font-size="10.00">SymmetryRelatedAPSets</text>
</a>
</g>
</g>
<!-- Node6&#45;&gt;Node7 -->
<g id="edge8" class="edge">
<title>Node6&#45;&gt;Node7</title>
<path fill="none" stroke="midnightblue" d="M368.02,-66.28C376.48,-66.15 385.14,-66.02 393.72,-65.88"/>
<polygon fill="midnightblue" stroke="midnightblue" points="393.8,-69.38 403.74,-65.73 393.69,-62.38 393.8,-69.38"/>
</g>
<!-- Node11 -->
<g id="node11" class="node">
<title>Node11</title>
<g id="a_node11"><a xlink:href="classdenoptim_1_1graph_1_1_fragment.html#a66decdfeee2f583361c51e00ac598557" target="_top" xlink:title=" ">
<polygon fill="white" stroke="black" points="412.5,-0.5 412.5,-30.5 554.5,-30.5 554.5,-0.5 412.5,-0.5"/>
<text text-anchor="start" x="420.5" y="-18.5" font-family="Helvetica,sans-Serif" font-size="10.00">denoptim.graph.Fragment.set</text>
<text text-anchor="middle" x="483.5" y="-7.5" font-family="Helvetica,sans-Serif" font-size="10.00">SymmetricAPSets</text>
</a>
</g>
</g>
<!-- Node6&#45;&gt;Node11 -->
<g id="edge13" class="edge">
<title>Node6&#45;&gt;Node11</title>
<path fill="none" stroke="midnightblue" d="M345.68,-52.46C368.03,-46.42 393.94,-39.42 417.17,-33.15"/>
<polygon fill="midnightblue" stroke="midnightblue" points="418.2,-36.49 426.95,-30.51 416.38,-29.74 418.2,-36.49"/>
</g>
<!-- Node7&#45;&gt;Node4 -->
<g id="edge12" class="edge">
<title>Node7&#45;&gt;Node4</title>
<path fill="none" stroke="midnightblue" d="M544.51,-79.55C551.01,-82.35 557.32,-85.64 563,-89.5 583.9,-103.7 577.85,-119.68 599,-133.5 601.43,-135.09 603.97,-136.57 606.59,-137.96"/>
<polygon fill="midnightblue" stroke="midnightblue" points="605.2,-141.18 615.73,-142.32 608.21,-134.86 605.2,-141.18"/>
</g>
<!-- Node8 -->
<g id="node8" class="node">
<title>Node8</title>
<g id="a_node8"><a xlink:href="classdenoptim_1_1graph_1_1_fragment.html#a90fc66d07e071376ee45a32ab8a76020" target="_top" xlink:title="Checks if the atoms at the given positions have similar environments i.e.">
<polygon fill="white" stroke="black" points="608.5,-93.5 608.5,-123.5 763.5,-123.5 763.5,-93.5 608.5,-93.5"/>
<text text-anchor="start" x="616.5" y="-111.5" font-family="Helvetica,sans-Serif" font-size="10.00">denoptim.graph.Fragment.atoms</text>
<text text-anchor="middle" x="686" y="-100.5" font-family="Helvetica,sans-Serif" font-size="10.00">AreCompatible</text>
</a>
</g>
</g>
<!-- Node7&#45;&gt;Node8 -->
<g id="edge9" class="edge">
<title>Node7&#45;&gt;Node8</title>
<path fill="none" stroke="midnightblue" d="M552.94,-79.52C570.1,-83.29 588.66,-87.36 606.28,-91.22"/>
<polygon fill="midnightblue" stroke="midnightblue" points="606.01,-94.75 616.53,-93.47 607.51,-87.91 606.01,-94.75"/>
</g>
<!-- Node9 -->
<g id="node9" class="node">
<title>Node9</title>
<g id="a_node9"><a xlink:href="classdenoptim_1_1graph_1_1_a_p_class.html#a5cac5d20b70a0eace014ce062a271fbf" target="_top" xlink:title=" ">
<polygon fill="white" stroke="black" points="599,-55 599,-74 773,-74 773,-55 599,-55"/>
<text text-anchor="middle" x="686" y="-62" font-family="Helvetica,sans-Serif" font-size="10.00">denoptim.graph.APClass.compareTo</text>
</a>
</g>
</g>
<!-- Node7&#45;&gt;Node9 -->
<g id="edge10" class="edge">
<title>Node7&#45;&gt;Node9</title>
<path fill="none" stroke="midnightblue" d="M563.17,-64.5C571.6,-64.5 580.26,-64.5 588.87,-64.5"/>
<polygon fill="midnightblue" stroke="midnightblue" points="588.94,-68 598.94,-64.5 588.94,-61 588.94,-68"/>
</g>
<!-- Node10 -->
<g id="node10" class="node">
<title>Node10</title>
<g id="a_node10"><a xlink:href="classdenoptim_1_1graph_1_1_attachment_point.html#a31bed4cb29f6437bf8a888a1dda3fd95" target="_top" xlink:title="Returns the Attachment Point class.">
<polygon fill="white" stroke="black" points="618.5,-5.5 618.5,-35.5 753.5,-35.5 753.5,-5.5 618.5,-5.5"/>
<text text-anchor="start" x="626.5" y="-23.5" font-family="Helvetica,sans-Serif" font-size="10.00">denoptim.graph.Attachment</text>
<text text-anchor="middle" x="686" y="-12.5" font-family="Helvetica,sans-Serif" font-size="10.00">Point.getAPClass</text>
</a>
</g>
</g>
<!-- Node7&#45;&gt;Node10 -->
<g id="edge11" class="edge">
<title>Node7&#45;&gt;Node10</title>
<path fill="none" stroke="midnightblue" d="M552.94,-49.48C570.74,-45.57 590.04,-41.34 608.24,-37.34"/>
<polygon fill="midnightblue" stroke="midnightblue" points="609.21,-40.72 618.23,-35.15 607.71,-33.88 609.21,-40.72"/>
</g>
</g>
</svg>
        <g id="navigator" transform="translate(0 0)" fill="#404254">
                <rect fill="#f2f5e9" fill-opacity="0.5" stroke="#606060" stroke-width=".5" x="0" y="0" width="60" height="60"/>
                <use id="zoomplus" xlink:href="#zoomPlus" x="17" y="9" onmousedown="handleZoom(evt,'in')"/>
                <use id="zoomminus" xlink:href="#zoomMin" x="42" y="9" onmousedown="handleZoom(evt,'out')"/>
                <use id="reset" xlink:href="#resetDef" x="30" y="36" onmousedown="handleReset()"/>
                <g id="arrowUp" xlink:href="#dirArrow" transform="translate(30 24)" onmousedown="handlePan(0,-1)">
                  <use xlink:href="#rim" fill="#404040">
                        <set attributeName="fill" to="#808080" begin="arrowUp.mouseover" end="arrowUp.mouseout"/>
                  </use>
                  <path fill="none" stroke="white" stroke-width="1.5" d="M0,-3.0v7 M-2.5,-0.5L0,-3.0L2.5,-0.5"/>
                </g>
                <g id="arrowRight" xlink:href="#dirArrow" transform="rotate(90) translate(36 -43)" onmousedown="handlePan(1,0)">
                  <use xlink:href="#rim" fill="#404040">
                        <set attributeName="fill" to="#808080" begin="arrowRight.mouseover" end="arrowRight.mouseout"/>
                  </use>
                  <path fill="none" stroke="white" stroke-width="1.5" d="M0,-3.0v7 M-2.5,-0.5L0,-3.0L2.5,-0.5"/>
                </g>
                <g id="arrowDown" xlink:href="#dirArrow" transform="rotate(180) translate(-30 -48)" onmousedown="handlePan(0,1)">
                  <use xlink:href="#rim" fill="#404040">
                        <set attributeName="fill" to="#808080" begin="arrowDown.mouseover" end="arrowDown.mouseout"/>
                  </use>
                  <path fill="none" stroke="white" stroke-width="1.5" d="M0,-3.0v7 M-2.5,-0.5L0,-3.0L2.5,-0.5"/>
                </g>
                <g id="arrowLeft" xlink:href="#dirArrow" transform="rotate(270) translate(-36 17)" onmousedown="handlePan(-1,0)">
                  <use xlink:href="#rim" fill="#404040">
                        <set attributeName="fill" to="#808080" begin="arrowLeft.mouseover" end="arrowLeft.mouseout"/>
                  </use>
                  <path fill="none" stroke="white" stroke-width="1.5" d="M0,-3.0v7 M-2.5,-0.5L0,-3.0L2.5,-0.5"/>
                </g>
        </g>
        <svg viewBox="0 0 15 15" width="100%" height="30px" preserveAspectRatio="xMaxYMin meet">
         <g id="arrow_out" transform="scale(0.3 0.3)">
          <a xlink:href="classdenoptim_1_1graph_1_1_fragment_ad165ef32248dbac7c3c4a7033bf9d92f_cgraph_org.svg" target="_base">
           <rect id="button" ry="5" rx="5" y="6" x="6" height="38" width="38"
                fill="#f2f5e9" fill-opacity="0.5" stroke="#606060" stroke-width="1.0"/>
           <path id="arrow"
             d="M 11.500037,31.436501 C 11.940474,20.09759 22.043105,11.32322 32.158766,21.979434 L 37.068811,17.246167 C 37.068811,17.246167 37.088388,32 37.088388,32 L 22.160133,31.978069 C 22.160133,31.978069 26.997745,27.140456 26.997745,27.140456 C 18.528582,18.264221 13.291696,25.230495 11.500037,31.436501 z"
             style="fill:#404040;"/>
          </a>
         </g>
        </svg>
</svg>
