<?xml version="1.0" encoding="UTF-8" standalone="no"?>
<!DOCTYPE svg PUBLIC "-//W3C//DTD SVG 1.1//EN"
 "http://www.w3.org/Graphics/SVG/1.1/DTD/svg11.dtd">
<!-- Generated by graphviz version 3.0.0 (20220413.0242)
 -->
<!-- Title: denoptim.ga.GraphOperations.extendGraph Pages: 1 -->
<svg width="1138pt" height="190pt"
 viewBox="0.00 0.00 1138.00 190.00" xmlns="http://www.w3.org/2000/svg" xmlns:xlink="http://www.w3.org/1999/xlink">
<g id="graph0" class="graph" transform="scale(1 1) rotate(0) translate(4 186)">
<title>denoptim.ga.GraphOperations.extendGraph</title>
<polygon fill="white" stroke="transparent" points="-4,4 -4,-186 1134,-186 1134,4 -4,4"/>
<!-- Node1 -->
<g id="node1" class="node">
<title>Node1</title>
<g id="a_node1"><a xlink:title="function that will keep extending the graph according to the growth/substitution probability.">
<polygon fill="#bfbfbf" stroke="black" points="954,-44.5 954,-74.5 1130,-74.5 1130,-44.5 954,-44.5"/>
<text text-anchor="start" x="962" y="-62.5" font-family="Helvetica,sans-Serif" font-size="10.00">denoptim.ga.GraphOperations.extend</text>
<text text-anchor="middle" x="1042" y="-51.5" font-family="Helvetica,sans-Serif" font-size="10.00">Graph</text>
</a>
</g>
</g>
<!-- Node1&#45;&gt;Node1 -->
<g id="edge10" class="edge">
<title>Node1&#45;&gt;Node1</title>
<path fill="none" stroke="midnightblue" d="M1079.67,-84.96C1074.99,-89.68 1062.44,-93 1042,-93 1008.46,-93 996.15,-84.06 1005.05,-74.66"/>
<polygon fill="midnightblue" stroke="midnightblue" points="1083.14,-84.39 1078.95,-74.66 1076.16,-84.88 1083.14,-84.39"/>
</g>
<!-- Node2 -->
<g id="node2" class="node">
<title>Node2</title>
<g id="a_node2"><a xlink:href="classdenoptim_1_1ga_1_1_e_a_utils.html#a87ea0ad600ad26e1a89a4947abcfef86" target="_top" xlink:title="Graph construction starts with selecting a random core/scaffold.">
<polygon fill="white" stroke="black" points="766.5,-88.5 766.5,-118.5 893.5,-118.5 893.5,-88.5 766.5,-88.5"/>
<text text-anchor="start" x="774.5" y="-106.5" font-family="Helvetica,sans-Serif" font-size="10.00">denoptim.ga.EAUtils.build</text>
<text text-anchor="middle" x="830" y="-95.5" font-family="Helvetica,sans-Serif" font-size="10.00">Graph</text>
</a>
</g>
</g>
<!-- Node1&#45;&gt;Node2 -->
<g id="edge1" class="edge">
<title>Node1&#45;&gt;Node2</title>
<path fill="none" stroke="midnightblue" d="M959.39,-76.6C937.53,-81.18 914.24,-86.06 893.59,-90.39"/>
<polygon fill="midnightblue" stroke="midnightblue" points="960.25,-80 969.32,-74.52 958.81,-73.14 960.25,-80"/>
</g>
<!-- Node10 -->
<g id="node10" class="node">
<title>Node10</title>
<g id="a_node10"><a xlink:href="classdenoptim_1_1ga_1_1_graph_operations.html#a0c851972015fbb4b2a317b053b8b81d9" target="_top" xlink:title="Mutates the given vertex according to the given mutation type, if possible.">
<polygon fill="white" stroke="black" points="526,-19.5 526,-49.5 706,-49.5 706,-19.5 526,-19.5"/>
<text text-anchor="start" x="534" y="-37.5" font-family="Helvetica,sans-Serif" font-size="10.00">denoptim.ga.GraphOperations.perform</text>
<text text-anchor="middle" x="616" y="-26.5" font-family="Helvetica,sans-Serif" font-size="10.00">Mutation</text>
</a>
</g>
</g>
<!-- Node1&#45;&gt;Node10 -->
<g id="edge11" class="edge">
<title>Node1&#45;&gt;Node10</title>
<path fill="none" stroke="midnightblue" d="M943.55,-53.75C872.03,-49.54 775.65,-43.85 706.16,-39.76"/>
<polygon fill="midnightblue" stroke="midnightblue" points="943.73,-57.27 953.92,-54.37 944.14,-50.28 943.73,-57.27"/>
</g>
<!-- Node11 -->
<g id="node11" class="node">
<title>Node11</title>
<g id="a_node11"><a xlink:href="classdenoptim_1_1ga_1_1_graph_operations.html#ab02b96b3c6d11bdce0fd3402abc92580" target="_top" xlink:title="Substitutes a vertex and any child branch.">
<polygon fill="white" stroke="black" points="742,-0.5 742,-30.5 918,-30.5 918,-0.5 742,-0.5"/>
<text text-anchor="start" x="750" y="-18.5" font-family="Helvetica,sans-Serif" font-size="10.00">denoptim.ga.GraphOperations.rebuild</text>
<text text-anchor="middle" x="830" y="-7.5" font-family="Helvetica,sans-Serif" font-size="10.00">Branch</text>
</a>
</g>
</g>
<!-- Node1&#45;&gt;Node11 -->
<g id="edge12" class="edge">
<title>Node1&#45;&gt;Node11</title>
<path fill="none" stroke="midnightblue" d="M959.36,-42.39C940.67,-38.48 920.95,-34.35 902.72,-30.53"/>
<polygon fill="midnightblue" stroke="midnightblue" points="958.81,-45.86 969.32,-44.48 960.25,-39 958.81,-45.86"/>
</g>
<!-- Node3 -->
<g id="node3" class="node">
<title>Node3</title>
<g id="a_node3"><a xlink:href="classdenoptim_1_1ga_1_1_e_a_utils.html#ad3d2daeb11e68a356e971ca1846596b5" target="_top" xlink:title=" ">
<polygon fill="white" stroke="black" points="552.5,-127.5 552.5,-157.5 679.5,-157.5 679.5,-127.5 552.5,-127.5"/>
<text text-anchor="start" x="560.5" y="-145.5" font-family="Helvetica,sans-Serif" font-size="10.00">denoptim.ga.EAUtils.build</text>
<text text-anchor="middle" x="616" y="-134.5" font-family="Helvetica,sans-Serif" font-size="10.00">CandidateFromScratch</text>
</a>
</g>
</g>
<!-- Node2&#45;&gt;Node3 -->
<g id="edge2" class="edge">
<title>Node2&#45;&gt;Node3</title>
<path fill="none" stroke="midnightblue" d="M756.13,-116.91C731.23,-121.49 703.61,-126.57 679.59,-130.99"/>
<polygon fill="midnightblue" stroke="midnightblue" points="757.05,-120.29 766.25,-115.04 755.79,-113.41 757.05,-120.29"/>
</g>
<!-- Node9 -->
<g id="node9" class="node">
<title>Node9</title>
<g id="a_node9"><a xlink:href="classdenoptim_1_1ga_1_1_e_a_utils_test.html#ab7a37d3340d35ab586332ce2122e7bb0" target="_top" xlink:title=" ">
<polygon fill="white" stroke="black" points="534.5,-78.5 534.5,-108.5 697.5,-108.5 697.5,-78.5 534.5,-78.5"/>
<text text-anchor="start" x="542.5" y="-96.5" font-family="Helvetica,sans-Serif" font-size="10.00">denoptim.ga.EAUtilsTest.test</text>
<text text-anchor="middle" x="616" y="-85.5" font-family="Helvetica,sans-Serif" font-size="10.00">BuildGraphFromTemplateScaffold</text>
</a>
</g>
</g>
<!-- Node2&#45;&gt;Node9 -->
<g id="edge9" class="edge">
<title>Node2&#45;&gt;Node9</title>
<path fill="none" stroke="midnightblue" d="M756.25,-100.07C737.38,-99.18 716.95,-98.21 697.71,-97.31"/>
<polygon fill="midnightblue" stroke="midnightblue" points="756.1,-103.57 766.25,-100.54 756.43,-96.57 756.1,-103.57"/>
</g>
<!-- Node4 -->
<g id="node4" class="node">
<title>Node4</title>
<g id="a_node4"><a xlink:href="classdenoptim_1_1ga_1_1_evolutionary_algorithm.html#a596b2f5f0b097c5b67a6e5163bd6fe66" target="_top" xlink:title="Generates a given number of new candidate items and adds them to the current population.">
<polygon fill="white" stroke="black" points="353,-151.5 353,-181.5 487,-181.5 487,-151.5 353,-151.5"/>
<text text-anchor="start" x="361" y="-169.5" font-family="Helvetica,sans-Serif" font-size="10.00">denoptim.ga.Evolutionary</text>
<text text-anchor="middle" x="420" y="-158.5" font-family="Helvetica,sans-Serif" font-size="10.00">Algorithm.evolvePopulation</text>
</a>
</g>
</g>
<!-- Node3&#45;&gt;Node4 -->
<g id="edge3" class="edge">
<title>Node3&#45;&gt;Node4</title>
<path fill="none" stroke="midnightblue" d="M542.11,-151.52C524.08,-153.75 504.87,-156.12 487.18,-158.31"/>
<polygon fill="midnightblue" stroke="midnightblue" points="542.79,-154.96 552.28,-150.26 541.93,-148.01 542.79,-154.96"/>
</g>
<!-- Node8 -->
<g id="node8" class="node">
<title>Node8</title>
<g id="a_node8"><a xlink:href="classdenoptim_1_1ga_1_1_evolutionary_algorithm.html#ad43588620dab3340e0d8b0042ec73618" target="_top" xlink:title="Fills up the population with candidates build from scratch.">
<polygon fill="white" stroke="black" points="350,-102.5 350,-132.5 490,-132.5 490,-102.5 350,-102.5"/>
<text text-anchor="start" x="358" y="-120.5" font-family="Helvetica,sans-Serif" font-size="10.00">denoptim.ga.Evolutionary</text>
<text text-anchor="middle" x="420" y="-109.5" font-family="Helvetica,sans-Serif" font-size="10.00">Algorithm.initializePopulation</text>
</a>
</g>
</g>
<!-- Node3&#45;&gt;Node8 -->
<g id="edge7" class="edge">
<title>Node3&#45;&gt;Node8</title>
<path fill="none" stroke="midnightblue" d="M541.89,-133.08C524.95,-130.9 506.98,-128.58 490.22,-126.42"/>
<polygon fill="midnightblue" stroke="midnightblue" points="541.92,-136.61 552.28,-134.42 542.81,-129.67 541.92,-136.61"/>
</g>
<!-- Node5 -->
<g id="node5" class="node">
<title>Node5</title>
<g id="a_node5"><a xlink:href="classdenoptim_1_1ga_1_1_evolutionary_algorithm.html#a6bfc2fa59b199da6259b5b6bad3d6de7" target="_top" xlink:title=" ">
<polygon fill="white" stroke="black" points="190,-126.5 190,-156.5 314,-156.5 314,-126.5 190,-126.5"/>
<text text-anchor="start" x="198" y="-144.5" font-family="Helvetica,sans-Serif" font-size="10.00">denoptim.ga.Evolutionary</text>
<text text-anchor="middle" x="252" y="-133.5" font-family="Helvetica,sans-Serif" font-size="10.00">Algorithm.run</text>
</a>
</g>
</g>
<!-- Node4&#45;&gt;Node5 -->
<g id="edge4" class="edge">
<title>Node4&#45;&gt;Node5</title>
<path fill="none" stroke="midnightblue" d="M342.9,-155.04C333.21,-153.58 323.41,-152.1 314.01,-150.69"/>
<polygon fill="midnightblue" stroke="midnightblue" points="342.51,-158.52 352.92,-156.55 343.55,-151.6 342.51,-158.52"/>
</g>
<!-- Node6 -->
<g id="node6" class="node">
<title>Node6</title>
<g id="a_node6"><a xlink:href="classdenoptim_1_1ga_1_1_evolutionary_algorithm.html#a0f2063b722b7291daf83d62acaa683d3" target="_top" xlink:title=" ">
<polygon fill="white" stroke="black" points="0,-151.5 0,-181.5 154,-181.5 154,-151.5 0,-151.5"/>
<text text-anchor="start" x="8" y="-169.5" font-family="Helvetica,sans-Serif" font-size="10.00">denoptim.ga.Evolutionary</text>
<text text-anchor="middle" x="77" y="-158.5" font-family="Helvetica,sans-Serif" font-size="10.00">Algorithm.EvolutionaryAlgorithm</text>
</a>
</g>
</g>
<!-- Node5&#45;&gt;Node6 -->
<g id="edge5" class="edge">
<title>Node5&#45;&gt;Node6</title>
<path fill="none" stroke="midnightblue" d="M179.44,-151.84C171.09,-153.05 162.54,-154.28 154.12,-155.5"/>
<polygon fill="midnightblue" stroke="midnightblue" points="180.12,-155.28 189.52,-150.38 179.12,-148.35 180.12,-155.28"/>
</g>
<!-- Node7 -->
<g id="node7" class="node">
<title>Node7</title>
<g id="a_node7"><a xlink:href="classdenoptim_1_1programs_1_1denovo_1_1_g_a_runner.html#a7cafd6d78727b89dce3e2c8d06f0dd7c" target="_top" xlink:title=" ">
<polygon fill="white" stroke="black" points="9.5,-102.5 9.5,-132.5 144.5,-132.5 144.5,-102.5 9.5,-102.5"/>
<text text-anchor="start" x="17.5" y="-120.5" font-family="Helvetica,sans-Serif" font-size="10.00">denoptim.programs.denovo.</text>
<text text-anchor="middle" x="77" y="-109.5" font-family="Helvetica,sans-Serif" font-size="10.00">GARunner.runProgram</text>
</a>
</g>
</g>
<!-- Node5&#45;&gt;Node7 -->
<g id="edge6" class="edge">
<title>Node5&#45;&gt;Node7</title>
<path fill="none" stroke="midnightblue" d="M179.48,-131.58C167.92,-129.97 156,-128.32 144.57,-126.73"/>
<polygon fill="midnightblue" stroke="midnightblue" points="179.13,-135.06 189.52,-132.97 180.1,-128.13 179.13,-135.06"/>
</g>
<!-- Node8&#45;&gt;Node5 -->
<g id="edge8" class="edge">
<title>Node8&#45;&gt;Node5</title>
<path fill="none" stroke="midnightblue" d="M339.6,-128.98C331.08,-130.21 322.5,-131.45 314.24,-132.65"/>
<polygon fill="midnightblue" stroke="midnightblue" points="340.17,-132.43 349.56,-127.54 339.16,-125.51 340.17,-132.43"/>
</g>
<!-- Node11&#45;&gt;Node10 -->
<g id="edge13" class="edge">
<title>Node11&#45;&gt;Node10</title>
<path fill="none" stroke="midnightblue" d="M731.87,-24.21C723.32,-24.97 714.69,-25.74 706.21,-26.5"/>
<polygon fill="midnightblue" stroke="midnightblue" points="732.21,-27.69 741.85,-23.31 731.58,-20.72 732.21,-27.69"/>
</g>
</g>
</svg>
