<?xml version="1.0" encoding="UTF-8" standalone="no"?>
<!DOCTYPE svg PUBLIC "-//W3C//DTD SVG 1.1//EN"
 "http://www.w3.org/Graphics/SVG/1.1/DTD/svg11.dtd">
<!-- Generated by graphviz version 3.0.0 (20220413.0242)
 -->
<!-- Title: denoptim.graph.Template.updateMutTypeToFixedSTructure Pages: 1 -->
<!--zoomable 368 -->
<svg id="main" version="1.1" xmlns="http://www.w3.org/2000/svg" xmlns:xlink="http://www.w3.org/1999/xlink" xml:space="preserve" onload="init(evt)">
<style type="text/css"><![CDATA[
.edge:hover path { stroke: red; }
.edge:hover polygon { stroke: red; fill: red; }
]]></style>
<script type="text/javascript"><![CDATA[
var edges = document.getElementsByTagName('g');
if (edges && edges.length) {
  for (var i=0;i<edges.length;i++) {
    if (edges[i].id.substr(0,4)=='edge') {
      edges[i].setAttribute('class','edge');
    }
  }
}
]]></script>
        <defs>
                <circle id="rim" cx="0" cy="0" r="7"/>
                <circle id="rim2" cx="0" cy="0" r="3.5"/>
                <g id="zoomPlus">
                        <use xlink:href="#rim" fill="#404040">
                                <set attributeName="fill" to="#808080" begin="zoomplus.mouseover" end="zoomplus.mouseout"/>
                        </use>
                        <path d="M-4,0h8M0,-4v8" fill="none" stroke="white" stroke-width="1.5" pointer-events="none"/>
                </g>
                <g id="zoomMin">
                        <use xlink:href="#rim" fill="#404040">
                                <set attributeName="fill" to="#808080" begin="zoomminus.mouseover" end="zoomminus.mouseout"/>
                        </use>
                        <path d="M-4,0h8" fill="none" stroke="white" stroke-width="1.5" pointer-events="none"/>
                </g>
                <g id="dirArrow">
                        <path fill="none" stroke="white" stroke-width="1.5" d="M0,-3.0v7 M-2.5,-0.5L0,-3.0L2.5,-0.5"/>
                </g>
               <g id="resetDef">
                       <use xlink:href="#rim2" fill="#404040">
                               <set attributeName="fill" to="#808080" begin="reset.mouseover" end="reset.mouseout"/>
                       </use>
               </g>
        </defs>

<script type="text/javascript">
var viewWidth = 1037;
var viewHeight = 368;
var sectionId = 'dynsection-54';
</script>
<script xlink:href="svgpan.js"/>
<svg id="graph" class="graph">
<g id="viewport">
<title>denoptim.graph.Template.updateMutTypeToFixedSTructure</title>
<polygon fill="white" stroke="transparent" points="-4,4 -4,-363.63 1033,-363.63 1033,4 -4,4"/>
<!-- Node1 -->
<g id="node1" class="node">
<title>Node1</title>
<g id="a_node1"><a xlink:title=" ">
<polygon fill="#bfbfbf" stroke="black" points="872,-202.13 872,-232.13 1029,-232.13 1029,-202.13 872,-202.13"/>
<text text-anchor="start" x="880" y="-220.13" font-family="Helvetica,sans-Serif" font-size="10.00">denoptim.graph.Template.update</text>
<text text-anchor="middle" x="950.5" y="-209.13" font-family="Helvetica,sans-Serif" font-size="10.00">MutTypeToFixedSTructure</text>
</a>
</g>
</g>
<!-- Node2 -->
<g id="node2" class="node">
<title>Node2</title>
<g id="a_node2"><a xlink:href="classdenoptim_1_1graph_1_1_template.html#a12b8da07fd36b5f756ec3c1cdbd3a8e9" target="_top" xlink:title="A list of mutation sites from within this vertex.">
<polygon fill="white" stroke="black" points="695,-278.13 695,-308.13 836,-308.13 836,-278.13 695,-278.13"/>
<text text-anchor="start" x="703" y="-296.13" font-family="Helvetica,sans-Serif" font-size="10.00">denoptim.graph.Template.get</text>
<text text-anchor="middle" x="765.5" y="-285.13" font-family="Helvetica,sans-Serif" font-size="10.00">MutationSites</text>
</a>
</g>
</g>
<!-- Node1&#45;&gt;Node2 -->
<g id="edge1" class="edge">
<title>Node1&#45;&gt;Node2</title>
<path fill="none" stroke="midnightblue" d="M903.99,-236.03C872.79,-248.99 831.94,-265.96 802.89,-278.02"/>
<polygon fill="midnightblue" stroke="midnightblue" points="905.45,-239.22 913.35,-232.15 902.77,-232.75 905.45,-239.22"/>
</g>
<!-- Node4 -->
<g id="node4" class="node">
<title>Node4</title>
<g id="a_node4"><a xlink:href="classdenoptim_1_1graph_1_1_template.html#ab6a7859f36c5e25a8ad218b665a3a20c" target="_top" xlink:title="Imposes the given contract to this template.">
<polygon fill="white" stroke="black" points="695,-178.13 695,-208.13 836,-208.13 836,-178.13 695,-178.13"/>
<text text-anchor="start" x="703" y="-196.13" font-family="Helvetica,sans-Serif" font-size="10.00">denoptim.graph.Template.set</text>
<text text-anchor="middle" x="765.5" y="-185.13" font-family="Helvetica,sans-Serif" font-size="10.00">ContractLevel</text>
</a>
</g>
</g>
<!-- Node1&#45;&gt;Node4 -->
<g id="edge3" class="edge">
<title>Node1&#45;&gt;Node4</title>
<path fill="none" stroke="midnightblue" d="M861.81,-205.63C853.18,-204.5 844.51,-203.36 836.1,-202.26"/>
<polygon fill="midnightblue" stroke="midnightblue" points="861.52,-209.12 871.89,-206.95 862.43,-202.18 861.52,-209.12"/>
</g>
<!-- Node3 -->
<g id="node3" class="node">
<title>Node3</title>
<g id="a_node3"><a xlink:href="classdenoptim_1_1ga_1_1_e_a_utils_test.html#ab7a37d3340d35ab586332ce2122e7bb0" target="_top" xlink:title=" ">
<polygon fill="white" stroke="black" points="483.5,-329.13 483.5,-359.13 646.5,-359.13 646.5,-329.13 483.5,-329.13"/>
<text text-anchor="start" x="491.5" y="-347.13" font-family="Helvetica,sans-Serif" font-size="10.00">denoptim.ga.EAUtilsTest.test</text>
<text text-anchor="middle" x="565" y="-336.13" font-family="Helvetica,sans-Serif" font-size="10.00">BuildGraphFromTemplateScaffold</text>
</a>
</g>
</g>
<!-- Node2&#45;&gt;Node3 -->
<g id="edge2" class="edge">
<title>Node2&#45;&gt;Node3</title>
<path fill="none" stroke="midnightblue" d="M696.18,-310.69C672.82,-316.69 646.91,-323.34 624.41,-329.13"/>
<polygon fill="midnightblue" stroke="midnightblue" points="697.2,-314.04 706.02,-308.16 695.46,-307.26 697.2,-314.04"/>
</g>
<!-- Node5 -->
<g id="node5" class="node">
<title>Node5</title>
<g id="a_node5"><a xlink:href="classdenoptim_1_1ga_1_1_graph_operations_test.html#a0dd5e8c7f80f7e7c7fa2d46e01355a2d" target="_top" xlink:title="Generates a pair of graphs that include templates with free content.">
<polygon fill="white" stroke="black" points="492.5,-241.13 492.5,-271.13 637.5,-271.13 637.5,-241.13 492.5,-241.13"/>
<text text-anchor="start" x="500.5" y="-259.13" font-family="Helvetica,sans-Serif" font-size="10.00">denoptim.ga.GraphOperations</text>
<text text-anchor="middle" x="565" y="-248.13" font-family="Helvetica,sans-Serif" font-size="10.00">Test.getPairOfTestGraphs</text>
</a>
</g>
</g>
<!-- Node4&#45;&gt;Node5 -->
<g id="edge4" class="edge">
<title>Node4&#45;&gt;Node5</title>
<path fill="none" stroke="midnightblue" d="M707.35,-211.27C677.54,-220.73 641.5,-232.17 613.27,-241.13"/>
<polygon fill="midnightblue" stroke="midnightblue" points="708.73,-214.5 717.21,-208.14 706.62,-207.83 708.73,-214.5"/>
</g>
<!-- Node6 -->
<g id="node6" class="node">
<title>Node6</title>
<g id="a_node6"><a xlink:href="classdenoptim_1_1ga_1_1_graph_operations_test.html#a9fcf8fffef10a59df722c92e94da2815" target="_top" xlink:title=" ">
<polygon fill="white" stroke="black" points="242,-227.13 242,-257.13 431,-257.13 431,-227.13 242,-227.13"/>
<text text-anchor="start" x="250" y="-245.13" font-family="Helvetica,sans-Serif" font-size="10.00">denoptim.ga.GraphOperations</text>
<text text-anchor="middle" x="336.5" y="-234.13" font-family="Helvetica,sans-Serif" font-size="10.00">Test.testLocateCompatibleXOverPoints</text>
</a>
</g>
</g>
<!-- Node4&#45;&gt;Node6 -->
<g id="edge19" class="edge">
<title>Node4&#45;&gt;Node6</title>
<path fill="none" stroke="midnightblue" d="M684.6,-202.3C612.77,-210.54 507.2,-222.66 431.37,-231.36"/>
<polygon fill="midnightblue" stroke="midnightblue" points="685.41,-205.73 694.94,-201.11 684.61,-198.78 685.41,-205.73"/>
</g>
<!-- Node7 -->
<g id="node7" class="node">
<title>Node7</title>
<g id="a_node7"><a xlink:href="classdenoptim_1_1ga_1_1_population_test.html#ad6c0ff8cf3b73b88407f1a8ce2d699dd" target="_top" xlink:title="Builds a pair of graphs that contain templates with ContractLevel#FREE contract.">
<polygon fill="white" stroke="black" points="489,-115.13 489,-145.13 641,-145.13 641,-115.13 489,-115.13"/>
<text text-anchor="start" x="497" y="-133.13" font-family="Helvetica,sans-Serif" font-size="10.00">denoptim.ga.PopulationTest.get</text>
<text text-anchor="middle" x="565" y="-122.13" font-family="Helvetica,sans-Serif" font-size="10.00">PairOfTestGraphsB</text>
</a>
</g>
</g>
<!-- Node4&#45;&gt;Node7 -->
<g id="edge6" class="edge">
<title>Node4&#45;&gt;Node7</title>
<path fill="none" stroke="midnightblue" d="M707.35,-175C677.54,-165.53 641.5,-154.1 613.27,-145.14"/>
<polygon fill="midnightblue" stroke="midnightblue" points="706.62,-178.43 717.21,-178.12 708.73,-171.76 706.62,-178.43"/>
</g>
<!-- Node8 -->
<g id="node8" class="node">
<title>Node8</title>
<g id="a_node8"><a xlink:href="classdenoptim_1_1ga_1_1_population_test.html#a41f0c8d31458a49c72e7b22daf45073a" target="_top" xlink:title="Builds a pair of graphs that contain templates with ContractLevel#FREE contract.">
<polygon fill="white" stroke="black" points="260.5,-169.13 260.5,-199.13 412.5,-199.13 412.5,-169.13 260.5,-169.13"/>
<text text-anchor="start" x="268.5" y="-187.13" font-family="Helvetica,sans-Serif" font-size="10.00">denoptim.ga.PopulationTest.get</text>
<text text-anchor="middle" x="336.5" y="-176.13" font-family="Helvetica,sans-Serif" font-size="10.00">PairOfTestGraphsBxoxo</text>
</a>
</g>
</g>
<!-- Node4&#45;&gt;Node8 -->
<g id="edge15" class="edge">
<title>Node4&#45;&gt;Node8</title>
<path fill="none" stroke="midnightblue" d="M684.7,-191.45C606.78,-189.81 489.11,-187.33 412.78,-185.72"/>
<polygon fill="midnightblue" stroke="midnightblue" points="684.87,-194.96 694.94,-191.67 685.02,-187.96 684.87,-194.96"/>
</g>
<!-- Node10 -->
<g id="node10" class="node">
<title>Node10</title>
<g id="a_node10"><a xlink:href="classdenoptim_1_1ga_1_1_e_a_utils_test.html#ae0baa3684be9b8a4af611083649a9e6d" target="_top" xlink:title=" ">
<polygon fill="white" stroke="black" points="238,-71.13 238,-101.13 435,-101.13 435,-71.13 238,-71.13"/>
<text text-anchor="start" x="246" y="-89.13" font-family="Helvetica,sans-Serif" font-size="10.00">denoptim.ga.EAUtilsTest.test</text>
<text text-anchor="middle" x="336.5" y="-78.13" font-family="Helvetica,sans-Serif" font-size="10.00">BuildByXOver_Embedded_FixedStructure</text>
</a>
</g>
</g>
<!-- Node4&#45;&gt;Node10 -->
<g id="edge18" class="edge">
<title>Node4&#45;&gt;Node10</title>
<path fill="none" stroke="midnightblue" d="M744.91,-170.28C725.48,-149.42 693.66,-119.81 659,-106.13 587.73,-78.01 500.67,-74.26 435.13,-76.85"/>
<polygon fill="midnightblue" stroke="midnightblue" points="742.42,-172.74 751.73,-177.8 747.6,-168.04 742.42,-172.74"/>
</g>
<!-- Node13 -->
<g id="node13" class="node">
<title>Node13</title>
<g id="a_node13"><a xlink:href="classdenoptim_1_1ga_1_1_population_test.html#aec2f105b3ec1dad337b2a1708b803439" target="_top" xlink:title="Builds a pair of graphs that contain templates with ContractLevel#FREE contract.">
<polygon fill="white" stroke="black" points="489,-22.13 489,-52.13 641,-52.13 641,-22.13 489,-22.13"/>
<text text-anchor="start" x="497" y="-40.13" font-family="Helvetica,sans-Serif" font-size="10.00">denoptim.ga.PopulationTest.get</text>
<text text-anchor="middle" x="565" y="-29.13" font-family="Helvetica,sans-Serif" font-size="10.00">PairOfTestGraphsBxo</text>
</a>
</g>
</g>
<!-- Node4&#45;&gt;Node13 -->
<g id="edge12" class="edge">
<title>Node4&#45;&gt;Node13</title>
<path fill="none" stroke="midnightblue" d="M749.31,-169.54C730.88,-142.6 697.46,-98.84 659,-72.13 647.24,-63.97 633.33,-57.42 619.9,-52.29"/>
<polygon fill="midnightblue" stroke="midnightblue" points="746.49,-171.62 754.97,-177.98 752.31,-167.72 746.49,-171.62"/>
</g>
<!-- Node14 -->
<g id="node14" class="node">
<title>Node14</title>
<g id="a_node14"><a xlink:href="classdenoptim_1_1gui_1_1_g_u_i_graph_handler.html#af5b000c105018cbd7c262b34f9750044" target="_top" xlink:title="Initialize the panel and add buttons.">
<polygon fill="white" stroke="black" points="471,-290.63 471,-309.63 659,-309.63 659,-290.63 471,-290.63"/>
<text text-anchor="middle" x="565" y="-297.63" font-family="Helvetica,sans-Serif" font-size="10.00">denoptim.gui.GUIGraphHandler.initialize</text>
</a>
</g>
</g>
<!-- Node4&#45;&gt;Node14 -->
<g id="edge16" class="edge">
<title>Node4&#45;&gt;Node14</title>
<path fill="none" stroke="midnightblue" d="M744.16,-215.52C724.4,-235.83 692.54,-265 659,-281.13 650.98,-284.99 642.21,-288.07 633.35,-290.52"/>
<polygon fill="midnightblue" stroke="midnightblue" points="746.75,-217.87 751.11,-208.21 741.68,-213.04 746.75,-217.87"/>
</g>
<!-- Node5&#45;&gt;Node6 -->
<g id="edge5" class="edge">
<title>Node5&#45;&gt;Node6</title>
<path fill="none" stroke="midnightblue" d="M482.16,-251.07C465.58,-250.05 448.04,-248.97 431.1,-247.92"/>
<polygon fill="midnightblue" stroke="midnightblue" points="482.14,-254.58 492.33,-251.7 482.57,-247.59 482.14,-254.58"/>
</g>
<!-- Node7&#45;&gt;Node8 -->
<g id="edge7" class="edge">
<title>Node7&#45;&gt;Node8</title>
<path fill="none" stroke="midnightblue" d="M490.81,-147.58C461.74,-154.51 428.64,-162.4 400.65,-169.08"/>
<polygon fill="midnightblue" stroke="midnightblue" points="491.99,-150.9 500.91,-145.17 490.37,-144.09 491.99,-150.9"/>
</g>
<!-- Node7&#45;&gt;Node10 -->
<g id="edge9" class="edge">
<title>Node7&#45;&gt;Node10</title>
<path fill="none" stroke="midnightblue" d="M478.99,-113.62C457.9,-109.52 435.42,-105.15 414.73,-101.14"/>
<polygon fill="midnightblue" stroke="midnightblue" points="478.41,-117.07 488.89,-115.54 479.74,-110.2 478.41,-117.07"/>
</g>
<!-- Node11 -->
<g id="node11" class="node">
<title>Node11</title>
<g id="a_node11"><a xlink:href="classdenoptim_1_1ga_1_1_e_a_utils_test.html#ad4662f1a3a989020f953f7034d7c1beb" target="_top" xlink:title="NB: the graphs from methods getPairOfTestGraphsB() and getPairOfTestGraphsBxo() and &#160;&#160;getPairOfTestGr...">
<polygon fill="white" stroke="black" points="260,-22.13 260,-52.13 413,-52.13 413,-22.13 260,-22.13"/>
<text text-anchor="start" x="268" y="-40.13" font-family="Helvetica,sans-Serif" font-size="10.00">denoptim.ga.EAUtilsTest.test</text>
<text text-anchor="middle" x="336.5" y="-29.13" font-family="Helvetica,sans-Serif" font-size="10.00">BuildByXOver_Embedded_Free</text>
</a>
</g>
</g>
<!-- Node7&#45;&gt;Node11 -->
<g id="edge10" class="edge">
<title>Node7&#45;&gt;Node11</title>
<path fill="none" stroke="midnightblue" d="M531.29,-109.68C505.84,-94.5 469.21,-74.26 435,-61.13 426.29,-57.79 416.97,-54.8 407.66,-52.16"/>
<polygon fill="midnightblue" stroke="midnightblue" points="529.76,-112.85 540.13,-115.02 533.38,-106.85 529.76,-112.85"/>
</g>
<!-- Node12 -->
<g id="node12" class="node">
<title>Node12</title>
<g id="a_node12"><a xlink:href="classdenoptim_1_1utils_1_1_graph_conversion_tool_test.html#a9cf6fcaba3bac28b528db1eb73c21c62" target="_top" xlink:title=" ">
<polygon fill="white" stroke="black" points="238,-120.13 238,-150.13 435,-150.13 435,-120.13 238,-120.13"/>
<text text-anchor="start" x="246" y="-138.13" font-family="Helvetica,sans-Serif" font-size="10.00">denoptim.utils.GraphConversion</text>
<text text-anchor="middle" x="336.5" y="-127.13" font-family="Helvetica,sans-Serif" font-size="10.00">ToolTest.testGetJGraphKernelFromGraph</text>
</a>
</g>
</g>
<!-- Node7&#45;&gt;Node12 -->
<g id="edge11" class="edge">
<title>Node7&#45;&gt;Node12</title>
<path fill="none" stroke="midnightblue" d="M478.72,-132.02C464.58,-132.33 449.82,-132.65 435.4,-132.97"/>
<polygon fill="midnightblue" stroke="midnightblue" points="478.97,-135.51 488.89,-131.79 478.82,-128.51 478.97,-135.51"/>
</g>
<!-- Node9 -->
<g id="node9" class="node">
<title>Node9</title>
<g id="a_node9"><a xlink:href="classdenoptim_1_1ga_1_1_e_a_utils_test.html#af8cfc323dd7d12090ddf4b836a3349cf" target="_top" xlink:title="NB: the graphs from methods getPairOfTestGraphsB() and getPairOfTestGraphsBxo() and &#160;&#160;getPairOfTestGr...">
<polygon fill="white" stroke="black" points="0,-73.13 0,-103.13 202,-103.13 202,-73.13 0,-73.13"/>
<text text-anchor="start" x="8" y="-91.13" font-family="Helvetica,sans-Serif" font-size="10.00">denoptim.ga.EAUtilsTest.test</text>
<text text-anchor="middle" x="101" y="-80.13" font-family="Helvetica,sans-Serif" font-size="10.00">BuildByXOver_Embedded_FreeBackwards</text>
</a>
</g>
</g>
<!-- Node8&#45;&gt;Node9 -->
<g id="edge8" class="edge">
<title>Node8&#45;&gt;Node9</title>
<path fill="none" stroke="midnightblue" d="M255.34,-166.1C249.42,-164.25 243.58,-162.26 238,-160.13 197.06,-144.53 152.76,-119.37 126.21,-103.3"/>
<polygon fill="midnightblue" stroke="midnightblue" points="254.77,-169.58 265.35,-169.07 256.77,-162.87 254.77,-169.58"/>
</g>
<!-- Node13&#45;&gt;Node9 -->
<g id="edge14" class="edge">
<title>Node13&#45;&gt;Node9</title>
<path fill="none" stroke="midnightblue" d="M499.16,-19.84C432.56,-4.92 326.43,10.9 238,-12.13 192.72,-23.93 146.53,-54.49 121.34,-73.07"/>
<polygon fill="midnightblue" stroke="midnightblue" points="498.56,-23.29 509.09,-22.12 500.13,-16.47 498.56,-23.29"/>
</g>
<!-- Node13&#45;&gt;Node11 -->
<g id="edge13" class="edge">
<title>Node13&#45;&gt;Node11</title>
<path fill="none" stroke="midnightblue" d="M478.78,-37.13C457.22,-37.13 434.22,-37.13 413.18,-37.13"/>
<polygon fill="midnightblue" stroke="midnightblue" points="478.89,-40.63 488.89,-37.13 478.89,-33.63 478.89,-40.63"/>
</g>
<!-- Node15 -->
<g id="node15" class="node">
<title>Node15</title>
<g id="a_node15"><a xlink:href="classdenoptim_1_1gui_1_1_g_u_i_graph_handler.html#ab7d010d9a384f6b85edce47c95d6723b" target="_top" xlink:title="Constructor.">
<polygon fill="white" stroke="black" points="259.5,-285.13 259.5,-315.13 413.5,-315.13 413.5,-285.13 259.5,-285.13"/>
<text text-anchor="start" x="267.5" y="-303.13" font-family="Helvetica,sans-Serif" font-size="10.00">denoptim.gui.GUIGraphHandler.</text>
<text text-anchor="middle" x="336.5" y="-292.13" font-family="Helvetica,sans-Serif" font-size="10.00">GUIGraphHandler</text>
</a>
</g>
</g>
<!-- Node14&#45;&gt;Node15 -->
<g id="edge17" class="edge">
<title>Node14&#45;&gt;Node15</title>
<path fill="none" stroke="midnightblue" d="M460.57,-300.13C444.78,-300.13 428.74,-300.13 413.68,-300.13"/>
<polygon fill="midnightblue" stroke="midnightblue" points="460.89,-303.63 470.89,-300.13 460.89,-296.63 460.89,-303.63"/>
</g>
</g>
</svg>
        <g id="navigator" transform="translate(0 0)" fill="#404254">
                <rect fill="#f2f5e9" fill-opacity="0.5" stroke="#606060" stroke-width=".5" x="0" y="0" width="60" height="60"/>
                <use id="zoomplus" xlink:href="#zoomPlus" x="17" y="9" onmousedown="handleZoom(evt,'in')"/>
                <use id="zoomminus" xlink:href="#zoomMin" x="42" y="9" onmousedown="handleZoom(evt,'out')"/>
                <use id="reset" xlink:href="#resetDef" x="30" y="36" onmousedown="handleReset()"/>
                <g id="arrowUp" xlink:href="#dirArrow" transform="translate(30 24)" onmousedown="handlePan(0,-1)">
                  <use xlink:href="#rim" fill="#404040">
                        <set attributeName="fill" to="#808080" begin="arrowUp.mouseover" end="arrowUp.mouseout"/>
                  </use>
                  <path fill="none" stroke="white" stroke-width="1.5" d="M0,-3.0v7 M-2.5,-0.5L0,-3.0L2.5,-0.5"/>
                </g>
                <g id="arrowRight" xlink:href="#dirArrow" transform="rotate(90) translate(36 -43)" onmousedown="handlePan(1,0)">
                  <use xlink:href="#rim" fill="#404040">
                        <set attributeName="fill" to="#808080" begin="arrowRight.mouseover" end="arrowRight.mouseout"/>
                  </use>
                  <path fill="none" stroke="white" stroke-width="1.5" d="M0,-3.0v7 M-2.5,-0.5L0,-3.0L2.5,-0.5"/>
                </g>
                <g id="arrowDown" xlink:href="#dirArrow" transform="rotate(180) translate(-30 -48)" onmousedown="handlePan(0,1)">
                  <use xlink:href="#rim" fill="#404040">
                        <set attributeName="fill" to="#808080" begin="arrowDown.mouseover" end="arrowDown.mouseout"/>
                  </use>
                  <path fill="none" stroke="white" stroke-width="1.5" d="M0,-3.0v7 M-2.5,-0.5L0,-3.0L2.5,-0.5"/>
                </g>
                <g id="arrowLeft" xlink:href="#dirArrow" transform="rotate(270) translate(-36 17)" onmousedown="handlePan(-1,0)">
                  <use xlink:href="#rim" fill="#404040">
                        <set attributeName="fill" to="#808080" begin="arrowLeft.mouseover" end="arrowLeft.mouseout"/>
                  </use>
                  <path fill="none" stroke="white" stroke-width="1.5" d="M0,-3.0v7 M-2.5,-0.5L0,-3.0L2.5,-0.5"/>
                </g>
        </g>
        <svg viewBox="0 0 15 15" width="100%" height="30px" preserveAspectRatio="xMaxYMin meet">
         <g id="arrow_out" transform="scale(0.3 0.3)">
          <a xlink:href="classdenoptim_1_1graph_1_1_template_a1c1bd08e467f7738d2868996e9f22c3a_icgraph_org.svg" target="_base">
           <rect id="button" ry="5" rx="5" y="6" x="6" height="38" width="38"
                fill="#f2f5e9" fill-opacity="0.5" stroke="#606060" stroke-width="1.0"/>
           <path id="arrow"
             d="M 11.500037,31.436501 C 11.940474,20.09759 22.043105,11.32322 32.158766,21.979434 L 37.068811,17.246167 C 37.068811,17.246167 37.088388,32 37.088388,32 L 22.160133,31.978069 C 22.160133,31.978069 26.997745,27.140456 26.997745,27.140456 C 18.528582,18.264221 13.291696,25.230495 11.500037,31.436501 z"
             style="fill:#404040;"/>
          </a>
         </g>
        </svg>
</svg>
