<?xml version="1.0" encoding="UTF-8" standalone="no"?>
<!DOCTYPE svg PUBLIC "-//W3C//DTD SVG 1.1//EN"
 "http://www.w3.org/Graphics/SVG/1.1/DTD/svg11.dtd">
<!-- Generated by graphviz version 3.0.0 (20220413.0242)
 -->
<!-- Title: denoptim.graph.AttachmentPoint.getLinkedAP Pages: 1 -->
<!--zoomable 415 -->
<svg id="main" version="1.1" xmlns="http://www.w3.org/2000/svg" xmlns:xlink="http://www.w3.org/1999/xlink" xml:space="preserve" onload="init(evt)">
<style type="text/css"><![CDATA[
.edge:hover path { stroke: red; }
.edge:hover polygon { stroke: red; fill: red; }
]]></style>
<script type="text/javascript"><![CDATA[
var edges = document.getElementsByTagName('g');
if (edges && edges.length) {
  for (var i=0;i<edges.length;i++) {
    if (edges[i].id.substr(0,4)=='edge') {
      edges[i].setAttribute('class','edge');
    }
  }
}
]]></script>
        <defs>
                <circle id="rim" cx="0" cy="0" r="7"/>
                <circle id="rim2" cx="0" cy="0" r="3.5"/>
                <g id="zoomPlus">
                        <use xlink:href="#rim" fill="#404040">
                                <set attributeName="fill" to="#808080" begin="zoomplus.mouseover" end="zoomplus.mouseout"/>
                        </use>
                        <path d="M-4,0h8M0,-4v8" fill="none" stroke="white" stroke-width="1.5" pointer-events="none"/>
                </g>
                <g id="zoomMin">
                        <use xlink:href="#rim" fill="#404040">
                                <set attributeName="fill" to="#808080" begin="zoomminus.mouseover" end="zoomminus.mouseout"/>
                        </use>
                        <path d="M-4,0h8" fill="none" stroke="white" stroke-width="1.5" pointer-events="none"/>
                </g>
                <g id="dirArrow">
                        <path fill="none" stroke="white" stroke-width="1.5" d="M0,-3.0v7 M-2.5,-0.5L0,-3.0L2.5,-0.5"/>
                </g>
               <g id="resetDef">
                       <use xlink:href="#rim2" fill="#404040">
                               <set attributeName="fill" to="#808080" begin="reset.mouseover" end="reset.mouseout"/>
                       </use>
               </g>
        </defs>

<script type="text/javascript">
var viewWidth = 1358;
var viewHeight = 415;
var sectionId = 'dynsection-27';
</script>
<script xlink:href="svgpan.js"/>
<svg id="graph" class="graph">
<g id="viewport">
<title>denoptim.graph.AttachmentPoint.getLinkedAP</title>
<polygon fill="white" stroke="transparent" points="-4,4 -4,-411 1354,-411 1354,4 -4,4"/>
<!-- Node1 -->
<g id="node1" class="node">
<title>Node1</title>
<g id="a_node1"><a xlink:title="Gets the attachment point (AP) that is connected to this AP via the edge user.">
<polygon fill="#bfbfbf" stroke="black" points="1215,-238.5 1215,-268.5 1350,-268.5 1350,-238.5 1215,-238.5"/>
<text text-anchor="start" x="1223" y="-256.5" font-family="Helvetica,sans-Serif" font-size="10.00">denoptim.graph.Attachment</text>
<text text-anchor="middle" x="1282.5" y="-245.5" font-family="Helvetica,sans-Serif" font-size="10.00">Point.getLinkedAP</text>
</a>
</g>
</g>
<!-- Node2 -->
<g id="node2" class="node">
<title>Node2</title>
<g id="a_node2"><a xlink:href="classdenoptim_1_1graph_1_1_vertex.html#a1f5734168f6b63ba510689efa217e54f" target="_top" xlink:title="Gets attachment points that are used by capping groups.">
<polygon fill="white" stroke="black" points="1035,-376.5 1035,-406.5 1163,-406.5 1163,-376.5 1035,-376.5"/>
<text text-anchor="start" x="1043" y="-394.5" font-family="Helvetica,sans-Serif" font-size="10.00">denoptim.graph.Vertex.get</text>
<text text-anchor="middle" x="1099" y="-383.5" font-family="Helvetica,sans-Serif" font-size="10.00">CappedAPs</text>
</a>
</g>
</g>
<!-- Node1&#45;&gt;Node2 -->
<g id="edge1" class="edge">
<title>Node1&#45;&gt;Node2</title>
<path fill="none" stroke="midnightblue" d="M1265.96,-277.01C1247.92,-302.55 1215.9,-342.84 1179,-366.5 1173.07,-370.31 1166.51,-373.57 1159.79,-376.36"/>
<polygon fill="midnightblue" stroke="midnightblue" points="1268.93,-278.87 1271.74,-268.65 1263.17,-274.89 1268.93,-278.87"/>
</g>
<!-- Node4 -->
<g id="node4" class="node">
<title>Node4</title>
<g id="a_node4"><a xlink:href="classdenoptim_1_1graph_1_1_vertex.html#af5f7fab6253194cb5b001589937893bd" target="_top" xlink:title="Finds the edge between this and the other vertex, if it exists.">
<polygon fill="white" stroke="black" points="1035,-327.5 1035,-357.5 1163,-357.5 1163,-327.5 1035,-327.5"/>
<text text-anchor="start" x="1043" y="-345.5" font-family="Helvetica,sans-Serif" font-size="10.00">denoptim.graph.Vertex.get</text>
<text text-anchor="middle" x="1099" y="-334.5" font-family="Helvetica,sans-Serif" font-size="10.00">EdgeWith</text>
</a>
</g>
</g>
<!-- Node1&#45;&gt;Node4 -->
<g id="edge3" class="edge">
<title>Node1&#45;&gt;Node4</title>
<path fill="none" stroke="midnightblue" d="M1252.46,-274.4C1232.52,-288.04 1205.05,-305.48 1179,-317.5 1171.03,-321.18 1162.38,-324.52 1153.81,-327.48"/>
<polygon fill="midnightblue" stroke="midnightblue" points="1254.56,-277.19 1260.79,-268.62 1250.58,-271.44 1254.56,-277.19"/>
</g>
<!-- Node8 -->
<g id="node8" class="node">
<title>Node8</title>
<g id="a_node8"><a xlink:href="classdenoptim_1_1graph_1_1_template.html#a049d3fd512e29df9e0dd7b94f484ce97" target="_top" xlink:title="Removes the mapping of the given inner AP from this template&#39;s surface, if such mapping exists.">
<polygon fill="white" stroke="black" points="1019,-260.5 1019,-290.5 1179,-290.5 1179,-260.5 1019,-260.5"/>
<text text-anchor="start" x="1027" y="-278.5" font-family="Helvetica,sans-Serif" font-size="10.00">denoptim.graph.Template.remove</text>
<text text-anchor="middle" x="1099" y="-267.5" font-family="Helvetica,sans-Serif" font-size="10.00">ProjectionOfInnerAP</text>
</a>
</g>
</g>
<!-- Node1&#45;&gt;Node8 -->
<g id="edge7" class="edge">
<title>Node1&#45;&gt;Node8</title>
<path fill="none" stroke="midnightblue" d="M1205.01,-262.77C1196.47,-263.81 1187.75,-264.86 1179.17,-265.9"/>
<polygon fill="midnightblue" stroke="midnightblue" points="1205.44,-266.25 1214.95,-261.57 1204.6,-259.3 1205.44,-266.25"/>
</g>
<!-- Node9 -->
<g id="node9" class="node">
<title>Node9</title>
<g id="a_node9"><a xlink:href="classdenoptim_1_1graph_1_1_d_graph.html#a357b4099599e47ae47102123550771f8" target="_top" xlink:title="Remove a given vertex belonging to this graph and re&#45;connects the resulting graph branches as much as...">
<polygon fill="white" stroke="black" points="831,-260.5 831,-290.5 983,-290.5 983,-260.5 831,-260.5"/>
<text text-anchor="start" x="839" y="-278.5" font-family="Helvetica,sans-Serif" font-size="10.00">denoptim.graph.DGraph.remove</text>
<text text-anchor="middle" x="907" y="-267.5" font-family="Helvetica,sans-Serif" font-size="10.00">SingleVertexAndWeld</text>
</a>
</g>
</g>
<!-- Node1&#45;&gt;Node9 -->
<g id="edge27" class="edge">
<title>Node1&#45;&gt;Node9</title>
<path fill="none" stroke="midnightblue" d="M1204.69,-247.7C1152.23,-244.95 1081.21,-243.58 1019,-250.5 1000.74,-252.53 981.1,-256.39 963.49,-260.47"/>
<polygon fill="midnightblue" stroke="midnightblue" points="1204.75,-251.21 1214.93,-248.27 1205.14,-244.22 1204.75,-251.21"/>
</g>
<!-- Node12 -->
<g id="node12" class="node">
<title>Node12</title>
<g id="a_node12"><a xlink:href="classdenoptim_1_1graph_1_1_d_graph.html#aefca90eb3594e935ee283f1e56fec5b4" target="_top" xlink:title="Replaced the subgraph represented by a given collection of vertices that belong to this graph.">
<polygon fill="white" stroke="black" points="831,-168.5 831,-198.5 983,-198.5 983,-168.5 831,-168.5"/>
<text text-anchor="start" x="839" y="-186.5" font-family="Helvetica,sans-Serif" font-size="10.00">denoptim.graph.DGraph.replace</text>
<text text-anchor="middle" x="907" y="-175.5" font-family="Helvetica,sans-Serif" font-size="10.00">SingleSubGraph</text>
</a>
</g>
</g>
<!-- Node1&#45;&gt;Node12 -->
<g id="edge28" class="edge">
<title>Node1&#45;&gt;Node12</title>
<path fill="none" stroke="midnightblue" d="M1204.56,-239.08C1139.73,-226.93 1047.51,-209.65 983.18,-197.59"/>
<polygon fill="midnightblue" stroke="midnightblue" points="1204.25,-242.58 1214.73,-240.99 1205.54,-235.7 1204.25,-242.58"/>
</g>
<!-- Node24 -->
<g id="node24" class="node">
<title>Node24</title>
<g id="a_node24"><a xlink:href="classdenoptim_1_1graph_1_1_attachment_point_test.html#a0b0bdaef47bda93b08dbb3dc0e7b23e5" target="_top" xlink:title=" ">
<polygon fill="white" stroke="black" points="1031,-134.5 1031,-164.5 1167,-164.5 1167,-134.5 1031,-134.5"/>
<text text-anchor="start" x="1039" y="-152.5" font-family="Helvetica,sans-Serif" font-size="10.00">denoptim.graph.Attachment</text>
<text text-anchor="middle" x="1099" y="-141.5" font-family="Helvetica,sans-Serif" font-size="10.00">PointTest.testGetLinkedAP</text>
</a>
</g>
</g>
<!-- Node1&#45;&gt;Node24 -->
<g id="edge29" class="edge">
<title>Node1&#45;&gt;Node24</title>
<path fill="none" stroke="midnightblue" d="M1255.58,-231.84C1235.58,-215.88 1206.73,-194.44 1179,-179.5 1168.67,-173.93 1157.08,-168.92 1146.03,-164.65"/>
<polygon fill="midnightblue" stroke="midnightblue" points="1253.6,-234.75 1263.58,-238.31 1258,-229.3 1253.6,-234.75"/>
</g>
<!-- Node3 -->
<g id="node3" class="node">
<title>Node3</title>
<g id="a_node3"><a xlink:href="classdenoptim_1_1graph_1_1_vertex.html#a5c6af6108f5caedf3641ef2ed383f954" target="_top" xlink:title="Returns the list of mutation types.">
<polygon fill="white" stroke="black" points="843,-376.5 843,-406.5 971,-406.5 971,-376.5 843,-376.5"/>
<text text-anchor="start" x="851" y="-394.5" font-family="Helvetica,sans-Serif" font-size="10.00">denoptim.graph.Vertex.get</text>
<text text-anchor="middle" x="907" y="-383.5" font-family="Helvetica,sans-Serif" font-size="10.00">MutationTypes</text>
</a>
</g>
</g>
<!-- Node2&#45;&gt;Node3 -->
<g id="edge2" class="edge">
<title>Node2&#45;&gt;Node3</title>
<path fill="none" stroke="midnightblue" d="M1024.73,-391.5C1007.06,-391.5 988.32,-391.5 971.16,-391.5"/>
<polygon fill="midnightblue" stroke="midnightblue" points="1025,-395 1035,-391.5 1025,-388 1025,-395"/>
</g>
<!-- Node5 -->
<g id="node5" class="node">
<title>Node5</title>
<g id="a_node5"><a xlink:href="classdenoptim_1_1graph_1_1_d_graph.html#af404e25092eabcdfbe69b5d7204e9483" target="_top" xlink:title="Mutates the graph by removing the chain where a given vertex is located up to the first branching (i....">
<polygon fill="white" stroke="black" points="831,-327.5 831,-357.5 983,-357.5 983,-327.5 831,-327.5"/>
<text text-anchor="start" x="839" y="-345.5" font-family="Helvetica,sans-Serif" font-size="10.00">denoptim.graph.DGraph.remove</text>
<text text-anchor="middle" x="907" y="-334.5" font-family="Helvetica,sans-Serif" font-size="10.00">ChainUpToBranching</text>
</a>
</g>
</g>
<!-- Node4&#45;&gt;Node5 -->
<g id="edge4" class="edge">
<title>Node4&#45;&gt;Node5</title>
<path fill="none" stroke="midnightblue" d="M1024.7,-342.5C1011.04,-342.5 996.75,-342.5 983.04,-342.5"/>
<polygon fill="midnightblue" stroke="midnightblue" points="1025,-346 1035,-342.5 1025,-339 1025,-346"/>
</g>
<!-- Node6 -->
<g id="node6" class="node">
<title>Node6</title>
<g id="a_node6"><a xlink:href="classdenoptim_1_1ga_1_1_graph_operations.html#afd659e74a056d1a6ae6f52513fee0be3" target="_top" xlink:title="Deletes the given vertex and all other vertexes that are not connected to more than 2 non&#45;capping gro...">
<polygon fill="white" stroke="black" points="420.5,-338.5 420.5,-368.5 593.5,-368.5 593.5,-338.5 420.5,-338.5"/>
<text text-anchor="start" x="428.5" y="-356.5" font-family="Helvetica,sans-Serif" font-size="10.00">denoptim.ga.GraphOperations.delete</text>
<text text-anchor="middle" x="507" y="-345.5" font-family="Helvetica,sans-Serif" font-size="10.00">Chain</text>
</a>
</g>
</g>
<!-- Node5&#45;&gt;Node6 -->
<g id="edge5" class="edge">
<title>Node5&#45;&gt;Node6</title>
<path fill="none" stroke="midnightblue" d="M820.57,-344.86C753.58,-346.71 660.79,-349.28 593.73,-351.13"/>
<polygon fill="midnightblue" stroke="midnightblue" points="820.77,-348.36 830.67,-344.58 820.58,-341.36 820.77,-348.36"/>
</g>
<!-- Node7 -->
<g id="node7" class="node">
<title>Node7</title>
<g id="a_node7"><a xlink:href="classdenoptim_1_1ga_1_1_graph_operations.html#a0c851972015fbb4b2a317b053b8b81d9" target="_top" xlink:title="Mutates the given vertex according to the given mutation type, if possible.">
<polygon fill="white" stroke="black" points="195,-316.5 195,-346.5 375,-346.5 375,-316.5 195,-316.5"/>
<text text-anchor="start" x="203" y="-334.5" font-family="Helvetica,sans-Serif" font-size="10.00">denoptim.ga.GraphOperations.perform</text>
<text text-anchor="middle" x="285" y="-323.5" font-family="Helvetica,sans-Serif" font-size="10.00">Mutation</text>
</a>
</g>
</g>
<!-- Node6&#45;&gt;Node7 -->
<g id="edge6" class="edge">
<title>Node6&#45;&gt;Node7</title>
<path fill="none" stroke="midnightblue" d="M410.14,-343.91C398.49,-342.75 386.63,-341.56 375.08,-340.41"/>
<polygon fill="midnightblue" stroke="midnightblue" points="410.01,-347.42 420.31,-344.93 410.71,-340.45 410.01,-347.42"/>
</g>
<!-- Node8&#45;&gt;Node5 -->
<g id="edge8" class="edge">
<title>Node8&#45;&gt;Node5</title>
<path fill="none" stroke="midnightblue" d="M1048.05,-294.09C1027.89,-301.5 1004.38,-310.03 983,-317.5 973.67,-320.76 963.66,-324.16 954.08,-327.37"/>
<polygon fill="midnightblue" stroke="midnightblue" points="1049.48,-297.3 1057.65,-290.55 1047.06,-290.73 1049.48,-297.3"/>
</g>
<!-- Node8&#45;&gt;Node8 -->
<g id="edge9" class="edge">
<title>Node8&#45;&gt;Node8</title>
<path fill="none" stroke="midnightblue" d="M1131.34,-300.96C1127.33,-305.68 1116.55,-309 1099,-309 1070.21,-309 1059.63,-300.06 1067.28,-290.66"/>
<polygon fill="midnightblue" stroke="midnightblue" points="1134.81,-300.43 1130.72,-290.66 1127.83,-300.85 1134.81,-300.43"/>
</g>
<!-- Node8&#45;&gt;Node9 -->
<g id="edge10" class="edge">
<title>Node8&#45;&gt;Node9</title>
<path fill="none" stroke="midnightblue" d="M1008.77,-275.5C1000.19,-275.5 991.54,-275.5 983.12,-275.5"/>
<polygon fill="midnightblue" stroke="midnightblue" points="1008.8,-279 1018.8,-275.5 1008.8,-272 1008.8,-279"/>
</g>
<!-- Node8&#45;&gt;Node12 -->
<g id="edge15" class="edge">
<title>Node8&#45;&gt;Node12</title>
<path fill="none" stroke="midnightblue" d="M1057.52,-255.9C1022.11,-238.75 971.42,-214.21 939.11,-198.56"/>
<polygon fill="midnightblue" stroke="midnightblue" points="1056.1,-259.1 1066.63,-260.31 1059.15,-252.8 1056.1,-259.1"/>
</g>
<!-- Node9&#45;&gt;Node9 -->
<g id="edge11" class="edge">
<title>Node9&#45;&gt;Node9</title>
<path fill="none" stroke="midnightblue" d="M940.76,-300.96C936.57,-305.68 925.32,-309 907,-309 876.94,-309 865.9,-300.06 873.89,-290.66"/>
<polygon fill="midnightblue" stroke="midnightblue" points="944.23,-300.42 940.11,-290.66 937.25,-300.86 944.23,-300.42"/>
</g>
<!-- Node10 -->
<g id="node10" class="node">
<title>Node10</title>
<g id="a_node10"><a xlink:href="classdenoptim_1_1graph_1_1_d_graph.html#a00209ca8b4a9623b41e7d9e1e62f69ec" target="_top" xlink:title="Remove a given vertex belonging to this graph and re&#45;connects the resulting graph branches as much as...">
<polygon fill="white" stroke="black" points="641,-294.5 641,-324.5 793,-324.5 793,-294.5 641,-294.5"/>
<text text-anchor="start" x="649" y="-312.5" font-family="Helvetica,sans-Serif" font-size="10.00">denoptim.graph.DGraph.remove</text>
<text text-anchor="middle" x="717" y="-301.5" font-family="Helvetica,sans-Serif" font-size="10.00">VertexAndWeld</text>
</a>
</g>
</g>
<!-- Node9&#45;&gt;Node10 -->
<g id="edge12" class="edge">
<title>Node9&#45;&gt;Node10</title>
<path fill="none" stroke="midnightblue" d="M820.95,-290.88C811.73,-292.55 802.39,-294.24 793.3,-295.88"/>
<polygon fill="midnightblue" stroke="midnightblue" points="821.67,-294.31 830.89,-289.08 820.42,-287.42 821.67,-294.31"/>
</g>
<!-- Node11 -->
<g id="node11" class="node">
<title>Node11</title>
<g id="a_node11"><a xlink:href="classdenoptim_1_1ga_1_1_graph_operations.html#ab3adb5141a8941bf23916bb516faee63" target="_top" xlink:title="Removes a vertex while merging as many of the child branches into the parent vertex.">
<polygon fill="white" stroke="black" points="411,-300 411,-319 603,-319 603,-300 411,-300"/>
<text text-anchor="middle" x="507" y="-307" font-family="Helvetica,sans-Serif" font-size="10.00">denoptim.ga.GraphOperations.deleteLink</text>
</a>
</g>
</g>
<!-- Node10&#45;&gt;Node11 -->
<g id="edge13" class="edge">
<title>Node10&#45;&gt;Node11</title>
<path fill="none" stroke="midnightblue" d="M630.77,-309.5C621.7,-309.5 612.44,-309.5 603.27,-309.5"/>
<polygon fill="midnightblue" stroke="midnightblue" points="630.91,-313 640.91,-309.5 630.91,-306 630.91,-313"/>
</g>
<!-- Node11&#45;&gt;Node7 -->
<g id="edge14" class="edge">
<title>Node11&#45;&gt;Node7</title>
<path fill="none" stroke="midnightblue" d="M400.75,-320.03C392.17,-320.88 383.56,-321.74 375.11,-322.59"/>
<polygon fill="midnightblue" stroke="midnightblue" points="401.18,-323.5 410.78,-319.02 400.49,-316.53 401.18,-323.5"/>
</g>
<!-- Node13 -->
<g id="node13" class="node">
<title>Node13</title>
<g id="a_node13"><a xlink:href="classdenoptim_1_1graph_1_1_d_graph.html#a4df69c91a742d22f8d14d44489aeac15" target="_top" xlink:title="Edit this graph according to a given list of edit tasks.">
<polygon fill="white" stroke="black" points="649,-245.5 649,-275.5 785,-275.5 785,-245.5 649,-245.5"/>
<text text-anchor="start" x="657" y="-263.5" font-family="Helvetica,sans-Serif" font-size="10.00">denoptim.graph.DGraph.edit</text>
<text text-anchor="middle" x="717" y="-252.5" font-family="Helvetica,sans-Serif" font-size="10.00">Graph</text>
</a>
</g>
</g>
<!-- Node12&#45;&gt;Node13 -->
<g id="edge16" class="edge">
<title>Node12&#45;&gt;Node13</title>
<path fill="none" stroke="midnightblue" d="M867.04,-203.2C845.98,-213.48 819.37,-225.88 795,-235.5 786.24,-238.96 776.79,-242.32 767.62,-245.4"/>
<polygon fill="midnightblue" stroke="midnightblue" points="868.86,-206.21 876.29,-198.65 865.77,-199.93 868.86,-206.21"/>
</g>
<!-- Node15 -->
<g id="node15" class="node">
<title>Node15</title>
<g id="a_node15"><a xlink:href="classdenoptim_1_1graph_1_1_d_graph.html#a86e888ef245d2bd40b49d145c7ef3af0" target="_top" xlink:title="Replaced the subgraph represented by a given collection of vertices that belong to this graph.">
<polygon fill="white" stroke="black" points="641,-196.5 641,-226.5 793,-226.5 793,-196.5 641,-196.5"/>
<text text-anchor="start" x="649" y="-214.5" font-family="Helvetica,sans-Serif" font-size="10.00">denoptim.graph.DGraph.replace</text>
<text text-anchor="middle" x="717" y="-203.5" font-family="Helvetica,sans-Serif" font-size="10.00">SubGraph</text>
</a>
</g>
</g>
<!-- Node12&#45;&gt;Node15 -->
<g id="edge18" class="edge">
<title>Node12&#45;&gt;Node15</title>
<path fill="none" stroke="midnightblue" d="M820.95,-196.17C811.73,-197.54 802.39,-198.93 793.3,-200.29"/>
<polygon fill="midnightblue" stroke="midnightblue" points="821.51,-199.62 830.89,-194.69 820.48,-192.7 821.51,-199.62"/>
</g>
<!-- Node20 -->
<g id="node20" class="node">
<title>Node20</title>
<g id="a_node20"><a xlink:href="classdenoptim_1_1graph_1_1_d_graph.html#adc362402e41af41656e820def73de5ad" target="_top" xlink:title="Replaced a given vertex belonging to this graph with a new vertex generated specifically for this pur...">
<polygon fill="white" stroke="black" points="641,-147.5 641,-177.5 793,-177.5 793,-147.5 641,-147.5"/>
<text text-anchor="start" x="649" y="-165.5" font-family="Helvetica,sans-Serif" font-size="10.00">denoptim.graph.DGraph.replace</text>
<text text-anchor="middle" x="717" y="-154.5" font-family="Helvetica,sans-Serif" font-size="10.00">Vertex</text>
</a>
</g>
</g>
<!-- Node12&#45;&gt;Node20 -->
<g id="edge23" class="edge">
<title>Node12&#45;&gt;Node20</title>
<path fill="none" stroke="midnightblue" d="M820.95,-174C811.73,-172.97 802.39,-171.93 793.3,-170.91"/>
<polygon fill="midnightblue" stroke="midnightblue" points="820.56,-177.48 830.89,-175.11 821.34,-170.52 820.56,-177.48"/>
</g>
<!-- Node21 -->
<g id="node21" class="node">
<title>Node21</title>
<g id="a_node21"><a xlink:href="classdenoptim_1_1graph_1_1_d_graph_test.html#aea227d615f6c2f3bac5839a8099a900d" target="_top" xlink:title=" ">
<polygon fill="white" stroke="black" points="639,-98.5 639,-128.5 795,-128.5 795,-98.5 639,-98.5"/>
<text text-anchor="start" x="647" y="-116.5" font-family="Helvetica,sans-Serif" font-size="10.00">denoptim.graph.DGraphTest.test</text>
<text text-anchor="middle" x="717" y="-105.5" font-family="Helvetica,sans-Serif" font-size="10.00">IsIsostructuralTo</text>
</a>
</g>
</g>
<!-- Node12&#45;&gt;Node21 -->
<g id="edge24" class="edge">
<title>Node12&#45;&gt;Node21</title>
<path fill="none" stroke="midnightblue" d="M862.5,-164.4C842.17,-155.75 817.52,-145.66 795,-137.5 786.57,-134.45 777.55,-131.42 768.75,-128.6"/>
<polygon fill="midnightblue" stroke="midnightblue" points="861.25,-167.67 871.82,-168.39 864,-161.24 861.25,-167.67"/>
</g>
<!-- Node22 -->
<g id="node22" class="node">
<title>Node22</title>
<g id="a_node22"><a xlink:href="classdenoptim_1_1graph_1_1_d_graph_test.html#a83a9624ea5dc6a2c515407b865b62611" target="_top" xlink:title=" ">
<polygon fill="white" stroke="black" points="639,-49.5 639,-79.5 795,-79.5 795,-49.5 639,-49.5"/>
<text text-anchor="start" x="647" y="-67.5" font-family="Helvetica,sans-Serif" font-size="10.00">denoptim.graph.DGraphTest.test</text>
<text text-anchor="middle" x="717" y="-56.5" font-family="Helvetica,sans-Serif" font-size="10.00">ReplaceSubGraph</text>
</a>
</g>
</g>
<!-- Node12&#45;&gt;Node22 -->
<g id="edge25" class="edge">
<title>Node12&#45;&gt;Node22</title>
<path fill="none" stroke="midnightblue" d="M884.93,-160.77C863.98,-139.39 829.99,-107.85 795,-88.5 788.87,-85.11 782.2,-82.13 775.43,-79.53"/>
<polygon fill="midnightblue" stroke="midnightblue" points="882.58,-163.38 892.04,-168.15 887.62,-158.52 882.58,-163.38"/>
</g>
<!-- Node23 -->
<g id="node23" class="node">
<title>Node23</title>
<g id="a_node23"><a xlink:href="classdenoptim_1_1graph_1_1_d_graph_test.html#a0c949ec1131a872dea53524614b3b42a" target="_top" xlink:title=" ">
<polygon fill="white" stroke="black" points="639,-0.5 639,-30.5 795,-30.5 795,-0.5 639,-0.5"/>
<text text-anchor="start" x="647" y="-18.5" font-family="Helvetica,sans-Serif" font-size="10.00">denoptim.graph.DGraphTest.test</text>
<text text-anchor="middle" x="717" y="-7.5" font-family="Helvetica,sans-Serif" font-size="10.00">ReplaceSubGraph_inTemplate</text>
</a>
</g>
</g>
<!-- Node12&#45;&gt;Node23 -->
<g id="edge26" class="edge">
<title>Node12&#45;&gt;Node23</title>
<path fill="none" stroke="midnightblue" d="M893.56,-159.3C875.89,-127.28 840.55,-71.21 795,-39.5 790.06,-36.06 784.6,-33.1 778.95,-30.55"/>
<polygon fill="midnightblue" stroke="midnightblue" points="890.64,-161.27 898.47,-168.41 896.8,-157.94 890.64,-161.27"/>
</g>
<!-- Node14 -->
<g id="node14" class="node">
<title>Node14</title>
<g id="a_node14"><a xlink:href="classdenoptim_1_1programs_1_1grapheditor_1_1_graph_editor.html#a649a62e3d4635ef4c19424fa49e6dcd4" target="_top" xlink:title=" ">
<polygon fill="white" stroke="black" points="431,-245.5 431,-275.5 583,-275.5 583,-245.5 431,-245.5"/>
<text text-anchor="start" x="439" y="-263.5" font-family="Helvetica,sans-Serif" font-size="10.00">denoptim.programs.grapheditor.</text>
<text text-anchor="middle" x="507" y="-252.5" font-family="Helvetica,sans-Serif" font-size="10.00">GraphEditor.runProgram</text>
</a>
</g>
</g>
<!-- Node13&#45;&gt;Node14 -->
<g id="edge17" class="edge">
<title>Node13&#45;&gt;Node14</title>
<path fill="none" stroke="midnightblue" d="M638.56,-260.5C620.49,-260.5 601.28,-260.5 583.3,-260.5"/>
<polygon fill="midnightblue" stroke="midnightblue" points="638.76,-264 648.76,-260.5 638.76,-257 638.76,-264"/>
</g>
<!-- Node16 -->
<g id="node16" class="node">
<title>Node16</title>
<g id="a_node16"><a xlink:href="classdenoptim_1_1ga_1_1_graph_operations.html#affb1be89a32e4a429bd7dbdfe0708419" target="_top" xlink:title="Performs the crossover that swaps the two subgraphs defining the given XoverSite.">
<polygon fill="white" stroke="black" points="417,-196.5 417,-226.5 597,-226.5 597,-196.5 417,-196.5"/>
<text text-anchor="start" x="425" y="-214.5" font-family="Helvetica,sans-Serif" font-size="10.00">denoptim.ga.GraphOperations.perform</text>
<text text-anchor="middle" x="507" y="-203.5" font-family="Helvetica,sans-Serif" font-size="10.00">Crossover</text>
</a>
</g>
</g>
<!-- Node15&#45;&gt;Node16 -->
<g id="edge19" class="edge">
<title>Node15&#45;&gt;Node16</title>
<path fill="none" stroke="midnightblue" d="M630.81,-211.5C619.71,-211.5 608.32,-211.5 597.15,-211.5"/>
<polygon fill="midnightblue" stroke="midnightblue" points="630.91,-215 640.91,-211.5 630.91,-208 630.91,-215"/>
</g>
<!-- Node17 -->
<g id="node17" class="node">
<title>Node17</title>
<g id="a_node17"><a xlink:href="classdenoptim_1_1ga_1_1_e_a_utils.html#a98553265dd4b441b11c6d97d098edb08" target="_top" xlink:title="Generates a new offspring by performing a crossover operation.">
<polygon fill="white" stroke="black" points="221.5,-196.5 221.5,-226.5 348.5,-226.5 348.5,-196.5 221.5,-196.5"/>
<text text-anchor="start" x="229.5" y="-214.5" font-family="Helvetica,sans-Serif" font-size="10.00">denoptim.ga.EAUtils.build</text>
<text text-anchor="middle" x="285" y="-203.5" font-family="Helvetica,sans-Serif" font-size="10.00">CandidateByXOver</text>
</a>
</g>
</g>
<!-- Node16&#45;&gt;Node17 -->
<g id="edge20" class="edge">
<title>Node16&#45;&gt;Node17</title>
<path fill="none" stroke="midnightblue" d="M406.58,-211.5C386.87,-211.5 366.7,-211.5 348.64,-211.5"/>
<polygon fill="midnightblue" stroke="midnightblue" points="406.83,-215 416.83,-211.5 406.83,-208 406.83,-215"/>
</g>
<!-- Node18 -->
<g id="node18" class="node">
<title>Node18</title>
<g id="a_node18"><a xlink:href="classdenoptim_1_1programs_1_1genetweeker_1_1_gene_ops_runner.html#ab0f92a94c4fb2334e7d3813e73fc4247" target="_top" xlink:title=" ">
<polygon fill="white" stroke="black" points="205.5,-245.5 205.5,-275.5 364.5,-275.5 364.5,-245.5 205.5,-245.5"/>
<text text-anchor="start" x="213.5" y="-263.5" font-family="Helvetica,sans-Serif" font-size="10.00">denoptim.programs.genetweeker.</text>
<text text-anchor="middle" x="285" y="-252.5" font-family="Helvetica,sans-Serif" font-size="10.00">GeneOpsRunner.runXOver</text>
</a>
</g>
</g>
<!-- Node16&#45;&gt;Node18 -->
<g id="edge21" class="edge">
<title>Node16&#45;&gt;Node18</title>
<path fill="none" stroke="midnightblue" d="M428.51,-228.76C404,-234.22 377.12,-240.21 353.37,-245.49"/>
<polygon fill="midnightblue" stroke="midnightblue" points="429.5,-232.12 438.5,-226.53 427.98,-225.29 429.5,-232.12"/>
</g>
<!-- Node19 -->
<g id="node19" class="node">
<title>Node19</title>
<g id="a_node19"><a xlink:href="classdenoptim_1_1programs_1_1genetweeker_1_1_gene_ops_runner.html#a3c2407eb1204a7b25600d3d347d98447" target="_top" xlink:title=" ">
<polygon fill="white" stroke="black" points="0,-245.5 0,-275.5 159,-275.5 159,-245.5 0,-245.5"/>
<text text-anchor="start" x="8" y="-263.5" font-family="Helvetica,sans-Serif" font-size="10.00">denoptim.programs.genetweeker.</text>
<text text-anchor="middle" x="79.5" y="-252.5" font-family="Helvetica,sans-Serif" font-size="10.00">GeneOpsRunner.runProgram</text>
</a>
</g>
</g>
<!-- Node18&#45;&gt;Node19 -->
<g id="edge22" class="edge">
<title>Node18&#45;&gt;Node19</title>
<path fill="none" stroke="midnightblue" d="M194.97,-260.5C183.09,-260.5 170.99,-260.5 159.3,-260.5"/>
<polygon fill="midnightblue" stroke="midnightblue" points="195.32,-264 205.32,-260.5 195.32,-257 195.32,-264"/>
</g>
</g>
</svg>
        <g id="navigator" transform="translate(0 0)" fill="#404254">
                <rect fill="#f2f5e9" fill-opacity="0.5" stroke="#606060" stroke-width=".5" x="0" y="0" width="60" height="60"/>
                <use id="zoomplus" xlink:href="#zoomPlus" x="17" y="9" onmousedown="handleZoom(evt,'in')"/>
                <use id="zoomminus" xlink:href="#zoomMin" x="42" y="9" onmousedown="handleZoom(evt,'out')"/>
                <use id="reset" xlink:href="#resetDef" x="30" y="36" onmousedown="handleReset()"/>
                <g id="arrowUp" xlink:href="#dirArrow" transform="translate(30 24)" onmousedown="handlePan(0,-1)">
                  <use xlink:href="#rim" fill="#404040">
                        <set attributeName="fill" to="#808080" begin="arrowUp.mouseover" end="arrowUp.mouseout"/>
                  </use>
                  <path fill="none" stroke="white" stroke-width="1.5" d="M0,-3.0v7 M-2.5,-0.5L0,-3.0L2.5,-0.5"/>
                </g>
                <g id="arrowRight" xlink:href="#dirArrow" transform="rotate(90) translate(36 -43)" onmousedown="handlePan(1,0)">
                  <use xlink:href="#rim" fill="#404040">
                        <set attributeName="fill" to="#808080" begin="arrowRight.mouseover" end="arrowRight.mouseout"/>
                  </use>
                  <path fill="none" stroke="white" stroke-width="1.5" d="M0,-3.0v7 M-2.5,-0.5L0,-3.0L2.5,-0.5"/>
                </g>
                <g id="arrowDown" xlink:href="#dirArrow" transform="rotate(180) translate(-30 -48)" onmousedown="handlePan(0,1)">
                  <use xlink:href="#rim" fill="#404040">
                        <set attributeName="fill" to="#808080" begin="arrowDown.mouseover" end="arrowDown.mouseout"/>
                  </use>
                  <path fill="none" stroke="white" stroke-width="1.5" d="M0,-3.0v7 M-2.5,-0.5L0,-3.0L2.5,-0.5"/>
                </g>
                <g id="arrowLeft" xlink:href="#dirArrow" transform="rotate(270) translate(-36 17)" onmousedown="handlePan(-1,0)">
                  <use xlink:href="#rim" fill="#404040">
                        <set attributeName="fill" to="#808080" begin="arrowLeft.mouseover" end="arrowLeft.mouseout"/>
                  </use>
                  <path fill="none" stroke="white" stroke-width="1.5" d="M0,-3.0v7 M-2.5,-0.5L0,-3.0L2.5,-0.5"/>
                </g>
        </g>
        <svg viewBox="0 0 15 15" width="100%" height="30px" preserveAspectRatio="xMaxYMin meet">
         <g id="arrow_out" transform="scale(0.3 0.3)">
          <a xlink:href="classdenoptim_1_1graph_1_1_attachment_point_a05ecc9dd632f58f95e7613f8aa4ece97_icgraph_org.svg" target="_base">
           <rect id="button" ry="5" rx="5" y="6" x="6" height="38" width="38"
                fill="#f2f5e9" fill-opacity="0.5" stroke="#606060" stroke-width="1.0"/>
           <path id="arrow"
             d="M 11.500037,31.436501 C 11.940474,20.09759 22.043105,11.32322 32.158766,21.979434 L 37.068811,17.246167 C 37.068811,17.246167 37.088388,32 37.088388,32 L 22.160133,31.978069 C 22.160133,31.978069 26.997745,27.140456 26.997745,27.140456 C 18.528582,18.264221 13.291696,25.230495 11.500037,31.436501 z"
             style="fill:#404040;"/>
          </a>
         </g>
        </svg>
</svg>
