<?xml version="1.0" encoding="UTF-8" standalone="no"?>
<!DOCTYPE svg PUBLIC "-//W3C//DTD SVG 1.1//EN"
 "http://www.w3.org/Graphics/SVG/1.1/DTD/svg11.dtd">
<!-- Generated by graphviz version 3.0.0 (20220413.0242)
 -->
<!-- Title: denoptim.graph.APTreeMap.put Pages: 1 -->
<svg width="345pt" height="186pt"
 viewBox="0.00 0.00 345.00 186.00" xmlns="http://www.w3.org/2000/svg" xmlns:xlink="http://www.w3.org/1999/xlink">
<g id="graph0" class="graph" transform="scale(1 1) rotate(0) translate(4 182)">
<title>denoptim.graph.APTreeMap.put</title>
<polygon fill="white" stroke="transparent" points="-4,4 -4,-182 341,-182 341,4 -4,4"/>
<!-- Node1 -->
<g id="node1" class="node">
<title>Node1</title>
<g id="a_node1"><a xlink:title="Associates the specified value with the specified key in this map.">
<polygon fill="#bfbfbf" stroke="black" points="0,-79 0,-98 152,-98 152,-79 0,-79"/>
<text text-anchor="middle" x="76" y="-86" font-family="Helvetica,sans-Serif" font-size="10.00">denoptim.graph.APTreeMap.put</text>
</a>
</g>
</g>
<!-- Node2 -->
<g id="node2" class="node">
<title>Node2</title>
<g id="a_node2"><a xlink:href="classdenoptim_1_1graph_1_1_attachment_point.html#a72dd6bd75a701cabb65832778da6e574" target="_top" xlink:title="Returns a unique integer that is used to sort list of attachment points.">
<polygon fill="white" stroke="black" points="195,-147.5 195,-177.5 330,-177.5 330,-147.5 195,-147.5"/>
<text text-anchor="start" x="203" y="-165.5" font-family="Helvetica,sans-Serif" font-size="10.00">denoptim.graph.Attachment</text>
<text text-anchor="middle" x="262.5" y="-154.5" font-family="Helvetica,sans-Serif" font-size="10.00">Point.getID</text>
</a>
</g>
</g>
<!-- Node1&#45;&gt;Node2 -->
<g id="edge1" class="edge">
<title>Node1&#45;&gt;Node2</title>
<path fill="none" stroke="midnightblue" d="M96.78,-98.19C118.77,-108.78 155.48,-125.91 188,-138.5 193.01,-140.44 198.24,-142.36 203.52,-144.22"/>
<polygon fill="midnightblue" stroke="midnightblue" points="202.41,-147.54 213,-147.48 204.69,-140.92 202.41,-147.54"/>
</g>
<!-- Node3 -->
<g id="node3" class="node">
<title>Node3</title>
<g id="a_node3"><a xlink:href="classdenoptim_1_1utils_1_1_graph_utils.html#aacbefbc93a3463aa963c9923749deea1" target="_top" xlink:title="Unique counter for the number of molecules generated.">
<polygon fill="white" stroke="black" points="192,-98.5 192,-128.5 333,-128.5 333,-98.5 192,-98.5"/>
<text text-anchor="start" x="200" y="-116.5" font-family="Helvetica,sans-Serif" font-size="10.00">denoptim.utils.GraphUtils.get</text>
<text text-anchor="middle" x="262.5" y="-105.5" font-family="Helvetica,sans-Serif" font-size="10.00">UniqueAPIndex</text>
</a>
</g>
</g>
<!-- Node1&#45;&gt;Node3 -->
<g id="edge2" class="edge">
<title>Node1&#45;&gt;Node3</title>
<path fill="none" stroke="midnightblue" d="M147.28,-98.02C158.54,-99.55 170.27,-101.14 181.73,-102.69"/>
<polygon fill="midnightblue" stroke="midnightblue" points="181.34,-106.17 191.72,-104.05 182.28,-99.23 181.34,-106.17"/>
</g>
<!-- Node4 -->
<g id="node4" class="node">
<title>Node4</title>
<g id="a_node4"><a xlink:href="classdenoptim_1_1utils_1_1_graph_utils.html#ac53e72bfeb5251069c07ebc22994022a" target="_top" xlink:title="Reset the unique attachment point counter to the given value.">
<polygon fill="white" stroke="black" points="188,-49.5 188,-79.5 337,-79.5 337,-49.5 188,-49.5"/>
<text text-anchor="start" x="196" y="-67.5" font-family="Helvetica,sans-Serif" font-size="10.00">denoptim.utils.GraphUtils.reset</text>
<text text-anchor="middle" x="262.5" y="-56.5" font-family="Helvetica,sans-Serif" font-size="10.00">UniqueAPCounter</text>
</a>
</g>
</g>
<!-- Node1&#45;&gt;Node4 -->
<g id="edge3" class="edge">
<title>Node1&#45;&gt;Node4</title>
<path fill="none" stroke="midnightblue" d="M150.18,-78.98C159.27,-77.8 168.62,-76.58 177.85,-75.38"/>
<polygon fill="midnightblue" stroke="midnightblue" points="178.34,-78.85 187.8,-74.09 177.43,-71.91 178.34,-78.85"/>
</g>
<!-- Node5 -->
<g id="node5" class="node">
<title>Node5</title>
<g id="a_node5"><a xlink:href="classdenoptim_1_1graph_1_1_attachment_point.html#a929c8f781b4c999a5228f322a3bd901e" target="_top" xlink:title="Sets the unique integer that is used to sort list of attachment points.">
<polygon fill="white" stroke="black" points="195,-0.5 195,-30.5 330,-30.5 330,-0.5 195,-0.5"/>
<text text-anchor="start" x="203" y="-18.5" font-family="Helvetica,sans-Serif" font-size="10.00">denoptim.graph.Attachment</text>
<text text-anchor="middle" x="262.5" y="-7.5" font-family="Helvetica,sans-Serif" font-size="10.00">Point.setID</text>
</a>
</g>
</g>
<!-- Node1&#45;&gt;Node5 -->
<g id="edge4" class="edge">
<title>Node1&#45;&gt;Node5</title>
<path fill="none" stroke="midnightblue" d="M97.66,-78.97C119.8,-68.9 156.07,-52.81 188,-40.5 193.78,-38.27 199.85,-36.04 205.92,-33.87"/>
<polygon fill="midnightblue" stroke="midnightblue" points="207.15,-37.15 215.42,-30.54 204.83,-30.55 207.15,-37.15"/>
</g>
</g>
</svg>
