<?xml version="1.0" encoding="UTF-8" standalone="no"?>
<!DOCTYPE svg PUBLIC "-//W3C//DTD SVG 1.1//EN"
 "http://www.w3.org/Graphics/SVG/1.1/DTD/svg11.dtd">
<!-- Generated by graphviz version 3.0.0 (20220413.0242)
 -->
<!-- Title: denoptim.graph.Edge.getSrcAPID Pages: 1 -->
<svg width="1943pt" height="311pt"
 viewBox="0.00 0.00 1943.00 310.50" xmlns="http://www.w3.org/2000/svg" xmlns:xlink="http://www.w3.org/1999/xlink">
<g id="graph0" class="graph" transform="scale(1 1) rotate(0) translate(4 306.5)">
<title>denoptim.graph.Edge.getSrcAPID</title>
<polygon fill="white" stroke="transparent" points="-4,4 -4,-306.5 1939,-306.5 1939,4 -4,4"/>
<!-- Node1 -->
<g id="node1" class="node">
<title>Node1</title>
<g id="a_node1"><a xlink:title=" ">
<polygon fill="#bfbfbf" stroke="black" points="1774,-117.5 1774,-136.5 1935,-136.5 1935,-117.5 1774,-117.5"/>
<text text-anchor="middle" x="1854.5" y="-124.5" font-family="Helvetica,sans-Serif" font-size="10.00">denoptim.graph.Edge.getSrcAPID</text>
</a>
</g>
</g>
<!-- Node2 -->
<g id="node2" class="node">
<title>Node2</title>
<g id="a_node2"><a xlink:href="classdenoptim_1_1graph_1_1_d_graph.html#a4df69c91a742d22f8d14d44489aeac15" target="_top" xlink:title="Edit this graph according to a given list of edit tasks.">
<polygon fill="white" stroke="black" points="1589.5,-237 1589.5,-267 1725.5,-267 1725.5,-237 1589.5,-237"/>
<text text-anchor="start" x="1597.5" y="-255" font-family="Helvetica,sans-Serif" font-size="10.00">denoptim.graph.DGraph.edit</text>
<text text-anchor="middle" x="1657.5" y="-244" font-family="Helvetica,sans-Serif" font-size="10.00">Graph</text>
</a>
</g>
</g>
<!-- Node1&#45;&gt;Node2 -->
<g id="edge1" class="edge">
<title>Node1&#45;&gt;Node2</title>
<path fill="none" stroke="midnightblue" d="M1837.8,-144.11C1816.93,-165.92 1778.01,-203.5 1738,-226 1730.53,-230.2 1722.28,-233.85 1714.01,-236.97"/>
<polygon fill="midnightblue" stroke="midnightblue" points="1840.57,-146.27 1844.88,-136.58 1835.47,-141.47 1840.57,-146.27"/>
</g>
<!-- Node4 -->
<g id="node4" class="node">
<title>Node4</title>
<g id="a_node4"><a xlink:href="classdenoptim_1_1graph_1_1rings_1_1_cyclic_graph_handler.html#a8dcec9483dc562e8696ea90a65842327" target="_top" xlink:title="Method to analyze a pair of vertices and evaluate whether they respect the criteria for being the two...">
<polygon fill="white" stroke="black" points="1581,-186 1581,-216 1734,-216 1734,-186 1581,-186"/>
<text text-anchor="start" x="1589" y="-204" font-family="Helvetica,sans-Serif" font-size="10.00">denoptim.graph.rings.Cyclic</text>
<text text-anchor="middle" x="1657.5" y="-193" font-family="Helvetica,sans-Serif" font-size="10.00">GraphHandler.evaluateRCVPair</text>
</a>
</g>
</g>
<!-- Node1&#45;&gt;Node4 -->
<g id="edge3" class="edge">
<title>Node1&#45;&gt;Node4</title>
<path fill="none" stroke="midnightblue" d="M1823.18,-140.81C1800.07,-151.11 1767.33,-165.2 1738,-176 1728.63,-179.45 1718.54,-182.86 1708.79,-185.99"/>
<polygon fill="midnightblue" stroke="midnightblue" points="1824.77,-143.94 1832.46,-136.65 1821.9,-137.55 1824.77,-143.94"/>
</g>
<!-- Node21 -->
<g id="node21" class="node">
<title>Node21</title>
<g id="a_node21"><a xlink:href="classdenoptim_1_1graph_1_1_d_graph.html#a5bac29c23eccedca8d2371ad372d87b6" target="_top" xlink:title=" ">
<polygon fill="white" stroke="black" points="1590.5,-137 1590.5,-167 1724.5,-167 1724.5,-137 1590.5,-137"/>
<text text-anchor="start" x="1598.5" y="-155" font-family="Helvetica,sans-Serif" font-size="10.00">denoptim.graph.DGraph.get</text>
<text text-anchor="middle" x="1657.5" y="-144" font-family="Helvetica,sans-Serif" font-size="10.00">BondingAPIndex</text>
</a>
</g>
</g>
<!-- Node1&#45;&gt;Node21 -->
<g id="edge24" class="edge">
<title>Node1&#45;&gt;Node21</title>
<path fill="none" stroke="midnightblue" d="M1769.01,-137.83C1754.14,-139.74 1738.86,-141.7 1724.59,-143.53"/>
<polygon fill="midnightblue" stroke="midnightblue" points="1769.75,-141.27 1779.22,-136.52 1768.86,-134.32 1769.75,-141.27"/>
</g>
<!-- Node22 -->
<g id="node22" class="node">
<title>Node22</title>
<g id="a_node22"><a xlink:href="classdenoptim_1_1ga_1_1_graph_operations.html#a7a13e1b1304c0857ae6fa97b744e7289" target="_top" xlink:title="Method to select fragments that increase the likeliness of generating closable chains.">
<polygon fill="white" stroke="black" points="1577,-88 1577,-118 1738,-118 1738,-88 1577,-88"/>
<text text-anchor="start" x="1585" y="-106" font-family="Helvetica,sans-Serif" font-size="10.00">denoptim.ga.GraphOperations.get</text>
<text text-anchor="middle" x="1657.5" y="-95" font-family="Helvetica,sans-Serif" font-size="10.00">FragmentForClosableChain</text>
</a>
</g>
</g>
<!-- Node1&#45;&gt;Node22 -->
<g id="edge25" class="edge">
<title>Node1&#45;&gt;Node22</title>
<path fill="none" stroke="midnightblue" d="M1766.16,-116.25C1756.89,-115.11 1747.49,-113.95 1738.31,-112.82"/>
<polygon fill="midnightblue" stroke="midnightblue" points="1765.8,-119.73 1776.15,-117.48 1766.65,-112.78 1765.8,-119.73"/>
</g>
<!-- Node25 -->
<g id="node25" class="node">
<title>Node25</title>
<g id="a_node25"><a xlink:href="classdenoptim_1_1graph_1_1rings_1_1_path_sub_graph.html#a5c018cc9952d2cac46a5d44f8bf06d8c" target="_top" xlink:title="Constructs a new PathSubGraph specifying the first and last vertex of the path.">
<polygon fill="white" stroke="black" points="1593.5,-39 1593.5,-69 1721.5,-69 1721.5,-39 1593.5,-39"/>
<text text-anchor="start" x="1601.5" y="-57" font-family="Helvetica,sans-Serif" font-size="10.00">denoptim.graph.rings.Path</text>
<text text-anchor="middle" x="1657.5" y="-46" font-family="Helvetica,sans-Serif" font-size="10.00">SubGraph.PathSubGraph</text>
</a>
</g>
</g>
<!-- Node1&#45;&gt;Node25 -->
<g id="edge28" class="edge">
<title>Node1&#45;&gt;Node25</title>
<path fill="none" stroke="midnightblue" d="M1823.64,-113.28C1800.52,-102.92 1767.57,-88.7 1738,-78 1729.46,-74.91 1720.31,-71.89 1711.36,-69.08"/>
<polygon fill="midnightblue" stroke="midnightblue" points="1822.35,-116.54 1832.9,-117.46 1825.23,-110.16 1822.35,-116.54"/>
</g>
<!-- Node26 -->
<g id="node26" class="node">
<title>Node26</title>
<g id="a_node26"><a xlink:href="classdenoptim_1_1graph_1_1_edge.html#a9a7430e5a0df146b404ca4d30e0beee4" target="_top" xlink:title=" ">
<polygon fill="white" stroke="black" points="1586,-0.5 1586,-19.5 1729,-19.5 1729,-0.5 1586,-0.5"/>
<text text-anchor="middle" x="1657.5" y="-7.5" font-family="Helvetica,sans-Serif" font-size="10.00">denoptim.graph.Edge.toString</text>
</a>
</g>
</g>
<!-- Node1&#45;&gt;Node26 -->
<g id="edge29" class="edge">
<title>Node1&#45;&gt;Node26</title>
<path fill="none" stroke="midnightblue" d="M1838.03,-109.57C1817.41,-87.44 1778.77,-49.66 1738,-29 1730.41,-25.15 1722,-22.06 1713.59,-19.59"/>
<polygon fill="midnightblue" stroke="midnightblue" points="1835.69,-112.19 1845.02,-117.21 1840.86,-107.47 1835.69,-112.19"/>
</g>
<!-- Node3 -->
<g id="node3" class="node">
<title>Node3</title>
<g id="a_node3"><a xlink:href="classdenoptim_1_1programs_1_1grapheditor_1_1_graph_editor.html#a649a62e3d4635ef4c19424fa49e6dcd4" target="_top" xlink:title=" ">
<polygon fill="white" stroke="black" points="1367,-238 1367,-268 1519,-268 1519,-238 1367,-238"/>
<text text-anchor="start" x="1375" y="-256" font-family="Helvetica,sans-Serif" font-size="10.00">denoptim.programs.grapheditor.</text>
<text text-anchor="middle" x="1443" y="-245" font-family="Helvetica,sans-Serif" font-size="10.00">GraphEditor.runProgram</text>
</a>
</g>
</g>
<!-- Node2&#45;&gt;Node3 -->
<g id="edge2" class="edge">
<title>Node2&#45;&gt;Node3</title>
<path fill="none" stroke="midnightblue" d="M1579.2,-252.36C1559.67,-252.46 1538.72,-252.55 1519.29,-252.65"/>
<polygon fill="midnightblue" stroke="midnightblue" points="1579.28,-255.86 1589.26,-252.32 1579.25,-248.86 1579.28,-255.86"/>
</g>
<!-- Node5 -->
<g id="node5" class="node">
<title>Node5</title>
<g id="a_node5"><a xlink:href="classdenoptim_1_1graph_1_1rings_1_1_cyclic_graph_handler_1_1_ring_size_manager.html#a68b1aa5cd1df8bb959064588e994b74e" target="_top" xlink:title=" ">
<polygon fill="white" stroke="black" points="1345,-178.5 1345,-219.5 1541,-219.5 1541,-178.5 1345,-178.5"/>
<text text-anchor="start" x="1353" y="-207.5" font-family="Helvetica,sans-Serif" font-size="10.00">denoptim.graph.rings.Cyclic</text>
<text text-anchor="start" x="1353" y="-196.5" font-family="Helvetica,sans-Serif" font-size="10.00">GraphHandler.RingSizeManager.calculate</text>
<text text-anchor="middle" x="1443" y="-185.5" font-family="Helvetica,sans-Serif" font-size="10.00">CompatibilityOfAllRCAPairs</text>
</a>
</g>
</g>
<!-- Node4&#45;&gt;Node5 -->
<g id="edge4" class="edge">
<title>Node4&#45;&gt;Node5</title>
<path fill="none" stroke="midnightblue" d="M1570.9,-200.19C1561.13,-200.1 1551.11,-200.01 1541.2,-199.91"/>
<polygon fill="midnightblue" stroke="midnightblue" points="1570.95,-203.69 1580.98,-200.29 1571.02,-196.7 1570.95,-203.69"/>
</g>
<!-- Node6 -->
<g id="node6" class="node">
<title>Node6</title>
<g id="a_node6"><a xlink:href="classdenoptim_1_1graph_1_1rings_1_1_cyclic_graph_handler_1_1_ring_size_manager.html#a0fc0f3889f18d330fc50f28a4264ca21" target="_top" xlink:title=" ">
<polygon fill="white" stroke="black" points="1127,-207.5 1127,-248.5 1300,-248.5 1300,-207.5 1127,-207.5"/>
<text text-anchor="start" x="1135" y="-236.5" font-family="Helvetica,sans-Serif" font-size="10.00">denoptim.graph.rings.Cyclic</text>
<text text-anchor="start" x="1135" y="-225.5" font-family="Helvetica,sans-Serif" font-size="10.00">GraphHandler.RingSizeManager.add</text>
<text text-anchor="middle" x="1213.5" y="-214.5" font-family="Helvetica,sans-Serif" font-size="10.00">RingClosingBond</text>
</a>
</g>
</g>
<!-- Node5&#45;&gt;Node6 -->
<g id="edge5" class="edge">
<title>Node5&#45;&gt;Node6</title>
<path fill="none" stroke="midnightblue" d="M1334.72,-212.68C1323.13,-214.15 1311.46,-215.64 1300.18,-217.08"/>
<polygon fill="midnightblue" stroke="midnightblue" points="1335.38,-216.12 1344.86,-211.38 1334.5,-209.18 1335.38,-216.12"/>
</g>
<!-- Node17 -->
<g id="node17" class="node">
<title>Node17</title>
<g id="a_node17"><a xlink:href="classdenoptim_1_1graph_1_1rings_1_1_cyclic_graph_handler_1_1_ring_size_manager.html#a9b1b85afae57c94c9059527bd796259c" target="_top" xlink:title=" ">
<polygon fill="white" stroke="black" points="1118,-159 1118,-189 1309,-189 1309,-159 1118,-159"/>
<text text-anchor="start" x="1126" y="-177" font-family="Helvetica,sans-Serif" font-size="10.00">denoptim.graph.rings.Cyclic</text>
<text text-anchor="middle" x="1213.5" y="-166" font-family="Helvetica,sans-Serif" font-size="10.00">GraphHandler.RingSizeManager.initialize</text>
</a>
</g>
</g>
<!-- Node5&#45;&gt;Node17 -->
<g id="edge18" class="edge">
<title>Node5&#45;&gt;Node17</title>
<path fill="none" stroke="midnightblue" d="M1334.83,-187.22C1326.25,-186.28 1317.63,-185.33 1309.15,-184.4"/>
<polygon fill="midnightblue" stroke="midnightblue" points="1334.54,-190.71 1344.86,-188.33 1335.3,-183.75 1334.54,-190.71"/>
</g>
<!-- Node7 -->
<g id="node7" class="node">
<title>Node7</title>
<g id="a_node7"><a xlink:href="classdenoptim_1_1graph_1_1rings_1_1_cyclic_graph_handler.html#a08b02946eaac7c2cbbe6e71332d702e6" target="_top" xlink:title="Identifies a random combination of ring closing paths and returns it as list of DENOPTIMRings ready t...">
<polygon fill="white" stroke="black" points="899,-207.5 899,-248.5 1081,-248.5 1081,-207.5 899,-207.5"/>
<text text-anchor="start" x="907" y="-236.5" font-family="Helvetica,sans-Serif" font-size="10.00">denoptim.graph.rings.Cyclic</text>
<text text-anchor="start" x="907" y="-225.5" font-family="Helvetica,sans-Serif" font-size="10.00">GraphHandler.getRandomCombination</text>
<text text-anchor="middle" x="990" y="-214.5" font-family="Helvetica,sans-Serif" font-size="10.00">OfRings</text>
</a>
</g>
</g>
<!-- Node6&#45;&gt;Node7 -->
<g id="edge6" class="edge">
<title>Node6&#45;&gt;Node7</title>
<path fill="none" stroke="midnightblue" d="M1116.6,-228C1104.84,-228 1092.85,-228 1081.18,-228"/>
<polygon fill="midnightblue" stroke="midnightblue" points="1116.86,-231.5 1126.86,-228 1116.86,-224.5 1116.86,-231.5"/>
</g>
<!-- Node8 -->
<g id="node8" class="node">
<title>Node8</title>
<g id="a_node8"><a xlink:href="classdenoptim_1_1ga_1_1_e_a_utils.html#a1ddb932d4618434d435e4f85ce5e5eb5" target="_top" xlink:title="Evaluates the possibility of closing rings in a given graph and if any ring can be closed,...">
<polygon fill="white" stroke="black" points="719,-213 719,-243 850,-243 850,-213 719,-213"/>
<text text-anchor="start" x="727" y="-231" font-family="Helvetica,sans-Serif" font-size="10.00">denoptim.ga.EAUtils.setup</text>
<text text-anchor="middle" x="784.5" y="-220" font-family="Helvetica,sans-Serif" font-size="10.00">Rings</text>
</a>
</g>
</g>
<!-- Node7&#45;&gt;Node8 -->
<g id="edge7" class="edge">
<title>Node7&#45;&gt;Node8</title>
<path fill="none" stroke="midnightblue" d="M888.84,-228C875.72,-228 862.56,-228 850.24,-228"/>
<polygon fill="midnightblue" stroke="midnightblue" points="888.85,-231.5 898.85,-228 888.85,-224.5 888.85,-231.5"/>
</g>
<!-- Node9 -->
<g id="node9" class="node">
<title>Node9</title>
<g id="a_node9"><a xlink:href="classdenoptim_1_1ga_1_1_e_a_utils.html#a5cb6bbe9f383bf821f3b1f1c5e60031b" target="_top" xlink:title=" ">
<polygon fill="white" stroke="black" points="535,-272 535,-302 662,-302 662,-272 535,-272"/>
<text text-anchor="start" x="543" y="-290" font-family="Helvetica,sans-Serif" font-size="10.00">denoptim.ga.EAUtils.build</text>
<text text-anchor="middle" x="598.5" y="-279" font-family="Helvetica,sans-Serif" font-size="10.00">CandidateByMutation</text>
</a>
</g>
</g>
<!-- Node8&#45;&gt;Node9 -->
<g id="edge8" class="edge">
<title>Node8&#45;&gt;Node9</title>
<path fill="none" stroke="midnightblue" d="M726.93,-246.14C701.09,-254.42 670.86,-264.12 646.32,-271.99"/>
<polygon fill="midnightblue" stroke="midnightblue" points="728.14,-249.43 736.59,-243.04 726,-242.76 728.14,-249.43"/>
</g>
<!-- Node14 -->
<g id="node14" class="node">
<title>Node14</title>
<g id="a_node14"><a xlink:href="classdenoptim_1_1ga_1_1_e_a_utils.html#a98553265dd4b441b11c6d97d098edb08" target="_top" xlink:title="Generates a new offspring by performing a crossover operation.">
<polygon fill="white" stroke="black" points="535,-223 535,-253 662,-253 662,-223 535,-223"/>
<text text-anchor="start" x="543" y="-241" font-family="Helvetica,sans-Serif" font-size="10.00">denoptim.ga.EAUtils.build</text>
<text text-anchor="middle" x="598.5" y="-230" font-family="Helvetica,sans-Serif" font-size="10.00">CandidateByXOver</text>
</a>
</g>
</g>
<!-- Node8&#45;&gt;Node14 -->
<g id="edge13" class="edge">
<title>Node8&#45;&gt;Node14</title>
<path fill="none" stroke="midnightblue" d="M708.81,-232.06C693.31,-232.9 677.12,-233.78 662.1,-234.6"/>
<polygon fill="midnightblue" stroke="midnightblue" points="709.09,-235.55 718.89,-231.51 708.71,-228.56 709.09,-235.55"/>
</g>
<!-- Node15 -->
<g id="node15" class="node">
<title>Node15</title>
<g id="a_node15"><a xlink:href="classdenoptim_1_1ga_1_1_e_a_utils.html#ad3d2daeb11e68a356e971ca1846596b5" target="_top" xlink:title=" ">
<polygon fill="white" stroke="black" points="535,-174 535,-204 662,-204 662,-174 535,-174"/>
<text text-anchor="start" x="543" y="-192" font-family="Helvetica,sans-Serif" font-size="10.00">denoptim.ga.EAUtils.build</text>
<text text-anchor="middle" x="598.5" y="-181" font-family="Helvetica,sans-Serif" font-size="10.00">CandidateFromScratch</text>
</a>
</g>
</g>
<!-- Node8&#45;&gt;Node15 -->
<g id="edge14" class="edge">
<title>Node8&#45;&gt;Node15</title>
<path fill="none" stroke="midnightblue" d="M708.81,-212.17C693.31,-208.88 677.12,-205.45 662.1,-202.27"/>
<polygon fill="midnightblue" stroke="midnightblue" points="708.38,-215.66 718.89,-214.3 709.83,-208.81 708.38,-215.66"/>
</g>
<!-- Node10 -->
<g id="node10" class="node">
<title>Node10</title>
<g id="a_node10"><a xlink:href="classdenoptim_1_1ga_1_1_evolutionary_algorithm.html#a596b2f5f0b097c5b67a6e5163bd6fe66" target="_top" xlink:title="Generates a given number of new candidate items and adds them to the current population.">
<polygon fill="white" stroke="black" points="353,-223 353,-253 487,-253 487,-223 353,-223"/>
<text text-anchor="start" x="361" y="-241" font-family="Helvetica,sans-Serif" font-size="10.00">denoptim.ga.Evolutionary</text>
<text text-anchor="middle" x="420" y="-230" font-family="Helvetica,sans-Serif" font-size="10.00">Algorithm.evolvePopulation</text>
</a>
</g>
</g>
<!-- Node9&#45;&gt;Node10 -->
<g id="edge9" class="edge">
<title>Node9&#45;&gt;Node10</title>
<path fill="none" stroke="midnightblue" d="M533.31,-269.18C514.25,-263.89 493.57,-258.15 475.22,-253.05"/>
<polygon fill="midnightblue" stroke="midnightblue" points="532.53,-272.6 543.1,-271.9 534.4,-265.85 532.53,-272.6"/>
</g>
<!-- Node11 -->
<g id="node11" class="node">
<title>Node11</title>
<g id="a_node11"><a xlink:href="classdenoptim_1_1ga_1_1_evolutionary_algorithm.html#a6bfc2fa59b199da6259b5b6bad3d6de7" target="_top" xlink:title=" ">
<polygon fill="white" stroke="black" points="190,-198 190,-228 314,-228 314,-198 190,-198"/>
<text text-anchor="start" x="198" y="-216" font-family="Helvetica,sans-Serif" font-size="10.00">denoptim.ga.Evolutionary</text>
<text text-anchor="middle" x="252" y="-205" font-family="Helvetica,sans-Serif" font-size="10.00">Algorithm.run</text>
</a>
</g>
</g>
<!-- Node10&#45;&gt;Node11 -->
<g id="edge10" class="edge">
<title>Node10&#45;&gt;Node11</title>
<path fill="none" stroke="midnightblue" d="M342.9,-226.54C333.21,-225.08 323.41,-223.6 314.01,-222.19"/>
<polygon fill="midnightblue" stroke="midnightblue" points="342.51,-230.02 352.92,-228.05 343.55,-223.1 342.51,-230.02"/>
</g>
<!-- Node12 -->
<g id="node12" class="node">
<title>Node12</title>
<g id="a_node12"><a xlink:href="classdenoptim_1_1ga_1_1_evolutionary_algorithm.html#a0f2063b722b7291daf83d62acaa683d3" target="_top" xlink:title=" ">
<polygon fill="white" stroke="black" points="0,-223 0,-253 154,-253 154,-223 0,-223"/>
<text text-anchor="start" x="8" y="-241" font-family="Helvetica,sans-Serif" font-size="10.00">denoptim.ga.Evolutionary</text>
<text text-anchor="middle" x="77" y="-230" font-family="Helvetica,sans-Serif" font-size="10.00">Algorithm.EvolutionaryAlgorithm</text>
</a>
</g>
</g>
<!-- Node11&#45;&gt;Node12 -->
<g id="edge11" class="edge">
<title>Node11&#45;&gt;Node12</title>
<path fill="none" stroke="midnightblue" d="M179.44,-223.34C171.09,-224.55 162.54,-225.78 154.12,-227"/>
<polygon fill="midnightblue" stroke="midnightblue" points="180.12,-226.78 189.52,-221.88 179.12,-219.85 180.12,-226.78"/>
</g>
<!-- Node13 -->
<g id="node13" class="node">
<title>Node13</title>
<g id="a_node13"><a xlink:href="classdenoptim_1_1programs_1_1denovo_1_1_g_a_runner.html#a7cafd6d78727b89dce3e2c8d06f0dd7c" target="_top" xlink:title=" ">
<polygon fill="white" stroke="black" points="9.5,-174 9.5,-204 144.5,-204 144.5,-174 9.5,-174"/>
<text text-anchor="start" x="17.5" y="-192" font-family="Helvetica,sans-Serif" font-size="10.00">denoptim.programs.denovo.</text>
<text text-anchor="middle" x="77" y="-181" font-family="Helvetica,sans-Serif" font-size="10.00">GARunner.runProgram</text>
</a>
</g>
</g>
<!-- Node11&#45;&gt;Node13 -->
<g id="edge12" class="edge">
<title>Node11&#45;&gt;Node13</title>
<path fill="none" stroke="midnightblue" d="M179.48,-203.08C167.92,-201.47 156,-199.82 144.57,-198.23"/>
<polygon fill="midnightblue" stroke="midnightblue" points="179.13,-206.56 189.52,-204.47 180.1,-199.63 179.13,-206.56"/>
</g>
<!-- Node15&#45;&gt;Node10 -->
<g id="edge15" class="edge">
<title>Node15&#45;&gt;Node10</title>
<path fill="none" stroke="midnightblue" d="M533.31,-206.82C514.25,-212.11 493.57,-217.85 475.22,-222.95"/>
<polygon fill="midnightblue" stroke="midnightblue" points="534.4,-210.15 543.1,-204.1 532.53,-203.4 534.4,-210.15"/>
</g>
<!-- Node16 -->
<g id="node16" class="node">
<title>Node16</title>
<g id="a_node16"><a xlink:href="classdenoptim_1_1ga_1_1_evolutionary_algorithm.html#ad43588620dab3340e0d8b0042ec73618" target="_top" xlink:title="Fills up the population with candidates build from scratch.">
<polygon fill="white" stroke="black" points="350,-174 350,-204 490,-204 490,-174 350,-174"/>
<text text-anchor="start" x="358" y="-192" font-family="Helvetica,sans-Serif" font-size="10.00">denoptim.ga.Evolutionary</text>
<text text-anchor="middle" x="420" y="-181" font-family="Helvetica,sans-Serif" font-size="10.00">Algorithm.initializePopulation</text>
</a>
</g>
</g>
<!-- Node15&#45;&gt;Node16 -->
<g id="edge16" class="edge">
<title>Node15&#45;&gt;Node16</title>
<path fill="none" stroke="midnightblue" d="M524.46,-189C513.1,-189 501.39,-189 490.12,-189"/>
<polygon fill="midnightblue" stroke="midnightblue" points="524.78,-192.5 534.78,-189 524.78,-185.5 524.78,-192.5"/>
</g>
<!-- Node16&#45;&gt;Node11 -->
<g id="edge17" class="edge">
<title>Node16&#45;&gt;Node11</title>
<path fill="none" stroke="midnightblue" d="M339.6,-200.48C331.08,-201.71 322.5,-202.95 314.24,-204.15"/>
<polygon fill="midnightblue" stroke="midnightblue" points="340.17,-203.93 349.56,-199.04 339.16,-197.01 340.17,-203.93"/>
</g>
<!-- Node17&#45;&gt;Node7 -->
<g id="edge23" class="edge">
<title>Node17&#45;&gt;Node7</title>
<path fill="none" stroke="midnightblue" d="M1141,-191.43C1120,-196.55 1096.84,-202.2 1075.13,-207.49"/>
<polygon fill="midnightblue" stroke="midnightblue" points="1141.91,-194.81 1150.8,-189.04 1140.26,-188.01 1141.91,-194.81"/>
</g>
<!-- Node18 -->
<g id="node18" class="node">
<title>Node18</title>
<g id="a_node18"><a xlink:href="classdenoptim_1_1graph_1_1rings_1_1_cyclic_graph_handler.html#a3ce96322723f45d9285a248ebcef94d3" target="_top" xlink:title="Identifies all possible ring closing paths and returns them as list of DENOPTIMRings ready to be appe...">
<polygon fill="white" stroke="black" points="898,-147.5 898,-188.5 1082,-188.5 1082,-147.5 898,-147.5"/>
<text text-anchor="start" x="906" y="-176.5" font-family="Helvetica,sans-Serif" font-size="10.00">denoptim.graph.rings.Cyclic</text>
<text text-anchor="start" x="906" y="-165.5" font-family="Helvetica,sans-Serif" font-size="10.00">GraphHandler.getPossibleCombination</text>
<text text-anchor="middle" x="990" y="-154.5" font-family="Helvetica,sans-Serif" font-size="10.00">OfRings</text>
</a>
</g>
</g>
<!-- Node17&#45;&gt;Node18 -->
<g id="edge19" class="edge">
<title>Node17&#45;&gt;Node18</title>
<path fill="none" stroke="midnightblue" d="M1107.85,-171.17C1099.25,-170.93 1090.59,-170.7 1082.1,-170.47"/>
<polygon fill="midnightblue" stroke="midnightblue" points="1107.83,-174.67 1117.92,-171.44 1108.02,-167.67 1107.83,-174.67"/>
</g>
<!-- Node18&#45;&gt;Node8 -->
<g id="edge22" class="edge">
<title>Node18&#45;&gt;Node8</title>
<path fill="none" stroke="midnightblue" d="M909.58,-191.42C885.02,-198.66 858.63,-206.44 836.53,-212.96"/>
<polygon fill="midnightblue" stroke="midnightblue" points="910.65,-194.75 919.25,-188.56 908.67,-188.04 910.65,-194.75"/>
</g>
<!-- Node19 -->
<g id="node19" class="node">
<title>Node19</title>
<g id="a_node19"><a xlink:href="classdenoptim_1_1graph_1_1_d_graph.html#a7a4743d014e860237f4b20703ef9779b" target="_top" xlink:title="Evaluates the possibility of closing rings in this graph and generates all alternative graphs resulti...">
<polygon fill="white" stroke="black" points="707,-134 707,-164 862,-164 862,-134 707,-134"/>
<text text-anchor="start" x="715" y="-152" font-family="Helvetica,sans-Serif" font-size="10.00">denoptim.graph.DGraph.make</text>
<text text-anchor="middle" x="784.5" y="-141" font-family="Helvetica,sans-Serif" font-size="10.00">AllGraphsWithDifferentRingSets</text>
</a>
</g>
</g>
<!-- Node18&#45;&gt;Node19 -->
<g id="edge20" class="edge">
<title>Node18&#45;&gt;Node19</title>
<path fill="none" stroke="midnightblue" d="M887.84,-158.56C879.2,-157.75 870.56,-156.94 862.16,-156.16"/>
<polygon fill="midnightblue" stroke="midnightblue" points="887.68,-162.06 897.96,-159.5 888.33,-155.09 887.68,-162.06"/>
</g>
<!-- Node20 -->
<g id="node20" class="node">
<title>Node20</title>
<g id="a_node20"><a xlink:href="classdenoptim_1_1combinatorial_1_1_graph_building_task.html#a3eaee724fc921194fa158714aafe182d" target="_top" xlink:title="Calls the task.">
<polygon fill="white" stroke="black" points="526,-125 526,-155 671,-155 671,-125 526,-125"/>
<text text-anchor="start" x="534" y="-143" font-family="Helvetica,sans-Serif" font-size="10.00">denoptim.combinatorial.Graph</text>
<text text-anchor="middle" x="598.5" y="-132" font-family="Helvetica,sans-Serif" font-size="10.00">BuildingTask.call</text>
</a>
</g>
</g>
<!-- Node19&#45;&gt;Node20 -->
<g id="edge21" class="edge">
<title>Node19&#45;&gt;Node20</title>
<path fill="none" stroke="midnightblue" d="M696.75,-144.76C688.15,-144.34 679.49,-143.91 671.07,-143.5"/>
<polygon fill="midnightblue" stroke="midnightblue" points="696.64,-148.26 706.8,-145.25 696.98,-141.26 696.64,-148.26"/>
</g>
<!-- Node23 -->
<g id="node23" class="node">
<title>Node23</title>
<g id="a_node23"><a xlink:href="classdenoptim_1_1ga_1_1_graph_operations.html#a39422068717596d7a2598665eb8bb692" target="_top" xlink:title=" ">
<polygon fill="white" stroke="black" points="1356,-88 1356,-118 1530,-118 1530,-88 1356,-88"/>
<text text-anchor="start" x="1364" y="-106" font-family="Helvetica,sans-Serif" font-size="10.00">denoptim.ga.GraphOperations.attach</text>
<text text-anchor="middle" x="1443" y="-95" font-family="Helvetica,sans-Serif" font-size="10.00">FragmentInClosableChain</text>
</a>
</g>
</g>
<!-- Node22&#45;&gt;Node23 -->
<g id="edge26" class="edge">
<title>Node22&#45;&gt;Node23</title>
<path fill="none" stroke="midnightblue" d="M1566.7,-103C1554.62,-103 1542.25,-103 1530.23,-103"/>
<polygon fill="midnightblue" stroke="midnightblue" points="1566.77,-106.5 1576.77,-103 1566.77,-99.5 1566.77,-106.5"/>
</g>
<!-- Node24 -->
<g id="node24" class="node">
<title>Node24</title>
<g id="a_node24"><a xlink:href="classdenoptim_1_1ga_1_1_graph_operations.html#a104e82aba7242a457da09540ff0400da" target="_top" xlink:title="function that will keep extending the graph.">
<polygon fill="white" stroke="black" points="1125.5,-88 1125.5,-118 1301.5,-118 1301.5,-88 1125.5,-88"/>
<text text-anchor="start" x="1133.5" y="-106" font-family="Helvetica,sans-Serif" font-size="10.00">denoptim.ga.GraphOperations.extend</text>
<text text-anchor="middle" x="1213.5" y="-95" font-family="Helvetica,sans-Serif" font-size="10.00">Graph</text>
</a>
</g>
</g>
<!-- Node23&#45;&gt;Node24 -->
<g id="edge27" class="edge">
<title>Node23&#45;&gt;Node24</title>
<path fill="none" stroke="midnightblue" d="M1345.92,-103C1331.27,-103 1316.21,-103 1301.76,-103"/>
<polygon fill="midnightblue" stroke="midnightblue" points="1345.99,-106.5 1355.99,-103 1345.99,-99.5 1345.99,-106.5"/>
</g>
</g>
</svg>
