<?xml version="1.0" encoding="UTF-8" standalone="no"?>
<!DOCTYPE svg PUBLIC "-//W3C//DTD SVG 1.1//EN"
 "http://www.w3.org/Graphics/SVG/1.1/DTD/svg11.dtd">
<!-- Generated by graphviz version 3.0.0 (20220413.0242)
 -->
<!-- Title: denoptim.gui.CompatibilityMatrixForm.CompatibilityRuleLine Pages: 1 -->
<!--zoomable 377 -->
<svg id="main" version="1.1" xmlns="http://www.w3.org/2000/svg" xmlns:xlink="http://www.w3.org/1999/xlink" xml:space="preserve" onload="init(evt)">
<style type="text/css"><![CDATA[
.edge:hover path { stroke: red; }
.edge:hover polygon { stroke: red; fill: red; }
]]></style>
<script type="text/javascript"><![CDATA[
var edges = document.getElementsByTagName('g');
if (edges && edges.length) {
  for (var i=0;i<edges.length;i++) {
    if (edges[i].id.substr(0,4)=='edge') {
      edges[i].setAttribute('class','edge');
    }
  }
}
]]></script>
        <defs>
                <circle id="rim" cx="0" cy="0" r="7"/>
                <circle id="rim2" cx="0" cy="0" r="3.5"/>
                <g id="zoomPlus">
                        <use xlink:href="#rim" fill="#404040">
                                <set attributeName="fill" to="#808080" begin="zoomplus.mouseover" end="zoomplus.mouseout"/>
                        </use>
                        <path d="M-4,0h8M0,-4v8" fill="none" stroke="white" stroke-width="1.5" pointer-events="none"/>
                </g>
                <g id="zoomMin">
                        <use xlink:href="#rim" fill="#404040">
                                <set attributeName="fill" to="#808080" begin="zoomminus.mouseover" end="zoomminus.mouseout"/>
                        </use>
                        <path d="M-4,0h8" fill="none" stroke="white" stroke-width="1.5" pointer-events="none"/>
                </g>
                <g id="dirArrow">
                        <path fill="none" stroke="white" stroke-width="1.5" d="M0,-3.0v7 M-2.5,-0.5L0,-3.0L2.5,-0.5"/>
                </g>
               <g id="resetDef">
                       <use xlink:href="#rim2" fill="#404040">
                               <set attributeName="fill" to="#808080" begin="reset.mouseover" end="reset.mouseout"/>
                       </use>
               </g>
        </defs>

<script type="text/javascript">
var viewWidth = 1065;
var viewHeight = 377;
var sectionId = 'dynsection-1';
</script>
<script xlink:href="svgpan.js"/>
<svg id="graph" class="graph">
<g id="viewport">
<title>denoptim.gui.CompatibilityMatrixForm.CompatibilityRuleLine</title>
<polygon fill="white" stroke="transparent" points="-4,4 -4,-373.46 1061,-373.46 1061,4 -4,4"/>
<!-- Node1 -->
<g id="node1" class="node">
<title>Node1</title>
<g id="a_node1"><a xlink:title="Single line in the list of APClass compatibility rules.">
<polygon fill="#bfbfbf" stroke="black" points="896,-197.98 896,-227.98 1057,-227.98 1057,-197.98 896,-197.98"/>
<text text-anchor="start" x="904" y="-215.98" font-family="Helvetica,sans-Serif" font-size="10.00">denoptim.gui.Compatibility</text>
<text text-anchor="middle" x="976.5" y="-204.98" font-family="Helvetica,sans-Serif" font-size="10.00">MatrixForm.CompatibilityRuleLine</text>
</a>
</g>
</g>
<!-- Node2 -->
<g id="node2" class="node">
<title>Node2</title>
<g id="a_node2"><a xlink:title=" ">
<polygon fill="white" stroke="black" points="638,-346.48 638,-365.48 685,-365.48 685,-346.48 638,-346.48"/>
<text text-anchor="middle" x="661.5" y="-353.48" font-family="Helvetica,sans-Serif" font-size="10.00">JPanel</text>
</a>
</g>
</g>
<!-- Node2&#45;&gt;Node1 -->
<g id="edge1" class="edge">
<title>Node2&#45;&gt;Node1</title>
<path fill="none" stroke="midnightblue" d="M695.19,-362.75C739.51,-370.15 819.79,-377.2 878,-345.98 926.95,-319.73 957.7,-256.89 969.73,-227.99"/>
<polygon fill="midnightblue" stroke="midnightblue" points="695.71,-359.28 685.26,-360.98 694.49,-366.18 695.71,-359.28"/>
</g>
<!-- Node2&#45;&gt;Node1 -->
<g id="edge5" class="edge">
<title>Node2&#45;&gt;Node1</title>
<path fill="none" stroke="#9a32cd" stroke-dasharray="5,2" d="M695.13,-347.54C713.29,-342.97 736.33,-337.37 757,-332.98 810.47,-321.63 829.62,-336.41 878,-310.98 916.45,-290.77 949.27,-250.15 965.2,-228.08"/>
<polygon fill="#9a32cd" stroke="#9a32cd" points="694.16,-344.17 685.33,-350.03 695.88,-350.96 694.16,-344.17"/>
<text text-anchor="middle" x="817.5" y="-335.98" font-family="Helvetica,sans-Serif" font-size="10.00"> trgClassesPanel</text>
</g>
<!-- Node3 -->
<g id="node3" class="node">
<title>Node3</title>
<g id="a_node3"><a xlink:title=" ">
<polygon fill="white" stroke="black" points="621,-302.48 621,-321.48 702,-321.48 702,-302.48 621,-302.48"/>
<text text-anchor="middle" x="661.5" y="-309.48" font-family="Helvetica,sans-Serif" font-size="10.00">MouseListener</text>
</a>
</g>
</g>
<!-- Node3&#45;&gt;Node1 -->
<g id="edge2" class="edge">
<title>Node3&#45;&gt;Node1</title>
<path fill="none" stroke="midnightblue" d="M712.19,-312.81C757.05,-311.93 824.08,-306.54 878,-284.98 910.82,-271.86 942.56,-244.95 960.49,-228"/>
<polygon fill="midnightblue" stroke="midnightblue" points="712.08,-309.31 702.13,-312.93 712.17,-316.31 712.08,-309.31"/>
</g>
<!-- Node4 -->
<g id="node4" class="node">
<title>Node4</title>
<g id="a_node4"><a xlink:title=" ">
<polygon fill="white" stroke="black" points="630.5,-264.48 630.5,-283.48 692.5,-283.48 692.5,-264.48 630.5,-264.48"/>
<text text-anchor="middle" x="661.5" y="-271.48" font-family="Helvetica,sans-Serif" font-size="10.00">JTextField</text>
</a>
</g>
</g>
<!-- Node4&#45;&gt;Node1 -->
<g id="edge3" class="edge">
<title>Node4&#45;&gt;Node1</title>
<path fill="none" stroke="#9a32cd" stroke-dasharray="5,2" d="M702.83,-273.55C746.57,-272.27 818.17,-267.83 878,-252.98 901.26,-247.21 926.25,-236.87 945.1,-228.15"/>
<polygon fill="#9a32cd" stroke="#9a32cd" points="702.5,-270.05 692.59,-273.8 702.68,-277.05 702.5,-270.05"/>
<text text-anchor="middle" x="817.5" y="-272.98" font-family="Helvetica,sans-Serif" font-size="10.00"> srcClassName</text>
</g>
<!-- Node5 -->
<g id="node5" class="node">
<title>Node5</title>
<g id="a_node5"><a xlink:title=" ">
<polygon fill="white" stroke="black" points="627,-225.48 627,-244.48 696,-244.48 696,-225.48 627,-225.48"/>
<text text-anchor="middle" x="661.5" y="-232.48" font-family="Helvetica,sans-Serif" font-size="10.00">JScrollPane</text>
</a>
</g>
</g>
<!-- Node5&#45;&gt;Node1 -->
<g id="edge4" class="edge">
<title>Node5&#45;&gt;Node1</title>
<path fill="none" stroke="#9a32cd" stroke-dasharray="5,2" d="M706.56,-231.89C755.6,-228.44 835.83,-222.8 895.93,-218.58"/>
<polygon fill="#9a32cd" stroke="#9a32cd" points="706.02,-228.41 696.29,-232.61 706.51,-235.4 706.02,-228.41"/>
<text text-anchor="middle" x="817.5" y="-240.98" font-family="Helvetica,sans-Serif" font-size="10.00"> srcClassNameScroller</text>
<text text-anchor="middle" x="817.5" y="-229.98" font-family="Helvetica,sans-Serif" font-size="10.00">trgClassesScroller</text>
</g>
<!-- Node6 -->
<g id="node6" class="node">
<title>Node6</title>
<g id="a_node6"><a xlink:title=" ">
<polygon fill="white" stroke="black" points="636.5,-187.48 636.5,-206.48 686.5,-206.48 686.5,-187.48 636.5,-187.48"/>
<text text-anchor="middle" x="661.5" y="-194.48" font-family="Helvetica,sans-Serif" font-size="10.00">JButton</text>
</a>
</g>
</g>
<!-- Node6&#45;&gt;Node1 -->
<g id="edge6" class="edge">
<title>Node6&#45;&gt;Node1</title>
<path fill="none" stroke="#9a32cd" stroke-dasharray="5,2" d="M696.9,-195.26C739.5,-193.53 814.23,-191.78 878,-196.98 883.81,-197.46 889.8,-198.09 895.82,-198.82"/>
<polygon fill="#9a32cd" stroke="#9a32cd" points="696.63,-191.77 686.79,-195.7 696.93,-198.77 696.63,-191.77"/>
<text text-anchor="middle" x="817.5" y="-199.98" font-family="Helvetica,sans-Serif" font-size="10.00"> btnAdd</text>
</g>
<!-- Node7 -->
<g id="node7" class="node">
<title>Node7</title>
<g id="a_node7"><a xlink:href="classdenoptim_1_1gui_1_1_compatibility_matrix_form_1_1_trg_removal_listener.html" target="_top" xlink:title="Listens for clicks that require removal of a compatible APClass (i.e., the target APClass) from the e...">
<polygon fill="white" stroke="black" points="584,-137.98 584,-167.98 739,-167.98 739,-137.98 584,-137.98"/>
<text text-anchor="start" x="592" y="-155.98" font-family="Helvetica,sans-Serif" font-size="10.00">denoptim.gui.Compatibility</text>
<text text-anchor="middle" x="661.5" y="-144.98" font-family="Helvetica,sans-Serif" font-size="10.00">MatrixForm.TrgRemovalListener</text>
</a>
</g>
</g>
<!-- Node7&#45;&gt;Node1 -->
<g id="edge7" class="edge">
<title>Node7&#45;&gt;Node1</title>
<path fill="none" stroke="#9a32cd" stroke-dasharray="5,2" d="M749.2,-158.48C788.83,-162.15 836.17,-168.18 878,-177.98 898.84,-182.86 921.37,-190.77 939.52,-197.83"/>
<polygon fill="#9a32cd" stroke="#9a32cd" points="749.3,-154.98 739.03,-157.57 748.68,-161.95 749.3,-154.98"/>
<text text-anchor="middle" x="817.5" y="-180.98" font-family="Helvetica,sans-Serif" font-size="10.00"> trgDelListener</text>
</g>
<!-- Node8 -->
<g id="node8" class="node">
<title>Node8</title>
<g id="a_node8"><a xlink:title=" ">
<polygon fill="white" stroke="black" points="371,-157.48 371,-176.48 492,-176.48 492,-157.48 371,-157.48"/>
<text text-anchor="middle" x="431.5" y="-164.48" font-family="Helvetica,sans-Serif" font-size="10.00">PropertyChangeListener</text>
</a>
</g>
</g>
<!-- Node8&#45;&gt;Node7 -->
<g id="edge8" class="edge">
<title>Node8&#45;&gt;Node7</title>
<path fill="none" stroke="midnightblue" d="M502.16,-162.7C527.92,-161.12 557.26,-159.32 583.62,-157.7"/>
<polygon fill="midnightblue" stroke="midnightblue" points="501.87,-159.22 492.11,-163.32 502.3,-166.2 501.87,-159.22"/>
</g>
<!-- Node9 -->
<g id="node9" class="node">
<title>Node9</title>
<g id="a_node9"><a xlink:href="classdenoptim_1_1graph_1_1_a_p_class.html" target="_top" xlink:title=" ">
<polygon fill="white" stroke="black" points="370,-109.48 370,-128.48 493,-128.48 493,-109.48 370,-109.48"/>
<text text-anchor="middle" x="431.5" y="-116.48" font-family="Helvetica,sans-Serif" font-size="10.00">denoptim.graph.APClass</text>
</a>
</g>
</g>
<!-- Node9&#45;&gt;Node1 -->
<g id="edge15" class="edge">
<title>Node9&#45;&gt;Node1</title>
<path fill="none" stroke="#9a32cd" stroke-dasharray="5,2" d="M503.48,-111.47C594.17,-104.77 754.22,-102.88 878,-154.98 905.59,-166.6 934.79,-184.87 953.96,-197.79"/>
<polygon fill="#9a32cd" stroke="#9a32cd" points="503.01,-107.99 493.31,-112.26 503.55,-114.97 503.01,-107.99"/>
<text text-anchor="middle" x="661.5" y="-119.98" font-family="Helvetica,sans-Serif" font-size="10.00"> srcAPClass</text>
</g>
<!-- Node9&#45;&gt;Node7 -->
<g id="edge9" class="edge">
<title>Node9&#45;&gt;Node7</title>
<path fill="none" stroke="#9a32cd" stroke-dasharray="5,2" d="M503,-129.5C528.6,-133.31 557.64,-137.64 583.76,-141.54"/>
<polygon fill="#9a32cd" stroke="#9a32cd" points="503.41,-126.02 493,-128 502.38,-132.94 503.41,-126.02"/>
<text text-anchor="middle" x="538.5" y="-140.98" font-family="Helvetica,sans-Serif" font-size="10.00"> srcAPClass</text>
</g>
<!-- Node10 -->
<g id="node10" class="node">
<title>Node10</title>
<g id="a_node10"><a xlink:title=" ">
<polygon fill="white" stroke="black" points="139,-166.48 139,-185.48 198,-185.48 198,-166.48 139,-166.48"/>
<text text-anchor="middle" x="168.5" y="-173.48" font-family="Helvetica,sans-Serif" font-size="10.00">Cloneable</text>
</a>
</g>
</g>
<!-- Node10&#45;&gt;Node9 -->
<g id="edge10" class="edge">
<title>Node10&#45;&gt;Node9</title>
<path fill="none" stroke="midnightblue" d="M208,-169.57C245.07,-163.16 302.63,-152.61 352,-140.98 367.43,-137.35 384.38,-132.68 398.58,-128.58"/>
<polygon fill="midnightblue" stroke="midnightblue" points="207.37,-166.12 198.11,-171.26 208.55,-173.02 207.37,-166.12"/>
</g>
<!-- Node11 -->
<g id="node11" class="node">
<title>Node11</title>
<g id="a_node11"><a xlink:title=" ">
<polygon fill="white" stroke="black" points="107,-128.48 107,-147.48 230,-147.48 230,-128.48 107,-128.48"/>
<text text-anchor="middle" x="168.5" y="-135.48" font-family="Helvetica,sans-Serif" font-size="10.00">Comparable&lt; APClass &gt;</text>
</a>
</g>
</g>
<!-- Node11&#45;&gt;Node9 -->
<g id="edge11" class="edge">
<title>Node11&#45;&gt;Node9</title>
<path fill="none" stroke="midnightblue" d="M240.12,-132.84C280.68,-129.89 331.09,-126.22 369.84,-123.4"/>
<polygon fill="midnightblue" stroke="midnightblue" points="239.75,-129.36 230.03,-133.58 240.26,-136.34 239.75,-129.36"/>
</g>
<!-- Node12 -->
<g id="node12" class="node">
<title>Node12</title>
<g id="a_node12"><a xlink:title=" ">
<polygon fill="white" stroke="black" points="91,-90.48 91,-109.48 246,-109.48 246,-90.48 91,-90.48"/>
<text text-anchor="middle" x="168.5" y="-97.48" font-family="Helvetica,sans-Serif" font-size="10.00">Set&lt; denoptim.graph.APClass &gt;</text>
</a>
</g>
</g>
<!-- Node12&#45;&gt;Node9 -->
<g id="edge12" class="edge">
<title>Node12&#45;&gt;Node9</title>
<path fill="none" stroke="#9a32cd" stroke-dasharray="5,2" d="M256.27,-94.91C286.65,-94.35 320.93,-95.09 352,-98.98 368.19,-101.01 385.82,-105.31 400.27,-109.4"/>
<polygon fill="#9a32cd" stroke="#9a32cd" points="256.04,-91.41 246.13,-95.15 256.21,-98.41 256.04,-91.41"/>
<text text-anchor="middle" x="308" y="-112.98" font-family="Helvetica,sans-Serif" font-size="10.00"> RCAAPCLASSSET</text>
<text text-anchor="middle" x="308" y="-101.98" font-family="Helvetica,sans-Serif" font-size="10.00">uniqueAPClasses</text>
</g>
<!-- Node13 -->
<g id="node13" class="node">
<title>Node13</title>
<g id="a_node13"><a xlink:href="enumdenoptim_1_1graph_1_1_edge_1_1_bond_type.html" target="_top" xlink:title="Possible chemical bond types an edge can represent.">
<polygon fill="white" stroke="black" points="92.5,-46.48 92.5,-65.48 244.5,-65.48 244.5,-46.48 92.5,-46.48"/>
<text text-anchor="middle" x="168.5" y="-53.48" font-family="Helvetica,sans-Serif" font-size="10.00">denoptim.graph.Edge.BondType</text>
</a>
</g>
</g>
<!-- Node13&#45;&gt;Node9 -->
<g id="edge13" class="edge">
<title>Node13&#45;&gt;Node9</title>
<path fill="none" stroke="#9a32cd" stroke-dasharray="5,2" d="M255.24,-52.71C286.38,-53.82 321.41,-57.81 352,-67.98 378.84,-76.9 405.46,-97.26 419.76,-109.38"/>
<polygon fill="#9a32cd" stroke="#9a32cd" points="254.93,-49.2 244.84,-52.44 254.75,-56.2 254.93,-49.2"/>
<text text-anchor="middle" x="308" y="-81.98" font-family="Helvetica,sans-Serif" font-size="10.00"> DEFAULTBT</text>
<text text-anchor="middle" x="308" y="-70.98" font-family="Helvetica,sans-Serif" font-size="10.00">bndTyp</text>
</g>
<!-- Node14 -->
<g id="node14" class="node">
<title>Node14</title>
<g id="a_node14"><a xlink:title=" ">
<polygon fill="white" stroke="black" points="0,-46.48 0,-65.48 42,-65.48 42,-46.48 0,-46.48"/>
<text text-anchor="middle" x="21" y="-53.48" font-family="Helvetica,sans-Serif" font-size="10.00">IBond</text>
</a>
</g>
</g>
<!-- Node14&#45;&gt;Node13 -->
<g id="edge14" class="edge">
<title>Node14&#45;&gt;Node13</title>
<path fill="none" stroke="#9a32cd" stroke-dasharray="5,2" d="M52.33,-55.98C64.08,-55.98 78.11,-55.98 92.26,-55.98"/>
<polygon fill="#9a32cd" stroke="#9a32cd" points="52.23,-52.48 42.23,-55.98 52.23,-59.48 52.23,-52.48"/>
<text text-anchor="middle" x="66.5" y="-58.98" font-family="Helvetica,sans-Serif" font-size="10.00"> bo</text>
</g>
<!-- Node15 -->
<g id="node15" class="node">
<title>Node15</title>
<g id="a_node15"><a xlink:title=" ">
<polygon fill="white" stroke="black" points="630.5,-52.48 630.5,-71.48 692.5,-71.48 692.5,-52.48 630.5,-52.48"/>
<text text-anchor="middle" x="661.5" y="-59.48" font-family="Helvetica,sans-Serif" font-size="10.00">Dimension</text>
</a>
</g>
</g>
<!-- Node15&#45;&gt;Node1 -->
<g id="edge16" class="edge">
<title>Node15&#45;&gt;Node1</title>
<path fill="none" stroke="#9a32cd" stroke-dasharray="5,2" d="M702.7,-53.77C748.26,-46.64 823.3,-41.66 878,-71.98 928.76,-100.12 958.76,-167.2 970.18,-197.57"/>
<polygon fill="#9a32cd" stroke="#9a32cd" points="701.9,-50.36 692.61,-55.46 703.05,-57.26 701.9,-50.36"/>
<text text-anchor="middle" x="817.5" y="-85.98" font-family="Helvetica,sans-Serif" font-size="10.00"> minSrcAPClassName</text>
<text text-anchor="middle" x="817.5" y="-74.98" font-family="Helvetica,sans-Serif" font-size="10.00">scrollerSize</text>
</g>
<!-- Node16 -->
<g id="node16" class="node">
<title>Node16</title>
<g id="a_node16"><a xlink:title=" ">
<polygon fill="white" stroke="black" points="642,-11.48 642,-30.48 681,-30.48 681,-11.48 642,-11.48"/>
<text text-anchor="middle" x="661.5" y="-18.48" font-family="Helvetica,sans-Serif" font-size="10.00">Color</text>
</a>
</g>
</g>
<!-- Node16&#45;&gt;Node1 -->
<g id="edge17" class="edge">
<title>Node16&#45;&gt;Node1</title>
<path fill="none" stroke="#9a32cd" stroke-dasharray="5,2" d="M690.98,-12.58C734.8,-1.43 819.79,12.95 878,-22.98 942.52,-62.8 966.18,-160.25 973.08,-197.84"/>
<polygon fill="#9a32cd" stroke="#9a32cd" points="690.02,-9.21 681.27,-15.17 691.83,-15.97 690.02,-9.21"/>
<text text-anchor="middle" x="817.5" y="-36.98" font-family="Helvetica,sans-Serif" font-size="10.00"> DEFAULTBACKGROUND</text>
<text text-anchor="middle" x="817.5" y="-25.98" font-family="Helvetica,sans-Serif" font-size="10.00">SELECTEDBACKGROUND</text>
</g>
</g>
</svg>
        <g id="navigator" transform="translate(0 0)" fill="#404254">
                <rect fill="#f2f5e9" fill-opacity="0.5" stroke="#606060" stroke-width=".5" x="0" y="0" width="60" height="60"/>
                <use id="zoomplus" xlink:href="#zoomPlus" x="17" y="9" onmousedown="handleZoom(evt,'in')"/>
                <use id="zoomminus" xlink:href="#zoomMin" x="42" y="9" onmousedown="handleZoom(evt,'out')"/>
                <use id="reset" xlink:href="#resetDef" x="30" y="36" onmousedown="handleReset()"/>
                <g id="arrowUp" xlink:href="#dirArrow" transform="translate(30 24)" onmousedown="handlePan(0,-1)">
                  <use xlink:href="#rim" fill="#404040">
                        <set attributeName="fill" to="#808080" begin="arrowUp.mouseover" end="arrowUp.mouseout"/>
                  </use>
                  <path fill="none" stroke="white" stroke-width="1.5" d="M0,-3.0v7 M-2.5,-0.5L0,-3.0L2.5,-0.5"/>
                </g>
                <g id="arrowRight" xlink:href="#dirArrow" transform="rotate(90) translate(36 -43)" onmousedown="handlePan(1,0)">
                  <use xlink:href="#rim" fill="#404040">
                        <set attributeName="fill" to="#808080" begin="arrowRight.mouseover" end="arrowRight.mouseout"/>
                  </use>
                  <path fill="none" stroke="white" stroke-width="1.5" d="M0,-3.0v7 M-2.5,-0.5L0,-3.0L2.5,-0.5"/>
                </g>
                <g id="arrowDown" xlink:href="#dirArrow" transform="rotate(180) translate(-30 -48)" onmousedown="handlePan(0,1)">
                  <use xlink:href="#rim" fill="#404040">
                        <set attributeName="fill" to="#808080" begin="arrowDown.mouseover" end="arrowDown.mouseout"/>
                  </use>
                  <path fill="none" stroke="white" stroke-width="1.5" d="M0,-3.0v7 M-2.5,-0.5L0,-3.0L2.5,-0.5"/>
                </g>
                <g id="arrowLeft" xlink:href="#dirArrow" transform="rotate(270) translate(-36 17)" onmousedown="handlePan(-1,0)">
                  <use xlink:href="#rim" fill="#404040">
                        <set attributeName="fill" to="#808080" begin="arrowLeft.mouseover" end="arrowLeft.mouseout"/>
                  </use>
                  <path fill="none" stroke="white" stroke-width="1.5" d="M0,-3.0v7 M-2.5,-0.5L0,-3.0L2.5,-0.5"/>
                </g>
        </g>
        <svg viewBox="0 0 15 15" width="100%" height="30px" preserveAspectRatio="xMaxYMin meet">
         <g id="arrow_out" transform="scale(0.3 0.3)">
          <a xlink:href="classdenoptim_1_1gui_1_1_compatibility_matrix_form_1_1_compatibility_rule_line__coll__graph_org.svg" target="_base">
           <rect id="button" ry="5" rx="5" y="6" x="6" height="38" width="38"
                fill="#f2f5e9" fill-opacity="0.5" stroke="#606060" stroke-width="1.0"/>
           <path id="arrow"
             d="M 11.500037,31.436501 C 11.940474,20.09759 22.043105,11.32322 32.158766,21.979434 L 37.068811,17.246167 C 37.068811,17.246167 37.088388,32 37.088388,32 L 22.160133,31.978069 C 22.160133,31.978069 26.997745,27.140456 26.997745,27.140456 C 18.528582,18.264221 13.291696,25.230495 11.500037,31.436501 z"
             style="fill:#404040;"/>
          </a>
         </g>
        </svg>
</svg>
