<?xml version="1.0" encoding="UTF-8" standalone="no"?>
<!DOCTYPE svg PUBLIC "-//W3C//DTD SVG 1.1//EN"
 "http://www.w3.org/Graphics/SVG/1.1/DTD/svg11.dtd">
<!-- Generated by graphviz version 3.0.0 (20220413.0242)
 -->
<!-- Title: denoptim.gui.VertexViewPanel.initialize Pages: 1 -->
<svg width="408pt" height="137pt"
 viewBox="0.00 0.00 408.00 137.00" xmlns="http://www.w3.org/2000/svg" xmlns:xlink="http://www.w3.org/1999/xlink">
<g id="graph0" class="graph" transform="scale(1 1) rotate(0) translate(4 133)">
<title>denoptim.gui.VertexViewPanel.initialize</title>
<polygon fill="white" stroke="transparent" points="-4,4 -4,-133 404,-133 404,4 -4,4"/>
<!-- Node1 -->
<g id="node1" class="node">
<title>Node1</title>
<g id="a_node1"><a xlink:title=" ">
<polygon fill="#bfbfbf" stroke="black" points="0,-55 0,-74 185,-74 185,-55 0,-55"/>
<text text-anchor="middle" x="92.5" y="-62" font-family="Helvetica,sans-Serif" font-size="10.00">denoptim.gui.VertexViewPanel.initialize</text>
</a>
</g>
</g>
<!-- Node2 -->
<g id="node2" class="node">
<title>Node2</title>
<g id="a_node2"><a xlink:href="classdenoptim_1_1gui_1_1_vertex_view_panel.html#a9bcc749971b5bff83b5c94c419509567" target="_top" xlink:title=" ">
<polygon fill="white" stroke="black" points="221,-98.5 221,-128.5 400,-128.5 400,-98.5 221,-98.5"/>
<text text-anchor="start" x="229" y="-116.5" font-family="Helvetica,sans-Serif" font-size="10.00">denoptim.gui.VertexViewPanel.switch</text>
<text text-anchor="middle" x="310.5" y="-105.5" font-family="Helvetica,sans-Serif" font-size="10.00">ToEmptyCard</text>
</a>
</g>
</g>
<!-- Node1&#45;&gt;Node2 -->
<g id="edge1" class="edge">
<title>Node1&#45;&gt;Node2</title>
<path fill="none" stroke="midnightblue" d="M135.4,-74.01C163.09,-80.29 200.19,-88.7 233.02,-96.15"/>
<polygon fill="midnightblue" stroke="midnightblue" points="232.54,-99.63 243.06,-98.43 234.09,-92.8 232.54,-99.63"/>
</g>
<!-- Node3 -->
<g id="node3" class="node">
<title>Node3</title>
<g id="a_node3"><a xlink:href="classdenoptim_1_1gui_1_1_vertex_view_panel.html#acef361888bea673ec1fab6e1155cfdab" target="_top" xlink:title=" ">
<polygon fill="white" stroke="black" points="221,-49.5 221,-79.5 400,-79.5 400,-49.5 221,-49.5"/>
<text text-anchor="start" x="229" y="-67.5" font-family="Helvetica,sans-Serif" font-size="10.00">denoptim.gui.VertexViewPanel.switch</text>
<text text-anchor="middle" x="310.5" y="-56.5" font-family="Helvetica,sans-Serif" font-size="10.00">ToGraphNodeViewer</text>
</a>
</g>
</g>
<!-- Node1&#45;&gt;Node3 -->
<g id="edge2" class="edge">
<title>Node1&#45;&gt;Node3</title>
<path fill="none" stroke="midnightblue" d="M185.1,-64.5C193.62,-64.5 202.27,-64.5 210.84,-64.5"/>
<polygon fill="midnightblue" stroke="midnightblue" points="210.85,-68 220.85,-64.5 210.85,-61 210.85,-68"/>
</g>
<!-- Node4 -->
<g id="node4" class="node">
<title>Node4</title>
<g id="a_node4"><a xlink:href="classdenoptim_1_1gui_1_1_vertex_view_panel.html#a8b9a434e470a5fab4d54100e931657bd" target="_top" xlink:title=" ">
<polygon fill="white" stroke="black" points="221,-0.5 221,-30.5 400,-30.5 400,-0.5 221,-0.5"/>
<text text-anchor="start" x="229" y="-18.5" font-family="Helvetica,sans-Serif" font-size="10.00">denoptim.gui.VertexViewPanel.switch</text>
<text text-anchor="middle" x="310.5" y="-7.5" font-family="Helvetica,sans-Serif" font-size="10.00">ToMolecularViewer</text>
</a>
</g>
</g>
<!-- Node1&#45;&gt;Node4 -->
<g id="edge3" class="edge">
<title>Node1&#45;&gt;Node4</title>
<path fill="none" stroke="midnightblue" d="M135.4,-54.99C163.09,-48.71 200.19,-40.3 233.02,-32.85"/>
<polygon fill="midnightblue" stroke="midnightblue" points="234.09,-36.2 243.06,-30.57 232.54,-29.37 234.09,-36.2"/>
</g>
</g>
</svg>
