<?xml version="1.0" encoding="UTF-8" standalone="no"?>
<!DOCTYPE svg PUBLIC "-//W3C//DTD SVG 1.1//EN"
 "http://www.w3.org/Graphics/SVG/1.1/DTD/svg11.dtd">
<!-- Generated by graphviz version 3.0.0 (20220413.0242)
 -->
<!-- Title: denoptim.graph.Fragment.updateSymmetryRelations Pages: 1 -->
<svg width="571pt" height="176pt"
 viewBox="0.00 0.00 571.00 176.00" xmlns="http://www.w3.org/2000/svg" xmlns:xlink="http://www.w3.org/1999/xlink">
<g id="graph0" class="graph" transform="scale(1 1) rotate(0) translate(4 172)">
<title>denoptim.graph.Fragment.updateSymmetryRelations</title>
<polygon fill="white" stroke="transparent" points="-4,4 -4,-172 567,-172 567,4 -4,4"/>
<!-- Node1 -->
<g id="node1" class="node">
<title>Node1</title>
<g id="a_node1"><a xlink:title="Depends on an healthy list of attachment points with properly set pointers to the source atoms.">
<polygon fill="#bfbfbf" stroke="black" points="0,-71.5 0,-101.5 158,-101.5 158,-71.5 0,-71.5"/>
<text text-anchor="start" x="8" y="-89.5" font-family="Helvetica,sans-Serif" font-size="10.00">denoptim.graph.Fragment.update</text>
<text text-anchor="middle" x="79" y="-78.5" font-family="Helvetica,sans-Serif" font-size="10.00">SymmetryRelations</text>
</a>
</g>
</g>
<!-- Node2 -->
<g id="node2" class="node">
<title>Node2</title>
<g id="a_node2"><a xlink:href="classdenoptim_1_1graph_1_1_fragment.html#a9f0d8233f6ed31316409d643b5e0f0cd" target="_top" xlink:title=" ">
<polygon fill="white" stroke="black" points="202.5,-120.5 202.5,-150.5 344.5,-150.5 344.5,-120.5 202.5,-120.5"/>
<text text-anchor="start" x="210.5" y="-138.5" font-family="Helvetica,sans-Serif" font-size="10.00">denoptim.graph.Fragment.get</text>
<text text-anchor="middle" x="273.5" y="-127.5" font-family="Helvetica,sans-Serif" font-size="10.00">AttachmentPoints</text>
</a>
</g>
</g>
<!-- Node1&#45;&gt;Node2 -->
<g id="edge1" class="edge">
<title>Node1&#45;&gt;Node2</title>
<path fill="none" stroke="midnightblue" d="M139.06,-101.53C159.48,-106.73 182.54,-112.6 203.67,-117.98"/>
<polygon fill="midnightblue" stroke="midnightblue" points="202.99,-121.42 213.55,-120.49 204.72,-114.64 202.99,-121.42"/>
</g>
<!-- Node3 -->
<g id="node3" class="node">
<title>Node3</title>
<g id="a_node3"><a xlink:href="classdenoptim_1_1graph_1_1_fragment.html#a41f439afd1ed84bc64fa895b440f47ce" target="_top" xlink:title=" ">
<polygon fill="white" stroke="black" points="194,-71.5 194,-101.5 353,-101.5 353,-71.5 194,-71.5"/>
<text text-anchor="start" x="202" y="-89.5" font-family="Helvetica,sans-Serif" font-size="10.00">denoptim.graph.Fragment.identify</text>
<text text-anchor="middle" x="273.5" y="-78.5" font-family="Helvetica,sans-Serif" font-size="10.00">SymmetryRelatedAPSets</text>
</a>
</g>
</g>
<!-- Node1&#45;&gt;Node3 -->
<g id="edge2" class="edge">
<title>Node1&#45;&gt;Node3</title>
<path fill="none" stroke="midnightblue" d="M158.02,-86.5C166.48,-86.5 175.14,-86.5 183.72,-86.5"/>
<polygon fill="midnightblue" stroke="midnightblue" points="183.74,-90 193.74,-86.5 183.74,-83 183.74,-90"/>
</g>
<!-- Node8 -->
<g id="node8" class="node">
<title>Node8</title>
<g id="a_node8"><a xlink:href="classdenoptim_1_1graph_1_1_fragment.html#a66decdfeee2f583361c51e00ac598557" target="_top" xlink:title=" ">
<polygon fill="white" stroke="black" points="202.5,-22.5 202.5,-52.5 344.5,-52.5 344.5,-22.5 202.5,-22.5"/>
<text text-anchor="start" x="210.5" y="-40.5" font-family="Helvetica,sans-Serif" font-size="10.00">denoptim.graph.Fragment.set</text>
<text text-anchor="middle" x="273.5" y="-29.5" font-family="Helvetica,sans-Serif" font-size="10.00">SymmetricAPSets</text>
</a>
</g>
</g>
<!-- Node1&#45;&gt;Node8 -->
<g id="edge7" class="edge">
<title>Node1&#45;&gt;Node8</title>
<path fill="none" stroke="midnightblue" d="M139.06,-71.47C159.48,-66.27 182.54,-60.4 203.67,-55.02"/>
<polygon fill="midnightblue" stroke="midnightblue" points="204.72,-58.36 213.55,-52.51 202.99,-51.58 204.72,-58.36"/>
</g>
<!-- Node4 -->
<g id="node4" class="node">
<title>Node4</title>
<g id="a_node4"><a xlink:href="classdenoptim_1_1graph_1_1_fragment.html#a90fc66d07e071376ee45a32ab8a76020" target="_top" xlink:title="Checks if the atoms at the given positions have similar environments i.e.">
<polygon fill="white" stroke="black" points="398.5,-137.5 398.5,-167.5 553.5,-167.5 553.5,-137.5 398.5,-137.5"/>
<text text-anchor="start" x="406.5" y="-155.5" font-family="Helvetica,sans-Serif" font-size="10.00">denoptim.graph.Fragment.atoms</text>
<text text-anchor="middle" x="476" y="-144.5" font-family="Helvetica,sans-Serif" font-size="10.00">AreCompatible</text>
</a>
</g>
</g>
<!-- Node3&#45;&gt;Node4 -->
<g id="edge3" class="edge">
<title>Node3&#45;&gt;Node4</title>
<path fill="none" stroke="midnightblue" d="M324.62,-101.55C334.11,-104.66 343.91,-108.04 353,-111.5 369.37,-117.72 372.56,-121.49 389,-127.5 395.48,-129.87 402.29,-132.17 409.13,-134.35"/>
<polygon fill="midnightblue" stroke="midnightblue" points="408.54,-137.83 419.13,-137.45 410.62,-131.14 408.54,-137.83"/>
</g>
<!-- Node5 -->
<g id="node5" class="node">
<title>Node5</title>
<g id="a_node5"><a xlink:href="classdenoptim_1_1graph_1_1_a_p_class.html#a5cac5d20b70a0eace014ce062a271fbf" target="_top" xlink:title=" ">
<polygon fill="white" stroke="black" points="389,-99 389,-118 563,-118 563,-99 389,-99"/>
<text text-anchor="middle" x="476" y="-106" font-family="Helvetica,sans-Serif" font-size="10.00">denoptim.graph.APClass.compareTo</text>
</a>
</g>
</g>
<!-- Node3&#45;&gt;Node5 -->
<g id="edge4" class="edge">
<title>Node3&#45;&gt;Node5</title>
<path fill="none" stroke="midnightblue" d="M353.17,-95.13C361.6,-96.06 370.26,-97.01 378.87,-97.95"/>
<polygon fill="midnightblue" stroke="midnightblue" points="378.62,-101.45 388.94,-99.06 379.38,-94.49 378.62,-101.45"/>
</g>
<!-- Node6 -->
<g id="node6" class="node">
<title>Node6</title>
<g id="a_node6"><a xlink:href="classdenoptim_1_1graph_1_1_attachment_point.html#a31bed4cb29f6437bf8a888a1dda3fd95" target="_top" xlink:title="Returns the Attachment Point class.">
<polygon fill="white" stroke="black" points="408.5,-49.5 408.5,-79.5 543.5,-79.5 543.5,-49.5 408.5,-49.5"/>
<text text-anchor="start" x="416.5" y="-67.5" font-family="Helvetica,sans-Serif" font-size="10.00">denoptim.graph.Attachment</text>
<text text-anchor="middle" x="476" y="-56.5" font-family="Helvetica,sans-Serif" font-size="10.00">Point.getAPClass</text>
</a>
</g>
</g>
<!-- Node3&#45;&gt;Node6 -->
<g id="edge5" class="edge">
<title>Node3&#45;&gt;Node6</title>
<path fill="none" stroke="midnightblue" d="M353.17,-77.87C367.96,-76.24 383.42,-74.55 398.16,-72.93"/>
<polygon fill="midnightblue" stroke="midnightblue" points="398.68,-76.4 408.23,-71.83 397.91,-69.44 398.68,-76.4"/>
</g>
<!-- Node7 -->
<g id="node7" class="node">
<title>Node7</title>
<g id="a_node7"><a xlink:href="classdenoptim_1_1graph_1_1_attachment_point.html#a7e45846280a63bd2bf36b85e502ffa49" target="_top" xlink:title="The index of the source atom in the atom list of the fragment.">
<polygon fill="white" stroke="black" points="402,-0.5 402,-30.5 550,-30.5 550,-0.5 402,-0.5"/>
<text text-anchor="start" x="410" y="-18.5" font-family="Helvetica,sans-Serif" font-size="10.00">denoptim.graph.Attachment</text>
<text text-anchor="middle" x="476" y="-7.5" font-family="Helvetica,sans-Serif" font-size="10.00">Point.getAtomPositionNumber</text>
</a>
</g>
</g>
<!-- Node3&#45;&gt;Node7 -->
<g id="edge6" class="edge">
<title>Node3&#45;&gt;Node7</title>
<path fill="none" stroke="midnightblue" d="M330.05,-71.44C337.87,-68.76 345.72,-65.77 353,-62.5 370.1,-54.81 371.85,-48.07 389,-40.5 394.38,-38.13 400.04,-35.91 405.79,-33.85"/>
<polygon fill="midnightblue" stroke="midnightblue" points="407.17,-37.08 415.51,-30.55 404.91,-30.45 407.17,-37.08"/>
</g>
</g>
</svg>
