<?xml version="1.0" encoding="UTF-8" standalone="no"?>
<!DOCTYPE svg PUBLIC "-//W3C//DTD SVG 1.1//EN"
 "http://www.w3.org/Graphics/SVG/1.1/DTD/svg11.dtd">
<!-- Generated by graphviz version 3.0.0 (20220413.0242)
 -->
<!-- Title: denoptim.graph.DGraph.appendGraphOnAP Pages: 1 -->
<svg width="731pt" height="588pt"
 viewBox="0.00 0.00 731.00 587.50" xmlns="http://www.w3.org/2000/svg" xmlns:xlink="http://www.w3.org/1999/xlink">
<g id="graph0" class="graph" transform="scale(1 1) rotate(0) translate(4 583.5)">
<title>denoptim.graph.DGraph.appendGraphOnAP</title>
<polygon fill="white" stroke="transparent" points="-4,4 -4,-583.5 727,-583.5 727,4 -4,4"/>
<!-- Node1 -->
<g id="node1" class="node">
<title>Node1</title>
<g id="a_node1"><a xlink:title="Appends a graph onto this graph.">
<polygon fill="#bfbfbf" stroke="black" points="0,-406.5 0,-436.5 152,-436.5 152,-406.5 0,-406.5"/>
<text text-anchor="start" x="8" y="-424.5" font-family="Helvetica,sans-Serif" font-size="10.00">denoptim.graph.DGraph.append</text>
<text text-anchor="middle" x="76" y="-413.5" font-family="Helvetica,sans-Serif" font-size="10.00">GraphOnAP</text>
</a>
</g>
</g>
<!-- Node2 -->
<g id="node2" class="node">
<title>Node2</title>
<g id="a_node2"><a xlink:href="classdenoptim_1_1graph_1_1_d_graph.html#aedfe0dc03ea1250a9944fcd30a888fa1" target="_top" xlink:title="Adds the edge to the list of edges belonging to this graph.">
<polygon fill="white" stroke="black" points="189.5,-560 189.5,-579 347.5,-579 347.5,-560 189.5,-560"/>
<text text-anchor="middle" x="268.5" y="-567" font-family="Helvetica,sans-Serif" font-size="10.00">denoptim.graph.DGraph.addEdge</text>
</a>
</g>
</g>
<!-- Node1&#45;&gt;Node2 -->
<g id="edge1" class="edge">
<title>Node1&#45;&gt;Node2</title>
<path fill="none" stroke="midnightblue" d="M85.51,-436.55C101.74,-463.78 139.81,-521.13 188,-550.5 191.61,-552.7 195.46,-554.65 199.44,-556.37"/>
<polygon fill="midnightblue" stroke="midnightblue" points="198.34,-559.69 208.93,-559.99 200.83,-553.15 198.34,-559.69"/>
</g>
<!-- Node3 -->
<g id="node3" class="node">
<title>Node3</title>
<g id="a_node3"><a xlink:href="classdenoptim_1_1graph_1_1_d_graph.html#ad16255987a45bace2ef62f2b49e0d873" target="_top" xlink:title=" ">
<polygon fill="white" stroke="black" points="191,-522 191,-541 346,-541 346,-522 191,-522"/>
<text text-anchor="middle" x="268.5" y="-529" font-family="Helvetica,sans-Serif" font-size="10.00">denoptim.graph.DGraph.addRing</text>
</a>
</g>
</g>
<!-- Node1&#45;&gt;Node3 -->
<g id="edge2" class="edge">
<title>Node1&#45;&gt;Node3</title>
<path fill="none" stroke="midnightblue" d="M90.9,-436.55C110.55,-456.9 148.49,-492.89 188,-512.5 192.85,-514.91 198.01,-517.02 203.3,-518.86"/>
<polygon fill="midnightblue" stroke="midnightblue" points="202.3,-522.22 212.89,-521.92 204.42,-515.55 202.3,-522.22"/>
</g>
<!-- Node4 -->
<g id="node4" class="node">
<title>Node4</title>
<g id="a_node4"><a xlink:href="classdenoptim_1_1graph_1_1_d_graph.html#a33a3299b77560786461345412d2fe193" target="_top" xlink:title="Appends a vertex to this graph without creating any edge.">
<polygon fill="white" stroke="black" points="200.5,-472.5 200.5,-502.5 336.5,-502.5 336.5,-472.5 200.5,-472.5"/>
<text text-anchor="start" x="208.5" y="-490.5" font-family="Helvetica,sans-Serif" font-size="10.00">denoptim.graph.DGraph.add</text>
<text text-anchor="middle" x="268.5" y="-479.5" font-family="Helvetica,sans-Serif" font-size="10.00">Vertex</text>
</a>
</g>
</g>
<!-- Node1&#45;&gt;Node4 -->
<g id="edge3" class="edge">
<title>Node1&#45;&gt;Node4</title>
<path fill="none" stroke="midnightblue" d="M116.39,-436.58C137.53,-444.55 164.09,-454.33 188,-462.5 194.53,-464.73 201.39,-467 208.22,-469.21"/>
<polygon fill="midnightblue" stroke="midnightblue" points="207.59,-472.69 218.18,-472.41 209.73,-466.02 207.59,-472.69"/>
</g>
<!-- Node7 -->
<g id="node7" class="node">
<title>Node7</title>
<g id="a_node7"><a xlink:href="classdenoptim_1_1graph_1_1_d_graph.html#abcfe2ce7f7bb4d5bea2dbbd816d12d2b" target="_top" xlink:title="Wipes the data in this graph.">
<polygon fill="white" stroke="black" points="191.5,-434 191.5,-453 345.5,-453 345.5,-434 191.5,-434"/>
<text text-anchor="middle" x="268.5" y="-441" font-family="Helvetica,sans-Serif" font-size="10.00">denoptim.graph.DGraph.cleanup</text>
</a>
</g>
</g>
<!-- Node1&#45;&gt;Node7 -->
<g id="edge6" class="edge">
<title>Node1&#45;&gt;Node7</title>
<path fill="none" stroke="midnightblue" d="M152.02,-430.16C161.6,-431.27 171.47,-432.41 181.21,-433.53"/>
<polygon fill="midnightblue" stroke="midnightblue" points="180.96,-437.03 191.3,-434.7 181.77,-430.08 180.96,-437.03"/>
</g>
<!-- Node8 -->
<g id="node8" class="node">
<title>Node8</title>
<g id="a_node8"><a xlink:href="classdenoptim_1_1graph_1_1_d_graph.html#a874ffbf9eee39f72dba3905cf378b469" target="_top" xlink:title=" ">
<polygon fill="white" stroke="black" points="201.5,-384.5 201.5,-414.5 335.5,-414.5 335.5,-384.5 201.5,-384.5"/>
<text text-anchor="start" x="209.5" y="-402.5" font-family="Helvetica,sans-Serif" font-size="10.00">denoptim.graph.DGraph.get</text>
<text text-anchor="middle" x="268.5" y="-391.5" font-family="Helvetica,sans-Serif" font-size="10.00">EdgeList</text>
</a>
</g>
</g>
<!-- Node1&#45;&gt;Node8 -->
<g id="edge7" class="edge">
<title>Node1&#45;&gt;Node8</title>
<path fill="none" stroke="midnightblue" d="M152.02,-412.84C164.83,-411.36 178.16,-409.82 191.02,-408.33"/>
<polygon fill="midnightblue" stroke="midnightblue" points="191.67,-411.78 201.2,-407.16 190.87,-404.83 191.67,-411.78"/>
</g>
<!-- Node9 -->
<g id="node9" class="node">
<title>Node9</title>
<g id="a_node9"><a xlink:href="classdenoptim_1_1graph_1_1_d_graph.html#abca37ac76270225e885ec800d170243b" target="_top" xlink:title=" ">
<polygon fill="white" stroke="black" points="201.5,-335.5 201.5,-365.5 335.5,-365.5 335.5,-335.5 201.5,-335.5"/>
<text text-anchor="start" x="209.5" y="-353.5" font-family="Helvetica,sans-Serif" font-size="10.00">denoptim.graph.DGraph.get</text>
<text text-anchor="middle" x="268.5" y="-342.5" font-family="Helvetica,sans-Serif" font-size="10.00">Rings</text>
</a>
</g>
</g>
<!-- Node1&#45;&gt;Node9 -->
<g id="edge8" class="edge">
<title>Node1&#45;&gt;Node9</title>
<path fill="none" stroke="midnightblue" d="M111.19,-406.41C132.98,-397.03 161.93,-384.98 188,-375.5 194.3,-373.21 200.93,-370.93 207.56,-368.73"/>
<polygon fill="midnightblue" stroke="midnightblue" points="208.81,-372 217.23,-365.57 206.64,-365.34 208.81,-372"/>
</g>
<!-- Node10 -->
<g id="node10" class="node">
<title>Node10</title>
<g id="a_node10"><a xlink:href="classdenoptim_1_1graph_1_1_d_graph.html#ac9bd2a29337782ffdc07a2a2fc70f135" target="_top" xlink:title=" ">
<polygon fill="white" stroke="black" points="585.5,-343.5 585.5,-373.5 719.5,-373.5 719.5,-343.5 585.5,-343.5"/>
<text text-anchor="start" x="593.5" y="-361.5" font-family="Helvetica,sans-Serif" font-size="10.00">denoptim.graph.DGraph.get</text>
<text text-anchor="middle" x="652.5" y="-350.5" font-family="Helvetica,sans-Serif" font-size="10.00">VertexList</text>
</a>
</g>
</g>
<!-- Node1&#45;&gt;Node10 -->
<g id="edge9" class="edge">
<title>Node1&#45;&gt;Node10</title>
<path fill="none" stroke="midnightblue" d="M88.61,-406.29C106.86,-383.77 144.7,-342.5 188,-326.5 328.02,-274.76 507.82,-314.55 596.71,-340.57"/>
<polygon fill="midnightblue" stroke="midnightblue" points="595.73,-343.93 606.32,-343.44 597.73,-337.23 595.73,-343.93"/>
</g>
<!-- Node11 -->
<g id="node11" class="node">
<title>Node11</title>
<g id="a_node11"><a xlink:href="classdenoptim_1_1graph_1_1_d_graph.html#a78dd305de83fa47a17964f9916519337" target="_top" xlink:title="Reassign vertex IDs to all vertices of this graph.">
<polygon fill="white" stroke="black" points="188,-247.5 188,-277.5 349,-277.5 349,-247.5 188,-247.5"/>
<text text-anchor="start" x="196" y="-265.5" font-family="Helvetica,sans-Serif" font-size="10.00">denoptim.graph.DGraph.renumber</text>
<text text-anchor="middle" x="268.5" y="-254.5" font-family="Helvetica,sans-Serif" font-size="10.00">GraphVertices</text>
</a>
</g>
</g>
<!-- Node1&#45;&gt;Node11 -->
<g id="edge10" class="edge">
<title>Node1&#45;&gt;Node11</title>
<path fill="none" stroke="midnightblue" d="M86.43,-406.2C103.55,-379.57 142.25,-324.51 188,-292.5 193.68,-288.52 199.96,-284.99 206.43,-281.88"/>
<polygon fill="midnightblue" stroke="midnightblue" points="208.27,-284.89 215.98,-277.62 205.42,-278.5 208.27,-284.89"/>
</g>
<!-- Node5 -->
<g id="node5" class="node">
<title>Node5</title>
<g id="a_node5"><a xlink:href="classdenoptim_1_1graph_1_1_d_graph.html#a104492665700f6225bb0a0fbc09479c1" target="_top" xlink:title="Checks if a number is already used as VertexIDs within the graph.">
<polygon fill="white" stroke="black" points="387,-496.5 387,-526.5 544,-526.5 544,-496.5 387,-496.5"/>
<text text-anchor="start" x="395" y="-514.5" font-family="Helvetica,sans-Serif" font-size="10.00">denoptim.graph.DGraph.contains</text>
<text text-anchor="middle" x="465.5" y="-503.5" font-family="Helvetica,sans-Serif" font-size="10.00">VertexID</text>
</a>
</g>
</g>
<!-- Node4&#45;&gt;Node5 -->
<g id="edge4" class="edge">
<title>Node4&#45;&gt;Node5</title>
<path fill="none" stroke="midnightblue" d="M336.61,-495.76C349.51,-497.35 363.21,-499.03 376.65,-500.69"/>
<polygon fill="midnightblue" stroke="midnightblue" points="376.52,-504.2 386.87,-501.95 377.38,-497.25 376.52,-504.2"/>
</g>
<!-- Node6 -->
<g id="node6" class="node">
<title>Node6</title>
<g id="a_node6"><a xlink:href="classdenoptim_1_1graph_1_1_d_graph.html#abc9d9eae901e1e868183f8bdaca13aea" target="_top" xlink:title=" ">
<polygon fill="white" stroke="black" points="398.5,-447.5 398.5,-477.5 532.5,-477.5 532.5,-447.5 398.5,-447.5"/>
<text text-anchor="start" x="406.5" y="-465.5" font-family="Helvetica,sans-Serif" font-size="10.00">denoptim.graph.DGraph.get</text>
<text text-anchor="middle" x="465.5" y="-454.5" font-family="Helvetica,sans-Serif" font-size="10.00">GraphId</text>
</a>
</g>
</g>
<!-- Node4&#45;&gt;Node6 -->
<g id="edge5" class="edge">
<title>Node4&#45;&gt;Node6</title>
<path fill="none" stroke="midnightblue" d="M336.61,-478.9C353.28,-476.76 371.26,-474.45 388.33,-472.27"/>
<polygon fill="midnightblue" stroke="midnightblue" points="388.78,-475.74 398.26,-470.99 387.89,-468.79 388.78,-475.74"/>
</g>
<!-- Node12 -->
<g id="node12" class="node">
<title>Node12</title>
<g id="a_node12"><a xlink:href="classdenoptim_1_1graph_1_1_d_graph.html#ac06114e85d2de27da6043ce161fa7523" target="_top" xlink:title="Reassign vertex IDs to a graph.">
<polygon fill="white" stroke="black" points="385,-196.5 385,-226.5 546,-226.5 546,-196.5 385,-196.5"/>
<text text-anchor="start" x="393" y="-214.5" font-family="Helvetica,sans-Serif" font-size="10.00">denoptim.graph.DGraph.renumber</text>
<text text-anchor="middle" x="465.5" y="-203.5" font-family="Helvetica,sans-Serif" font-size="10.00">VerticesGetMap</text>
</a>
</g>
</g>
<!-- Node11&#45;&gt;Node12 -->
<g id="edge11" class="edge">
<title>Node11&#45;&gt;Node12</title>
<path fill="none" stroke="midnightblue" d="M326.95,-247.47C348.97,-241.72 374.29,-235.09 397.15,-229.11"/>
<polygon fill="midnightblue" stroke="midnightblue" points="398.33,-232.42 407.12,-226.51 396.56,-225.65 398.33,-232.42"/>
</g>
<!-- Node12&#45;&gt;Node10 -->
<g id="edge17" class="edge">
<title>Node12&#45;&gt;Node10</title>
<path fill="none" stroke="midnightblue" d="M482.06,-226.73C498.32,-242.79 524.42,-268.98 546,-292.5 562.62,-310.62 561.67,-320.67 582,-334.5 584.25,-336.03 586.6,-337.47 589.03,-338.83"/>
<polygon fill="midnightblue" stroke="midnightblue" points="587.58,-342.01 598.09,-343.38 590.72,-335.76 587.58,-342.01"/>
</g>
<!-- Node13 -->
<g id="node13" class="node">
<title>Node13</title>
<g id="a_node13"><a xlink:href="classdenoptim_1_1graph_1_1_symmetric_set.html#a6b6cfeafce2492c331902274f7508f21" target="_top" xlink:title="Return the list of symmetric identifiers.">
<polygon fill="white" stroke="black" points="587,-294.5 587,-324.5 718,-324.5 718,-294.5 587,-294.5"/>
<text text-anchor="start" x="595" y="-312.5" font-family="Helvetica,sans-Serif" font-size="10.00">denoptim.graph.Symmetric</text>
<text text-anchor="middle" x="652.5" y="-301.5" font-family="Helvetica,sans-Serif" font-size="10.00">Set.getList</text>
</a>
</g>
</g>
<!-- Node12&#45;&gt;Node13 -->
<g id="edge12" class="edge">
<title>Node12&#45;&gt;Node13</title>
<path fill="none" stroke="midnightblue" d="M486.91,-226.7C509.34,-242.89 546.85,-268.47 582,-285.5 585.75,-287.32 589.67,-289.06 593.66,-290.72"/>
<polygon fill="midnightblue" stroke="midnightblue" points="592.46,-294.01 603.04,-294.43 595.03,-287.5 592.46,-294.01"/>
</g>
<!-- Node14 -->
<g id="node14" class="node">
<title>Node14</title>
<g id="a_node14"><a xlink:href="classdenoptim_1_1graph_1_1_d_graph.html#a49bc7aa7c45f3aeaf6aff41095456c6e" target="_top" xlink:title="Get an iterator for the sets of symmetrically related vertices.">
<polygon fill="white" stroke="black" points="585.5,-245.5 585.5,-275.5 719.5,-275.5 719.5,-245.5 585.5,-245.5"/>
<text text-anchor="start" x="593.5" y="-263.5" font-family="Helvetica,sans-Serif" font-size="10.00">denoptim.graph.DGraph.get</text>
<text text-anchor="middle" x="652.5" y="-252.5" font-family="Helvetica,sans-Serif" font-size="10.00">SymSetsIterator</text>
</a>
</g>
</g>
<!-- Node12&#45;&gt;Node14 -->
<g id="edge13" class="edge">
<title>Node12&#45;&gt;Node14</title>
<path fill="none" stroke="midnightblue" d="M523.26,-226.53C542.8,-231.71 564.84,-237.55 585.08,-242.91"/>
<polygon fill="midnightblue" stroke="midnightblue" points="584.28,-246.32 594.84,-245.49 586.07,-239.55 584.28,-246.32"/>
</g>
<!-- Node15 -->
<g id="node15" class="node">
<title>Node15</title>
<g id="a_node15"><a xlink:href="classdenoptim_1_1utils_1_1_graph_utils.html#a9d08e1ef48052456de71c3c6955f1945" target="_top" xlink:title="Unique counter for the number of graph vertices generated.">
<polygon fill="white" stroke="black" points="582,-196.5 582,-226.5 723,-226.5 723,-196.5 582,-196.5"/>
<text text-anchor="start" x="590" y="-214.5" font-family="Helvetica,sans-Serif" font-size="10.00">denoptim.utils.GraphUtils.get</text>
<text text-anchor="middle" x="652.5" y="-203.5" font-family="Helvetica,sans-Serif" font-size="10.00">UniqueVertexIndex</text>
</a>
</g>
</g>
<!-- Node12&#45;&gt;Node15 -->
<g id="edge14" class="edge">
<title>Node12&#45;&gt;Node15</title>
<path fill="none" stroke="midnightblue" d="M546.03,-211.5C554.52,-211.5 563.17,-211.5 571.66,-211.5"/>
<polygon fill="midnightblue" stroke="midnightblue" points="571.94,-215 581.94,-211.5 571.94,-208 571.94,-215"/>
</g>
<!-- Node16 -->
<g id="node16" class="node">
<title>Node16</title>
<g id="a_node16"><a xlink:href="classdenoptim_1_1graph_1_1_d_graph.html#a3b7c2feb2da30079318f06819e0e6761" target="_top" xlink:title=" ">
<polygon fill="white" stroke="black" points="585.5,-147.5 585.5,-177.5 719.5,-177.5 719.5,-147.5 585.5,-147.5"/>
<text text-anchor="start" x="593.5" y="-165.5" font-family="Helvetica,sans-Serif" font-size="10.00">denoptim.graph.DGraph.get</text>
<text text-anchor="middle" x="652.5" y="-154.5" font-family="Helvetica,sans-Serif" font-size="10.00">VertexCount</text>
</a>
</g>
</g>
<!-- Node12&#45;&gt;Node16 -->
<g id="edge15" class="edge">
<title>Node12&#45;&gt;Node16</title>
<path fill="none" stroke="midnightblue" d="M523.26,-196.47C542.8,-191.29 564.84,-185.45 585.08,-180.09"/>
<polygon fill="midnightblue" stroke="midnightblue" points="586.07,-183.45 594.84,-177.51 584.28,-176.68 586.07,-183.45"/>
</g>
<!-- Node17 -->
<g id="node17" class="node">
<title>Node17</title>
<g id="a_node17"><a xlink:href="classdenoptim_1_1graph_1_1_vertex.html#af44ae05546096ec9060d7207f38bc8e9" target="_top" xlink:title=" ">
<polygon fill="white" stroke="black" points="588.5,-98.5 588.5,-128.5 716.5,-128.5 716.5,-98.5 588.5,-98.5"/>
<text text-anchor="start" x="596.5" y="-116.5" font-family="Helvetica,sans-Serif" font-size="10.00">denoptim.graph.Vertex.get</text>
<text text-anchor="middle" x="652.5" y="-105.5" font-family="Helvetica,sans-Serif" font-size="10.00">VertexId</text>
</a>
</g>
</g>
<!-- Node12&#45;&gt;Node17 -->
<g id="edge16" class="edge">
<title>Node12&#45;&gt;Node17</title>
<path fill="none" stroke="midnightblue" d="M486.91,-196.3C509.34,-180.11 546.85,-154.53 582,-137.5 585.75,-135.68 589.67,-133.94 593.66,-132.28"/>
<polygon fill="midnightblue" stroke="midnightblue" points="595.03,-135.5 603.04,-128.57 592.46,-128.99 595.03,-135.5"/>
</g>
<!-- Node18 -->
<g id="node18" class="node">
<title>Node18</title>
<g id="a_node18"><a xlink:href="classdenoptim_1_1graph_1_1_vertex.html#ad26ecf426a5e415605df94be904e58d3" target="_top" xlink:title=" ">
<polygon fill="white" stroke="black" points="588.5,-49.5 588.5,-79.5 716.5,-79.5 716.5,-49.5 588.5,-49.5"/>
<text text-anchor="start" x="596.5" y="-67.5" font-family="Helvetica,sans-Serif" font-size="10.00">denoptim.graph.Vertex.set</text>
<text text-anchor="middle" x="652.5" y="-56.5" font-family="Helvetica,sans-Serif" font-size="10.00">Property</text>
</a>
</g>
</g>
<!-- Node12&#45;&gt;Node18 -->
<g id="edge18" class="edge">
<title>Node12&#45;&gt;Node18</title>
<path fill="none" stroke="midnightblue" d="M476.83,-196.41C495.15,-170.74 535.77,-118.43 582,-88.5 584.46,-86.91 587.04,-85.41 589.7,-83.99"/>
<polygon fill="midnightblue" stroke="midnightblue" points="591.47,-87.02 598.96,-79.53 588.43,-80.72 591.47,-87.02"/>
</g>
<!-- Node19 -->
<g id="node19" class="node">
<title>Node19</title>
<g id="a_node19"><a xlink:href="classdenoptim_1_1graph_1_1_vertex.html#adcb4510b9e479d5c37f9ccc12f9f5c5f" target="_top" xlink:title=" ">
<polygon fill="white" stroke="black" points="588.5,-0.5 588.5,-30.5 716.5,-30.5 716.5,-0.5 588.5,-0.5"/>
<text text-anchor="start" x="596.5" y="-18.5" font-family="Helvetica,sans-Serif" font-size="10.00">denoptim.graph.Vertex.set</text>
<text text-anchor="middle" x="652.5" y="-7.5" font-family="Helvetica,sans-Serif" font-size="10.00">VertexId</text>
</a>
</g>
</g>
<!-- Node12&#45;&gt;Node19 -->
<g id="edge19" class="edge">
<title>Node12&#45;&gt;Node19</title>
<path fill="none" stroke="midnightblue" d="M472.58,-196.46C486.76,-163.28 525.13,-83.27 582,-39.5 583.81,-38.11 585.7,-36.79 587.66,-35.55"/>
<polygon fill="midnightblue" stroke="midnightblue" points="589.58,-38.49 596.61,-30.57 586.17,-32.38 589.58,-38.49"/>
</g>
</g>
</svg>
