<?xml version="1.0" encoding="UTF-8" standalone="no"?>
<!DOCTYPE svg PUBLIC "-//W3C//DTD SVG 1.1//EN"
 "http://www.w3.org/Graphics/SVG/1.1/DTD/svg11.dtd">
<!-- Generated by graphviz version 3.0.0 (20220413.0242)
 -->
<!-- Title: denoptim.json.DENOPTIMgson.getWriter Pages: 1 -->
<svg width="1292pt" height="523pt"
 viewBox="0.00 0.00 1292.00 523.00" xmlns="http://www.w3.org/2000/svg" xmlns:xlink="http://www.w3.org/1999/xlink">
<g id="graph0" class="graph" transform="scale(1 1) rotate(0) translate(4 519)">
<title>denoptim.json.DENOPTIMgson.getWriter</title>
<polygon fill="white" stroke="transparent" points="-4,4 -4,-519 1288,-519 1288,4 -4,4"/>
<!-- Node1 -->
<g id="node1" class="node">
<title>Node1</title>
<g id="a_node1"><a xlink:title=" ">
<polygon fill="#bfbfbf" stroke="black" points="1117,-304.5 1117,-334.5 1284,-334.5 1284,-304.5 1117,-304.5"/>
<text text-anchor="start" x="1125" y="-322.5" font-family="Helvetica,sans-Serif" font-size="10.00">denoptim.json.DENOPTIMgson.get</text>
<text text-anchor="middle" x="1200.5" y="-311.5" font-family="Helvetica,sans-Serif" font-size="10.00">Writer</text>
</a>
</g>
</g>
<!-- Node2 -->
<g id="node2" class="node">
<title>Node2</title>
<g id="a_node2"><a xlink:href="classdenoptim_1_1json_1_1_d_e_n_o_p_t_i_mgson_test.html#a7bede1a04240600341a5b55e07784de7" target="_top" xlink:title=" ">
<polygon fill="white" stroke="black" points="881,-484.5 881,-514.5 1081,-514.5 1081,-484.5 881,-484.5"/>
<text text-anchor="start" x="889" y="-502.5" font-family="Helvetica,sans-Serif" font-size="10.00">denoptim.json.DENOPTIMgson</text>
<text text-anchor="middle" x="981" y="-491.5" font-family="Helvetica,sans-Serif" font-size="10.00">Test.testIAtomContainerToJSONAndBack</text>
</a>
</g>
</g>
<!-- Node1&#45;&gt;Node2 -->
<g id="edge1" class="edge">
<title>Node1&#45;&gt;Node2</title>
<path fill="none" stroke="midnightblue" d="M1187.93,-343.68C1170.03,-378.42 1132.24,-441.96 1081,-475.5 1075.82,-478.89 1070.21,-481.8 1064.37,-484.3"/>
<polygon fill="midnightblue" stroke="midnightblue" points="1191.09,-345.2 1192.45,-334.69 1184.83,-342.05 1191.09,-345.2"/>
</g>
<!-- Node3 -->
<g id="node3" class="node">
<title>Node3</title>
<g id="a_node3"><a xlink:href="classdenoptim_1_1json_1_1_d_e_n_o_p_t_i_mgson_test.html#ac2186d67581bef7c19379247af6672d6" target="_top" xlink:title=" ">
<polygon fill="white" stroke="black" points="885.5,-435.5 885.5,-465.5 1076.5,-465.5 1076.5,-435.5 885.5,-435.5"/>
<text text-anchor="start" x="893.5" y="-453.5" font-family="Helvetica,sans-Serif" font-size="10.00">denoptim.json.DENOPTIMgson</text>
<text text-anchor="middle" x="981" y="-442.5" font-family="Helvetica,sans-Serif" font-size="10.00">Test.testMolecularFragmentSerialization</text>
</a>
</g>
</g>
<!-- Node1&#45;&gt;Node3 -->
<g id="edge2" class="edge">
<title>Node1&#45;&gt;Node3</title>
<path fill="none" stroke="midnightblue" d="M1180.32,-342.61C1158.71,-367.13 1121.29,-405.21 1081,-426.5 1074.51,-429.93 1067.52,-432.88 1060.37,-435.41"/>
<polygon fill="midnightblue" stroke="midnightblue" points="1183.13,-344.71 1187.03,-334.86 1177.84,-340.13 1183.13,-344.71"/>
</g>
<!-- Node4 -->
<g id="node4" class="node">
<title>Node4</title>
<g id="a_node4"><a xlink:href="classdenoptim_1_1json_1_1_d_e_n_o_p_t_i_mgson_test.html#a78e6eb5e60124f63897dd28e1c21082d" target="_top" xlink:title=" ">
<polygon fill="white" stroke="black" points="905,-386.5 905,-416.5 1057,-416.5 1057,-386.5 905,-386.5"/>
<text text-anchor="start" x="913" y="-404.5" font-family="Helvetica,sans-Serif" font-size="10.00">denoptim.json.DENOPTIMgson</text>
<text text-anchor="middle" x="981" y="-393.5" font-family="Helvetica,sans-Serif" font-size="10.00">Test.testTemplateSerialization</text>
</a>
</g>
</g>
<!-- Node1&#45;&gt;Node4 -->
<g id="edge3" class="edge">
<title>Node1&#45;&gt;Node4</title>
<path fill="none" stroke="midnightblue" d="M1162.88,-339.48C1139.87,-351.43 1109.29,-366.24 1081,-376.5 1070.83,-380.19 1059.89,-383.53 1049.12,-386.5"/>
<polygon fill="midnightblue" stroke="midnightblue" points="1164.71,-342.47 1171.93,-334.72 1161.45,-336.28 1164.71,-342.47"/>
</g>
<!-- Node5 -->
<g id="node5" class="node">
<title>Node5</title>
<g id="a_node5"><a xlink:href="classdenoptim_1_1graph_1_1_d_graph.html#a08540fffa962c2b5cf4461ace5f2429d" target="_top" xlink:title="Produces a string that represents this graph and that adheres to the JSON format.">
<polygon fill="white" stroke="black" points="906.5,-348 906.5,-367 1055.5,-367 1055.5,-348 906.5,-348"/>
<text text-anchor="middle" x="981" y="-355" font-family="Helvetica,sans-Serif" font-size="10.00">denoptim.graph.DGraph.toJson</text>
</a>
</g>
</g>
<!-- Node1&#45;&gt;Node5 -->
<g id="edge4" class="edge">
<title>Node1&#45;&gt;Node5</title>
<path fill="none" stroke="midnightblue" d="M1107.1,-335.64C1083.04,-339.85 1057.9,-344.24 1036.52,-347.98"/>
<polygon fill="midnightblue" stroke="midnightblue" points="1107.71,-339.09 1116.96,-333.92 1106.51,-332.19 1107.71,-339.09"/>
</g>
<!-- Node10 -->
<g id="node10" class="node">
<title>Node10</title>
<g id="a_node10"><a xlink:href="classdenoptim_1_1graph_1_1_empty_vertex.html#ac03be5e473026561da70e1b3d626604c" target="_top" xlink:title="Produces a string that represents this vertex and that adheres to the JSON format.">
<polygon fill="white" stroke="black" points="895.5,-310 895.5,-329 1066.5,-329 1066.5,-310 895.5,-310"/>
<text text-anchor="middle" x="981" y="-317" font-family="Helvetica,sans-Serif" font-size="10.00">denoptim.graph.EmptyVertex.toJson</text>
</a>
</g>
</g>
<!-- Node1&#45;&gt;Node10 -->
<g id="edge9" class="edge">
<title>Node1&#45;&gt;Node10</title>
<path fill="none" stroke="midnightblue" d="M1106.84,-319.5C1093.5,-319.5 1079.82,-319.5 1066.65,-319.5"/>
<polygon fill="midnightblue" stroke="midnightblue" points="1106.96,-323 1116.96,-319.5 1106.96,-316 1106.96,-323"/>
</g>
<!-- Node12 -->
<g id="node12" class="node">
<title>Node12</title>
<g id="a_node12"><a xlink:href="classdenoptim_1_1graph_1_1_fragment.html#ae6eda4ad75040f50d899bee8dfe05502" target="_top" xlink:title="Produces a string that represents this vertex and that adheres to the JSON format.">
<polygon fill="white" stroke="black" points="902,-272 902,-291 1060,-291 1060,-272 902,-272"/>
<text text-anchor="middle" x="981" y="-279" font-family="Helvetica,sans-Serif" font-size="10.00">denoptim.graph.Fragment.toJson</text>
</a>
</g>
</g>
<!-- Node1&#45;&gt;Node12 -->
<g id="edge11" class="edge">
<title>Node1&#45;&gt;Node12</title>
<path fill="none" stroke="midnightblue" d="M1107.1,-303.36C1083.04,-299.15 1057.9,-294.76 1036.52,-291.02"/>
<polygon fill="midnightblue" stroke="midnightblue" points="1106.51,-306.81 1116.96,-305.08 1107.71,-299.91 1106.51,-306.81"/>
</g>
<!-- Node13 -->
<g id="node13" class="node">
<title>Node13</title>
<g id="a_node13"><a xlink:href="classdenoptim_1_1graph_1_1_template.html#affbc6ea7a008d8e615f3e3c99641ad30" target="_top" xlink:title="Produces a string that represents this vertex and that adheres to the JSON format.">
<polygon fill="white" stroke="black" points="902.5,-234 902.5,-253 1059.5,-253 1059.5,-234 902.5,-234"/>
<text text-anchor="middle" x="981" y="-241" font-family="Helvetica,sans-Serif" font-size="10.00">denoptim.graph.Template.toJson</text>
</a>
</g>
</g>
<!-- Node1&#45;&gt;Node13 -->
<g id="edge13" class="edge">
<title>Node1&#45;&gt;Node13</title>
<path fill="none" stroke="midnightblue" d="M1163.99,-299.43C1140.97,-287.17 1109.96,-272.06 1081,-262.5 1069.53,-258.71 1057.06,-255.59 1044.95,-253.04"/>
<polygon fill="midnightblue" stroke="midnightblue" points="1162.57,-302.64 1173.03,-304.31 1165.9,-296.48 1162.57,-302.64"/>
</g>
<!-- Node14 -->
<g id="node14" class="node">
<title>Node14</title>
<g id="a_node14"><a xlink:href="classdenoptim_1_1io_1_1_denoptim_i_o.html#a26675b858b0472e03a29d517db448a30" target="_top" xlink:title="Writes the graphs to JSON file.">
<polygon fill="white" stroke="black" points="909.5,-184.5 909.5,-214.5 1052.5,-214.5 1052.5,-184.5 909.5,-184.5"/>
<text text-anchor="start" x="917.5" y="-202.5" font-family="Helvetica,sans-Serif" font-size="10.00">denoptim.io.DenoptimIO.write</text>
<text text-anchor="middle" x="981" y="-191.5" font-family="Helvetica,sans-Serif" font-size="10.00">GraphsToJSON</text>
</a>
</g>
</g>
<!-- Node1&#45;&gt;Node14 -->
<g id="edge15" class="edge">
<title>Node1&#45;&gt;Node14</title>
<path fill="none" stroke="midnightblue" d="M1177.62,-297.05C1155.26,-275.39 1118.59,-243.2 1081,-224.5 1072.11,-220.08 1062.37,-216.4 1052.59,-213.34"/>
<polygon fill="midnightblue" stroke="midnightblue" points="1175.33,-299.71 1184.9,-304.24 1180.24,-294.72 1175.33,-299.71"/>
</g>
<!-- Node26 -->
<g id="node26" class="node">
<title>Node26</title>
<g id="a_node26"><a xlink:href="classdenoptim_1_1io_1_1_denoptim_i_o.html#a843532de9a6df16d77f028c1b7a4fc9e" target="_top" xlink:title="Writes vertexes to JSON file.">
<polygon fill="white" stroke="black" points="909.5,-135.5 909.5,-165.5 1052.5,-165.5 1052.5,-135.5 909.5,-135.5"/>
<text text-anchor="start" x="917.5" y="-153.5" font-family="Helvetica,sans-Serif" font-size="10.00">denoptim.io.DenoptimIO.write</text>
<text text-anchor="middle" x="981" y="-142.5" font-family="Helvetica,sans-Serif" font-size="10.00">VertexesToJSON</text>
</a>
</g>
</g>
<!-- Node1&#45;&gt;Node26 -->
<g id="edge27" class="edge">
<title>Node1&#45;&gt;Node26</title>
<path fill="none" stroke="midnightblue" d="M1186.3,-295.35C1167.34,-262.99 1129.29,-206.1 1081,-175.5 1072.39,-170.04 1062.65,-165.78 1052.73,-162.44"/>
<polygon fill="midnightblue" stroke="midnightblue" points="1183.34,-297.23 1191.35,-304.17 1189.42,-293.75 1183.34,-297.23"/>
</g>
<!-- Node6 -->
<g id="node6" class="node">
<title>Node6</title>
<g id="a_node6"><a xlink:href="classdenoptim_1_1ga_1_1_offspring_evaluation_task.html#aab5b9c0b8a88922460f5c28ae161d1fa" target="_top" xlink:title=" ">
<polygon fill="white" stroke="black" points="669.5,-451.5 669.5,-481.5 824.5,-481.5 824.5,-451.5 669.5,-451.5"/>
<text text-anchor="start" x="677.5" y="-469.5" font-family="Helvetica,sans-Serif" font-size="10.00">denoptim.ga.OffspringEvaluation</text>
<text text-anchor="middle" x="747" y="-458.5" font-family="Helvetica,sans-Serif" font-size="10.00">Task.call</text>
</a>
</g>
</g>
<!-- Node5&#45;&gt;Node6 -->
<g id="edge5" class="edge">
<title>Node5&#45;&gt;Node6</title>
<path fill="none" stroke="midnightblue" d="M896.76,-368.53C891.17,-370.99 885.85,-373.95 881,-377.5 854.36,-397.01 871.21,-422.42 845,-442.5 838.94,-447.14 832.1,-450.9 824.92,-453.93"/>
<polygon fill="midnightblue" stroke="midnightblue" points="898.29,-371.69 906.37,-364.84 895.78,-365.16 898.29,-371.69"/>
</g>
<!-- Node7 -->
<g id="node7" class="node">
<title>Node7</title>
<g id="a_node7"><a xlink:href="classdenoptim_1_1graph_1_1_candidate.html#ace97fc2021ebb11463e062dddbec6aac" target="_top" xlink:title="Returns an atom container representing this item in a way that is compatible for writing this item to...">
<polygon fill="white" stroke="black" points="657.5,-402.5 657.5,-432.5 836.5,-432.5 836.5,-402.5 657.5,-402.5"/>
<text text-anchor="start" x="665.5" y="-420.5" font-family="Helvetica,sans-Serif" font-size="10.00">denoptim.graph.Candidate.get</text>
<text text-anchor="middle" x="747" y="-409.5" font-family="Helvetica,sans-Serif" font-size="10.00">FitnessProviderOutputRepresentation</text>
</a>
</g>
</g>
<!-- Node5&#45;&gt;Node7 -->
<g id="edge6" class="edge">
<title>Node5&#45;&gt;Node7</title>
<path fill="none" stroke="midnightblue" d="M911.92,-369.2C901.47,-371.59 890.87,-374.35 881,-377.5 864.32,-382.82 861.56,-387.82 845,-393.5 835.48,-396.76 825.3,-399.78 815.24,-402.5"/>
<polygon fill="midnightblue" stroke="midnightblue" points="912.85,-372.58 921.87,-367.03 911.35,-365.75 912.85,-372.58"/>
</g>
<!-- Node8 -->
<g id="node8" class="node">
<title>Node8</title>
<g id="a_node8"><a xlink:href="classdenoptim_1_1graph_1_1_d_graph_test.html#a0091493800250a2794af19f597241126" target="_top" xlink:title=" ">
<polygon fill="white" stroke="black" points="669,-353.5 669,-383.5 825,-383.5 825,-353.5 669,-353.5"/>
<text text-anchor="start" x="677" y="-371.5" font-family="Helvetica,sans-Serif" font-size="10.00">denoptim.graph.DGraphTest.test</text>
<text text-anchor="middle" x="747" y="-360.5" font-family="Helvetica,sans-Serif" font-size="10.00">FromToJSON</text>
</a>
</g>
</g>
<!-- Node5&#45;&gt;Node8 -->
<g id="edge7" class="edge">
<title>Node5&#45;&gt;Node8</title>
<path fill="none" stroke="midnightblue" d="M896.12,-361.48C872.94,-362.58 847.91,-363.76 825.13,-364.84"/>
<polygon fill="midnightblue" stroke="midnightblue" points="896.45,-364.97 906.27,-361 896.12,-357.97 896.45,-364.97"/>
</g>
<!-- Node9 -->
<g id="node9" class="node">
<title>Node9</title>
<g id="a_node9"><a xlink:href="classdenoptim_1_1io_1_1_denoptim_i_o_test.html#a716f5e1ae52b617c411ab57cb83ee78a" target="_top" xlink:title=" ">
<polygon fill="white" stroke="black" points="655,-304.5 655,-334.5 839,-334.5 839,-304.5 655,-304.5"/>
<text text-anchor="start" x="663" y="-322.5" font-family="Helvetica,sans-Serif" font-size="10.00">denoptim.io.DenoptimIOTest.test</text>
<text text-anchor="middle" x="747" y="-311.5" font-family="Helvetica,sans-Serif" font-size="10.00">SerializeDeserializeDENOPTIMGraphs</text>
</a>
</g>
</g>
<!-- Node5&#45;&gt;Node9 -->
<g id="edge8" class="edge">
<title>Node5&#45;&gt;Node9</title>
<path fill="none" stroke="midnightblue" d="M911.88,-346.34C889.15,-342.62 863.45,-338.41 839.26,-334.45"/>
<polygon fill="midnightblue" stroke="midnightblue" points="911.32,-349.8 921.76,-347.96 912.45,-342.89 911.32,-349.8"/>
</g>
<!-- Node11 -->
<g id="node11" class="node">
<title>Node11</title>
<g id="a_node11"><a xlink:href="classdenoptim_1_1graph_1_1_vertex_test.html#a903343147e9c65e098a01e6210426817" target="_top" xlink:title=" ">
<polygon fill="white" stroke="black" points="671.5,-255.5 671.5,-285.5 822.5,-285.5 822.5,-255.5 671.5,-255.5"/>
<text text-anchor="start" x="679.5" y="-273.5" font-family="Helvetica,sans-Serif" font-size="10.00">denoptim.graph.VertexTest.test</text>
<text text-anchor="middle" x="747" y="-262.5" font-family="Helvetica,sans-Serif" font-size="10.00">FromToJSON_minimal</text>
</a>
</g>
</g>
<!-- Node10&#45;&gt;Node11 -->
<g id="edge10" class="edge">
<title>Node10&#45;&gt;Node11</title>
<path fill="none" stroke="midnightblue" d="M918.69,-308.05C906.2,-305.63 893.17,-303.04 881,-300.5 858.76,-295.86 834.49,-290.48 812.85,-285.57"/>
<polygon fill="midnightblue" stroke="midnightblue" points="918.07,-311.5 928.55,-309.95 919.4,-304.62 918.07,-311.5"/>
</g>
<!-- Node12&#45;&gt;Node11 -->
<g id="edge12" class="edge">
<title>Node12&#45;&gt;Node11</title>
<path fill="none" stroke="midnightblue" d="M891.79,-277.32C869.02,-276.24 844.74,-275.09 822.74,-274.04"/>
<polygon fill="midnightblue" stroke="midnightblue" points="891.62,-280.81 901.78,-277.79 891.96,-273.82 891.62,-280.81"/>
</g>
<!-- Node13&#45;&gt;Node11 -->
<g id="edge14" class="edge">
<title>Node13&#45;&gt;Node11</title>
<path fill="none" stroke="midnightblue" d="M892.36,-253.7C869.44,-256.37 844.93,-259.22 822.75,-261.8"/>
<polygon fill="midnightblue" stroke="midnightblue" points="892.9,-257.16 902.42,-252.53 892.09,-250.21 892.9,-257.16"/>
</g>
<!-- Node15 -->
<g id="node15" class="node">
<title>Node15</title>
<g id="a_node15"><a xlink:href="classdenoptim_1_1fragspace_1_1_fragment_space.html#a32b0be109306e9c81fc830867296bc66" target="_top" xlink:title="Extracts a system of one or more fused rings and adds them to the fragment space if not already prese...">
<polygon fill="white" stroke="black" points="649,-206.5 649,-236.5 845,-236.5 845,-206.5 649,-206.5"/>
<text text-anchor="start" x="657" y="-224.5" font-family="Helvetica,sans-Serif" font-size="10.00">denoptim.fragspace.Fragment</text>
<text text-anchor="middle" x="747" y="-213.5" font-family="Helvetica,sans-Serif" font-size="10.00">Space.addFusedRingsToFragmentLibrary</text>
</a>
</g>
</g>
<!-- Node14&#45;&gt;Node15 -->
<g id="edge16" class="edge">
<title>Node14&#45;&gt;Node15</title>
<path fill="none" stroke="midnightblue" d="M899.31,-207.15C881.84,-208.81 863.18,-210.58 845.15,-212.29"/>
<polygon fill="midnightblue" stroke="midnightblue" points="899.82,-210.62 909.45,-206.19 899.16,-203.65 899.82,-210.62"/>
</g>
<!-- Node16 -->
<g id="node16" class="node">
<title>Node16</title>
<g id="a_node16"><a xlink:href="classdenoptim_1_1io_1_1_denoptim_i_o.html#a99f65e1d8dba2217d95e75deac5b0e52" target="_top" xlink:title="Writes the graphs to file.">
<polygon fill="white" stroke="black" points="675.5,-157.5 675.5,-187.5 818.5,-187.5 818.5,-157.5 675.5,-157.5"/>
<text text-anchor="start" x="683.5" y="-175.5" font-family="Helvetica,sans-Serif" font-size="10.00">denoptim.io.DenoptimIO.write</text>
<text text-anchor="middle" x="747" y="-164.5" font-family="Helvetica,sans-Serif" font-size="10.00">GraphsToFile</text>
</a>
</g>
</g>
<!-- Node14&#45;&gt;Node16 -->
<g id="edge17" class="edge">
<title>Node14&#45;&gt;Node16</title>
<path fill="none" stroke="midnightblue" d="M899.5,-190.13C873.18,-187.07 844.16,-183.69 818.62,-180.72"/>
<polygon fill="midnightblue" stroke="midnightblue" points="899.11,-193.61 909.45,-191.29 899.92,-186.66 899.11,-193.61"/>
</g>
<!-- Node20 -->
<g id="node20" class="node">
<title>Node20</title>
<g id="a_node20"><a xlink:href="classdenoptim_1_1io_1_1_denoptim_i_o.html#ab38de9f2630baab2d129b844b6968060" target="_top" xlink:title="Writes the graph to JSON file.">
<polygon fill="white" stroke="black" points="675.5,-76.5 675.5,-106.5 818.5,-106.5 818.5,-76.5 675.5,-76.5"/>
<text text-anchor="start" x="683.5" y="-94.5" font-family="Helvetica,sans-Serif" font-size="10.00">denoptim.io.DenoptimIO.write</text>
<text text-anchor="middle" x="747" y="-83.5" font-family="Helvetica,sans-Serif" font-size="10.00">GraphToJSON</text>
</a>
</g>
</g>
<!-- Node14&#45;&gt;Node20 -->
<g id="edge21" class="edge">
<title>Node14&#45;&gt;Node20</title>
<path fill="none" stroke="midnightblue" d="M899.75,-183.04C893.29,-180.82 886.96,-178.31 881,-175.5 862.91,-166.97 861.65,-159.58 845,-148.5 822.24,-133.35 795.36,-117.72 775.68,-106.67"/>
<polygon fill="midnightblue" stroke="midnightblue" points="898.69,-186.37 909.28,-186.1 900.83,-179.71 898.69,-186.37"/>
</g>
<!-- Node17 -->
<g id="node17" class="node">
<title>Node17</title>
<g id="a_node17"><a xlink:href="classdenoptim_1_1gui_1_1_g_u_i_graph_handler.html#af5b000c105018cbd7c262b34f9750044" target="_top" xlink:title="Initialize the panel and add buttons.">
<polygon fill="white" stroke="black" points="425,-207 425,-226 613,-226 613,-207 425,-207"/>
<text text-anchor="middle" x="519" y="-214" font-family="Helvetica,sans-Serif" font-size="10.00">denoptim.gui.GUIGraphHandler.initialize</text>
</a>
</g>
</g>
<!-- Node16&#45;&gt;Node17 -->
<g id="edge18" class="edge">
<title>Node16&#45;&gt;Node17</title>
<path fill="none" stroke="midnightblue" d="M665.55,-188.16C633.28,-194.45 597.14,-201.48 568.95,-206.97"/>
<polygon fill="midnightblue" stroke="midnightblue" points="666.27,-191.59 675.42,-186.24 664.94,-184.72 666.27,-191.59"/>
</g>
<!-- Node19 -->
<g id="node19" class="node">
<title>Node19</title>
<g id="a_node19"><a xlink:href="classdenoptim_1_1programs_1_1grapheditor_1_1_graph_editor.html#a649a62e3d4635ef4c19424fa49e6dcd4" target="_top" xlink:title=" ">
<polygon fill="white" stroke="black" points="443,-157.5 443,-187.5 595,-187.5 595,-157.5 443,-157.5"/>
<text text-anchor="start" x="451" y="-175.5" font-family="Helvetica,sans-Serif" font-size="10.00">denoptim.programs.grapheditor.</text>
<text text-anchor="middle" x="519" y="-164.5" font-family="Helvetica,sans-Serif" font-size="10.00">GraphEditor.runProgram</text>
</a>
</g>
</g>
<!-- Node16&#45;&gt;Node19 -->
<g id="edge20" class="edge">
<title>Node16&#45;&gt;Node19</title>
<path fill="none" stroke="midnightblue" d="M665.4,-172.5C642.51,-172.5 617.68,-172.5 595.13,-172.5"/>
<polygon fill="midnightblue" stroke="midnightblue" points="665.42,-176 675.42,-172.5 665.42,-169 665.42,-176"/>
</g>
<!-- Node18 -->
<g id="node18" class="node">
<title>Node18</title>
<g id="a_node18"><a xlink:href="classdenoptim_1_1gui_1_1_g_u_i_graph_handler.html#ab7d010d9a384f6b85edce47c95d6723b" target="_top" xlink:title="Constructor.">
<polygon fill="white" stroke="black" points="225.5,-201.5 225.5,-231.5 379.5,-231.5 379.5,-201.5 225.5,-201.5"/>
<text text-anchor="start" x="233.5" y="-219.5" font-family="Helvetica,sans-Serif" font-size="10.00">denoptim.gui.GUIGraphHandler.</text>
<text text-anchor="middle" x="302.5" y="-208.5" font-family="Helvetica,sans-Serif" font-size="10.00">GUIGraphHandler</text>
</a>
</g>
</g>
<!-- Node17&#45;&gt;Node18 -->
<g id="edge19" class="edge">
<title>Node17&#45;&gt;Node18</title>
<path fill="none" stroke="midnightblue" d="M414.59,-216.5C402.87,-216.5 391.1,-216.5 379.82,-216.5"/>
<polygon fill="midnightblue" stroke="midnightblue" points="414.85,-220 424.85,-216.5 414.85,-213 414.85,-220"/>
</g>
<!-- Node21 -->
<g id="node21" class="node">
<title>Node21</title>
<g id="a_node21"><a xlink:href="classdenoptim_1_1molecularmodeling_1_1_three_dim_tree_builder.html#acbaf5061621ed283eecc80a51b523422" target="_top" xlink:title="Created a three&#45;dimensional molecular representation from a given DGraph.">
<polygon fill="white" stroke="black" points="434.5,-98 434.5,-139 603.5,-139 603.5,-98 434.5,-98"/>
<text text-anchor="start" x="442.5" y="-127" font-family="Helvetica,sans-Serif" font-size="10.00">denoptim.molecularmodeling.</text>
<text text-anchor="start" x="442.5" y="-116" font-family="Helvetica,sans-Serif" font-size="10.00">ThreeDimTreeBuilder.convertGraph</text>
<text text-anchor="middle" x="519" y="-105" font-family="Helvetica,sans-Serif" font-size="10.00">To3DAtomContainer</text>
</a>
</g>
</g>
<!-- Node20&#45;&gt;Node21 -->
<g id="edge22" class="edge">
<title>Node20&#45;&gt;Node21</title>
<path fill="none" stroke="midnightblue" d="M665.38,-101.13C645.3,-103.53 623.72,-106.11 603.5,-108.52"/>
<polygon fill="midnightblue" stroke="midnightblue" points="665.91,-104.59 675.42,-99.93 665.08,-97.64 665.91,-104.59"/>
</g>
<!-- Node22 -->
<g id="node22" class="node">
<title>Node22</title>
<g id="a_node22"><a xlink:href="classdenoptim_1_1graph_1_1_d_graph.html#af404e25092eabcdfbe69b5d7204e9483" target="_top" xlink:title="Mutates the graph by removing the chain where a given vertex is located up to the first branching (i....">
<polygon fill="white" stroke="black" points="443,-49.5 443,-79.5 595,-79.5 595,-49.5 443,-49.5"/>
<text text-anchor="start" x="451" y="-67.5" font-family="Helvetica,sans-Serif" font-size="10.00">denoptim.graph.DGraph.remove</text>
<text text-anchor="middle" x="519" y="-56.5" font-family="Helvetica,sans-Serif" font-size="10.00">ChainUpToBranching</text>
</a>
</g>
</g>
<!-- Node20&#45;&gt;Node22 -->
<g id="edge23" class="edge">
<title>Node20&#45;&gt;Node22</title>
<path fill="none" stroke="midnightblue" d="M665.4,-81.87C642.51,-79.14 617.68,-76.17 595.13,-73.48"/>
<polygon fill="midnightblue" stroke="midnightblue" points="665.08,-85.36 675.42,-83.07 665.91,-78.41 665.08,-85.36"/>
</g>
<!-- Node25 -->
<g id="node25" class="node">
<title>Node25</title>
<g id="a_node25"><a xlink:href="classdenoptim_1_1io_1_1_denoptim_i_o.html#a079563895e42e37bc3de1388dc1a2665" target="_top" xlink:title="Writes the a graph to file.">
<polygon fill="white" stroke="black" points="447.5,-0.5 447.5,-30.5 590.5,-30.5 590.5,-0.5 447.5,-0.5"/>
<text text-anchor="start" x="455.5" y="-18.5" font-family="Helvetica,sans-Serif" font-size="10.00">denoptim.io.DenoptimIO.write</text>
<text text-anchor="middle" x="519" y="-7.5" font-family="Helvetica,sans-Serif" font-size="10.00">GraphToFile</text>
</a>
</g>
</g>
<!-- Node20&#45;&gt;Node25 -->
<g id="edge26" class="edge">
<title>Node20&#45;&gt;Node25</title>
<path fill="none" stroke="midnightblue" d="M700.27,-72.62C674.81,-62.45 642.4,-50.06 613,-40.5 602.35,-37.04 590.9,-33.67 579.8,-30.59"/>
<polygon fill="midnightblue" stroke="midnightblue" points="699.09,-75.92 709.67,-76.4 701.7,-69.42 699.09,-75.92"/>
</g>
<!-- Node23 -->
<g id="node23" class="node">
<title>Node23</title>
<g id="a_node23"><a xlink:href="classdenoptim_1_1ga_1_1_graph_operations.html#afd659e74a056d1a6ae6f52513fee0be3" target="_top" xlink:title="Deletes the given vertex and all other vertexes that are not connected to more than 2 non&#45;capping gro...">
<polygon fill="white" stroke="black" points="216,-49.5 216,-79.5 389,-79.5 389,-49.5 216,-49.5"/>
<text text-anchor="start" x="224" y="-67.5" font-family="Helvetica,sans-Serif" font-size="10.00">denoptim.ga.GraphOperations.delete</text>
<text text-anchor="middle" x="302.5" y="-56.5" font-family="Helvetica,sans-Serif" font-size="10.00">Chain</text>
</a>
</g>
</g>
<!-- Node22&#45;&gt;Node23 -->
<g id="edge24" class="edge">
<title>Node22&#45;&gt;Node23</title>
<path fill="none" stroke="midnightblue" d="M432.66,-64.5C418.33,-64.5 403.46,-64.5 389.12,-64.5"/>
<polygon fill="midnightblue" stroke="midnightblue" points="432.98,-68 442.98,-64.5 432.98,-61 432.98,-68"/>
</g>
<!-- Node24 -->
<g id="node24" class="node">
<title>Node24</title>
<g id="a_node24"><a xlink:href="classdenoptim_1_1ga_1_1_graph_operations.html#a0c851972015fbb4b2a317b053b8b81d9" target="_top" xlink:title="Mutates the given vertex according to the given mutation type, if possible.">
<polygon fill="white" stroke="black" points="0,-49.5 0,-79.5 180,-79.5 180,-49.5 0,-49.5"/>
<text text-anchor="start" x="8" y="-67.5" font-family="Helvetica,sans-Serif" font-size="10.00">denoptim.ga.GraphOperations.perform</text>
<text text-anchor="middle" x="90" y="-56.5" font-family="Helvetica,sans-Serif" font-size="10.00">Mutation</text>
</a>
</g>
</g>
<!-- Node23&#45;&gt;Node24 -->
<g id="edge25" class="edge">
<title>Node23&#45;&gt;Node24</title>
<path fill="none" stroke="midnightblue" d="M205.65,-64.5C197.21,-64.5 188.69,-64.5 180.31,-64.5"/>
<polygon fill="midnightblue" stroke="midnightblue" points="205.88,-68 215.88,-64.5 205.88,-61 205.88,-68"/>
</g>
</g>
</svg>
