<?xml version="1.0" encoding="UTF-8" standalone="no"?>
<!DOCTYPE svg PUBLIC "-//W3C//DTD SVG 1.1//EN"
 "http://www.w3.org/Graphics/SVG/1.1/DTD/svg11.dtd">
<!-- Generated by graphviz version 3.0.0 (20220413.0242)
 -->
<!-- Title: denoptim.ga.EvolutionaryAlgorithm.cleanupCompleted Pages: 1 -->
<svg width="674pt" height="88pt"
 viewBox="0.00 0.00 674.00 88.00" xmlns="http://www.w3.org/2000/svg" xmlns:xlink="http://www.w3.org/1999/xlink">
<g id="graph0" class="graph" transform="scale(1 1) rotate(0) translate(4 84)">
<title>denoptim.ga.EvolutionaryAlgorithm.cleanupCompleted</title>
<polygon fill="white" stroke="transparent" points="-4,4 -4,-84 670,-84 670,4 -4,4"/>
<!-- Node1 -->
<g id="node1" class="node">
<title>Node1</title>
<g id="a_node1"><a xlink:title="Removes only tasks that are marked as completed.">
<polygon fill="#bfbfbf" stroke="black" points="526,-24.5 526,-54.5 666,-54.5 666,-24.5 526,-24.5"/>
<text text-anchor="start" x="534" y="-42.5" font-family="Helvetica,sans-Serif" font-size="10.00">denoptim.ga.Evolutionary</text>
<text text-anchor="middle" x="596" y="-31.5" font-family="Helvetica,sans-Serif" font-size="10.00">Algorithm.cleanupCompleted</text>
</a>
</g>
</g>
<!-- Node2 -->
<g id="node2" class="node">
<title>Node2</title>
<g id="a_node2"><a xlink:href="classdenoptim_1_1ga_1_1_evolutionary_algorithm.html#a596b2f5f0b097c5b67a6e5163bd6fe66" target="_top" xlink:title="Generates a given number of new candidate items and adds them to the current population.">
<polygon fill="white" stroke="black" points="353,-49.5 353,-79.5 487,-79.5 487,-49.5 353,-49.5"/>
<text text-anchor="start" x="361" y="-67.5" font-family="Helvetica,sans-Serif" font-size="10.00">denoptim.ga.Evolutionary</text>
<text text-anchor="middle" x="420" y="-56.5" font-family="Helvetica,sans-Serif" font-size="10.00">Algorithm.evolvePopulation</text>
</a>
</g>
</g>
<!-- Node1&#45;&gt;Node2 -->
<g id="edge1" class="edge">
<title>Node1&#45;&gt;Node2</title>
<path fill="none" stroke="midnightblue" d="M515.99,-50.85C506.33,-52.24 496.54,-53.65 487.1,-55"/>
<polygon fill="midnightblue" stroke="midnightblue" points="516.58,-54.3 525.98,-49.42 515.58,-47.37 516.58,-54.3"/>
</g>
<!-- Node6 -->
<g id="node6" class="node">
<title>Node6</title>
<g id="a_node6"><a xlink:href="classdenoptim_1_1ga_1_1_evolutionary_algorithm.html#ad43588620dab3340e0d8b0042ec73618" target="_top" xlink:title="Fills up the population with candidates build from scratch.">
<polygon fill="white" stroke="black" points="350,-0.5 350,-30.5 490,-30.5 490,-0.5 350,-0.5"/>
<text text-anchor="start" x="358" y="-18.5" font-family="Helvetica,sans-Serif" font-size="10.00">denoptim.ga.Evolutionary</text>
<text text-anchor="middle" x="420" y="-7.5" font-family="Helvetica,sans-Serif" font-size="10.00">Algorithm.initializePopulation</text>
</a>
</g>
</g>
<!-- Node1&#45;&gt;Node6 -->
<g id="edge5" class="edge">
<title>Node1&#45;&gt;Node6</title>
<path fill="none" stroke="midnightblue" d="M515.97,-28.6C507.38,-27.41 498.68,-26.21 490.22,-25.05"/>
<polygon fill="midnightblue" stroke="midnightblue" points="515.6,-32.08 525.98,-29.98 516.55,-25.15 515.6,-32.08"/>
</g>
<!-- Node3 -->
<g id="node3" class="node">
<title>Node3</title>
<g id="a_node3"><a xlink:href="classdenoptim_1_1ga_1_1_evolutionary_algorithm.html#a6bfc2fa59b199da6259b5b6bad3d6de7" target="_top" xlink:title=" ">
<polygon fill="white" stroke="black" points="190,-24.5 190,-54.5 314,-54.5 314,-24.5 190,-24.5"/>
<text text-anchor="start" x="198" y="-42.5" font-family="Helvetica,sans-Serif" font-size="10.00">denoptim.ga.Evolutionary</text>
<text text-anchor="middle" x="252" y="-31.5" font-family="Helvetica,sans-Serif" font-size="10.00">Algorithm.run</text>
</a>
</g>
</g>
<!-- Node2&#45;&gt;Node3 -->
<g id="edge2" class="edge">
<title>Node2&#45;&gt;Node3</title>
<path fill="none" stroke="midnightblue" d="M342.9,-53.04C333.21,-51.58 323.41,-50.1 314.01,-48.69"/>
<polygon fill="midnightblue" stroke="midnightblue" points="342.51,-56.52 352.92,-54.55 343.55,-49.6 342.51,-56.52"/>
</g>
<!-- Node4 -->
<g id="node4" class="node">
<title>Node4</title>
<g id="a_node4"><a xlink:href="classdenoptim_1_1ga_1_1_evolutionary_algorithm.html#a0f2063b722b7291daf83d62acaa683d3" target="_top" xlink:title=" ">
<polygon fill="white" stroke="black" points="0,-49.5 0,-79.5 154,-79.5 154,-49.5 0,-49.5"/>
<text text-anchor="start" x="8" y="-67.5" font-family="Helvetica,sans-Serif" font-size="10.00">denoptim.ga.Evolutionary</text>
<text text-anchor="middle" x="77" y="-56.5" font-family="Helvetica,sans-Serif" font-size="10.00">Algorithm.EvolutionaryAlgorithm</text>
</a>
</g>
</g>
<!-- Node3&#45;&gt;Node4 -->
<g id="edge3" class="edge">
<title>Node3&#45;&gt;Node4</title>
<path fill="none" stroke="midnightblue" d="M179.44,-49.84C171.09,-51.05 162.54,-52.28 154.12,-53.5"/>
<polygon fill="midnightblue" stroke="midnightblue" points="180.12,-53.28 189.52,-48.38 179.12,-46.35 180.12,-53.28"/>
</g>
<!-- Node5 -->
<g id="node5" class="node">
<title>Node5</title>
<g id="a_node5"><a xlink:href="classdenoptim_1_1programs_1_1denovo_1_1_g_a_runner.html#a7cafd6d78727b89dce3e2c8d06f0dd7c" target="_top" xlink:title=" ">
<polygon fill="white" stroke="black" points="9.5,-0.5 9.5,-30.5 144.5,-30.5 144.5,-0.5 9.5,-0.5"/>
<text text-anchor="start" x="17.5" y="-18.5" font-family="Helvetica,sans-Serif" font-size="10.00">denoptim.programs.denovo.</text>
<text text-anchor="middle" x="77" y="-7.5" font-family="Helvetica,sans-Serif" font-size="10.00">GARunner.runProgram</text>
</a>
</g>
</g>
<!-- Node3&#45;&gt;Node5 -->
<g id="edge4" class="edge">
<title>Node3&#45;&gt;Node5</title>
<path fill="none" stroke="midnightblue" d="M179.48,-29.58C167.92,-27.97 156,-26.32 144.57,-24.73"/>
<polygon fill="midnightblue" stroke="midnightblue" points="179.13,-33.06 189.52,-30.97 180.1,-26.13 179.13,-33.06"/>
</g>
<!-- Node6&#45;&gt;Node3 -->
<g id="edge6" class="edge">
<title>Node6&#45;&gt;Node3</title>
<path fill="none" stroke="midnightblue" d="M339.6,-26.98C331.08,-28.21 322.5,-29.45 314.24,-30.65"/>
<polygon fill="midnightblue" stroke="midnightblue" points="340.17,-30.43 349.56,-25.54 339.16,-23.51 340.17,-30.43"/>
</g>
</g>
</svg>
