<?xml version="1.0" encoding="UTF-8" standalone="no"?>
<!DOCTYPE svg PUBLIC "-//W3C//DTD SVG 1.1//EN"
 "http://www.w3.org/Graphics/SVG/1.1/DTD/svg11.dtd">
<!-- Generated by graphviz version 3.0.0 (20220413.0242)
 -->
<!-- Title: denoptim.graph.FragmentIsomorphismInspector.isomorphismExists Pages: 1 -->
<svg width="584pt" height="112pt"
 viewBox="0.00 0.00 584.00 112.00" xmlns="http://www.w3.org/2000/svg" xmlns:xlink="http://www.w3.org/1999/xlink">
<g id="graph0" class="graph" transform="scale(1 1) rotate(0) translate(4 108)">
<title>denoptim.graph.FragmentIsomorphismInspector.isomorphismExists</title>
<polygon fill="white" stroke="transparent" points="-4,4 -4,-108 580,-108 580,4 -4,4"/>
<!-- Node1 -->
<g id="node1" class="node">
<title>Node1</title>
<g id="a_node1"><a xlink:title=" ">
<polygon fill="#bfbfbf" stroke="black" points="394,-48.5 394,-78.5 576,-78.5 576,-48.5 394,-48.5"/>
<text text-anchor="start" x="402" y="-66.5" font-family="Helvetica,sans-Serif" font-size="10.00">denoptim.graph.FragmentIsomorphism</text>
<text text-anchor="middle" x="485" y="-55.5" font-family="Helvetica,sans-Serif" font-size="10.00">Inspector.isomorphismExists</text>
</a>
</g>
</g>
<!-- Node2 -->
<g id="node2" class="node">
<title>Node2</title>
<g id="a_node2"><a xlink:href="classdenoptim_1_1fragmenter_1_1_fragment_alignement.html#a544426b853510be7f33a7b794b225b04" target="_top" xlink:title="Constructor for an alignment of two fragments.">
<polygon fill="white" stroke="black" points="200,-73.5 200,-103.5 358,-103.5 358,-73.5 200,-73.5"/>
<text text-anchor="start" x="208" y="-91.5" font-family="Helvetica,sans-Serif" font-size="10.00">denoptim.fragmenter.Fragment</text>
<text text-anchor="middle" x="279" y="-80.5" font-family="Helvetica,sans-Serif" font-size="10.00">Alignement.FragmentAlignement</text>
</a>
</g>
</g>
<!-- Node1&#45;&gt;Node2 -->
<g id="edge1" class="edge">
<title>Node1&#45;&gt;Node2</title>
<path fill="none" stroke="midnightblue" d="M383.8,-75.78C375.16,-76.84 366.5,-77.9 358.07,-78.93"/>
<polygon fill="midnightblue" stroke="midnightblue" points="384.43,-79.23 393.93,-74.54 383.58,-72.28 384.43,-79.23"/>
</g>
<!-- Node3 -->
<g id="node3" class="node">
<title>Node3</title>
<g id="a_node3"><a xlink:href="classdenoptim_1_1graph_1_1_fragment.html#a6137d8c74ece46574e14b9a3cd02d00d" target="_top" xlink:title="Checks for isomorphism of the graph representation of this and another fragment.">
<polygon fill="white" stroke="black" points="211,-24.5 211,-54.5 347,-54.5 347,-24.5 211,-24.5"/>
<text text-anchor="start" x="219" y="-42.5" font-family="Helvetica,sans-Serif" font-size="10.00">denoptim.graph.Fragment.is</text>
<text text-anchor="middle" x="279" y="-31.5" font-family="Helvetica,sans-Serif" font-size="10.00">IsomorphicTo</text>
</a>
</g>
</g>
<!-- Node1&#45;&gt;Node3 -->
<g id="edge2" class="edge">
<title>Node1&#45;&gt;Node3</title>
<path fill="none" stroke="midnightblue" d="M383.96,-51.73C371.51,-50.27 359.02,-48.8 347.23,-47.41"/>
<polygon fill="midnightblue" stroke="midnightblue" points="383.59,-55.21 393.93,-52.9 384.41,-48.26 383.59,-55.21"/>
</g>
<!-- Node4 -->
<g id="node4" class="node">
<title>Node4</title>
<g id="a_node4"><a xlink:href="classdenoptim_1_1graph_1_1_fragment_test.html#aa17f42b21847b022c3d7a87876e17717" target="_top" xlink:title=" ">
<polygon fill="white" stroke="black" points="0,-49.5 0,-79.5 164,-79.5 164,-49.5 0,-49.5"/>
<text text-anchor="start" x="8" y="-67.5" font-family="Helvetica,sans-Serif" font-size="10.00">denoptim.graph.FragmentTest.test</text>
<text text-anchor="middle" x="82" y="-56.5" font-family="Helvetica,sans-Serif" font-size="10.00">IsomorphicInLinear</text>
</a>
</g>
</g>
<!-- Node3&#45;&gt;Node4 -->
<g id="edge3" class="edge">
<title>Node3&#45;&gt;Node4</title>
<path fill="none" stroke="midnightblue" d="M200.85,-49.39C188.75,-50.94 176.21,-52.55 164.03,-54.11"/>
<polygon fill="midnightblue" stroke="midnightblue" points="201.42,-52.85 210.89,-48.1 200.53,-45.9 201.42,-52.85"/>
</g>
<!-- Node5 -->
<g id="node5" class="node">
<title>Node5</title>
<g id="a_node5"><a xlink:href="classdenoptim_1_1graph_1_1_fragment_test.html#af49cc0e35c38f683bfc3d332210d1124" target="_top" xlink:title=" ">
<polygon fill="white" stroke="black" points="0,-0.5 0,-30.5 164,-30.5 164,-0.5 0,-0.5"/>
<text text-anchor="start" x="8" y="-18.5" font-family="Helvetica,sans-Serif" font-size="10.00">denoptim.graph.FragmentTest.test</text>
<text text-anchor="middle" x="82" y="-7.5" font-family="Helvetica,sans-Serif" font-size="10.00">IsomorphicTo</text>
</a>
</g>
</g>
<!-- Node3&#45;&gt;Node5 -->
<g id="edge4" class="edge">
<title>Node3&#45;&gt;Node5</title>
<path fill="none" stroke="midnightblue" d="M200.85,-30C188.75,-28.52 176.21,-26.97 164.03,-25.47"/>
<polygon fill="midnightblue" stroke="midnightblue" points="200.54,-33.49 210.89,-31.24 201.39,-26.55 200.54,-33.49"/>
</g>
</g>
</svg>
