<?xml version="1.0" encoding="UTF-8" standalone="no"?>
<!DOCTYPE svg PUBLIC "-//W3C//DTD SVG 1.1//EN"
 "http://www.w3.org/Graphics/SVG/1.1/DTD/svg11.dtd">
<!-- Generated by graphviz version 3.0.0 (20220413.0242)
 -->
<!-- Title: denoptim.fragspace.FragmentSpace.useAPclassBasedApproach Pages: 1 -->
<svg width="1205pt" height="597pt"
 viewBox="0.00 0.00 1205.00 597.00" xmlns="http://www.w3.org/2000/svg" xmlns:xlink="http://www.w3.org/1999/xlink">
<g id="graph0" class="graph" transform="scale(1 1) rotate(0) translate(4 593)">
<title>denoptim.fragspace.FragmentSpace.useAPclassBasedApproach</title>
<polygon fill="white" stroke="transparent" points="-4,4 -4,-593 1201,-593 1201,4 -4,4"/>
<!-- Node1 -->
<g id="node1" class="node">
<title>Node1</title>
<g id="a_node1"><a xlink:title="Check usage of APClass&#45;based approach, i.e., uses attachment points with annotated data (i....">
<polygon fill="#bfbfbf" stroke="black" points="1029,-252.5 1029,-282.5 1197,-282.5 1197,-252.5 1029,-252.5"/>
<text text-anchor="start" x="1037" y="-270.5" font-family="Helvetica,sans-Serif" font-size="10.00">denoptim.fragspace.Fragment</text>
<text text-anchor="middle" x="1113" y="-259.5" font-family="Helvetica,sans-Serif" font-size="10.00">Space.useAPclassBasedApproach</text>
</a>
</g>
</g>
<!-- Node2 -->
<g id="node2" class="node">
<title>Node2</title>
<g id="a_node2"><a xlink:href="classdenoptim_1_1ga_1_1_e_a_utils.html#a98553265dd4b441b11c6d97d098edb08" target="_top" xlink:title="Generates a new offspring by performing a crossover operation.">
<polygon fill="white" stroke="black" points="628.5,-98.5 628.5,-128.5 755.5,-128.5 755.5,-98.5 628.5,-98.5"/>
<text text-anchor="start" x="636.5" y="-116.5" font-family="Helvetica,sans-Serif" font-size="10.00">denoptim.ga.EAUtils.build</text>
<text text-anchor="middle" x="692" y="-105.5" font-family="Helvetica,sans-Serif" font-size="10.00">CandidateByXOver</text>
</a>
</g>
</g>
<!-- Node1&#45;&gt;Node2 -->
<g id="edge1" class="edge">
<title>Node1&#45;&gt;Node2</title>
<path fill="none" stroke="midnightblue" d="M1099.45,-243.69C1080.99,-211.46 1043.2,-155.13 993,-130.5 917.83,-93.62 819,-96.3 755.72,-103.44"/>
<polygon fill="midnightblue" stroke="midnightblue" points="1096.42,-245.45 1104.34,-252.48 1102.54,-242.04 1096.42,-245.45"/>
</g>
<!-- Node3 -->
<g id="node3" class="node">
<title>Node3</title>
<g id="a_node3"><a xlink:href="classdenoptim_1_1combinatorial_1_1_graph_building_task.html#a3eaee724fc921194fa158714aafe182d" target="_top" xlink:title="Calls the task.">
<polygon fill="white" stroke="black" points="619.5,-345.5 619.5,-375.5 764.5,-375.5 764.5,-345.5 619.5,-345.5"/>
<text text-anchor="start" x="627.5" y="-363.5" font-family="Helvetica,sans-Serif" font-size="10.00">denoptim.combinatorial.Graph</text>
<text text-anchor="middle" x="692" y="-352.5" font-family="Helvetica,sans-Serif" font-size="10.00">BuildingTask.call</text>
</a>
</g>
</g>
<!-- Node1&#45;&gt;Node3 -->
<g id="edge2" class="edge">
<title>Node1&#45;&gt;Node3</title>
<path fill="none" stroke="midnightblue" d="M1072.63,-287.04C1049.87,-297.57 1020.4,-309.91 993,-317.5 916.56,-338.66 826.11,-349.81 764.67,-355.4"/>
<polygon fill="midnightblue" stroke="midnightblue" points="1074.39,-290.08 1081.95,-282.66 1071.41,-283.75 1074.39,-290.08"/>
</g>
<!-- Node4 -->
<g id="node4" class="node">
<title>Node4</title>
<g id="a_node4"><a xlink:href="classdenoptim_1_1graph_1_1_d_graph.html#ac1e5c9703afc6f29fe11cca08ddb1a1c" target="_top" xlink:title="Peeks into this graph to derive a preliminary chemical representation with SMILES and InChIKey.">
<polygon fill="white" stroke="black" points="836.5,-365.5 836.5,-395.5 982.5,-395.5 982.5,-365.5 836.5,-365.5"/>
<text text-anchor="start" x="844.5" y="-383.5" font-family="Helvetica,sans-Serif" font-size="10.00">denoptim.graph.DGraph.check</text>
<text text-anchor="middle" x="909.5" y="-372.5" font-family="Helvetica,sans-Serif" font-size="10.00">Consistency</text>
</a>
</g>
</g>
<!-- Node1&#45;&gt;Node4 -->
<g id="edge3" class="edge">
<title>Node1&#45;&gt;Node4</title>
<path fill="none" stroke="midnightblue" d="M1085.59,-288.94C1062.28,-307.11 1026.85,-332.93 993,-350.5 982.18,-356.12 970.06,-361.15 958.52,-365.42"/>
<polygon fill="midnightblue" stroke="midnightblue" points="1087.91,-291.57 1093.6,-282.63 1083.58,-286.07 1087.91,-291.57"/>
</g>
<!-- Node5 -->
<g id="node5" class="node">
<title>Node5</title>
<g id="a_node5"><a xlink:href="classdenoptim_1_1fragspace_1_1_fragment_space.html#a13df4c55db0679bb62fb833a91ef38b2" target="_top" xlink:title="Classify a fragment in terms of the number of APs and possibly their type (AP&#45;Class).">
<polygon fill="white" stroke="black" points="837,-463.5 837,-493.5 982,-493.5 982,-463.5 837,-463.5"/>
<text text-anchor="start" x="845" y="-481.5" font-family="Helvetica,sans-Serif" font-size="10.00">denoptim.fragspace.Fragment</text>
<text text-anchor="middle" x="909.5" y="-470.5" font-family="Helvetica,sans-Serif" font-size="10.00">Space.classifyFragment</text>
</a>
</g>
</g>
<!-- Node1&#45;&gt;Node5 -->
<g id="edge4" class="edge">
<title>Node1&#45;&gt;Node5</title>
<path fill="none" stroke="midnightblue" d="M1102.97,-292.28C1087.06,-332.45 1050.2,-411.59 993,-454.5 988.47,-457.9 983.46,-460.82 978.22,-463.33"/>
<polygon fill="midnightblue" stroke="midnightblue" points="1106.32,-293.31 1106.65,-282.72 1099.79,-290.8 1106.32,-293.31"/>
</g>
<!-- Node18 -->
<g id="node18" class="node">
<title>Node18</title>
<g id="a_node18"><a xlink:href="classdenoptim_1_1fragspace_1_1_a_p_map_finder.html#a5868844d747acb9bd5331c760a24ff09" target="_top" xlink:title="Compares the AttachmentPoint of two lists searching for all the APs of the second list that are &quot;comp...">
<polygon fill="white" stroke="black" points="826,-277.5 826,-307.5 993,-307.5 993,-277.5 826,-277.5"/>
<text text-anchor="start" x="834" y="-295.5" font-family="Helvetica,sans-Serif" font-size="10.00">denoptim.fragspace.APMap</text>
<text text-anchor="middle" x="909.5" y="-284.5" font-family="Helvetica,sans-Serif" font-size="10.00">Finder.findMappingCompatibileAPs</text>
</a>
</g>
</g>
<!-- Node1&#45;&gt;Node18 -->
<g id="edge21" class="edge">
<title>Node1&#45;&gt;Node18</title>
<path fill="none" stroke="midnightblue" d="M1018.84,-279.06C1010.25,-280.12 1001.59,-281.2 993.11,-282.25"/>
<polygon fill="midnightblue" stroke="midnightblue" points="1019.39,-282.52 1028.88,-277.81 1018.52,-275.57 1019.39,-282.52"/>
</g>
<!-- Node21 -->
<g id="node21" class="node">
<title>Node21</title>
<g id="a_node21"><a xlink:href="classdenoptim_1_1fragspace_1_1_graph_link_finder.html#a9a9f36816442f741ecae5391e186bc49" target="_top" xlink:title="Constructor that specifies which edge has to be replaced with a vertex and two edges.">
<polygon fill="white" stroke="black" points="841,-228.5 841,-258.5 978,-258.5 978,-228.5 841,-228.5"/>
<text text-anchor="start" x="849" y="-246.5" font-family="Helvetica,sans-Serif" font-size="10.00">denoptim.fragspace.Graph</text>
<text text-anchor="middle" x="909.5" y="-235.5" font-family="Helvetica,sans-Serif" font-size="10.00">LinkFinder.GraphLinkFinder</text>
</a>
</g>
</g>
<!-- Node1&#45;&gt;Node21 -->
<g id="edge24" class="edge">
<title>Node1&#45;&gt;Node21</title>
<path fill="none" stroke="midnightblue" d="M1018.91,-256.41C1005.14,-254.77 991.19,-253.11 978.08,-251.55"/>
<polygon fill="midnightblue" stroke="midnightblue" points="1018.54,-259.89 1028.88,-257.6 1019.36,-252.94 1018.54,-259.89"/>
</g>
<!-- Node22 -->
<g id="node22" class="node">
<title>Node22</title>
<g id="a_node22"><a xlink:href="classdenoptim_1_1graph_1_1_d_graph.html#a7a4743d014e860237f4b20703ef9779b" target="_top" xlink:title="Evaluates the possibility of closing rings in this graph and generates all alternative graphs resulti...">
<polygon fill="white" stroke="black" points="832,-414.5 832,-444.5 987,-444.5 987,-414.5 832,-414.5"/>
<text text-anchor="start" x="840" y="-432.5" font-family="Helvetica,sans-Serif" font-size="10.00">denoptim.graph.DGraph.make</text>
<text text-anchor="middle" x="909.5" y="-421.5" font-family="Helvetica,sans-Serif" font-size="10.00">AllGraphsWithDifferentRingSets</text>
</a>
</g>
</g>
<!-- Node1&#45;&gt;Node22 -->
<g id="edge25" class="edge">
<title>Node1&#45;&gt;Node22</title>
<path fill="none" stroke="midnightblue" d="M1097.45,-291.75C1077.64,-322.68 1039.31,-375.74 993,-405.5 987.73,-408.89 981.97,-411.81 976.02,-414.33"/>
<polygon fill="midnightblue" stroke="midnightblue" points="1100.64,-293.24 1102.99,-282.91 1094.71,-289.52 1100.64,-293.24"/>
</g>
<!-- Node23 -->
<g id="node23" class="node">
<title>Node23</title>
<g id="a_node23"><a xlink:href="classdenoptim_1_1fragspace_1_1_fragment_space.html#a135ebdda8ec9f789934d7ca2b82079ad" target="_top" xlink:title="Given two lists of APs this method maps the APClass&#45;compatibilities from between the two lists consid...">
<polygon fill="white" stroke="black" points="826,-140.5 826,-170.5 993,-170.5 993,-140.5 826,-140.5"/>
<text text-anchor="start" x="834" y="-158.5" font-family="Helvetica,sans-Serif" font-size="10.00">denoptim.fragspace.Fragment</text>
<text text-anchor="middle" x="909.5" y="-147.5" font-family="Helvetica,sans-Serif" font-size="10.00">Space.mapAPClassCompatibilities</text>
</a>
</g>
</g>
<!-- Node1&#45;&gt;Node23 -->
<g id="edge27" class="edge">
<title>Node1&#45;&gt;Node23</title>
<path fill="none" stroke="midnightblue" d="M1087.21,-245.48C1064.2,-226.03 1028.28,-198.1 993,-180.5 985.5,-176.76 977.33,-173.46 969.15,-170.58"/>
<polygon fill="midnightblue" stroke="midnightblue" points="1085.21,-248.37 1095.08,-252.23 1089.77,-243.06 1085.21,-248.37"/>
</g>
<!-- Node24 -->
<g id="node24" class="node">
<title>Node24</title>
<g id="a_node24"><a xlink:href="classdenoptim_1_1ga_1_1_population.html#a61b4df049189c95349aec0e4fb292c66" target="_top" xlink:title=" ">
<polygon fill="white" stroke="black" points="827,-190 827,-209 992,-209 992,-190 827,-190"/>
<text text-anchor="middle" x="909.5" y="-197" font-family="Helvetica,sans-Serif" font-size="10.00">denoptim.ga.Population.Population</text>
</a>
</g>
</g>
<!-- Node1&#45;&gt;Node24 -->
<g id="edge28" class="edge">
<title>Node1&#45;&gt;Node24</title>
<path fill="none" stroke="midnightblue" d="M1069.14,-248.45C1046.74,-238.95 1018.71,-227.75 993,-219.5 980.79,-215.58 967.35,-212.02 954.93,-209.02"/>
<polygon fill="midnightblue" stroke="midnightblue" points="1067.8,-251.68 1078.37,-252.41 1070.56,-245.25 1067.8,-251.68"/>
</g>
<!-- Node27 -->
<g id="node27" class="node">
<title>Node27</title>
<g id="a_node27"><a xlink:href="classdenoptim_1_1ga_1_1_e_a_utils.html#a1ddb932d4618434d435e4f85ce5e5eb5" target="_top" xlink:title="Evaluates the possibility of closing rings in a given graph and if any ring can be closed,...">
<polygon fill="white" stroke="black" points="844,-51.5 844,-81.5 975,-81.5 975,-51.5 844,-51.5"/>
<text text-anchor="start" x="852" y="-69.5" font-family="Helvetica,sans-Serif" font-size="10.00">denoptim.ga.EAUtils.setup</text>
<text text-anchor="middle" x="909.5" y="-58.5" font-family="Helvetica,sans-Serif" font-size="10.00">Rings</text>
</a>
</g>
</g>
<!-- Node1&#45;&gt;Node27 -->
<g id="edge32" class="edge">
<title>Node1&#45;&gt;Node27</title>
<path fill="none" stroke="midnightblue" d="M1100.61,-242.56C1082.67,-205.89 1044.52,-137.46 993,-97.5 984.66,-91.03 974.82,-85.79 964.9,-81.6"/>
<polygon fill="midnightblue" stroke="midnightblue" points="1097.65,-244.49 1105.12,-252.01 1103.97,-241.48 1097.65,-244.49"/>
</g>
<!-- Node6 -->
<g id="node6" class="node">
<title>Node6</title>
<g id="a_node6"><a xlink:href="classdenoptim_1_1fragspace_1_1_fragment_space.html#a32b0be109306e9c81fc830867296bc66" target="_top" xlink:title="Extracts a system of one or more fused rings and adds them to the fragment space if not already prese...">
<polygon fill="white" stroke="black" points="594,-487.5 594,-517.5 790,-517.5 790,-487.5 594,-487.5"/>
<text text-anchor="start" x="602" y="-505.5" font-family="Helvetica,sans-Serif" font-size="10.00">denoptim.fragspace.Fragment</text>
<text text-anchor="middle" x="692" y="-494.5" font-family="Helvetica,sans-Serif" font-size="10.00">Space.addFusedRingsToFragmentLibrary</text>
</a>
</g>
</g>
<!-- Node5&#45;&gt;Node6 -->
<g id="edge5" class="edge">
<title>Node5&#45;&gt;Node6</title>
<path fill="none" stroke="midnightblue" d="M826.44,-487.64C814.58,-488.96 802.27,-490.33 790.15,-491.68"/>
<polygon fill="midnightblue" stroke="midnightblue" points="827.19,-491.08 836.74,-486.49 826.42,-484.12 827.19,-491.08"/>
</g>
<!-- Node7 -->
<g id="node7" class="node">
<title>Node7</title>
<g id="a_node7"><a xlink:href="classdenoptim_1_1fragspace_1_1_fragment_space.html#a500eaadf61dbb4a0d9c1105f907212c7" target="_top" xlink:title="Performs grouping and classification operations on the library of building blocks of BBType#FRAGMENT.">
<polygon fill="white" stroke="black" points="607.5,-438.5 607.5,-468.5 776.5,-468.5 776.5,-438.5 607.5,-438.5"/>
<text text-anchor="start" x="615.5" y="-456.5" font-family="Helvetica,sans-Serif" font-size="10.00">denoptim.fragspace.Fragment</text>
<text text-anchor="middle" x="692" y="-445.5" font-family="Helvetica,sans-Serif" font-size="10.00">Space.groupAndClassifyFragments</text>
</a>
</g>
</g>
<!-- Node5&#45;&gt;Node7 -->
<g id="edge6" class="edge">
<title>Node5&#45;&gt;Node7</title>
<path fill="none" stroke="midnightblue" d="M826.69,-469.01C810.35,-467.11 793.16,-465.12 776.76,-463.22"/>
<polygon fill="midnightblue" stroke="midnightblue" points="826.4,-472.5 836.74,-470.18 827.21,-465.55 826.4,-472.5"/>
</g>
<!-- Node8 -->
<g id="node8" class="node">
<title>Node8</title>
<g id="a_node8"><a xlink:href="classdenoptim_1_1fragspace_1_1_fragment_space.html#a4792b534137a7989aab4ab2237d12438" target="_top" xlink:title="Define all components of this fragment space.">
<polygon fill="white" stroke="black" points="408,-472.5 408,-502.5 553,-502.5 553,-472.5 408,-472.5"/>
<text text-anchor="start" x="416" y="-490.5" font-family="Helvetica,sans-Serif" font-size="10.00">denoptim.fragspace.Fragment</text>
<text text-anchor="middle" x="480.5" y="-479.5" font-family="Helvetica,sans-Serif" font-size="10.00">Space.define</text>
</a>
</g>
</g>
<!-- Node7&#45;&gt;Node8 -->
<g id="edge7" class="edge">
<title>Node7&#45;&gt;Node8</title>
<path fill="none" stroke="midnightblue" d="M597.16,-468.73C582.42,-471.12 567.39,-473.56 553.26,-475.85"/>
<polygon fill="midnightblue" stroke="midnightblue" points="597.99,-472.14 607.3,-467.08 596.87,-465.23 597.99,-472.14"/>
</g>
<!-- Node10 -->
<g id="node10" class="node">
<title>Node10</title>
<g id="a_node10"><a xlink:href="classdenoptim_1_1fragspace_1_1_graph_link_finder_test.html#a5703166de7261111b98b40fce0c9fad6" target="_top" xlink:title=" ">
<polygon fill="white" stroke="black" points="415.5,-404.5 415.5,-434.5 545.5,-434.5 545.5,-404.5 415.5,-404.5"/>
<text text-anchor="start" x="423.5" y="-422.5" font-family="Helvetica,sans-Serif" font-size="10.00">denoptim.fragspace.Graph</text>
<text text-anchor="middle" x="480.5" y="-411.5" font-family="Helvetica,sans-Serif" font-size="10.00">LinkFinderTest.prepare</text>
</a>
</g>
</g>
<!-- Node7&#45;&gt;Node10 -->
<g id="edge9" class="edge">
<title>Node7&#45;&gt;Node10</title>
<path fill="none" stroke="midnightblue" d="M597.12,-438.26C579.74,-435.44 561.95,-432.56 545.71,-429.92"/>
<polygon fill="midnightblue" stroke="midnightblue" points="596.87,-441.77 607.3,-439.92 597.99,-434.86 596.87,-441.77"/>
</g>
<!-- Node9 -->
<g id="node9" class="node">
<title>Node9</title>
<g id="a_node9"><a xlink:href="classdenoptim_1_1fragspace_1_1_fragment_space.html#ad10ece408a10dbb06fa5d75747ae1fbb" target="_top" xlink:title="Define all components of a fragment space that implements the attachment point class&#45;approach.">
<polygon fill="white" stroke="black" points="214,-558.5 214,-588.5 359,-588.5 359,-558.5 214,-558.5"/>
<text text-anchor="start" x="222" y="-576.5" font-family="Helvetica,sans-Serif" font-size="10.00">denoptim.fragspace.Fragment</text>
<text text-anchor="middle" x="286.5" y="-565.5" font-family="Helvetica,sans-Serif" font-size="10.00">Space.FragmentSpace</text>
</a>
</g>
</g>
<!-- Node8&#45;&gt;Node9 -->
<g id="edge8" class="edge">
<title>Node8&#45;&gt;Node9</title>
<path fill="none" stroke="midnightblue" d="M442.32,-507.19C420.61,-518.39 392.55,-532.36 367,-543.5 355.1,-548.69 341.99,-553.86 329.9,-558.4"/>
<polygon fill="midnightblue" stroke="midnightblue" points="443.94,-510.29 451.21,-502.58 440.72,-504.08 443.94,-510.29"/>
</g>
<!-- Node11 -->
<g id="node11" class="node">
<title>Node11</title>
<g id="a_node11"><a xlink:href="classdenoptim_1_1fragspace_1_1_graph_link_finder_test.html#a586ff58307127b487068fe2aa5e43359" target="_top" xlink:title="Creates a test graph that looks like this: v0(A)&#45;(A)v1(B)&#45;(C)v2.">
<polygon fill="white" stroke="black" points="206,-382.5 206,-412.5 367,-412.5 367,-382.5 206,-382.5"/>
<text text-anchor="start" x="214" y="-400.5" font-family="Helvetica,sans-Serif" font-size="10.00">denoptim.fragspace.Graph</text>
<text text-anchor="middle" x="286.5" y="-389.5" font-family="Helvetica,sans-Serif" font-size="10.00">LinkFinderTest.makeTestGraphA</text>
</a>
</g>
</g>
<!-- Node10&#45;&gt;Node11 -->
<g id="edge10" class="edge">
<title>Node10&#45;&gt;Node11</title>
<path fill="none" stroke="midnightblue" d="M405.36,-411C392.79,-409.56 379.7,-408.06 367.01,-406.61"/>
<polygon fill="midnightblue" stroke="midnightblue" points="404.97,-414.48 415.3,-412.14 405.76,-407.53 404.97,-414.48"/>
</g>
<!-- Node12 -->
<g id="node12" class="node">
<title>Node12</title>
<g id="a_node12"><a xlink:href="classdenoptim_1_1fragspace_1_1_graph_link_finder_test.html#a10f29a0409c104973230371493a734ed" target="_top" xlink:title=" ">
<polygon fill="white" stroke="black" points="3,-419.5 3,-449.5 167,-449.5 167,-419.5 3,-419.5"/>
<text text-anchor="start" x="11" y="-437.5" font-family="Helvetica,sans-Serif" font-size="10.00">denoptim.fragspace.Graph</text>
<text text-anchor="middle" x="85" y="-426.5" font-family="Helvetica,sans-Serif" font-size="10.00">LinkFinderTest.testLinkFromEdge</text>
</a>
</g>
</g>
<!-- Node10&#45;&gt;Node12 -->
<g id="edge17" class="edge">
<title>Node10&#45;&gt;Node12</title>
<path fill="none" stroke="midnightblue" d="M405.21,-422.33C337.3,-424.92 237.1,-428.74 167.13,-431.41"/>
<polygon fill="midnightblue" stroke="midnightblue" points="405.54,-425.82 415.4,-421.94 405.28,-418.83 405.54,-425.82"/>
</g>
<!-- Node13 -->
<g id="node13" class="node">
<title>Node13</title>
<g id="a_node13"><a xlink:href="classdenoptim_1_1fragspace_1_1_graph_link_finder_test.html#a11b5fce33ae34132f5b16a11b57aaae7" target="_top" xlink:title=" ">
<polygon fill="white" stroke="black" points="0,-364.5 0,-394.5 170,-394.5 170,-364.5 0,-364.5"/>
<text text-anchor="start" x="8" y="-382.5" font-family="Helvetica,sans-Serif" font-size="10.00">denoptim.fragspace.Graph</text>
<text text-anchor="middle" x="85" y="-371.5" font-family="Helvetica,sans-Serif" font-size="10.00">LinkFinderTest.testLinkFromVertex</text>
</a>
</g>
</g>
<!-- Node10&#45;&gt;Node13 -->
<g id="edge20" class="edge">
<title>Node10&#45;&gt;Node13</title>
<path fill="none" stroke="midnightblue" d="M442.27,-400C420.88,-389.91 393.15,-378.64 367,-373.5 301.76,-360.68 226.37,-363.2 170.11,-368.37"/>
<polygon fill="midnightblue" stroke="midnightblue" points="440.8,-403.18 451.32,-404.38 443.85,-396.88 440.8,-403.18"/>
</g>
<!-- Node14 -->
<g id="node14" class="node">
<title>Node14</title>
<g id="a_node14"><a xlink:href="classdenoptim_1_1fragspace_1_1_graph_link_finder_test.html#a788a4b1620fa0610d9f306e2e8b3a75a" target="_top" xlink:title="Creates a test graph that looks like this: v0(E)&#45;(E)v1.">
<polygon fill="white" stroke="black" points="206.5,-256.5 206.5,-286.5 366.5,-286.5 366.5,-256.5 206.5,-256.5"/>
<text text-anchor="start" x="214.5" y="-274.5" font-family="Helvetica,sans-Serif" font-size="10.00">denoptim.fragspace.Graph</text>
<text text-anchor="middle" x="286.5" y="-263.5" font-family="Helvetica,sans-Serif" font-size="10.00">LinkFinderTest.makeTestGraphE</text>
</a>
</g>
</g>
<!-- Node10&#45;&gt;Node14 -->
<g id="edge13" class="edge">
<title>Node10&#45;&gt;Node14</title>
<path fill="none" stroke="midnightblue" d="M462.49,-396.15C442.32,-369.92 406.43,-327.62 367,-301.5 358.14,-295.63 347.98,-290.7 337.95,-286.63"/>
<polygon fill="midnightblue" stroke="midnightblue" points="459.89,-398.51 468.71,-404.38 465.47,-394.29 459.89,-398.51"/>
</g>
<!-- Node15 -->
<g id="node15" class="node">
<title>Node15</title>
<g id="a_node15"><a xlink:href="classdenoptim_1_1fragspace_1_1_graph_link_finder_test.html#a0ec3c77508e8ec583b570a6803056e9a" target="_top" xlink:title=" ">
<polygon fill="white" stroke="black" points="3,-273 3,-314 167,-314 167,-273 3,-273"/>
<text text-anchor="start" x="11" y="-302" font-family="Helvetica,sans-Serif" font-size="10.00">denoptim.fragspace.Graph</text>
<text text-anchor="start" x="11" y="-291" font-family="Helvetica,sans-Serif" font-size="10.00">LinkFinderTest.testLinkFromEdge</text>
<text text-anchor="middle" x="85" y="-280" font-family="Helvetica,sans-Serif" font-size="10.00">OneMatch</text>
</a>
</g>
</g>
<!-- Node10&#45;&gt;Node15 -->
<g id="edge19" class="edge">
<title>Node10&#45;&gt;Node15</title>
<path fill="none" stroke="midnightblue" d="M446.48,-398.95C424.61,-386.09 394.91,-370.02 367,-359.5 301.7,-334.9 224.3,-317.53 167.28,-306.81"/>
<polygon fill="midnightblue" stroke="midnightblue" points="444.96,-402.12 455.35,-404.24 448.55,-396.11 444.96,-402.12"/>
</g>
<!-- Node16 -->
<g id="node16" class="node">
<title>Node16</title>
<g id="a_node16"><a xlink:href="classdenoptim_1_1fragspace_1_1_graph_link_finder_test.html#a978d58856f04a9a844344ad2cacc812b" target="_top" xlink:title="Creates a test graph that looks like this: v0(F)&#45;(F)v1.">
<polygon fill="white" stroke="black" points="206.5,-470.5 206.5,-500.5 366.5,-500.5 366.5,-470.5 206.5,-470.5"/>
<text text-anchor="start" x="214.5" y="-488.5" font-family="Helvetica,sans-Serif" font-size="10.00">denoptim.fragspace.Graph</text>
<text text-anchor="middle" x="286.5" y="-477.5" font-family="Helvetica,sans-Serif" font-size="10.00">LinkFinderTest.makeTestGraphF</text>
</a>
</g>
</g>
<!-- Node10&#45;&gt;Node16 -->
<g id="edge15" class="edge">
<title>Node10&#45;&gt;Node16</title>
<path fill="none" stroke="midnightblue" d="M425.64,-438.02C395.87,-448.25 359.35,-460.8 331.34,-470.43"/>
<polygon fill="midnightblue" stroke="midnightblue" points="427.13,-441.2 435.45,-434.64 424.86,-434.58 427.13,-441.2"/>
</g>
<!-- Node17 -->
<g id="node17" class="node">
<title>Node17</title>
<g id="a_node17"><a xlink:href="classdenoptim_1_1fragspace_1_1_graph_link_finder_test.html#a027bbe60b63ad7c458011fe4c4814ff7" target="_top" xlink:title=" ">
<polygon fill="white" stroke="black" points="3,-471 3,-512 167,-512 167,-471 3,-471"/>
<text text-anchor="start" x="11" y="-500" font-family="Helvetica,sans-Serif" font-size="10.00">denoptim.fragspace.Graph</text>
<text text-anchor="start" x="11" y="-489" font-family="Helvetica,sans-Serif" font-size="10.00">LinkFinderTest.testLinkFromEdge</text>
<text text-anchor="middle" x="85" y="-478" font-family="Helvetica,sans-Serif" font-size="10.00">NoMatch</text>
</a>
</g>
</g>
<!-- Node10&#45;&gt;Node17 -->
<g id="edge18" class="edge">
<title>Node10&#45;&gt;Node17</title>
<path fill="none" stroke="midnightblue" d="M437.82,-439.54C425.92,-446.27 413.38,-454.41 403,-463.5 383.21,-480.84 390.59,-498.85 367,-510.5 296.74,-545.19 204.33,-529 145.04,-512.04"/>
<polygon fill="midnightblue" stroke="midnightblue" points="439.64,-442.53 446.75,-434.67 436.29,-436.38 439.64,-442.53"/>
</g>
<!-- Node11&#45;&gt;Node12 -->
<g id="edge11" class="edge">
<title>Node11&#45;&gt;Node12</title>
<path fill="none" stroke="midnightblue" d="M195.81,-414.13C186.17,-415.92 176.41,-417.73 166.88,-419.5"/>
<polygon fill="midnightblue" stroke="midnightblue" points="196.6,-417.55 205.79,-412.28 195.32,-410.67 196.6,-417.55"/>
</g>
<!-- Node11&#45;&gt;Node13 -->
<g id="edge12" class="edge">
<title>Node11&#45;&gt;Node13</title>
<path fill="none" stroke="midnightblue" d="M195.83,-389.41C187.28,-388.64 178.64,-387.86 170.16,-387.09"/>
<polygon fill="midnightblue" stroke="midnightblue" points="195.52,-392.9 205.79,-390.31 196.15,-385.92 195.52,-392.9"/>
</g>
<!-- Node14&#45;&gt;Node15 -->
<g id="edge14" class="edge">
<title>Node14&#45;&gt;Node15</title>
<path fill="none" stroke="midnightblue" d="M196.36,-281.33C186.69,-282.4 176.89,-283.48 167.33,-284.53"/>
<polygon fill="midnightblue" stroke="midnightblue" points="196.81,-284.8 206.37,-280.23 196.04,-277.84 196.81,-284.8"/>
</g>
<!-- Node16&#45;&gt;Node17 -->
<g id="edge16" class="edge">
<title>Node16&#45;&gt;Node17</title>
<path fill="none" stroke="midnightblue" d="M196.36,-488.18C186.69,-488.47 176.89,-488.77 167.33,-489.05"/>
<polygon fill="midnightblue" stroke="midnightblue" points="196.48,-491.68 206.37,-487.88 196.27,-484.68 196.48,-491.68"/>
</g>
<!-- Node19 -->
<g id="node19" class="node">
<title>Node19</title>
<g id="a_node19"><a xlink:href="classdenoptim_1_1fragspace_1_1_a_p_map_finder.html#ae5c8afa4b7defd6ce35df0fa1c5facf2" target="_top" xlink:title="Searches for mappings between the AttachmentPoints on the two lists.">
<polygon fill="white" stroke="black" points="624,-277.5 624,-307.5 760,-307.5 760,-277.5 624,-277.5"/>
<text text-anchor="start" x="632" y="-295.5" font-family="Helvetica,sans-Serif" font-size="10.00">denoptim.fragspace.APMap</text>
<text text-anchor="middle" x="692" y="-284.5" font-family="Helvetica,sans-Serif" font-size="10.00">Finder.findAllMappings</text>
</a>
</g>
</g>
<!-- Node18&#45;&gt;Node19 -->
<g id="edge22" class="edge">
<title>Node18&#45;&gt;Node19</title>
<path fill="none" stroke="midnightblue" d="M815.78,-292.5C797.08,-292.5 777.75,-292.5 760.12,-292.5"/>
<polygon fill="midnightblue" stroke="midnightblue" points="815.8,-296 825.8,-292.5 815.8,-289 815.8,-296"/>
</g>
<!-- Node20 -->
<g id="node20" class="node">
<title>Node20</title>
<g id="a_node20"><a xlink:href="classdenoptim_1_1fragspace_1_1_a_p_map_finder.html#ada1b2c2155faeefced1d9a64f82a6668" target="_top" xlink:title="Constructor that launches the search for a mapping between the AttachmentPoints on the first vertex t...">
<polygon fill="white" stroke="black" points="412.5,-277.5 412.5,-307.5 548.5,-307.5 548.5,-277.5 412.5,-277.5"/>
<text text-anchor="start" x="420.5" y="-295.5" font-family="Helvetica,sans-Serif" font-size="10.00">denoptim.fragspace.APMap</text>
<text text-anchor="middle" x="480.5" y="-284.5" font-family="Helvetica,sans-Serif" font-size="10.00">Finder.APMapFinder</text>
</a>
</g>
</g>
<!-- Node19&#45;&gt;Node20 -->
<g id="edge23" class="edge">
<title>Node19&#45;&gt;Node20</title>
<path fill="none" stroke="midnightblue" d="M613.83,-292.5C592.44,-292.5 569.4,-292.5 548.63,-292.5"/>
<polygon fill="midnightblue" stroke="midnightblue" points="613.85,-296 623.85,-292.5 613.85,-289 613.85,-296"/>
</g>
<!-- Node22&#45;&gt;Node3 -->
<g id="edge26" class="edge">
<title>Node22&#45;&gt;Node3</title>
<path fill="none" stroke="midnightblue" d="M845.81,-411.57C839.11,-409.56 832.41,-407.51 826,-405.5 795.77,-395.99 761.95,-384.54 735.97,-375.56"/>
<polygon fill="midnightblue" stroke="midnightblue" points="845,-414.98 855.58,-414.47 847,-408.27 845,-414.98"/>
</g>
<!-- Node25 -->
<g id="node25" class="node">
<title>Node25</title>
<g id="a_node25"><a xlink:href="classdenoptim_1_1ga_1_1_population.html#a6ee19df57078d4a4e9831cf97dcf7cc4" target="_top" xlink:title="Does not clone the cross&#45;over compatibility relations between each pairs of population members.">
<polygon fill="white" stroke="black" points="620.5,-190 620.5,-209 763.5,-209 763.5,-190 620.5,-190"/>
<text text-anchor="middle" x="692" y="-197" font-family="Helvetica,sans-Serif" font-size="10.00">denoptim.ga.Population.clone</text>
</a>
</g>
</g>
<!-- Node24&#45;&gt;Node25 -->
<g id="edge29" class="edge">
<title>Node24&#45;&gt;Node25</title>
<path fill="none" stroke="midnightblue" d="M816.43,-199.5C798.81,-199.5 780.62,-199.5 763.8,-199.5"/>
<polygon fill="midnightblue" stroke="midnightblue" points="816.72,-203 826.72,-199.5 816.72,-196 816.72,-203"/>
</g>
<!-- Node25&#45;&gt;Node25 -->
<g id="edge30" class="edge">
<title>Node25&#45;&gt;Node25</title>
<path fill="none" stroke="midnightblue" d="M731.28,-216.12C732.65,-222.36 719.56,-227.5 692,-227.5 654.47,-227.5 643.77,-217.96 659.89,-209.11"/>
<polygon fill="midnightblue" stroke="midnightblue" points="733.7,-213.6 724.11,-209.11 728.81,-218.6 733.7,-213.6"/>
</g>
<!-- Node26 -->
<g id="node26" class="node">
<title>Node26</title>
<g id="a_node26"><a xlink:href="classdenoptim_1_1ga_1_1_population_test.html#a5db0672054a9fc1dbc923310732fdb3a" target="_top" xlink:title=" ">
<polygon fill="white" stroke="black" points="403,-184.5 403,-214.5 558,-214.5 558,-184.5 403,-184.5"/>
<text text-anchor="start" x="411" y="-202.5" font-family="Helvetica,sans-Serif" font-size="10.00">denoptim.ga.PopulationTest.test</text>
<text text-anchor="middle" x="480.5" y="-191.5" font-family="Helvetica,sans-Serif" font-size="10.00">Clone</text>
</a>
</g>
</g>
<!-- Node25&#45;&gt;Node26 -->
<g id="edge31" class="edge">
<title>Node25&#45;&gt;Node26</title>
<path fill="none" stroke="midnightblue" d="M609.93,-199.5C592.96,-199.5 575.11,-199.5 558.3,-199.5"/>
<polygon fill="midnightblue" stroke="midnightblue" points="610.36,-203 620.36,-199.5 610.36,-196 610.36,-203"/>
</g>
<!-- Node27&#45;&gt;Node2 -->
<g id="edge38" class="edge">
<title>Node27&#45;&gt;Node2</title>
<path fill="none" stroke="midnightblue" d="M833.86,-82.78C808.39,-88.33 780.2,-94.48 755.76,-99.81"/>
<polygon fill="midnightblue" stroke="midnightblue" points="834.82,-86.15 843.84,-80.6 833.33,-79.31 834.82,-86.15"/>
</g>
<!-- Node28 -->
<g id="node28" class="node">
<title>Node28</title>
<g id="a_node28"><a xlink:href="classdenoptim_1_1ga_1_1_e_a_utils.html#a5cb6bbe9f383bf821f3b1f1c5e60031b" target="_top" xlink:title=" ">
<polygon fill="white" stroke="black" points="628.5,-49.5 628.5,-79.5 755.5,-79.5 755.5,-49.5 628.5,-49.5"/>
<text text-anchor="start" x="636.5" y="-67.5" font-family="Helvetica,sans-Serif" font-size="10.00">denoptim.ga.EAUtils.build</text>
<text text-anchor="middle" x="692" y="-56.5" font-family="Helvetica,sans-Serif" font-size="10.00">CandidateByMutation</text>
</a>
</g>
</g>
<!-- Node27&#45;&gt;Node28 -->
<g id="edge33" class="edge">
<title>Node27&#45;&gt;Node28</title>
<path fill="none" stroke="midnightblue" d="M833.52,-65.8C808.15,-65.57 780.09,-65.31 755.76,-65.08"/>
<polygon fill="midnightblue" stroke="midnightblue" points="833.81,-69.31 843.84,-65.9 833.88,-62.31 833.81,-69.31"/>
</g>
<!-- Node33 -->
<g id="node33" class="node">
<title>Node33</title>
<g id="a_node33"><a xlink:href="classdenoptim_1_1ga_1_1_e_a_utils.html#ad3d2daeb11e68a356e971ca1846596b5" target="_top" xlink:title=" ">
<polygon fill="white" stroke="black" points="628.5,-0.5 628.5,-30.5 755.5,-30.5 755.5,-0.5 628.5,-0.5"/>
<text text-anchor="start" x="636.5" y="-18.5" font-family="Helvetica,sans-Serif" font-size="10.00">denoptim.ga.EAUtils.build</text>
<text text-anchor="middle" x="692" y="-7.5" font-family="Helvetica,sans-Serif" font-size="10.00">CandidateFromScratch</text>
</a>
</g>
</g>
<!-- Node27&#45;&gt;Node33 -->
<g id="edge39" class="edge">
<title>Node27&#45;&gt;Node33</title>
<path fill="none" stroke="midnightblue" d="M835.26,-49.17C809.4,-43.05 780.57,-36.22 755.67,-30.33"/>
<polygon fill="midnightblue" stroke="midnightblue" points="834.47,-52.58 845.01,-51.47 836.08,-45.77 834.47,-52.58"/>
</g>
<!-- Node29 -->
<g id="node29" class="node">
<title>Node29</title>
<g id="a_node29"><a xlink:href="classdenoptim_1_1ga_1_1_evolutionary_algorithm.html#a596b2f5f0b097c5b67a6e5163bd6fe66" target="_top" xlink:title="Generates a given number of new candidate items and adds them to the current population.">
<polygon fill="white" stroke="black" points="413.5,-49.5 413.5,-79.5 547.5,-79.5 547.5,-49.5 413.5,-49.5"/>
<text text-anchor="start" x="421.5" y="-67.5" font-family="Helvetica,sans-Serif" font-size="10.00">denoptim.ga.Evolutionary</text>
<text text-anchor="middle" x="480.5" y="-56.5" font-family="Helvetica,sans-Serif" font-size="10.00">Algorithm.evolvePopulation</text>
</a>
</g>
</g>
<!-- Node28&#45;&gt;Node29 -->
<g id="edge34" class="edge">
<title>Node28&#45;&gt;Node29</title>
<path fill="none" stroke="midnightblue" d="M618.41,-64.5C595.46,-64.5 570.23,-64.5 547.76,-64.5"/>
<polygon fill="midnightblue" stroke="midnightblue" points="618.43,-68 628.43,-64.5 618.43,-61 618.43,-68"/>
</g>
<!-- Node30 -->
<g id="node30" class="node">
<title>Node30</title>
<g id="a_node30"><a xlink:href="classdenoptim_1_1ga_1_1_evolutionary_algorithm.html#a6bfc2fa59b199da6259b5b6bad3d6de7" target="_top" xlink:title=" ">
<polygon fill="white" stroke="black" points="224.5,-25.5 224.5,-55.5 348.5,-55.5 348.5,-25.5 224.5,-25.5"/>
<text text-anchor="start" x="232.5" y="-43.5" font-family="Helvetica,sans-Serif" font-size="10.00">denoptim.ga.Evolutionary</text>
<text text-anchor="middle" x="286.5" y="-32.5" font-family="Helvetica,sans-Serif" font-size="10.00">Algorithm.run</text>
</a>
</g>
</g>
<!-- Node29&#45;&gt;Node30 -->
<g id="edge35" class="edge">
<title>Node29&#45;&gt;Node30</title>
<path fill="none" stroke="midnightblue" d="M403.42,-54.99C385.2,-52.71 365.98,-50.31 348.53,-48.13"/>
<polygon fill="midnightblue" stroke="midnightblue" points="403.07,-58.47 413.42,-56.24 403.94,-51.53 403.07,-58.47"/>
</g>
<!-- Node31 -->
<g id="node31" class="node">
<title>Node31</title>
<g id="a_node31"><a xlink:href="classdenoptim_1_1ga_1_1_evolutionary_algorithm.html#a0f2063b722b7291daf83d62acaa683d3" target="_top" xlink:title=" ">
<polygon fill="white" stroke="black" points="8,-50.5 8,-80.5 162,-80.5 162,-50.5 8,-50.5"/>
<text text-anchor="start" x="16" y="-68.5" font-family="Helvetica,sans-Serif" font-size="10.00">denoptim.ga.Evolutionary</text>
<text text-anchor="middle" x="85" y="-57.5" font-family="Helvetica,sans-Serif" font-size="10.00">Algorithm.EvolutionaryAlgorithm</text>
</a>
</g>
</g>
<!-- Node30&#45;&gt;Node31 -->
<g id="edge36" class="edge">
<title>Node30&#45;&gt;Node31</title>
<path fill="none" stroke="midnightblue" d="M214,-49.46C197.21,-51.56 179.25,-53.82 162.25,-55.94"/>
<polygon fill="midnightblue" stroke="midnightblue" points="214.8,-52.89 224.29,-48.17 213.93,-45.94 214.8,-52.89"/>
</g>
<!-- Node32 -->
<g id="node32" class="node">
<title>Node32</title>
<g id="a_node32"><a xlink:href="classdenoptim_1_1programs_1_1denovo_1_1_g_a_runner.html#a7cafd6d78727b89dce3e2c8d06f0dd7c" target="_top" xlink:title=" ">
<polygon fill="white" stroke="black" points="17.5,-1.5 17.5,-31.5 152.5,-31.5 152.5,-1.5 17.5,-1.5"/>
<text text-anchor="start" x="25.5" y="-19.5" font-family="Helvetica,sans-Serif" font-size="10.00">denoptim.programs.denovo.</text>
<text text-anchor="middle" x="85" y="-8.5" font-family="Helvetica,sans-Serif" font-size="10.00">GARunner.runProgram</text>
</a>
</g>
</g>
<!-- Node30&#45;&gt;Node32 -->
<g id="edge37" class="edge">
<title>Node30&#45;&gt;Node32</title>
<path fill="none" stroke="midnightblue" d="M214.28,-31.93C194.2,-29.52 172.45,-26.9 152.65,-24.52"/>
<polygon fill="midnightblue" stroke="midnightblue" points="213.94,-35.42 224.29,-33.14 214.78,-28.47 213.94,-35.42"/>
</g>
<!-- Node33&#45;&gt;Node29 -->
<g id="edge40" class="edge">
<title>Node33&#45;&gt;Node29</title>
<path fill="none" stroke="midnightblue" d="M618.48,-32.46C594.89,-37.98 568.88,-44.06 545.93,-49.43"/>
<polygon fill="midnightblue" stroke="midnightblue" points="619.49,-35.82 628.43,-30.14 617.89,-29 619.49,-35.82"/>
</g>
<!-- Node34 -->
<g id="node34" class="node">
<title>Node34</title>
<g id="a_node34"><a xlink:href="classdenoptim_1_1ga_1_1_evolutionary_algorithm.html#ad43588620dab3340e0d8b0042ec73618" target="_top" xlink:title="Fills up the population with candidates build from scratch.">
<polygon fill="white" stroke="black" points="410.5,-0.5 410.5,-30.5 550.5,-30.5 550.5,-0.5 410.5,-0.5"/>
<text text-anchor="start" x="418.5" y="-18.5" font-family="Helvetica,sans-Serif" font-size="10.00">denoptim.ga.Evolutionary</text>
<text text-anchor="middle" x="480.5" y="-7.5" font-family="Helvetica,sans-Serif" font-size="10.00">Algorithm.initializePopulation</text>
</a>
</g>
</g>
<!-- Node33&#45;&gt;Node34 -->
<g id="edge41" class="edge">
<title>Node33&#45;&gt;Node34</title>
<path fill="none" stroke="midnightblue" d="M618.2,-15.5C596.31,-15.5 572.36,-15.5 550.71,-15.5"/>
<polygon fill="midnightblue" stroke="midnightblue" points="618.43,-19 628.43,-15.5 618.43,-12 618.43,-19"/>
</g>
<!-- Node34&#45;&gt;Node30 -->
<g id="edge42" class="edge">
<title>Node34&#45;&gt;Node30</title>
<path fill="none" stroke="midnightblue" d="M400.38,-25.8C383.1,-28.05 365.07,-30.4 348.61,-32.54"/>
<polygon fill="midnightblue" stroke="midnightblue" points="400.99,-29.25 410.45,-24.49 400.09,-22.31 400.99,-29.25"/>
</g>
</g>
</svg>
