<?xml version="1.0" encoding="UTF-8" standalone="no"?>
<!DOCTYPE svg PUBLIC "-//W3C//DTD SVG 1.1//EN"
 "http://www.w3.org/Graphics/SVG/1.1/DTD/svg11.dtd">
<!-- Generated by graphviz version 3.0.0 (20220413.0242)
 -->
<!-- Title: denoptim.graph.DGraph.appendGraphOnGraph Pages: 1 -->
<!--zoomable 402 -->
<svg id="main" version="1.1" xmlns="http://www.w3.org/2000/svg" xmlns:xlink="http://www.w3.org/1999/xlink" xml:space="preserve" onload="init(evt)">
<style type="text/css"><![CDATA[
.edge:hover path { stroke: red; }
.edge:hover polygon { stroke: red; fill: red; }
]]></style>
<script type="text/javascript"><![CDATA[
var edges = document.getElementsByTagName('g');
if (edges && edges.length) {
  for (var i=0;i<edges.length;i++) {
    if (edges[i].id.substr(0,4)=='edge') {
      edges[i].setAttribute('class','edge');
    }
  }
}
]]></script>
        <defs>
                <circle id="rim" cx="0" cy="0" r="7"/>
                <circle id="rim2" cx="0" cy="0" r="3.5"/>
                <g id="zoomPlus">
                        <use xlink:href="#rim" fill="#404040">
                                <set attributeName="fill" to="#808080" begin="zoomplus.mouseover" end="zoomplus.mouseout"/>
                        </use>
                        <path d="M-4,0h8M0,-4v8" fill="none" stroke="white" stroke-width="1.5" pointer-events="none"/>
                </g>
                <g id="zoomMin">
                        <use xlink:href="#rim" fill="#404040">
                                <set attributeName="fill" to="#808080" begin="zoomminus.mouseover" end="zoomminus.mouseout"/>
                        </use>
                        <path d="M-4,0h8" fill="none" stroke="white" stroke-width="1.5" pointer-events="none"/>
                </g>
                <g id="dirArrow">
                        <path fill="none" stroke="white" stroke-width="1.5" d="M0,-3.0v7 M-2.5,-0.5L0,-3.0L2.5,-0.5"/>
                </g>
               <g id="resetDef">
                       <use xlink:href="#rim2" fill="#404040">
                               <set attributeName="fill" to="#808080" begin="reset.mouseover" end="reset.mouseout"/>
                       </use>
               </g>
        </defs>

<script type="text/javascript">
var viewWidth = 919;
var viewHeight = 402;
var sectionId = 'dynsection-16';
</script>
<script xlink:href="svgpan.js"/>
<svg id="graph" class="graph">
<g id="viewport">
<title>denoptim.graph.DGraph.appendGraphOnGraph</title>
<polygon fill="white" stroke="transparent" points="-4,4 -4,-398.49 915,-398.49 915,4 -4,4"/>
<!-- Node1 -->
<g id="node1" class="node">
<title>Node1</title>
<g id="a_node1"><a xlink:title="Append a graph (incoming=I) onto this graph (receiving=R).">
<polygon fill="#bfbfbf" stroke="black" points="0,-79.5 0,-109.5 152,-109.5 152,-79.5 0,-79.5"/>
<text text-anchor="start" x="8" y="-97.5" font-family="Helvetica,sans-Serif" font-size="10.00">denoptim.graph.DGraph.append</text>
<text text-anchor="middle" x="76" y="-86.5" font-family="Helvetica,sans-Serif" font-size="10.00">GraphOnGraph</text>
</a>
</g>
</g>
<!-- Node2 -->
<g id="node2" class="node">
<title>Node2</title>
<g id="a_node2"><a xlink:href="classdenoptim_1_1graph_1_1_d_graph.html#a5e5447d406f6d4b9cbeb29c2222a721d" target="_top" xlink:title="Appends a graph onto this graph.">
<polygon fill="white" stroke="black" points="188,-170.5 188,-200.5 340,-200.5 340,-170.5 188,-170.5"/>
<text text-anchor="start" x="196" y="-188.5" font-family="Helvetica,sans-Serif" font-size="10.00">denoptim.graph.DGraph.append</text>
<text text-anchor="middle" x="264" y="-177.5" font-family="Helvetica,sans-Serif" font-size="10.00">GraphOnAP</text>
</a>
</g>
</g>
<!-- Node1&#45;&gt;Node2 -->
<g id="edge1" class="edge">
<title>Node1&#45;&gt;Node2</title>
<path fill="none" stroke="midnightblue" d="M107.71,-109.53C139.22,-124.94 188.36,-148.98 222.91,-165.89"/>
<polygon fill="midnightblue" stroke="midnightblue" points="221.72,-169.2 232.24,-170.45 224.8,-162.91 221.72,-169.2"/>
</g>
<!-- Node14 -->
<g id="node14" class="node">
<title>Node14</title>
<g id="a_node14"><a xlink:href="classdenoptim_1_1graph_1_1_symmetric_set.html#a6b6cfeafce2492c331902274f7508f21" target="_top" xlink:title="Return the list of symmetric identifiers.">
<polygon fill="white" stroke="black" points="775,-0.5 775,-30.5 906,-30.5 906,-0.5 775,-0.5"/>
<text text-anchor="start" x="783" y="-18.5" font-family="Helvetica,sans-Serif" font-size="10.00">denoptim.graph.Symmetric</text>
<text text-anchor="middle" x="840.5" y="-7.5" font-family="Helvetica,sans-Serif" font-size="10.00">Set.getList</text>
</a>
</g>
</g>
<!-- Node1&#45;&gt;Node14 -->
<g id="edge21" class="edge">
<title>Node1&#45;&gt;Node14</title>
<path fill="none" stroke="midnightblue" d="M125.87,-79.45C184.59,-62.18 286.41,-34.78 376,-23.5 512.23,-6.35 672.74,-8.51 764.66,-11.85"/>
<polygon fill="midnightblue" stroke="midnightblue" points="764.58,-15.35 774.7,-12.23 764.84,-8.36 764.58,-15.35"/>
</g>
<!-- Node3 -->
<g id="node3" class="node">
<title>Node3</title>
<g id="a_node3"><a xlink:href="classdenoptim_1_1graph_1_1_d_graph.html#aedfe0dc03ea1250a9944fcd30a888fa1" target="_top" xlink:title="Adds the edge to the list of edges belonging to this graph.">
<polygon fill="white" stroke="black" points="377.5,-258 377.5,-277 535.5,-277 535.5,-258 377.5,-258"/>
<text text-anchor="middle" x="456.5" y="-265" font-family="Helvetica,sans-Serif" font-size="10.00">denoptim.graph.DGraph.addEdge</text>
</a>
</g>
</g>
<!-- Node2&#45;&gt;Node3 -->
<g id="edge2" class="edge">
<title>Node2&#45;&gt;Node3</title>
<path fill="none" stroke="midnightblue" d="M287.44,-200.76C309.22,-214.94 343.63,-235.74 376,-248.5 382.39,-251.02 389.2,-253.26 396.05,-255.25"/>
<polygon fill="midnightblue" stroke="midnightblue" points="395.49,-258.72 406.06,-257.97 397.33,-251.97 395.49,-258.72"/>
</g>
<!-- Node4 -->
<g id="node4" class="node">
<title>Node4</title>
<g id="a_node4"><a xlink:href="classdenoptim_1_1graph_1_1_d_graph.html#ad16255987a45bace2ef62f2b49e0d873" target="_top" xlink:title=" ">
<polygon fill="white" stroke="black" points="379,-220 379,-239 534,-239 534,-220 379,-220"/>
<text text-anchor="middle" x="456.5" y="-227" font-family="Helvetica,sans-Serif" font-size="10.00">denoptim.graph.DGraph.addRing</text>
</a>
</g>
</g>
<!-- Node2&#45;&gt;Node4 -->
<g id="edge3" class="edge">
<title>Node2&#45;&gt;Node4</title>
<path fill="none" stroke="midnightblue" d="M330.03,-200.52C354.34,-206.14 381.59,-212.43 404.47,-217.71"/>
<polygon fill="midnightblue" stroke="midnightblue" points="403.78,-221.15 414.32,-219.99 405.36,-214.33 403.78,-221.15"/>
</g>
<!-- Node5 -->
<g id="node5" class="node">
<title>Node5</title>
<g id="a_node5"><a xlink:href="classdenoptim_1_1graph_1_1_d_graph.html#a33a3299b77560786461345412d2fe193" target="_top" xlink:title="Appends a vertex to this graph without creating any edge.">
<polygon fill="white" stroke="black" points="388.5,-170.5 388.5,-200.5 524.5,-200.5 524.5,-170.5 388.5,-170.5"/>
<text text-anchor="start" x="396.5" y="-188.5" font-family="Helvetica,sans-Serif" font-size="10.00">denoptim.graph.DGraph.add</text>
<text text-anchor="middle" x="456.5" y="-177.5" font-family="Helvetica,sans-Serif" font-size="10.00">Vertex</text>
</a>
</g>
</g>
<!-- Node2&#45;&gt;Node5 -->
<g id="edge4" class="edge">
<title>Node2&#45;&gt;Node5</title>
<path fill="none" stroke="midnightblue" d="M340.02,-185.5C352.59,-185.5 365.65,-185.5 378.27,-185.5"/>
<polygon fill="midnightblue" stroke="midnightblue" points="378.29,-189 388.29,-185.5 378.29,-182 378.29,-189"/>
</g>
<!-- Node8 -->
<g id="node8" class="node">
<title>Node8</title>
<g id="a_node8"><a xlink:href="classdenoptim_1_1graph_1_1_d_graph.html#abcfe2ce7f7bb4d5bea2dbbd816d12d2b" target="_top" xlink:title="Wipes the data in this graph.">
<polygon fill="white" stroke="black" points="379.5,-132 379.5,-151 533.5,-151 533.5,-132 379.5,-132"/>
<text text-anchor="middle" x="456.5" y="-139" font-family="Helvetica,sans-Serif" font-size="10.00">denoptim.graph.DGraph.cleanup</text>
</a>
</g>
</g>
<!-- Node2&#45;&gt;Node8 -->
<g id="edge7" class="edge">
<title>Node2&#45;&gt;Node8</title>
<path fill="none" stroke="midnightblue" d="M330.03,-170.48C354.34,-164.86 381.59,-158.57 404.47,-153.29"/>
<polygon fill="midnightblue" stroke="midnightblue" points="405.36,-156.67 414.32,-151.01 403.78,-149.85 405.36,-156.67"/>
</g>
<!-- Node9 -->
<g id="node9" class="node">
<title>Node9</title>
<g id="a_node9"><a xlink:href="classdenoptim_1_1graph_1_1_d_graph.html#a874ffbf9eee39f72dba3905cf378b469" target="_top" xlink:title=" ">
<polygon fill="white" stroke="black" points="389.5,-82.5 389.5,-112.5 523.5,-112.5 523.5,-82.5 389.5,-82.5"/>
<text text-anchor="start" x="397.5" y="-100.5" font-family="Helvetica,sans-Serif" font-size="10.00">denoptim.graph.DGraph.get</text>
<text text-anchor="middle" x="456.5" y="-89.5" font-family="Helvetica,sans-Serif" font-size="10.00">EdgeList</text>
</a>
</g>
</g>
<!-- Node2&#45;&gt;Node9 -->
<g id="edge8" class="edge">
<title>Node2&#45;&gt;Node9</title>
<path fill="none" stroke="midnightblue" d="M288.07,-170.49C310.02,-156.67 344.3,-136.29 376,-122.5 381.35,-120.17 387,-117.95 392.7,-115.87"/>
<polygon fill="midnightblue" stroke="midnightblue" points="394.04,-119.11 402.33,-112.5 391.73,-112.5 394.04,-119.11"/>
</g>
<!-- Node10 -->
<g id="node10" class="node">
<title>Node10</title>
<g id="a_node10"><a xlink:href="classdenoptim_1_1graph_1_1_d_graph.html#abca37ac76270225e885ec800d170243b" target="_top" xlink:title=" ">
<polygon fill="white" stroke="black" points="389.5,-33.5 389.5,-63.5 523.5,-63.5 523.5,-33.5 389.5,-33.5"/>
<text text-anchor="start" x="397.5" y="-51.5" font-family="Helvetica,sans-Serif" font-size="10.00">denoptim.graph.DGraph.get</text>
<text text-anchor="middle" x="456.5" y="-40.5" font-family="Helvetica,sans-Serif" font-size="10.00">Rings</text>
</a>
</g>
</g>
<!-- Node2&#45;&gt;Node10 -->
<g id="edge9" class="edge">
<title>Node2&#45;&gt;Node10</title>
<path fill="none" stroke="midnightblue" d="M275.83,-170.32C293.88,-146.11 332.46,-98.82 376,-72.5 378.84,-70.78 381.81,-69.18 384.86,-67.69"/>
<polygon fill="midnightblue" stroke="midnightblue" points="386.52,-70.79 394.24,-63.53 383.68,-64.39 386.52,-70.79"/>
</g>
<!-- Node11 -->
<g id="node11" class="node">
<title>Node11</title>
<g id="a_node11"><a xlink:href="classdenoptim_1_1graph_1_1_d_graph.html#ac9bd2a29337782ffdc07a2a2fc70f135" target="_top" xlink:title=" ">
<polygon fill="white" stroke="black" points="773.5,-360.5 773.5,-390.5 907.5,-390.5 907.5,-360.5 773.5,-360.5"/>
<text text-anchor="start" x="781.5" y="-378.5" font-family="Helvetica,sans-Serif" font-size="10.00">denoptim.graph.DGraph.get</text>
<text text-anchor="middle" x="840.5" y="-367.5" font-family="Helvetica,sans-Serif" font-size="10.00">VertexList</text>
</a>
</g>
</g>
<!-- Node2&#45;&gt;Node11 -->
<g id="edge10" class="edge">
<title>Node2&#45;&gt;Node11</title>
<path fill="none" stroke="midnightblue" d="M271.06,-200.87C284.49,-232.65 320.07,-305.19 376,-336.5 497.81,-404.7 666.48,-398.58 763.17,-387.41"/>
<polygon fill="midnightblue" stroke="midnightblue" points="763.65,-390.87 773.16,-386.2 762.81,-383.92 763.65,-390.87"/>
</g>
<!-- Node12 -->
<g id="node12" class="node">
<title>Node12</title>
<g id="a_node12"><a xlink:href="classdenoptim_1_1graph_1_1_d_graph.html#a78dd305de83fa47a17964f9916519337" target="_top" xlink:title="Reassign vertex IDs to all vertices of this graph.">
<polygon fill="white" stroke="black" points="376,-296.5 376,-326.5 537,-326.5 537,-296.5 376,-296.5"/>
<text text-anchor="start" x="384" y="-314.5" font-family="Helvetica,sans-Serif" font-size="10.00">denoptim.graph.DGraph.renumber</text>
<text text-anchor="middle" x="456.5" y="-303.5" font-family="Helvetica,sans-Serif" font-size="10.00">GraphVertices</text>
</a>
</g>
</g>
<!-- Node2&#45;&gt;Node12 -->
<g id="edge11" class="edge">
<title>Node2&#45;&gt;Node12</title>
<path fill="none" stroke="midnightblue" d="M277.79,-200.74C296.98,-222.7 335.34,-263.14 376,-286.5 379.84,-288.71 383.91,-290.75 388.08,-292.62"/>
<polygon fill="midnightblue" stroke="midnightblue" points="386.78,-295.87 397.35,-296.48 389.46,-289.41 386.78,-295.87"/>
</g>
<!-- Node6 -->
<g id="node6" class="node">
<title>Node6</title>
<g id="a_node6"><a xlink:href="classdenoptim_1_1graph_1_1_d_graph.html#a104492665700f6225bb0a0fbc09479c1" target="_top" xlink:title="Checks if a number is already used as VertexIDs within the graph.">
<polygon fill="white" stroke="black" points="575,-170.5 575,-200.5 732,-200.5 732,-170.5 575,-170.5"/>
<text text-anchor="start" x="583" y="-188.5" font-family="Helvetica,sans-Serif" font-size="10.00">denoptim.graph.DGraph.contains</text>
<text text-anchor="middle" x="653.5" y="-177.5" font-family="Helvetica,sans-Serif" font-size="10.00">VertexID</text>
</a>
</g>
</g>
<!-- Node5&#45;&gt;Node6 -->
<g id="edge5" class="edge">
<title>Node5&#45;&gt;Node6</title>
<path fill="none" stroke="midnightblue" d="M524.61,-185.5C537.51,-185.5 551.21,-185.5 564.65,-185.5"/>
<polygon fill="midnightblue" stroke="midnightblue" points="564.87,-189 574.87,-185.5 564.87,-182 564.87,-189"/>
</g>
<!-- Node7 -->
<g id="node7" class="node">
<title>Node7</title>
<g id="a_node7"><a xlink:href="classdenoptim_1_1graph_1_1_d_graph.html#abc9d9eae901e1e868183f8bdaca13aea" target="_top" xlink:title=" ">
<polygon fill="white" stroke="black" points="586.5,-121.5 586.5,-151.5 720.5,-151.5 720.5,-121.5 586.5,-121.5"/>
<text text-anchor="start" x="594.5" y="-139.5" font-family="Helvetica,sans-Serif" font-size="10.00">denoptim.graph.DGraph.get</text>
<text text-anchor="middle" x="653.5" y="-128.5" font-family="Helvetica,sans-Serif" font-size="10.00">GraphId</text>
</a>
</g>
</g>
<!-- Node5&#45;&gt;Node7 -->
<g id="edge6" class="edge">
<title>Node5&#45;&gt;Node7</title>
<path fill="none" stroke="midnightblue" d="M517.33,-170.47C538.11,-165.24 561.58,-159.35 583.07,-153.95"/>
<polygon fill="midnightblue" stroke="midnightblue" points="583.94,-157.34 592.78,-151.51 582.23,-150.55 583.94,-157.34"/>
</g>
<!-- Node13 -->
<g id="node13" class="node">
<title>Node13</title>
<g id="a_node13"><a xlink:href="classdenoptim_1_1graph_1_1_d_graph.html#ac06114e85d2de27da6043ce161fa7523" target="_top" xlink:title="Reassign vertex IDs to a graph.">
<polygon fill="white" stroke="black" points="573,-219.5 573,-249.5 734,-249.5 734,-219.5 573,-219.5"/>
<text text-anchor="start" x="581" y="-237.5" font-family="Helvetica,sans-Serif" font-size="10.00">denoptim.graph.DGraph.renumber</text>
<text text-anchor="middle" x="653.5" y="-226.5" font-family="Helvetica,sans-Serif" font-size="10.00">VerticesGetMap</text>
</a>
</g>
</g>
<!-- Node12&#45;&gt;Node13 -->
<g id="edge12" class="edge">
<title>Node12&#45;&gt;Node13</title>
<path fill="none" stroke="midnightblue" d="M508.7,-296.38C518.18,-293.31 527.94,-289.95 537,-286.5 562.53,-276.78 590.49,-264.24 612.5,-253.92"/>
<polygon fill="midnightblue" stroke="midnightblue" points="614,-257.08 621.55,-249.64 611.01,-250.75 614,-257.08"/>
</g>
<!-- Node13&#45;&gt;Node11 -->
<g id="edge18" class="edge">
<title>Node13&#45;&gt;Node11</title>
<path fill="none" stroke="midnightblue" d="M665.61,-249.61C684.46,-274.26 725.08,-323.2 770,-351.5 772.62,-353.15 775.36,-354.7 778.18,-356.16"/>
<polygon fill="midnightblue" stroke="midnightblue" points="776.87,-359.41 787.41,-360.5 779.85,-353.07 776.87,-359.41"/>
</g>
<!-- Node13&#45;&gt;Node14 -->
<g id="edge13" class="edge">
<title>Node13&#45;&gt;Node14</title>
<path fill="none" stroke="midnightblue" d="M722.97,-219.49C727.01,-216.94 730.74,-213.97 734,-210.5 782.1,-159.24 728.38,-113.14 770,-56.5 776.03,-48.29 784.25,-41.43 792.93,-35.82"/>
<polygon fill="midnightblue" stroke="midnightblue" points="794.87,-38.74 801.68,-30.63 791.3,-32.72 794.87,-38.74"/>
</g>
<!-- Node15 -->
<g id="node15" class="node">
<title>Node15</title>
<g id="a_node15"><a xlink:href="classdenoptim_1_1graph_1_1_d_graph.html#a49bc7aa7c45f3aeaf6aff41095456c6e" target="_top" xlink:title="Get an iterator for the sets of symmetrically related vertices.">
<polygon fill="white" stroke="black" points="773.5,-164.5 773.5,-194.5 907.5,-194.5 907.5,-164.5 773.5,-164.5"/>
<text text-anchor="start" x="781.5" y="-182.5" font-family="Helvetica,sans-Serif" font-size="10.00">denoptim.graph.DGraph.get</text>
<text text-anchor="middle" x="840.5" y="-171.5" font-family="Helvetica,sans-Serif" font-size="10.00">SymSetsIterator</text>
</a>
</g>
</g>
<!-- Node13&#45;&gt;Node15 -->
<g id="edge14" class="edge">
<title>Node13&#45;&gt;Node15</title>
<path fill="none" stroke="midnightblue" d="M705.05,-219.47C727.99,-212.65 755.31,-204.53 779.3,-197.4"/>
<polygon fill="midnightblue" stroke="midnightblue" points="780.42,-200.72 789.01,-194.51 778.43,-194.01 780.42,-200.72"/>
</g>
<!-- Node16 -->
<g id="node16" class="node">
<title>Node16</title>
<g id="a_node16"><a xlink:href="classdenoptim_1_1utils_1_1_graph_utils.html#a9d08e1ef48052456de71c3c6955f1945" target="_top" xlink:title="Unique counter for the number of graph vertices generated.">
<polygon fill="white" stroke="black" points="770,-115.5 770,-145.5 911,-145.5 911,-115.5 770,-115.5"/>
<text text-anchor="start" x="778" y="-133.5" font-family="Helvetica,sans-Serif" font-size="10.00">denoptim.utils.GraphUtils.get</text>
<text text-anchor="middle" x="840.5" y="-122.5" font-family="Helvetica,sans-Serif" font-size="10.00">UniqueVertexIndex</text>
</a>
</g>
</g>
<!-- Node13&#45;&gt;Node16 -->
<g id="edge15" class="edge">
<title>Node13&#45;&gt;Node16</title>
<path fill="none" stroke="midnightblue" d="M718.92,-219.45C724.27,-216.91 729.38,-213.95 734,-210.5 757.39,-193 747.07,-173.6 770,-155.5 772.26,-153.71 774.67,-152.05 777.17,-150.49"/>
<polygon fill="midnightblue" stroke="midnightblue" points="778.91,-153.53 785.98,-145.64 775.53,-147.4 778.91,-153.53"/>
</g>
<!-- Node17 -->
<g id="node17" class="node">
<title>Node17</title>
<g id="a_node17"><a xlink:href="classdenoptim_1_1graph_1_1_d_graph.html#a3b7c2feb2da30079318f06819e0e6761" target="_top" xlink:title=" ">
<polygon fill="white" stroke="black" points="773.5,-66.5 773.5,-96.5 907.5,-96.5 907.5,-66.5 773.5,-66.5"/>
<text text-anchor="start" x="781.5" y="-84.5" font-family="Helvetica,sans-Serif" font-size="10.00">denoptim.graph.DGraph.get</text>
<text text-anchor="middle" x="840.5" y="-73.5" font-family="Helvetica,sans-Serif" font-size="10.00">VertexCount</text>
</a>
</g>
</g>
<!-- Node13&#45;&gt;Node17 -->
<g id="edge16" class="edge">
<title>Node13&#45;&gt;Node17</title>
<path fill="none" stroke="midnightblue" d="M722.19,-219.32C726.47,-216.81 730.47,-213.9 734,-210.5 769.27,-176.61 735.62,-141.29 770,-106.5 771.42,-105.06 772.93,-103.71 774.51,-102.43"/>
<polygon fill="midnightblue" stroke="midnightblue" points="776.65,-105.2 782.93,-96.67 772.7,-99.43 776.65,-105.2"/>
</g>
<!-- Node18 -->
<g id="node18" class="node">
<title>Node18</title>
<g id="a_node18"><a xlink:href="classdenoptim_1_1graph_1_1_vertex.html#af44ae05546096ec9060d7207f38bc8e9" target="_top" xlink:title=" ">
<polygon fill="white" stroke="black" points="776.5,-311.5 776.5,-341.5 904.5,-341.5 904.5,-311.5 776.5,-311.5"/>
<text text-anchor="start" x="784.5" y="-329.5" font-family="Helvetica,sans-Serif" font-size="10.00">denoptim.graph.Vertex.get</text>
<text text-anchor="middle" x="840.5" y="-318.5" font-family="Helvetica,sans-Serif" font-size="10.00">VertexId</text>
</a>
</g>
</g>
<!-- Node13&#45;&gt;Node18 -->
<g id="edge17" class="edge">
<title>Node13&#45;&gt;Node18</title>
<path fill="none" stroke="midnightblue" d="M677.21,-249.71C699.99,-264.52 736.41,-287 770,-302.5 774.02,-304.36 778.23,-306.15 782.5,-307.86"/>
<polygon fill="midnightblue" stroke="midnightblue" points="781.3,-311.15 791.89,-311.48 783.82,-304.62 781.3,-311.15"/>
</g>
<!-- Node19 -->
<g id="node19" class="node">
<title>Node19</title>
<g id="a_node19"><a xlink:href="classdenoptim_1_1graph_1_1_vertex.html#ad26ecf426a5e415605df94be904e58d3" target="_top" xlink:title=" ">
<polygon fill="white" stroke="black" points="776.5,-262.5 776.5,-292.5 904.5,-292.5 904.5,-262.5 776.5,-262.5"/>
<text text-anchor="start" x="784.5" y="-280.5" font-family="Helvetica,sans-Serif" font-size="10.00">denoptim.graph.Vertex.set</text>
<text text-anchor="middle" x="840.5" y="-269.5" font-family="Helvetica,sans-Serif" font-size="10.00">Property</text>
</a>
</g>
</g>
<!-- Node13&#45;&gt;Node19 -->
<g id="edge19" class="edge">
<title>Node13&#45;&gt;Node19</title>
<path fill="none" stroke="midnightblue" d="M719.2,-249.54C734.42,-253.08 750.74,-256.87 766.3,-260.49"/>
<polygon fill="midnightblue" stroke="midnightblue" points="765.86,-263.98 776.39,-262.83 767.44,-257.16 765.86,-263.98"/>
</g>
<!-- Node20 -->
<g id="node20" class="node">
<title>Node20</title>
<g id="a_node20"><a xlink:href="classdenoptim_1_1graph_1_1_vertex.html#adcb4510b9e479d5c37f9ccc12f9f5c5f" target="_top" xlink:title=" ">
<polygon fill="white" stroke="black" points="776.5,-213.5 776.5,-243.5 904.5,-243.5 904.5,-213.5 776.5,-213.5"/>
<text text-anchor="start" x="784.5" y="-231.5" font-family="Helvetica,sans-Serif" font-size="10.00">denoptim.graph.Vertex.set</text>
<text text-anchor="middle" x="840.5" y="-220.5" font-family="Helvetica,sans-Serif" font-size="10.00">VertexId</text>
</a>
</g>
</g>
<!-- Node13&#45;&gt;Node20 -->
<g id="edge20" class="edge">
<title>Node13&#45;&gt;Node20</title>
<path fill="none" stroke="midnightblue" d="M734.03,-231.92C744.72,-231.57 755.64,-231.22 766.21,-230.88"/>
<polygon fill="midnightblue" stroke="midnightblue" points="766.34,-234.37 776.22,-230.55 766.11,-227.38 766.34,-234.37"/>
</g>
</g>
</svg>
        <g id="navigator" transform="translate(0 0)" fill="#404254">
                <rect fill="#f2f5e9" fill-opacity="0.5" stroke="#606060" stroke-width=".5" x="0" y="0" width="60" height="60"/>
                <use id="zoomplus" xlink:href="#zoomPlus" x="17" y="9" onmousedown="handleZoom(evt,'in')"/>
                <use id="zoomminus" xlink:href="#zoomMin" x="42" y="9" onmousedown="handleZoom(evt,'out')"/>
                <use id="reset" xlink:href="#resetDef" x="30" y="36" onmousedown="handleReset()"/>
                <g id="arrowUp" xlink:href="#dirArrow" transform="translate(30 24)" onmousedown="handlePan(0,-1)">
                  <use xlink:href="#rim" fill="#404040">
                        <set attributeName="fill" to="#808080" begin="arrowUp.mouseover" end="arrowUp.mouseout"/>
                  </use>
                  <path fill="none" stroke="white" stroke-width="1.5" d="M0,-3.0v7 M-2.5,-0.5L0,-3.0L2.5,-0.5"/>
                </g>
                <g id="arrowRight" xlink:href="#dirArrow" transform="rotate(90) translate(36 -43)" onmousedown="handlePan(1,0)">
                  <use xlink:href="#rim" fill="#404040">
                        <set attributeName="fill" to="#808080" begin="arrowRight.mouseover" end="arrowRight.mouseout"/>
                  </use>
                  <path fill="none" stroke="white" stroke-width="1.5" d="M0,-3.0v7 M-2.5,-0.5L0,-3.0L2.5,-0.5"/>
                </g>
                <g id="arrowDown" xlink:href="#dirArrow" transform="rotate(180) translate(-30 -48)" onmousedown="handlePan(0,1)">
                  <use xlink:href="#rim" fill="#404040">
                        <set attributeName="fill" to="#808080" begin="arrowDown.mouseover" end="arrowDown.mouseout"/>
                  </use>
                  <path fill="none" stroke="white" stroke-width="1.5" d="M0,-3.0v7 M-2.5,-0.5L0,-3.0L2.5,-0.5"/>
                </g>
                <g id="arrowLeft" xlink:href="#dirArrow" transform="rotate(270) translate(-36 17)" onmousedown="handlePan(-1,0)">
                  <use xlink:href="#rim" fill="#404040">
                        <set attributeName="fill" to="#808080" begin="arrowLeft.mouseover" end="arrowLeft.mouseout"/>
                  </use>
                  <path fill="none" stroke="white" stroke-width="1.5" d="M0,-3.0v7 M-2.5,-0.5L0,-3.0L2.5,-0.5"/>
                </g>
        </g>
        <svg viewBox="0 0 15 15" width="100%" height="30px" preserveAspectRatio="xMaxYMin meet">
         <g id="arrow_out" transform="scale(0.3 0.3)">
          <a xlink:href="classdenoptim_1_1graph_1_1_d_graph_a41f951e815809e230ff0a02878d559a6_cgraph_org.svg" target="_base">
           <rect id="button" ry="5" rx="5" y="6" x="6" height="38" width="38"
                fill="#f2f5e9" fill-opacity="0.5" stroke="#606060" stroke-width="1.0"/>
           <path id="arrow"
             d="M 11.500037,31.436501 C 11.940474,20.09759 22.043105,11.32322 32.158766,21.979434 L 37.068811,17.246167 C 37.068811,17.246167 37.088388,32 37.088388,32 L 22.160133,31.978069 C 22.160133,31.978069 26.997745,27.140456 26.997745,27.140456 C 18.528582,18.264221 13.291696,25.230495 11.500037,31.436501 z"
             style="fill:#404040;"/>
          </a>
         </g>
        </svg>
</svg>
