<?xml version="1.0" encoding="UTF-8" standalone="no"?>
<!DOCTYPE svg PUBLIC "-//W3C//DTD SVG 1.1//EN"
 "http://www.w3.org/Graphics/SVG/1.1/DTD/svg11.dtd">
<!-- Generated by graphviz version 3.0.0 (20220413.0242)
 -->
<!-- Title: denoptim.graph.rings.RingClosureParameters.getRingClosuresArchive Pages: 1 -->
<svg width="1743pt" height="230pt"
 viewBox="0.00 0.00 1743.00 230.00" xmlns="http://www.w3.org/2000/svg" xmlns:xlink="http://www.w3.org/1999/xlink">
<g id="graph0" class="graph" transform="scale(1 1) rotate(0) translate(4 226)">
<title>denoptim.graph.rings.RingClosureParameters.getRingClosuresArchive</title>
<polygon fill="white" stroke="transparent" points="-4,4 -4,-226 1739,-226 1739,4 -4,4"/>
<!-- Node1 -->
<g id="node1" class="node">
<title>Node1</title>
<g id="a_node1"><a xlink:title=" ">
<polygon fill="#bfbfbf" stroke="black" points="1562,-117 1562,-158 1735,-158 1735,-117 1562,-117"/>
<text text-anchor="start" x="1570" y="-146" font-family="Helvetica,sans-Serif" font-size="10.00">denoptim.graph.rings.Ring</text>
<text text-anchor="start" x="1570" y="-135" font-family="Helvetica,sans-Serif" font-size="10.00">ClosureParameters.getRingClosures</text>
<text text-anchor="middle" x="1648.5" y="-124" font-family="Helvetica,sans-Serif" font-size="10.00">Archive</text>
</a>
</g>
</g>
<!-- Node2 -->
<g id="node2" class="node">
<title>Node2</title>
<g id="a_node2"><a xlink:href="classdenoptim_1_1ga_1_1_e_a_utils.html#a87ea0ad600ad26e1a89a4947abcfef86" target="_top" xlink:title="Graph construction starts with selecting a random core/scaffold.">
<polygon fill="white" stroke="black" points="1366.5,-147.5 1366.5,-177.5 1493.5,-177.5 1493.5,-147.5 1366.5,-147.5"/>
<text text-anchor="start" x="1374.5" y="-165.5" font-family="Helvetica,sans-Serif" font-size="10.00">denoptim.ga.EAUtils.build</text>
<text text-anchor="middle" x="1430" y="-154.5" font-family="Helvetica,sans-Serif" font-size="10.00">Graph</text>
</a>
</g>
</g>
<!-- Node1&#45;&gt;Node2 -->
<g id="edge1" class="edge">
<title>Node1&#45;&gt;Node2</title>
<path fill="none" stroke="midnightblue" d="M1551.97,-148.53C1532.18,-150.82 1511.82,-153.17 1493.58,-155.27"/>
<polygon fill="midnightblue" stroke="midnightblue" points="1552.4,-152 1561.93,-147.38 1551.6,-145.05 1552.4,-152"/>
</g>
<!-- Node10 -->
<g id="node10" class="node">
<title>Node10</title>
<g id="a_node10"><a xlink:href="classdenoptim_1_1graph_1_1rings_1_1_cyclic_graph_handler.html#ab2b4cde037177c1fc44191de9b023dc3" target="_top" xlink:title="Method to evaluate the closability of a single path in a graph representing a molecule.">
<polygon fill="white" stroke="black" points="1334,-98.5 1334,-128.5 1526,-128.5 1526,-98.5 1334,-98.5"/>
<text text-anchor="start" x="1342" y="-116.5" font-family="Helvetica,sans-Serif" font-size="10.00">denoptim.graph.rings.Cyclic</text>
<text text-anchor="middle" x="1430" y="-105.5" font-family="Helvetica,sans-Serif" font-size="10.00">GraphHandler.evaluate3DPathClosability</text>
</a>
</g>
</g>
<!-- Node1&#45;&gt;Node10 -->
<g id="edge10" class="edge">
<title>Node1&#45;&gt;Node10</title>
<path fill="none" stroke="midnightblue" d="M1551.99,-126.91C1543.46,-125.97 1534.82,-125.01 1526.3,-124.06"/>
<polygon fill="midnightblue" stroke="midnightblue" points="1551.61,-130.39 1561.93,-128.01 1552.38,-123.43 1551.61,-130.39"/>
</g>
<!-- Node3 -->
<g id="node3" class="node">
<title>Node3</title>
<g id="a_node3"><a xlink:href="classdenoptim_1_1ga_1_1_e_a_utils.html#ad3d2daeb11e68a356e971ca1846596b5" target="_top" xlink:title=" ">
<polygon fill="white" stroke="black" points="535,-147.5 535,-177.5 662,-177.5 662,-147.5 535,-147.5"/>
<text text-anchor="start" x="543" y="-165.5" font-family="Helvetica,sans-Serif" font-size="10.00">denoptim.ga.EAUtils.build</text>
<text text-anchor="middle" x="598.5" y="-154.5" font-family="Helvetica,sans-Serif" font-size="10.00">CandidateFromScratch</text>
</a>
</g>
</g>
<!-- Node2&#45;&gt;Node3 -->
<g id="edge2" class="edge">
<title>Node2&#45;&gt;Node3</title>
<path fill="none" stroke="midnightblue" d="M1356.05,-162.5C1195.33,-162.5 813.02,-162.5 662.22,-162.5"/>
<polygon fill="midnightblue" stroke="midnightblue" points="1356.31,-166 1366.31,-162.5 1356.31,-159 1356.31,-166"/>
</g>
<!-- Node9 -->
<g id="node9" class="node">
<title>Node9</title>
<g id="a_node9"><a xlink:href="classdenoptim_1_1ga_1_1_e_a_utils_test.html#ab7a37d3340d35ab586332ce2122e7bb0" target="_top" xlink:title=" ">
<polygon fill="white" stroke="black" points="1126.5,-191.5 1126.5,-221.5 1289.5,-221.5 1289.5,-191.5 1126.5,-191.5"/>
<text text-anchor="start" x="1134.5" y="-209.5" font-family="Helvetica,sans-Serif" font-size="10.00">denoptim.ga.EAUtilsTest.test</text>
<text text-anchor="middle" x="1208" y="-198.5" font-family="Helvetica,sans-Serif" font-size="10.00">BuildGraphFromTemplateScaffold</text>
</a>
</g>
</g>
<!-- Node2&#45;&gt;Node9 -->
<g id="edge9" class="edge">
<title>Node2&#45;&gt;Node9</title>
<path fill="none" stroke="midnightblue" d="M1356.19,-177.06C1333.11,-181.68 1307.56,-186.79 1284.32,-191.44"/>
<polygon fill="midnightblue" stroke="midnightblue" points="1357.13,-180.44 1366.25,-175.05 1355.76,-173.58 1357.13,-180.44"/>
</g>
<!-- Node4 -->
<g id="node4" class="node">
<title>Node4</title>
<g id="a_node4"><a xlink:href="classdenoptim_1_1ga_1_1_evolutionary_algorithm.html#a596b2f5f0b097c5b67a6e5163bd6fe66" target="_top" xlink:title="Generates a given number of new candidate items and adds them to the current population.">
<polygon fill="white" stroke="black" points="353,-98.5 353,-128.5 487,-128.5 487,-98.5 353,-98.5"/>
<text text-anchor="start" x="361" y="-116.5" font-family="Helvetica,sans-Serif" font-size="10.00">denoptim.ga.Evolutionary</text>
<text text-anchor="middle" x="420" y="-105.5" font-family="Helvetica,sans-Serif" font-size="10.00">Algorithm.evolvePopulation</text>
</a>
</g>
</g>
<!-- Node3&#45;&gt;Node4 -->
<g id="edge3" class="edge">
<title>Node3&#45;&gt;Node4</title>
<path fill="none" stroke="midnightblue" d="M533.31,-144.68C514.25,-139.39 493.57,-133.65 475.22,-128.55"/>
<polygon fill="midnightblue" stroke="midnightblue" points="532.53,-148.1 543.1,-147.4 534.4,-141.35 532.53,-148.1"/>
</g>
<!-- Node8 -->
<g id="node8" class="node">
<title>Node8</title>
<g id="a_node8"><a xlink:href="classdenoptim_1_1ga_1_1_evolutionary_algorithm.html#ad43588620dab3340e0d8b0042ec73618" target="_top" xlink:title="Fills up the population with candidates build from scratch.">
<polygon fill="white" stroke="black" points="350,-147.5 350,-177.5 490,-177.5 490,-147.5 350,-147.5"/>
<text text-anchor="start" x="358" y="-165.5" font-family="Helvetica,sans-Serif" font-size="10.00">denoptim.ga.Evolutionary</text>
<text text-anchor="middle" x="420" y="-154.5" font-family="Helvetica,sans-Serif" font-size="10.00">Algorithm.initializePopulation</text>
</a>
</g>
</g>
<!-- Node3&#45;&gt;Node8 -->
<g id="edge7" class="edge">
<title>Node3&#45;&gt;Node8</title>
<path fill="none" stroke="midnightblue" d="M524.46,-162.5C513.1,-162.5 501.39,-162.5 490.12,-162.5"/>
<polygon fill="midnightblue" stroke="midnightblue" points="524.78,-166 534.78,-162.5 524.78,-159 524.78,-166"/>
</g>
<!-- Node5 -->
<g id="node5" class="node">
<title>Node5</title>
<g id="a_node5"><a xlink:href="classdenoptim_1_1ga_1_1_evolutionary_algorithm.html#a6bfc2fa59b199da6259b5b6bad3d6de7" target="_top" xlink:title=" ">
<polygon fill="white" stroke="black" points="190,-122.5 190,-152.5 314,-152.5 314,-122.5 190,-122.5"/>
<text text-anchor="start" x="198" y="-140.5" font-family="Helvetica,sans-Serif" font-size="10.00">denoptim.ga.Evolutionary</text>
<text text-anchor="middle" x="252" y="-129.5" font-family="Helvetica,sans-Serif" font-size="10.00">Algorithm.run</text>
</a>
</g>
</g>
<!-- Node4&#45;&gt;Node5 -->
<g id="edge4" class="edge">
<title>Node4&#45;&gt;Node5</title>
<path fill="none" stroke="midnightblue" d="M342.9,-124.5C333.21,-125.9 323.41,-127.32 314.01,-128.68"/>
<polygon fill="midnightblue" stroke="midnightblue" points="343.52,-127.95 352.92,-123.05 342.52,-121.02 343.52,-127.95"/>
</g>
<!-- Node6 -->
<g id="node6" class="node">
<title>Node6</title>
<g id="a_node6"><a xlink:href="classdenoptim_1_1ga_1_1_evolutionary_algorithm.html#a0f2063b722b7291daf83d62acaa683d3" target="_top" xlink:title=" ">
<polygon fill="white" stroke="black" points="0,-147.5 0,-177.5 154,-177.5 154,-147.5 0,-147.5"/>
<text text-anchor="start" x="8" y="-165.5" font-family="Helvetica,sans-Serif" font-size="10.00">denoptim.ga.Evolutionary</text>
<text text-anchor="middle" x="77" y="-154.5" font-family="Helvetica,sans-Serif" font-size="10.00">Algorithm.EvolutionaryAlgorithm</text>
</a>
</g>
</g>
<!-- Node5&#45;&gt;Node6 -->
<g id="edge5" class="edge">
<title>Node5&#45;&gt;Node6</title>
<path fill="none" stroke="midnightblue" d="M179.44,-147.84C171.09,-149.05 162.54,-150.28 154.12,-151.5"/>
<polygon fill="midnightblue" stroke="midnightblue" points="180.12,-151.28 189.52,-146.38 179.12,-144.35 180.12,-151.28"/>
</g>
<!-- Node7 -->
<g id="node7" class="node">
<title>Node7</title>
<g id="a_node7"><a xlink:href="classdenoptim_1_1programs_1_1denovo_1_1_g_a_runner.html#a7cafd6d78727b89dce3e2c8d06f0dd7c" target="_top" xlink:title=" ">
<polygon fill="white" stroke="black" points="9.5,-98.5 9.5,-128.5 144.5,-128.5 144.5,-98.5 9.5,-98.5"/>
<text text-anchor="start" x="17.5" y="-116.5" font-family="Helvetica,sans-Serif" font-size="10.00">denoptim.programs.denovo.</text>
<text text-anchor="middle" x="77" y="-105.5" font-family="Helvetica,sans-Serif" font-size="10.00">GARunner.runProgram</text>
</a>
</g>
</g>
<!-- Node5&#45;&gt;Node7 -->
<g id="edge6" class="edge">
<title>Node5&#45;&gt;Node7</title>
<path fill="none" stroke="midnightblue" d="M179.48,-127.58C167.92,-125.97 156,-124.32 144.57,-122.73"/>
<polygon fill="midnightblue" stroke="midnightblue" points="179.13,-131.06 189.52,-128.97 180.1,-124.13 179.13,-131.06"/>
</g>
<!-- Node8&#45;&gt;Node5 -->
<g id="edge8" class="edge">
<title>Node8&#45;&gt;Node5</title>
<path fill="none" stroke="midnightblue" d="M339.6,-150.54C331.08,-149.26 322.5,-147.97 314.24,-146.72"/>
<polygon fill="midnightblue" stroke="midnightblue" points="339.15,-154.01 349.56,-152.04 340.2,-147.09 339.15,-154.01"/>
</g>
<!-- Node11 -->
<g id="node11" class="node">
<title>Node11</title>
<g id="a_node11"><a xlink:href="classdenoptim_1_1graph_1_1rings_1_1_cyclic_graph_handler.html#abd43d52fe626625dab3da6a32038e57b" target="_top" xlink:title="Method to evaluate the closability of a single path in a graph representing a molecule.">
<polygon fill="white" stroke="black" points="1118,-98.5 1118,-128.5 1298,-128.5 1298,-98.5 1118,-98.5"/>
<text text-anchor="start" x="1126" y="-116.5" font-family="Helvetica,sans-Serif" font-size="10.00">denoptim.graph.rings.Cyclic</text>
<text text-anchor="middle" x="1208" y="-105.5" font-family="Helvetica,sans-Serif" font-size="10.00">GraphHandler.evaluatePathClosability</text>
</a>
</g>
</g>
<!-- Node10&#45;&gt;Node11 -->
<g id="edge11" class="edge">
<title>Node10&#45;&gt;Node11</title>
<path fill="none" stroke="midnightblue" d="M1323.75,-113.5C1315.17,-113.5 1306.56,-113.5 1298.11,-113.5"/>
<polygon fill="midnightblue" stroke="midnightblue" points="1323.78,-117 1333.78,-113.5 1323.78,-110 1323.78,-117"/>
</g>
<!-- Node12 -->
<g id="node12" class="node">
<title>Node12</title>
<g id="a_node12"><a xlink:href="classdenoptim_1_1graph_1_1rings_1_1_cyclic_graph_handler.html#a3ce96322723f45d9285a248ebcef94d3" target="_top" xlink:title="Identifies all possible ring closing paths and returns them as list of DENOPTIMRings ready to be appe...">
<polygon fill="white" stroke="black" points="898,-33 898,-74 1082,-74 1082,-33 898,-33"/>
<text text-anchor="start" x="906" y="-62" font-family="Helvetica,sans-Serif" font-size="10.00">denoptim.graph.rings.Cyclic</text>
<text text-anchor="start" x="906" y="-51" font-family="Helvetica,sans-Serif" font-size="10.00">GraphHandler.getPossibleCombination</text>
<text text-anchor="middle" x="990" y="-40" font-family="Helvetica,sans-Serif" font-size="10.00">OfRings</text>
</a>
</g>
</g>
<!-- Node11&#45;&gt;Node12 -->
<g id="edge12" class="edge">
<title>Node11&#45;&gt;Node12</title>
<path fill="none" stroke="midnightblue" d="M1142.86,-95.68C1118.34,-88.87 1090.19,-81.05 1064.84,-74.01"/>
<polygon fill="midnightblue" stroke="midnightblue" points="1142.2,-99.13 1152.77,-98.44 1144.07,-92.39 1142.2,-99.13"/>
</g>
<!-- Node18 -->
<g id="node18" class="node">
<title>Node18</title>
<g id="a_node18"><a xlink:href="classdenoptim_1_1graph_1_1rings_1_1_cyclic_graph_handler.html#a08b02946eaac7c2cbbe6e71332d702e6" target="_top" xlink:title="Identifies a random combination of ring closing paths and returns it as list of DENOPTIMRings ready t...">
<polygon fill="white" stroke="black" points="899,-93 899,-134 1081,-134 1081,-93 899,-93"/>
<text text-anchor="start" x="907" y="-122" font-family="Helvetica,sans-Serif" font-size="10.00">denoptim.graph.rings.Cyclic</text>
<text text-anchor="start" x="907" y="-111" font-family="Helvetica,sans-Serif" font-size="10.00">GraphHandler.getRandomCombination</text>
<text text-anchor="middle" x="990" y="-100" font-family="Helvetica,sans-Serif" font-size="10.00">OfRings</text>
</a>
</g>
</g>
<!-- Node11&#45;&gt;Node18 -->
<g id="edge20" class="edge">
<title>Node11&#45;&gt;Node18</title>
<path fill="none" stroke="midnightblue" d="M1107.64,-113.5C1098.85,-113.5 1089.99,-113.5 1081.29,-113.5"/>
<polygon fill="midnightblue" stroke="midnightblue" points="1107.9,-117 1117.9,-113.5 1107.9,-110 1107.9,-117"/>
</g>
<!-- Node13 -->
<g id="node13" class="node">
<title>Node13</title>
<g id="a_node13"><a xlink:href="classdenoptim_1_1graph_1_1_d_graph.html#a7a4743d014e860237f4b20703ef9779b" target="_top" xlink:title="Evaluates the possibility of closing rings in this graph and generates all alternative graphs resulti...">
<polygon fill="white" stroke="black" points="707,-19.5 707,-49.5 862,-49.5 862,-19.5 707,-19.5"/>
<text text-anchor="start" x="715" y="-37.5" font-family="Helvetica,sans-Serif" font-size="10.00">denoptim.graph.DGraph.make</text>
<text text-anchor="middle" x="784.5" y="-26.5" font-family="Helvetica,sans-Serif" font-size="10.00">AllGraphsWithDifferentRingSets</text>
</a>
</g>
</g>
<!-- Node12&#45;&gt;Node13 -->
<g id="edge13" class="edge">
<title>Node12&#45;&gt;Node13</title>
<path fill="none" stroke="midnightblue" d="M887.84,-44.06C879.2,-43.25 870.56,-42.44 862.16,-41.66"/>
<polygon fill="midnightblue" stroke="midnightblue" points="887.68,-47.56 897.96,-45 888.33,-40.59 887.68,-47.56"/>
</g>
<!-- Node15 -->
<g id="node15" class="node">
<title>Node15</title>
<g id="a_node15"><a xlink:href="classdenoptim_1_1ga_1_1_e_a_utils.html#a1ddb932d4618434d435e4f85ce5e5eb5" target="_top" xlink:title="Evaluates the possibility of closing rings in a given graph and if any ring can be closed,...">
<polygon fill="white" stroke="black" points="719,-98.5 719,-128.5 850,-128.5 850,-98.5 719,-98.5"/>
<text text-anchor="start" x="727" y="-116.5" font-family="Helvetica,sans-Serif" font-size="10.00">denoptim.ga.EAUtils.setup</text>
<text text-anchor="middle" x="784.5" y="-105.5" font-family="Helvetica,sans-Serif" font-size="10.00">Rings</text>
</a>
</g>
</g>
<!-- Node12&#45;&gt;Node15 -->
<g id="edge15" class="edge">
<title>Node12&#45;&gt;Node15</title>
<path fill="none" stroke="midnightblue" d="M909.58,-76.92C885.02,-84.16 858.63,-91.94 836.53,-98.46"/>
<polygon fill="midnightblue" stroke="midnightblue" points="910.65,-80.25 919.25,-74.06 908.67,-73.54 910.65,-80.25"/>
</g>
<!-- Node14 -->
<g id="node14" class="node">
<title>Node14</title>
<g id="a_node14"><a xlink:href="classdenoptim_1_1combinatorial_1_1_graph_building_task.html#a3eaee724fc921194fa158714aafe182d" target="_top" xlink:title="Calls the task.">
<polygon fill="white" stroke="black" points="526,-0.5 526,-30.5 671,-30.5 671,-0.5 526,-0.5"/>
<text text-anchor="start" x="534" y="-18.5" font-family="Helvetica,sans-Serif" font-size="10.00">denoptim.combinatorial.Graph</text>
<text text-anchor="middle" x="598.5" y="-7.5" font-family="Helvetica,sans-Serif" font-size="10.00">BuildingTask.call</text>
</a>
</g>
</g>
<!-- Node13&#45;&gt;Node14 -->
<g id="edge14" class="edge">
<title>Node13&#45;&gt;Node14</title>
<path fill="none" stroke="midnightblue" d="M696.75,-25.54C688.15,-24.65 679.49,-23.76 671.07,-22.89"/>
<polygon fill="midnightblue" stroke="midnightblue" points="696.49,-29.03 706.8,-26.58 697.21,-22.07 696.49,-29.03"/>
</g>
<!-- Node15&#45;&gt;Node3 -->
<g id="edge19" class="edge">
<title>Node15&#45;&gt;Node3</title>
<path fill="none" stroke="midnightblue" d="M717.32,-131.12C697.19,-136.48 675.27,-142.32 655.85,-147.49"/>
<polygon fill="midnightblue" stroke="midnightblue" points="718.28,-134.49 727.04,-128.53 716.48,-127.73 718.28,-134.49"/>
</g>
<!-- Node16 -->
<g id="node16" class="node">
<title>Node16</title>
<g id="a_node16"><a xlink:href="classdenoptim_1_1ga_1_1_e_a_utils.html#a5cb6bbe9f383bf821f3b1f1c5e60031b" target="_top" xlink:title=" ">
<polygon fill="white" stroke="black" points="535,-98.5 535,-128.5 662,-128.5 662,-98.5 535,-98.5"/>
<text text-anchor="start" x="543" y="-116.5" font-family="Helvetica,sans-Serif" font-size="10.00">denoptim.ga.EAUtils.build</text>
<text text-anchor="middle" x="598.5" y="-105.5" font-family="Helvetica,sans-Serif" font-size="10.00">CandidateByMutation</text>
</a>
</g>
</g>
<!-- Node15&#45;&gt;Node16 -->
<g id="edge16" class="edge">
<title>Node15&#45;&gt;Node16</title>
<path fill="none" stroke="midnightblue" d="M708.81,-113.5C693.31,-113.5 677.12,-113.5 662.1,-113.5"/>
<polygon fill="midnightblue" stroke="midnightblue" points="708.89,-117 718.89,-113.5 708.89,-110 708.89,-117"/>
</g>
<!-- Node17 -->
<g id="node17" class="node">
<title>Node17</title>
<g id="a_node17"><a xlink:href="classdenoptim_1_1ga_1_1_e_a_utils.html#a98553265dd4b441b11c6d97d098edb08" target="_top" xlink:title="Generates a new offspring by performing a crossover operation.">
<polygon fill="white" stroke="black" points="535,-49.5 535,-79.5 662,-79.5 662,-49.5 535,-49.5"/>
<text text-anchor="start" x="543" y="-67.5" font-family="Helvetica,sans-Serif" font-size="10.00">denoptim.ga.EAUtils.build</text>
<text text-anchor="middle" x="598.5" y="-56.5" font-family="Helvetica,sans-Serif" font-size="10.00">CandidateByXOver</text>
</a>
</g>
</g>
<!-- Node15&#45;&gt;Node17 -->
<g id="edge18" class="edge">
<title>Node15&#45;&gt;Node17</title>
<path fill="none" stroke="midnightblue" d="M717.32,-95.88C697.19,-90.52 675.27,-84.68 655.85,-79.51"/>
<polygon fill="midnightblue" stroke="midnightblue" points="716.48,-99.27 727.04,-98.47 718.28,-92.51 716.48,-99.27"/>
</g>
<!-- Node16&#45;&gt;Node4 -->
<g id="edge17" class="edge">
<title>Node16&#45;&gt;Node4</title>
<path fill="none" stroke="midnightblue" d="M524.49,-113.5C512.1,-113.5 499.3,-113.5 487.11,-113.5"/>
<polygon fill="midnightblue" stroke="midnightblue" points="524.78,-117 534.78,-113.5 524.78,-110 524.78,-117"/>
</g>
<!-- Node18&#45;&gt;Node15 -->
<g id="edge21" class="edge">
<title>Node18&#45;&gt;Node15</title>
<path fill="none" stroke="midnightblue" d="M888.84,-113.5C875.72,-113.5 862.56,-113.5 850.24,-113.5"/>
<polygon fill="midnightblue" stroke="midnightblue" points="888.85,-117 898.85,-113.5 888.85,-110 888.85,-117"/>
</g>
</g>
</svg>
