<?xml version="1.0" encoding="UTF-8" standalone="no"?>
<!DOCTYPE svg PUBLIC "-//W3C//DTD SVG 1.1//EN"
 "http://www.w3.org/Graphics/SVG/1.1/DTD/svg11.dtd">
<!-- Generated by graphviz version 3.0.0 (20220413.0242)
 -->
<!-- Title: denoptim.fragmenter.ParallelFragmentationAlgorithm.doPostFlightOperations Pages: 1 -->
<!--zoomable 480 -->
<svg id="main" version="1.1" xmlns="http://www.w3.org/2000/svg" xmlns:xlink="http://www.w3.org/1999/xlink" xml:space="preserve" onload="init(evt)">
<style type="text/css"><![CDATA[
.edge:hover path { stroke: red; }
.edge:hover polygon { stroke: red; fill: red; }
]]></style>
<script type="text/javascript"><![CDATA[
var edges = document.getElementsByTagName('g');
if (edges && edges.length) {
  for (var i=0;i<edges.length;i++) {
    if (edges[i].id.substr(0,4)=='edge') {
      edges[i].setAttribute('class','edge');
    }
  }
}
]]></script>
        <defs>
                <circle id="rim" cx="0" cy="0" r="7"/>
                <circle id="rim2" cx="0" cy="0" r="3.5"/>
                <g id="zoomPlus">
                        <use xlink:href="#rim" fill="#404040">
                                <set attributeName="fill" to="#808080" begin="zoomplus.mouseover" end="zoomplus.mouseout"/>
                        </use>
                        <path d="M-4,0h8M0,-4v8" fill="none" stroke="white" stroke-width="1.5" pointer-events="none"/>
                </g>
                <g id="zoomMin">
                        <use xlink:href="#rim" fill="#404040">
                                <set attributeName="fill" to="#808080" begin="zoomminus.mouseover" end="zoomminus.mouseout"/>
                        </use>
                        <path d="M-4,0h8" fill="none" stroke="white" stroke-width="1.5" pointer-events="none"/>
                </g>
                <g id="dirArrow">
                        <path fill="none" stroke="white" stroke-width="1.5" d="M0,-3.0v7 M-2.5,-0.5L0,-3.0L2.5,-0.5"/>
                </g>
               <g id="resetDef">
                       <use xlink:href="#rim2" fill="#404040">
                               <set attributeName="fill" to="#808080" begin="reset.mouseover" end="reset.mouseout"/>
                       </use>
               </g>
        </defs>

<script type="text/javascript">
var viewWidth = 622;
var viewHeight = 480;
var sectionId = 'dynsection-4';
</script>
<script xlink:href="svgpan.js"/>
<svg id="graph" class="graph">
<g id="viewport">
<title>denoptim.fragmenter.ParallelFragmentationAlgorithm.doPostFlightOperations</title>
<polygon fill="white" stroke="transparent" points="-4,4 -4,-476 618,-476 618,4 -4,4"/>
<!-- Node1 -->
<g id="node1" class="node">
<title>Node1</title>
<g id="a_node1"><a xlink:title=" ">
<polygon fill="#bfbfbf" stroke="black" points="0,-240 0,-281 177,-281 177,-240 0,-240"/>
<text text-anchor="start" x="8" y="-269" font-family="Helvetica,sans-Serif" font-size="10.00">denoptim.fragmenter.Parallel</text>
<text text-anchor="start" x="8" y="-258" font-family="Helvetica,sans-Serif" font-size="10.00">FragmentationAlgorithm.doPostFlight</text>
<text text-anchor="middle" x="88.5" y="-247" font-family="Helvetica,sans-Serif" font-size="10.00">Operations</text>
</a>
</g>
</g>
<!-- Node2 -->
<g id="node2" class="node">
<title>Node2</title>
<g id="a_node2"><a xlink:href="classdenoptim_1_1io_1_1_denoptim_i_o.html#ada5c2a135b9d5e1c4a811982394087f8" target="_top" xlink:title="Appends the second file to the first.">
<polygon fill="white" stroke="black" points="228.5,-441.5 228.5,-471.5 382.5,-471.5 382.5,-441.5 228.5,-441.5"/>
<text text-anchor="start" x="236.5" y="-459.5" font-family="Helvetica,sans-Serif" font-size="10.00">denoptim.io.DenoptimIO.append</text>
<text text-anchor="middle" x="305.5" y="-448.5" font-family="Helvetica,sans-Serif" font-size="10.00">TxtFiles</text>
</a>
</g>
</g>
<!-- Node1&#45;&gt;Node2 -->
<g id="edge1" class="edge">
<title>Node1&#45;&gt;Node2</title>
<path fill="none" stroke="midnightblue" d="M98.42,-281.01C115.29,-317.35 155.44,-392.93 213,-432.5 215.27,-434.06 217.63,-435.52 220.07,-436.88"/>
<polygon fill="midnightblue" stroke="midnightblue" points="218.66,-440.09 229.17,-441.42 221.78,-433.83 218.66,-440.09"/>
</g>
<!-- Node3 -->
<g id="node3" class="node">
<title>Node3</title>
<g id="a_node3"><a xlink:href="classdenoptim_1_1fragmenter_1_1_parallel_fragmentation_algorithm.html#a15cf3dd2f25fdc79ecc569b22bf71fea" target="_top" xlink:title=" ">
<polygon fill="white" stroke="black" points="213,-382 213,-423 398,-423 398,-382 213,-382"/>
<text text-anchor="start" x="221" y="-411" font-family="Helvetica,sans-Serif" font-size="10.00">denoptim.fragmenter.Parallel</text>
<text text-anchor="start" x="221" y="-400" font-family="Helvetica,sans-Serif" font-size="10.00">FragmentationAlgorithm.getFiles</text>
<text text-anchor="middle" x="305.5" y="-389" font-family="Helvetica,sans-Serif" font-size="10.00">CollectingIsomorphicFamilyChampions</text>
</a>
</g>
</g>
<!-- Node1&#45;&gt;Node3 -->
<g id="edge2" class="edge">
<title>Node1&#45;&gt;Node3</title>
<path fill="none" stroke="midnightblue" d="M107.07,-281.38C129.32,-306.57 169.97,-348.64 213,-373.5 215.5,-374.95 218.09,-376.33 220.73,-377.65"/>
<polygon fill="midnightblue" stroke="midnightblue" points="219.36,-380.87 229.9,-381.92 222.31,-374.53 219.36,-380.87"/>
</g>
<!-- Node4 -->
<g id="node4" class="node">
<title>Node4</title>
<g id="a_node4"><a xlink:href="classdenoptim_1_1fragmenter_1_1_fragmenter_task.html#a618c7dcb57386629d4996476f37e1afe" target="_top" xlink:title="Builds the pathname of the structure file meant to hold fragments resulting from this task.">
<polygon fill="white" stroke="black" points="227,-333.5 227,-363.5 384,-363.5 384,-333.5 227,-333.5"/>
<text text-anchor="start" x="235" y="-351.5" font-family="Helvetica,sans-Serif" font-size="10.00">denoptim.fragmenter.Fragmenter</text>
<text text-anchor="middle" x="305.5" y="-340.5" font-family="Helvetica,sans-Serif" font-size="10.00">Task.getFragmentsFileName</text>
</a>
</g>
</g>
<!-- Node1&#45;&gt;Node4 -->
<g id="edge3" class="edge">
<title>Node1&#45;&gt;Node4</title>
<path fill="none" stroke="midnightblue" d="M130.11,-281.11C153.94,-292.81 184.82,-307.31 213,-318.5 223.23,-322.56 234.25,-326.52 244.98,-330.16"/>
<polygon fill="midnightblue" stroke="midnightblue" points="244.12,-333.56 254.72,-333.4 246.34,-326.92 244.12,-333.56"/>
</g>
<!-- Node5 -->
<g id="node5" class="node">
<title>Node5</title>
<g id="a_node5"><a xlink:href="classdenoptim_1_1programs_1_1_run_time_parameters.html#a37f87b26bd9a229cfd84e9c487f6495a" target="_top" xlink:title="Gets the pathname to the working directory.">
<polygon fill="white" stroke="black" points="452.5,-289.5 452.5,-319.5 595.5,-319.5 595.5,-289.5 452.5,-289.5"/>
<text text-anchor="start" x="460.5" y="-307.5" font-family="Helvetica,sans-Serif" font-size="10.00">denoptim.programs.RunTime</text>
<text text-anchor="middle" x="524" y="-296.5" font-family="Helvetica,sans-Serif" font-size="10.00">Parameters.getWorkDirectory</text>
</a>
</g>
</g>
<!-- Node1&#45;&gt;Node5 -->
<g id="edge10" class="edge">
<title>Node1&#45;&gt;Node5</title>
<path fill="none" stroke="midnightblue" d="M177.29,-279.82C189.25,-282 201.4,-283.98 213,-285.5 290.36,-295.65 379.3,-300.4 442.02,-302.6"/>
<polygon fill="midnightblue" stroke="midnightblue" points="442.14,-306.11 452.25,-302.95 442.37,-299.11 442.14,-306.11"/>
</g>
<!-- Node6 -->
<g id="node6" class="node">
<title>Node6</title>
<g id="a_node6"><a xlink:href="classdenoptim_1_1programs_1_1_run_time_parameters.html#a5d529ee791990d15bde012d8dcd6b5c1" target="_top" xlink:title="Get the name of the program specific logger.">
<polygon fill="white" stroke="black" points="235.5,-245.5 235.5,-275.5 375.5,-275.5 375.5,-245.5 235.5,-245.5"/>
<text text-anchor="start" x="243.5" y="-263.5" font-family="Helvetica,sans-Serif" font-size="10.00">denoptim.programs.RunTime</text>
<text text-anchor="middle" x="305.5" y="-252.5" font-family="Helvetica,sans-Serif" font-size="10.00">Parameters.getLogger</text>
</a>
</g>
</g>
<!-- Node1&#45;&gt;Node6 -->
<g id="edge5" class="edge">
<title>Node1&#45;&gt;Node6</title>
<path fill="none" stroke="midnightblue" d="M177.26,-260.5C193.17,-260.5 209.67,-260.5 225.31,-260.5"/>
<polygon fill="midnightblue" stroke="midnightblue" points="225.45,-264 235.45,-260.5 225.45,-257 225.45,-264"/>
</g>
<!-- Node7 -->
<g id="node7" class="node">
<title>Node7</title>
<g id="a_node7"><a xlink:href="classdenoptim_1_1programs_1_1fragmenter_1_1_fragmenter_parameters.html#a49cb9bef7ce9aec3bc6d7bb948e2c8ae" target="_top" xlink:title=" ">
<polygon fill="white" stroke="black" points="215.5,-196.5 215.5,-226.5 395.5,-226.5 395.5,-196.5 215.5,-196.5"/>
<text text-anchor="start" x="223.5" y="-214.5" font-family="Helvetica,sans-Serif" font-size="10.00">denoptim.programs.fragmenter.</text>
<text text-anchor="middle" x="305.5" y="-203.5" font-family="Helvetica,sans-Serif" font-size="10.00">FragmenterParameters.getNumTasks</text>
</a>
</g>
</g>
<!-- Node1&#45;&gt;Node7 -->
<g id="edge6" class="edge">
<title>Node1&#45;&gt;Node7</title>
<path fill="none" stroke="midnightblue" d="M177.26,-240.5C194.18,-236.64 211.78,-232.63 228.3,-228.87"/>
<polygon fill="midnightblue" stroke="midnightblue" points="229.46,-232.19 238.43,-226.56 227.9,-225.37 229.46,-232.19"/>
</g>
<!-- Node8 -->
<g id="node8" class="node">
<title>Node8</title>
<g id="a_node8"><a xlink:href="classdenoptim_1_1fragmenter_1_1_fragmenter_task.html#a8742f86357d3711d8e7332e7ee2f6eac" target="_top" xlink:title=" ">
<polygon fill="white" stroke="black" points="227,-147.5 227,-177.5 384,-177.5 384,-147.5 227,-147.5"/>
<text text-anchor="start" x="235" y="-165.5" font-family="Helvetica,sans-Serif" font-size="10.00">denoptim.fragmenter.Fragmenter</text>
<text text-anchor="middle" x="305.5" y="-154.5" font-family="Helvetica,sans-Serif" font-size="10.00">Task.getResultFile</text>
</a>
</g>
</g>
<!-- Node1&#45;&gt;Node8 -->
<g id="edge7" class="edge">
<title>Node1&#45;&gt;Node8</title>
<path fill="none" stroke="midnightblue" d="M119.26,-239.83C143.57,-223.72 179.28,-201.77 213,-187.5 218.77,-185.06 224.85,-182.79 231.02,-180.7"/>
<polygon fill="midnightblue" stroke="midnightblue" points="232.31,-183.96 240.75,-177.55 230.16,-177.3 232.31,-183.96"/>
</g>
<!-- Node9 -->
<g id="node9" class="node">
<title>Node9</title>
<g id="a_node9"><a xlink:href="classdenoptim_1_1fragmenter_1_1_fragmenter_task.html#aee2334eb4d3f6e99377bd7cac17eb6a9" target="_top" xlink:title="Builds the pathname of the structure file meant to hold results that are not necessarily fragments.">
<polygon fill="white" stroke="black" points="227,-98.5 227,-128.5 384,-128.5 384,-98.5 227,-98.5"/>
<text text-anchor="start" x="235" y="-116.5" font-family="Helvetica,sans-Serif" font-size="10.00">denoptim.fragmenter.Fragmenter</text>
<text text-anchor="middle" x="305.5" y="-105.5" font-family="Helvetica,sans-Serif" font-size="10.00">Task.getResultsFileName</text>
</a>
</g>
</g>
<!-- Node1&#45;&gt;Node9 -->
<g id="edge8" class="edge">
<title>Node1&#45;&gt;Node9</title>
<path fill="none" stroke="midnightblue" d="M104.68,-239.97C125.91,-212.72 167.05,-164.99 213,-138.5 216.88,-136.27 220.96,-134.22 225.17,-132.36"/>
<polygon fill="midnightblue" stroke="midnightblue" points="226.58,-135.56 234.53,-128.55 223.95,-129.08 226.58,-135.56"/>
</g>
<!-- Node10 -->
<g id="node10" class="node">
<title>Node10</title>
<g id="a_node10"><a xlink:href="classdenoptim_1_1task_1_1_parallel_asynchronous_task_executor.html#a4d34273c8d0c31d4eba5d40280473c69" target="_top" xlink:title="Run the parallelized task.">
<polygon fill="white" stroke="black" points="219,-49.5 219,-79.5 392,-79.5 392,-49.5 219,-49.5"/>
<text text-anchor="start" x="227" y="-67.5" font-family="Helvetica,sans-Serif" font-size="10.00">denoptim.task.ParallelAsynchronous</text>
<text text-anchor="middle" x="305.5" y="-56.5" font-family="Helvetica,sans-Serif" font-size="10.00">TaskExecutor.run</text>
</a>
</g>
</g>
<!-- Node1&#45;&gt;Node10 -->
<g id="edge11" class="edge">
<title>Node1&#45;&gt;Node10</title>
<path fill="none" stroke="midnightblue" d="M98.62,-239.88C115.7,-203.73 155.96,-129.03 213,-89.5 215.86,-87.52 218.87,-85.69 221.99,-84.01"/>
<polygon fill="midnightblue" stroke="midnightblue" points="223.55,-87.15 231.03,-79.64 220.5,-80.84 223.55,-87.15"/>
</g>
<!-- Node4&#45;&gt;Node5 -->
<g id="edge4" class="edge">
<title>Node4&#45;&gt;Node5</title>
<path fill="none" stroke="midnightblue" d="M380.4,-333.48C400.4,-329.42 422.15,-325 442.49,-320.86"/>
<polygon fill="midnightblue" stroke="midnightblue" points="443.25,-324.28 452.36,-318.86 441.86,-317.42 443.25,-324.28"/>
</g>
<!-- Node9&#45;&gt;Node5 -->
<g id="edge9" class="edge">
<title>Node9&#45;&gt;Node5</title>
<path fill="none" stroke="midnightblue" d="M379.42,-128.56C385.97,-131.34 392.28,-134.62 398,-138.5 452.31,-175.34 492.55,-243.63 511.29,-280.09"/>
<polygon fill="midnightblue" stroke="midnightblue" points="508.39,-282.1 516,-289.47 514.65,-278.96 508.39,-282.1"/>
</g>
<!-- Node11 -->
<g id="node11" class="node">
<title>Node11</title>
<g id="a_node11"><a xlink:href="classdenoptim_1_1task_1_1_parallel_asynchronous_task_executor.html#abb79453d3ddc23c3f39297070d1904fd" target="_top" xlink:title="Implementations of this method must call the submitTask(Task, String) method to actually send the tas...">
<polygon fill="white" stroke="black" points="434,-98.5 434,-128.5 614,-128.5 614,-98.5 434,-98.5"/>
<text text-anchor="start" x="442" y="-116.5" font-family="Helvetica,sans-Serif" font-size="10.00">denoptim.task.ParallelAsynchronous</text>
<text text-anchor="middle" x="524" y="-105.5" font-family="Helvetica,sans-Serif" font-size="10.00">TaskExecutor.createAndSubmitTasks</text>
</a>
</g>
</g>
<!-- Node10&#45;&gt;Node11 -->
<g id="edge12" class="edge">
<title>Node10&#45;&gt;Node11</title>
<path fill="none" stroke="midnightblue" d="M372.93,-79.53C396.31,-84.83 422.76,-90.81 446.88,-96.27"/>
<polygon fill="midnightblue" stroke="midnightblue" points="446.17,-99.7 456.7,-98.49 447.72,-92.87 446.17,-99.7"/>
</g>
<!-- Node12 -->
<g id="node12" class="node">
<title>Node12</title>
<g id="a_node12"><a xlink:href="classdenoptim_1_1task_1_1_parallel_asynchronous_task_executor.html#a3cd2e9cf92e87d1daf4dbda7be9e4b58" target="_top" xlink:title=" ">
<polygon fill="white" stroke="black" points="434,-49.5 434,-79.5 614,-79.5 614,-49.5 434,-49.5"/>
<text text-anchor="start" x="442" y="-67.5" font-family="Helvetica,sans-Serif" font-size="10.00">denoptim.task.ParallelAsynchronous</text>
<text text-anchor="middle" x="524" y="-56.5" font-family="Helvetica,sans-Serif" font-size="10.00">TaskExecutor.doPostFlightOperations</text>
</a>
</g>
</g>
<!-- Node10&#45;&gt;Node12 -->
<g id="edge13" class="edge">
<title>Node10&#45;&gt;Node12</title>
<path fill="none" stroke="midnightblue" d="M392.07,-64.5C402.46,-64.5 413.14,-64.5 423.71,-64.5"/>
<polygon fill="midnightblue" stroke="midnightblue" points="423.79,-68 433.79,-64.5 423.79,-61 423.79,-68"/>
</g>
<!-- Node13 -->
<g id="node13" class="node">
<title>Node13</title>
<g id="a_node13"><a xlink:href="classdenoptim_1_1task_1_1_parallel_asynchronous_task_executor.html#a26657a7869d63e260067523aca319037" target="_top" xlink:title=" ">
<polygon fill="white" stroke="black" points="436.5,-0.5 436.5,-30.5 611.5,-30.5 611.5,-0.5 436.5,-0.5"/>
<text text-anchor="start" x="444.5" y="-18.5" font-family="Helvetica,sans-Serif" font-size="10.00">denoptim.task.ParallelAsynchronous</text>
<text text-anchor="middle" x="524" y="-7.5" font-family="Helvetica,sans-Serif" font-size="10.00">TaskExecutor.doPreFlightOperations</text>
</a>
</g>
</g>
<!-- Node10&#45;&gt;Node13 -->
<g id="edge14" class="edge">
<title>Node10&#45;&gt;Node13</title>
<path fill="none" stroke="midnightblue" d="M372.93,-49.47C396.31,-44.17 422.76,-38.19 446.88,-32.73"/>
<polygon fill="midnightblue" stroke="midnightblue" points="447.72,-36.13 456.7,-30.51 446.17,-29.3 447.72,-36.13"/>
</g>
</g>
</svg>
        <g id="navigator" transform="translate(0 0)" fill="#404254">
                <rect fill="#f2f5e9" fill-opacity="0.5" stroke="#606060" stroke-width=".5" x="0" y="0" width="60" height="60"/>
                <use id="zoomplus" xlink:href="#zoomPlus" x="17" y="9" onmousedown="handleZoom(evt,'in')"/>
                <use id="zoomminus" xlink:href="#zoomMin" x="42" y="9" onmousedown="handleZoom(evt,'out')"/>
                <use id="reset" xlink:href="#resetDef" x="30" y="36" onmousedown="handleReset()"/>
                <g id="arrowUp" xlink:href="#dirArrow" transform="translate(30 24)" onmousedown="handlePan(0,-1)">
                  <use xlink:href="#rim" fill="#404040">
                        <set attributeName="fill" to="#808080" begin="arrowUp.mouseover" end="arrowUp.mouseout"/>
                  </use>
                  <path fill="none" stroke="white" stroke-width="1.5" d="M0,-3.0v7 M-2.5,-0.5L0,-3.0L2.5,-0.5"/>
                </g>
                <g id="arrowRight" xlink:href="#dirArrow" transform="rotate(90) translate(36 -43)" onmousedown="handlePan(1,0)">
                  <use xlink:href="#rim" fill="#404040">
                        <set attributeName="fill" to="#808080" begin="arrowRight.mouseover" end="arrowRight.mouseout"/>
                  </use>
                  <path fill="none" stroke="white" stroke-width="1.5" d="M0,-3.0v7 M-2.5,-0.5L0,-3.0L2.5,-0.5"/>
                </g>
                <g id="arrowDown" xlink:href="#dirArrow" transform="rotate(180) translate(-30 -48)" onmousedown="handlePan(0,1)">
                  <use xlink:href="#rim" fill="#404040">
                        <set attributeName="fill" to="#808080" begin="arrowDown.mouseover" end="arrowDown.mouseout"/>
                  </use>
                  <path fill="none" stroke="white" stroke-width="1.5" d="M0,-3.0v7 M-2.5,-0.5L0,-3.0L2.5,-0.5"/>
                </g>
                <g id="arrowLeft" xlink:href="#dirArrow" transform="rotate(270) translate(-36 17)" onmousedown="handlePan(-1,0)">
                  <use xlink:href="#rim" fill="#404040">
                        <set attributeName="fill" to="#808080" begin="arrowLeft.mouseover" end="arrowLeft.mouseout"/>
                  </use>
                  <path fill="none" stroke="white" stroke-width="1.5" d="M0,-3.0v7 M-2.5,-0.5L0,-3.0L2.5,-0.5"/>
                </g>
        </g>
        <svg viewBox="0 0 15 15" width="100%" height="30px" preserveAspectRatio="xMaxYMin meet">
         <g id="arrow_out" transform="scale(0.3 0.3)">
          <a xlink:href="classdenoptim_1_1fragmenter_1_1_parallel_fragmentation_algorithm_a75a77e0ecff457691e706c0ca9da0736_cgraph_org.svg" target="_base">
           <rect id="button" ry="5" rx="5" y="6" x="6" height="38" width="38"
                fill="#f2f5e9" fill-opacity="0.5" stroke="#606060" stroke-width="1.0"/>
           <path id="arrow"
             d="M 11.500037,31.436501 C 11.940474,20.09759 22.043105,11.32322 32.158766,21.979434 L 37.068811,17.246167 C 37.068811,17.246167 37.088388,32 37.088388,32 L 22.160133,31.978069 C 22.160133,31.978069 26.997745,27.140456 26.997745,27.140456 C 18.528582,18.264221 13.291696,25.230495 11.500037,31.436501 z"
             style="fill:#404040;"/>
          </a>
         </g>
        </svg>
</svg>
