<?xml version="1.0" encoding="UTF-8" standalone="no"?>
<!DOCTYPE svg PUBLIC "-//W3C//DTD SVG 1.1//EN"
 "http://www.w3.org/Graphics/SVG/1.1/DTD/svg11.dtd">
<!-- Generated by graphviz version 3.0.0 (20220413.0242)
 -->
<!-- Title: denoptim.graph.DGraph.insertSingleVertex Pages: 1 -->
<svg width="917pt" height="621pt"
 viewBox="0.00 0.00 917.00 620.50" xmlns="http://www.w3.org/2000/svg" xmlns:xlink="http://www.w3.org/1999/xlink">
<g id="graph0" class="graph" transform="scale(1 1) rotate(0) translate(4 616.5)">
<title>denoptim.graph.DGraph.insertSingleVertex</title>
<polygon fill="white" stroke="transparent" points="-4,4 -4,-616.5 913,-616.5 913,4 -4,4"/>
<!-- Node1 -->
<g id="node1" class="node">
<title>Node1</title>
<g id="a_node1"><a xlink:title="Inserts a given vertex in between two vertices connected by the given edge.">
<polygon fill="#bfbfbf" stroke="black" points="0,-230 0,-260 144,-260 144,-230 0,-230"/>
<text text-anchor="start" x="8" y="-248" font-family="Helvetica,sans-Serif" font-size="10.00">denoptim.graph.DGraph.insert</text>
<text text-anchor="middle" x="72" y="-237" font-family="Helvetica,sans-Serif" font-size="10.00">SingleVertex</text>
</a>
</g>
</g>
<!-- Node2 -->
<g id="node2" class="node">
<title>Node2</title>
<g id="a_node2"><a xlink:href="classdenoptim_1_1graph_1_1_d_graph.html#aedfe0dc03ea1250a9944fcd30a888fa1" target="_top" xlink:title="Adds the edge to the list of edges belonging to this graph.">
<polygon fill="white" stroke="black" points="188,-458.5 188,-477.5 346,-477.5 346,-458.5 188,-458.5"/>
<text text-anchor="middle" x="267" y="-465.5" font-family="Helvetica,sans-Serif" font-size="10.00">denoptim.graph.DGraph.addEdge</text>
</a>
</g>
</g>
<!-- Node1&#45;&gt;Node2 -->
<g id="edge1" class="edge">
<title>Node1&#45;&gt;Node2</title>
<path fill="none" stroke="midnightblue" d="M76.29,-260.14C85.43,-298.35 114.86,-399.22 180,-449 182.33,-450.78 184.8,-452.41 187.37,-453.88"/>
<polygon fill="midnightblue" stroke="midnightblue" points="185.93,-457.08 196.45,-458.36 189.03,-450.8 185.93,-457.08"/>
</g>
<!-- Node3 -->
<g id="node3" class="node">
<title>Node3</title>
<g id="a_node3"><a xlink:href="classdenoptim_1_1graph_1_1_template.html#a687f8680d7c74dacadeb80c85ced2be5" target="_top" xlink:title="Adds the projection of an AP in the template&#39;s inner graph (i.e., innerAP) to the list of APs visible...">
<polygon fill="white" stroke="black" points="195.5,-391 195.5,-421 338.5,-421 338.5,-391 195.5,-391"/>
<text text-anchor="start" x="203.5" y="-409" font-family="Helvetica,sans-Serif" font-size="10.00">denoptim.graph.Template.add</text>
<text text-anchor="middle" x="267" y="-398" font-family="Helvetica,sans-Serif" font-size="10.00">InnerToOuterAPMapping</text>
</a>
</g>
</g>
<!-- Node1&#45;&gt;Node3 -->
<g id="edge2" class="edge">
<title>Node1&#45;&gt;Node3</title>
<path fill="none" stroke="midnightblue" d="M86.24,-260.26C105.57,-282.05 143.23,-322.69 180,-352 195.44,-364.31 213.84,-376.19 229.64,-385.65"/>
<polygon fill="midnightblue" stroke="midnightblue" points="228.21,-388.87 238.61,-390.93 231.77,-382.84 228.21,-388.87"/>
</g>
<!-- Node8 -->
<g id="node8" class="node">
<title>Node8</title>
<g id="a_node8"><a xlink:href="classdenoptim_1_1graph_1_1_attachment_point.html#ac8551521d38644f5109800b665957ee9" target="_top" xlink:title=" ">
<polygon fill="white" stroke="black" points="590,-309 590,-339 725,-339 725,-309 590,-309"/>
<text text-anchor="start" x="598" y="-327" font-family="Helvetica,sans-Serif" font-size="10.00">denoptim.graph.Attachment</text>
<text text-anchor="middle" x="657.5" y="-316" font-family="Helvetica,sans-Serif" font-size="10.00">Point.getOwner</text>
</a>
</g>
</g>
<!-- Node1&#45;&gt;Node8 -->
<g id="edge22" class="edge">
<title>Node1&#45;&gt;Node8</title>
<path fill="none" stroke="midnightblue" d="M88.38,-260.19C107.82,-278.21 143.19,-307.3 180,-319 315.54,-362.09 483.93,-349.56 579.92,-336.68"/>
<polygon fill="midnightblue" stroke="midnightblue" points="580.41,-340.15 589.83,-335.31 579.45,-333.21 580.41,-340.15"/>
</g>
<!-- Node15 -->
<g id="node15" class="node">
<title>Node15</title>
<g id="a_node15"><a xlink:href="classdenoptim_1_1graph_1_1_d_graph.html#a33a3299b77560786461345412d2fe193" target="_top" xlink:title="Appends a vertex to this graph without creating any edge.">
<polygon fill="white" stroke="black" points="199,-279 199,-309 335,-309 335,-279 199,-279"/>
<text text-anchor="start" x="207" y="-297" font-family="Helvetica,sans-Serif" font-size="10.00">denoptim.graph.DGraph.add</text>
<text text-anchor="middle" x="267" y="-286" font-family="Helvetica,sans-Serif" font-size="10.00">Vertex</text>
</a>
</g>
</g>
<!-- Node1&#45;&gt;Node15 -->
<g id="edge16" class="edge">
<title>Node1&#45;&gt;Node15</title>
<path fill="none" stroke="midnightblue" d="M132.22,-260.03C152.69,-265.23 175.8,-271.1 196.99,-276.48"/>
<polygon fill="midnightblue" stroke="midnightblue" points="196.34,-279.93 206.89,-278.99 198.06,-273.14 196.34,-279.93"/>
</g>
<!-- Node18 -->
<g id="node18" class="node">
<title>Node18</title>
<g id="a_node18"><a xlink:href="classdenoptim_1_1graph_1_1_d_graph.html#a2cc0afd77bd965cd49c8a631867f114e" target="_top" xlink:title="Check if this graph contains the specified vertex.">
<polygon fill="white" stroke="black" points="188.5,-230 188.5,-260 345.5,-260 345.5,-230 188.5,-230"/>
<text text-anchor="start" x="196.5" y="-248" font-family="Helvetica,sans-Serif" font-size="10.00">denoptim.graph.DGraph.contains</text>
<text text-anchor="middle" x="267" y="-237" font-family="Helvetica,sans-Serif" font-size="10.00">Vertex</text>
</a>
</g>
</g>
<!-- Node1&#45;&gt;Node18 -->
<g id="edge19" class="edge">
<title>Node1&#45;&gt;Node18</title>
<path fill="none" stroke="midnightblue" d="M144.04,-245C155.18,-245 166.81,-245 178.27,-245"/>
<polygon fill="midnightblue" stroke="midnightblue" points="178.28,-248.5 188.28,-245 178.28,-241.5 178.28,-248.5"/>
</g>
<!-- Node19 -->
<g id="node19" class="node">
<title>Node19</title>
<g id="a_node19"><a xlink:href="classdenoptim_1_1graph_1_1_attachment_point.html#a774671253396558cf35ab75613762174" target="_top" xlink:title="Returns the bond type preferred by this attachment point as defined by the APClass,...">
<polygon fill="white" stroke="black" points="199.5,-181 199.5,-211 334.5,-211 334.5,-181 199.5,-181"/>
<text text-anchor="start" x="207.5" y="-199" font-family="Helvetica,sans-Serif" font-size="10.00">denoptim.graph.Attachment</text>
<text text-anchor="middle" x="267" y="-188" font-family="Helvetica,sans-Serif" font-size="10.00">Point.getBondType</text>
</a>
</g>
</g>
<!-- Node1&#45;&gt;Node19 -->
<g id="edge20" class="edge">
<title>Node1&#45;&gt;Node19</title>
<path fill="none" stroke="midnightblue" d="M132.22,-229.97C152.69,-224.77 175.8,-218.9 196.99,-213.52"/>
<polygon fill="midnightblue" stroke="midnightblue" points="198.06,-216.86 206.89,-211.01 196.34,-210.07 198.06,-216.86"/>
</g>
<!-- Node21 -->
<g id="node21" class="node">
<title>Node21</title>
<g id="a_node21"><a xlink:href="classdenoptim_1_1graph_1_1_d_graph.html#a3334159ed57d53d1e29bd34f31bfc9a4" target="_top" xlink:title="Returns the list of rings that include the given vertex in their fundamental cycle.">
<polygon fill="white" stroke="black" points="200,-132 200,-162 334,-162 334,-132 200,-132"/>
<text text-anchor="start" x="208" y="-150" font-family="Helvetica,sans-Serif" font-size="10.00">denoptim.graph.DGraph.get</text>
<text text-anchor="middle" x="267" y="-139" font-family="Helvetica,sans-Serif" font-size="10.00">RingsInvolvingVertex</text>
</a>
</g>
</g>
<!-- Node1&#45;&gt;Node21 -->
<g id="edge23" class="edge">
<title>Node1&#45;&gt;Node21</title>
<path fill="none" stroke="midnightblue" d="M91.23,-229.89C111.69,-213.58 146.44,-187.83 180,-172 184.92,-169.68 190.11,-167.52 195.39,-165.53"/>
<polygon fill="midnightblue" stroke="midnightblue" points="196.71,-168.78 204.96,-162.13 194.37,-162.18 196.71,-168.78"/>
</g>
<!-- Node22 -->
<g id="node22" class="node">
<title>Node22</title>
<g id="a_node22"><a xlink:href="classdenoptim_1_1graph_1_1_d_graph.html#aca10b3acbf66e3652cb9664179ed368f" target="_top" xlink:title=" ">
<polygon fill="white" stroke="black" points="203,-83 203,-113 331,-113 331,-83 203,-83"/>
<text text-anchor="start" x="211" y="-101" font-family="Helvetica,sans-Serif" font-size="10.00">denoptim.graph.DGraph.is</text>
<text text-anchor="middle" x="267" y="-90" font-family="Helvetica,sans-Serif" font-size="10.00">VertexInRing</text>
</a>
</g>
</g>
<!-- Node1&#45;&gt;Node22 -->
<g id="edge24" class="edge">
<title>Node1&#45;&gt;Node22</title>
<path fill="none" stroke="midnightblue" d="M82.12,-229.59C98.4,-203.43 135.02,-150.42 180,-122 184.12,-119.39 188.53,-117.07 193.1,-114.99"/>
<polygon fill="midnightblue" stroke="midnightblue" points="194.72,-118.1 202.63,-111.06 192.05,-111.63 194.72,-118.1"/>
</g>
<!-- Node23 -->
<g id="node23" class="node">
<title>Node23</title>
<g id="a_node23"><a xlink:href="classdenoptim_1_1graph_1_1_d_graph.html#ae1243cc2bc48423cbbea5e0678b8b1be" target="_top" xlink:title="Removes an edge and update the free valences of the attachment points that were originally involved i...">
<polygon fill="white" stroke="black" points="180,-44.5 180,-63.5 354,-63.5 354,-44.5 180,-44.5"/>
<text text-anchor="middle" x="267" y="-51.5" font-family="Helvetica,sans-Serif" font-size="10.00">denoptim.graph.DGraph.removeEdge</text>
</a>
</g>
</g>
<!-- Node1&#45;&gt;Node23 -->
<g id="edge25" class="edge">
<title>Node1&#45;&gt;Node23</title>
<path fill="none" stroke="midnightblue" d="M77.88,-229.74C89.57,-195.76 122.59,-113.63 180,-73 182.75,-71.06 185.65,-69.31 188.68,-67.73"/>
<polygon fill="midnightblue" stroke="midnightblue" points="190.37,-70.81 198.05,-63.51 187.49,-64.43 190.37,-70.81"/>
</g>
<!-- Node3&#45;&gt;Node3 -->
<g id="edge3" class="edge">
<title>Node3&#45;&gt;Node3</title>
<path fill="none" stroke="midnightblue" d="M233.19,-421.16C225.04,-430.56 236.31,-439.5 267,-439.5 285.7,-439.5 297.19,-436.18 301.47,-431.46"/>
<polygon fill="midnightblue" stroke="midnightblue" points="304.94,-430.91 300.81,-421.16 297.96,-431.36 304.94,-430.91"/>
</g>
<!-- Node4 -->
<g id="node4" class="node">
<title>Node4</title>
<g id="a_node4"><a xlink:href="classdenoptim_1_1graph_1_1_attachment_point.html#a8dc9e31a8d2fb5ef6a9705cbf2ec22c9" target="_top" xlink:title="Returns a deep clone of this attachment point.">
<polygon fill="white" stroke="black" points="401,-367 401,-397 536,-397 536,-367 401,-367"/>
<text text-anchor="start" x="409" y="-385" font-family="Helvetica,sans-Serif" font-size="10.00">denoptim.graph.Attachment</text>
<text text-anchor="middle" x="468.5" y="-374" font-family="Helvetica,sans-Serif" font-size="10.00">Point.clone</text>
</a>
</g>
</g>
<!-- Node3&#45;&gt;Node4 -->
<g id="edge4" class="edge">
<title>Node3&#45;&gt;Node4</title>
<path fill="none" stroke="midnightblue" d="M338.62,-397.5C355.58,-395.46 373.77,-393.28 390.98,-391.21"/>
<polygon fill="midnightblue" stroke="midnightblue" points="391.48,-394.67 400.99,-390 390.64,-387.72 391.48,-394.67"/>
</g>
<!-- Node9 -->
<g id="node9" class="node">
<title>Node9</title>
<g id="a_node9"><a xlink:href="classdenoptim_1_1graph_1_1_vertex.html#a6615f1c869173b8bd6d730c6683b9de4" target="_top" xlink:title="Returns the graph this vertex belongs to or null.">
<polygon fill="white" stroke="black" points="404.5,-520 404.5,-550 532.5,-550 532.5,-520 404.5,-520"/>
<text text-anchor="start" x="412.5" y="-538" font-family="Helvetica,sans-Serif" font-size="10.00">denoptim.graph.Vertex.get</text>
<text text-anchor="middle" x="468.5" y="-527" font-family="Helvetica,sans-Serif" font-size="10.00">GraphOwner</text>
</a>
</g>
</g>
<!-- Node3&#45;&gt;Node9 -->
<g id="edge9" class="edge">
<title>Node3&#45;&gt;Node9</title>
<path fill="none" stroke="midnightblue" d="M309.96,-421.15C325.05,-428.02 341.43,-437.27 354,-449 377.02,-470.47 365.42,-490.33 390,-510 392.28,-511.82 394.69,-513.51 397.2,-515.08"/>
<polygon fill="midnightblue" stroke="midnightblue" points="395.62,-518.21 406.07,-519.96 399,-512.07 395.62,-518.21"/>
</g>
<!-- Node10 -->
<g id="node10" class="node">
<title>Node10</title>
<g id="a_node10"><a xlink:href="classdenoptim_1_1graph_1_1_a_p_tree_map.html#a9e1e1c1dd87ebfb469b6c705c00038b6" target="_top" xlink:title="Associates the specified value with the specified key in this map.">
<polygon fill="white" stroke="black" points="392.5,-481.5 392.5,-500.5 544.5,-500.5 544.5,-481.5 392.5,-481.5"/>
<text text-anchor="middle" x="468.5" y="-488.5" font-family="Helvetica,sans-Serif" font-size="10.00">denoptim.graph.APTreeMap.put</text>
</a>
</g>
</g>
<!-- Node3&#45;&gt;Node10 -->
<g id="edge10" class="edge">
<title>Node3&#45;&gt;Node10</title>
<path fill="none" stroke="midnightblue" d="M303.21,-421C340.63,-436.95 399.29,-461.94 435.46,-477.35"/>
<polygon fill="midnightblue" stroke="midnightblue" points="434.46,-480.73 445.03,-481.43 437.2,-474.29 434.46,-480.73"/>
</g>
<!-- Node14 -->
<g id="node14" class="node">
<title>Node14</title>
<g id="a_node14"><a xlink:href="classdenoptim_1_1graph_1_1_attachment_point.html#a76bfbe6cc3918c114c73974b2fe4e59d" target="_top" xlink:title="Sets the reference to the vertex that owns this attachment point.">
<polygon fill="white" stroke="black" points="401,-416 401,-446 536,-446 536,-416 401,-416"/>
<text text-anchor="start" x="409" y="-434" font-family="Helvetica,sans-Serif" font-size="10.00">denoptim.graph.Attachment</text>
<text text-anchor="middle" x="468.5" y="-423" font-family="Helvetica,sans-Serif" font-size="10.00">Point.setOwner</text>
</a>
</g>
</g>
<!-- Node3&#45;&gt;Node14 -->
<g id="edge15" class="edge">
<title>Node3&#45;&gt;Node14</title>
<path fill="none" stroke="midnightblue" d="M338.62,-414.85C355.58,-416.97 373.77,-419.25 390.98,-421.41"/>
<polygon fill="midnightblue" stroke="midnightblue" points="390.63,-424.89 400.99,-422.67 391.5,-417.95 390.63,-424.89"/>
</g>
<!-- Node5 -->
<g id="node5" class="node">
<title>Node5</title>
<g id="a_node5"><a xlink:href="classdenoptim_1_1graph_1_1_attachment_point.html#a087f6102f1c542587ec2ec3c2240041f" target="_top" xlink:title="Constructor for undefined DENOPTIMAttachmentPoint.">
<polygon fill="white" stroke="black" points="590,-358 590,-388 725,-388 725,-358 590,-358"/>
<text text-anchor="start" x="598" y="-376" font-family="Helvetica,sans-Serif" font-size="10.00">denoptim.graph.Attachment</text>
<text text-anchor="middle" x="657.5" y="-365" font-family="Helvetica,sans-Serif" font-size="10.00">Point.AttachmentPoint</text>
</a>
</g>
</g>
<!-- Node4&#45;&gt;Node5 -->
<g id="edge5" class="edge">
<title>Node4&#45;&gt;Node5</title>
<path fill="none" stroke="midnightblue" d="M536.22,-378.79C550.23,-378.11 565.12,-377.4 579.47,-376.71"/>
<polygon fill="midnightblue" stroke="midnightblue" points="579.99,-380.19 589.81,-376.21 579.65,-373.19 579.99,-380.19"/>
</g>
<!-- Node7 -->
<g id="node7" class="node">
<title>Node7</title>
<g id="a_node7"><a xlink:href="classdenoptim_1_1graph_1_1_a_p_class.html#a1781af804ce3ff7b7ed2d681fd1eeae3" target="_top" xlink:title="WARNING: this method does NOT clone! It just returns the reference to this.">
<polygon fill="white" stroke="black" points="583,-407.5 583,-426.5 732,-426.5 732,-407.5 583,-407.5"/>
<text text-anchor="middle" x="657.5" y="-414.5" font-family="Helvetica,sans-Serif" font-size="10.00">denoptim.graph.APClass.clone</text>
</a>
</g>
</g>
<!-- Node4&#45;&gt;Node7 -->
<g id="edge7" class="edge">
<title>Node4&#45;&gt;Node7</title>
<path fill="none" stroke="midnightblue" d="M536.22,-394.49C555.6,-398.12 576.66,-402.06 595.66,-405.61"/>
<polygon fill="midnightblue" stroke="midnightblue" points="595.21,-409.09 605.69,-407.49 596.5,-402.21 595.21,-409.09"/>
</g>
<!-- Node4&#45;&gt;Node8 -->
<g id="edge8" class="edge">
<title>Node4&#45;&gt;Node8</title>
<path fill="none" stroke="midnightblue" d="M518.14,-366.91C542.71,-359.29 572.69,-350 598.45,-342"/>
<polygon fill="midnightblue" stroke="midnightblue" points="599.59,-345.32 608.1,-339.01 597.51,-338.63 599.59,-345.32"/>
</g>
<!-- Node6 -->
<g id="node6" class="node">
<title>Node6</title>
<g id="a_node6"><a xlink:href="classdenoptim_1_1utils_1_1_graph_utils.html#aacbefbc93a3463aa963c9923749deea1" target="_top" xlink:title="Unique counter for the number of molecules generated.">
<polygon fill="white" stroke="black" points="768,-399 768,-429 909,-429 909,-399 768,-399"/>
<text text-anchor="start" x="776" y="-417" font-family="Helvetica,sans-Serif" font-size="10.00">denoptim.utils.GraphUtils.get</text>
<text text-anchor="middle" x="838.5" y="-406" font-family="Helvetica,sans-Serif" font-size="10.00">UniqueAPIndex</text>
</a>
</g>
</g>
<!-- Node5&#45;&gt;Node6 -->
<g id="edge6" class="edge">
<title>Node5&#45;&gt;Node6</title>
<path fill="none" stroke="midnightblue" d="M724.14,-388.03C736.42,-390.85 749.35,-393.81 761.9,-396.68"/>
<polygon fill="midnightblue" stroke="midnightblue" points="761.34,-400.15 771.87,-398.97 762.91,-393.32 761.34,-400.15"/>
</g>
<!-- Node10&#45;&gt;Node6 -->
<g id="edge12" class="edge">
<title>Node10&#45;&gt;Node6</title>
<path fill="none" stroke="midnightblue" d="M514.99,-481.48C575.51,-468.82 683.47,-446.23 757.7,-430.7"/>
<polygon fill="midnightblue" stroke="midnightblue" points="758.86,-434.03 767.94,-428.56 757.43,-427.18 758.86,-434.03"/>
</g>
<!-- Node11 -->
<g id="node11" class="node">
<title>Node11</title>
<g id="a_node11"><a xlink:href="classdenoptim_1_1graph_1_1_attachment_point.html#a72dd6bd75a701cabb65832778da6e574" target="_top" xlink:title="Returns a unique integer that is used to sort list of attachment points.">
<polygon fill="white" stroke="black" points="590,-582 590,-612 725,-612 725,-582 590,-582"/>
<text text-anchor="start" x="598" y="-600" font-family="Helvetica,sans-Serif" font-size="10.00">denoptim.graph.Attachment</text>
<text text-anchor="middle" x="657.5" y="-589" font-family="Helvetica,sans-Serif" font-size="10.00">Point.getID</text>
</a>
</g>
</g>
<!-- Node10&#45;&gt;Node11 -->
<g id="edge11" class="edge">
<title>Node10&#45;&gt;Node11</title>
<path fill="none" stroke="midnightblue" d="M527.74,-500.54C534.63,-503.22 541.24,-506.63 547,-511 572.39,-530.25 558.23,-552.96 583,-573 584.6,-574.3 586.28,-575.53 588.02,-576.69"/>
<polygon fill="midnightblue" stroke="midnightblue" points="586.7,-579.97 597.11,-581.97 590.22,-573.92 586.7,-579.97"/>
</g>
<!-- Node12 -->
<g id="node12" class="node">
<title>Node12</title>
<g id="a_node12"><a xlink:href="classdenoptim_1_1utils_1_1_graph_utils.html#ac53e72bfeb5251069c07ebc22994022a" target="_top" xlink:title="Reset the unique attachment point counter to the given value.">
<polygon fill="white" stroke="black" points="583,-533 583,-563 732,-563 732,-533 583,-533"/>
<text text-anchor="start" x="591" y="-551" font-family="Helvetica,sans-Serif" font-size="10.00">denoptim.utils.GraphUtils.reset</text>
<text text-anchor="middle" x="657.5" y="-540" font-family="Helvetica,sans-Serif" font-size="10.00">UniqueAPCounter</text>
</a>
</g>
</g>
<!-- Node10&#45;&gt;Node12 -->
<g id="edge13" class="edge">
<title>Node10&#45;&gt;Node12</title>
<path fill="none" stroke="midnightblue" d="M509.53,-500.56C521.63,-503.66 534.92,-507.27 547,-511 563.25,-516.02 566.91,-518.47 583,-524 588.53,-525.9 594.31,-527.85 600.08,-529.78"/>
<polygon fill="midnightblue" stroke="midnightblue" points="599.18,-533.16 609.77,-532.98 601.38,-526.52 599.18,-533.16"/>
</g>
<!-- Node13 -->
<g id="node13" class="node">
<title>Node13</title>
<g id="a_node13"><a xlink:href="classdenoptim_1_1graph_1_1_attachment_point.html#a929c8f781b4c999a5228f322a3bd901e" target="_top" xlink:title="Sets the unique integer that is used to sort list of attachment points.">
<polygon fill="white" stroke="black" points="590,-484 590,-514 725,-514 725,-484 590,-484"/>
<text text-anchor="start" x="598" y="-502" font-family="Helvetica,sans-Serif" font-size="10.00">denoptim.graph.Attachment</text>
<text text-anchor="middle" x="657.5" y="-491" font-family="Helvetica,sans-Serif" font-size="10.00">Point.setID</text>
</a>
</g>
</g>
<!-- Node10&#45;&gt;Node13 -->
<g id="edge14" class="edge">
<title>Node10&#45;&gt;Node13</title>
<path fill="none" stroke="midnightblue" d="M544.75,-494.22C556.29,-494.71 568.22,-495.22 579.79,-495.72"/>
<polygon fill="midnightblue" stroke="midnightblue" points="579.7,-499.22 589.84,-496.15 580,-492.22 579.7,-499.22"/>
</g>
<!-- Node16 -->
<g id="node16" class="node">
<title>Node16</title>
<g id="a_node16"><a xlink:href="classdenoptim_1_1graph_1_1_d_graph.html#a104492665700f6225bb0a0fbc09479c1" target="_top" xlink:title="Checks if a number is already used as VertexIDs within the graph.">
<polygon fill="white" stroke="black" points="390,-230 390,-260 547,-260 547,-230 390,-230"/>
<text text-anchor="start" x="398" y="-248" font-family="Helvetica,sans-Serif" font-size="10.00">denoptim.graph.DGraph.contains</text>
<text text-anchor="middle" x="468.5" y="-237" font-family="Helvetica,sans-Serif" font-size="10.00">VertexID</text>
</a>
</g>
</g>
<!-- Node15&#45;&gt;Node16 -->
<g id="edge17" class="edge">
<title>Node15&#45;&gt;Node16</title>
<path fill="none" stroke="midnightblue" d="M329.21,-278.97C350.47,-273.74 374.48,-267.85 396.46,-262.45"/>
<polygon fill="midnightblue" stroke="midnightblue" points="397.53,-265.79 406.4,-260.01 395.86,-258.99 397.53,-265.79"/>
</g>
<!-- Node17 -->
<g id="node17" class="node">
<title>Node17</title>
<g id="a_node17"><a xlink:href="classdenoptim_1_1graph_1_1_d_graph.html#abc9d9eae901e1e868183f8bdaca13aea" target="_top" xlink:title=" ">
<polygon fill="white" stroke="black" points="401.5,-279 401.5,-309 535.5,-309 535.5,-279 401.5,-279"/>
<text text-anchor="start" x="409.5" y="-297" font-family="Helvetica,sans-Serif" font-size="10.00">denoptim.graph.DGraph.get</text>
<text text-anchor="middle" x="468.5" y="-286" font-family="Helvetica,sans-Serif" font-size="10.00">GraphId</text>
</a>
</g>
</g>
<!-- Node15&#45;&gt;Node17 -->
<g id="edge18" class="edge">
<title>Node15&#45;&gt;Node17</title>
<path fill="none" stroke="midnightblue" d="M335.26,-294C353.21,-294 372.72,-294 391.12,-294"/>
<polygon fill="midnightblue" stroke="midnightblue" points="391.21,-297.5 401.21,-294 391.21,-290.5 391.21,-297.5"/>
</g>
<!-- Node20 -->
<g id="node20" class="node">
<title>Node20</title>
<g id="a_node20"><a xlink:href="classdenoptim_1_1graph_1_1_a_p_class.html#a7ecbfcc68b17ef630d0f46ccb6bb763b" target="_top" xlink:title=" ">
<polygon fill="white" stroke="black" points="399,-181 399,-211 538,-211 538,-181 399,-181"/>
<text text-anchor="start" x="407" y="-199" font-family="Helvetica,sans-Serif" font-size="10.00">denoptim.graph.APClass.get</text>
<text text-anchor="middle" x="468.5" y="-188" font-family="Helvetica,sans-Serif" font-size="10.00">BondType</text>
</a>
</g>
</g>
<!-- Node19&#45;&gt;Node20 -->
<g id="edge21" class="edge">
<title>Node19&#45;&gt;Node20</title>
<path fill="none" stroke="midnightblue" d="M334.71,-196C351.94,-196 370.66,-196 388.46,-196"/>
<polygon fill="midnightblue" stroke="midnightblue" points="388.81,-199.5 398.81,-196 388.81,-192.5 388.81,-199.5"/>
</g>
<!-- Node24 -->
<g id="node24" class="node">
<title>Node24</title>
<g id="a_node24"><a xlink:href="classdenoptim_1_1graph_1_1_edge.html#a658e275a18a50f12474777f5f28c35e9" target="_top" xlink:title=" ">
<polygon fill="white" stroke="black" points="393,-0.5 393,-19.5 544,-19.5 544,-0.5 393,-0.5"/>
<text text-anchor="middle" x="468.5" y="-7.5" font-family="Helvetica,sans-Serif" font-size="10.00">denoptim.graph.Edge.getSrcAP</text>
</a>
</g>
</g>
<!-- Node23&#45;&gt;Node24 -->
<g id="edge26" class="edge">
<title>Node23&#45;&gt;Node24</title>
<path fill="none" stroke="midnightblue" d="M311.29,-44.45C341.48,-37.79 381.97,-28.86 414.16,-21.76"/>
<polygon fill="midnightblue" stroke="midnightblue" points="415.28,-25.1 424.3,-19.53 413.78,-18.26 415.28,-25.1"/>
</g>
<!-- Node25 -->
<g id="node25" class="node">
<title>Node25</title>
<g id="a_node25"><a xlink:href="classdenoptim_1_1graph_1_1_edge.html#a44521a3ad1a83e5d0a6be227e35ceffa" target="_top" xlink:title=" ">
<polygon fill="white" stroke="black" points="393.5,-88.5 393.5,-107.5 543.5,-107.5 543.5,-88.5 393.5,-88.5"/>
<text text-anchor="middle" x="468.5" y="-95.5" font-family="Helvetica,sans-Serif" font-size="10.00">denoptim.graph.Edge.getTrgAP</text>
</a>
</g>
</g>
<!-- Node23&#45;&gt;Node25 -->
<g id="edge27" class="edge">
<title>Node23&#45;&gt;Node25</title>
<path fill="none" stroke="midnightblue" d="M311.29,-63.55C341.48,-70.21 381.97,-79.14 414.16,-86.24"/>
<polygon fill="midnightblue" stroke="midnightblue" points="413.78,-89.74 424.3,-88.47 415.28,-82.9 413.78,-89.74"/>
</g>
<!-- Node26 -->
<g id="node26" class="node">
<title>Node26</title>
<g id="a_node26"><a xlink:href="classdenoptim_1_1graph_1_1_attachment_point.html#a266aa67ce6e0afd82fa723a12f46235a" target="_top" xlink:title="Sets the reference to the edge that is using this attachment point.">
<polygon fill="white" stroke="black" points="401,-39 401,-69 536,-69 536,-39 401,-39"/>
<text text-anchor="start" x="409" y="-57" font-family="Helvetica,sans-Serif" font-size="10.00">denoptim.graph.Attachment</text>
<text text-anchor="middle" x="468.5" y="-46" font-family="Helvetica,sans-Serif" font-size="10.00">Point.setUser</text>
</a>
</g>
</g>
<!-- Node23&#45;&gt;Node26 -->
<g id="edge28" class="edge">
<title>Node23&#45;&gt;Node26</title>
<path fill="none" stroke="midnightblue" d="M354.05,-54C366.33,-54 378.89,-54 390.96,-54"/>
<polygon fill="midnightblue" stroke="midnightblue" points="390.98,-57.5 400.98,-54 390.98,-50.5 390.98,-57.5"/>
</g>
</g>
</svg>
