<?xml version="1.0" encoding="UTF-8" standalone="no"?>
<!DOCTYPE svg PUBLIC "-//W3C//DTD SVG 1.1//EN"
 "http://www.w3.org/Graphics/SVG/1.1/DTD/svg11.dtd">
<!-- Generated by graphviz version 3.0.0 (20220413.0242)
 -->
<!-- Title: denoptim.gui.FSEParametersForm.putParametersToString Pages: 1 -->
<svg width="369pt" height="118pt"
 viewBox="0.00 0.00 369.00 117.50" xmlns="http://www.w3.org/2000/svg" xmlns:xlink="http://www.w3.org/1999/xlink">
<g id="graph0" class="graph" transform="scale(1 1) rotate(0) translate(4 113.5)">
<title>denoptim.gui.FSEParametersForm.putParametersToString</title>
<polygon fill="white" stroke="transparent" points="-4,4 -4,-113.5 365,-113.5 365,4 -4,4"/>
<!-- Node1 -->
<g id="node1" class="node">
<title>Node1</title>
<g id="a_node1"><a xlink:title=" ">
<polygon fill="#bfbfbf" stroke="black" points="0,-42 0,-72 143,-72 143,-42 0,-42"/>
<text text-anchor="start" x="8" y="-60" font-family="Helvetica,sans-Serif" font-size="10.00">denoptim.gui.FSEParameters</text>
<text text-anchor="middle" x="71.5" y="-49" font-family="Helvetica,sans-Serif" font-size="10.00">Form.putParametersToString</text>
</a>
</g>
</g>
<!-- Node2 -->
<g id="node2" class="node">
<title>Node2</title>
<g id="a_node2"><a xlink:href="classdenoptim_1_1gui_1_1_parameters_form.html#adba801c985eb2aa293c9dc1ce455fb63" target="_top" xlink:title="Produced the KEY:VALUE string for a general text field.">
<polygon fill="white" stroke="black" points="189,-79 189,-109 351,-109 351,-79 189,-79"/>
<text text-anchor="start" x="197" y="-97" font-family="Helvetica,sans-Serif" font-size="10.00">denoptim.gui.ParametersForm.get</text>
<text text-anchor="middle" x="270" y="-86" font-family="Helvetica,sans-Serif" font-size="10.00">StringIfNotEmpty</text>
</a>
</g>
</g>
<!-- Node1&#45;&gt;Node2 -->
<g id="edge1" class="edge">
<title>Node1&#45;&gt;Node2</title>
<path fill="none" stroke="midnightblue" d="M143.16,-70.31C154.85,-72.51 167.11,-74.81 179.2,-77.09"/>
<polygon fill="midnightblue" stroke="midnightblue" points="178.82,-80.58 189.29,-78.99 180.11,-73.7 178.82,-80.58"/>
</g>
<!-- Node3 -->
<g id="node3" class="node">
<title>Node3</title>
<g id="a_node3"><a xlink:href="classdenoptim_1_1gui_1_1_f_s_e_parameters_form.html#a1234cecc07c0e1f8f33a1adbd42b26be" target="_top" xlink:title="Imports parameters from a properly formatted parameters file.">
<polygon fill="white" stroke="black" points="179,-0.5 179,-41.5 361,-41.5 361,-0.5 179,-0.5"/>
<text text-anchor="start" x="187" y="-29.5" font-family="Helvetica,sans-Serif" font-size="10.00">denoptim.gui.FSEParameters</text>
<text text-anchor="start" x="187" y="-18.5" font-family="Helvetica,sans-Serif" font-size="10.00">Form.importParametersFromDenoptim</text>
<text text-anchor="middle" x="270" y="-7.5" font-family="Helvetica,sans-Serif" font-size="10.00">ParamsFile</text>
</a>
</g>
</g>
<!-- Node1&#45;&gt;Node3 -->
<g id="edge2" class="edge">
<title>Node1&#45;&gt;Node3</title>
<path fill="none" stroke="midnightblue" d="M143.16,-44.05C151.47,-42.53 160.06,-40.96 168.67,-39.38"/>
<polygon fill="midnightblue" stroke="midnightblue" points="169.57,-42.78 178.77,-37.53 168.3,-35.89 169.57,-42.78"/>
</g>
<!-- Node3&#45;&gt;Node3 -->
<g id="edge3" class="edge">
<title>Node3&#45;&gt;Node3</title>
<path fill="none" stroke="midnightblue" d="M233.61,-41.86C229.64,-51.54 241.77,-60 270,-60 287.64,-60 299,-56.7 304.06,-51.86"/>
<polygon fill="midnightblue" stroke="midnightblue" points="307.53,-52.4 306.39,-41.86 300.71,-50.81 307.53,-52.4"/>
</g>
</g>
</svg>
