<?xml version="1.0" encoding="UTF-8" standalone="no"?>
<!DOCTYPE svg PUBLIC "-//W3C//DTD SVG 1.1//EN"
 "http://www.w3.org/Graphics/SVG/1.1/DTD/svg11.dtd">
<!-- Generated by graphviz version 3.0.0 (20220413.0242)
 -->
<!-- Title: denoptim.gui.GUIGraphHandler.loadFragmentSpace Pages: 1 -->
<svg width="1322pt" height="730pt"
 viewBox="0.00 0.00 1322.00 730.00" xmlns="http://www.w3.org/2000/svg" xmlns:xlink="http://www.w3.org/1999/xlink">
<g id="graph0" class="graph" transform="scale(1 1) rotate(0) translate(4 726)">
<title>denoptim.gui.GUIGraphHandler.loadFragmentSpace</title>
<polygon fill="white" stroke="transparent" points="-4,4 -4,-726 1318,-726 1318,4 -4,4"/>
<!-- Node1 -->
<g id="node1" class="node">
<title>Node1</title>
<g id="a_node1"><a xlink:title=" ">
<polygon fill="#bfbfbf" stroke="black" points="0,-257.5 0,-287.5 172,-287.5 172,-257.5 0,-257.5"/>
<text text-anchor="start" x="8" y="-275.5" font-family="Helvetica,sans-Serif" font-size="10.00">denoptim.gui.GUIGraphHandler.load</text>
<text text-anchor="middle" x="86" y="-264.5" font-family="Helvetica,sans-Serif" font-size="10.00">FragmentSpace</text>
</a>
</g>
</g>
<!-- Node2 -->
<g id="node2" class="node">
<title>Node2</title>
<g id="a_node2"><a xlink:href="classdenoptim_1_1gui_1_1_f_s_params_dialog.html#ae39602275c1287e6916f7693a0824b08" target="_top" xlink:title="Reads all the parameters, calls the interpreters, and eventually creates the static FragmentSpace obj...">
<polygon fill="white" stroke="black" points="208,-427.5 208,-457.5 381,-457.5 381,-427.5 208,-427.5"/>
<text text-anchor="start" x="216" y="-445.5" font-family="Helvetica,sans-Serif" font-size="10.00">denoptim.gui.FSParamsDialog.make</text>
<text text-anchor="middle" x="294.5" y="-434.5" font-family="Helvetica,sans-Serif" font-size="10.00">FragSpace</text>
</a>
</g>
</g>
<!-- Node1&#45;&gt;Node2 -->
<g id="edge1" class="edge">
<title>Node1&#45;&gt;Node2</title>
<path fill="none" stroke="midnightblue" d="M105.33,-287.59C142.06,-317.83 224.83,-385.96 267.29,-420.92"/>
<polygon fill="midnightblue" stroke="midnightblue" points="265.27,-423.79 275.22,-427.45 269.72,-418.39 265.27,-423.79"/>
</g>
<!-- Node21 -->
<g id="node21" class="node">
<title>Node21</title>
<g id="a_node21"><a xlink:href="classdenoptim_1_1gui_1_1_graph_vertex_mol_viewer_panel.html#abeb355ac694f9f3278a3b5aeb9342de4" target="_top" xlink:title="Changes the appearance of the vertex visualisation panel to an empty card that is consistent with the...">
<polygon fill="white" stroke="black" points="214,-172 214,-213 375,-213 375,-172 214,-172"/>
<text text-anchor="start" x="222" y="-201" font-family="Helvetica,sans-Serif" font-size="10.00">denoptim.gui.GraphVertex</text>
<text text-anchor="start" x="222" y="-190" font-family="Helvetica,sans-Serif" font-size="10.00">MolViewerPanel.resetFragViewer</text>
<text text-anchor="middle" x="294.5" y="-179" font-family="Helvetica,sans-Serif" font-size="10.00">CardDeck</text>
</a>
</g>
</g>
<!-- Node1&#45;&gt;Node21 -->
<g id="edge23" class="edge">
<title>Node1&#45;&gt;Node21</title>
<path fill="none" stroke="midnightblue" d="M125.84,-257.45C155.42,-245.99 196.75,-229.98 230.97,-216.73"/>
<polygon fill="midnightblue" stroke="midnightblue" points="232.36,-219.94 240.42,-213.07 229.83,-213.41 232.36,-219.94"/>
</g>
<!-- Node3 -->
<g id="node3" class="node">
<title>Node3</title>
<g id="a_node3"><a xlink:href="classdenoptim_1_1fragspace_1_1_fragment_space_parameters.html#a7ba47e20c9b69f190c09c791e9caeca1" target="_top" xlink:title="Evaluate consistency of input parameters.">
<polygon fill="white" stroke="black" points="421.5,-617.5 421.5,-647.5 594.5,-647.5 594.5,-617.5 421.5,-617.5"/>
<text text-anchor="start" x="429.5" y="-635.5" font-family="Helvetica,sans-Serif" font-size="10.00">denoptim.fragspace.Fragment</text>
<text text-anchor="middle" x="508" y="-624.5" font-family="Helvetica,sans-Serif" font-size="10.00">SpaceParameters.checkParameters</text>
</a>
</g>
</g>
<!-- Node2&#45;&gt;Node3 -->
<g id="edge2" class="edge">
<title>Node2&#45;&gt;Node3</title>
<path fill="none" stroke="midnightblue" d="M312.45,-457.73C349.82,-491.3 439.42,-571.79 482.74,-610.7"/>
<polygon fill="midnightblue" stroke="midnightblue" points="480.48,-613.38 490.26,-617.46 485.16,-608.18 480.48,-613.38"/>
</g>
<!-- Node7 -->
<g id="node7" class="node">
<title>Node7</title>
<g id="a_node7"><a xlink:href="classdenoptim_1_1fragspace_1_1_fragment_space_parameters.html#a93693af51412000689dc7517151b9a05" target="_top" xlink:title=" ">
<polygon fill="white" stroke="black" points="418.5,-501.5 418.5,-531.5 597.5,-531.5 597.5,-501.5 418.5,-501.5"/>
<text text-anchor="start" x="426.5" y="-519.5" font-family="Helvetica,sans-Serif" font-size="10.00">denoptim.fragspace.Fragment</text>
<text text-anchor="middle" x="508" y="-508.5" font-family="Helvetica,sans-Serif" font-size="10.00">SpaceParameters.getFragmentSpace</text>
</a>
</g>
</g>
<!-- Node2&#45;&gt;Node7 -->
<g id="edge6" class="edge">
<title>Node2&#45;&gt;Node7</title>
<path fill="none" stroke="midnightblue" d="M328.84,-457.59C353,-468.19 386.63,-482.25 417,-492.5 423.28,-494.62 429.86,-496.68 436.47,-498.63"/>
<polygon fill="midnightblue" stroke="midnightblue" points="435.59,-502.02 446.16,-501.43 437.53,-495.3 435.59,-502.02"/>
</g>
<!-- Node8 -->
<g id="node8" class="node">
<title>Node8</title>
<g id="a_node8"><a xlink:href="classdenoptim_1_1fragspace_1_1_fragment_space_parameters.html#a09e9320a769de9b184bfc12195db88df" target="_top" xlink:title="Read the information collected in the parameters stored in this class and create the fragment space a...">
<polygon fill="white" stroke="black" points="417,-452.5 417,-482.5 599,-482.5 599,-452.5 417,-452.5"/>
<text text-anchor="start" x="425" y="-470.5" font-family="Helvetica,sans-Serif" font-size="10.00">denoptim.fragspace.Fragment</text>
<text text-anchor="middle" x="508" y="-459.5" font-family="Helvetica,sans-Serif" font-size="10.00">SpaceParameters.processParameters</text>
</a>
</g>
</g>
<!-- Node2&#45;&gt;Node8 -->
<g id="edge7" class="edge">
<title>Node2&#45;&gt;Node8</title>
<path fill="none" stroke="midnightblue" d="M381.22,-452.63C389.61,-453.62 398.18,-454.64 406.71,-455.64"/>
<polygon fill="midnightblue" stroke="midnightblue" points="406.33,-459.13 416.68,-456.82 407.16,-452.17 406.33,-459.13"/>
</g>
<!-- Node10 -->
<g id="node10" class="node">
<title>Node10</title>
<g id="a_node10"><a xlink:href="classdenoptim_1_1gui_1_1_f_s_parameters_form.html#a06262c2710006e31961d2eeaa8df061e" target="_top" xlink:title=" ">
<polygon fill="white" stroke="black" points="437,-403.5 437,-433.5 579,-433.5 579,-403.5 437,-403.5"/>
<text text-anchor="start" x="445" y="-421.5" font-family="Helvetica,sans-Serif" font-size="10.00">denoptim.gui.FSParameters</text>
<text text-anchor="middle" x="508" y="-410.5" font-family="Helvetica,sans-Serif" font-size="10.00">Form.putParametersToString</text>
</a>
</g>
</g>
<!-- Node2&#45;&gt;Node10 -->
<g id="edge9" class="edge">
<title>Node2&#45;&gt;Node10</title>
<path fill="none" stroke="midnightblue" d="M381.22,-432.77C396.2,-431.07 411.73,-429.31 426.56,-427.63"/>
<polygon fill="midnightblue" stroke="midnightblue" points="427.16,-431.08 436.7,-426.48 426.37,-424.13 427.16,-431.08"/>
</g>
<!-- Node16 -->
<g id="node16" class="node">
<title>Node16</title>
<g id="a_node16"><a xlink:href="classdenoptim_1_1programs_1_1_run_time_parameters.html#a890aaf1919e171a9c3f9206c9a93aa3b" target="_top" xlink:title=" ">
<polygon fill="white" stroke="black" points="432,-281.5 432,-311.5 584,-311.5 584,-281.5 432,-281.5"/>
<text text-anchor="start" x="440" y="-299.5" font-family="Helvetica,sans-Serif" font-size="10.00">denoptim.programs.RunTime</text>
<text text-anchor="middle" x="508" y="-288.5" font-family="Helvetica,sans-Serif" font-size="10.00">Parameters.readParameterLine</text>
</a>
</g>
</g>
<!-- Node2&#45;&gt;Node16 -->
<g id="edge17" class="edge">
<title>Node2&#45;&gt;Node16</title>
<path fill="none" stroke="midnightblue" d="M317.34,-427.43C355.25,-401.25 433.34,-347.35 476.55,-317.52"/>
<polygon fill="midnightblue" stroke="midnightblue" points="478.72,-320.27 484.96,-311.71 474.75,-314.51 478.72,-320.27"/>
</g>
<!-- Node4 -->
<g id="node4" class="node">
<title>Node4</title>
<g id="a_node4"><a xlink:href="classdenoptim_1_1files_1_1_file_utils.html#a16bc762b79f5033f2323fb8728593334" target="_top" xlink:title=" ">
<polygon fill="white" stroke="black" points="663,-691.5 663,-721.5 806,-721.5 806,-691.5 663,-691.5"/>
<text text-anchor="start" x="671" y="-709.5" font-family="Helvetica,sans-Serif" font-size="10.00">denoptim.files.FileUtils.check</text>
<text text-anchor="middle" x="734.5" y="-698.5" font-family="Helvetica,sans-Serif" font-size="10.00">Exists</text>
</a>
</g>
</g>
<!-- Node3&#45;&gt;Node4 -->
<g id="edge3" class="edge">
<title>Node3&#45;&gt;Node4</title>
<path fill="none" stroke="midnightblue" d="M543.29,-647.61C568.37,-658.28 603.38,-672.43 635,-682.5 641.92,-684.7 649.16,-686.82 656.45,-688.82"/>
<polygon fill="midnightblue" stroke="midnightblue" points="655.83,-692.28 666.39,-691.47 657.63,-685.51 655.83,-692.28"/>
</g>
<!-- Node5 -->
<g id="node5" class="node">
<title>Node5</title>
<g id="a_node5"><a xlink:href="classdenoptim_1_1programs_1_1_run_time_parameters.html#aaeaf94275f1b63439850a68a244a74c2" target="_top" xlink:title="Checks any of the parameter collections contained in this instance.">
<polygon fill="white" stroke="black" points="649.5,-642.5 649.5,-672.5 819.5,-672.5 819.5,-642.5 649.5,-642.5"/>
<text text-anchor="start" x="657.5" y="-660.5" font-family="Helvetica,sans-Serif" font-size="10.00">denoptim.programs.RunTime</text>
<text text-anchor="middle" x="734.5" y="-649.5" font-family="Helvetica,sans-Serif" font-size="10.00">Parameters.checkOtherParameters</text>
</a>
</g>
</g>
<!-- Node3&#45;&gt;Node5 -->
<g id="edge4" class="edge">
<title>Node3&#45;&gt;Node5</title>
<path fill="none" stroke="midnightblue" d="M594.51,-642.02C609.11,-643.65 624.35,-645.35 639.16,-646.99"/>
<polygon fill="midnightblue" stroke="midnightblue" points="639.01,-650.5 649.34,-648.13 639.79,-643.54 639.01,-650.5"/>
</g>
<!-- Node6 -->
<g id="node6" class="node">
<title>Node6</title>
<g id="a_node6"><a xlink:href="classdenoptim_1_1programs_1_1_run_time_parameters.html#a5d529ee791990d15bde012d8dcd6b5c1" target="_top" xlink:title="Get the name of the program specific logger.">
<polygon fill="white" stroke="black" points="664.5,-593.5 664.5,-623.5 804.5,-623.5 804.5,-593.5 664.5,-593.5"/>
<text text-anchor="start" x="672.5" y="-611.5" font-family="Helvetica,sans-Serif" font-size="10.00">denoptim.programs.RunTime</text>
<text text-anchor="middle" x="734.5" y="-600.5" font-family="Helvetica,sans-Serif" font-size="10.00">Parameters.getLogger</text>
</a>
</g>
</g>
<!-- Node3&#45;&gt;Node6 -->
<g id="edge5" class="edge">
<title>Node3&#45;&gt;Node6</title>
<path fill="none" stroke="midnightblue" d="M594.51,-623.36C614.14,-621.26 634.93,-619.04 654.27,-616.97"/>
<polygon fill="midnightblue" stroke="midnightblue" points="654.67,-620.45 664.25,-615.9 653.93,-613.49 654.67,-620.45"/>
</g>
<!-- Node9 -->
<g id="node9" class="node">
<title>Node9</title>
<g id="a_node9"><a xlink:href="classdenoptim_1_1programs_1_1_run_time_parameters.html#abcdf563c6c95b9a293cb0e71738355ff" target="_top" xlink:title="Processes any of the parameter collections contained in this instance.">
<polygon fill="white" stroke="black" points="645.5,-544.5 645.5,-574.5 823.5,-574.5 823.5,-544.5 645.5,-544.5"/>
<text text-anchor="start" x="653.5" y="-562.5" font-family="Helvetica,sans-Serif" font-size="10.00">denoptim.programs.RunTime</text>
<text text-anchor="middle" x="734.5" y="-551.5" font-family="Helvetica,sans-Serif" font-size="10.00">Parameters.processOtherParameters</text>
</a>
</g>
</g>
<!-- Node8&#45;&gt;Node9 -->
<g id="edge8" class="edge">
<title>Node8&#45;&gt;Node9</title>
<path fill="none" stroke="midnightblue" d="M579.6,-482.59C586.41,-485.36 593,-488.64 599,-492.5 619.95,-506 613.83,-522.34 635,-535.5 637.68,-537.17 640.46,-538.72 643.33,-540.16"/>
<polygon fill="midnightblue" stroke="midnightblue" points="642.17,-543.47 652.72,-544.41 645.05,-537.1 642.17,-543.47"/>
</g>
<!-- Node11 -->
<g id="node11" class="node">
<title>Node11</title>
<g id="a_node11"><a xlink:href="classdenoptim_1_1gui_1_1_parameters_form.html#a625c868bd274a682e1c81eaaefce8f5d" target="_top" xlink:title="Produced an overall string including one or more KEY:VALUE strings taken from a table.">
<polygon fill="white" stroke="black" points="653.5,-477.5 653.5,-507.5 815.5,-507.5 815.5,-477.5 653.5,-477.5"/>
<text text-anchor="start" x="661.5" y="-495.5" font-family="Helvetica,sans-Serif" font-size="10.00">denoptim.gui.ParametersForm.get</text>
<text text-anchor="middle" x="734.5" y="-484.5" font-family="Helvetica,sans-Serif" font-size="10.00">StringFromTable</text>
</a>
</g>
</g>
<!-- Node10&#45;&gt;Node11 -->
<g id="edge10" class="edge">
<title>Node10&#45;&gt;Node11</title>
<path fill="none" stroke="midnightblue" d="M573.39,-433.52C582.17,-436.39 590.93,-439.71 599,-443.5 616.63,-451.78 617.24,-460.5 635,-468.5 639.6,-470.57 644.4,-472.48 649.3,-474.23"/>
<polygon fill="midnightblue" stroke="midnightblue" points="648.23,-477.56 658.82,-477.42 650.45,-470.93 648.23,-477.56"/>
</g>
<!-- Node12 -->
<g id="node12" class="node">
<title>Node12</title>
<g id="a_node12"><a xlink:href="classdenoptim_1_1gui_1_1_parameters_form.html#adba801c985eb2aa293c9dc1ce455fb63" target="_top" xlink:title="Produced the KEY:VALUE string for a general text field.">
<polygon fill="white" stroke="black" points="653.5,-428.5 653.5,-458.5 815.5,-458.5 815.5,-428.5 653.5,-428.5"/>
<text text-anchor="start" x="661.5" y="-446.5" font-family="Helvetica,sans-Serif" font-size="10.00">denoptim.gui.ParametersForm.get</text>
<text text-anchor="middle" x="734.5" y="-435.5" font-family="Helvetica,sans-Serif" font-size="10.00">StringIfNotEmpty</text>
</a>
</g>
</g>
<!-- Node10&#45;&gt;Node12 -->
<g id="edge12" class="edge">
<title>Node10&#45;&gt;Node12</title>
<path fill="none" stroke="midnightblue" d="M579.11,-426.31C599.43,-428.57 621.92,-431.07 643.29,-433.45"/>
<polygon fill="midnightblue" stroke="midnightblue" points="643.02,-436.95 653.34,-434.57 643.79,-429.99 643.02,-436.95"/>
</g>
<!-- Node13 -->
<g id="node13" class="node">
<title>Node13</title>
<g id="a_node13"><a xlink:href="classdenoptim_1_1gui_1_1_parameters_form.html#a8fe7e5b6db435de65b2629b0e175cc82" target="_top" xlink:title="Produced the KEY:VALUE string for a on/off button.">
<polygon fill="white" stroke="black" points="653.5,-379.5 653.5,-409.5 815.5,-409.5 815.5,-379.5 653.5,-379.5"/>
<text text-anchor="start" x="661.5" y="-397.5" font-family="Helvetica,sans-Serif" font-size="10.00">denoptim.gui.ParametersForm.get</text>
<text text-anchor="middle" x="734.5" y="-386.5" font-family="Helvetica,sans-Serif" font-size="10.00">StringIfSelected</text>
</a>
</g>
</g>
<!-- Node10&#45;&gt;Node13 -->
<g id="edge13" class="edge">
<title>Node10&#45;&gt;Node13</title>
<path fill="none" stroke="midnightblue" d="M579.11,-411C599.43,-408.83 621.92,-406.43 643.29,-404.14"/>
<polygon fill="midnightblue" stroke="midnightblue" points="643.77,-407.61 653.34,-403.07 643.03,-400.65 643.77,-407.61"/>
</g>
<!-- Node14 -->
<g id="node14" class="node">
<title>Node14</title>
<g id="a_node14"><a xlink:href="classdenoptim_1_1gui_1_1_f_s_parameters_form.html#acf9f63e43965c7723e5b577212de9ecf" target="_top" xlink:title=" ">
<polygon fill="white" stroke="black" points="635,-330.5 635,-360.5 834,-360.5 834,-330.5 635,-330.5"/>
<text text-anchor="start" x="643" y="-348.5" font-family="Helvetica,sans-Serif" font-size="10.00">denoptim.gui.FSParameters</text>
<text text-anchor="middle" x="734.5" y="-337.5" font-family="Helvetica,sans-Serif" font-size="10.00">Form.possiblyReadParamsFromFSParFile</text>
</a>
</g>
</g>
<!-- Node10&#45;&gt;Node14 -->
<g id="edge14" class="edge">
<title>Node10&#45;&gt;Node14</title>
<path fill="none" stroke="midnightblue" d="M545.27,-403.4C570.24,-393.33 604.31,-380.2 635,-370.5 643.04,-367.96 651.51,-365.49 659.97,-363.17"/>
<polygon fill="midnightblue" stroke="midnightblue" points="661.13,-366.48 669.88,-360.5 659.31,-359.72 661.13,-366.48"/>
</g>
<!-- Node11&#45;&gt;Node11 -->
<g id="edge11" class="edge">
<title>Node11&#45;&gt;Node11</title>
<path fill="none" stroke="midnightblue" d="M695.11,-507.66C685.62,-517.06 698.75,-526 734.5,-526 756.29,-526 769.67,-522.68 774.66,-517.96"/>
<polygon fill="midnightblue" stroke="midnightblue" points="778.12,-517.37 773.89,-507.66 771.14,-517.89 778.12,-517.37"/>
</g>
<!-- Node15 -->
<g id="node15" class="node">
<title>Node15</title>
<g id="a_node15"><a xlink:href="classdenoptim_1_1gui_1_1_f_s_parameters_form.html#a3efd797a6bfa6106f3134ead85fcab5e" target="_top" xlink:title="Imports parameters from a properly formatted parameters file.">
<polygon fill="white" stroke="black" points="890.5,-330 890.5,-371 1072.5,-371 1072.5,-330 890.5,-330"/>
<text text-anchor="start" x="898.5" y="-359" font-family="Helvetica,sans-Serif" font-size="10.00">denoptim.gui.FSParameters</text>
<text text-anchor="start" x="898.5" y="-348" font-family="Helvetica,sans-Serif" font-size="10.00">Form.importParametersFromDenoptim</text>
<text text-anchor="middle" x="981.5" y="-337" font-family="Helvetica,sans-Serif" font-size="10.00">ParamsFile</text>
</a>
</g>
</g>
<!-- Node14&#45;&gt;Node15 -->
<g id="edge15" class="edge">
<title>Node14&#45;&gt;Node15</title>
<path fill="none" stroke="midnightblue" d="M834.09,-347.51C849.22,-347.82 864.85,-348.14 880.01,-348.45"/>
<polygon fill="midnightblue" stroke="midnightblue" points="880.36,-351.96 890.43,-348.66 880.5,-344.96 880.36,-351.96"/>
</g>
<!-- Node15&#45;&gt;Node15 -->
<g id="edge16" class="edge">
<title>Node15&#45;&gt;Node15</title>
<path fill="none" stroke="midnightblue" d="M937.76,-371.36C932.99,-381.04 947.57,-389.5 981.5,-389.5 1002.71,-389.5 1016.36,-386.2 1022.45,-381.36"/>
<polygon fill="midnightblue" stroke="midnightblue" points="1025.92,-381.94 1025.24,-371.36 1019.18,-380.05 1025.92,-381.94"/>
</g>
<!-- Node17 -->
<g id="node17" class="node">
<title>Node17</title>
<g id="a_node17"><a xlink:href="classdenoptim_1_1programs_1_1_run_time_parameters.html#a38d652dfc85081f78687a61b32f9a283" target="_top" xlink:title="Builds the implementation of this class suitable to allocate parameters of the given type.">
<polygon fill="white" stroke="black" points="664.5,-281.5 664.5,-311.5 804.5,-311.5 804.5,-281.5 664.5,-281.5"/>
<text text-anchor="start" x="672.5" y="-299.5" font-family="Helvetica,sans-Serif" font-size="10.00">denoptim.programs.RunTime</text>
<text text-anchor="middle" x="734.5" y="-288.5" font-family="Helvetica,sans-Serif" font-size="10.00">Parameters.getInstanceFor</text>
</a>
</g>
</g>
<!-- Node16&#45;&gt;Node17 -->
<g id="edge18" class="edge">
<title>Node16&#45;&gt;Node17</title>
<path fill="none" stroke="midnightblue" d="M584.07,-296.5C606.51,-296.5 631.18,-296.5 653.9,-296.5"/>
<polygon fill="midnightblue" stroke="midnightblue" points="654.19,-300 664.19,-296.5 654.19,-293 654.19,-300"/>
</g>
<!-- Node20 -->
<g id="node20" class="node">
<title>Node20</title>
<g id="a_node20"><a xlink:href="classdenoptim_1_1programs_1_1_run_time_parameters.html#a4cf7f93ac962a8979be6426b5b576384" target="_top" xlink:title="Processes a string looking for keyword and a possibly associated value.">
<polygon fill="white" stroke="black" points="663.5,-214.5 663.5,-244.5 805.5,-244.5 805.5,-214.5 663.5,-214.5"/>
<text text-anchor="start" x="671.5" y="-232.5" font-family="Helvetica,sans-Serif" font-size="10.00">denoptim.programs.RunTime</text>
<text text-anchor="middle" x="734.5" y="-221.5" font-family="Helvetica,sans-Serif" font-size="10.00">Parameters.interpretKeyword</text>
</a>
</g>
</g>
<!-- Node16&#45;&gt;Node20 -->
<g id="edge21" class="edge">
<title>Node16&#45;&gt;Node20</title>
<path fill="none" stroke="midnightblue" d="M559.38,-281.46C593.06,-271.41 637.54,-258.14 673.12,-247.52"/>
<polygon fill="midnightblue" stroke="midnightblue" points="674.32,-250.82 682.9,-244.6 672.31,-244.11 674.32,-250.82"/>
</g>
<!-- Node18 -->
<g id="node18" class="node">
<title>Node18</title>
<g id="a_node18"><a xlink:href="enumdenoptim_1_1programs_1_1_run_time_parameters_1_1_parameters_type.html#af225a4d21c1a04771222f81fe5622b2d" target="_top" xlink:title=" ">
<polygon fill="white" stroke="black" points="870,-281.5 870,-311.5 1093,-311.5 1093,-281.5 870,-281.5"/>
<text text-anchor="start" x="878" y="-299.5" font-family="Helvetica,sans-Serif" font-size="10.00">denoptim.programs.RunTime</text>
<text text-anchor="middle" x="981.5" y="-288.5" font-family="Helvetica,sans-Serif" font-size="10.00">Parameters.ParametersType.getImplementation</text>
</a>
</g>
</g>
<!-- Node17&#45;&gt;Node18 -->
<g id="edge19" class="edge">
<title>Node17&#45;&gt;Node18</title>
<path fill="none" stroke="midnightblue" d="M804.72,-296.5C821.88,-296.5 840.76,-296.5 859.59,-296.5"/>
<polygon fill="midnightblue" stroke="midnightblue" points="859.73,-300 869.73,-296.5 859.73,-293 859.73,-300"/>
</g>
<!-- Node19 -->
<g id="node19" class="node">
<title>Node19</title>
<g id="a_node19"><a xlink:href="classdenoptim_1_1programs_1_1_run_time_parameters.html#a0ff947a81c127a3460907c7cffb9843b" target="_top" xlink:title="Constructor.">
<polygon fill="white" stroke="black" points="902.5,-232.5 902.5,-262.5 1060.5,-262.5 1060.5,-232.5 902.5,-232.5"/>
<text text-anchor="start" x="910.5" y="-250.5" font-family="Helvetica,sans-Serif" font-size="10.00">denoptim.programs.RunTime</text>
<text text-anchor="middle" x="981.5" y="-239.5" font-family="Helvetica,sans-Serif" font-size="10.00">Parameters.RunTimeParameters</text>
</a>
</g>
</g>
<!-- Node17&#45;&gt;Node19 -->
<g id="edge20" class="edge">
<title>Node17&#45;&gt;Node19</title>
<path fill="none" stroke="midnightblue" d="M804.72,-282.66C832.95,-277.01 865.86,-270.43 895.52,-264.5"/>
<polygon fill="midnightblue" stroke="midnightblue" points="896.32,-267.91 905.44,-262.51 894.95,-261.04 896.32,-267.91"/>
</g>
<!-- Node20&#45;&gt;Node20 -->
<g id="edge22" class="edge">
<title>Node20&#45;&gt;Node20</title>
<path fill="none" stroke="midnightblue" d="M695.11,-244.66C685.62,-254.06 698.75,-263 734.5,-263 756.29,-263 769.67,-259.68 774.66,-254.96"/>
<polygon fill="midnightblue" stroke="midnightblue" points="778.12,-254.37 773.89,-244.66 771.14,-254.89 778.12,-254.37"/>
</g>
<!-- Node22 -->
<g id="node22" class="node">
<title>Node22</title>
<g id="a_node22"><a xlink:href="classdenoptim_1_1gui_1_1_graph_vertex_mol_viewer_panel.html#a161579a33a00d54d8cc3610cacd3d98e" target="_top" xlink:title="Allows to show the given card in the vertex viewer panel.">
<polygon fill="white" stroke="black" points="429,-199 429,-240 587,-240 587,-199 429,-199"/>
<text text-anchor="start" x="437" y="-228" font-family="Helvetica,sans-Serif" font-size="10.00">denoptim.gui.GraphVertex</text>
<text text-anchor="start" x="437" y="-217" font-family="Helvetica,sans-Serif" font-size="10.00">MolViewerPanel.bringCardToTop</text>
<text text-anchor="middle" x="508" y="-206" font-family="Helvetica,sans-Serif" font-size="10.00">OfVertexViewer</text>
</a>
</g>
</g>
<!-- Node21&#45;&gt;Node22 -->
<g id="edge24" class="edge">
<title>Node21&#45;&gt;Node22</title>
<path fill="none" stroke="midnightblue" d="M375.16,-202.67C389.43,-204.49 404.38,-206.4 418.87,-208.25"/>
<polygon fill="midnightblue" stroke="midnightblue" points="418.45,-211.72 428.82,-209.52 419.34,-204.78 418.45,-211.72"/>
</g>
<!-- Node23 -->
<g id="node23" class="node">
<title>Node23</title>
<g id="a_node23"><a xlink:href="classdenoptim_1_1gui_1_1_fragment_view_panel.html#a5b02a7e511de2c6dd4aa18420d5f76f8" target="_top" xlink:title="Removes the currently visualized molecule and AP table.">
<polygon fill="white" stroke="black" points="439.5,-150.5 439.5,-180.5 576.5,-180.5 576.5,-150.5 439.5,-150.5"/>
<text text-anchor="start" x="447.5" y="-168.5" font-family="Helvetica,sans-Serif" font-size="10.00">denoptim.gui.FragmentView</text>
<text text-anchor="middle" x="508" y="-157.5" font-family="Helvetica,sans-Serif" font-size="10.00">Panel.clearAll</text>
</a>
</g>
</g>
<!-- Node21&#45;&gt;Node23 -->
<g id="edge25" class="edge">
<title>Node21&#45;&gt;Node23</title>
<path fill="none" stroke="midnightblue" d="M375.16,-182.33C392.78,-180.08 411.43,-177.7 428.98,-175.46"/>
<polygon fill="midnightblue" stroke="midnightblue" points="429.7,-178.9 439.17,-174.16 428.81,-171.95 429.7,-178.9"/>
</g>
<!-- Node28 -->
<g id="node28" class="node">
<title>Node28</title>
<g id="a_node28"><a xlink:href="classdenoptim_1_1gui_1_1_graph_vertex_mol_viewer_panel.html#a3cf222c297371678ddd971e9857188b0" target="_top" xlink:title=" ">
<polygon fill="white" stroke="black" points="418.5,-60 418.5,-101 597.5,-101 597.5,-60 418.5,-60"/>
<text text-anchor="start" x="426.5" y="-89" font-family="Helvetica,sans-Serif" font-size="10.00">denoptim.gui.GraphVertex</text>
<text text-anchor="start" x="426.5" y="-78" font-family="Helvetica,sans-Serif" font-size="10.00">MolViewerPanel.removeNestedGraph</text>
<text text-anchor="middle" x="508" y="-67" font-family="Helvetica,sans-Serif" font-size="10.00">Viewer</text>
</a>
</g>
</g>
<!-- Node21&#45;&gt;Node28 -->
<g id="edge30" class="edge">
<title>Node21&#45;&gt;Node28</title>
<path fill="none" stroke="midnightblue" d="M334.29,-171.96C369.36,-153.39 421.12,-125.98 458.83,-106.01"/>
<polygon fill="midnightblue" stroke="midnightblue" points="460.9,-108.87 468.1,-101.1 457.62,-102.69 460.9,-108.87"/>
</g>
<!-- Node24 -->
<g id="node24" class="node">
<title>Node24</title>
<g id="a_node24"><a xlink:href="classdenoptim_1_1gui_1_1_fragment_view_panel.html#a65e5473c03b2075c97fbfa9b587b8949" target="_top" xlink:title="Clears the table of attachment points.">
<polygon fill="white" stroke="black" points="666,-165.5 666,-195.5 803,-195.5 803,-165.5 666,-165.5"/>
<text text-anchor="start" x="674" y="-183.5" font-family="Helvetica,sans-Serif" font-size="10.00">denoptim.gui.FragmentView</text>
<text text-anchor="middle" x="734.5" y="-172.5" font-family="Helvetica,sans-Serif" font-size="10.00">Panel.clearAPTable</text>
</a>
</g>
</g>
<!-- Node23&#45;&gt;Node24 -->
<g id="edge26" class="edge">
<title>Node23&#45;&gt;Node24</title>
<path fill="none" stroke="midnightblue" d="M576.66,-170.02C601.62,-171.69 630.1,-173.59 655.87,-175.31"/>
<polygon fill="midnightblue" stroke="midnightblue" points="655.77,-178.81 665.98,-175.99 656.23,-171.83 655.77,-178.81"/>
</g>
<!-- Node27 -->
<g id="node27" class="node">
<title>Node27</title>
<g id="a_node27"><a xlink:href="classdenoptim_1_1gui_1_1_fragment_view_panel.html#ad2fc717c7c33817e4178031130d46f6d" target="_top" xlink:title="Clears the molecular viewer.">
<polygon fill="white" stroke="black" points="666,-116.5 666,-146.5 803,-146.5 803,-116.5 666,-116.5"/>
<text text-anchor="start" x="674" y="-134.5" font-family="Helvetica,sans-Serif" font-size="10.00">denoptim.gui.FragmentView</text>
<text text-anchor="middle" x="734.5" y="-123.5" font-family="Helvetica,sans-Serif" font-size="10.00">Panel.clearMolecularViewer</text>
</a>
</g>
</g>
<!-- Node23&#45;&gt;Node27 -->
<g id="edge29" class="edge">
<title>Node23&#45;&gt;Node27</title>
<path fill="none" stroke="midnightblue" d="M576.66,-155.25C601.62,-151.47 630.1,-147.16 655.87,-143.26"/>
<polygon fill="midnightblue" stroke="midnightblue" points="656.61,-146.68 665.98,-141.73 655.57,-139.76 656.61,-146.68"/>
</g>
<!-- Node25 -->
<g id="node25" class="node">
<title>Node25</title>
<g id="a_node25"><a xlink:href="classdenoptim_1_1gui_1_1_fragment_view_panel.html#ad1564e5c67234495668c68f02ab04ed4" target="_top" xlink:title="Allows to activate and deactivate the listener.">
<polygon fill="white" stroke="black" points="905.5,-165.5 905.5,-195.5 1057.5,-195.5 1057.5,-165.5 905.5,-165.5"/>
<text text-anchor="start" x="913.5" y="-183.5" font-family="Helvetica,sans-Serif" font-size="10.00">denoptim.gui.FragmentView</text>
<text text-anchor="middle" x="981.5" y="-172.5" font-family="Helvetica,sans-Serif" font-size="10.00">Panel.activateTabEditsListener</text>
</a>
</g>
</g>
<!-- Node24&#45;&gt;Node25 -->
<g id="edge27" class="edge">
<title>Node24&#45;&gt;Node25</title>
<path fill="none" stroke="midnightblue" d="M803.1,-180.5C831.6,-180.5 865.11,-180.5 895.28,-180.5"/>
<polygon fill="midnightblue" stroke="midnightblue" points="895.37,-184 905.37,-180.5 895.37,-177 895.37,-184"/>
</g>
<!-- Node26 -->
<g id="node26" class="node">
<title>Node26</title>
<g id="a_node26"><a xlink:href="classdenoptim_1_1gui_1_1_fragment_view_panel_1_1_pausable_table_model_listener.html#ab8f315a71d317424e2647c160fc3fdfb" target="_top" xlink:title=" ">
<polygon fill="white" stroke="black" points="1129,-160 1129,-201 1314,-201 1314,-160 1129,-160"/>
<text text-anchor="start" x="1137" y="-189" font-family="Helvetica,sans-Serif" font-size="10.00">denoptim.gui.FragmentView</text>
<text text-anchor="start" x="1137" y="-178" font-family="Helvetica,sans-Serif" font-size="10.00">Panel.PausableTableModelListener.set</text>
<text text-anchor="middle" x="1221.5" y="-167" font-family="Helvetica,sans-Serif" font-size="10.00">Active</text>
</a>
</g>
</g>
<!-- Node25&#45;&gt;Node26 -->
<g id="edge28" class="edge">
<title>Node25&#45;&gt;Node26</title>
<path fill="none" stroke="midnightblue" d="M1057.8,-180.5C1077.23,-180.5 1098.46,-180.5 1118.99,-180.5"/>
<polygon fill="midnightblue" stroke="midnightblue" points="1118.99,-184 1128.99,-180.5 1118.99,-177 1118.99,-184"/>
</g>
<!-- Node29 -->
<g id="node29" class="node">
<title>Node29</title>
<g id="a_node29"><a xlink:href="classdenoptim_1_1gui_1_1_graph_vertex_mol_viewer_panel.html#af9c75e107b2b7c1b90956962737313ad" target="_top" xlink:title=" ">
<polygon fill="white" stroke="black" points="670.5,-49.5 670.5,-79.5 798.5,-79.5 798.5,-49.5 670.5,-49.5"/>
<text text-anchor="start" x="678.5" y="-67.5" font-family="Helvetica,sans-Serif" font-size="10.00">denoptim.gui.GraphVertex</text>
<text text-anchor="middle" x="734.5" y="-56.5" font-family="Helvetica,sans-Serif" font-size="10.00">MolViewerPanel.dispose</text>
</a>
</g>
</g>
<!-- Node28&#45;&gt;Node29 -->
<g id="edge31" class="edge">
<title>Node28&#45;&gt;Node29</title>
<path fill="none" stroke="midnightblue" d="M597.73,-74.18C618.39,-72.7 640.17,-71.15 660.09,-69.73"/>
<polygon fill="midnightblue" stroke="midnightblue" points="660.59,-73.2 670.32,-69 660.1,-66.22 660.59,-73.2"/>
</g>
<!-- Node29&#45;&gt;Node29 -->
<g id="edge34" class="edge">
<title>Node29&#45;&gt;Node29</title>
<path fill="none" stroke="midnightblue" d="M695.11,-79.66C685.62,-89.06 698.75,-98 734.5,-98 756.29,-98 769.67,-94.68 774.66,-89.96"/>
<polygon fill="midnightblue" stroke="midnightblue" points="778.12,-89.37 773.89,-79.66 771.14,-89.89 778.12,-89.37"/>
</g>
<!-- Node30 -->
<g id="node30" class="node">
<title>Node30</title>
<g id="a_node30"><a xlink:href="classdenoptim_1_1gui_1_1_fragment_view_panel.html#a9ca37c0606b3e1f5dee183b405b07d2d" target="_top" xlink:title=" ">
<polygon fill="white" stroke="black" points="913,-98.5 913,-128.5 1050,-128.5 1050,-98.5 913,-98.5"/>
<text text-anchor="start" x="921" y="-116.5" font-family="Helvetica,sans-Serif" font-size="10.00">denoptim.gui.FragmentView</text>
<text text-anchor="middle" x="981.5" y="-105.5" font-family="Helvetica,sans-Serif" font-size="10.00">Panel.dispose</text>
</a>
</g>
</g>
<!-- Node29&#45;&gt;Node30 -->
<g id="edge32" class="edge">
<title>Node29&#45;&gt;Node30</title>
<path fill="none" stroke="midnightblue" d="M798.59,-77.12C830.33,-83.47 869.09,-91.22 902.66,-97.93"/>
<polygon fill="midnightblue" stroke="midnightblue" points="902.4,-101.45 912.9,-99.98 903.78,-94.59 902.4,-101.45"/>
</g>
<!-- Node32 -->
<g id="node32" class="node">
<title>Node32</title>
<g id="a_node32"><a xlink:href="classdenoptim_1_1gui_1_1_graph_viewer_panel.html#a99d4a461e15c4fb9f9132a41181825bd" target="_top" xlink:title=" ">
<polygon fill="white" stroke="black" points="916.5,-0.5 916.5,-30.5 1046.5,-30.5 1046.5,-0.5 916.5,-0.5"/>
<text text-anchor="start" x="924.5" y="-18.5" font-family="Helvetica,sans-Serif" font-size="10.00">denoptim.gui.GraphViewer</text>
<text text-anchor="middle" x="981.5" y="-7.5" font-family="Helvetica,sans-Serif" font-size="10.00">Panel.dispose</text>
</a>
</g>
</g>
<!-- Node29&#45;&gt;Node32 -->
<g id="edge35" class="edge">
<title>Node29&#45;&gt;Node32</title>
<path fill="none" stroke="midnightblue" d="M798.59,-51.88C831.5,-45.3 871.95,-37.21 906.35,-30.33"/>
<polygon fill="midnightblue" stroke="midnightblue" points="907.22,-33.72 916.34,-28.33 905.85,-26.86 907.22,-33.72"/>
</g>
<!-- Node34 -->
<g id="node34" class="node">
<title>Node34</title>
<g id="a_node34"><a xlink:href="classdenoptim_1_1gui_1_1_molecule_view_panel.html#aa3eb9fa70c64b518c4797cb1d1675ff9" target="_top" xlink:title=" ">
<polygon fill="white" stroke="black" points="914.5,-49.5 914.5,-79.5 1048.5,-79.5 1048.5,-49.5 914.5,-49.5"/>
<text text-anchor="start" x="922.5" y="-67.5" font-family="Helvetica,sans-Serif" font-size="10.00">denoptim.gui.MoleculeView</text>
<text text-anchor="middle" x="981.5" y="-56.5" font-family="Helvetica,sans-Serif" font-size="10.00">Panel.dispose</text>
</a>
</g>
</g>
<!-- Node29&#45;&gt;Node34 -->
<g id="edge37" class="edge">
<title>Node29&#45;&gt;Node34</title>
<path fill="none" stroke="midnightblue" d="M798.59,-64.5C830.72,-64.5 870.03,-64.5 903.88,-64.5"/>
<polygon fill="midnightblue" stroke="midnightblue" points="904.19,-68 914.19,-64.5 904.19,-61 904.19,-68"/>
</g>
<!-- Node31 -->
<g id="node31" class="node">
<title>Node31</title>
<g id="a_node31"><a xlink:href="classdenoptim_1_1gui_1_1_jmol_panel.html#a83ab608f9724a6305640ad8722ad6c3e" target="_top" xlink:title=" ">
<polygon fill="white" stroke="black" points="1144,-79 1144,-98 1299,-98 1299,-79 1144,-79"/>
<text text-anchor="middle" x="1221.5" y="-86" font-family="Helvetica,sans-Serif" font-size="10.00">denoptim.gui.JmolPanel.dispose</text>
</a>
</g>
</g>
<!-- Node30&#45;&gt;Node31 -->
<g id="edge33" class="edge">
<title>Node30&#45;&gt;Node31</title>
<path fill="none" stroke="midnightblue" d="M1050.06,-106.4C1076.14,-103.66 1106.28,-100.5 1133.91,-97.6"/>
<polygon fill="midnightblue" stroke="midnightblue" points="1134.38,-101.07 1143.96,-96.54 1133.65,-94.1 1134.38,-101.07"/>
</g>
<!-- Node33 -->
<g id="node33" class="node">
<title>Node33</title>
<g id="a_node33"><a xlink:href="classdenoptim_1_1gui_1_1_graph_viewer_panel.html#a581e856de9d7b202a219773b3d9bef2a" target="_top" xlink:title="Removes the currently loaded graph viewer.">
<polygon fill="white" stroke="black" points="1156.5,-0.5 1156.5,-30.5 1286.5,-30.5 1286.5,-0.5 1156.5,-0.5"/>
<text text-anchor="start" x="1164.5" y="-18.5" font-family="Helvetica,sans-Serif" font-size="10.00">denoptim.gui.GraphViewer</text>
<text text-anchor="middle" x="1221.5" y="-7.5" font-family="Helvetica,sans-Serif" font-size="10.00">Panel.cleanup</text>
</a>
</g>
</g>
<!-- Node32&#45;&gt;Node33 -->
<g id="edge36" class="edge">
<title>Node32&#45;&gt;Node33</title>
<path fill="none" stroke="midnightblue" d="M1046.59,-15.5C1077.28,-15.5 1114.2,-15.5 1146.12,-15.5"/>
<polygon fill="midnightblue" stroke="midnightblue" points="1146.29,-19 1156.29,-15.5 1146.29,-12 1146.29,-19"/>
</g>
<!-- Node34&#45;&gt;Node31 -->
<g id="edge38" class="edge">
<title>Node34&#45;&gt;Node31</title>
<path fill="none" stroke="midnightblue" d="M1048.8,-71.19C1075.01,-73.83 1105.5,-76.9 1133.45,-79.72"/>
<polygon fill="midnightblue" stroke="midnightblue" points="1133.32,-83.23 1143.62,-80.75 1134.03,-76.26 1133.32,-83.23"/>
</g>
</g>
</svg>
