<?xml version="1.0" encoding="UTF-8" standalone="no"?>
<!DOCTYPE svg PUBLIC "-//W3C//DTD SVG 1.1//EN"
 "http://www.w3.org/Graphics/SVG/1.1/DTD/svg11.dtd">
<!-- Generated by graphviz version 3.0.0 (20220413.0242)
 -->
<!-- Title: denoptim.graph.DGraph.removeSymmetryRedundantIds Pages: 1 -->
<svg width="861pt" height="235pt"
 viewBox="0.00 0.00 861.00 235.00" xmlns="http://www.w3.org/2000/svg" xmlns:xlink="http://www.w3.org/1999/xlink">
<g id="graph0" class="graph" transform="scale(1 1) rotate(0) translate(4 231)">
<title>denoptim.graph.DGraph.removeSymmetryRedundantIds</title>
<polygon fill="white" stroke="transparent" points="-4,4 -4,-231 857,-231 857,4 -4,4"/>
<!-- Node1 -->
<g id="node1" class="node">
<title>Node1</title>
<g id="a_node1"><a xlink:title="Remove all but one of the symmetry&#45;related partners in a given list of vertex IDs.">
<polygon fill="#bfbfbf" stroke="black" points="0,-144.5 0,-174.5 152,-174.5 152,-144.5 0,-144.5"/>
<text text-anchor="start" x="8" y="-162.5" font-family="Helvetica,sans-Serif" font-size="10.00">denoptim.graph.DGraph.remove</text>
<text text-anchor="middle" x="76" y="-151.5" font-family="Helvetica,sans-Serif" font-size="10.00">SymmetryRedundantIds</text>
</a>
</g>
</g>
<!-- Node2 -->
<g id="node2" class="node">
<title>Node2</title>
<g id="a_node2"><a xlink:href="classdenoptim_1_1graph_1_1_d_graph.html#af68c6f4772e3a77bbb4a63f98dc53d04" target="_top" xlink:title=" ">
<polygon fill="white" stroke="black" points="376,-196.5 376,-226.5 510,-226.5 510,-196.5 376,-196.5"/>
<text text-anchor="start" x="384" y="-214.5" font-family="Helvetica,sans-Serif" font-size="10.00">denoptim.graph.DGraph.get</text>
<text text-anchor="middle" x="443" y="-203.5" font-family="Helvetica,sans-Serif" font-size="10.00">VertexWithId</text>
</a>
</g>
</g>
<!-- Node1&#45;&gt;Node2 -->
<g id="edge1" class="edge">
<title>Node1&#45;&gt;Node2</title>
<path fill="none" stroke="midnightblue" d="M152.19,-170.21C214.56,-179.1 302.86,-191.68 365.57,-200.61"/>
<polygon fill="midnightblue" stroke="midnightblue" points="365.4,-204.12 375.8,-202.07 366.39,-197.19 365.4,-204.12"/>
</g>
<!-- Node5 -->
<g id="node5" class="node">
<title>Node5</title>
<g id="a_node5"><a xlink:href="classdenoptim_1_1graph_1_1_d_graph.html#a8e3e3bad36d425ffba874cf557b2d3d2" target="_top" xlink:title="Remove all but one of the symmetry&#45;related partners in a list of vertices.">
<polygon fill="white" stroke="black" points="188,-122.5 188,-152.5 340,-152.5 340,-122.5 188,-122.5"/>
<text text-anchor="start" x="196" y="-140.5" font-family="Helvetica,sans-Serif" font-size="10.00">denoptim.graph.DGraph.remove</text>
<text text-anchor="middle" x="264" y="-129.5" font-family="Helvetica,sans-Serif" font-size="10.00">SymmetryRedundance</text>
</a>
</g>
</g>
<!-- Node1&#45;&gt;Node5 -->
<g id="edge4" class="edge">
<title>Node1&#45;&gt;Node5</title>
<path fill="none" stroke="midnightblue" d="M152.12,-150.62C160.6,-149.61 169.28,-148.59 177.87,-147.57"/>
<polygon fill="midnightblue" stroke="midnightblue" points="178.39,-151.03 187.9,-146.38 177.56,-144.08 178.39,-151.03"/>
</g>
<!-- Node3 -->
<g id="node3" class="node">
<title>Node3</title>
<g id="a_node3"><a xlink:href="classdenoptim_1_1graph_1_1_d_graph.html#aff14a66b89e52205a4b6b6a633de0e7e" target="_top" xlink:title="Returns the position of the first vertex that has the given ID.">
<polygon fill="white" stroke="black" points="546,-196.5 546,-226.5 689,-226.5 689,-196.5 546,-196.5"/>
<text text-anchor="start" x="554" y="-214.5" font-family="Helvetica,sans-Serif" font-size="10.00">denoptim.graph.DGraph.index</text>
<text text-anchor="middle" x="617.5" y="-203.5" font-family="Helvetica,sans-Serif" font-size="10.00">OfVertexWithID</text>
</a>
</g>
</g>
<!-- Node2&#45;&gt;Node3 -->
<g id="edge2" class="edge">
<title>Node2&#45;&gt;Node3</title>
<path fill="none" stroke="midnightblue" d="M510.2,-211.5C518.6,-211.5 527.27,-211.5 535.86,-211.5"/>
<polygon fill="midnightblue" stroke="midnightblue" points="535.89,-215 545.89,-211.5 535.89,-208 535.89,-215"/>
</g>
<!-- Node4 -->
<g id="node4" class="node">
<title>Node4</title>
<g id="a_node4"><a xlink:href="classdenoptim_1_1graph_1_1_vertex.html#af44ae05546096ec9060d7207f38bc8e9" target="_top" xlink:title=" ">
<polygon fill="white" stroke="black" points="725,-196.5 725,-226.5 853,-226.5 853,-196.5 725,-196.5"/>
<text text-anchor="start" x="733" y="-214.5" font-family="Helvetica,sans-Serif" font-size="10.00">denoptim.graph.Vertex.get</text>
<text text-anchor="middle" x="789" y="-203.5" font-family="Helvetica,sans-Serif" font-size="10.00">VertexId</text>
</a>
</g>
</g>
<!-- Node3&#45;&gt;Node4 -->
<g id="edge3" class="edge">
<title>Node3&#45;&gt;Node4</title>
<path fill="none" stroke="midnightblue" d="M689.4,-211.5C697.79,-211.5 706.36,-211.5 714.77,-211.5"/>
<polygon fill="midnightblue" stroke="midnightblue" points="714.94,-215 724.94,-211.5 714.94,-208 714.94,-215"/>
</g>
<!-- Node5&#45;&gt;Node2 -->
<g id="edge9" class="edge">
<title>Node5&#45;&gt;Node2</title>
<path fill="none" stroke="midnightblue" d="M297.83,-152.55C319.82,-162.49 349.49,-175.64 376,-186.5 381.03,-188.56 386.3,-190.66 391.58,-192.72"/>
<polygon fill="midnightblue" stroke="midnightblue" points="390.44,-196.03 401.03,-196.37 392.96,-189.5 390.44,-196.03"/>
</g>
<!-- Node6 -->
<g id="node6" class="node">
<title>Node6</title>
<g id="a_node6"><a xlink:href="classdenoptim_1_1graph_1_1_symmetric_set.html#aca0357f0402f8d0d5191ed6b60826baf" target="_top" xlink:title="Adds an identifiers to this list.">
<polygon fill="white" stroke="black" points="377.5,-147.5 377.5,-177.5 508.5,-177.5 508.5,-147.5 377.5,-147.5"/>
<text text-anchor="start" x="385.5" y="-165.5" font-family="Helvetica,sans-Serif" font-size="10.00">denoptim.graph.Symmetric</text>
<text text-anchor="middle" x="443" y="-154.5" font-family="Helvetica,sans-Serif" font-size="10.00">Set.add</text>
</a>
</g>
</g>
<!-- Node5&#45;&gt;Node6 -->
<g id="edge5" class="edge">
<title>Node5&#45;&gt;Node6</title>
<path fill="none" stroke="midnightblue" d="M340.06,-148.1C349.1,-149.38 358.33,-150.68 367.36,-151.96"/>
<polygon fill="midnightblue" stroke="midnightblue" points="367.06,-155.45 377.45,-153.38 368.04,-148.52 367.06,-155.45"/>
</g>
<!-- Node7 -->
<g id="node7" class="node">
<title>Node7</title>
<g id="a_node7"><a xlink:href="classdenoptim_1_1graph_1_1_symmetric_set.html#a996e43fbd782c22c7846dc65d9cd78f1" target="_top" xlink:title="Checks whether the given identifiers is contained in this set.">
<polygon fill="white" stroke="black" points="377.5,-98.5 377.5,-128.5 508.5,-128.5 508.5,-98.5 377.5,-98.5"/>
<text text-anchor="start" x="385.5" y="-116.5" font-family="Helvetica,sans-Serif" font-size="10.00">denoptim.graph.Symmetric</text>
<text text-anchor="middle" x="443" y="-105.5" font-family="Helvetica,sans-Serif" font-size="10.00">Set.contains</text>
</a>
</g>
</g>
<!-- Node5&#45;&gt;Node7 -->
<g id="edge6" class="edge">
<title>Node5&#45;&gt;Node7</title>
<path fill="none" stroke="midnightblue" d="M340.06,-127.32C349.1,-126.1 358.33,-124.85 367.36,-123.62"/>
<polygon fill="midnightblue" stroke="midnightblue" points="368.01,-127.06 377.45,-122.25 367.07,-120.13 368.01,-127.06"/>
</g>
<!-- Node8 -->
<g id="node8" class="node">
<title>Node8</title>
<g id="a_node8"><a xlink:href="classdenoptim_1_1graph_1_1_symmetric_set.html#a6b6cfeafce2492c331902274f7508f21" target="_top" xlink:title="Return the list of symmetric identifiers.">
<polygon fill="white" stroke="black" points="377.5,-49.5 377.5,-79.5 508.5,-79.5 508.5,-49.5 377.5,-49.5"/>
<text text-anchor="start" x="385.5" y="-67.5" font-family="Helvetica,sans-Serif" font-size="10.00">denoptim.graph.Symmetric</text>
<text text-anchor="middle" x="443" y="-56.5" font-family="Helvetica,sans-Serif" font-size="10.00">Set.getList</text>
</a>
</g>
</g>
<!-- Node5&#45;&gt;Node8 -->
<g id="edge7" class="edge">
<title>Node5&#45;&gt;Node8</title>
<path fill="none" stroke="midnightblue" d="M297.78,-122.34C319.75,-112.35 349.42,-99.19 376,-88.5 380.43,-86.72 385.06,-84.92 389.71,-83.15"/>
<polygon fill="midnightblue" stroke="midnightblue" points="391.1,-86.36 399.24,-79.58 388.64,-79.81 391.1,-86.36"/>
</g>
<!-- Node9 -->
<g id="node9" class="node">
<title>Node9</title>
<g id="a_node9"><a xlink:href="classdenoptim_1_1graph_1_1_d_graph.html#a49bc7aa7c45f3aeaf6aff41095456c6e" target="_top" xlink:title="Get an iterator for the sets of symmetrically related vertices.">
<polygon fill="white" stroke="black" points="376,-0.5 376,-30.5 510,-30.5 510,-0.5 376,-0.5"/>
<text text-anchor="start" x="384" y="-18.5" font-family="Helvetica,sans-Serif" font-size="10.00">denoptim.graph.DGraph.get</text>
<text text-anchor="middle" x="443" y="-7.5" font-family="Helvetica,sans-Serif" font-size="10.00">SymSetsIterator</text>
</a>
</g>
</g>
<!-- Node5&#45;&gt;Node9 -->
<g id="edge8" class="edge">
<title>Node5&#45;&gt;Node9</title>
<path fill="none" stroke="midnightblue" d="M278.68,-122.26C298.36,-101.12 336.66,-62.87 376,-39.5 378.78,-37.85 381.69,-36.28 384.67,-34.8"/>
<polygon fill="midnightblue" stroke="midnightblue" points="386.17,-37.97 393.8,-30.61 383.25,-31.61 386.17,-37.97"/>
</g>
</g>
</svg>
