<?xml version="1.0" encoding="UTF-8" standalone="no"?>
<!DOCTYPE svg PUBLIC "-//W3C//DTD SVG 1.1//EN"
 "http://www.w3.org/Graphics/SVG/1.1/DTD/svg11.dtd">
<!-- Generated by graphviz version 3.0.0 (20220413.0242)
 -->
<!-- Title: denoptim.graph.CandidateLW.hasFitness Pages: 1 -->
<svg width="1350pt" height="229pt"
 viewBox="0.00 0.00 1350.00 228.50" xmlns="http://www.w3.org/2000/svg" xmlns:xlink="http://www.w3.org/1999/xlink">
<g id="graph0" class="graph" transform="scale(1 1) rotate(0) translate(4 224.5)">
<title>denoptim.graph.CandidateLW.hasFitness</title>
<polygon fill="white" stroke="transparent" points="-4,4 -4,-224.5 1346,-224.5 1346,4 -4,4"/>
<!-- Node1 -->
<g id="node1" class="node">
<title>Node1</title>
<g id="a_node1"><a xlink:title=" ">
<polygon fill="#bfbfbf" stroke="black" points="1214,-124 1214,-154 1342,-154 1342,-124 1214,-124"/>
<text text-anchor="start" x="1222" y="-142" font-family="Helvetica,sans-Serif" font-size="10.00">denoptim.graph.Candidate</text>
<text text-anchor="middle" x="1278" y="-131" font-family="Helvetica,sans-Serif" font-size="10.00">LW.hasFitness</text>
</a>
</g>
</g>
<!-- Node2 -->
<g id="node2" class="node">
<title>Node2</title>
<g id="a_node2"><a xlink:href="classdenoptim_1_1gui_1_1_g_u_i_inspect_g_a_run_1_1_plotted_candidates_comparator.html#a0de95b5cda9854d9abc421367cc345aa" target="_top" xlink:title=" ">
<polygon fill="white" stroke="black" points="992,-190 992,-220 1178,-220 1178,-190 992,-190"/>
<text text-anchor="start" x="1000" y="-208" font-family="Helvetica,sans-Serif" font-size="10.00">denoptim.gui.GUIInspectGARun.</text>
<text text-anchor="middle" x="1085" y="-197" font-family="Helvetica,sans-Serif" font-size="10.00">PlottedCandidatesComparator.compare</text>
</a>
</g>
</g>
<!-- Node1&#45;&gt;Node2 -->
<g id="edge1" class="edge">
<title>Node1&#45;&gt;Node2</title>
<path fill="none" stroke="midnightblue" d="M1227.13,-157.5C1211.45,-163.22 1194.04,-169.47 1178,-175 1163.55,-179.98 1147.74,-185.21 1133.38,-189.89"/>
<polygon fill="midnightblue" stroke="midnightblue" points="1228.46,-160.74 1236.65,-154.02 1226.05,-154.17 1228.46,-160.74"/>
</g>
<!-- Node3 -->
<g id="node3" class="node">
<title>Node3</title>
<g id="a_node3"><a xlink:href="classdenoptim_1_1gui_1_1_g_u_i_inspect_g_a_run.html#a9a5cf8d6ae31378ae37fcfb3031c567e" target="_top" xlink:title=" ">
<polygon fill="white" stroke="black" points="999.5,-102 999.5,-132 1170.5,-132 1170.5,-102 999.5,-102"/>
<text text-anchor="start" x="1007.5" y="-120" font-family="Helvetica,sans-Serif" font-size="10.00">denoptim.gui.GUIInspectGARun.get</text>
<text text-anchor="middle" x="1085" y="-109" font-family="Helvetica,sans-Serif" font-size="10.00">OverlappingItems</text>
</a>
</g>
</g>
<!-- Node1&#45;&gt;Node3 -->
<g id="edge2" class="edge">
<title>Node1&#45;&gt;Node3</title>
<path fill="none" stroke="midnightblue" d="M1203.74,-130.56C1192.97,-129.32 1181.8,-128.03 1170.81,-126.77"/>
<polygon fill="midnightblue" stroke="midnightblue" points="1203.6,-134.07 1213.93,-131.74 1204.4,-127.11 1203.6,-134.07"/>
</g>
<!-- Node4 -->
<g id="node4" class="node">
<title>Node4</title>
<g id="a_node4"><a xlink:href="classdenoptim_1_1gui_1_1_g_u_i_inspect_g_a_run.html#a9be67aaf7774f89c1fdafd56472360fd" target="_top" xlink:title=" ">
<polygon fill="white" stroke="black" points="769,-107 769,-137 954,-137 954,-107 769,-107"/>
<text text-anchor="start" x="777" y="-125" font-family="Helvetica,sans-Serif" font-size="10.00">denoptim.gui.GUIInspectGARun.import</text>
<text text-anchor="middle" x="861.5" y="-114" font-family="Helvetica,sans-Serif" font-size="10.00">GARunData</text>
</a>
</g>
</g>
<!-- Node1&#45;&gt;Node4 -->
<g id="edge15" class="edge">
<title>Node1&#45;&gt;Node4</title>
<path fill="none" stroke="midnightblue" d="M1203.76,-141.47C1195.08,-141.69 1186.34,-141.87 1178,-142 1095.34,-143.25 1074.42,-148.33 992,-142 977.6,-140.89 962.37,-139.11 947.62,-137.04"/>
<polygon fill="midnightblue" stroke="midnightblue" points="1203.99,-144.96 1213.9,-141.2 1203.81,-137.97 1203.99,-144.96"/>
</g>
<!-- Node12 -->
<g id="node12" class="node">
<title>Node12</title>
<g id="a_node12"><a xlink:href="classdenoptim_1_1gui_1_1_g_u_i_inspect_f_s_e_run.html#ad4dab9aade0d84507879d53780a88199" target="_top" xlink:title=" ">
<polygon fill="white" stroke="black" points="767,-58 767,-88 956,-88 956,-58 767,-58"/>
<text text-anchor="start" x="775" y="-76" font-family="Helvetica,sans-Serif" font-size="10.00">denoptim.gui.GUIInspectFSERun.import</text>
<text text-anchor="middle" x="861.5" y="-65" font-family="Helvetica,sans-Serif" font-size="10.00">FSERunData</text>
</a>
</g>
</g>
<!-- Node1&#45;&gt;Node12 -->
<g id="edge12" class="edge">
<title>Node1&#45;&gt;Node12</title>
<path fill="none" stroke="midnightblue" d="M1242.59,-119.15C1224.07,-109.47 1200.47,-98.72 1178,-93 1105,-74.43 1019.59,-70.02 956.06,-69.93"/>
<polygon fill="midnightblue" stroke="midnightblue" points="1241.05,-122.29 1251.51,-123.93 1244.35,-116.12 1241.05,-122.29"/>
</g>
<!-- Node3&#45;&gt;Node4 -->
<g id="edge3" class="edge">
<title>Node3&#45;&gt;Node4</title>
<path fill="none" stroke="midnightblue" d="M989.18,-119.14C977.57,-119.4 965.71,-119.67 954.15,-119.93"/>
<polygon fill="midnightblue" stroke="midnightblue" points="989.39,-122.64 999.31,-118.91 989.24,-115.64 989.39,-122.64"/>
</g>
<!-- Node5 -->
<g id="node5" class="node">
<title>Node5</title>
<g id="a_node5"><a xlink:href="classdenoptim_1_1gui_1_1_home_panel.html#a316e6bb38c2eb0edcead31424e3ed3fe" target="_top" xlink:title="Initialize the panel with figure and shortcuts and credit panels.">
<polygon fill="white" stroke="black" points="567,-112.5 567,-131.5 728,-131.5 728,-112.5 567,-112.5"/>
<text text-anchor="middle" x="647.5" y="-119.5" font-family="Helvetica,sans-Serif" font-size="10.00">denoptim.gui.HomePanel.initialize</text>
</a>
</g>
</g>
<!-- Node4&#45;&gt;Node5 -->
<g id="edge4" class="edge">
<title>Node4&#45;&gt;Node5</title>
<path fill="none" stroke="midnightblue" d="M758.55,-122C748.31,-122 738.03,-122 728.08,-122"/>
<polygon fill="midnightblue" stroke="midnightblue" points="758.75,-125.5 768.75,-122 758.75,-118.5 758.75,-125.5"/>
</g>
<!-- Node7 -->
<g id="node7" class="node">
<title>Node7</title>
<g id="a_node7"><a xlink:href="classdenoptim_1_1gui_1_1_main_tool_bar.html#a1a2e06a2647032587d42155302b8c0a6" target="_top" xlink:title="Process a file that has a recognized file format and loads a suitable GUI card to visualize the file ...">
<polygon fill="white" stroke="black" points="564,-63.5 564,-82.5 731,-82.5 731,-63.5 564,-63.5"/>
<text text-anchor="middle" x="647.5" y="-70.5" font-family="Helvetica,sans-Serif" font-size="10.00">denoptim.gui.MainToolBar.openFile</text>
</a>
</g>
</g>
<!-- Node4&#45;&gt;Node7 -->
<g id="edge6" class="edge">
<title>Node4&#45;&gt;Node7</title>
<path fill="none" stroke="midnightblue" d="M785.6,-104.69C753.37,-97.24 716.93,-88.82 689.72,-82.53"/>
<polygon fill="midnightblue" stroke="midnightblue" points="784.92,-108.12 795.45,-106.97 786.5,-101.3 784.92,-108.12"/>
</g>
<!-- Node6 -->
<g id="node6" class="node">
<title>Node6</title>
<g id="a_node6"><a xlink:href="classdenoptim_1_1gui_1_1_home_panel.html#a4d968e0669527cf2bc90d334a66b35ad" target="_top" xlink:title="Constructor.">
<polygon fill="white" stroke="black" points="371.5,-127 371.5,-157 524.5,-157 524.5,-127 371.5,-127"/>
<text text-anchor="start" x="379.5" y="-145" font-family="Helvetica,sans-Serif" font-size="10.00">denoptim.gui.HomePanel.Home</text>
<text text-anchor="middle" x="448" y="-134" font-family="Helvetica,sans-Serif" font-size="10.00">Panel</text>
</a>
</g>
</g>
<!-- Node5&#45;&gt;Node6 -->
<g id="edge5" class="edge">
<title>Node5&#45;&gt;Node6</title>
<path fill="none" stroke="midnightblue" d="M556.55,-131.11C545.86,-132.19 535.04,-133.29 524.58,-134.35"/>
<polygon fill="midnightblue" stroke="midnightblue" points="557.14,-134.57 566.74,-130.08 556.44,-127.6 557.14,-134.57"/>
</g>
<!-- Node8 -->
<g id="node8" class="node">
<title>Node8</title>
<g id="a_node8"><a xlink:href="classdenoptim_1_1gui_1_1_main_tool_bar.html#a0df9ca063352fbc50f9476f3b2820926" target="_top" xlink:title="Initialize the contents of the tool bar.">
<polygon fill="white" stroke="black" points="167,-66.5 167,-85.5 332,-85.5 332,-66.5 167,-66.5"/>
<text text-anchor="middle" x="249.5" y="-73.5" font-family="Helvetica,sans-Serif" font-size="10.00">denoptim.gui.MainToolBar.initialize</text>
</a>
</g>
</g>
<!-- Node7&#45;&gt;Node8 -->
<g id="edge7" class="edge">
<title>Node7&#45;&gt;Node8</title>
<path fill="none" stroke="midnightblue" d="M553.75,-77.29C545.05,-77.58 536.36,-77.82 528,-78 456.9,-79.5 439.11,-78.61 368,-78 356.37,-77.9 344.1,-77.75 332.04,-77.57"/>
<polygon fill="midnightblue" stroke="midnightblue" points="554.09,-80.78 563.96,-76.93 553.84,-73.78 554.09,-80.78"/>
</g>
<!-- Node10 -->
<g id="node10" class="node">
<title>Node10</title>
<g id="a_node10"><a xlink:href="classdenoptim_1_1gui_1_1_g_u_i.html#a460fa99497f04de06d2adf8671a92441" target="_top" xlink:title="Launch the application.">
<polygon fill="white" stroke="black" points="394.5,-0.5 394.5,-19.5 501.5,-19.5 501.5,-0.5 394.5,-0.5"/>
<text text-anchor="middle" x="448" y="-7.5" font-family="Helvetica,sans-Serif" font-size="10.00">denoptim.gui.GUI.run</text>
</a>
</g>
</g>
<!-- Node7&#45;&gt;Node10 -->
<g id="edge9" class="edge">
<title>Node7&#45;&gt;Node10</title>
<path fill="none" stroke="midnightblue" d="M613.66,-59.6C590.07,-50.27 557.39,-37.96 528,-29 516.67,-25.55 504.26,-22.31 492.71,-19.53"/>
<polygon fill="midnightblue" stroke="midnightblue" points="612.59,-62.94 623.18,-63.4 615.18,-56.44 612.59,-62.94"/>
</g>
<!-- Node11 -->
<g id="node11" class="node">
<title>Node11</title>
<g id="a_node11"><a xlink:href="classdenoptim_1_1gui_1_1_main_tool_bar.html#a94df24e485081c9b9d7441387f409e26" target="_top" xlink:title="Updated the the list of recent files in the &quot;open Recent&quot; menu.">
<polygon fill="white" stroke="black" points="368,-39 368,-69 528,-69 528,-39 368,-39"/>
<text text-anchor="start" x="376" y="-57" font-family="Helvetica,sans-Serif" font-size="10.00">denoptim.gui.MainToolBar.update</text>
<text text-anchor="middle" x="448" y="-46" font-family="Helvetica,sans-Serif" font-size="10.00">OpenRecentMenu</text>
</a>
</g>
</g>
<!-- Node7&#45;&gt;Node11 -->
<g id="edge10" class="edge">
<title>Node7&#45;&gt;Node11</title>
<path fill="none" stroke="midnightblue" d="M553.84,-64.09C545.24,-63.26 536.58,-62.43 528.12,-61.61"/>
<polygon fill="midnightblue" stroke="midnightblue" points="553.6,-67.58 563.89,-65.05 554.27,-60.61 553.6,-67.58"/>
</g>
<!-- Node9 -->
<g id="node9" class="node">
<title>Node9</title>
<g id="a_node9"><a xlink:href="classdenoptim_1_1gui_1_1_main_tool_bar.html#a36f4409849998e032342f49b19e6c5b5" target="_top" xlink:title="Constructor that build the tool bar.">
<polygon fill="white" stroke="black" points="0,-61 0,-91 131,-91 131,-61 0,-61"/>
<text text-anchor="start" x="8" y="-79" font-family="Helvetica,sans-Serif" font-size="10.00">denoptim.gui.MainToolBar.</text>
<text text-anchor="middle" x="65.5" y="-68" font-family="Helvetica,sans-Serif" font-size="10.00">MainToolBar</text>
</a>
</g>
</g>
<!-- Node8&#45;&gt;Node9 -->
<g id="edge8" class="edge">
<title>Node8&#45;&gt;Node9</title>
<path fill="none" stroke="midnightblue" d="M156.66,-76C147.99,-76 139.34,-76 131,-76"/>
<polygon fill="midnightblue" stroke="midnightblue" points="156.82,-79.5 166.82,-76 156.82,-72.5 156.82,-79.5"/>
</g>
<!-- Node11&#45;&gt;Node8 -->
<g id="edge11" class="edge">
<title>Node11&#45;&gt;Node8</title>
<path fill="none" stroke="midnightblue" d="M357.95,-63.97C349.41,-64.93 340.77,-65.89 332.3,-66.84"/>
<polygon fill="midnightblue" stroke="midnightblue" points="358.38,-67.44 367.93,-62.85 357.6,-60.49 358.38,-67.44"/>
</g>
<!-- Node12&#45;&gt;Node5 -->
<g id="edge13" class="edge">
<title>Node12&#45;&gt;Node5</title>
<path fill="none" stroke="midnightblue" d="M785.6,-90.31C753.37,-97.76 716.93,-106.18 689.72,-112.47"/>
<polygon fill="midnightblue" stroke="midnightblue" points="786.5,-93.7 795.45,-88.03 784.92,-86.88 786.5,-93.7"/>
</g>
<!-- Node12&#45;&gt;Node7 -->
<g id="edge14" class="edge">
<title>Node12&#45;&gt;Node7</title>
<path fill="none" stroke="midnightblue" d="M756.85,-73C748.26,-73 739.66,-73 731.27,-73"/>
<polygon fill="midnightblue" stroke="midnightblue" points="756.9,-76.5 766.9,-73 756.9,-69.5 756.9,-76.5"/>
</g>
</g>
</svg>
