<?xml version="1.0" encoding="UTF-8" standalone="no"?>
<!DOCTYPE svg PUBLIC "-//W3C//DTD SVG 1.1//EN"
 "http://www.w3.org/Graphics/SVG/1.1/DTD/svg11.dtd">
<!-- Generated by graphviz version 3.0.0 (20220413.0242)
 -->
<!-- Title: denoptim.graph.DGraph Pages: 1 -->
<!--zoomable 796 -->
<svg id="main" version="1.1" xmlns="http://www.w3.org/2000/svg" xmlns:xlink="http://www.w3.org/1999/xlink" xml:space="preserve" onload="init(evt)">
<style type="text/css"><![CDATA[
.edge:hover path { stroke: red; }
.edge:hover polygon { stroke: red; fill: red; }
]]></style>
<script type="text/javascript"><![CDATA[
var edges = document.getElementsByTagName('g');
if (edges && edges.length) {
  for (var i=0;i<edges.length;i++) {
    if (edges[i].id.substr(0,4)=='edge') {
      edges[i].setAttribute('class','edge');
    }
  }
}
]]></script>
        <defs>
                <circle id="rim" cx="0" cy="0" r="7"/>
                <circle id="rim2" cx="0" cy="0" r="3.5"/>
                <g id="zoomPlus">
                        <use xlink:href="#rim" fill="#404040">
                                <set attributeName="fill" to="#808080" begin="zoomplus.mouseover" end="zoomplus.mouseout"/>
                        </use>
                        <path d="M-4,0h8M0,-4v8" fill="none" stroke="white" stroke-width="1.5" pointer-events="none"/>
                </g>
                <g id="zoomMin">
                        <use xlink:href="#rim" fill="#404040">
                                <set attributeName="fill" to="#808080" begin="zoomminus.mouseover" end="zoomminus.mouseout"/>
                        </use>
                        <path d="M-4,0h8" fill="none" stroke="white" stroke-width="1.5" pointer-events="none"/>
                </g>
                <g id="dirArrow">
                        <path fill="none" stroke="white" stroke-width="1.5" d="M0,-3.0v7 M-2.5,-0.5L0,-3.0L2.5,-0.5"/>
                </g>
               <g id="resetDef">
                       <use xlink:href="#rim2" fill="#404040">
                               <set attributeName="fill" to="#808080" begin="reset.mouseover" end="reset.mouseout"/>
                       </use>
               </g>
        </defs>

<script type="text/javascript">
var viewWidth = 1404;
var viewHeight = 796;
var sectionId = 'dynsection-1';
</script>
<script xlink:href="svgpan.js"/>
<svg id="graph" class="graph">
<g id="viewport">
<title>denoptim.graph.DGraph</title>
<polygon fill="white" stroke="transparent" points="-4,4 -4,-792.05 1400,-792.05 1400,4 -4,4"/>
<!-- Node1 -->
<g id="node1" class="node">
<title>Node1</title>
<g id="a_node1"><a xlink:title="Container for the list of vertices and the edges that connect them.">
<polygon fill="#bfbfbf" stroke="black" points="1278,-550.5 1278,-569.5 1396,-569.5 1396,-550.5 1278,-550.5"/>
<text text-anchor="middle" x="1337" y="-557.5" font-family="Helvetica,sans-Serif" font-size="10.00">denoptim.graph.DGraph</text>
</a>
</g>
</g>
<!-- Node2 -->
<g id="node2" class="node">
<title>Node2</title>
<g id="a_node2"><a xlink:title=" ">
<polygon fill="white" stroke="black" points="34.5,-341.5 34.5,-360.5 93.5,-360.5 93.5,-341.5 34.5,-341.5"/>
<text text-anchor="middle" x="64" y="-348.5" font-family="Helvetica,sans-Serif" font-size="10.00">Cloneable</text>
</a>
</g>
</g>
<!-- Node2&#45;&gt;Node1 -->
<g id="edge1" class="edge">
<title>Node2&#45;&gt;Node1</title>
<path fill="none" stroke="midnightblue" d="M64.47,-370.6C63.83,-435.4 70.68,-645 180,-759 208.65,-788.88 227.11,-788 268.5,-788 268.5,-788 268.5,-788 1110.5,-788 1184.44,-788 1208.86,-768.41 1260,-715 1303.11,-669.97 1326.34,-595.79 1333.53,-569.56"/>
<polygon fill="midnightblue" stroke="midnightblue" points="67.97,-370.61 64.65,-360.55 60.98,-370.49 67.97,-370.61"/>
</g>
<!-- Node8 -->
<g id="node8" class="node">
<title>Node8</title>
<g id="a_node8"><a xlink:href="classdenoptim_1_1graph_1_1_candidate.html" target="_top" xlink:title="A candidate is the combination of a denoptim graph with molecular representation and may include also...">
<polygon fill="white" stroke="black" points="205.5,-69.5 205.5,-88.5 333.5,-88.5 333.5,-69.5 205.5,-69.5"/>
<text text-anchor="middle" x="269.5" y="-76.5" font-family="Helvetica,sans-Serif" font-size="10.00">denoptim.graph.Candidate</text>
</a>
</g>
</g>
<!-- Node2&#45;&gt;Node8 -->
<g id="edge9" class="edge">
<title>Node2&#45;&gt;Node8</title>
<path fill="none" stroke="midnightblue" d="M72.64,-331.67C88.48,-293.26 127.79,-205.89 180,-146 201.27,-121.6 232.74,-100.37 251.86,-88.66"/>
<polygon fill="midnightblue" stroke="midnightblue" points="69.32,-330.55 68.81,-341.14 75.81,-333.18 69.32,-330.55"/>
</g>
<!-- Node10 -->
<g id="node10" class="node">
<title>Node10</title>
<g id="a_node10"><a xlink:href="classdenoptim_1_1graph_1_1_d_graph.html" target="_top" xlink:title="Container for the list of vertices and the edges that connect them.">
<polygon fill="white" stroke="black" points="487,-481.5 487,-500.5 605,-500.5 605,-481.5 487,-481.5"/>
<text text-anchor="middle" x="546" y="-488.5" font-family="Helvetica,sans-Serif" font-size="10.00">denoptim.graph.DGraph</text>
</a>
</g>
</g>
<!-- Node2&#45;&gt;Node10 -->
<g id="edge11" class="edge">
<title>Node2&#45;&gt;Node10</title>
<path fill="none" stroke="midnightblue" d="M103.63,-359.84C187.75,-379.42 384.84,-427.13 446,-458 455.05,-462.57 454.86,-467.63 464,-472 472.08,-475.86 481,-478.97 489.87,-481.45"/>
<polygon fill="midnightblue" stroke="midnightblue" points="104.24,-356.39 93.71,-357.54 102.66,-363.21 104.24,-356.39"/>
</g>
<!-- Node12 -->
<g id="node12" class="node">
<title>Node12</title>
<g id="a_node12"><a xlink:href="classdenoptim_1_1graph_1_1_vertex.html" target="_top" xlink:title="A vertex is a data structure that has an identity and holds a list of AttachmentPoints.">
<polygon fill="white" stroke="black" points="796.5,-299.5 796.5,-318.5 909.5,-318.5 909.5,-299.5 796.5,-299.5"/>
<text text-anchor="middle" x="853" y="-306.5" font-family="Helvetica,sans-Serif" font-size="10.00">denoptim.graph.Vertex</text>
</a>
</g>
</g>
<!-- Node2&#45;&gt;Node12 -->
<g id="edge20" class="edge">
<title>Node2&#45;&gt;Node12</title>
<path fill="none" stroke="midnightblue" d="M103.52,-342.19C125.82,-337.2 154.44,-330.98 180,-326 267.21,-309 288.47,-299.58 377,-292 407.55,-289.38 415.34,-291.58 446,-292 526.91,-293.11 547.15,-293.72 628,-297 685.4,-299.33 751.01,-302.95 796.33,-305.61"/>
<polygon fill="midnightblue" stroke="midnightblue" points="102.75,-338.78 93.76,-344.39 104.28,-345.61 102.75,-338.78"/>
</g>
<!-- Node3 -->
<g id="node3" class="node">
<title>Node3</title>
<g id="a_node3"><a xlink:title=" ">
<polygon fill="white" stroke="black" points="203.5,-469 203.5,-499 335.5,-499 335.5,-469 203.5,-469"/>
<text text-anchor="start" x="211.5" y="-487" font-family="Helvetica,sans-Serif" font-size="10.00">ArrayList&lt; denoptim.graph.</text>
<text text-anchor="middle" x="269.5" y="-476" font-family="Helvetica,sans-Serif" font-size="10.00">Vertex &gt;</text>
</a>
</g>
</g>
<!-- Node3&#45;&gt;Node1 -->
<g id="edge2" class="edge">
<title>Node3&#45;&gt;Node1</title>
<path fill="none" stroke="#9a32cd" stroke-dasharray="5,2" d="M331.34,-501.63C346.16,-505.32 362.06,-508.76 377,-511 383.07,-511.91 1253.87,-554.65 1260,-555 1265.81,-555.34 1271.87,-555.7 1277.91,-556.08"/>
<polygon fill="#9a32cd" stroke="#9a32cd" points="331.83,-498.15 321.27,-499.06 330.09,-504.93 331.83,-498.15"/>
<text text-anchor="middle" x="853" y="-541" font-family="Helvetica,sans-Serif" font-size="10.00"> gVertices</text>
</g>
<!-- Node3&#45;&gt;Node10 -->
<g id="edge12" class="edge">
<title>Node3&#45;&gt;Node10</title>
<path fill="none" stroke="#9a32cd" stroke-dasharray="5,2" d="M345.67,-467.63C376.82,-463.09 413.26,-460.69 446,-466 454.32,-467.35 455.89,-469.7 464,-472 475.95,-475.39 489.01,-478.64 501.09,-481.47"/>
<polygon fill="#9a32cd" stroke="#9a32cd" points="345.09,-464.18 335.75,-469.17 346.17,-471.09 345.09,-464.18"/>
<text text-anchor="middle" x="411.5" y="-469" font-family="Helvetica,sans-Serif" font-size="10.00"> gVertices</text>
</g>
<!-- Node4 -->
<g id="node4" class="node">
<title>Node4</title>
<g id="a_node4"><a xlink:title=" ">
<polygon fill="white" stroke="black" points="203.5,-628 203.5,-658 335.5,-658 335.5,-628 203.5,-628"/>
<text text-anchor="start" x="211.5" y="-646" font-family="Helvetica,sans-Serif" font-size="10.00">ArrayList&lt; denoptim.graph.</text>
<text text-anchor="middle" x="269.5" y="-635" font-family="Helvetica,sans-Serif" font-size="10.00">Edge &gt;</text>
</a>
</g>
</g>
<!-- Node4&#45;&gt;Node1 -->
<g id="edge3" class="edge">
<title>Node4&#45;&gt;Node1</title>
<path fill="none" stroke="#9a32cd" stroke-dasharray="5,2" d="M317.46,-661.64C335.79,-668.29 357.14,-675.3 377,-680 450.28,-697.34 469.7,-702 545,-702 545,-702 545,-702 1110.5,-702 1209.97,-702 1301.41,-601.84 1328.15,-569.76"/>
<polygon fill="#9a32cd" stroke="#9a32cd" points="318.49,-658.28 307.9,-658.1 316.06,-664.85 318.49,-658.28"/>
<text text-anchor="middle" x="853" y="-705" font-family="Helvetica,sans-Serif" font-size="10.00"> gEdges</text>
</g>
<!-- Node4&#45;&gt;Node10 -->
<g id="edge13" class="edge">
<title>Node4&#45;&gt;Node10</title>
<path fill="none" stroke="#9a32cd" stroke-dasharray="5,2" d="M328.4,-624.52C338.67,-620.91 349.21,-617 359,-613 398.74,-596.74 409.73,-593.98 446,-571 480.72,-549 517.25,-516.74 534.63,-500.74"/>
<polygon fill="#9a32cd" stroke="#9a32cd" points="326.98,-621.3 318.66,-627.87 329.26,-627.92 326.98,-621.3"/>
<text text-anchor="middle" x="411.5" y="-608" font-family="Helvetica,sans-Serif" font-size="10.00"> gEdges</text>
</g>
<!-- Node5 -->
<g id="node5" class="node">
<title>Node5</title>
<g id="a_node5"><a xlink:title=" ">
<polygon fill="white" stroke="black" points="203.5,-522 203.5,-552 335.5,-552 335.5,-522 203.5,-522"/>
<text text-anchor="start" x="211.5" y="-540" font-family="Helvetica,sans-Serif" font-size="10.00">ArrayList&lt; denoptim.graph.</text>
<text text-anchor="middle" x="269.5" y="-529" font-family="Helvetica,sans-Serif" font-size="10.00">Ring &gt;</text>
</a>
</g>
</g>
<!-- Node5&#45;&gt;Node1 -->
<g id="edge4" class="edge">
<title>Node5&#45;&gt;Node1</title>
<path fill="none" stroke="#9a32cd" stroke-dasharray="5,2" d="M346.21,-541.54C381.92,-543.52 425.14,-545.68 464,-547 770.42,-557.39 1137.69,-559.48 1277.81,-559.9"/>
<polygon fill="#9a32cd" stroke="#9a32cd" points="346.04,-538.02 335.86,-540.96 345.65,-545.01 346.04,-538.02"/>
<text text-anchor="middle" x="853" y="-560" font-family="Helvetica,sans-Serif" font-size="10.00"> gRings</text>
</g>
<!-- Node5&#45;&gt;Node10 -->
<g id="edge14" class="edge">
<title>Node5&#45;&gt;Node10</title>
<path fill="none" stroke="#9a32cd" stroke-dasharray="5,2" d="M345.53,-524.43C390.43,-516.9 446.58,-507.49 487.86,-500.57"/>
<polygon fill="#9a32cd" stroke="#9a32cd" points="344.84,-520.99 335.55,-526.1 345.99,-527.9 344.84,-520.99"/>
<text text-anchor="middle" x="411.5" y="-521" font-family="Helvetica,sans-Serif" font-size="10.00"> gRings</text>
</g>
<!-- Node6 -->
<g id="node6" class="node">
<title>Node6</title>
<g id="a_node6"><a xlink:title=" ">
<polygon fill="white" stroke="black" points="192,-335 192,-365 347,-365 347,-335 192,-335"/>
<text text-anchor="start" x="200" y="-353" font-family="Helvetica,sans-Serif" font-size="10.00">ArrayList&lt; denoptim.graph.rings.</text>
<text text-anchor="middle" x="269.5" y="-342" font-family="Helvetica,sans-Serif" font-size="10.00">ClosableChain &gt;</text>
</a>
</g>
</g>
<!-- Node6&#45;&gt;Node1 -->
<g id="edge5" class="edge">
<title>Node6&#45;&gt;Node1</title>
<path fill="none" stroke="#9a32cd" stroke-dasharray="5,2" d="M287.72,-326.85C318.17,-288.12 385.73,-211.61 464,-183 585.48,-138.59 626.87,-162.35 755,-180 953.6,-207.36 1009.52,-234.56 1172,-352 1216.57,-384.22 1225.59,-396.1 1260,-439 1290.89,-477.51 1319.68,-529.27 1330.97,-550.4"/>
<polygon fill="#9a32cd" stroke="#9a32cd" points="284.8,-324.9 281.46,-334.95 290.34,-329.18 284.8,-324.9"/>
<text text-anchor="middle" x="853" y="-218" font-family="Helvetica,sans-Serif" font-size="10.00"> closableChains</text>
</g>
<!-- Node6&#45;&gt;Node10 -->
<g id="edge15" class="edge">
<title>Node6&#45;&gt;Node10</title>
<path fill="none" stroke="#9a32cd" stroke-dasharray="5,2" d="M357.41,-355.55C389.13,-361.84 422.86,-374.19 446,-398 469.59,-422.27 439.97,-448.16 464,-472 470.36,-478.31 478.39,-482.67 486.91,-485.67"/>
<polygon fill="#9a32cd" stroke="#9a32cd" points="357.66,-352.04 347.19,-353.72 356.42,-358.93 357.66,-352.04"/>
<text text-anchor="middle" x="411.5" y="-401" font-family="Helvetica,sans-Serif" font-size="10.00"> closableChains</text>
</g>
<!-- Node7 -->
<g id="node7" class="node">
<title>Node7</title>
<g id="a_node7"><a xlink:title=" ">
<polygon fill="white" stroke="black" points="203.5,-573 203.5,-603 335.5,-603 335.5,-573 203.5,-573"/>
<text text-anchor="start" x="211.5" y="-591" font-family="Helvetica,sans-Serif" font-size="10.00">ArrayList&lt; denoptim.graph.</text>
<text text-anchor="middle" x="269.5" y="-580" font-family="Helvetica,sans-Serif" font-size="10.00">SymmetricSet &gt;</text>
</a>
</g>
</g>
<!-- Node7&#45;&gt;Node1 -->
<g id="edge6" class="edge">
<title>Node7&#45;&gt;Node1</title>
<path fill="none" stroke="#9a32cd" stroke-dasharray="5,2" d="M343.66,-607.71C349.22,-610.92 354.43,-614.66 359,-619 374.32,-633.55 359.46,-651.22 377,-663 402.46,-680.09 415.38,-664.69 446,-663 809.43,-642.97 899.57,-623.71 1260,-573 1267.29,-571.97 1274.96,-570.79 1282.5,-569.56"/>
<polygon fill="#9a32cd" stroke="#9a32cd" points="345.18,-604.55 334.69,-603.07 341.97,-610.77 345.18,-604.55"/>
<text text-anchor="middle" x="853" y="-641" font-family="Helvetica,sans-Serif" font-size="10.00"> symVertices</text>
</g>
<!-- Node7&#45;&gt;Node10 -->
<g id="edge16" class="edge">
<title>Node7&#45;&gt;Node10</title>
<path fill="none" stroke="#9a32cd" stroke-dasharray="5,2" d="M332.85,-569.99C341.65,-567.36 350.56,-564.64 359,-562 397.89,-549.81 407.88,-547.41 446,-533 473.24,-522.7 504.05,-509.36 523.95,-500.5"/>
<polygon fill="#9a32cd" stroke="#9a32cd" points="331.6,-566.71 323.01,-572.91 333.59,-573.42 331.6,-566.71"/>
<text text-anchor="middle" x="411.5" y="-559" font-family="Helvetica,sans-Serif" font-size="10.00"> symVertices</text>
</g>
<!-- Node8&#45;&gt;Node1 -->
<g id="edge7" class="edge">
<title>Node8&#45;&gt;Node1</title>
<path fill="none" stroke="#9a32cd" stroke-dasharray="5,2" d="M329.87,-67.7C385.3,-58.15 470.44,-46 545,-46 545,-46 545,-46 1110.5,-46 1339.5,-46 1338.09,-479.13 1336.32,-550.19"/>
<polygon fill="#9a32cd" stroke="#9a32cd" points="329.12,-64.28 319.87,-69.46 330.33,-71.18 329.12,-64.28"/>
<text text-anchor="middle" x="853" y="-49" font-family="Helvetica,sans-Serif" font-size="10.00"> candidate</text>
</g>
<!-- Node8&#45;&gt;Node10 -->
<g id="edge17" class="edge">
<title>Node8&#45;&gt;Node10</title>
<path fill="none" stroke="#9a32cd" stroke-dasharray="5,2" d="M296.8,-93.67C337.88,-118.29 415.69,-172.26 446,-243 466.1,-289.92 430.75,-433.27 464,-472 470.02,-479.01 478.09,-483.71 486.82,-486.8"/>
<polygon fill="#9a32cd" stroke="#9a32cd" points="298.55,-90.63 288.15,-88.59 295,-96.67 298.55,-90.63"/>
<text text-anchor="middle" x="411.5" y="-246" font-family="Helvetica,sans-Serif" font-size="10.00"> candidate</text>
</g>
<!-- Node9 -->
<g id="node9" class="node">
<title>Node9</title>
<g id="a_node9"><a xlink:title=" ">
<polygon fill="white" stroke="black" points="0,-69.5 0,-88.5 128,-88.5 128,-69.5 0,-69.5"/>
<text text-anchor="middle" x="64" y="-76.5" font-family="Helvetica,sans-Serif" font-size="10.00">Comparable&lt; Candidate &gt;</text>
</a>
</g>
</g>
<!-- Node9&#45;&gt;Node8 -->
<g id="edge8" class="edge">
<title>Node9&#45;&gt;Node8</title>
<path fill="none" stroke="midnightblue" d="M138.5,-79C160.36,-79 184.12,-79 205.27,-79"/>
<polygon fill="midnightblue" stroke="midnightblue" points="138.27,-75.5 128.27,-79 138.27,-82.5 138.27,-75.5"/>
</g>
<!-- Node10&#45;&gt;Node8 -->
<g id="edge10" class="edge">
<title>Node10&#45;&gt;Node8</title>
<path fill="none" stroke="#9a32cd" stroke-dasharray="5,2" d="M477.2,-482.74C472.21,-479.96 467.69,-476.44 464,-472 436.14,-438.46 477.44,-110.21 446,-80 430.29,-64.91 377.37,-66.36 333.71,-70.59"/>
<polygon fill="#9a32cd" stroke="#9a32cd" points="476.07,-486.07 486.62,-486.97 478.93,-479.68 476.07,-486.07"/>
<text text-anchor="middle" x="411.5" y="-83" font-family="Helvetica,sans-Serif" font-size="10.00"> graph</text>
</g>
<!-- Node11 -->
<g id="node11" class="node">
<title>Node11</title>
<g id="a_node11"><a xlink:href="classdenoptim_1_1graph_1_1_template.html" target="_top" xlink:title=" ">
<polygon fill="white" stroke="black" points="1047,-361.5 1047,-380.5 1172,-380.5 1172,-361.5 1047,-361.5"/>
<text text-anchor="middle" x="1109.5" y="-368.5" font-family="Helvetica,sans-Serif" font-size="10.00">denoptim.graph.Template</text>
</a>
</g>
</g>
<!-- Node10&#45;&gt;Node11 -->
<g id="edge27" class="edge">
<title>Node10&#45;&gt;Node11</title>
<path fill="none" stroke="#9a32cd" stroke-dasharray="5,2" d="M614.97,-480.53C708.86,-465.43 883.16,-435.13 1029,-397 1046.84,-392.33 1066.55,-385.9 1081.88,-380.6"/>
<polygon fill="#9a32cd" stroke="#9a32cd" points="614.35,-477.08 605.03,-482.12 615.46,-483.99 614.35,-477.08"/>
<text text-anchor="middle" x="853" y="-455" font-family="Helvetica,sans-Serif" font-size="10.00"> innerGraph</text>
</g>
<!-- Node10&#45;&gt;Node12 -->
<g id="edge21" class="edge">
<title>Node10&#45;&gt;Node12</title>
<path fill="none" stroke="#9a32cd" stroke-dasharray="5,2" d="M614.7,-479.82C619.42,-477.65 623.92,-475.07 628,-472 641.05,-462.2 633.83,-450.87 646,-440 685.22,-404.98 720.37,-433.57 755,-394 775.02,-371.12 751.18,-349.17 773,-328 779.48,-321.71 787.66,-317.38 796.28,-314.42"/>
<polygon fill="#9a32cd" stroke="#9a32cd" points="613.39,-476.57 605.39,-483.52 615.98,-483.08 613.39,-476.57"/>
<text text-anchor="middle" x="700.5" y="-443" font-family="Helvetica,sans-Serif" font-size="10.00"> owner</text>
</g>
<!-- Node11&#45;&gt;Node1 -->
<g id="edge36" class="edge">
<title>Node11&#45;&gt;Node1</title>
<path fill="none" stroke="#9a32cd" stroke-dasharray="5,2" d="M1129.93,-387.29C1175.52,-425.5 1288.22,-519.96 1324.53,-550.39"/>
<polygon fill="#9a32cd" stroke="#9a32cd" points="1131.9,-384.37 1121.99,-380.63 1127.41,-389.74 1131.9,-384.37"/>
<text text-anchor="middle" x="1225" y="-496" font-family="Helvetica,sans-Serif" font-size="10.00"> templateJacket</text>
</g>
<!-- Node11&#45;&gt;Node10 -->
<g id="edge18" class="edge">
<title>Node11&#45;&gt;Node10</title>
<path fill="none" stroke="#9a32cd" stroke-dasharray="5,2" d="M1097.57,-389.45C1084.26,-410 1059.7,-442.26 1029,-457 955.64,-492.21 716.66,-493.58 605.21,-492.18"/>
<polygon fill="#9a32cd" stroke="#9a32cd" points="1100.71,-391.02 1103.03,-380.69 1094.77,-387.32 1100.71,-391.02"/>
<text text-anchor="middle" x="853" y="-493" font-family="Helvetica,sans-Serif" font-size="10.00"> templateJacket</text>
</g>
<!-- Node12&#45;&gt;Node11 -->
<g id="edge19" class="edge">
<title>Node12&#45;&gt;Node11</title>
<path fill="none" stroke="midnightblue" d="M906.11,-320.81C940.96,-328.8 987.8,-339.73 1029,-350 1043.54,-353.62 1059.53,-357.81 1073.33,-361.48"/>
<polygon fill="midnightblue" stroke="midnightblue" points="906.69,-317.35 896.16,-318.53 905.13,-324.17 906.69,-317.35"/>
</g>
<!-- Node13 -->
<g id="node13" class="node">
<title>Node13</title>
<g id="a_node13"><a xlink:href="enumdenoptim_1_1graph_1_1_vertex_1_1_b_b_type.html" target="_top" xlink:title="The type of building block.">
<polygon fill="white" stroke="black" points="471.5,-306.5 471.5,-325.5 620.5,-325.5 620.5,-306.5 471.5,-306.5"/>
<text text-anchor="middle" x="546" y="-313.5" font-family="Helvetica,sans-Serif" font-size="10.00">denoptim.graph.Vertex.BBType</text>
</a>
</g>
</g>
<!-- Node13&#45;&gt;Node12 -->
<g id="edge22" class="edge">
<title>Node13&#45;&gt;Node12</title>
<path fill="none" stroke="#9a32cd" stroke-dasharray="5,2" d="M630.58,-313.4C635.8,-313.26 640.97,-313.12 646,-313 696.96,-311.73 755.01,-310.64 796.48,-309.91"/>
<polygon fill="#9a32cd" stroke="#9a32cd" points="630.42,-309.91 620.52,-313.68 630.62,-316.9 630.42,-309.91"/>
<text text-anchor="middle" x="700.5" y="-316" font-family="Helvetica,sans-Serif" font-size="10.00"> buildingBlockType</text>
</g>
<!-- Node14 -->
<g id="node14" class="node">
<title>Node14</title>
<g id="a_node14"><a xlink:title=" ">
<polygon fill="white" stroke="black" points="489,-230.5 489,-249.5 603,-249.5 603,-230.5 489,-230.5"/>
<text text-anchor="middle" x="546" y="-237.5" font-family="Helvetica,sans-Serif" font-size="10.00">Map&lt; Object, Object &gt;</text>
</a>
</g>
</g>
<!-- Node14&#45;&gt;Node12 -->
<g id="edge23" class="edge">
<title>Node14&#45;&gt;Node12</title>
<path fill="none" stroke="#9a32cd" stroke-dasharray="5,2" d="M603.09,-229.07C647.96,-223.51 710.52,-223.2 755,-253 770.19,-263.18 758.75,-278.54 773,-290 779.82,-295.48 787.97,-299.42 796.4,-302.24"/>
<polygon fill="#9a32cd" stroke="#9a32cd" points="602.38,-225.64 592.95,-230.46 603.33,-232.57 602.38,-225.64"/>
<text text-anchor="middle" x="700.5" y="-256" font-family="Helvetica,sans-Serif" font-size="10.00"> properties</text>
</g>
<!-- Node15 -->
<g id="node15" class="node">
<title>Node15</title>
<g id="a_node15"><a xlink:title=" ">
<polygon fill="white" stroke="black" points="509,-192.5 509,-211.5 583,-211.5 583,-192.5 509,-192.5"/>
<text text-anchor="middle" x="546" y="-199.5" font-family="Helvetica,sans-Serif" font-size="10.00">Set&lt; String &gt;</text>
</a>
</g>
</g>
<!-- Node15&#45;&gt;Node12 -->
<g id="edge24" class="edge">
<title>Node15&#45;&gt;Node12</title>
<path fill="none" stroke="#9a32cd" stroke-dasharray="5,2" d="M589.78,-190.13C636.01,-180.11 709.19,-172.8 755,-211 782.66,-234.06 747.69,-264.38 773,-290 779.44,-296.52 787.71,-300.96 796.45,-303.94"/>
<polygon fill="#9a32cd" stroke="#9a32cd" points="588.74,-186.78 579.78,-192.43 590.31,-193.6 588.74,-186.78"/>
<text text-anchor="middle" x="700.5" y="-214" font-family="Helvetica,sans-Serif" font-size="10.00"> uniquefyingPropertyKeys</text>
</g>
<!-- Node16 -->
<g id="node16" class="node">
<title>Node16</title>
<g id="a_node16"><a xlink:title=" ">
<polygon fill="white" stroke="black" points="475.5,-383 475.5,-413 616.5,-413 616.5,-383 475.5,-383"/>
<text text-anchor="start" x="483.5" y="-401" font-family="Helvetica,sans-Serif" font-size="10.00">List&lt; denoptim.utils.Mutation</text>
<text text-anchor="middle" x="546" y="-390" font-family="Helvetica,sans-Serif" font-size="10.00">Type &gt;</text>
</a>
</g>
</g>
<!-- Node16&#45;&gt;Node12 -->
<g id="edge25" class="edge">
<title>Node16&#45;&gt;Node12</title>
<path fill="none" stroke="#9a32cd" stroke-dasharray="5,2" d="M626.54,-384.09C680.52,-374.15 744.02,-361.3 755,-354 766.7,-346.22 761.41,-335.94 773,-328 779.98,-323.22 788.03,-319.63 796.26,-316.95"/>
<polygon fill="#9a32cd" stroke="#9a32cd" points="625.79,-380.67 616.59,-385.91 627.05,-387.56 625.79,-380.67"/>
<text text-anchor="middle" x="700.5" y="-382" font-family="Helvetica,sans-Serif" font-size="10.00"> allowedMutationTypes</text>
</g>
<!-- Node17 -->
<g id="node17" class="node">
<title>Node17</title>
<g id="a_node17"><a xlink:href="enumdenoptim_1_1graph_1_1_vertex_1_1_vertex_type.html" target="_top" xlink:title="Flag declaring the type of Vertex implementation.">
<polygon fill="white" stroke="black" points="464,-344.5 464,-363.5 628,-363.5 628,-344.5 464,-344.5"/>
<text text-anchor="middle" x="546" y="-351.5" font-family="Helvetica,sans-Serif" font-size="10.00">denoptim.graph.Vertex.VertexType</text>
</a>
</g>
</g>
<!-- Node17&#45;&gt;Node12 -->
<g id="edge26" class="edge">
<title>Node17&#45;&gt;Node12</title>
<path fill="none" stroke="#9a32cd" stroke-dasharray="5,2" d="M624.73,-342.98C663.83,-337.39 711.94,-330.43 755,-324 768.4,-322 782.83,-319.79 796.36,-317.7"/>
<polygon fill="#9a32cd" stroke="#9a32cd" points="623.88,-339.57 614.47,-344.45 624.87,-346.5 623.88,-339.57"/>
<text text-anchor="middle" x="700.5" y="-342" font-family="Helvetica,sans-Serif" font-size="10.00"> vertexType</text>
</g>
<!-- Node18 -->
<g id="node18" class="node">
<title>Node18</title>
<g id="a_node18"><a xlink:title=" ">
<polygon fill="white" stroke="black" points="22,-11.5 22,-30.5 106,-30.5 106,-11.5 22,-11.5"/>
<text text-anchor="middle" x="64" y="-18.5" font-family="Helvetica,sans-Serif" font-size="10.00">IAtomContainer</text>
</a>
</g>
</g>
<!-- Node18&#45;&gt;Node8 -->
<g id="edge35" class="edge">
<title>Node18&#45;&gt;Node8</title>
<path fill="none" stroke="#9a32cd" stroke-dasharray="5,2" d="M108.32,-33.35C146.13,-44.12 200.22,-59.54 234.85,-69.41"/>
<polygon fill="#9a32cd" stroke="#9a32cd" points="109.18,-29.95 98.6,-30.58 107.26,-36.68 109.18,-29.95"/>
<text text-anchor="middle" x="154" y="-52" font-family="Helvetica,sans-Serif" font-size="10.00"> iac</text>
</g>
<!-- Node18&#45;&gt;Node11 -->
<g id="edge28" class="edge">
<title>Node18&#45;&gt;Node11</title>
<path fill="none" stroke="#9a32cd" stroke-dasharray="5,2" d="M116.22,-12.77C157.28,-6.88 216.44,0 268.5,0 268.5,0 268.5,0 854,0 1034.82,0 1096.73,-303.39 1106.92,-361.46"/>
<polygon fill="#9a32cd" stroke="#9a32cd" points="115.57,-9.33 106.19,-14.24 116.59,-16.25 115.57,-9.33"/>
<text text-anchor="middle" x="546" y="-3" font-family="Helvetica,sans-Serif" font-size="10.00"> mol</text>
</g>
<!-- Node19 -->
<g id="node19" class="node">
<title>Node19</title>
<g id="a_node19"><a xlink:href="enumdenoptim_1_1graph_1_1_template_1_1_contract_level.html" target="_top" xlink:title="Enum specifying to what extent the template&#39;s inner graph can be changed.">
<polygon fill="white" stroke="black" points="789,-250 789,-280 917,-280 917,-250 789,-250"/>
<text text-anchor="start" x="797" y="-268" font-family="Helvetica,sans-Serif" font-size="10.00">denoptim.graph.Template.</text>
<text text-anchor="middle" x="853" y="-257" font-family="Helvetica,sans-Serif" font-size="10.00">ContractLevel</text>
</a>
</g>
</g>
<!-- Node19&#45;&gt;Node11 -->
<g id="edge29" class="edge">
<title>Node19&#45;&gt;Node11</title>
<path fill="none" stroke="#9a32cd" stroke-dasharray="5,2" d="M927.12,-280.71C959.25,-289.02 996.89,-300.71 1029,-316 1055.21,-328.48 1082.3,-349.21 1097.12,-361.34"/>
<polygon fill="#9a32cd" stroke="#9a32cd" points="927.89,-277.29 917.34,-278.24 926.18,-284.08 927.89,-277.29"/>
<text text-anchor="middle" x="990" y="-319" font-family="Helvetica,sans-Serif" font-size="10.00"> contractLevel</text>
</g>
<!-- Node20 -->
<g id="node20" class="node">
<title>Node20</title>
<g id="a_node20"><a xlink:title=" ">
<polygon fill="white" stroke="black" points="773,-376 773,-406 933,-406 933,-376 773,-376"/>
<text text-anchor="start" x="781" y="-394" font-family="Helvetica,sans-Serif" font-size="10.00">List&lt; denoptim.graph.Attachment</text>
<text text-anchor="middle" x="853" y="-383" font-family="Helvetica,sans-Serif" font-size="10.00">Point &gt;</text>
</a>
</g>
</g>
<!-- Node20&#45;&gt;Node11 -->
<g id="edge30" class="edge">
<title>Node20&#45;&gt;Node11</title>
<path fill="none" stroke="#9a32cd" stroke-dasharray="5,2" d="M943.14,-383.99C977.39,-381.3 1015.69,-378.29 1046.8,-375.85"/>
<polygon fill="#9a32cd" stroke="#9a32cd" points="942.83,-380.51 933.13,-384.78 943.37,-387.49 942.83,-380.51"/>
<text text-anchor="middle" x="990" y="-385" font-family="Helvetica,sans-Serif" font-size="10.00"> requiredAPs</text>
</g>
<!-- Node21 -->
<g id="node21" class="node">
<title>Node21</title>
<g id="a_node21"><a xlink:href="classdenoptim_1_1graph_1_1_a_p_tree_map.html" target="_top" xlink:title="Attachment point mapping where keys are sorted by natural ordering, i.e., by AttachmentPoint#compareT...">
<polygon fill="white" stroke="black" points="784.5,-337.5 784.5,-356.5 921.5,-356.5 921.5,-337.5 784.5,-337.5"/>
<text text-anchor="middle" x="853" y="-344.5" font-family="Helvetica,sans-Serif" font-size="10.00">denoptim.graph.APTreeMap</text>
</a>
</g>
</g>
<!-- Node21&#45;&gt;Node11 -->
<g id="edge31" class="edge">
<title>Node21&#45;&gt;Node11</title>
<path fill="none" stroke="#9a32cd" stroke-dasharray="5,2" d="M931.86,-353.22C962.2,-355.76 997.24,-358.84 1029,-362 1034.81,-362.58 1040.85,-363.21 1046.89,-363.86"/>
<polygon fill="#9a32cd" stroke="#9a32cd" points="932.03,-349.72 921.77,-352.38 931.44,-356.69 932.03,-349.72"/>
<text text-anchor="middle" x="990" y="-365" font-family="Helvetica,sans-Serif" font-size="10.00"> innerToOuterAPs</text>
</g>
<!-- Node22 -->
<g id="node22" class="node">
<title>Node22</title>
<g id="a_node22"><a xlink:title=" ">
<polygon fill="white" stroke="black" points="476.5,-432 476.5,-462 615.5,-462 615.5,-432 476.5,-432"/>
<text text-anchor="start" x="484.5" y="-450" font-family="Helvetica,sans-Serif" font-size="10.00">TreeMap&lt; AttachmentPoint,</text>
<text text-anchor="middle" x="546" y="-439" font-family="Helvetica,sans-Serif" font-size="10.00"> AttachmentPoint &gt;</text>
</a>
</g>
</g>
<!-- Node22&#45;&gt;Node21 -->
<g id="edge32" class="edge">
<title>Node22&#45;&gt;Node21</title>
<path fill="none" stroke="midnightblue" d="M611.62,-429.23C623.07,-426.12 634.88,-422.95 646,-420 694.35,-407.2 713.69,-420.21 755,-392 766.31,-384.28 761.68,-374.7 773,-367 779.43,-362.62 786.75,-359.2 794.27,-356.53"/>
<polygon fill="midnightblue" stroke="midnightblue" points="610.42,-425.93 601.69,-431.93 612.25,-432.68 610.42,-425.93"/>
</g>
<!-- Node23 -->
<g id="node23" class="node">
<title>Node23</title>
<g id="a_node23"><a xlink:title=" ">
<polygon fill="white" stroke="black" points="181,-155 181,-207 358,-207 358,-155 181,-155"/>
<text text-anchor="start" x="189" y="-195" font-family="Helvetica,sans-Serif" font-size="10.00">DefaultUndirectedGraph</text>
<text text-anchor="start" x="189" y="-184" font-family="Helvetica,sans-Serif" font-size="10.00">&lt; denoptim.graph.Vertex,</text>
<text text-anchor="start" x="189" y="-173" font-family="Helvetica,sans-Serif" font-size="10.00"> denoptim.graph.simplified.Undirected</text>
<text text-anchor="middle" x="269.5" y="-162" font-family="Helvetica,sans-Serif" font-size="10.00">Edge &gt;</text>
</a>
</g>
</g>
<!-- Node23&#45;&gt;Node1 -->
<g id="edge37" class="edge">
<title>Node23&#45;&gt;Node1</title>
<path fill="none" stroke="#9a32cd" stroke-dasharray="5,2" d="M368.49,-161.21C455.15,-145.45 585.2,-126 699.5,-126 699.5,-126 699.5,-126 1110.5,-126 1308.34,-126 1332.85,-485.52 1335.66,-550.12"/>
<polygon fill="#9a32cd" stroke="#9a32cd" points="367.6,-157.82 358.4,-163.07 368.87,-164.7 367.6,-157.82"/>
<text text-anchor="middle" x="853" y="-129" font-family="Helvetica,sans-Serif" font-size="10.00"> jGraph</text>
</g>
<!-- Node23&#45;&gt;Node10 -->
<g id="edge33" class="edge">
<title>Node23&#45;&gt;Node10</title>
<path fill="none" stroke="#9a32cd" stroke-dasharray="5,2" d="M320.1,-212.9C361.02,-242.07 416.9,-289.11 446,-345 472.33,-395.57 425.53,-429.92 464,-472 470.14,-478.72 478.16,-483.28 486.77,-486.34"/>
<polygon fill="#9a32cd" stroke="#9a32cd" points="322.07,-210 311.87,-207.12 318.05,-215.73 322.07,-210"/>
<text text-anchor="middle" x="411.5" y="-348" font-family="Helvetica,sans-Serif" font-size="10.00"> jGraph</text>
</g>
<!-- Node24 -->
<g id="node24" class="node">
<title>Node24</title>
<g id="a_node24"><a xlink:title=" ">
<polygon fill="white" stroke="black" points="180,-697 180,-749 359,-749 359,-697 180,-697"/>
<text text-anchor="start" x="188" y="-737" font-family="Helvetica,sans-Serif" font-size="10.00">DefaultUndirectedGraph</text>
<text text-anchor="start" x="188" y="-726" font-family="Helvetica,sans-Serif" font-size="10.00">&lt; denoptim.graph.simplified.</text>
<text text-anchor="start" x="188" y="-715" font-family="Helvetica,sans-Serif" font-size="10.00">Node, denoptim.graph.simplified.Node</text>
<text text-anchor="middle" x="269.5" y="-704" font-family="Helvetica,sans-Serif" font-size="10.00">Connection &gt;</text>
</a>
</g>
</g>
<!-- Node24&#45;&gt;Node1 -->
<g id="edge38" class="edge">
<title>Node24&#45;&gt;Node1</title>
<path fill="none" stroke="#9a32cd" stroke-dasharray="5,2" d="M369.55,-736.93C421.65,-743.11 486.66,-749 545,-749 545,-749 545,-749 1110.5,-749 1184.84,-749 1204.3,-723.23 1260,-674 1295.47,-642.65 1321.72,-591.15 1331.65,-569.78"/>
<polygon fill="#9a32cd" stroke="#9a32cd" points="369.66,-733.42 359.31,-735.7 368.82,-740.37 369.66,-733.42"/>
<text text-anchor="middle" x="853" y="-752" font-family="Helvetica,sans-Serif" font-size="10.00"> jGraphKernel</text>
</g>
<!-- Node24&#45;&gt;Node10 -->
<g id="edge34" class="edge">
<title>Node24&#45;&gt;Node10</title>
<path fill="none" stroke="#9a32cd" stroke-dasharray="5,2" d="M336.24,-692.18C371.01,-674.04 413.19,-648.98 446,-620 488.74,-582.25 525.67,-523.76 539.35,-500.76"/>
<polygon fill="#9a32cd" stroke="#9a32cd" points="334.39,-689.2 327.1,-696.88 337.59,-695.42 334.39,-689.2"/>
<text text-anchor="middle" x="411.5" y="-671" font-family="Helvetica,sans-Serif" font-size="10.00"> jGraphKernel</text>
</g>
</g>
</svg>
        <g id="navigator" transform="translate(0 0)" fill="#404254">
                <rect fill="#f2f5e9" fill-opacity="0.5" stroke="#606060" stroke-width=".5" x="0" y="0" width="60" height="60"/>
                <use id="zoomplus" xlink:href="#zoomPlus" x="17" y="9" onmousedown="handleZoom(evt,'in')"/>
                <use id="zoomminus" xlink:href="#zoomMin" x="42" y="9" onmousedown="handleZoom(evt,'out')"/>
                <use id="reset" xlink:href="#resetDef" x="30" y="36" onmousedown="handleReset()"/>
                <g id="arrowUp" xlink:href="#dirArrow" transform="translate(30 24)" onmousedown="handlePan(0,-1)">
                  <use xlink:href="#rim" fill="#404040">
                        <set attributeName="fill" to="#808080" begin="arrowUp.mouseover" end="arrowUp.mouseout"/>
                  </use>
                  <path fill="none" stroke="white" stroke-width="1.5" d="M0,-3.0v7 M-2.5,-0.5L0,-3.0L2.5,-0.5"/>
                </g>
                <g id="arrowRight" xlink:href="#dirArrow" transform="rotate(90) translate(36 -43)" onmousedown="handlePan(1,0)">
                  <use xlink:href="#rim" fill="#404040">
                        <set attributeName="fill" to="#808080" begin="arrowRight.mouseover" end="arrowRight.mouseout"/>
                  </use>
                  <path fill="none" stroke="white" stroke-width="1.5" d="M0,-3.0v7 M-2.5,-0.5L0,-3.0L2.5,-0.5"/>
                </g>
                <g id="arrowDown" xlink:href="#dirArrow" transform="rotate(180) translate(-30 -48)" onmousedown="handlePan(0,1)">
                  <use xlink:href="#rim" fill="#404040">
                        <set attributeName="fill" to="#808080" begin="arrowDown.mouseover" end="arrowDown.mouseout"/>
                  </use>
                  <path fill="none" stroke="white" stroke-width="1.5" d="M0,-3.0v7 M-2.5,-0.5L0,-3.0L2.5,-0.5"/>
                </g>
                <g id="arrowLeft" xlink:href="#dirArrow" transform="rotate(270) translate(-36 17)" onmousedown="handlePan(-1,0)">
                  <use xlink:href="#rim" fill="#404040">
                        <set attributeName="fill" to="#808080" begin="arrowLeft.mouseover" end="arrowLeft.mouseout"/>
                  </use>
                  <path fill="none" stroke="white" stroke-width="1.5" d="M0,-3.0v7 M-2.5,-0.5L0,-3.0L2.5,-0.5"/>
                </g>
        </g>
        <svg viewBox="0 0 15 15" width="100%" height="30px" preserveAspectRatio="xMaxYMin meet">
         <g id="arrow_out" transform="scale(0.3 0.3)">
          <a xlink:href="classdenoptim_1_1graph_1_1_d_graph__coll__graph_org.svg" target="_base">
           <rect id="button" ry="5" rx="5" y="6" x="6" height="38" width="38"
                fill="#f2f5e9" fill-opacity="0.5" stroke="#606060" stroke-width="1.0"/>
           <path id="arrow"
             d="M 11.500037,31.436501 C 11.940474,20.09759 22.043105,11.32322 32.158766,21.979434 L 37.068811,17.246167 C 37.068811,17.246167 37.088388,32 37.088388,32 L 22.160133,31.978069 C 22.160133,31.978069 26.997745,27.140456 26.997745,27.140456 C 18.528582,18.264221 13.291696,25.230495 11.500037,31.436501 z"
             style="fill:#404040;"/>
          </a>
         </g>
        </svg>
</svg>
