<?xml version="1.0" encoding="UTF-8" standalone="no"?>
<!DOCTYPE svg PUBLIC "-//W3C//DTD SVG 1.1//EN"
 "http://www.w3.org/Graphics/SVG/1.1/DTD/svg11.dtd">
<!-- Generated by graphviz version 3.0.0 (20220413.0242)
 -->
<!-- Title: denoptim.io.DenoptimIO.readPopulationMemberPathnames Pages: 1 -->
<!--zoomable 241 -->
<svg id="main" version="1.1" xmlns="http://www.w3.org/2000/svg" xmlns:xlink="http://www.w3.org/1999/xlink" xml:space="preserve" onload="init(evt)">
<style type="text/css"><![CDATA[
.edge:hover path { stroke: red; }
.edge:hover polygon { stroke: red; fill: red; }
]]></style>
<script type="text/javascript"><![CDATA[
var edges = document.getElementsByTagName('g');
if (edges && edges.length) {
  for (var i=0;i<edges.length;i++) {
    if (edges[i].id.substr(0,4)=='edge') {
      edges[i].setAttribute('class','edge');
    }
  }
}
]]></script>
        <defs>
                <circle id="rim" cx="0" cy="0" r="7"/>
                <circle id="rim2" cx="0" cy="0" r="3.5"/>
                <g id="zoomPlus">
                        <use xlink:href="#rim" fill="#404040">
                                <set attributeName="fill" to="#808080" begin="zoomplus.mouseover" end="zoomplus.mouseout"/>
                        </use>
                        <path d="M-4,0h8M0,-4v8" fill="none" stroke="white" stroke-width="1.5" pointer-events="none"/>
                </g>
                <g id="zoomMin">
                        <use xlink:href="#rim" fill="#404040">
                                <set attributeName="fill" to="#808080" begin="zoomminus.mouseover" end="zoomminus.mouseout"/>
                        </use>
                        <path d="M-4,0h8" fill="none" stroke="white" stroke-width="1.5" pointer-events="none"/>
                </g>
                <g id="dirArrow">
                        <path fill="none" stroke="white" stroke-width="1.5" d="M0,-3.0v7 M-2.5,-0.5L0,-3.0L2.5,-0.5"/>
                </g>
               <g id="resetDef">
                       <use xlink:href="#rim2" fill="#404040">
                               <set attributeName="fill" to="#808080" begin="reset.mouseover" end="reset.mouseout"/>
                       </use>
               </g>
        </defs>

<script type="text/javascript">
var viewWidth = 1143;
var viewHeight = 241;
var sectionId = 'dynsection-43';
</script>
<script xlink:href="svgpan.js"/>
<svg id="graph" class="graph">
<g id="viewport">
<title>denoptim.io.DenoptimIO.readPopulationMemberPathnames</title>
<polygon fill="white" stroke="transparent" points="-4,4 -4,-237 1139,-237 1139,4 -4,4"/>
<!-- Node1 -->
<g id="node1" class="node">
<title>Node1</title>
<g id="a_node1"><a xlink:title="Read the pathnames to the population members from a FileFormat#GENSUMMARY file.">
<polygon fill="#bfbfbf" stroke="black" points="988,-73.5 988,-103.5 1135,-103.5 1135,-73.5 988,-73.5"/>
<text text-anchor="start" x="996" y="-91.5" font-family="Helvetica,sans-Serif" font-size="10.00">denoptim.io.DenoptimIO.read</text>
<text text-anchor="middle" x="1061.5" y="-80.5" font-family="Helvetica,sans-Serif" font-size="10.00">PopulationMemberPathnames</text>
</a>
</g>
</g>
<!-- Node2 -->
<g id="node2" class="node">
<title>Node2</title>
<g id="a_node2"><a xlink:href="classdenoptim_1_1gui_1_1_g_u_i_inspect_g_a_run.html#a9be67aaf7774f89c1fdafd56472360fd" target="_top" xlink:title=" ">
<polygon fill="white" stroke="black" points="767,-120.5 767,-150.5 952,-150.5 952,-120.5 767,-120.5"/>
<text text-anchor="start" x="775" y="-138.5" font-family="Helvetica,sans-Serif" font-size="10.00">denoptim.gui.GUIInspectGARun.import</text>
<text text-anchor="middle" x="859.5" y="-127.5" font-family="Helvetica,sans-Serif" font-size="10.00">GARunData</text>
</a>
</g>
</g>
<!-- Node1&#45;&gt;Node2 -->
<g id="edge1" class="edge">
<title>Node1&#45;&gt;Node2</title>
<path fill="none" stroke="midnightblue" d="M986.77,-105.83C966.3,-110.64 944.26,-115.82 924.41,-120.48"/>
<polygon fill="midnightblue" stroke="midnightblue" points="987.73,-109.2 996.67,-103.5 986.13,-102.38 987.73,-109.2"/>
</g>
<!-- Node10 -->
<g id="node10" class="node">
<title>Node10</title>
<g id="a_node10"><a xlink:href="classdenoptim_1_1io_1_1_denoptim_i_o.html#a0e2c428b137f3e18aba6a26861d1062f" target="_top" xlink:title="Reads a FileFormat#GENSUMMARY file and searches all the files defining each member of the population.">
<polygon fill="white" stroke="black" points="789,-49.5 789,-79.5 930,-79.5 930,-49.5 789,-49.5"/>
<text text-anchor="start" x="797" y="-67.5" font-family="Helvetica,sans-Serif" font-size="10.00">denoptim.io.DenoptimIO.read</text>
<text text-anchor="middle" x="859.5" y="-56.5" font-family="Helvetica,sans-Serif" font-size="10.00">GenerationFromSummary</text>
</a>
</g>
</g>
<!-- Node1&#45;&gt;Node10 -->
<g id="edge10" class="edge">
<title>Node1&#45;&gt;Node10</title>
<path fill="none" stroke="midnightblue" d="M977.5,-78.54C961.77,-76.65 945.47,-74.7 930.21,-72.87"/>
<polygon fill="midnightblue" stroke="midnightblue" points="977.38,-82.05 987.73,-79.77 978.22,-75.1 977.38,-82.05"/>
</g>
<!-- Node3 -->
<g id="node3" class="node">
<title>Node3</title>
<g id="a_node3"><a xlink:href="classdenoptim_1_1gui_1_1_home_panel.html#a316e6bb38c2eb0edcead31424e3ed3fe" target="_top" xlink:title="Initialize the panel with figure and shortcuts and credit panels.">
<polygon fill="white" stroke="black" points="567,-186 567,-205 728,-205 728,-186 567,-186"/>
<text text-anchor="middle" x="647.5" y="-193" font-family="Helvetica,sans-Serif" font-size="10.00">denoptim.gui.HomePanel.initialize</text>
</a>
</g>
</g>
<!-- Node2&#45;&gt;Node3 -->
<g id="edge2" class="edge">
<title>Node2&#45;&gt;Node3</title>
<path fill="none" stroke="midnightblue" d="M795.97,-153.37C758.54,-164.06 712.45,-177.23 681.86,-185.97"/>
<polygon fill="midnightblue" stroke="midnightblue" points="797.13,-156.68 805.78,-150.56 795.2,-149.95 797.13,-156.68"/>
</g>
<!-- Node5 -->
<g id="node5" class="node">
<title>Node5</title>
<g id="a_node5"><a xlink:href="classdenoptim_1_1gui_1_1_main_tool_bar.html#a1a2e06a2647032587d42155302b8c0a6" target="_top" xlink:title="Process a file that has a recognized file format and loads a suitable GUI card to visualize the file ...">
<polygon fill="white" stroke="black" points="564,-126 564,-145 731,-145 731,-126 564,-126"/>
<text text-anchor="middle" x="647.5" y="-133" font-family="Helvetica,sans-Serif" font-size="10.00">denoptim.gui.MainToolBar.openFile</text>
</a>
</g>
</g>
<!-- Node2&#45;&gt;Node5 -->
<g id="edge4" class="edge">
<title>Node2&#45;&gt;Node5</title>
<path fill="none" stroke="midnightblue" d="M756.69,-135.5C748.15,-135.5 739.57,-135.5 731.2,-135.5"/>
<polygon fill="midnightblue" stroke="midnightblue" points="756.7,-139 766.7,-135.5 756.7,-132 756.7,-139"/>
</g>
<!-- Node4 -->
<g id="node4" class="node">
<title>Node4</title>
<g id="a_node4"><a xlink:href="classdenoptim_1_1gui_1_1_home_panel.html#a4d968e0669527cf2bc90d334a66b35ad" target="_top" xlink:title="Constructor.">
<polygon fill="white" stroke="black" points="371.5,-202.5 371.5,-232.5 524.5,-232.5 524.5,-202.5 371.5,-202.5"/>
<text text-anchor="start" x="379.5" y="-220.5" font-family="Helvetica,sans-Serif" font-size="10.00">denoptim.gui.HomePanel.Home</text>
<text text-anchor="middle" x="448" y="-209.5" font-family="Helvetica,sans-Serif" font-size="10.00">Panel</text>
</a>
</g>
</g>
<!-- Node3&#45;&gt;Node4 -->
<g id="edge3" class="edge">
<title>Node3&#45;&gt;Node4</title>
<path fill="none" stroke="midnightblue" d="M556.55,-205.52C545.86,-206.71 535.04,-207.92 524.58,-209.08"/>
<polygon fill="midnightblue" stroke="midnightblue" points="557.19,-208.97 566.74,-204.38 556.41,-202.01 557.19,-208.97"/>
</g>
<!-- Node6 -->
<g id="node6" class="node">
<title>Node6</title>
<g id="a_node6"><a xlink:href="classdenoptim_1_1gui_1_1_main_tool_bar.html#a0df9ca063352fbc50f9476f3b2820926" target="_top" xlink:title="Initialize the contents of the tool bar.">
<polygon fill="white" stroke="black" points="167,-123 167,-142 332,-142 332,-123 167,-123"/>
<text text-anchor="middle" x="249.5" y="-130" font-family="Helvetica,sans-Serif" font-size="10.00">denoptim.gui.MainToolBar.initialize</text>
</a>
</g>
</g>
<!-- Node5&#45;&gt;Node6 -->
<g id="edge5" class="edge">
<title>Node5&#45;&gt;Node6</title>
<path fill="none" stroke="midnightblue" d="M588.22,-146.73C569.11,-149.91 547.72,-152.93 528,-154.5 457.11,-160.15 438.81,-161.07 368,-154.5 342.17,-152.1 313.55,-146.8 291.02,-142"/>
<polygon fill="midnightblue" stroke="midnightblue" points="589.01,-150.15 598.28,-145.01 587.83,-143.25 589.01,-150.15"/>
</g>
<!-- Node8 -->
<g id="node8" class="node">
<title>Node8</title>
<g id="a_node8"><a xlink:href="classdenoptim_1_1gui_1_1_g_u_i.html#a460fa99497f04de06d2adf8671a92441" target="_top" xlink:title="Launch the application.">
<polygon fill="white" stroke="black" points="394.5,-126 394.5,-145 501.5,-145 501.5,-126 394.5,-126"/>
<text text-anchor="middle" x="448" y="-133" font-family="Helvetica,sans-Serif" font-size="10.00">denoptim.gui.GUI.run</text>
</a>
</g>
</g>
<!-- Node5&#45;&gt;Node8 -->
<g id="edge7" class="edge">
<title>Node5&#45;&gt;Node8</title>
<path fill="none" stroke="midnightblue" d="M553.47,-135.5C535.7,-135.5 517.68,-135.5 501.73,-135.5"/>
<polygon fill="midnightblue" stroke="midnightblue" points="553.89,-139 563.89,-135.5 553.89,-132 553.89,-139"/>
</g>
<!-- Node9 -->
<g id="node9" class="node">
<title>Node9</title>
<g id="a_node9"><a xlink:href="classdenoptim_1_1gui_1_1_main_tool_bar.html#a94df24e485081c9b9d7441387f409e26" target="_top" xlink:title="Updated the the list of recent files in the &quot;open Recent&quot; menu.">
<polygon fill="white" stroke="black" points="368,-76.5 368,-106.5 528,-106.5 528,-76.5 368,-76.5"/>
<text text-anchor="start" x="376" y="-94.5" font-family="Helvetica,sans-Serif" font-size="10.00">denoptim.gui.MainToolBar.update</text>
<text text-anchor="middle" x="448" y="-83.5" font-family="Helvetica,sans-Serif" font-size="10.00">OpenRecentMenu</text>
</a>
</g>
</g>
<!-- Node5&#45;&gt;Node9 -->
<g id="edge8" class="edge">
<title>Node5&#45;&gt;Node9</title>
<path fill="none" stroke="midnightblue" d="M593.79,-123.76C570.1,-118.48 541.85,-112.19 516.62,-106.57"/>
<polygon fill="midnightblue" stroke="midnightblue" points="593.12,-127.19 603.65,-125.95 594.65,-120.36 593.12,-127.19"/>
</g>
<!-- Node7 -->
<g id="node7" class="node">
<title>Node7</title>
<g id="a_node7"><a xlink:href="classdenoptim_1_1gui_1_1_main_tool_bar.html#a36f4409849998e032342f49b19e6c5b5" target="_top" xlink:title="Constructor that build the tool bar.">
<polygon fill="white" stroke="black" points="0,-117.5 0,-147.5 131,-147.5 131,-117.5 0,-117.5"/>
<text text-anchor="start" x="8" y="-135.5" font-family="Helvetica,sans-Serif" font-size="10.00">denoptim.gui.MainToolBar.</text>
<text text-anchor="middle" x="65.5" y="-124.5" font-family="Helvetica,sans-Serif" font-size="10.00">MainToolBar</text>
</a>
</g>
</g>
<!-- Node6&#45;&gt;Node7 -->
<g id="edge6" class="edge">
<title>Node6&#45;&gt;Node7</title>
<path fill="none" stroke="midnightblue" d="M156.66,-132.5C147.99,-132.5 139.34,-132.5 131,-132.5"/>
<polygon fill="midnightblue" stroke="midnightblue" points="156.82,-136 166.82,-132.5 156.82,-129 156.82,-136"/>
</g>
<!-- Node9&#45;&gt;Node6 -->
<g id="edge9" class="edge">
<title>Node9&#45;&gt;Node6</title>
<path fill="none" stroke="midnightblue" d="M364.98,-108.61C341.5,-113.51 316.75,-118.68 296.29,-122.95"/>
<polygon fill="midnightblue" stroke="midnightblue" points="365.87,-112 374.95,-106.53 364.44,-105.15 365.87,-112"/>
</g>
<!-- Node11 -->
<g id="node11" class="node">
<title>Node11</title>
<g id="a_node11"><a xlink:href="classdenoptim_1_1io_1_1_denoptim_i_o.html#a746a93c4742c53dfb3cc767eae8aac92" target="_top" xlink:title="Reads any content of a given pathname and tries to read DENOPTIM data from it.">
<polygon fill="white" stroke="black" points="577,-49.5 577,-79.5 718,-79.5 718,-49.5 577,-49.5"/>
<text text-anchor="start" x="585" y="-67.5" font-family="Helvetica,sans-Serif" font-size="10.00">denoptim.io.DenoptimIO.read</text>
<text text-anchor="middle" x="647.5" y="-56.5" font-family="Helvetica,sans-Serif" font-size="10.00">DENOPTIMData</text>
</a>
</g>
</g>
<!-- Node10&#45;&gt;Node11 -->
<g id="edge11" class="edge">
<title>Node10&#45;&gt;Node11</title>
<path fill="none" stroke="midnightblue" d="M778.61,-64.5C758.76,-64.5 737.63,-64.5 718.31,-64.5"/>
<polygon fill="midnightblue" stroke="midnightblue" points="778.86,-68 788.86,-64.5 778.86,-61 778.86,-68"/>
</g>
<!-- Node13 -->
<g id="node13" class="node">
<title>Node13</title>
<g id="a_node13"><a xlink:href="classdenoptim_1_1io_1_1_denoptim_i_o_test.html#af5c2f9114881ebde82a83f922c0c23fe" target="_top" xlink:title=" ">
<polygon fill="white" stroke="black" points="568.5,-0.5 568.5,-30.5 726.5,-30.5 726.5,-0.5 568.5,-0.5"/>
<text text-anchor="start" x="576.5" y="-18.5" font-family="Helvetica,sans-Serif" font-size="10.00">denoptim.io.DenoptimIOTest.test</text>
<text text-anchor="middle" x="647.5" y="-7.5" font-family="Helvetica,sans-Serif" font-size="10.00">ReadGenerationFromSummary</text>
</a>
</g>
</g>
<!-- Node10&#45;&gt;Node13 -->
<g id="edge13" class="edge">
<title>Node10&#45;&gt;Node13</title>
<path fill="none" stroke="midnightblue" d="M784.22,-47.17C760.91,-41.73 735.38,-35.77 712.81,-30.51"/>
<polygon fill="midnightblue" stroke="midnightblue" points="783.53,-50.6 794.07,-49.47 785.12,-43.78 783.53,-50.6"/>
</g>
<!-- Node12 -->
<g id="node12" class="node">
<title>Node12</title>
<g id="a_node12"><a xlink:href="classdenoptim_1_1integration_1_1python_1_1_py4_j_getaway_server.html#a15873756d67e5fcc5b3219c5d26db990" target="_top" xlink:title="Reads any DENOPTIM&#45;kind of data from the given pathname.">
<polygon fill="white" stroke="black" points="375,-27.5 375,-57.5 521,-57.5 521,-27.5 375,-27.5"/>
<text text-anchor="start" x="383" y="-45.5" font-family="Helvetica,sans-Serif" font-size="10.00">denoptim.integration.python.</text>
<text text-anchor="middle" x="448" y="-34.5" font-family="Helvetica,sans-Serif" font-size="10.00">Py4JGetawayServer.loadData</text>
</a>
</g>
</g>
<!-- Node11&#45;&gt;Node12 -->
<g id="edge12" class="edge">
<title>Node11&#45;&gt;Node12</title>
<path fill="none" stroke="midnightblue" d="M566.55,-55.59C551.49,-53.92 535.81,-52.17 521.01,-50.52"/>
<polygon fill="midnightblue" stroke="midnightblue" points="566.54,-59.11 576.87,-56.74 567.32,-52.16 566.54,-59.11"/>
</g>
</g>
</svg>
        <g id="navigator" transform="translate(0 0)" fill="#404254">
                <rect fill="#f2f5e9" fill-opacity="0.5" stroke="#606060" stroke-width=".5" x="0" y="0" width="60" height="60"/>
                <use id="zoomplus" xlink:href="#zoomPlus" x="17" y="9" onmousedown="handleZoom(evt,'in')"/>
                <use id="zoomminus" xlink:href="#zoomMin" x="42" y="9" onmousedown="handleZoom(evt,'out')"/>
                <use id="reset" xlink:href="#resetDef" x="30" y="36" onmousedown="handleReset()"/>
                <g id="arrowUp" xlink:href="#dirArrow" transform="translate(30 24)" onmousedown="handlePan(0,-1)">
                  <use xlink:href="#rim" fill="#404040">
                        <set attributeName="fill" to="#808080" begin="arrowUp.mouseover" end="arrowUp.mouseout"/>
                  </use>
                  <path fill="none" stroke="white" stroke-width="1.5" d="M0,-3.0v7 M-2.5,-0.5L0,-3.0L2.5,-0.5"/>
                </g>
                <g id="arrowRight" xlink:href="#dirArrow" transform="rotate(90) translate(36 -43)" onmousedown="handlePan(1,0)">
                  <use xlink:href="#rim" fill="#404040">
                        <set attributeName="fill" to="#808080" begin="arrowRight.mouseover" end="arrowRight.mouseout"/>
                  </use>
                  <path fill="none" stroke="white" stroke-width="1.5" d="M0,-3.0v7 M-2.5,-0.5L0,-3.0L2.5,-0.5"/>
                </g>
                <g id="arrowDown" xlink:href="#dirArrow" transform="rotate(180) translate(-30 -48)" onmousedown="handlePan(0,1)">
                  <use xlink:href="#rim" fill="#404040">
                        <set attributeName="fill" to="#808080" begin="arrowDown.mouseover" end="arrowDown.mouseout"/>
                  </use>
                  <path fill="none" stroke="white" stroke-width="1.5" d="M0,-3.0v7 M-2.5,-0.5L0,-3.0L2.5,-0.5"/>
                </g>
                <g id="arrowLeft" xlink:href="#dirArrow" transform="rotate(270) translate(-36 17)" onmousedown="handlePan(-1,0)">
                  <use xlink:href="#rim" fill="#404040">
                        <set attributeName="fill" to="#808080" begin="arrowLeft.mouseover" end="arrowLeft.mouseout"/>
                  </use>
                  <path fill="none" stroke="white" stroke-width="1.5" d="M0,-3.0v7 M-2.5,-0.5L0,-3.0L2.5,-0.5"/>
                </g>
        </g>
        <svg viewBox="0 0 15 15" width="100%" height="30px" preserveAspectRatio="xMaxYMin meet">
         <g id="arrow_out" transform="scale(0.3 0.3)">
          <a xlink:href="classdenoptim_1_1io_1_1_denoptim_i_o_a2cda5028becae07d4a0ac873a9352768_icgraph_org.svg" target="_base">
           <rect id="button" ry="5" rx="5" y="6" x="6" height="38" width="38"
                fill="#f2f5e9" fill-opacity="0.5" stroke="#606060" stroke-width="1.0"/>
           <path id="arrow"
             d="M 11.500037,31.436501 C 11.940474,20.09759 22.043105,11.32322 32.158766,21.979434 L 37.068811,17.246167 C 37.068811,17.246167 37.088388,32 37.088388,32 L 22.160133,31.978069 C 22.160133,31.978069 26.997745,27.140456 26.997745,27.140456 C 18.528582,18.264221 13.291696,25.230495 11.500037,31.436501 z"
             style="fill:#404040;"/>
          </a>
         </g>
        </svg>
</svg>
