<?xml version="1.0" encoding="UTF-8" standalone="no"?>
<!DOCTYPE svg PUBLIC "-//W3C//DTD SVG 1.1//EN"
 "http://www.w3.org/Graphics/SVG/1.1/DTD/svg11.dtd">
<!-- Generated by graphviz version 3.0.0 (20220413.0242)
 -->
<!-- Title: denoptim.gui.FSParamsDialog.makeFragSpace Pages: 1 -->
<!--zoomable 518 -->
<svg id="main" version="1.1" xmlns="http://www.w3.org/2000/svg" xmlns:xlink="http://www.w3.org/1999/xlink" xml:space="preserve" onload="init(evt)">
<style type="text/css"><![CDATA[
.edge:hover path { stroke: red; }
.edge:hover polygon { stroke: red; fill: red; }
]]></style>
<script type="text/javascript"><![CDATA[
var edges = document.getElementsByTagName('g');
if (edges && edges.length) {
  for (var i=0;i<edges.length;i++) {
    if (edges[i].id.substr(0,4)=='edge') {
      edges[i].setAttribute('class','edge');
    }
  }
}
]]></script>
        <defs>
                <circle id="rim" cx="0" cy="0" r="7"/>
                <circle id="rim2" cx="0" cy="0" r="3.5"/>
                <g id="zoomPlus">
                        <use xlink:href="#rim" fill="#404040">
                                <set attributeName="fill" to="#808080" begin="zoomplus.mouseover" end="zoomplus.mouseout"/>
                        </use>
                        <path d="M-4,0h8M0,-4v8" fill="none" stroke="white" stroke-width="1.5" pointer-events="none"/>
                </g>
                <g id="zoomMin">
                        <use xlink:href="#rim" fill="#404040">
                                <set attributeName="fill" to="#808080" begin="zoomminus.mouseover" end="zoomminus.mouseout"/>
                        </use>
                        <path d="M-4,0h8" fill="none" stroke="white" stroke-width="1.5" pointer-events="none"/>
                </g>
                <g id="dirArrow">
                        <path fill="none" stroke="white" stroke-width="1.5" d="M0,-3.0v7 M-2.5,-0.5L0,-3.0L2.5,-0.5"/>
                </g>
               <g id="resetDef">
                       <use xlink:href="#rim2" fill="#404040">
                               <set attributeName="fill" to="#808080" begin="reset.mouseover" end="reset.mouseout"/>
                       </use>
               </g>
        </defs>

<script type="text/javascript">
var viewWidth = 893;
var viewHeight = 518;
var sectionId = 'dynsection-3';
</script>
<script xlink:href="svgpan.js"/>
<svg id="graph" class="graph">
<g id="viewport">
<title>denoptim.gui.FSParamsDialog.makeFragSpace</title>
<polygon fill="white" stroke="transparent" points="-4,4 -4,-514 889,-514 889,4 -4,4"/>
<!-- Node1 -->
<g id="node1" class="node">
<title>Node1</title>
<g id="a_node1"><a xlink:title="Reads all the parameters, calls the interpreters, and eventually creates the static FragmentSpace obj...">
<polygon fill="#bfbfbf" stroke="black" points="0,-274.5 0,-304.5 173,-304.5 173,-274.5 0,-274.5"/>
<text text-anchor="start" x="8" y="-292.5" font-family="Helvetica,sans-Serif" font-size="10.00">denoptim.gui.FSParamsDialog.make</text>
<text text-anchor="middle" x="86.5" y="-281.5" font-family="Helvetica,sans-Serif" font-size="10.00">FragSpace</text>
</a>
</g>
</g>
<!-- Node2 -->
<g id="node2" class="node">
<title>Node2</title>
<g id="a_node2"><a xlink:href="classdenoptim_1_1fragspace_1_1_fragment_space_parameters.html#a7ba47e20c9b69f190c09c791e9caeca1" target="_top" xlink:title="Evaluate consistency of input parameters.">
<polygon fill="white" stroke="black" points="213.5,-405.5 213.5,-435.5 386.5,-435.5 386.5,-405.5 213.5,-405.5"/>
<text text-anchor="start" x="221.5" y="-423.5" font-family="Helvetica,sans-Serif" font-size="10.00">denoptim.fragspace.Fragment</text>
<text text-anchor="middle" x="300" y="-412.5" font-family="Helvetica,sans-Serif" font-size="10.00">SpaceParameters.checkParameters</text>
</a>
</g>
</g>
<!-- Node1&#45;&gt;Node2 -->
<g id="edge1" class="edge">
<title>Node1&#45;&gt;Node2</title>
<path fill="none" stroke="midnightblue" d="M111.76,-304.53C149.75,-328.06 223.33,-373.63 266.07,-400.1"/>
<polygon fill="midnightblue" stroke="midnightblue" points="264.35,-403.16 274.7,-405.45 268.04,-397.21 264.35,-403.16"/>
</g>
<!-- Node6 -->
<g id="node6" class="node">
<title>Node6</title>
<g id="a_node6"><a xlink:href="classdenoptim_1_1fragspace_1_1_fragment_space_parameters.html#a93693af51412000689dc7517151b9a05" target="_top" xlink:title=" ">
<polygon fill="white" stroke="black" points="210.5,-323.5 210.5,-353.5 389.5,-353.5 389.5,-323.5 210.5,-323.5"/>
<text text-anchor="start" x="218.5" y="-341.5" font-family="Helvetica,sans-Serif" font-size="10.00">denoptim.fragspace.Fragment</text>
<text text-anchor="middle" x="300" y="-330.5" font-family="Helvetica,sans-Serif" font-size="10.00">SpaceParameters.getFragmentSpace</text>
</a>
</g>
</g>
<!-- Node1&#45;&gt;Node6 -->
<g id="edge5" class="edge">
<title>Node1&#45;&gt;Node6</title>
<path fill="none" stroke="midnightblue" d="M152.39,-304.53C175.13,-309.8 200.85,-315.76 224.32,-321.2"/>
<polygon fill="midnightblue" stroke="midnightblue" points="223.7,-324.65 234.23,-323.49 225.28,-317.83 223.7,-324.65"/>
</g>
<!-- Node7 -->
<g id="node7" class="node">
<title>Node7</title>
<g id="a_node7"><a xlink:href="classdenoptim_1_1fragspace_1_1_fragment_space_parameters.html#a09e9320a769de9b184bfc12195db88df" target="_top" xlink:title="Read the information collected in the parameters stored in this class and create the fragment space a...">
<polygon fill="white" stroke="black" points="209,-274.5 209,-304.5 391,-304.5 391,-274.5 209,-274.5"/>
<text text-anchor="start" x="217" y="-292.5" font-family="Helvetica,sans-Serif" font-size="10.00">denoptim.fragspace.Fragment</text>
<text text-anchor="middle" x="300" y="-281.5" font-family="Helvetica,sans-Serif" font-size="10.00">SpaceParameters.processParameters</text>
</a>
</g>
</g>
<!-- Node1&#45;&gt;Node7 -->
<g id="edge6" class="edge">
<title>Node1&#45;&gt;Node7</title>
<path fill="none" stroke="midnightblue" d="M173.22,-289.5C181.52,-289.5 190,-289.5 198.43,-289.5"/>
<polygon fill="midnightblue" stroke="midnightblue" points="198.68,-293 208.68,-289.5 198.68,-286 198.68,-293"/>
</g>
<!-- Node9 -->
<g id="node9" class="node">
<title>Node9</title>
<g id="a_node9"><a xlink:href="classdenoptim_1_1gui_1_1_f_s_parameters_form.html#a06262c2710006e31961d2eeaa8df061e" target="_top" xlink:title=" ">
<polygon fill="white" stroke="black" points="229,-216.5 229,-246.5 371,-246.5 371,-216.5 229,-216.5"/>
<text text-anchor="start" x="237" y="-234.5" font-family="Helvetica,sans-Serif" font-size="10.00">denoptim.gui.FSParameters</text>
<text text-anchor="middle" x="300" y="-223.5" font-family="Helvetica,sans-Serif" font-size="10.00">Form.putParametersToString</text>
</a>
</g>
</g>
<!-- Node1&#45;&gt;Node9 -->
<g id="edge8" class="edge">
<title>Node1&#45;&gt;Node9</title>
<path fill="none" stroke="midnightblue" d="M142.24,-274.49C170.39,-266.77 204.89,-257.31 234.34,-249.23"/>
<polygon fill="midnightblue" stroke="midnightblue" points="235.4,-252.57 244.12,-246.55 233.55,-245.82 235.4,-252.57"/>
</g>
<!-- Node15 -->
<g id="node15" class="node">
<title>Node15</title>
<g id="a_node15"><a xlink:href="classdenoptim_1_1programs_1_1_run_time_parameters.html#a890aaf1919e171a9c3f9206c9a93aa3b" target="_top" xlink:title=" ">
<polygon fill="white" stroke="black" points="224,-67.5 224,-97.5 376,-97.5 376,-67.5 224,-67.5"/>
<text text-anchor="start" x="232" y="-85.5" font-family="Helvetica,sans-Serif" font-size="10.00">denoptim.programs.RunTime</text>
<text text-anchor="middle" x="300" y="-74.5" font-family="Helvetica,sans-Serif" font-size="10.00">Parameters.readParameterLine</text>
</a>
</g>
</g>
<!-- Node1&#45;&gt;Node15 -->
<g id="edge16" class="edge">
<title>Node1&#45;&gt;Node15</title>
<path fill="none" stroke="midnightblue" d="M103.05,-274.28C139.95,-238.17 232.92,-147.17 276.19,-104.82"/>
<polygon fill="midnightblue" stroke="midnightblue" points="278.73,-107.24 283.43,-97.74 273.83,-102.24 278.73,-107.24"/>
</g>
<!-- Node3 -->
<g id="node3" class="node">
<title>Node3</title>
<g id="a_node3"><a xlink:href="classdenoptim_1_1files_1_1_file_utils.html#a16bc762b79f5033f2323fb8728593334" target="_top" xlink:title=" ">
<polygon fill="white" stroke="black" points="455,-479.5 455,-509.5 598,-509.5 598,-479.5 455,-479.5"/>
<text text-anchor="start" x="463" y="-497.5" font-family="Helvetica,sans-Serif" font-size="10.00">denoptim.files.FileUtils.check</text>
<text text-anchor="middle" x="526.5" y="-486.5" font-family="Helvetica,sans-Serif" font-size="10.00">Exists</text>
</a>
</g>
</g>
<!-- Node2&#45;&gt;Node3 -->
<g id="edge2" class="edge">
<title>Node2&#45;&gt;Node3</title>
<path fill="none" stroke="midnightblue" d="M335.29,-435.61C360.37,-446.28 395.38,-460.43 427,-470.5 433.92,-472.7 441.16,-474.82 448.45,-476.82"/>
<polygon fill="midnightblue" stroke="midnightblue" points="447.83,-480.28 458.39,-479.47 449.63,-473.51 447.83,-480.28"/>
</g>
<!-- Node4 -->
<g id="node4" class="node">
<title>Node4</title>
<g id="a_node4"><a xlink:href="classdenoptim_1_1programs_1_1_run_time_parameters.html#aaeaf94275f1b63439850a68a244a74c2" target="_top" xlink:title="Checks any of the parameter collections contained in this instance.">
<polygon fill="white" stroke="black" points="441.5,-430.5 441.5,-460.5 611.5,-460.5 611.5,-430.5 441.5,-430.5"/>
<text text-anchor="start" x="449.5" y="-448.5" font-family="Helvetica,sans-Serif" font-size="10.00">denoptim.programs.RunTime</text>
<text text-anchor="middle" x="526.5" y="-437.5" font-family="Helvetica,sans-Serif" font-size="10.00">Parameters.checkOtherParameters</text>
</a>
</g>
</g>
<!-- Node2&#45;&gt;Node4 -->
<g id="edge3" class="edge">
<title>Node2&#45;&gt;Node4</title>
<path fill="none" stroke="midnightblue" d="M386.51,-430.02C401.11,-431.65 416.35,-433.35 431.16,-434.99"/>
<polygon fill="midnightblue" stroke="midnightblue" points="431.01,-438.5 441.34,-436.13 431.79,-431.54 431.01,-438.5"/>
</g>
<!-- Node5 -->
<g id="node5" class="node">
<title>Node5</title>
<g id="a_node5"><a xlink:href="classdenoptim_1_1programs_1_1_run_time_parameters.html#a5d529ee791990d15bde012d8dcd6b5c1" target="_top" xlink:title="Get the name of the program specific logger.">
<polygon fill="white" stroke="black" points="456.5,-381.5 456.5,-411.5 596.5,-411.5 596.5,-381.5 456.5,-381.5"/>
<text text-anchor="start" x="464.5" y="-399.5" font-family="Helvetica,sans-Serif" font-size="10.00">denoptim.programs.RunTime</text>
<text text-anchor="middle" x="526.5" y="-388.5" font-family="Helvetica,sans-Serif" font-size="10.00">Parameters.getLogger</text>
</a>
</g>
</g>
<!-- Node2&#45;&gt;Node5 -->
<g id="edge4" class="edge">
<title>Node2&#45;&gt;Node5</title>
<path fill="none" stroke="midnightblue" d="M386.51,-411.36C406.14,-409.26 426.93,-407.04 446.27,-404.97"/>
<polygon fill="midnightblue" stroke="midnightblue" points="446.67,-408.45 456.25,-403.9 445.93,-401.49 446.67,-408.45"/>
</g>
<!-- Node8 -->
<g id="node8" class="node">
<title>Node8</title>
<g id="a_node8"><a xlink:href="classdenoptim_1_1programs_1_1_run_time_parameters.html#abcdf563c6c95b9a293cb0e71738355ff" target="_top" xlink:title="Processes any of the parameter collections contained in this instance.">
<polygon fill="white" stroke="black" points="437.5,-332.5 437.5,-362.5 615.5,-362.5 615.5,-332.5 437.5,-332.5"/>
<text text-anchor="start" x="445.5" y="-350.5" font-family="Helvetica,sans-Serif" font-size="10.00">denoptim.programs.RunTime</text>
<text text-anchor="middle" x="526.5" y="-339.5" font-family="Helvetica,sans-Serif" font-size="10.00">Parameters.processOtherParameters</text>
</a>
</g>
</g>
<!-- Node7&#45;&gt;Node8 -->
<g id="edge7" class="edge">
<title>Node7&#45;&gt;Node8</title>
<path fill="none" stroke="midnightblue" d="M355.5,-304.52C377.65,-310.54 403.52,-317.47 427,-323.5 435.42,-325.66 444.26,-327.88 453.05,-330.06"/>
<polygon fill="midnightblue" stroke="midnightblue" points="452.37,-333.5 462.91,-332.5 454.04,-326.7 452.37,-333.5"/>
</g>
<!-- Node10 -->
<g id="node10" class="node">
<title>Node10</title>
<g id="a_node10"><a xlink:href="classdenoptim_1_1gui_1_1_parameters_form.html#a625c868bd274a682e1c81eaaefce8f5d" target="_top" xlink:title="Produced an overall string including one or more KEY:VALUE strings taken from a table.">
<polygon fill="white" stroke="black" points="445.5,-265.5 445.5,-295.5 607.5,-295.5 607.5,-265.5 445.5,-265.5"/>
<text text-anchor="start" x="453.5" y="-283.5" font-family="Helvetica,sans-Serif" font-size="10.00">denoptim.gui.ParametersForm.get</text>
<text text-anchor="middle" x="526.5" y="-272.5" font-family="Helvetica,sans-Serif" font-size="10.00">StringFromTable</text>
</a>
</g>
</g>
<!-- Node9&#45;&gt;Node10 -->
<g id="edge9" class="edge">
<title>Node9&#45;&gt;Node10</title>
<path fill="none" stroke="midnightblue" d="M369.88,-246.53C394.23,-251.85 421.8,-257.87 446.9,-263.34"/>
<polygon fill="midnightblue" stroke="midnightblue" points="446.23,-266.78 456.75,-265.49 447.72,-259.94 446.23,-266.78"/>
</g>
<!-- Node11 -->
<g id="node11" class="node">
<title>Node11</title>
<g id="a_node11"><a xlink:href="classdenoptim_1_1gui_1_1_parameters_form.html#adba801c985eb2aa293c9dc1ce455fb63" target="_top" xlink:title="Produced the KEY:VALUE string for a general text field.">
<polygon fill="white" stroke="black" points="445.5,-216.5 445.5,-246.5 607.5,-246.5 607.5,-216.5 445.5,-216.5"/>
<text text-anchor="start" x="453.5" y="-234.5" font-family="Helvetica,sans-Serif" font-size="10.00">denoptim.gui.ParametersForm.get</text>
<text text-anchor="middle" x="526.5" y="-223.5" font-family="Helvetica,sans-Serif" font-size="10.00">StringIfNotEmpty</text>
</a>
</g>
</g>
<!-- Node9&#45;&gt;Node11 -->
<g id="edge11" class="edge">
<title>Node9&#45;&gt;Node11</title>
<path fill="none" stroke="midnightblue" d="M371.11,-231.5C391.43,-231.5 413.92,-231.5 435.29,-231.5"/>
<polygon fill="midnightblue" stroke="midnightblue" points="435.34,-235 445.34,-231.5 435.34,-228 435.34,-235"/>
</g>
<!-- Node12 -->
<g id="node12" class="node">
<title>Node12</title>
<g id="a_node12"><a xlink:href="classdenoptim_1_1gui_1_1_parameters_form.html#a8fe7e5b6db435de65b2629b0e175cc82" target="_top" xlink:title="Produced the KEY:VALUE string for a on/off button.">
<polygon fill="white" stroke="black" points="445.5,-167.5 445.5,-197.5 607.5,-197.5 607.5,-167.5 445.5,-167.5"/>
<text text-anchor="start" x="453.5" y="-185.5" font-family="Helvetica,sans-Serif" font-size="10.00">denoptim.gui.ParametersForm.get</text>
<text text-anchor="middle" x="526.5" y="-174.5" font-family="Helvetica,sans-Serif" font-size="10.00">StringIfSelected</text>
</a>
</g>
</g>
<!-- Node9&#45;&gt;Node12 -->
<g id="edge12" class="edge">
<title>Node9&#45;&gt;Node12</title>
<path fill="none" stroke="midnightblue" d="M369.88,-216.47C394.23,-211.15 421.8,-205.13 446.9,-199.66"/>
<polygon fill="midnightblue" stroke="midnightblue" points="447.72,-203.06 456.75,-197.51 446.23,-196.22 447.72,-203.06"/>
</g>
<!-- Node13 -->
<g id="node13" class="node">
<title>Node13</title>
<g id="a_node13"><a xlink:href="classdenoptim_1_1gui_1_1_f_s_parameters_form.html#acf9f63e43965c7723e5b577212de9ecf" target="_top" xlink:title=" ">
<polygon fill="white" stroke="black" points="427,-118.5 427,-148.5 626,-148.5 626,-118.5 427,-118.5"/>
<text text-anchor="start" x="435" y="-136.5" font-family="Helvetica,sans-Serif" font-size="10.00">denoptim.gui.FSParameters</text>
<text text-anchor="middle" x="526.5" y="-125.5" font-family="Helvetica,sans-Serif" font-size="10.00">Form.possiblyReadParamsFromFSParFile</text>
</a>
</g>
</g>
<!-- Node9&#45;&gt;Node13 -->
<g id="edge13" class="edge">
<title>Node9&#45;&gt;Node13</title>
<path fill="none" stroke="midnightblue" d="M322.8,-216.35C347.19,-200.01 388.37,-174.24 427,-158.5 433.2,-155.97 439.73,-153.65 446.35,-151.52"/>
<polygon fill="midnightblue" stroke="midnightblue" points="447.56,-154.81 456.1,-148.53 445.51,-148.11 447.56,-154.81"/>
</g>
<!-- Node10&#45;&gt;Node10 -->
<g id="edge10" class="edge">
<title>Node10&#45;&gt;Node10</title>
<path fill="none" stroke="midnightblue" d="M487.11,-295.66C477.62,-305.06 490.75,-314 526.5,-314 548.29,-314 561.67,-310.68 566.66,-305.96"/>
<polygon fill="midnightblue" stroke="midnightblue" points="570.12,-305.37 565.89,-295.66 563.14,-305.89 570.12,-305.37"/>
</g>
<!-- Node14 -->
<g id="node14" class="node">
<title>Node14</title>
<g id="a_node14"><a xlink:href="classdenoptim_1_1gui_1_1_f_s_parameters_form.html#a3efd797a6bfa6106f3134ead85fcab5e" target="_top" xlink:title="Imports parameters from a properly formatted parameters file.">
<polygon fill="white" stroke="black" points="682.5,-116 682.5,-157 864.5,-157 864.5,-116 682.5,-116"/>
<text text-anchor="start" x="690.5" y="-145" font-family="Helvetica,sans-Serif" font-size="10.00">denoptim.gui.FSParameters</text>
<text text-anchor="start" x="690.5" y="-134" font-family="Helvetica,sans-Serif" font-size="10.00">Form.importParametersFromDenoptim</text>
<text text-anchor="middle" x="773.5" y="-123" font-family="Helvetica,sans-Serif" font-size="10.00">ParamsFile</text>
</a>
</g>
</g>
<!-- Node13&#45;&gt;Node14 -->
<g id="edge14" class="edge">
<title>Node13&#45;&gt;Node14</title>
<path fill="none" stroke="midnightblue" d="M626.09,-134.71C641.22,-134.89 656.85,-135.08 672.01,-135.27"/>
<polygon fill="midnightblue" stroke="midnightblue" points="672.38,-138.77 682.43,-135.4 672.47,-131.77 672.38,-138.77"/>
</g>
<!-- Node14&#45;&gt;Node14 -->
<g id="edge15" class="edge">
<title>Node14&#45;&gt;Node14</title>
<path fill="none" stroke="midnightblue" d="M728.29,-157.36C723.35,-167.04 738.43,-175.5 773.5,-175.5 795.42,-175.5 809.53,-172.2 815.82,-167.36"/>
<polygon fill="midnightblue" stroke="midnightblue" points="819.3,-167.94 818.71,-157.36 812.57,-166 819.3,-167.94"/>
</g>
<!-- Node16 -->
<g id="node16" class="node">
<title>Node16</title>
<g id="a_node16"><a xlink:href="classdenoptim_1_1programs_1_1_run_time_parameters.html#a38d652dfc85081f78687a61b32f9a283" target="_top" xlink:title="Builds the implementation of this class suitable to allocate parameters of the given type.">
<polygon fill="white" stroke="black" points="456.5,-67.5 456.5,-97.5 596.5,-97.5 596.5,-67.5 456.5,-67.5"/>
<text text-anchor="start" x="464.5" y="-85.5" font-family="Helvetica,sans-Serif" font-size="10.00">denoptim.programs.RunTime</text>
<text text-anchor="middle" x="526.5" y="-74.5" font-family="Helvetica,sans-Serif" font-size="10.00">Parameters.getInstanceFor</text>
</a>
</g>
</g>
<!-- Node15&#45;&gt;Node16 -->
<g id="edge17" class="edge">
<title>Node15&#45;&gt;Node16</title>
<path fill="none" stroke="midnightblue" d="M376.07,-82.5C398.51,-82.5 423.18,-82.5 445.9,-82.5"/>
<polygon fill="midnightblue" stroke="midnightblue" points="446.19,-86 456.19,-82.5 446.19,-79 446.19,-86"/>
</g>
<!-- Node19 -->
<g id="node19" class="node">
<title>Node19</title>
<g id="a_node19"><a xlink:href="classdenoptim_1_1programs_1_1_run_time_parameters.html#a4cf7f93ac962a8979be6426b5b576384" target="_top" xlink:title="Processes a string looking for keyword and a possibly associated value.">
<polygon fill="white" stroke="black" points="455.5,-0.5 455.5,-30.5 597.5,-30.5 597.5,-0.5 455.5,-0.5"/>
<text text-anchor="start" x="463.5" y="-18.5" font-family="Helvetica,sans-Serif" font-size="10.00">denoptim.programs.RunTime</text>
<text text-anchor="middle" x="526.5" y="-7.5" font-family="Helvetica,sans-Serif" font-size="10.00">Parameters.interpretKeyword</text>
</a>
</g>
</g>
<!-- Node15&#45;&gt;Node19 -->
<g id="edge20" class="edge">
<title>Node15&#45;&gt;Node19</title>
<path fill="none" stroke="midnightblue" d="M351.38,-67.46C385.06,-57.41 429.54,-44.14 465.12,-33.52"/>
<polygon fill="midnightblue" stroke="midnightblue" points="466.32,-36.82 474.9,-30.6 464.31,-30.11 466.32,-36.82"/>
</g>
<!-- Node17 -->
<g id="node17" class="node">
<title>Node17</title>
<g id="a_node17"><a xlink:href="enumdenoptim_1_1programs_1_1_run_time_parameters_1_1_parameters_type.html#af225a4d21c1a04771222f81fe5622b2d" target="_top" xlink:title=" ">
<polygon fill="white" stroke="black" points="662,-67.5 662,-97.5 885,-97.5 885,-67.5 662,-67.5"/>
<text text-anchor="start" x="670" y="-85.5" font-family="Helvetica,sans-Serif" font-size="10.00">denoptim.programs.RunTime</text>
<text text-anchor="middle" x="773.5" y="-74.5" font-family="Helvetica,sans-Serif" font-size="10.00">Parameters.ParametersType.getImplementation</text>
</a>
</g>
</g>
<!-- Node16&#45;&gt;Node17 -->
<g id="edge18" class="edge">
<title>Node16&#45;&gt;Node17</title>
<path fill="none" stroke="midnightblue" d="M596.72,-82.5C613.88,-82.5 632.76,-82.5 651.59,-82.5"/>
<polygon fill="midnightblue" stroke="midnightblue" points="651.73,-86 661.73,-82.5 651.73,-79 651.73,-86"/>
</g>
<!-- Node18 -->
<g id="node18" class="node">
<title>Node18</title>
<g id="a_node18"><a xlink:href="classdenoptim_1_1programs_1_1_run_time_parameters.html#a0ff947a81c127a3460907c7cffb9843b" target="_top" xlink:title="Constructor.">
<polygon fill="white" stroke="black" points="694.5,-18.5 694.5,-48.5 852.5,-48.5 852.5,-18.5 694.5,-18.5"/>
<text text-anchor="start" x="702.5" y="-36.5" font-family="Helvetica,sans-Serif" font-size="10.00">denoptim.programs.RunTime</text>
<text text-anchor="middle" x="773.5" y="-25.5" font-family="Helvetica,sans-Serif" font-size="10.00">Parameters.RunTimeParameters</text>
</a>
</g>
</g>
<!-- Node16&#45;&gt;Node18 -->
<g id="edge19" class="edge">
<title>Node16&#45;&gt;Node18</title>
<path fill="none" stroke="midnightblue" d="M596.72,-68.66C624.95,-63.01 657.86,-56.43 687.52,-50.5"/>
<polygon fill="midnightblue" stroke="midnightblue" points="688.32,-53.91 697.44,-48.51 686.95,-47.04 688.32,-53.91"/>
</g>
<!-- Node19&#45;&gt;Node19 -->
<g id="edge21" class="edge">
<title>Node19&#45;&gt;Node19</title>
<path fill="none" stroke="midnightblue" d="M487.11,-30.66C477.62,-40.06 490.75,-49 526.5,-49 548.29,-49 561.67,-45.68 566.66,-40.96"/>
<polygon fill="midnightblue" stroke="midnightblue" points="570.12,-40.37 565.89,-30.66 563.14,-40.89 570.12,-40.37"/>
</g>
</g>
</svg>
        <g id="navigator" transform="translate(0 0)" fill="#404254">
                <rect fill="#f2f5e9" fill-opacity="0.5" stroke="#606060" stroke-width=".5" x="0" y="0" width="60" height="60"/>
                <use id="zoomplus" xlink:href="#zoomPlus" x="17" y="9" onmousedown="handleZoom(evt,'in')"/>
                <use id="zoomminus" xlink:href="#zoomMin" x="42" y="9" onmousedown="handleZoom(evt,'out')"/>
                <use id="reset" xlink:href="#resetDef" x="30" y="36" onmousedown="handleReset()"/>
                <g id="arrowUp" xlink:href="#dirArrow" transform="translate(30 24)" onmousedown="handlePan(0,-1)">
                  <use xlink:href="#rim" fill="#404040">
                        <set attributeName="fill" to="#808080" begin="arrowUp.mouseover" end="arrowUp.mouseout"/>
                  </use>
                  <path fill="none" stroke="white" stroke-width="1.5" d="M0,-3.0v7 M-2.5,-0.5L0,-3.0L2.5,-0.5"/>
                </g>
                <g id="arrowRight" xlink:href="#dirArrow" transform="rotate(90) translate(36 -43)" onmousedown="handlePan(1,0)">
                  <use xlink:href="#rim" fill="#404040">
                        <set attributeName="fill" to="#808080" begin="arrowRight.mouseover" end="arrowRight.mouseout"/>
                  </use>
                  <path fill="none" stroke="white" stroke-width="1.5" d="M0,-3.0v7 M-2.5,-0.5L0,-3.0L2.5,-0.5"/>
                </g>
                <g id="arrowDown" xlink:href="#dirArrow" transform="rotate(180) translate(-30 -48)" onmousedown="handlePan(0,1)">
                  <use xlink:href="#rim" fill="#404040">
                        <set attributeName="fill" to="#808080" begin="arrowDown.mouseover" end="arrowDown.mouseout"/>
                  </use>
                  <path fill="none" stroke="white" stroke-width="1.5" d="M0,-3.0v7 M-2.5,-0.5L0,-3.0L2.5,-0.5"/>
                </g>
                <g id="arrowLeft" xlink:href="#dirArrow" transform="rotate(270) translate(-36 17)" onmousedown="handlePan(-1,0)">
                  <use xlink:href="#rim" fill="#404040">
                        <set attributeName="fill" to="#808080" begin="arrowLeft.mouseover" end="arrowLeft.mouseout"/>
                  </use>
                  <path fill="none" stroke="white" stroke-width="1.5" d="M0,-3.0v7 M-2.5,-0.5L0,-3.0L2.5,-0.5"/>
                </g>
        </g>
        <svg viewBox="0 0 15 15" width="100%" height="30px" preserveAspectRatio="xMaxYMin meet">
         <g id="arrow_out" transform="scale(0.3 0.3)">
          <a xlink:href="classdenoptim_1_1gui_1_1_f_s_params_dialog_ae39602275c1287e6916f7693a0824b08_cgraph_org.svg" target="_base">
           <rect id="button" ry="5" rx="5" y="6" x="6" height="38" width="38"
                fill="#f2f5e9" fill-opacity="0.5" stroke="#606060" stroke-width="1.0"/>
           <path id="arrow"
             d="M 11.500037,31.436501 C 11.940474,20.09759 22.043105,11.32322 32.158766,21.979434 L 37.068811,17.246167 C 37.068811,17.246167 37.088388,32 37.088388,32 L 22.160133,31.978069 C 22.160133,31.978069 26.997745,27.140456 26.997745,27.140456 C 18.528582,18.264221 13.291696,25.230495 11.500037,31.436501 z"
             style="fill:#404040;"/>
          </a>
         </g>
        </svg>
</svg>
