<?xml version="1.0" encoding="UTF-8" standalone="no"?>
<!DOCTYPE svg PUBLIC "-//W3C//DTD SVG 1.1//EN"
 "http://www.w3.org/Graphics/SVG/1.1/DTD/svg11.dtd">
<!-- Generated by graphviz version 3.0.0 (20220413.0242)
 -->
<!-- Title: denoptim.fragspace.FragmentSpace.classifyFragment Pages: 1 -->
<svg width="537pt" height="519pt"
 viewBox="0.00 0.00 537.00 519.00" xmlns="http://www.w3.org/2000/svg" xmlns:xlink="http://www.w3.org/1999/xlink">
<g id="graph0" class="graph" transform="scale(1 1) rotate(0) translate(4 515)">
<title>denoptim.fragspace.FragmentSpace.classifyFragment</title>
<polygon fill="white" stroke="transparent" points="-4,4 -4,-515 533,-515 533,4 -4,4"/>
<!-- Node1 -->
<g id="node1" class="node">
<title>Node1</title>
<g id="a_node1"><a xlink:title="Classify a fragment in terms of the number of APs and possibly their type (AP&#45;Class).">
<polygon fill="#bfbfbf" stroke="black" points="0,-245.5 0,-275.5 145,-275.5 145,-245.5 0,-245.5"/>
<text text-anchor="start" x="8" y="-263.5" font-family="Helvetica,sans-Serif" font-size="10.00">denoptim.fragspace.Fragment</text>
<text text-anchor="middle" x="72.5" y="-252.5" font-family="Helvetica,sans-Serif" font-size="10.00">Space.classifyFragment</text>
</a>
</g>
</g>
<!-- Node2 -->
<g id="node2" class="node">
<title>Node2</title>
<g id="a_node2"><a xlink:href="classdenoptim_1_1graph_1_1_vertex.html#a274e9253fa2a75073e7fc14918e54eef" target="_top" xlink:title="Returns the list of all APClasses present on this vertex.">
<polygon fill="white" stroke="black" points="209,-480.5 209,-510.5 337,-510.5 337,-480.5 209,-480.5"/>
<text text-anchor="start" x="217" y="-498.5" font-family="Helvetica,sans-Serif" font-size="10.00">denoptim.graph.Vertex.get</text>
<text text-anchor="middle" x="273" y="-487.5" font-family="Helvetica,sans-Serif" font-size="10.00">AllAPClasses</text>
</a>
</g>
</g>
<!-- Node1&#45;&gt;Node2 -->
<g id="edge1" class="edge">
<title>Node1&#45;&gt;Node2</title>
<path fill="none" stroke="midnightblue" d="M77.19,-275.6C87.18,-313.3 118.31,-412.36 181,-465.5 186.58,-470.23 192.94,-474.22 199.63,-477.59"/>
<polygon fill="midnightblue" stroke="midnightblue" points="198.37,-480.86 208.92,-481.8 201.26,-474.49 198.37,-480.86"/>
</g>
<!-- Node3 -->
<g id="node3" class="node">
<title>Node3</title>
<g id="a_node3"><a xlink:href="classdenoptim_1_1graph_1_1_vertex.html#a022f7c9075b178f17e13339b215ee21f" target="_top" xlink:title=" ">
<polygon fill="white" stroke="black" points="401,-436.5 401,-466.5 529,-466.5 529,-436.5 401,-436.5"/>
<text text-anchor="start" x="409" y="-454.5" font-family="Helvetica,sans-Serif" font-size="10.00">denoptim.graph.Vertex.get</text>
<text text-anchor="middle" x="465" y="-443.5" font-family="Helvetica,sans-Serif" font-size="10.00">AttachmentPoints</text>
</a>
</g>
</g>
<!-- Node1&#45;&gt;Node3 -->
<g id="edge4" class="edge">
<title>Node1&#45;&gt;Node3</title>
<path fill="none" stroke="midnightblue" d="M77.77,-275.61C88.48,-310.42 120.13,-396.04 181,-432.5 244.2,-470.35 330.17,-470.45 390.72,-464"/>
<polygon fill="midnightblue" stroke="midnightblue" points="391.43,-467.44 400.97,-462.82 390.63,-460.49 391.43,-467.44"/>
</g>
<!-- Node4 -->
<g id="node4" class="node">
<title>Node4</title>
<g id="a_node4"><a xlink:href="classdenoptim_1_1graph_1_1_attachment_point.html#a31bed4cb29f6437bf8a888a1dda3fd95" target="_top" xlink:title="Returns the Attachment Point class.">
<polygon fill="white" stroke="black" points="205.5,-392.5 205.5,-422.5 340.5,-422.5 340.5,-392.5 205.5,-392.5"/>
<text text-anchor="start" x="213.5" y="-410.5" font-family="Helvetica,sans-Serif" font-size="10.00">denoptim.graph.Attachment</text>
<text text-anchor="middle" x="273" y="-399.5" font-family="Helvetica,sans-Serif" font-size="10.00">Point.getAPClass</text>
</a>
</g>
</g>
<!-- Node1&#45;&gt;Node4 -->
<g id="edge3" class="edge">
<title>Node1&#45;&gt;Node4</title>
<path fill="none" stroke="midnightblue" d="M82.38,-275.56C98.56,-301.67 135.45,-355.25 181,-383.5 185.69,-386.41 190.72,-388.96 195.92,-391.21"/>
<polygon fill="midnightblue" stroke="midnightblue" points="194.86,-394.55 205.44,-394.94 197.41,-388.04 194.86,-394.55"/>
</g>
<!-- Node5 -->
<g id="node5" class="node">
<title>Node5</title>
<g id="a_node5"><a xlink:href="classdenoptim_1_1fragspace_1_1_fragment_space.html#ae9d431ee87c4285c7d49d78b90ebe3a6" target="_top" xlink:title="Returns the list of fragments with given number of APs.">
<polygon fill="white" stroke="black" points="200.5,-343.5 200.5,-373.5 345.5,-373.5 345.5,-343.5 200.5,-343.5"/>
<text text-anchor="start" x="208.5" y="-361.5" font-family="Helvetica,sans-Serif" font-size="10.00">denoptim.fragspace.Fragment</text>
<text text-anchor="middle" x="273" y="-350.5" font-family="Helvetica,sans-Serif" font-size="10.00">Space.getFragsWithNumAps</text>
</a>
</g>
</g>
<!-- Node1&#45;&gt;Node5 -->
<g id="edge5" class="edge">
<title>Node1&#45;&gt;Node5</title>
<path fill="none" stroke="midnightblue" d="M91.34,-275.69C111.77,-292.35 146.82,-318.81 181,-334.5 185.32,-336.48 189.83,-338.33 194.44,-340.03"/>
<polygon fill="midnightblue" stroke="midnightblue" points="193.4,-343.38 204,-343.35 195.7,-336.77 193.4,-343.38"/>
</g>
<!-- Node6 -->
<g id="node6" class="node">
<title>Node6</title>
<g id="a_node6"><a xlink:href="classdenoptim_1_1graph_1_1_vertex.html#ac578a57700de26b2f0ba1fc7470129d0" target="_top" xlink:title=" ">
<polygon fill="white" stroke="black" points="209,-294.5 209,-324.5 337,-324.5 337,-294.5 209,-294.5"/>
<text text-anchor="start" x="217" y="-312.5" font-family="Helvetica,sans-Serif" font-size="10.00">denoptim.graph.Vertex.get</text>
<text text-anchor="middle" x="273" y="-301.5" font-family="Helvetica,sans-Serif" font-size="10.00">FreeAPCount</text>
</a>
</g>
</g>
<!-- Node1&#45;&gt;Node6 -->
<g id="edge6" class="edge">
<title>Node1&#45;&gt;Node6</title>
<path fill="none" stroke="midnightblue" d="M134.41,-275.53C155.55,-280.76 179.45,-286.65 201.32,-292.05"/>
<polygon fill="midnightblue" stroke="midnightblue" points="200.66,-295.5 211.21,-294.49 202.34,-288.7 200.66,-295.5"/>
</g>
<!-- Node7 -->
<g id="node7" class="node">
<title>Node7</title>
<g id="a_node7"><a xlink:href="classdenoptim_1_1fragspace_1_1_fragment_space.html#a989cebcb213d2c575f669398db4d2131" target="_top" xlink:title=" ">
<polygon fill="white" stroke="black" points="181,-245.5 181,-275.5 365,-275.5 365,-245.5 181,-245.5"/>
<text text-anchor="start" x="189" y="-263.5" font-family="Helvetica,sans-Serif" font-size="10.00">denoptim.fragspace.Fragment</text>
<text text-anchor="middle" x="273" y="-252.5" font-family="Helvetica,sans-Serif" font-size="10.00">Space.getMapAPClassesPerFragment</text>
</a>
</g>
</g>
<!-- Node1&#45;&gt;Node7 -->
<g id="edge8" class="edge">
<title>Node1&#45;&gt;Node7</title>
<path fill="none" stroke="midnightblue" d="M145.16,-260.5C153.46,-260.5 162.04,-260.5 170.65,-260.5"/>
<polygon fill="midnightblue" stroke="midnightblue" points="170.74,-264 180.74,-260.5 170.74,-257 170.74,-264"/>
</g>
<!-- Node8 -->
<g id="node8" class="node">
<title>Node8</title>
<g id="a_node8"><a xlink:href="classdenoptim_1_1fragspace_1_1_fragment_space.html#aa06ebee904c88b82e9e3dce899781106" target="_top" xlink:title=" ">
<polygon fill="white" stroke="black" points="185,-196.5 185,-226.5 361,-226.5 361,-196.5 185,-196.5"/>
<text text-anchor="start" x="193" y="-214.5" font-family="Helvetica,sans-Serif" font-size="10.00">denoptim.fragspace.Fragment</text>
<text text-anchor="middle" x="273" y="-203.5" font-family="Helvetica,sans-Serif" font-size="10.00">Space.getMapFragsAPsPerAPClass</text>
</a>
</g>
</g>
<!-- Node1&#45;&gt;Node8 -->
<g id="edge9" class="edge">
<title>Node1&#45;&gt;Node8</title>
<path fill="none" stroke="midnightblue" d="M134.41,-245.47C155.55,-240.24 179.45,-234.35 201.32,-228.95"/>
<polygon fill="midnightblue" stroke="midnightblue" points="202.34,-232.3 211.21,-226.51 200.66,-225.5 202.34,-232.3"/>
</g>
<!-- Node9 -->
<g id="node9" class="node">
<title>Node9</title>
<g id="a_node9"><a xlink:href="classdenoptim_1_1fragspace_1_1_fragment_space.html#a3aad125a846731307d56e68cd69b8ae5" target="_top" xlink:title=" ">
<polygon fill="white" stroke="black" points="189.5,-147.5 189.5,-177.5 356.5,-177.5 356.5,-147.5 189.5,-147.5"/>
<text text-anchor="start" x="197.5" y="-165.5" font-family="Helvetica,sans-Serif" font-size="10.00">denoptim.fragspace.Fragment</text>
<text text-anchor="middle" x="273" y="-154.5" font-family="Helvetica,sans-Serif" font-size="10.00">Space.getMapOfFragsPerNumAps</text>
</a>
</g>
</g>
<!-- Node1&#45;&gt;Node9 -->
<g id="edge10" class="edge">
<title>Node1&#45;&gt;Node9</title>
<path fill="none" stroke="midnightblue" d="M91.78,-245.3C112.31,-228.91 147.2,-203.1 181,-187.5 186.24,-185.08 191.76,-182.85 197.39,-180.81"/>
<polygon fill="midnightblue" stroke="midnightblue" points="198.6,-184.1 206.93,-177.55 196.33,-177.48 198.6,-184.1"/>
</g>
<!-- Node10 -->
<g id="node10" class="node">
<title>Node10</title>
<g id="a_node10"><a xlink:href="classdenoptim_1_1graph_1_1_attachment_point.html#a77887ce020d49c189b89e049f12b70ba" target="_top" xlink:title="Check availability of this attachment point.">
<polygon fill="white" stroke="black" points="205.5,-98.5 205.5,-128.5 340.5,-128.5 340.5,-98.5 205.5,-98.5"/>
<text text-anchor="start" x="213.5" y="-116.5" font-family="Helvetica,sans-Serif" font-size="10.00">denoptim.graph.Attachment</text>
<text text-anchor="middle" x="273" y="-105.5" font-family="Helvetica,sans-Serif" font-size="10.00">Point.isAvailable</text>
</a>
</g>
</g>
<!-- Node1&#45;&gt;Node10 -->
<g id="edge11" class="edge">
<title>Node1&#45;&gt;Node10</title>
<path fill="none" stroke="midnightblue" d="M82.7,-245.2C99.11,-219.23 135.99,-166.61 181,-138.5 185.69,-135.57 190.72,-132.98 195.93,-130.69"/>
<polygon fill="midnightblue" stroke="midnightblue" points="197.47,-133.84 205.46,-126.88 194.87,-127.34 197.47,-133.84"/>
</g>
<!-- Node11 -->
<g id="node11" class="node">
<title>Node11</title>
<g id="a_node11"><a xlink:href="classdenoptim_1_1fragspace_1_1_fragment_space.html#a1746f750aa65cefd1ed92ab55e750e63" target="_top" xlink:title="Adds the reference to a ring&#45;closing vertex (RCV) to the quick&#45;access list of RCVs known in this buil...">
<polygon fill="white" stroke="black" points="200.5,-49.5 200.5,-79.5 345.5,-79.5 345.5,-49.5 200.5,-49.5"/>
<text text-anchor="start" x="208.5" y="-67.5" font-family="Helvetica,sans-Serif" font-size="10.00">denoptim.fragspace.Fragment</text>
<text text-anchor="middle" x="273" y="-56.5" font-family="Helvetica,sans-Serif" font-size="10.00">Space.registerRCV</text>
</a>
</g>
</g>
<!-- Node1&#45;&gt;Node11 -->
<g id="edge12" class="edge">
<title>Node1&#45;&gt;Node11</title>
<path fill="none" stroke="midnightblue" d="M78.69,-245.28C90.92,-211.76 124.84,-131.21 181,-89.5 184.16,-87.15 187.54,-85.02 191.05,-83.09"/>
<polygon fill="midnightblue" stroke="midnightblue" points="192.6,-86.23 200.05,-78.69 189.53,-79.94 192.6,-86.23"/>
</g>
<!-- Node12 -->
<g id="node12" class="node">
<title>Node12</title>
<g id="a_node12"><a xlink:href="classdenoptim_1_1fragspace_1_1_fragment_space.html#a47b278f84db073b1f06809f9c42cfae5" target="_top" xlink:title="Check usage of APClass&#45;based approach, i.e., uses attachment points with annotated data (i....">
<polygon fill="white" stroke="black" points="189,-0.5 189,-30.5 357,-30.5 357,-0.5 189,-0.5"/>
<text text-anchor="start" x="197" y="-18.5" font-family="Helvetica,sans-Serif" font-size="10.00">denoptim.fragspace.Fragment</text>
<text text-anchor="middle" x="273" y="-7.5" font-family="Helvetica,sans-Serif" font-size="10.00">Space.useAPclassBasedApproach</text>
</a>
</g>
</g>
<!-- Node1&#45;&gt;Node12 -->
<g id="edge13" class="edge">
<title>Node1&#45;&gt;Node12</title>
<path fill="none" stroke="midnightblue" d="M76.42,-245.29C84.92,-205.31 113.42,-96.53 181,-40.5 183.04,-38.81 185.19,-37.23 187.42,-35.76"/>
<polygon fill="midnightblue" stroke="midnightblue" points="189.48,-38.61 196.4,-30.59 185.99,-32.54 189.48,-38.61"/>
</g>
<!-- Node2&#45;&gt;Node3 -->
<g id="edge2" class="edge">
<title>Node2&#45;&gt;Node3</title>
<path fill="none" stroke="midnightblue" d="M337,-480.91C354.32,-476.9 373.24,-472.52 391.07,-468.39"/>
<polygon fill="midnightblue" stroke="midnightblue" points="391.89,-471.79 400.84,-466.13 390.31,-464.97 391.89,-471.79"/>
</g>
<!-- Node6&#45;&gt;Node3 -->
<g id="edge7" class="edge">
<title>Node6&#45;&gt;Node3</title>
<path fill="none" stroke="midnightblue" d="M337.3,-321.56C347,-324.89 356.58,-329.12 365,-334.5 402.51,-358.46 433.27,-401.06 450.09,-427.71"/>
<polygon fill="midnightblue" stroke="midnightblue" points="447.22,-429.73 455.44,-436.42 453.18,-426.07 447.22,-429.73"/>
</g>
</g>
</svg>
