<?xml version="1.0" encoding="UTF-8" standalone="no"?>
<!DOCTYPE svg PUBLIC "-//W3C//DTD SVG 1.1//EN"
 "http://www.w3.org/Graphics/SVG/1.1/DTD/svg11.dtd">
<!-- Generated by graphviz version 3.0.0 (20220413.0242)
 -->
<!-- Title: denoptim.ga.EvolutionaryAlgorithm Pages: 1 -->
<!--zoomable 851 -->
<svg id="main" version="1.1" xmlns="http://www.w3.org/2000/svg" xmlns:xlink="http://www.w3.org/1999/xlink" xml:space="preserve" onload="init(evt)">
<style type="text/css"><![CDATA[
.edge:hover path { stroke: red; }
.edge:hover polygon { stroke: red; fill: red; }
]]></style>
<script type="text/javascript"><![CDATA[
var edges = document.getElementsByTagName('g');
if (edges && edges.length) {
  for (var i=0;i<edges.length;i++) {
    if (edges[i].id.substr(0,4)=='edge') {
      edges[i].setAttribute('class','edge');
    }
  }
}
]]></script>
        <defs>
                <circle id="rim" cx="0" cy="0" r="7"/>
                <circle id="rim2" cx="0" cy="0" r="3.5"/>
                <g id="zoomPlus">
                        <use xlink:href="#rim" fill="#404040">
                                <set attributeName="fill" to="#808080" begin="zoomplus.mouseover" end="zoomplus.mouseout"/>
                        </use>
                        <path d="M-4,0h8M0,-4v8" fill="none" stroke="white" stroke-width="1.5" pointer-events="none"/>
                </g>
                <g id="zoomMin">
                        <use xlink:href="#rim" fill="#404040">
                                <set attributeName="fill" to="#808080" begin="zoomminus.mouseover" end="zoomminus.mouseout"/>
                        </use>
                        <path d="M-4,0h8" fill="none" stroke="white" stroke-width="1.5" pointer-events="none"/>
                </g>
                <g id="dirArrow">
                        <path fill="none" stroke="white" stroke-width="1.5" d="M0,-3.0v7 M-2.5,-0.5L0,-3.0L2.5,-0.5"/>
                </g>
               <g id="resetDef">
                       <use xlink:href="#rim2" fill="#404040">
                               <set attributeName="fill" to="#808080" begin="reset.mouseover" end="reset.mouseout"/>
                       </use>
               </g>
        </defs>

<script type="text/javascript">
var viewWidth = 1139;
var viewHeight = 851;
var sectionId = 'dynsection-0';
</script>
<script xlink:href="svgpan.js"/>
<svg id="graph" class="graph">
<g id="viewport">
<title>denoptim.ga.EvolutionaryAlgorithm</title>
<polygon fill="white" stroke="transparent" points="-4,4 -4,-847 1135,-847 1135,4 -4,4"/>
<!-- Node1 -->
<g id="node1" class="node">
<title>Node1</title>
<g id="a_node1"><a xlink:title="DENOPTIM&#39;s evolutionary algorithm.">
<polygon fill="#bfbfbf" stroke="black" points="1007,-596 1007,-626 1131,-626 1131,-596 1007,-596"/>
<text text-anchor="start" x="1015" y="-614" font-family="Helvetica,sans-Serif" font-size="10.00">denoptim.ga.Evolutionary</text>
<text text-anchor="middle" x="1069" y="-603" font-family="Helvetica,sans-Serif" font-size="10.00">Algorithm</text>
</a>
</g>
</g>
<!-- Node2 -->
<g id="node2" class="node">
<title>Node2</title>
<g id="a_node2"><a xlink:href="classdenoptim_1_1ga_1_1_external_cmds_listener.html" target="_top" xlink:title="Service that watches the interface folder (i.e., see GAParameters#interfaceDir) for instructions comi...">
<polygon fill="white" stroke="black" points="748.5,-120 748.5,-150 879.5,-150 879.5,-120 748.5,-120"/>
<text text-anchor="start" x="756.5" y="-138" font-family="Helvetica,sans-Serif" font-size="10.00">denoptim.ga.ExternalCmds</text>
<text text-anchor="middle" x="814" y="-127" font-family="Helvetica,sans-Serif" font-size="10.00">Listener</text>
</a>
</g>
</g>
<!-- Node2&#45;&gt;Node1 -->
<g id="edge1" class="edge">
<title>Node2&#45;&gt;Node1</title>
<path fill="none" stroke="#9a32cd" stroke-dasharray="5,2" d="M837.57,-157.55C854.98,-176.22 878.35,-204.27 892,-233 907.64,-265.92 884.73,-286.74 910,-313 935.19,-339.18 963.08,-308.54 989,-334 1064.64,-408.29 1069.18,-549.5 1068.5,-595.85"/>
<polygon fill="#9a32cd" stroke="#9a32cd" points="839.94,-154.97 830.51,-150.14 834.87,-159.79 839.94,-154.97"/>
<text text-anchor="middle" x="949.5" y="-337" font-family="Helvetica,sans-Serif" font-size="10.00"> cmdListener</text>
</g>
<!-- Node7 -->
<g id="node7" class="node">
<title>Node7</title>
<g id="a_node7"><a xlink:href="classdenoptim_1_1ga_1_1_evolutionary_algorithm.html" target="_top" xlink:title="DENOPTIM&#39;s evolutionary algorithm.">
<polygon fill="white" stroke="black" points="1007,-286 1007,-316 1131,-316 1131,-286 1007,-286"/>
<text text-anchor="start" x="1015" y="-304" font-family="Helvetica,sans-Serif" font-size="10.00">denoptim.ga.Evolutionary</text>
<text text-anchor="middle" x="1069" y="-293" font-family="Helvetica,sans-Serif" font-size="10.00">Algorithm</text>
</a>
</g>
</g>
<!-- Node2&#45;&gt;Node7 -->
<g id="edge7" class="edge">
<title>Node2&#45;&gt;Node7</title>
<path fill="none" stroke="#9a32cd" stroke-dasharray="5,2" d="M882,-152.72C929.05,-165.35 984.38,-180.66 989,-184 1026.15,-210.84 1051.18,-260.9 1061.97,-285.93"/>
<polygon fill="#9a32cd" stroke="#9a32cd" points="882.67,-149.28 872.11,-150.07 880.86,-156.04 882.67,-149.28"/>
<text text-anchor="middle" x="949.5" y="-187" font-family="Helvetica,sans-Serif" font-size="10.00"> cmdListener</text>
</g>
<!-- Node3 -->
<g id="node3" class="node">
<title>Node3</title>
<g id="a_node3"><a xlink:title=" ">
<polygon fill="white" stroke="black" points="496,-85.5 496,-104.5 553,-104.5 553,-85.5 496,-85.5"/>
<text text-anchor="middle" x="524.5" y="-92.5" font-family="Helvetica,sans-Serif" font-size="10.00">Runnable</text>
</a>
</g>
</g>
<!-- Node3&#45;&gt;Node2 -->
<g id="edge2" class="edge">
<title>Node3&#45;&gt;Node2</title>
<path fill="none" stroke="midnightblue" d="M563.12,-100.23C610.1,-106.77 691.24,-118.06 748.28,-126"/>
<polygon fill="midnightblue" stroke="midnightblue" points="563.45,-96.75 553.07,-98.84 562.49,-103.68 563.45,-96.75"/>
</g>
<!-- Node4 -->
<g id="node4" class="node">
<title>Node4</title>
<g id="a_node4"><a xlink:title=" ">
<polygon fill="white" stroke="black" points="506,-0.5 506,-19.5 543,-19.5 543,-0.5 506,-0.5"/>
<text text-anchor="middle" x="524.5" y="-7.5" font-family="Helvetica,sans-Serif" font-size="10.00">Path</text>
</a>
</g>
</g>
<!-- Node4&#45;&gt;Node2 -->
<g id="edge3" class="edge">
<title>Node4&#45;&gt;Node2</title>
<path fill="none" stroke="#9a32cd" stroke-dasharray="5,2" d="M553.2,-7.13C592.22,-4.35 664.57,-3.88 718,-31 758.12,-51.36 789.65,-96.18 804.2,-119.78"/>
<polygon fill="#9a32cd" stroke="#9a32cd" points="552.8,-3.65 543.12,-7.96 553.38,-10.63 552.8,-3.65"/>
<text text-anchor="middle" x="665.5" y="-34" font-family="Helvetica,sans-Serif" font-size="10.00"> pathname</text>
</g>
<!-- Node5 -->
<g id="node5" class="node">
<title>Node5</title>
<g id="a_node5"><a xlink:title=" ">
<polygon fill="white" stroke="black" points="486,-161.5 486,-180.5 563,-180.5 563,-161.5 486,-161.5"/>
<text text-anchor="middle" x="524.5" y="-168.5" font-family="Helvetica,sans-Serif" font-size="10.00">WatchService</text>
</a>
</g>
</g>
<!-- Node5&#45;&gt;Node2 -->
<g id="edge4" class="edge">
<title>Node5&#45;&gt;Node2</title>
<path fill="none" stroke="#9a32cd" stroke-dasharray="5,2" d="M573.18,-165.99C612.17,-161.78 668.71,-155.45 718,-149 727.84,-147.71 738.23,-146.27 748.39,-144.81"/>
<polygon fill="#9a32cd" stroke="#9a32cd" points="572.74,-162.51 563.17,-167.06 573.48,-169.47 572.74,-162.51"/>
<text text-anchor="middle" x="665.5" y="-164" font-family="Helvetica,sans-Serif" font-size="10.00"> watcher</text>
</g>
<!-- Node6 -->
<g id="node6" class="node">
<title>Node6</title>
<g id="a_node6"><a xlink:title=" ">
<polygon fill="white" stroke="black" points="494,-123.5 494,-142.5 555,-142.5 555,-123.5 494,-123.5"/>
<text text-anchor="middle" x="524.5" y="-130.5" font-family="Helvetica,sans-Serif" font-size="10.00">WatchKey</text>
</a>
</g>
</g>
<!-- Node6&#45;&gt;Node2 -->
<g id="edge5" class="edge">
<title>Node6&#45;&gt;Node2</title>
<path fill="none" stroke="#9a32cd" stroke-dasharray="5,2" d="M565.33,-133.28C612.6,-133.61 692.07,-134.16 748.23,-134.55"/>
<polygon fill="#9a32cd" stroke="#9a32cd" points="565.21,-129.78 555.18,-133.21 565.16,-136.78 565.21,-129.78"/>
<text text-anchor="middle" x="665.5" y="-137" font-family="Helvetica,sans-Serif" font-size="10.00"> key</text>
</g>
<!-- Node7&#45;&gt;Node2 -->
<g id="edge6" class="edge">
<title>Node7&#45;&gt;Node2</title>
<path fill="none" stroke="#9a32cd" stroke-dasharray="5,2" d="M1062.9,-275.54C1054.36,-240.23 1033.51,-177.44 989,-148 957.29,-127.03 914.85,-123.49 879.83,-125.34"/>
<polygon fill="#9a32cd" stroke="#9a32cd" points="1059.55,-276.56 1065.17,-285.54 1066.38,-275.02 1059.55,-276.56"/>
<text text-anchor="middle" x="949.5" y="-151" font-family="Helvetica,sans-Serif" font-size="10.00"> ea</text>
</g>
<!-- Node8 -->
<g id="node8" class="node">
<title>Node8</title>
<g id="a_node8"><a xlink:href="classdenoptim_1_1utils_1_1_size_controlled_set.html" target="_top" xlink:title="Class meant to collect unique strings without leading to memory overflow.">
<polygon fill="white" stroke="black" points="736,-688.5 736,-707.5 892,-707.5 892,-688.5 736,-688.5"/>
<text text-anchor="middle" x="814" y="-695.5" font-family="Helvetica,sans-Serif" font-size="10.00">denoptim.utils.SizeControlledSet</text>
</a>
</g>
</g>
<!-- Node8&#45;&gt;Node1 -->
<g id="edge30" class="edge">
<title>Node8&#45;&gt;Node1</title>
<path fill="none" stroke="#9a32cd" stroke-dasharray="5,2" d="M859.01,-709.68C895.54,-716.99 947.96,-721.85 989,-703 1023.44,-687.18 1048.5,-648.12 1060.35,-626.33"/>
<polygon fill="#9a32cd" stroke="#9a32cd" points="859.66,-706.24 849.15,-707.57 858.19,-713.08 859.66,-706.24"/>
<text text-anchor="middle" x="949.5" y="-719" font-family="Helvetica,sans-Serif" font-size="10.00"> scs</text>
</g>
<!-- Node8&#45;&gt;Node7 -->
<g id="edge8" class="edge">
<title>Node8&#45;&gt;Node7</title>
<path fill="none" stroke="#9a32cd" stroke-dasharray="5,2" d="M889.47,-686.66C930.06,-678.99 974.86,-667.6 989,-653 995.09,-646.71 1050.76,-383.11 1064.8,-316.28"/>
<polygon fill="#9a32cd" stroke="#9a32cd" points="888.73,-683.24 879.53,-688.48 890,-690.12 888.73,-683.24"/>
<text text-anchor="middle" x="949.5" y="-685" font-family="Helvetica,sans-Serif" font-size="10.00"> scs</text>
</g>
<!-- Node9 -->
<g id="node9" class="node">
<title>Node9</title>
<g id="a_node9"><a xlink:title=" ">
<polygon fill="white" stroke="black" points="508.5,-649.5 508.5,-668.5 540.5,-668.5 540.5,-649.5 508.5,-649.5"/>
<text text-anchor="middle" x="524.5" y="-656.5" font-family="Helvetica,sans-Serif" font-size="10.00">File</text>
</a>
</g>
</g>
<!-- Node9&#45;&gt;Node8 -->
<g id="edge9" class="edge">
<title>Node9&#45;&gt;Node8</title>
<path fill="none" stroke="#9a32cd" stroke-dasharray="5,2" d="M550.86,-660.87C587.77,-663.77 658.39,-669.96 718,-679 734.96,-681.57 753.49,-685.11 769.64,-688.44"/>
<polygon fill="#9a32cd" stroke="#9a32cd" points="550.78,-657.35 540.54,-660.08 550.24,-664.33 550.78,-657.35"/>
<text text-anchor="middle" x="665.5" y="-693" font-family="Helvetica,sans-Serif" font-size="10.00"> allData</text>
<text text-anchor="middle" x="665.5" y="-682" font-family="Helvetica,sans-Serif" font-size="10.00">dataOnDisk</text>
</g>
<!-- Node10 -->
<g id="node10" class="node">
<title>Node10</title>
<g id="a_node10"><a xlink:title=" ">
<polygon fill="white" stroke="black" points="487.5,-708.5 487.5,-727.5 561.5,-727.5 561.5,-708.5 487.5,-708.5"/>
<text text-anchor="middle" x="524.5" y="-715.5" font-family="Helvetica,sans-Serif" font-size="10.00">Set&lt; String &gt;</text>
</a>
</g>
</g>
<!-- Node10&#45;&gt;Node1 -->
<g id="edge31" class="edge">
<title>Node10&#45;&gt;Node1</title>
<path fill="none" stroke="#9a32cd" stroke-dasharray="5,2" d="M571.59,-725C674.2,-739.66 918,-769.26 989,-731 1030.72,-708.52 1054.03,-653.31 1063.27,-626.33"/>
<polygon fill="#9a32cd" stroke="#9a32cd" points="571.93,-721.51 561.53,-723.54 570.93,-728.44 571.93,-721.51"/>
<text text-anchor="middle" x="814" y="-752" font-family="Helvetica,sans-Serif" font-size="10.00"> candidatesToRemove</text>
</g>
<!-- Node10&#45;&gt;Node7 -->
<g id="edge11" class="edge">
<title>Node10&#45;&gt;Node7</title>
<path fill="none" stroke="#9a32cd" stroke-dasharray="5,2" d="M571.81,-708.12C627.21,-696.08 713.19,-676.66 718,-671 751.07,-632.12 700.41,-478.59 736,-442 814.84,-360.93 891.75,-472.71 989,-415 1027.72,-392.02 1052.03,-341.78 1062.32,-316.37"/>
<polygon fill="#9a32cd" stroke="#9a32cd" points="570.88,-704.74 561.84,-710.27 572.36,-711.58 570.88,-704.74"/>
<text text-anchor="middle" x="814" y="-445" font-family="Helvetica,sans-Serif" font-size="10.00"> candidatesToRemove</text>
</g>
<!-- Node10&#45;&gt;Node8 -->
<g id="edge10" class="edge">
<title>Node10&#45;&gt;Node8</title>
<path fill="none" stroke="#9a32cd" stroke-dasharray="5,2" d="M571.8,-714.78C616.06,-711.7 683.62,-707 735.99,-703.36"/>
<polygon fill="#9a32cd" stroke="#9a32cd" points="571.35,-711.3 561.62,-715.49 571.84,-718.28 571.35,-711.3"/>
<text text-anchor="middle" x="665.5" y="-714" font-family="Helvetica,sans-Serif" font-size="10.00"> data</text>
</g>
<!-- Node11 -->
<g id="node11" class="node">
<title>Node11</title>
<g id="a_node11"><a xlink:title=" ">
<polygon fill="white" stroke="black" points="776.5,-284.5 776.5,-303.5 851.5,-303.5 851.5,-284.5 776.5,-284.5"/>
<text text-anchor="middle" x="814" y="-291.5" font-family="Helvetica,sans-Serif" font-size="10.00">List&lt; String &gt;</text>
</a>
</g>
</g>
<!-- Node11&#45;&gt;Node1 -->
<g id="edge32" class="edge">
<title>Node11&#45;&gt;Node1</title>
<path fill="none" stroke="#9a32cd" stroke-dasharray="5,2" d="M861.63,-299.68C872.4,-302.65 883.25,-307.17 892,-314 905.17,-324.28 896.86,-336.68 910,-347 938.57,-369.44 962.62,-343.02 989,-368 1056.32,-431.75 1066.37,-553.37 1067.8,-595.88"/>
<polygon fill="#9a32cd" stroke="#9a32cd" points="862.37,-296.26 851.83,-297.35 860.76,-303.07 862.37,-296.26"/>
<text text-anchor="middle" x="949.5" y="-371" font-family="Helvetica,sans-Serif" font-size="10.00"> candidatesToAdd</text>
</g>
<!-- Node11&#45;&gt;Node7 -->
<g id="edge12" class="edge">
<title>Node11&#45;&gt;Node7</title>
<path fill="none" stroke="#9a32cd" stroke-dasharray="5,2" d="M850.93,-281.39C886.24,-270.7 941.57,-258.49 989,-268 1006.49,-271.51 1024.94,-278.98 1039.61,-285.92"/>
<polygon fill="#9a32cd" stroke="#9a32cd" points="849.57,-278.15 841.08,-284.49 851.67,-284.83 849.57,-278.15"/>
<text text-anchor="middle" x="949.5" y="-271" font-family="Helvetica,sans-Serif" font-size="10.00"> candidatesToAdd</text>
</g>
<!-- Node12 -->
<g id="node12" class="node">
<title>Node12</title>
<g id="a_node12"><a xlink:title=" ">
<polygon fill="white" stroke="black" points="463.5,-330.5 463.5,-349.5 585.5,-349.5 585.5,-330.5 463.5,-330.5"/>
<text text-anchor="middle" x="524.5" y="-337.5" font-family="Helvetica,sans-Serif" font-size="10.00">List&lt; Future&lt; Object &gt; &gt;</text>
</a>
</g>
</g>
<!-- Node12&#45;&gt;Node1 -->
<g id="edge33" class="edge">
<title>Node12&#45;&gt;Node1</title>
<path fill="none" stroke="#9a32cd" stroke-dasharray="5,2" d="M538.81,-358.09C569.09,-397.9 647.43,-493.4 736,-542 798.56,-576.33 834.54,-537.69 892,-580 904.52,-589.22 896.49,-602.3 910,-610 938.95,-626.51 976.01,-627.58 1006.96,-624.14"/>
<polygon fill="#9a32cd" stroke="#9a32cd" points="541.42,-355.75 532.62,-349.85 535.82,-359.95 541.42,-355.75"/>
<text text-anchor="middle" x="814" y="-583" font-family="Helvetica,sans-Serif" font-size="10.00"> futures</text>
</g>
<!-- Node12&#45;&gt;Node7 -->
<g id="edge13" class="edge">
<title>Node12&#45;&gt;Node7</title>
<path fill="none" stroke="#9a32cd" stroke-dasharray="5,2" d="M595.81,-335.78C634.87,-330.44 682.59,-318.68 718,-293 730.28,-284.09 722.83,-271.53 736,-264 803.16,-225.62 832.65,-260.89 910,-260 945.11,-259.6 954.89,-251.68 989,-260 1009.57,-265.02 1030.75,-276.41 1045.99,-285.91"/>
<polygon fill="#9a32cd" stroke="#9a32cd" points="595.04,-332.35 585.56,-337.06 595.91,-339.29 595.04,-332.35"/>
<text text-anchor="middle" x="814" y="-267" font-family="Helvetica,sans-Serif" font-size="10.00"> futures</text>
</g>
<!-- Node15 -->
<g id="node15" class="node">
<title>Node15</title>
<g id="a_node15"><a xlink:href="classdenoptim_1_1task_1_1_tasks_batch_manager.html" target="_top" xlink:title="Class that manages the submission of a batch of tasks.">
<polygon fill="white" stroke="black" points="748,-323 748,-353 880,-353 880,-323 748,-323"/>
<text text-anchor="start" x="756" y="-341" font-family="Helvetica,sans-Serif" font-size="10.00">denoptim.task.TasksBatch</text>
<text text-anchor="middle" x="814" y="-330" font-family="Helvetica,sans-Serif" font-size="10.00">Manager</text>
</a>
</g>
</g>
<!-- Node12&#45;&gt;Node15 -->
<g id="edge19" class="edge">
<title>Node12&#45;&gt;Node15</title>
<path fill="none" stroke="#9a32cd" stroke-dasharray="5,2" d="M596.03,-339.51C642.38,-339.19 702.58,-338.77 747.81,-338.45"/>
<polygon fill="#9a32cd" stroke="#9a32cd" points="595.74,-336.01 585.77,-339.58 595.79,-343.01 595.74,-336.01"/>
<text text-anchor="middle" x="665.5" y="-342" font-family="Helvetica,sans-Serif" font-size="10.00"> futures</text>
</g>
<!-- Node13 -->
<g id="node13" class="node">
<title>Node13</title>
<g id="a_node13"><a xlink:title=" ">
<polygon fill="white" stroke="black" points="750.5,-462 750.5,-492 877.5,-492 877.5,-462 750.5,-462"/>
<text text-anchor="start" x="758.5" y="-480" font-family="Helvetica,sans-Serif" font-size="10.00">ArrayList&lt; denoptim.task.</text>
<text text-anchor="middle" x="814" y="-469" font-family="Helvetica,sans-Serif" font-size="10.00">FitnessTask &gt;</text>
</a>
</g>
</g>
<!-- Node13&#45;&gt;Node1 -->
<g id="edge34" class="edge">
<title>Node13&#45;&gt;Node1</title>
<path fill="none" stroke="#9a32cd" stroke-dasharray="5,2" d="M882.95,-497.12C886.16,-499.2 889.2,-501.48 892,-504 905.89,-516.5 895.64,-530.05 910,-542 937.92,-565.24 955.58,-548.76 989,-563 1009.67,-571.81 1031.36,-585.34 1046.77,-595.79"/>
<polygon fill="#9a32cd" stroke="#9a32cd" points="884.53,-494 874.11,-492.11 881.08,-500.09 884.53,-494"/>
<text text-anchor="middle" x="949.5" y="-566" font-family="Helvetica,sans-Serif" font-size="10.00"> submitted</text>
</g>
<!-- Node13&#45;&gt;Node7 -->
<g id="edge14" class="edge">
<title>Node13&#45;&gt;Node7</title>
<path fill="none" stroke="#9a32cd" stroke-dasharray="5,2" d="M887.63,-464.44C931.47,-456.35 980.48,-446.23 989,-440 1032.23,-408.36 1055.18,-345.42 1063.86,-316.36"/>
<polygon fill="#9a32cd" stroke="#9a32cd" points="887,-460.99 877.79,-466.23 888.26,-467.88 887,-460.99"/>
<text text-anchor="middle" x="949.5" y="-463" font-family="Helvetica,sans-Serif" font-size="10.00"> submitted</text>
</g>
<!-- Node14 -->
<g id="node14" class="node">
<title>Node14</title>
<g id="a_node14"><a xlink:title=" ">
<polygon fill="white" stroke="black" points="762,-513.5 762,-532.5 866,-532.5 866,-513.5 762,-513.5"/>
<text text-anchor="middle" x="814" y="-520.5" font-family="Helvetica,sans-Serif" font-size="10.00">ThreadPoolExecutor</text>
</a>
</g>
</g>
<!-- Node14&#45;&gt;Node1 -->
<g id="edge35" class="edge">
<title>Node14&#45;&gt;Node1</title>
<path fill="none" stroke="#9a32cd" stroke-dasharray="5,2" d="M871.32,-536.21C878.69,-539.36 885.82,-543.23 892,-548 903.72,-557.03 897.86,-567.54 910,-576 918.18,-581.7 965.9,-591.85 1006.78,-599.75"/>
<polygon fill="#9a32cd" stroke="#9a32cd" points="872.51,-532.92 861.92,-532.61 870,-539.45 872.51,-532.92"/>
<text text-anchor="middle" x="949.5" y="-598" font-family="Helvetica,sans-Serif" font-size="10.00"> tpe</text>
</g>
<!-- Node14&#45;&gt;Node7 -->
<g id="edge15" class="edge">
<title>Node14&#45;&gt;Node7</title>
<path fill="none" stroke="#9a32cd" stroke-dasharray="5,2" d="M860.1,-510.82C870.58,-507.96 881.69,-504.89 892,-502 894.7,-501.24 986.88,-475.83 989,-474 1039,-430.87 1059.09,-349.54 1065.49,-316.02"/>
<polygon fill="#9a32cd" stroke="#9a32cd" points="859.02,-507.49 850.3,-513.49 860.86,-514.24 859.02,-507.49"/>
<text text-anchor="middle" x="949.5" y="-499" font-family="Helvetica,sans-Serif" font-size="10.00"> tpe</text>
</g>
<!-- Node15&#45;&gt;Node1 -->
<g id="edge36" class="edge">
<title>Node15&#45;&gt;Node1</title>
<path fill="none" stroke="#9a32cd" stroke-dasharray="5,2" d="M857.65,-357.44C905.93,-379.74 979.19,-414.56 989,-425 1037.17,-476.26 1058.35,-561.32 1065.26,-595.79"/>
<polygon fill="#9a32cd" stroke="#9a32cd" points="858.91,-354.16 848.36,-353.16 855.98,-360.52 858.91,-354.16"/>
<text text-anchor="middle" x="949.5" y="-428" font-family="Helvetica,sans-Serif" font-size="10.00"> tbm</text>
</g>
<!-- Node15&#45;&gt;Node7 -->
<g id="edge16" class="edge">
<title>Node15&#45;&gt;Node7</title>
<path fill="none" stroke="#9a32cd" stroke-dasharray="5,2" d="M876.55,-319.46C881.84,-317.44 887.05,-315.28 892,-313 900.52,-309.08 900.98,-304.57 910,-302 941.13,-293.13 977.13,-292.23 1006.9,-293.83"/>
<polygon fill="#9a32cd" stroke="#9a32cd" points="875.18,-316.24 867,-322.96 877.59,-322.81 875.18,-316.24"/>
<text text-anchor="middle" x="949.5" y="-305" font-family="Helvetica,sans-Serif" font-size="10.00"> tbm</text>
</g>
<!-- Node16 -->
<g id="node16" class="node">
<title>Node16</title>
<g id="a_node16"><a xlink:title=" ">
<polygon fill="white" stroke="black" points="461,-276 461,-306 588,-306 588,-276 461,-276"/>
<text text-anchor="start" x="469" y="-294" font-family="Helvetica,sans-Serif" font-size="10.00">ArrayList&lt; denoptim.task.</text>
<text text-anchor="middle" x="524.5" y="-283" font-family="Helvetica,sans-Serif" font-size="10.00">Task &gt;</text>
</a>
</g>
</g>
<!-- Node16&#45;&gt;Node15 -->
<g id="edge17" class="edge">
<title>Node16&#45;&gt;Node15</title>
<path fill="none" stroke="#9a32cd" stroke-dasharray="5,2" d="M598.16,-302.88C644.24,-310.41 703.35,-320.08 747.9,-327.36"/>
<polygon fill="#9a32cd" stroke="#9a32cd" points="598.67,-299.42 588.24,-301.26 597.54,-306.32 598.67,-299.42"/>
<text text-anchor="middle" x="665.5" y="-324" font-family="Helvetica,sans-Serif" font-size="10.00"> taskList</text>
</g>
<!-- Node17 -->
<g id="node17" class="node">
<title>Node17</title>
<g id="a_node17"><a xlink:title=" ">
<polygon fill="white" stroke="black" points="481,-237.5 481,-256.5 568,-256.5 568,-237.5 481,-237.5"/>
<text text-anchor="middle" x="524.5" y="-244.5" font-family="Helvetica,sans-Serif" font-size="10.00">ExecutorService</text>
</a>
</g>
</g>
<!-- Node17&#45;&gt;Node15 -->
<g id="edge18" class="edge">
<title>Node17&#45;&gt;Node15</title>
<path fill="none" stroke="#9a32cd" stroke-dasharray="5,2" d="M578.31,-249.81C619.1,-254.08 675.56,-264.69 718,-291 728.74,-297.66 725.57,-305.87 736,-313 741.57,-316.81 747.76,-320.06 754.14,-322.85"/>
<polygon fill="#9a32cd" stroke="#9a32cd" points="578.58,-246.32 568.29,-248.86 577.92,-253.29 578.58,-246.32"/>
<text text-anchor="middle" x="665.5" y="-294" font-family="Helvetica,sans-Serif" font-size="10.00"> eservice</text>
</g>
<!-- Node18 -->
<g id="node18" class="node">
<title>Node18</title>
<g id="a_node18"><a xlink:href="classdenoptim_1_1programs_1_1denovo_1_1_g_a_parameters.html" target="_top" xlink:title="Parameters for genetic algorithm.">
<polygon fill="white" stroke="black" points="746.5,-600 746.5,-630 881.5,-630 881.5,-600 746.5,-600"/>
<text text-anchor="start" x="754.5" y="-618" font-family="Helvetica,sans-Serif" font-size="10.00">denoptim.programs.denovo.</text>
<text text-anchor="middle" x="814" y="-607" font-family="Helvetica,sans-Serif" font-size="10.00">GAParameters</text>
</a>
</g>
</g>
<!-- Node18&#45;&gt;Node1 -->
<g id="edge37" class="edge">
<title>Node18&#45;&gt;Node1</title>
<path fill="none" stroke="#9a32cd" stroke-dasharray="5,2" d="M887.29,-631.84C894.92,-633.13 902.6,-634.23 910,-635 944.92,-638.64 954.27,-640.16 989,-635 1001.48,-633.15 1014.71,-629.73 1026.71,-626.05"/>
<polygon fill="#9a32cd" stroke="#9a32cd" points="887.77,-628.37 877.31,-630.04 886.53,-635.26 887.77,-628.37"/>
<text text-anchor="middle" x="949.5" y="-641" font-family="Helvetica,sans-Serif" font-size="10.00"> settings</text>
</g>
<!-- Node18&#45;&gt;Node7 -->
<g id="edge20" class="edge">
<title>Node18&#45;&gt;Node7</title>
<path fill="none" stroke="#9a32cd" stroke-dasharray="5,2" d="M880.03,-594.93C884.4,-592.05 888.46,-588.76 892,-585 909.92,-565.96 891.05,-547.01 910,-529 936.34,-503.98 962,-532.31 989,-508 1047.6,-455.24 1063.01,-354.24 1066.82,-316.09"/>
<polygon fill="#9a32cd" stroke="#9a32cd" points="878.2,-591.95 871.31,-600 881.71,-598.01 878.2,-591.95"/>
<text text-anchor="middle" x="949.5" y="-532" font-family="Helvetica,sans-Serif" font-size="10.00"> settings</text>
</g>
<!-- Node19 -->
<g id="node19" class="node">
<title>Node19</title>
<g id="a_node19"><a xlink:href="classdenoptim_1_1programs_1_1_run_time_parameters.html" target="_top" xlink:title="Collection of parameters controlling the behavior of the software.">
<polygon fill="white" stroke="black" points="454.5,-600 454.5,-630 594.5,-630 594.5,-600 454.5,-600"/>
<text text-anchor="start" x="462.5" y="-618" font-family="Helvetica,sans-Serif" font-size="10.00">denoptim.programs.RunTime</text>
<text text-anchor="middle" x="524.5" y="-607" font-family="Helvetica,sans-Serif" font-size="10.00">Parameters</text>
</a>
</g>
</g>
<!-- Node19&#45;&gt;Node18 -->
<g id="edge21" class="edge">
<title>Node19&#45;&gt;Node18</title>
<path fill="none" stroke="midnightblue" d="M604.92,-615C649.37,-615 704.15,-615 746.35,-615"/>
<polygon fill="midnightblue" stroke="midnightblue" points="604.73,-611.5 594.73,-615 604.73,-618.5 604.73,-611.5"/>
</g>
<!-- Node20 -->
<g id="node20" class="node">
<title>Node20</title>
<g id="a_node20"><a xlink:title=" ">
<polygon fill="white" stroke="black" points="219,-359.5 219,-378.5 266,-378.5 266,-359.5 219,-359.5"/>
<text text-anchor="middle" x="242.5" y="-366.5" font-family="Helvetica,sans-Serif" font-size="10.00">Logger</text>
</a>
</g>
</g>
<!-- Node20&#45;&gt;Node1 -->
<g id="edge38" class="edge">
<title>Node20&#45;&gt;Node1</title>
<path fill="none" stroke="#9a32cd" stroke-dasharray="5,2" d="M254.4,-387.95C274.31,-423.2 316.89,-501.67 343,-572 354.03,-601.71 345.46,-613.38 361,-641 390.12,-692.78 400.47,-711.25 454,-737 668.37,-840.12 791.07,-884.96 989,-753 1034.77,-722.48 1056.65,-656.07 1064.48,-626.15"/>
<polygon fill="#9a32cd" stroke="#9a32cd" points="257.19,-385.78 249.2,-378.82 251.11,-389.25 257.19,-385.78"/>
<text text-anchor="middle" x="665.5" y="-834" font-family="Helvetica,sans-Serif" font-size="10.00"> logger</text>
</g>
<!-- Node20&#45;&gt;Node2 -->
<g id="edge29" class="edge">
<title>Node20&#45;&gt;Node2</title>
<path fill="none" stroke="#9a32cd" stroke-dasharray="5,2" d="M249.58,-349.79C268.71,-293.15 333.59,-126.91 454,-65 568.92,-5.91 727.99,-85 788.4,-119.92"/>
<polygon fill="#9a32cd" stroke="#9a32cd" points="246.25,-348.72 246.46,-359.32 252.9,-350.91 246.25,-348.72"/>
<text text-anchor="middle" x="524.5" y="-68" font-family="Helvetica,sans-Serif" font-size="10.00"> logger</text>
</g>
<!-- Node20&#45;&gt;Node7 -->
<g id="edge28" class="edge">
<title>Node20&#45;&gt;Node7</title>
<path fill="none" stroke="#9a32cd" stroke-dasharray="5,2" d="M260.89,-351.91C294.65,-320.06 372.91,-252.65 454,-228 501.38,-213.6 775.4,-233.25 892,-242 935.22,-245.24 947.98,-238 989,-252 1011.3,-259.61 1033.86,-274.48 1049.13,-285.85"/>
<polygon fill="#9a32cd" stroke="#9a32cd" points="258.08,-349.74 253.29,-359.19 262.93,-354.8 258.08,-349.74"/>
<text text-anchor="middle" x="665.5" y="-233" font-family="Helvetica,sans-Serif" font-size="10.00"> logger</text>
</g>
<!-- Node20&#45;&gt;Node19 -->
<g id="edge22" class="edge">
<title>Node20&#45;&gt;Node19</title>
<path fill="none" stroke="#9a32cd" stroke-dasharray="5,2" d="M255.72,-386.87C285.09,-428.54 363.92,-532.98 454,-591 459.26,-594.39 465.05,-597.36 470.98,-599.95"/>
<polygon fill="#9a32cd" stroke="#9a32cd" points="258.51,-384.75 249.92,-378.54 252.76,-388.75 258.51,-384.75"/>
<text text-anchor="middle" x="398.5" y="-579" font-family="Helvetica,sans-Serif" font-size="10.00"> logger</text>
</g>
<!-- Node21 -->
<g id="node21" class="node">
<title>Node21</title>
<g id="a_node21"><a xlink:href="classdenoptim_1_1utils_1_1_randomizer.html" target="_top" xlink:title="Tool to generate random numbers and random decisions.">
<polygon fill="white" stroke="black" points="177.5,-581.5 177.5,-600.5 307.5,-600.5 307.5,-581.5 177.5,-581.5"/>
<text text-anchor="middle" x="242.5" y="-588.5" font-family="Helvetica,sans-Serif" font-size="10.00">denoptim.utils.Randomizer</text>
</a>
</g>
</g>
<!-- Node21&#45;&gt;Node19 -->
<g id="edge23" class="edge">
<title>Node21&#45;&gt;Node19</title>
<path fill="none" stroke="#9a32cd" stroke-dasharray="5,2" d="M318.04,-596.38C353.75,-599.06 397.11,-602.48 436,-606 441.93,-606.54 448.09,-607.12 454.26,-607.72"/>
<polygon fill="#9a32cd" stroke="#9a32cd" points="317.93,-592.86 307.7,-595.6 317.41,-599.84 317.93,-592.86"/>
<text text-anchor="middle" x="398.5" y="-609" font-family="Helvetica,sans-Serif" font-size="10.00"> rng</text>
</g>
<!-- Node22 -->
<g id="node22" class="node">
<title>Node22</title>
<g id="a_node22"><a xlink:title=" ">
<polygon fill="white" stroke="black" points="0,-581.5 0,-600.5 92,-600.5 92,-581.5 0,-581.5"/>
<text text-anchor="middle" x="46" y="-588.5" font-family="Helvetica,sans-Serif" font-size="10.00">MersenneTwister</text>
</a>
</g>
</g>
<!-- Node22&#45;&gt;Node21 -->
<g id="edge24" class="edge">
<title>Node22&#45;&gt;Node21</title>
<path fill="none" stroke="#9a32cd" stroke-dasharray="5,2" d="M102.23,-591C125.67,-591 153.15,-591 177.48,-591"/>
<polygon fill="#9a32cd" stroke="#9a32cd" points="102.11,-587.5 92.11,-591 102.11,-594.5 102.11,-587.5"/>
<text text-anchor="middle" x="117" y="-594" font-family="Helvetica,sans-Serif" font-size="10.00"> mt</text>
</g>
<!-- Node23 -->
<g id="node23" class="node">
<title>Node23</title>
<g id="a_node23"><a xlink:title=" ">
<polygon fill="white" stroke="black" points="142,-801.5 142,-842.5 343,-842.5 343,-801.5 142,-801.5"/>
<text text-anchor="start" x="150" y="-830.5" font-family="Helvetica,sans-Serif" font-size="10.00">Map&lt; denoptim.programs.Run</text>
<text text-anchor="start" x="150" y="-819.5" font-family="Helvetica,sans-Serif" font-size="10.00">TimeParameters.ParametersType,</text>
<text text-anchor="middle" x="242.5" y="-808.5" font-family="Helvetica,sans-Serif" font-size="10.00"> denoptim.programs.RunTimeParameters &gt;</text>
</a>
</g>
</g>
<!-- Node23&#45;&gt;Node19 -->
<g id="edge25" class="edge">
<title>Node23&#45;&gt;Node19</title>
<path fill="none" stroke="#9a32cd" stroke-dasharray="5,2" d="M269.17,-794.09C306.51,-754.91 379.52,-683.55 454,-640 460.31,-636.31 467.25,-633.02 474.24,-630.15"/>
<polygon fill="#9a32cd" stroke="#9a32cd" points="266.51,-791.8 262.19,-801.48 271.6,-796.61 266.51,-791.8"/>
<text text-anchor="middle" x="398.5" y="-709" font-family="Helvetica,sans-Serif" font-size="10.00"> otherParameters</text>
</g>
<!-- Node24 -->
<g id="node24" class="node">
<title>Node24</title>
<g id="a_node24"><a xlink:href="enumdenoptim_1_1programs_1_1_run_time_parameters_1_1_parameters_type.html" target="_top" xlink:title="Identifier of the type of parameters.">
<polygon fill="white" stroke="black" points="172.5,-620 172.5,-650 312.5,-650 312.5,-620 172.5,-620"/>
<text text-anchor="start" x="180.5" y="-638" font-family="Helvetica,sans-Serif" font-size="10.00">denoptim.programs.RunTime</text>
<text text-anchor="middle" x="242.5" y="-627" font-family="Helvetica,sans-Serif" font-size="10.00">Parameters.ParametersType</text>
</a>
</g>
</g>
<!-- Node24&#45;&gt;Node19 -->
<g id="edge26" class="edge">
<title>Node24&#45;&gt;Node19</title>
<path fill="none" stroke="#9a32cd" stroke-dasharray="5,2" d="M322.76,-629.34C364.13,-626.38 414.29,-622.8 454.11,-619.96"/>
<polygon fill="#9a32cd" stroke="#9a32cd" points="322.44,-625.85 312.71,-630.06 322.94,-632.83 322.44,-625.85"/>
<text text-anchor="middle" x="398.5" y="-629" font-family="Helvetica,sans-Serif" font-size="10.00"> paramType</text>
</g>
<!-- Node25 -->
<g id="node25" class="node">
<title>Node25</title>
<g id="a_node25"><a xlink:title=" ">
<polygon fill="white" stroke="black" points="454,-551 454,-581 595,-581 595,-551 454,-551"/>
<text text-anchor="start" x="462" y="-569" font-family="Helvetica,sans-Serif" font-size="10.00">List&lt; denoptim.utils.Mutation</text>
<text text-anchor="middle" x="524.5" y="-558" font-family="Helvetica,sans-Serif" font-size="10.00">Type &gt;</text>
</a>
</g>
</g>
<!-- Node25&#45;&gt;Node18 -->
<g id="edge27" class="edge">
<title>Node25&#45;&gt;Node18</title>
<path fill="none" stroke="#9a32cd" stroke-dasharray="5,2" d="M604.97,-579.54C649.29,-587.1 703.89,-596.4 746.02,-603.59"/>
<polygon fill="#9a32cd" stroke="#9a32cd" points="605.54,-576.09 595.1,-577.86 604.37,-582.99 605.54,-576.09"/>
<text text-anchor="middle" x="665.5" y="-600" font-family="Helvetica,sans-Serif" font-size="10.00"> excludedMutationTypes</text>
</g>
</g>
</svg>
        <g id="navigator" transform="translate(0 0)" fill="#404254">
                <rect fill="#f2f5e9" fill-opacity="0.5" stroke="#606060" stroke-width=".5" x="0" y="0" width="60" height="60"/>
                <use id="zoomplus" xlink:href="#zoomPlus" x="17" y="9" onmousedown="handleZoom(evt,'in')"/>
                <use id="zoomminus" xlink:href="#zoomMin" x="42" y="9" onmousedown="handleZoom(evt,'out')"/>
                <use id="reset" xlink:href="#resetDef" x="30" y="36" onmousedown="handleReset()"/>
                <g id="arrowUp" xlink:href="#dirArrow" transform="translate(30 24)" onmousedown="handlePan(0,-1)">
                  <use xlink:href="#rim" fill="#404040">
                        <set attributeName="fill" to="#808080" begin="arrowUp.mouseover" end="arrowUp.mouseout"/>
                  </use>
                  <path fill="none" stroke="white" stroke-width="1.5" d="M0,-3.0v7 M-2.5,-0.5L0,-3.0L2.5,-0.5"/>
                </g>
                <g id="arrowRight" xlink:href="#dirArrow" transform="rotate(90) translate(36 -43)" onmousedown="handlePan(1,0)">
                  <use xlink:href="#rim" fill="#404040">
                        <set attributeName="fill" to="#808080" begin="arrowRight.mouseover" end="arrowRight.mouseout"/>
                  </use>
                  <path fill="none" stroke="white" stroke-width="1.5" d="M0,-3.0v7 M-2.5,-0.5L0,-3.0L2.5,-0.5"/>
                </g>
                <g id="arrowDown" xlink:href="#dirArrow" transform="rotate(180) translate(-30 -48)" onmousedown="handlePan(0,1)">
                  <use xlink:href="#rim" fill="#404040">
                        <set attributeName="fill" to="#808080" begin="arrowDown.mouseover" end="arrowDown.mouseout"/>
                  </use>
                  <path fill="none" stroke="white" stroke-width="1.5" d="M0,-3.0v7 M-2.5,-0.5L0,-3.0L2.5,-0.5"/>
                </g>
                <g id="arrowLeft" xlink:href="#dirArrow" transform="rotate(270) translate(-36 17)" onmousedown="handlePan(-1,0)">
                  <use xlink:href="#rim" fill="#404040">
                        <set attributeName="fill" to="#808080" begin="arrowLeft.mouseover" end="arrowLeft.mouseout"/>
                  </use>
                  <path fill="none" stroke="white" stroke-width="1.5" d="M0,-3.0v7 M-2.5,-0.5L0,-3.0L2.5,-0.5"/>
                </g>
        </g>
        <svg viewBox="0 0 15 15" width="100%" height="30px" preserveAspectRatio="xMaxYMin meet">
         <g id="arrow_out" transform="scale(0.3 0.3)">
          <a xlink:href="classdenoptim_1_1ga_1_1_evolutionary_algorithm__coll__graph_org.svg" target="_base">
           <rect id="button" ry="5" rx="5" y="6" x="6" height="38" width="38"
                fill="#f2f5e9" fill-opacity="0.5" stroke="#606060" stroke-width="1.0"/>
           <path id="arrow"
             d="M 11.500037,31.436501 C 11.940474,20.09759 22.043105,11.32322 32.158766,21.979434 L 37.068811,17.246167 C 37.068811,17.246167 37.088388,32 37.088388,32 L 22.160133,31.978069 C 22.160133,31.978069 26.997745,27.140456 26.997745,27.140456 C 18.528582,18.264221 13.291696,25.230495 11.500037,31.436501 z"
             style="fill:#404040;"/>
          </a>
         </g>
        </svg>
</svg>
