<?xml version="1.0" encoding="UTF-8" standalone="no"?>
<!DOCTYPE svg PUBLIC "-//W3C//DTD SVG 1.1//EN"
 "http://www.w3.org/Graphics/SVG/1.1/DTD/svg11.dtd">
<!-- Generated by graphviz version 3.0.0 (20220413.0242)
 -->
<!-- Title: denoptim.graph.DGraph.sameAs Pages: 1 -->
<svg width="542pt" height="716pt"
 viewBox="0.00 0.00 542.00 716.00" xmlns="http://www.w3.org/2000/svg" xmlns:xlink="http://www.w3.org/1999/xlink">
<g id="graph0" class="graph" transform="scale(1 1) rotate(0) translate(4 712)">
<title>denoptim.graph.DGraph.sameAs</title>
<polygon fill="white" stroke="transparent" points="-4,4 -4,-712 538,-712 538,4 -4,4"/>
<!-- Node1 -->
<g id="node1" class="node">
<title>Node1</title>
<g id="a_node1"><a xlink:title="Compare this and another graph ignoring the vertex IDs.">
<polygon fill="#bfbfbf" stroke="black" points="0,-346 0,-365 156,-365 156,-346 0,-346"/>
<text text-anchor="middle" x="78" y="-353" font-family="Helvetica,sans-Serif" font-size="10.00">denoptim.graph.DGraph.sameAs</text>
</a>
</g>
</g>
<!-- Node2 -->
<g id="node2" class="node">
<title>Node2</title>
<g id="a_node2"><a xlink:href="classdenoptim_1_1graph_1_1_d_graph.html#a6691d1a16abf0588873c4b7085696b4c" target="_top" xlink:title="Compares graphs by spanning vertices starting from the given vertex and following the direction of ed...">
<polygon fill="white" stroke="black" points="192,-659.5 192,-689.5 350,-689.5 350,-659.5 192,-659.5"/>
<text text-anchor="start" x="200" y="-677.5" font-family="Helvetica,sans-Serif" font-size="10.00">denoptim.graph.DGraph.compare</text>
<text text-anchor="middle" x="271" y="-666.5" font-family="Helvetica,sans-Serif" font-size="10.00">GraphNodes</text>
</a>
</g>
</g>
<!-- Node1&#45;&gt;Node2 -->
<g id="edge1" class="edge">
<title>Node1&#45;&gt;Node2</title>
<path fill="none" stroke="midnightblue" d="M79.72,-365.05C83.31,-405.85 102.86,-567.17 192,-650.5 193.13,-651.56 194.31,-652.57 195.53,-653.54"/>
<polygon fill="midnightblue" stroke="midnightblue" points="193.82,-656.61 204.07,-659.29 197.74,-650.8 193.82,-656.61"/>
</g>
<!-- Node3 -->
<g id="node3" class="node">
<title>Node3</title>
<g id="a_node3"><a xlink:href="classdenoptim_1_1graph_1_1_symmetric_set.html#a996e43fbd782c22c7846dc65d9cd78f1" target="_top" xlink:title="Checks whether the given identifiers is contained in this set.">
<polygon fill="white" stroke="black" points="205.5,-610.5 205.5,-640.5 336.5,-640.5 336.5,-610.5 205.5,-610.5"/>
<text text-anchor="start" x="213.5" y="-628.5" font-family="Helvetica,sans-Serif" font-size="10.00">denoptim.graph.Symmetric</text>
<text text-anchor="middle" x="271" y="-617.5" font-family="Helvetica,sans-Serif" font-size="10.00">Set.contains</text>
</a>
</g>
</g>
<!-- Node1&#45;&gt;Node3 -->
<g id="edge3" class="edge">
<title>Node1&#45;&gt;Node3</title>
<path fill="none" stroke="midnightblue" d="M80.55,-365.18C86.92,-401.87 114.57,-533.68 192,-601.5 193.52,-602.83 195.11,-604.09 196.76,-605.27"/>
<polygon fill="midnightblue" stroke="midnightblue" points="195.11,-608.37 205.46,-610.65 198.79,-602.41 195.11,-608.37"/>
</g>
<!-- Node4 -->
<g id="node4" class="node">
<title>Node4</title>
<g id="a_node4"><a xlink:href="classdenoptim_1_1graph_1_1_symmetric_set.html#acddbf0a15082992a109339a5f0857e10" target="_top" xlink:title="Return a specific identifier contained in this &quot;set&quot; (a list in reality).">
<polygon fill="white" stroke="black" points="205.5,-561.5 205.5,-591.5 336.5,-591.5 336.5,-561.5 205.5,-561.5"/>
<text text-anchor="start" x="213.5" y="-579.5" font-family="Helvetica,sans-Serif" font-size="10.00">denoptim.graph.Symmetric</text>
<text text-anchor="middle" x="271" y="-568.5" font-family="Helvetica,sans-Serif" font-size="10.00">Set.get</text>
</a>
</g>
</g>
<!-- Node1&#45;&gt;Node4 -->
<g id="edge4" class="edge">
<title>Node1&#45;&gt;Node4</title>
<path fill="none" stroke="midnightblue" d="M81.8,-365.41C91.41,-397.55 126.09,-499.82 192,-552.5 193.75,-553.9 195.59,-555.22 197.49,-556.46"/>
<polygon fill="midnightblue" stroke="midnightblue" points="195.77,-559.51 206.18,-561.44 199.24,-553.43 195.77,-559.51"/>
</g>
<!-- Node5 -->
<g id="node5" class="node">
<title>Node5</title>
<g id="a_node5"><a xlink:href="classdenoptim_1_1graph_1_1_d_graph.html#a559b3bd2aa8849d8d58430afcb20b016" target="_top" xlink:title=" ">
<polygon fill="white" stroke="black" points="204,-512.5 204,-542.5 338,-542.5 338,-512.5 204,-512.5"/>
<text text-anchor="start" x="212" y="-530.5" font-family="Helvetica,sans-Serif" font-size="10.00">denoptim.graph.DGraph.get</text>
<text text-anchor="middle" x="271" y="-519.5" font-family="Helvetica,sans-Serif" font-size="10.00">EdgeCount</text>
</a>
</g>
</g>
<!-- Node1&#45;&gt;Node5 -->
<g id="edge5" class="edge">
<title>Node1&#45;&gt;Node5</title>
<path fill="none" stroke="midnightblue" d="M83.61,-365.1C96.71,-391.38 136.83,-465.06 192,-503.5 194.14,-504.99 196.37,-506.39 198.67,-507.7"/>
<polygon fill="midnightblue" stroke="midnightblue" points="197.34,-510.95 207.84,-512.36 200.51,-504.71 197.34,-510.95"/>
</g>
<!-- Node6 -->
<g id="node6" class="node">
<title>Node6</title>
<g id="a_node6"><a xlink:href="classdenoptim_1_1graph_1_1_d_graph.html#a3b85d3e24edffe6e9cb5722718054f5b" target="_top" xlink:title=" ">
<polygon fill="white" stroke="black" points="204,-463.5 204,-493.5 338,-493.5 338,-463.5 204,-463.5"/>
<text text-anchor="start" x="212" y="-481.5" font-family="Helvetica,sans-Serif" font-size="10.00">denoptim.graph.DGraph.get</text>
<text text-anchor="middle" x="271" y="-470.5" font-family="Helvetica,sans-Serif" font-size="10.00">RingCount</text>
</a>
</g>
</g>
<!-- Node1&#45;&gt;Node6 -->
<g id="edge6" class="edge">
<title>Node1&#45;&gt;Node6</title>
<path fill="none" stroke="midnightblue" d="M87.36,-365.16C104.84,-384.79 147.36,-429.59 192,-454.5 195.22,-456.3 198.59,-457.98 202.05,-459.54"/>
<polygon fill="midnightblue" stroke="midnightblue" points="200.79,-462.81 211.37,-463.44 203.49,-456.35 200.79,-462.81"/>
</g>
<!-- Node7 -->
<g id="node7" class="node">
<title>Node7</title>
<g id="a_node7"><a xlink:href="classdenoptim_1_1graph_1_1_d_graph.html#abca37ac76270225e885ec800d170243b" target="_top" xlink:title=" ">
<polygon fill="white" stroke="black" points="204,-414.5 204,-444.5 338,-444.5 338,-414.5 204,-414.5"/>
<text text-anchor="start" x="212" y="-432.5" font-family="Helvetica,sans-Serif" font-size="10.00">denoptim.graph.DGraph.get</text>
<text text-anchor="middle" x="271" y="-421.5" font-family="Helvetica,sans-Serif" font-size="10.00">Rings</text>
</a>
</g>
</g>
<!-- Node1&#45;&gt;Node7 -->
<g id="edge7" class="edge">
<title>Node1&#45;&gt;Node7</title>
<path fill="none" stroke="midnightblue" d="M98.71,-365.07C121.03,-375.71 158.64,-393.04 192,-405.5 197.23,-407.45 202.69,-409.37 208.19,-411.22"/>
<polygon fill="midnightblue" stroke="midnightblue" points="207.51,-414.68 218.1,-414.47 209.69,-408.03 207.51,-414.68"/>
</g>
<!-- Node8 -->
<g id="node8" class="node">
<title>Node8</title>
<g id="a_node8"><a xlink:href="classdenoptim_1_1graph_1_1_d_graph.html#a3334159ed57d53d1e29bd34f31bfc9a4" target="_top" xlink:title="Returns the list of rings that include the given vertex in their fundamental cycle.">
<polygon fill="white" stroke="black" points="204,-365.5 204,-395.5 338,-395.5 338,-365.5 204,-365.5"/>
<text text-anchor="start" x="212" y="-383.5" font-family="Helvetica,sans-Serif" font-size="10.00">denoptim.graph.DGraph.get</text>
<text text-anchor="middle" x="271" y="-372.5" font-family="Helvetica,sans-Serif" font-size="10.00">RingsInvolvingVertex</text>
</a>
</g>
</g>
<!-- Node1&#45;&gt;Node8 -->
<g id="edge8" class="edge">
<title>Node1&#45;&gt;Node8</title>
<path fill="none" stroke="midnightblue" d="M151.75,-365.02C165.5,-366.82 179.91,-368.71 193.75,-370.52"/>
<polygon fill="midnightblue" stroke="midnightblue" points="193.35,-374 203.72,-371.82 194.26,-367.06 193.35,-374"/>
</g>
<!-- Node9 -->
<g id="node9" class="node">
<title>Node9</title>
<g id="a_node9"><a xlink:href="classdenoptim_1_1graph_1_1_d_graph.html#a16fdf30d1117873f1c441f15b354a9e2" target="_top" xlink:title="Returns the number of symmetric sets of vertices.">
<polygon fill="white" stroke="black" points="204,-316.5 204,-346.5 338,-346.5 338,-316.5 204,-316.5"/>
<text text-anchor="start" x="212" y="-334.5" font-family="Helvetica,sans-Serif" font-size="10.00">denoptim.graph.DGraph.get</text>
<text text-anchor="middle" x="271" y="-323.5" font-family="Helvetica,sans-Serif" font-size="10.00">SymmetricSetCount</text>
</a>
</g>
</g>
<!-- Node1&#45;&gt;Node9 -->
<g id="edge9" class="edge">
<title>Node1&#45;&gt;Node9</title>
<path fill="none" stroke="midnightblue" d="M154.76,-345.98C167.58,-344.37 180.9,-342.7 193.73,-341.08"/>
<polygon fill="midnightblue" stroke="midnightblue" points="194.42,-344.52 203.9,-339.81 193.54,-337.58 194.42,-344.52"/>
</g>
<!-- Node10 -->
<g id="node10" class="node">
<title>Node10</title>
<g id="a_node10"><a xlink:href="classdenoptim_1_1graph_1_1_d_graph.html#a20f42db327541ed0474dcfa72269e949" target="_top" xlink:title=" ">
<polygon fill="white" stroke="black" points="204,-267.5 204,-297.5 338,-297.5 338,-267.5 204,-267.5"/>
<text text-anchor="start" x="212" y="-285.5" font-family="Helvetica,sans-Serif" font-size="10.00">denoptim.graph.DGraph.get</text>
<text text-anchor="middle" x="271" y="-274.5" font-family="Helvetica,sans-Serif" font-size="10.00">SymSetForVertexID</text>
</a>
</g>
</g>
<!-- Node1&#45;&gt;Node10 -->
<g id="edge10" class="edge">
<title>Node1&#45;&gt;Node10</title>
<path fill="none" stroke="midnightblue" d="M100.01,-345.89C122.53,-335.76 159.43,-319.61 192,-307.5 198.04,-305.26 204.38,-303.02 210.73,-300.87"/>
<polygon fill="midnightblue" stroke="midnightblue" points="212.29,-304.04 220.67,-297.56 210.07,-297.4 212.29,-304.04"/>
</g>
<!-- Node11 -->
<g id="node11" class="node">
<title>Node11</title>
<g id="a_node11"><a xlink:href="classdenoptim_1_1graph_1_1_d_graph.html#a49bc7aa7c45f3aeaf6aff41095456c6e" target="_top" xlink:title="Get an iterator for the sets of symmetrically related vertices.">
<polygon fill="white" stroke="black" points="204,-218.5 204,-248.5 338,-248.5 338,-218.5 204,-218.5"/>
<text text-anchor="start" x="212" y="-236.5" font-family="Helvetica,sans-Serif" font-size="10.00">denoptim.graph.DGraph.get</text>
<text text-anchor="middle" x="271" y="-225.5" font-family="Helvetica,sans-Serif" font-size="10.00">SymSetsIterator</text>
</a>
</g>
</g>
<!-- Node1&#45;&gt;Node11 -->
<g id="edge11" class="edge">
<title>Node1&#45;&gt;Node11</title>
<path fill="none" stroke="midnightblue" d="M87.69,-345.79C105.46,-326.51 147.99,-283.1 192,-258.5 195.87,-256.33 199.96,-254.32 204.16,-252.46"/>
<polygon fill="midnightblue" stroke="midnightblue" points="205.55,-255.68 213.47,-248.63 202.89,-249.2 205.55,-255.68"/>
</g>
<!-- Node12 -->
<g id="node12" class="node">
<title>Node12</title>
<g id="a_node12"><a xlink:href="classdenoptim_1_1graph_1_1_d_graph.html#a58811a9ea75a26abffc1a9c7c2b22741" target="_top" xlink:title="Returns the vertex that is in the given position of the list of vertices belonging to this graph.">
<polygon fill="white" stroke="black" points="204,-169.5 204,-199.5 338,-199.5 338,-169.5 204,-169.5"/>
<text text-anchor="start" x="212" y="-187.5" font-family="Helvetica,sans-Serif" font-size="10.00">denoptim.graph.DGraph.get</text>
<text text-anchor="middle" x="271" y="-176.5" font-family="Helvetica,sans-Serif" font-size="10.00">VertexAtPosition</text>
</a>
</g>
</g>
<!-- Node1&#45;&gt;Node12 -->
<g id="edge12" class="edge">
<title>Node1&#45;&gt;Node12</title>
<path fill="none" stroke="midnightblue" d="M83.86,-345.69C97.32,-319.53 137.66,-247.57 192,-209.5 194.74,-207.58 197.63,-205.81 200.62,-204.16"/>
<polygon fill="midnightblue" stroke="midnightblue" points="202.44,-207.17 209.87,-199.61 199.35,-200.89 202.44,-207.17"/>
</g>
<!-- Node13 -->
<g id="node13" class="node">
<title>Node13</title>
<g id="a_node13"><a xlink:href="classdenoptim_1_1graph_1_1_d_graph.html#a3b7c2feb2da30079318f06819e0e6761" target="_top" xlink:title=" ">
<polygon fill="white" stroke="black" points="204,-120.5 204,-150.5 338,-150.5 338,-120.5 204,-120.5"/>
<text text-anchor="start" x="212" y="-138.5" font-family="Helvetica,sans-Serif" font-size="10.00">denoptim.graph.DGraph.get</text>
<text text-anchor="middle" x="271" y="-127.5" font-family="Helvetica,sans-Serif" font-size="10.00">VertexCount</text>
</a>
</g>
</g>
<!-- Node1&#45;&gt;Node13 -->
<g id="edge13" class="edge">
<title>Node1&#45;&gt;Node13</title>
<path fill="none" stroke="midnightblue" d="M81.86,-345.72C91.64,-314 126.78,-213.01 192,-160.5 194.08,-158.82 196.28,-157.26 198.57,-155.79"/>
<polygon fill="midnightblue" stroke="midnightblue" points="200.73,-158.59 207.75,-150.66 197.32,-152.48 200.73,-158.59"/>
</g>
<!-- Node14 -->
<g id="node14" class="node">
<title>Node14</title>
<g id="a_node14"><a xlink:href="classdenoptim_1_1graph_1_1_d_graph.html#a71bdb31d9dd3cc65d3f3e58a0ba87cc2" target="_top" xlink:title=" ">
<polygon fill="white" stroke="black" points="199,-71.5 199,-101.5 343,-101.5 343,-71.5 199,-71.5"/>
<text text-anchor="start" x="207" y="-89.5" font-family="Helvetica,sans-Serif" font-size="10.00">denoptim.graph.DGraph.same</text>
<text text-anchor="middle" x="271" y="-78.5" font-family="Helvetica,sans-Serif" font-size="10.00">AsRings</text>
</a>
</g>
</g>
<!-- Node1&#45;&gt;Node14 -->
<g id="edge14" class="edge">
<title>Node1&#45;&gt;Node14</title>
<path fill="none" stroke="midnightblue" d="M80.6,-345.92C87.16,-309.63 115.38,-179.19 192,-111.5 193.78,-109.93 195.65,-108.46 197.6,-107.08"/>
<polygon fill="midnightblue" stroke="midnightblue" points="199.88,-109.8 206.61,-101.61 196.24,-103.81 199.88,-109.8"/>
</g>
<!-- Node19 -->
<g id="node19" class="node">
<title>Node19</title>
<g id="a_node19"><a xlink:href="classdenoptim_1_1graph_1_1_symmetric_set.html#a0c5e0508e1ff59a50fffa14c617ad889" target="_top" xlink:title="Return the number of identifiers in this list.">
<polygon fill="white" stroke="black" points="205.5,-22.5 205.5,-52.5 336.5,-52.5 336.5,-22.5 205.5,-22.5"/>
<text text-anchor="start" x="213.5" y="-40.5" font-family="Helvetica,sans-Serif" font-size="10.00">denoptim.graph.Symmetric</text>
<text text-anchor="middle" x="271" y="-29.5" font-family="Helvetica,sans-Serif" font-size="10.00">Set.size</text>
</a>
</g>
</g>
<!-- Node1&#45;&gt;Node19 -->
<g id="edge19" class="edge">
<title>Node1&#45;&gt;Node19</title>
<path fill="none" stroke="midnightblue" d="M79.79,-345.76C83.64,-304.91 103.97,-145.57 192,-62.5 193.68,-60.91 195.46,-59.43 197.32,-58.04"/>
<polygon fill="midnightblue" stroke="midnightblue" points="199.41,-60.86 205.95,-52.52 195.64,-54.96 199.41,-60.86"/>
</g>
<!-- Node2&#45;&gt;Node2 -->
<g id="edge2" class="edge">
<title>Node2&#45;&gt;Node2</title>
<path fill="none" stroke="midnightblue" d="M238.24,-689.66C230.34,-699.06 241.26,-708 271,-708 289.12,-708 300.26,-704.68 304.41,-699.96"/>
<polygon fill="midnightblue" stroke="midnightblue" points="307.88,-699.42 303.76,-689.66 300.89,-699.86 307.88,-699.42"/>
</g>
<!-- Node15 -->
<g id="node15" class="node">
<title>Node15</title>
<g id="a_node15"><a xlink:href="classdenoptim_1_1graph_1_1_ring.html#a97b3268c5abcf3b28c8bb00251408de8" target="_top" xlink:title=" ">
<polygon fill="white" stroke="black" points="388.5,-137.5 388.5,-167.5 531.5,-167.5 531.5,-137.5 388.5,-137.5"/>
<text text-anchor="start" x="396.5" y="-155.5" font-family="Helvetica,sans-Serif" font-size="10.00">denoptim.graph.Ring.getHead</text>
<text text-anchor="middle" x="460" y="-144.5" font-family="Helvetica,sans-Serif" font-size="10.00">Vertex</text>
</a>
</g>
</g>
<!-- Node14&#45;&gt;Node15 -->
<g id="edge15" class="edge">
<title>Node14&#45;&gt;Node15</title>
<path fill="none" stroke="midnightblue" d="M321.79,-101.57C331.23,-104.68 340.96,-108.06 350,-111.5 366.36,-117.74 369.7,-121.1 386,-127.5 391.51,-129.66 397.3,-131.83 403.1,-133.92"/>
<polygon fill="midnightblue" stroke="midnightblue" points="402.23,-137.33 412.82,-137.38 404.57,-130.73 402.23,-137.33"/>
</g>
<!-- Node16 -->
<g id="node16" class="node">
<title>Node16</title>
<g id="a_node16"><a xlink:href="classdenoptim_1_1graph_1_1_ring.html#a846516d883b41bd5877172be18265a1d" target="_top" xlink:title=" ">
<polygon fill="white" stroke="black" points="390.5,-99 390.5,-118 529.5,-118 529.5,-99 390.5,-99"/>
<text text-anchor="middle" x="460" y="-106" font-family="Helvetica,sans-Serif" font-size="10.00">denoptim.graph.Ring.getSize</text>
</a>
</g>
</g>
<!-- Node14&#45;&gt;Node16 -->
<g id="edge16" class="edge">
<title>Node14&#45;&gt;Node16</title>
<path fill="none" stroke="midnightblue" d="M343.23,-94.88C355.33,-96.3 367.95,-97.79 380.23,-99.23"/>
<polygon fill="midnightblue" stroke="midnightblue" points="380.1,-102.74 390.44,-100.43 380.91,-95.79 380.1,-102.74"/>
</g>
<!-- Node17 -->
<g id="node17" class="node">
<title>Node17</title>
<g id="a_node17"><a xlink:href="classdenoptim_1_1graph_1_1_ring.html#a1a0f7fdd78989d61817dbb85b621ce71" target="_top" xlink:title=" ">
<polygon fill="white" stroke="black" points="392,-49.5 392,-79.5 528,-79.5 528,-49.5 392,-49.5"/>
<text text-anchor="start" x="400" y="-67.5" font-family="Helvetica,sans-Serif" font-size="10.00">denoptim.graph.Ring.getTail</text>
<text text-anchor="middle" x="460" y="-56.5" font-family="Helvetica,sans-Serif" font-size="10.00">Vertex</text>
</a>
</g>
</g>
<!-- Node14&#45;&gt;Node17 -->
<g id="edge17" class="edge">
<title>Node14&#45;&gt;Node17</title>
<path fill="none" stroke="midnightblue" d="M343.23,-78.12C355.85,-76.63 369.05,-75.08 381.83,-73.58"/>
<polygon fill="midnightblue" stroke="midnightblue" points="382.45,-77.03 391.97,-72.39 381.63,-70.08 382.45,-77.03"/>
</g>
<!-- Node18 -->
<g id="node18" class="node">
<title>Node18</title>
<g id="a_node18"><a xlink:href="classdenoptim_1_1graph_1_1_ring.html#a306c459210e60f0133d0b3549a531a6c" target="_top" xlink:title=" ">
<polygon fill="white" stroke="black" points="386,-0.5 386,-30.5 534,-30.5 534,-0.5 386,-0.5"/>
<text text-anchor="start" x="394" y="-18.5" font-family="Helvetica,sans-Serif" font-size="10.00">denoptim.graph.Ring.getVertex</text>
<text text-anchor="middle" x="460" y="-7.5" font-family="Helvetica,sans-Serif" font-size="10.00">AtPosition</text>
</a>
</g>
</g>
<!-- Node14&#45;&gt;Node18 -->
<g id="edge18" class="edge">
<title>Node14&#45;&gt;Node18</title>
<path fill="none" stroke="midnightblue" d="M327.19,-71.41C334.97,-68.74 342.77,-65.76 350,-62.5 367.09,-54.79 369.03,-48.47 386,-40.5 390.65,-38.31 395.55,-36.22 400.52,-34.24"/>
<polygon fill="midnightblue" stroke="midnightblue" points="402.02,-37.42 410.11,-30.58 399.52,-30.88 402.02,-37.42"/>
</g>
</g>
</svg>
