<?xml version="1.0" encoding="UTF-8" standalone="no"?>
<!DOCTYPE svg PUBLIC "-//W3C//DTD SVG 1.1//EN"
 "http://www.w3.org/Graphics/SVG/1.1/DTD/svg11.dtd">
<!-- Generated by graphviz version 3.0.0 (20220413.0242)
 -->
<!-- Title: denoptim.graph.Fragment.atoms Pages: 1 -->
<svg width="1280pt" height="524pt"
 viewBox="0.00 0.00 1280.00 524.00" xmlns="http://www.w3.org/2000/svg" xmlns:xlink="http://www.w3.org/1999/xlink">
<g id="graph0" class="graph" transform="scale(1 1) rotate(0) translate(4 520)">
<title>denoptim.graph.Fragment.atoms</title>
<polygon fill="white" stroke="transparent" points="-4,4 -4,-520 1276,-520 1276,4 -4,4"/>
<!-- Node1 -->
<g id="node1" class="node">
<title>Node1</title>
<g id="a_node1"><a xlink:title=" ">
<polygon fill="#bfbfbf" stroke="black" points="1117,-280 1117,-299 1272,-299 1272,-280 1117,-280"/>
<text text-anchor="middle" x="1194.5" y="-287" font-family="Helvetica,sans-Serif" font-size="10.00">denoptim.graph.Fragment.atoms</text>
</a>
</g>
</g>
<!-- Node2 -->
<g id="node2" class="node">
<title>Node2</title>
<g id="a_node2"><a xlink:href="classdenoptim_1_1utils_1_1_dummy_atom_handler.html#a100cd8246e61d933a6420fac5c22160a" target="_top" xlink:title="Append dummy atoms on otherwise linear arrangements of atoms.">
<polygon fill="white" stroke="black" points="900.5,-435.5 900.5,-465.5 1067.5,-465.5 1067.5,-435.5 900.5,-435.5"/>
<text text-anchor="start" x="908.5" y="-453.5" font-family="Helvetica,sans-Serif" font-size="10.00">denoptim.utils.DummyAtom</text>
<text text-anchor="middle" x="984" y="-442.5" font-family="Helvetica,sans-Serif" font-size="10.00">Handler.addDummiesOnLinearities</text>
</a>
</g>
</g>
<!-- Node1&#45;&gt;Node2 -->
<g id="edge1" class="edge">
<title>Node1&#45;&gt;Node2</title>
<path fill="none" stroke="midnightblue" d="M1183.46,-308.21C1166.47,-338.02 1129.13,-396.04 1081,-426.5 1075.63,-429.9 1069.8,-432.82 1063.77,-435.32"/>
<polygon fill="midnightblue" stroke="midnightblue" points="1186.64,-309.7 1188.43,-299.26 1180.52,-306.3 1186.64,-309.7"/>
</g>
<!-- Node7 -->
<g id="node7" class="node">
<title>Node7</title>
<g id="a_node7"><a xlink:href="classdenoptim_1_1fragmenter_1_1_fragmenter_tools.html#aacad4752a8f6324a9c8e5a96ff14efe5" target="_top" xlink:title="Filter fragments according to the criteria defined in the settings.">
<polygon fill="white" stroke="black" points="905.5,-386.5 905.5,-416.5 1062.5,-416.5 1062.5,-386.5 905.5,-386.5"/>
<text text-anchor="start" x="913.5" y="-404.5" font-family="Helvetica,sans-Serif" font-size="10.00">denoptim.fragmenter.Fragmenter</text>
<text text-anchor="middle" x="984" y="-393.5" font-family="Helvetica,sans-Serif" font-size="10.00">Tools.filterFragment</text>
</a>
</g>
</g>
<!-- Node1&#45;&gt;Node7 -->
<g id="edge6" class="edge">
<title>Node1&#45;&gt;Node7</title>
<path fill="none" stroke="midnightblue" d="M1176.91,-306.22C1156.23,-326.12 1118.96,-358.96 1081,-377.5 1073.98,-380.93 1066.42,-383.9 1058.73,-386.46"/>
<polygon fill="midnightblue" stroke="midnightblue" points="1179.53,-308.55 1184.23,-299.05 1174.63,-303.55 1179.53,-308.55"/>
</g>
<!-- Node8 -->
<g id="node8" class="node">
<title>Node8</title>
<g id="a_node8"><a xlink:href="classdenoptim_1_1fragmenter_1_1_fragmenter_tools.html#aebc1d42a9a2b8aae1e5030a1ba78a0b7" target="_top" xlink:title="Chops one chemical structure by applying the given cutting rules.">
<polygon fill="white" stroke="black" points="677.5,-304.5 677.5,-334.5 834.5,-334.5 834.5,-304.5 677.5,-304.5"/>
<text text-anchor="start" x="685.5" y="-322.5" font-family="Helvetica,sans-Serif" font-size="10.00">denoptim.fragmenter.Fragmenter</text>
<text text-anchor="middle" x="756" y="-311.5" font-family="Helvetica,sans-Serif" font-size="10.00">Tools.fragmentation</text>
</a>
</g>
</g>
<!-- Node1&#45;&gt;Node8 -->
<g id="edge7" class="edge">
<title>Node1&#45;&gt;Node8</title>
<path fill="none" stroke="midnightblue" d="M1106.99,-295.45C1027.58,-300.9 910.99,-308.92 834.55,-314.17"/>
<polygon fill="midnightblue" stroke="midnightblue" points="1107.23,-298.94 1116.97,-294.76 1106.75,-291.95 1107.23,-298.94"/>
</g>
<!-- Node9 -->
<g id="node9" class="node">
<title>Node9</title>
<g id="a_node9"><a xlink:href="classdenoptim_1_1fragmenter_1_1_fragment_clusterer_test.html#aa6e17d5d922f3626e9d1d5255b95f305" target="_top" xlink:title="Converts the fragment into a collection of atoms where attachment points are converted into atoms tha...">
<polygon fill="white" stroke="black" points="909.5,-211.5 909.5,-241.5 1058.5,-241.5 1058.5,-211.5 909.5,-211.5"/>
<text text-anchor="start" x="917.5" y="-229.5" font-family="Helvetica,sans-Serif" font-size="10.00">denoptim.fragmenter.Fragment</text>
<text text-anchor="middle" x="984" y="-218.5" font-family="Helvetica,sans-Serif" font-size="10.00">ClustererTest.getMol</text>
</a>
</g>
</g>
<!-- Node1&#45;&gt;Node9 -->
<g id="edge8" class="edge">
<title>Node1&#45;&gt;Node9</title>
<path fill="none" stroke="midnightblue" d="M1151.85,-276.91C1118.15,-266.73 1070.58,-252.36 1034.86,-241.57"/>
<polygon fill="midnightblue" stroke="midnightblue" points="1151.25,-280.39 1161.83,-279.93 1153.27,-273.69 1151.25,-280.39"/>
</g>
<!-- Node10 -->
<g id="node10" class="node">
<title>Node10</title>
<g id="a_node10"><a xlink:href="classdenoptim_1_1fragmenter_1_1_fragment_clusterer_test.html#aa17925160f3f03080e8680c7016fc1c4" target="_top" xlink:title=" ">
<polygon fill="white" stroke="black" points="681.5,-255.5 681.5,-285.5 830.5,-285.5 830.5,-255.5 681.5,-255.5"/>
<text text-anchor="start" x="689.5" y="-273.5" font-family="Helvetica,sans-Serif" font-size="10.00">denoptim.fragmenter.Fragment</text>
<text text-anchor="middle" x="756" y="-262.5" font-family="Helvetica,sans-Serif" font-size="10.00">ClustererTest.testCluster</text>
</a>
</g>
</g>
<!-- Node1&#45;&gt;Node10 -->
<g id="edge24" class="edge">
<title>Node1&#45;&gt;Node10</title>
<path fill="none" stroke="midnightblue" d="M1106.82,-285.73C1026.01,-282.21 906.8,-277.02 830.53,-273.7"/>
<polygon fill="midnightblue" stroke="midnightblue" points="1106.83,-289.23 1116.97,-286.17 1107.13,-282.24 1106.83,-289.23"/>
</g>
<!-- Node11 -->
<g id="node11" class="node">
<title>Node11</title>
<g id="a_node11"><a xlink:href="classdenoptim_1_1graph_1_1_fragment.html#afe608a1ee2180aa73c91b8cc0a5bb744" target="_top" xlink:title="Removes a list of atoms and updates the list of attachment points.">
<polygon fill="white" stroke="black" points="903.5,-337.5 903.5,-367.5 1064.5,-367.5 1064.5,-337.5 903.5,-337.5"/>
<text text-anchor="start" x="911.5" y="-355.5" font-family="Helvetica,sans-Serif" font-size="10.00">denoptim.graph.Fragment.remove</text>
<text text-anchor="middle" x="984" y="-344.5" font-family="Helvetica,sans-Serif" font-size="10.00">Atoms</text>
</a>
</g>
</g>
<!-- Node1&#45;&gt;Node11 -->
<g id="edge10" class="edge">
<title>Node1&#45;&gt;Node11</title>
<path fill="none" stroke="midnightblue" d="M1151.85,-302.09C1118.15,-312.27 1070.58,-326.64 1034.86,-337.43"/>
<polygon fill="midnightblue" stroke="midnightblue" points="1153.27,-305.31 1161.83,-299.07 1151.25,-298.61 1153.27,-305.31"/>
</g>
<!-- Node16 -->
<g id="node16" class="node">
<title>Node16</title>
<g id="a_node16"><a xlink:href="classdenoptim_1_1fragmenter_1_1_clusterable_fragment.html#a5dadf1ba45cb5471e1f907e84d3e9749" target="_top" xlink:title="Define the node order from the list of atoms and attachment points.">
<polygon fill="white" stroke="black" points="906,-159.5 906,-189.5 1062,-189.5 1062,-159.5 906,-159.5"/>
<text text-anchor="start" x="914" y="-177.5" font-family="Helvetica,sans-Serif" font-size="10.00">denoptim.fragmenter.Clusterable</text>
<text text-anchor="middle" x="984" y="-166.5" font-family="Helvetica,sans-Serif" font-size="10.00">Fragment.setNaturalNodeOrder</text>
</a>
</g>
</g>
<!-- Node1&#45;&gt;Node16 -->
<g id="edge17" class="edge">
<title>Node1&#45;&gt;Node16</title>
<path fill="none" stroke="midnightblue" d="M1176.42,-272.92C1155.52,-253.47 1118.29,-221.49 1081,-202.5 1071.02,-197.42 1059.98,-193.12 1049.04,-189.53"/>
<polygon fill="midnightblue" stroke="midnightblue" points="1174.17,-275.61 1183.84,-279.94 1178.98,-270.53 1174.17,-275.61"/>
</g>
<!-- Node22 -->
<g id="node22" class="node">
<title>Node22</title>
<g id="a_node22"><a xlink:href="classdenoptim_1_1fragmenter_1_1_conformer_extractor_task_test.html#a2dc64f375774087fc0b4511384f50bc9" target="_top" xlink:title=" ">
<polygon fill="white" stroke="black" points="887,-100 887,-141 1081,-141 1081,-100 887,-100"/>
<text text-anchor="start" x="895" y="-129" font-family="Helvetica,sans-Serif" font-size="10.00">denoptim.fragmenter.Conformer</text>
<text text-anchor="start" x="895" y="-118" font-family="Helvetica,sans-Serif" font-size="10.00">ExtractorTaskTest.testExtractClusterable</text>
<text text-anchor="middle" x="984" y="-107" font-family="Helvetica,sans-Serif" font-size="10.00">Fragments</text>
</a>
</g>
</g>
<!-- Node1&#45;&gt;Node22 -->
<g id="edge25" class="edge">
<title>Node1&#45;&gt;Node22</title>
<path fill="none" stroke="midnightblue" d="M1183.33,-270.84C1166.14,-241.04 1128.53,-182.78 1081,-150.5 1075.8,-146.97 1070.16,-143.84 1064.32,-141.06"/>
<polygon fill="midnightblue" stroke="midnightblue" points="1180.4,-272.78 1188.36,-279.78 1186.5,-269.35 1180.4,-272.78"/>
</g>
<!-- Node3 -->
<g id="node3" class="node">
<title>Node3</title>
<g id="a_node3"><a xlink:href="classdenoptim_1_1gui_1_1_g_u_i_vertex_inspector.html#acadecc92299a7ea46113c06382a1f333" target="_top" xlink:title="Initialize the panel and add buttons.">
<polygon fill="white" stroke="black" points="198,-376 198,-395 395,-395 395,-376 198,-376"/>
<text text-anchor="middle" x="296.5" y="-383" font-family="Helvetica,sans-Serif" font-size="10.00">denoptim.gui.GUIVertexInspector.initialize</text>
</a>
</g>
</g>
<!-- Node2&#45;&gt;Node3 -->
<g id="edge2" class="edge">
<title>Node2&#45;&gt;Node3</title>
<path fill="none" stroke="midnightblue" d="M894.09,-433.8C879.72,-431.45 864.97,-429.24 851,-427.5 692.02,-407.66 506.09,-395.88 395.27,-390.05"/>
<polygon fill="midnightblue" stroke="midnightblue" points="893.52,-437.25 903.96,-435.45 894.68,-430.35 893.52,-437.25"/>
</g>
<!-- Node5 -->
<g id="node5" class="node">
<title>Node5</title>
<g id="a_node5"><a xlink:href="classdenoptim_1_1fragmenter_1_1_fragmenter_tools.html#a82c4a82da2a3283a870a8c8af94f0a4e" target="_top" xlink:title="Management of fragments: includes application of fragment filters, rejection rules,...">
<polygon fill="white" stroke="black" points="675.5,-485.5 675.5,-515.5 836.5,-515.5 836.5,-485.5 675.5,-485.5"/>
<text text-anchor="start" x="683.5" y="-503.5" font-family="Helvetica,sans-Serif" font-size="10.00">denoptim.fragmenter.Fragmenter</text>
<text text-anchor="middle" x="756" y="-492.5" font-family="Helvetica,sans-Serif" font-size="10.00">Tools.manageFragmentCollection</text>
</a>
</g>
</g>
<!-- Node2&#45;&gt;Node5 -->
<g id="edge4" class="edge">
<title>Node2&#45;&gt;Node5</title>
<path fill="none" stroke="midnightblue" d="M905.35,-467.68C879.29,-473.45 850.43,-479.83 825.15,-485.42"/>
<polygon fill="midnightblue" stroke="midnightblue" points="906.18,-471.08 915.19,-465.5 904.67,-464.24 906.18,-471.08"/>
</g>
<!-- Node6 -->
<g id="node6" class="node">
<title>Node6</title>
<g id="a_node6"><a xlink:href="classdenoptim_1_1graph_1_1_fragment_test.html#aa17f42b21847b022c3d7a87876e17717" target="_top" xlink:title=" ">
<polygon fill="white" stroke="black" points="674,-436.5 674,-466.5 838,-466.5 838,-436.5 674,-436.5"/>
<text text-anchor="start" x="682" y="-454.5" font-family="Helvetica,sans-Serif" font-size="10.00">denoptim.graph.FragmentTest.test</text>
<text text-anchor="middle" x="756" y="-443.5" font-family="Helvetica,sans-Serif" font-size="10.00">IsomorphicInLinear</text>
</a>
</g>
</g>
<!-- Node2&#45;&gt;Node6 -->
<g id="edge5" class="edge">
<title>Node2&#45;&gt;Node6</title>
<path fill="none" stroke="midnightblue" d="M890.36,-450.91C873.06,-450.99 855.11,-451.07 838.19,-451.14"/>
<polygon fill="midnightblue" stroke="midnightblue" points="890.47,-454.41 900.45,-450.87 890.43,-447.41 890.47,-454.41"/>
</g>
<!-- Node4 -->
<g id="node4" class="node">
<title>Node4</title>
<g id="a_node4"><a xlink:href="classdenoptim_1_1gui_1_1_g_u_i_vertex_inspector.html#abc5d3c33ad9b2b114ce43e9b2cd577bb" target="_top" xlink:title="Constructor.">
<polygon fill="white" stroke="black" points="0,-370.5 0,-400.5 162,-400.5 162,-370.5 0,-370.5"/>
<text text-anchor="start" x="8" y="-388.5" font-family="Helvetica,sans-Serif" font-size="10.00">denoptim.gui.GUIVertexInspector.</text>
<text text-anchor="middle" x="81" y="-377.5" font-family="Helvetica,sans-Serif" font-size="10.00">GUIVertexInspector</text>
</a>
</g>
</g>
<!-- Node3&#45;&gt;Node4 -->
<g id="edge3" class="edge">
<title>Node3&#45;&gt;Node4</title>
<path fill="none" stroke="midnightblue" d="M187.69,-385.5C179.06,-385.5 170.44,-385.5 162.05,-385.5"/>
<polygon fill="midnightblue" stroke="midnightblue" points="187.81,-389 197.81,-385.5 187.81,-382 187.81,-389"/>
</g>
<!-- Node9&#45;&gt;Node10 -->
<g id="edge9" class="edge">
<title>Node9&#45;&gt;Node10</title>
<path fill="none" stroke="midnightblue" d="M899.41,-242.77C876.83,-247.17 852.57,-251.89 830.59,-256.17"/>
<polygon fill="midnightblue" stroke="midnightblue" points="900.17,-246.19 909.31,-240.85 898.83,-239.32 900.17,-246.19"/>
</g>
<!-- Node11&#45;&gt;Node8 -->
<g id="edge11" class="edge">
<title>Node11&#45;&gt;Node8</title>
<path fill="none" stroke="midnightblue" d="M893.3,-339.4C873.96,-336.58 853.67,-333.61 834.82,-330.86"/>
<polygon fill="midnightblue" stroke="midnightblue" points="892.92,-342.88 903.32,-340.87 893.93,-335.96 892.92,-342.88"/>
</g>
<!-- Node12 -->
<g id="node12" class="node">
<title>Node12</title>
<g id="a_node12"><a xlink:href="classdenoptim_1_1graph_1_1_fragment.html#a7deab5658f2c5176b3edd77fb714c0c2" target="_top" xlink:title=" ">
<polygon fill="white" stroke="black" points="664,-354 664,-373 848,-373 848,-354 664,-354"/>
<text text-anchor="middle" x="756" y="-361" font-family="Helvetica,sans-Serif" font-size="10.00">denoptim.graph.Fragment.removeAtom</text>
</a>
</g>
</g>
<!-- Node11&#45;&gt;Node12 -->
<g id="edge12" class="edge">
<title>Node11&#45;&gt;Node12</title>
<path fill="none" stroke="midnightblue" d="M893.2,-356.87C878.43,-357.59 863.11,-358.34 848.31,-359.06"/>
<polygon fill="midnightblue" stroke="midnightblue" points="893.5,-360.36 903.32,-356.38 893.16,-353.37 893.5,-360.36"/>
</g>
<!-- Node13 -->
<g id="node13" class="node">
<title>Node13</title>
<g id="a_node13"><a xlink:href="classdenoptim_1_1utils_1_1_molecule_utils.html#ae0fc307ce14bc73de8cb51459e122392" target="_top" xlink:title="Selects only the atoms that originate from a subgraph of a whole graph that originated the whole mole...">
<polygon fill="white" stroke="black" points="443,-299.5 443,-329.5 613,-329.5 613,-299.5 443,-299.5"/>
<text text-anchor="start" x="451" y="-317.5" font-family="Helvetica,sans-Serif" font-size="10.00">denoptim.utils.MoleculeUtils.extract</text>
<text text-anchor="middle" x="528" y="-306.5" font-family="Helvetica,sans-Serif" font-size="10.00">IACForSubgraph</text>
</a>
</g>
</g>
<!-- Node12&#45;&gt;Node13 -->
<g id="edge13" class="edge">
<title>Node12&#45;&gt;Node13</title>
<path fill="none" stroke="midnightblue" d="M696.84,-351.97C684.97,-349.55 672.57,-346.98 661,-344.5 639.06,-339.79 615.12,-334.42 593.72,-329.54"/>
<polygon fill="midnightblue" stroke="midnightblue" points="696.15,-355.4 706.65,-353.96 697.54,-348.54 696.15,-355.4"/>
</g>
<!-- Node15 -->
<g id="node15" class="node">
<title>Node15</title>
<g id="a_node15"><a xlink:href="classdenoptim_1_1gui_1_1_g_u_i_vertex_inspector.html#adc65cc0ba7fa1014ecb1ccc447953638" target="_top" xlink:title=" ">
<polygon fill="white" stroke="black" points="431,-348.5 431,-378.5 625,-378.5 625,-348.5 431,-348.5"/>
<text text-anchor="start" x="439" y="-366.5" font-family="Helvetica,sans-Serif" font-size="10.00">denoptim.gui.GUIVertexInspector.remove</text>
<text text-anchor="middle" x="528" y="-355.5" font-family="Helvetica,sans-Serif" font-size="10.00">Atoms</text>
</a>
</g>
</g>
<!-- Node12&#45;&gt;Node15 -->
<g id="edge15" class="edge">
<title>Node12&#45;&gt;Node15</title>
<path fill="none" stroke="midnightblue" d="M653.51,-363.5C644.04,-363.5 634.46,-363.5 625.04,-363.5"/>
<polygon fill="midnightblue" stroke="midnightblue" points="653.73,-367 663.73,-363.5 653.73,-360 653.73,-367"/>
</g>
<!-- Node14 -->
<g id="node14" class="node">
<title>Node14</title>
<g id="a_node14"><a xlink:href="classdenoptim_1_1fragspace_1_1_fragment_space.html#a32b0be109306e9c81fc830867296bc66" target="_top" xlink:title="Extracts a system of one or more fused rings and adds them to the fragment space if not already prese...">
<polygon fill="white" stroke="black" points="198.5,-299.5 198.5,-329.5 394.5,-329.5 394.5,-299.5 198.5,-299.5"/>
<text text-anchor="start" x="206.5" y="-317.5" font-family="Helvetica,sans-Serif" font-size="10.00">denoptim.fragspace.Fragment</text>
<text text-anchor="middle" x="296.5" y="-306.5" font-family="Helvetica,sans-Serif" font-size="10.00">Space.addFusedRingsToFragmentLibrary</text>
</a>
</g>
</g>
<!-- Node13&#45;&gt;Node14 -->
<g id="edge14" class="edge">
<title>Node13&#45;&gt;Node14</title>
<path fill="none" stroke="midnightblue" d="M432.5,-314.5C420.08,-314.5 407.33,-314.5 394.85,-314.5"/>
<polygon fill="midnightblue" stroke="midnightblue" points="432.85,-318 442.85,-314.5 432.85,-311 432.85,-318"/>
</g>
<!-- Node15&#45;&gt;Node3 -->
<g id="edge16" class="edge">
<title>Node15&#45;&gt;Node3</title>
<path fill="none" stroke="midnightblue" d="M420.68,-373.69C412.14,-374.51 403.53,-375.34 395.06,-376.15"/>
<polygon fill="midnightblue" stroke="midnightblue" points="421.05,-377.17 430.67,-372.73 420.38,-370.2 421.05,-377.17"/>
</g>
<!-- Node16&#45;&gt;Node10 -->
<g id="edge18" class="edge">
<title>Node16&#45;&gt;Node10</title>
<path fill="none" stroke="midnightblue" d="M903.6,-193.41C897.78,-196.06 892.18,-199.07 887,-202.5 865.93,-216.44 872.31,-232.92 851,-246.5 844.75,-250.48 837.87,-253.81 830.77,-256.58"/>
<polygon fill="midnightblue" stroke="midnightblue" points="904.99,-196.62 912.87,-189.53 902.29,-190.16 904.99,-196.62"/>
</g>
<!-- Node17 -->
<g id="node17" class="node">
<title>Node17</title>
<g id="a_node17"><a xlink:href="classdenoptim_1_1fragmenter_1_1_fragment_clusterer_test.html#acb2fe702b9d02d39a38ca1cc732c9ee4" target="_top" xlink:title=" ">
<polygon fill="white" stroke="black" points="681.5,-157.5 681.5,-187.5 830.5,-187.5 830.5,-157.5 681.5,-157.5"/>
<text text-anchor="start" x="689.5" y="-175.5" font-family="Helvetica,sans-Serif" font-size="10.00">denoptim.fragmenter.Fragment</text>
<text text-anchor="middle" x="756" y="-164.5" font-family="Helvetica,sans-Serif" font-size="10.00">ClustererTest.testCluster2</text>
</a>
</g>
</g>
<!-- Node16&#45;&gt;Node17 -->
<g id="edge19" class="edge">
<title>Node16&#45;&gt;Node17</title>
<path fill="none" stroke="midnightblue" d="M895.77,-173.73C874.29,-173.54 851.51,-173.34 830.74,-173.15"/>
<polygon fill="midnightblue" stroke="midnightblue" points="895.83,-177.23 905.86,-173.82 895.89,-170.23 895.83,-177.23"/>
</g>
<!-- Node18 -->
<g id="node18" class="node">
<title>Node18</title>
<g id="a_node18"><a xlink:href="classdenoptim_1_1fragmenter_1_1_dynamic_centroid_cluster_test.html#aafed3e3048038cfe0a17feeb5d728a13" target="_top" xlink:title=" ">
<polygon fill="white" stroke="black" points="669.5,-108.5 669.5,-138.5 842.5,-138.5 842.5,-108.5 669.5,-108.5"/>
<text text-anchor="start" x="677.5" y="-126.5" font-family="Helvetica,sans-Serif" font-size="10.00">denoptim.fragmenter.Dynamic</text>
<text text-anchor="middle" x="756" y="-115.5" font-family="Helvetica,sans-Serif" font-size="10.00">CentroidClusterTest.testGetCentroid</text>
</a>
</g>
</g>
<!-- Node16&#45;&gt;Node18 -->
<g id="edge20" class="edge">
<title>Node16&#45;&gt;Node18</title>
<path fill="none" stroke="midnightblue" d="M906.63,-157.27C879.67,-151.18 849.58,-144.39 823.5,-138.51"/>
<polygon fill="midnightblue" stroke="midnightblue" points="905.89,-160.69 916.41,-159.47 907.43,-153.86 905.89,-160.69"/>
</g>
<!-- Node19 -->
<g id="node19" class="node">
<title>Node19</title>
<g id="a_node19"><a xlink:href="classdenoptim_1_1fragmenter_1_1_dynamic_centroid_cluster_test.html#a8e2fd50e0c8a9163b1a831baa3976935" target="_top" xlink:title=" ">
<polygon fill="white" stroke="black" points="670,-49 670,-90 842,-90 842,-49 670,-49"/>
<text text-anchor="start" x="678" y="-78" font-family="Helvetica,sans-Serif" font-size="10.00">denoptim.fragmenter.Dynamic</text>
<text text-anchor="start" x="678" y="-67" font-family="Helvetica,sans-Serif" font-size="10.00">CentroidClusterTest.testGetNearest</text>
<text text-anchor="middle" x="756" y="-56" font-family="Helvetica,sans-Serif" font-size="10.00">ToCentroid</text>
</a>
</g>
</g>
<!-- Node16&#45;&gt;Node19 -->
<g id="edge21" class="edge">
<title>Node16&#45;&gt;Node19</title>
<path fill="none" stroke="midnightblue" d="M896.69,-156.34C893.33,-154.57 890.08,-152.63 887,-150.5 863.88,-134.51 873.68,-115.11 851,-98.5 846.73,-95.37 842.11,-92.58 837.3,-90.08"/>
<polygon fill="midnightblue" stroke="midnightblue" points="895.32,-159.56 905.86,-160.63 898.29,-153.22 895.32,-159.56"/>
</g>
<!-- Node20 -->
<g id="node20" class="node">
<title>Node20</title>
<g id="a_node20"><a xlink:href="classdenoptim_1_1fragmenter_1_1_clusterable_fragment_test.html#a30be40702849bf4781129bf3dabf88e8" target="_top" xlink:title=" ">
<polygon fill="white" stroke="black" points="662,-0.5 662,-30.5 850,-30.5 850,-0.5 662,-0.5"/>
<text text-anchor="start" x="670" y="-18.5" font-family="Helvetica,sans-Serif" font-size="10.00">denoptim.fragmenter.Clusterable</text>
<text text-anchor="middle" x="756" y="-7.5" font-family="Helvetica,sans-Serif" font-size="10.00">FragmentTest.testGetTransformedCopy</text>
</a>
</g>
</g>
<!-- Node16&#45;&gt;Node20 -->
<g id="edge22" class="edge">
<title>Node16&#45;&gt;Node20</title>
<path fill="none" stroke="midnightblue" d="M896.83,-158.04C893.32,-155.82 890.02,-153.32 887,-150.5 849.09,-115.11 888.82,-74.99 851,-39.5 847.32,-36.04 843.2,-33.07 838.81,-30.5"/>
<polygon fill="midnightblue" stroke="midnightblue" points="895.45,-161.28 905.9,-163 898.8,-155.13 895.45,-161.28"/>
</g>
<!-- Node21 -->
<g id="node21" class="node">
<title>Node21</title>
<g id="a_node21"><a xlink:href="classdenoptim_1_1fragmenter_1_1_clusterable_fragment_test.html#a005eef46f866621d14a17a9c439bb342" target="_top" xlink:title=" ">
<polygon fill="white" stroke="black" points="661,-206.5 661,-236.5 851,-236.5 851,-206.5 661,-206.5"/>
<text text-anchor="start" x="669" y="-224.5" font-family="Helvetica,sans-Serif" font-size="10.00">denoptim.fragmenter.Clusterable</text>
<text text-anchor="middle" x="756" y="-213.5" font-family="Helvetica,sans-Serif" font-size="10.00">FragmentTest.testSetNaturalNodeOrder</text>
</a>
</g>
</g>
<!-- Node16&#45;&gt;Node21 -->
<g id="edge23" class="edge">
<title>Node16&#45;&gt;Node21</title>
<path fill="none" stroke="midnightblue" d="M900.94,-191.57C877.46,-196.45 852.06,-201.73 829.22,-206.48"/>
<polygon fill="midnightblue" stroke="midnightblue" points="901.79,-194.96 910.87,-189.5 900.37,-188.11 901.79,-194.96"/>
</g>
</g>
</svg>
