<?xml version="1.0" encoding="UTF-8" standalone="no"?>
<!DOCTYPE svg PUBLIC "-//W3C//DTD SVG 1.1//EN"
 "http://www.w3.org/Graphics/SVG/1.1/DTD/svg11.dtd">
<!-- Generated by graphviz version 3.0.0 (20220413.0242)
 -->
<!-- Title: denoptim.graph.DGraph.extractSubgraph Pages: 1 -->
<svg width="1622pt" height="436pt"
 viewBox="0.00 0.00 1622.00 435.50" xmlns="http://www.w3.org/2000/svg" xmlns:xlink="http://www.w3.org/1999/xlink">
<g id="graph0" class="graph" transform="scale(1 1) rotate(0) translate(4 431.5)">
<title>denoptim.graph.DGraph.extractSubgraph</title>
<polygon fill="white" stroke="transparent" points="-4,4 -4,-431.5 1618,-431.5 1618,4 -4,4"/>
<!-- Node1 -->
<g id="node1" class="node">
<title>Node1</title>
<g id="a_node1"><a xlink:title="Creates a new graph that corresponds to the subgraph of this graph when exploring the spanning tree f...">
<polygon fill="#bfbfbf" stroke="black" points="1465,-262.5 1465,-292.5 1614,-292.5 1614,-262.5 1465,-262.5"/>
<text text-anchor="start" x="1473" y="-280.5" font-family="Helvetica,sans-Serif" font-size="10.00">denoptim.graph.DGraph.extract</text>
<text text-anchor="middle" x="1539.5" y="-269.5" font-family="Helvetica,sans-Serif" font-size="10.00">Subgraph</text>
</a>
</g>
</g>
<!-- Node1&#45;&gt;Node1 -->
<g id="edge20" class="edge">
<title>Node1&#45;&gt;Node1</title>
<path fill="none" stroke="midnightblue" d="M1574.33,-302.96C1570,-307.68 1558.4,-311 1539.5,-311 1508.49,-311 1497.11,-302.06 1505.34,-292.66"/>
<polygon fill="midnightblue" stroke="midnightblue" points="1577.8,-302.41 1573.66,-292.66 1570.81,-302.87 1577.8,-302.41"/>
</g>
<!-- Node2 -->
<g id="node2" class="node">
<title>Node2</title>
<g id="a_node2"><a xlink:href="classdenoptim_1_1ga_1_1_graph_operations.html#a27ba99409e7aaa6b6f6f3d40737863ca" target="_top" xlink:title="Here we check that the given subgraphs have a mapping that allows to swap them, and full fill any oth...">
<polygon fill="white" stroke="black" points="1256,-393.5 1256,-423.5 1429,-423.5 1429,-393.5 1256,-393.5"/>
<text text-anchor="start" x="1264" y="-411.5" font-family="Helvetica,sans-Serif" font-size="10.00">denoptim.ga.GraphOperations.check</text>
<text text-anchor="middle" x="1342.5" y="-400.5" font-family="Helvetica,sans-Serif" font-size="10.00">AndAddXoverSites</text>
</a>
</g>
</g>
<!-- Node1&#45;&gt;Node2 -->
<g id="edge1" class="edge">
<title>Node1&#45;&gt;Node2</title>
<path fill="none" stroke="midnightblue" d="M1518.94,-300.33C1498.5,-322.92 1464.53,-357.14 1429,-378.5 1419.16,-384.42 1407.98,-389.4 1397.02,-393.5"/>
<polygon fill="midnightblue" stroke="midnightblue" points="1521.8,-302.38 1525.83,-292.58 1516.57,-297.73 1521.8,-302.38"/>
</g>
<!-- Node3 -->
<g id="node3" class="node">
<title>Node3</title>
<g id="a_node3"><a xlink:href="classdenoptim_1_1ga_1_1_graph_operations.html#ad30a49493cb4fbbee21a7589929bc680" target="_top" xlink:title="Identify crossover sites, i.e., subgraphs that can be swapped between two graphs (i....">
<polygon fill="white" stroke="black" points="593.5,-333.5 593.5,-363.5 766.5,-363.5 766.5,-333.5 593.5,-333.5"/>
<text text-anchor="start" x="601.5" y="-351.5" font-family="Helvetica,sans-Serif" font-size="10.00">denoptim.ga.GraphOperations.locate</text>
<text text-anchor="middle" x="680" y="-340.5" font-family="Helvetica,sans-Serif" font-size="10.00">CompatibleXOverPoints</text>
</a>
</g>
</g>
<!-- Node1&#45;&gt;Node3 -->
<g id="edge21" class="edge">
<title>Node1&#45;&gt;Node3</title>
<path fill="none" stroke="midnightblue" d="M1454.77,-285.8C1390.56,-292.07 1299.71,-300.71 1220,-307.5 1060.1,-321.11 873.32,-334.83 766.92,-342.44"/>
<polygon fill="midnightblue" stroke="midnightblue" points="1455.23,-289.27 1464.84,-284.82 1454.55,-282.31 1455.23,-289.27"/>
</g>
<!-- Node12 -->
<g id="node12" class="node">
<title>Node12</title>
<g id="a_node12"><a xlink:href="classdenoptim_1_1ga_1_1_graph_operations.html#a65b1468961ba53b217848640d8fd5232" target="_top" xlink:title="Given a pair of seed vertexes that define where a pair of subgraphs stars in the corresponding origin...">
<polygon fill="white" stroke="black" points="1031,-355.5 1031,-385.5 1213,-385.5 1213,-355.5 1031,-355.5"/>
<text text-anchor="start" x="1039" y="-373.5" font-family="Helvetica,sans-Serif" font-size="10.00">denoptim.ga.GraphOperations.process</text>
<text text-anchor="middle" x="1122" y="-362.5" font-family="Helvetica,sans-Serif" font-size="10.00">PermutationOfEndPoints</text>
</a>
</g>
</g>
<!-- Node1&#45;&gt;Node12 -->
<g id="edge25" class="edge">
<title>Node1&#45;&gt;Node12</title>
<path fill="none" stroke="midnightblue" d="M1510.12,-298.35C1488.89,-312.79 1458.56,-331.04 1429,-340.5 1358.72,-363.01 1275.1,-369.95 1213.05,-371.58"/>
<polygon fill="midnightblue" stroke="midnightblue" points="1512.13,-301.22 1518.35,-292.64 1508.14,-295.47 1512.13,-301.22"/>
</g>
<!-- Node14 -->
<g id="node14" class="node">
<title>Node14</title>
<g id="a_node14"><a xlink:href="classdenoptim_1_1graph_1_1_d_graph.html#a6fe5ab71083430bbab0b7d2e2f139c3a" target="_top" xlink:title="Extracts subgraphs that match the provided pattern.">
<polygon fill="white" stroke="black" points="1268,-213.5 1268,-243.5 1417,-243.5 1417,-213.5 1268,-213.5"/>
<text text-anchor="start" x="1276" y="-231.5" font-family="Helvetica,sans-Serif" font-size="10.00">denoptim.graph.DGraph.extract</text>
<text text-anchor="middle" x="1342.5" y="-220.5" font-family="Helvetica,sans-Serif" font-size="10.00">Pattern</text>
</a>
</g>
</g>
<!-- Node1&#45;&gt;Node14 -->
<g id="edge15" class="edge">
<title>Node1&#45;&gt;Node14</title>
<path fill="none" stroke="midnightblue" d="M1468.95,-260.02C1447.46,-254.62 1423.99,-248.72 1403.22,-243.51"/>
<polygon fill="midnightblue" stroke="midnightblue" points="1468.12,-263.42 1478.67,-262.47 1469.82,-256.63 1468.12,-263.42"/>
</g>
<!-- Node19 -->
<g id="node19" class="node">
<title>Node19</title>
<g id="a_node19"><a xlink:href="classdenoptim_1_1ga_1_1_graph_operations.html#affb1be89a32e4a429bd7dbdfe0708419" target="_top" xlink:title="Performs the crossover that swaps the two subgraphs defining the given XoverSite.">
<polygon fill="white" stroke="black" points="590,-216.5 590,-246.5 770,-246.5 770,-216.5 590,-216.5"/>
<text text-anchor="start" x="598" y="-234.5" font-family="Helvetica,sans-Serif" font-size="10.00">denoptim.ga.GraphOperations.perform</text>
<text text-anchor="middle" x="680" y="-223.5" font-family="Helvetica,sans-Serif" font-size="10.00">Crossover</text>
</a>
</g>
</g>
<!-- Node1&#45;&gt;Node19 -->
<g id="edge22" class="edge">
<title>Node1&#45;&gt;Node19</title>
<path fill="none" stroke="midnightblue" d="M1514.57,-255.53C1464.52,-211.29 1343.17,-112.76 1220,-78.5 1018.98,-22.59 776.41,-167.79 703.05,-216.33"/>
<polygon fill="midnightblue" stroke="midnightblue" points="1512.46,-258.34 1522.25,-262.39 1517.13,-253.12 1512.46,-258.34"/>
</g>
<!-- Node20 -->
<g id="node20" class="node">
<title>Node20</title>
<g id="a_node20"><a xlink:href="classdenoptim_1_1graph_1_1_d_graph_test.html#a6b4a7a889a0e36c8b2dc97bcd8055c9e" target="_top" xlink:title=" ">
<polygon fill="white" stroke="black" points="1264.5,-0.5 1264.5,-30.5 1420.5,-30.5 1420.5,-0.5 1264.5,-0.5"/>
<text text-anchor="start" x="1272.5" y="-18.5" font-family="Helvetica,sans-Serif" font-size="10.00">denoptim.graph.DGraphTest.test</text>
<text text-anchor="middle" x="1342.5" y="-7.5" font-family="Helvetica,sans-Serif" font-size="10.00">ExtractSubgraph</text>
</a>
</g>
</g>
<!-- Node1&#45;&gt;Node20 -->
<g id="edge26" class="edge">
<title>Node1&#45;&gt;Node20</title>
<path fill="none" stroke="midnightblue" d="M1533.39,-252.36C1522.51,-205.17 1492.68,-102.91 1429,-45.5 1422.22,-39.39 1414.13,-34.51 1405.66,-30.61"/>
<polygon fill="midnightblue" stroke="midnightblue" points="1530.02,-253.33 1535.59,-262.34 1536.85,-251.82 1530.02,-253.33"/>
</g>
<!-- Node2&#45;&gt;Node3 -->
<g id="edge2" class="edge">
<title>Node2&#45;&gt;Node3</title>
<path fill="none" stroke="midnightblue" d="M1245.47,-415.74C1137.49,-421.68 957.45,-424.93 806,-395.5 772.89,-389.06 737.03,-374.76 712.25,-363.61"/>
<polygon fill="midnightblue" stroke="midnightblue" points="1245.91,-419.22 1255.69,-415.16 1245.51,-412.23 1245.91,-419.22"/>
</g>
<!-- Node2&#45;&gt;Node12 -->
<g id="edge12" class="edge">
<title>Node2&#45;&gt;Node12</title>
<path fill="none" stroke="midnightblue" d="M1245.73,-391.84C1233.69,-389.75 1221.44,-387.62 1209.56,-385.55"/>
<polygon fill="midnightblue" stroke="midnightblue" points="1245.32,-395.33 1255.77,-393.59 1246.52,-388.43 1245.32,-395.33"/>
</g>
<!-- Node3&#45;&gt;Node3 -->
<g id="edge8" class="edge">
<title>Node3&#45;&gt;Node3</title>
<path fill="none" stroke="midnightblue" d="M718.38,-373.96C713.62,-378.68 700.82,-382 680,-382 645.83,-382 633.28,-373.06 642.36,-363.66"/>
<polygon fill="midnightblue" stroke="midnightblue" points="721.85,-373.38 717.64,-363.66 714.87,-373.88 721.85,-373.38"/>
</g>
<!-- Node4 -->
<g id="node4" class="node">
<title>Node4</title>
<g id="a_node4"><a xlink:href="classdenoptim_1_1ga_1_1_population.html#ab303d612f90e917a7b1b49eadc93c76e" target="_top" xlink:title="Returns a list of population members that can do crossover with the specified member.">
<polygon fill="white" stroke="black" points="393,-358.5 393,-388.5 526,-388.5 526,-358.5 393,-358.5"/>
<text text-anchor="start" x="401" y="-376.5" font-family="Helvetica,sans-Serif" font-size="10.00">denoptim.ga.Population.get</text>
<text text-anchor="middle" x="459.5" y="-365.5" font-family="Helvetica,sans-Serif" font-size="10.00">XoverPartners</text>
</a>
</g>
</g>
<!-- Node3&#45;&gt;Node4 -->
<g id="edge3" class="edge">
<title>Node3&#45;&gt;Node4</title>
<path fill="none" stroke="midnightblue" d="M583.24,-359.46C563.92,-361.67 544.04,-363.94 526.05,-366"/>
<polygon fill="midnightblue" stroke="midnightblue" points="583.73,-362.92 593.27,-358.31 582.94,-355.97 583.73,-362.92"/>
</g>
<!-- Node9 -->
<g id="node9" class="node">
<title>Node9</title>
<g id="a_node9"><a xlink:href="classdenoptim_1_1programs_1_1genetweeker_1_1_gene_ops_runner.html#ab0f92a94c4fb2334e7d3813e73fc4247" target="_top" xlink:title=" ">
<polygon fill="white" stroke="black" points="380,-260.5 380,-290.5 539,-290.5 539,-260.5 380,-260.5"/>
<text text-anchor="start" x="388" y="-278.5" font-family="Helvetica,sans-Serif" font-size="10.00">denoptim.programs.genetweeker.</text>
<text text-anchor="middle" x="459.5" y="-267.5" font-family="Helvetica,sans-Serif" font-size="10.00">GeneOpsRunner.runXOver</text>
</a>
</g>
</g>
<!-- Node3&#45;&gt;Node9 -->
<g id="edge9" class="edge">
<title>Node3&#45;&gt;Node9</title>
<path fill="none" stroke="midnightblue" d="M633.35,-329.64C609.86,-320.28 580.62,-309.14 554,-300.5 543.29,-297.02 531.79,-293.65 520.63,-290.57"/>
<polygon fill="midnightblue" stroke="midnightblue" points="632.13,-332.92 642.72,-333.4 634.74,-326.43 632.13,-332.92"/>
</g>
<!-- Node11 -->
<g id="node11" class="node">
<title>Node11</title>
<g id="a_node11"><a xlink:href="classdenoptim_1_1ga_1_1_graph_operations_test.html#a9fcf8fffef10a59df722c92e94da2815" target="_top" xlink:title=" ">
<polygon fill="white" stroke="black" points="365,-309.5 365,-339.5 554,-339.5 554,-309.5 365,-309.5"/>
<text text-anchor="start" x="373" y="-327.5" font-family="Helvetica,sans-Serif" font-size="10.00">denoptim.ga.GraphOperations</text>
<text text-anchor="middle" x="459.5" y="-316.5" font-family="Helvetica,sans-Serif" font-size="10.00">Test.testLocateCompatibleXOverPoints</text>
</a>
</g>
</g>
<!-- Node3&#45;&gt;Node11 -->
<g id="edge11" class="edge">
<title>Node3&#45;&gt;Node11</title>
<path fill="none" stroke="midnightblue" d="M583.3,-337.99C573.67,-336.93 563.89,-335.86 554.28,-334.8"/>
<polygon fill="midnightblue" stroke="midnightblue" points="582.95,-341.47 593.27,-339.08 583.71,-334.51 582.95,-341.47"/>
</g>
<!-- Node5 -->
<g id="node5" class="node">
<title>Node5</title>
<g id="a_node5"><a xlink:href="classdenoptim_1_1ga_1_1_e_a_utils.html#af1c589b6d5ba261e1417f3cd299e8e5d" target="_top" xlink:title="Perform fitness&#45;based, class&#45;compatible selection of parents that can do crossover operations.">
<polygon fill="white" stroke="black" points="163,-408 163,-427 329,-427 329,-408 163,-408"/>
<text text-anchor="middle" x="246" y="-415" font-family="Helvetica,sans-Serif" font-size="10.00">denoptim.ga.EAUtils.performFBCC</text>
</a>
</g>
</g>
<!-- Node4&#45;&gt;Node5 -->
<g id="edge4" class="edge">
<title>Node4&#45;&gt;Node5</title>
<path fill="none" stroke="midnightblue" d="M382.71,-389.27C352.69,-395.51 319.16,-402.49 292.94,-407.94"/>
<polygon fill="midnightblue" stroke="midnightblue" points="383.66,-392.64 392.74,-387.18 382.24,-385.79 383.66,-392.64"/>
</g>
<!-- Node7 -->
<g id="node7" class="node">
<title>Node7</title>
<g id="a_node7"><a xlink:href="classdenoptim_1_1ga_1_1_population_test.html#a5db0672054a9fc1dbc923310732fdb3a" target="_top" xlink:title=" ">
<polygon fill="white" stroke="black" points="168.5,-358.5 168.5,-388.5 323.5,-388.5 323.5,-358.5 168.5,-358.5"/>
<text text-anchor="start" x="176.5" y="-376.5" font-family="Helvetica,sans-Serif" font-size="10.00">denoptim.ga.PopulationTest.test</text>
<text text-anchor="middle" x="246" y="-365.5" font-family="Helvetica,sans-Serif" font-size="10.00">Clone</text>
</a>
</g>
</g>
<!-- Node4&#45;&gt;Node7 -->
<g id="edge6" class="edge">
<title>Node4&#45;&gt;Node7</title>
<path fill="none" stroke="midnightblue" d="M382.59,-373.5C363.49,-373.5 342.98,-373.5 323.83,-373.5"/>
<polygon fill="midnightblue" stroke="midnightblue" points="382.74,-377 392.74,-373.5 382.74,-370 382.74,-377"/>
</g>
<!-- Node8 -->
<g id="node8" class="node">
<title>Node8</title>
<g id="a_node8"><a xlink:href="classdenoptim_1_1ga_1_1_population_test.html#a278212ebff2501b7071d342f9a027599" target="_top" xlink:title=" ">
<polygon fill="white" stroke="black" points="168.5,-309.5 168.5,-339.5 323.5,-339.5 323.5,-309.5 168.5,-309.5"/>
<text text-anchor="start" x="176.5" y="-327.5" font-family="Helvetica,sans-Serif" font-size="10.00">denoptim.ga.PopulationTest.test</text>
<text text-anchor="middle" x="246" y="-316.5" font-family="Helvetica,sans-Serif" font-size="10.00">XOverCompatibility</text>
</a>
</g>
</g>
<!-- Node4&#45;&gt;Node8 -->
<g id="edge7" class="edge">
<title>Node4&#45;&gt;Node8</title>
<path fill="none" stroke="midnightblue" d="M383.69,-356.17C360.21,-350.73 334.5,-344.77 311.77,-339.51"/>
<polygon fill="midnightblue" stroke="midnightblue" points="383.07,-359.62 393.61,-358.47 384.65,-352.8 383.07,-359.62"/>
</g>
<!-- Node6 -->
<g id="node6" class="node">
<title>Node6</title>
<g id="a_node6"><a xlink:href="classdenoptim_1_1ga_1_1_e_a_utils.html#a98553265dd4b441b11c6d97d098edb08" target="_top" xlink:title="Generates a new offspring by performing a crossover operation.">
<polygon fill="white" stroke="black" points="0,-309.5 0,-339.5 127,-339.5 127,-309.5 0,-309.5"/>
<text text-anchor="start" x="8" y="-327.5" font-family="Helvetica,sans-Serif" font-size="10.00">denoptim.ga.EAUtils.build</text>
<text text-anchor="middle" x="63.5" y="-316.5" font-family="Helvetica,sans-Serif" font-size="10.00">CandidateByXOver</text>
</a>
</g>
</g>
<!-- Node5&#45;&gt;Node6 -->
<g id="edge5" class="edge">
<title>Node5&#45;&gt;Node6</title>
<path fill="none" stroke="midnightblue" d="M179.58,-404.98C173.86,-403.1 168.26,-400.95 163,-398.5 130.62,-383.42 98.57,-356.52 80.2,-339.64"/>
<polygon fill="midnightblue" stroke="midnightblue" points="178.66,-408.36 189.25,-407.9 180.68,-401.66 178.66,-408.36"/>
</g>
<!-- Node10 -->
<g id="node10" class="node">
<title>Node10</title>
<g id="a_node10"><a xlink:href="classdenoptim_1_1programs_1_1genetweeker_1_1_gene_ops_runner.html#a3c2407eb1204a7b25600d3d347d98447" target="_top" xlink:title=" ">
<polygon fill="white" stroke="black" points="166.5,-260.5 166.5,-290.5 325.5,-290.5 325.5,-260.5 166.5,-260.5"/>
<text text-anchor="start" x="174.5" y="-278.5" font-family="Helvetica,sans-Serif" font-size="10.00">denoptim.programs.genetweeker.</text>
<text text-anchor="middle" x="246" y="-267.5" font-family="Helvetica,sans-Serif" font-size="10.00">GeneOpsRunner.runProgram</text>
</a>
</g>
</g>
<!-- Node9&#45;&gt;Node10 -->
<g id="edge10" class="edge">
<title>Node9&#45;&gt;Node10</title>
<path fill="none" stroke="midnightblue" d="M369.74,-275.5C355.16,-275.5 340.14,-275.5 325.82,-275.5"/>
<polygon fill="midnightblue" stroke="midnightblue" points="369.75,-279 379.75,-275.5 369.75,-272 369.75,-279"/>
</g>
<!-- Node13 -->
<g id="node13" class="node">
<title>Node13</title>
<g id="a_node13"><a xlink:href="classdenoptim_1_1ga_1_1_graph_operations.html#a5d90c6e2fa30f287f8f69ed3367ccd0e" target="_top" xlink:title="Given a pair of seed vertexes that define where a pair of subgraphs stars in the corresponding origin...">
<polygon fill="white" stroke="black" points="806,-355.5 806,-385.5 988,-385.5 988,-355.5 806,-355.5"/>
<text text-anchor="start" x="814" y="-373.5" font-family="Helvetica,sans-Serif" font-size="10.00">denoptim.ga.GraphOperations.process</text>
<text text-anchor="middle" x="897" y="-362.5" font-family="Helvetica,sans-Serif" font-size="10.00">CombinationOfEndPoints</text>
</a>
</g>
</g>
<!-- Node12&#45;&gt;Node13 -->
<g id="edge13" class="edge">
<title>Node12&#45;&gt;Node13</title>
<path fill="none" stroke="midnightblue" d="M1020.93,-370.5C1009.97,-370.5 998.86,-370.5 988.03,-370.5"/>
<polygon fill="midnightblue" stroke="midnightblue" points="1020.94,-374 1030.94,-370.5 1020.94,-367 1020.94,-374"/>
</g>
<!-- Node13&#45;&gt;Node3 -->
<g id="edge14" class="edge">
<title>Node13&#45;&gt;Node3</title>
<path fill="none" stroke="midnightblue" d="M795.66,-360.23C785.93,-359.24 776.12,-358.23 766.55,-357.25"/>
<polygon fill="midnightblue" stroke="midnightblue" points="795.45,-363.73 805.76,-361.27 796.16,-356.77 795.45,-363.73"/>
</g>
<!-- Node15 -->
<g id="node15" class="node">
<title>Node15</title>
<g id="a_node15"><a xlink:href="classdenoptim_1_1fragspace_1_1_fragment_space.html#a32b0be109306e9c81fc830867296bc66" target="_top" xlink:title="Extracts a system of one or more fused rings and adds them to the fragment space if not already prese...">
<polygon fill="white" stroke="black" points="1024,-267.5 1024,-297.5 1220,-297.5 1220,-267.5 1024,-267.5"/>
<text text-anchor="start" x="1032" y="-285.5" font-family="Helvetica,sans-Serif" font-size="10.00">denoptim.fragspace.Fragment</text>
<text text-anchor="middle" x="1122" y="-274.5" font-family="Helvetica,sans-Serif" font-size="10.00">Space.addFusedRingsToFragmentLibrary</text>
</a>
</g>
</g>
<!-- Node14&#45;&gt;Node15 -->
<g id="edge16" class="edge">
<title>Node14&#45;&gt;Node15</title>
<path fill="none" stroke="midnightblue" d="M1270.9,-245.95C1242.86,-252.88 1210.92,-260.77 1183.92,-267.45"/>
<polygon fill="midnightblue" stroke="midnightblue" points="1271.77,-249.34 1280.64,-243.54 1270.09,-242.54 1271.77,-249.34"/>
</g>
<!-- Node16 -->
<g id="node16" class="node">
<title>Node16</title>
<g id="a_node16"><a xlink:href="classdenoptim_1_1ga_1_1_graph_operations_test.html#a81e15cea05ce67c5b0c2af89d301d072" target="_top" xlink:title=" ">
<polygon fill="white" stroke="black" points="1049.5,-208 1049.5,-249 1194.5,-249 1194.5,-208 1049.5,-208"/>
<text text-anchor="start" x="1057.5" y="-237" font-family="Helvetica,sans-Serif" font-size="10.00">denoptim.ga.GraphOperations</text>
<text text-anchor="start" x="1057.5" y="-226" font-family="Helvetica,sans-Serif" font-size="10.00">Test.testExtractPattern</text>
<text text-anchor="middle" x="1122" y="-215" font-family="Helvetica,sans-Serif" font-size="10.00">_fusedRings</text>
</a>
</g>
</g>
<!-- Node14&#45;&gt;Node16 -->
<g id="edge17" class="edge">
<title>Node14&#45;&gt;Node16</title>
<path fill="none" stroke="midnightblue" d="M1257.77,-228.5C1237.03,-228.5 1214.99,-228.5 1194.87,-228.5"/>
<polygon fill="midnightblue" stroke="midnightblue" points="1257.83,-232 1267.83,-228.5 1257.83,-225 1257.83,-232"/>
</g>
<!-- Node17 -->
<g id="node17" class="node">
<title>Node17</title>
<g id="a_node17"><a xlink:href="classdenoptim_1_1ga_1_1_graph_operations_test.html#a51afdfc40faf5bcc51609ddef161f078" target="_top" xlink:title=" ">
<polygon fill="white" stroke="black" points="1049.5,-148 1049.5,-189 1194.5,-189 1194.5,-148 1049.5,-148"/>
<text text-anchor="start" x="1057.5" y="-177" font-family="Helvetica,sans-Serif" font-size="10.00">denoptim.ga.GraphOperations</text>
<text text-anchor="start" x="1057.5" y="-166" font-family="Helvetica,sans-Serif" font-size="10.00">Test.testExtractPattern</text>
<text text-anchor="middle" x="1122" y="-155" font-family="Helvetica,sans-Serif" font-size="10.00">_returnsEmptyListIfNoRings</text>
</a>
</g>
</g>
<!-- Node14&#45;&gt;Node17 -->
<g id="edge18" class="edge">
<title>Node14&#45;&gt;Node17</title>
<path fill="none" stroke="midnightblue" d="M1276.97,-210.78C1251.16,-203.69 1221.32,-195.5 1194.83,-188.22"/>
<polygon fill="midnightblue" stroke="midnightblue" points="1276.08,-214.16 1286.65,-213.44 1277.93,-207.41 1276.08,-214.16"/>
</g>
<!-- Node18 -->
<g id="node18" class="node">
<title>Node18</title>
<g id="a_node18"><a xlink:href="classdenoptim_1_1ga_1_1_graph_operations_test.html#a161540d22b2ad17c44fc3e1a911a1367" target="_top" xlink:title=" ">
<polygon fill="white" stroke="black" points="1049.5,-88 1049.5,-129 1194.5,-129 1194.5,-88 1049.5,-88"/>
<text text-anchor="start" x="1057.5" y="-117" font-family="Helvetica,sans-Serif" font-size="10.00">denoptim.ga.GraphOperations</text>
<text text-anchor="start" x="1057.5" y="-106" font-family="Helvetica,sans-Serif" font-size="10.00">Test.testExtractPattern</text>
<text text-anchor="middle" x="1122" y="-95" font-family="Helvetica,sans-Serif" font-size="10.00">_singleRingSystem</text>
</a>
</g>
</g>
<!-- Node14&#45;&gt;Node18 -->
<g id="edge19" class="edge">
<title>Node14&#45;&gt;Node18</title>
<path fill="none" stroke="midnightblue" d="M1317.33,-206.71C1293.92,-186.58 1256.66,-157.06 1220,-138.5 1211.98,-134.44 1203.31,-130.8 1194.56,-127.59"/>
<polygon fill="midnightblue" stroke="midnightblue" points="1315.18,-209.47 1325.02,-213.4 1319.78,-204.2 1315.18,-209.47"/>
</g>
<!-- Node19&#45;&gt;Node6 -->
<g id="edge23" class="edge">
<title>Node19&#45;&gt;Node6</title>
<path fill="none" stroke="midnightblue" d="M579.69,-218.39C473.35,-208.19 301.25,-202.86 163,-251.5 128.87,-263.51 96.63,-291.76 78.82,-309.39"/>
<polygon fill="midnightblue" stroke="midnightblue" points="579.48,-221.89 589.77,-219.39 580.17,-214.92 579.48,-221.89"/>
</g>
<!-- Node19&#45;&gt;Node9 -->
<g id="edge24" class="edge">
<title>Node19&#45;&gt;Node9</title>
<path fill="none" stroke="midnightblue" d="M594.59,-248.5C574.99,-252.44 554.26,-256.62 535.12,-260.47"/>
<polygon fill="midnightblue" stroke="midnightblue" points="595.3,-251.92 604.42,-246.52 593.92,-245.06 595.3,-251.92"/>
</g>
</g>
</svg>
