<?xml version="1.0" encoding="UTF-8" standalone="no"?>
<!DOCTYPE svg PUBLIC "-//W3C//DTD SVG 1.1//EN"
 "http://www.w3.org/Graphics/SVG/1.1/DTD/svg11.dtd">
<!-- Generated by graphviz version 3.0.0 (20220413.0242)
 -->
<!-- Title: denoptim.graph.Fragment.projectPropertyToAP Pages: 1 -->
<svg width="765pt" height="230pt"
 viewBox="0.00 0.00 765.00 230.00" xmlns="http://www.w3.org/2000/svg" xmlns:xlink="http://www.w3.org/1999/xlink">
<g id="graph0" class="graph" transform="scale(1 1) rotate(0) translate(4 226)">
<title>denoptim.graph.Fragment.projectPropertyToAP</title>
<polygon fill="white" stroke="transparent" points="-4,4 -4,-226 761,-226 761,4 -4,4"/>
<!-- Node1 -->
<g id="node1" class="node">
<title>Node1</title>
<g id="a_node1"><a xlink:title="Uses a string formatted like the molecular property used for defining attachment points to create the...">
<polygon fill="#bfbfbf" stroke="black" points="0,-159.5 0,-189.5 158,-189.5 158,-159.5 0,-159.5"/>
<text text-anchor="start" x="8" y="-177.5" font-family="Helvetica,sans-Serif" font-size="10.00">denoptim.graph.Fragment.project</text>
<text text-anchor="middle" x="79" y="-166.5" font-family="Helvetica,sans-Serif" font-size="10.00">PropertyToAP</text>
</a>
</g>
</g>
<!-- Node2 -->
<g id="node2" class="node">
<title>Node2</title>
<g id="a_node2"><a xlink:href="classdenoptim_1_1graph_1_1_attachment_point.html#a7e45846280a63bd2bf36b85e502ffa49" target="_top" xlink:title="The index of the source atom in the atom list of the fragment.">
<polygon fill="white" stroke="black" points="596,-191.5 596,-221.5 744,-221.5 744,-191.5 596,-191.5"/>
<text text-anchor="start" x="604" y="-209.5" font-family="Helvetica,sans-Serif" font-size="10.00">denoptim.graph.Attachment</text>
<text text-anchor="middle" x="670" y="-198.5" font-family="Helvetica,sans-Serif" font-size="10.00">Point.getAtomPositionNumber</text>
</a>
</g>
</g>
<!-- Node1&#45;&gt;Node2 -->
<g id="edge1" class="edge">
<title>Node1&#45;&gt;Node2</title>
<path fill="none" stroke="midnightblue" d="M138.82,-189.51C156.45,-193.44 175.91,-197.21 194,-199.5 330.38,-216.77 490.52,-214.52 585.68,-210.85"/>
<polygon fill="midnightblue" stroke="midnightblue" points="585.96,-214.34 595.82,-210.44 585.68,-207.34 585.96,-214.34"/>
</g>
<!-- Node3 -->
<g id="node3" class="node">
<title>Node3</title>
<g id="a_node3"><a xlink:href="classdenoptim_1_1graph_1_1_fragment.html#a8d33526e74e10db5d8db591544d6836a" target="_top" xlink:title="Takes the list of APs from the field of this class and projects the APs into properties of the IAtoms...">
<polygon fill="white" stroke="black" points="194,-159.5 194,-189.5 352,-189.5 352,-159.5 194,-159.5"/>
<text text-anchor="start" x="202" y="-177.5" font-family="Helvetica,sans-Serif" font-size="10.00">denoptim.graph.Fragment.project</text>
<text text-anchor="middle" x="273" y="-166.5" font-family="Helvetica,sans-Serif" font-size="10.00">ListAPToAtomProperties</text>
</a>
</g>
</g>
<!-- Node1&#45;&gt;Node3 -->
<g id="edge2" class="edge">
<title>Node1&#45;&gt;Node3</title>
<path fill="none" stroke="midnightblue" d="M158.09,-174.5C166.6,-174.5 175.3,-174.5 183.92,-174.5"/>
<polygon fill="midnightblue" stroke="midnightblue" points="183.98,-178 193.98,-174.5 183.98,-171 183.98,-178"/>
</g>
<!-- Node5 -->
<g id="node5" class="node">
<title>Node5</title>
<g id="a_node5"><a xlink:href="classdenoptim_1_1graph_1_1_fragment.html#ab272daa0515a1ee2fb99a2eb6a81a4a0" target="_top" xlink:title="Depends on an healthy list of attachment points with properly set pointers to the source atoms.">
<polygon fill="white" stroke="black" points="194,-86.5 194,-116.5 352,-116.5 352,-86.5 194,-86.5"/>
<text text-anchor="start" x="202" y="-104.5" font-family="Helvetica,sans-Serif" font-size="10.00">denoptim.graph.Fragment.update</text>
<text text-anchor="middle" x="273" y="-93.5" font-family="Helvetica,sans-Serif" font-size="10.00">SymmetryRelations</text>
</a>
</g>
</g>
<!-- Node1&#45;&gt;Node5 -->
<g id="edge5" class="edge">
<title>Node1&#45;&gt;Node5</title>
<path fill="none" stroke="midnightblue" d="M119.78,-159.37C149.65,-148.02 190.71,-132.41 222.67,-120.26"/>
<polygon fill="midnightblue" stroke="midnightblue" points="224.17,-123.43 232.27,-116.61 221.68,-116.89 224.17,-123.43"/>
</g>
<!-- Node3&#45;&gt;Node2 -->
<g id="edge4" class="edge">
<title>Node3&#45;&gt;Node2</title>
<path fill="none" stroke="midnightblue" d="M352.14,-183.89C364.14,-185.2 376.39,-186.45 388,-187.5 454.36,-193.52 529.69,-198.52 585.64,-201.87"/>
<polygon fill="midnightblue" stroke="midnightblue" points="585.67,-205.38 595.86,-202.48 586.08,-198.39 585.67,-205.38"/>
</g>
<!-- Node4 -->
<g id="node4" class="node">
<title>Node4</title>
<g id="a_node4"><a xlink:href="classdenoptim_1_1graph_1_1_fragment.html#a551361a1155600e6e2fe4e37590c924f" target="_top" xlink:title=" ">
<polygon fill="white" stroke="black" points="396.5,-147.5 396.5,-177.5 538.5,-177.5 538.5,-147.5 396.5,-147.5"/>
<text text-anchor="start" x="404.5" y="-165.5" font-family="Helvetica,sans-Serif" font-size="10.00">denoptim.graph.Fragment.get</text>
<text text-anchor="middle" x="467.5" y="-154.5" font-family="Helvetica,sans-Serif" font-size="10.00">APsFromAtom</text>
</a>
</g>
</g>
<!-- Node3&#45;&gt;Node4 -->
<g id="edge3" class="edge">
<title>Node3&#45;&gt;Node4</title>
<path fill="none" stroke="midnightblue" d="M352.02,-169.64C363.27,-168.94 374.87,-168.21 386.16,-167.51"/>
<polygon fill="midnightblue" stroke="midnightblue" points="386.67,-170.98 396.43,-166.87 386.23,-164 386.67,-170.98"/>
</g>
<!-- Node6 -->
<g id="node6" class="node">
<title>Node6</title>
<g id="a_node6"><a xlink:href="classdenoptim_1_1graph_1_1_fragment.html#a9f0d8233f6ed31316409d643b5e0f0cd" target="_top" xlink:title=" ">
<polygon fill="white" stroke="black" points="396.5,-98.5 396.5,-128.5 538.5,-128.5 538.5,-98.5 396.5,-98.5"/>
<text text-anchor="start" x="404.5" y="-116.5" font-family="Helvetica,sans-Serif" font-size="10.00">denoptim.graph.Fragment.get</text>
<text text-anchor="middle" x="467.5" y="-105.5" font-family="Helvetica,sans-Serif" font-size="10.00">AttachmentPoints</text>
</a>
</g>
</g>
<!-- Node5&#45;&gt;Node6 -->
<g id="edge6" class="edge">
<title>Node5&#45;&gt;Node6</title>
<path fill="none" stroke="midnightblue" d="M352.02,-106.36C363.27,-107.06 374.87,-107.79 386.16,-108.49"/>
<polygon fill="midnightblue" stroke="midnightblue" points="386.23,-112 396.43,-109.13 386.67,-105.02 386.23,-112"/>
</g>
<!-- Node7 -->
<g id="node7" class="node">
<title>Node7</title>
<g id="a_node7"><a xlink:href="classdenoptim_1_1graph_1_1_fragment.html#a41f439afd1ed84bc64fa895b440f47ce" target="_top" xlink:title=" ">
<polygon fill="white" stroke="black" points="388,-49.5 388,-79.5 547,-79.5 547,-49.5 388,-49.5"/>
<text text-anchor="start" x="396" y="-67.5" font-family="Helvetica,sans-Serif" font-size="10.00">denoptim.graph.Fragment.identify</text>
<text text-anchor="middle" x="467.5" y="-56.5" font-family="Helvetica,sans-Serif" font-size="10.00">SymmetryRelatedAPSets</text>
</a>
</g>
</g>
<!-- Node5&#45;&gt;Node7 -->
<g id="edge7" class="edge">
<title>Node5&#45;&gt;Node7</title>
<path fill="none" stroke="midnightblue" d="M352.02,-86.5C360.73,-84.83 369.64,-83.12 378.46,-81.42"/>
<polygon fill="midnightblue" stroke="midnightblue" points="379.21,-84.84 388.37,-79.52 377.89,-77.97 379.21,-84.84"/>
</g>
<!-- Node11 -->
<g id="node11" class="node">
<title>Node11</title>
<g id="a_node11"><a xlink:href="classdenoptim_1_1graph_1_1_fragment.html#a66decdfeee2f583361c51e00ac598557" target="_top" xlink:title=" ">
<polygon fill="white" stroke="black" points="396.5,-0.5 396.5,-30.5 538.5,-30.5 538.5,-0.5 396.5,-0.5"/>
<text text-anchor="start" x="404.5" y="-18.5" font-family="Helvetica,sans-Serif" font-size="10.00">denoptim.graph.Fragment.set</text>
<text text-anchor="middle" x="467.5" y="-7.5" font-family="Helvetica,sans-Serif" font-size="10.00">SymmetricAPSets</text>
</a>
</g>
</g>
<!-- Node5&#45;&gt;Node11 -->
<g id="edge12" class="edge">
<title>Node5&#45;&gt;Node11</title>
<path fill="none" stroke="midnightblue" d="M299.15,-86.31C321.82,-73.05 356.36,-53.87 388,-40.5 393.4,-38.22 399.09,-36.02 404.83,-33.95"/>
<polygon fill="midnightblue" stroke="midnightblue" points="406.2,-37.18 414.49,-30.58 403.9,-30.57 406.2,-37.18"/>
</g>
<!-- Node7&#45;&gt;Node2 -->
<g id="edge11" class="edge">
<title>Node7&#45;&gt;Node2</title>
<path fill="none" stroke="midnightblue" d="M528.51,-79.55C535.01,-82.35 541.32,-85.64 547,-89.5 567.9,-103.7 565.3,-115.47 583,-133.5 601.28,-152.11 623.82,-171.12 641.24,-185.07"/>
<polygon fill="midnightblue" stroke="midnightblue" points="639.33,-188.02 649.34,-191.49 643.67,-182.54 639.33,-188.02"/>
</g>
<!-- Node8 -->
<g id="node8" class="node">
<title>Node8</title>
<g id="a_node8"><a xlink:href="classdenoptim_1_1graph_1_1_fragment.html#a90fc66d07e071376ee45a32ab8a76020" target="_top" xlink:title="Checks if the atoms at the given positions have similar environments i.e.">
<polygon fill="white" stroke="black" points="592.5,-93.5 592.5,-123.5 747.5,-123.5 747.5,-93.5 592.5,-93.5"/>
<text text-anchor="start" x="600.5" y="-111.5" font-family="Helvetica,sans-Serif" font-size="10.00">denoptim.graph.Fragment.atoms</text>
<text text-anchor="middle" x="670" y="-100.5" font-family="Helvetica,sans-Serif" font-size="10.00">AreCompatible</text>
</a>
</g>
</g>
<!-- Node7&#45;&gt;Node8 -->
<g id="edge8" class="edge">
<title>Node7&#45;&gt;Node8</title>
<path fill="none" stroke="midnightblue" d="M536.94,-79.52C554.1,-83.29 572.66,-87.36 590.28,-91.22"/>
<polygon fill="midnightblue" stroke="midnightblue" points="590.01,-94.75 600.53,-93.47 591.51,-87.91 590.01,-94.75"/>
</g>
<!-- Node9 -->
<g id="node9" class="node">
<title>Node9</title>
<g id="a_node9"><a xlink:href="classdenoptim_1_1graph_1_1_a_p_class.html#a5cac5d20b70a0eace014ce062a271fbf" target="_top" xlink:title=" ">
<polygon fill="white" stroke="black" points="583,-55 583,-74 757,-74 757,-55 583,-55"/>
<text text-anchor="middle" x="670" y="-62" font-family="Helvetica,sans-Serif" font-size="10.00">denoptim.graph.APClass.compareTo</text>
</a>
</g>
</g>
<!-- Node7&#45;&gt;Node9 -->
<g id="edge9" class="edge">
<title>Node7&#45;&gt;Node9</title>
<path fill="none" stroke="midnightblue" d="M547.17,-64.5C555.6,-64.5 564.26,-64.5 572.87,-64.5"/>
<polygon fill="midnightblue" stroke="midnightblue" points="572.94,-68 582.94,-64.5 572.94,-61 572.94,-68"/>
</g>
<!-- Node10 -->
<g id="node10" class="node">
<title>Node10</title>
<g id="a_node10"><a xlink:href="classdenoptim_1_1graph_1_1_attachment_point.html#a31bed4cb29f6437bf8a888a1dda3fd95" target="_top" xlink:title="Returns the Attachment Point class.">
<polygon fill="white" stroke="black" points="602.5,-5.5 602.5,-35.5 737.5,-35.5 737.5,-5.5 602.5,-5.5"/>
<text text-anchor="start" x="610.5" y="-23.5" font-family="Helvetica,sans-Serif" font-size="10.00">denoptim.graph.Attachment</text>
<text text-anchor="middle" x="670" y="-12.5" font-family="Helvetica,sans-Serif" font-size="10.00">Point.getAPClass</text>
</a>
</g>
</g>
<!-- Node7&#45;&gt;Node10 -->
<g id="edge10" class="edge">
<title>Node7&#45;&gt;Node10</title>
<path fill="none" stroke="midnightblue" d="M536.94,-49.48C554.74,-45.57 574.04,-41.34 592.24,-37.34"/>
<polygon fill="midnightblue" stroke="midnightblue" points="593.21,-40.72 602.23,-35.15 591.71,-33.88 593.21,-40.72"/>
</g>
</g>
</svg>
