<?xml version="1.0" encoding="UTF-8" standalone="no"?>
<!DOCTYPE svg PUBLIC "-//W3C//DTD SVG 1.1//EN"
 "http://www.w3.org/Graphics/SVG/1.1/DTD/svg11.dtd">
<!-- Generated by graphviz version 3.0.0 (20220413.0242)
 -->
<!-- Title: denoptim.ga.EAUtils.getSummaryStatistics Pages: 1 -->
<!--zoomable 488 -->
<svg id="main" version="1.1" xmlns="http://www.w3.org/2000/svg" xmlns:xlink="http://www.w3.org/1999/xlink" xml:space="preserve" onload="init(evt)">
<style type="text/css"><![CDATA[
.edge:hover path { stroke: red; }
.edge:hover polygon { stroke: red; fill: red; }
]]></style>
<script type="text/javascript"><![CDATA[
var edges = document.getElementsByTagName('g');
if (edges && edges.length) {
  for (var i=0;i<edges.length;i++) {
    if (edges[i].id.substr(0,4)=='edge') {
      edges[i].setAttribute('class','edge');
    }
  }
}
]]></script>
        <defs>
                <circle id="rim" cx="0" cy="0" r="7"/>
                <circle id="rim2" cx="0" cy="0" r="3.5"/>
                <g id="zoomPlus">
                        <use xlink:href="#rim" fill="#404040">
                                <set attributeName="fill" to="#808080" begin="zoomplus.mouseover" end="zoomplus.mouseout"/>
                        </use>
                        <path d="M-4,0h8M0,-4v8" fill="none" stroke="white" stroke-width="1.5" pointer-events="none"/>
                </g>
                <g id="zoomMin">
                        <use xlink:href="#rim" fill="#404040">
                                <set attributeName="fill" to="#808080" begin="zoomminus.mouseover" end="zoomminus.mouseout"/>
                        </use>
                        <path d="M-4,0h8" fill="none" stroke="white" stroke-width="1.5" pointer-events="none"/>
                </g>
                <g id="dirArrow">
                        <path fill="none" stroke="white" stroke-width="1.5" d="M0,-3.0v7 M-2.5,-0.5L0,-3.0L2.5,-0.5"/>
                </g>
               <g id="resetDef">
                       <use xlink:href="#rim2" fill="#404040">
                               <set attributeName="fill" to="#808080" begin="reset.mouseover" end="reset.mouseout"/>
                       </use>
               </g>
        </defs>

<script type="text/javascript">
var viewWidth = 1091;
var viewHeight = 488;
var sectionId = 'dynsection-46';
</script>
<script xlink:href="svgpan.js"/>
<svg id="graph" class="graph">
<g id="viewport">
<title>denoptim.ga.EAUtils.getSummaryStatistics</title>
<polygon fill="white" stroke="transparent" points="-4,4 -4,-484.5 1087,-484.5 1087,4 -4,4"/>
<!-- Node1 -->
<g id="node1" class="node">
<title>Node1</title>
<g id="a_node1"><a xlink:title=" ">
<polygon fill="#bfbfbf" stroke="black" points="0,-202 0,-232 161,-232 161,-202 0,-202"/>
<text text-anchor="start" x="8" y="-220" font-family="Helvetica,sans-Serif" font-size="10.00">denoptim.ga.EAUtils.getSummary</text>
<text text-anchor="middle" x="80.5" y="-209" font-family="Helvetica,sans-Serif" font-size="10.00">Statistics</text>
</a>
</g>
</g>
<!-- Node2 -->
<g id="node2" class="node">
<title>Node2</title>
<g id="a_node2"><a xlink:href="classdenoptim_1_1programs_1_1_run_time_parameters.html#a132443dda8e8278736100a7ff759f666" target="_top" xlink:title=" ">
<polygon fill="white" stroke="black" points="208.5,-450 208.5,-480 364.5,-480 364.5,-450 208.5,-450"/>
<text text-anchor="start" x="216.5" y="-468" font-family="Helvetica,sans-Serif" font-size="10.00">denoptim.programs.RunTime</text>
<text text-anchor="middle" x="286.5" y="-457" font-family="Helvetica,sans-Serif" font-size="10.00">Parameters.containsParameters</text>
</a>
</g>
</g>
<!-- Node1&#45;&gt;Node2 -->
<g id="edge1" class="edge">
<title>Node1&#45;&gt;Node2</title>
<path fill="none" stroke="midnightblue" d="M84.89,-232.11C94.71,-272.36 127.06,-382.96 197,-440 199.06,-441.68 201.22,-443.24 203.47,-444.7"/>
<polygon fill="midnightblue" stroke="midnightblue" points="202.08,-447.94 212.5,-449.83 205.53,-441.85 202.08,-447.94"/>
</g>
<!-- Node3 -->
<g id="node3" class="node">
<title>Node3</title>
<g id="a_node3"><a xlink:href="classdenoptim_1_1ga_1_1_e_a_utils.html#aa9960d143f0848577aec0e8ee65deb12" target="_top" xlink:title="Get the fitness values for the list of molecules.">
<polygon fill="white" stroke="black" points="205,-411.5 205,-430.5 368,-430.5 368,-411.5 205,-411.5"/>
<text text-anchor="middle" x="286.5" y="-418.5" font-family="Helvetica,sans-Serif" font-size="10.00">denoptim.ga.EAUtils.getFitnesses</text>
</a>
</g>
</g>
<!-- Node1&#45;&gt;Node3 -->
<g id="edge2" class="edge">
<title>Node1&#45;&gt;Node3</title>
<path fill="none" stroke="midnightblue" d="M86.3,-232.09C98.5,-267.83 134.25,-357.94 197,-402 199.77,-403.94 202.69,-405.69 205.73,-407.26"/>
<polygon fill="midnightblue" stroke="midnightblue" points="204.58,-410.59 215.14,-411.49 207.45,-404.2 204.58,-410.59"/>
</g>
<!-- Node4 -->
<g id="node4" class="node">
<title>Node4</title>
<g id="a_node4"><a xlink:href="classdenoptim_1_1fragspace_1_1_fragment_space_parameters.html#a93693af51412000689dc7517151b9a05" target="_top" xlink:title=" ">
<polygon fill="white" stroke="black" points="197,-362 197,-392 376,-392 376,-362 197,-362"/>
<text text-anchor="start" x="205" y="-380" font-family="Helvetica,sans-Serif" font-size="10.00">denoptim.fragspace.Fragment</text>
<text text-anchor="middle" x="286.5" y="-369" font-family="Helvetica,sans-Serif" font-size="10.00">SpaceParameters.getFragmentSpace</text>
</a>
</g>
</g>
<!-- Node1&#45;&gt;Node4 -->
<g id="edge3" class="edge">
<title>Node1&#45;&gt;Node4</title>
<path fill="none" stroke="midnightblue" d="M90.13,-232.27C106.93,-260.56 146.79,-321.11 197,-353 199.6,-354.65 202.32,-356.19 205.12,-357.63"/>
<polygon fill="midnightblue" stroke="midnightblue" points="203.74,-360.85 214.29,-361.86 206.68,-354.49 203.74,-360.85"/>
</g>
<!-- Node5 -->
<g id="node5" class="node">
<title>Node5</title>
<g id="a_node5"><a xlink:href="classdenoptim_1_1programs_1_1_run_time_parameters.html#a4da800dd8e739b91dbf8b4b960ee2e51" target="_top" xlink:title=" ">
<polygon fill="white" stroke="black" points="216.5,-313 216.5,-343 356.5,-343 356.5,-313 216.5,-313"/>
<text text-anchor="start" x="224.5" y="-331" font-family="Helvetica,sans-Serif" font-size="10.00">denoptim.programs.RunTime</text>
<text text-anchor="middle" x="286.5" y="-320" font-family="Helvetica,sans-Serif" font-size="10.00">Parameters.getParameters</text>
</a>
</g>
</g>
<!-- Node1&#45;&gt;Node5 -->
<g id="edge4" class="edge">
<title>Node1&#45;&gt;Node5</title>
<path fill="none" stroke="midnightblue" d="M97.38,-232.15C118.51,-251.5 157.77,-284.79 197,-304 200.97,-305.94 205.12,-307.74 209.36,-309.41"/>
<polygon fill="midnightblue" stroke="midnightblue" points="208.17,-312.71 218.76,-312.87 210.58,-306.13 208.17,-312.71"/>
</g>
<!-- Node6 -->
<g id="node6" class="node">
<title>Node6</title>
<g id="a_node6"><a xlink:href="classdenoptim_1_1programs_1_1denovo_1_1_g_a_parameters.html#a2e544172988f30a190ef37cceb09fbfc" target="_top" xlink:title=" ">
<polygon fill="white" stroke="black" points="206,-264 206,-294 367,-294 367,-264 206,-264"/>
<text text-anchor="start" x="214" y="-282" font-family="Helvetica,sans-Serif" font-size="10.00">denoptim.programs.denovo.</text>
<text text-anchor="middle" x="286.5" y="-271" font-family="Helvetica,sans-Serif" font-size="10.00">GAParameters.getPrecisionLevel</text>
</a>
</g>
</g>
<!-- Node1&#45;&gt;Node6 -->
<g id="edge5" class="edge">
<title>Node1&#45;&gt;Node6</title>
<path fill="none" stroke="midnightblue" d="M127.19,-232.04C148.38,-238.91 173.92,-247.04 197,-254 204.91,-256.38 213.24,-258.82 221.49,-261.2"/>
<polygon fill="midnightblue" stroke="midnightblue" points="220.54,-264.57 231.12,-263.96 222.47,-257.84 220.54,-264.57"/>
</g>
<!-- Node7 -->
<g id="node7" class="node">
<title>Node7</title>
<g id="a_node7"><a xlink:href="classdenoptim_1_1utils_1_1_stat_utils.html#abd3508ae7b87a92f819db91a0dd70dcb" target="_top" xlink:title="Returns the maximum value among the numbers .">
<polygon fill="white" stroke="black" points="218,-207.5 218,-226.5 355,-226.5 355,-207.5 218,-207.5"/>
<text text-anchor="middle" x="286.5" y="-214.5" font-family="Helvetica,sans-Serif" font-size="10.00">denoptim.utils.StatUtils.max</text>
</a>
</g>
</g>
<!-- Node1&#45;&gt;Node7 -->
<g id="edge6" class="edge">
<title>Node1&#45;&gt;Node7</title>
<path fill="none" stroke="midnightblue" d="M161.25,-217C176.41,-217 192.26,-217 207.38,-217"/>
<polygon fill="midnightblue" stroke="midnightblue" points="207.7,-220.5 217.7,-217 207.7,-213.5 207.7,-220.5"/>
</g>
<!-- Node8 -->
<g id="node8" class="node">
<title>Node8</title>
<g id="a_node8"><a xlink:href="classdenoptim_1_1utils_1_1_stat_utils.html#a12ae258bebe1f3568dabdd606edd3d56" target="_top" xlink:title="Returns the mean number in the numbers list.">
<polygon fill="white" stroke="black" points="766,-74.5 766,-93.5 909,-93.5 909,-74.5 766,-74.5"/>
<text text-anchor="middle" x="837.5" y="-81.5" font-family="Helvetica,sans-Serif" font-size="10.00">denoptim.utils.StatUtils.mean</text>
</a>
</g>
</g>
<!-- Node1&#45;&gt;Node8 -->
<g id="edge8" class="edge">
<title>Node1&#45;&gt;Node8</title>
<path fill="none" stroke="midnightblue" d="M161.23,-202.95C311.74,-176.44 634.93,-119.51 772.44,-95.28"/>
<polygon fill="midnightblue" stroke="midnightblue" points="773.17,-98.71 782.41,-93.53 771.96,-91.81 773.17,-98.71"/>
</g>
<!-- Node10 -->
<g id="node10" class="node">
<title>Node10</title>
<g id="a_node10"><a xlink:href="classdenoptim_1_1utils_1_1_stat_utils.html#a68460a326762f6b16aca2c3380525c35" target="_top" xlink:title="Calculates median value of a sorted list.">
<polygon fill="white" stroke="black" points="211,-131.5 211,-150.5 362,-150.5 362,-131.5 211,-131.5"/>
<text text-anchor="middle" x="286.5" y="-138.5" font-family="Helvetica,sans-Serif" font-size="10.00">denoptim.utils.StatUtils.median</text>
</a>
</g>
</g>
<!-- Node1&#45;&gt;Node10 -->
<g id="edge11" class="edge">
<title>Node1&#45;&gt;Node10</title>
<path fill="none" stroke="midnightblue" d="M111.36,-201.98C134.37,-190.79 167.19,-175.68 197,-165 209.18,-160.64 222.55,-156.62 235.12,-153.18"/>
<polygon fill="midnightblue" stroke="midnightblue" points="236.23,-156.5 244.99,-150.54 234.43,-149.74 236.23,-156.5"/>
</g>
<!-- Node11 -->
<g id="node11" class="node">
<title>Node11</title>
<g id="a_node11"><a xlink:href="classdenoptim_1_1utils_1_1_stat_utils.html#aad3c103a99a3c3110108f6dd7d1922ff" target="_top" xlink:title="Returns the minimum value among the numbers .">
<polygon fill="white" stroke="black" points="219,-75.5 219,-94.5 354,-94.5 354,-75.5 219,-75.5"/>
<text text-anchor="middle" x="286.5" y="-82.5" font-family="Helvetica,sans-Serif" font-size="10.00">denoptim.utils.StatUtils.min</text>
</a>
</g>
</g>
<!-- Node1&#45;&gt;Node11 -->
<g id="edge12" class="edge">
<title>Node1&#45;&gt;Node11</title>
<path fill="none" stroke="midnightblue" d="M96.82,-201.87C117.94,-181.64 157.86,-145.58 197,-122 212.71,-112.53 231.29,-104.36 247.35,-98.13"/>
<polygon fill="midnightblue" stroke="midnightblue" points="248.86,-101.3 256.98,-94.5 246.39,-94.75 248.86,-101.3"/>
</g>
<!-- Node12 -->
<g id="node12" class="node">
<title>Node12</title>
<g id="a_node12"><a xlink:href="classdenoptim_1_1utils_1_1_stat_utils.html#a42a83457989ab54a4cbb808fbca8ee1f" target="_top" xlink:title="Computes the skewness of the available values.">
<polygon fill="white" stroke="black" points="204.5,-37.5 204.5,-56.5 368.5,-56.5 368.5,-37.5 204.5,-37.5"/>
<text text-anchor="middle" x="286.5" y="-44.5" font-family="Helvetica,sans-Serif" font-size="10.00">denoptim.utils.StatUtils.skewness</text>
</a>
</g>
</g>
<!-- Node1&#45;&gt;Node12 -->
<g id="edge14" class="edge">
<title>Node1&#45;&gt;Node12</title>
<path fill="none" stroke="midnightblue" d="M88.55,-201.71C103.68,-170.74 142.35,-100.61 197,-66 200.34,-63.88 203.88,-62 207.54,-60.32"/>
<polygon fill="midnightblue" stroke="midnightblue" points="208.9,-63.55 216.87,-56.57 206.29,-57.05 208.9,-63.55"/>
</g>
<!-- Node13 -->
<g id="node13" class="node">
<title>Node13</title>
<g id="a_node13"><a xlink:href="classdenoptim_1_1utils_1_1_stat_utils.html#a31cf5dc53af191a60dbcdba3b1f9da6b" target="_top" xlink:title="Returns the standard deviation of the numbers.">
<polygon fill="white" stroke="black" points="412,-18.5 412,-37.5 561,-37.5 561,-18.5 412,-18.5"/>
<text text-anchor="middle" x="486.5" y="-25.5" font-family="Helvetica,sans-Serif" font-size="10.00">denoptim.utils.StatUtils.stddev</text>
</a>
</g>
</g>
<!-- Node1&#45;&gt;Node13 -->
<g id="edge21" class="edge">
<title>Node1&#45;&gt;Node13</title>
<path fill="none" stroke="midnightblue" d="M85.31,-201.8C95.7,-164.08 128.41,-66.46 197,-28 275.05,15.78 384.68,-1.55 443.79,-16.01"/>
<polygon fill="midnightblue" stroke="midnightblue" points="442.97,-19.42 453.53,-18.48 444.69,-12.63 442.97,-19.42"/>
</g>
<!-- Node7&#45;&gt;Node7 -->
<g id="edge7" class="edge">
<title>Node7&#45;&gt;Node7</title>
<path fill="none" stroke="midnightblue" d="M255.67,-226.75C240.68,-235.56 250.95,-245 286.5,-245 311.49,-245 323.99,-240.33 324,-234.5"/>
<polygon fill="midnightblue" stroke="midnightblue" points="326.5,-232.05 317.33,-226.75 321.2,-236.62 326.5,-232.05"/>
</g>
<!-- Node9 -->
<g id="node9" class="node">
<title>Node9</title>
<g id="a_node9"><a xlink:href="classdenoptim_1_1utils_1_1_stat_utils.html#a181673167433cb8ad256d0295d76c29f" target="_top" xlink:title="Returns the sum number in the numbers list.">
<polygon fill="white" stroke="black" points="945,-55.5 945,-74.5 1083,-74.5 1083,-55.5 945,-55.5"/>
<text text-anchor="middle" x="1014" y="-62.5" font-family="Helvetica,sans-Serif" font-size="10.00">denoptim.utils.StatUtils.sum</text>
</a>
</g>
</g>
<!-- Node8&#45;&gt;Node9 -->
<g id="edge9" class="edge">
<title>Node8&#45;&gt;Node9</title>
<path fill="none" stroke="midnightblue" d="M909.22,-76.3C917.55,-75.39 926.09,-74.46 934.52,-73.54"/>
<polygon fill="midnightblue" stroke="midnightblue" points="935.16,-76.99 944.72,-72.43 934.4,-70.04 935.16,-76.99"/>
</g>
<!-- Node9&#45;&gt;Node9 -->
<g id="edge10" class="edge">
<title>Node9&#45;&gt;Node9</title>
<path fill="none" stroke="midnightblue" d="M986.87,-74.75C973.68,-83.56 982.72,-93 1014,-93 1035.51,-93 1046.5,-88.54 1046.98,-82.89"/>
<polygon fill="midnightblue" stroke="midnightblue" points="1049.81,-80.83 1041.13,-74.75 1044.13,-84.92 1049.81,-80.83"/>
</g>
<!-- Node11&#45;&gt;Node11 -->
<g id="edge13" class="edge">
<title>Node11&#45;&gt;Node11</title>
<path fill="none" stroke="midnightblue" d="M255.67,-94.75C240.68,-103.56 250.95,-113 286.5,-113 311.49,-113 323.99,-108.33 324,-102.5"/>
<polygon fill="midnightblue" stroke="midnightblue" points="326.5,-100.05 317.33,-94.75 321.2,-104.62 326.5,-100.05"/>
</g>
<!-- Node12&#45;&gt;Node8 -->
<g id="edge15" class="edge">
<title>Node12&#45;&gt;Node8</title>
<path fill="none" stroke="midnightblue" d="M345,-56.52C366.03,-59.68 390.04,-62.92 412,-65 531.27,-76.26 670.05,-80.88 755.59,-82.75"/>
<polygon fill="midnightblue" stroke="midnightblue" points="755.68,-86.25 765.75,-82.97 755.82,-79.26 755.68,-86.25"/>
</g>
<!-- Node12&#45;&gt;Node13 -->
<g id="edge16" class="edge">
<title>Node12&#45;&gt;Node13</title>
<path fill="none" stroke="midnightblue" d="M368.61,-39.21C379.56,-38.16 390.82,-37.08 401.82,-36.03"/>
<polygon fill="midnightblue" stroke="midnightblue" points="402.22,-39.51 411.84,-35.07 401.55,-32.54 402.22,-39.51"/>
</g>
<!-- Node13&#45;&gt;Node13 -->
<g id="edge17" class="edge">
<title>Node13&#45;&gt;Node13</title>
<path fill="none" stroke="midnightblue" d="M459.37,-37.75C446.18,-46.56 455.22,-56 486.5,-56 508.01,-56 519,-51.54 519.48,-45.89"/>
<polygon fill="midnightblue" stroke="midnightblue" points="522.31,-43.83 513.63,-37.75 516.63,-47.92 522.31,-43.83"/>
</g>
<!-- Node14 -->
<g id="node14" class="node">
<title>Node14</title>
<g id="a_node14"><a xlink:href="classdenoptim_1_1utils_1_1_stat_utils.html#aac6cf70b1516266ef3e845d5ad4633f5" target="_top" xlink:title="Computes the variance of the available values.">
<polygon fill="white" stroke="black" points="597,-36.5 597,-55.5 730,-55.5 730,-36.5 597,-36.5"/>
<text text-anchor="middle" x="663.5" y="-43.5" font-family="Helvetica,sans-Serif" font-size="10.00">denoptim.utils.StatUtils.var</text>
</a>
</g>
</g>
<!-- Node13&#45;&gt;Node14 -->
<g id="edge18" class="edge">
<title>Node13&#45;&gt;Node14</title>
<path fill="none" stroke="midnightblue" d="M561.21,-35.58C569.64,-36.45 578.25,-37.33 586.71,-38.2"/>
<polygon fill="midnightblue" stroke="midnightblue" points="586.63,-41.71 596.94,-39.25 587.35,-34.75 586.63,-41.71"/>
</g>
<!-- Node14&#45;&gt;Node8 -->
<g id="edge19" class="edge">
<title>Node14&#45;&gt;Node8</title>
<path fill="none" stroke="midnightblue" d="M707.9,-55.59C730.91,-60.67 759.35,-66.95 783.63,-72.32"/>
<polygon fill="midnightblue" stroke="midnightblue" points="782.89,-75.74 793.41,-74.48 784.4,-68.9 782.89,-75.74"/>
</g>
<!-- Node14&#45;&gt;Node9 -->
<g id="edge20" class="edge">
<title>Node14&#45;&gt;Node9</title>
<path fill="none" stroke="midnightblue" d="M730.05,-49.57C788.14,-52.74 873.06,-57.37 934.7,-60.73"/>
<polygon fill="midnightblue" stroke="midnightblue" points="934.59,-64.23 944.77,-61.28 934.97,-57.24 934.59,-64.23"/>
</g>
</g>
</svg>
        <g id="navigator" transform="translate(0 0)" fill="#404254">
                <rect fill="#f2f5e9" fill-opacity="0.5" stroke="#606060" stroke-width=".5" x="0" y="0" width="60" height="60"/>
                <use id="zoomplus" xlink:href="#zoomPlus" x="17" y="9" onmousedown="handleZoom(evt,'in')"/>
                <use id="zoomminus" xlink:href="#zoomMin" x="42" y="9" onmousedown="handleZoom(evt,'out')"/>
                <use id="reset" xlink:href="#resetDef" x="30" y="36" onmousedown="handleReset()"/>
                <g id="arrowUp" xlink:href="#dirArrow" transform="translate(30 24)" onmousedown="handlePan(0,-1)">
                  <use xlink:href="#rim" fill="#404040">
                        <set attributeName="fill" to="#808080" begin="arrowUp.mouseover" end="arrowUp.mouseout"/>
                  </use>
                  <path fill="none" stroke="white" stroke-width="1.5" d="M0,-3.0v7 M-2.5,-0.5L0,-3.0L2.5,-0.5"/>
                </g>
                <g id="arrowRight" xlink:href="#dirArrow" transform="rotate(90) translate(36 -43)" onmousedown="handlePan(1,0)">
                  <use xlink:href="#rim" fill="#404040">
                        <set attributeName="fill" to="#808080" begin="arrowRight.mouseover" end="arrowRight.mouseout"/>
                  </use>
                  <path fill="none" stroke="white" stroke-width="1.5" d="M0,-3.0v7 M-2.5,-0.5L0,-3.0L2.5,-0.5"/>
                </g>
                <g id="arrowDown" xlink:href="#dirArrow" transform="rotate(180) translate(-30 -48)" onmousedown="handlePan(0,1)">
                  <use xlink:href="#rim" fill="#404040">
                        <set attributeName="fill" to="#808080" begin="arrowDown.mouseover" end="arrowDown.mouseout"/>
                  </use>
                  <path fill="none" stroke="white" stroke-width="1.5" d="M0,-3.0v7 M-2.5,-0.5L0,-3.0L2.5,-0.5"/>
                </g>
                <g id="arrowLeft" xlink:href="#dirArrow" transform="rotate(270) translate(-36 17)" onmousedown="handlePan(-1,0)">
                  <use xlink:href="#rim" fill="#404040">
                        <set attributeName="fill" to="#808080" begin="arrowLeft.mouseover" end="arrowLeft.mouseout"/>
                  </use>
                  <path fill="none" stroke="white" stroke-width="1.5" d="M0,-3.0v7 M-2.5,-0.5L0,-3.0L2.5,-0.5"/>
                </g>
        </g>
        <svg viewBox="0 0 15 15" width="100%" height="30px" preserveAspectRatio="xMaxYMin meet">
         <g id="arrow_out" transform="scale(0.3 0.3)">
          <a xlink:href="classdenoptim_1_1ga_1_1_e_a_utils_aa9dec22b5b0a35d6b333f8ce3bf83643_cgraph_org.svg" target="_base">
           <rect id="button" ry="5" rx="5" y="6" x="6" height="38" width="38"
                fill="#f2f5e9" fill-opacity="0.5" stroke="#606060" stroke-width="1.0"/>
           <path id="arrow"
             d="M 11.500037,31.436501 C 11.940474,20.09759 22.043105,11.32322 32.158766,21.979434 L 37.068811,17.246167 C 37.068811,17.246167 37.088388,32 37.088388,32 L 22.160133,31.978069 C 22.160133,31.978069 26.997745,27.140456 26.997745,27.140456 C 18.528582,18.264221 13.291696,25.230495 11.500037,31.436501 z"
             style="fill:#404040;"/>
          </a>
         </g>
        </svg>
</svg>
