<?xml version="1.0" encoding="UTF-8" standalone="no"?>
<!DOCTYPE svg PUBLIC "-//W3C//DTD SVG 1.1//EN"
 "http://www.w3.org/Graphics/SVG/1.1/DTD/svg11.dtd">
<!-- Generated by graphviz version 3.0.0 (20220413.0242)
 -->
<!-- Title: denoptim.fragmenter.ConformerExtractorTask Pages: 1 -->
<!--zoomable 757 -->
<svg id="main" version="1.1" xmlns="http://www.w3.org/2000/svg" xmlns:xlink="http://www.w3.org/1999/xlink" xml:space="preserve" onload="init(evt)">
<style type="text/css"><![CDATA[
.edge:hover path { stroke: red; }
.edge:hover polygon { stroke: red; fill: red; }
]]></style>
<script type="text/javascript"><![CDATA[
var edges = document.getElementsByTagName('g');
if (edges && edges.length) {
  for (var i=0;i<edges.length;i++) {
    if (edges[i].id.substr(0,4)=='edge') {
      edges[i].setAttribute('class','edge');
    }
  }
}
]]></script>
        <defs>
                <circle id="rim" cx="0" cy="0" r="7"/>
                <circle id="rim2" cx="0" cy="0" r="3.5"/>
                <g id="zoomPlus">
                        <use xlink:href="#rim" fill="#404040">
                                <set attributeName="fill" to="#808080" begin="zoomplus.mouseover" end="zoomplus.mouseout"/>
                        </use>
                        <path d="M-4,0h8M0,-4v8" fill="none" stroke="white" stroke-width="1.5" pointer-events="none"/>
                </g>
                <g id="zoomMin">
                        <use xlink:href="#rim" fill="#404040">
                                <set attributeName="fill" to="#808080" begin="zoomminus.mouseover" end="zoomminus.mouseout"/>
                        </use>
                        <path d="M-4,0h8" fill="none" stroke="white" stroke-width="1.5" pointer-events="none"/>
                </g>
                <g id="dirArrow">
                        <path fill="none" stroke="white" stroke-width="1.5" d="M0,-3.0v7 M-2.5,-0.5L0,-3.0L2.5,-0.5"/>
                </g>
               <g id="resetDef">
                       <use xlink:href="#rim2" fill="#404040">
                               <set attributeName="fill" to="#808080" begin="reset.mouseover" end="reset.mouseout"/>
                       </use>
               </g>
        </defs>

<script type="text/javascript">
var viewWidth = 1183;
var viewHeight = 757;
var sectionId = 'dynsection-1';
</script>
<script xlink:href="svgpan.js"/>
<svg id="graph" class="graph">
<g id="viewport">
<title>denoptim.fragmenter.ConformerExtractorTask</title>
<polygon fill="white" stroke="transparent" points="-4,4 -4,-752.95 1179,-752.95 1179,4 -4,4"/>
<!-- Node1 -->
<g id="node1" class="node">
<title>Node1</title>
<g id="a_node1"><a xlink:title="Task that analyzes an isomorphic family of fragments to identify the most representative fragment (i....">
<polygon fill="#bfbfbf" stroke="black" points="1023,-566.95 1023,-596.95 1175,-596.95 1175,-566.95 1023,-566.95"/>
<text text-anchor="start" x="1031" y="-584.95" font-family="Helvetica,sans-Serif" font-size="10.00">denoptim.fragmenter.Conformer</text>
<text text-anchor="middle" x="1099" y="-573.95" font-family="Helvetica,sans-Serif" font-size="10.00">ExtractorTask</text>
</a>
</g>
</g>
<!-- Node2 -->
<g id="node2" class="node">
<title>Node2</title>
<g id="a_node2"><a xlink:href="classdenoptim_1_1task_1_1_task.html" target="_top" xlink:title="A task that can throw exceptions.">
<polygon fill="white" stroke="black" points="824.5,-677.45 824.5,-696.45 925.5,-696.45 925.5,-677.45 824.5,-677.45"/>
<text text-anchor="middle" x="875" y="-684.45" font-family="Helvetica,sans-Serif" font-size="10.00">denoptim.task.Task</text>
</a>
</g>
</g>
<!-- Node2&#45;&gt;Node1 -->
<g id="edge1" class="edge">
<title>Node2&#45;&gt;Node1</title>
<path fill="none" stroke="midnightblue" d="M929.91,-674.82C953.62,-668.45 981.37,-659.52 1005,-647.95 1033.45,-634.01 1062.67,-611.72 1080.58,-596.95"/>
<polygon fill="midnightblue" stroke="midnightblue" points="928.82,-671.49 920.03,-677.4 930.59,-678.27 928.82,-671.49"/>
</g>
<!-- Node3 -->
<g id="node3" class="node">
<title>Node3</title>
<g id="a_node3"><a xlink:title=" ">
<polygon fill="white" stroke="black" points="493.5,-729.45 493.5,-748.45 589.5,-748.45 589.5,-729.45 493.5,-729.45"/>
<text text-anchor="middle" x="541.5" y="-736.45" font-family="Helvetica,sans-Serif" font-size="10.00">Callable&lt; Object &gt;</text>
</a>
</g>
</g>
<!-- Node3&#45;&gt;Node2 -->
<g id="edge2" class="edge">
<title>Node3&#45;&gt;Node2</title>
<path fill="none" stroke="midnightblue" d="M599.64,-734.51C648.37,-730.2 720.16,-722.57 782,-710.95 802.12,-707.17 824.33,-701.42 841.89,-696.49"/>
<polygon fill="midnightblue" stroke="midnightblue" points="599.26,-731.03 589.6,-735.38 599.87,-738.01 599.26,-731.03"/>
</g>
<!-- Node4 -->
<g id="node4" class="node">
<title>Node4</title>
<g id="a_node4"><a xlink:href="classdenoptim_1_1task_1_1_process_handler.html" target="_top" xlink:title=" ">
<polygon fill="white" stroke="black" points="467,-691.45 467,-710.45 616,-710.45 616,-691.45 467,-691.45"/>
<text text-anchor="middle" x="541.5" y="-698.45" font-family="Helvetica,sans-Serif" font-size="10.00">denoptim.task.ProcessHandler</text>
</a>
</g>
</g>
<!-- Node4&#45;&gt;Node2 -->
<g id="edge3" class="edge">
<title>Node4&#45;&gt;Node2</title>
<path fill="none" stroke="#9a32cd" stroke-dasharray="5,2" d="M626.3,-697.41C688.76,-694.77 771.96,-691.26 824.26,-689.05"/>
<polygon fill="#9a32cd" stroke="#9a32cd" points="625.91,-693.92 616.07,-697.84 626.21,-700.91 625.91,-693.92"/>
<text text-anchor="middle" x="714.5" y="-698.95" font-family="Helvetica,sans-Serif" font-size="10.00"> processHandler</text>
</g>
<!-- Node5 -->
<g id="node5" class="node">
<title>Node5</title>
<g id="a_node5"><a xlink:title=" ">
<polygon fill="white" stroke="black" points="525.5,-639.45 525.5,-658.45 557.5,-658.45 557.5,-639.45 525.5,-639.45"/>
<text text-anchor="middle" x="541.5" y="-646.45" font-family="Helvetica,sans-Serif" font-size="10.00">File</text>
</a>
</g>
</g>
<!-- Node5&#45;&gt;Node1 -->
<g id="edge5" class="edge">
<title>Node5&#45;&gt;Node1</title>
<path fill="none" stroke="#9a32cd" stroke-dasharray="5,2" d="M567.69,-646.92C631.71,-641.65 805.77,-626.54 950,-606.95 973.76,-603.72 999.55,-599.58 1022.85,-595.61"/>
<polygon fill="#9a32cd" stroke="#9a32cd" points="567.4,-643.43 557.71,-647.74 567.97,-650.41 567.4,-643.43"/>
<text text-anchor="middle" x="875" y="-626.95" font-family="Helvetica,sans-Serif" font-size="10.00"> isoFamMembersFile</text>
</g>
<!-- Node5&#45;&gt;Node2 -->
<g id="edge4" class="edge">
<title>Node5&#45;&gt;Node2</title>
<path fill="none" stroke="#9a32cd" stroke-dasharray="5,2" d="M567.63,-651.72C611.26,-656.56 703.83,-666.87 782,-675.95 795.74,-677.54 810.63,-679.31 824.35,-680.95"/>
<polygon fill="#9a32cd" stroke="#9a32cd" points="567.96,-648.24 557.64,-650.62 567.19,-655.2 567.96,-648.24"/>
<text text-anchor="middle" x="714.5" y="-678.95" font-family="Helvetica,sans-Serif" font-size="10.00"> workDir</text>
</g>
<!-- Node6 -->
<g id="node6" class="node">
<title>Node6</title>
<g id="a_node6"><a xlink:title=" ">
<polygon fill="white" stroke="black" points="809,-566.95 809,-596.95 941,-596.95 941,-566.95 809,-566.95"/>
<text text-anchor="start" x="817" y="-584.95" font-family="Helvetica,sans-Serif" font-size="10.00">List&lt; denoptim.fragmenter.</text>
<text text-anchor="middle" x="875" y="-573.95" font-family="Helvetica,sans-Serif" font-size="10.00">ClusterableFragment &gt;</text>
</a>
</g>
</g>
<!-- Node6&#45;&gt;Node1 -->
<g id="edge6" class="edge">
<title>Node6&#45;&gt;Node1</title>
<path fill="none" stroke="#9a32cd" stroke-dasharray="5,2" d="M951.18,-581.95C974.26,-581.95 999.65,-581.95 1022.73,-581.95"/>
<polygon fill="#9a32cd" stroke="#9a32cd" points="951.11,-578.45 941.11,-581.95 951.11,-585.45 951.11,-578.45"/>
<text text-anchor="middle" x="986.5" y="-584.95" font-family="Helvetica,sans-Serif" font-size="10.00"> sample</text>
</g>
<!-- Node7 -->
<g id="node7" class="node">
<title>Node7</title>
<g id="a_node7"><a xlink:href="classdenoptim_1_1programs_1_1fragmenter_1_1_fragmenter_parameters.html" target="_top" xlink:title="Parameters controlling execution of the fragmenter.">
<polygon fill="white" stroke="black" points="800,-247.95 800,-277.95 950,-277.95 950,-247.95 800,-247.95"/>
<text text-anchor="start" x="808" y="-265.95" font-family="Helvetica,sans-Serif" font-size="10.00">denoptim.programs.fragmenter.</text>
<text text-anchor="middle" x="875" y="-254.95" font-family="Helvetica,sans-Serif" font-size="10.00">FragmenterParameters</text>
</a>
</g>
</g>
<!-- Node7&#45;&gt;Node1 -->
<g id="edge7" class="edge">
<title>Node7&#45;&gt;Node1</title>
<path fill="none" stroke="#9a32cd" stroke-dasharray="5,2" d="M892.56,-286.74C935.89,-349 1051.73,-515.46 1087.4,-566.72"/>
<polygon fill="#9a32cd" stroke="#9a32cd" points="895.29,-284.54 886.71,-278.33 889.55,-288.54 895.29,-284.54"/>
<text text-anchor="middle" x="986.5" y="-443.95" font-family="Helvetica,sans-Serif" font-size="10.00"> settings</text>
</g>
<!-- Node8 -->
<g id="node8" class="node">
<title>Node8</title>
<g id="a_node8"><a xlink:href="classdenoptim_1_1programs_1_1_run_time_parameters.html" target="_top" xlink:title="Collection of parameters controlling the behavior of the software.">
<polygon fill="white" stroke="black" points="471.5,-462.95 471.5,-492.95 611.5,-492.95 611.5,-462.95 471.5,-462.95"/>
<text text-anchor="start" x="479.5" y="-480.95" font-family="Helvetica,sans-Serif" font-size="10.00">denoptim.programs.RunTime</text>
<text text-anchor="middle" x="541.5" y="-469.95" font-family="Helvetica,sans-Serif" font-size="10.00">Parameters</text>
</a>
</g>
</g>
<!-- Node8&#45;&gt;Node7 -->
<g id="edge8" class="edge">
<title>Node8&#45;&gt;Node7</title>
<path fill="none" stroke="midnightblue" d="M621.8,-487.8C672.01,-489.86 735.91,-484.36 782,-451.95 842.74,-409.22 865.05,-314.99 871.64,-278.14"/>
<polygon fill="midnightblue" stroke="midnightblue" points="621.79,-484.29 611.63,-487.27 621.43,-491.28 621.79,-484.29"/>
</g>
<!-- Node9 -->
<g id="node9" class="node">
<title>Node9</title>
<g id="a_node9"><a xlink:title=" ">
<polygon fill="white" stroke="black" points="219,-525.45 219,-544.45 266,-544.45 266,-525.45 219,-525.45"/>
<text text-anchor="middle" x="242.5" y="-532.45" font-family="Helvetica,sans-Serif" font-size="10.00">Logger</text>
</a>
</g>
</g>
<!-- Node9&#45;&gt;Node1 -->
<g id="edge25" class="edge">
<title>Node9&#45;&gt;Node1</title>
<path fill="none" stroke="#9a32cd" stroke-dasharray="5,2" d="M276.3,-534.52C377.12,-533.54 691.31,-532.87 950,-557.95 973.84,-560.26 999.65,-564.01 1022.95,-567.86"/>
<polygon fill="#9a32cd" stroke="#9a32cd" points="276.1,-531.03 266.14,-534.63 276.18,-538.02 276.1,-531.03"/>
<text text-anchor="middle" x="714.5" y="-547.95" font-family="Helvetica,sans-Serif" font-size="10.00"> logger</text>
</g>
<!-- Node9&#45;&gt;Node8 -->
<g id="edge9" class="edge">
<title>Node9&#45;&gt;Node8</title>
<path fill="none" stroke="#9a32cd" stroke-dasharray="5,2" d="M276.2,-528.67C322.96,-519.7 410.06,-502.98 471.46,-491.2"/>
<polygon fill="#9a32cd" stroke="#9a32cd" points="275.47,-525.25 266.31,-530.57 276.79,-532.12 275.47,-525.25"/>
<text text-anchor="middle" x="398.5" y="-513.95" font-family="Helvetica,sans-Serif" font-size="10.00"> logger</text>
</g>
<!-- Node10 -->
<g id="node10" class="node">
<title>Node10</title>
<g id="a_node10"><a xlink:href="classdenoptim_1_1utils_1_1_randomizer.html" target="_top" xlink:title="Tool to generate random numbers and random decisions.">
<polygon fill="white" stroke="black" points="177.5,-483.45 177.5,-502.45 307.5,-502.45 307.5,-483.45 177.5,-483.45"/>
<text text-anchor="middle" x="242.5" y="-490.45" font-family="Helvetica,sans-Serif" font-size="10.00">denoptim.utils.Randomizer</text>
</a>
</g>
</g>
<!-- Node10&#45;&gt;Node8 -->
<g id="edge10" class="edge">
<title>Node10&#45;&gt;Node8</title>
<path fill="none" stroke="#9a32cd" stroke-dasharray="5,2" d="M317.98,-482.79C332.23,-481.21 347.06,-479.81 361,-478.95 397.39,-476.68 438.01,-476.28 471.4,-476.51"/>
<polygon fill="#9a32cd" stroke="#9a32cd" points="317.25,-479.35 307.72,-483.97 318.05,-486.3 317.25,-479.35"/>
<text text-anchor="middle" x="398.5" y="-481.95" font-family="Helvetica,sans-Serif" font-size="10.00"> rng</text>
</g>
<!-- Node11 -->
<g id="node11" class="node">
<title>Node11</title>
<g id="a_node11"><a xlink:title=" ">
<polygon fill="white" stroke="black" points="0,-483.45 0,-502.45 92,-502.45 92,-483.45 0,-483.45"/>
<text text-anchor="middle" x="46" y="-490.45" font-family="Helvetica,sans-Serif" font-size="10.00">MersenneTwister</text>
</a>
</g>
</g>
<!-- Node11&#45;&gt;Node10 -->
<g id="edge11" class="edge">
<title>Node11&#45;&gt;Node10</title>
<path fill="none" stroke="#9a32cd" stroke-dasharray="5,2" d="M102.23,-492.95C125.67,-492.95 153.15,-492.95 177.48,-492.95"/>
<polygon fill="#9a32cd" stroke="#9a32cd" points="102.11,-489.45 92.11,-492.95 102.11,-496.45 102.11,-489.45"/>
<text text-anchor="middle" x="117" y="-495.95" font-family="Helvetica,sans-Serif" font-size="10.00"> mt</text>
</g>
<!-- Node12 -->
<g id="node12" class="node">
<title>Node12</title>
<g id="a_node12"><a xlink:title=" ">
<polygon fill="white" stroke="black" points="142,-423.45 142,-464.45 343,-464.45 343,-423.45 142,-423.45"/>
<text text-anchor="start" x="150" y="-452.45" font-family="Helvetica,sans-Serif" font-size="10.00">Map&lt; denoptim.programs.Run</text>
<text text-anchor="start" x="150" y="-441.45" font-family="Helvetica,sans-Serif" font-size="10.00">TimeParameters.ParametersType,</text>
<text text-anchor="middle" x="242.5" y="-430.45" font-family="Helvetica,sans-Serif" font-size="10.00"> denoptim.programs.RunTimeParameters &gt;</text>
</a>
</g>
</g>
<!-- Node12&#45;&gt;Node8 -->
<g id="edge12" class="edge">
<title>Node12&#45;&gt;Node8</title>
<path fill="none" stroke="#9a32cd" stroke-dasharray="5,2" d="M353.34,-452.25C380.4,-454.68 409.29,-457.6 436,-460.95 447.49,-462.39 459.65,-464.15 471.46,-465.98"/>
<polygon fill="#9a32cd" stroke="#9a32cd" points="353.33,-448.73 343.06,-451.34 352.72,-455.71 353.33,-448.73"/>
<text text-anchor="middle" x="398.5" y="-463.95" font-family="Helvetica,sans-Serif" font-size="10.00"> otherParameters</text>
</g>
<!-- Node13 -->
<g id="node13" class="node">
<title>Node13</title>
<g id="a_node13"><a xlink:href="enumdenoptim_1_1programs_1_1_run_time_parameters_1_1_parameters_type.html" target="_top" xlink:title="Identifier of the type of parameters.">
<polygon fill="white" stroke="black" points="172.5,-374.95 172.5,-404.95 312.5,-404.95 312.5,-374.95 172.5,-374.95"/>
<text text-anchor="start" x="180.5" y="-392.95" font-family="Helvetica,sans-Serif" font-size="10.00">denoptim.programs.RunTime</text>
<text text-anchor="middle" x="242.5" y="-381.95" font-family="Helvetica,sans-Serif" font-size="10.00">Parameters.ParametersType</text>
</a>
</g>
</g>
<!-- Node13&#45;&gt;Node8 -->
<g id="edge13" class="edge">
<title>Node13&#45;&gt;Node8</title>
<path fill="none" stroke="#9a32cd" stroke-dasharray="5,2" d="M316.19,-407.34C325.22,-409.54 334.33,-411.78 343,-413.95 384.42,-424.29 398.33,-417.87 436,-437.95 445.45,-442.98 444.6,-448.83 454,-453.95 460.3,-457.38 467.12,-460.35 474.08,-462.91"/>
<polygon fill="#9a32cd" stroke="#9a32cd" points="316.98,-403.93 306.43,-404.97 315.32,-410.73 316.98,-403.93"/>
<text text-anchor="middle" x="398.5" y="-440.95" font-family="Helvetica,sans-Serif" font-size="10.00"> paramType</text>
</g>
<!-- Node14 -->
<g id="node14" class="node">
<title>Node14</title>
<g id="a_node14"><a xlink:title=" ">
<polygon fill="white" stroke="black" points="479,-413.95 479,-443.95 604,-443.95 604,-413.95 479,-413.95"/>
<text text-anchor="start" x="487" y="-431.95" font-family="Helvetica,sans-Serif" font-size="10.00">LinkedHashMap&lt; String,</text>
<text text-anchor="middle" x="541.5" y="-420.95" font-family="Helvetica,sans-Serif" font-size="10.00"> String &gt;</text>
</a>
</g>
</g>
<!-- Node14&#45;&gt;Node7 -->
<g id="edge14" class="edge">
<title>Node14&#45;&gt;Node7</title>
<path fill="none" stroke="#9a32cd" stroke-dasharray="5,2" d="M614.34,-436.98C664.79,-439.09 731.93,-434.53 782,-403.95 830.64,-374.24 858.56,-307.98 869.1,-278.09"/>
<polygon fill="#9a32cd" stroke="#9a32cd" points="614.32,-433.47 604.16,-436.45 613.96,-440.46 614.32,-433.47"/>
<text text-anchor="middle" x="714.5" y="-439.95" font-family="Helvetica,sans-Serif" font-size="10.00"> formulae</text>
</g>
<!-- Node15 -->
<g id="node15" class="node">
<title>Node15</title>
<g id="a_node15"><a xlink:title=" ">
<polygon fill="white" stroke="black" points="454,-364.95 454,-394.95 629,-394.95 629,-364.95 454,-364.95"/>
<text text-anchor="start" x="462" y="-382.95" font-family="Helvetica,sans-Serif" font-size="10.00">List&lt; denoptim.programs.fragmenter.</text>
<text text-anchor="middle" x="541.5" y="-371.95" font-family="Helvetica,sans-Serif" font-size="10.00">CuttingRule &gt;</text>
</a>
</g>
</g>
<!-- Node15&#45;&gt;Node7 -->
<g id="edge15" class="edge">
<title>Node15&#45;&gt;Node7</title>
<path fill="none" stroke="#9a32cd" stroke-dasharray="5,2" d="M639.18,-389.65C684.58,-390.26 738.2,-385.07 782,-363.95 821.1,-345.09 851.31,-301.58 865.36,-278.3"/>
<polygon fill="#9a32cd" stroke="#9a32cd" points="639.11,-386.15 629.03,-389.42 638.95,-393.15 639.11,-386.15"/>
<text text-anchor="middle" x="714.5" y="-391.95" font-family="Helvetica,sans-Serif" font-size="10.00"> cuttingRules</text>
</g>
<!-- Node16 -->
<g id="node16" class="node">
<title>Node16</title>
<g id="a_node16"><a xlink:title=" ">
<polygon fill="white" stroke="black" points="504.5,-326.45 504.5,-345.45 578.5,-345.45 578.5,-326.45 504.5,-326.45"/>
<text text-anchor="middle" x="541.5" y="-333.45" font-family="Helvetica,sans-Serif" font-size="10.00">Set&lt; String &gt;</text>
</a>
</g>
</g>
<!-- Node16&#45;&gt;Node7 -->
<g id="edge16" class="edge">
<title>Node16&#45;&gt;Node7</title>
<path fill="none" stroke="#9a32cd" stroke-dasharray="5,2" d="M589.08,-333.3C637.91,-329.66 716.49,-321.33 782,-302.95 803.8,-296.83 827.18,-286.61 844.92,-278.03"/>
<polygon fill="#9a32cd" stroke="#9a32cd" points="588.56,-329.83 578.83,-334.03 589.06,-336.81 588.56,-329.83"/>
<text text-anchor="middle" x="714.5" y="-351.95" font-family="Helvetica,sans-Serif" font-size="10.00"> preFilterSMARTS</text>
<text text-anchor="middle" x="714.5" y="-340.95" font-family="Helvetica,sans-Serif" font-size="10.00">rejectedAPClasses</text>
<text text-anchor="middle" x="714.5" y="-329.95" font-family="Helvetica,sans-Serif" font-size="10.00">rejectedElements</text>
</g>
<!-- Node17 -->
<g id="node17" class="node">
<title>Node17</title>
<g id="a_node17"><a xlink:title=" ">
<polygon fill="white" stroke="black" points="485,-288.45 485,-307.45 598,-307.45 598,-288.45 485,-288.45"/>
<text text-anchor="middle" x="541.5" y="-295.45" font-family="Helvetica,sans-Serif" font-size="10.00">Map&lt; String, Double &gt;</text>
</a>
</g>
</g>
<!-- Node17&#45;&gt;Node7 -->
<g id="edge17" class="edge">
<title>Node17&#45;&gt;Node7</title>
<path fill="none" stroke="#9a32cd" stroke-dasharray="5,2" d="M608.19,-292.24C656.35,-287.92 723.29,-281.59 782,-274.95 787.76,-274.29 793.72,-273.59 799.71,-272.86"/>
<polygon fill="#9a32cd" stroke="#9a32cd" points="607.86,-288.76 598.21,-293.14 608.48,-295.73 607.86,-288.76"/>
<text text-anchor="middle" x="714.5" y="-290.95" font-family="Helvetica,sans-Serif" font-size="10.00"> formulaCriteriaLessThan</text>
</g>
<!-- Node18 -->
<g id="node18" class="node">
<title>Node18</title>
<g id="a_node18"><a xlink:title=" ">
<polygon fill="white" stroke="black" points="469.5,-250.45 469.5,-269.45 613.5,-269.45 613.5,-250.45 469.5,-250.45"/>
<text text-anchor="middle" x="541.5" y="-257.45" font-family="Helvetica,sans-Serif" font-size="10.00">Set&lt; Map&lt; String, Double &gt; &gt;</text>
</a>
</g>
</g>
<!-- Node18&#45;&gt;Node7 -->
<g id="edge18" class="edge">
<title>Node18&#45;&gt;Node7</title>
<path fill="none" stroke="#9a32cd" stroke-dasharray="5,2" d="M623.8,-260.68C677.59,-261.17 747.58,-261.8 799.84,-262.28"/>
<polygon fill="#9a32cd" stroke="#9a32cd" points="623.65,-257.18 613.62,-260.59 623.58,-264.18 623.65,-257.18"/>
<text text-anchor="middle" x="714.5" y="-264.95" font-family="Helvetica,sans-Serif" font-size="10.00"> formulaCriteriaMoreThan</text>
</g>
<!-- Node19 -->
<g id="node19" class="node">
<title>Node19</title>
<g id="a_node19"><a xlink:title=" ">
<polygon fill="white" stroke="black" points="503,-212.45 503,-231.45 580,-231.45 580,-212.45 503,-212.45"/>
<text text-anchor="middle" x="541.5" y="-219.45" font-family="Helvetica,sans-Serif" font-size="10.00">Set&lt; String[]&gt;</text>
</a>
</g>
</g>
<!-- Node19&#45;&gt;Node7 -->
<g id="edge19" class="edge">
<title>Node19&#45;&gt;Node7</title>
<path fill="none" stroke="#9a32cd" stroke-dasharray="5,2" d="M590.58,-225.18C639.06,-228.76 715.95,-235.34 782,-244.95 788.04,-245.83 794.28,-246.83 800.54,-247.91"/>
<polygon fill="#9a32cd" stroke="#9a32cd" points="590.61,-221.67 580.38,-224.44 590.1,-228.65 590.61,-221.67"/>
<text text-anchor="middle" x="714.5" y="-247.95" font-family="Helvetica,sans-Serif" font-size="10.00"> rejectedAPClassCombinations</text>
</g>
<!-- Node20 -->
<g id="node20" class="node">
<title>Node20</title>
<g id="a_node20"><a xlink:title=" ">
<polygon fill="white" stroke="black" points="487.5,-174.45 487.5,-193.45 595.5,-193.45 595.5,-174.45 487.5,-174.45"/>
<text text-anchor="middle" x="541.5" y="-181.45" font-family="Helvetica,sans-Serif" font-size="10.00">Map&lt; String, String &gt;</text>
</a>
</g>
</g>
<!-- Node20&#45;&gt;Node7 -->
<g id="edge20" class="edge">
<title>Node20&#45;&gt;Node7</title>
<path fill="none" stroke="#9a32cd" stroke-dasharray="5,2" d="M606.04,-181.01C655.31,-180.68 724.63,-184.5 782,-203.95 810.39,-213.57 838.78,-233.79 856.36,-247.86"/>
<polygon fill="#9a32cd" stroke="#9a32cd" points="605.8,-177.52 595.84,-181.14 605.89,-184.52 605.8,-177.52"/>
<text text-anchor="middle" x="714.5" y="-217.95" font-family="Helvetica,sans-Serif" font-size="10.00"> fragRejectionSMARTS</text>
<text text-anchor="middle" x="714.5" y="-206.95" font-family="Helvetica,sans-Serif" font-size="10.00">fragRetentionSMARTS</text>
</g>
<!-- Node21 -->
<g id="node21" class="node">
<title>Node21</title>
<g id="a_node21"><a xlink:title=" ">
<polygon fill="white" stroke="black" points="475.5,-123.95 475.5,-153.95 607.5,-153.95 607.5,-123.95 475.5,-123.95"/>
<text text-anchor="start" x="483.5" y="-141.95" font-family="Helvetica,sans-Serif" font-size="10.00">ArrayList&lt; denoptim.graph.</text>
<text text-anchor="middle" x="541.5" y="-130.95" font-family="Helvetica,sans-Serif" font-size="10.00">Vertex &gt;</text>
</a>
</g>
</g>
<!-- Node21&#45;&gt;Node7 -->
<g id="edge21" class="edge">
<title>Node21&#45;&gt;Node7</title>
<path fill="none" stroke="#9a32cd" stroke-dasharray="5,2" d="M617.84,-129.4C667.09,-126.57 731.43,-129.51 782,-154.95 822.93,-175.53 852.95,-223.22 866.31,-247.75"/>
<polygon fill="#9a32cd" stroke="#9a32cd" points="617.31,-125.93 607.57,-130.09 617.78,-132.91 617.31,-125.93"/>
<text text-anchor="middle" x="714.5" y="-168.95" font-family="Helvetica,sans-Serif" font-size="10.00"> ignorableFragments</text>
<text text-anchor="middle" x="714.5" y="-157.95" font-family="Helvetica,sans-Serif" font-size="10.00">targetFragments</text>
</g>
<!-- Node22 -->
<g id="node22" class="node">
<title>Node22</title>
<g id="a_node22"><a xlink:title=" ">
<polygon fill="white" stroke="black" points="492.5,-85.45 492.5,-104.45 590.5,-104.45 590.5,-85.45 492.5,-85.45"/>
<text text-anchor="middle" x="541.5" y="-92.45" font-family="Helvetica,sans-Serif" font-size="10.00">Map&lt; String, File &gt;</text>
</a>
</g>
</g>
<!-- Node22&#45;&gt;Node7 -->
<g id="edge22" class="edge">
<title>Node22&#45;&gt;Node7</title>
<path fill="none" stroke="#9a32cd" stroke-dasharray="5,2" d="M589.9,-83.5C641.13,-73.89 723.31,-66.73 782,-101.95 837.07,-134.99 862.18,-214.31 870.58,-247.71"/>
<polygon fill="#9a32cd" stroke="#9a32cd" points="589.21,-80.07 580.08,-85.45 590.57,-86.94 589.21,-80.07"/>
<text text-anchor="middle" x="714.5" y="-115.95" font-family="Helvetica,sans-Serif" font-size="10.00"> mwSlotToAllFragsFile</text>
<text text-anchor="middle" x="714.5" y="-104.95" font-family="Helvetica,sans-Serif" font-size="10.00">mwSlotToUnqFragsFile</text>
</g>
<!-- Node23 -->
<g id="node23" class="node">
<title>Node23</title>
<g id="a_node23"><a xlink:title=" ">
<polygon fill="white" stroke="black" points="485,-47.45 485,-66.45 598,-66.45 598,-47.45 485,-47.45"/>
<text text-anchor="middle" x="541.5" y="-54.45" font-family="Helvetica,sans-Serif" font-size="10.00">Map&lt; String, Integer &gt;</text>
</a>
</g>
</g>
<!-- Node23&#45;&gt;Node7 -->
<g id="edge23" class="edge">
<title>Node23&#45;&gt;Node7</title>
<path fill="none" stroke="#9a32cd" stroke-dasharray="5,2" d="M608.44,-50.06C669.35,-45.06 754.44,-41.94 782,-59.95 848.72,-103.56 867.63,-208.43 872.48,-247.73"/>
<polygon fill="#9a32cd" stroke="#9a32cd" points="607.79,-46.6 598.13,-50.94 608.39,-53.58 607.79,-46.6"/>
<text text-anchor="middle" x="714.5" y="-62.95" font-family="Helvetica,sans-Serif" font-size="10.00"> isomorphsCount</text>
</g>
<!-- Node24 -->
<g id="node24" class="node">
<title>Node24</title>
<g id="a_node24"><a xlink:title=" ">
<polygon fill="white" stroke="black" points="503,-9.45 503,-28.45 580,-28.45 580,-9.45 503,-9.45"/>
<text text-anchor="middle" x="541.5" y="-16.45" font-family="Helvetica,sans-Serif" font-size="10.00">AtomicInteger</text>
</a>
</g>
</g>
<!-- Node24&#45;&gt;Node7 -->
<g id="edge24" class="edge">
<title>Node24&#45;&gt;Node7</title>
<path fill="none" stroke="#9a32cd" stroke-dasharray="5,2" d="M590.18,-7.59C642.36,1.92 726.04,8.26 782,-31.95 855.27,-84.59 870.22,-205.24 873.24,-247.77"/>
<polygon fill="#9a32cd" stroke="#9a32cd" points="589.33,-4.19 580.18,-9.52 590.66,-11.06 589.33,-4.19"/>
<text text-anchor="middle" x="714.5" y="-34.95" font-family="Helvetica,sans-Serif" font-size="10.00"> unqIsomorphicFamilyId</text>
</g>
</g>
</svg>
        <g id="navigator" transform="translate(0 0)" fill="#404254">
                <rect fill="#f2f5e9" fill-opacity="0.5" stroke="#606060" stroke-width=".5" x="0" y="0" width="60" height="60"/>
                <use id="zoomplus" xlink:href="#zoomPlus" x="17" y="9" onmousedown="handleZoom(evt,'in')"/>
                <use id="zoomminus" xlink:href="#zoomMin" x="42" y="9" onmousedown="handleZoom(evt,'out')"/>
                <use id="reset" xlink:href="#resetDef" x="30" y="36" onmousedown="handleReset()"/>
                <g id="arrowUp" xlink:href="#dirArrow" transform="translate(30 24)" onmousedown="handlePan(0,-1)">
                  <use xlink:href="#rim" fill="#404040">
                        <set attributeName="fill" to="#808080" begin="arrowUp.mouseover" end="arrowUp.mouseout"/>
                  </use>
                  <path fill="none" stroke="white" stroke-width="1.5" d="M0,-3.0v7 M-2.5,-0.5L0,-3.0L2.5,-0.5"/>
                </g>
                <g id="arrowRight" xlink:href="#dirArrow" transform="rotate(90) translate(36 -43)" onmousedown="handlePan(1,0)">
                  <use xlink:href="#rim" fill="#404040">
                        <set attributeName="fill" to="#808080" begin="arrowRight.mouseover" end="arrowRight.mouseout"/>
                  </use>
                  <path fill="none" stroke="white" stroke-width="1.5" d="M0,-3.0v7 M-2.5,-0.5L0,-3.0L2.5,-0.5"/>
                </g>
                <g id="arrowDown" xlink:href="#dirArrow" transform="rotate(180) translate(-30 -48)" onmousedown="handlePan(0,1)">
                  <use xlink:href="#rim" fill="#404040">
                        <set attributeName="fill" to="#808080" begin="arrowDown.mouseover" end="arrowDown.mouseout"/>
                  </use>
                  <path fill="none" stroke="white" stroke-width="1.5" d="M0,-3.0v7 M-2.5,-0.5L0,-3.0L2.5,-0.5"/>
                </g>
                <g id="arrowLeft" xlink:href="#dirArrow" transform="rotate(270) translate(-36 17)" onmousedown="handlePan(-1,0)">
                  <use xlink:href="#rim" fill="#404040">
                        <set attributeName="fill" to="#808080" begin="arrowLeft.mouseover" end="arrowLeft.mouseout"/>
                  </use>
                  <path fill="none" stroke="white" stroke-width="1.5" d="M0,-3.0v7 M-2.5,-0.5L0,-3.0L2.5,-0.5"/>
                </g>
        </g>
        <svg viewBox="0 0 15 15" width="100%" height="30px" preserveAspectRatio="xMaxYMin meet">
         <g id="arrow_out" transform="scale(0.3 0.3)">
          <a xlink:href="classdenoptim_1_1fragmenter_1_1_conformer_extractor_task__coll__graph_org.svg" target="_base">
           <rect id="button" ry="5" rx="5" y="6" x="6" height="38" width="38"
                fill="#f2f5e9" fill-opacity="0.5" stroke="#606060" stroke-width="1.0"/>
           <path id="arrow"
             d="M 11.500037,31.436501 C 11.940474,20.09759 22.043105,11.32322 32.158766,21.979434 L 37.068811,17.246167 C 37.068811,17.246167 37.088388,32 37.088388,32 L 22.160133,31.978069 C 22.160133,31.978069 26.997745,27.140456 26.997745,27.140456 C 18.528582,18.264221 13.291696,25.230495 11.500037,31.436501 z"
             style="fill:#404040;"/>
          </a>
         </g>
        </svg>
</svg>
