<?xml version="1.0" encoding="UTF-8" standalone="no"?>
<!DOCTYPE svg PUBLIC "-//W3C//DTD SVG 1.1//EN"
 "http://www.w3.org/Graphics/SVG/1.1/DTD/svg11.dtd">
<!-- Generated by graphviz version 3.0.0 (20220413.0242)
 -->
<!-- Title: denoptim.graph.DGraph.replaceSingleSubGraph Pages: 1 -->
<!--zoomable 284 -->
<svg id="main" version="1.1" xmlns="http://www.w3.org/2000/svg" xmlns:xlink="http://www.w3.org/1999/xlink" xml:space="preserve" onload="init(evt)">
<style type="text/css"><![CDATA[
.edge:hover path { stroke: red; }
.edge:hover polygon { stroke: red; fill: red; }
]]></style>
<script type="text/javascript"><![CDATA[
var edges = document.getElementsByTagName('g');
if (edges && edges.length) {
  for (var i=0;i<edges.length;i++) {
    if (edges[i].id.substr(0,4)=='edge') {
      edges[i].setAttribute('class','edge');
    }
  }
}
]]></script>
        <defs>
                <circle id="rim" cx="0" cy="0" r="7"/>
                <circle id="rim2" cx="0" cy="0" r="3.5"/>
                <g id="zoomPlus">
                        <use xlink:href="#rim" fill="#404040">
                                <set attributeName="fill" to="#808080" begin="zoomplus.mouseover" end="zoomplus.mouseout"/>
                        </use>
                        <path d="M-4,0h8M0,-4v8" fill="none" stroke="white" stroke-width="1.5" pointer-events="none"/>
                </g>
                <g id="zoomMin">
                        <use xlink:href="#rim" fill="#404040">
                                <set attributeName="fill" to="#808080" begin="zoomminus.mouseover" end="zoomminus.mouseout"/>
                        </use>
                        <path d="M-4,0h8" fill="none" stroke="white" stroke-width="1.5" pointer-events="none"/>
                </g>
                <g id="dirArrow">
                        <path fill="none" stroke="white" stroke-width="1.5" d="M0,-3.0v7 M-2.5,-0.5L0,-3.0L2.5,-0.5"/>
                </g>
               <g id="resetDef">
                       <use xlink:href="#rim2" fill="#404040">
                               <set attributeName="fill" to="#808080" begin="reset.mouseover" end="reset.mouseout"/>
                       </use>
               </g>
        </defs>

<script type="text/javascript">
var viewWidth = 958;
var viewHeight = 284;
var sectionId = 'dynsection-202';
</script>
<script xlink:href="svgpan.js"/>
<svg id="graph" class="graph">
<g id="viewport">
<title>denoptim.graph.DGraph.replaceSingleSubGraph</title>
<polygon fill="white" stroke="transparent" points="-4,4 -4,-280 954,-280 954,4 -4,4"/>
<!-- Node1 -->
<g id="node1" class="node">
<title>Node1</title>
<g id="a_node1"><a xlink:title="Replaced the subgraph represented by a given collection of vertices that belong to this graph.">
<polygon fill="#bfbfbf" stroke="black" points="798,-122.5 798,-152.5 950,-152.5 950,-122.5 798,-122.5"/>
<text text-anchor="start" x="806" y="-140.5" font-family="Helvetica,sans-Serif" font-size="10.00">denoptim.graph.DGraph.replace</text>
<text text-anchor="middle" x="874" y="-129.5" font-family="Helvetica,sans-Serif" font-size="10.00">SingleSubGraph</text>
</a>
</g>
</g>
<!-- Node2 -->
<g id="node2" class="node">
<title>Node2</title>
<g id="a_node2"><a xlink:href="classdenoptim_1_1graph_1_1_d_graph.html#a4df69c91a742d22f8d14d44489aeac15" target="_top" xlink:title="Edit this graph according to a given list of edit tasks.">
<polygon fill="white" stroke="black" points="616,-245.5 616,-275.5 752,-275.5 752,-245.5 616,-245.5"/>
<text text-anchor="start" x="624" y="-263.5" font-family="Helvetica,sans-Serif" font-size="10.00">denoptim.graph.DGraph.edit</text>
<text text-anchor="middle" x="684" y="-252.5" font-family="Helvetica,sans-Serif" font-size="10.00">Graph</text>
</a>
</g>
</g>
<!-- Node1&#45;&gt;Node2 -->
<g id="edge1" class="edge">
<title>Node1&#45;&gt;Node2</title>
<path fill="none" stroke="midnightblue" d="M852.82,-160.48C832.07,-182.8 797.82,-216.22 762,-236.5 756.03,-239.88 749.52,-242.85 742.91,-245.43"/>
<polygon fill="midnightblue" stroke="midnightblue" points="855.67,-162.55 859.83,-152.8 850.5,-157.83 855.67,-162.55"/>
</g>
<!-- Node4 -->
<g id="node4" class="node">
<title>Node4</title>
<g id="a_node4"><a xlink:href="classdenoptim_1_1graph_1_1_d_graph.html#a86e888ef245d2bd40b49d145c7ef3af0" target="_top" xlink:title="Replaced the subgraph represented by a given collection of vertices that belong to this graph.">
<polygon fill="white" stroke="black" points="608,-196.5 608,-226.5 760,-226.5 760,-196.5 608,-196.5"/>
<text text-anchor="start" x="616" y="-214.5" font-family="Helvetica,sans-Serif" font-size="10.00">denoptim.graph.DGraph.replace</text>
<text text-anchor="middle" x="684" y="-203.5" font-family="Helvetica,sans-Serif" font-size="10.00">SubGraph</text>
</a>
</g>
</g>
<!-- Node1&#45;&gt;Node4 -->
<g id="edge3" class="edge">
<title>Node1&#45;&gt;Node4</title>
<path fill="none" stroke="midnightblue" d="M833.11,-156.88C812.19,-166.68 785.99,-178.4 762,-187.5 753.75,-190.63 744.9,-193.67 736.24,-196.48"/>
<polygon fill="midnightblue" stroke="midnightblue" points="834.78,-159.96 842.32,-152.53 831.79,-153.64 834.78,-159.96"/>
</g>
<!-- Node9 -->
<g id="node9" class="node">
<title>Node9</title>
<g id="a_node9"><a xlink:href="classdenoptim_1_1graph_1_1_d_graph.html#adc362402e41af41656e820def73de5ad" target="_top" xlink:title="Replaced a given vertex belonging to this graph with a new vertex generated specifically for this pur...">
<polygon fill="white" stroke="black" points="608,-147.5 608,-177.5 760,-177.5 760,-147.5 608,-147.5"/>
<text text-anchor="start" x="616" y="-165.5" font-family="Helvetica,sans-Serif" font-size="10.00">denoptim.graph.DGraph.replace</text>
<text text-anchor="middle" x="684" y="-154.5" font-family="Helvetica,sans-Serif" font-size="10.00">Vertex</text>
</a>
</g>
</g>
<!-- Node1&#45;&gt;Node9 -->
<g id="edge8" class="edge">
<title>Node1&#45;&gt;Node9</title>
<path fill="none" stroke="midnightblue" d="M787.95,-148.81C778.73,-150.04 769.39,-151.28 760.3,-152.49"/>
<polygon fill="midnightblue" stroke="midnightblue" points="788.44,-152.28 797.89,-147.49 787.51,-145.34 788.44,-152.28"/>
</g>
<!-- Node10 -->
<g id="node10" class="node">
<title>Node10</title>
<g id="a_node10"><a xlink:href="classdenoptim_1_1graph_1_1_d_graph_test.html#aea227d615f6c2f3bac5839a8099a900d" target="_top" xlink:title=" ">
<polygon fill="white" stroke="black" points="606,-98.5 606,-128.5 762,-128.5 762,-98.5 606,-98.5"/>
<text text-anchor="start" x="614" y="-116.5" font-family="Helvetica,sans-Serif" font-size="10.00">denoptim.graph.DGraphTest.test</text>
<text text-anchor="middle" x="684" y="-105.5" font-family="Helvetica,sans-Serif" font-size="10.00">IsIsostructuralTo</text>
</a>
</g>
</g>
<!-- Node1&#45;&gt;Node10 -->
<g id="edge9" class="edge">
<title>Node1&#45;&gt;Node10</title>
<path fill="none" stroke="midnightblue" d="M787.88,-126.63C779.31,-125.54 770.63,-124.43 762.15,-123.35"/>
<polygon fill="midnightblue" stroke="midnightblue" points="787.52,-130.12 797.89,-127.91 788.41,-123.17 787.52,-130.12"/>
</g>
<!-- Node11 -->
<g id="node11" class="node">
<title>Node11</title>
<g id="a_node11"><a xlink:href="classdenoptim_1_1graph_1_1_d_graph_test.html#a83a9624ea5dc6a2c515407b865b62611" target="_top" xlink:title=" ">
<polygon fill="white" stroke="black" points="606,-49.5 606,-79.5 762,-79.5 762,-49.5 606,-49.5"/>
<text text-anchor="start" x="614" y="-67.5" font-family="Helvetica,sans-Serif" font-size="10.00">denoptim.graph.DGraphTest.test</text>
<text text-anchor="middle" x="684" y="-56.5" font-family="Helvetica,sans-Serif" font-size="10.00">ReplaceSubGraph</text>
</a>
</g>
</g>
<!-- Node1&#45;&gt;Node11 -->
<g id="edge10" class="edge">
<title>Node1&#45;&gt;Node11</title>
<path fill="none" stroke="midnightblue" d="M830.9,-118.18C810.32,-109.02 785.06,-98.21 762,-89.5 752.93,-86.07 743.15,-82.68 733.71,-79.55"/>
<polygon fill="midnightblue" stroke="midnightblue" points="829.75,-121.5 840.3,-122.4 832.61,-115.11 829.75,-121.5"/>
</g>
<!-- Node12 -->
<g id="node12" class="node">
<title>Node12</title>
<g id="a_node12"><a xlink:href="classdenoptim_1_1graph_1_1_d_graph_test.html#a0c949ec1131a872dea53524614b3b42a" target="_top" xlink:title=" ">
<polygon fill="white" stroke="black" points="606,-0.5 606,-30.5 762,-30.5 762,-0.5 606,-0.5"/>
<text text-anchor="start" x="614" y="-18.5" font-family="Helvetica,sans-Serif" font-size="10.00">denoptim.graph.DGraphTest.test</text>
<text text-anchor="middle" x="684" y="-7.5" font-family="Helvetica,sans-Serif" font-size="10.00">ReplaceSubGraph_inTemplate</text>
</a>
</g>
</g>
<!-- Node1&#45;&gt;Node12 -->
<g id="edge11" class="edge">
<title>Node1&#45;&gt;Node12</title>
<path fill="none" stroke="midnightblue" d="M852.33,-114.73C831.44,-92.94 797.29,-60.52 762,-40.5 755.4,-36.75 748.16,-33.48 740.84,-30.64"/>
<polygon fill="midnightblue" stroke="midnightblue" points="849.99,-117.36 859.4,-122.23 855.09,-112.56 849.99,-117.36"/>
</g>
<!-- Node3 -->
<g id="node3" class="node">
<title>Node3</title>
<g id="a_node3"><a xlink:href="classdenoptim_1_1programs_1_1grapheditor_1_1_graph_editor.html#a649a62e3d4635ef4c19424fa49e6dcd4" target="_top" xlink:title=" ">
<polygon fill="white" stroke="black" points="404,-245.5 404,-275.5 556,-275.5 556,-245.5 404,-245.5"/>
<text text-anchor="start" x="412" y="-263.5" font-family="Helvetica,sans-Serif" font-size="10.00">denoptim.programs.grapheditor.</text>
<text text-anchor="middle" x="480" y="-252.5" font-family="Helvetica,sans-Serif" font-size="10.00">GraphEditor.runProgram</text>
</a>
</g>
</g>
<!-- Node2&#45;&gt;Node3 -->
<g id="edge2" class="edge">
<title>Node2&#45;&gt;Node3</title>
<path fill="none" stroke="midnightblue" d="M605.31,-260.5C589.23,-260.5 572.32,-260.5 556.33,-260.5"/>
<polygon fill="midnightblue" stroke="midnightblue" points="605.74,-264 615.74,-260.5 605.74,-257 605.74,-264"/>
</g>
<!-- Node5 -->
<g id="node5" class="node">
<title>Node5</title>
<g id="a_node5"><a xlink:href="classdenoptim_1_1ga_1_1_graph_operations.html#affb1be89a32e4a429bd7dbdfe0708419" target="_top" xlink:title="Performs the crossover that swaps the two subgraphs defining the given XoverSite.">
<polygon fill="white" stroke="black" points="390,-196.5 390,-226.5 570,-226.5 570,-196.5 390,-196.5"/>
<text text-anchor="start" x="398" y="-214.5" font-family="Helvetica,sans-Serif" font-size="10.00">denoptim.ga.GraphOperations.perform</text>
<text text-anchor="middle" x="480" y="-203.5" font-family="Helvetica,sans-Serif" font-size="10.00">Crossover</text>
</a>
</g>
</g>
<!-- Node4&#45;&gt;Node5 -->
<g id="edge4" class="edge">
<title>Node4&#45;&gt;Node5</title>
<path fill="none" stroke="midnightblue" d="M597.65,-211.5C588.59,-211.5 579.36,-211.5 570.27,-211.5"/>
<polygon fill="midnightblue" stroke="midnightblue" points="597.78,-215 607.78,-211.5 597.78,-208 597.78,-215"/>
</g>
<!-- Node6 -->
<g id="node6" class="node">
<title>Node6</title>
<g id="a_node6"><a xlink:href="classdenoptim_1_1ga_1_1_e_a_utils.html#a98553265dd4b441b11c6d97d098edb08" target="_top" xlink:title="Generates a new offspring by performing a crossover operation.">
<polygon fill="white" stroke="black" points="211,-221.5 211,-251.5 338,-251.5 338,-221.5 211,-221.5"/>
<text text-anchor="start" x="219" y="-239.5" font-family="Helvetica,sans-Serif" font-size="10.00">denoptim.ga.EAUtils.build</text>
<text text-anchor="middle" x="274.5" y="-228.5" font-family="Helvetica,sans-Serif" font-size="10.00">CandidateByXOver</text>
</a>
</g>
</g>
<!-- Node5&#45;&gt;Node6 -->
<g id="edge5" class="edge">
<title>Node5&#45;&gt;Node6</title>
<path fill="none" stroke="midnightblue" d="M379.5,-223.72C365.4,-225.46 351.25,-227.19 338.11,-228.81"/>
<polygon fill="midnightblue" stroke="midnightblue" points="380.24,-227.16 389.74,-222.47 379.39,-220.21 380.24,-227.16"/>
</g>
<!-- Node7 -->
<g id="node7" class="node">
<title>Node7</title>
<g id="a_node7"><a xlink:href="classdenoptim_1_1programs_1_1genetweeker_1_1_gene_ops_runner.html#ab0f92a94c4fb2334e7d3813e73fc4247" target="_top" xlink:title=" ">
<polygon fill="white" stroke="black" points="195,-172.5 195,-202.5 354,-202.5 354,-172.5 195,-172.5"/>
<text text-anchor="start" x="203" y="-190.5" font-family="Helvetica,sans-Serif" font-size="10.00">denoptim.programs.genetweeker.</text>
<text text-anchor="middle" x="274.5" y="-179.5" font-family="Helvetica,sans-Serif" font-size="10.00">GeneOpsRunner.runXOver</text>
</a>
</g>
</g>
<!-- Node5&#45;&gt;Node7 -->
<g id="edge6" class="edge">
<title>Node5&#45;&gt;Node7</title>
<path fill="none" stroke="midnightblue" d="M379.7,-199.79C371.12,-198.78 362.53,-197.76 354.15,-196.78"/>
<polygon fill="midnightblue" stroke="midnightblue" points="379.4,-203.28 389.74,-200.97 380.22,-196.33 379.4,-203.28"/>
</g>
<!-- Node8 -->
<g id="node8" class="node">
<title>Node8</title>
<g id="a_node8"><a xlink:href="classdenoptim_1_1programs_1_1genetweeker_1_1_gene_ops_runner.html#a3c2407eb1204a7b25600d3d347d98447" target="_top" xlink:title=" ">
<polygon fill="white" stroke="black" points="0,-172.5 0,-202.5 159,-202.5 159,-172.5 0,-172.5"/>
<text text-anchor="start" x="8" y="-190.5" font-family="Helvetica,sans-Serif" font-size="10.00">denoptim.programs.genetweeker.</text>
<text text-anchor="middle" x="79.5" y="-179.5" font-family="Helvetica,sans-Serif" font-size="10.00">GeneOpsRunner.runProgram</text>
</a>
</g>
</g>
<!-- Node7&#45;&gt;Node8 -->
<g id="edge7" class="edge">
<title>Node7&#45;&gt;Node8</title>
<path fill="none" stroke="midnightblue" d="M184.98,-187.5C176.39,-187.5 167.72,-187.5 159.24,-187.5"/>
<polygon fill="midnightblue" stroke="midnightblue" points="185,-191 195,-187.5 185,-184 185,-191"/>
</g>
</g>
</svg>
        <g id="navigator" transform="translate(0 0)" fill="#404254">
                <rect fill="#f2f5e9" fill-opacity="0.5" stroke="#606060" stroke-width=".5" x="0" y="0" width="60" height="60"/>
                <use id="zoomplus" xlink:href="#zoomPlus" x="17" y="9" onmousedown="handleZoom(evt,'in')"/>
                <use id="zoomminus" xlink:href="#zoomMin" x="42" y="9" onmousedown="handleZoom(evt,'out')"/>
                <use id="reset" xlink:href="#resetDef" x="30" y="36" onmousedown="handleReset()"/>
                <g id="arrowUp" xlink:href="#dirArrow" transform="translate(30 24)" onmousedown="handlePan(0,-1)">
                  <use xlink:href="#rim" fill="#404040">
                        <set attributeName="fill" to="#808080" begin="arrowUp.mouseover" end="arrowUp.mouseout"/>
                  </use>
                  <path fill="none" stroke="white" stroke-width="1.5" d="M0,-3.0v7 M-2.5,-0.5L0,-3.0L2.5,-0.5"/>
                </g>
                <g id="arrowRight" xlink:href="#dirArrow" transform="rotate(90) translate(36 -43)" onmousedown="handlePan(1,0)">
                  <use xlink:href="#rim" fill="#404040">
                        <set attributeName="fill" to="#808080" begin="arrowRight.mouseover" end="arrowRight.mouseout"/>
                  </use>
                  <path fill="none" stroke="white" stroke-width="1.5" d="M0,-3.0v7 M-2.5,-0.5L0,-3.0L2.5,-0.5"/>
                </g>
                <g id="arrowDown" xlink:href="#dirArrow" transform="rotate(180) translate(-30 -48)" onmousedown="handlePan(0,1)">
                  <use xlink:href="#rim" fill="#404040">
                        <set attributeName="fill" to="#808080" begin="arrowDown.mouseover" end="arrowDown.mouseout"/>
                  </use>
                  <path fill="none" stroke="white" stroke-width="1.5" d="M0,-3.0v7 M-2.5,-0.5L0,-3.0L2.5,-0.5"/>
                </g>
                <g id="arrowLeft" xlink:href="#dirArrow" transform="rotate(270) translate(-36 17)" onmousedown="handlePan(-1,0)">
                  <use xlink:href="#rim" fill="#404040">
                        <set attributeName="fill" to="#808080" begin="arrowLeft.mouseover" end="arrowLeft.mouseout"/>
                  </use>
                  <path fill="none" stroke="white" stroke-width="1.5" d="M0,-3.0v7 M-2.5,-0.5L0,-3.0L2.5,-0.5"/>
                </g>
        </g>
        <svg viewBox="0 0 15 15" width="100%" height="30px" preserveAspectRatio="xMaxYMin meet">
         <g id="arrow_out" transform="scale(0.3 0.3)">
          <a xlink:href="classdenoptim_1_1graph_1_1_d_graph_aefca90eb3594e935ee283f1e56fec5b4_icgraph_org.svg" target="_base">
           <rect id="button" ry="5" rx="5" y="6" x="6" height="38" width="38"
                fill="#f2f5e9" fill-opacity="0.5" stroke="#606060" stroke-width="1.0"/>
           <path id="arrow"
             d="M 11.500037,31.436501 C 11.940474,20.09759 22.043105,11.32322 32.158766,21.979434 L 37.068811,17.246167 C 37.068811,17.246167 37.088388,32 37.088388,32 L 22.160133,31.978069 C 22.160133,31.978069 26.997745,27.140456 26.997745,27.140456 C 18.528582,18.264221 13.291696,25.230495 11.500037,31.436501 z"
             style="fill:#404040;"/>
          </a>
         </g>
        </svg>
</svg>
