<?xml version="1.0" encoding="UTF-8" standalone="no"?>
<!DOCTYPE svg PUBLIC "-//W3C//DTD SVG 1.1//EN"
 "http://www.w3.org/Graphics/SVG/1.1/DTD/svg11.dtd">
<!-- Generated by graphviz version 3.0.0 (20220413.0242)
 -->
<!-- Title: denoptim.programs.denovo.GAParameters.getCrowdingFactorMiddleSigma Pages: 1 -->
<svg width="1271pt" height="137pt"
 viewBox="0.00 0.00 1271.00 137.00" xmlns="http://www.w3.org/2000/svg" xmlns:xlink="http://www.w3.org/1999/xlink">
<g id="graph0" class="graph" transform="scale(1 1) rotate(0) translate(4 133)">
<title>denoptim.programs.denovo.GAParameters.getCrowdingFactorMiddleSigma</title>
<polygon fill="white" stroke="transparent" points="-4,4 -4,-133 1267,-133 1267,4 -4,4"/>
<!-- Node1 -->
<g id="node1" class="node">
<title>Node1</title>
<g id="a_node1"><a xlink:title=" ">
<polygon fill="#bfbfbf" stroke="black" points="1098,-44 1098,-85 1263,-85 1263,-44 1098,-44"/>
<text text-anchor="start" x="1106" y="-73" font-family="Helvetica,sans-Serif" font-size="10.00">denoptim.programs.denovo.</text>
<text text-anchor="start" x="1106" y="-62" font-family="Helvetica,sans-Serif" font-size="10.00">GAParameters.getCrowdingFactor</text>
<text text-anchor="middle" x="1180.5" y="-51" font-family="Helvetica,sans-Serif" font-size="10.00">MiddleSigma</text>
</a>
</g>
</g>
<!-- Node2 -->
<g id="node2" class="node">
<title>Node2</title>
<g id="a_node2"><a xlink:href="classdenoptim_1_1ga_1_1_e_a_utils.html#a5d05c0a38958d46d21629862eba0a6ce" target="_top" xlink:title="Calculated the probability of using and attachment point rooted on an atom that is holding other atta...">
<polygon fill="white" stroke="black" points="901,-49.5 901,-79.5 1062,-79.5 1062,-49.5 901,-49.5"/>
<text text-anchor="start" x="909" y="-67.5" font-family="Helvetica,sans-Serif" font-size="10.00">denoptim.ga.EAUtils.getCrowding</text>
<text text-anchor="middle" x="981.5" y="-56.5" font-family="Helvetica,sans-Serif" font-size="10.00">Probability</text>
</a>
</g>
</g>
<!-- Node1&#45;&gt;Node2 -->
<g id="edge1" class="edge">
<title>Node1&#45;&gt;Node2</title>
<path fill="none" stroke="midnightblue" d="M1087.88,-64.5C1079.27,-64.5 1070.58,-64.5 1062.09,-64.5"/>
<polygon fill="midnightblue" stroke="midnightblue" points="1087.95,-68 1097.95,-64.5 1087.95,-61 1087.95,-68"/>
</g>
<!-- Node2&#45;&gt;Node2 -->
<g id="edge3" class="edge">
<title>Node2&#45;&gt;Node2</title>
<path fill="none" stroke="midnightblue" d="M1016.68,-89.96C1012.32,-94.68 1000.59,-98 981.5,-98 950.18,-98 938.67,-89.06 946.99,-79.66"/>
<polygon fill="midnightblue" stroke="midnightblue" points="1020.15,-89.41 1016.01,-79.66 1013.17,-89.87 1020.15,-89.41"/>
</g>
<!-- Node3 -->
<g id="node3" class="node">
<title>Node3</title>
<g id="a_node3"><a xlink:href="classdenoptim_1_1ga_1_1_graph_operations.html#a104e82aba7242a457da09540ff0400da" target="_top" xlink:title="function that will keep extending the graph.">
<polygon fill="white" stroke="black" points="689,-98.5 689,-128.5 865,-128.5 865,-98.5 689,-98.5"/>
<text text-anchor="start" x="697" y="-116.5" font-family="Helvetica,sans-Serif" font-size="10.00">denoptim.ga.GraphOperations.extend</text>
<text text-anchor="middle" x="777" y="-105.5" font-family="Helvetica,sans-Serif" font-size="10.00">Graph</text>
</a>
</g>
</g>
<!-- Node2&#45;&gt;Node3 -->
<g id="edge2" class="edge">
<title>Node2&#45;&gt;Node3</title>
<path fill="none" stroke="midnightblue" d="M908.58,-81.9C886.17,-87.32 861.68,-93.25 840.02,-98.49"/>
<polygon fill="midnightblue" stroke="midnightblue" points="909.47,-85.29 918.37,-79.53 907.82,-78.48 909.47,-85.29"/>
</g>
<!-- Node4 -->
<g id="node4" class="node">
<title>Node4</title>
<g id="a_node4"><a xlink:href="classdenoptim_1_1ga_1_1_e_a_utils.html#a1ddb932d4618434d435e4f85ce5e5eb5" target="_top" xlink:title="Evaluates the possibility of closing rings in a given graph and if any ring can be closed,...">
<polygon fill="white" stroke="black" points="711.5,-49.5 711.5,-79.5 842.5,-79.5 842.5,-49.5 711.5,-49.5"/>
<text text-anchor="start" x="719.5" y="-67.5" font-family="Helvetica,sans-Serif" font-size="10.00">denoptim.ga.EAUtils.setup</text>
<text text-anchor="middle" x="777" y="-56.5" font-family="Helvetica,sans-Serif" font-size="10.00">Rings</text>
</a>
</g>
</g>
<!-- Node2&#45;&gt;Node4 -->
<g id="edge4" class="edge">
<title>Node2&#45;&gt;Node4</title>
<path fill="none" stroke="midnightblue" d="M890.75,-64.5C874.56,-64.5 857.98,-64.5 842.68,-64.5"/>
<polygon fill="midnightblue" stroke="midnightblue" points="890.76,-68 900.76,-64.5 890.76,-61 890.76,-68"/>
</g>
<!-- Node13 -->
<g id="node13" class="node">
<title>Node13</title>
<g id="a_node13"><a xlink:href="classdenoptim_1_1ga_1_1_e_a_utils_test.html#a53176340c6944378d7ca0c3b0e85840e" target="_top" xlink:title=" ">
<polygon fill="white" stroke="black" points="705.5,-0.5 705.5,-30.5 848.5,-30.5 848.5,-0.5 705.5,-0.5"/>
<text text-anchor="start" x="713.5" y="-18.5" font-family="Helvetica,sans-Serif" font-size="10.00">denoptim.ga.EAUtilsTest.test</text>
<text text-anchor="middle" x="777" y="-7.5" font-family="Helvetica,sans-Serif" font-size="10.00">CrowdingProbability</text>
</a>
</g>
</g>
<!-- Node2&#45;&gt;Node13 -->
<g id="edge15" class="edge">
<title>Node2&#45;&gt;Node13</title>
<path fill="none" stroke="midnightblue" d="M908.58,-47.1C886.17,-41.68 861.68,-35.75 840.02,-30.51"/>
<polygon fill="midnightblue" stroke="midnightblue" points="907.82,-50.52 918.37,-49.47 909.47,-43.71 907.82,-50.52"/>
</g>
<!-- Node5 -->
<g id="node5" class="node">
<title>Node5</title>
<g id="a_node5"><a xlink:href="classdenoptim_1_1ga_1_1_e_a_utils.html#a5cb6bbe9f383bf821f3b1f1c5e60031b" target="_top" xlink:title=" ">
<polygon fill="white" stroke="black" points="526,-98.5 526,-128.5 653,-128.5 653,-98.5 526,-98.5"/>
<text text-anchor="start" x="534" y="-116.5" font-family="Helvetica,sans-Serif" font-size="10.00">denoptim.ga.EAUtils.build</text>
<text text-anchor="middle" x="589.5" y="-105.5" font-family="Helvetica,sans-Serif" font-size="10.00">CandidateByMutation</text>
</a>
</g>
</g>
<!-- Node4&#45;&gt;Node5 -->
<g id="edge5" class="edge">
<title>Node4&#45;&gt;Node5</title>
<path fill="none" stroke="midnightblue" d="M709.28,-82.12C688.99,-87.48 666.89,-93.32 647.31,-98.49"/>
<polygon fill="midnightblue" stroke="midnightblue" points="710.31,-85.47 719.08,-79.53 708.52,-78.7 710.31,-85.47"/>
</g>
<!-- Node10 -->
<g id="node10" class="node">
<title>Node10</title>
<g id="a_node10"><a xlink:href="classdenoptim_1_1ga_1_1_e_a_utils.html#a98553265dd4b441b11c6d97d098edb08" target="_top" xlink:title="Generates a new offspring by performing a crossover operation.">
<polygon fill="white" stroke="black" points="526,-49.5 526,-79.5 653,-79.5 653,-49.5 526,-49.5"/>
<text text-anchor="start" x="534" y="-67.5" font-family="Helvetica,sans-Serif" font-size="10.00">denoptim.ga.EAUtils.build</text>
<text text-anchor="middle" x="589.5" y="-56.5" font-family="Helvetica,sans-Serif" font-size="10.00">CandidateByXOver</text>
</a>
</g>
</g>
<!-- Node4&#45;&gt;Node10 -->
<g id="edge10" class="edge">
<title>Node4&#45;&gt;Node10</title>
<path fill="none" stroke="midnightblue" d="M701.03,-64.5C685.09,-64.5 668.43,-64.5 653.01,-64.5"/>
<polygon fill="midnightblue" stroke="midnightblue" points="701.38,-68 711.38,-64.5 701.38,-61 701.38,-68"/>
</g>
<!-- Node11 -->
<g id="node11" class="node">
<title>Node11</title>
<g id="a_node11"><a xlink:href="classdenoptim_1_1ga_1_1_e_a_utils.html#ad3d2daeb11e68a356e971ca1846596b5" target="_top" xlink:title=" ">
<polygon fill="white" stroke="black" points="526,-0.5 526,-30.5 653,-30.5 653,-0.5 526,-0.5"/>
<text text-anchor="start" x="534" y="-18.5" font-family="Helvetica,sans-Serif" font-size="10.00">denoptim.ga.EAUtils.build</text>
<text text-anchor="middle" x="589.5" y="-7.5" font-family="Helvetica,sans-Serif" font-size="10.00">CandidateFromScratch</text>
</a>
</g>
</g>
<!-- Node4&#45;&gt;Node11 -->
<g id="edge11" class="edge">
<title>Node4&#45;&gt;Node11</title>
<path fill="none" stroke="midnightblue" d="M709.28,-46.88C688.99,-41.52 666.89,-35.68 647.31,-30.51"/>
<polygon fill="midnightblue" stroke="midnightblue" points="708.52,-50.3 719.08,-49.47 710.31,-43.53 708.52,-50.3"/>
</g>
<!-- Node6 -->
<g id="node6" class="node">
<title>Node6</title>
<g id="a_node6"><a xlink:href="classdenoptim_1_1ga_1_1_evolutionary_algorithm.html#a596b2f5f0b097c5b67a6e5163bd6fe66" target="_top" xlink:title="Generates a given number of new candidate items and adds them to the current population.">
<polygon fill="white" stroke="black" points="353,-49.5 353,-79.5 487,-79.5 487,-49.5 353,-49.5"/>
<text text-anchor="start" x="361" y="-67.5" font-family="Helvetica,sans-Serif" font-size="10.00">denoptim.ga.Evolutionary</text>
<text text-anchor="middle" x="420" y="-56.5" font-family="Helvetica,sans-Serif" font-size="10.00">Algorithm.evolvePopulation</text>
</a>
</g>
</g>
<!-- Node5&#45;&gt;Node6 -->
<g id="edge6" class="edge">
<title>Node5&#45;&gt;Node6</title>
<path fill="none" stroke="midnightblue" d="M527.08,-95.53C509.14,-90.28 489.71,-84.6 472.45,-79.55"/>
<polygon fill="midnightblue" stroke="midnightblue" points="526.3,-98.95 536.88,-98.4 528.26,-92.23 526.3,-98.95"/>
</g>
<!-- Node7 -->
<g id="node7" class="node">
<title>Node7</title>
<g id="a_node7"><a xlink:href="classdenoptim_1_1ga_1_1_evolutionary_algorithm.html#a6bfc2fa59b199da6259b5b6bad3d6de7" target="_top" xlink:title=" ">
<polygon fill="white" stroke="black" points="190,-24.5 190,-54.5 314,-54.5 314,-24.5 190,-24.5"/>
<text text-anchor="start" x="198" y="-42.5" font-family="Helvetica,sans-Serif" font-size="10.00">denoptim.ga.Evolutionary</text>
<text text-anchor="middle" x="252" y="-31.5" font-family="Helvetica,sans-Serif" font-size="10.00">Algorithm.run</text>
</a>
</g>
</g>
<!-- Node6&#45;&gt;Node7 -->
<g id="edge7" class="edge">
<title>Node6&#45;&gt;Node7</title>
<path fill="none" stroke="midnightblue" d="M342.9,-53.04C333.21,-51.58 323.41,-50.1 314.01,-48.69"/>
<polygon fill="midnightblue" stroke="midnightblue" points="342.51,-56.52 352.92,-54.55 343.55,-49.6 342.51,-56.52"/>
</g>
<!-- Node8 -->
<g id="node8" class="node">
<title>Node8</title>
<g id="a_node8"><a xlink:href="classdenoptim_1_1ga_1_1_evolutionary_algorithm.html#a0f2063b722b7291daf83d62acaa683d3" target="_top" xlink:title=" ">
<polygon fill="white" stroke="black" points="0,-49.5 0,-79.5 154,-79.5 154,-49.5 0,-49.5"/>
<text text-anchor="start" x="8" y="-67.5" font-family="Helvetica,sans-Serif" font-size="10.00">denoptim.ga.Evolutionary</text>
<text text-anchor="middle" x="77" y="-56.5" font-family="Helvetica,sans-Serif" font-size="10.00">Algorithm.EvolutionaryAlgorithm</text>
</a>
</g>
</g>
<!-- Node7&#45;&gt;Node8 -->
<g id="edge8" class="edge">
<title>Node7&#45;&gt;Node8</title>
<path fill="none" stroke="midnightblue" d="M179.44,-49.84C171.09,-51.05 162.54,-52.28 154.12,-53.5"/>
<polygon fill="midnightblue" stroke="midnightblue" points="180.12,-53.28 189.52,-48.38 179.12,-46.35 180.12,-53.28"/>
</g>
<!-- Node9 -->
<g id="node9" class="node">
<title>Node9</title>
<g id="a_node9"><a xlink:href="classdenoptim_1_1programs_1_1denovo_1_1_g_a_runner.html#a7cafd6d78727b89dce3e2c8d06f0dd7c" target="_top" xlink:title=" ">
<polygon fill="white" stroke="black" points="9.5,-0.5 9.5,-30.5 144.5,-30.5 144.5,-0.5 9.5,-0.5"/>
<text text-anchor="start" x="17.5" y="-18.5" font-family="Helvetica,sans-Serif" font-size="10.00">denoptim.programs.denovo.</text>
<text text-anchor="middle" x="77" y="-7.5" font-family="Helvetica,sans-Serif" font-size="10.00">GARunner.runProgram</text>
</a>
</g>
</g>
<!-- Node7&#45;&gt;Node9 -->
<g id="edge9" class="edge">
<title>Node7&#45;&gt;Node9</title>
<path fill="none" stroke="midnightblue" d="M179.48,-29.58C167.92,-27.97 156,-26.32 144.57,-24.73"/>
<polygon fill="midnightblue" stroke="midnightblue" points="179.13,-33.06 189.52,-30.97 180.1,-26.13 179.13,-33.06"/>
</g>
<!-- Node11&#45;&gt;Node6 -->
<g id="edge12" class="edge">
<title>Node11&#45;&gt;Node6</title>
<path fill="none" stroke="midnightblue" d="M527.08,-33.47C509.14,-38.72 489.71,-44.4 472.45,-49.45"/>
<polygon fill="midnightblue" stroke="midnightblue" points="528.26,-36.77 536.88,-30.6 526.3,-30.05 528.26,-36.77"/>
</g>
<!-- Node12 -->
<g id="node12" class="node">
<title>Node12</title>
<g id="a_node12"><a xlink:href="classdenoptim_1_1ga_1_1_evolutionary_algorithm.html#ad43588620dab3340e0d8b0042ec73618" target="_top" xlink:title="Fills up the population with candidates build from scratch.">
<polygon fill="white" stroke="black" points="350,-0.5 350,-30.5 490,-30.5 490,-0.5 350,-0.5"/>
<text text-anchor="start" x="358" y="-18.5" font-family="Helvetica,sans-Serif" font-size="10.00">denoptim.ga.Evolutionary</text>
<text text-anchor="middle" x="420" y="-7.5" font-family="Helvetica,sans-Serif" font-size="10.00">Algorithm.initializePopulation</text>
</a>
</g>
</g>
<!-- Node11&#45;&gt;Node12 -->
<g id="edge13" class="edge">
<title>Node11&#45;&gt;Node12</title>
<path fill="none" stroke="midnightblue" d="M515.47,-15.5C507.04,-15.5 498.47,-15.5 490.1,-15.5"/>
<polygon fill="midnightblue" stroke="midnightblue" points="515.65,-19 525.65,-15.5 515.65,-12 515.65,-19"/>
</g>
<!-- Node12&#45;&gt;Node7 -->
<g id="edge14" class="edge">
<title>Node12&#45;&gt;Node7</title>
<path fill="none" stroke="midnightblue" d="M339.6,-26.98C331.08,-28.21 322.5,-29.45 314.24,-30.65"/>
<polygon fill="midnightblue" stroke="midnightblue" points="340.17,-30.43 349.56,-25.54 339.16,-23.51 340.17,-30.43"/>
</g>
</g>
</svg>
