<?xml version="1.0" encoding="UTF-8" standalone="no"?>
<!DOCTYPE svg PUBLIC "-//W3C//DTD SVG 1.1//EN"
 "http://www.w3.org/Graphics/SVG/1.1/DTD/svg11.dtd">
<!-- Generated by graphviz version 3.0.0 (20220413.0242)
 -->
<!-- Title: denoptim.gui.GUIPrepareFitnessRunner.InputForm Pages: 1 -->
<!--zoomable 345 -->
<svg id="main" version="1.1" xmlns="http://www.w3.org/2000/svg" xmlns:xlink="http://www.w3.org/1999/xlink" xml:space="preserve" onload="init(evt)">
<style type="text/css"><![CDATA[
.edge:hover path { stroke: red; }
.edge:hover polygon { stroke: red; fill: red; }
]]></style>
<script type="text/javascript"><![CDATA[
var edges = document.getElementsByTagName('g');
if (edges && edges.length) {
  for (var i=0;i<edges.length;i++) {
    if (edges[i].id.substr(0,4)=='edge') {
      edges[i].setAttribute('class','edge');
    }
  }
}
]]></script>
        <defs>
                <circle id="rim" cx="0" cy="0" r="7"/>
                <circle id="rim2" cx="0" cy="0" r="3.5"/>
                <g id="zoomPlus">
                        <use xlink:href="#rim" fill="#404040">
                                <set attributeName="fill" to="#808080" begin="zoomplus.mouseover" end="zoomplus.mouseout"/>
                        </use>
                        <path d="M-4,0h8M0,-4v8" fill="none" stroke="white" stroke-width="1.5" pointer-events="none"/>
                </g>
                <g id="zoomMin">
                        <use xlink:href="#rim" fill="#404040">
                                <set attributeName="fill" to="#808080" begin="zoomminus.mouseover" end="zoomminus.mouseout"/>
                        </use>
                        <path d="M-4,0h8" fill="none" stroke="white" stroke-width="1.5" pointer-events="none"/>
                </g>
                <g id="dirArrow">
                        <path fill="none" stroke="white" stroke-width="1.5" d="M0,-3.0v7 M-2.5,-0.5L0,-3.0L2.5,-0.5"/>
                </g>
               <g id="resetDef">
                       <use xlink:href="#rim2" fill="#404040">
                               <set attributeName="fill" to="#808080" begin="reset.mouseover" end="reset.mouseout"/>
                       </use>
               </g>
        </defs>

<script type="text/javascript">
var viewWidth = 864;
var viewHeight = 345;
var sectionId = 'dynsection-1';
</script>
<script xlink:href="svgpan.js"/>
<svg id="graph" class="graph">
<g id="viewport">
<title>denoptim.gui.GUIPrepareFitnessRunner.InputForm</title>
<polygon fill="white" stroke="transparent" points="-4,4 -4,-341 860,-341 860,4 -4,4"/>
<!-- Node1 -->
<g id="node1" class="node">
<title>Node1</title>
<g id="a_node1"><a xlink:title=" ">
<polygon fill="#bfbfbf" stroke="black" points="698,-169 698,-199 856,-199 856,-169 698,-169"/>
<text text-anchor="start" x="706" y="-187" font-family="Helvetica,sans-Serif" font-size="10.00">denoptim.gui.GUIPrepareFitness</text>
<text text-anchor="middle" x="777" y="-176" font-family="Helvetica,sans-Serif" font-size="10.00">Runner.InputForm</text>
</a>
</g>
</g>
<!-- Node2 -->
<g id="node2" class="node">
<title>Node2</title>
<g id="a_node2"><a xlink:href="classdenoptim_1_1gui_1_1_parameters_form.html" target="_top" xlink:title="General structure of a form for collecting input parameters of various nature.">
<polygon fill="white" stroke="black" points="400,-191.5 400,-210.5 546,-210.5 546,-191.5 400,-191.5"/>
<text text-anchor="middle" x="473" y="-198.5" font-family="Helvetica,sans-Serif" font-size="10.00">denoptim.gui.ParametersForm</text>
</a>
</g>
</g>
<!-- Node2&#45;&gt;Node1 -->
<g id="edge1" class="edge">
<title>Node2&#45;&gt;Node1</title>
<path fill="none" stroke="midnightblue" d="M556.45,-196.36C600.53,-193.88 654.5,-190.84 697.91,-188.4"/>
<polygon fill="midnightblue" stroke="midnightblue" points="556.12,-192.87 546.34,-196.93 556.52,-199.86 556.12,-192.87"/>
</g>
<!-- Node3 -->
<g id="node3" class="node">
<title>Node3</title>
<g id="a_node3"><a xlink:title=" ">
<polygon fill="white" stroke="black" points="190,-317.5 190,-336.5 237,-336.5 237,-317.5 190,-317.5"/>
<text text-anchor="middle" x="213.5" y="-324.5" font-family="Helvetica,sans-Serif" font-size="10.00">JPanel</text>
</a>
</g>
</g>
<!-- Node3&#45;&gt;Node1 -->
<g id="edge14" class="edge">
<title>Node3&#45;&gt;Node1</title>
<path fill="none" stroke="#9a32cd" stroke-dasharray="5,2" d="M247.52,-326.78C281.53,-326 335.94,-323.24 382,-314 517.77,-286.75 671.82,-227.11 740.13,-199.1"/>
<polygon fill="#9a32cd" stroke="#9a32cd" points="247.16,-323.28 237.22,-326.96 247.29,-330.28 247.16,-323.28"/>
<text text-anchor="middle" x="473" y="-313" font-family="Helvetica,sans-Serif" font-size="10.00"> block</text>
</g>
<!-- Node3&#45;&gt;Node2 -->
<g id="edge2" class="edge">
<title>Node3&#45;&gt;Node2</title>
<path fill="none" stroke="midnightblue" d="M247.44,-324.27C282.6,-320.22 339.05,-310.38 382,-287 418.44,-267.16 450.85,-228.7 464.77,-210.72"/>
<polygon fill="midnightblue" stroke="midnightblue" points="246.82,-320.81 237.25,-325.35 247.56,-327.77 246.82,-320.81"/>
</g>
<!-- Node4 -->
<g id="node4" class="node">
<title>Node4</title>
<g id="a_node4"><a xlink:href="interfacedenoptim_1_1gui_1_1_i_parameters_form.html" target="_top" xlink:title="Interface for parameter forms.">
<polygon fill="white" stroke="black" points="139,-273.5 139,-292.5 288,-292.5 288,-273.5 139,-273.5"/>
<text text-anchor="middle" x="213.5" y="-280.5" font-family="Helvetica,sans-Serif" font-size="10.00">denoptim.gui.IParametersForm</text>
</a>
</g>
</g>
<!-- Node4&#45;&gt;Node2 -->
<g id="edge3" class="edge">
<title>Node4&#45;&gt;Node2</title>
<path fill="none" stroke="midnightblue" d="M298.08,-282.38C325.51,-280 355.7,-274.98 382,-265 414.8,-252.55 446.7,-225.2 462.22,-210.61"/>
<polygon fill="midnightblue" stroke="midnightblue" points="297.81,-278.89 288.11,-283.14 298.34,-285.87 297.81,-278.89"/>
</g>
<!-- Node5 -->
<g id="node5" class="node">
<title>Node5</title>
<g id="a_node5"><a xlink:title=" ">
<polygon fill="white" stroke="black" points="182.5,-235.5 182.5,-254.5 244.5,-254.5 244.5,-235.5 182.5,-235.5"/>
<text text-anchor="middle" x="213.5" y="-242.5" font-family="Helvetica,sans-Serif" font-size="10.00">Dimension</text>
</a>
</g>
</g>
<!-- Node5&#45;&gt;Node2 -->
<g id="edge4" class="edge">
<title>Node5&#45;&gt;Node2</title>
<path fill="none" stroke="#9a32cd" stroke-dasharray="5,2" d="M254.43,-238.18C297.73,-230.78 367.19,-218.91 415.95,-210.58"/>
<polygon fill="#9a32cd" stroke="#9a32cd" points="253.81,-234.73 244.54,-239.87 254.99,-241.63 253.81,-234.73"/>
<text text-anchor="middle" x="344" y="-253" font-family="Helvetica,sans-Serif" font-size="10.00"> fileFieldSize</text>
<text text-anchor="middle" x="344" y="-242" font-family="Helvetica,sans-Serif" font-size="10.00">fileLabelSize</text>
<text text-anchor="middle" x="344" y="-231" font-family="Helvetica,sans-Serif" font-size="10.00">strFieldSize</text>
</g>
<!-- Node6 -->
<g id="node6" class="node">
<title>Node6</title>
<g id="a_node6"><a xlink:href="classdenoptim_1_1gui_1_1_parameters_form_1_1_field_listener.html" target="_top" xlink:title=" ">
<polygon fill="white" stroke="black" points="139,-186 139,-216 288,-216 288,-186 139,-186"/>
<text text-anchor="start" x="147" y="-204" font-family="Helvetica,sans-Serif" font-size="10.00">denoptim.gui.ParametersForm.</text>
<text text-anchor="middle" x="213.5" y="-193" font-family="Helvetica,sans-Serif" font-size="10.00">FieldListener</text>
</a>
</g>
</g>
<!-- Node6&#45;&gt;Node2 -->
<g id="edge5" class="edge">
<title>Node6&#45;&gt;Node2</title>
<path fill="none" stroke="#9a32cd" stroke-dasharray="5,2" d="M298.32,-201C331.13,-201 368.4,-201 399.98,-201"/>
<polygon fill="#9a32cd" stroke="#9a32cd" points="298.29,-197.5 288.29,-201 298.29,-204.5 298.29,-197.5"/>
<text text-anchor="middle" x="344" y="-204" font-family="Helvetica,sans-Serif" font-size="10.00"> fieldListener</text>
</g>
<!-- Node7 -->
<g id="node7" class="node">
<title>Node7</title>
<g id="a_node7"><a xlink:title=" ">
<polygon fill="white" stroke="black" points="3,-191.5 3,-210.5 99,-210.5 99,-191.5 3,-191.5"/>
<text text-anchor="middle" x="51" y="-198.5" font-family="Helvetica,sans-Serif" font-size="10.00">DocumentListener</text>
</a>
</g>
</g>
<!-- Node7&#45;&gt;Node6 -->
<g id="edge6" class="edge">
<title>Node7&#45;&gt;Node6</title>
<path fill="none" stroke="midnightblue" d="M109.4,-201C118.92,-201 128.9,-201 138.75,-201"/>
<polygon fill="midnightblue" stroke="midnightblue" points="109.29,-197.5 99.29,-201 109.29,-204.5 109.29,-197.5"/>
</g>
<!-- Node8 -->
<g id="node8" class="node">
<title>Node8</title>
<g id="a_node8"><a xlink:href="classdenoptim_1_1gui_1_1_parameters_form_1_1_rdb_field_change.html" target="_top" xlink:title=" ">
<polygon fill="white" stroke="black" points="139,-137 139,-167 288,-167 288,-137 139,-137"/>
<text text-anchor="start" x="147" y="-155" font-family="Helvetica,sans-Serif" font-size="10.00">denoptim.gui.ParametersForm.</text>
<text text-anchor="middle" x="213.5" y="-144" font-family="Helvetica,sans-Serif" font-size="10.00">RdbFieldChange</text>
</a>
</g>
</g>
<!-- Node8&#45;&gt;Node2 -->
<g id="edge7" class="edge">
<title>Node8&#45;&gt;Node2</title>
<path fill="none" stroke="#9a32cd" stroke-dasharray="5,2" d="M298.23,-167.93C339.04,-175.7 386.76,-184.78 421.85,-191.46"/>
<polygon fill="#9a32cd" stroke="#9a32cd" points="298.77,-164.47 288.29,-166.04 297.46,-171.35 298.77,-164.47"/>
<text text-anchor="middle" x="344" y="-187" font-family="Helvetica,sans-Serif" font-size="10.00"> rdbFieldChange</text>
</g>
<!-- Node9 -->
<g id="node9" class="node">
<title>Node9</title>
<g id="a_node9"><a xlink:title=" ">
<polygon fill="white" stroke="black" points="8.5,-142.5 8.5,-161.5 93.5,-161.5 93.5,-142.5 8.5,-142.5"/>
<text text-anchor="middle" x="51" y="-149.5" font-family="Helvetica,sans-Serif" font-size="10.00">ChangeListener</text>
</a>
</g>
</g>
<!-- Node9&#45;&gt;Node8 -->
<g id="edge8" class="edge">
<title>Node9&#45;&gt;Node8</title>
<path fill="none" stroke="midnightblue" d="M103.78,-152C115,-152 127.07,-152 138.94,-152"/>
<polygon fill="midnightblue" stroke="midnightblue" points="103.75,-148.5 93.75,-152 103.75,-155.5 103.75,-148.5"/>
</g>
<!-- Node10 -->
<g id="node10" class="node">
<title>Node10</title>
<g id="a_node10"><a xlink:href="classdenoptim_1_1gui_1_1_parameters_form_1_1_tab_field_change.html" target="_top" xlink:title=" ">
<polygon fill="white" stroke="black" points="139,-88 139,-118 288,-118 288,-88 139,-88"/>
<text text-anchor="start" x="147" y="-106" font-family="Helvetica,sans-Serif" font-size="10.00">denoptim.gui.ParametersForm.</text>
<text text-anchor="middle" x="213.5" y="-95" font-family="Helvetica,sans-Serif" font-size="10.00">TabFieldChange</text>
</a>
</g>
</g>
<!-- Node10&#45;&gt;Node2 -->
<g id="edge9" class="edge">
<title>Node10&#45;&gt;Node2</title>
<path fill="none" stroke="#9a32cd" stroke-dasharray="5,2" d="M298.18,-117.94C326.69,-125.9 357.52,-137.93 382,-156 393.31,-164.35 388.49,-173.93 400,-182 405.5,-185.86 411.74,-188.94 418.19,-191.39"/>
<polygon fill="#9a32cd" stroke="#9a32cd" points="298.76,-114.47 288.2,-115.29 296.97,-121.24 298.76,-114.47"/>
<text text-anchor="middle" x="344" y="-159" font-family="Helvetica,sans-Serif" font-size="10.00"> tabFieldChange</text>
</g>
<!-- Node11 -->
<g id="node11" class="node">
<title>Node11</title>
<g id="a_node11"><a xlink:title=" ">
<polygon fill="white" stroke="black" points="0,-93.5 0,-112.5 102,-112.5 102,-93.5 0,-93.5"/>
<text text-anchor="middle" x="51" y="-100.5" font-family="Helvetica,sans-Serif" font-size="10.00">TableModelListener</text>
</a>
</g>
</g>
<!-- Node11&#45;&gt;Node10 -->
<g id="edge10" class="edge">
<title>Node11&#45;&gt;Node10</title>
<path fill="none" stroke="midnightblue" d="M112.6,-103C121.17,-103 130.05,-103 138.82,-103"/>
<polygon fill="midnightblue" stroke="midnightblue" points="112.34,-99.5 102.34,-103 112.34,-106.5 112.34,-99.5"/>
</g>
<!-- Node12 -->
<g id="node12" class="node">
<title>Node12</title>
<g id="a_node12"><a xlink:href="classdenoptim_1_1gui_1_1_parameters_form_1_1_cmb_field_change.html" target="_top" xlink:title=" ">
<polygon fill="white" stroke="black" points="139,-39 139,-69 288,-69 288,-39 139,-39"/>
<text text-anchor="start" x="147" y="-57" font-family="Helvetica,sans-Serif" font-size="10.00">denoptim.gui.ParametersForm.</text>
<text text-anchor="middle" x="213.5" y="-46" font-family="Helvetica,sans-Serif" font-size="10.00">CmbFieldChange</text>
</a>
</g>
</g>
<!-- Node12&#45;&gt;Node2 -->
<g id="edge11" class="edge">
<title>Node12&#45;&gt;Node2</title>
<path fill="none" stroke="#9a32cd" stroke-dasharray="5,2" d="M298.47,-63.27C328.55,-70.63 360.33,-83.74 382,-107 405.37,-132.08 376.03,-157.49 400,-182 403.71,-185.79 408.07,-188.85 412.79,-191.33"/>
<polygon fill="#9a32cd" stroke="#9a32cd" points="298.88,-59.78 288.36,-60.99 297.34,-66.6 298.88,-59.78"/>
<text text-anchor="middle" x="344" y="-110" font-family="Helvetica,sans-Serif" font-size="10.00"> cmbFieldChange</text>
</g>
<!-- Node13 -->
<g id="node13" class="node">
<title>Node13</title>
<g id="a_node13"><a xlink:title=" ">
<polygon fill="white" stroke="black" points="11,-44.5 11,-63.5 91,-63.5 91,-44.5 11,-44.5"/>
<text text-anchor="middle" x="51" y="-51.5" font-family="Helvetica,sans-Serif" font-size="10.00">ActionListener</text>
</a>
</g>
</g>
<!-- Node13&#45;&gt;Node12 -->
<g id="edge12" class="edge">
<title>Node13&#45;&gt;Node12</title>
<path fill="none" stroke="midnightblue" d="M101.38,-54C113.23,-54 126.15,-54 138.85,-54"/>
<polygon fill="midnightblue" stroke="midnightblue" points="101.26,-50.5 91.26,-54 101.26,-57.5 101.26,-50.5"/>
</g>
<!-- Node14 -->
<g id="node14" class="node">
<title>Node14</title>
<g id="a_node14"><a xlink:title=" ">
<polygon fill="white" stroke="black" points="154.5,-0.5 154.5,-19.5 272.5,-19.5 272.5,-0.5 154.5,-0.5"/>
<text text-anchor="middle" x="213.5" y="-7.5" font-family="Helvetica,sans-Serif" font-size="10.00">Map&lt; String, Boolean &gt;</text>
</a>
</g>
</g>
<!-- Node14&#45;&gt;Node2 -->
<g id="edge13" class="edge">
<title>Node14&#45;&gt;Node2</title>
<path fill="none" stroke="#9a32cd" stroke-dasharray="5,2" d="M282.94,-9.98C317.53,-13.73 357.31,-24.48 382,-52 420.96,-95.41 361.31,-138.35 400,-182 403.34,-185.77 407.34,-188.84 411.71,-191.32"/>
<polygon fill="#9a32cd" stroke="#9a32cd" points="283.14,-6.48 272.86,-9.06 282.51,-13.45 283.14,-6.48"/>
<text text-anchor="middle" x="344" y="-55" font-family="Helvetica,sans-Serif" font-size="10.00"> checkedFlags</text>
</g>
<!-- Node15 -->
<g id="node15" class="node">
<title>Node15</title>
<g id="a_node15"><a xlink:title=" ">
<polygon fill="white" stroke="black" points="417.5,-153.5 417.5,-172.5 528.5,-172.5 528.5,-153.5 417.5,-153.5"/>
<text text-anchor="middle" x="473" y="-160.5" font-family="Helvetica,sans-Serif" font-size="10.00">Map&lt; String, Object &gt;</text>
</a>
</g>
</g>
<!-- Node15&#45;&gt;Node1 -->
<g id="edge15" class="edge">
<title>Node15&#45;&gt;Node1</title>
<path fill="none" stroke="#9a32cd" stroke-dasharray="5,2" d="M538.72,-166.18C579.32,-168.33 632.74,-171.41 680,-175 685.84,-175.44 691.88,-175.93 697.95,-176.45"/>
<polygon fill="#9a32cd" stroke="#9a32cd" points="538.85,-162.69 528.68,-165.66 538.49,-169.68 538.85,-162.69"/>
<text text-anchor="middle" x="622" y="-178" font-family="Helvetica,sans-Serif" font-size="10.00"> mapKeyFieldToValueField</text>
</g>
<!-- Node16 -->
<g id="node16" class="node">
<title>Node16</title>
<g id="a_node16"><a xlink:title=" ">
<polygon fill="white" stroke="black" points="442,-112.5 442,-131.5 504,-131.5 504,-112.5 442,-112.5"/>
<text text-anchor="middle" x="473" y="-119.5" font-family="Helvetica,sans-Serif" font-size="10.00">JTextField</text>
</a>
</g>
</g>
<!-- Node16&#45;&gt;Node1 -->
<g id="edge16" class="edge">
<title>Node16&#45;&gt;Node1</title>
<path fill="none" stroke="#9a32cd" stroke-dasharray="5,2" d="M514.3,-122.18C556.31,-123.24 623.74,-127.36 680,-142 703.77,-148.19 729.16,-159.53 747.86,-168.87"/>
<polygon fill="#9a32cd" stroke="#9a32cd" points="514.26,-118.68 504.19,-121.98 514.12,-125.68 514.26,-118.68"/>
<text text-anchor="middle" x="622" y="-156" font-family="Helvetica,sans-Serif" font-size="10.00"> txtInFile</text>
<text text-anchor="middle" x="622" y="-145" font-family="Helvetica,sans-Serif" font-size="10.00">txtOutFile</text>
</g>
</g>
</svg>
        <g id="navigator" transform="translate(0 0)" fill="#404254">
                <rect fill="#f2f5e9" fill-opacity="0.5" stroke="#606060" stroke-width=".5" x="0" y="0" width="60" height="60"/>
                <use id="zoomplus" xlink:href="#zoomPlus" x="17" y="9" onmousedown="handleZoom(evt,'in')"/>
                <use id="zoomminus" xlink:href="#zoomMin" x="42" y="9" onmousedown="handleZoom(evt,'out')"/>
                <use id="reset" xlink:href="#resetDef" x="30" y="36" onmousedown="handleReset()"/>
                <g id="arrowUp" xlink:href="#dirArrow" transform="translate(30 24)" onmousedown="handlePan(0,-1)">
                  <use xlink:href="#rim" fill="#404040">
                        <set attributeName="fill" to="#808080" begin="arrowUp.mouseover" end="arrowUp.mouseout"/>
                  </use>
                  <path fill="none" stroke="white" stroke-width="1.5" d="M0,-3.0v7 M-2.5,-0.5L0,-3.0L2.5,-0.5"/>
                </g>
                <g id="arrowRight" xlink:href="#dirArrow" transform="rotate(90) translate(36 -43)" onmousedown="handlePan(1,0)">
                  <use xlink:href="#rim" fill="#404040">
                        <set attributeName="fill" to="#808080" begin="arrowRight.mouseover" end="arrowRight.mouseout"/>
                  </use>
                  <path fill="none" stroke="white" stroke-width="1.5" d="M0,-3.0v7 M-2.5,-0.5L0,-3.0L2.5,-0.5"/>
                </g>
                <g id="arrowDown" xlink:href="#dirArrow" transform="rotate(180) translate(-30 -48)" onmousedown="handlePan(0,1)">
                  <use xlink:href="#rim" fill="#404040">
                        <set attributeName="fill" to="#808080" begin="arrowDown.mouseover" end="arrowDown.mouseout"/>
                  </use>
                  <path fill="none" stroke="white" stroke-width="1.5" d="M0,-3.0v7 M-2.5,-0.5L0,-3.0L2.5,-0.5"/>
                </g>
                <g id="arrowLeft" xlink:href="#dirArrow" transform="rotate(270) translate(-36 17)" onmousedown="handlePan(-1,0)">
                  <use xlink:href="#rim" fill="#404040">
                        <set attributeName="fill" to="#808080" begin="arrowLeft.mouseover" end="arrowLeft.mouseout"/>
                  </use>
                  <path fill="none" stroke="white" stroke-width="1.5" d="M0,-3.0v7 M-2.5,-0.5L0,-3.0L2.5,-0.5"/>
                </g>
        </g>
        <svg viewBox="0 0 15 15" width="100%" height="30px" preserveAspectRatio="xMaxYMin meet">
         <g id="arrow_out" transform="scale(0.3 0.3)">
          <a xlink:href="classdenoptim_1_1gui_1_1_g_u_i_prepare_fitness_runner_1_1_input_form__coll__graph_org.svg" target="_base">
           <rect id="button" ry="5" rx="5" y="6" x="6" height="38" width="38"
                fill="#f2f5e9" fill-opacity="0.5" stroke="#606060" stroke-width="1.0"/>
           <path id="arrow"
             d="M 11.500037,31.436501 C 11.940474,20.09759 22.043105,11.32322 32.158766,21.979434 L 37.068811,17.246167 C 37.068811,17.246167 37.088388,32 37.088388,32 L 22.160133,31.978069 C 22.160133,31.978069 26.997745,27.140456 26.997745,27.140456 C 18.528582,18.264221 13.291696,25.230495 11.500037,31.436501 z"
             style="fill:#404040;"/>
          </a>
         </g>
        </svg>
</svg>
