<?xml version="1.0" encoding="UTF-8" standalone="no"?>
<!DOCTYPE svg PUBLIC "-//W3C//DTD SVG 1.1//EN"
 "http://www.w3.org/Graphics/SVG/1.1/DTD/svg11.dtd">
<!-- Generated by graphviz version 3.0.0 (20220413.0242)
 -->
<!-- Title: denoptim.programs.fragmenter.FragmenterParameters.doCheckFormula Pages: 1 -->
<svg width="606pt" height="149pt"
 viewBox="0.00 0.00 606.00 148.50" xmlns="http://www.w3.org/2000/svg" xmlns:xlink="http://www.w3.org/1999/xlink">
<g id="graph0" class="graph" transform="scale(1 1) rotate(0) translate(4 144.5)">
<title>denoptim.programs.fragmenter.FragmenterParameters.doCheckFormula</title>
<polygon fill="white" stroke="transparent" points="-4,4 -4,-144.5 602,-144.5 602,4 -4,4"/>
<!-- Node1 -->
<g id="node1" class="node">
<title>Node1</title>
<g id="a_node1"><a xlink:title=" ">
<polygon fill="#bfbfbf" stroke="black" points="406,-66 406,-96 598,-96 598,-66 406,-66"/>
<text text-anchor="start" x="414" y="-84" font-family="Helvetica,sans-Serif" font-size="10.00">denoptim.programs.fragmenter.</text>
<text text-anchor="middle" x="502" y="-73" font-family="Helvetica,sans-Serif" font-size="10.00">FragmenterParameters.doCheckFormula</text>
</a>
</g>
</g>
<!-- Node2 -->
<g id="node2" class="node">
<title>Node2</title>
<g id="a_node2"><a xlink:href="classdenoptim_1_1fragmenter_1_1_fragmenter_task.html#ad73de82da7bcd76c0159c2d5080682c4" target="_top" xlink:title="Performs the whatever work has to be done by this task.">
<polygon fill="white" stroke="black" points="210.5,-110 210.5,-140 367.5,-140 367.5,-110 210.5,-110"/>
<text text-anchor="start" x="218.5" y="-128" font-family="Helvetica,sans-Serif" font-size="10.00">denoptim.fragmenter.Fragmenter</text>
<text text-anchor="middle" x="289" y="-117" font-family="Helvetica,sans-Serif" font-size="10.00">Task.call</text>
</a>
</g>
</g>
<!-- Node1&#45;&gt;Node2 -->
<g id="edge1" class="edge">
<title>Node1&#45;&gt;Node2</title>
<path fill="none" stroke="midnightblue" d="M418.97,-98.11C400.19,-102.02 380.38,-106.15 362.06,-109.97"/>
<polygon fill="midnightblue" stroke="midnightblue" points="419.9,-101.49 428.98,-96.02 418.47,-94.63 419.9,-101.49"/>
</g>
<!-- Node3 -->
<g id="node3" class="node">
<title>Node3</title>
<g id="a_node3"><a xlink:href="classdenoptim_1_1fragmenter_1_1_parallel_fragmentation_algorithm.html#a13ae260c713d9b901a9aa71152c615ad" target="_top" xlink:title=" ">
<polygon fill="white" stroke="black" points="0,-60.5 0,-101.5 172,-101.5 172,-60.5 0,-60.5"/>
<text text-anchor="start" x="8" y="-89.5" font-family="Helvetica,sans-Serif" font-size="10.00">denoptim.fragmenter.Parallel</text>
<text text-anchor="start" x="8" y="-78.5" font-family="Helvetica,sans-Serif" font-size="10.00">FragmentationAlgorithm.doPreFlight</text>
<text text-anchor="middle" x="86" y="-67.5" font-family="Helvetica,sans-Serif" font-size="10.00">Operations</text>
</a>
</g>
</g>
<!-- Node1&#45;&gt;Node3 -->
<g id="edge2" class="edge">
<title>Node1&#45;&gt;Node3</title>
<path fill="none" stroke="midnightblue" d="M395.7,-81C326.47,-81 237.05,-81 172.28,-81"/>
<polygon fill="midnightblue" stroke="midnightblue" points="395.76,-84.5 405.76,-81 395.76,-77.5 395.76,-84.5"/>
</g>
<!-- Node4 -->
<g id="node4" class="node">
<title>Node4</title>
<g id="a_node4"><a xlink:href="classdenoptim_1_1fragmenter_1_1_parallel_fragmentation_algorithm.html#a968df3903fa6d1aafc1d88750fb9bf24" target="_top" xlink:title="Splits the input data (from FragmenterParameters) into batches suitable for parallel batch processing...">
<polygon fill="white" stroke="black" points="208,-11.5 208,-52.5 370,-52.5 370,-11.5 208,-11.5"/>
<text text-anchor="start" x="216" y="-40.5" font-family="Helvetica,sans-Serif" font-size="10.00">denoptim.fragmenter.Parallel</text>
<text text-anchor="start" x="216" y="-29.5" font-family="Helvetica,sans-Serif" font-size="10.00">FragmentationAlgorithm.splitInput</text>
<text text-anchor="middle" x="289" y="-18.5" font-family="Helvetica,sans-Serif" font-size="10.00">ForThreads</text>
</a>
</g>
</g>
<!-- Node1&#45;&gt;Node4 -->
<g id="edge3" class="edge">
<title>Node1&#45;&gt;Node4</title>
<path fill="none" stroke="midnightblue" d="M426.32,-63.66C408.17,-59.44 388.67,-54.91 370.27,-50.64"/>
<polygon fill="midnightblue" stroke="midnightblue" points="425.73,-67.11 436.26,-65.97 427.31,-60.29 425.73,-67.11"/>
</g>
<!-- Node4&#45;&gt;Node3 -->
<g id="edge4" class="edge">
<title>Node4&#45;&gt;Node3</title>
<path fill="none" stroke="midnightblue" d="M198.03,-53.93C189.15,-56.1 180.17,-58.29 171.36,-60.44"/>
<polygon fill="midnightblue" stroke="midnightblue" points="199.1,-57.28 207.98,-51.51 197.44,-50.47 199.1,-57.28"/>
</g>
<!-- Node5 -->
<g id="node5" class="node">
<title>Node5</title>
<g id="a_node5"><a xlink:href="classdenoptim_1_1fragmenter_1_1_parallel_fragmentation_algorithm_test.html#a11b2178cd3d55ba7f1fe1e0e047dd684" target="_top" xlink:title=" ">
<polygon fill="white" stroke="black" points="7,-0.5 7,-41.5 165,-41.5 165,-0.5 7,-0.5"/>
<text text-anchor="start" x="15" y="-29.5" font-family="Helvetica,sans-Serif" font-size="10.00">denoptim.fragmenter.Parallel</text>
<text text-anchor="start" x="15" y="-18.5" font-family="Helvetica,sans-Serif" font-size="10.00">FragmentationAlgorithmTest.test</text>
<text text-anchor="middle" x="86" y="-7.5" font-family="Helvetica,sans-Serif" font-size="10.00">SplitInputForThreads</text>
</a>
</g>
</g>
<!-- Node4&#45;&gt;Node5 -->
<g id="edge5" class="edge">
<title>Node4&#45;&gt;Node5</title>
<path fill="none" stroke="midnightblue" d="M197.97,-27.07C187.01,-26.47 175.88,-25.86 165.1,-25.27"/>
<polygon fill="midnightblue" stroke="midnightblue" points="197.81,-30.57 207.98,-27.62 198.19,-23.58 197.81,-30.57"/>
</g>
</g>
</svg>
