<?xml version="1.0" encoding="UTF-8" standalone="no"?>
<!DOCTYPE svg PUBLIC "-//W3C//DTD SVG 1.1//EN"
 "http://www.w3.org/Graphics/SVG/1.1/DTD/svg11.dtd">
<!-- Generated by graphviz version 3.0.0 (20220413.0242)
 -->
<!-- Title: denoptim.ga.EAUtils.outputFinalResults Pages: 1 -->
<!--zoomable 560 -->
<svg id="main" version="1.1" xmlns="http://www.w3.org/2000/svg" xmlns:xlink="http://www.w3.org/1999/xlink" xml:space="preserve" onload="init(evt)">
<style type="text/css"><![CDATA[
.edge:hover path { stroke: red; }
.edge:hover polygon { stroke: red; fill: red; }
]]></style>
<script type="text/javascript"><![CDATA[
var edges = document.getElementsByTagName('g');
if (edges && edges.length) {
  for (var i=0;i<edges.length;i++) {
    if (edges[i].id.substr(0,4)=='edge') {
      edges[i].setAttribute('class','edge');
    }
  }
}
]]></script>
        <defs>
                <circle id="rim" cx="0" cy="0" r="7"/>
                <circle id="rim2" cx="0" cy="0" r="3.5"/>
                <g id="zoomPlus">
                        <use xlink:href="#rim" fill="#404040">
                                <set attributeName="fill" to="#808080" begin="zoomplus.mouseover" end="zoomplus.mouseout"/>
                        </use>
                        <path d="M-4,0h8M0,-4v8" fill="none" stroke="white" stroke-width="1.5" pointer-events="none"/>
                </g>
                <g id="zoomMin">
                        <use xlink:href="#rim" fill="#404040">
                                <set attributeName="fill" to="#808080" begin="zoomminus.mouseover" end="zoomminus.mouseout"/>
                        </use>
                        <path d="M-4,0h8" fill="none" stroke="white" stroke-width="1.5" pointer-events="none"/>
                </g>
                <g id="dirArrow">
                        <path fill="none" stroke="white" stroke-width="1.5" d="M0,-3.0v7 M-2.5,-0.5L0,-3.0L2.5,-0.5"/>
                </g>
               <g id="resetDef">
                       <use xlink:href="#rim2" fill="#404040">
                               <set attributeName="fill" to="#808080" begin="reset.mouseover" end="reset.mouseout"/>
                       </use>
               </g>
        </defs>

<script type="text/javascript">
var viewWidth = 1473;
var viewHeight = 560;
var sectionId = 'dynsection-50';
</script>
<script xlink:href="svgpan.js"/>
<svg id="graph" class="graph">
<g id="viewport">
<title>denoptim.ga.EAUtils.outputFinalResults</title>
<polygon fill="white" stroke="transparent" points="-4,4 -4,-556 1469,-556 1469,4 -4,4"/>
<!-- Node1 -->
<g id="node1" class="node">
<title>Node1</title>
<g id="a_node1"><a xlink:title="Simply copies the files from the previous directories into the specified folder.">
<polygon fill="#bfbfbf" stroke="black" points="0,-232.5 0,-262.5 134,-262.5 134,-232.5 0,-232.5"/>
<text text-anchor="start" x="8" y="-250.5" font-family="Helvetica,sans-Serif" font-size="10.00">denoptim.ga.EAUtils.output</text>
<text text-anchor="middle" x="67" y="-239.5" font-family="Helvetica,sans-Serif" font-size="10.00">FinalResults</text>
</a>
</g>
</g>
<!-- Node2 -->
<g id="node2" class="node">
<title>Node2</title>
<g id="a_node2"><a xlink:href="classdenoptim_1_1graph_1_1_candidate.html#afb962e012eb5262a4df925440f9dc857" target="_top" xlink:title=" ">
<polygon fill="white" stroke="black" points="181.5,-336.5 181.5,-366.5 325.5,-366.5 325.5,-336.5 181.5,-336.5"/>
<text text-anchor="start" x="189.5" y="-354.5" font-family="Helvetica,sans-Serif" font-size="10.00">denoptim.graph.Candidate.get</text>
<text text-anchor="middle" x="253.5" y="-343.5" font-family="Helvetica,sans-Serif" font-size="10.00">ImageFile</text>
</a>
</g>
</g>
<!-- Node1&#45;&gt;Node2 -->
<g id="edge1" class="edge">
<title>Node1&#45;&gt;Node2</title>
<path fill="none" stroke="midnightblue" d="M85.77,-262.78C105.36,-279.03 138.31,-304.67 170,-321.5 177.73,-325.6 186.13,-329.37 194.53,-332.76"/>
<polygon fill="midnightblue" stroke="midnightblue" points="193.38,-336.06 203.97,-336.41 195.91,-329.54 193.38,-336.06"/>
</g>
<!-- Node3 -->
<g id="node3" class="node">
<title>Node3</title>
<g id="a_node3"><a xlink:href="classdenoptim_1_1graph_1_1_candidate.html#ae97ca468f9830ef96fb75199460e3568" target="_top" xlink:title=" ">
<polygon fill="white" stroke="black" points="373,-372 373,-391 543,-391 543,-372 373,-372"/>
<text text-anchor="middle" x="458" y="-379" font-family="Helvetica,sans-Serif" font-size="10.00">denoptim.graph.Candidate.getName</text>
</a>
</g>
</g>
<!-- Node1&#45;&gt;Node3 -->
<g id="edge2" class="edge">
<title>Node1&#45;&gt;Node3</title>
<path fill="none" stroke="midnightblue" d="M99.58,-262.62C119.45,-271.67 145.81,-282.87 170,-290.5 242.41,-313.35 270.07,-290.65 337,-326.5 356.67,-337.04 353.44,-350.75 373,-361.5 378.05,-364.28 383.48,-366.67 389.05,-368.73"/>
<polygon fill="midnightblue" stroke="midnightblue" points="387.95,-372.05 398.54,-371.9 390.17,-365.41 387.95,-372.05"/>
</g>
<!-- Node4 -->
<g id="node4" class="node">
<title>Node4</title>
<g id="a_node4"><a xlink:href="classdenoptim_1_1ga_1_1_e_a_utils.html#ad39481eb0dbcd086533e464e7a5215c2" target="_top" xlink:title=" ">
<polygon fill="white" stroke="black" points="170,-138.5 170,-168.5 337,-168.5 337,-138.5 170,-138.5"/>
<text text-anchor="start" x="178" y="-156.5" font-family="Helvetica,sans-Serif" font-size="10.00">denoptim.ga.EAUtils.getPath</text>
<text text-anchor="middle" x="253.5" y="-145.5" font-family="Helvetica,sans-Serif" font-size="10.00">NameToFinalPopulationDetailsFile</text>
</a>
</g>
</g>
<!-- Node1&#45;&gt;Node4 -->
<g id="edge3" class="edge">
<title>Node1&#45;&gt;Node4</title>
<path fill="none" stroke="midnightblue" d="M97.64,-232.4C129.11,-216.36 178.99,-190.95 213.6,-173.32"/>
<polygon fill="midnightblue" stroke="midnightblue" points="215.61,-176.22 222.93,-168.57 212.43,-169.99 215.61,-176.22"/>
</g>
<!-- Node6 -->
<g id="node6" class="node">
<title>Node6</title>
<g id="a_node6"><a xlink:href="classdenoptim_1_1ga_1_1_e_a_utils.html#a49c400fc7999f4db03f824bce500c5f1" target="_top" xlink:title=" ">
<polygon fill="white" stroke="black" points="179.5,-43.5 179.5,-73.5 327.5,-73.5 327.5,-43.5 179.5,-43.5"/>
<text text-anchor="start" x="187.5" y="-61.5" font-family="Helvetica,sans-Serif" font-size="10.00">denoptim.ga.EAUtils.getPath</text>
<text text-anchor="middle" x="253.5" y="-50.5" font-family="Helvetica,sans-Serif" font-size="10.00">NameToFinalPopulationFolder</text>
</a>
</g>
</g>
<!-- Node1&#45;&gt;Node6 -->
<g id="edge5" class="edge">
<title>Node1&#45;&gt;Node6</title>
<path fill="none" stroke="midnightblue" d="M79.84,-232.17C98.15,-208.84 134.89,-163.43 170,-128.5 187.35,-111.24 208.41,-93.42 224.91,-80.07"/>
<polygon fill="midnightblue" stroke="midnightblue" points="227.46,-82.52 233.08,-73.53 223.08,-77.05 227.46,-82.52"/>
</g>
<!-- Node7 -->
<g id="node7" class="node">
<title>Node7</title>
<g id="a_node7"><a xlink:href="classdenoptim_1_1graph_1_1_candidate.html#a65cfcaa4ce7b537005082fd90e90d8b6" target="_top" xlink:title=" ">
<polygon fill="white" stroke="black" points="386,-322.5 386,-352.5 530,-352.5 530,-322.5 386,-322.5"/>
<text text-anchor="start" x="394" y="-340.5" font-family="Helvetica,sans-Serif" font-size="10.00">denoptim.graph.Candidate.get</text>
<text text-anchor="middle" x="458" y="-329.5" font-family="Helvetica,sans-Serif" font-size="10.00">SDFFile</text>
</a>
</g>
</g>
<!-- Node1&#45;&gt;Node7 -->
<g id="edge7" class="edge">
<title>Node1&#45;&gt;Node7</title>
<path fill="none" stroke="midnightblue" d="M134.11,-252.93C189.46,-258.85 269.93,-270.72 337,-293.5 354.13,-299.32 356.25,-305.66 373,-312.5 378.82,-314.88 384.96,-317.14 391.15,-319.26"/>
<polygon fill="midnightblue" stroke="midnightblue" points="390.3,-322.66 400.89,-322.47 392.49,-316.02 390.3,-322.66"/>
</g>
<!-- Node8 -->
<g id="node8" class="node">
<title>Node8</title>
<g id="a_node8"><a xlink:href="classdenoptim_1_1ga_1_1_e_a_utils.html#aafeb26c06b39ccb444c440d8f1f2c340" target="_top" xlink:title="Write out summary for the current GA population.">
<polygon fill="white" stroke="black" points="186.5,-210.5 186.5,-240.5 320.5,-240.5 320.5,-210.5 186.5,-210.5"/>
<text text-anchor="start" x="194.5" y="-228.5" font-family="Helvetica,sans-Serif" font-size="10.00">denoptim.ga.EAUtils.output</text>
<text text-anchor="middle" x="253.5" y="-217.5" font-family="Helvetica,sans-Serif" font-size="10.00">PopulationDetails</text>
</a>
</g>
</g>
<!-- Node1&#45;&gt;Node8 -->
<g id="edge8" class="edge">
<title>Node1&#45;&gt;Node8</title>
<path fill="none" stroke="midnightblue" d="M134.09,-239.62C147.73,-237.99 162.21,-236.27 176.19,-234.6"/>
<polygon fill="midnightblue" stroke="midnightblue" points="176.74,-238.06 186.25,-233.4 175.91,-231.11 176.74,-238.06"/>
</g>
<!-- Node5 -->
<g id="node5" class="node">
<title>Node5</title>
<g id="a_node5"><a xlink:href="classdenoptim_1_1programs_1_1denovo_1_1_g_a_parameters.html#a2cbfb524deabf9890bd1bd12b87c6bac" target="_top" xlink:title=" ">
<polygon fill="white" stroke="black" points="380.5,-0.5 380.5,-30.5 535.5,-30.5 535.5,-0.5 380.5,-0.5"/>
<text text-anchor="start" x="388.5" y="-18.5" font-family="Helvetica,sans-Serif" font-size="10.00">denoptim.programs.denovo.</text>
<text text-anchor="middle" x="458" y="-7.5" font-family="Helvetica,sans-Serif" font-size="10.00">GAParameters.getDataDirectory</text>
</a>
</g>
</g>
<!-- Node4&#45;&gt;Node5 -->
<g id="edge4" class="edge">
<title>Node4&#45;&gt;Node5</title>
<path fill="none" stroke="midnightblue" d="M273.96,-138.26C291.19,-124.42 316.7,-103.08 337,-82.5 354.5,-64.76 352.1,-53.08 373,-39.5 375.44,-37.91 378,-36.43 380.62,-35.04"/>
<polygon fill="midnightblue" stroke="midnightblue" points="382.27,-38.13 389.81,-30.68 379.27,-31.81 382.27,-38.13"/>
</g>
<!-- Node6&#45;&gt;Node5 -->
<g id="edge6" class="edge">
<title>Node6&#45;&gt;Node5</title>
<path fill="none" stroke="midnightblue" d="M325.32,-43.46C341.82,-39.96 359.5,-36.2 376.38,-32.62"/>
<polygon fill="midnightblue" stroke="midnightblue" points="377.16,-36.03 386.22,-30.53 375.71,-29.18 377.16,-36.03"/>
</g>
<!-- Node8&#45;&gt;Node3 -->
<g id="edge12" class="edge">
<title>Node8&#45;&gt;Node3</title>
<path fill="none" stroke="midnightblue" d="M277.62,-240.74C295.45,-253.34 319.87,-272.5 337,-293.5 358.61,-320 345.96,-340.57 373,-361.5 375.96,-363.79 379.14,-365.83 382.47,-367.63"/>
<polygon fill="midnightblue" stroke="midnightblue" points="381.05,-370.83 391.59,-371.9 384.02,-364.49 381.05,-370.83"/>
</g>
<!-- Node8&#45;&gt;Node7 -->
<g id="edge13" class="edge">
<title>Node8&#45;&gt;Node7</title>
<path fill="none" stroke="midnightblue" d="M311.72,-240.67C320.73,-244.6 329.52,-249.48 337,-255.5 360.33,-274.3 349.12,-294.41 373,-312.5 375.47,-314.37 378.07,-316.1 380.78,-317.7"/>
<polygon fill="midnightblue" stroke="midnightblue" points="379.24,-320.84 389.72,-322.39 382.49,-314.64 379.24,-320.84"/>
</g>
<!-- Node9 -->
<g id="node9" class="node">
<title>Node9</title>
<g id="a_node9"><a xlink:href="classdenoptim_1_1graph_1_1_candidate.html#a0738609a1a3bec92633440d449a62c67" target="_top" xlink:title=" ">
<polygon fill="white" stroke="black" points="386,-147.5 386,-177.5 530,-177.5 530,-147.5 386,-147.5"/>
<text text-anchor="start" x="394" y="-165.5" font-family="Helvetica,sans-Serif" font-size="10.00">denoptim.graph.Candidate.get</text>
<text text-anchor="middle" x="458" y="-154.5" font-family="Helvetica,sans-Serif" font-size="10.00">Fitness</text>
</a>
</g>
</g>
<!-- Node8&#45;&gt;Node9 -->
<g id="edge9" class="edge">
<title>Node8&#45;&gt;Node9</title>
<path fill="none" stroke="midnightblue" d="M300.57,-210.48C322.48,-203.4 349.06,-194.9 373,-187.5 380.46,-185.19 388.31,-182.81 396.08,-180.47"/>
<polygon fill="midnightblue" stroke="midnightblue" points="397.29,-183.76 405.86,-177.53 395.28,-177.05 397.29,-183.76"/>
</g>
<!-- Node10 -->
<g id="node10" class="node">
<title>Node10</title>
<g id="a_node10"><a xlink:href="classdenoptim_1_1graph_1_1_candidate.html#a50cd0725a1b1c8766897427f2375e79d" target="_top" xlink:title=" ">
<polygon fill="white" stroke="black" points="386,-98.5 386,-128.5 530,-128.5 530,-98.5 386,-98.5"/>
<text text-anchor="start" x="394" y="-116.5" font-family="Helvetica,sans-Serif" font-size="10.00">denoptim.graph.Candidate.get</text>
<text text-anchor="middle" x="458" y="-105.5" font-family="Helvetica,sans-Serif" font-size="10.00">Graph</text>
</a>
</g>
</g>
<!-- Node8&#45;&gt;Node10 -->
<g id="edge10" class="edge">
<title>Node8&#45;&gt;Node10</title>
<path fill="none" stroke="midnightblue" d="M285.75,-210.29C301.84,-201.75 321.31,-190.25 337,-177.5 355.56,-162.42 352.71,-150.17 373,-137.5 375.77,-135.77 378.66,-134.17 381.64,-132.67"/>
<polygon fill="midnightblue" stroke="midnightblue" points="383.14,-135.84 390.8,-128.52 380.25,-129.46 383.14,-135.84"/>
</g>
<!-- Node11 -->
<g id="node11" class="node">
<title>Node11</title>
<g id="a_node11"><a xlink:href="classdenoptim_1_1graph_1_1_d_graph.html#abc9d9eae901e1e868183f8bdaca13aea" target="_top" xlink:title=" ">
<polygon fill="white" stroke="black" points="391,-49.5 391,-79.5 525,-79.5 525,-49.5 391,-49.5"/>
<text text-anchor="start" x="399" y="-67.5" font-family="Helvetica,sans-Serif" font-size="10.00">denoptim.graph.DGraph.get</text>
<text text-anchor="middle" x="458" y="-56.5" font-family="Helvetica,sans-Serif" font-size="10.00">GraphId</text>
</a>
</g>
</g>
<!-- Node8&#45;&gt;Node11 -->
<g id="edge11" class="edge">
<title>Node8&#45;&gt;Node11</title>
<path fill="none" stroke="midnightblue" d="M291.91,-210.34C307.53,-202.47 324.84,-191.52 337,-177.5 364.95,-145.26 341.27,-117.03 373,-88.5 375.68,-86.09 378.58,-83.93 381.64,-81.98"/>
<polygon fill="midnightblue" stroke="midnightblue" points="383.56,-84.92 390.63,-77.04 380.18,-78.78 383.56,-84.92"/>
</g>
<!-- Node12 -->
<g id="node12" class="node">
<title>Node12</title>
<g id="a_node12"><a xlink:href="classdenoptim_1_1ga_1_1_e_a_utils.html#aa9dec22b5b0a35d6b333f8ce3bf83643" target="_top" xlink:title=" ">
<polygon fill="white" stroke="black" points="377.5,-273.5 377.5,-303.5 538.5,-303.5 538.5,-273.5 377.5,-273.5"/>
<text text-anchor="start" x="385.5" y="-291.5" font-family="Helvetica,sans-Serif" font-size="10.00">denoptim.ga.EAUtils.getSummary</text>
<text text-anchor="middle" x="458" y="-280.5" font-family="Helvetica,sans-Serif" font-size="10.00">Statistics</text>
</a>
</g>
</g>
<!-- Node8&#45;&gt;Node12 -->
<g id="edge14" class="edge">
<title>Node8&#45;&gt;Node12</title>
<path fill="none" stroke="midnightblue" d="M300.57,-240.52C322.48,-247.6 349.06,-256.1 373,-263.5 380.46,-265.81 388.31,-268.19 396.08,-270.53"/>
<polygon fill="midnightblue" stroke="midnightblue" points="395.28,-273.95 405.86,-273.47 397.29,-267.24 395.28,-273.95"/>
</g>
<!-- Node26 -->
<g id="node26" class="node">
<title>Node26</title>
<g id="a_node26"><a xlink:href="classdenoptim_1_1graph_1_1_candidate.html#a5c007ed1edb500326899f34540812fef" target="_top" xlink:title=" ">
<polygon fill="white" stroke="black" points="377.5,-235 377.5,-254 538.5,-254 538.5,-235 377.5,-235"/>
<text text-anchor="middle" x="458" y="-242" font-family="Helvetica,sans-Serif" font-size="10.00">denoptim.graph.Candidate.getUID</text>
</a>
</g>
</g>
<!-- Node8&#45;&gt;Node26 -->
<g id="edge36" class="edge">
<title>Node8&#45;&gt;Node26</title>
<path fill="none" stroke="midnightblue" d="M320.53,-231.7C335.39,-233.09 351.41,-234.59 367.07,-236.06"/>
<polygon fill="midnightblue" stroke="midnightblue" points="367,-239.57 377.29,-237.02 367.66,-232.6 367,-239.57"/>
</g>
<!-- Node27 -->
<g id="node27" class="node">
<title>Node27</title>
<g id="a_node27"><a xlink:href="classdenoptim_1_1io_1_1_denoptim_i_o.html#adc7de175de66792f4f37f1661c10e7f8" target="_top" xlink:title="Write text&#45;like data file.">
<polygon fill="white" stroke="black" points="376,-197 376,-216 540,-216 540,-197 376,-197"/>
<text text-anchor="middle" x="458" y="-204" font-family="Helvetica,sans-Serif" font-size="10.00">denoptim.io.DenoptimIO.writeData</text>
</a>
</g>
</g>
<!-- Node8&#45;&gt;Node27 -->
<g id="edge37" class="edge">
<title>Node8&#45;&gt;Node27</title>
<path fill="none" stroke="midnightblue" d="M320.53,-219.3C335.01,-217.95 350.6,-216.48 365.87,-215.05"/>
<polygon fill="midnightblue" stroke="midnightblue" points="366.22,-218.53 375.85,-214.11 365.57,-211.56 366.22,-218.53"/>
</g>
<!-- Node13 -->
<g id="node13" class="node">
<title>Node13</title>
<g id="a_node13"><a xlink:href="classdenoptim_1_1programs_1_1_run_time_parameters.html#a132443dda8e8278736100a7ff759f666" target="_top" xlink:title=" ">
<polygon fill="white" stroke="black" points="590.5,-521.5 590.5,-551.5 746.5,-551.5 746.5,-521.5 590.5,-521.5"/>
<text text-anchor="start" x="598.5" y="-539.5" font-family="Helvetica,sans-Serif" font-size="10.00">denoptim.programs.RunTime</text>
<text text-anchor="middle" x="668.5" y="-528.5" font-family="Helvetica,sans-Serif" font-size="10.00">Parameters.containsParameters</text>
</a>
</g>
</g>
<!-- Node12&#45;&gt;Node13 -->
<g id="edge15" class="edge">
<title>Node12&#45;&gt;Node13</title>
<path fill="none" stroke="midnightblue" d="M532.67,-303.7C536.45,-306.21 539.95,-309.13 543,-312.5 603.32,-379.13 518.58,-444.96 579,-511.5 580.18,-512.8 581.42,-514.03 582.72,-515.21"/>
<polygon fill="midnightblue" stroke="midnightblue" points="580.61,-518 590.69,-521.26 584.85,-512.43 580.61,-518"/>
</g>
<!-- Node14 -->
<g id="node14" class="node">
<title>Node14</title>
<g id="a_node14"><a xlink:href="classdenoptim_1_1ga_1_1_e_a_utils.html#aa9960d143f0848577aec0e8ee65deb12" target="_top" xlink:title="Get the fitness values for the list of molecules.">
<polygon fill="white" stroke="black" points="587,-483 587,-502 750,-502 750,-483 587,-483"/>
<text text-anchor="middle" x="668.5" y="-490" font-family="Helvetica,sans-Serif" font-size="10.00">denoptim.ga.EAUtils.getFitnesses</text>
</a>
</g>
</g>
<!-- Node12&#45;&gt;Node14 -->
<g id="edge16" class="edge">
<title>Node12&#45;&gt;Node14</title>
<path fill="none" stroke="midnightblue" d="M532.13,-303.6C536.1,-306.14 539.77,-309.08 543,-312.5 593.31,-365.84 526.93,-421.87 579,-473.5 580.3,-474.79 581.67,-476.01 583.1,-477.15"/>
<polygon fill="midnightblue" stroke="midnightblue" points="581.55,-480.32 591.83,-482.9 585.41,-474.48 581.55,-480.32"/>
</g>
<!-- Node15 -->
<g id="node15" class="node">
<title>Node15</title>
<g id="a_node15"><a xlink:href="classdenoptim_1_1fragspace_1_1_fragment_space_parameters.html#a93693af51412000689dc7517151b9a05" target="_top" xlink:title=" ">
<polygon fill="white" stroke="black" points="579,-433.5 579,-463.5 758,-463.5 758,-433.5 579,-433.5"/>
<text text-anchor="start" x="587" y="-451.5" font-family="Helvetica,sans-Serif" font-size="10.00">denoptim.fragspace.Fragment</text>
<text text-anchor="middle" x="668.5" y="-440.5" font-family="Helvetica,sans-Serif" font-size="10.00">SpaceParameters.getFragmentSpace</text>
</a>
</g>
</g>
<!-- Node12&#45;&gt;Node15 -->
<g id="edge17" class="edge">
<title>Node12&#45;&gt;Node15</title>
<path fill="none" stroke="midnightblue" d="M531.37,-303.73C535.58,-306.23 539.51,-309.13 543,-312.5 580.31,-348.52 541.63,-387.54 579,-423.5 580.51,-424.95 582.1,-426.32 583.75,-427.61"/>
<polygon fill="midnightblue" stroke="midnightblue" points="582.25,-430.82 592.51,-433.44 586.12,-424.99 582.25,-430.82"/>
</g>
<!-- Node16 -->
<g id="node16" class="node">
<title>Node16</title>
<g id="a_node16"><a xlink:href="classdenoptim_1_1programs_1_1_run_time_parameters.html#a4da800dd8e739b91dbf8b4b960ee2e51" target="_top" xlink:title=" ">
<polygon fill="white" stroke="black" points="598.5,-384.5 598.5,-414.5 738.5,-414.5 738.5,-384.5 598.5,-384.5"/>
<text text-anchor="start" x="606.5" y="-402.5" font-family="Helvetica,sans-Serif" font-size="10.00">denoptim.programs.RunTime</text>
<text text-anchor="middle" x="668.5" y="-391.5" font-family="Helvetica,sans-Serif" font-size="10.00">Parameters.getParameters</text>
</a>
</g>
</g>
<!-- Node12&#45;&gt;Node16 -->
<g id="edge18" class="edge">
<title>Node12&#45;&gt;Node16</title>
<path fill="none" stroke="midnightblue" d="M528.52,-303.57C533.67,-306.1 538.57,-309.05 543,-312.5 568.14,-332.07 553.83,-354.96 579,-374.5 582.17,-376.96 585.58,-379.18 589.14,-381.18"/>
<polygon fill="midnightblue" stroke="midnightblue" points="587.75,-384.4 598.26,-385.72 590.86,-378.13 587.75,-384.4"/>
</g>
<!-- Node17 -->
<g id="node17" class="node">
<title>Node17</title>
<g id="a_node17"><a xlink:href="classdenoptim_1_1programs_1_1denovo_1_1_g_a_parameters.html#a2e544172988f30a190ef37cceb09fbfc" target="_top" xlink:title=" ">
<polygon fill="white" stroke="black" points="588,-335.5 588,-365.5 749,-365.5 749,-335.5 588,-335.5"/>
<text text-anchor="start" x="596" y="-353.5" font-family="Helvetica,sans-Serif" font-size="10.00">denoptim.programs.denovo.</text>
<text text-anchor="middle" x="668.5" y="-342.5" font-family="Helvetica,sans-Serif" font-size="10.00">GAParameters.getPrecisionLevel</text>
</a>
</g>
</g>
<!-- Node12&#45;&gt;Node17 -->
<g id="edge19" class="edge">
<title>Node12&#45;&gt;Node17</title>
<path fill="none" stroke="midnightblue" d="M513.84,-303.58C523.59,-306.43 533.62,-309.47 543,-312.5 559.19,-317.73 562.8,-320.3 579,-325.5 586.37,-327.87 594.13,-330.24 601.86,-332.52"/>
<polygon fill="midnightblue" stroke="midnightblue" points="601.03,-335.93 611.61,-335.36 602.99,-329.21 601.03,-335.93"/>
</g>
<!-- Node18 -->
<g id="node18" class="node">
<title>Node18</title>
<g id="a_node18"><a xlink:href="classdenoptim_1_1utils_1_1_stat_utils.html#abd3508ae7b87a92f819db91a0dd70dcb" target="_top" xlink:title="Returns the maximum value among the numbers .">
<polygon fill="white" stroke="black" points="600,-279 600,-298 737,-298 737,-279 600,-279"/>
<text text-anchor="middle" x="668.5" y="-286" font-family="Helvetica,sans-Serif" font-size="10.00">denoptim.utils.StatUtils.max</text>
</a>
</g>
</g>
<!-- Node12&#45;&gt;Node18 -->
<g id="edge20" class="edge">
<title>Node12&#45;&gt;Node18</title>
<path fill="none" stroke="midnightblue" d="M538.72,-288.5C555.38,-288.5 572.92,-288.5 589.52,-288.5"/>
<polygon fill="midnightblue" stroke="midnightblue" points="589.72,-292 599.72,-288.5 589.72,-285 589.72,-292"/>
</g>
<!-- Node19 -->
<g id="node19" class="node">
<title>Node19</title>
<g id="a_node19"><a xlink:href="classdenoptim_1_1utils_1_1_stat_utils.html#a12ae258bebe1f3568dabdd606edd3d56" target="_top" xlink:title="Returns the mean number in the numbers list.">
<polygon fill="white" stroke="black" points="1148,-203 1148,-222 1291,-222 1291,-203 1148,-203"/>
<text text-anchor="middle" x="1219.5" y="-210" font-family="Helvetica,sans-Serif" font-size="10.00">denoptim.utils.StatUtils.mean</text>
</a>
</g>
</g>
<!-- Node12&#45;&gt;Node19 -->
<g id="edge22" class="edge">
<title>Node12&#45;&gt;Node19</title>
<path fill="none" stroke="midnightblue" d="M538.6,-275.02C552.06,-272.99 565.91,-271.06 579,-269.5 814.98,-241.34 875.67,-251.55 1112,-226.5 1121.06,-225.54 1130.53,-224.44 1139.94,-223.28"/>
<polygon fill="midnightblue" stroke="midnightblue" points="1140.61,-226.72 1150.1,-222.01 1139.74,-219.78 1140.61,-226.72"/>
</g>
<!-- Node21 -->
<g id="node21" class="node">
<title>Node21</title>
<g id="a_node21"><a xlink:href="classdenoptim_1_1utils_1_1_stat_utils.html#a68460a326762f6b16aca2c3380525c35" target="_top" xlink:title="Calculates median value of a sorted list.">
<polygon fill="white" stroke="black" points="593,-127 593,-146 744,-146 744,-127 593,-127"/>
<text text-anchor="middle" x="668.5" y="-134" font-family="Helvetica,sans-Serif" font-size="10.00">denoptim.utils.StatUtils.median</text>
</a>
</g>
</g>
<!-- Node12&#45;&gt;Node21 -->
<g id="edge25" class="edge">
<title>Node12&#45;&gt;Node21</title>
<path fill="none" stroke="midnightblue" d="M529.3,-273.45C534.28,-270.67 538.93,-267.39 543,-263.5 578.09,-230.02 543.51,-193.54 579,-160.5 583.33,-156.47 588.27,-153.1 593.54,-150.29"/>
<polygon fill="midnightblue" stroke="midnightblue" points="595.08,-153.44 602.7,-146.07 592.15,-147.08 595.08,-153.44"/>
</g>
<!-- Node22 -->
<g id="node22" class="node">
<title>Node22</title>
<g id="a_node22"><a xlink:href="classdenoptim_1_1utils_1_1_stat_utils.html#aad3c103a99a3c3110108f6dd7d1922ff" target="_top" xlink:title="Returns the minimum value among the numbers .">
<polygon fill="white" stroke="black" points="601,-71 601,-90 736,-90 736,-71 601,-71"/>
<text text-anchor="middle" x="668.5" y="-78" font-family="Helvetica,sans-Serif" font-size="10.00">denoptim.utils.StatUtils.min</text>
</a>
</g>
</g>
<!-- Node12&#45;&gt;Node22 -->
<g id="edge26" class="edge">
<title>Node12&#45;&gt;Node22</title>
<path fill="none" stroke="midnightblue" d="M530.5,-273.39C535.08,-270.62 539.32,-267.35 543,-263.5 589.12,-215.13 535.52,-168.26 579,-117.5 588.15,-106.81 600.91,-99.15 613.88,-93.68"/>
<polygon fill="midnightblue" stroke="midnightblue" points="615.23,-96.91 623.32,-90.07 612.73,-90.37 615.23,-96.91"/>
</g>
<!-- Node23 -->
<g id="node23" class="node">
<title>Node23</title>
<g id="a_node23"><a xlink:href="classdenoptim_1_1utils_1_1_stat_utils.html#a42a83457989ab54a4cbb808fbca8ee1f" target="_top" xlink:title="Computes the skewness of the available values.">
<polygon fill="white" stroke="black" points="586.5,-203 586.5,-222 750.5,-222 750.5,-203 586.5,-203"/>
<text text-anchor="middle" x="668.5" y="-210" font-family="Helvetica,sans-Serif" font-size="10.00">denoptim.utils.StatUtils.skewness</text>
</a>
</g>
</g>
<!-- Node12&#45;&gt;Node23 -->
<g id="edge28" class="edge">
<title>Node12&#45;&gt;Node23</title>
<path fill="none" stroke="midnightblue" d="M519.21,-273.43C527.39,-270.56 535.53,-267.26 543,-263.5 560.86,-254.51 561.03,-245.27 579,-236.5 588.54,-231.84 599.12,-227.98 609.54,-224.82"/>
<polygon fill="midnightblue" stroke="midnightblue" points="610.79,-228.11 619.45,-222 608.87,-221.37 610.79,-228.11"/>
</g>
<!-- Node24 -->
<g id="node24" class="node">
<title>Node24</title>
<g id="a_node24"><a xlink:href="classdenoptim_1_1utils_1_1_stat_utils.html#a31cf5dc53af191a60dbcdba3b1f9da6b" target="_top" xlink:title="Returns the standard deviation of the numbers.">
<polygon fill="white" stroke="black" points="794,-147 794,-166 943,-166 943,-147 794,-147"/>
<text text-anchor="middle" x="868.5" y="-154" font-family="Helvetica,sans-Serif" font-size="10.00">denoptim.utils.StatUtils.stddev</text>
</a>
</g>
</g>
<!-- Node12&#45;&gt;Node24 -->
<g id="edge35" class="edge">
<title>Node12&#45;&gt;Node24</title>
<path fill="none" stroke="midnightblue" d="M527.48,-273.44C533.04,-270.67 538.32,-267.39 543,-263.5 569.93,-241.16 550.36,-213.59 579,-193.5 611.13,-170.96 710.6,-162.15 783.8,-158.71"/>
<polygon fill="midnightblue" stroke="midnightblue" points="784.11,-162.2 793.94,-158.26 783.79,-155.21 784.11,-162.2"/>
</g>
<!-- Node18&#45;&gt;Node18 -->
<g id="edge21" class="edge">
<title>Node18&#45;&gt;Node18</title>
<path fill="none" stroke="midnightblue" d="M637.67,-298.26C622.68,-307.07 632.95,-316.5 668.5,-316.5 693.49,-316.5 705.99,-311.84 706,-306"/>
<polygon fill="midnightblue" stroke="midnightblue" points="708.5,-303.55 699.33,-298.26 703.2,-308.12 708.5,-303.55"/>
</g>
<!-- Node20 -->
<g id="node20" class="node">
<title>Node20</title>
<g id="a_node20"><a xlink:href="classdenoptim_1_1utils_1_1_stat_utils.html#a181673167433cb8ad256d0295d76c29f" target="_top" xlink:title="Returns the sum number in the numbers list.">
<polygon fill="white" stroke="black" points="1327,-184 1327,-203 1465,-203 1465,-184 1327,-184"/>
<text text-anchor="middle" x="1396" y="-191" font-family="Helvetica,sans-Serif" font-size="10.00">denoptim.utils.StatUtils.sum</text>
</a>
</g>
</g>
<!-- Node19&#45;&gt;Node20 -->
<g id="edge23" class="edge">
<title>Node19&#45;&gt;Node20</title>
<path fill="none" stroke="midnightblue" d="M1291.22,-204.8C1299.55,-203.89 1308.09,-202.96 1316.52,-202.05"/>
<polygon fill="midnightblue" stroke="midnightblue" points="1317.16,-205.5 1326.72,-200.93 1316.4,-198.54 1317.16,-205.5"/>
</g>
<!-- Node20&#45;&gt;Node20 -->
<g id="edge24" class="edge">
<title>Node20&#45;&gt;Node20</title>
<path fill="none" stroke="midnightblue" d="M1368.87,-203.26C1355.68,-212.07 1364.72,-221.5 1396,-221.5 1417.51,-221.5 1428.5,-217.04 1428.98,-211.39"/>
<polygon fill="midnightblue" stroke="midnightblue" points="1431.81,-209.33 1423.13,-203.26 1426.13,-213.42 1431.81,-209.33"/>
</g>
<!-- Node22&#45;&gt;Node22 -->
<g id="edge27" class="edge">
<title>Node22&#45;&gt;Node22</title>
<path fill="none" stroke="midnightblue" d="M637.67,-90.26C622.68,-99.07 632.95,-108.5 668.5,-108.5 693.49,-108.5 705.99,-103.84 706,-98"/>
<polygon fill="midnightblue" stroke="midnightblue" points="708.5,-95.55 699.33,-90.26 703.2,-100.12 708.5,-95.55"/>
</g>
<!-- Node23&#45;&gt;Node19 -->
<g id="edge29" class="edge">
<title>Node23&#45;&gt;Node19</title>
<path fill="none" stroke="midnightblue" d="M750.51,-212.5C854.42,-212.5 1033.61,-212.5 1137.52,-212.5"/>
<polygon fill="midnightblue" stroke="midnightblue" points="1137.64,-216 1147.64,-212.5 1137.64,-209 1137.64,-216"/>
</g>
<!-- Node23&#45;&gt;Node24 -->
<g id="edge30" class="edge">
<title>Node23&#45;&gt;Node24</title>
<path fill="none" stroke="midnightblue" d="M705.28,-202.97C721.41,-198.63 740.68,-193.38 758,-188.5 780.44,-182.18 805.4,-174.9 825.82,-168.89"/>
<polygon fill="midnightblue" stroke="midnightblue" points="826.85,-172.23 835.45,-166.05 824.86,-165.52 826.85,-172.23"/>
</g>
<!-- Node24&#45;&gt;Node24 -->
<g id="edge31" class="edge">
<title>Node24&#45;&gt;Node24</title>
<path fill="none" stroke="midnightblue" d="M841.37,-166.26C828.18,-175.07 837.22,-184.5 868.5,-184.5 890.01,-184.5 901,-180.04 901.48,-174.39"/>
<polygon fill="midnightblue" stroke="midnightblue" points="904.31,-172.33 895.63,-166.26 898.63,-176.42 904.31,-172.33"/>
</g>
<!-- Node25 -->
<g id="node25" class="node">
<title>Node25</title>
<g id="a_node25"><a xlink:href="classdenoptim_1_1utils_1_1_stat_utils.html#aac6cf70b1516266ef3e845d5ad4633f5" target="_top" xlink:title="Computes the variance of the available values.">
<polygon fill="white" stroke="black" points="979,-165 979,-184 1112,-184 1112,-165 979,-165"/>
<text text-anchor="middle" x="1045.5" y="-172" font-family="Helvetica,sans-Serif" font-size="10.00">denoptim.utils.StatUtils.var</text>
</a>
</g>
</g>
<!-- Node24&#45;&gt;Node25 -->
<g id="edge32" class="edge">
<title>Node24&#45;&gt;Node25</title>
<path fill="none" stroke="midnightblue" d="M943.21,-164.08C951.64,-164.95 960.25,-165.83 968.71,-166.7"/>
<polygon fill="midnightblue" stroke="midnightblue" points="968.63,-170.21 978.94,-167.76 969.35,-163.25 968.63,-170.21"/>
</g>
<!-- Node25&#45;&gt;Node19 -->
<g id="edge33" class="edge">
<title>Node25&#45;&gt;Node19</title>
<path fill="none" stroke="midnightblue" d="M1089.9,-184.09C1112.91,-189.17 1141.35,-195.46 1165.63,-200.82"/>
<polygon fill="midnightblue" stroke="midnightblue" points="1164.89,-204.24 1175.41,-202.98 1166.4,-197.41 1164.89,-204.24"/>
</g>
<!-- Node25&#45;&gt;Node20 -->
<g id="edge34" class="edge">
<title>Node25&#45;&gt;Node20</title>
<path fill="none" stroke="midnightblue" d="M1112.05,-178.07C1170.14,-181.24 1255.06,-185.87 1316.7,-189.23"/>
<polygon fill="midnightblue" stroke="midnightblue" points="1316.59,-192.73 1326.77,-189.78 1316.97,-185.74 1316.59,-192.73"/>
</g>
</g>
</svg>
        <g id="navigator" transform="translate(0 0)" fill="#404254">
                <rect fill="#f2f5e9" fill-opacity="0.5" stroke="#606060" stroke-width=".5" x="0" y="0" width="60" height="60"/>
                <use id="zoomplus" xlink:href="#zoomPlus" x="17" y="9" onmousedown="handleZoom(evt,'in')"/>
                <use id="zoomminus" xlink:href="#zoomMin" x="42" y="9" onmousedown="handleZoom(evt,'out')"/>
                <use id="reset" xlink:href="#resetDef" x="30" y="36" onmousedown="handleReset()"/>
                <g id="arrowUp" xlink:href="#dirArrow" transform="translate(30 24)" onmousedown="handlePan(0,-1)">
                  <use xlink:href="#rim" fill="#404040">
                        <set attributeName="fill" to="#808080" begin="arrowUp.mouseover" end="arrowUp.mouseout"/>
                  </use>
                  <path fill="none" stroke="white" stroke-width="1.5" d="M0,-3.0v7 M-2.5,-0.5L0,-3.0L2.5,-0.5"/>
                </g>
                <g id="arrowRight" xlink:href="#dirArrow" transform="rotate(90) translate(36 -43)" onmousedown="handlePan(1,0)">
                  <use xlink:href="#rim" fill="#404040">
                        <set attributeName="fill" to="#808080" begin="arrowRight.mouseover" end="arrowRight.mouseout"/>
                  </use>
                  <path fill="none" stroke="white" stroke-width="1.5" d="M0,-3.0v7 M-2.5,-0.5L0,-3.0L2.5,-0.5"/>
                </g>
                <g id="arrowDown" xlink:href="#dirArrow" transform="rotate(180) translate(-30 -48)" onmousedown="handlePan(0,1)">
                  <use xlink:href="#rim" fill="#404040">
                        <set attributeName="fill" to="#808080" begin="arrowDown.mouseover" end="arrowDown.mouseout"/>
                  </use>
                  <path fill="none" stroke="white" stroke-width="1.5" d="M0,-3.0v7 M-2.5,-0.5L0,-3.0L2.5,-0.5"/>
                </g>
                <g id="arrowLeft" xlink:href="#dirArrow" transform="rotate(270) translate(-36 17)" onmousedown="handlePan(-1,0)">
                  <use xlink:href="#rim" fill="#404040">
                        <set attributeName="fill" to="#808080" begin="arrowLeft.mouseover" end="arrowLeft.mouseout"/>
                  </use>
                  <path fill="none" stroke="white" stroke-width="1.5" d="M0,-3.0v7 M-2.5,-0.5L0,-3.0L2.5,-0.5"/>
                </g>
        </g>
        <svg viewBox="0 0 15 15" width="100%" height="30px" preserveAspectRatio="xMaxYMin meet">
         <g id="arrow_out" transform="scale(0.3 0.3)">
          <a xlink:href="classdenoptim_1_1ga_1_1_e_a_utils_a01ee989f992e0cff04e3498b63d6c0b0_cgraph_org.svg" target="_base">
           <rect id="button" ry="5" rx="5" y="6" x="6" height="38" width="38"
                fill="#f2f5e9" fill-opacity="0.5" stroke="#606060" stroke-width="1.0"/>
           <path id="arrow"
             d="M 11.500037,31.436501 C 11.940474,20.09759 22.043105,11.32322 32.158766,21.979434 L 37.068811,17.246167 C 37.068811,17.246167 37.088388,32 37.088388,32 L 22.160133,31.978069 C 22.160133,31.978069 26.997745,27.140456 26.997745,27.140456 C 18.528582,18.264221 13.291696,25.230495 11.500037,31.436501 z"
             style="fill:#404040;"/>
          </a>
         </g>
        </svg>
</svg>
