<?xml version="1.0" encoding="UTF-8" standalone="no"?>
<!DOCTYPE svg PUBLIC "-//W3C//DTD SVG 1.1//EN"
 "http://www.w3.org/Graphics/SVG/1.1/DTD/svg11.dtd">
<!-- Generated by graphviz version 3.0.0 (20220413.0242)
 -->
<!-- Title: denoptim.graph.Fragment.Fragment Pages: 1 -->
<svg width="1153pt" height="490pt"
 viewBox="0.00 0.00 1153.00 490.00" xmlns="http://www.w3.org/2000/svg" xmlns:xlink="http://www.w3.org/1999/xlink">
<g id="graph0" class="graph" transform="scale(1 1) rotate(0) translate(4 486)">
<title>denoptim.graph.Fragment.Fragment</title>
<polygon fill="white" stroke="transparent" points="-4,4 -4,-486 1149,-486 1149,4 -4,4"/>
<!-- Node1 -->
<g id="node1" class="node">
<title>Node1</title>
<g id="a_node1"><a xlink:title="Constructor of an empty fragment.">
<polygon fill="#bfbfbf" stroke="black" points="1017,-149.5 1017,-179.5 1145,-179.5 1145,-149.5 1017,-149.5"/>
<text text-anchor="start" x="1025" y="-167.5" font-family="Helvetica,sans-Serif" font-size="10.00">denoptim.graph.Fragment.</text>
<text text-anchor="middle" x="1081" y="-156.5" font-family="Helvetica,sans-Serif" font-size="10.00">Fragment</text>
</a>
</g>
</g>
<!-- Node2 -->
<g id="node2" class="node">
<title>Node2</title>
<g id="a_node2"><a xlink:href="classdenoptim_1_1graph_1_1_fragment.html#a3b476687a392e637d2bf2f3b6ccb09a4" target="_top" xlink:title="Returns a deep copy of this fragments.">
<polygon fill="white" stroke="black" points="829,-256 829,-275 981,-275 981,-256 829,-256"/>
<text text-anchor="middle" x="905" y="-263" font-family="Helvetica,sans-Serif" font-size="10.00">denoptim.graph.Fragment.clone</text>
</a>
</g>
</g>
<!-- Node1&#45;&gt;Node2 -->
<g id="edge1" class="edge">
<title>Node1&#45;&gt;Node2</title>
<path fill="none" stroke="midnightblue" d="M1044.97,-184.83C1007.86,-206.37 950.82,-239.48 922.77,-255.77"/>
<polygon fill="midnightblue" stroke="midnightblue" points="1047.06,-187.67 1053.95,-179.62 1043.54,-181.61 1047.06,-187.67"/>
</g>
<!-- Node17 -->
<g id="node17" class="node">
<title>Node17</title>
<g id="a_node17"><a xlink:href="classdenoptim_1_1graph_1_1_fragment.html#a6137d8c74ece46574e14b9a3cd02d00d" target="_top" xlink:title="Checks for isomorphism of the graph representation of this and another fragment.">
<polygon fill="white" stroke="black" points="837,-49.5 837,-79.5 973,-79.5 973,-49.5 837,-49.5"/>
<text text-anchor="start" x="845" y="-67.5" font-family="Helvetica,sans-Serif" font-size="10.00">denoptim.graph.Fragment.is</text>
<text text-anchor="middle" x="905" y="-56.5" font-family="Helvetica,sans-Serif" font-size="10.00">IsomorphicTo</text>
</a>
</g>
</g>
<!-- Node1&#45;&gt;Node17 -->
<g id="edge18" class="edge">
<title>Node1&#45;&gt;Node17</title>
<path fill="none" stroke="midnightblue" d="M1044.61,-144.16C1011.25,-124.99 962.04,-96.7 932.11,-79.5"/>
<polygon fill="midnightblue" stroke="midnightblue" points="1043.16,-147.36 1053.57,-149.31 1046.65,-141.29 1043.16,-147.36"/>
</g>
<!-- Node2&#45;&gt;Node2 -->
<g id="edge2" class="edge">
<title>Node2&#45;&gt;Node2</title>
<path fill="none" stroke="midnightblue" d="M937.98,-283.39C937.5,-289.04 926.51,-293.5 905,-293.5 873.72,-293.5 864.68,-284.07 877.87,-275.26"/>
<polygon fill="midnightblue" stroke="midnightblue" points="940.81,-281.33 932.13,-275.26 935.13,-285.42 940.81,-281.33"/>
</g>
<!-- Node3 -->
<g id="node3" class="node">
<title>Node3</title>
<g id="a_node3"><a xlink:href="classdenoptim_1_1fragmenter_1_1_fragmenter_tools.html#aebc1d42a9a2b8aae1e5030a1ba78a0b7" target="_top" xlink:title="Chops one chemical structure by applying the given cutting rules.">
<polygon fill="white" stroke="black" points="617.5,-451.5 617.5,-481.5 774.5,-481.5 774.5,-451.5 617.5,-451.5"/>
<text text-anchor="start" x="625.5" y="-469.5" font-family="Helvetica,sans-Serif" font-size="10.00">denoptim.fragmenter.Fragmenter</text>
<text text-anchor="middle" x="696" y="-458.5" font-family="Helvetica,sans-Serif" font-size="10.00">Tools.fragmentation</text>
</a>
</g>
</g>
<!-- Node2&#45;&gt;Node3 -->
<g id="edge3" class="edge">
<title>Node2&#45;&gt;Node3</title>
<path fill="none" stroke="midnightblue" d="M897.36,-284.78C883.77,-321.25 849.26,-400.35 793,-441.5 787.44,-445.57 781.27,-448.97 774.83,-451.83"/>
<polygon fill="midnightblue" stroke="midnightblue" points="900.67,-285.9 900.77,-275.3 894.09,-283.53 900.67,-285.9"/>
</g>
<!-- Node4 -->
<g id="node4" class="node">
<title>Node4</title>
<g id="a_node4"><a xlink:href="classdenoptim_1_1fragmenter_1_1_clusterable_fragment.html#a1e02c5f6054d5764ff597bd12337345a" target="_top" xlink:title=" ">
<polygon fill="white" stroke="black" points="618,-402.5 618,-432.5 774,-432.5 774,-402.5 618,-402.5"/>
<text text-anchor="start" x="626" y="-420.5" font-family="Helvetica,sans-Serif" font-size="10.00">denoptim.fragmenter.Clusterable</text>
<text text-anchor="middle" x="696" y="-409.5" font-family="Helvetica,sans-Serif" font-size="10.00">Fragment.getTransformedCopy</text>
</a>
</g>
</g>
<!-- Node2&#45;&gt;Node4 -->
<g id="edge4" class="edge">
<title>Node2&#45;&gt;Node4</title>
<path fill="none" stroke="midnightblue" d="M893.04,-283.95C875.51,-311.83 838.45,-364.4 793,-392.5 786.7,-396.39 779.81,-399.68 772.7,-402.47"/>
<polygon fill="midnightblue" stroke="midnightblue" points="896.16,-285.56 898.41,-275.2 890.2,-281.9 896.16,-285.56"/>
</g>
<!-- Node11 -->
<g id="node11" class="node">
<title>Node11</title>
<g id="a_node11"><a xlink:href="classdenoptim_1_1graph_1_1_fragment_test.html#a0a98792d99861bb6673e66a76ff49d31" target="_top" xlink:title=" ">
<polygon fill="white" stroke="black" points="614,-353.5 614,-383.5 778,-383.5 778,-353.5 614,-353.5"/>
<text text-anchor="start" x="622" y="-371.5" font-family="Helvetica,sans-Serif" font-size="10.00">denoptim.graph.FragmentTest.test</text>
<text text-anchor="middle" x="696" y="-360.5" font-family="Helvetica,sans-Serif" font-size="10.00">Clone</text>
</a>
</g>
</g>
<!-- Node2&#45;&gt;Node11 -->
<g id="edge12" class="edge">
<title>Node2&#45;&gt;Node11</title>
<path fill="none" stroke="midnightblue" d="M885.35,-281.8C864.29,-299.41 828.32,-327.15 793,-343.5 784.8,-347.3 775.92,-350.59 766.99,-353.43"/>
<polygon fill="midnightblue" stroke="midnightblue" points="887.82,-284.29 893.17,-275.15 883.28,-278.96 887.82,-284.29"/>
</g>
<!-- Node12 -->
<g id="node12" class="node">
<title>Node12</title>
<g id="a_node12"><a xlink:href="classdenoptim_1_1graph_1_1_vertex_test.html#ab36c441c57e9852e2be6d810d80fbc87" target="_top" xlink:title=" ">
<polygon fill="white" stroke="black" points="620.5,-304.5 620.5,-334.5 771.5,-334.5 771.5,-304.5 620.5,-304.5"/>
<text text-anchor="start" x="628.5" y="-322.5" font-family="Helvetica,sans-Serif" font-size="10.00">denoptim.graph.VertexTest.test</text>
<text text-anchor="middle" x="696" y="-311.5" font-family="Helvetica,sans-Serif" font-size="10.00">Clone</text>
</a>
</g>
</g>
<!-- Node2&#45;&gt;Node12 -->
<g id="edge13" class="edge">
<title>Node2&#45;&gt;Node12</title>
<path fill="none" stroke="midnightblue" d="M859.18,-277.82C838.98,-283.32 814.82,-289.83 793,-295.5 781.69,-298.44 769.62,-301.51 757.99,-304.44"/>
<polygon fill="midnightblue" stroke="midnightblue" points="860.32,-281.14 869.05,-275.13 858.48,-274.38 860.32,-281.14"/>
</g>
<!-- Node13 -->
<g id="node13" class="node">
<title>Node13</title>
<g id="a_node13"><a xlink:href="classdenoptim_1_1fragmenter_1_1_conformer_extractor_task_test.html#a2dc64f375774087fc0b4511384f50bc9" target="_top" xlink:title=" ">
<polygon fill="white" stroke="black" points="599,-245 599,-286 793,-286 793,-245 599,-245"/>
<text text-anchor="start" x="607" y="-274" font-family="Helvetica,sans-Serif" font-size="10.00">denoptim.fragmenter.Conformer</text>
<text text-anchor="start" x="607" y="-263" font-family="Helvetica,sans-Serif" font-size="10.00">ExtractorTaskTest.testExtractClusterable</text>
<text text-anchor="middle" x="696" y="-252" font-family="Helvetica,sans-Serif" font-size="10.00">Fragments</text>
</a>
</g>
</g>
<!-- Node2&#45;&gt;Node13 -->
<g id="edge14" class="edge">
<title>Node2&#45;&gt;Node13</title>
<path fill="none" stroke="midnightblue" d="M818.73,-265.5C810.24,-265.5 801.59,-265.5 793,-265.5"/>
<polygon fill="midnightblue" stroke="midnightblue" points="818.98,-269 828.98,-265.5 818.98,-262 818.98,-269"/>
</g>
<!-- Node14 -->
<g id="node14" class="node">
<title>Node14</title>
<g id="a_node14"><a xlink:href="classdenoptim_1_1fragmenter_1_1_fragment_alignement_test.html#ad46b9a4324bb5b9bbfc08c73de0e1124" target="_top" xlink:title=" ">
<polygon fill="white" stroke="black" points="602,-196.5 602,-226.5 790,-226.5 790,-196.5 602,-196.5"/>
<text text-anchor="start" x="610" y="-214.5" font-family="Helvetica,sans-Serif" font-size="10.00">denoptim.fragmenter.Fragment</text>
<text text-anchor="middle" x="696" y="-203.5" font-family="Helvetica,sans-Serif" font-size="10.00">AlignementTest.testGetMinimumRMSD</text>
</a>
</g>
</g>
<!-- Node2&#45;&gt;Node14 -->
<g id="edge15" class="edge">
<title>Node2&#45;&gt;Node14</title>
<path fill="none" stroke="midnightblue" d="M859.18,-253.18C838.98,-247.68 814.82,-241.17 793,-235.5 781.69,-232.56 769.62,-229.49 757.99,-226.56"/>
<polygon fill="midnightblue" stroke="midnightblue" points="858.48,-256.62 869.05,-255.87 860.32,-249.86 858.48,-256.62"/>
</g>
<!-- Node15 -->
<g id="node15" class="node">
<title>Node15</title>
<g id="a_node15"><a xlink:href="classdenoptim_1_1graph_1_1_attachment_point_test.html#af88d30ce68477984fe6179325d1540b2" target="_top" xlink:title=" ">
<polygon fill="white" stroke="black" points="606,-147.5 606,-177.5 786,-177.5 786,-147.5 606,-147.5"/>
<text text-anchor="start" x="614" y="-165.5" font-family="Helvetica,sans-Serif" font-size="10.00">denoptim.graph.Attachment</text>
<text text-anchor="middle" x="696" y="-154.5" font-family="Helvetica,sans-Serif" font-size="10.00">PointTest.testHasConnectedSrcAtom</text>
</a>
</g>
</g>
<!-- Node2&#45;&gt;Node15 -->
<g id="edge16" class="edge">
<title>Node2&#45;&gt;Node15</title>
<path fill="none" stroke="midnightblue" d="M885.75,-249.2C864.8,-231.31 828.69,-202.94 793,-186.5 785.59,-183.09 777.62,-180.11 769.56,-177.53"/>
<polygon fill="midnightblue" stroke="midnightblue" points="883.67,-252.03 893.51,-255.94 888.26,-246.74 883.67,-252.03"/>
</g>
<!-- Node16 -->
<g id="node16" class="node">
<title>Node16</title>
<g id="a_node16"><a xlink:href="classdenoptim_1_1graph_1_1_attachment_point_test.html#a4889032266eb87d0f91af8b4e9869360" target="_top" xlink:title=" ">
<polygon fill="white" stroke="black" points="616.5,-98.5 616.5,-128.5 775.5,-128.5 775.5,-98.5 616.5,-98.5"/>
<text text-anchor="start" x="624.5" y="-116.5" font-family="Helvetica,sans-Serif" font-size="10.00">denoptim.graph.Attachment</text>
<text text-anchor="middle" x="696" y="-105.5" font-family="Helvetica,sans-Serif" font-size="10.00">PointTest.testHasSameSrcAtom</text>
</a>
</g>
</g>
<!-- Node2&#45;&gt;Node16 -->
<g id="edge17" class="edge">
<title>Node2&#45;&gt;Node16</title>
<path fill="none" stroke="midnightblue" d="M893.11,-246.84C875.67,-218.67 838.74,-165.59 793,-137.5 787.44,-134.08 781.41,-131.15 775.18,-128.64"/>
<polygon fill="midnightblue" stroke="midnightblue" points="890.29,-248.94 898.45,-255.69 896.28,-245.32 890.29,-248.94"/>
</g>
<!-- Node5 -->
<g id="node5" class="node">
<title>Node5</title>
<g id="a_node5"><a xlink:href="classdenoptim_1_1fragmenter_1_1_fragment_clusterer.html#a1845241fead0bee7fd92feaf6d71e331" target="_top" xlink:title="Once the clustering is done, this method return the list of cluster centroids.">
<polygon fill="white" stroke="black" points="394,-402.5 394,-432.5 543,-432.5 543,-402.5 394,-402.5"/>
<text text-anchor="start" x="402" y="-420.5" font-family="Helvetica,sans-Serif" font-size="10.00">denoptim.fragmenter.Fragment</text>
<text text-anchor="middle" x="468.5" y="-409.5" font-family="Helvetica,sans-Serif" font-size="10.00">Clusterer.getClusterCentroids</text>
</a>
</g>
</g>
<!-- Node4&#45;&gt;Node5 -->
<g id="edge5" class="edge">
<title>Node4&#45;&gt;Node5</title>
<path fill="none" stroke="midnightblue" d="M607.71,-417.5C586.42,-417.5 563.85,-417.5 543.26,-417.5"/>
<polygon fill="midnightblue" stroke="midnightblue" points="607.71,-421 617.71,-417.5 607.71,-414 607.71,-421"/>
</g>
<!-- Node9 -->
<g id="node9" class="node">
<title>Node9</title>
<g id="a_node9"><a xlink:href="classdenoptim_1_1fragmenter_1_1_fragment_clusterer.html#aae37739ae959ab8a85bf01286c5a518e" target="_top" xlink:title="Once the clustering is done, this method return the list of fragments that are nearest to the respect...">
<polygon fill="white" stroke="black" points="374,-451.5 374,-481.5 563,-481.5 563,-451.5 374,-451.5"/>
<text text-anchor="start" x="382" y="-469.5" font-family="Helvetica,sans-Serif" font-size="10.00">denoptim.fragmenter.Fragment</text>
<text text-anchor="middle" x="468.5" y="-458.5" font-family="Helvetica,sans-Serif" font-size="10.00">Clusterer.getNearestToClusterCentroids</text>
</a>
</g>
</g>
<!-- Node4&#45;&gt;Node9 -->
<g id="edge9" class="edge">
<title>Node4&#45;&gt;Node9</title>
<path fill="none" stroke="midnightblue" d="M615.91,-434.69C590.7,-440.16 563.01,-446.18 538.56,-451.49"/>
<polygon fill="midnightblue" stroke="midnightblue" points="616.78,-438.08 625.81,-432.53 615.29,-431.24 616.78,-438.08"/>
</g>
<!-- Node10 -->
<g id="node10" class="node">
<title>Node10</title>
<g id="a_node10"><a xlink:href="classdenoptim_1_1fragmenter_1_1_clusterable_fragment_test.html#a30be40702849bf4781129bf3dabf88e8" target="_top" xlink:title=" ">
<polygon fill="white" stroke="black" points="374.5,-353.5 374.5,-383.5 562.5,-383.5 562.5,-353.5 374.5,-353.5"/>
<text text-anchor="start" x="382.5" y="-371.5" font-family="Helvetica,sans-Serif" font-size="10.00">denoptim.fragmenter.Clusterable</text>
<text text-anchor="middle" x="468.5" y="-360.5" font-family="Helvetica,sans-Serif" font-size="10.00">FragmentTest.testGetTransformedCopy</text>
</a>
</g>
</g>
<!-- Node4&#45;&gt;Node10 -->
<g id="edge11" class="edge">
<title>Node4&#45;&gt;Node10</title>
<path fill="none" stroke="midnightblue" d="M615.91,-400.31C590.7,-394.84 563.01,-388.82 538.56,-383.51"/>
<polygon fill="midnightblue" stroke="midnightblue" points="615.29,-403.76 625.81,-402.47 616.78,-396.92 615.29,-403.76"/>
</g>
<!-- Node6 -->
<g id="node6" class="node">
<title>Node6</title>
<g id="a_node6"><a xlink:href="classdenoptim_1_1fragmenter_1_1_conformer_extractor_task.html#aa21ebdf147f5bdb2685f9e775efd0b10" target="_top" xlink:title=" ">
<polygon fill="white" stroke="black" points="186,-451.5 186,-481.5 338,-481.5 338,-451.5 186,-451.5"/>
<text text-anchor="start" x="194" y="-469.5" font-family="Helvetica,sans-Serif" font-size="10.00">denoptim.fragmenter.Conformer</text>
<text text-anchor="middle" x="262" y="-458.5" font-family="Helvetica,sans-Serif" font-size="10.00">ExtractorTask.call</text>
</a>
</g>
</g>
<!-- Node5&#45;&gt;Node6 -->
<g id="edge6" class="edge">
<title>Node5&#45;&gt;Node6</title>
<path fill="none" stroke="midnightblue" d="M394.87,-434.9C372.24,-440.32 347.5,-446.25 325.63,-451.49"/>
<polygon fill="midnightblue" stroke="midnightblue" points="395.84,-438.27 404.75,-432.53 394.21,-431.46 395.84,-438.27"/>
</g>
<!-- Node8 -->
<g id="node8" class="node">
<title>Node8</title>
<g id="a_node8"><a xlink:href="classdenoptim_1_1fragmenter_1_1_fragment_clusterer_test.html#aa17925160f3f03080e8680c7016fc1c4" target="_top" xlink:title=" ">
<polygon fill="white" stroke="black" points="187.5,-402.5 187.5,-432.5 336.5,-432.5 336.5,-402.5 187.5,-402.5"/>
<text text-anchor="start" x="195.5" y="-420.5" font-family="Helvetica,sans-Serif" font-size="10.00">denoptim.fragmenter.Fragment</text>
<text text-anchor="middle" x="262" y="-409.5" font-family="Helvetica,sans-Serif" font-size="10.00">ClustererTest.testCluster</text>
</a>
</g>
</g>
<!-- Node5&#45;&gt;Node8 -->
<g id="edge8" class="edge">
<title>Node5&#45;&gt;Node8</title>
<path fill="none" stroke="midnightblue" d="M383.78,-417.5C368.13,-417.5 351.89,-417.5 336.57,-417.5"/>
<polygon fill="midnightblue" stroke="midnightblue" points="383.96,-421 393.96,-417.5 383.96,-414 383.96,-421"/>
</g>
<!-- Node7 -->
<g id="node7" class="node">
<title>Node7</title>
<g id="a_node7"><a xlink:href="classdenoptim_1_1programs_1_1fragmenter_1_1_fragmenter.html#aa27df9705e3aed34cc8cb8bc05e6ce85" target="_top" xlink:title=" ">
<polygon fill="white" stroke="black" points="0,-451.5 0,-481.5 150,-481.5 150,-451.5 0,-451.5"/>
<text text-anchor="start" x="8" y="-469.5" font-family="Helvetica,sans-Serif" font-size="10.00">denoptim.programs.fragmenter.</text>
<text text-anchor="middle" x="75" y="-458.5" font-family="Helvetica,sans-Serif" font-size="10.00">Fragmenter.runProgram</text>
</a>
</g>
</g>
<!-- Node6&#45;&gt;Node7 -->
<g id="edge7" class="edge">
<title>Node6&#45;&gt;Node7</title>
<path fill="none" stroke="midnightblue" d="M175.53,-466.5C167.1,-466.5 158.59,-466.5 150.28,-466.5"/>
<polygon fill="midnightblue" stroke="midnightblue" points="175.75,-470 185.75,-466.5 175.75,-463 175.75,-470"/>
</g>
<!-- Node9&#45;&gt;Node6 -->
<g id="edge10" class="edge">
<title>Node9&#45;&gt;Node6</title>
<path fill="none" stroke="midnightblue" d="M363.79,-466.5C355.14,-466.5 346.51,-466.5 338.14,-466.5"/>
<polygon fill="midnightblue" stroke="midnightblue" points="363.93,-470 373.93,-466.5 363.93,-463 363.93,-470"/>
</g>
<!-- Node18 -->
<g id="node18" class="node">
<title>Node18</title>
<g id="a_node18"><a xlink:href="classdenoptim_1_1graph_1_1_fragment_test.html#aa17f42b21847b022c3d7a87876e17717" target="_top" xlink:title=" ">
<polygon fill="white" stroke="black" points="614,-49.5 614,-79.5 778,-79.5 778,-49.5 614,-49.5"/>
<text text-anchor="start" x="622" y="-67.5" font-family="Helvetica,sans-Serif" font-size="10.00">denoptim.graph.FragmentTest.test</text>
<text text-anchor="middle" x="696" y="-56.5" font-family="Helvetica,sans-Serif" font-size="10.00">IsomorphicInLinear</text>
</a>
</g>
</g>
<!-- Node17&#45;&gt;Node18 -->
<g id="edge19" class="edge">
<title>Node17&#45;&gt;Node18</title>
<path fill="none" stroke="midnightblue" d="M826.58,-64.5C810.83,-64.5 794.21,-64.5 778.32,-64.5"/>
<polygon fill="midnightblue" stroke="midnightblue" points="826.79,-68 836.79,-64.5 826.79,-61 826.79,-68"/>
</g>
<!-- Node19 -->
<g id="node19" class="node">
<title>Node19</title>
<g id="a_node19"><a xlink:href="classdenoptim_1_1graph_1_1_fragment_test.html#af49cc0e35c38f683bfc3d332210d1124" target="_top" xlink:title=" ">
<polygon fill="white" stroke="black" points="614,-0.5 614,-30.5 778,-30.5 778,-0.5 614,-0.5"/>
<text text-anchor="start" x="622" y="-18.5" font-family="Helvetica,sans-Serif" font-size="10.00">denoptim.graph.FragmentTest.test</text>
<text text-anchor="middle" x="696" y="-7.5" font-family="Helvetica,sans-Serif" font-size="10.00">IsomorphicTo</text>
</a>
</g>
</g>
<!-- Node17&#45;&gt;Node19 -->
<g id="edge20" class="edge">
<title>Node17&#45;&gt;Node19</title>
<path fill="none" stroke="midnightblue" d="M830.48,-47.1C807.58,-41.68 782.54,-35.75 760.39,-30.51"/>
<polygon fill="midnightblue" stroke="midnightblue" points="829.95,-50.57 840.49,-49.47 831.56,-43.76 829.95,-50.57"/>
</g>
</g>
</svg>
