<?xml version="1.0" encoding="UTF-8" standalone="no"?>
<!DOCTYPE svg PUBLIC "-//W3C//DTD SVG 1.1//EN"
 "http://www.w3.org/Graphics/SVG/1.1/DTD/svg11.dtd">
<!-- Generated by graphviz version 3.0.0 (20220413.0242)
 -->
<!-- Title: denoptim.utils.GraphUtils.getUniqueGraphIndex Pages: 1 -->
<svg width="1243pt" height="422pt"
 viewBox="0.00 0.00 1243.00 421.99" xmlns="http://www.w3.org/2000/svg" xmlns:xlink="http://www.w3.org/1999/xlink">
<g id="graph0" class="graph" transform="scale(1 1) rotate(0) translate(4 417.99)">
<title>denoptim.utils.GraphUtils.getUniqueGraphIndex</title>
<polygon fill="white" stroke="transparent" points="-4,4 -4,-417.99 1239,-417.99 1239,4 -4,4"/>
<!-- Node1 -->
<g id="node1" class="node">
<title>Node1</title>
<g id="a_node1"><a xlink:title="Unique counter for the number of graphs generated.">
<polygon fill="#bfbfbf" stroke="black" points="1094,-191.5 1094,-221.5 1235,-221.5 1235,-191.5 1094,-191.5"/>
<text text-anchor="start" x="1102" y="-209.5" font-family="Helvetica,sans-Serif" font-size="10.00">denoptim.utils.GraphUtils.get</text>
<text text-anchor="middle" x="1164.5" y="-198.5" font-family="Helvetica,sans-Serif" font-size="10.00">UniqueGraphIndex</text>
</a>
</g>
</g>
<!-- Node2 -->
<g id="node2" class="node">
<title>Node2</title>
<g id="a_node2"><a xlink:href="classdenoptim_1_1ga_1_1_e_a_utils.html#a5cb6bbe9f383bf821f3b1f1c5e60031b" target="_top" xlink:title=" ">
<polygon fill="white" stroke="black" points="652.5,-377.5 652.5,-407.5 779.5,-407.5 779.5,-377.5 652.5,-377.5"/>
<text text-anchor="start" x="660.5" y="-395.5" font-family="Helvetica,sans-Serif" font-size="10.00">denoptim.ga.EAUtils.build</text>
<text text-anchor="middle" x="716" y="-384.5" font-family="Helvetica,sans-Serif" font-size="10.00">CandidateByMutation</text>
</a>
</g>
</g>
<!-- Node1&#45;&gt;Node2 -->
<g id="edge1" class="edge">
<title>Node1&#45;&gt;Node2</title>
<path fill="none" stroke="midnightblue" d="M1155.91,-231.57C1142.85,-269.81 1112.18,-341.65 1058,-373.5 972.13,-423.99 852.11,-416.39 779.74,-405.21"/>
<polygon fill="midnightblue" stroke="midnightblue" points="1159.35,-232.32 1159.13,-221.73 1152.69,-230.14 1159.35,-232.32"/>
</g>
<!-- Node7 -->
<g id="node7" class="node">
<title>Node7</title>
<g id="a_node7"><a xlink:href="classdenoptim_1_1ga_1_1_e_a_utils.html#a98553265dd4b441b11c6d97d098edb08" target="_top" xlink:title="Generates a new offspring by performing a crossover operation.">
<polygon fill="white" stroke="black" points="888.5,-333.5 888.5,-363.5 1015.5,-363.5 1015.5,-333.5 888.5,-333.5"/>
<text text-anchor="start" x="896.5" y="-351.5" font-family="Helvetica,sans-Serif" font-size="10.00">denoptim.ga.EAUtils.build</text>
<text text-anchor="middle" x="952" y="-340.5" font-family="Helvetica,sans-Serif" font-size="10.00">CandidateByXOver</text>
</a>
</g>
</g>
<!-- Node1&#45;&gt;Node7 -->
<g id="edge6" class="edge">
<title>Node1&#45;&gt;Node7</title>
<path fill="none" stroke="midnightblue" d="M1148.77,-230.42C1130.78,-257.55 1097.76,-301.04 1058,-324.5 1045.2,-332.05 1030.22,-337.23 1015.65,-340.78"/>
<polygon fill="midnightblue" stroke="midnightblue" points="1151.79,-232.2 1154.28,-221.91 1145.91,-228.4 1151.79,-232.2"/>
</g>
<!-- Node8 -->
<g id="node8" class="node">
<title>Node8</title>
<g id="a_node8"><a xlink:href="classdenoptim_1_1ga_1_1_e_a_utils.html#a87ea0ad600ad26e1a89a4947abcfef86" target="_top" xlink:title="Graph construction starts with selecting a random core/scaffold.">
<polygon fill="white" stroke="black" points="888.5,-284.5 888.5,-314.5 1015.5,-314.5 1015.5,-284.5 888.5,-284.5"/>
<text text-anchor="start" x="896.5" y="-302.5" font-family="Helvetica,sans-Serif" font-size="10.00">denoptim.ga.EAUtils.build</text>
<text text-anchor="middle" x="952" y="-291.5" font-family="Helvetica,sans-Serif" font-size="10.00">Graph</text>
</a>
</g>
</g>
<!-- Node1&#45;&gt;Node8 -->
<g id="edge7" class="edge">
<title>Node1&#45;&gt;Node8</title>
<path fill="none" stroke="midnightblue" d="M1136.65,-227.93C1116.19,-243.27 1086.73,-263.29 1058,-275.5 1044.66,-281.17 1029.78,-285.61 1015.5,-289.04"/>
<polygon fill="midnightblue" stroke="midnightblue" points="1139.02,-230.53 1144.84,-221.68 1134.77,-224.96 1139.02,-230.53"/>
</g>
<!-- Node12 -->
<g id="node12" class="node">
<title>Node12</title>
<g id="a_node12"><a xlink:href="classdenoptim_1_1combinatorial_1_1_combinatorial_explorer_by_layer.html#adcd462866e3f9d6a2a6ef0385807807e" target="_top" xlink:title="Generate graphs by exploring all combination of fragments at a given level of a growing graph.">
<polygon fill="white" stroke="black" points="622,-93 622,-134 810,-134 810,-93 622,-93"/>
<text text-anchor="start" x="630" y="-122" font-family="Helvetica,sans-Serif" font-size="10.00">denoptim.combinatorial.Combinatorial</text>
<text text-anchor="start" x="630" y="-111" font-family="Helvetica,sans-Serif" font-size="10.00">ExplorerByLayer.exploreCombinationsAt</text>
<text text-anchor="middle" x="716" y="-100" font-family="Helvetica,sans-Serif" font-size="10.00">GivenLevel</text>
</a>
</g>
</g>
<!-- Node1&#45;&gt;Node12 -->
<g id="edge13" class="edge">
<title>Node1&#45;&gt;Node12</title>
<path fill="none" stroke="midnightblue" d="M1083.57,-211.7C1018.29,-213.59 924.35,-210.9 846,-187.5 808.15,-176.19 769.46,-151.97 744.46,-134.31"/>
<polygon fill="midnightblue" stroke="midnightblue" points="1083.91,-215.19 1093.79,-211.35 1083.68,-208.19 1083.91,-215.19"/>
</g>
<!-- Node16 -->
<g id="node16" class="node">
<title>Node16</title>
<g id="a_node16"><a xlink:href="classdenoptim_1_1ga_1_1_e_a_utils.html#a2f160fc3fb0488bb995d1e008a706ed4" target="_top" xlink:title="Reconstruct the molecular population from the file.">
<polygon fill="white" stroke="black" points="869,-235.5 869,-265.5 1035,-265.5 1035,-235.5 869,-235.5"/>
<text text-anchor="start" x="877" y="-253.5" font-family="Helvetica,sans-Serif" font-size="10.00">denoptim.ga.EAUtils.getPopulation</text>
<text text-anchor="middle" x="952" y="-242.5" font-family="Helvetica,sans-Serif" font-size="10.00">FromFile</text>
</a>
</g>
</g>
<!-- Node1&#45;&gt;Node16 -->
<g id="edge17" class="edge">
<title>Node1&#45;&gt;Node16</title>
<path fill="none" stroke="midnightblue" d="M1083.98,-223.12C1064.6,-227.17 1043.97,-231.48 1024.96,-235.46"/>
<polygon fill="midnightblue" stroke="midnightblue" points="1084.92,-226.5 1093.99,-221.03 1083.49,-219.65 1084.92,-226.5"/>
</g>
<!-- Node18 -->
<g id="node18" class="node">
<title>Node18</title>
<g id="a_node18"><a xlink:href="classdenoptim_1_1combinatorial_1_1_graph_building_task.html#a59614b27e9b449fd776e31b7c2fdb492" target="_top" xlink:title="Constructor.">
<polygon fill="white" stroke="black" points="873,-147.5 873,-177.5 1031,-177.5 1031,-147.5 873,-147.5"/>
<text text-anchor="start" x="881" y="-165.5" font-family="Helvetica,sans-Serif" font-size="10.00">denoptim.combinatorial.Graph</text>
<text text-anchor="middle" x="952" y="-154.5" font-family="Helvetica,sans-Serif" font-size="10.00">BuildingTask.GraphBuildingTask</text>
</a>
</g>
</g>
<!-- Node1&#45;&gt;Node18 -->
<g id="edge20" class="edge">
<title>Node1&#45;&gt;Node18</title>
<path fill="none" stroke="midnightblue" d="M1083.98,-189.88C1064.6,-185.83 1043.97,-181.52 1024.96,-177.54"/>
<polygon fill="midnightblue" stroke="midnightblue" points="1083.49,-193.35 1093.99,-191.97 1084.92,-186.5 1083.49,-193.35"/>
</g>
<!-- Node19 -->
<g id="node19" class="node">
<title>Node19</title>
<g id="a_node19"><a xlink:href="classdenoptim_1_1graph_1_1_d_graph.html#a7a4743d014e860237f4b20703ef9779b" target="_top" xlink:title="Evaluates the possibility of closing rings in this graph and generates all alternative graphs resulti...">
<polygon fill="white" stroke="black" points="874.5,-0.5 874.5,-30.5 1029.5,-30.5 1029.5,-0.5 874.5,-0.5"/>
<text text-anchor="start" x="882.5" y="-18.5" font-family="Helvetica,sans-Serif" font-size="10.00">denoptim.graph.DGraph.make</text>
<text text-anchor="middle" x="952" y="-7.5" font-family="Helvetica,sans-Serif" font-size="10.00">AllGraphsWithDifferentRingSets</text>
</a>
</g>
</g>
<!-- Node1&#45;&gt;Node19 -->
<g id="edge21" class="edge">
<title>Node1&#45;&gt;Node19</title>
<path fill="none" stroke="midnightblue" d="M1155,-181.96C1140.9,-145.03 1109.04,-75.63 1058,-39.5 1049.53,-33.5 1039.8,-28.98 1029.75,-25.57"/>
<polygon fill="midnightblue" stroke="midnightblue" points="1151.76,-183.3 1158.51,-191.46 1158.33,-180.87 1151.76,-183.3"/>
</g>
<!-- Node21 -->
<g id="node21" class="node">
<title>Node21</title>
<g id="a_node21"><a xlink:href="classdenoptim_1_1combinatorial_1_1_combinatorial_explorer_by_layer.html#a1be545d680af3dd3f3bdf986662b55f4" target="_top" xlink:title="Identify the task preceding the earliest non&#45;completed task and use it to create a checkpoint file.">
<polygon fill="white" stroke="black" points="863,-98.5 863,-128.5 1041,-128.5 1041,-98.5 863,-98.5"/>
<text text-anchor="start" x="871" y="-116.5" font-family="Helvetica,sans-Serif" font-size="10.00">denoptim.combinatorial.Combinatorial</text>
<text text-anchor="middle" x="952" y="-105.5" font-family="Helvetica,sans-Serif" font-size="10.00">ExplorerByLayer.makeCheckPoint</text>
</a>
</g>
</g>
<!-- Node1&#45;&gt;Node21 -->
<g id="edge23" class="edge">
<title>Node1&#45;&gt;Node21</title>
<path fill="none" stroke="midnightblue" d="M1136.19,-185.2C1115.71,-170.16 1086.41,-150.62 1058,-138.5 1049.04,-134.68 1039.38,-131.38 1029.69,-128.54"/>
<polygon fill="midnightblue" stroke="midnightblue" points="1134.3,-188.15 1144.41,-191.33 1138.49,-182.54 1134.3,-188.15"/>
</g>
<!-- Node22 -->
<g id="node22" class="node">
<title>Node22</title>
<g id="a_node22"><a xlink:href="classdenoptim_1_1combinatorial_1_1_combinatorial_explorer_by_layer.html#a2832a6b7facd6c31092e1edb237e4a5f" target="_top" xlink:title=" ">
<polygon fill="white" stroke="black" points="846,-49.5 846,-79.5 1058,-79.5 1058,-49.5 846,-49.5"/>
<text text-anchor="start" x="854" y="-67.5" font-family="Helvetica,sans-Serif" font-size="10.00">denoptim.combinatorial.Combinatorial</text>
<text text-anchor="middle" x="952" y="-56.5" font-family="Helvetica,sans-Serif" font-size="10.00">ExplorerByLayer.startNewGraphFromScaffold</text>
</a>
</g>
</g>
<!-- Node1&#45;&gt;Node22 -->
<g id="edge25" class="edge">
<title>Node1&#45;&gt;Node22</title>
<path fill="none" stroke="midnightblue" d="M1148.68,-182.84C1130.61,-156.01 1097.52,-112.94 1058,-89.5 1051.47,-85.63 1044.38,-82.36 1037.07,-79.59"/>
<polygon fill="midnightblue" stroke="midnightblue" points="1145.81,-184.84 1154.23,-191.27 1151.65,-180.99 1145.81,-184.84"/>
</g>
<!-- Node3 -->
<g id="node3" class="node">
<title>Node3</title>
<g id="a_node3"><a xlink:href="classdenoptim_1_1ga_1_1_evolutionary_algorithm.html#a596b2f5f0b097c5b67a6e5163bd6fe66" target="_top" xlink:title="Generates a given number of new candidate items and adds them to the current population.">
<polygon fill="white" stroke="black" points="430,-366.5 430,-396.5 564,-396.5 564,-366.5 430,-366.5"/>
<text text-anchor="start" x="438" y="-384.5" font-family="Helvetica,sans-Serif" font-size="10.00">denoptim.ga.Evolutionary</text>
<text text-anchor="middle" x="497" y="-373.5" font-family="Helvetica,sans-Serif" font-size="10.00">Algorithm.evolvePopulation</text>
</a>
</g>
</g>
<!-- Node2&#45;&gt;Node3 -->
<g id="edge2" class="edge">
<title>Node2&#45;&gt;Node3</title>
<path fill="none" stroke="midnightblue" d="M641.99,-388.8C616.76,-387.52 588.66,-386.1 564.03,-384.85"/>
<polygon fill="midnightblue" stroke="midnightblue" points="642.07,-392.31 652.23,-389.32 642.42,-385.32 642.07,-392.31"/>
</g>
<!-- Node4 -->
<g id="node4" class="node">
<title>Node4</title>
<g id="a_node4"><a xlink:href="classdenoptim_1_1ga_1_1_evolutionary_algorithm.html#a6bfc2fa59b199da6259b5b6bad3d6de7" target="_top" xlink:title=" ">
<polygon fill="white" stroke="black" points="219,-317.5 219,-347.5 343,-347.5 343,-317.5 219,-317.5"/>
<text text-anchor="start" x="227" y="-335.5" font-family="Helvetica,sans-Serif" font-size="10.00">denoptim.ga.Evolutionary</text>
<text text-anchor="middle" x="281" y="-324.5" font-family="Helvetica,sans-Serif" font-size="10.00">Algorithm.run</text>
</a>
</g>
</g>
<!-- Node3&#45;&gt;Node4 -->
<g id="edge3" class="edge">
<title>Node3&#45;&gt;Node4</title>
<path fill="none" stroke="midnightblue" d="M420.41,-364.19C395.1,-358.4 367.22,-352.01 343.15,-346.5"/>
<polygon fill="midnightblue" stroke="midnightblue" points="419.81,-367.65 430.34,-366.47 421.37,-360.82 419.81,-367.65"/>
</g>
<!-- Node5 -->
<g id="node5" class="node">
<title>Node5</title>
<g id="a_node5"><a xlink:href="classdenoptim_1_1ga_1_1_evolutionary_algorithm.html#a0f2063b722b7291daf83d62acaa683d3" target="_top" xlink:title=" ">
<polygon fill="white" stroke="black" points="0,-341.5 0,-371.5 154,-371.5 154,-341.5 0,-341.5"/>
<text text-anchor="start" x="8" y="-359.5" font-family="Helvetica,sans-Serif" font-size="10.00">denoptim.ga.Evolutionary</text>
<text text-anchor="middle" x="77" y="-348.5" font-family="Helvetica,sans-Serif" font-size="10.00">Algorithm.EvolutionaryAlgorithm</text>
</a>
</g>
</g>
<!-- Node4&#45;&gt;Node5 -->
<g id="edge4" class="edge">
<title>Node4&#45;&gt;Node5</title>
<path fill="none" stroke="midnightblue" d="M208.65,-340.98C191.06,-343.07 172.14,-345.31 154.32,-347.43"/>
<polygon fill="midnightblue" stroke="midnightblue" points="209.33,-344.42 218.85,-339.77 208.5,-337.47 209.33,-344.42"/>
</g>
<!-- Node6 -->
<g id="node6" class="node">
<title>Node6</title>
<g id="a_node6"><a xlink:href="classdenoptim_1_1programs_1_1denovo_1_1_g_a_runner.html#a7cafd6d78727b89dce3e2c8d06f0dd7c" target="_top" xlink:title=" ">
<polygon fill="white" stroke="black" points="9.5,-292.5 9.5,-322.5 144.5,-322.5 144.5,-292.5 9.5,-292.5"/>
<text text-anchor="start" x="17.5" y="-310.5" font-family="Helvetica,sans-Serif" font-size="10.00">denoptim.programs.denovo.</text>
<text text-anchor="middle" x="77" y="-299.5" font-family="Helvetica,sans-Serif" font-size="10.00">GARunner.runProgram</text>
</a>
</g>
</g>
<!-- Node4&#45;&gt;Node6 -->
<g id="edge5" class="edge">
<title>Node4&#45;&gt;Node6</title>
<path fill="none" stroke="midnightblue" d="M208.76,-323.68C187.89,-321.1 165.15,-318.29 144.58,-315.74"/>
<polygon fill="midnightblue" stroke="midnightblue" points="208.49,-327.18 218.85,-324.93 209.35,-320.23 208.49,-327.18"/>
</g>
<!-- Node9 -->
<g id="node9" class="node">
<title>Node9</title>
<g id="a_node9"><a xlink:href="classdenoptim_1_1ga_1_1_e_a_utils.html#ad3d2daeb11e68a356e971ca1846596b5" target="_top" xlink:title=" ">
<polygon fill="white" stroke="black" points="652.5,-328.5 652.5,-358.5 779.5,-358.5 779.5,-328.5 652.5,-328.5"/>
<text text-anchor="start" x="660.5" y="-346.5" font-family="Helvetica,sans-Serif" font-size="10.00">denoptim.ga.EAUtils.build</text>
<text text-anchor="middle" x="716" y="-335.5" font-family="Helvetica,sans-Serif" font-size="10.00">CandidateFromScratch</text>
</a>
</g>
</g>
<!-- Node8&#45;&gt;Node9 -->
<g id="edge8" class="edge">
<title>Node8&#45;&gt;Node9</title>
<path fill="none" stroke="midnightblue" d="M878.25,-313.18C846.74,-319.1 810.2,-325.98 779.88,-331.68"/>
<polygon fill="midnightblue" stroke="midnightblue" points="879.11,-316.58 888.29,-311.29 877.82,-309.7 879.11,-316.58"/>
</g>
<!-- Node11 -->
<g id="node11" class="node">
<title>Node11</title>
<g id="a_node11"><a xlink:href="classdenoptim_1_1ga_1_1_e_a_utils_test.html#ab7a37d3340d35ab586332ce2122e7bb0" target="_top" xlink:title=" ">
<polygon fill="white" stroke="black" points="634.5,-279.5 634.5,-309.5 797.5,-309.5 797.5,-279.5 634.5,-279.5"/>
<text text-anchor="start" x="642.5" y="-297.5" font-family="Helvetica,sans-Serif" font-size="10.00">denoptim.ga.EAUtilsTest.test</text>
<text text-anchor="middle" x="716" y="-286.5" font-family="Helvetica,sans-Serif" font-size="10.00">BuildGraphFromTemplateScaffold</text>
</a>
</g>
</g>
<!-- Node8&#45;&gt;Node11 -->
<g id="edge12" class="edge">
<title>Node8&#45;&gt;Node11</title>
<path fill="none" stroke="midnightblue" d="M878.28,-297.95C852.68,-297.4 823.75,-296.78 797.53,-296.22"/>
<polygon fill="midnightblue" stroke="midnightblue" points="878.22,-301.45 888.29,-298.16 878.37,-294.45 878.22,-301.45"/>
</g>
<!-- Node9&#45;&gt;Node3 -->
<g id="edge9" class="edge">
<title>Node9&#45;&gt;Node3</title>
<path fill="none" stroke="midnightblue" d="M642.32,-356.23C617.01,-360.66 588.77,-365.6 564.03,-369.94"/>
<polygon fill="midnightblue" stroke="midnightblue" points="642.99,-359.66 652.23,-354.49 641.78,-352.77 642.99,-359.66"/>
</g>
<!-- Node10 -->
<g id="node10" class="node">
<title>Node10</title>
<g id="a_node10"><a xlink:href="classdenoptim_1_1ga_1_1_evolutionary_algorithm.html#ad43588620dab3340e0d8b0042ec73618" target="_top" xlink:title="Fills up the population with candidates build from scratch.">
<polygon fill="white" stroke="black" points="427,-317.5 427,-347.5 567,-347.5 567,-317.5 427,-317.5"/>
<text text-anchor="start" x="435" y="-335.5" font-family="Helvetica,sans-Serif" font-size="10.00">denoptim.ga.Evolutionary</text>
<text text-anchor="middle" x="497" y="-324.5" font-family="Helvetica,sans-Serif" font-size="10.00">Algorithm.initializePopulation</text>
</a>
</g>
</g>
<!-- Node9&#45;&gt;Node10 -->
<g id="edge10" class="edge">
<title>Node9&#45;&gt;Node10</title>
<path fill="none" stroke="midnightblue" d="M642.04,-339.8C617.84,-338.57 590.99,-337.21 567.09,-336"/>
<polygon fill="midnightblue" stroke="midnightblue" points="642.07,-343.31 652.23,-340.32 642.42,-336.32 642.07,-343.31"/>
</g>
<!-- Node10&#45;&gt;Node4 -->
<g id="edge11" class="edge">
<title>Node10&#45;&gt;Node4</title>
<path fill="none" stroke="midnightblue" d="M416.54,-332.5C392.23,-332.5 365.89,-332.5 343.01,-332.5"/>
<polygon fill="midnightblue" stroke="midnightblue" points="416.82,-336 426.82,-332.5 416.82,-329 416.82,-336"/>
</g>
<!-- Node13 -->
<g id="node13" class="node">
<title>Node13</title>
<g id="a_node13"><a xlink:href="classdenoptim_1_1combinatorial_1_1_combinatorial_explorer_by_layer.html#af9327fa81f9e2a617cdff353848ad6e1" target="_top" xlink:title="Run the combinatorial exploration.">
<polygon fill="white" stroke="black" points="408,-98.5 408,-128.5 586,-128.5 586,-98.5 408,-98.5"/>
<text text-anchor="start" x="416" y="-116.5" font-family="Helvetica,sans-Serif" font-size="10.00">denoptim.combinatorial.Combinatorial</text>
<text text-anchor="middle" x="497" y="-105.5" font-family="Helvetica,sans-Serif" font-size="10.00">ExplorerByLayer.run</text>
</a>
</g>
</g>
<!-- Node12&#45;&gt;Node13 -->
<g id="edge14" class="edge">
<title>Node12&#45;&gt;Node13</title>
<path fill="none" stroke="midnightblue" d="M611.68,-113.5C603.11,-113.5 594.5,-113.5 586.06,-113.5"/>
<polygon fill="midnightblue" stroke="midnightblue" points="611.71,-117 621.71,-113.5 611.71,-110 611.71,-117"/>
</g>
<!-- Node14 -->
<g id="node14" class="node">
<title>Node14</title>
<g id="a_node14"><a xlink:href="classdenoptim_1_1combinatorial_1_1_combinatorial_explorer_by_layer.html#a8f359a45038dc604a5e437d63a35e1a2" target="_top" xlink:title="Constructor.">
<polygon fill="white" stroke="black" points="190,-120 190,-161 372,-161 372,-120 190,-120"/>
<text text-anchor="start" x="198" y="-149" font-family="Helvetica,sans-Serif" font-size="10.00">denoptim.combinatorial.Combinatorial</text>
<text text-anchor="start" x="198" y="-138" font-family="Helvetica,sans-Serif" font-size="10.00">ExplorerByLayer.CombinatorialExplorer</text>
<text text-anchor="middle" x="281" y="-127" font-family="Helvetica,sans-Serif" font-size="10.00">ByLayer</text>
</a>
</g>
</g>
<!-- Node13&#45;&gt;Node14 -->
<g id="edge15" class="edge">
<title>Node13&#45;&gt;Node14</title>
<path fill="none" stroke="midnightblue" d="M397.75,-125.9C389.22,-126.97 380.61,-128.06 372.15,-129.13"/>
<polygon fill="midnightblue" stroke="midnightblue" points="398.24,-129.36 407.72,-124.64 397.36,-122.42 398.24,-129.36"/>
</g>
<!-- Node15 -->
<g id="node15" class="node">
<title>Node15</title>
<g id="a_node15"><a xlink:href="classdenoptim_1_1programs_1_1combinatorial_1_1_frag_space_explorer.html#a1c6a2aae9ab686d5c7c0fc6246f7aa61" target="_top" xlink:title=" ">
<polygon fill="white" stroke="black" points="200.5,-71.5 200.5,-101.5 361.5,-101.5 361.5,-71.5 200.5,-71.5"/>
<text text-anchor="start" x="208.5" y="-89.5" font-family="Helvetica,sans-Serif" font-size="10.00">denoptim.programs.combinatorial.</text>
<text text-anchor="middle" x="281" y="-78.5" font-family="Helvetica,sans-Serif" font-size="10.00">FragSpaceExplorer.runProgram</text>
</a>
</g>
</g>
<!-- Node13&#45;&gt;Node15 -->
<g id="edge16" class="edge">
<title>Node13&#45;&gt;Node15</title>
<path fill="none" stroke="midnightblue" d="M397.61,-101.09C385.52,-99.56 373.27,-98.02 361.51,-96.53"/>
<polygon fill="midnightblue" stroke="midnightblue" points="397.36,-104.58 407.72,-102.36 398.24,-97.64 397.36,-104.58"/>
</g>
<!-- Node17 -->
<g id="node17" class="node">
<title>Node17</title>
<g id="a_node17"><a xlink:href="classdenoptim_1_1ga_1_1_e_a_utils.html#aecbe9af608218e129a006ddae17ac66b" target="_top" xlink:title="Reads unique identifiers and initial population files according to the GAParameters.">
<polygon fill="white" stroke="black" points="430,-246.5 430,-276.5 564,-276.5 564,-246.5 430,-246.5"/>
<text text-anchor="start" x="438" y="-264.5" font-family="Helvetica,sans-Serif" font-size="10.00">denoptim.ga.EAUtils.import</text>
<text text-anchor="middle" x="497" y="-253.5" font-family="Helvetica,sans-Serif" font-size="10.00">InitialPopulation</text>
</a>
</g>
</g>
<!-- Node16&#45;&gt;Node17 -->
<g id="edge18" class="edge">
<title>Node16&#45;&gt;Node17</title>
<path fill="none" stroke="midnightblue" d="M858.78,-252.74C771.32,-254.86 642.07,-258 564.34,-259.89"/>
<polygon fill="midnightblue" stroke="midnightblue" points="859.05,-256.23 868.97,-252.49 858.88,-249.24 859.05,-256.23"/>
</g>
<!-- Node17&#45;&gt;Node4 -->
<g id="edge19" class="edge">
<title>Node17&#45;&gt;Node4</title>
<path fill="none" stroke="midnightblue" d="M440.95,-279.76C405.69,-291.46 360.5,-306.46 327.32,-317.46"/>
<polygon fill="midnightblue" stroke="midnightblue" points="442.23,-283.03 450.62,-276.56 440.02,-276.38 442.23,-283.03"/>
</g>
<!-- Node20 -->
<g id="node20" class="node">
<title>Node20</title>
<g id="a_node20"><a xlink:href="classdenoptim_1_1combinatorial_1_1_graph_building_task.html#a3eaee724fc921194fa158714aafe182d" target="_top" xlink:title="Calls the task.">
<polygon fill="white" stroke="black" points="643.5,-0.5 643.5,-30.5 788.5,-30.5 788.5,-0.5 643.5,-0.5"/>
<text text-anchor="start" x="651.5" y="-18.5" font-family="Helvetica,sans-Serif" font-size="10.00">denoptim.combinatorial.Graph</text>
<text text-anchor="middle" x="716" y="-7.5" font-family="Helvetica,sans-Serif" font-size="10.00">BuildingTask.call</text>
</a>
</g>
</g>
<!-- Node19&#45;&gt;Node20 -->
<g id="edge22" class="edge">
<title>Node19&#45;&gt;Node20</title>
<path fill="none" stroke="midnightblue" d="M864.22,-15.5C839.34,-15.5 812.5,-15.5 788.63,-15.5"/>
<polygon fill="midnightblue" stroke="midnightblue" points="864.38,-19 874.38,-15.5 864.38,-12 864.38,-19"/>
</g>
<!-- Node21&#45;&gt;Node12 -->
<g id="edge24" class="edge">
<title>Node21&#45;&gt;Node12</title>
<path fill="none" stroke="midnightblue" d="M852.68,-113.5C838.59,-113.5 824.12,-113.5 810.13,-113.5"/>
<polygon fill="midnightblue" stroke="midnightblue" points="852.87,-117 862.87,-113.5 852.87,-110 852.87,-117"/>
</g>
<!-- Node22&#45;&gt;Node12 -->
<g id="edge26" class="edge">
<title>Node22&#45;&gt;Node12</title>
<path fill="none" stroke="midnightblue" d="M869.36,-81.6C850.27,-85.59 829.8,-89.88 810.25,-93.97"/>
<polygon fill="midnightblue" stroke="midnightblue" points="870.13,-85.01 879.2,-79.53 868.7,-78.16 870.13,-85.01"/>
</g>
</g>
</svg>
