<?xml version="1.0" encoding="UTF-8" standalone="no"?>
<!DOCTYPE svg PUBLIC "-//W3C//DTD SVG 1.1//EN"
 "http://www.w3.org/Graphics/SVG/1.1/DTD/svg11.dtd">
<!-- Generated by graphviz version 3.0.0 (20220413.0242)
 -->
<!-- Title: denoptim.graph.DGraph.getMutableSites Pages: 1 -->
<svg width="1059pt" height="136pt"
 viewBox="0.00 0.00 1059.00 136.00" xmlns="http://www.w3.org/2000/svg" xmlns:xlink="http://www.w3.org/1999/xlink">
<g id="graph0" class="graph" transform="scale(1 1) rotate(0) translate(4 132)">
<title>denoptim.graph.DGraph.getMutableSites</title>
<polygon fill="white" stroke="transparent" points="-4,4 -4,-132 1055,-132 1055,4 -4,4"/>
<!-- Node1 -->
<g id="node1" class="node">
<title>Node1</title>
<g id="a_node1"><a xlink:title="A list of mutation sites from within this graph.">
<polygon fill="#bfbfbf" stroke="black" points="917,-24.5 917,-54.5 1051,-54.5 1051,-24.5 917,-24.5"/>
<text text-anchor="start" x="925" y="-42.5" font-family="Helvetica,sans-Serif" font-size="10.00">denoptim.graph.DGraph.get</text>
<text text-anchor="middle" x="984" y="-31.5" font-family="Helvetica,sans-Serif" font-size="10.00">MutableSites</text>
</a>
</g>
</g>
<!-- Node2 -->
<g id="node2" class="node">
<title>Node2</title>
<g id="a_node2"><a xlink:href="classdenoptim_1_1ga_1_1_e_a_utils.html#a87ea0ad600ad26e1a89a4947abcfef86" target="_top" xlink:title="Graph construction starts with selecting a random core/scaffold.">
<polygon fill="white" stroke="black" points="739.5,-49.5 739.5,-79.5 866.5,-79.5 866.5,-49.5 739.5,-49.5"/>
<text text-anchor="start" x="747.5" y="-67.5" font-family="Helvetica,sans-Serif" font-size="10.00">denoptim.ga.EAUtils.build</text>
<text text-anchor="middle" x="803" y="-56.5" font-family="Helvetica,sans-Serif" font-size="10.00">Graph</text>
</a>
</g>
</g>
<!-- Node1&#45;&gt;Node2 -->
<g id="edge1" class="edge">
<title>Node1&#45;&gt;Node2</title>
<path fill="none" stroke="midnightblue" d="M906.72,-50.15C893.34,-52.02 879.56,-53.95 866.6,-55.76"/>
<polygon fill="midnightblue" stroke="midnightblue" points="907.44,-53.59 916.86,-48.74 906.47,-46.65 907.44,-53.59"/>
</g>
<!-- Node10 -->
<g id="node10" class="node">
<title>Node10</title>
<g id="a_node10"><a xlink:href="classdenoptim_1_1graph_1_1_d_graph_test.html#a3eddde27b60b3f8bdd725dd44ee9a738" target="_top" xlink:title=" ">
<polygon fill="white" stroke="black" points="725,-0.5 725,-30.5 881,-30.5 881,-0.5 725,-0.5"/>
<text text-anchor="start" x="733" y="-18.5" font-family="Helvetica,sans-Serif" font-size="10.00">denoptim.graph.DGraphTest.test</text>
<text text-anchor="middle" x="803" y="-7.5" font-family="Helvetica,sans-Serif" font-size="10.00">GetMutationSites</text>
</a>
</g>
</g>
<!-- Node1&#45;&gt;Node10 -->
<g id="edge10" class="edge">
<title>Node1&#45;&gt;Node10</title>
<path fill="none" stroke="midnightblue" d="M906.91,-29.3C898.35,-28.15 889.63,-26.98 881.06,-25.83"/>
<polygon fill="midnightblue" stroke="midnightblue" points="906.48,-32.77 916.86,-30.63 907.41,-25.83 906.48,-32.77"/>
</g>
<!-- Node3 -->
<g id="node3" class="node">
<title>Node3</title>
<g id="a_node3"><a xlink:href="classdenoptim_1_1ga_1_1_e_a_utils.html#ad3d2daeb11e68a356e971ca1846596b5" target="_top" xlink:title=" ">
<polygon fill="white" stroke="black" points="544,-73.5 544,-103.5 671,-103.5 671,-73.5 544,-73.5"/>
<text text-anchor="start" x="552" y="-91.5" font-family="Helvetica,sans-Serif" font-size="10.00">denoptim.ga.EAUtils.build</text>
<text text-anchor="middle" x="607.5" y="-80.5" font-family="Helvetica,sans-Serif" font-size="10.00">CandidateFromScratch</text>
</a>
</g>
</g>
<!-- Node2&#45;&gt;Node3 -->
<g id="edge2" class="edge">
<title>Node2&#45;&gt;Node3</title>
<path fill="none" stroke="midnightblue" d="M729.28,-73.52C710.17,-75.89 689.71,-78.43 671.17,-80.73"/>
<polygon fill="midnightblue" stroke="midnightblue" points="729.95,-76.96 739.44,-72.26 729.09,-70.02 729.95,-76.96"/>
</g>
<!-- Node9 -->
<g id="node9" class="node">
<title>Node9</title>
<g id="a_node9"><a xlink:href="classdenoptim_1_1ga_1_1_e_a_utils_test.html#ab7a37d3340d35ab586332ce2122e7bb0" target="_top" xlink:title=" ">
<polygon fill="white" stroke="black" points="526,-24.5 526,-54.5 689,-54.5 689,-24.5 526,-24.5"/>
<text text-anchor="start" x="534" y="-42.5" font-family="Helvetica,sans-Serif" font-size="10.00">denoptim.ga.EAUtilsTest.test</text>
<text text-anchor="middle" x="607.5" y="-31.5" font-family="Helvetica,sans-Serif" font-size="10.00">BuildGraphFromTemplateScaffold</text>
</a>
</g>
</g>
<!-- Node2&#45;&gt;Node9 -->
<g id="edge9" class="edge">
<title>Node2&#45;&gt;Node9</title>
<path fill="none" stroke="midnightblue" d="M729.14,-55.09C716.1,-53.4 702.45,-51.64 689.21,-49.93"/>
<polygon fill="midnightblue" stroke="midnightblue" points="729.08,-58.61 739.44,-56.42 729.97,-51.67 729.08,-58.61"/>
</g>
<!-- Node4 -->
<g id="node4" class="node">
<title>Node4</title>
<g id="a_node4"><a xlink:href="classdenoptim_1_1ga_1_1_evolutionary_algorithm.html#a596b2f5f0b097c5b67a6e5163bd6fe66" target="_top" xlink:title="Generates a given number of new candidate items and adds them to the current population.">
<polygon fill="white" stroke="black" points="353,-97.5 353,-127.5 487,-127.5 487,-97.5 353,-97.5"/>
<text text-anchor="start" x="361" y="-115.5" font-family="Helvetica,sans-Serif" font-size="10.00">denoptim.ga.Evolutionary</text>
<text text-anchor="middle" x="420" y="-104.5" font-family="Helvetica,sans-Serif" font-size="10.00">Algorithm.evolvePopulation</text>
</a>
</g>
</g>
<!-- Node3&#45;&gt;Node4 -->
<g id="edge3" class="edge">
<title>Node3&#45;&gt;Node4</title>
<path fill="none" stroke="midnightblue" d="M533.94,-97.89C518.5,-99.89 502.27,-101.99 487.08,-103.95"/>
<polygon fill="midnightblue" stroke="midnightblue" points="534.49,-101.35 543.96,-96.59 533.59,-94.4 534.49,-101.35"/>
</g>
<!-- Node8 -->
<g id="node8" class="node">
<title>Node8</title>
<g id="a_node8"><a xlink:href="classdenoptim_1_1ga_1_1_evolutionary_algorithm.html#ad43588620dab3340e0d8b0042ec73618" target="_top" xlink:title="Fills up the population with candidates build from scratch.">
<polygon fill="white" stroke="black" points="350,-48.5 350,-78.5 490,-78.5 490,-48.5 350,-48.5"/>
<text text-anchor="start" x="358" y="-66.5" font-family="Helvetica,sans-Serif" font-size="10.00">denoptim.ga.Evolutionary</text>
<text text-anchor="middle" x="420" y="-55.5" font-family="Helvetica,sans-Serif" font-size="10.00">Algorithm.initializePopulation</text>
</a>
</g>
</g>
<!-- Node3&#45;&gt;Node8 -->
<g id="edge7" class="edge">
<title>Node3&#45;&gt;Node8</title>
<path fill="none" stroke="midnightblue" d="M533.69,-78.69C519.4,-76.76 504.45,-74.75 490.29,-72.84"/>
<polygon fill="midnightblue" stroke="midnightblue" points="533.58,-82.2 543.96,-80.07 534.51,-75.27 533.58,-82.2"/>
</g>
<!-- Node5 -->
<g id="node5" class="node">
<title>Node5</title>
<g id="a_node5"><a xlink:href="classdenoptim_1_1ga_1_1_evolutionary_algorithm.html#a6bfc2fa59b199da6259b5b6bad3d6de7" target="_top" xlink:title=" ">
<polygon fill="white" stroke="black" points="190,-72.5 190,-102.5 314,-102.5 314,-72.5 190,-72.5"/>
<text text-anchor="start" x="198" y="-90.5" font-family="Helvetica,sans-Serif" font-size="10.00">denoptim.ga.Evolutionary</text>
<text text-anchor="middle" x="252" y="-79.5" font-family="Helvetica,sans-Serif" font-size="10.00">Algorithm.run</text>
</a>
</g>
</g>
<!-- Node4&#45;&gt;Node5 -->
<g id="edge4" class="edge">
<title>Node4&#45;&gt;Node5</title>
<path fill="none" stroke="midnightblue" d="M342.9,-101.04C333.21,-99.58 323.41,-98.1 314.01,-96.69"/>
<polygon fill="midnightblue" stroke="midnightblue" points="342.51,-104.52 352.92,-102.55 343.55,-97.6 342.51,-104.52"/>
</g>
<!-- Node6 -->
<g id="node6" class="node">
<title>Node6</title>
<g id="a_node6"><a xlink:href="classdenoptim_1_1ga_1_1_evolutionary_algorithm.html#a0f2063b722b7291daf83d62acaa683d3" target="_top" xlink:title=" ">
<polygon fill="white" stroke="black" points="0,-97.5 0,-127.5 154,-127.5 154,-97.5 0,-97.5"/>
<text text-anchor="start" x="8" y="-115.5" font-family="Helvetica,sans-Serif" font-size="10.00">denoptim.ga.Evolutionary</text>
<text text-anchor="middle" x="77" y="-104.5" font-family="Helvetica,sans-Serif" font-size="10.00">Algorithm.EvolutionaryAlgorithm</text>
</a>
</g>
</g>
<!-- Node5&#45;&gt;Node6 -->
<g id="edge5" class="edge">
<title>Node5&#45;&gt;Node6</title>
<path fill="none" stroke="midnightblue" d="M179.44,-97.84C171.09,-99.05 162.54,-100.28 154.12,-101.5"/>
<polygon fill="midnightblue" stroke="midnightblue" points="180.12,-101.28 189.52,-96.38 179.12,-94.35 180.12,-101.28"/>
</g>
<!-- Node7 -->
<g id="node7" class="node">
<title>Node7</title>
<g id="a_node7"><a xlink:href="classdenoptim_1_1programs_1_1denovo_1_1_g_a_runner.html#a7cafd6d78727b89dce3e2c8d06f0dd7c" target="_top" xlink:title=" ">
<polygon fill="white" stroke="black" points="9.5,-48.5 9.5,-78.5 144.5,-78.5 144.5,-48.5 9.5,-48.5"/>
<text text-anchor="start" x="17.5" y="-66.5" font-family="Helvetica,sans-Serif" font-size="10.00">denoptim.programs.denovo.</text>
<text text-anchor="middle" x="77" y="-55.5" font-family="Helvetica,sans-Serif" font-size="10.00">GARunner.runProgram</text>
</a>
</g>
</g>
<!-- Node5&#45;&gt;Node7 -->
<g id="edge6" class="edge">
<title>Node5&#45;&gt;Node7</title>
<path fill="none" stroke="midnightblue" d="M179.48,-77.58C167.92,-75.97 156,-74.32 144.57,-72.73"/>
<polygon fill="midnightblue" stroke="midnightblue" points="179.13,-81.06 189.52,-78.97 180.1,-74.13 179.13,-81.06"/>
</g>
<!-- Node8&#45;&gt;Node5 -->
<g id="edge8" class="edge">
<title>Node8&#45;&gt;Node5</title>
<path fill="none" stroke="midnightblue" d="M339.6,-74.98C331.08,-76.21 322.5,-77.45 314.24,-78.65"/>
<polygon fill="midnightblue" stroke="midnightblue" points="340.17,-78.43 349.56,-73.54 339.16,-71.51 340.17,-78.43"/>
</g>
</g>
</svg>
