<?xml version="1.0" encoding="UTF-8" standalone="no"?>
<!DOCTYPE svg PUBLIC "-//W3C//DTD SVG 1.1//EN"
 "http://www.w3.org/Graphics/SVG/1.1/DTD/svg11.dtd">
<!-- Generated by graphviz version 3.0.0 (20220413.0242)
 -->
<!-- Title: denoptim.gui.GAParametersForm.putParametersToString Pages: 1 -->
<svg width="368pt" height="216pt"
 viewBox="0.00 0.00 368.00 215.50" xmlns="http://www.w3.org/2000/svg" xmlns:xlink="http://www.w3.org/1999/xlink">
<g id="graph0" class="graph" transform="scale(1 1) rotate(0) translate(4 211.5)">
<title>denoptim.gui.GAParametersForm.putParametersToString</title>
<polygon fill="white" stroke="transparent" points="-4,4 -4,-211.5 364,-211.5 364,4 -4,4"/>
<!-- Node1 -->
<g id="node1" class="node">
<title>Node1</title>
<g id="a_node1"><a xlink:title=" ">
<polygon fill="#bfbfbf" stroke="black" points="0,-103 0,-133 142,-133 142,-103 0,-103"/>
<text text-anchor="start" x="8" y="-121" font-family="Helvetica,sans-Serif" font-size="10.00">denoptim.gui.GAParameters</text>
<text text-anchor="middle" x="71" y="-110" font-family="Helvetica,sans-Serif" font-size="10.00">Form.putParametersToString</text>
</a>
</g>
</g>
<!-- Node2 -->
<g id="node2" class="node">
<title>Node2</title>
<g id="a_node2"><a xlink:href="classdenoptim_1_1gui_1_1_parameters_form.html#a583428b0188c8e00bec2ccbb460cf468" target="_top" xlink:title="Produced the KEY:VALUE string for a general spinner.">
<polygon fill="white" stroke="black" points="188,-177 188,-207 350,-207 350,-177 188,-177"/>
<text text-anchor="start" x="196" y="-195" font-family="Helvetica,sans-Serif" font-size="10.00">denoptim.gui.ParametersForm.get</text>
<text text-anchor="middle" x="269" y="-184" font-family="Helvetica,sans-Serif" font-size="10.00">StringForKVLine</text>
</a>
</g>
</g>
<!-- Node1&#45;&gt;Node2 -->
<g id="edge1" class="edge">
<title>Node1&#45;&gt;Node2</title>
<path fill="none" stroke="midnightblue" d="M100.2,-133.01C121.22,-143.78 150.87,-158.07 178,-168 183.78,-170.11 189.83,-172.13 195.95,-174.03"/>
<polygon fill="midnightblue" stroke="midnightblue" points="194.99,-177.4 205.57,-176.92 197,-170.69 194.99,-177.4"/>
</g>
<!-- Node3 -->
<g id="node3" class="node">
<title>Node3</title>
<g id="a_node3"><a xlink:href="classdenoptim_1_1gui_1_1_parameters_form.html#adba801c985eb2aa293c9dc1ce455fb63" target="_top" xlink:title="Produced the KEY:VALUE string for a general text field.">
<polygon fill="white" stroke="black" points="188,-128 188,-158 350,-158 350,-128 188,-128"/>
<text text-anchor="start" x="196" y="-146" font-family="Helvetica,sans-Serif" font-size="10.00">denoptim.gui.ParametersForm.get</text>
<text text-anchor="middle" x="269" y="-135" font-family="Helvetica,sans-Serif" font-size="10.00">StringIfNotEmpty</text>
</a>
</g>
</g>
<!-- Node1&#45;&gt;Node3 -->
<g id="edge2" class="edge">
<title>Node1&#45;&gt;Node3</title>
<path fill="none" stroke="midnightblue" d="M142.21,-126.95C153.79,-128.43 165.94,-129.98 177.93,-131.51"/>
<polygon fill="midnightblue" stroke="midnightblue" points="177.59,-135 187.95,-132.79 178.47,-128.05 177.59,-135"/>
</g>
<!-- Node4 -->
<g id="node4" class="node">
<title>Node4</title>
<g id="a_node4"><a xlink:href="classdenoptim_1_1gui_1_1_parameters_form.html#a8fe7e5b6db435de65b2629b0e175cc82" target="_top" xlink:title="Produced the KEY:VALUE string for a on/off button.">
<polygon fill="white" stroke="black" points="188,-79 188,-109 350,-109 350,-79 188,-79"/>
<text text-anchor="start" x="196" y="-97" font-family="Helvetica,sans-Serif" font-size="10.00">denoptim.gui.ParametersForm.get</text>
<text text-anchor="middle" x="269" y="-86" font-family="Helvetica,sans-Serif" font-size="10.00">StringIfSelected</text>
</a>
</g>
</g>
<!-- Node1&#45;&gt;Node4 -->
<g id="edge3" class="edge">
<title>Node1&#45;&gt;Node4</title>
<path fill="none" stroke="midnightblue" d="M142.21,-109.4C153.79,-107.98 165.94,-106.5 177.93,-105.03"/>
<polygon fill="midnightblue" stroke="midnightblue" points="178.45,-108.49 187.95,-103.8 177.6,-101.54 178.45,-108.49"/>
</g>
<!-- Node5 -->
<g id="node5" class="node">
<title>Node5</title>
<g id="a_node5"><a xlink:href="classdenoptim_1_1gui_1_1_g_a_parameters_form.html#aee2a063d83a006a2cddb4b4af1af2673" target="_top" xlink:title="Imports parameters from a properly formatted parameters file.">
<polygon fill="white" stroke="black" points="178,-0.5 178,-41.5 360,-41.5 360,-0.5 178,-0.5"/>
<text text-anchor="start" x="186" y="-29.5" font-family="Helvetica,sans-Serif" font-size="10.00">denoptim.gui.GAParameters</text>
<text text-anchor="start" x="186" y="-18.5" font-family="Helvetica,sans-Serif" font-size="10.00">Form.importParametersFromDenoptim</text>
<text text-anchor="middle" x="269" y="-7.5" font-family="Helvetica,sans-Serif" font-size="10.00">ParamsFile</text>
</a>
</g>
</g>
<!-- Node1&#45;&gt;Node5 -->
<g id="edge4" class="edge">
<title>Node1&#45;&gt;Node5</title>
<path fill="none" stroke="midnightblue" d="M102.62,-102.84C133.29,-87.67 181.03,-64.04 217.34,-46.07"/>
<polygon fill="midnightblue" stroke="midnightblue" points="218.9,-49.2 226.31,-41.63 215.8,-42.93 218.9,-49.2"/>
</g>
<!-- Node5&#45;&gt;Node5 -->
<g id="edge5" class="edge">
<title>Node5&#45;&gt;Node5</title>
<path fill="none" stroke="midnightblue" d="M232.61,-41.86C228.64,-51.54 240.77,-60 269,-60 286.64,-60 298,-56.7 303.06,-51.86"/>
<polygon fill="midnightblue" stroke="midnightblue" points="306.53,-52.4 305.39,-41.86 299.71,-50.81 306.53,-52.4"/>
</g>
</g>
</svg>
