<?xml version="1.0" encoding="UTF-8" standalone="no"?>
<!DOCTYPE svg PUBLIC "-//W3C//DTD SVG 1.1//EN"
 "http://www.w3.org/Graphics/SVG/1.1/DTD/svg11.dtd">
<!-- Generated by graphviz version 3.0.0 (20220413.0242)
 -->
<!-- Title: denoptim.graph.Template Pages: 1 -->
<svg width="1226pt" height="783pt"
 viewBox="0.00 0.00 1226.00 783.41" xmlns="http://www.w3.org/2000/svg" xmlns:xlink="http://www.w3.org/1999/xlink">
<g id="graph0" class="graph" transform="scale(1 1) rotate(0) translate(4 779.41)">
<title>denoptim.graph.Template</title>
<polygon fill="white" stroke="transparent" points="-4,4 -4,-779.41 1222,-779.41 1222,4 -4,4"/>
<!-- Node1 -->
<g id="node1" class="node">
<title>Node1</title>
<g id="a_node1"><a xlink:title=" ">
<polygon fill="#bfbfbf" stroke="black" points="1091.5,-152.91 1091.5,-171.91 1216.5,-171.91 1216.5,-152.91 1091.5,-152.91"/>
<text text-anchor="middle" x="1154" y="-159.91" font-family="Helvetica,sans-Serif" font-size="10.00">denoptim.graph.Template</text>
</a>
</g>
</g>
<!-- Node2 -->
<g id="node2" class="node">
<title>Node2</title>
<g id="a_node2"><a xlink:href="classdenoptim_1_1graph_1_1_vertex.html" target="_top" xlink:title="A vertex is a data structure that has an identity and holds a list of AttachmentPoints.">
<polygon fill="white" stroke="black" points="332.5,-304.91 332.5,-323.91 445.5,-323.91 445.5,-304.91 332.5,-304.91"/>
<text text-anchor="middle" x="389" y="-311.91" font-family="Helvetica,sans-Serif" font-size="10.00">denoptim.graph.Vertex</text>
</a>
</g>
</g>
<!-- Node2&#45;&gt;Node1 -->
<g id="edge1" class="edge">
<title>Node2&#45;&gt;Node1</title>
<path fill="none" stroke="midnightblue" d="M452.16,-303.05C485.6,-296.94 527.56,-289.26 565,-282.41 790.34,-241.14 850.12,-246.44 1072,-189.41 1090.81,-184.57 1111.58,-177.62 1127.38,-171.97"/>
<polygon fill="midnightblue" stroke="midnightblue" points="451.28,-299.65 442.07,-304.89 452.54,-306.54 451.28,-299.65"/>
</g>
<!-- Node13 -->
<g id="node13" class="node">
<title>Node13</title>
<g id="a_node13"><a xlink:href="classdenoptim_1_1graph_1_1_template.html" target="_top" xlink:title=" ">
<polygon fill="white" stroke="black" points="610,-215.91 610,-234.91 735,-234.91 735,-215.91 610,-215.91"/>
<text text-anchor="middle" x="672.5" y="-222.91" font-family="Helvetica,sans-Serif" font-size="10.00">denoptim.graph.Template</text>
</a>
</g>
</g>
<!-- Node2&#45;&gt;Node13 -->
<g id="edge16" class="edge">
<title>Node2&#45;&gt;Node13</title>
<path fill="none" stroke="midnightblue" d="M426.44,-301.4C465.09,-287.79 528.03,-266.1 583,-249.41 599.76,-244.32 618.45,-239.17 634.33,-234.96"/>
<polygon fill="midnightblue" stroke="midnightblue" points="424.95,-298.22 416.69,-304.85 427.28,-304.82 424.95,-298.22"/>
</g>
<!-- Node3 -->
<g id="node3" class="node">
<title>Node3</title>
<g id="a_node3"><a xlink:title=" ">
<polygon fill="white" stroke="black" points="52.5,-530.91 52.5,-549.91 111.5,-549.91 111.5,-530.91 52.5,-530.91"/>
<text text-anchor="middle" x="82" y="-537.91" font-family="Helvetica,sans-Serif" font-size="10.00">Cloneable</text>
</a>
</g>
</g>
<!-- Node3&#45;&gt;Node2 -->
<g id="edge2" class="edge">
<title>Node3&#45;&gt;Node2</title>
<path fill="none" stroke="midnightblue" d="M106.55,-525.17C145.66,-499.64 226.12,-446.11 291,-396.41 323.39,-371.6 359.62,-339.82 377.23,-324.11"/>
<polygon fill="midnightblue" stroke="midnightblue" points="104.44,-522.37 97.97,-530.76 108.26,-528.23 104.44,-522.37"/>
</g>
<!-- Node4 -->
<g id="node4" class="node">
<title>Node4</title>
<g id="a_node4"><a xlink:href="classdenoptim_1_1graph_1_1_d_graph.html" target="_top" xlink:title="Container for the list of vertices and the edges that connect them.">
<polygon fill="white" stroke="black" points="881,-459.91 881,-478.91 999,-478.91 999,-459.91 881,-459.91"/>
<text text-anchor="middle" x="940" y="-466.91" font-family="Helvetica,sans-Serif" font-size="10.00">denoptim.graph.DGraph</text>
</a>
</g>
</g>
<!-- Node3&#45;&gt;Node4 -->
<g id="edge4" class="edge">
<title>Node3&#45;&gt;Node4</title>
<path fill="none" stroke="midnightblue" d="M121.83,-539.16C225.7,-535.73 518.58,-525.48 762,-511.41 804.71,-508.94 816.45,-514.59 858,-504.41 880.91,-498.79 905.57,-487.27 921.58,-478.97"/>
<polygon fill="midnightblue" stroke="midnightblue" points="121.68,-535.66 111.8,-539.49 121.91,-542.66 121.68,-535.66"/>
</g>
<!-- Node10 -->
<g id="node10" class="node">
<title>Node10</title>
<g id="a_node10"><a xlink:href="classdenoptim_1_1graph_1_1_candidate.html" target="_top" xlink:title="A candidate is the combination of a denoptim graph with molecular representation and may include also...">
<polygon fill="white" stroke="black" points="1090,-482.91 1090,-501.91 1218,-501.91 1218,-482.91 1090,-482.91"/>
<text text-anchor="middle" x="1154" y="-489.91" font-family="Helvetica,sans-Serif" font-size="10.00">denoptim.graph.Candidate</text>
</a>
</g>
</g>
<!-- Node3&#45;&gt;Node10 -->
<g id="edge12" class="edge">
<title>Node3&#45;&gt;Node10</title>
<path fill="none" stroke="midnightblue" d="M94.24,-558.65C129.84,-613.86 246.12,-775.41 388,-775.41 388,-775.41 388,-775.41 941,-775.41 1080.66,-775.41 1139.52,-551.91 1150.9,-502.15"/>
<polygon fill="midnightblue" stroke="midnightblue" points="97.02,-556.49 88.72,-549.91 91.11,-560.23 97.02,-556.49"/>
</g>
<!-- Node4&#45;&gt;Node1 -->
<g id="edge30" class="edge">
<title>Node4&#45;&gt;Node1</title>
<path fill="none" stroke="#9a32cd" stroke-dasharray="5,2" d="M953.4,-451.45C993.09,-393.98 1116.16,-215.76 1146.29,-172.12"/>
<polygon fill="#9a32cd" stroke="#9a32cd" points="950.38,-449.66 947.58,-459.88 956.14,-453.64 950.38,-449.66"/>
<text text-anchor="middle" x="1047" y="-346.41" font-family="Helvetica,sans-Serif" font-size="10.00"> innerGraph</text>
</g>
<!-- Node4&#45;&gt;Node2 -->
<g id="edge3" class="edge">
<title>Node4&#45;&gt;Node2</title>
<path fill="none" stroke="#9a32cd" stroke-dasharray="5,2" d="M888.53,-480.97C817.82,-494.78 686.36,-511.68 583,-474.41 496.2,-443.11 420.81,-353.92 397.45,-324.19"/>
<polygon fill="#9a32cd" stroke="#9a32cd" points="889.4,-484.36 898.51,-478.96 888.02,-477.5 889.4,-484.36"/>
<text text-anchor="middle" x="672.5" y="-499.41" font-family="Helvetica,sans-Serif" font-size="10.00"> owner</text>
</g>
<!-- Node4&#45;&gt;Node10 -->
<g id="edge13" class="edge">
<title>Node4&#45;&gt;Node10</title>
<path fill="none" stroke="#9a32cd" stroke-dasharray="5,2" d="M1009.18,-460.7C1029.5,-459.6 1051.76,-459.89 1072,-463.41 1093.34,-467.11 1116.49,-475.92 1132.56,-482.87"/>
<polygon fill="#9a32cd" stroke="#9a32cd" points="1008.8,-457.21 999.06,-461.36 1009.26,-464.2 1008.8,-457.21"/>
<text text-anchor="middle" x="1047" y="-466.41" font-family="Helvetica,sans-Serif" font-size="10.00"> graph</text>
</g>
<!-- Node4&#45;&gt;Node13 -->
<g id="edge17" class="edge">
<title>Node4&#45;&gt;Node13</title>
<path fill="none" stroke="#9a32cd" stroke-dasharray="5,2" d="M934.92,-449.49C926.62,-413.79 904.47,-338.6 858,-295.41 822.37,-262.29 769.5,-244.37 729.48,-234.98"/>
<polygon fill="#9a32cd" stroke="#9a32cd" points="931.58,-450.59 937.15,-459.6 938.42,-449.09 931.58,-450.59"/>
<text text-anchor="middle" x="819" y="-298.41" font-family="Helvetica,sans-Serif" font-size="10.00"> innerGraph</text>
</g>
<!-- Node5 -->
<g id="node5" class="node">
<title>Node5</title>
<g id="a_node5"><a xlink:title=" ">
<polygon fill="white" stroke="black" points="606.5,-292.41 606.5,-322.41 738.5,-322.41 738.5,-292.41 606.5,-292.41"/>
<text text-anchor="start" x="614.5" y="-310.41" font-family="Helvetica,sans-Serif" font-size="10.00">ArrayList&lt; denoptim.graph.</text>
<text text-anchor="middle" x="672.5" y="-299.41" font-family="Helvetica,sans-Serif" font-size="10.00">Vertex &gt;</text>
</a>
</g>
</g>
<!-- Node5&#45;&gt;Node4 -->
<g id="edge5" class="edge">
<title>Node5&#45;&gt;Node4</title>
<path fill="none" stroke="#9a32cd" stroke-dasharray="5,2" d="M745.04,-325.76C750.85,-327.81 756.57,-330.02 762,-332.41 773.47,-337.43 848.1,-383.74 858,-391.41 886.4,-413.4 915.82,-444.07 930.12,-459.59"/>
<polygon fill="#9a32cd" stroke="#9a32cd" points="745.8,-322.32 735.21,-322.47 743.58,-328.96 745.8,-322.32"/>
<text text-anchor="middle" x="819" y="-394.41" font-family="Helvetica,sans-Serif" font-size="10.00"> gVertices</text>
</g>
<!-- Node6 -->
<g id="node6" class="node">
<title>Node6</title>
<g id="a_node6"><a xlink:title=" ">
<polygon fill="white" stroke="black" points="606.5,-716.41 606.5,-746.41 738.5,-746.41 738.5,-716.41 606.5,-716.41"/>
<text text-anchor="start" x="614.5" y="-734.41" font-family="Helvetica,sans-Serif" font-size="10.00">ArrayList&lt; denoptim.graph.</text>
<text text-anchor="middle" x="672.5" y="-723.41" font-family="Helvetica,sans-Serif" font-size="10.00">Edge &gt;</text>
</a>
</g>
</g>
<!-- Node6&#45;&gt;Node4 -->
<g id="edge6" class="edge">
<title>Node6&#45;&gt;Node4</title>
<path fill="none" stroke="#9a32cd" stroke-dasharray="5,2" d="M748.74,-738.75C786.88,-738.09 830.76,-729.84 858,-700.41 888.46,-667.5 850.39,-536.22 876,-499.41 882.5,-490.06 892.72,-483.53 903.06,-479.01"/>
<polygon fill="#9a32cd" stroke="#9a32cd" points="748.67,-735.25 738.68,-738.75 748.68,-742.25 748.67,-735.25"/>
<text text-anchor="middle" x="819" y="-738.41" font-family="Helvetica,sans-Serif" font-size="10.00"> gEdges</text>
</g>
<!-- Node7 -->
<g id="node7" class="node">
<title>Node7</title>
<g id="a_node7"><a xlink:title=" ">
<polygon fill="white" stroke="black" points="606.5,-667.41 606.5,-697.41 738.5,-697.41 738.5,-667.41 606.5,-667.41"/>
<text text-anchor="start" x="614.5" y="-685.41" font-family="Helvetica,sans-Serif" font-size="10.00">ArrayList&lt; denoptim.graph.</text>
<text text-anchor="middle" x="672.5" y="-674.41" font-family="Helvetica,sans-Serif" font-size="10.00">Ring &gt;</text>
</a>
</g>
</g>
<!-- Node7&#45;&gt;Node4 -->
<g id="edge7" class="edge">
<title>Node7&#45;&gt;Node4</title>
<path fill="none" stroke="#9a32cd" stroke-dasharray="5,2" d="M748.87,-688.96C786.81,-687.94 830.48,-679.42 858,-650.41 904.51,-601.36 836.59,-554.32 876,-499.41 882.71,-490.06 893.12,-483.52 903.55,-478.99"/>
<polygon fill="#9a32cd" stroke="#9a32cd" points="748.81,-685.47 738.85,-689.07 748.88,-692.46 748.81,-685.47"/>
<text text-anchor="middle" x="819" y="-688.41" font-family="Helvetica,sans-Serif" font-size="10.00"> gRings</text>
</g>
<!-- Node8 -->
<g id="node8" class="node">
<title>Node8</title>
<g id="a_node8"><a xlink:title=" ">
<polygon fill="white" stroke="black" points="595,-618.41 595,-648.41 750,-648.41 750,-618.41 595,-618.41"/>
<text text-anchor="start" x="603" y="-636.41" font-family="Helvetica,sans-Serif" font-size="10.00">ArrayList&lt; denoptim.graph.rings.</text>
<text text-anchor="middle" x="672.5" y="-625.41" font-family="Helvetica,sans-Serif" font-size="10.00">ClosableChain &gt;</text>
</a>
</g>
</g>
<!-- Node8&#45;&gt;Node4 -->
<g id="edge8" class="edge">
<title>Node8&#45;&gt;Node4</title>
<path fill="none" stroke="#9a32cd" stroke-dasharray="5,2" d="M760.25,-638.7C794.96,-636.14 832.65,-626.69 858,-601.41 890.6,-568.9 848.12,-536.04 876,-499.41 883.12,-490.06 893.88,-483.48 904.52,-478.93"/>
<polygon fill="#9a32cd" stroke="#9a32cd" points="759.86,-635.22 750.07,-639.27 760.25,-642.21 759.86,-635.22"/>
<text text-anchor="middle" x="819" y="-638.41" font-family="Helvetica,sans-Serif" font-size="10.00"> closableChains</text>
</g>
<!-- Node9 -->
<g id="node9" class="node">
<title>Node9</title>
<g id="a_node9"><a xlink:title=" ">
<polygon fill="white" stroke="black" points="606.5,-569.41 606.5,-599.41 738.5,-599.41 738.5,-569.41 606.5,-569.41"/>
<text text-anchor="start" x="614.5" y="-587.41" font-family="Helvetica,sans-Serif" font-size="10.00">ArrayList&lt; denoptim.graph.</text>
<text text-anchor="middle" x="672.5" y="-576.41" font-family="Helvetica,sans-Serif" font-size="10.00">SymmetricSet &gt;</text>
</a>
</g>
</g>
<!-- Node9&#45;&gt;Node4 -->
<g id="edge9" class="edge">
<title>Node9&#45;&gt;Node4</title>
<path fill="none" stroke="#9a32cd" stroke-dasharray="5,2" d="M748.74,-589.47C785.56,-587.99 828.25,-579.87 858,-554.41 877.54,-537.68 859.01,-518.72 876,-499.41 884.08,-490.22 895.59,-483.61 906.57,-478.98"/>
<polygon fill="#9a32cd" stroke="#9a32cd" points="748.43,-585.97 738.52,-589.71 748.6,-592.97 748.43,-585.97"/>
<text text-anchor="middle" x="819" y="-589.41" font-family="Helvetica,sans-Serif" font-size="10.00"> symVertices</text>
</g>
<!-- Node10&#45;&gt;Node4 -->
<g id="edge10" class="edge">
<title>Node10&#45;&gt;Node4</title>
<path fill="none" stroke="#9a32cd" stroke-dasharray="5,2" d="M1079.43,-484.43C1053.18,-481.58 1023.99,-478.41 999.21,-475.72"/>
<polygon fill="#9a32cd" stroke="#9a32cd" points="1079.39,-487.94 1089.71,-485.54 1080.15,-480.98 1079.39,-487.94"/>
<text text-anchor="middle" x="1047" y="-485.41" font-family="Helvetica,sans-Serif" font-size="10.00"> candidate</text>
</g>
<!-- Node11 -->
<g id="node11" class="node">
<title>Node11</title>
<g id="a_node11"><a xlink:title=" ">
<polygon fill="white" stroke="black" points="876,-508.91 876,-527.91 1004,-527.91 1004,-508.91 876,-508.91"/>
<text text-anchor="middle" x="940" y="-515.91" font-family="Helvetica,sans-Serif" font-size="10.00">Comparable&lt; Candidate &gt;</text>
</a>
</g>
</g>
<!-- Node11&#45;&gt;Node10 -->
<g id="edge11" class="edge">
<title>Node11&#45;&gt;Node10</title>
<path fill="none" stroke="midnightblue" d="M1014.06,-509.45C1038.72,-506.42 1066.02,-503.07 1089.84,-500.15"/>
<polygon fill="midnightblue" stroke="midnightblue" points="1013.53,-505.99 1004.03,-510.68 1014.38,-512.93 1013.53,-505.99"/>
</g>
<!-- Node12 -->
<g id="node12" class="node">
<title>Node12</title>
<g id="a_node12"><a xlink:title=" ">
<polygon fill="white" stroke="black" points="347,-59.91 347,-78.91 431,-78.91 431,-59.91 347,-59.91"/>
<text text-anchor="middle" x="389" y="-66.91" font-family="Helvetica,sans-Serif" font-size="10.00">IAtomContainer</text>
</a>
</g>
</g>
<!-- Node12&#45;&gt;Node1 -->
<g id="edge31" class="edge">
<title>Node12&#45;&gt;Node1</title>
<path fill="none" stroke="#9a32cd" stroke-dasharray="5,2" d="M441.34,-60.48C549.15,-43.89 805.55,-15.86 1004,-84.41 1056.16,-102.42 1112.52,-136.35 1138.44,-152.88"/>
<polygon fill="#9a32cd" stroke="#9a32cd" points="440.71,-57.03 431.37,-62.04 441.79,-63.95 440.71,-57.03"/>
<text text-anchor="middle" x="819" y="-53.41" font-family="Helvetica,sans-Serif" font-size="10.00"> mol</text>
</g>
<!-- Node12&#45;&gt;Node10 -->
<g id="edge14" class="edge">
<title>Node12&#45;&gt;Node10</title>
<path fill="none" stroke="#9a32cd" stroke-dasharray="5,2" d="M441.25,-69.06C529.73,-70.17 715.33,-80.13 858,-139.41 964.33,-183.58 1000.27,-195.34 1072,-285.41 1123.45,-350.01 1145.48,-451.25 1151.33,-482.74"/>
<polygon fill="#9a32cd" stroke="#9a32cd" points="441.24,-65.56 431.21,-68.96 441.18,-72.56 441.24,-65.56"/>
<text text-anchor="middle" x="819" y="-142.41" font-family="Helvetica,sans-Serif" font-size="10.00"> iac</text>
</g>
<!-- Node12&#45;&gt;Node13 -->
<g id="edge18" class="edge">
<title>Node12&#45;&gt;Node13</title>
<path fill="none" stroke="#9a32cd" stroke-dasharray="5,2" d="M416.26,-83.96C473.16,-115.49 606.52,-189.39 654.18,-215.81"/>
<polygon fill="#9a32cd" stroke="#9a32cd" points="417.63,-80.72 407.19,-78.93 414.24,-86.84 417.63,-80.72"/>
<text text-anchor="middle" x="526" y="-169.41" font-family="Helvetica,sans-Serif" font-size="10.00"> mol</text>
</g>
<!-- Node13&#45;&gt;Node4 -->
<g id="edge15" class="edge">
<title>Node13&#45;&gt;Node4</title>
<path fill="none" stroke="#9a32cd" stroke-dasharray="5,2" d="M701.82,-239.84C720.27,-250.12 744.13,-265.12 762,-282.41 772.1,-292.18 768.51,-300.31 780,-308.41 809.34,-329.09 829.52,-307.55 858,-329.41 904.11,-364.8 928.61,-434.49 936.3,-459.87"/>
<polygon fill="#9a32cd" stroke="#9a32cd" points="703.45,-236.75 692.99,-235.05 700.11,-242.9 703.45,-236.75"/>
<text text-anchor="middle" x="819" y="-332.41" font-family="Helvetica,sans-Serif" font-size="10.00"> templateJacket</text>
</g>
<!-- Node14 -->
<g id="node14" class="node">
<title>Node14</title>
<g id="a_node14"><a xlink:href="enumdenoptim_1_1graph_1_1_template_1_1_contract_level.html" target="_top" xlink:title="Enum specifying to what extent the template&#39;s inner graph can be changed.">
<polygon fill="white" stroke="black" points="325,-221.41 325,-251.41 453,-251.41 453,-221.41 325,-221.41"/>
<text text-anchor="start" x="333" y="-239.41" font-family="Helvetica,sans-Serif" font-size="10.00">denoptim.graph.Template.</text>
<text text-anchor="middle" x="389" y="-228.41" font-family="Helvetica,sans-Serif" font-size="10.00">ContractLevel</text>
</a>
</g>
</g>
<!-- Node14&#45;&gt;Node1 -->
<g id="edge32" class="edge">
<title>Node14&#45;&gt;Node1</title>
<path fill="none" stroke="#9a32cd" stroke-dasharray="5,2" d="M433.24,-217.68C449.75,-211.37 468.95,-205.01 487,-201.41 742.26,-150.45 812.79,-197.17 1072,-173.41 1078.22,-172.84 1084.69,-172.14 1091.15,-171.37"/>
<polygon fill="#9a32cd" stroke="#9a32cd" points="431.88,-214.45 423.85,-221.37 434.44,-220.97 431.88,-214.45"/>
<text text-anchor="middle" x="819" y="-183.41" font-family="Helvetica,sans-Serif" font-size="10.00"> contractLevel</text>
</g>
<!-- Node14&#45;&gt;Node13 -->
<g id="edge19" class="edge">
<title>Node14&#45;&gt;Node13</title>
<path fill="none" stroke="#9a32cd" stroke-dasharray="5,2" d="M463.58,-235.42C494.86,-234.83 531.72,-233.88 565,-232.41 579.53,-231.76 595.17,-230.86 609.86,-229.91"/>
<polygon fill="#9a32cd" stroke="#9a32cd" points="463.14,-231.93 453.2,-235.61 463.27,-238.93 463.14,-231.93"/>
<text text-anchor="middle" x="526" y="-238.41" font-family="Helvetica,sans-Serif" font-size="10.00"> contractLevel</text>
</g>
<!-- Node15 -->
<g id="node15" class="node">
<title>Node15</title>
<g id="a_node15"><a xlink:title=" ">
<polygon fill="white" stroke="black" points="309,-1.41 309,-31.41 469,-31.41 469,-1.41 309,-1.41"/>
<text text-anchor="start" x="317" y="-19.41" font-family="Helvetica,sans-Serif" font-size="10.00">List&lt; denoptim.graph.Attachment</text>
<text text-anchor="middle" x="389" y="-8.41" font-family="Helvetica,sans-Serif" font-size="10.00">Point &gt;</text>
</a>
</g>
</g>
<!-- Node15&#45;&gt;Node1 -->
<g id="edge33" class="edge">
<title>Node15&#45;&gt;Node1</title>
<path fill="none" stroke="#9a32cd" stroke-dasharray="5,2" d="M479.11,-6.86C601.1,3 825.33,9.58 1004,-50.41 1066.28,-71.32 1123.48,-129.49 1144.49,-152.68"/>
<polygon fill="#9a32cd" stroke="#9a32cd" points="478.74,-3.38 469.06,-7.7 479.32,-10.35 478.74,-3.38"/>
<text text-anchor="middle" x="819" y="-18.41" font-family="Helvetica,sans-Serif" font-size="10.00"> requiredAPs</text>
</g>
<!-- Node15&#45;&gt;Node13 -->
<g id="edge20" class="edge">
<title>Node15&#45;&gt;Node13</title>
<path fill="none" stroke="#9a32cd" stroke-dasharray="5,2" d="M437.71,-35.62C448.16,-40.19 459.06,-45.25 469,-50.41 513.45,-73.48 526.36,-77.55 565,-109.41 606.97,-144.02 648.05,-194.92 664.25,-215.86"/>
<polygon fill="#9a32cd" stroke="#9a32cd" points="438.86,-32.3 428.29,-31.57 436.1,-38.73 438.86,-32.3"/>
<text text-anchor="middle" x="526" y="-112.41" font-family="Helvetica,sans-Serif" font-size="10.00"> requiredAPs</text>
</g>
<!-- Node16 -->
<g id="node16" class="node">
<title>Node16</title>
<g id="a_node16"><a xlink:href="classdenoptim_1_1graph_1_1_a_p_tree_map.html" target="_top" xlink:title="Attachment point mapping where keys are sorted by natural ordering, i.e., by AttachmentPoint#compareT...">
<polygon fill="white" stroke="black" points="320.5,-173.91 320.5,-192.91 457.5,-192.91 457.5,-173.91 320.5,-173.91"/>
<text text-anchor="middle" x="389" y="-180.91" font-family="Helvetica,sans-Serif" font-size="10.00">denoptim.graph.APTreeMap</text>
</a>
</g>
</g>
<!-- Node16&#45;&gt;Node1 -->
<g id="edge34" class="edge">
<title>Node16&#45;&gt;Node1</title>
<path fill="none" stroke="#9a32cd" stroke-dasharray="5,2" d="M467.86,-175.91C546.51,-168.74 671.56,-158.43 780,-154.41 814.64,-153.12 823.34,-153.94 858,-154.41 938.69,-155.5 1031.75,-158.28 1091.42,-160.25"/>
<polygon fill="#9a32cd" stroke="#9a32cd" points="467.19,-172.45 457.55,-176.85 467.83,-179.43 467.19,-172.45"/>
<text text-anchor="middle" x="819" y="-157.41" font-family="Helvetica,sans-Serif" font-size="10.00"> innerToOuterAPs</text>
</g>
<!-- Node16&#45;&gt;Node13 -->
<g id="edge21" class="edge">
<title>Node16&#45;&gt;Node13</title>
<path fill="none" stroke="#9a32cd" stroke-dasharray="5,2" d="M463.96,-194.44C509.37,-201.22 566.86,-209.79 609.81,-216.2"/>
<polygon fill="#9a32cd" stroke="#9a32cd" points="464.28,-190.95 453.88,-192.94 463.25,-197.87 464.28,-190.95"/>
<text text-anchor="middle" x="526" y="-212.41" font-family="Helvetica,sans-Serif" font-size="10.00"> innerToOuterAPs</text>
</g>
<!-- Node17 -->
<g id="node17" class="node">
<title>Node17</title>
<g id="a_node17"><a xlink:title=" ">
<polygon fill="white" stroke="black" points="12.5,-168.41 12.5,-198.41 151.5,-198.41 151.5,-168.41 12.5,-168.41"/>
<text text-anchor="start" x="20.5" y="-186.41" font-family="Helvetica,sans-Serif" font-size="10.00">TreeMap&lt; AttachmentPoint,</text>
<text text-anchor="middle" x="82" y="-175.41" font-family="Helvetica,sans-Serif" font-size="10.00"> AttachmentPoint &gt;</text>
</a>
</g>
</g>
<!-- Node17&#45;&gt;Node16 -->
<g id="edge22" class="edge">
<title>Node17&#45;&gt;Node16</title>
<path fill="none" stroke="midnightblue" d="M162.1,-183.41C211.22,-183.41 273.68,-183.41 320.47,-183.41"/>
<polygon fill="midnightblue" stroke="midnightblue" points="161.83,-179.91 151.83,-183.41 161.83,-186.91 161.83,-179.91"/>
</g>
<!-- Node18 -->
<g id="node18" class="node">
<title>Node18</title>
<g id="a_node18"><a xlink:title=" ">
<polygon fill="white" stroke="black" points="584,-412.41 584,-464.41 761,-464.41 761,-412.41 584,-412.41"/>
<text text-anchor="start" x="592" y="-452.41" font-family="Helvetica,sans-Serif" font-size="10.00">DefaultUndirectedGraph</text>
<text text-anchor="start" x="592" y="-441.41" font-family="Helvetica,sans-Serif" font-size="10.00">&lt; denoptim.graph.Vertex,</text>
<text text-anchor="start" x="592" y="-430.41" font-family="Helvetica,sans-Serif" font-size="10.00"> denoptim.graph.simplified.Undirected</text>
<text text-anchor="middle" x="672.5" y="-419.41" font-family="Helvetica,sans-Serif" font-size="10.00">Edge &gt;</text>
</a>
</g>
</g>
<!-- Node18&#45;&gt;Node4 -->
<g id="edge23" class="edge">
<title>Node18&#45;&gt;Node4</title>
<path fill="none" stroke="#9a32cd" stroke-dasharray="5,2" d="M771.42,-449.84C808.14,-454.13 848.7,-458.86 880.71,-462.6"/>
<polygon fill="#9a32cd" stroke="#9a32cd" points="771.51,-446.33 761.17,-448.64 770.7,-453.28 771.51,-446.33"/>
<text text-anchor="middle" x="819" y="-461.41" font-family="Helvetica,sans-Serif" font-size="10.00"> jGraph</text>
</g>
<!-- Node19 -->
<g id="node19" class="node">
<title>Node19</title>
<g id="a_node19"><a xlink:title=" ">
<polygon fill="white" stroke="black" points="583,-341.41 583,-393.41 762,-393.41 762,-341.41 583,-341.41"/>
<text text-anchor="start" x="591" y="-381.41" font-family="Helvetica,sans-Serif" font-size="10.00">DefaultUndirectedGraph</text>
<text text-anchor="start" x="591" y="-370.41" font-family="Helvetica,sans-Serif" font-size="10.00">&lt; denoptim.graph.simplified.</text>
<text text-anchor="start" x="591" y="-359.41" font-family="Helvetica,sans-Serif" font-size="10.00">Node, denoptim.graph.simplified.Node</text>
<text text-anchor="middle" x="672.5" y="-348.41" font-family="Helvetica,sans-Serif" font-size="10.00">Connection &gt;</text>
</a>
</g>
</g>
<!-- Node19&#45;&gt;Node4 -->
<g id="edge24" class="edge">
<title>Node19&#45;&gt;Node4</title>
<path fill="none" stroke="#9a32cd" stroke-dasharray="5,2" d="M756.25,-397.02C788.17,-408.67 824.9,-422.37 858,-435.41 878.01,-443.29 900.55,-452.8 916.76,-459.76"/>
<polygon fill="#9a32cd" stroke="#9a32cd" points="757.11,-393.61 746.51,-393.47 754.71,-400.18 757.11,-393.61"/>
<text text-anchor="middle" x="819" y="-438.41" font-family="Helvetica,sans-Serif" font-size="10.00"> jGraphKernel</text>
</g>
<!-- Node20 -->
<g id="node20" class="node">
<title>Node20</title>
<g id="a_node20"><a xlink:href="enumdenoptim_1_1graph_1_1_vertex_1_1_b_b_type.html" target="_top" xlink:title="The type of building block.">
<polygon fill="white" stroke="black" points="7.5,-304.91 7.5,-323.91 156.5,-323.91 156.5,-304.91 7.5,-304.91"/>
<text text-anchor="middle" x="82" y="-311.91" font-family="Helvetica,sans-Serif" font-size="10.00">denoptim.graph.Vertex.BBType</text>
</a>
</g>
</g>
<!-- Node20&#45;&gt;Node2 -->
<g id="edge25" class="edge">
<title>Node20&#45;&gt;Node2</title>
<path fill="none" stroke="#9a32cd" stroke-dasharray="5,2" d="M167.15,-314.41C219.7,-314.41 285.89,-314.41 332.05,-314.41"/>
<polygon fill="#9a32cd" stroke="#9a32cd" points="166.83,-310.91 156.83,-314.41 166.83,-317.91 166.83,-310.91"/>
<text text-anchor="middle" x="236.5" y="-317.41" font-family="Helvetica,sans-Serif" font-size="10.00"> buildingBlockType</text>
</g>
<!-- Node21 -->
<g id="node21" class="node">
<title>Node21</title>
<g id="a_node21"><a xlink:title=" ">
<polygon fill="white" stroke="black" points="25,-266.91 25,-285.91 139,-285.91 139,-266.91 25,-266.91"/>
<text text-anchor="middle" x="82" y="-273.91" font-family="Helvetica,sans-Serif" font-size="10.00">Map&lt; Object, Object &gt;</text>
</a>
</g>
</g>
<!-- Node21&#45;&gt;Node2 -->
<g id="edge26" class="edge">
<title>Node21&#45;&gt;Node2</title>
<path fill="none" stroke="#9a32cd" stroke-dasharray="5,2" d="M149.25,-282.99C190.16,-287.24 243.69,-293.14 291,-299.41 304.43,-301.19 318.87,-303.31 332.41,-305.39"/>
<polygon fill="#9a32cd" stroke="#9a32cd" points="149.44,-279.5 139.14,-281.95 148.73,-286.46 149.44,-279.5"/>
<text text-anchor="middle" x="236.5" y="-302.41" font-family="Helvetica,sans-Serif" font-size="10.00"> properties</text>
</g>
<!-- Node22 -->
<g id="node22" class="node">
<title>Node22</title>
<g id="a_node22"><a xlink:title=" ">
<polygon fill="white" stroke="black" points="45,-228.91 45,-247.91 119,-247.91 119,-228.91 45,-228.91"/>
<text text-anchor="middle" x="82" y="-235.91" font-family="Helvetica,sans-Serif" font-size="10.00">Set&lt; String &gt;</text>
</a>
</g>
</g>
<!-- Node22&#45;&gt;Node2 -->
<g id="edge27" class="edge">
<title>Node22&#45;&gt;Node2</title>
<path fill="none" stroke="#9a32cd" stroke-dasharray="5,2" d="M129.38,-242.68C172.02,-247.38 236.67,-256.47 291,-272.41 319.35,-280.72 350.41,-295.19 369.55,-304.78"/>
<polygon fill="#9a32cd" stroke="#9a32cd" points="129.62,-239.18 119.3,-241.6 128.87,-246.14 129.62,-239.18"/>
<text text-anchor="middle" x="236.5" y="-275.41" font-family="Helvetica,sans-Serif" font-size="10.00"> uniquefyingPropertyKeys</text>
</g>
<!-- Node23 -->
<g id="node23" class="node">
<title>Node23</title>
<g id="a_node23"><a xlink:title=" ">
<polygon fill="white" stroke="black" points="11.5,-381.41 11.5,-411.41 152.5,-411.41 152.5,-381.41 11.5,-381.41"/>
<text text-anchor="start" x="19.5" y="-399.41" font-family="Helvetica,sans-Serif" font-size="10.00">List&lt; denoptim.utils.Mutation</text>
<text text-anchor="middle" x="82" y="-388.41" font-family="Helvetica,sans-Serif" font-size="10.00">Type &gt;</text>
</a>
</g>
</g>
<!-- Node23&#45;&gt;Node2 -->
<g id="edge28" class="edge">
<title>Node23&#45;&gt;Node2</title>
<path fill="none" stroke="#9a32cd" stroke-dasharray="5,2" d="M163.11,-385.84C202.21,-379.56 249.61,-370.27 291,-357.41 319.5,-348.55 350.77,-333.68 369.9,-323.96"/>
<polygon fill="#9a32cd" stroke="#9a32cd" points="162.18,-382.44 152.84,-387.45 163.26,-389.36 162.18,-382.44"/>
<text text-anchor="middle" x="236.5" y="-384.41" font-family="Helvetica,sans-Serif" font-size="10.00"> allowedMutationTypes</text>
</g>
<!-- Node24 -->
<g id="node24" class="node">
<title>Node24</title>
<g id="a_node24"><a xlink:href="enumdenoptim_1_1graph_1_1_vertex_1_1_vertex_type.html" target="_top" xlink:title="Flag declaring the type of Vertex implementation.">
<polygon fill="white" stroke="black" points="0,-342.91 0,-361.91 164,-361.91 164,-342.91 0,-342.91"/>
<text text-anchor="middle" x="82" y="-349.91" font-family="Helvetica,sans-Serif" font-size="10.00">denoptim.graph.Vertex.VertexType</text>
</a>
</g>
</g>
<!-- Node24&#45;&gt;Node2 -->
<g id="edge29" class="edge">
<title>Node24&#45;&gt;Node2</title>
<path fill="none" stroke="#9a32cd" stroke-dasharray="5,2" d="M174.2,-343.19C210.58,-339.28 252.81,-334.47 291,-329.41 304.43,-327.63 318.87,-325.51 332.41,-323.43"/>
<polygon fill="#9a32cd" stroke="#9a32cd" points="173.67,-339.72 164.1,-344.26 174.41,-346.68 173.67,-339.72"/>
<text text-anchor="middle" x="236.5" y="-345.41" font-family="Helvetica,sans-Serif" font-size="10.00"> vertexType</text>
</g>
</g>
</svg>
