<?xml version="1.0" encoding="UTF-8" standalone="no"?>
<!DOCTYPE svg PUBLIC "-//W3C//DTD SVG 1.1//EN"
 "http://www.w3.org/Graphics/SVG/1.1/DTD/svg11.dtd">
<!-- Generated by graphviz version 3.0.0 (20220413.0242)
 -->
<!-- Title: denoptim.graph.rings.PathSubGraph.getVertecesPath Pages: 1 -->
<!--zoomable 504 -->
<svg id="main" version="1.1" xmlns="http://www.w3.org/2000/svg" xmlns:xlink="http://www.w3.org/1999/xlink" xml:space="preserve" onload="init(evt)">
<style type="text/css"><![CDATA[
.edge:hover path { stroke: red; }
.edge:hover polygon { stroke: red; fill: red; }
]]></style>
<script type="text/javascript"><![CDATA[
var edges = document.getElementsByTagName('g');
if (edges && edges.length) {
  for (var i=0;i<edges.length;i++) {
    if (edges[i].id.substr(0,4)=='edge') {
      edges[i].setAttribute('class','edge');
    }
  }
}
]]></script>
        <defs>
                <circle id="rim" cx="0" cy="0" r="7"/>
                <circle id="rim2" cx="0" cy="0" r="3.5"/>
                <g id="zoomPlus">
                        <use xlink:href="#rim" fill="#404040">
                                <set attributeName="fill" to="#808080" begin="zoomplus.mouseover" end="zoomplus.mouseout"/>
                        </use>
                        <path d="M-4,0h8M0,-4v8" fill="none" stroke="white" stroke-width="1.5" pointer-events="none"/>
                </g>
                <g id="zoomMin">
                        <use xlink:href="#rim" fill="#404040">
                                <set attributeName="fill" to="#808080" begin="zoomminus.mouseover" end="zoomminus.mouseout"/>
                        </use>
                        <path d="M-4,0h8" fill="none" stroke="white" stroke-width="1.5" pointer-events="none"/>
                </g>
                <g id="dirArrow">
                        <path fill="none" stroke="white" stroke-width="1.5" d="M0,-3.0v7 M-2.5,-0.5L0,-3.0L2.5,-0.5"/>
                </g>
               <g id="resetDef">
                       <use xlink:href="#rim2" fill="#404040">
                               <set attributeName="fill" to="#808080" begin="reset.mouseover" end="reset.mouseout"/>
                       </use>
               </g>
        </defs>

<script type="text/javascript">
var viewWidth = 1582;
var viewHeight = 504;
var sectionId = 'dynsection-13';
</script>
<script xlink:href="svgpan.js"/>
<svg id="graph" class="graph">
<g id="viewport">
<title>denoptim.graph.rings.PathSubGraph.getVertecesPath</title>
<polygon fill="white" stroke="transparent" points="-4,4 -4,-499.5 1578,-499.5 1578,4 -4,4"/>
<!-- Node1 -->
<g id="node1" class="node">
<title>Node1</title>
<g id="a_node1"><a xlink:title="Returns the list of verteces involved.">
<polygon fill="#bfbfbf" stroke="black" points="1439,-343.5 1439,-373.5 1574,-373.5 1574,-343.5 1439,-343.5"/>
<text text-anchor="start" x="1447" y="-361.5" font-family="Helvetica,sans-Serif" font-size="10.00">denoptim.graph.rings.Path</text>
<text text-anchor="middle" x="1506.5" y="-350.5" font-family="Helvetica,sans-Serif" font-size="10.00">SubGraph.getVertecesPath</text>
</a>
</g>
</g>
<!-- Node2 -->
<g id="node2" class="node">
<title>Node2</title>
<g id="a_node2"><a xlink:href="classdenoptim_1_1graph_1_1_d_graph.html#a8277ba4543db54ffc23e2ef24201c318" target="_top" xlink:title="Adds a chord between the given vertices, thus adding a ring in this graph.">
<polygon fill="white" stroke="black" points="1232,-476 1232,-495 1387,-495 1387,-476 1232,-476"/>
<text text-anchor="middle" x="1309.5" y="-483" font-family="Helvetica,sans-Serif" font-size="10.00">denoptim.graph.DGraph.addRing</text>
</a>
</g>
</g>
<!-- Node1&#45;&gt;Node2 -->
<g id="edge1" class="edge">
<title>Node1&#45;&gt;Node2</title>
<path fill="none" stroke="midnightblue" d="M1489.85,-382.07C1471.93,-407.1 1440.19,-445.84 1403,-466.5 1395.98,-470.4 1388.25,-473.5 1380.36,-475.97"/>
<polygon fill="midnightblue" stroke="midnightblue" points="1492.75,-384.04 1495.6,-373.84 1487.01,-380.04 1492.75,-384.04"/>
</g>
<!-- Node3 -->
<g id="node3" class="node">
<title>Node3</title>
<g id="a_node3"><a xlink:href="classdenoptim_1_1graph_1_1rings_1_1_cyclic_graph_handler.html#a2aa15d52ae538b188798e4e8bcfc30b9" target="_top" xlink:title="Recursive method to identify all the combination of rings.">
<polygon fill="white" stroke="black" points="1216,-398 1216,-439 1403,-439 1403,-398 1216,-398"/>
<text text-anchor="start" x="1224" y="-427" font-family="Helvetica,sans-Serif" font-size="10.00">denoptim.graph.rings.Cyclic</text>
<text text-anchor="start" x="1224" y="-416" font-family="Helvetica,sans-Serif" font-size="10.00">GraphHandler.combineCompatPathSub</text>
<text text-anchor="middle" x="1309.5" y="-405" font-family="Helvetica,sans-Serif" font-size="10.00">Graphs</text>
</a>
</g>
</g>
<!-- Node1&#45;&gt;Node3 -->
<g id="edge2" class="edge">
<title>Node1&#45;&gt;Node3</title>
<path fill="none" stroke="midnightblue" d="M1446.71,-376.59C1424.79,-383.33 1399.74,-391.04 1377.16,-397.99"/>
<polygon fill="midnightblue" stroke="midnightblue" points="1448.02,-379.85 1456.54,-373.56 1445.96,-373.16 1448.02,-379.85"/>
</g>
<!-- Node16 -->
<g id="node16" class="node">
<title>Node16</title>
<g id="a_node16"><a xlink:href="classdenoptim_1_1graph_1_1rings_1_1_cyclic_graph_handler.html#a08b02946eaac7c2cbbe6e71332d702e6" target="_top" xlink:title="Identifies a random combination of ring closing paths and returns it as list of DENOPTIMRings ready t...">
<polygon fill="white" stroke="black" points="1218.5,-338 1218.5,-379 1400.5,-379 1400.5,-338 1218.5,-338"/>
<text text-anchor="start" x="1226.5" y="-367" font-family="Helvetica,sans-Serif" font-size="10.00">denoptim.graph.rings.Cyclic</text>
<text text-anchor="start" x="1226.5" y="-356" font-family="Helvetica,sans-Serif" font-size="10.00">GraphHandler.getRandomCombination</text>
<text text-anchor="middle" x="1309.5" y="-345" font-family="Helvetica,sans-Serif" font-size="10.00">OfRings</text>
</a>
</g>
</g>
<!-- Node1&#45;&gt;Node16 -->
<g id="edge18" class="edge">
<title>Node1&#45;&gt;Node16</title>
<path fill="none" stroke="midnightblue" d="M1428.65,-358.5C1419.43,-358.5 1409.95,-358.5 1400.56,-358.5"/>
<polygon fill="midnightblue" stroke="midnightblue" points="1428.94,-362 1438.94,-358.5 1428.94,-355 1428.94,-362"/>
</g>
<!-- Node17 -->
<g id="node17" class="node">
<title>Node17</title>
<g id="a_node17"><a xlink:href="classdenoptim_1_1ga_1_1_graph_operations.html#a65b1468961ba53b217848640d8fd5232" target="_top" xlink:title="Given a pair of seed vertexes that define where a pair of subgraphs stars in the corresponding origin...">
<polygon fill="white" stroke="black" points="1218.5,-289.5 1218.5,-319.5 1400.5,-319.5 1400.5,-289.5 1218.5,-289.5"/>
<text text-anchor="start" x="1226.5" y="-307.5" font-family="Helvetica,sans-Serif" font-size="10.00">denoptim.ga.GraphOperations.process</text>
<text text-anchor="middle" x="1309.5" y="-296.5" font-family="Helvetica,sans-Serif" font-size="10.00">PermutationOfEndPoints</text>
</a>
</g>
</g>
<!-- Node1&#45;&gt;Node17 -->
<g id="edge20" class="edge">
<title>Node1&#45;&gt;Node17</title>
<path fill="none" stroke="midnightblue" d="M1445.34,-340.56C1431.46,-336.51 1416.74,-332.29 1403,-328.5 1392.28,-325.54 1380.84,-322.49 1369.79,-319.59"/>
<polygon fill="midnightblue" stroke="midnightblue" points="1444.7,-344.01 1455.28,-343.47 1446.66,-337.3 1444.7,-344.01"/>
</g>
<!-- Node27 -->
<g id="node27" class="node">
<title>Node27</title>
<g id="a_node27"><a xlink:href="classdenoptim_1_1graph_1_1_d_graph.html#aefca90eb3594e935ee283f1e56fec5b4" target="_top" xlink:title="Replaced the subgraph represented by a given collection of vertices that belong to this graph.">
<polygon fill="white" stroke="black" points="1233.5,-147.5 1233.5,-177.5 1385.5,-177.5 1385.5,-147.5 1233.5,-147.5"/>
<text text-anchor="start" x="1241.5" y="-165.5" font-family="Helvetica,sans-Serif" font-size="10.00">denoptim.graph.DGraph.replace</text>
<text text-anchor="middle" x="1309.5" y="-154.5" font-family="Helvetica,sans-Serif" font-size="10.00">SingleSubGraph</text>
</a>
</g>
</g>
<!-- Node1&#45;&gt;Node27 -->
<g id="edge32" class="edge">
<title>Node1&#45;&gt;Node27</title>
<path fill="none" stroke="midnightblue" d="M1483.09,-335.97C1442.9,-295.58 1359.61,-211.86 1325.53,-177.61"/>
<polygon fill="midnightblue" stroke="midnightblue" points="1480.99,-338.83 1490.52,-343.45 1485.95,-333.89 1480.99,-338.83"/>
</g>
<!-- Node3&#45;&gt;Node3 -->
<g id="edge3" class="edge">
<title>Node3&#45;&gt;Node3</title>
<path fill="none" stroke="midnightblue" d="M1343.22,-449.36C1338.21,-454.2 1326.97,-457.5 1309.5,-457.5 1281.55,-457.5 1269.55,-449.04 1273.48,-439.36"/>
<polygon fill="midnightblue" stroke="midnightblue" points="1346.69,-449.9 1345.52,-439.36 1339.87,-448.32 1346.69,-449.9"/>
</g>
<!-- Node4 -->
<g id="node4" class="node">
<title>Node4</title>
<g id="a_node4"><a xlink:href="classdenoptim_1_1graph_1_1rings_1_1_cyclic_graph_handler.html#a3ce96322723f45d9285a248ebcef94d3" target="_top" xlink:title="Identifies all possible ring closing paths and returns them as list of DENOPTIMRings ready to be appe...">
<polygon fill="white" stroke="black" points="996,-398 996,-439 1180,-439 1180,-398 996,-398"/>
<text text-anchor="start" x="1004" y="-427" font-family="Helvetica,sans-Serif" font-size="10.00">denoptim.graph.rings.Cyclic</text>
<text text-anchor="start" x="1004" y="-416" font-family="Helvetica,sans-Serif" font-size="10.00">GraphHandler.getPossibleCombination</text>
<text text-anchor="middle" x="1088" y="-405" font-family="Helvetica,sans-Serif" font-size="10.00">OfRings</text>
</a>
</g>
</g>
<!-- Node3&#45;&gt;Node4 -->
<g id="edge4" class="edge">
<title>Node3&#45;&gt;Node4</title>
<path fill="none" stroke="midnightblue" d="M1205.71,-418.5C1197.14,-418.5 1188.51,-418.5 1180.04,-418.5"/>
<polygon fill="midnightblue" stroke="midnightblue" points="1205.73,-422 1215.73,-418.5 1205.73,-415 1205.73,-422"/>
</g>
<!-- Node5 -->
<g id="node5" class="node">
<title>Node5</title>
<g id="a_node5"><a xlink:href="classdenoptim_1_1graph_1_1_d_graph.html#a7a4743d014e860237f4b20703ef9779b" target="_top" xlink:title="Evaluates the possibility of closing rings in this graph and generates all alternative graphs resulti...">
<polygon fill="white" stroke="black" points="792.5,-412.5 792.5,-442.5 947.5,-442.5 947.5,-412.5 792.5,-412.5"/>
<text text-anchor="start" x="800.5" y="-430.5" font-family="Helvetica,sans-Serif" font-size="10.00">denoptim.graph.DGraph.make</text>
<text text-anchor="middle" x="870" y="-419.5" font-family="Helvetica,sans-Serif" font-size="10.00">AllGraphsWithDifferentRingSets</text>
</a>
</g>
</g>
<!-- Node4&#45;&gt;Node5 -->
<g id="edge5" class="edge">
<title>Node4&#45;&gt;Node5</title>
<path fill="none" stroke="midnightblue" d="M985.53,-422.73C972.78,-423.26 959.92,-423.8 947.64,-424.31"/>
<polygon fill="midnightblue" stroke="midnightblue" points="985.86,-426.22 995.71,-422.3 985.57,-419.22 985.86,-426.22"/>
</g>
<!-- Node7 -->
<g id="node7" class="node">
<title>Node7</title>
<g id="a_node7"><a xlink:href="classdenoptim_1_1ga_1_1_e_a_utils.html#a1ddb932d4618434d435e4f85ce5e5eb5" target="_top" xlink:title="Evaluates the possibility of closing rings in a given graph and if any ring can be closed,...">
<polygon fill="white" stroke="black" points="804.5,-343.5 804.5,-373.5 935.5,-373.5 935.5,-343.5 804.5,-343.5"/>
<text text-anchor="start" x="812.5" y="-361.5" font-family="Helvetica,sans-Serif" font-size="10.00">denoptim.ga.EAUtils.setup</text>
<text text-anchor="middle" x="870" y="-350.5" font-family="Helvetica,sans-Serif" font-size="10.00">Rings</text>
</a>
</g>
</g>
<!-- Node4&#45;&gt;Node7 -->
<g id="edge7" class="edge">
<title>Node4&#45;&gt;Node7</title>
<path fill="none" stroke="midnightblue" d="M1003.05,-395.18C976.88,-387.91 948.72,-380.09 925.16,-373.54"/>
<polygon fill="midnightblue" stroke="midnightblue" points="1002.4,-398.63 1012.97,-397.94 1004.27,-391.89 1002.4,-398.63"/>
</g>
<!-- Node6 -->
<g id="node6" class="node">
<title>Node6</title>
<g id="a_node6"><a xlink:href="classdenoptim_1_1combinatorial_1_1_graph_building_task.html#a3eaee724fc921194fa158714aafe182d" target="_top" xlink:title="Calls the task.">
<polygon fill="white" stroke="black" points="577,-421.5 577,-451.5 722,-451.5 722,-421.5 577,-421.5"/>
<text text-anchor="start" x="585" y="-439.5" font-family="Helvetica,sans-Serif" font-size="10.00">denoptim.combinatorial.Graph</text>
<text text-anchor="middle" x="649.5" y="-428.5" font-family="Helvetica,sans-Serif" font-size="10.00">BuildingTask.call</text>
</a>
</g>
</g>
<!-- Node5&#45;&gt;Node6 -->
<g id="edge6" class="edge">
<title>Node5&#45;&gt;Node6</title>
<path fill="none" stroke="midnightblue" d="M782.02,-431.08C762.21,-431.9 741.38,-432.76 722.28,-433.54"/>
<polygon fill="midnightblue" stroke="midnightblue" points="782.42,-434.57 792.27,-430.66 782.14,-427.58 782.42,-434.57"/>
</g>
<!-- Node8 -->
<g id="node8" class="node">
<title>Node8</title>
<g id="a_node8"><a xlink:href="classdenoptim_1_1ga_1_1_e_a_utils.html#a5cb6bbe9f383bf821f3b1f1c5e60031b" target="_top" xlink:title=" ">
<polygon fill="white" stroke="black" points="586,-323.5 586,-353.5 713,-353.5 713,-323.5 586,-323.5"/>
<text text-anchor="start" x="594" y="-341.5" font-family="Helvetica,sans-Serif" font-size="10.00">denoptim.ga.EAUtils.build</text>
<text text-anchor="middle" x="649.5" y="-330.5" font-family="Helvetica,sans-Serif" font-size="10.00">CandidateByMutation</text>
</a>
</g>
</g>
<!-- Node7&#45;&gt;Node8 -->
<g id="edge8" class="edge">
<title>Node7&#45;&gt;Node8</title>
<path fill="none" stroke="midnightblue" d="M794.36,-351.67C767.92,-349.25 738.46,-346.55 713.13,-344.23"/>
<polygon fill="midnightblue" stroke="midnightblue" points="794.05,-355.15 804.33,-352.58 794.69,-348.18 794.05,-355.15"/>
</g>
<!-- Node13 -->
<g id="node13" class="node">
<title>Node13</title>
<g id="a_node13"><a xlink:href="classdenoptim_1_1ga_1_1_e_a_utils.html#a98553265dd4b441b11c6d97d098edb08" target="_top" xlink:title="Generates a new offspring by performing a crossover operation.">
<polygon fill="white" stroke="black" points="190,-142.5 190,-172.5 317,-172.5 317,-142.5 190,-142.5"/>
<text text-anchor="start" x="198" y="-160.5" font-family="Helvetica,sans-Serif" font-size="10.00">denoptim.ga.EAUtils.build</text>
<text text-anchor="middle" x="253.5" y="-149.5" font-family="Helvetica,sans-Serif" font-size="10.00">CandidateByXOver</text>
</a>
</g>
</g>
<!-- Node7&#45;&gt;Node13 -->
<g id="edge13" class="edge">
<title>Node7&#45;&gt;Node13</title>
<path fill="none" stroke="midnightblue" d="M825.02,-339.66C801.42,-330.32 771.58,-319.74 744,-313.5 573.66,-274.96 507.48,-355.95 353,-274.5 308.61,-251.09 276.08,-198.48 262.09,-172.54"/>
<polygon fill="midnightblue" stroke="midnightblue" points="823.81,-342.95 834.4,-343.43 826.43,-336.46 823.81,-342.95"/>
</g>
<!-- Node14 -->
<g id="node14" class="node">
<title>Node14</title>
<g id="a_node14"><a xlink:href="classdenoptim_1_1ga_1_1_e_a_utils.html#ad3d2daeb11e68a356e971ca1846596b5" target="_top" xlink:title=" ">
<polygon fill="white" stroke="black" points="586,-372.5 586,-402.5 713,-402.5 713,-372.5 586,-372.5"/>
<text text-anchor="start" x="594" y="-390.5" font-family="Helvetica,sans-Serif" font-size="10.00">denoptim.ga.EAUtils.build</text>
<text text-anchor="middle" x="649.5" y="-379.5" font-family="Helvetica,sans-Serif" font-size="10.00">CandidateFromScratch</text>
</a>
</g>
</g>
<!-- Node7&#45;&gt;Node14 -->
<g id="edge14" class="edge">
<title>Node7&#45;&gt;Node14</title>
<path fill="none" stroke="midnightblue" d="M794.36,-368.41C767.92,-371.92 738.46,-375.83 713.13,-379.19"/>
<polygon fill="midnightblue" stroke="midnightblue" points="794.88,-371.87 804.33,-367.08 793.96,-364.93 794.88,-371.87"/>
</g>
<!-- Node9 -->
<g id="node9" class="node">
<title>Node9</title>
<g id="a_node9"><a xlink:href="classdenoptim_1_1ga_1_1_evolutionary_algorithm.html#a596b2f5f0b097c5b67a6e5163bd6fe66" target="_top" xlink:title="Generates a given number of new candidate items and adds them to the current population.">
<polygon fill="white" stroke="black" points="369,-323.5 369,-353.5 503,-353.5 503,-323.5 369,-323.5"/>
<text text-anchor="start" x="377" y="-341.5" font-family="Helvetica,sans-Serif" font-size="10.00">denoptim.ga.Evolutionary</text>
<text text-anchor="middle" x="436" y="-330.5" font-family="Helvetica,sans-Serif" font-size="10.00">Algorithm.evolvePopulation</text>
</a>
</g>
</g>
<!-- Node8&#45;&gt;Node9 -->
<g id="edge9" class="edge">
<title>Node8&#45;&gt;Node9</title>
<path fill="none" stroke="midnightblue" d="M575.63,-338.5C552.09,-338.5 526.14,-338.5 503.12,-338.5"/>
<polygon fill="midnightblue" stroke="midnightblue" points="575.9,-342 585.9,-338.5 575.9,-335 575.9,-342"/>
</g>
<!-- Node10 -->
<g id="node10" class="node">
<title>Node10</title>
<g id="a_node10"><a xlink:href="classdenoptim_1_1ga_1_1_evolutionary_algorithm.html#a6bfc2fa59b199da6259b5b6bad3d6de7" target="_top" xlink:title=" ">
<polygon fill="white" stroke="black" points="191.5,-347.5 191.5,-377.5 315.5,-377.5 315.5,-347.5 191.5,-347.5"/>
<text text-anchor="start" x="199.5" y="-365.5" font-family="Helvetica,sans-Serif" font-size="10.00">denoptim.ga.Evolutionary</text>
<text text-anchor="middle" x="253.5" y="-354.5" font-family="Helvetica,sans-Serif" font-size="10.00">Algorithm.run</text>
</a>
</g>
</g>
<!-- Node9&#45;&gt;Node10 -->
<g id="edge10" class="edge">
<title>Node9&#45;&gt;Node10</title>
<path fill="none" stroke="midnightblue" d="M358.49,-348.67C344.16,-350.58 329.37,-352.55 315.59,-354.38"/>
<polygon fill="midnightblue" stroke="midnightblue" points="359.36,-352.09 368.81,-347.3 358.44,-345.15 359.36,-352.09"/>
</g>
<!-- Node11 -->
<g id="node11" class="node">
<title>Node11</title>
<g id="a_node11"><a xlink:href="classdenoptim_1_1ga_1_1_evolutionary_algorithm.html#a0f2063b722b7291daf83d62acaa683d3" target="_top" xlink:title=" ">
<polygon fill="white" stroke="black" points="0,-371.5 0,-401.5 154,-401.5 154,-371.5 0,-371.5"/>
<text text-anchor="start" x="8" y="-389.5" font-family="Helvetica,sans-Serif" font-size="10.00">denoptim.ga.Evolutionary</text>
<text text-anchor="middle" x="77" y="-378.5" font-family="Helvetica,sans-Serif" font-size="10.00">Algorithm.EvolutionaryAlgorithm</text>
</a>
</g>
</g>
<!-- Node10&#45;&gt;Node11 -->
<g id="edge11" class="edge">
<title>Node10&#45;&gt;Node11</title>
<path fill="none" stroke="midnightblue" d="M181.41,-372.28C172.39,-373.52 163.13,-374.79 154.03,-376.04"/>
<polygon fill="midnightblue" stroke="midnightblue" points="182.04,-375.72 191.47,-370.89 181.08,-368.79 182.04,-375.72"/>
</g>
<!-- Node12 -->
<g id="node12" class="node">
<title>Node12</title>
<g id="a_node12"><a xlink:href="classdenoptim_1_1programs_1_1denovo_1_1_g_a_runner.html#a7cafd6d78727b89dce3e2c8d06f0dd7c" target="_top" xlink:title=" ">
<polygon fill="white" stroke="black" points="9.5,-322.5 9.5,-352.5 144.5,-352.5 144.5,-322.5 9.5,-322.5"/>
<text text-anchor="start" x="17.5" y="-340.5" font-family="Helvetica,sans-Serif" font-size="10.00">denoptim.programs.denovo.</text>
<text text-anchor="middle" x="77" y="-329.5" font-family="Helvetica,sans-Serif" font-size="10.00">GARunner.runProgram</text>
</a>
</g>
</g>
<!-- Node10&#45;&gt;Node12 -->
<g id="edge12" class="edge">
<title>Node10&#45;&gt;Node12</title>
<path fill="none" stroke="midnightblue" d="M181.39,-352.31C169.25,-350.57 156.67,-348.77 144.65,-347.05"/>
<polygon fill="midnightblue" stroke="midnightblue" points="181.07,-355.8 191.47,-353.76 182.07,-348.87 181.07,-355.8"/>
</g>
<!-- Node14&#45;&gt;Node9 -->
<g id="edge15" class="edge">
<title>Node14&#45;&gt;Node9</title>
<path fill="none" stroke="midnightblue" d="M576.12,-370.73C552.08,-365.16 525.46,-359 502.01,-353.56"/>
<polygon fill="midnightblue" stroke="midnightblue" points="575.37,-374.15 585.9,-373 576.95,-367.33 575.37,-374.15"/>
</g>
<!-- Node15 -->
<g id="node15" class="node">
<title>Node15</title>
<g id="a_node15"><a xlink:href="classdenoptim_1_1ga_1_1_evolutionary_algorithm.html#ad43588620dab3340e0d8b0042ec73618" target="_top" xlink:title="Fills up the population with candidates build from scratch.">
<polygon fill="white" stroke="black" points="366,-372.5 366,-402.5 506,-402.5 506,-372.5 366,-372.5"/>
<text text-anchor="start" x="374" y="-390.5" font-family="Helvetica,sans-Serif" font-size="10.00">denoptim.ga.Evolutionary</text>
<text text-anchor="middle" x="436" y="-379.5" font-family="Helvetica,sans-Serif" font-size="10.00">Algorithm.initializePopulation</text>
</a>
</g>
</g>
<!-- Node14&#45;&gt;Node15 -->
<g id="edge16" class="edge">
<title>Node14&#45;&gt;Node15</title>
<path fill="none" stroke="midnightblue" d="M575.71,-387.5C553.16,-387.5 528.39,-387.5 506.1,-387.5"/>
<polygon fill="midnightblue" stroke="midnightblue" points="575.9,-391 585.9,-387.5 575.9,-384 575.9,-391"/>
</g>
<!-- Node15&#45;&gt;Node10 -->
<g id="edge17" class="edge">
<title>Node15&#45;&gt;Node10</title>
<path fill="none" stroke="midnightblue" d="M355.75,-376.52C342.26,-374.66 328.43,-372.74 315.5,-370.95"/>
<polygon fill="midnightblue" stroke="midnightblue" points="355.6,-380.04 365.99,-377.94 356.56,-373.1 355.6,-380.04"/>
</g>
<!-- Node16&#45;&gt;Node7 -->
<g id="edge19" class="edge">
<title>Node16&#45;&gt;Node7</title>
<path fill="none" stroke="midnightblue" d="M1208.34,-358.5C1124.63,-358.5 1007.7,-358.5 935.8,-358.5"/>
<polygon fill="midnightblue" stroke="midnightblue" points="1208.38,-362 1218.38,-358.5 1208.38,-355 1208.38,-362"/>
</g>
<!-- Node18 -->
<g id="node18" class="node">
<title>Node18</title>
<g id="a_node18"><a xlink:href="classdenoptim_1_1ga_1_1_graph_operations.html#a5d90c6e2fa30f287f8f69ed3367ccd0e" target="_top" xlink:title="Given a pair of seed vertexes that define where a pair of subgraphs stars in the corresponding origin...">
<polygon fill="white" stroke="black" points="997,-294.5 997,-324.5 1179,-324.5 1179,-294.5 997,-294.5"/>
<text text-anchor="start" x="1005" y="-312.5" font-family="Helvetica,sans-Serif" font-size="10.00">denoptim.ga.GraphOperations.process</text>
<text text-anchor="middle" x="1088" y="-301.5" font-family="Helvetica,sans-Serif" font-size="10.00">CombinationOfEndPoints</text>
</a>
</g>
</g>
<!-- Node17&#45;&gt;Node18 -->
<g id="edge21" class="edge">
<title>Node17&#45;&gt;Node18</title>
<path fill="none" stroke="midnightblue" d="M1208.24,-306.78C1198.57,-307 1188.8,-307.23 1179.23,-307.44"/>
<polygon fill="midnightblue" stroke="midnightblue" points="1208.35,-310.28 1218.27,-306.56 1208.19,-303.28 1208.35,-310.28"/>
</g>
<!-- Node19 -->
<g id="node19" class="node">
<title>Node19</title>
<g id="a_node19"><a xlink:href="classdenoptim_1_1ga_1_1_graph_operations.html#ad30a49493cb4fbbee21a7589929bc680" target="_top" xlink:title="Identify crossover sites, i.e., subgraphs that can be swapped between two graphs (i....">
<polygon fill="white" stroke="black" points="783.5,-169.5 783.5,-199.5 956.5,-199.5 956.5,-169.5 783.5,-169.5"/>
<text text-anchor="start" x="791.5" y="-187.5" font-family="Helvetica,sans-Serif" font-size="10.00">denoptim.ga.GraphOperations.locate</text>
<text text-anchor="middle" x="870" y="-176.5" font-family="Helvetica,sans-Serif" font-size="10.00">CompatibleXOverPoints</text>
</a>
</g>
</g>
<!-- Node18&#45;&gt;Node19 -->
<g id="edge22" class="edge">
<title>Node18&#45;&gt;Node19</title>
<path fill="none" stroke="midnightblue" d="M1010.2,-290.87C1005.31,-288.93 1000.54,-286.81 996,-284.5 951.43,-261.78 907.74,-221.57 885.73,-199.7"/>
<polygon fill="midnightblue" stroke="midnightblue" points="1009.12,-294.2 1019.72,-294.38 1011.55,-287.64 1009.12,-294.2"/>
</g>
<!-- Node19&#45;&gt;Node19 -->
<g id="edge28" class="edge">
<title>Node19&#45;&gt;Node19</title>
<path fill="none" stroke="midnightblue" d="M908.74,-209.96C903.93,-214.68 891.02,-218 870,-218 835.51,-218 822.85,-209.06 832.01,-199.66"/>
<polygon fill="midnightblue" stroke="midnightblue" points="912.2,-209.38 907.99,-199.66 905.22,-209.89 912.2,-209.38"/>
</g>
<!-- Node20 -->
<g id="node20" class="node">
<title>Node20</title>
<g id="a_node20"><a xlink:href="classdenoptim_1_1ga_1_1_population.html#ab303d612f90e917a7b1b49eadc93c76e" target="_top" xlink:title="Returns a list of population members that can do crossover with the specified member.">
<polygon fill="white" stroke="black" points="583,-191.5 583,-221.5 716,-221.5 716,-191.5 583,-191.5"/>
<text text-anchor="start" x="591" y="-209.5" font-family="Helvetica,sans-Serif" font-size="10.00">denoptim.ga.Population.get</text>
<text text-anchor="middle" x="649.5" y="-198.5" font-family="Helvetica,sans-Serif" font-size="10.00">XoverPartners</text>
</a>
</g>
</g>
<!-- Node19&#45;&gt;Node20 -->
<g id="edge23" class="edge">
<title>Node19&#45;&gt;Node20</title>
<path fill="none" stroke="midnightblue" d="M773.24,-194.14C753.92,-196.09 734.04,-198.09 716.05,-199.9"/>
<polygon fill="midnightblue" stroke="midnightblue" points="773.67,-197.62 783.27,-193.13 772.97,-190.65 773.67,-197.62"/>
</g>
<!-- Node24 -->
<g id="node24" class="node">
<title>Node24</title>
<g id="a_node24"><a xlink:href="classdenoptim_1_1programs_1_1genetweeker_1_1_gene_ops_runner.html#ab0f92a94c4fb2334e7d3813e73fc4247" target="_top" xlink:title=" ">
<polygon fill="white" stroke="black" points="570,-93.5 570,-123.5 729,-123.5 729,-93.5 570,-93.5"/>
<text text-anchor="start" x="578" y="-111.5" font-family="Helvetica,sans-Serif" font-size="10.00">denoptim.programs.genetweeker.</text>
<text text-anchor="middle" x="649.5" y="-100.5" font-family="Helvetica,sans-Serif" font-size="10.00">GeneOpsRunner.runXOver</text>
</a>
</g>
</g>
<!-- Node19&#45;&gt;Node24 -->
<g id="edge29" class="edge">
<title>Node19&#45;&gt;Node24</title>
<path fill="none" stroke="midnightblue" d="M827.15,-165.33C803.14,-154.78 772.24,-141.94 744,-132.5 734.46,-129.31 724.26,-126.3 714.23,-123.55"/>
<polygon fill="midnightblue" stroke="midnightblue" points="825.77,-168.54 836.33,-169.4 828.61,-162.14 825.77,-168.54"/>
</g>
<!-- Node26 -->
<g id="node26" class="node">
<title>Node26</title>
<g id="a_node26"><a xlink:href="classdenoptim_1_1ga_1_1_graph_operations_test.html#a9fcf8fffef10a59df722c92e94da2815" target="_top" xlink:title=" ">
<polygon fill="white" stroke="black" points="555,-142.5 555,-172.5 744,-172.5 744,-142.5 555,-142.5"/>
<text text-anchor="start" x="563" y="-160.5" font-family="Helvetica,sans-Serif" font-size="10.00">denoptim.ga.GraphOperations</text>
<text text-anchor="middle" x="649.5" y="-149.5" font-family="Helvetica,sans-Serif" font-size="10.00">Test.testLocateCompatibleXOverPoints</text>
</a>
</g>
</g>
<!-- Node19&#45;&gt;Node26 -->
<g id="edge31" class="edge">
<title>Node19&#45;&gt;Node26</title>
<path fill="none" stroke="midnightblue" d="M773.3,-172.67C763.67,-171.48 753.89,-170.28 744.28,-169.09"/>
<polygon fill="midnightblue" stroke="midnightblue" points="772.92,-176.15 783.27,-173.91 773.77,-169.21 772.92,-176.15"/>
</g>
<!-- Node21 -->
<g id="node21" class="node">
<title>Node21</title>
<g id="a_node21"><a xlink:href="classdenoptim_1_1ga_1_1_e_a_utils.html#af1c589b6d5ba261e1417f3cd299e8e5d" target="_top" xlink:title="Perform fitness&#45;based, class&#45;compatible selection of parents that can do crossover operations.">
<polygon fill="white" stroke="black" points="353,-148 353,-167 519,-167 519,-148 353,-148"/>
<text text-anchor="middle" x="436" y="-155" font-family="Helvetica,sans-Serif" font-size="10.00">denoptim.ga.EAUtils.performFBCC</text>
</a>
</g>
</g>
<!-- Node20&#45;&gt;Node21 -->
<g id="edge24" class="edge">
<title>Node20&#45;&gt;Node21</title>
<path fill="none" stroke="midnightblue" d="M573.78,-189.19C541.62,-181.74 505.27,-173.32 478.13,-167.03"/>
<polygon fill="midnightblue" stroke="midnightblue" points="573.07,-192.62 583.61,-191.47 574.65,-185.8 573.07,-192.62"/>
</g>
<!-- Node22 -->
<g id="node22" class="node">
<title>Node22</title>
<g id="a_node22"><a xlink:href="classdenoptim_1_1ga_1_1_population_test.html#a5db0672054a9fc1dbc923310732fdb3a" target="_top" xlink:title=" ">
<polygon fill="white" stroke="black" points="358.5,-235.5 358.5,-265.5 513.5,-265.5 513.5,-235.5 358.5,-235.5"/>
<text text-anchor="start" x="366.5" y="-253.5" font-family="Helvetica,sans-Serif" font-size="10.00">denoptim.ga.PopulationTest.test</text>
<text text-anchor="middle" x="436" y="-242.5" font-family="Helvetica,sans-Serif" font-size="10.00">Clone</text>
</a>
</g>
</g>
<!-- Node20&#45;&gt;Node22 -->
<g id="edge26" class="edge">
<title>Node20&#45;&gt;Node22</title>
<path fill="none" stroke="midnightblue" d="M572.75,-222.26C552.11,-226.55 529.8,-231.2 509.34,-235.45"/>
<polygon fill="midnightblue" stroke="midnightblue" points="573.66,-225.64 582.74,-220.18 572.24,-218.79 573.66,-225.64"/>
</g>
<!-- Node23 -->
<g id="node23" class="node">
<title>Node23</title>
<g id="a_node23"><a xlink:href="classdenoptim_1_1ga_1_1_population_test.html#a278212ebff2501b7071d342f9a027599" target="_top" xlink:title=" ">
<polygon fill="white" stroke="black" points="358.5,-186.5 358.5,-216.5 513.5,-216.5 513.5,-186.5 358.5,-186.5"/>
<text text-anchor="start" x="366.5" y="-204.5" font-family="Helvetica,sans-Serif" font-size="10.00">denoptim.ga.PopulationTest.test</text>
<text text-anchor="middle" x="436" y="-193.5" font-family="Helvetica,sans-Serif" font-size="10.00">XOverCompatibility</text>
</a>
</g>
</g>
<!-- Node20&#45;&gt;Node23 -->
<g id="edge27" class="edge">
<title>Node20&#45;&gt;Node23</title>
<path fill="none" stroke="midnightblue" d="M572.59,-204.71C553.49,-204.25 532.98,-203.77 513.83,-203.32"/>
<polygon fill="midnightblue" stroke="midnightblue" points="572.66,-208.21 582.74,-204.95 572.82,-201.21 572.66,-208.21"/>
</g>
<!-- Node21&#45;&gt;Node13 -->
<g id="edge25" class="edge">
<title>Node21&#45;&gt;Node13</title>
<path fill="none" stroke="midnightblue" d="M342.77,-157.5C334.11,-157.5 325.47,-157.5 317.17,-157.5"/>
<polygon fill="midnightblue" stroke="midnightblue" points="342.94,-161 352.94,-157.5 342.94,-154 342.94,-161"/>
</g>
<!-- Node25 -->
<g id="node25" class="node">
<title>Node25</title>
<g id="a_node25"><a xlink:href="classdenoptim_1_1programs_1_1genetweeker_1_1_gene_ops_runner.html#a3c2407eb1204a7b25600d3d347d98447" target="_top" xlink:title=" ">
<polygon fill="white" stroke="black" points="356.5,-93.5 356.5,-123.5 515.5,-123.5 515.5,-93.5 356.5,-93.5"/>
<text text-anchor="start" x="364.5" y="-111.5" font-family="Helvetica,sans-Serif" font-size="10.00">denoptim.programs.genetweeker.</text>
<text text-anchor="middle" x="436" y="-100.5" font-family="Helvetica,sans-Serif" font-size="10.00">GeneOpsRunner.runProgram</text>
</a>
</g>
</g>
<!-- Node24&#45;&gt;Node25 -->
<g id="edge30" class="edge">
<title>Node24&#45;&gt;Node25</title>
<path fill="none" stroke="midnightblue" d="M559.74,-108.5C545.16,-108.5 530.14,-108.5 515.82,-108.5"/>
<polygon fill="midnightblue" stroke="midnightblue" points="559.75,-112 569.75,-108.5 559.75,-105 559.75,-112"/>
</g>
<!-- Node28 -->
<g id="node28" class="node">
<title>Node28</title>
<g id="a_node28"><a xlink:href="classdenoptim_1_1graph_1_1_d_graph.html#a4df69c91a742d22f8d14d44489aeac15" target="_top" xlink:title="Edit this graph according to a given list of edit tasks.">
<polygon fill="white" stroke="black" points="1020,-98.5 1020,-128.5 1156,-128.5 1156,-98.5 1020,-98.5"/>
<text text-anchor="start" x="1028" y="-116.5" font-family="Helvetica,sans-Serif" font-size="10.00">denoptim.graph.DGraph.edit</text>
<text text-anchor="middle" x="1088" y="-105.5" font-family="Helvetica,sans-Serif" font-size="10.00">Graph</text>
</a>
</g>
</g>
<!-- Node27&#45;&gt;Node28 -->
<g id="edge33" class="edge">
<title>Node27&#45;&gt;Node28</title>
<path fill="none" stroke="midnightblue" d="M1231.19,-145.24C1206.73,-139.78 1179.91,-133.79 1156.22,-128.51"/>
<polygon fill="midnightblue" stroke="midnightblue" points="1230.63,-148.7 1241.15,-147.47 1232.15,-141.87 1230.63,-148.7"/>
</g>
<!-- Node30 -->
<g id="node30" class="node">
<title>Node30</title>
<g id="a_node30"><a xlink:href="classdenoptim_1_1graph_1_1_d_graph.html#a86e888ef245d2bd40b49d145c7ef3af0" target="_top" xlink:title="Replaced the subgraph represented by a given collection of vertices that belong to this graph.">
<polygon fill="white" stroke="black" points="1012,-49.5 1012,-79.5 1164,-79.5 1164,-49.5 1012,-49.5"/>
<text text-anchor="start" x="1020" y="-67.5" font-family="Helvetica,sans-Serif" font-size="10.00">denoptim.graph.DGraph.replace</text>
<text text-anchor="middle" x="1088" y="-56.5" font-family="Helvetica,sans-Serif" font-size="10.00">SubGraph</text>
</a>
</g>
</g>
<!-- Node27&#45;&gt;Node30 -->
<g id="edge35" class="edge">
<title>Node27&#45;&gt;Node30</title>
<path fill="none" stroke="midnightblue" d="M1277.79,-141.71C1252.48,-125.34 1215.14,-102.95 1180,-88.5 1171.99,-85.21 1163.4,-82.25 1154.81,-79.63"/>
<polygon fill="midnightblue" stroke="midnightblue" points="1275.94,-144.67 1286.22,-147.22 1279.77,-138.82 1275.94,-144.67"/>
</g>
<!-- Node32 -->
<g id="node32" class="node">
<title>Node32</title>
<g id="a_node32"><a xlink:href="classdenoptim_1_1graph_1_1_d_graph.html#adc362402e41af41656e820def73de5ad" target="_top" xlink:title="Replaced a given vertex belonging to this graph with a new vertex generated specifically for this pur...">
<polygon fill="white" stroke="black" points="1012,-0.5 1012,-30.5 1164,-30.5 1164,-0.5 1012,-0.5"/>
<text text-anchor="start" x="1020" y="-18.5" font-family="Helvetica,sans-Serif" font-size="10.00">denoptim.graph.DGraph.replace</text>
<text text-anchor="middle" x="1088" y="-7.5" font-family="Helvetica,sans-Serif" font-size="10.00">Vertex</text>
</a>
</g>
</g>
<!-- Node27&#45;&gt;Node32 -->
<g id="edge39" class="edge">
<title>Node27&#45;&gt;Node32</title>
<path fill="none" stroke="midnightblue" d="M1290.76,-139.5C1268.07,-111.67 1226.15,-65.35 1180,-39.5 1173.87,-36.07 1167.23,-33.11 1160.43,-30.56"/>
<polygon fill="midnightblue" stroke="midnightblue" points="1288.18,-141.88 1297.17,-147.5 1293.64,-137.5 1288.18,-141.88"/>
</g>
<!-- Node33 -->
<g id="node33" class="node">
<title>Node33</title>
<g id="a_node33"><a xlink:href="classdenoptim_1_1graph_1_1_d_graph_test.html#aea227d615f6c2f3bac5839a8099a900d" target="_top" xlink:title=" ">
<polygon fill="white" stroke="black" points="1010,-245.5 1010,-275.5 1166,-275.5 1166,-245.5 1010,-245.5"/>
<text text-anchor="start" x="1018" y="-263.5" font-family="Helvetica,sans-Serif" font-size="10.00">denoptim.graph.DGraphTest.test</text>
<text text-anchor="middle" x="1088" y="-252.5" font-family="Helvetica,sans-Serif" font-size="10.00">IsIsostructuralTo</text>
</a>
</g>
</g>
<!-- Node27&#45;&gt;Node33 -->
<g id="edge40" class="edge">
<title>Node27&#45;&gt;Node33</title>
<path fill="none" stroke="midnightblue" d="M1277.25,-183.19C1251.9,-199.24 1214.78,-221.11 1180,-235.5 1171.07,-239.2 1161.42,-242.52 1151.86,-245.44"/>
<polygon fill="midnightblue" stroke="midnightblue" points="1279.17,-186.11 1285.71,-177.77 1275.4,-180.22 1279.17,-186.11"/>
</g>
<!-- Node34 -->
<g id="node34" class="node">
<title>Node34</title>
<g id="a_node34"><a xlink:href="classdenoptim_1_1graph_1_1_d_graph_test.html#a83a9624ea5dc6a2c515407b865b62611" target="_top" xlink:title=" ">
<polygon fill="white" stroke="black" points="1010,-196.5 1010,-226.5 1166,-226.5 1166,-196.5 1010,-196.5"/>
<text text-anchor="start" x="1018" y="-214.5" font-family="Helvetica,sans-Serif" font-size="10.00">denoptim.graph.DGraphTest.test</text>
<text text-anchor="middle" x="1088" y="-203.5" font-family="Helvetica,sans-Serif" font-size="10.00">ReplaceSubGraph</text>
</a>
</g>
</g>
<!-- Node27&#45;&gt;Node34 -->
<g id="edge41" class="edge">
<title>Node27&#45;&gt;Node34</title>
<path fill="none" stroke="midnightblue" d="M1231.19,-179.76C1206.73,-185.22 1179.91,-191.21 1156.22,-196.49"/>
<polygon fill="midnightblue" stroke="midnightblue" points="1232.15,-183.13 1241.15,-177.53 1230.63,-176.3 1232.15,-183.13"/>
</g>
<!-- Node35 -->
<g id="node35" class="node">
<title>Node35</title>
<g id="a_node35"><a xlink:href="classdenoptim_1_1graph_1_1_d_graph_test.html#a0c949ec1131a872dea53524614b3b42a" target="_top" xlink:title=" ">
<polygon fill="white" stroke="black" points="1010,-147.5 1010,-177.5 1166,-177.5 1166,-147.5 1010,-147.5"/>
<text text-anchor="start" x="1018" y="-165.5" font-family="Helvetica,sans-Serif" font-size="10.00">denoptim.graph.DGraphTest.test</text>
<text text-anchor="middle" x="1088" y="-154.5" font-family="Helvetica,sans-Serif" font-size="10.00">ReplaceSubGraph_inTemplate</text>
</a>
</g>
</g>
<!-- Node27&#45;&gt;Node35 -->
<g id="edge42" class="edge">
<title>Node27&#45;&gt;Node35</title>
<path fill="none" stroke="midnightblue" d="M1223.01,-162.5C1204.35,-162.5 1184.7,-162.5 1166.37,-162.5"/>
<polygon fill="midnightblue" stroke="midnightblue" points="1223.27,-166 1233.27,-162.5 1223.27,-159 1223.27,-166"/>
</g>
<!-- Node29 -->
<g id="node29" class="node">
<title>Node29</title>
<g id="a_node29"><a xlink:href="classdenoptim_1_1programs_1_1grapheditor_1_1_graph_editor.html#a649a62e3d4635ef4c19424fa49e6dcd4" target="_top" xlink:title=" ">
<polygon fill="white" stroke="black" points="794,-98.5 794,-128.5 946,-128.5 946,-98.5 794,-98.5"/>
<text text-anchor="start" x="802" y="-116.5" font-family="Helvetica,sans-Serif" font-size="10.00">denoptim.programs.grapheditor.</text>
<text text-anchor="middle" x="870" y="-105.5" font-family="Helvetica,sans-Serif" font-size="10.00">GraphEditor.runProgram</text>
</a>
</g>
</g>
<!-- Node28&#45;&gt;Node29 -->
<g id="edge34" class="edge">
<title>Node28&#45;&gt;Node29</title>
<path fill="none" stroke="midnightblue" d="M1009.8,-113.5C989.05,-113.5 966.65,-113.5 946.02,-113.5"/>
<polygon fill="midnightblue" stroke="midnightblue" points="1009.84,-117 1019.84,-113.5 1009.84,-110 1009.84,-117"/>
</g>
<!-- Node31 -->
<g id="node31" class="node">
<title>Node31</title>
<g id="a_node31"><a xlink:href="classdenoptim_1_1ga_1_1_graph_operations.html#affb1be89a32e4a429bd7dbdfe0708419" target="_top" xlink:title="Performs the crossover that swaps the two subgraphs defining the given XoverSite.">
<polygon fill="white" stroke="black" points="780,-49.5 780,-79.5 960,-79.5 960,-49.5 780,-49.5"/>
<text text-anchor="start" x="788" y="-67.5" font-family="Helvetica,sans-Serif" font-size="10.00">denoptim.ga.GraphOperations.perform</text>
<text text-anchor="middle" x="870" y="-56.5" font-family="Helvetica,sans-Serif" font-size="10.00">Crossover</text>
</a>
</g>
</g>
<!-- Node30&#45;&gt;Node31 -->
<g id="edge36" class="edge">
<title>Node30&#45;&gt;Node31</title>
<path fill="none" stroke="midnightblue" d="M1001.47,-64.5C987.86,-64.5 973.76,-64.5 960.07,-64.5"/>
<polygon fill="midnightblue" stroke="midnightblue" points="1001.76,-68 1011.76,-64.5 1001.76,-61 1001.76,-68"/>
</g>
<!-- Node31&#45;&gt;Node13 -->
<g id="edge37" class="edge">
<title>Node31&#45;&gt;Node13</title>
<path fill="none" stroke="midnightblue" d="M769.64,-50.97C663.26,-40.37 491.13,-34.55 353,-83.5 318.53,-95.72 286.16,-124.63 268.46,-142.48"/>
<polygon fill="midnightblue" stroke="midnightblue" points="769.42,-54.47 779.73,-52.01 770.14,-47.5 769.42,-54.47"/>
</g>
<!-- Node31&#45;&gt;Node24 -->
<g id="edge38" class="edge">
<title>Node31&#45;&gt;Node24</title>
<path fill="none" stroke="midnightblue" d="M784.59,-81.5C764.99,-85.44 744.26,-89.62 725.12,-93.47"/>
<polygon fill="midnightblue" stroke="midnightblue" points="785.3,-84.92 794.42,-79.52 783.92,-78.06 785.3,-84.92"/>
</g>
</g>
</svg>
        <g id="navigator" transform="translate(0 0)" fill="#404254">
                <rect fill="#f2f5e9" fill-opacity="0.5" stroke="#606060" stroke-width=".5" x="0" y="0" width="60" height="60"/>
                <use id="zoomplus" xlink:href="#zoomPlus" x="17" y="9" onmousedown="handleZoom(evt,'in')"/>
                <use id="zoomminus" xlink:href="#zoomMin" x="42" y="9" onmousedown="handleZoom(evt,'out')"/>
                <use id="reset" xlink:href="#resetDef" x="30" y="36" onmousedown="handleReset()"/>
                <g id="arrowUp" xlink:href="#dirArrow" transform="translate(30 24)" onmousedown="handlePan(0,-1)">
                  <use xlink:href="#rim" fill="#404040">
                        <set attributeName="fill" to="#808080" begin="arrowUp.mouseover" end="arrowUp.mouseout"/>
                  </use>
                  <path fill="none" stroke="white" stroke-width="1.5" d="M0,-3.0v7 M-2.5,-0.5L0,-3.0L2.5,-0.5"/>
                </g>
                <g id="arrowRight" xlink:href="#dirArrow" transform="rotate(90) translate(36 -43)" onmousedown="handlePan(1,0)">
                  <use xlink:href="#rim" fill="#404040">
                        <set attributeName="fill" to="#808080" begin="arrowRight.mouseover" end="arrowRight.mouseout"/>
                  </use>
                  <path fill="none" stroke="white" stroke-width="1.5" d="M0,-3.0v7 M-2.5,-0.5L0,-3.0L2.5,-0.5"/>
                </g>
                <g id="arrowDown" xlink:href="#dirArrow" transform="rotate(180) translate(-30 -48)" onmousedown="handlePan(0,1)">
                  <use xlink:href="#rim" fill="#404040">
                        <set attributeName="fill" to="#808080" begin="arrowDown.mouseover" end="arrowDown.mouseout"/>
                  </use>
                  <path fill="none" stroke="white" stroke-width="1.5" d="M0,-3.0v7 M-2.5,-0.5L0,-3.0L2.5,-0.5"/>
                </g>
                <g id="arrowLeft" xlink:href="#dirArrow" transform="rotate(270) translate(-36 17)" onmousedown="handlePan(-1,0)">
                  <use xlink:href="#rim" fill="#404040">
                        <set attributeName="fill" to="#808080" begin="arrowLeft.mouseover" end="arrowLeft.mouseout"/>
                  </use>
                  <path fill="none" stroke="white" stroke-width="1.5" d="M0,-3.0v7 M-2.5,-0.5L0,-3.0L2.5,-0.5"/>
                </g>
        </g>
        <svg viewBox="0 0 15 15" width="100%" height="30px" preserveAspectRatio="xMaxYMin meet">
         <g id="arrow_out" transform="scale(0.3 0.3)">
          <a xlink:href="classdenoptim_1_1graph_1_1rings_1_1_path_sub_graph_a181e1471235b48ddef2fa922ef35a964_icgraph_org.svg" target="_base">
           <rect id="button" ry="5" rx="5" y="6" x="6" height="38" width="38"
                fill="#f2f5e9" fill-opacity="0.5" stroke="#606060" stroke-width="1.0"/>
           <path id="arrow"
             d="M 11.500037,31.436501 C 11.940474,20.09759 22.043105,11.32322 32.158766,21.979434 L 37.068811,17.246167 C 37.068811,17.246167 37.088388,32 37.088388,32 L 22.160133,31.978069 C 22.160133,31.978069 26.997745,27.140456 26.997745,27.140456 C 18.528582,18.264221 13.291696,25.230495 11.500037,31.436501 z"
             style="fill:#404040;"/>
          </a>
         </g>
        </svg>
</svg>
