<?xml version="1.0" encoding="UTF-8" standalone="no"?>
<!DOCTYPE svg PUBLIC "-//W3C//DTD SVG 1.1//EN"
 "http://www.w3.org/Graphics/SVG/1.1/DTD/svg11.dtd">
<!-- Generated by graphviz version 3.0.0 (20220413.0242)
 -->
<!-- Title: denoptim.gui.FragmentViewPanel.updateAPsMapAndTable Pages: 1 -->
<!--zoomable 274 -->
<svg id="main" version="1.1" xmlns="http://www.w3.org/2000/svg" xmlns:xlink="http://www.w3.org/1999/xlink" xml:space="preserve" onload="init(evt)">
<style type="text/css"><![CDATA[
.edge:hover path { stroke: red; }
.edge:hover polygon { stroke: red; fill: red; }
]]></style>
<script type="text/javascript"><![CDATA[
var edges = document.getElementsByTagName('g');
if (edges && edges.length) {
  for (var i=0;i<edges.length;i++) {
    if (edges[i].id.substr(0,4)=='edge') {
      edges[i].setAttribute('class','edge');
    }
  }
}
]]></script>
        <defs>
                <circle id="rim" cx="0" cy="0" r="7"/>
                <circle id="rim2" cx="0" cy="0" r="3.5"/>
                <g id="zoomPlus">
                        <use xlink:href="#rim" fill="#404040">
                                <set attributeName="fill" to="#808080" begin="zoomplus.mouseover" end="zoomplus.mouseout"/>
                        </use>
                        <path d="M-4,0h8M0,-4v8" fill="none" stroke="white" stroke-width="1.5" pointer-events="none"/>
                </g>
                <g id="zoomMin">
                        <use xlink:href="#rim" fill="#404040">
                                <set attributeName="fill" to="#808080" begin="zoomminus.mouseover" end="zoomminus.mouseout"/>
                        </use>
                        <path d="M-4,0h8" fill="none" stroke="white" stroke-width="1.5" pointer-events="none"/>
                </g>
                <g id="dirArrow">
                        <path fill="none" stroke="white" stroke-width="1.5" d="M0,-3.0v7 M-2.5,-0.5L0,-3.0L2.5,-0.5"/>
                </g>
               <g id="resetDef">
                       <use xlink:href="#rim2" fill="#404040">
                               <set attributeName="fill" to="#808080" begin="reset.mouseover" end="reset.mouseout"/>
                       </use>
               </g>
        </defs>

<script type="text/javascript">
var viewWidth = 1176;
var viewHeight = 274;
var sectionId = 'dynsection-40';
</script>
<script xlink:href="svgpan.js"/>
<svg id="graph" class="graph">
<g id="viewport">
<title>denoptim.gui.FragmentViewPanel.updateAPsMapAndTable</title>
<polygon fill="white" stroke="transparent" points="-4,4 -4,-269.5 1172,-269.5 1172,4 -4,4"/>
<!-- Node1 -->
<g id="node1" class="node">
<title>Node1</title>
<g id="a_node1"><a xlink:title="Uses the AP of the Fragment to create a new map and table of APs.">
<polygon fill="#bfbfbf" stroke="black" points="0,-191.5 0,-221.5 152,-221.5 152,-191.5 0,-191.5"/>
<text text-anchor="start" x="8" y="-209.5" font-family="Helvetica,sans-Serif" font-size="10.00">denoptim.gui.FragmentView</text>
<text text-anchor="middle" x="76" y="-198.5" font-family="Helvetica,sans-Serif" font-size="10.00">Panel.updateAPsMapAndTable</text>
</a>
</g>
</g>
<!-- Node2 -->
<g id="node2" class="node">
<title>Node2</title>
<g id="a_node2"><a xlink:href="classdenoptim_1_1gui_1_1_fragment_view_panel.html#ad1564e5c67234495668c68f02ab04ed4" target="_top" xlink:title="Allows to activate and deactivate the listener.">
<polygon fill="white" stroke="black" points="378,-229.5 378,-259.5 530,-259.5 530,-229.5 378,-229.5"/>
<text text-anchor="start" x="386" y="-247.5" font-family="Helvetica,sans-Serif" font-size="10.00">denoptim.gui.FragmentView</text>
<text text-anchor="middle" x="454" y="-236.5" font-family="Helvetica,sans-Serif" font-size="10.00">Panel.activateTabEditsListener</text>
</a>
</g>
</g>
<!-- Node1&#45;&gt;Node2 -->
<g id="edge1" class="edge">
<title>Node1&#45;&gt;Node2</title>
<path fill="none" stroke="midnightblue" d="M134.84,-221.51C151.86,-225.39 170.58,-229.13 188,-231.5 247.69,-239.62 315.55,-242.84 367.66,-244.04"/>
<polygon fill="midnightblue" stroke="midnightblue" points="367.79,-247.55 377.87,-244.26 367.94,-240.55 367.79,-247.55"/>
</g>
<!-- Node4 -->
<g id="node4" class="node">
<title>Node4</title>
<g id="a_node4"><a xlink:href="classdenoptim_1_1gui_1_1_fragment_view_panel.html#a65e5473c03b2075c97fbfa9b587b8949" target="_top" xlink:title="Clears the table of attachment points.">
<polygon fill="white" stroke="black" points="190.5,-191.5 190.5,-221.5 327.5,-221.5 327.5,-191.5 190.5,-191.5"/>
<text text-anchor="start" x="198.5" y="-209.5" font-family="Helvetica,sans-Serif" font-size="10.00">denoptim.gui.FragmentView</text>
<text text-anchor="middle" x="259" y="-198.5" font-family="Helvetica,sans-Serif" font-size="10.00">Panel.clearAPTable</text>
</a>
</g>
</g>
<!-- Node1&#45;&gt;Node4 -->
<g id="edge3" class="edge">
<title>Node1&#45;&gt;Node4</title>
<path fill="none" stroke="midnightblue" d="M152.19,-206.5C161.46,-206.5 170.95,-206.5 180.26,-206.5"/>
<polygon fill="midnightblue" stroke="midnightblue" points="180.27,-210 190.27,-206.5 180.27,-203 180.27,-210"/>
</g>
<!-- Node5 -->
<g id="node5" class="node">
<title>Node5</title>
<g id="a_node5"><a xlink:href="classdenoptim_1_1graph_1_1_fragment.html#a1bfff4428fed83f00c78a9d254e5b4b4" target="_top" xlink:title="Collects APs currently defined as properties of the atoms.">
<polygon fill="white" stroke="black" points="188,-142.5 188,-172.5 330,-172.5 330,-142.5 188,-142.5"/>
<text text-anchor="start" x="196" y="-160.5" font-family="Helvetica,sans-Serif" font-size="10.00">denoptim.graph.Fragment.get</text>
<text text-anchor="middle" x="259" y="-149.5" font-family="Helvetica,sans-Serif" font-size="10.00">CurrentAPs</text>
</a>
</g>
</g>
<!-- Node1&#45;&gt;Node5 -->
<g id="edge5" class="edge">
<title>Node1&#45;&gt;Node5</title>
<path fill="none" stroke="midnightblue" d="M132.78,-191.4C151.71,-186.27 173.02,-180.5 192.63,-175.2"/>
<polygon fill="midnightblue" stroke="midnightblue" points="193.66,-178.54 202.4,-172.55 191.83,-171.79 193.66,-178.54"/>
</g>
<!-- Node3 -->
<g id="node3" class="node">
<title>Node3</title>
<g id="a_node3"><a xlink:href="classdenoptim_1_1gui_1_1_fragment_view_panel_1_1_pausable_table_model_listener.html#ab8f315a71d317424e2647c160fc3fdfb" target="_top" xlink:title=" ">
<polygon fill="white" stroke="black" points="578,-224 578,-265 763,-265 763,-224 578,-224"/>
<text text-anchor="start" x="586" y="-253" font-family="Helvetica,sans-Serif" font-size="10.00">denoptim.gui.FragmentView</text>
<text text-anchor="start" x="586" y="-242" font-family="Helvetica,sans-Serif" font-size="10.00">Panel.PausableTableModelListener.set</text>
<text text-anchor="middle" x="670.5" y="-231" font-family="Helvetica,sans-Serif" font-size="10.00">Active</text>
</a>
</g>
</g>
<!-- Node2&#45;&gt;Node3 -->
<g id="edge2" class="edge">
<title>Node2&#45;&gt;Node3</title>
<path fill="none" stroke="midnightblue" d="M530.02,-244.5C542.22,-244.5 555.04,-244.5 567.75,-244.5"/>
<polygon fill="midnightblue" stroke="midnightblue" points="567.91,-248 577.91,-244.5 567.91,-241 567.91,-248"/>
</g>
<!-- Node4&#45;&gt;Node2 -->
<g id="edge4" class="edge">
<title>Node4&#45;&gt;Node2</title>
<path fill="none" stroke="midnightblue" d="M327.5,-219.79C340.62,-222.37 354.53,-225.11 368.13,-227.79"/>
<polygon fill="midnightblue" stroke="midnightblue" points="367.47,-231.23 377.96,-229.72 368.82,-224.36 367.47,-231.23"/>
</g>
<!-- Node6 -->
<g id="node6" class="node">
<title>Node6</title>
<g id="a_node6"><a xlink:href="classdenoptim_1_1graph_1_1_fragment.html#a551361a1155600e6e2fe4e37590c924f" target="_top" xlink:title=" ">
<polygon fill="white" stroke="black" points="599.5,-169.5 599.5,-199.5 741.5,-199.5 741.5,-169.5 599.5,-169.5"/>
<text text-anchor="start" x="607.5" y="-187.5" font-family="Helvetica,sans-Serif" font-size="10.00">denoptim.graph.Fragment.get</text>
<text text-anchor="middle" x="670.5" y="-176.5" font-family="Helvetica,sans-Serif" font-size="10.00">APsFromAtom</text>
</a>
</g>
</g>
<!-- Node5&#45;&gt;Node6 -->
<g id="edge6" class="edge">
<title>Node5&#45;&gt;Node6</title>
<path fill="none" stroke="midnightblue" d="M330.4,-162.14C402.25,-166.88 513.63,-174.22 588.96,-179.19"/>
<polygon fill="midnightblue" stroke="midnightblue" points="589.13,-182.71 599.34,-179.87 589.59,-175.72 589.13,-182.71"/>
</g>
<!-- Node7 -->
<g id="node7" class="node">
<title>Node7</title>
<g id="a_node7"><a xlink:href="classdenoptim_1_1graph_1_1_fragment.html#a8a6b413cc1a9c7276c9cfbd7e9284c99" target="_top" xlink:title="Changes the properties of each APs as to reflect the current atom list.">
<polygon fill="white" stroke="black" points="366,-129 366,-148 542,-148 542,-129 366,-129"/>
<text text-anchor="middle" x="454" y="-136" font-family="Helvetica,sans-Serif" font-size="10.00">denoptim.graph.Fragment.updateAPs</text>
</a>
</g>
</g>
<!-- Node5&#45;&gt;Node7 -->
<g id="edge7" class="edge">
<title>Node5&#45;&gt;Node7</title>
<path fill="none" stroke="midnightblue" d="M330.22,-150.59C338.51,-149.77 347.08,-148.93 355.66,-148.08"/>
<polygon fill="midnightblue" stroke="midnightblue" points="356.11,-151.56 365.72,-147.09 355.42,-144.59 356.11,-151.56"/>
</g>
<!-- Node7&#45;&gt;Node6 -->
<g id="edge8" class="edge">
<title>Node7&#45;&gt;Node6</title>
<path fill="none" stroke="midnightblue" d="M499.44,-148.03C525.35,-153.59 558.81,-160.76 589.19,-167.28"/>
<polygon fill="midnightblue" stroke="midnightblue" points="588.84,-170.78 599.36,-169.46 590.31,-163.94 588.84,-170.78"/>
</g>
<!-- Node8 -->
<g id="node8" class="node">
<title>Node8</title>
<g id="a_node8"><a xlink:href="classdenoptim_1_1graph_1_1_attachment_point.html#a54d64a8abc57153a64783ddb262f518c" target="_top" xlink:title="Set the index of the source atom in the list of atoms of the fragment.">
<polygon fill="white" stroke="black" points="596.5,-120.5 596.5,-150.5 744.5,-150.5 744.5,-120.5 596.5,-120.5"/>
<text text-anchor="start" x="604.5" y="-138.5" font-family="Helvetica,sans-Serif" font-size="10.00">denoptim.graph.Attachment</text>
<text text-anchor="middle" x="670.5" y="-127.5" font-family="Helvetica,sans-Serif" font-size="10.00">Point.setAtomPositionNumber</text>
</a>
</g>
</g>
<!-- Node7&#45;&gt;Node8 -->
<g id="edge9" class="edge">
<title>Node7&#45;&gt;Node8</title>
<path fill="none" stroke="midnightblue" d="M542.25,-137.28C556.71,-137.08 571.68,-136.87 586.05,-136.67"/>
<polygon fill="midnightblue" stroke="midnightblue" points="586.44,-140.16 596.39,-136.52 586.35,-133.16 586.44,-140.16"/>
</g>
<!-- Node9 -->
<g id="node9" class="node">
<title>Node9</title>
<g id="a_node9"><a xlink:href="classdenoptim_1_1graph_1_1_fragment.html#ab272daa0515a1ee2fb99a2eb6a81a4a0" target="_top" xlink:title="Depends on an healthy list of attachment points with properly set pointers to the source atoms.">
<polygon fill="white" stroke="black" points="591.5,-71.5 591.5,-101.5 749.5,-101.5 749.5,-71.5 591.5,-71.5"/>
<text text-anchor="start" x="599.5" y="-89.5" font-family="Helvetica,sans-Serif" font-size="10.00">denoptim.graph.Fragment.update</text>
<text text-anchor="middle" x="670.5" y="-78.5" font-family="Helvetica,sans-Serif" font-size="10.00">SymmetryRelations</text>
</a>
</g>
</g>
<!-- Node7&#45;&gt;Node9 -->
<g id="edge10" class="edge">
<title>Node7&#45;&gt;Node9</title>
<path fill="none" stroke="midnightblue" d="M494.34,-128.96C523.07,-122 562.85,-112.35 597.24,-104.02"/>
<polygon fill="midnightblue" stroke="midnightblue" points="598.35,-107.35 607.25,-101.59 596.7,-100.55 598.35,-107.35"/>
</g>
<!-- Node10 -->
<g id="node10" class="node">
<title>Node10</title>
<g id="a_node10"><a xlink:href="classdenoptim_1_1graph_1_1_fragment.html#a9f0d8233f6ed31316409d643b5e0f0cd" target="_top" xlink:title=" ">
<polygon fill="white" stroke="black" points="807.5,-120.5 807.5,-150.5 949.5,-150.5 949.5,-120.5 807.5,-120.5"/>
<text text-anchor="start" x="815.5" y="-138.5" font-family="Helvetica,sans-Serif" font-size="10.00">denoptim.graph.Fragment.get</text>
<text text-anchor="middle" x="878.5" y="-127.5" font-family="Helvetica,sans-Serif" font-size="10.00">AttachmentPoints</text>
</a>
</g>
</g>
<!-- Node9&#45;&gt;Node10 -->
<g id="edge11" class="edge">
<title>Node9&#45;&gt;Node10</title>
<path fill="none" stroke="midnightblue" d="M734.71,-101.53C756.75,-106.78 781.68,-112.71 804.46,-118.13"/>
<polygon fill="midnightblue" stroke="midnightblue" points="803.87,-121.58 814.41,-120.49 805.49,-114.77 803.87,-121.58"/>
</g>
<!-- Node11 -->
<g id="node11" class="node">
<title>Node11</title>
<g id="a_node11"><a xlink:href="classdenoptim_1_1graph_1_1_fragment.html#a41f439afd1ed84bc64fa895b440f47ce" target="_top" xlink:title=" ">
<polygon fill="white" stroke="black" points="799,-71.5 799,-101.5 958,-101.5 958,-71.5 799,-71.5"/>
<text text-anchor="start" x="807" y="-89.5" font-family="Helvetica,sans-Serif" font-size="10.00">denoptim.graph.Fragment.identify</text>
<text text-anchor="middle" x="878.5" y="-78.5" font-family="Helvetica,sans-Serif" font-size="10.00">SymmetryRelatedAPSets</text>
</a>
</g>
</g>
<!-- Node9&#45;&gt;Node11 -->
<g id="edge12" class="edge">
<title>Node9&#45;&gt;Node11</title>
<path fill="none" stroke="midnightblue" d="M749.67,-86.5C762.34,-86.5 775.53,-86.5 788.43,-86.5"/>
<polygon fill="midnightblue" stroke="midnightblue" points="788.7,-90 798.7,-86.5 788.7,-83 788.7,-90"/>
</g>
<!-- Node16 -->
<g id="node16" class="node">
<title>Node16</title>
<g id="a_node16"><a xlink:href="classdenoptim_1_1graph_1_1_fragment.html#a66decdfeee2f583361c51e00ac598557" target="_top" xlink:title=" ">
<polygon fill="white" stroke="black" points="807.5,-22.5 807.5,-52.5 949.5,-52.5 949.5,-22.5 807.5,-22.5"/>
<text text-anchor="start" x="815.5" y="-40.5" font-family="Helvetica,sans-Serif" font-size="10.00">denoptim.graph.Fragment.set</text>
<text text-anchor="middle" x="878.5" y="-29.5" font-family="Helvetica,sans-Serif" font-size="10.00">SymmetricAPSets</text>
</a>
</g>
</g>
<!-- Node9&#45;&gt;Node16 -->
<g id="edge17" class="edge">
<title>Node9&#45;&gt;Node16</title>
<path fill="none" stroke="midnightblue" d="M734.71,-71.47C756.75,-66.22 781.68,-60.29 804.46,-54.87"/>
<polygon fill="midnightblue" stroke="midnightblue" points="805.49,-58.23 814.41,-52.51 803.87,-51.42 805.49,-58.23"/>
</g>
<!-- Node12 -->
<g id="node12" class="node">
<title>Node12</title>
<g id="a_node12"><a xlink:href="classdenoptim_1_1graph_1_1_fragment.html#a90fc66d07e071376ee45a32ab8a76020" target="_top" xlink:title="Checks if the atoms at the given positions have similar environments i.e.">
<polygon fill="white" stroke="black" points="1003.5,-137.5 1003.5,-167.5 1158.5,-167.5 1158.5,-137.5 1003.5,-137.5"/>
<text text-anchor="start" x="1011.5" y="-155.5" font-family="Helvetica,sans-Serif" font-size="10.00">denoptim.graph.Fragment.atoms</text>
<text text-anchor="middle" x="1081" y="-144.5" font-family="Helvetica,sans-Serif" font-size="10.00">AreCompatible</text>
</a>
</g>
</g>
<!-- Node11&#45;&gt;Node12 -->
<g id="edge13" class="edge">
<title>Node11&#45;&gt;Node12</title>
<path fill="none" stroke="midnightblue" d="M929.62,-101.55C939.11,-104.66 948.91,-108.04 958,-111.5 974.37,-117.72 977.56,-121.49 994,-127.5 1000.48,-129.87 1007.29,-132.17 1014.13,-134.35"/>
<polygon fill="midnightblue" stroke="midnightblue" points="1013.54,-137.83 1024.13,-137.45 1015.62,-131.14 1013.54,-137.83"/>
</g>
<!-- Node13 -->
<g id="node13" class="node">
<title>Node13</title>
<g id="a_node13"><a xlink:href="classdenoptim_1_1graph_1_1_a_p_class.html#a5cac5d20b70a0eace014ce062a271fbf" target="_top" xlink:title=" ">
<polygon fill="white" stroke="black" points="994,-99 994,-118 1168,-118 1168,-99 994,-99"/>
<text text-anchor="middle" x="1081" y="-106" font-family="Helvetica,sans-Serif" font-size="10.00">denoptim.graph.APClass.compareTo</text>
</a>
</g>
</g>
<!-- Node11&#45;&gt;Node13 -->
<g id="edge14" class="edge">
<title>Node11&#45;&gt;Node13</title>
<path fill="none" stroke="midnightblue" d="M958.17,-95.13C966.6,-96.06 975.26,-97.01 983.87,-97.95"/>
<polygon fill="midnightblue" stroke="midnightblue" points="983.62,-101.45 993.94,-99.06 984.38,-94.49 983.62,-101.45"/>
</g>
<!-- Node14 -->
<g id="node14" class="node">
<title>Node14</title>
<g id="a_node14"><a xlink:href="classdenoptim_1_1graph_1_1_attachment_point.html#a31bed4cb29f6437bf8a888a1dda3fd95" target="_top" xlink:title="Returns the Attachment Point class.">
<polygon fill="white" stroke="black" points="1013.5,-49.5 1013.5,-79.5 1148.5,-79.5 1148.5,-49.5 1013.5,-49.5"/>
<text text-anchor="start" x="1021.5" y="-67.5" font-family="Helvetica,sans-Serif" font-size="10.00">denoptim.graph.Attachment</text>
<text text-anchor="middle" x="1081" y="-56.5" font-family="Helvetica,sans-Serif" font-size="10.00">Point.getAPClass</text>
</a>
</g>
</g>
<!-- Node11&#45;&gt;Node14 -->
<g id="edge15" class="edge">
<title>Node11&#45;&gt;Node14</title>
<path fill="none" stroke="midnightblue" d="M958.17,-77.87C972.96,-76.24 988.42,-74.55 1003.16,-72.93"/>
<polygon fill="midnightblue" stroke="midnightblue" points="1003.68,-76.4 1013.23,-71.83 1002.91,-69.44 1003.68,-76.4"/>
</g>
<!-- Node15 -->
<g id="node15" class="node">
<title>Node15</title>
<g id="a_node15"><a xlink:href="classdenoptim_1_1graph_1_1_attachment_point.html#a7e45846280a63bd2bf36b85e502ffa49" target="_top" xlink:title="The index of the source atom in the atom list of the fragment.">
<polygon fill="white" stroke="black" points="1007,-0.5 1007,-30.5 1155,-30.5 1155,-0.5 1007,-0.5"/>
<text text-anchor="start" x="1015" y="-18.5" font-family="Helvetica,sans-Serif" font-size="10.00">denoptim.graph.Attachment</text>
<text text-anchor="middle" x="1081" y="-7.5" font-family="Helvetica,sans-Serif" font-size="10.00">Point.getAtomPositionNumber</text>
</a>
</g>
</g>
<!-- Node11&#45;&gt;Node15 -->
<g id="edge16" class="edge">
<title>Node11&#45;&gt;Node15</title>
<path fill="none" stroke="midnightblue" d="M935.05,-71.44C942.87,-68.76 950.72,-65.77 958,-62.5 975.1,-54.81 976.85,-48.07 994,-40.5 999.38,-38.13 1005.04,-35.91 1010.79,-33.85"/>
<polygon fill="midnightblue" stroke="midnightblue" points="1012.17,-37.08 1020.51,-30.55 1009.91,-30.45 1012.17,-37.08"/>
</g>
</g>
</svg>
        <g id="navigator" transform="translate(0 0)" fill="#404254">
                <rect fill="#f2f5e9" fill-opacity="0.5" stroke="#606060" stroke-width=".5" x="0" y="0" width="60" height="60"/>
                <use id="zoomplus" xlink:href="#zoomPlus" x="17" y="9" onmousedown="handleZoom(evt,'in')"/>
                <use id="zoomminus" xlink:href="#zoomMin" x="42" y="9" onmousedown="handleZoom(evt,'out')"/>
                <use id="reset" xlink:href="#resetDef" x="30" y="36" onmousedown="handleReset()"/>
                <g id="arrowUp" xlink:href="#dirArrow" transform="translate(30 24)" onmousedown="handlePan(0,-1)">
                  <use xlink:href="#rim" fill="#404040">
                        <set attributeName="fill" to="#808080" begin="arrowUp.mouseover" end="arrowUp.mouseout"/>
                  </use>
                  <path fill="none" stroke="white" stroke-width="1.5" d="M0,-3.0v7 M-2.5,-0.5L0,-3.0L2.5,-0.5"/>
                </g>
                <g id="arrowRight" xlink:href="#dirArrow" transform="rotate(90) translate(36 -43)" onmousedown="handlePan(1,0)">
                  <use xlink:href="#rim" fill="#404040">
                        <set attributeName="fill" to="#808080" begin="arrowRight.mouseover" end="arrowRight.mouseout"/>
                  </use>
                  <path fill="none" stroke="white" stroke-width="1.5" d="M0,-3.0v7 M-2.5,-0.5L0,-3.0L2.5,-0.5"/>
                </g>
                <g id="arrowDown" xlink:href="#dirArrow" transform="rotate(180) translate(-30 -48)" onmousedown="handlePan(0,1)">
                  <use xlink:href="#rim" fill="#404040">
                        <set attributeName="fill" to="#808080" begin="arrowDown.mouseover" end="arrowDown.mouseout"/>
                  </use>
                  <path fill="none" stroke="white" stroke-width="1.5" d="M0,-3.0v7 M-2.5,-0.5L0,-3.0L2.5,-0.5"/>
                </g>
                <g id="arrowLeft" xlink:href="#dirArrow" transform="rotate(270) translate(-36 17)" onmousedown="handlePan(-1,0)">
                  <use xlink:href="#rim" fill="#404040">
                        <set attributeName="fill" to="#808080" begin="arrowLeft.mouseover" end="arrowLeft.mouseout"/>
                  </use>
                  <path fill="none" stroke="white" stroke-width="1.5" d="M0,-3.0v7 M-2.5,-0.5L0,-3.0L2.5,-0.5"/>
                </g>
        </g>
        <svg viewBox="0 0 15 15" width="100%" height="30px" preserveAspectRatio="xMaxYMin meet">
         <g id="arrow_out" transform="scale(0.3 0.3)">
          <a xlink:href="classdenoptim_1_1gui_1_1_fragment_view_panel_a31fd7e726b0845744515b63174e6d546_cgraph_org.svg" target="_base">
           <rect id="button" ry="5" rx="5" y="6" x="6" height="38" width="38"
                fill="#f2f5e9" fill-opacity="0.5" stroke="#606060" stroke-width="1.0"/>
           <path id="arrow"
             d="M 11.500037,31.436501 C 11.940474,20.09759 22.043105,11.32322 32.158766,21.979434 L 37.068811,17.246167 C 37.068811,17.246167 37.088388,32 37.088388,32 L 22.160133,31.978069 C 22.160133,31.978069 26.997745,27.140456 26.997745,27.140456 C 18.528582,18.264221 13.291696,25.230495 11.500037,31.436501 z"
             style="fill:#404040;"/>
          </a>
         </g>
        </svg>
</svg>
