<?xml version="1.0" encoding="UTF-8" standalone="no"?>
<!DOCTYPE svg PUBLIC "-//W3C//DTD SVG 1.1//EN"
 "http://www.w3.org/Graphics/SVG/1.1/DTD/svg11.dtd">
<!-- Generated by graphviz version 3.0.0 (20220413.0242)
 -->
<!-- Title: denoptim.gui.GAParametersForm.GAParametersForm Pages: 1 -->
<svg width="973pt" height="411pt"
 viewBox="0.00 0.00 973.00 411.00" xmlns="http://www.w3.org/2000/svg" xmlns:xlink="http://www.w3.org/1999/xlink">
<g id="graph0" class="graph" transform="scale(1 1) rotate(0) translate(4 407)">
<title>denoptim.gui.GAParametersForm.GAParametersForm</title>
<polygon fill="white" stroke="transparent" points="-4,4 -4,-407 969,-407 969,4 -4,4"/>
<!-- Node1 -->
<g id="node1" class="node">
<title>Node1</title>
<g id="a_node1"><a xlink:title=" ">
<polygon fill="#bfbfbf" stroke="black" points="0,-200.5 0,-230.5 138,-230.5 138,-200.5 0,-200.5"/>
<text text-anchor="start" x="8" y="-218.5" font-family="Helvetica,sans-Serif" font-size="10.00">denoptim.gui.GAParameters</text>
<text text-anchor="middle" x="69" y="-207.5" font-family="Helvetica,sans-Serif" font-size="10.00">Form.GAParametersForm</text>
</a>
</g>
</g>
<!-- Node2 -->
<g id="node2" class="node">
<title>Node2</title>
<g id="a_node2"><a xlink:href="classdenoptim_1_1gui_1_1_g_a_parameters_form.html#a567ed81852332217cc344d9a5ecd8eb0" target="_top" xlink:title=" ">
<polygon fill="white" stroke="black" points="193.5,-372.5 193.5,-402.5 336.5,-402.5 336.5,-372.5 193.5,-372.5"/>
<text text-anchor="start" x="201.5" y="-390.5" font-family="Helvetica,sans-Serif" font-size="10.00">denoptim.gui.GAParameters</text>
<text text-anchor="middle" x="265" y="-379.5" font-family="Helvetica,sans-Serif" font-size="10.00">Form.createCrowdProbGraph</text>
</a>
</g>
</g>
<!-- Node1&#45;&gt;Node2 -->
<g id="edge1" class="edge">
<title>Node1&#45;&gt;Node2</title>
<path fill="none" stroke="midnightblue" d="M76.35,-230.73C89.73,-260.92 123.79,-328.45 174,-363.5 177.1,-365.66 180.38,-367.63 183.79,-369.42"/>
<polygon fill="midnightblue" stroke="midnightblue" points="182.52,-372.69 193.07,-373.76 185.49,-366.35 182.52,-372.69"/>
</g>
<!-- Node8 -->
<g id="node8" class="node">
<title>Node8</title>
<g id="a_node8"><a xlink:href="classdenoptim_1_1gui_1_1_g_a_parameters_form.html#a158ba2f1ca48d1c41d976fb1e29270d4" target="_top" xlink:title=" ">
<polygon fill="white" stroke="black" points="196,-176.5 196,-206.5 334,-206.5 334,-176.5 196,-176.5"/>
<text text-anchor="start" x="204" y="-194.5" font-family="Helvetica,sans-Serif" font-size="10.00">denoptim.gui.GAParameters</text>
<text text-anchor="middle" x="265" y="-183.5" font-family="Helvetica,sans-Serif" font-size="10.00">Form.createLvlProbGraph</text>
</a>
</g>
</g>
<!-- Node1&#45;&gt;Node8 -->
<g id="edge7" class="edge">
<title>Node1&#45;&gt;Node8</title>
<path fill="none" stroke="midnightblue" d="M138.12,-207.07C153.44,-205.18 169.81,-203.15 185.51,-201.21"/>
<polygon fill="midnightblue" stroke="midnightblue" points="186.22,-204.65 195.71,-199.95 185.36,-197.7 186.22,-204.65"/>
</g>
<!-- Node12 -->
<g id="node12" class="node">
<title>Node12</title>
<g id="a_node12"><a xlink:href="classdenoptim_1_1gui_1_1_g_a_parameters_form.html#a2343e3ea102ecd32a7d4e331b51cd160" target="_top" xlink:title=" ">
<polygon fill="white" stroke="black" points="194,-225.5 194,-255.5 336,-255.5 336,-225.5 194,-225.5"/>
<text text-anchor="start" x="202" y="-243.5" font-family="Helvetica,sans-Serif" font-size="10.00">denoptim.gui.GAParameters</text>
<text text-anchor="middle" x="265" y="-232.5" font-family="Helvetica,sans-Serif" font-size="10.00">Form.createMolSzProbGraph</text>
</a>
</g>
</g>
<!-- Node1&#45;&gt;Node12 -->
<g id="edge13" class="edge">
<title>Node1&#45;&gt;Node12</title>
<path fill="none" stroke="midnightblue" d="M138.12,-224.28C152.76,-226.17 168.36,-228.18 183.42,-230.12"/>
<polygon fill="midnightblue" stroke="midnightblue" points="183.37,-233.64 193.74,-231.45 184.27,-226.7 183.37,-233.64"/>
</g>
<!-- Node15 -->
<g id="node15" class="node">
<title>Node15</title>
<g id="a_node15"><a xlink:href="classdenoptim_1_1gui_1_1_g_a_parameters_form.html#aee2a063d83a006a2cddb4b4af1af2673" target="_top" xlink:title="Imports parameters from a properly formatted parameters file.">
<polygon fill="white" stroke="black" points="174,-49 174,-90 356,-90 356,-49 174,-49"/>
<text text-anchor="start" x="182" y="-78" font-family="Helvetica,sans-Serif" font-size="10.00">denoptim.gui.GAParameters</text>
<text text-anchor="start" x="182" y="-67" font-family="Helvetica,sans-Serif" font-size="10.00">Form.importParametersFromDenoptim</text>
<text text-anchor="middle" x="265" y="-56" font-family="Helvetica,sans-Serif" font-size="10.00">ParamsFile</text>
</a>
</g>
</g>
<!-- Node1&#45;&gt;Node15 -->
<g id="edge18" class="edge">
<title>Node1&#45;&gt;Node15</title>
<path fill="none" stroke="midnightblue" d="M83.73,-200.23C102.68,-179.74 138.54,-142.97 174,-117.5 185.34,-109.35 198.24,-101.67 210.65,-94.94"/>
<polygon fill="midnightblue" stroke="midnightblue" points="212.38,-97.99 219.58,-90.21 209.1,-91.8 212.38,-97.99"/>
</g>
<!-- Node16 -->
<g id="node16" class="node">
<title>Node16</title>
<g id="a_node16"><a xlink:href="classdenoptim_1_1gui_1_1_g_u_i_file_opener.html#aff1eb57da9cbb113e119fbc24c96c3da" target="_top" xlink:title=" ">
<polygon fill="white" stroke="black" points="185.5,-0.5 185.5,-30.5 344.5,-30.5 344.5,-0.5 185.5,-0.5"/>
<text text-anchor="start" x="193.5" y="-18.5" font-family="Helvetica,sans-Serif" font-size="10.00">denoptim.gui.GUIFileOpener.pick</text>
<text text-anchor="middle" x="265" y="-7.5" font-family="Helvetica,sans-Serif" font-size="10.00">FileForTxtField</text>
</a>
</g>
</g>
<!-- Node1&#45;&gt;Node16 -->
<g id="edge20" class="edge">
<title>Node1&#45;&gt;Node16</title>
<path fill="none" stroke="midnightblue" d="M74.55,-200.33C85.62,-166.1 117.3,-82.5 174,-39.5 175.83,-38.11 177.74,-36.8 179.7,-35.57"/>
<polygon fill="midnightblue" stroke="midnightblue" points="181.6,-38.52 188.67,-30.63 178.22,-32.39 181.6,-38.52"/>
</g>
<!-- Node18 -->
<g id="node18" class="node">
<title>Node18</title>
<g id="a_node18"><a xlink:href="classdenoptim_1_1gui_1_1_g_a_parameters_form.html#a2e63957f5d08fb45f9a5fb3fbf5882a0" target="_top" xlink:title=" ">
<polygon fill="white" stroke="black" points="189,-323.5 189,-353.5 341,-353.5 341,-323.5 189,-323.5"/>
<text text-anchor="start" x="197" y="-341.5" font-family="Helvetica,sans-Serif" font-size="10.00">denoptim.gui.GAParameters</text>
<text text-anchor="middle" x="265" y="-330.5" font-family="Helvetica,sans-Serif" font-size="10.00">Form.updateCrowdProbDataset</text>
</a>
</g>
</g>
<!-- Node1&#45;&gt;Node18 -->
<g id="edge22" class="edge">
<title>Node1&#45;&gt;Node18</title>
<path fill="none" stroke="midnightblue" d="M81.71,-230.7C99.34,-252.53 134.85,-292.57 174,-314.5 177.22,-316.31 180.59,-317.98 184.04,-319.53"/>
<polygon fill="midnightblue" stroke="midnightblue" points="182.78,-322.8 193.36,-323.36 185.44,-316.32 182.78,-322.8"/>
</g>
<!-- Node19 -->
<g id="node19" class="node">
<title>Node19</title>
<g id="a_node19"><a xlink:href="classdenoptim_1_1gui_1_1_g_a_parameters_form.html#a6fc27618b9532386f400bb1ea2b2ca1f" target="_top" xlink:title=" ">
<polygon fill="white" stroke="black" points="185.5,-274.5 185.5,-304.5 344.5,-304.5 344.5,-274.5 185.5,-274.5"/>
<text text-anchor="start" x="193.5" y="-292.5" font-family="Helvetica,sans-Serif" font-size="10.00">denoptim.gui.GAParameters</text>
<text text-anchor="middle" x="265" y="-281.5" font-family="Helvetica,sans-Serif" font-size="10.00">Form.updatemolSizeProbDataset</text>
</a>
</g>
</g>
<!-- Node1&#45;&gt;Node19 -->
<g id="edge24" class="edge">
<title>Node1&#45;&gt;Node19</title>
<path fill="none" stroke="midnightblue" d="M98.57,-230.57C119.16,-241.03 147.81,-254.77 174,-264.5 180.43,-266.89 187.2,-269.17 194.02,-271.32"/>
<polygon fill="midnightblue" stroke="midnightblue" points="193.41,-274.79 204,-274.36 195.45,-268.1 193.41,-274.79"/>
</g>
<!-- Node20 -->
<g id="node20" class="node">
<title>Node20</title>
<g id="a_node20"><a xlink:href="classdenoptim_1_1gui_1_1_g_a_parameters_form.html#ad06889bcd32122fe3f16825f9525daca" target="_top" xlink:title=" ">
<polygon fill="white" stroke="black" points="191.5,-127.5 191.5,-157.5 338.5,-157.5 338.5,-127.5 191.5,-127.5"/>
<text text-anchor="start" x="199.5" y="-145.5" font-family="Helvetica,sans-Serif" font-size="10.00">denoptim.gui.GAParameters</text>
<text text-anchor="middle" x="265" y="-134.5" font-family="Helvetica,sans-Serif" font-size="10.00">Form.updateSubsProbDataset</text>
</a>
</g>
</g>
<!-- Node1&#45;&gt;Node20 -->
<g id="edge26" class="edge">
<title>Node1&#45;&gt;Node20</title>
<path fill="none" stroke="midnightblue" d="M98.54,-200.34C119.11,-189.85 147.76,-176.09 174,-166.5 179.78,-164.39 185.83,-162.37 191.95,-160.47"/>
<polygon fill="midnightblue" stroke="midnightblue" points="193,-163.81 201.57,-157.58 190.99,-157.1 193,-163.81"/>
</g>
<!-- Node3 -->
<g id="node3" class="node">
<title>Node3</title>
<g id="a_node3"><a xlink:href="classdenoptim_1_1gui_1_1_g_a_parameters_form.html#afd2f82541c1944466a60f8d558a40446" target="_top" xlink:title=" ">
<polygon fill="white" stroke="black" points="409.5,-372.5 409.5,-402.5 549.5,-402.5 549.5,-372.5 409.5,-372.5"/>
<text text-anchor="start" x="417.5" y="-390.5" font-family="Helvetica,sans-Serif" font-size="10.00">denoptim.gui.GAParameters</text>
<text text-anchor="middle" x="479.5" y="-379.5" font-family="Helvetica,sans-Serif" font-size="10.00">Form.createCrowdProbChart</text>
</a>
</g>
</g>
<!-- Node2&#45;&gt;Node3 -->
<g id="edge2" class="edge">
<title>Node2&#45;&gt;Node3</title>
<path fill="none" stroke="midnightblue" d="M336.76,-387.5C356.8,-387.5 378.74,-387.5 399.24,-387.5"/>
<polygon fill="midnightblue" stroke="midnightblue" points="399.49,-391 409.49,-387.5 399.49,-384 399.49,-391"/>
</g>
<!-- Node4 -->
<g id="node4" class="node">
<title>Node4</title>
<g id="a_node4"><a xlink:href="classdenoptim_1_1gui_1_1_g_a_parameters_form.html#a44e653526253cfea892611376a7fa3bb" target="_top" xlink:title=" ">
<polygon fill="white" stroke="black" points="404.5,-323.5 404.5,-353.5 554.5,-353.5 554.5,-323.5 404.5,-323.5"/>
<text text-anchor="start" x="412.5" y="-341.5" font-family="Helvetica,sans-Serif" font-size="10.00">denoptim.gui.GAParameters</text>
<text text-anchor="middle" x="479.5" y="-330.5" font-family="Helvetica,sans-Serif" font-size="10.00">Form.createCrowdProbDataset</text>
</a>
</g>
</g>
<!-- Node2&#45;&gt;Node4 -->
<g id="edge3" class="edge">
<title>Node2&#45;&gt;Node4</title>
<path fill="none" stroke="midnightblue" d="M331.2,-372.47C354.05,-367.2 379.88,-361.24 403.47,-355.8"/>
<polygon fill="midnightblue" stroke="midnightblue" points="404.46,-359.16 413.42,-353.51 402.89,-352.34 404.46,-359.16"/>
</g>
<!-- Node5 -->
<g id="node5" class="node">
<title>Node5</title>
<g id="a_node5"><a xlink:href="classdenoptim_1_1programs_1_1denovo_1_1_g_a_parameters.html#a4488a01992b7a7f2cda6f3aa7baa25ab" target="_top" xlink:title=" ">
<polygon fill="white" stroke="black" points="603,-266 603,-307 764,-307 764,-266 603,-266"/>
<text text-anchor="start" x="611" y="-295" font-family="Helvetica,sans-Serif" font-size="10.00">denoptim.programs.denovo.</text>
<text text-anchor="start" x="611" y="-284" font-family="Helvetica,sans-Serif" font-size="10.00">GAParameters.convertProbability</text>
<text text-anchor="middle" x="683.5" y="-273" font-family="Helvetica,sans-Serif" font-size="10.00">Scheme</text>
</a>
</g>
</g>
<!-- Node4&#45;&gt;Node5 -->
<g id="edge4" class="edge">
<title>Node4&#45;&gt;Node5</title>
<path fill="none" stroke="midnightblue" d="M538.93,-323.46C555.82,-319.11 574.65,-314.26 592.97,-309.55"/>
<polygon fill="midnightblue" stroke="midnightblue" points="593.98,-312.9 602.79,-307.02 592.23,-306.12 593.98,-312.9"/>
</g>
<!-- Node6 -->
<g id="node6" class="node">
<title>Node6</title>
<g id="a_node6"><a xlink:href="classdenoptim_1_1ga_1_1_e_a_utils.html#acf42fcadab45800cf712361cc025ffbb" target="_top" xlink:title="Calculated the crowding probability for a given level of crowdedness.">
<polygon fill="white" stroke="black" points="603,-325.5 603,-355.5 764,-355.5 764,-325.5 603,-325.5"/>
<text text-anchor="start" x="611" y="-343.5" font-family="Helvetica,sans-Serif" font-size="10.00">denoptim.ga.EAUtils.getCrowding</text>
<text text-anchor="middle" x="683.5" y="-332.5" font-family="Helvetica,sans-Serif" font-size="10.00">ProbabilityForCrowdedness</text>
</a>
</g>
</g>
<!-- Node4&#45;&gt;Node6 -->
<g id="edge5" class="edge">
<title>Node4&#45;&gt;Node6</title>
<path fill="none" stroke="midnightblue" d="M554.57,-339.23C567.01,-339.36 580.04,-339.49 592.82,-339.61"/>
<polygon fill="midnightblue" stroke="midnightblue" points="592.97,-343.11 603,-339.71 593.03,-336.11 592.97,-343.11"/>
</g>
<!-- Node7 -->
<g id="node7" class="node">
<title>Node7</title>
<g id="a_node7"><a xlink:href="classdenoptim_1_1ga_1_1_e_a_utils.html#a41e3b62363bfa04f372d094483eee83f" target="_top" xlink:title="Calculated a probability given parameters defining the shape of the probability function and a single...">
<polygon fill="white" stroke="black" points="800,-228 800,-247 965,-247 965,-228 800,-228"/>
<text text-anchor="middle" x="882.5" y="-235" font-family="Helvetica,sans-Serif" font-size="10.00">denoptim.ga.EAUtils.getProbability</text>
</a>
</g>
</g>
<!-- Node6&#45;&gt;Node7 -->
<g id="edge6" class="edge">
<title>Node6&#45;&gt;Node7</title>
<path fill="none" stroke="midnightblue" d="M741.74,-325.48C749.36,-322.83 756.96,-319.83 764,-316.5 800.87,-299.03 839.32,-271.01 861.8,-253.46"/>
<polygon fill="midnightblue" stroke="midnightblue" points="864.2,-256.02 869.87,-247.07 859.86,-250.53 864.2,-256.02"/>
</g>
<!-- Node9 -->
<g id="node9" class="node">
<title>Node9</title>
<g id="a_node9"><a xlink:href="classdenoptim_1_1gui_1_1_g_a_parameters_form.html#a75f6e299de906ce182f0eaef468312c2" target="_top" xlink:title=" ">
<polygon fill="white" stroke="black" points="410.5,-176.5 410.5,-206.5 548.5,-206.5 548.5,-176.5 410.5,-176.5"/>
<text text-anchor="start" x="418.5" y="-194.5" font-family="Helvetica,sans-Serif" font-size="10.00">denoptim.gui.GAParameters</text>
<text text-anchor="middle" x="479.5" y="-183.5" font-family="Helvetica,sans-Serif" font-size="10.00">Form.createLvlProbChart</text>
</a>
</g>
</g>
<!-- Node8&#45;&gt;Node9 -->
<g id="edge8" class="edge">
<title>Node8&#45;&gt;Node9</title>
<path fill="none" stroke="midnightblue" d="M334.11,-191.5C355.18,-191.5 378.55,-191.5 400.24,-191.5"/>
<polygon fill="midnightblue" stroke="midnightblue" points="400.41,-195 410.41,-191.5 400.41,-188 400.41,-195"/>
</g>
<!-- Node10 -->
<g id="node10" class="node">
<title>Node10</title>
<g id="a_node10"><a xlink:href="classdenoptim_1_1gui_1_1_g_a_parameters_form.html#a22386cab9dce09cbf6708158ebd38276" target="_top" xlink:title=" ">
<polygon fill="white" stroke="black" points="410.5,-127.5 410.5,-157.5 548.5,-157.5 548.5,-127.5 410.5,-127.5"/>
<text text-anchor="start" x="418.5" y="-145.5" font-family="Helvetica,sans-Serif" font-size="10.00">denoptim.gui.GAParameters</text>
<text text-anchor="middle" x="479.5" y="-134.5" font-family="Helvetica,sans-Serif" font-size="10.00">Form.createLvlProbDataset</text>
</a>
</g>
</g>
<!-- Node8&#45;&gt;Node10 -->
<g id="edge9" class="edge">
<title>Node8&#45;&gt;Node10</title>
<path fill="none" stroke="midnightblue" d="M331.2,-176.47C354.05,-171.2 379.88,-165.24 403.47,-159.8"/>
<polygon fill="midnightblue" stroke="midnightblue" points="404.46,-163.16 413.42,-157.51 402.89,-156.34 404.46,-163.16"/>
</g>
<!-- Node10&#45;&gt;Node5 -->
<g id="edge10" class="edge">
<title>Node10&#45;&gt;Node5</title>
<path fill="none" stroke="midnightblue" d="M548.54,-157.57C554.98,-160.11 561.24,-163.07 567,-166.5 587.89,-178.96 631.21,-226.87 658.45,-258.25"/>
<polygon fill="midnightblue" stroke="midnightblue" points="655.82,-260.57 665.01,-265.85 661.12,-255.99 655.82,-260.57"/>
</g>
<!-- Node11 -->
<g id="node11" class="node">
<title>Node11</title>
<g id="a_node11"><a xlink:href="classdenoptim_1_1ga_1_1_e_a_utils.html#a3dc8bf41035f263b397e14655edc1db3" target="_top" xlink:title="Calculates the probability of adding a fragment to the given level.">
<polygon fill="white" stroke="black" points="607.5,-154.5 607.5,-184.5 759.5,-184.5 759.5,-154.5 607.5,-154.5"/>
<text text-anchor="start" x="615.5" y="-172.5" font-family="Helvetica,sans-Serif" font-size="10.00">denoptim.ga.EAUtils.getGrowth</text>
<text text-anchor="middle" x="683.5" y="-161.5" font-family="Helvetica,sans-Serif" font-size="10.00">ProbabilityAtLevel</text>
</a>
</g>
</g>
<!-- Node10&#45;&gt;Node11 -->
<g id="edge11" class="edge">
<title>Node10&#45;&gt;Node11</title>
<path fill="none" stroke="midnightblue" d="M548.61,-151.6C564.26,-153.7 581.09,-155.95 597.36,-158.12"/>
<polygon fill="midnightblue" stroke="midnightblue" points="597.03,-161.61 607.4,-159.46 597.95,-154.67 597.03,-161.61"/>
</g>
<!-- Node11&#45;&gt;Node7 -->
<g id="edge12" class="edge">
<title>Node11&#45;&gt;Node7</title>
<path fill="none" stroke="midnightblue" d="M728.22,-184.59C762.94,-196.58 810.98,-213.16 843.97,-224.55"/>
<polygon fill="midnightblue" stroke="midnightblue" points="843.1,-227.95 853.7,-227.9 845.39,-221.33 843.1,-227.95"/>
</g>
<!-- Node13 -->
<g id="node13" class="node">
<title>Node13</title>
<g id="a_node13"><a xlink:href="classdenoptim_1_1gui_1_1_g_a_parameters_form.html#a5f0013b279214ea7c6226849afe8333d" target="_top" xlink:title=" ">
<polygon fill="white" stroke="black" points="401,-274.5 401,-304.5 558,-304.5 558,-274.5 401,-274.5"/>
<text text-anchor="start" x="409" y="-292.5" font-family="Helvetica,sans-Serif" font-size="10.00">denoptim.gui.GAParameters</text>
<text text-anchor="middle" x="479.5" y="-281.5" font-family="Helvetica,sans-Serif" font-size="10.00">Form.createMolSizeProbDataset</text>
</a>
</g>
</g>
<!-- Node12&#45;&gt;Node13 -->
<g id="edge14" class="edge">
<title>Node12&#45;&gt;Node13</title>
<path fill="none" stroke="midnightblue" d="M331.2,-255.53C354.05,-260.8 379.88,-266.76 403.47,-272.2"/>
<polygon fill="midnightblue" stroke="midnightblue" points="402.89,-275.66 413.42,-274.49 404.46,-268.84 402.89,-275.66"/>
</g>
<!-- Node14 -->
<g id="node14" class="node">
<title>Node14</title>
<g id="a_node14"><a xlink:href="classdenoptim_1_1gui_1_1_g_a_parameters_form.html#aff8428585508824c0cd2a1f3d006ff79" target="_top" xlink:title=" ">
<polygon fill="white" stroke="black" points="410,-225.5 410,-255.5 549,-255.5 549,-225.5 410,-225.5"/>
<text text-anchor="start" x="418" y="-243.5" font-family="Helvetica,sans-Serif" font-size="10.00">denoptim.gui.GAParameters</text>
<text text-anchor="middle" x="479.5" y="-232.5" font-family="Helvetica,sans-Serif" font-size="10.00">Form.createMolSzProbChart</text>
</a>
</g>
</g>
<!-- Node12&#45;&gt;Node14 -->
<g id="edge17" class="edge">
<title>Node12&#45;&gt;Node14</title>
<path fill="none" stroke="midnightblue" d="M336.17,-240.5C356.53,-240.5 378.9,-240.5 399.75,-240.5"/>
<polygon fill="midnightblue" stroke="midnightblue" points="399.85,-244 409.85,-240.5 399.85,-237 399.85,-244"/>
</g>
<!-- Node13&#45;&gt;Node5 -->
<g id="edge15" class="edge">
<title>Node13&#45;&gt;Node5</title>
<path fill="none" stroke="midnightblue" d="M558.02,-288.35C569.38,-288.18 581.16,-288.01 592.74,-287.83"/>
<polygon fill="midnightblue" stroke="midnightblue" points="592.9,-291.33 602.85,-287.68 592.79,-284.33 592.9,-291.33"/>
</g>
<!-- Node13&#45;&gt;Node7 -->
<g id="edge16" class="edge">
<title>Node13&#45;&gt;Node7</title>
<path fill="none" stroke="midnightblue" d="M532.28,-274.47C559.19,-266.88 589.26,-258.8 603,-256.5 664.87,-246.16 735.38,-241.42 789.97,-239.26"/>
<polygon fill="midnightblue" stroke="midnightblue" points="790.11,-242.75 799.97,-238.88 789.85,-235.76 790.11,-242.75"/>
</g>
<!-- Node15&#45;&gt;Node15 -->
<g id="edge19" class="edge">
<title>Node15&#45;&gt;Node15</title>
<path fill="none" stroke="midnightblue" d="M228.98,-90.36C225.05,-100.04 237.05,-108.5 265,-108.5 282.47,-108.5 293.71,-105.2 298.72,-100.36"/>
<polygon fill="midnightblue" stroke="midnightblue" points="302.19,-100.9 301.02,-90.36 295.37,-99.32 302.19,-100.9"/>
</g>
<!-- Node17 -->
<g id="node17" class="node">
<title>Node17</title>
<g id="a_node17"><a xlink:href="classdenoptim_1_1gui_1_1_g_u_i_file_opener.html#ad35e400e91aa5777334a672546a124cc" target="_top" xlink:title=" ">
<polygon fill="white" stroke="black" points="392,-6 392,-25 567,-25 567,-6 392,-6"/>
<text text-anchor="middle" x="479.5" y="-13" font-family="Helvetica,sans-Serif" font-size="10.00">denoptim.gui.GUIFileOpener.pickFile</text>
</a>
</g>
</g>
<!-- Node16&#45;&gt;Node17 -->
<g id="edge21" class="edge">
<title>Node16&#45;&gt;Node17</title>
<path fill="none" stroke="midnightblue" d="M344.52,-15.5C356.53,-15.5 369.05,-15.5 381.4,-15.5"/>
<polygon fill="midnightblue" stroke="midnightblue" points="381.72,-19 391.72,-15.5 381.72,-12 381.72,-19"/>
</g>
<!-- Node18&#45;&gt;Node4 -->
<g id="edge23" class="edge">
<title>Node18&#45;&gt;Node4</title>
<path fill="none" stroke="midnightblue" d="M341.22,-338.5C358.39,-338.5 376.74,-338.5 394.25,-338.5"/>
<polygon fill="midnightblue" stroke="midnightblue" points="394.46,-342 404.46,-338.5 394.46,-335 394.46,-342"/>
</g>
<!-- Node19&#45;&gt;Node13 -->
<g id="edge25" class="edge">
<title>Node19&#45;&gt;Node13</title>
<path fill="none" stroke="midnightblue" d="M344.52,-289.5C359.41,-289.5 375.08,-289.5 390.25,-289.5"/>
<polygon fill="midnightblue" stroke="midnightblue" points="390.65,-293 400.65,-289.5 390.65,-286 390.65,-293"/>
</g>
<!-- Node20&#45;&gt;Node10 -->
<g id="edge27" class="edge">
<title>Node20&#45;&gt;Node10</title>
<path fill="none" stroke="midnightblue" d="M338.54,-142.5C358.39,-142.5 379.99,-142.5 400.15,-142.5"/>
<polygon fill="midnightblue" stroke="midnightblue" points="400.23,-146 410.23,-142.5 400.23,-139 400.23,-146"/>
</g>
</g>
</svg>
