<?xml version="1.0" encoding="UTF-8" standalone="no"?>
<!DOCTYPE svg PUBLIC "-//W3C//DTD SVG 1.1//EN"
 "http://www.w3.org/Graphics/SVG/1.1/DTD/svg11.dtd">
<!-- Generated by graphviz version 3.0.0 (20220413.0242)
 -->
<!-- Title: denoptim.gui.FSParamsDialog Pages: 1 -->
<!--zoomable 921 -->
<svg id="main" version="1.1" xmlns="http://www.w3.org/2000/svg" xmlns:xlink="http://www.w3.org/1999/xlink" xml:space="preserve" onload="init(evt)">
<style type="text/css"><![CDATA[
.edge:hover path { stroke: red; }
.edge:hover polygon { stroke: red; fill: red; }
]]></style>
<script type="text/javascript"><![CDATA[
var edges = document.getElementsByTagName('g');
if (edges && edges.length) {
  for (var i=0;i<edges.length;i++) {
    if (edges[i].id.substr(0,4)=='edge') {
      edges[i].setAttribute('class','edge');
    }
  }
}
]]></script>
        <defs>
                <circle id="rim" cx="0" cy="0" r="7"/>
                <circle id="rim2" cx="0" cy="0" r="3.5"/>
                <g id="zoomPlus">
                        <use xlink:href="#rim" fill="#404040">
                                <set attributeName="fill" to="#808080" begin="zoomplus.mouseover" end="zoomplus.mouseout"/>
                        </use>
                        <path d="M-4,0h8M0,-4v8" fill="none" stroke="white" stroke-width="1.5" pointer-events="none"/>
                </g>
                <g id="zoomMin">
                        <use xlink:href="#rim" fill="#404040">
                                <set attributeName="fill" to="#808080" begin="zoomminus.mouseover" end="zoomminus.mouseout"/>
                        </use>
                        <path d="M-4,0h8" fill="none" stroke="white" stroke-width="1.5" pointer-events="none"/>
                </g>
                <g id="dirArrow">
                        <path fill="none" stroke="white" stroke-width="1.5" d="M0,-3.0v7 M-2.5,-0.5L0,-3.0L2.5,-0.5"/>
                </g>
               <g id="resetDef">
                       <use xlink:href="#rim2" fill="#404040">
                               <set attributeName="fill" to="#808080" begin="reset.mouseover" end="reset.mouseout"/>
                       </use>
               </g>
        </defs>

<script type="text/javascript">
var viewWidth = 1102;
var viewHeight = 921;
var sectionId = 'dynsection-1';
</script>
<script xlink:href="svgpan.js"/>
<svg id="graph" class="graph">
<g id="viewport">
<title>denoptim.gui.FSParamsDialog</title>
<polygon fill="white" stroke="transparent" points="-4,4 -4,-916.79 1098,-916.79 1098,4 -4,4"/>
<!-- Node1 -->
<g id="node1" class="node">
<title>Node1</title>
<g id="a_node1"><a xlink:title="A modal dialog to define a fragment space and load it.">
<polygon fill="#bfbfbf" stroke="black" points="947,-590.29 947,-609.29 1094,-609.29 1094,-590.29 947,-590.29"/>
<text text-anchor="middle" x="1020.5" y="-597.29" font-family="Helvetica,sans-Serif" font-size="10.00">denoptim.gui.FSParamsDialog</text>
</a>
</g>
</g>
<!-- Node2 -->
<g id="node2" class="node">
<title>Node2</title>
<g id="a_node2"><a xlink:href="classdenoptim_1_1gui_1_1_g_u_i_modal_dialog.html" target="_top" xlink:title=" ">
<polygon fill="white" stroke="black" points="705,-827.29 705,-846.29 850,-846.29 850,-827.29 705,-827.29"/>
<text text-anchor="middle" x="777.5" y="-834.29" font-family="Helvetica,sans-Serif" font-size="10.00">denoptim.gui.GUIModalDialog</text>
</a>
</g>
</g>
<!-- Node2&#45;&gt;Node1 -->
<g id="edge1" class="edge">
<title>Node2&#45;&gt;Node1</title>
<path fill="none" stroke="midnightblue" d="M795.52,-820.05C842.46,-773.89 972.72,-645.8 1009.63,-609.49"/>
<polygon fill="midnightblue" stroke="midnightblue" points="792.92,-817.7 788.25,-827.21 797.83,-822.69 792.92,-817.7"/>
</g>
<!-- Node3 -->
<g id="node3" class="node">
<title>Node3</title>
<g id="a_node3"><a xlink:title=" ">
<polygon fill="white" stroke="black" points="448.5,-840.29 448.5,-859.29 497.5,-859.29 497.5,-840.29 448.5,-840.29"/>
<text text-anchor="middle" x="473" y="-847.29" font-family="Helvetica,sans-Serif" font-size="10.00">JDialog</text>
</a>
</g>
</g>
<!-- Node3&#45;&gt;Node2 -->
<g id="edge2" class="edge">
<title>Node3&#45;&gt;Node2</title>
<path fill="none" stroke="midnightblue" d="M507.7,-850.21C548.52,-850.52 619.36,-850.37 680,-846.79 688.07,-846.31 696.51,-845.66 704.89,-844.92"/>
<polygon fill="midnightblue" stroke="midnightblue" points="507.53,-846.71 497.5,-850.12 507.47,-853.71 507.53,-846.71"/>
</g>
<!-- Node4 -->
<g id="node4" class="node">
<title>Node4</title>
<g id="a_node4"><a xlink:title=" ">
<polygon fill="white" stroke="black" points="448,-778.29 448,-797.29 498,-797.29 498,-778.29 448,-778.29"/>
<text text-anchor="middle" x="473" y="-785.29" font-family="Helvetica,sans-Serif" font-size="10.00">JButton</text>
</a>
</g>
</g>
<!-- Node4&#45;&gt;Node2 -->
<g id="edge3" class="edge">
<title>Node4&#45;&gt;Node2</title>
<path fill="none" stroke="#9a32cd" stroke-dasharray="5,2" d="M508.33,-789.7C549.43,-792.4 620.21,-798.32 680,-809.79 702.89,-814.18 728.26,-821.38 747.24,-827.23"/>
<polygon fill="#9a32cd" stroke="#9a32cd" points="508.5,-786.21 498.3,-789.07 508.06,-793.19 508.5,-786.21"/>
<text text-anchor="middle" x="622" y="-834.79" font-family="Helvetica,sans-Serif" font-size="10.00"> btnCanc</text>
<text text-anchor="middle" x="622" y="-823.79" font-family="Helvetica,sans-Serif" font-size="10.00">btnDone</text>
<text text-anchor="middle" x="622" y="-812.79" font-family="Helvetica,sans-Serif" font-size="10.00">btnExtra</text>
</g>
<!-- Node6 -->
<g id="node6" class="node">
<title>Node6</title>
<g id="a_node6"><a xlink:href="classdenoptim_1_1gui_1_1_f_s_parameters_form.html" target="_top" xlink:title="Form collecting input parameters for defining the fragment space.">
<polygon fill="white" stroke="black" points="698,-429.29 698,-448.29 857,-448.29 857,-429.29 698,-429.29"/>
<text text-anchor="middle" x="777.5" y="-436.29" font-family="Helvetica,sans-Serif" font-size="10.00">denoptim.gui.FSParametersForm</text>
</a>
</g>
</g>
<!-- Node4&#45;&gt;Node6 -->
<g id="edge24" class="edge">
<title>Node4&#45;&gt;Node6</title>
<path fill="none" stroke="#9a32cd" stroke-dasharray="5,2" d="M485.67,-769.19C504.97,-739.04 543.44,-681.54 564,-668.79 608.59,-641.12 638.61,-679.04 680,-646.79 747.83,-593.94 769.9,-482.2 775.14,-448.57"/>
<polygon fill="#9a32cd" stroke="#9a32cd" points="482.53,-767.61 480.13,-777.93 488.44,-771.37 482.53,-767.61"/>
<text text-anchor="middle" x="622" y="-781.79" font-family="Helvetica,sans-Serif" font-size="10.00"> btnCPMat</text>
<text text-anchor="middle" x="622" y="-770.79" font-family="Helvetica,sans-Serif" font-size="10.00">btnFSSource</text>
<text text-anchor="middle" x="622" y="-759.79" font-family="Helvetica,sans-Serif" font-size="10.00">btnLoadFSSource</text>
<text text-anchor="middle" x="622" y="-748.79" font-family="Helvetica,sans-Serif" font-size="10.00">btnPar1</text>
<text text-anchor="middle" x="622" y="-737.79" font-family="Helvetica,sans-Serif" font-size="10.00">btnPar11Cleanup</text>
<text text-anchor="middle" x="622" y="-726.79" font-family="Helvetica,sans-Serif" font-size="10.00">btnPar11Insert</text>
<text text-anchor="middle" x="622" y="-715.79" font-family="Helvetica,sans-Serif" font-size="10.00">btnPar2</text>
<text text-anchor="middle" x="622" y="-704.79" font-family="Helvetica,sans-Serif" font-size="10.00">btnPar21Cleanup</text>
<text text-anchor="middle" x="622" y="-693.79" font-family="Helvetica,sans-Serif" font-size="10.00">btnPar21Insert</text>
<text text-anchor="middle" x="622" y="-682.79" font-family="Helvetica,sans-Serif" font-size="10.00">btnPar22Cleanup</text>
<text text-anchor="middle" x="622" y="-671.79" font-family="Helvetica,sans-Serif" font-size="10.00">...</text>
</g>
<!-- Node5 -->
<g id="node5" class="node">
<title>Node5</title>
<g id="a_node5"><a xlink:title=" ">
<polygon fill="white" stroke="black" points="190,-468.29 190,-487.29 237,-487.29 237,-468.29 190,-468.29"/>
<text text-anchor="middle" x="213.5" y="-475.29" font-family="Helvetica,sans-Serif" font-size="10.00">JPanel</text>
</a>
</g>
</g>
<!-- Node5&#45;&gt;Node2 -->
<g id="edge4" class="edge">
<title>Node5&#45;&gt;Node2</title>
<path fill="none" stroke="#9a32cd" stroke-dasharray="5,2" d="M216.68,-497.52C225.24,-564.27 263.14,-782.24 400,-868.79 516.71,-942.6 696.05,-873.39 756.11,-846.46"/>
<polygon fill="#9a32cd" stroke="#9a32cd" points="220.15,-497.02 215.48,-487.51 213.2,-497.86 220.15,-497.02"/>
<text text-anchor="middle" x="473" y="-904.79" font-family="Helvetica,sans-Serif" font-size="10.00"> pnlControls</text>
</g>
<!-- Node5&#45;&gt;Node6 -->
<g id="edge20" class="edge">
<title>Node5&#45;&gt;Node6</title>
<path fill="none" stroke="#9a32cd" stroke-dasharray="5,2" d="M247.59,-476.93C281.88,-475.28 336.7,-470.52 382,-456.79 390.56,-454.2 391.32,-449.95 400,-447.79 500.41,-422.82 620.55,-425.28 697.66,-430.8"/>
<polygon fill="#9a32cd" stroke="#9a32cd" points="247.06,-473.45 237.22,-477.36 247.36,-480.44 247.06,-473.45"/>
<text text-anchor="middle" x="473" y="-560.79" font-family="Helvetica,sans-Serif" font-size="10.00"> block</text>
<text text-anchor="middle" x="473" y="-549.79" font-family="Helvetica,sans-Serif" font-size="10.00">lineCPMat</text>
<text text-anchor="middle" x="473" y="-538.79" font-family="Helvetica,sans-Serif" font-size="10.00">lineFSSource</text>
<text text-anchor="middle" x="473" y="-527.79" font-family="Helvetica,sans-Serif" font-size="10.00">linePar1</text>
<text text-anchor="middle" x="473" y="-516.79" font-family="Helvetica,sans-Serif" font-size="10.00">linePar10</text>
<text text-anchor="middle" x="473" y="-505.79" font-family="Helvetica,sans-Serif" font-size="10.00">linePar11</text>
<text text-anchor="middle" x="473" y="-494.79" font-family="Helvetica,sans-Serif" font-size="10.00">linePar12</text>
<text text-anchor="middle" x="473" y="-483.79" font-family="Helvetica,sans-Serif" font-size="10.00">linePar15</text>
<text text-anchor="middle" x="473" y="-472.79" font-family="Helvetica,sans-Serif" font-size="10.00">linePar16</text>
<text text-anchor="middle" x="473" y="-461.79" font-family="Helvetica,sans-Serif" font-size="10.00">linePar17</text>
<text text-anchor="middle" x="473" y="-450.79" font-family="Helvetica,sans-Serif" font-size="10.00">...</text>
</g>
<!-- Node7 -->
<g id="node7" class="node">
<title>Node7</title>
<g id="a_node7"><a xlink:href="classdenoptim_1_1gui_1_1_parameters_form.html" target="_top" xlink:title="General structure of a form for collecting input parameters of various nature.">
<polygon fill="white" stroke="black" points="400,-380.29 400,-399.29 546,-399.29 546,-380.29 400,-380.29"/>
<text text-anchor="middle" x="473" y="-387.29" font-family="Helvetica,sans-Serif" font-size="10.00">denoptim.gui.ParametersForm</text>
</a>
</g>
</g>
<!-- Node5&#45;&gt;Node7 -->
<g id="edge7" class="edge">
<title>Node5&#45;&gt;Node7</title>
<path fill="none" stroke="midnightblue" d="M246.85,-469.63C259.68,-466.34 274.56,-462.46 288,-458.79 329.93,-447.35 343.59,-452.14 382,-431.79 391.2,-426.91 391,-422.03 400,-416.79 412.23,-409.68 426.68,-403.82 439.41,-399.41"/>
<polygon fill="midnightblue" stroke="midnightblue" points="245.88,-466.26 237.06,-472.12 247.61,-473.04 245.88,-466.26"/>
</g>
<!-- Node6&#45;&gt;Node1 -->
<g id="edge5" class="edge">
<title>Node6&#45;&gt;Node1</title>
<path fill="none" stroke="#9a32cd" stroke-dasharray="5,2" d="M801.22,-453.97C850.28,-486.74 964.96,-563.36 1005.22,-590.25"/>
<polygon fill="#9a32cd" stroke="#9a32cd" points="803.11,-451.02 792.85,-448.38 799.22,-456.84 803.11,-451.02"/>
<text text-anchor="middle" x="902" y="-540.79" font-family="Helvetica,sans-Serif" font-size="10.00"> fsParsForm</text>
</g>
<!-- Node7&#45;&gt;Node6 -->
<g id="edge6" class="edge">
<title>Node7&#45;&gt;Node6</title>
<path fill="none" stroke="midnightblue" d="M542.64,-400.91C595.42,-409.46 667.58,-421.15 717.72,-429.27"/>
<polygon fill="midnightblue" stroke="midnightblue" points="543.11,-397.44 532.68,-399.3 542,-404.35 543.11,-397.44"/>
</g>
<!-- Node8 -->
<g id="node8" class="node">
<title>Node8</title>
<g id="a_node8"><a xlink:href="interfacedenoptim_1_1gui_1_1_i_parameters_form.html" target="_top" xlink:title="Interface for parameter forms.">
<polygon fill="white" stroke="black" points="139,-342.29 139,-361.29 288,-361.29 288,-342.29 139,-342.29"/>
<text text-anchor="middle" x="213.5" y="-349.29" font-family="Helvetica,sans-Serif" font-size="10.00">denoptim.gui.IParametersForm</text>
</a>
</g>
</g>
<!-- Node8&#45;&gt;Node7 -->
<g id="edge8" class="edge">
<title>Node8&#45;&gt;Node7</title>
<path fill="none" stroke="midnightblue" d="M289.47,-362.85C326.81,-368.36 371.51,-374.96 407.33,-380.25"/>
<polygon fill="midnightblue" stroke="midnightblue" points="289.55,-359.33 279.15,-361.33 288.53,-366.25 289.55,-359.33"/>
</g>
<!-- Node9 -->
<g id="node9" class="node">
<title>Node9</title>
<g id="a_node9"><a xlink:title=" ">
<polygon fill="white" stroke="black" points="182.5,-304.29 182.5,-323.29 244.5,-323.29 244.5,-304.29 182.5,-304.29"/>
<text text-anchor="middle" x="213.5" y="-311.29" font-family="Helvetica,sans-Serif" font-size="10.00">Dimension</text>
</a>
</g>
</g>
<!-- Node9&#45;&gt;Node7 -->
<g id="edge9" class="edge">
<title>Node9&#45;&gt;Node7</title>
<path fill="none" stroke="#9a32cd" stroke-dasharray="5,2" d="M254.91,-306.56C291.57,-302.32 345.33,-302.19 382,-328.79 398.44,-340.72 384.62,-357.52 400,-370.79 404.5,-374.68 409.71,-377.78 415.23,-380.25"/>
<polygon fill="#9a32cd" stroke="#9a32cd" points="254.05,-303.14 244.59,-307.91 254.96,-310.08 254.05,-303.14"/>
<text text-anchor="middle" x="344" y="-353.79" font-family="Helvetica,sans-Serif" font-size="10.00"> fileFieldSize</text>
<text text-anchor="middle" x="344" y="-342.79" font-family="Helvetica,sans-Serif" font-size="10.00">fileLabelSize</text>
<text text-anchor="middle" x="344" y="-331.79" font-family="Helvetica,sans-Serif" font-size="10.00">strFieldSize</text>
</g>
<!-- Node10 -->
<g id="node10" class="node">
<title>Node10</title>
<g id="a_node10"><a xlink:href="classdenoptim_1_1gui_1_1_parameters_form_1_1_field_listener.html" target="_top" xlink:title=" ">
<polygon fill="white" stroke="black" points="139,-254.79 139,-284.79 288,-284.79 288,-254.79 139,-254.79"/>
<text text-anchor="start" x="147" y="-272.79" font-family="Helvetica,sans-Serif" font-size="10.00">denoptim.gui.ParametersForm.</text>
<text text-anchor="middle" x="213.5" y="-261.79" font-family="Helvetica,sans-Serif" font-size="10.00">FieldListener</text>
</a>
</g>
</g>
<!-- Node10&#45;&gt;Node7 -->
<g id="edge10" class="edge">
<title>Node10&#45;&gt;Node7</title>
<path fill="none" stroke="#9a32cd" stroke-dasharray="5,2" d="M298.62,-261C328.23,-262.38 359.66,-269.58 382,-289.79 409.35,-314.53 374.44,-344.21 400,-370.79 403.67,-374.61 408.02,-377.7 412.72,-380.18"/>
<polygon fill="#9a32cd" stroke="#9a32cd" points="298.32,-257.49 288.24,-260.74 298.15,-264.49 298.32,-257.49"/>
<text text-anchor="middle" x="344" y="-292.79" font-family="Helvetica,sans-Serif" font-size="10.00"> fieldListener</text>
</g>
<!-- Node11 -->
<g id="node11" class="node">
<title>Node11</title>
<g id="a_node11"><a xlink:title=" ">
<polygon fill="white" stroke="black" points="3,-260.29 3,-279.29 99,-279.29 99,-260.29 3,-260.29"/>
<text text-anchor="middle" x="51" y="-267.29" font-family="Helvetica,sans-Serif" font-size="10.00">DocumentListener</text>
</a>
</g>
</g>
<!-- Node11&#45;&gt;Node10 -->
<g id="edge11" class="edge">
<title>Node11&#45;&gt;Node10</title>
<path fill="none" stroke="midnightblue" d="M109.4,-269.79C118.92,-269.79 128.9,-269.79 138.75,-269.79"/>
<polygon fill="midnightblue" stroke="midnightblue" points="109.29,-266.29 99.29,-269.79 109.29,-273.29 109.29,-266.29"/>
</g>
<!-- Node12 -->
<g id="node12" class="node">
<title>Node12</title>
<g id="a_node12"><a xlink:href="classdenoptim_1_1gui_1_1_parameters_form_1_1_rdb_field_change.html" target="_top" xlink:title=" ">
<polygon fill="white" stroke="black" points="139,-205.79 139,-235.79 288,-235.79 288,-205.79 139,-205.79"/>
<text text-anchor="start" x="147" y="-223.79" font-family="Helvetica,sans-Serif" font-size="10.00">denoptim.gui.ParametersForm.</text>
<text text-anchor="middle" x="213.5" y="-212.79" font-family="Helvetica,sans-Serif" font-size="10.00">RdbFieldChange</text>
</a>
</g>
</g>
<!-- Node12&#45;&gt;Node7 -->
<g id="edge12" class="edge">
<title>Node12&#45;&gt;Node7</title>
<path fill="none" stroke="#9a32cd" stroke-dasharray="5,2" d="M298.53,-213.82C328.61,-215.89 360.39,-224.07 382,-245.79 421.59,-285.58 362.66,-328.89 400,-370.79 403.44,-374.65 407.56,-377.77 412.07,-380.28"/>
<polygon fill="#9a32cd" stroke="#9a32cd" points="298.56,-210.32 288.41,-213.35 298.24,-217.31 298.56,-210.32"/>
<text text-anchor="middle" x="344" y="-248.79" font-family="Helvetica,sans-Serif" font-size="10.00"> rdbFieldChange</text>
</g>
<!-- Node13 -->
<g id="node13" class="node">
<title>Node13</title>
<g id="a_node13"><a xlink:title=" ">
<polygon fill="white" stroke="black" points="8.5,-211.29 8.5,-230.29 93.5,-230.29 93.5,-211.29 8.5,-211.29"/>
<text text-anchor="middle" x="51" y="-218.29" font-family="Helvetica,sans-Serif" font-size="10.00">ChangeListener</text>
</a>
</g>
</g>
<!-- Node13&#45;&gt;Node12 -->
<g id="edge13" class="edge">
<title>Node13&#45;&gt;Node12</title>
<path fill="none" stroke="midnightblue" d="M103.78,-220.79C115,-220.79 127.07,-220.79 138.94,-220.79"/>
<polygon fill="midnightblue" stroke="midnightblue" points="103.75,-217.29 93.75,-220.79 103.75,-224.29 103.75,-217.29"/>
</g>
<!-- Node14 -->
<g id="node14" class="node">
<title>Node14</title>
<g id="a_node14"><a xlink:href="classdenoptim_1_1gui_1_1_parameters_form_1_1_tab_field_change.html" target="_top" xlink:title=" ">
<polygon fill="white" stroke="black" points="139,-156.79 139,-186.79 288,-186.79 288,-156.79 139,-156.79"/>
<text text-anchor="start" x="147" y="-174.79" font-family="Helvetica,sans-Serif" font-size="10.00">denoptim.gui.ParametersForm.</text>
<text text-anchor="middle" x="213.5" y="-163.79" font-family="Helvetica,sans-Serif" font-size="10.00">TabFieldChange</text>
</a>
</g>
</g>
<!-- Node14&#45;&gt;Node7 -->
<g id="edge14" class="edge">
<title>Node14&#45;&gt;Node7</title>
<path fill="none" stroke="#9a32cd" stroke-dasharray="5,2" d="M298.34,-165.98C328.72,-168.46 360.76,-177.22 382,-199.79 434.37,-255.44 350.25,-312.78 400,-370.79 403.28,-374.62 407.24,-377.72 411.58,-380.23"/>
<polygon fill="#9a32cd" stroke="#9a32cd" points="298.3,-162.47 288.11,-165.37 297.88,-169.46 298.3,-162.47"/>
<text text-anchor="middle" x="344" y="-202.79" font-family="Helvetica,sans-Serif" font-size="10.00"> tabFieldChange</text>
</g>
<!-- Node15 -->
<g id="node15" class="node">
<title>Node15</title>
<g id="a_node15"><a xlink:title=" ">
<polygon fill="white" stroke="black" points="0,-162.29 0,-181.29 102,-181.29 102,-162.29 0,-162.29"/>
<text text-anchor="middle" x="51" y="-169.29" font-family="Helvetica,sans-Serif" font-size="10.00">TableModelListener</text>
</a>
</g>
</g>
<!-- Node15&#45;&gt;Node14 -->
<g id="edge15" class="edge">
<title>Node15&#45;&gt;Node14</title>
<path fill="none" stroke="midnightblue" d="M112.6,-171.79C121.17,-171.79 130.05,-171.79 138.82,-171.79"/>
<polygon fill="midnightblue" stroke="midnightblue" points="112.34,-168.29 102.34,-171.79 112.34,-175.29 112.34,-168.29"/>
</g>
<!-- Node16 -->
<g id="node16" class="node">
<title>Node16</title>
<g id="a_node16"><a xlink:href="classdenoptim_1_1gui_1_1_parameters_form_1_1_cmb_field_change.html" target="_top" xlink:title=" ">
<polygon fill="white" stroke="black" points="139,-418.79 139,-448.79 288,-448.79 288,-418.79 139,-418.79"/>
<text text-anchor="start" x="147" y="-436.79" font-family="Helvetica,sans-Serif" font-size="10.00">denoptim.gui.ParametersForm.</text>
<text text-anchor="middle" x="213.5" y="-425.79" font-family="Helvetica,sans-Serif" font-size="10.00">CmbFieldChange</text>
</a>
</g>
</g>
<!-- Node16&#45;&gt;Node7 -->
<g id="edge16" class="edge">
<title>Node16&#45;&gt;Node7</title>
<path fill="none" stroke="#9a32cd" stroke-dasharray="5,2" d="M298.48,-419.44C337.09,-412.84 381.83,-405.2 416.21,-399.32"/>
<polygon fill="#9a32cd" stroke="#9a32cd" points="297.56,-416.05 288.29,-421.18 298.74,-422.95 297.56,-416.05"/>
<text text-anchor="middle" x="344" y="-419.79" font-family="Helvetica,sans-Serif" font-size="10.00"> cmbFieldChange</text>
</g>
<!-- Node17 -->
<g id="node17" class="node">
<title>Node17</title>
<g id="a_node17"><a xlink:title=" ">
<polygon fill="white" stroke="black" points="11,-424.29 11,-443.29 91,-443.29 91,-424.29 11,-424.29"/>
<text text-anchor="middle" x="51" y="-431.29" font-family="Helvetica,sans-Serif" font-size="10.00">ActionListener</text>
</a>
</g>
</g>
<!-- Node17&#45;&gt;Node16 -->
<g id="edge17" class="edge">
<title>Node17&#45;&gt;Node16</title>
<path fill="none" stroke="midnightblue" d="M101.38,-433.79C113.23,-433.79 126.15,-433.79 138.85,-433.79"/>
<polygon fill="midnightblue" stroke="midnightblue" points="101.26,-430.29 91.26,-433.79 101.26,-437.29 101.26,-430.29"/>
</g>
<!-- Node18 -->
<g id="node18" class="node">
<title>Node18</title>
<g id="a_node18"><a xlink:title=" ">
<polygon fill="white" stroke="black" points="154.5,-380.29 154.5,-399.29 272.5,-399.29 272.5,-380.29 154.5,-380.29"/>
<text text-anchor="middle" x="213.5" y="-387.29" font-family="Helvetica,sans-Serif" font-size="10.00">Map&lt; String, Boolean &gt;</text>
</a>
</g>
</g>
<!-- Node18&#45;&gt;Node7 -->
<g id="edge18" class="edge">
<title>Node18&#45;&gt;Node7</title>
<path fill="none" stroke="#9a32cd" stroke-dasharray="5,2" d="M283.03,-389.79C319.08,-389.79 363.26,-389.79 399.84,-389.79"/>
<polygon fill="#9a32cd" stroke="#9a32cd" points="282.61,-386.29 272.61,-389.79 282.61,-393.29 282.61,-386.29"/>
<text text-anchor="middle" x="344" y="-392.79" font-family="Helvetica,sans-Serif" font-size="10.00"> checkedFlags</text>
</g>
<!-- Node19 -->
<g id="node19" class="node">
<title>Node19</title>
<g id="a_node19"><a xlink:title=" ">
<polygon fill="white" stroke="black" points="417.5,-342.29 417.5,-361.29 528.5,-361.29 528.5,-342.29 417.5,-342.29"/>
<text text-anchor="middle" x="473" y="-349.29" font-family="Helvetica,sans-Serif" font-size="10.00">Map&lt; String, Object &gt;</text>
</a>
</g>
</g>
<!-- Node19&#45;&gt;Node6 -->
<g id="edge19" class="edge">
<title>Node19&#45;&gt;Node6</title>
<path fill="none" stroke="#9a32cd" stroke-dasharray="5,2" d="M538.68,-361.65C588.98,-369.7 654.38,-381.12 680,-389.79 710.08,-399.96 742.5,-418.06 761.06,-429.18"/>
<polygon fill="#9a32cd" stroke="#9a32cd" points="538.94,-358.15 528.52,-360.03 537.84,-365.06 538.94,-358.15"/>
<text text-anchor="middle" x="622" y="-392.79" font-family="Helvetica,sans-Serif" font-size="10.00"> mapKeyFieldToValueField</text>
</g>
<!-- Node20 -->
<g id="node20" class="node">
<title>Node20</title>
<g id="a_node20"><a xlink:title=" ">
<polygon fill="white" stroke="black" points="435.5,-300.29 435.5,-319.29 510.5,-319.29 510.5,-300.29 435.5,-300.29"/>
<text text-anchor="middle" x="473" y="-307.29" font-family="Helvetica,sans-Serif" font-size="10.00">JRadioButton</text>
</a>
</g>
</g>
<!-- Node20&#45;&gt;Node6 -->
<g id="edge21" class="edge">
<title>Node20&#45;&gt;Node6</title>
<path fill="none" stroke="#9a32cd" stroke-dasharray="5,2" d="M517.52,-297.94C561.12,-288.55 628.92,-280.86 680,-306.79 732.4,-333.39 763.15,-403.28 773.01,-429.06"/>
<polygon fill="#9a32cd" stroke="#9a32cd" points="516.5,-294.58 507.52,-300.22 518.05,-301.41 516.5,-294.58"/>
<text text-anchor="middle" x="622" y="-353.79" font-family="Helvetica,sans-Serif" font-size="10.00"> rdbPar10</text>
<text text-anchor="middle" x="622" y="-342.79" font-family="Helvetica,sans-Serif" font-size="10.00">rdbPar12</text>
<text text-anchor="middle" x="622" y="-331.79" font-family="Helvetica,sans-Serif" font-size="10.00">rdbPar24</text>
<text text-anchor="middle" x="622" y="-320.79" font-family="Helvetica,sans-Serif" font-size="10.00">rdbPar28</text>
<text text-anchor="middle" x="622" y="-309.79" font-family="Helvetica,sans-Serif" font-size="10.00">rdbSrcOrNew</text>
</g>
<!-- Node21 -->
<g id="node21" class="node">
<title>Node21</title>
<g id="a_node21"><a xlink:title=" ">
<polygon fill="white" stroke="black" points="450,-156.29 450,-175.29 496,-175.29 496,-156.29 450,-156.29"/>
<text text-anchor="middle" x="473" y="-163.29" font-family="Helvetica,sans-Serif" font-size="10.00">JLabel</text>
</a>
</g>
</g>
<!-- Node21&#45;&gt;Node6 -->
<g id="edge22" class="edge">
<title>Node21&#45;&gt;Node6</title>
<path fill="none" stroke="#9a32cd" stroke-dasharray="5,2" d="M506.26,-161.03C557.12,-154.25 652.96,-144.62 680,-163.79 771.84,-228.9 776.93,-388.57 776.69,-429.24"/>
<polygon fill="#9a32cd" stroke="#9a32cd" points="505.56,-157.6 496.13,-162.43 506.51,-164.53 505.56,-157.6"/>
<text text-anchor="middle" x="622" y="-276.79" font-family="Helvetica,sans-Serif" font-size="10.00"> lblCPMat</text>
<text text-anchor="middle" x="622" y="-265.79" font-family="Helvetica,sans-Serif" font-size="10.00">lblFSSource</text>
<text text-anchor="middle" x="622" y="-254.79" font-family="Helvetica,sans-Serif" font-size="10.00">lblPar1</text>
<text text-anchor="middle" x="622" y="-243.79" font-family="Helvetica,sans-Serif" font-size="10.00">lblPar11</text>
<text text-anchor="middle" x="622" y="-232.79" font-family="Helvetica,sans-Serif" font-size="10.00">lblPar15</text>
<text text-anchor="middle" x="622" y="-221.79" font-family="Helvetica,sans-Serif" font-size="10.00">lblPar16</text>
<text text-anchor="middle" x="622" y="-210.79" font-family="Helvetica,sans-Serif" font-size="10.00">lblPar17</text>
<text text-anchor="middle" x="622" y="-199.79" font-family="Helvetica,sans-Serif" font-size="10.00">lblPar18</text>
<text text-anchor="middle" x="622" y="-188.79" font-family="Helvetica,sans-Serif" font-size="10.00">lblPar19</text>
<text text-anchor="middle" x="622" y="-177.79" font-family="Helvetica,sans-Serif" font-size="10.00">lblPar2</text>
<text text-anchor="middle" x="622" y="-166.79" font-family="Helvetica,sans-Serif" font-size="10.00">...</text>
</g>
<!-- Node22 -->
<g id="node22" class="node">
<title>Node22</title>
<g id="a_node22"><a xlink:title=" ">
<polygon fill="white" stroke="black" points="442,-12.29 442,-31.29 504,-31.29 504,-12.29 442,-12.29"/>
<text text-anchor="middle" x="473" y="-19.29" font-family="Helvetica,sans-Serif" font-size="10.00">JTextField</text>
</a>
</g>
</g>
<!-- Node22&#45;&gt;Node6 -->
<g id="edge23" class="edge">
<title>Node22&#45;&gt;Node6</title>
<path fill="none" stroke="#9a32cd" stroke-dasharray="5,2" d="M513.94,-9.92C559.44,0.95 633.49,10.18 680,-27.79 745.44,-81.21 771.27,-371.63 775.77,-428.96"/>
<polygon fill="#9a32cd" stroke="#9a32cd" points="512.97,-6.55 504.13,-12.39 514.68,-13.34 512.97,-6.55"/>
<text text-anchor="middle" x="622" y="-140.79" font-family="Helvetica,sans-Serif" font-size="10.00"> txtCPMat</text>
<text text-anchor="middle" x="622" y="-129.79" font-family="Helvetica,sans-Serif" font-size="10.00">txtFSSource</text>
<text text-anchor="middle" x="622" y="-118.79" font-family="Helvetica,sans-Serif" font-size="10.00">txtPar1</text>
<text text-anchor="middle" x="622" y="-107.79" font-family="Helvetica,sans-Serif" font-size="10.00">txtPar15</text>
<text text-anchor="middle" x="622" y="-96.79" font-family="Helvetica,sans-Serif" font-size="10.00">txtPar16</text>
<text text-anchor="middle" x="622" y="-85.79" font-family="Helvetica,sans-Serif" font-size="10.00">txtPar17</text>
<text text-anchor="middle" x="622" y="-74.79" font-family="Helvetica,sans-Serif" font-size="10.00">txtPar18</text>
<text text-anchor="middle" x="622" y="-63.79" font-family="Helvetica,sans-Serif" font-size="10.00">txtPar2</text>
<text text-anchor="middle" x="622" y="-52.79" font-family="Helvetica,sans-Serif" font-size="10.00">txtPar23</text>
<text text-anchor="middle" x="622" y="-41.79" font-family="Helvetica,sans-Serif" font-size="10.00">txtPar25</text>
<text text-anchor="middle" x="622" y="-30.79" font-family="Helvetica,sans-Serif" font-size="10.00">...</text>
</g>
<!-- Node23 -->
<g id="node23" class="node">
<title>Node23</title>
<g id="a_node23"><a xlink:title=" ">
<polygon fill="white" stroke="black" points="450,-654.29 450,-673.29 496,-673.29 496,-654.29 450,-654.29"/>
<text text-anchor="middle" x="473" y="-661.29" font-family="Helvetica,sans-Serif" font-size="10.00">JTable</text>
</a>
</g>
</g>
<!-- Node23&#45;&gt;Node6 -->
<g id="edge25" class="edge">
<title>Node23&#45;&gt;Node6</title>
<path fill="none" stroke="#9a32cd" stroke-dasharray="5,2" d="M506.34,-660.74C519.68,-658.17 534.64,-653.45 546,-644.79 558.67,-635.13 551.04,-623.05 564,-613.79 606.77,-583.24 636.63,-620.49 680,-590.79 733.9,-553.88 764.11,-475.93 773.39,-448.55"/>
<polygon fill="#9a32cd" stroke="#9a32cd" points="505.41,-657.35 496.09,-662.38 506.51,-664.26 505.41,-657.35"/>
<text text-anchor="middle" x="622" y="-638.79" font-family="Helvetica,sans-Serif" font-size="10.00"> tabPar11</text>
<text text-anchor="middle" x="622" y="-627.79" font-family="Helvetica,sans-Serif" font-size="10.00">tabPar21</text>
<text text-anchor="middle" x="622" y="-616.79" font-family="Helvetica,sans-Serif" font-size="10.00">tabPar22</text>
</g>
<!-- Node24 -->
<g id="node24" class="node">
<title>Node24</title>
<g id="a_node24"><a xlink:title=" ">
<polygon fill="white" stroke="black" points="424,-616.29 424,-635.29 522,-635.29 522,-616.29 424,-616.29"/>
<text text-anchor="middle" x="473" y="-623.29" font-family="Helvetica,sans-Serif" font-size="10.00">DefaultTableModel</text>
</a>
</g>
</g>
<!-- Node24&#45;&gt;Node6 -->
<g id="edge26" class="edge">
<title>Node24&#45;&gt;Node6</title>
<path fill="none" stroke="#9a32cd" stroke-dasharray="5,2" d="M531.78,-616.12C536.96,-613.66 541.82,-610.6 546,-606.79 563.16,-591.17 546.36,-572.86 564,-557.79 603.95,-523.64 633.61,-559.49 680,-534.79 720.88,-513.02 755.73,-468.31 769.82,-448.55"/>
<polygon fill="#9a32cd" stroke="#9a32cd" points="530.2,-612.98 522.2,-619.92 532.78,-619.49 530.2,-612.98"/>
<text text-anchor="middle" x="622" y="-582.79" font-family="Helvetica,sans-Serif" font-size="10.00"> tabModPar11</text>
<text text-anchor="middle" x="622" y="-571.79" font-family="Helvetica,sans-Serif" font-size="10.00">tabModPar21</text>
<text text-anchor="middle" x="622" y="-560.79" font-family="Helvetica,sans-Serif" font-size="10.00">tabModPar22</text>
</g>
<!-- Node25 -->
<g id="node25" class="node">
<title>Node25</title>
<g id="a_node25"><a xlink:title=" ">
<polygon fill="white" stroke="black" points="417.5,-578.29 417.5,-597.29 528.5,-597.29 528.5,-578.29 417.5,-578.29"/>
<text text-anchor="middle" x="473" y="-585.29" font-family="Helvetica,sans-Serif" font-size="10.00">JComboBox&lt; String &gt;</text>
</a>
</g>
</g>
<!-- Node25&#45;&gt;Node6 -->
<g id="edge27" class="edge">
<title>Node25&#45;&gt;Node6</title>
<path fill="none" stroke="#9a32cd" stroke-dasharray="5,2" d="M530.74,-574.06C536.27,-571.25 541.49,-567.86 546,-563.79 560.46,-550.72 549.93,-537.28 564,-523.79 608.17,-481.45 676.1,-459.29 723.22,-448.35"/>
<polygon fill="#9a32cd" stroke="#9a32cd" points="528.94,-571.03 521.21,-578.28 531.77,-577.43 528.94,-571.03"/>
<text text-anchor="middle" x="622" y="-526.79" font-family="Helvetica,sans-Serif" font-size="10.00"> cmbPar19</text>
</g>
</g>
</svg>
        <g id="navigator" transform="translate(0 0)" fill="#404254">
                <rect fill="#f2f5e9" fill-opacity="0.5" stroke="#606060" stroke-width=".5" x="0" y="0" width="60" height="60"/>
                <use id="zoomplus" xlink:href="#zoomPlus" x="17" y="9" onmousedown="handleZoom(evt,'in')"/>
                <use id="zoomminus" xlink:href="#zoomMin" x="42" y="9" onmousedown="handleZoom(evt,'out')"/>
                <use id="reset" xlink:href="#resetDef" x="30" y="36" onmousedown="handleReset()"/>
                <g id="arrowUp" xlink:href="#dirArrow" transform="translate(30 24)" onmousedown="handlePan(0,-1)">
                  <use xlink:href="#rim" fill="#404040">
                        <set attributeName="fill" to="#808080" begin="arrowUp.mouseover" end="arrowUp.mouseout"/>
                  </use>
                  <path fill="none" stroke="white" stroke-width="1.5" d="M0,-3.0v7 M-2.5,-0.5L0,-3.0L2.5,-0.5"/>
                </g>
                <g id="arrowRight" xlink:href="#dirArrow" transform="rotate(90) translate(36 -43)" onmousedown="handlePan(1,0)">
                  <use xlink:href="#rim" fill="#404040">
                        <set attributeName="fill" to="#808080" begin="arrowRight.mouseover" end="arrowRight.mouseout"/>
                  </use>
                  <path fill="none" stroke="white" stroke-width="1.5" d="M0,-3.0v7 M-2.5,-0.5L0,-3.0L2.5,-0.5"/>
                </g>
                <g id="arrowDown" xlink:href="#dirArrow" transform="rotate(180) translate(-30 -48)" onmousedown="handlePan(0,1)">
                  <use xlink:href="#rim" fill="#404040">
                        <set attributeName="fill" to="#808080" begin="arrowDown.mouseover" end="arrowDown.mouseout"/>
                  </use>
                  <path fill="none" stroke="white" stroke-width="1.5" d="M0,-3.0v7 M-2.5,-0.5L0,-3.0L2.5,-0.5"/>
                </g>
                <g id="arrowLeft" xlink:href="#dirArrow" transform="rotate(270) translate(-36 17)" onmousedown="handlePan(-1,0)">
                  <use xlink:href="#rim" fill="#404040">
                        <set attributeName="fill" to="#808080" begin="arrowLeft.mouseover" end="arrowLeft.mouseout"/>
                  </use>
                  <path fill="none" stroke="white" stroke-width="1.5" d="M0,-3.0v7 M-2.5,-0.5L0,-3.0L2.5,-0.5"/>
                </g>
        </g>
        <svg viewBox="0 0 15 15" width="100%" height="30px" preserveAspectRatio="xMaxYMin meet">
         <g id="arrow_out" transform="scale(0.3 0.3)">
          <a xlink:href="classdenoptim_1_1gui_1_1_f_s_params_dialog__coll__graph_org.svg" target="_base">
           <rect id="button" ry="5" rx="5" y="6" x="6" height="38" width="38"
                fill="#f2f5e9" fill-opacity="0.5" stroke="#606060" stroke-width="1.0"/>
           <path id="arrow"
             d="M 11.500037,31.436501 C 11.940474,20.09759 22.043105,11.32322 32.158766,21.979434 L 37.068811,17.246167 C 37.068811,17.246167 37.088388,32 37.088388,32 L 22.160133,31.978069 C 22.160133,31.978069 26.997745,27.140456 26.997745,27.140456 C 18.528582,18.264221 13.291696,25.230495 11.500037,31.436501 z"
             style="fill:#404040;"/>
          </a>
         </g>
        </svg>
</svg>
