<?xml version="1.0" encoding="UTF-8" standalone="no"?>
<!DOCTYPE svg PUBLIC "-//W3C//DTD SVG 1.1//EN"
 "http://www.w3.org/Graphics/SVG/1.1/DTD/svg11.dtd">
<!-- Generated by graphviz version 3.0.0 (20220413.0242)
 -->
<!-- Title: denoptim.gui.GUIGraphHandler.updateGraphListSpinner Pages: 1 -->
<svg width="1322pt" height="422pt"
 viewBox="0.00 0.00 1322.00 422.00" xmlns="http://www.w3.org/2000/svg" xmlns:xlink="http://www.w3.org/1999/xlink">
<g id="graph0" class="graph" transform="scale(1 1) rotate(0) translate(4 418)">
<title>denoptim.gui.GUIGraphHandler.updateGraphListSpinner</title>
<polygon fill="white" stroke="transparent" points="-4,4 -4,-418 1318,-418 1318,4 -4,4"/>
<!-- Node1 -->
<g id="node1" class="node">
<title>Node1</title>
<g id="a_node1"><a xlink:title=" ">
<polygon fill="#bfbfbf" stroke="black" points="1131,-73.5 1131,-103.5 1314,-103.5 1314,-73.5 1131,-73.5"/>
<text text-anchor="start" x="1139" y="-91.5" font-family="Helvetica,sans-Serif" font-size="10.00">denoptim.gui.GUIGraphHandler.update</text>
<text text-anchor="middle" x="1222.5" y="-80.5" font-family="Helvetica,sans-Serif" font-size="10.00">GraphListSpinner</text>
</a>
</g>
</g>
<!-- Node2 -->
<g id="node2" class="node">
<title>Node2</title>
<g id="a_node2"><a xlink:href="classdenoptim_1_1gui_1_1_g_u_i_graph_handler.html#a9c42cf2eaeda70e10b570a290cce5518" target="_top" xlink:title=" ">
<polygon fill="white" stroke="black" points="908.5,-0.5 908.5,-30.5 1093.5,-30.5 1093.5,-0.5 908.5,-0.5"/>
<text text-anchor="start" x="916.5" y="-18.5" font-family="Helvetica,sans-Serif" font-size="10.00">denoptim.gui.GUIGraphHandler.append</text>
<text text-anchor="middle" x="1001" y="-7.5" font-family="Helvetica,sans-Serif" font-size="10.00">GraphsFromFile</text>
</a>
</g>
</g>
<!-- Node1&#45;&gt;Node2 -->
<g id="edge1" class="edge">
<title>Node1&#45;&gt;Node2</title>
<path fill="none" stroke="midnightblue" d="M1175.28,-69.69C1151.49,-60.33 1121.91,-49.2 1095,-40.5 1084.34,-37.05 1072.89,-33.7 1061.79,-30.63"/>
<polygon fill="midnightblue" stroke="midnightblue" points="1174.17,-73.02 1184.76,-73.44 1176.75,-66.51 1174.17,-73.02"/>
</g>
<!-- Node5 -->
<g id="node5" class="node">
<title>Node5</title>
<g id="a_node5"><a xlink:href="classdenoptim_1_1gui_1_1_g_u_i_graph_handler.html#a81df728192225395c24224607bc63eee" target="_top" xlink:title="Imports graphs from file.">
<polygon fill="white" stroke="black" points="910.5,-208.5 910.5,-238.5 1091.5,-238.5 1091.5,-208.5 910.5,-208.5"/>
<text text-anchor="start" x="918.5" y="-226.5" font-family="Helvetica,sans-Serif" font-size="10.00">denoptim.gui.GUIGraphHandler.import</text>
<text text-anchor="middle" x="1001" y="-215.5" font-family="Helvetica,sans-Serif" font-size="10.00">GraphsFromFile</text>
</a>
</g>
</g>
<!-- Node1&#45;&gt;Node5 -->
<g id="edge4" class="edge">
<title>Node1&#45;&gt;Node5</title>
<path fill="none" stroke="midnightblue" d="M1188.06,-109.07C1143.62,-136.4 1066.15,-184.05 1026.66,-208.33"/>
<polygon fill="midnightblue" stroke="midnightblue" points="1190.06,-111.94 1196.75,-103.72 1186.4,-105.98 1190.06,-111.94"/>
</g>
<!-- Node15 -->
<g id="node15" class="node">
<title>Node15</title>
<g id="a_node15"><a xlink:href="classdenoptim_1_1gui_1_1_g_u_i_graph_handler.html#a181eab5645926023fe23b1886aa98583" target="_top" xlink:title=" ">
<polygon fill="white" stroke="black" points="907,-98.5 907,-128.5 1095,-128.5 1095,-98.5 907,-98.5"/>
<text text-anchor="start" x="915" y="-116.5" font-family="Helvetica,sans-Serif" font-size="10.00">denoptim.gui.GUIGraphHandler.initialize</text>
<text text-anchor="middle" x="1001" y="-105.5" font-family="Helvetica,sans-Serif" font-size="10.00">CurrentGraph</text>
</a>
</g>
</g>
<!-- Node1&#45;&gt;Node15 -->
<g id="edge16" class="edge">
<title>Node1&#45;&gt;Node15</title>
<path fill="none" stroke="midnightblue" d="M1120.93,-99.95C1112.35,-100.93 1103.7,-101.92 1095.18,-102.89"/>
<polygon fill="midnightblue" stroke="midnightblue" points="1121.41,-103.42 1130.95,-98.81 1120.62,-96.47 1121.41,-103.42"/>
</g>
<!-- Node18 -->
<g id="node18" class="node">
<title>Node18</title>
<g id="a_node18"><a xlink:href="classdenoptim_1_1gui_1_1_g_u_i_graph_handler.html#a11c5c55e0930e8eb7304416707016522" target="_top" xlink:title=" ">
<polygon fill="white" stroke="black" points="908,-49.5 908,-79.5 1094,-79.5 1094,-49.5 908,-49.5"/>
<text text-anchor="start" x="916" y="-67.5" font-family="Helvetica,sans-Serif" font-size="10.00">denoptim.gui.GUIGraphHandler.remove</text>
<text text-anchor="middle" x="1001" y="-56.5" font-family="Helvetica,sans-Serif" font-size="10.00">CurrentDnGraph</text>
</a>
</g>
</g>
<!-- Node1&#45;&gt;Node18 -->
<g id="edge22" class="edge">
<title>Node1&#45;&gt;Node18</title>
<path fill="none" stroke="midnightblue" d="M1120.92,-77.5C1111.98,-76.53 1102.97,-75.54 1094.11,-74.57"/>
<polygon fill="midnightblue" stroke="midnightblue" points="1120.63,-80.99 1130.95,-78.6 1121.39,-74.03 1120.63,-80.99"/>
</g>
<!-- Node3 -->
<g id="node3" class="node">
<title>Node3</title>
<g id="a_node3"><a xlink:href="classdenoptim_1_1gui_1_1_g_u_i_graph_handler.html#af5b000c105018cbd7c262b34f9750044" target="_top" xlink:title="Initialize the panel and add buttons.">
<polygon fill="white" stroke="black" points="190,-82 190,-101 378,-101 378,-82 190,-82"/>
<text text-anchor="middle" x="284" y="-89" font-family="Helvetica,sans-Serif" font-size="10.00">denoptim.gui.GUIGraphHandler.initialize</text>
</a>
</g>
</g>
<!-- Node2&#45;&gt;Node3 -->
<g id="edge2" class="edge">
<title>Node2&#45;&gt;Node3</title>
<path fill="none" stroke="midnightblue" d="M898.41,-22.93C781.37,-31.98 583.39,-48.79 414,-70.5 389.13,-73.69 361.7,-78.04 338.54,-81.95"/>
<polygon fill="midnightblue" stroke="midnightblue" points="898.73,-26.42 908.44,-22.16 898.2,-19.44 898.73,-26.42"/>
</g>
<!-- Node4 -->
<g id="node4" class="node">
<title>Node4</title>
<g id="a_node4"><a xlink:href="classdenoptim_1_1gui_1_1_g_u_i_graph_handler.html#ab7d010d9a384f6b85edce47c95d6723b" target="_top" xlink:title="Constructor.">
<polygon fill="white" stroke="black" points="0,-76.5 0,-106.5 154,-106.5 154,-76.5 0,-76.5"/>
<text text-anchor="start" x="8" y="-94.5" font-family="Helvetica,sans-Serif" font-size="10.00">denoptim.gui.GUIGraphHandler.</text>
<text text-anchor="middle" x="77" y="-83.5" font-family="Helvetica,sans-Serif" font-size="10.00">GUIGraphHandler</text>
</a>
</g>
</g>
<!-- Node3&#45;&gt;Node4 -->
<g id="edge3" class="edge">
<title>Node3&#45;&gt;Node4</title>
<path fill="none" stroke="midnightblue" d="M179.69,-91.5C171.07,-91.5 162.45,-91.5 154.09,-91.5"/>
<polygon fill="midnightblue" stroke="midnightblue" points="179.8,-95 189.8,-91.5 179.8,-88 179.8,-95"/>
</g>
<!-- Node5&#45;&gt;Node3 -->
<g id="edge5" class="edge">
<title>Node5&#45;&gt;Node3</title>
<path fill="none" stroke="midnightblue" d="M900.02,-208.27C890.22,-206.93 880.42,-205.65 871,-204.5 668.44,-179.85 609.32,-219.55 414,-160.5 368.78,-146.83 321.17,-116.6 298.52,-101.09"/>
<polygon fill="midnightblue" stroke="midnightblue" points="899.82,-211.77 910.21,-209.68 900.79,-204.84 899.82,-211.77"/>
</g>
<!-- Node6 -->
<g id="node6" class="node">
<title>Node6</title>
<g id="a_node6"><a xlink:href="classdenoptim_1_1gui_1_1_g_u_i_inspect_f_s_e_run.html#aa30815ac9aa8f815fd24c115afaabd62" target="_top" xlink:title="Initialize the panel and add buttons.">
<polygon fill="white" stroke="black" points="674,-258 674,-277 871,-277 871,-258 674,-258"/>
<text text-anchor="middle" x="772.5" y="-265" font-family="Helvetica,sans-Serif" font-size="10.00">denoptim.gui.GUIInspectFSERun.initialize</text>
</a>
</g>
</g>
<!-- Node5&#45;&gt;Node6 -->
<g id="edge6" class="edge">
<title>Node5&#45;&gt;Node6</title>
<path fill="none" stroke="midnightblue" d="M912.84,-240.43C882.19,-246.39 848.85,-252.86 822.47,-257.99"/>
<polygon fill="midnightblue" stroke="midnightblue" points="913.54,-243.86 922.69,-238.52 912.2,-236.99 913.54,-243.86"/>
</g>
<!-- Node8 -->
<g id="node8" class="node">
<title>Node8</title>
<g id="a_node8"><a xlink:href="classdenoptim_1_1gui_1_1_g_u_i_inspect_g_a_run.html#ad63012fa4fa9bec2e54ce86425039186" target="_top" xlink:title="Initialize the panel and add buttons.">
<polygon fill="white" stroke="black" points="676.5,-214 676.5,-233 868.5,-233 868.5,-214 676.5,-214"/>
<text text-anchor="middle" x="772.5" y="-221" font-family="Helvetica,sans-Serif" font-size="10.00">denoptim.gui.GUIInspectGARun.initialize</text>
</a>
</g>
</g>
<!-- Node5&#45;&gt;Node8 -->
<g id="edge8" class="edge">
<title>Node5&#45;&gt;Node8</title>
<path fill="none" stroke="midnightblue" d="M900.44,-223.5C889.89,-223.5 879.19,-223.5 868.7,-223.5"/>
<polygon fill="midnightblue" stroke="midnightblue" points="900.48,-227 910.48,-223.5 900.48,-220 900.48,-227"/>
</g>
<!-- Node10 -->
<g id="node10" class="node">
<title>Node10</title>
<g id="a_node10"><a xlink:href="classdenoptim_1_1gui_1_1_main_tool_bar.html#a1a2e06a2647032587d42155302b8c0a6" target="_top" xlink:title="Process a file that has a recognized file format and loads a suitable GUI card to visualize the file ...">
<polygon fill="white" stroke="black" points="689,-326 689,-345 856,-345 856,-326 689,-326"/>
<text text-anchor="middle" x="772.5" y="-333" font-family="Helvetica,sans-Serif" font-size="10.00">denoptim.gui.MainToolBar.openFile</text>
</a>
</g>
</g>
<!-- Node5&#45;&gt;Node10 -->
<g id="edge10" class="edge">
<title>Node5&#45;&gt;Node10</title>
<path fill="none" stroke="midnightblue" d="M960.41,-243.08C911.44,-267.29 830.01,-307.56 792.95,-325.88"/>
<polygon fill="midnightblue" stroke="midnightblue" points="962.04,-246.17 969.45,-238.6 958.94,-239.9 962.04,-246.17"/>
</g>
<!-- Node7 -->
<g id="node7" class="node">
<title>Node7</title>
<g id="a_node7"><a xlink:href="classdenoptim_1_1gui_1_1_g_u_i_inspect_f_s_e_run.html#aa4cc9386cd3e91865c486ba914af789d" target="_top" xlink:title="Constructor.">
<polygon fill="white" stroke="black" points="445,-257.5 445,-287.5 607,-287.5 607,-257.5 445,-257.5"/>
<text text-anchor="start" x="453" y="-275.5" font-family="Helvetica,sans-Serif" font-size="10.00">denoptim.gui.GUIInspectFSERun.</text>
<text text-anchor="middle" x="526" y="-264.5" font-family="Helvetica,sans-Serif" font-size="10.00">GUIInspectFSERun</text>
</a>
</g>
</g>
<!-- Node6&#45;&gt;Node7 -->
<g id="edge7" class="edge">
<title>Node6&#45;&gt;Node7</title>
<path fill="none" stroke="midnightblue" d="M663.65,-269.71C644.71,-270.09 625.3,-270.49 607.27,-270.86"/>
<polygon fill="midnightblue" stroke="midnightblue" points="663.89,-273.2 673.81,-269.5 663.74,-266.2 663.89,-273.2"/>
</g>
<!-- Node9 -->
<g id="node9" class="node">
<title>Node9</title>
<g id="a_node9"><a xlink:href="classdenoptim_1_1gui_1_1_g_u_i_inspect_g_a_run.html#aefffdc97385f7a524badf71808a3053b" target="_top" xlink:title="Constructor.">
<polygon fill="white" stroke="black" points="447,-208.5 447,-238.5 605,-238.5 605,-208.5 447,-208.5"/>
<text text-anchor="start" x="455" y="-226.5" font-family="Helvetica,sans-Serif" font-size="10.00">denoptim.gui.GUIInspectGARun.</text>
<text text-anchor="middle" x="526" y="-215.5" font-family="Helvetica,sans-Serif" font-size="10.00">GUIInspectGARun</text>
</a>
</g>
</g>
<!-- Node8&#45;&gt;Node9 -->
<g id="edge9" class="edge">
<title>Node8&#45;&gt;Node9</title>
<path fill="none" stroke="midnightblue" d="M666.02,-223.5C645.67,-223.5 624.68,-223.5 605.38,-223.5"/>
<polygon fill="midnightblue" stroke="midnightblue" points="666.27,-227 676.27,-223.5 666.27,-220 666.27,-227"/>
</g>
<!-- Node11 -->
<g id="node11" class="node">
<title>Node11</title>
<g id="a_node11"><a xlink:href="classdenoptim_1_1gui_1_1_main_tool_bar.html#a0df9ca063352fbc50f9476f3b2820926" target="_top" xlink:title="Initialize the contents of the tool bar.">
<polygon fill="white" stroke="black" points="201.5,-367 201.5,-386 366.5,-386 366.5,-367 201.5,-367"/>
<text text-anchor="middle" x="284" y="-374" font-family="Helvetica,sans-Serif" font-size="10.00">denoptim.gui.MainToolBar.initialize</text>
</a>
</g>
</g>
<!-- Node10&#45;&gt;Node11 -->
<g id="edge11" class="edge">
<title>Node10&#45;&gt;Node11</title>
<path fill="none" stroke="midnightblue" d="M678.75,-343.32C588.58,-350.92 452.94,-362.35 366.71,-369.61"/>
<polygon fill="midnightblue" stroke="midnightblue" points="679.3,-346.78 688.97,-342.46 678.71,-339.81 679.3,-346.78"/>
</g>
<!-- Node13 -->
<g id="node13" class="node">
<title>Node13</title>
<g id="a_node13"><a xlink:href="classdenoptim_1_1gui_1_1_g_u_i.html#a460fa99497f04de06d2adf8671a92441" target="_top" xlink:title="Launch the application.">
<polygon fill="white" stroke="black" points="472.5,-307 472.5,-326 579.5,-326 579.5,-307 472.5,-307"/>
<text text-anchor="middle" x="526" y="-314" font-family="Helvetica,sans-Serif" font-size="10.00">denoptim.gui.GUI.run</text>
</a>
</g>
</g>
<!-- Node10&#45;&gt;Node13 -->
<g id="edge13" class="edge">
<title>Node10&#45;&gt;Node13</title>
<path fill="none" stroke="midnightblue" d="M678.47,-328.27C645.07,-325.68 608.58,-322.84 579.79,-320.6"/>
<polygon fill="midnightblue" stroke="midnightblue" points="678.48,-331.78 688.72,-329.07 679.02,-324.8 678.48,-331.78"/>
</g>
<!-- Node14 -->
<g id="node14" class="node">
<title>Node14</title>
<g id="a_node14"><a xlink:href="classdenoptim_1_1gui_1_1_main_tool_bar.html#a94df24e485081c9b9d7441387f409e26" target="_top" xlink:title="Updated the the list of recent files in the &quot;open Recent&quot; menu.">
<polygon fill="white" stroke="black" points="446,-383.5 446,-413.5 606,-413.5 606,-383.5 446,-383.5"/>
<text text-anchor="start" x="454" y="-401.5" font-family="Helvetica,sans-Serif" font-size="10.00">denoptim.gui.MainToolBar.update</text>
<text text-anchor="middle" x="526" y="-390.5" font-family="Helvetica,sans-Serif" font-size="10.00">OpenRecentMenu</text>
</a>
</g>
</g>
<!-- Node10&#45;&gt;Node14 -->
<g id="edge14" class="edge">
<title>Node10&#45;&gt;Node14</title>
<path fill="none" stroke="midnightblue" d="M724.43,-347.63C684.82,-357.83 627.99,-372.48 585.47,-383.43"/>
<polygon fill="midnightblue" stroke="midnightblue" points="725.56,-350.95 734.37,-345.07 723.81,-344.17 725.56,-350.95"/>
</g>
<!-- Node12 -->
<g id="node12" class="node">
<title>Node12</title>
<g id="a_node12"><a xlink:href="classdenoptim_1_1gui_1_1_main_tool_bar.html#a36f4409849998e032342f49b19e6c5b5" target="_top" xlink:title="Constructor that build the tool bar.">
<polygon fill="white" stroke="black" points="11.5,-361.5 11.5,-391.5 142.5,-391.5 142.5,-361.5 11.5,-361.5"/>
<text text-anchor="start" x="19.5" y="-379.5" font-family="Helvetica,sans-Serif" font-size="10.00">denoptim.gui.MainToolBar.</text>
<text text-anchor="middle" x="77" y="-368.5" font-family="Helvetica,sans-Serif" font-size="10.00">MainToolBar</text>
</a>
</g>
</g>
<!-- Node11&#45;&gt;Node12 -->
<g id="edge12" class="edge">
<title>Node11&#45;&gt;Node12</title>
<path fill="none" stroke="midnightblue" d="M191.24,-376.5C174.83,-376.5 158.05,-376.5 142.6,-376.5"/>
<polygon fill="midnightblue" stroke="midnightblue" points="191.39,-380 201.39,-376.5 191.39,-373 191.39,-380"/>
</g>
<!-- Node14&#45;&gt;Node11 -->
<g id="edge15" class="edge">
<title>Node14&#45;&gt;Node11</title>
<path fill="none" stroke="midnightblue" d="M435.5,-390.3C412.92,-388.23 388.8,-386.02 366.63,-383.98"/>
<polygon fill="midnightblue" stroke="midnightblue" points="435.47,-393.81 445.75,-391.24 436.11,-386.84 435.47,-393.81"/>
</g>
<!-- Node16 -->
<g id="node16" class="node">
<title>Node16</title>
<g id="a_node16"><a xlink:href="classdenoptim_1_1gui_1_1_g_u_i_graph_handler.html#af7024886a4203aa93d8cf7975f7c2e72" target="_top" xlink:title=" ">
<polygon fill="white" stroke="black" points="682,-82.5 682,-112.5 863,-112.5 863,-82.5 682,-82.5"/>
<text text-anchor="start" x="690" y="-100.5" font-family="Helvetica,sans-Serif" font-size="10.00">denoptim.gui.GUIGraphHandler.create</text>
<text text-anchor="middle" x="772.5" y="-89.5" font-family="Helvetica,sans-Serif" font-size="10.00">EmptyVertexAndPlaceItInGraph</text>
</a>
</g>
</g>
<!-- Node15&#45;&gt;Node16 -->
<g id="edge17" class="edge">
<title>Node15&#45;&gt;Node16</title>
<path fill="none" stroke="midnightblue" d="M896.71,-106.2C885.56,-105.42 874.29,-104.62 863.33,-103.85"/>
<polygon fill="midnightblue" stroke="midnightblue" points="896.67,-109.71 906.89,-106.92 897.16,-102.73 896.67,-109.71"/>
</g>
<!-- Node17 -->
<g id="node17" class="node">
<title>Node17</title>
<g id="a_node17"><a xlink:href="classdenoptim_1_1gui_1_1_g_u_i_graph_handler.html#a857bfe6291322daccf2af3fd9a28a356" target="_top" xlink:title="Start the construction of a new graph from scratch.">
<polygon fill="white" stroke="black" points="414,-120.5 414,-150.5 638,-150.5 638,-120.5 414,-120.5"/>
<text text-anchor="start" x="422" y="-138.5" font-family="Helvetica,sans-Serif" font-size="10.00">denoptim.gui.GUIGraphHandler.start</text>
<text text-anchor="middle" x="526" y="-127.5" font-family="Helvetica,sans-Serif" font-size="10.00">GraphFromFragSpaceOrCreationOfEmptyVertex</text>
</a>
</g>
</g>
<!-- Node15&#45;&gt;Node17 -->
<g id="edge21" class="edge">
<title>Node15&#45;&gt;Node17</title>
<path fill="none" stroke="midnightblue" d="M896.53,-121.01C887.89,-121.55 879.3,-122.05 871,-122.5 793.27,-126.68 705.58,-129.97 638.2,-132.2"/>
<polygon fill="midnightblue" stroke="midnightblue" points="896.91,-124.49 906.66,-120.37 896.46,-117.51 896.91,-124.49"/>
</g>
<!-- Node16&#45;&gt;Node3 -->
<g id="edge18" class="edge">
<title>Node16&#45;&gt;Node3</title>
<path fill="none" stroke="midnightblue" d="M671.94,-96.27C585.83,-95.21 462.28,-93.69 378.11,-92.65"/>
<polygon fill="midnightblue" stroke="midnightblue" points="671.94,-99.77 681.99,-96.4 672.03,-92.77 671.94,-99.77"/>
</g>
<!-- Node16&#45;&gt;Node17 -->
<g id="edge19" class="edge">
<title>Node16&#45;&gt;Node17</title>
<path fill="none" stroke="midnightblue" d="M671.54,-113.04C655.72,-115.49 639.38,-118.03 623.64,-120.48"/>
<polygon fill="midnightblue" stroke="midnightblue" points="672.5,-116.43 681.85,-111.43 671.43,-109.51 672.5,-116.43"/>
</g>
<!-- Node17&#45;&gt;Node3 -->
<g id="edge20" class="edge">
<title>Node17&#45;&gt;Node3</title>
<path fill="none" stroke="midnightblue" d="M433.07,-118.65C400.48,-112.67 364.96,-106.16 336.89,-101.01"/>
<polygon fill="midnightblue" stroke="midnightblue" points="432.61,-122.12 443.08,-120.48 433.87,-115.23 432.61,-122.12"/>
</g>
<!-- Node18&#45;&gt;Node3 -->
<g id="edge23" class="edge">
<title>Node18&#45;&gt;Node3</title>
<path fill="none" stroke="midnightblue" d="M897.81,-66.83C833.56,-68.42 748.92,-70.73 674,-73.5 572.83,-77.24 456.91,-82.76 378.12,-86.7"/>
<polygon fill="midnightblue" stroke="midnightblue" points="898.03,-70.33 907.95,-66.58 897.86,-63.33 898.03,-70.33"/>
</g>
</g>
</svg>
