<?xml version="1.0" encoding="UTF-8" standalone="no"?>
<!DOCTYPE svg PUBLIC "-//W3C//DTD SVG 1.1//EN"
 "http://www.w3.org/Graphics/SVG/1.1/DTD/svg11.dtd">
<!-- Generated by graphviz version 3.0.0 (20220413.0242)
 -->
<!-- Title: denoptim.graph.DGraph.reorderVertexList Pages: 1 -->
<!--zoomable 219 -->
<svg id="main" version="1.1" xmlns="http://www.w3.org/2000/svg" xmlns:xlink="http://www.w3.org/1999/xlink" xml:space="preserve" onload="init(evt)">
<style type="text/css"><![CDATA[
.edge:hover path { stroke: red; }
.edge:hover polygon { stroke: red; fill: red; }
]]></style>
<script type="text/javascript"><![CDATA[
var edges = document.getElementsByTagName('g');
if (edges && edges.length) {
  for (var i=0;i<edges.length;i++) {
    if (edges[i].id.substr(0,4)=='edge') {
      edges[i].setAttribute('class','edge');
    }
  }
}
]]></script>
        <defs>
                <circle id="rim" cx="0" cy="0" r="7"/>
                <circle id="rim2" cx="0" cy="0" r="3.5"/>
                <g id="zoomPlus">
                        <use xlink:href="#rim" fill="#404040">
                                <set attributeName="fill" to="#808080" begin="zoomplus.mouseover" end="zoomplus.mouseout"/>
                        </use>
                        <path d="M-4,0h8M0,-4v8" fill="none" stroke="white" stroke-width="1.5" pointer-events="none"/>
                </g>
                <g id="zoomMin">
                        <use xlink:href="#rim" fill="#404040">
                                <set attributeName="fill" to="#808080" begin="zoomminus.mouseover" end="zoomminus.mouseout"/>
                        </use>
                        <path d="M-4,0h8" fill="none" stroke="white" stroke-width="1.5" pointer-events="none"/>
                </g>
                <g id="dirArrow">
                        <path fill="none" stroke="white" stroke-width="1.5" d="M0,-3.0v7 M-2.5,-0.5L0,-3.0L2.5,-0.5"/>
                </g>
               <g id="resetDef">
                       <use xlink:href="#rim2" fill="#404040">
                               <set attributeName="fill" to="#808080" begin="reset.mouseover" end="reset.mouseout"/>
                       </use>
               </g>
        </defs>

<script type="text/javascript">
var viewWidth = 575;
var viewHeight = 219;
var sectionId = 'dynsection-200';
</script>
<script xlink:href="svgpan.js"/>
<svg id="graph" class="graph">
<g id="viewport">
<title>denoptim.graph.DGraph.reorderVertexList</title>
<polygon fill="white" stroke="transparent" points="-4,4 -4,-214.5 571,-214.5 571,4 -4,4"/>
<!-- Node1 -->
<g id="node1" class="node">
<title>Node1</title>
<g id="a_node1"><a xlink:title="Sets the vertex at the lowest level as the scaffold, changes the &#160;&#160;directions of edges so that the sc...">
<polygon fill="#bfbfbf" stroke="black" points="417,-96 417,-126 567,-126 567,-96 417,-96"/>
<text text-anchor="start" x="425" y="-114" font-family="Helvetica,sans-Serif" font-size="10.00">denoptim.graph.DGraph.reorder</text>
<text text-anchor="middle" x="492" y="-103" font-family="Helvetica,sans-Serif" font-size="10.00">VertexList</text>
</a>
</g>
</g>
<!-- Node2 -->
<g id="node2" class="node">
<title>Node2</title>
<g id="a_node2"><a xlink:href="classdenoptim_1_1graph_1_1_d_graph.html#a6fe5ab71083430bbab0b7d2e2f139c3a" target="_top" xlink:title="Extracts subgraphs that match the provided pattern.">
<polygon fill="white" stroke="black" points="232,-96 232,-126 381,-126 381,-96 232,-96"/>
<text text-anchor="start" x="240" y="-114" font-family="Helvetica,sans-Serif" font-size="10.00">denoptim.graph.DGraph.extract</text>
<text text-anchor="middle" x="306.5" y="-103" font-family="Helvetica,sans-Serif" font-size="10.00">Pattern</text>
</a>
</g>
</g>
<!-- Node1&#45;&gt;Node2 -->
<g id="edge1" class="edge">
<title>Node1&#45;&gt;Node2</title>
<path fill="none" stroke="midnightblue" d="M406.63,-111C398.17,-111 389.63,-111 381.29,-111"/>
<polygon fill="midnightblue" stroke="midnightblue" points="406.89,-114.5 416.89,-111 406.89,-107.5 406.89,-114.5"/>
</g>
<!-- Node3 -->
<g id="node3" class="node">
<title>Node3</title>
<g id="a_node3"><a xlink:href="classdenoptim_1_1fragspace_1_1_fragment_space.html#a32b0be109306e9c81fc830867296bc66" target="_top" xlink:title="Extracts a system of one or more fused rings and adds them to the fragment space if not already prese...">
<polygon fill="white" stroke="black" points="0,-180 0,-210 196,-210 196,-180 0,-180"/>
<text text-anchor="start" x="8" y="-198" font-family="Helvetica,sans-Serif" font-size="10.00">denoptim.fragspace.Fragment</text>
<text text-anchor="middle" x="98" y="-187" font-family="Helvetica,sans-Serif" font-size="10.00">Space.addFusedRingsToFragmentLibrary</text>
</a>
</g>
</g>
<!-- Node2&#45;&gt;Node3 -->
<g id="edge2" class="edge">
<title>Node2&#45;&gt;Node3</title>
<path fill="none" stroke="midnightblue" d="M273.39,-131.49C252.12,-144.32 223.21,-160.39 196,-171 187.43,-174.34 178.26,-177.33 169.09,-179.96"/>
<polygon fill="midnightblue" stroke="midnightblue" points="275.31,-134.41 282.01,-126.21 271.66,-128.44 275.31,-134.41"/>
</g>
<!-- Node4 -->
<g id="node4" class="node">
<title>Node4</title>
<g id="a_node4"><a xlink:href="classdenoptim_1_1ga_1_1_graph_operations_test.html#a81e15cea05ce67c5b0c2af89d301d072" target="_top" xlink:title=" ">
<polygon fill="white" stroke="black" points="25.5,-120.5 25.5,-161.5 170.5,-161.5 170.5,-120.5 25.5,-120.5"/>
<text text-anchor="start" x="33.5" y="-149.5" font-family="Helvetica,sans-Serif" font-size="10.00">denoptim.ga.GraphOperations</text>
<text text-anchor="start" x="33.5" y="-138.5" font-family="Helvetica,sans-Serif" font-size="10.00">Test.testExtractPattern</text>
<text text-anchor="middle" x="98" y="-127.5" font-family="Helvetica,sans-Serif" font-size="10.00">_fusedRings</text>
</a>
</g>
</g>
<!-- Node2&#45;&gt;Node4 -->
<g id="edge3" class="edge">
<title>Node2&#45;&gt;Node4</title>
<path fill="none" stroke="midnightblue" d="M221.9,-123.14C204.88,-125.62 187.13,-128.2 170.57,-130.6"/>
<polygon fill="midnightblue" stroke="midnightblue" points="222.43,-126.61 231.82,-121.7 221.42,-119.68 222.43,-126.61"/>
</g>
<!-- Node5 -->
<g id="node5" class="node">
<title>Node5</title>
<g id="a_node5"><a xlink:href="classdenoptim_1_1ga_1_1_graph_operations_test.html#a51afdfc40faf5bcc51609ddef161f078" target="_top" xlink:title=" ">
<polygon fill="white" stroke="black" points="25.5,-60.5 25.5,-101.5 170.5,-101.5 170.5,-60.5 25.5,-60.5"/>
<text text-anchor="start" x="33.5" y="-89.5" font-family="Helvetica,sans-Serif" font-size="10.00">denoptim.ga.GraphOperations</text>
<text text-anchor="start" x="33.5" y="-78.5" font-family="Helvetica,sans-Serif" font-size="10.00">Test.testExtractPattern</text>
<text text-anchor="middle" x="98" y="-67.5" font-family="Helvetica,sans-Serif" font-size="10.00">_returnsEmptyListIfNoRings</text>
</a>
</g>
</g>
<!-- Node2&#45;&gt;Node5 -->
<g id="edge4" class="edge">
<title>Node2&#45;&gt;Node5</title>
<path fill="none" stroke="midnightblue" d="M221.9,-98.86C204.88,-96.38 187.13,-93.8 170.57,-91.4"/>
<polygon fill="midnightblue" stroke="midnightblue" points="221.42,-102.32 231.82,-100.3 222.43,-95.39 221.42,-102.32"/>
</g>
<!-- Node6 -->
<g id="node6" class="node">
<title>Node6</title>
<g id="a_node6"><a xlink:href="classdenoptim_1_1ga_1_1_graph_operations_test.html#a161540d22b2ad17c44fc3e1a911a1367" target="_top" xlink:title=" ">
<polygon fill="white" stroke="black" points="25.5,-0.5 25.5,-41.5 170.5,-41.5 170.5,-0.5 25.5,-0.5"/>
<text text-anchor="start" x="33.5" y="-29.5" font-family="Helvetica,sans-Serif" font-size="10.00">denoptim.ga.GraphOperations</text>
<text text-anchor="start" x="33.5" y="-18.5" font-family="Helvetica,sans-Serif" font-size="10.00">Test.testExtractPattern</text>
<text text-anchor="middle" x="98" y="-7.5" font-family="Helvetica,sans-Serif" font-size="10.00">_singleRingSystem</text>
</a>
</g>
</g>
<!-- Node2&#45;&gt;Node6 -->
<g id="edge5" class="edge">
<title>Node2&#45;&gt;Node6</title>
<path fill="none" stroke="midnightblue" d="M272.76,-90.79C251.44,-78.21 222.72,-62.32 196,-51 187.88,-47.56 179.24,-44.32 170.58,-41.34"/>
<polygon fill="midnightblue" stroke="midnightblue" points="271.04,-93.84 281.42,-95.96 274.63,-87.83 271.04,-93.84"/>
</g>
</g>
</svg>
        <g id="navigator" transform="translate(0 0)" fill="#404254">
                <rect fill="#f2f5e9" fill-opacity="0.5" stroke="#606060" stroke-width=".5" x="0" y="0" width="60" height="60"/>
                <use id="zoomplus" xlink:href="#zoomPlus" x="17" y="9" onmousedown="handleZoom(evt,'in')"/>
                <use id="zoomminus" xlink:href="#zoomMin" x="42" y="9" onmousedown="handleZoom(evt,'out')"/>
                <use id="reset" xlink:href="#resetDef" x="30" y="36" onmousedown="handleReset()"/>
                <g id="arrowUp" xlink:href="#dirArrow" transform="translate(30 24)" onmousedown="handlePan(0,-1)">
                  <use xlink:href="#rim" fill="#404040">
                        <set attributeName="fill" to="#808080" begin="arrowUp.mouseover" end="arrowUp.mouseout"/>
                  </use>
                  <path fill="none" stroke="white" stroke-width="1.5" d="M0,-3.0v7 M-2.5,-0.5L0,-3.0L2.5,-0.5"/>
                </g>
                <g id="arrowRight" xlink:href="#dirArrow" transform="rotate(90) translate(36 -43)" onmousedown="handlePan(1,0)">
                  <use xlink:href="#rim" fill="#404040">
                        <set attributeName="fill" to="#808080" begin="arrowRight.mouseover" end="arrowRight.mouseout"/>
                  </use>
                  <path fill="none" stroke="white" stroke-width="1.5" d="M0,-3.0v7 M-2.5,-0.5L0,-3.0L2.5,-0.5"/>
                </g>
                <g id="arrowDown" xlink:href="#dirArrow" transform="rotate(180) translate(-30 -48)" onmousedown="handlePan(0,1)">
                  <use xlink:href="#rim" fill="#404040">
                        <set attributeName="fill" to="#808080" begin="arrowDown.mouseover" end="arrowDown.mouseout"/>
                  </use>
                  <path fill="none" stroke="white" stroke-width="1.5" d="M0,-3.0v7 M-2.5,-0.5L0,-3.0L2.5,-0.5"/>
                </g>
                <g id="arrowLeft" xlink:href="#dirArrow" transform="rotate(270) translate(-36 17)" onmousedown="handlePan(-1,0)">
                  <use xlink:href="#rim" fill="#404040">
                        <set attributeName="fill" to="#808080" begin="arrowLeft.mouseover" end="arrowLeft.mouseout"/>
                  </use>
                  <path fill="none" stroke="white" stroke-width="1.5" d="M0,-3.0v7 M-2.5,-0.5L0,-3.0L2.5,-0.5"/>
                </g>
        </g>
        <svg viewBox="0 0 15 15" width="100%" height="30px" preserveAspectRatio="xMaxYMin meet">
         <g id="arrow_out" transform="scale(0.3 0.3)">
          <a xlink:href="classdenoptim_1_1graph_1_1_d_graph_a45b3ec4b3b4d6384e49093e9b9449537_icgraph_org.svg" target="_base">
           <rect id="button" ry="5" rx="5" y="6" x="6" height="38" width="38"
                fill="#f2f5e9" fill-opacity="0.5" stroke="#606060" stroke-width="1.0"/>
           <path id="arrow"
             d="M 11.500037,31.436501 C 11.940474,20.09759 22.043105,11.32322 32.158766,21.979434 L 37.068811,17.246167 C 37.068811,17.246167 37.088388,32 37.088388,32 L 22.160133,31.978069 C 22.160133,31.978069 26.997745,27.140456 26.997745,27.140456 C 18.528582,18.264221 13.291696,25.230495 11.500037,31.436501 z"
             style="fill:#404040;"/>
          </a>
         </g>
        </svg>
</svg>
