<?xml version="1.0" encoding="UTF-8" standalone="no"?>
<!DOCTYPE svg PUBLIC "-//W3C//DTD SVG 1.1//EN"
 "http://www.w3.org/Graphics/SVG/1.1/DTD/svg11.dtd">
<!-- Generated by graphviz version 3.0.0 (20220413.0242)
 -->
<!-- Title: denoptim.graph.Candidate.setName Pages: 1 -->
<svg width="921pt" height="284pt"
 viewBox="0.00 0.00 921.00 284.00" xmlns="http://www.w3.org/2000/svg" xmlns:xlink="http://www.w3.org/1999/xlink">
<g id="graph0" class="graph" transform="scale(1 1) rotate(0) translate(4 280)">
<title>denoptim.graph.Candidate.setName</title>
<polygon fill="white" stroke="transparent" points="-4,4 -4,-280 917,-280 917,4 -4,4"/>
<!-- Node1 -->
<g id="node1" class="node">
<title>Node1</title>
<g id="a_node1"><a xlink:title=" ">
<polygon fill="#bfbfbf" stroke="black" points="743,-128 743,-147 913,-147 913,-128 743,-128"/>
<text text-anchor="middle" x="828" y="-135" font-family="Helvetica,sans-Serif" font-size="10.00">denoptim.graph.Candidate.setName</text>
</a>
</g>
</g>
<!-- Node2 -->
<g id="node2" class="node">
<title>Node2</title>
<g id="a_node2"><a xlink:href="classdenoptim_1_1ga_1_1_e_a_utils.html#a5cb6bbe9f383bf821f3b1f1c5e60031b" target="_top" xlink:title=" ">
<polygon fill="white" stroke="black" points="555.5,-245.5 555.5,-275.5 682.5,-275.5 682.5,-245.5 555.5,-245.5"/>
<text text-anchor="start" x="563.5" y="-263.5" font-family="Helvetica,sans-Serif" font-size="10.00">denoptim.ga.EAUtils.build</text>
<text text-anchor="middle" x="619" y="-252.5" font-family="Helvetica,sans-Serif" font-size="10.00">CandidateByMutation</text>
</a>
</g>
</g>
<!-- Node1&#45;&gt;Node2 -->
<g id="edge1" class="edge">
<title>Node1&#45;&gt;Node2</title>
<path fill="none" stroke="midnightblue" d="M810.99,-154.58C789.41,-176.63 748.83,-214.75 707,-236.5 699.35,-240.48 690.98,-243.85 682.54,-246.7"/>
<polygon fill="midnightblue" stroke="midnightblue" points="813.64,-156.87 818.05,-147.24 808.6,-152.02 813.64,-156.87"/>
</g>
<!-- Node7 -->
<g id="node7" class="node">
<title>Node7</title>
<g id="a_node7"><a xlink:href="classdenoptim_1_1ga_1_1_e_a_utils.html#a98553265dd4b441b11c6d97d098edb08" target="_top" xlink:title="Generates a new offspring by performing a crossover operation.">
<polygon fill="white" stroke="black" points="555.5,-196.5 555.5,-226.5 682.5,-226.5 682.5,-196.5 555.5,-196.5"/>
<text text-anchor="start" x="563.5" y="-214.5" font-family="Helvetica,sans-Serif" font-size="10.00">denoptim.ga.EAUtils.build</text>
<text text-anchor="middle" x="619" y="-203.5" font-family="Helvetica,sans-Serif" font-size="10.00">CandidateByXOver</text>
</a>
</g>
</g>
<!-- Node1&#45;&gt;Node7 -->
<g id="edge6" class="edge">
<title>Node1&#45;&gt;Node7</title>
<path fill="none" stroke="midnightblue" d="M796.78,-151.34C772.75,-162.03 738.13,-176.77 707,-187.5 697.82,-190.67 687.98,-193.71 678.34,-196.5"/>
<polygon fill="midnightblue" stroke="midnightblue" points="798.38,-154.45 806.07,-147.17 795.51,-148.07 798.38,-154.45"/>
</g>
<!-- Node8 -->
<g id="node8" class="node">
<title>Node8</title>
<g id="a_node8"><a xlink:href="classdenoptim_1_1ga_1_1_e_a_utils.html#ad3d2daeb11e68a356e971ca1846596b5" target="_top" xlink:title=" ">
<polygon fill="white" stroke="black" points="555.5,-49.5 555.5,-79.5 682.5,-79.5 682.5,-49.5 555.5,-49.5"/>
<text text-anchor="start" x="563.5" y="-67.5" font-family="Helvetica,sans-Serif" font-size="10.00">denoptim.ga.EAUtils.build</text>
<text text-anchor="middle" x="619" y="-56.5" font-family="Helvetica,sans-Serif" font-size="10.00">CandidateFromScratch</text>
</a>
</g>
</g>
<!-- Node1&#45;&gt;Node8 -->
<g id="edge7" class="edge">
<title>Node1&#45;&gt;Node8</title>
<path fill="none" stroke="midnightblue" d="M795.81,-124.02C771.78,-113.88 737.6,-99.99 707,-89.5 696.89,-86.04 686.01,-82.65 675.49,-79.54"/>
<polygon fill="midnightblue" stroke="midnightblue" points="794.56,-127.29 805.13,-127.98 797.3,-120.85 794.56,-127.29"/>
</g>
<!-- Node10 -->
<g id="node10" class="node">
<title>Node10</title>
<g id="a_node10"><a xlink:href="classdenoptim_1_1ga_1_1_offspring_evaluation_task.html#ad3f876e486627cf11fb3e73be58f1973" target="_top" xlink:title=" ">
<polygon fill="white" stroke="black" points="541.5,-98.5 541.5,-128.5 696.5,-128.5 696.5,-98.5 541.5,-98.5"/>
<text text-anchor="start" x="549.5" y="-116.5" font-family="Helvetica,sans-Serif" font-size="10.00">denoptim.ga.OffspringEvaluation</text>
<text text-anchor="middle" x="619" y="-105.5" font-family="Helvetica,sans-Serif" font-size="10.00">Task.OffspringEvaluationTask</text>
</a>
</g>
</g>
<!-- Node1&#45;&gt;Node10 -->
<g id="edge11" class="edge">
<title>Node1&#45;&gt;Node10</title>
<path fill="none" stroke="midnightblue" d="M734.74,-126.8C722,-125.33 709.04,-123.82 696.62,-122.38"/>
<polygon fill="midnightblue" stroke="midnightblue" points="734.55,-130.31 744.89,-127.98 735.36,-123.35 734.55,-130.31"/>
</g>
<!-- Node11 -->
<g id="node11" class="node">
<title>Node11</title>
<g id="a_node11"><a xlink:href="classdenoptim_1_1ga_1_1_e_a_utils.html#a1688ab120fd681dabe18d8e60185371a" target="_top" xlink:title=" ">
<polygon fill="white" stroke="black" points="556.5,-147.5 556.5,-177.5 681.5,-177.5 681.5,-147.5 556.5,-147.5"/>
<text text-anchor="start" x="564.5" y="-165.5" font-family="Helvetica,sans-Serif" font-size="10.00">denoptim.ga.EAUtils.read</text>
<text text-anchor="middle" x="619" y="-154.5" font-family="Helvetica,sans-Serif" font-size="10.00">CandidateFromFile</text>
</a>
</g>
</g>
<!-- Node1&#45;&gt;Node11 -->
<g id="edge12" class="edge">
<title>Node1&#45;&gt;Node11</title>
<path fill="none" stroke="midnightblue" d="M737.98,-148.25C718.96,-150.55 699.28,-152.92 681.57,-155.06"/>
<polygon fill="midnightblue" stroke="midnightblue" points="738.64,-151.7 748.15,-147.02 737.8,-144.75 738.64,-151.7"/>
</g>
<!-- Node12 -->
<g id="node12" class="node">
<title>Node12</title>
<g id="a_node12"><a xlink:href="classdenoptim_1_1combinatorial_1_1_graph_building_task.html#a6b74fb1e5678145e094259bfa2401bd4" target="_top" xlink:title=" ">
<polygon fill="white" stroke="black" points="531,-0.5 531,-30.5 707,-30.5 707,-0.5 531,-0.5"/>
<text text-anchor="start" x="539" y="-18.5" font-family="Helvetica,sans-Serif" font-size="10.00">denoptim.combinatorial.Graph</text>
<text text-anchor="middle" x="619" y="-7.5" font-family="Helvetica,sans-Serif" font-size="10.00">BuildingTask.sendToFitnessProvider</text>
</a>
</g>
</g>
<!-- Node1&#45;&gt;Node12 -->
<g id="edge14" class="edge">
<title>Node1&#45;&gt;Node12</title>
<path fill="none" stroke="midnightblue" d="M810.96,-120.6C789.33,-98.78 748.71,-61.06 707,-39.5 700.46,-36.12 693.39,-33.17 686.2,-30.61"/>
<polygon fill="midnightblue" stroke="midnightblue" points="808.55,-123.14 818.03,-127.86 813.56,-118.26 808.55,-123.14"/>
</g>
<!-- Node3 -->
<g id="node3" class="node">
<title>Node3</title>
<g id="a_node3"><a xlink:href="classdenoptim_1_1ga_1_1_evolutionary_algorithm.html#a596b2f5f0b097c5b67a6e5163bd6fe66" target="_top" xlink:title="Generates a given number of new candidate items and adds them to the current population.">
<polygon fill="white" stroke="black" points="355.5,-134.5 355.5,-164.5 489.5,-164.5 489.5,-134.5 355.5,-134.5"/>
<text text-anchor="start" x="363.5" y="-152.5" font-family="Helvetica,sans-Serif" font-size="10.00">denoptim.ga.Evolutionary</text>
<text text-anchor="middle" x="422.5" y="-141.5" font-family="Helvetica,sans-Serif" font-size="10.00">Algorithm.evolvePopulation</text>
</a>
</g>
</g>
<!-- Node2&#45;&gt;Node3 -->
<g id="edge2" class="edge">
<title>Node2&#45;&gt;Node3</title>
<path fill="none" stroke="midnightblue" d="M546.06,-243.22C540.86,-241.2 535.79,-238.96 531,-236.5 493.84,-217.4 457.53,-184.07 438.09,-164.68"/>
<polygon fill="midnightblue" stroke="midnightblue" points="544.9,-246.52 555.5,-246.63 547.28,-239.94 544.9,-246.52"/>
</g>
<!-- Node4 -->
<g id="node4" class="node">
<title>Node4</title>
<g id="a_node4"><a xlink:href="classdenoptim_1_1ga_1_1_evolutionary_algorithm.html#a6bfc2fa59b199da6259b5b6bad3d6de7" target="_top" xlink:title=" ">
<polygon fill="white" stroke="black" points="190,-103.5 190,-133.5 314,-133.5 314,-103.5 190,-103.5"/>
<text text-anchor="start" x="198" y="-121.5" font-family="Helvetica,sans-Serif" font-size="10.00">denoptim.ga.Evolutionary</text>
<text text-anchor="middle" x="252" y="-110.5" font-family="Helvetica,sans-Serif" font-size="10.00">Algorithm.run</text>
</a>
</g>
</g>
<!-- Node3&#45;&gt;Node4 -->
<g id="edge3" class="edge">
<title>Node3&#45;&gt;Node4</title>
<path fill="none" stroke="midnightblue" d="M345.45,-135.51C335,-133.59 324.38,-131.63 314.25,-129.77"/>
<polygon fill="midnightblue" stroke="midnightblue" points="344.92,-138.97 355.39,-137.34 346.19,-132.09 344.92,-138.97"/>
</g>
<!-- Node5 -->
<g id="node5" class="node">
<title>Node5</title>
<g id="a_node5"><a xlink:href="classdenoptim_1_1ga_1_1_evolutionary_algorithm.html#a0f2063b722b7291daf83d62acaa683d3" target="_top" xlink:title=" ">
<polygon fill="white" stroke="black" points="0,-128.5 0,-158.5 154,-158.5 154,-128.5 0,-128.5"/>
<text text-anchor="start" x="8" y="-146.5" font-family="Helvetica,sans-Serif" font-size="10.00">denoptim.ga.Evolutionary</text>
<text text-anchor="middle" x="77" y="-135.5" font-family="Helvetica,sans-Serif" font-size="10.00">Algorithm.EvolutionaryAlgorithm</text>
</a>
</g>
</g>
<!-- Node4&#45;&gt;Node5 -->
<g id="edge4" class="edge">
<title>Node4&#45;&gt;Node5</title>
<path fill="none" stroke="midnightblue" d="M179.44,-128.84C171.09,-130.05 162.54,-131.28 154.12,-132.5"/>
<polygon fill="midnightblue" stroke="midnightblue" points="180.12,-132.28 189.52,-127.38 179.12,-125.35 180.12,-132.28"/>
</g>
<!-- Node6 -->
<g id="node6" class="node">
<title>Node6</title>
<g id="a_node6"><a xlink:href="classdenoptim_1_1programs_1_1denovo_1_1_g_a_runner.html#a7cafd6d78727b89dce3e2c8d06f0dd7c" target="_top" xlink:title=" ">
<polygon fill="white" stroke="black" points="9.5,-79.5 9.5,-109.5 144.5,-109.5 144.5,-79.5 9.5,-79.5"/>
<text text-anchor="start" x="17.5" y="-97.5" font-family="Helvetica,sans-Serif" font-size="10.00">denoptim.programs.denovo.</text>
<text text-anchor="middle" x="77" y="-86.5" font-family="Helvetica,sans-Serif" font-size="10.00">GARunner.runProgram</text>
</a>
</g>
</g>
<!-- Node4&#45;&gt;Node6 -->
<g id="edge5" class="edge">
<title>Node4&#45;&gt;Node6</title>
<path fill="none" stroke="midnightblue" d="M179.48,-108.58C167.92,-106.97 156,-105.32 144.57,-103.73"/>
<polygon fill="midnightblue" stroke="midnightblue" points="179.13,-112.06 189.52,-109.97 180.1,-105.13 179.13,-112.06"/>
</g>
<!-- Node8&#45;&gt;Node3 -->
<g id="edge8" class="edge">
<title>Node8&#45;&gt;Node3</title>
<path fill="none" stroke="midnightblue" d="M547.29,-82.8C541.7,-84.85 536.21,-87.09 531,-89.5 513.55,-97.58 511.62,-103.82 495,-113.5 482.39,-120.84 468.09,-128.22 455.62,-134.36"/>
<polygon fill="midnightblue" stroke="midnightblue" points="548.46,-86.1 556.75,-79.51 546.16,-79.49 548.46,-86.1"/>
</g>
<!-- Node9 -->
<g id="node9" class="node">
<title>Node9</title>
<g id="a_node9"><a xlink:href="classdenoptim_1_1ga_1_1_evolutionary_algorithm.html#ad43588620dab3340e0d8b0042ec73618" target="_top" xlink:title="Fills up the population with candidates build from scratch.">
<polygon fill="white" stroke="black" points="352.5,-73.5 352.5,-103.5 492.5,-103.5 492.5,-73.5 352.5,-73.5"/>
<text text-anchor="start" x="360.5" y="-91.5" font-family="Helvetica,sans-Serif" font-size="10.00">denoptim.ga.Evolutionary</text>
<text text-anchor="middle" x="422.5" y="-80.5" font-family="Helvetica,sans-Serif" font-size="10.00">Algorithm.initializePopulation</text>
</a>
</g>
</g>
<!-- Node8&#45;&gt;Node9 -->
<g id="edge9" class="edge">
<title>Node8&#45;&gt;Node9</title>
<path fill="none" stroke="midnightblue" d="M545.39,-73.46C528.15,-75.59 509.81,-77.85 492.73,-79.96"/>
<polygon fill="midnightblue" stroke="midnightblue" points="545.89,-76.92 555.39,-72.23 545.03,-69.98 545.89,-76.92"/>
</g>
<!-- Node9&#45;&gt;Node4 -->
<g id="edge10" class="edge">
<title>Node9&#45;&gt;Node4</title>
<path fill="none" stroke="midnightblue" d="M342.56,-102.55C333,-104.26 323.34,-105.98 314.08,-107.62"/>
<polygon fill="midnightblue" stroke="midnightblue" points="343.25,-105.99 352.48,-100.79 342.02,-99.1 343.25,-105.99"/>
</g>
<!-- Node11&#45;&gt;Node3 -->
<g id="edge13" class="edge">
<title>Node11&#45;&gt;Node3</title>
<path fill="none" stroke="midnightblue" d="M546.32,-157.71C527.79,-156.47 507.92,-155.14 489.69,-153.92"/>
<polygon fill="midnightblue" stroke="midnightblue" points="546.25,-161.21 556.46,-158.39 546.71,-154.23 546.25,-161.21"/>
</g>
<!-- Node13 -->
<g id="node13" class="node">
<title>Node13</title>
<g id="a_node13"><a xlink:href="classdenoptim_1_1combinatorial_1_1_graph_building_task.html#a3eaee724fc921194fa158714aafe182d" target="_top" xlink:title="Calls the task.">
<polygon fill="white" stroke="black" points="350,-0.5 350,-30.5 495,-30.5 495,-0.5 350,-0.5"/>
<text text-anchor="start" x="358" y="-18.5" font-family="Helvetica,sans-Serif" font-size="10.00">denoptim.combinatorial.Graph</text>
<text text-anchor="middle" x="422.5" y="-7.5" font-family="Helvetica,sans-Serif" font-size="10.00">BuildingTask.call</text>
</a>
</g>
</g>
<!-- Node12&#45;&gt;Node13 -->
<g id="edge15" class="edge">
<title>Node12&#45;&gt;Node13</title>
<path fill="none" stroke="midnightblue" d="M520.89,-15.5C512.27,-15.5 503.64,-15.5 495.29,-15.5"/>
<polygon fill="midnightblue" stroke="midnightblue" points="520.99,-19 530.99,-15.5 520.99,-12 520.99,-19"/>
</g>
</g>
</svg>
