<?xml version="1.0" encoding="UTF-8" standalone="no"?>
<!DOCTYPE svg PUBLIC "-//W3C//DTD SVG 1.1//EN"
 "http://www.w3.org/Graphics/SVG/1.1/DTD/svg11.dtd">
<!-- Generated by graphviz version 3.0.0 (20220413.0242)
 -->
<!-- Title: denoptim.graph.DGraph.getChildVertices Pages: 1 -->
<svg width="1853pt" height="547pt"
 viewBox="0.00 0.00 1853.00 547.00" xmlns="http://www.w3.org/2000/svg" xmlns:xlink="http://www.w3.org/1999/xlink">
<g id="graph0" class="graph" transform="scale(1 1) rotate(0) translate(4 543)">
<title>denoptim.graph.DGraph.getChildVertices</title>
<polygon fill="white" stroke="transparent" points="-4,4 -4,-543 1849,-543 1849,4 -4,4"/>
<!-- Node1 -->
<g id="node1" class="node">
<title>Node1</title>
<g id="a_node1"><a xlink:title=" ">
<polygon fill="#bfbfbf" stroke="black" points="1711,-161.5 1711,-191.5 1845,-191.5 1845,-161.5 1711,-161.5"/>
<text text-anchor="start" x="1719" y="-179.5" font-family="Helvetica,sans-Serif" font-size="10.00">denoptim.graph.DGraph.get</text>
<text text-anchor="middle" x="1778" y="-168.5" font-family="Helvetica,sans-Serif" font-size="10.00">ChildVertices</text>
</a>
</g>
</g>
<!-- Node2 -->
<g id="node2" class="node">
<title>Node2</title>
<g id="a_node2"><a xlink:href="classdenoptim_1_1graph_1_1_d_graph.html#a20fd7eb7a5406042d208aa5b1e716f91" target="_top" xlink:title="Finds the AP that is on the first given parameter and that is used to make a connection to the second...">
<polygon fill="white" stroke="black" points="1532,-312.5 1532,-342.5 1666,-342.5 1666,-312.5 1532,-312.5"/>
<text text-anchor="start" x="1540" y="-330.5" font-family="Helvetica,sans-Serif" font-size="10.00">denoptim.graph.DGraph.get</text>
<text text-anchor="middle" x="1599" y="-319.5" font-family="Helvetica,sans-Serif" font-size="10.00">APOnLeftVertexID</text>
</a>
</g>
</g>
<!-- Node1&#45;&gt;Node2 -->
<g id="edge1" class="edge">
<title>Node1&#45;&gt;Node2</title>
<path fill="none" stroke="midnightblue" d="M1762.4,-199.98C1744.66,-226.81 1712.42,-270.47 1675,-297.5 1666.81,-303.41 1657.3,-308.37 1647.85,-312.45"/>
<polygon fill="midnightblue" stroke="midnightblue" points="1765.34,-201.87 1767.84,-191.58 1759.47,-198.06 1765.34,-201.87"/>
</g>
<!-- Node3 -->
<g id="node3" class="node">
<title>Node3</title>
<g id="a_node3"><a xlink:href="classdenoptim_1_1graph_1_1_d_graph.html#a3a184063c09f54ff6798aea4dd504302" target="_top" xlink:title="Gets all the children of the current vertex recursively.">
<polygon fill="white" stroke="black" points="1111,-336.5 1111,-366.5 1245,-366.5 1245,-336.5 1111,-336.5"/>
<text text-anchor="start" x="1119" y="-354.5" font-family="Helvetica,sans-Serif" font-size="10.00">denoptim.graph.DGraph.get</text>
<text text-anchor="middle" x="1178" y="-343.5" font-family="Helvetica,sans-Serif" font-size="10.00">ChildrenTree</text>
</a>
</g>
</g>
<!-- Node1&#45;&gt;Node3 -->
<g id="edge2" class="edge">
<title>Node1&#45;&gt;Node3</title>
<path fill="none" stroke="midnightblue" d="M1735.18,-195.68C1716.92,-203.64 1695.13,-212.62 1675,-219.5 1523.87,-271.19 1341.2,-315.21 1245.26,-336.96"/>
<polygon fill="midnightblue" stroke="midnightblue" points="1736.64,-198.86 1744.37,-191.62 1733.81,-192.46 1736.64,-198.86"/>
</g>
<!-- Node23 -->
<g id="node23" class="node">
<title>Node23</title>
<g id="a_node23"><a xlink:href="classdenoptim_1_1graph_1_1_d_graph.html#ae1abe3a930d1189d1020f9a9bbdac0c1" target="_top" xlink:title="Gets all the children of the current vertex recursively.">
<polygon fill="white" stroke="black" points="1532,-161.5 1532,-191.5 1666,-191.5 1666,-161.5 1532,-161.5"/>
<text text-anchor="start" x="1540" y="-179.5" font-family="Helvetica,sans-Serif" font-size="10.00">denoptim.graph.DGraph.get</text>
<text text-anchor="middle" x="1599" y="-168.5" font-family="Helvetica,sans-Serif" font-size="10.00">ChildTreeLimited</text>
</a>
</g>
</g>
<!-- Node1&#45;&gt;Node23 -->
<g id="edge26" class="edge">
<title>Node1&#45;&gt;Node23</title>
<path fill="none" stroke="midnightblue" d="M1700.78,-176.5C1689.23,-176.5 1677.39,-176.5 1666.08,-176.5"/>
<polygon fill="midnightblue" stroke="midnightblue" points="1700.84,-180 1710.84,-176.5 1700.84,-173 1700.84,-180"/>
</g>
<!-- Node31 -->
<g id="node31" class="node">
<title>Node31</title>
<g id="a_node31"><a xlink:href="classdenoptim_1_1graph_1_1_d_graph.html#ac06dd330dc8decdf385cdad0658e137a" target="_top" xlink:title=" ">
<polygon fill="white" stroke="black" points="1523,-102.5 1523,-132.5 1675,-132.5 1675,-102.5 1523,-102.5"/>
<text text-anchor="start" x="1531" y="-120.5" font-family="Helvetica,sans-Serif" font-size="10.00">denoptim.graph.DGraph.remove</text>
<text text-anchor="middle" x="1599" y="-109.5" font-family="Helvetica,sans-Serif" font-size="10.00">CappingGroupsFromChilds</text>
</a>
</g>
</g>
<!-- Node1&#45;&gt;Node31 -->
<g id="edge39" class="edge">
<title>Node1&#45;&gt;Node31</title>
<path fill="none" stroke="midnightblue" d="M1722.25,-158.25C1697.47,-149.99 1668.54,-140.35 1645.04,-132.51"/>
<polygon fill="midnightblue" stroke="midnightblue" points="1721.28,-161.62 1731.88,-161.46 1723.5,-154.98 1721.28,-161.62"/>
</g>
<!-- Node32 -->
<g id="node32" class="node">
<title>Node32</title>
<g id="a_node32"><a xlink:href="classdenoptim_1_1graph_1_1_d_graph.html#aa0420500bab73722508ecc3c6e5fa90d" target="_top" xlink:title="Remove capping groups on the given vertex of this graph.">
<polygon fill="white" stroke="black" points="1523,-34.5 1523,-64.5 1675,-64.5 1675,-34.5 1523,-34.5"/>
<text text-anchor="start" x="1531" y="-52.5" font-family="Helvetica,sans-Serif" font-size="10.00">denoptim.graph.DGraph.remove</text>
<text text-anchor="middle" x="1599" y="-41.5" font-family="Helvetica,sans-Serif" font-size="10.00">CappingGroupsOn</text>
</a>
</g>
</g>
<!-- Node1&#45;&gt;Node32 -->
<g id="edge41" class="edge">
<title>Node1&#45;&gt;Node32</title>
<path fill="none" stroke="midnightblue" d="M1752.17,-154.5C1732.02,-137.09 1702.53,-112.61 1675,-93.5 1659.99,-83.08 1642.42,-72.68 1628.05,-64.61"/>
<polygon fill="midnightblue" stroke="midnightblue" points="1750.1,-157.34 1759.94,-161.26 1754.7,-152.06 1750.1,-157.34"/>
</g>
<!-- Node3&#45;&gt;Node3 -->
<g id="edge5" class="edge">
<title>Node3&#45;&gt;Node3</title>
<path fill="none" stroke="midnightblue" d="M1216.38,-376.96C1211.62,-381.68 1198.82,-385 1178,-385 1143.83,-385 1131.28,-376.06 1140.36,-366.66"/>
<polygon fill="midnightblue" stroke="midnightblue" points="1219.85,-376.38 1215.64,-366.66 1212.87,-376.88 1219.85,-376.38"/>
</g>
<!-- Node4 -->
<g id="node4" class="node">
<title>Node4</title>
<g id="a_node4"><a xlink:href="classdenoptim_1_1ga_1_1_e_a_utils.html#a98553265dd4b441b11c6d97d098edb08" target="_top" xlink:title="Generates a new offspring by performing a crossover operation.">
<polygon fill="white" stroke="black" points="248.5,-180.5 248.5,-210.5 375.5,-210.5 375.5,-180.5 248.5,-180.5"/>
<text text-anchor="start" x="256.5" y="-198.5" font-family="Helvetica,sans-Serif" font-size="10.00">denoptim.ga.EAUtils.build</text>
<text text-anchor="middle" x="312" y="-187.5" font-family="Helvetica,sans-Serif" font-size="10.00">CandidateByXOver</text>
</a>
</g>
</g>
<!-- Node3&#45;&gt;Node4 -->
<g id="edge3" class="edge">
<title>Node3&#45;&gt;Node4</title>
<path fill="none" stroke="midnightblue" d="M1136.21,-332.38C1112,-321.95 1080.38,-309.89 1051,-303.5 786.84,-246.07 704.21,-337.77 444,-264.5 402.68,-252.86 359.52,-227.05 334.51,-210.5"/>
<polygon fill="midnightblue" stroke="midnightblue" points="1134.88,-335.62 1145.44,-336.44 1137.69,-329.21 1134.88,-335.62"/>
</g>
<!-- Node5 -->
<g id="node5" class="node">
<title>Node5</title>
<g id="a_node5"><a xlink:href="classdenoptim_1_1graph_1_1_d_graph.html#a4c897937d4e30c60a8a0c02a0c971262" target="_top" xlink:title="Creates a new graph that corresponds to the subgraph of this graph when exploring the spanning tree f...">
<polygon fill="white" stroke="black" points="886.5,-312.5 886.5,-342.5 1035.5,-342.5 1035.5,-312.5 886.5,-312.5"/>
<text text-anchor="start" x="894.5" y="-330.5" font-family="Helvetica,sans-Serif" font-size="10.00">denoptim.graph.DGraph.extract</text>
<text text-anchor="middle" x="961" y="-319.5" font-family="Helvetica,sans-Serif" font-size="10.00">Subgraph</text>
</a>
</g>
</g>
<!-- Node3&#45;&gt;Node5 -->
<g id="edge4" class="edge">
<title>Node3&#45;&gt;Node5</title>
<path fill="none" stroke="midnightblue" d="M1100.52,-342.96C1079.38,-340.6 1056.5,-338.05 1035.54,-335.71"/>
<polygon fill="midnightblue" stroke="midnightblue" points="1100.41,-346.47 1110.74,-344.1 1101.19,-339.52 1100.41,-346.47"/>
</g>
<!-- Node6 -->
<g id="node6" class="node">
<title>Node6</title>
<g id="a_node6"><a xlink:href="classdenoptim_1_1ga_1_1_graph_operations.html#ad30a49493cb4fbbee21a7589929bc680" target="_top" xlink:title="Identify crossover sites, i.e., subgraphs that can be swapped between two graphs (i....">
<polygon fill="white" stroke="black" points="874.5,-168.5 874.5,-198.5 1047.5,-198.5 1047.5,-168.5 874.5,-168.5"/>
<text text-anchor="start" x="882.5" y="-186.5" font-family="Helvetica,sans-Serif" font-size="10.00">denoptim.ga.GraphOperations.locate</text>
<text text-anchor="middle" x="961" y="-175.5" font-family="Helvetica,sans-Serif" font-size="10.00">CompatibleXOverPoints</text>
</a>
</g>
</g>
<!-- Node3&#45;&gt;Node6 -->
<g id="edge6" class="edge">
<title>Node3&#45;&gt;Node6</title>
<path fill="none" stroke="midnightblue" d="M1149.54,-330.04C1105.35,-295.51 1019.55,-228.47 981.26,-198.55"/>
<polygon fill="midnightblue" stroke="midnightblue" points="1147.51,-332.9 1157.54,-336.29 1151.82,-327.38 1147.51,-332.9"/>
</g>
<!-- Node14 -->
<g id="node14" class="node">
<title>Node14</title>
<g id="a_node14"><a xlink:href="classdenoptim_1_1graph_1_1_d_graph.html#aea560f1323c57e1264ac3192b4d294d1" target="_top" xlink:title="Deletes the branch, i.e., the specified vertex and its children.">
<polygon fill="white" stroke="black" points="885,-361.5 885,-391.5 1037,-391.5 1037,-361.5 885,-361.5"/>
<text text-anchor="start" x="893" y="-379.5" font-family="Helvetica,sans-Serif" font-size="10.00">denoptim.graph.DGraph.remove</text>
<text text-anchor="middle" x="961" y="-368.5" font-family="Helvetica,sans-Serif" font-size="10.00">OrphanBranchStartingAt</text>
</a>
</g>
</g>
<!-- Node3&#45;&gt;Node14 -->
<g id="edge16" class="edge">
<title>Node3&#45;&gt;Node14</title>
<path fill="none" stroke="midnightblue" d="M1100.73,-360.37C1080.05,-362.77 1057.67,-365.38 1037.06,-367.77"/>
<polygon fill="midnightblue" stroke="midnightblue" points="1101.21,-363.84 1110.74,-359.2 1100.4,-356.88 1101.21,-363.84"/>
</g>
<!-- Node20 -->
<g id="node20" class="node">
<title>Node20</title>
<g id="a_node20"><a xlink:href="classdenoptim_1_1ga_1_1_e_a_utils_test.html#a52682a0cc73283eafd36d345b6929ea8" target="_top" xlink:title=" ">
<polygon fill="white" stroke="black" points="889.5,-508.5 889.5,-538.5 1032.5,-538.5 1032.5,-508.5 889.5,-508.5"/>
<text text-anchor="start" x="897.5" y="-526.5" font-family="Helvetica,sans-Serif" font-size="10.00">denoptim.ga.EAUtilsTest.test</text>
<text text-anchor="middle" x="961" y="-515.5" font-family="Helvetica,sans-Serif" font-size="10.00">BuildByXOver_SubGraph</text>
</a>
</g>
</g>
<!-- Node3&#45;&gt;Node20 -->
<g id="edge23" class="edge">
<title>Node3&#45;&gt;Node20</title>
<path fill="none" stroke="midnightblue" d="M1162.99,-375.69C1142.6,-408.71 1101.6,-467.46 1051,-499.5 1045.32,-503.1 1039.11,-506.16 1032.69,-508.76"/>
<polygon fill="midnightblue" stroke="midnightblue" points="1166.24,-377.08 1168.42,-366.71 1160.25,-373.46 1166.24,-377.08"/>
</g>
<!-- Node21 -->
<g id="node21" class="node">
<title>Node21</title>
<g id="a_node21"><a xlink:href="classdenoptim_1_1graph_1_1_d_graph_test.html#a58da23a0d5e884652fecf95eac4995ad" target="_top" xlink:title=" ">
<polygon fill="white" stroke="black" points="883,-459.5 883,-489.5 1039,-489.5 1039,-459.5 883,-459.5"/>
<text text-anchor="start" x="891" y="-477.5" font-family="Helvetica,sans-Serif" font-size="10.00">denoptim.graph.DGraphTest.test</text>
<text text-anchor="middle" x="961" y="-466.5" font-family="Helvetica,sans-Serif" font-size="10.00">GetChildrenTree</text>
</a>
</g>
</g>
<!-- Node3&#45;&gt;Node21 -->
<g id="edge24" class="edge">
<title>Node3&#45;&gt;Node21</title>
<path fill="none" stroke="midnightblue" d="M1154.68,-373.69C1130.91,-396.14 1091.22,-430.34 1051,-450.5 1044.28,-453.87 1037.02,-456.81 1029.66,-459.37"/>
<polygon fill="midnightblue" stroke="midnightblue" points="1157.32,-376.01 1162.11,-366.56 1152.47,-370.96 1157.32,-376.01"/>
</g>
<!-- Node22 -->
<g id="node22" class="node">
<title>Node22</title>
<g id="a_node22"><a xlink:href="classdenoptim_1_1graph_1_1_d_graph_test.html#abfaf918deddf6407a4b1916c06a8c412" target="_top" xlink:title=" ">
<polygon fill="white" stroke="black" points="874,-410.5 874,-440.5 1048,-440.5 1048,-410.5 874,-410.5"/>
<text text-anchor="start" x="882" y="-428.5" font-family="Helvetica,sans-Serif" font-size="10.00">denoptim.graph.DGraphTest.test</text>
<text text-anchor="middle" x="961" y="-417.5" font-family="Helvetica,sans-Serif" font-size="10.00">GetChildrenTreeWithBranchIdentifier</text>
</a>
</g>
</g>
<!-- Node3&#45;&gt;Node22 -->
<g id="edge25" class="edge">
<title>Node3&#45;&gt;Node22</title>
<path fill="none" stroke="midnightblue" d="M1132.58,-370.57C1108.66,-380.47 1078.48,-392.37 1051,-401.5 1041.58,-404.63 1031.51,-407.65 1021.64,-410.43"/>
<polygon fill="midnightblue" stroke="midnightblue" points="1134.21,-373.68 1142.09,-366.6 1131.52,-367.22 1134.21,-373.68"/>
</g>
<!-- Node6&#45;&gt;Node6 -->
<g id="edge12" class="edge">
<title>Node6&#45;&gt;Node6</title>
<path fill="none" stroke="midnightblue" d="M999.38,-208.96C994.62,-213.68 981.82,-217 961,-217 926.83,-217 914.28,-208.06 923.36,-198.66"/>
<polygon fill="midnightblue" stroke="midnightblue" points="1002.85,-208.38 998.64,-198.66 995.87,-208.88 1002.85,-208.38"/>
</g>
<!-- Node7 -->
<g id="node7" class="node">
<title>Node7</title>
<g id="a_node7"><a xlink:href="classdenoptim_1_1ga_1_1_population.html#ab303d612f90e917a7b1b49eadc93c76e" target="_top" xlink:title="Returns a list of population members that can do crossover with the specified member.">
<polygon fill="white" stroke="black" points="674,-168.5 674,-198.5 807,-198.5 807,-168.5 674,-168.5"/>
<text text-anchor="start" x="682" y="-186.5" font-family="Helvetica,sans-Serif" font-size="10.00">denoptim.ga.Population.get</text>
<text text-anchor="middle" x="740.5" y="-175.5" font-family="Helvetica,sans-Serif" font-size="10.00">XoverPartners</text>
</a>
</g>
</g>
<!-- Node6&#45;&gt;Node7 -->
<g id="edge7" class="edge">
<title>Node6&#45;&gt;Node7</title>
<path fill="none" stroke="midnightblue" d="M864.24,-183.5C844.92,-183.5 825.04,-183.5 807.05,-183.5"/>
<polygon fill="midnightblue" stroke="midnightblue" points="864.27,-187 874.27,-183.5 864.27,-180 864.27,-187"/>
</g>
<!-- Node11 -->
<g id="node11" class="node">
<title>Node11</title>
<g id="a_node11"><a xlink:href="classdenoptim_1_1programs_1_1genetweeker_1_1_gene_ops_runner.html#ab0f92a94c4fb2334e7d3813e73fc4247" target="_top" xlink:title=" ">
<polygon fill="white" stroke="black" points="661,-221.5 661,-251.5 820,-251.5 820,-221.5 661,-221.5"/>
<text text-anchor="start" x="669" y="-239.5" font-family="Helvetica,sans-Serif" font-size="10.00">denoptim.programs.genetweeker.</text>
<text text-anchor="middle" x="740.5" y="-228.5" font-family="Helvetica,sans-Serif" font-size="10.00">GeneOpsRunner.runXOver</text>
</a>
</g>
</g>
<!-- Node6&#45;&gt;Node11 -->
<g id="edge13" class="edge">
<title>Node6&#45;&gt;Node11</title>
<path fill="none" stroke="midnightblue" d="M888.09,-200.94C860.81,-207.56 830,-215.03 803.68,-221.42"/>
<polygon fill="midnightblue" stroke="midnightblue" points="889.08,-204.3 897.97,-198.55 887.43,-197.5 889.08,-204.3"/>
</g>
<!-- Node13 -->
<g id="node13" class="node">
<title>Node13</title>
<g id="a_node13"><a xlink:href="classdenoptim_1_1ga_1_1_graph_operations_test.html#a9fcf8fffef10a59df722c92e94da2815" target="_top" xlink:title=" ">
<polygon fill="white" stroke="black" points="646,-119.5 646,-149.5 835,-149.5 835,-119.5 646,-119.5"/>
<text text-anchor="start" x="654" y="-137.5" font-family="Helvetica,sans-Serif" font-size="10.00">denoptim.ga.GraphOperations</text>
<text text-anchor="middle" x="740.5" y="-126.5" font-family="Helvetica,sans-Serif" font-size="10.00">Test.testLocateCompatibleXOverPoints</text>
</a>
</g>
</g>
<!-- Node6&#45;&gt;Node13 -->
<g id="edge15" class="edge">
<title>Node6&#45;&gt;Node13</title>
<path fill="none" stroke="midnightblue" d="M883.04,-166.24C858.7,-160.78 832,-154.79 808.42,-149.51"/>
<polygon fill="midnightblue" stroke="midnightblue" points="882.43,-169.69 892.96,-168.47 883.97,-162.86 882.43,-169.69"/>
</g>
<!-- Node8 -->
<g id="node8" class="node">
<title>Node8</title>
<g id="a_node8"><a xlink:href="classdenoptim_1_1ga_1_1_e_a_utils.html#af1c589b6d5ba261e1417f3cd299e8e5d" target="_top" xlink:title="Perform fitness&#45;based, class&#45;compatible selection of parents that can do crossover operations.">
<polygon fill="white" stroke="black" points="444,-186 444,-205 610,-205 610,-186 444,-186"/>
<text text-anchor="middle" x="527" y="-193" font-family="Helvetica,sans-Serif" font-size="10.00">denoptim.ga.EAUtils.performFBCC</text>
</a>
</g>
</g>
<!-- Node7&#45;&gt;Node8 -->
<g id="edge8" class="edge">
<title>Node7&#45;&gt;Node8</title>
<path fill="none" stroke="midnightblue" d="M663.66,-187.8C646.3,-188.79 627.76,-189.84 610.14,-190.84"/>
<polygon fill="midnightblue" stroke="midnightblue" points="663.95,-191.29 673.74,-187.23 663.56,-184.3 663.95,-191.29"/>
</g>
<!-- Node9 -->
<g id="node9" class="node">
<title>Node9</title>
<g id="a_node9"><a xlink:href="classdenoptim_1_1ga_1_1_population_test.html#a5db0672054a9fc1dbc923310732fdb3a" target="_top" xlink:title=" ">
<polygon fill="white" stroke="black" points="449.5,-136.5 449.5,-166.5 604.5,-166.5 604.5,-136.5 449.5,-136.5"/>
<text text-anchor="start" x="457.5" y="-154.5" font-family="Helvetica,sans-Serif" font-size="10.00">denoptim.ga.PopulationTest.test</text>
<text text-anchor="middle" x="527" y="-143.5" font-family="Helvetica,sans-Serif" font-size="10.00">Clone</text>
</a>
</g>
</g>
<!-- Node7&#45;&gt;Node9 -->
<g id="edge10" class="edge">
<title>Node7&#45;&gt;Node9</title>
<path fill="none" stroke="midnightblue" d="M663.59,-172.02C644.49,-169.13 623.98,-166.02 604.83,-163.12"/>
<polygon fill="midnightblue" stroke="midnightblue" points="663.33,-175.51 673.74,-173.55 664.38,-168.59 663.33,-175.51"/>
</g>
<!-- Node10 -->
<g id="node10" class="node">
<title>Node10</title>
<g id="a_node10"><a xlink:href="classdenoptim_1_1ga_1_1_population_test.html#a278212ebff2501b7071d342f9a027599" target="_top" xlink:title=" ">
<polygon fill="white" stroke="black" points="449.5,-87.5 449.5,-117.5 604.5,-117.5 604.5,-87.5 449.5,-87.5"/>
<text text-anchor="start" x="457.5" y="-105.5" font-family="Helvetica,sans-Serif" font-size="10.00">denoptim.ga.PopulationTest.test</text>
<text text-anchor="middle" x="527" y="-94.5" font-family="Helvetica,sans-Serif" font-size="10.00">XOverCompatibility</text>
</a>
</g>
</g>
<!-- Node7&#45;&gt;Node10 -->
<g id="edge11" class="edge">
<title>Node7&#45;&gt;Node10</title>
<path fill="none" stroke="midnightblue" d="M663.83,-167.45C657.66,-165.13 651.63,-162.5 646,-159.5 627.1,-149.44 628.67,-137.97 610,-127.5 603.25,-123.71 595.86,-120.43 588.37,-117.61"/>
<polygon fill="midnightblue" stroke="midnightblue" points="663.03,-170.87 673.62,-170.83 665.31,-164.26 663.03,-170.87"/>
</g>
<!-- Node8&#45;&gt;Node4 -->
<g id="edge9" class="edge">
<title>Node8&#45;&gt;Node4</title>
<path fill="none" stroke="midnightblue" d="M433.79,-195.5C414.22,-195.5 393.99,-195.5 375.82,-195.5"/>
<polygon fill="midnightblue" stroke="midnightblue" points="433.95,-199 443.95,-195.5 433.95,-192 433.95,-199"/>
</g>
<!-- Node12 -->
<g id="node12" class="node">
<title>Node12</title>
<g id="a_node12"><a xlink:href="classdenoptim_1_1programs_1_1genetweeker_1_1_gene_ops_runner.html#a3c2407eb1204a7b25600d3d347d98447" target="_top" xlink:title=" ">
<polygon fill="white" stroke="black" points="447.5,-224.5 447.5,-254.5 606.5,-254.5 606.5,-224.5 447.5,-224.5"/>
<text text-anchor="start" x="455.5" y="-242.5" font-family="Helvetica,sans-Serif" font-size="10.00">denoptim.programs.genetweeker.</text>
<text text-anchor="middle" x="527" y="-231.5" font-family="Helvetica,sans-Serif" font-size="10.00">GeneOpsRunner.runProgram</text>
</a>
</g>
</g>
<!-- Node11&#45;&gt;Node12 -->
<g id="edge14" class="edge">
<title>Node11&#45;&gt;Node12</title>
<path fill="none" stroke="midnightblue" d="M650.74,-237.76C636.16,-237.97 621.14,-238.18 606.82,-238.38"/>
<polygon fill="midnightblue" stroke="midnightblue" points="650.8,-241.26 660.75,-237.62 650.7,-234.26 650.8,-241.26"/>
</g>
<!-- Node15 -->
<g id="node15" class="node">
<title>Node15</title>
<g id="a_node15"><a xlink:href="classdenoptim_1_1graph_1_1_d_graph.html#a65f0577c098508ced9925878e94ead82" target="_top" xlink:title="Deletes the branch, i.e., the specified vertex and its children.">
<polygon fill="white" stroke="black" points="664.5,-336.5 664.5,-366.5 816.5,-366.5 816.5,-336.5 664.5,-336.5"/>
<text text-anchor="start" x="672.5" y="-354.5" font-family="Helvetica,sans-Serif" font-size="10.00">denoptim.graph.DGraph.remove</text>
<text text-anchor="middle" x="740.5" y="-343.5" font-family="Helvetica,sans-Serif" font-size="10.00">BranchStartingAt</text>
</a>
</g>
</g>
<!-- Node14&#45;&gt;Node15 -->
<g id="edge17" class="edge">
<title>Node14&#45;&gt;Node15</title>
<path fill="none" stroke="midnightblue" d="M874.63,-366.73C855.56,-364.55 835.47,-362.25 816.83,-360.12"/>
<polygon fill="midnightblue" stroke="midnightblue" points="874.47,-370.24 884.8,-367.9 875.27,-363.28 874.47,-370.24"/>
</g>
<!-- Node16 -->
<g id="node16" class="node">
<title>Node16</title>
<g id="a_node16"><a xlink:href="classdenoptim_1_1graph_1_1_d_graph.html#a357b4099599e47ae47102123550771f8" target="_top" xlink:title="Remove a given vertex belonging to this graph and re&#45;connects the resulting graph branches as much as...">
<polygon fill="white" stroke="black" points="664.5,-385.5 664.5,-415.5 816.5,-415.5 816.5,-385.5 664.5,-385.5"/>
<text text-anchor="start" x="672.5" y="-403.5" font-family="Helvetica,sans-Serif" font-size="10.00">denoptim.graph.DGraph.remove</text>
<text text-anchor="middle" x="740.5" y="-392.5" font-family="Helvetica,sans-Serif" font-size="10.00">SingleVertexAndWeld</text>
</a>
</g>
</g>
<!-- Node14&#45;&gt;Node16 -->
<g id="edge18" class="edge">
<title>Node14&#45;&gt;Node16</title>
<path fill="none" stroke="midnightblue" d="M874.63,-385.88C855.56,-387.97 835.47,-390.18 816.83,-392.23"/>
<polygon fill="midnightblue" stroke="midnightblue" points="875.25,-389.33 884.8,-384.76 874.48,-382.37 875.25,-389.33"/>
</g>
<!-- Node16&#45;&gt;Node16 -->
<g id="edge19" class="edge">
<title>Node16&#45;&gt;Node16</title>
<path fill="none" stroke="midnightblue" d="M778.17,-425.96C773.49,-430.68 760.94,-434 740.5,-434 706.96,-434 694.65,-425.06 703.55,-415.66"/>
<polygon fill="midnightblue" stroke="midnightblue" points="781.64,-425.39 777.45,-415.66 774.66,-425.88 781.64,-425.39"/>
</g>
<!-- Node17 -->
<g id="node17" class="node">
<title>Node17</title>
<g id="a_node17"><a xlink:href="classdenoptim_1_1graph_1_1_d_graph.html#a00209ca8b4a9623b41e7d9e1e62f69ec" target="_top" xlink:title="Remove a given vertex belonging to this graph and re&#45;connects the resulting graph branches as much as...">
<polygon fill="white" stroke="black" points="451,-385.5 451,-415.5 603,-415.5 603,-385.5 451,-385.5"/>
<text text-anchor="start" x="459" y="-403.5" font-family="Helvetica,sans-Serif" font-size="10.00">denoptim.graph.DGraph.remove</text>
<text text-anchor="middle" x="527" y="-392.5" font-family="Helvetica,sans-Serif" font-size="10.00">VertexAndWeld</text>
</a>
</g>
</g>
<!-- Node16&#45;&gt;Node17 -->
<g id="edge20" class="edge">
<title>Node16&#45;&gt;Node17</title>
<path fill="none" stroke="midnightblue" d="M653.99,-400.5C637.2,-400.5 619.7,-400.5 603.28,-400.5"/>
<polygon fill="midnightblue" stroke="midnightblue" points="654.34,-404 664.34,-400.5 654.34,-397 654.34,-404"/>
</g>
<!-- Node18 -->
<g id="node18" class="node">
<title>Node18</title>
<g id="a_node18"><a xlink:href="classdenoptim_1_1ga_1_1_graph_operations.html#ab3adb5141a8941bf23916bb516faee63" target="_top" xlink:title="Removes a vertex while merging as many of the child branches into the parent vertex.">
<polygon fill="white" stroke="black" points="216,-391 216,-410 408,-410 408,-391 216,-391"/>
<text text-anchor="middle" x="312" y="-398" font-family="Helvetica,sans-Serif" font-size="10.00">denoptim.ga.GraphOperations.deleteLink</text>
</a>
</g>
</g>
<!-- Node17&#45;&gt;Node18 -->
<g id="edge21" class="edge">
<title>Node17&#45;&gt;Node18</title>
<path fill="none" stroke="midnightblue" d="M440.78,-400.5C430.1,-400.5 419.13,-400.5 408.31,-400.5"/>
<polygon fill="midnightblue" stroke="midnightblue" points="440.9,-404 450.9,-400.5 440.9,-397 440.9,-404"/>
</g>
<!-- Node19 -->
<g id="node19" class="node">
<title>Node19</title>
<g id="a_node19"><a xlink:href="classdenoptim_1_1ga_1_1_graph_operations.html#a0c851972015fbb4b2a317b053b8b81d9" target="_top" xlink:title="Mutates the given vertex according to the given mutation type, if possible.">
<polygon fill="white" stroke="black" points="0,-385.5 0,-415.5 180,-415.5 180,-385.5 0,-385.5"/>
<text text-anchor="start" x="8" y="-403.5" font-family="Helvetica,sans-Serif" font-size="10.00">denoptim.ga.GraphOperations.perform</text>
<text text-anchor="middle" x="90" y="-392.5" font-family="Helvetica,sans-Serif" font-size="10.00">Mutation</text>
</a>
</g>
</g>
<!-- Node18&#45;&gt;Node19 -->
<g id="edge22" class="edge">
<title>Node18&#45;&gt;Node19</title>
<path fill="none" stroke="midnightblue" d="M205.75,-400.5C197.17,-400.5 188.56,-400.5 180.11,-400.5"/>
<polygon fill="midnightblue" stroke="midnightblue" points="205.78,-404 215.78,-400.5 205.78,-397 205.78,-404"/>
</g>
<!-- Node23&#45;&gt;Node11 -->
<g id="edge38" class="edge">
<title>Node23&#45;&gt;Node11</title>
<path fill="none" stroke="midnightblue" d="M1563.62,-196.42C1542.32,-207.62 1513.96,-220.52 1487,-226.5 1248.96,-279.31 957.58,-259.82 820.25,-245.83"/>
<polygon fill="midnightblue" stroke="midnightblue" points="1565.44,-199.41 1572.59,-191.59 1562.12,-193.25 1565.44,-199.41"/>
</g>
<!-- Node23&#45;&gt;Node23 -->
<g id="edge28" class="edge">
<title>Node23&#45;&gt;Node23</title>
<path fill="none" stroke="midnightblue" d="M1630.63,-201.96C1626.7,-206.68 1616.16,-210 1599,-210 1570.84,-210 1560.5,-201.06 1567.98,-191.66"/>
<polygon fill="midnightblue" stroke="midnightblue" points="1634.1,-201.44 1630.02,-191.66 1627.12,-201.85 1634.1,-201.44"/>
</g>
<!-- Node24 -->
<g id="node24" class="node">
<title>Node24</title>
<g id="a_node24"><a xlink:href="classdenoptim_1_1graph_1_1_d_graph.html#afc6ae3a9e5a1668aae6a9d18f8dd5624" target="_top" xlink:title="Creates a new graph that corresponds to the subgraph of this graph when exploring the spanning tree f...">
<polygon fill="white" stroke="black" points="1321.5,-88.5 1321.5,-118.5 1470.5,-118.5 1470.5,-88.5 1321.5,-88.5"/>
<text text-anchor="start" x="1329.5" y="-106.5" font-family="Helvetica,sans-Serif" font-size="10.00">denoptim.graph.DGraph.extract</text>
<text text-anchor="middle" x="1396" y="-95.5" font-family="Helvetica,sans-Serif" font-size="10.00">Subgraph</text>
</a>
</g>
</g>
<!-- Node23&#45;&gt;Node24 -->
<g id="edge27" class="edge">
<title>Node23&#45;&gt;Node24</title>
<path fill="none" stroke="midnightblue" d="M1555.12,-157.24C1529.81,-146.01 1500.21,-133.17 1487,-128.5 1477.06,-124.99 1466.37,-121.65 1455.94,-118.62"/>
<polygon fill="midnightblue" stroke="midnightblue" points="1554.01,-160.58 1564.57,-161.44 1556.86,-154.18 1554.01,-160.58"/>
</g>
<!-- Node25 -->
<g id="node25" class="node">
<title>Node25</title>
<g id="a_node25"><a xlink:href="classdenoptim_1_1graph_1_1_d_graph.html#a4b3389846d25be8e1e6c7e0a80dd7619" target="_top" xlink:title="We assume that the subgraph is a continuously connected, directed graph.">
<polygon fill="white" stroke="black" points="1329,-137.5 1329,-167.5 1463,-167.5 1463,-137.5 1329,-137.5"/>
<text text-anchor="start" x="1337" y="-155.5" font-family="Helvetica,sans-Serif" font-size="10.00">denoptim.graph.DGraph.get</text>
<text text-anchor="middle" x="1396" y="-144.5" font-family="Helvetica,sans-Serif" font-size="10.00">SymmetricSubGraphs</text>
</a>
</g>
</g>
<!-- Node23&#45;&gt;Node25 -->
<g id="edge29" class="edge">
<title>Node23&#45;&gt;Node25</title>
<path fill="none" stroke="midnightblue" d="M1521.92,-167.42C1502.57,-165.11 1481.94,-162.64 1463.13,-160.4"/>
<polygon fill="midnightblue" stroke="midnightblue" points="1521.56,-170.9 1531.91,-168.61 1522.39,-163.95 1521.56,-170.9"/>
</g>
<!-- Node29 -->
<g id="node29" class="node">
<title>Node29</title>
<g id="a_node29"><a xlink:href="classdenoptim_1_1ga_1_1_graph_operations.html#a65b1468961ba53b217848640d8fd5232" target="_top" xlink:title="Given a pair of seed vertexes that define where a pair of subgraphs stars in the corresponding origin...">
<polygon fill="white" stroke="black" points="1305,-186.5 1305,-216.5 1487,-216.5 1487,-186.5 1305,-186.5"/>
<text text-anchor="start" x="1313" y="-204.5" font-family="Helvetica,sans-Serif" font-size="10.00">denoptim.ga.GraphOperations.process</text>
<text text-anchor="middle" x="1396" y="-193.5" font-family="Helvetica,sans-Serif" font-size="10.00">PermutationOfEndPoints</text>
</a>
</g>
</g>
<!-- Node23&#45;&gt;Node29 -->
<g id="edge35" class="edge">
<title>Node23&#45;&gt;Node29</title>
<path fill="none" stroke="midnightblue" d="M1521.69,-185.99C1510.42,-187.39 1498.72,-188.85 1487.2,-190.28"/>
<polygon fill="midnightblue" stroke="midnightblue" points="1522.42,-189.43 1531.91,-184.72 1521.55,-182.48 1522.42,-189.43"/>
</g>
<!-- Node26 -->
<g id="node26" class="node">
<title>Node26</title>
<g id="a_node26"><a xlink:href="classdenoptim_1_1graph_1_1_d_graph.html#a86e888ef245d2bd40b49d145c7ef3af0" target="_top" xlink:title="Replaced the subgraph represented by a given collection of vertices that belong to this graph.">
<polygon fill="white" stroke="black" points="1102,-66.5 1102,-96.5 1254,-96.5 1254,-66.5 1102,-66.5"/>
<text text-anchor="start" x="1110" y="-84.5" font-family="Helvetica,sans-Serif" font-size="10.00">denoptim.graph.DGraph.replace</text>
<text text-anchor="middle" x="1178" y="-73.5" font-family="Helvetica,sans-Serif" font-size="10.00">SubGraph</text>
</a>
</g>
</g>
<!-- Node25&#45;&gt;Node26 -->
<g id="edge30" class="edge">
<title>Node25&#45;&gt;Node26</title>
<path fill="none" stroke="midnightblue" d="M1325.2,-134.6C1318.35,-132.63 1311.52,-130.58 1305,-128.5 1274.86,-118.88 1241.33,-106.28 1216.44,-96.55"/>
<polygon fill="midnightblue" stroke="midnightblue" points="1324.64,-138.08 1335.22,-137.42 1326.54,-131.34 1324.64,-138.08"/>
</g>
<!-- Node28 -->
<g id="node28" class="node">
<title>Node28</title>
<g id="a_node28"><a xlink:href="classdenoptim_1_1graph_1_1_d_graph_test.html#ac09e961280beb2c61cc88ce1b4bccd3f" target="_top" xlink:title=" ">
<polygon fill="white" stroke="black" points="1100,-137.5 1100,-167.5 1256,-167.5 1256,-137.5 1100,-137.5"/>
<text text-anchor="start" x="1108" y="-155.5" font-family="Helvetica,sans-Serif" font-size="10.00">denoptim.graph.DGraphTest.test</text>
<text text-anchor="middle" x="1178" y="-144.5" font-family="Helvetica,sans-Serif" font-size="10.00">GetSymmetricSubGraphs</text>
</a>
</g>
</g>
<!-- Node25&#45;&gt;Node28 -->
<g id="edge34" class="edge">
<title>Node25&#45;&gt;Node28</title>
<path fill="none" stroke="midnightblue" d="M1318.61,-152.5C1298.34,-152.5 1276.44,-152.5 1256.13,-152.5"/>
<polygon fill="midnightblue" stroke="midnightblue" points="1318.72,-156 1328.72,-152.5 1318.72,-149 1318.72,-156"/>
</g>
<!-- Node27 -->
<g id="node27" class="node">
<title>Node27</title>
<g id="a_node27"><a xlink:href="classdenoptim_1_1ga_1_1_graph_operations.html#affb1be89a32e4a429bd7dbdfe0708419" target="_top" xlink:title="Performs the crossover that swaps the two subgraphs defining the given XoverSite.">
<polygon fill="white" stroke="black" points="871,-66.5 871,-96.5 1051,-96.5 1051,-66.5 871,-66.5"/>
<text text-anchor="start" x="879" y="-84.5" font-family="Helvetica,sans-Serif" font-size="10.00">denoptim.ga.GraphOperations.perform</text>
<text text-anchor="middle" x="961" y="-73.5" font-family="Helvetica,sans-Serif" font-size="10.00">Crossover</text>
</a>
</g>
</g>
<!-- Node26&#45;&gt;Node27 -->
<g id="edge31" class="edge">
<title>Node26&#45;&gt;Node27</title>
<path fill="none" stroke="midnightblue" d="M1091.72,-81.5C1078.39,-81.5 1064.59,-81.5 1051.18,-81.5"/>
<polygon fill="midnightblue" stroke="midnightblue" points="1091.8,-85 1101.8,-81.5 1091.8,-78 1091.8,-85"/>
</g>
<!-- Node27&#45;&gt;Node4 -->
<g id="edge32" class="edge">
<title>Node27&#45;&gt;Node4</title>
<path fill="none" stroke="midnightblue" d="M885.8,-64.47C782.77,-44.42 592.32,-20.55 444,-77.5 389.71,-98.35 343.84,-153.25 323.81,-180.17"/>
<polygon fill="midnightblue" stroke="midnightblue" points="885.31,-67.94 895.8,-66.46 886.67,-61.08 885.31,-67.94"/>
</g>
<!-- Node27&#45;&gt;Node11 -->
<g id="edge33" class="edge">
<title>Node27&#45;&gt;Node11</title>
<path fill="none" stroke="midnightblue" d="M932.53,-102.94C914.19,-117.87 890.03,-138.76 871,-159.5 852.73,-179.41 857.09,-192.93 835,-208.5 827.66,-213.67 819.35,-217.91 810.79,-221.36"/>
<polygon fill="midnightblue" stroke="midnightblue" points="934.91,-105.52 940.51,-96.52 930.52,-100.07 934.91,-105.52"/>
</g>
<!-- Node30 -->
<g id="node30" class="node">
<title>Node30</title>
<g id="a_node30"><a xlink:href="classdenoptim_1_1ga_1_1_graph_operations.html#a5d90c6e2fa30f287f8f69ed3367ccd0e" target="_top" xlink:title="Given a pair of seed vertexes that define where a pair of subgraphs stars in the corresponding origin...">
<polygon fill="white" stroke="black" points="1087,-186.5 1087,-216.5 1269,-216.5 1269,-186.5 1087,-186.5"/>
<text text-anchor="start" x="1095" y="-204.5" font-family="Helvetica,sans-Serif" font-size="10.00">denoptim.ga.GraphOperations.process</text>
<text text-anchor="middle" x="1178" y="-193.5" font-family="Helvetica,sans-Serif" font-size="10.00">CombinationOfEndPoints</text>
</a>
</g>
</g>
<!-- Node29&#45;&gt;Node30 -->
<g id="edge36" class="edge">
<title>Node29&#45;&gt;Node30</title>
<path fill="none" stroke="midnightblue" d="M1294.94,-201.5C1286.37,-201.5 1277.73,-201.5 1269.24,-201.5"/>
<polygon fill="midnightblue" stroke="midnightblue" points="1294.96,-205 1304.96,-201.5 1294.96,-198 1294.96,-205"/>
</g>
<!-- Node30&#45;&gt;Node6 -->
<g id="edge37" class="edge">
<title>Node30&#45;&gt;Node6</title>
<path fill="none" stroke="midnightblue" d="M1076.66,-193.1C1066.93,-192.28 1057.12,-191.46 1047.55,-190.66"/>
<polygon fill="midnightblue" stroke="midnightblue" points="1076.5,-196.6 1086.76,-193.94 1077.08,-189.62 1076.5,-196.6"/>
</g>
<!-- Node31&#45;&gt;Node26 -->
<g id="edge40" class="edge">
<title>Node31&#45;&gt;Node26</title>
<path fill="none" stroke="midnightblue" d="M1554.78,-98.49C1534.6,-90.62 1510.01,-82.43 1487,-78.5 1408.46,-65.1 1317,-68.32 1254.28,-73.34"/>
<polygon fill="midnightblue" stroke="midnightblue" points="1553.71,-101.83 1564.3,-102.31 1556.32,-95.34 1553.71,-101.83"/>
</g>
<!-- Node33 -->
<g id="node33" class="node">
<title>Node33</title>
<g id="a_node33"><a xlink:href="classdenoptim_1_1graph_1_1_d_graph_test.html#adc3ee631a1671aa9ffd5ea3cef73b279" target="_top" xlink:title=" ">
<polygon fill="white" stroke="black" points="1318,-0.5 1318,-30.5 1474,-30.5 1474,-0.5 1318,-0.5"/>
<text text-anchor="start" x="1326" y="-18.5" font-family="Helvetica,sans-Serif" font-size="10.00">denoptim.graph.DGraphTest.test</text>
<text text-anchor="middle" x="1396" y="-7.5" font-family="Helvetica,sans-Serif" font-size="10.00">RemoveCapping</text>
</a>
</g>
</g>
<!-- Node32&#45;&gt;Node33 -->
<g id="edge42" class="edge">
<title>Node32&#45;&gt;Node33</title>
<path fill="none" stroke="midnightblue" d="M1512.67,-35.07C1499.85,-32.9 1486.69,-30.67 1474.05,-28.53"/>
<polygon fill="midnightblue" stroke="midnightblue" points="1512.43,-38.57 1522.87,-36.79 1513.59,-31.67 1512.43,-38.57"/>
</g>
</g>
</svg>
