<?xml version="1.0" encoding="UTF-8" standalone="no"?>
<!DOCTYPE svg PUBLIC "-//W3C//DTD SVG 1.1//EN"
 "http://www.w3.org/Graphics/SVG/1.1/DTD/svg11.dtd">
<!-- Generated by graphviz version 3.0.0 (20220413.0242)
 -->
<!-- Title: denoptim.graph.Vertex.setProperties Pages: 1 -->
<svg width="1166pt" height="588pt"
 viewBox="0.00 0.00 1166.00 588.00" xmlns="http://www.w3.org/2000/svg" xmlns:xlink="http://www.w3.org/1999/xlink">
<g id="graph0" class="graph" transform="scale(1 1) rotate(0) translate(4 584)">
<title>denoptim.graph.Vertex.setProperties</title>
<polygon fill="white" stroke="transparent" points="-4,4 -4,-584 1162,-584 1162,4 -4,4"/>
<!-- Node1 -->
<g id="node1" class="node">
<title>Node1</title>
<g id="a_node1"><a xlink:title=" ">
<polygon fill="#bfbfbf" stroke="black" points="1030,-277.5 1030,-307.5 1158,-307.5 1158,-277.5 1030,-277.5"/>
<text text-anchor="start" x="1038" y="-295.5" font-family="Helvetica,sans-Serif" font-size="10.00">denoptim.graph.Vertex.set</text>
<text text-anchor="middle" x="1094" y="-284.5" font-family="Helvetica,sans-Serif" font-size="10.00">Properties</text>
</a>
</g>
</g>
<!-- Node2 -->
<g id="node2" class="node">
<title>Node2</title>
<g id="a_node2"><a xlink:href="classdenoptim_1_1graph_1_1_empty_vertex.html#a537720023ac6debd9f4663d61026a423" target="_top" xlink:title="Returns a deep&#45;copy of this vertex.">
<polygon fill="white" stroke="black" points="829,-481 829,-500 994,-500 994,-481 829,-481"/>
<text text-anchor="middle" x="911.5" y="-488" font-family="Helvetica,sans-Serif" font-size="10.00">denoptim.graph.EmptyVertex.clone</text>
</a>
</g>
</g>
<!-- Node1&#45;&gt;Node2 -->
<g id="edge1" class="edge">
<title>Node1&#45;&gt;Node2</title>
<path fill="none" stroke="midnightblue" d="M1072.32,-315.18C1032.91,-358.41 948.53,-450.98 921.22,-480.93"/>
<polygon fill="midnightblue" stroke="midnightblue" points="1074.99,-317.46 1079.14,-307.71 1069.81,-312.74 1074.99,-317.46"/>
</g>
<!-- Node6 -->
<g id="node6" class="node">
<title>Node6</title>
<g id="a_node6"><a xlink:href="classdenoptim_1_1graph_1_1_fragment.html#a3b476687a392e637d2bf2f3b6ccb09a4" target="_top" xlink:title="Returns a deep copy of this fragments.">
<polygon fill="white" stroke="black" points="835.5,-283 835.5,-302 987.5,-302 987.5,-283 835.5,-283"/>
<text text-anchor="middle" x="911.5" y="-290" font-family="Helvetica,sans-Serif" font-size="10.00">denoptim.graph.Fragment.clone</text>
</a>
</g>
</g>
<!-- Node1&#45;&gt;Node6 -->
<g id="edge5" class="edge">
<title>Node1&#45;&gt;Node6</title>
<path fill="none" stroke="midnightblue" d="M1019.83,-292.5C1009.24,-292.5 998.32,-292.5 987.68,-292.5"/>
<polygon fill="midnightblue" stroke="midnightblue" points="1019.87,-296 1029.87,-292.5 1019.87,-289 1019.87,-296"/>
</g>
<!-- Node20 -->
<g id="node20" class="node">
<title>Node20</title>
<g id="a_node20"><a xlink:href="classdenoptim_1_1graph_1_1_template.html#ac7d7400f47d4bad33f3755f1b3d19a3e" target="_top" xlink:title="Returns a deep copy of this template.">
<polygon fill="white" stroke="black" points="836,-80 836,-99 987,-99 987,-80 836,-80"/>
<text text-anchor="middle" x="911.5" y="-87" font-family="Helvetica,sans-Serif" font-size="10.00">denoptim.graph.Template.clone</text>
</a>
</g>
</g>
<!-- Node1&#45;&gt;Node20 -->
<g id="edge22" class="edge">
<title>Node1&#45;&gt;Node20</title>
<path fill="none" stroke="midnightblue" d="M1072.66,-269.62C1033.41,-225.48 948.69,-130.2 921.26,-99.35"/>
<polygon fill="midnightblue" stroke="midnightblue" points="1070.17,-272.09 1079.43,-277.24 1075.4,-267.44 1070.17,-272.09"/>
</g>
<!-- Node3 -->
<g id="node3" class="node">
<title>Node3</title>
<g id="a_node3"><a xlink:href="classdenoptim_1_1graph_1_1_vertex_test.html#ab36c441c57e9852e2be6d810d80fbc87" target="_top" xlink:title=" ">
<polygon fill="white" stroke="black" points="620.5,-451.5 620.5,-481.5 771.5,-481.5 771.5,-451.5 620.5,-451.5"/>
<text text-anchor="start" x="628.5" y="-469.5" font-family="Helvetica,sans-Serif" font-size="10.00">denoptim.graph.VertexTest.test</text>
<text text-anchor="middle" x="696" y="-458.5" font-family="Helvetica,sans-Serif" font-size="10.00">Clone</text>
</a>
</g>
</g>
<!-- Node2&#45;&gt;Node3 -->
<g id="edge2" class="edge">
<title>Node2&#45;&gt;Node3</title>
<path fill="none" stroke="midnightblue" d="M818.63,-480.17C802.92,-478.41 786.77,-476.59 771.58,-474.88"/>
<polygon fill="midnightblue" stroke="midnightblue" points="818.54,-483.68 828.87,-481.32 819.32,-476.73 818.54,-483.68"/>
</g>
<!-- Node4 -->
<g id="node4" class="node">
<title>Node4</title>
<g id="a_node4"><a xlink:href="classdenoptim_1_1graph_1_1_attachment_point_test.html#a309f26b0bad9acff15e95672089c2432" target="_top" xlink:title=" ">
<polygon fill="white" stroke="black" points="628.5,-549.5 628.5,-579.5 763.5,-579.5 763.5,-549.5 628.5,-549.5"/>
<text text-anchor="start" x="636.5" y="-567.5" font-family="Helvetica,sans-Serif" font-size="10.00">denoptim.graph.Attachment</text>
<text text-anchor="middle" x="696" y="-556.5" font-family="Helvetica,sans-Serif" font-size="10.00">PointTest.testSameAs</text>
</a>
</g>
</g>
<!-- Node2&#45;&gt;Node4 -->
<g id="edge3" class="edge">
<title>Node2&#45;&gt;Node4</title>
<path fill="none" stroke="midnightblue" d="M881.43,-504.39C857.95,-515.23 823.85,-530.15 793,-540.5 783.39,-543.72 773.11,-546.74 762.98,-549.46"/>
<polygon fill="midnightblue" stroke="midnightblue" points="882.91,-507.56 890.5,-500.16 879.95,-501.21 882.91,-507.56"/>
</g>
<!-- Node5 -->
<g id="node5" class="node">
<title>Node5</title>
<g id="a_node5"><a xlink:href="classdenoptim_1_1graph_1_1_attachment_point_test.html#af2fc2503c300637c2369eb4347c990c1" target="_top" xlink:title=" ">
<polygon fill="white" stroke="black" points="609.5,-500.5 609.5,-530.5 782.5,-530.5 782.5,-500.5 609.5,-500.5"/>
<text text-anchor="start" x="617.5" y="-518.5" font-family="Helvetica,sans-Serif" font-size="10.00">denoptim.graph.Attachment</text>
<text text-anchor="middle" x="696" y="-507.5" font-family="Helvetica,sans-Serif" font-size="10.00">PointTest.testSameAs_DiffAPClass</text>
</a>
</g>
</g>
<!-- Node2&#45;&gt;Node5 -->
<g id="edge4" class="edge">
<title>Node2&#45;&gt;Node5</title>
<path fill="none" stroke="midnightblue" d="M819.11,-501.2C807.03,-502.62 794.69,-504.06 782.71,-505.46"/>
<polygon fill="midnightblue" stroke="midnightblue" points="819.65,-504.66 829.18,-500.02 818.84,-497.71 819.65,-504.66"/>
</g>
<!-- Node6&#45;&gt;Node3 -->
<g id="edge17" class="edge">
<title>Node6&#45;&gt;Node3</title>
<path fill="none" stroke="midnightblue" d="M901.23,-311.16C884.33,-343.21 845.33,-408.54 793,-442.5 786.52,-446.71 779.34,-450.18 771.93,-453.04"/>
<polygon fill="midnightblue" stroke="midnightblue" points="904.48,-312.5 905.94,-302.01 898.25,-309.3 904.48,-312.5"/>
</g>
<!-- Node6&#45;&gt;Node6 -->
<g id="edge6" class="edge">
<title>Node6&#45;&gt;Node6</title>
<path fill="none" stroke="midnightblue" d="M945.61,-310.39C945.11,-316.04 933.74,-320.5 911.5,-320.5 879.15,-320.5 869.8,-311.07 883.45,-302.26"/>
<polygon fill="midnightblue" stroke="midnightblue" points="948.33,-308.19 939.55,-302.26 942.72,-312.37 948.33,-308.19"/>
</g>
<!-- Node7 -->
<g id="node7" class="node">
<title>Node7</title>
<g id="a_node7"><a xlink:href="classdenoptim_1_1fragmenter_1_1_fragmenter_tools.html#aebc1d42a9a2b8aae1e5030a1ba78a0b7" target="_top" xlink:title="Chops one chemical structure by applying the given cutting rules.">
<polygon fill="white" stroke="black" points="617.5,-402.5 617.5,-432.5 774.5,-432.5 774.5,-402.5 617.5,-402.5"/>
<text text-anchor="start" x="625.5" y="-420.5" font-family="Helvetica,sans-Serif" font-size="10.00">denoptim.fragmenter.Fragmenter</text>
<text text-anchor="middle" x="696" y="-409.5" font-family="Helvetica,sans-Serif" font-size="10.00">Tools.fragmentation</text>
</a>
</g>
</g>
<!-- Node6&#45;&gt;Node7 -->
<g id="edge7" class="edge">
<title>Node6&#45;&gt;Node7</title>
<path fill="none" stroke="midnightblue" d="M895.37,-309.76C874.57,-332.41 834.92,-371.81 793,-393.5 786.36,-396.93 779.21,-399.89 771.91,-402.44"/>
<polygon fill="midnightblue" stroke="midnightblue" points="898.06,-312.01 902.15,-302.24 892.86,-307.32 898.06,-312.01"/>
</g>
<!-- Node8 -->
<g id="node8" class="node">
<title>Node8</title>
<g id="a_node8"><a xlink:href="classdenoptim_1_1fragmenter_1_1_clusterable_fragment.html#a1e02c5f6054d5764ff597bd12337345a" target="_top" xlink:title=" ">
<polygon fill="white" stroke="black" points="618,-353.5 618,-383.5 774,-383.5 774,-353.5 618,-353.5"/>
<text text-anchor="start" x="626" y="-371.5" font-family="Helvetica,sans-Serif" font-size="10.00">denoptim.fragmenter.Clusterable</text>
<text text-anchor="middle" x="696" y="-360.5" font-family="Helvetica,sans-Serif" font-size="10.00">Fragment.getTransformedCopy</text>
</a>
</g>
</g>
<!-- Node6&#45;&gt;Node8 -->
<g id="edge8" class="edge">
<title>Node6&#45;&gt;Node8</title>
<path fill="none" stroke="midnightblue" d="M882.33,-306.61C858.87,-317.96 824.34,-333.74 793,-344.5 783.58,-347.74 773.49,-350.74 763.54,-353.45"/>
<polygon fill="midnightblue" stroke="midnightblue" points="883.92,-309.73 891.37,-302.19 880.85,-303.44 883.92,-309.73"/>
</g>
<!-- Node15 -->
<g id="node15" class="node">
<title>Node15</title>
<g id="a_node15"><a xlink:href="classdenoptim_1_1graph_1_1_fragment_test.html#a0a98792d99861bb6673e66a76ff49d31" target="_top" xlink:title=" ">
<polygon fill="white" stroke="black" points="614,-304.5 614,-334.5 778,-334.5 778,-304.5 614,-304.5"/>
<text text-anchor="start" x="622" y="-322.5" font-family="Helvetica,sans-Serif" font-size="10.00">denoptim.graph.FragmentTest.test</text>
<text text-anchor="middle" x="696" y="-311.5" font-family="Helvetica,sans-Serif" font-size="10.00">Clone</text>
</a>
</g>
</g>
<!-- Node6&#45;&gt;Node15 -->
<g id="edge16" class="edge">
<title>Node6&#45;&gt;Node15</title>
<path fill="none" stroke="midnightblue" d="M825.14,-303.29C809.63,-305.26 793.5,-307.3 778.12,-309.24"/>
<polygon fill="midnightblue" stroke="midnightblue" points="825.75,-306.75 835.23,-302.02 824.87,-299.8 825.75,-306.75"/>
</g>
<!-- Node16 -->
<g id="node16" class="node">
<title>Node16</title>
<g id="a_node16"><a xlink:href="classdenoptim_1_1fragmenter_1_1_conformer_extractor_task_test.html#a2dc64f375774087fc0b4511384f50bc9" target="_top" xlink:title=" ">
<polygon fill="white" stroke="black" points="599,-245 599,-286 793,-286 793,-245 599,-245"/>
<text text-anchor="start" x="607" y="-274" font-family="Helvetica,sans-Serif" font-size="10.00">denoptim.fragmenter.Conformer</text>
<text text-anchor="start" x="607" y="-263" font-family="Helvetica,sans-Serif" font-size="10.00">ExtractorTaskTest.testExtractClusterable</text>
<text text-anchor="middle" x="696" y="-252" font-family="Helvetica,sans-Serif" font-size="10.00">Fragments</text>
</a>
</g>
</g>
<!-- Node6&#45;&gt;Node16 -->
<g id="edge18" class="edge">
<title>Node6&#45;&gt;Node16</title>
<path fill="none" stroke="midnightblue" d="M825.25,-281.72C814.74,-280.39 803.94,-279.02 793.28,-277.68"/>
<polygon fill="midnightblue" stroke="midnightblue" points="824.87,-285.2 835.23,-282.98 825.75,-278.25 824.87,-285.2"/>
</g>
<!-- Node17 -->
<g id="node17" class="node">
<title>Node17</title>
<g id="a_node17"><a xlink:href="classdenoptim_1_1fragmenter_1_1_fragment_alignement_test.html#ad46b9a4324bb5b9bbfc08c73de0e1124" target="_top" xlink:title=" ">
<polygon fill="white" stroke="black" points="602,-196.5 602,-226.5 790,-226.5 790,-196.5 602,-196.5"/>
<text text-anchor="start" x="610" y="-214.5" font-family="Helvetica,sans-Serif" font-size="10.00">denoptim.fragmenter.Fragment</text>
<text text-anchor="middle" x="696" y="-203.5" font-family="Helvetica,sans-Serif" font-size="10.00">AlignementTest.testGetMinimumRMSD</text>
</a>
</g>
</g>
<!-- Node6&#45;&gt;Node17 -->
<g id="edge19" class="edge">
<title>Node6&#45;&gt;Node17</title>
<path fill="none" stroke="midnightblue" d="M884.55,-277.98C861.18,-265.37 825.59,-247.33 793,-235.5 783.96,-232.22 774.28,-229.22 764.67,-226.54"/>
<polygon fill="midnightblue" stroke="midnightblue" points="883.02,-281.13 893.47,-282.85 886.37,-274.98 883.02,-281.13"/>
</g>
<!-- Node18 -->
<g id="node18" class="node">
<title>Node18</title>
<g id="a_node18"><a xlink:href="classdenoptim_1_1graph_1_1_attachment_point_test.html#af88d30ce68477984fe6179325d1540b2" target="_top" xlink:title=" ">
<polygon fill="white" stroke="black" points="606,-98.5 606,-128.5 786,-128.5 786,-98.5 606,-98.5"/>
<text text-anchor="start" x="614" y="-116.5" font-family="Helvetica,sans-Serif" font-size="10.00">denoptim.graph.Attachment</text>
<text text-anchor="middle" x="696" y="-105.5" font-family="Helvetica,sans-Serif" font-size="10.00">PointTest.testHasConnectedSrcAtom</text>
</a>
</g>
</g>
<!-- Node6&#45;&gt;Node18 -->
<g id="edge20" class="edge">
<title>Node6&#45;&gt;Node18</title>
<path fill="none" stroke="midnightblue" d="M901.62,-273.65C885.09,-240.68 846.37,-172.74 793,-137.5 787.84,-134.09 782.23,-131.17 776.4,-128.66"/>
<polygon fill="midnightblue" stroke="midnightblue" points="898.5,-275.23 906.03,-282.68 904.79,-272.16 898.5,-275.23"/>
</g>
<!-- Node19 -->
<g id="node19" class="node">
<title>Node19</title>
<g id="a_node19"><a xlink:href="classdenoptim_1_1graph_1_1_attachment_point_test.html#a4889032266eb87d0f91af8b4e9869360" target="_top" xlink:title=" ">
<polygon fill="white" stroke="black" points="616.5,-147.5 616.5,-177.5 775.5,-177.5 775.5,-147.5 616.5,-147.5"/>
<text text-anchor="start" x="624.5" y="-165.5" font-family="Helvetica,sans-Serif" font-size="10.00">denoptim.graph.Attachment</text>
<text text-anchor="middle" x="696" y="-154.5" font-family="Helvetica,sans-Serif" font-size="10.00">PointTest.testHasSameSrcAtom</text>
</a>
</g>
</g>
<!-- Node6&#45;&gt;Node19 -->
<g id="edge21" class="edge">
<title>Node6&#45;&gt;Node19</title>
<path fill="none" stroke="midnightblue" d="M896.18,-275.07C875.76,-251.39 835.97,-209.39 793,-186.5 786.56,-183.07 779.61,-180.11 772.49,-177.57"/>
<polygon fill="midnightblue" stroke="midnightblue" points="893.67,-277.52 902.8,-282.9 899.01,-273 893.67,-277.52"/>
</g>
<!-- Node9 -->
<g id="node9" class="node">
<title>Node9</title>
<g id="a_node9"><a xlink:href="classdenoptim_1_1fragmenter_1_1_fragment_clusterer.html#a1845241fead0bee7fd92feaf6d71e331" target="_top" xlink:title="Once the clustering is done, this method return the list of cluster centroids.">
<polygon fill="white" stroke="black" points="394,-353.5 394,-383.5 543,-383.5 543,-353.5 394,-353.5"/>
<text text-anchor="start" x="402" y="-371.5" font-family="Helvetica,sans-Serif" font-size="10.00">denoptim.fragmenter.Fragment</text>
<text text-anchor="middle" x="468.5" y="-360.5" font-family="Helvetica,sans-Serif" font-size="10.00">Clusterer.getClusterCentroids</text>
</a>
</g>
</g>
<!-- Node8&#45;&gt;Node9 -->
<g id="edge9" class="edge">
<title>Node8&#45;&gt;Node9</title>
<path fill="none" stroke="midnightblue" d="M607.71,-368.5C586.42,-368.5 563.85,-368.5 543.26,-368.5"/>
<polygon fill="midnightblue" stroke="midnightblue" points="607.71,-372 617.71,-368.5 607.71,-365 607.71,-372"/>
</g>
<!-- Node13 -->
<g id="node13" class="node">
<title>Node13</title>
<g id="a_node13"><a xlink:href="classdenoptim_1_1fragmenter_1_1_fragment_clusterer.html#aae37739ae959ab8a85bf01286c5a518e" target="_top" xlink:title="Once the clustering is done, this method return the list of fragments that are nearest to the respect...">
<polygon fill="white" stroke="black" points="374,-402.5 374,-432.5 563,-432.5 563,-402.5 374,-402.5"/>
<text text-anchor="start" x="382" y="-420.5" font-family="Helvetica,sans-Serif" font-size="10.00">denoptim.fragmenter.Fragment</text>
<text text-anchor="middle" x="468.5" y="-409.5" font-family="Helvetica,sans-Serif" font-size="10.00">Clusterer.getNearestToClusterCentroids</text>
</a>
</g>
</g>
<!-- Node8&#45;&gt;Node13 -->
<g id="edge13" class="edge">
<title>Node8&#45;&gt;Node13</title>
<path fill="none" stroke="midnightblue" d="M615.91,-385.69C590.7,-391.16 563.01,-397.18 538.56,-402.49"/>
<polygon fill="midnightblue" stroke="midnightblue" points="616.78,-389.08 625.81,-383.53 615.29,-382.24 616.78,-389.08"/>
</g>
<!-- Node14 -->
<g id="node14" class="node">
<title>Node14</title>
<g id="a_node14"><a xlink:href="classdenoptim_1_1fragmenter_1_1_clusterable_fragment_test.html#a30be40702849bf4781129bf3dabf88e8" target="_top" xlink:title=" ">
<polygon fill="white" stroke="black" points="374.5,-304.5 374.5,-334.5 562.5,-334.5 562.5,-304.5 374.5,-304.5"/>
<text text-anchor="start" x="382.5" y="-322.5" font-family="Helvetica,sans-Serif" font-size="10.00">denoptim.fragmenter.Clusterable</text>
<text text-anchor="middle" x="468.5" y="-311.5" font-family="Helvetica,sans-Serif" font-size="10.00">FragmentTest.testGetTransformedCopy</text>
</a>
</g>
</g>
<!-- Node8&#45;&gt;Node14 -->
<g id="edge15" class="edge">
<title>Node8&#45;&gt;Node14</title>
<path fill="none" stroke="midnightblue" d="M615.91,-351.31C590.7,-345.84 563.01,-339.82 538.56,-334.51"/>
<polygon fill="midnightblue" stroke="midnightblue" points="615.29,-354.76 625.81,-353.47 616.78,-347.92 615.29,-354.76"/>
</g>
<!-- Node10 -->
<g id="node10" class="node">
<title>Node10</title>
<g id="a_node10"><a xlink:href="classdenoptim_1_1fragmenter_1_1_conformer_extractor_task.html#aa21ebdf147f5bdb2685f9e775efd0b10" target="_top" xlink:title=" ">
<polygon fill="white" stroke="black" points="186,-402.5 186,-432.5 338,-432.5 338,-402.5 186,-402.5"/>
<text text-anchor="start" x="194" y="-420.5" font-family="Helvetica,sans-Serif" font-size="10.00">denoptim.fragmenter.Conformer</text>
<text text-anchor="middle" x="262" y="-409.5" font-family="Helvetica,sans-Serif" font-size="10.00">ExtractorTask.call</text>
</a>
</g>
</g>
<!-- Node9&#45;&gt;Node10 -->
<g id="edge10" class="edge">
<title>Node9&#45;&gt;Node10</title>
<path fill="none" stroke="midnightblue" d="M394.87,-385.9C372.24,-391.32 347.5,-397.25 325.63,-402.49"/>
<polygon fill="midnightblue" stroke="midnightblue" points="395.84,-389.27 404.75,-383.53 394.21,-382.46 395.84,-389.27"/>
</g>
<!-- Node12 -->
<g id="node12" class="node">
<title>Node12</title>
<g id="a_node12"><a xlink:href="classdenoptim_1_1fragmenter_1_1_fragment_clusterer_test.html#aa17925160f3f03080e8680c7016fc1c4" target="_top" xlink:title=" ">
<polygon fill="white" stroke="black" points="187.5,-353.5 187.5,-383.5 336.5,-383.5 336.5,-353.5 187.5,-353.5"/>
<text text-anchor="start" x="195.5" y="-371.5" font-family="Helvetica,sans-Serif" font-size="10.00">denoptim.fragmenter.Fragment</text>
<text text-anchor="middle" x="262" y="-360.5" font-family="Helvetica,sans-Serif" font-size="10.00">ClustererTest.testCluster</text>
</a>
</g>
</g>
<!-- Node9&#45;&gt;Node12 -->
<g id="edge12" class="edge">
<title>Node9&#45;&gt;Node12</title>
<path fill="none" stroke="midnightblue" d="M383.78,-368.5C368.13,-368.5 351.89,-368.5 336.57,-368.5"/>
<polygon fill="midnightblue" stroke="midnightblue" points="383.96,-372 393.96,-368.5 383.96,-365 383.96,-372"/>
</g>
<!-- Node11 -->
<g id="node11" class="node">
<title>Node11</title>
<g id="a_node11"><a xlink:href="classdenoptim_1_1programs_1_1fragmenter_1_1_fragmenter.html#aa27df9705e3aed34cc8cb8bc05e6ce85" target="_top" xlink:title=" ">
<polygon fill="white" stroke="black" points="0,-402.5 0,-432.5 150,-432.5 150,-402.5 0,-402.5"/>
<text text-anchor="start" x="8" y="-420.5" font-family="Helvetica,sans-Serif" font-size="10.00">denoptim.programs.fragmenter.</text>
<text text-anchor="middle" x="75" y="-409.5" font-family="Helvetica,sans-Serif" font-size="10.00">Fragmenter.runProgram</text>
</a>
</g>
</g>
<!-- Node10&#45;&gt;Node11 -->
<g id="edge11" class="edge">
<title>Node10&#45;&gt;Node11</title>
<path fill="none" stroke="midnightblue" d="M175.53,-417.5C167.1,-417.5 158.59,-417.5 150.28,-417.5"/>
<polygon fill="midnightblue" stroke="midnightblue" points="175.75,-421 185.75,-417.5 175.75,-414 175.75,-421"/>
</g>
<!-- Node13&#45;&gt;Node10 -->
<g id="edge14" class="edge">
<title>Node13&#45;&gt;Node10</title>
<path fill="none" stroke="midnightblue" d="M363.79,-417.5C355.14,-417.5 346.51,-417.5 338.14,-417.5"/>
<polygon fill="midnightblue" stroke="midnightblue" points="363.93,-421 373.93,-417.5 363.93,-414 363.93,-421"/>
</g>
<!-- Node20&#45;&gt;Node18 -->
<g id="edge25" class="edge">
<title>Node20&#45;&gt;Node18</title>
<path fill="none" stroke="midnightblue" d="M825.58,-99.05C812.67,-100.5 799.31,-102 786.3,-103.46"/>
<polygon fill="midnightblue" stroke="midnightblue" points="826.28,-102.49 835.83,-97.89 825.5,-95.53 826.28,-102.49"/>
</g>
<!-- Node20&#45;&gt;Node20 -->
<g id="edge23" class="edge">
<title>Node20&#45;&gt;Node20</title>
<path fill="none" stroke="midnightblue" d="M945.61,-107.39C945.11,-113.04 933.74,-117.5 911.5,-117.5 879.15,-117.5 869.8,-108.07 883.45,-99.26"/>
<polygon fill="midnightblue" stroke="midnightblue" points="948.33,-105.19 939.55,-99.26 942.72,-109.37 948.33,-105.19"/>
</g>
<!-- Node21 -->
<g id="node21" class="node">
<title>Node21</title>
<g id="a_node21"><a xlink:href="classdenoptim_1_1graph_1_1_template_test.html#a72d37b4c24ad896838401b319b1d667e" target="_top" xlink:title=" ">
<polygon fill="white" stroke="black" points="614,-49.5 614,-79.5 778,-79.5 778,-49.5 614,-49.5"/>
<text text-anchor="start" x="622" y="-67.5" font-family="Helvetica,sans-Serif" font-size="10.00">denoptim.graph.TemplateTest.test</text>
<text text-anchor="middle" x="696" y="-56.5" font-family="Helvetica,sans-Serif" font-size="10.00">Clone</text>
</a>
</g>
</g>
<!-- Node20&#45;&gt;Node21 -->
<g id="edge24" class="edge">
<title>Node20&#45;&gt;Node21</title>
<path fill="none" stroke="midnightblue" d="M825.66,-79.57C810.01,-77.73 793.71,-75.82 778.18,-74.01"/>
<polygon fill="midnightblue" stroke="midnightblue" points="825.49,-83.07 835.83,-80.76 826.3,-76.12 825.49,-83.07"/>
</g>
<!-- Node22 -->
<g id="node22" class="node">
<title>Node22</title>
<g id="a_node22"><a xlink:href="classdenoptim_1_1graph_1_1_template_test.html#a50688358b5a557ee51683082427bdc14" target="_top" xlink:title=" ">
<polygon fill="white" stroke="black" points="614,-0.5 614,-30.5 778,-30.5 778,-0.5 614,-0.5"/>
<text text-anchor="start" x="622" y="-18.5" font-family="Helvetica,sans-Serif" font-size="10.00">denoptim.graph.TemplateTest.test</text>
<text text-anchor="middle" x="696" y="-7.5" font-family="Helvetica,sans-Serif" font-size="10.00">NestedTemplateCloning</text>
</a>
</g>
</g>
<!-- Node20&#45;&gt;Node22 -->
<g id="edge26" class="edge">
<title>Node20&#45;&gt;Node22</title>
<path fill="none" stroke="midnightblue" d="M881.43,-75.61C857.95,-64.77 823.85,-49.85 793,-39.5 783.39,-36.28 773.11,-33.26 762.98,-30.54"/>
<polygon fill="midnightblue" stroke="midnightblue" points="879.95,-78.79 890.5,-79.84 882.91,-72.44 879.95,-78.79"/>
</g>
</g>
</svg>
