<?xml version="1.0" encoding="UTF-8" standalone="no"?>
<!DOCTYPE svg PUBLIC "-//W3C//DTD SVG 1.1//EN"
 "http://www.w3.org/Graphics/SVG/1.1/DTD/svg11.dtd">
<!-- Generated by graphviz version 3.0.0 (20220413.0242)
 -->
<!-- Title: denoptim.fragspace.FragmentSpace.FragmentSpace Pages: 1 -->
<!--zoomable 813 -->
<svg id="main" version="1.1" xmlns="http://www.w3.org/2000/svg" xmlns:xlink="http://www.w3.org/1999/xlink" xml:space="preserve" onload="init(evt)">
<style type="text/css"><![CDATA[
.edge:hover path { stroke: red; }
.edge:hover polygon { stroke: red; fill: red; }
]]></style>
<script type="text/javascript"><![CDATA[
var edges = document.getElementsByTagName('g');
if (edges && edges.length) {
  for (var i=0;i<edges.length;i++) {
    if (edges[i].id.substr(0,4)=='edge') {
      edges[i].setAttribute('class','edge');
    }
  }
}
]]></script>
        <defs>
                <circle id="rim" cx="0" cy="0" r="7"/>
                <circle id="rim2" cx="0" cy="0" r="3.5"/>
                <g id="zoomPlus">
                        <use xlink:href="#rim" fill="#404040">
                                <set attributeName="fill" to="#808080" begin="zoomplus.mouseover" end="zoomplus.mouseout"/>
                        </use>
                        <path d="M-4,0h8M0,-4v8" fill="none" stroke="white" stroke-width="1.5" pointer-events="none"/>
                </g>
                <g id="zoomMin">
                        <use xlink:href="#rim" fill="#404040">
                                <set attributeName="fill" to="#808080" begin="zoomminus.mouseover" end="zoomminus.mouseout"/>
                        </use>
                        <path d="M-4,0h8" fill="none" stroke="white" stroke-width="1.5" pointer-events="none"/>
                </g>
                <g id="dirArrow">
                        <path fill="none" stroke="white" stroke-width="1.5" d="M0,-3.0v7 M-2.5,-0.5L0,-3.0L2.5,-0.5"/>
                </g>
               <g id="resetDef">
                       <use xlink:href="#rim2" fill="#404040">
                               <set attributeName="fill" to="#808080" begin="reset.mouseover" end="reset.mouseout"/>
                       </use>
               </g>
        </defs>

<script type="text/javascript">
var viewWidth = 1124;
var viewHeight = 813;
var sectionId = 'dynsection-2';
</script>
<script xlink:href="svgpan.js"/>
<svg id="graph" class="graph">
<g id="viewport">
<title>denoptim.fragspace.FragmentSpace.FragmentSpace</title>
<polygon fill="white" stroke="transparent" points="-4,4 -4,-809 1120,-809 1120,4 -4,4"/>
<!-- Node1 -->
<g id="node1" class="node">
<title>Node1</title>
<g id="a_node1"><a xlink:title="Define all components of a fragment space that implements the attachment point class&#45;approach.">
<polygon fill="#bfbfbf" stroke="black" points="0,-220.5 0,-250.5 145,-250.5 145,-220.5 0,-220.5"/>
<text text-anchor="start" x="8" y="-238.5" font-family="Helvetica,sans-Serif" font-size="10.00">denoptim.fragspace.Fragment</text>
<text text-anchor="middle" x="72.5" y="-227.5" font-family="Helvetica,sans-Serif" font-size="10.00">Space.FragmentSpace</text>
</a>
</g>
</g>
<!-- Node2 -->
<g id="node2" class="node">
<title>Node2</title>
<g id="a_node2"><a xlink:href="classdenoptim_1_1fragspace_1_1_fragment_space.html#a4792b534137a7989aab4ab2237d12438" target="_top" xlink:title="Define all components of this fragment space.">
<polygon fill="white" stroke="black" points="181,-220.5 181,-250.5 326,-250.5 326,-220.5 181,-220.5"/>
<text text-anchor="start" x="189" y="-238.5" font-family="Helvetica,sans-Serif" font-size="10.00">denoptim.fragspace.Fragment</text>
<text text-anchor="middle" x="253.5" y="-227.5" font-family="Helvetica,sans-Serif" font-size="10.00">Space.define</text>
</a>
</g>
</g>
<!-- Node1&#45;&gt;Node2 -->
<g id="edge1" class="edge">
<title>Node1&#45;&gt;Node2</title>
<path fill="none" stroke="midnightblue" d="M145.02,-235.5C153.49,-235.5 162.18,-235.5 170.78,-235.5"/>
<polygon fill="midnightblue" stroke="midnightblue" points="170.8,-239 180.8,-235.5 170.8,-232 170.8,-239"/>
</g>
<!-- Node3 -->
<g id="node3" class="node">
<title>Node3</title>
<g id="a_node3"><a xlink:href="classdenoptim_1_1fragspace_1_1_fragment_space.html#a500eaadf61dbb4a0d9c1105f907212c7" target="_top" xlink:title="Performs grouping and classification operations on the library of building blocks of BBType#FRAGMENT.">
<polygon fill="white" stroke="black" points="367,-441.5 367,-471.5 536,-471.5 536,-441.5 367,-441.5"/>
<text text-anchor="start" x="375" y="-459.5" font-family="Helvetica,sans-Serif" font-size="10.00">denoptim.fragspace.Fragment</text>
<text text-anchor="middle" x="451.5" y="-448.5" font-family="Helvetica,sans-Serif" font-size="10.00">Space.groupAndClassifyFragments</text>
</a>
</g>
</g>
<!-- Node2&#45;&gt;Node3 -->
<g id="edge2" class="edge">
<title>Node2&#45;&gt;Node3</title>
<path fill="none" stroke="midnightblue" d="M258.36,-250.76C268.54,-287.87 299.76,-383.38 362,-432.5 363.78,-433.9 365.63,-435.22 367.54,-436.47"/>
<polygon fill="midnightblue" stroke="midnightblue" points="365.87,-439.54 376.29,-441.44 369.33,-433.45 365.87,-439.54"/>
</g>
<!-- Node20 -->
<g id="node20" class="node">
<title>Node20</title>
<g id="a_node20"><a xlink:href="classdenoptim_1_1fragspace_1_1_fragment_space.html#abbd24a68393f1849c2d742f944c1c348" target="_top" xlink:title=" ">
<polygon fill="white" stroke="black" points="379,-392.5 379,-422.5 524,-422.5 524,-392.5 379,-392.5"/>
<text text-anchor="start" x="387" y="-410.5" font-family="Helvetica,sans-Serif" font-size="10.00">denoptim.fragspace.Fragment</text>
<text text-anchor="middle" x="451.5" y="-399.5" font-family="Helvetica,sans-Serif" font-size="10.00">Space.setCappingLibrary</text>
</a>
</g>
</g>
<!-- Node2&#45;&gt;Node20 -->
<g id="edge21" class="edge">
<title>Node2&#45;&gt;Node20</title>
<path fill="none" stroke="midnightblue" d="M261.22,-250.72C275.33,-280.87 311.02,-348.34 362,-383.5 364.4,-385.15 366.9,-386.69 369.49,-388.12"/>
<polygon fill="midnightblue" stroke="midnightblue" points="368.04,-391.31 378.55,-392.6 371.14,-385.03 368.04,-391.31"/>
</g>
<!-- Node25 -->
<g id="node25" class="node">
<title>Node25</title>
<g id="a_node25"><a xlink:href="classdenoptim_1_1fragspace_1_1_fragment_space.html#a8d1502cdc46db8fe67ddc594ae1cb180" target="_top" xlink:title=" ">
<polygon fill="white" stroke="black" points="379,-343.5 379,-373.5 524,-373.5 524,-343.5 379,-343.5"/>
<text text-anchor="start" x="387" y="-361.5" font-family="Helvetica,sans-Serif" font-size="10.00">denoptim.fragspace.Fragment</text>
<text text-anchor="middle" x="451.5" y="-350.5" font-family="Helvetica,sans-Serif" font-size="10.00">Space.setCappingMap</text>
</a>
</g>
</g>
<!-- Node2&#45;&gt;Node25 -->
<g id="edge26" class="edge">
<title>Node2&#45;&gt;Node25</title>
<path fill="none" stroke="midnightblue" d="M266.73,-250.66C285.12,-272.45 322.02,-312.42 362,-334.5 365.26,-336.3 368.66,-337.97 372.15,-339.52"/>
<polygon fill="midnightblue" stroke="midnightblue" points="370.98,-342.82 381.56,-343.35 373.62,-336.34 370.98,-342.82"/>
</g>
<!-- Node26 -->
<g id="node26" class="node">
<title>Node26</title>
<g id="a_node26"><a xlink:href="classdenoptim_1_1fragspace_1_1_fragment_space.html#a2f5afb31f605b8d3b6908ac2c7683545" target="_top" xlink:title=" ">
<polygon fill="white" stroke="black" points="379,-294.5 379,-324.5 524,-324.5 524,-294.5 379,-294.5"/>
<text text-anchor="start" x="387" y="-312.5" font-family="Helvetica,sans-Serif" font-size="10.00">denoptim.fragspace.Fragment</text>
<text text-anchor="middle" x="451.5" y="-301.5" font-family="Helvetica,sans-Serif" font-size="10.00">Space.setCompatibilityMatrix</text>
</a>
</g>
</g>
<!-- Node2&#45;&gt;Node26 -->
<g id="edge27" class="edge">
<title>Node2&#45;&gt;Node26</title>
<path fill="none" stroke="midnightblue" d="M283.59,-250.68C304.9,-261.39 334.74,-275.55 362,-285.5 367.79,-287.61 373.85,-289.64 379.97,-291.55"/>
<polygon fill="midnightblue" stroke="midnightblue" points="379.02,-294.92 389.61,-294.46 381.05,-288.22 379.02,-294.92"/>
</g>
<!-- Node27 -->
<g id="node27" class="node">
<title>Node27</title>
<g id="a_node27"><a xlink:href="classdenoptim_1_1fragspace_1_1_fragment_space.html#a5d0471e0761aebff87d894c0bf39ecd7" target="_top" xlink:title=" ">
<polygon fill="white" stroke="black" points="379,-245.5 379,-275.5 524,-275.5 524,-245.5 379,-245.5"/>
<text text-anchor="start" x="387" y="-263.5" font-family="Helvetica,sans-Serif" font-size="10.00">denoptim.fragspace.Fragment</text>
<text text-anchor="middle" x="451.5" y="-252.5" font-family="Helvetica,sans-Serif" font-size="10.00">Space.setForbiddenEndList</text>
</a>
</g>
</g>
<!-- Node2&#45;&gt;Node27 -->
<g id="edge28" class="edge">
<title>Node2&#45;&gt;Node27</title>
<path fill="none" stroke="midnightblue" d="M326.09,-244.63C339.91,-246.39 354.48,-248.25 368.59,-250.05"/>
<polygon fill="midnightblue" stroke="midnightblue" points="368.41,-253.56 378.77,-251.35 369.3,-246.61 368.41,-253.56"/>
</g>
<!-- Node28 -->
<g id="node28" class="node">
<title>Node28</title>
<g id="a_node28"><a xlink:href="classdenoptim_1_1fragspace_1_1_fragment_space.html#a5f1ddd58bd4295a9d9d0cf867f3f6914" target="_top" xlink:title=" ">
<polygon fill="white" stroke="black" points="379,-196.5 379,-226.5 524,-226.5 524,-196.5 379,-196.5"/>
<text text-anchor="start" x="387" y="-214.5" font-family="Helvetica,sans-Serif" font-size="10.00">denoptim.fragspace.Fragment</text>
<text text-anchor="middle" x="451.5" y="-203.5" font-family="Helvetica,sans-Serif" font-size="10.00">Space.setFragmentLibrary</text>
</a>
</g>
</g>
<!-- Node2&#45;&gt;Node28 -->
<g id="edge29" class="edge">
<title>Node2&#45;&gt;Node28</title>
<path fill="none" stroke="midnightblue" d="M326.09,-226.73C339.91,-225.04 354.48,-223.26 368.59,-221.53"/>
<polygon fill="midnightblue" stroke="midnightblue" points="369.27,-224.97 378.77,-220.28 368.42,-218.02 369.27,-224.97"/>
</g>
<!-- Node29 -->
<g id="node29" class="node">
<title>Node29</title>
<g id="a_node29"><a xlink:href="classdenoptim_1_1fragspace_1_1_fragment_space_parameters.html#af140278c28ecf4c380d2b93d03ffbb41" target="_top" xlink:title="Sets the fragment space linked to these parameters.">
<polygon fill="white" stroke="black" points="362,-147.5 362,-177.5 541,-177.5 541,-147.5 362,-147.5"/>
<text text-anchor="start" x="370" y="-165.5" font-family="Helvetica,sans-Serif" font-size="10.00">denoptim.fragspace.Fragment</text>
<text text-anchor="middle" x="451.5" y="-154.5" font-family="Helvetica,sans-Serif" font-size="10.00">SpaceParameters.setFragmentSpace</text>
</a>
</g>
</g>
<!-- Node2&#45;&gt;Node29 -->
<g id="edge31" class="edge">
<title>Node2&#45;&gt;Node29</title>
<path fill="none" stroke="midnightblue" d="M285.06,-220.43C306.31,-210.31 335.48,-197.11 362,-187.5 368.71,-185.07 375.77,-182.73 382.86,-180.51"/>
<polygon fill="midnightblue" stroke="midnightblue" points="383.96,-183.84 392.51,-177.58 381.93,-177.14 383.96,-183.84"/>
</g>
<!-- Node30 -->
<g id="node30" class="node">
<title>Node30</title>
<g id="a_node30"><a xlink:href="classdenoptim_1_1fragspace_1_1_fragment_space.html#ae9f3a26c3e08408196f58254b6cd6a2e" target="_top" xlink:title=" ">
<polygon fill="white" stroke="black" points="374,-98.5 374,-128.5 529,-128.5 529,-98.5 374,-98.5"/>
<text text-anchor="start" x="382" y="-116.5" font-family="Helvetica,sans-Serif" font-size="10.00">denoptim.fragspace.Fragment</text>
<text text-anchor="middle" x="451.5" y="-105.5" font-family="Helvetica,sans-Serif" font-size="10.00">Space.setRCCompatibilityMatrix</text>
</a>
</g>
</g>
<!-- Node2&#45;&gt;Node30 -->
<g id="edge32" class="edge">
<title>Node2&#45;&gt;Node30</title>
<path fill="none" stroke="midnightblue" d="M267.07,-220.14C285.6,-198.5 322.37,-159.25 362,-137.5 365.43,-135.61 369.03,-133.87 372.71,-132.26"/>
<polygon fill="midnightblue" stroke="midnightblue" points="374.07,-135.49 382.04,-128.51 371.46,-128.99 374.07,-135.49"/>
</g>
<!-- Node31 -->
<g id="node31" class="node">
<title>Node31</title>
<g id="a_node31"><a xlink:href="classdenoptim_1_1fragspace_1_1_fragment_space.html#a26482f3889e4ad9b334784687df2fa18" target="_top" xlink:title=" ">
<polygon fill="white" stroke="black" points="379,-49.5 379,-79.5 524,-79.5 524,-49.5 379,-49.5"/>
<text text-anchor="start" x="387" y="-67.5" font-family="Helvetica,sans-Serif" font-size="10.00">denoptim.fragspace.Fragment</text>
<text text-anchor="middle" x="451.5" y="-56.5" font-family="Helvetica,sans-Serif" font-size="10.00">Space.setScaffoldLibrary</text>
</a>
</g>
</g>
<!-- Node2&#45;&gt;Node31 -->
<g id="edge33" class="edge">
<title>Node2&#45;&gt;Node31</title>
<path fill="none" stroke="midnightblue" d="M261.25,-220.39C275.41,-190.43 311.19,-123.42 362,-88.5 364.4,-86.85 366.91,-85.32 369.49,-83.89"/>
<polygon fill="midnightblue" stroke="midnightblue" points="371.14,-86.98 378.57,-79.42 368.05,-80.7 371.14,-86.98"/>
</g>
<!-- Node32 -->
<g id="node32" class="node">
<title>Node32</title>
<g id="a_node32"><a xlink:href="classdenoptim_1_1fragspace_1_1_fragment_space.html#ae0caec2ab73dfa1b2772b23b7266f846" target="_top" xlink:title=" ">
<polygon fill="white" stroke="black" points="379,-0.5 379,-30.5 524,-30.5 524,-0.5 379,-0.5"/>
<text text-anchor="start" x="387" y="-18.5" font-family="Helvetica,sans-Serif" font-size="10.00">denoptim.fragspace.Fragment</text>
<text text-anchor="middle" x="451.5" y="-7.5" font-family="Helvetica,sans-Serif" font-size="10.00">Space.setSymmConstraints</text>
</a>
</g>
</g>
<!-- Node2&#45;&gt;Node32 -->
<g id="edge35" class="edge">
<title>Node2&#45;&gt;Node32</title>
<path fill="none" stroke="midnightblue" d="M258.38,-220.32C268.62,-183.39 299.95,-88.36 362,-39.5 364.48,-37.54 367.12,-35.75 369.86,-34.1"/>
<polygon fill="midnightblue" stroke="midnightblue" points="371.72,-37.07 378.93,-29.31 368.46,-30.88 371.72,-37.07"/>
</g>
<!-- Node4 -->
<g id="node4" class="node">
<title>Node4</title>
<g id="a_node4"><a xlink:href="classdenoptim_1_1fragspace_1_1_fragment_space.html#a13df4c55db0679bb62fb833a91ef38b2" target="_top" xlink:title="Classify a fragment in terms of the number of APs and possibly their type (AP&#45;Class).">
<polygon fill="white" stroke="black" points="582,-539.5 582,-569.5 727,-569.5 727,-539.5 582,-539.5"/>
<text text-anchor="start" x="590" y="-557.5" font-family="Helvetica,sans-Serif" font-size="10.00">denoptim.fragspace.Fragment</text>
<text text-anchor="middle" x="654.5" y="-546.5" font-family="Helvetica,sans-Serif" font-size="10.00">Space.classifyFragment</text>
</a>
</g>
</g>
<!-- Node3&#45;&gt;Node4 -->
<g id="edge3" class="edge">
<title>Node3&#45;&gt;Node4</title>
<path fill="none" stroke="midnightblue" d="M474.59,-471.79C498.84,-488.04 539.35,-513.68 577,-530.5 581.3,-532.42 585.8,-534.25 590.37,-535.99"/>
<polygon fill="midnightblue" stroke="midnightblue" points="589.23,-539.3 599.82,-539.41 591.61,-532.71 589.23,-539.3"/>
</g>
<!-- Node16 -->
<g id="node16" class="node">
<title>Node16</title>
<g id="a_node16"><a xlink:href="classdenoptim_1_1fragspace_1_1_fragment_space.html#aed02226a5695be948ae2c33e787e22c3" target="_top" xlink:title=" ">
<polygon fill="white" stroke="black" points="582,-490.5 582,-520.5 727,-520.5 727,-490.5 582,-490.5"/>
<text text-anchor="start" x="590" y="-508.5" font-family="Helvetica,sans-Serif" font-size="10.00">denoptim.fragspace.Fragment</text>
<text text-anchor="middle" x="654.5" y="-497.5" font-family="Helvetica,sans-Serif" font-size="10.00">Space.getFragmentLibrary</text>
</a>
</g>
</g>
<!-- Node3&#45;&gt;Node16 -->
<g id="edge17" class="edge">
<title>Node3&#45;&gt;Node16</title>
<path fill="none" stroke="midnightblue" d="M514.17,-471.53C535.59,-476.76 559.78,-482.65 581.93,-488.05"/>
<polygon fill="midnightblue" stroke="midnightblue" points="581.4,-491.53 591.94,-490.49 583.06,-484.72 581.4,-491.53"/>
</g>
<!-- Node17 -->
<g id="node17" class="node">
<title>Node17</title>
<g id="a_node17"><a xlink:href="classdenoptim_1_1fragspace_1_1_fragment_space.html#a884b6bce64f9eebd532ac0a6d1142322" target="_top" xlink:title=" ">
<polygon fill="white" stroke="black" points="582,-441.5 582,-471.5 727,-471.5 727,-441.5 582,-441.5"/>
<text text-anchor="start" x="590" y="-459.5" font-family="Helvetica,sans-Serif" font-size="10.00">denoptim.fragspace.Fragment</text>
<text text-anchor="middle" x="654.5" y="-448.5" font-family="Helvetica,sans-Serif" font-size="10.00">Space.setAPClassesPerFrag</text>
</a>
</g>
</g>
<!-- Node3&#45;&gt;Node17 -->
<g id="edge18" class="edge">
<title>Node3&#45;&gt;Node17</title>
<path fill="none" stroke="midnightblue" d="M536.29,-456.5C548.03,-456.5 560.09,-456.5 571.8,-456.5"/>
<polygon fill="midnightblue" stroke="midnightblue" points="571.98,-460 581.98,-456.5 571.98,-453 571.98,-460"/>
</g>
<!-- Node18 -->
<g id="node18" class="node">
<title>Node18</title>
<g id="a_node18"><a xlink:href="classdenoptim_1_1fragspace_1_1_fragment_space.html#afc50d518876feef08a08e217b1e0b89f" target="_top" xlink:title=" ">
<polygon fill="white" stroke="black" points="580,-392.5 580,-422.5 729,-422.5 729,-392.5 580,-392.5"/>
<text text-anchor="start" x="588" y="-410.5" font-family="Helvetica,sans-Serif" font-size="10.00">denoptim.fragspace.Fragment</text>
<text text-anchor="middle" x="654.5" y="-399.5" font-family="Helvetica,sans-Serif" font-size="10.00">Space.setFragPoolPerNumAP</text>
</a>
</g>
</g>
<!-- Node3&#45;&gt;Node18 -->
<g id="edge19" class="edge">
<title>Node3&#45;&gt;Node18</title>
<path fill="none" stroke="midnightblue" d="M514.17,-441.47C535.59,-436.24 559.78,-430.35 581.93,-424.95"/>
<polygon fill="midnightblue" stroke="midnightblue" points="583.06,-428.28 591.94,-422.51 581.4,-421.47 583.06,-428.28"/>
</g>
<!-- Node19 -->
<g id="node19" class="node">
<title>Node19</title>
<g id="a_node19"><a xlink:href="classdenoptim_1_1fragspace_1_1_fragment_space.html#ae72c42542a9476a5c3ef2feba0979651" target="_top" xlink:title=" ">
<polygon fill="white" stroke="black" points="577.5,-343.5 577.5,-373.5 731.5,-373.5 731.5,-343.5 577.5,-343.5"/>
<text text-anchor="start" x="585.5" y="-361.5" font-family="Helvetica,sans-Serif" font-size="10.00">denoptim.fragspace.Fragment</text>
<text text-anchor="middle" x="654.5" y="-350.5" font-family="Helvetica,sans-Serif" font-size="10.00">Space.setFragsApsPerApClass</text>
</a>
</g>
</g>
<!-- Node3&#45;&gt;Node19 -->
<g id="edge20" class="edge">
<title>Node3&#45;&gt;Node19</title>
<path fill="none" stroke="midnightblue" d="M524.87,-441.37C530.55,-438.85 536.01,-435.92 541,-432.5 563.29,-417.22 555.11,-399.34 577,-383.5 579.66,-381.57 582.48,-379.79 585.4,-378.14"/>
<polygon fill="midnightblue" stroke="midnightblue" points="587.08,-381.22 594.43,-373.58 583.92,-374.97 587.08,-381.22"/>
</g>
<!-- Node5 -->
<g id="node5" class="node">
<title>Node5</title>
<g id="a_node5"><a xlink:href="classdenoptim_1_1graph_1_1_vertex.html#a274e9253fa2a75073e7fc14918e54eef" target="_top" xlink:title="Returns the list of all APClasses present on this vertex.">
<polygon fill="white" stroke="black" points="796,-774.5 796,-804.5 924,-804.5 924,-774.5 796,-774.5"/>
<text text-anchor="start" x="804" y="-792.5" font-family="Helvetica,sans-Serif" font-size="10.00">denoptim.graph.Vertex.get</text>
<text text-anchor="middle" x="860" y="-781.5" font-family="Helvetica,sans-Serif" font-size="10.00">AllAPClasses</text>
</a>
</g>
</g>
<!-- Node4&#45;&gt;Node5 -->
<g id="edge4" class="edge">
<title>Node4&#45;&gt;Node5</title>
<path fill="none" stroke="midnightblue" d="M659.58,-569.61C670.53,-607.33 704.16,-706.42 768,-759.5 773.54,-764.11 779.81,-768.01 786.41,-771.32"/>
<polygon fill="midnightblue" stroke="midnightblue" points="785.01,-774.53 795.56,-775.48 787.9,-768.16 785.01,-774.53"/>
</g>
<!-- Node6 -->
<g id="node6" class="node">
<title>Node6</title>
<g id="a_node6"><a xlink:href="classdenoptim_1_1graph_1_1_vertex.html#a022f7c9075b178f17e13339b215ee21f" target="_top" xlink:title=" ">
<polygon fill="white" stroke="black" points="988,-730.5 988,-760.5 1116,-760.5 1116,-730.5 988,-730.5"/>
<text text-anchor="start" x="996" y="-748.5" font-family="Helvetica,sans-Serif" font-size="10.00">denoptim.graph.Vertex.get</text>
<text text-anchor="middle" x="1052" y="-737.5" font-family="Helvetica,sans-Serif" font-size="10.00">AttachmentPoints</text>
</a>
</g>
</g>
<!-- Node4&#45;&gt;Node6 -->
<g id="edge7" class="edge">
<title>Node4&#45;&gt;Node6</title>
<path fill="none" stroke="midnightblue" d="M660.19,-569.63C671.88,-604.48 705.94,-690.2 768,-726.5 831.48,-763.64 917.22,-763.91 977.64,-757.69"/>
<polygon fill="midnightblue" stroke="midnightblue" points="978.31,-761.14 987.86,-756.55 977.53,-754.18 978.31,-761.14"/>
</g>
<!-- Node7 -->
<g id="node7" class="node">
<title>Node7</title>
<g id="a_node7"><a xlink:href="classdenoptim_1_1graph_1_1_attachment_point.html#a31bed4cb29f6437bf8a888a1dda3fd95" target="_top" xlink:title="Returns the Attachment Point class.">
<polygon fill="white" stroke="black" points="792.5,-686.5 792.5,-716.5 927.5,-716.5 927.5,-686.5 792.5,-686.5"/>
<text text-anchor="start" x="800.5" y="-704.5" font-family="Helvetica,sans-Serif" font-size="10.00">denoptim.graph.Attachment</text>
<text text-anchor="middle" x="860" y="-693.5" font-family="Helvetica,sans-Serif" font-size="10.00">Point.getAPClass</text>
</a>
</g>
</g>
<!-- Node4&#45;&gt;Node7 -->
<g id="edge6" class="edge">
<title>Node4&#45;&gt;Node7</title>
<path fill="none" stroke="midnightblue" d="M664.97,-569.55C682.18,-595.64 721.2,-649.2 768,-677.5 772.63,-680.3 777.59,-682.78 782.71,-684.97"/>
<polygon fill="midnightblue" stroke="midnightblue" points="781.48,-688.25 792.06,-688.61 784.02,-681.72 781.48,-688.25"/>
</g>
<!-- Node8 -->
<g id="node8" class="node">
<title>Node8</title>
<g id="a_node8"><a xlink:href="classdenoptim_1_1fragspace_1_1_fragment_space.html#ae9d431ee87c4285c7d49d78b90ebe3a6" target="_top" xlink:title="Returns the list of fragments with given number of APs.">
<polygon fill="white" stroke="black" points="787.5,-637.5 787.5,-667.5 932.5,-667.5 932.5,-637.5 787.5,-637.5"/>
<text text-anchor="start" x="795.5" y="-655.5" font-family="Helvetica,sans-Serif" font-size="10.00">denoptim.fragspace.Fragment</text>
<text text-anchor="middle" x="860" y="-644.5" font-family="Helvetica,sans-Serif" font-size="10.00">Space.getFragsWithNumAps</text>
</a>
</g>
</g>
<!-- Node4&#45;&gt;Node8 -->
<g id="edge8" class="edge">
<title>Node4&#45;&gt;Node8</title>
<path fill="none" stroke="midnightblue" d="M674.3,-569.64C695.78,-586.26 732.56,-612.68 768,-628.5 772.43,-630.48 777.06,-632.32 781.77,-634.03"/>
<polygon fill="midnightblue" stroke="midnightblue" points="780.96,-637.45 791.55,-637.36 783.21,-630.82 780.96,-637.45"/>
</g>
<!-- Node9 -->
<g id="node9" class="node">
<title>Node9</title>
<g id="a_node9"><a xlink:href="classdenoptim_1_1graph_1_1_vertex.html#ac578a57700de26b2f0ba1fc7470129d0" target="_top" xlink:title=" ">
<polygon fill="white" stroke="black" points="796,-588.5 796,-618.5 924,-618.5 924,-588.5 796,-588.5"/>
<text text-anchor="start" x="804" y="-606.5" font-family="Helvetica,sans-Serif" font-size="10.00">denoptim.graph.Vertex.get</text>
<text text-anchor="middle" x="860" y="-595.5" font-family="Helvetica,sans-Serif" font-size="10.00">FreeAPCount</text>
</a>
</g>
</g>
<!-- Node4&#45;&gt;Node9 -->
<g id="edge9" class="edge">
<title>Node4&#45;&gt;Node9</title>
<path fill="none" stroke="midnightblue" d="M717.94,-569.53C739.72,-574.78 764.34,-580.71 786.84,-586.13"/>
<polygon fill="midnightblue" stroke="midnightblue" points="786.14,-589.56 796.68,-588.49 787.78,-582.75 786.14,-589.56"/>
</g>
<!-- Node10 -->
<g id="node10" class="node">
<title>Node10</title>
<g id="a_node10"><a xlink:href="classdenoptim_1_1fragspace_1_1_fragment_space.html#a989cebcb213d2c575f669398db4d2131" target="_top" xlink:title=" ">
<polygon fill="white" stroke="black" points="768,-539.5 768,-569.5 952,-569.5 952,-539.5 768,-539.5"/>
<text text-anchor="start" x="776" y="-557.5" font-family="Helvetica,sans-Serif" font-size="10.00">denoptim.fragspace.Fragment</text>
<text text-anchor="middle" x="860" y="-546.5" font-family="Helvetica,sans-Serif" font-size="10.00">Space.getMapAPClassesPerFragment</text>
</a>
</g>
</g>
<!-- Node4&#45;&gt;Node10 -->
<g id="edge11" class="edge">
<title>Node4&#45;&gt;Node10</title>
<path fill="none" stroke="midnightblue" d="M727.25,-554.5C737.12,-554.5 747.4,-554.5 757.68,-554.5"/>
<polygon fill="midnightblue" stroke="midnightblue" points="757.94,-558 767.94,-554.5 757.94,-551 757.94,-558"/>
</g>
<!-- Node11 -->
<g id="node11" class="node">
<title>Node11</title>
<g id="a_node11"><a xlink:href="classdenoptim_1_1fragspace_1_1_fragment_space.html#aa06ebee904c88b82e9e3dce899781106" target="_top" xlink:title=" ">
<polygon fill="white" stroke="black" points="772,-490.5 772,-520.5 948,-520.5 948,-490.5 772,-490.5"/>
<text text-anchor="start" x="780" y="-508.5" font-family="Helvetica,sans-Serif" font-size="10.00">denoptim.fragspace.Fragment</text>
<text text-anchor="middle" x="860" y="-497.5" font-family="Helvetica,sans-Serif" font-size="10.00">Space.getMapFragsAPsPerAPClass</text>
</a>
</g>
</g>
<!-- Node4&#45;&gt;Node11 -->
<g id="edge12" class="edge">
<title>Node4&#45;&gt;Node11</title>
<path fill="none" stroke="midnightblue" d="M717.94,-539.47C739.72,-534.22 764.34,-528.29 786.84,-522.87"/>
<polygon fill="midnightblue" stroke="midnightblue" points="787.78,-526.25 796.68,-520.51 786.14,-519.44 787.78,-526.25"/>
</g>
<!-- Node12 -->
<g id="node12" class="node">
<title>Node12</title>
<g id="a_node12"><a xlink:href="classdenoptim_1_1fragspace_1_1_fragment_space.html#a3aad125a846731307d56e68cd69b8ae5" target="_top" xlink:title=" ">
<polygon fill="white" stroke="black" points="776.5,-441.5 776.5,-471.5 943.5,-471.5 943.5,-441.5 776.5,-441.5"/>
<text text-anchor="start" x="784.5" y="-459.5" font-family="Helvetica,sans-Serif" font-size="10.00">denoptim.fragspace.Fragment</text>
<text text-anchor="middle" x="860" y="-448.5" font-family="Helvetica,sans-Serif" font-size="10.00">Space.getMapOfFragsPerNumAps</text>
</a>
</g>
</g>
<!-- Node4&#45;&gt;Node12 -->
<g id="edge13" class="edge">
<title>Node4&#45;&gt;Node12</title>
<path fill="none" stroke="midnightblue" d="M716.53,-539.35C721.99,-536.83 727.24,-533.9 732,-530.5 753.98,-514.79 745.74,-496.82 768,-481.5 770.92,-479.49 774,-477.64 777.19,-475.94"/>
<polygon fill="midnightblue" stroke="midnightblue" points="778.91,-478.99 786.43,-471.53 775.9,-472.68 778.91,-478.99"/>
</g>
<!-- Node13 -->
<g id="node13" class="node">
<title>Node13</title>
<g id="a_node13"><a xlink:href="classdenoptim_1_1graph_1_1_attachment_point.html#a77887ce020d49c189b89e049f12b70ba" target="_top" xlink:title="Check availability of this attachment point.">
<polygon fill="white" stroke="black" points="792.5,-392.5 792.5,-422.5 927.5,-422.5 927.5,-392.5 792.5,-392.5"/>
<text text-anchor="start" x="800.5" y="-410.5" font-family="Helvetica,sans-Serif" font-size="10.00">denoptim.graph.Attachment</text>
<text text-anchor="middle" x="860" y="-399.5" font-family="Helvetica,sans-Serif" font-size="10.00">Point.isAvailable</text>
</a>
</g>
</g>
<!-- Node4&#45;&gt;Node13 -->
<g id="edge14" class="edge">
<title>Node4&#45;&gt;Node13</title>
<path fill="none" stroke="midnightblue" d="M719.85,-539.45C724.25,-536.92 728.37,-533.96 732,-530.5 765.59,-498.49 733.84,-463.91 768,-432.5 772.48,-428.38 777.58,-424.93 783.02,-422.04"/>
<polygon fill="midnightblue" stroke="midnightblue" points="784.84,-425.06 792.45,-417.69 781.9,-418.7 784.84,-425.06"/>
</g>
<!-- Node14 -->
<g id="node14" class="node">
<title>Node14</title>
<g id="a_node14"><a xlink:href="classdenoptim_1_1fragspace_1_1_fragment_space.html#a1746f750aa65cefd1ed92ab55e750e63" target="_top" xlink:title="Adds the reference to a ring&#45;closing vertex (RCV) to the quick&#45;access list of RCVs known in this buil...">
<polygon fill="white" stroke="black" points="787.5,-343.5 787.5,-373.5 932.5,-373.5 932.5,-343.5 787.5,-343.5"/>
<text text-anchor="start" x="795.5" y="-361.5" font-family="Helvetica,sans-Serif" font-size="10.00">denoptim.fragspace.Fragment</text>
<text text-anchor="middle" x="860" y="-350.5" font-family="Helvetica,sans-Serif" font-size="10.00">Space.registerRCV</text>
</a>
</g>
</g>
<!-- Node4&#45;&gt;Node14 -->
<g id="edge15" class="edge">
<title>Node4&#45;&gt;Node14</title>
<path fill="none" stroke="midnightblue" d="M721.01,-539.44C725.03,-536.91 728.76,-533.95 732,-530.5 778.02,-481.44 721.11,-431.72 768,-383.5 771.08,-380.33 774.53,-377.55 778.23,-375.11"/>
<polygon fill="midnightblue" stroke="midnightblue" points="780.26,-377.98 787.26,-370.03 776.83,-371.88 780.26,-377.98"/>
</g>
<!-- Node15 -->
<g id="node15" class="node">
<title>Node15</title>
<g id="a_node15"><a xlink:href="classdenoptim_1_1fragspace_1_1_fragment_space.html#a47b278f84db073b1f06809f9c42cfae5" target="_top" xlink:title="Check usage of APClass&#45;based approach, i.e., uses attachment points with annotated data (i....">
<polygon fill="white" stroke="black" points="776,-294.5 776,-324.5 944,-324.5 944,-294.5 776,-294.5"/>
<text text-anchor="start" x="784" y="-312.5" font-family="Helvetica,sans-Serif" font-size="10.00">denoptim.fragspace.Fragment</text>
<text text-anchor="middle" x="860" y="-301.5" font-family="Helvetica,sans-Serif" font-size="10.00">Space.useAPclassBasedApproach</text>
</a>
</g>
</g>
<!-- Node4&#45;&gt;Node15 -->
<g id="edge16" class="edge">
<title>Node4&#45;&gt;Node15</title>
<path fill="none" stroke="midnightblue" d="M721.59,-539.43C725.43,-536.89 728.96,-533.94 732,-530.5 790.68,-464.16 708.14,-399.78 768,-334.5 769.22,-333.17 770.5,-331.91 771.84,-330.72"/>
<polygon fill="midnightblue" stroke="midnightblue" points="774.15,-333.35 780.05,-324.55 769.95,-327.76 774.15,-333.35"/>
</g>
<!-- Node5&#45;&gt;Node6 -->
<g id="edge5" class="edge">
<title>Node5&#45;&gt;Node6</title>
<path fill="none" stroke="midnightblue" d="M924,-774.91C941.32,-770.9 960.24,-766.52 978.07,-762.39"/>
<polygon fill="midnightblue" stroke="midnightblue" points="978.89,-765.79 987.84,-760.13 977.31,-758.97 978.89,-765.79"/>
</g>
<!-- Node9&#45;&gt;Node6 -->
<g id="edge10" class="edge">
<title>Node9&#45;&gt;Node6</title>
<path fill="none" stroke="midnightblue" d="M924.3,-615.56C934,-618.89 943.58,-623.12 952,-628.5 989.51,-652.46 1020.27,-695.06 1037.09,-721.71"/>
<polygon fill="midnightblue" stroke="midnightblue" points="1034.22,-723.73 1042.44,-730.42 1040.18,-720.07 1034.22,-723.73"/>
</g>
<!-- Node21 -->
<g id="node21" class="node">
<title>Node21</title>
<g id="a_node21"><a xlink:href="classdenoptim_1_1fragspace_1_1_fragment_space.html#a595ddccfe052fff28e9d79f721d816b9" target="_top" xlink:title="Takes a list of vertices and add them to a given library.">
<polygon fill="white" stroke="black" points="577,-196.5 577,-226.5 732,-226.5 732,-196.5 577,-196.5"/>
<text text-anchor="start" x="585" y="-214.5" font-family="Helvetica,sans-Serif" font-size="10.00">denoptim.fragspace.Fragment</text>
<text text-anchor="middle" x="654.5" y="-203.5" font-family="Helvetica,sans-Serif" font-size="10.00">Space.appendVerticesToLibrary</text>
</a>
</g>
</g>
<!-- Node20&#45;&gt;Node21 -->
<g id="edge22" class="edge">
<title>Node20&#45;&gt;Node21</title>
<path fill="none" stroke="midnightblue" d="M524.19,-393.07C530.15,-390.4 535.85,-387.24 541,-383.5 548.04,-378.39 609.67,-281.21 638.61,-235.23"/>
<polygon fill="midnightblue" stroke="midnightblue" points="641.73,-236.83 644.1,-226.5 635.81,-233.1 641.73,-236.83"/>
</g>
<!-- Node22 -->
<g id="node22" class="node">
<title>Node22</title>
<g id="a_node22"><a xlink:href="classdenoptim_1_1fragspace_1_1_fragment_space.html#a29a9f624b749868d8afd6aa5a987543d" target="_top" xlink:title="Takes a vertex and add it to a given library.">
<polygon fill="white" stroke="black" points="787,-196.5 787,-226.5 933,-226.5 933,-196.5 787,-196.5"/>
<text text-anchor="start" x="795" y="-214.5" font-family="Helvetica,sans-Serif" font-size="10.00">denoptim.fragspace.Fragment</text>
<text text-anchor="middle" x="860" y="-203.5" font-family="Helvetica,sans-Serif" font-size="10.00">Space.appendVertexToLibrary</text>
</a>
</g>
</g>
<!-- Node21&#45;&gt;Node22 -->
<g id="edge23" class="edge">
<title>Node21&#45;&gt;Node22</title>
<path fill="none" stroke="midnightblue" d="M732.14,-211.5C746.7,-211.5 761.99,-211.5 776.71,-211.5"/>
<polygon fill="midnightblue" stroke="midnightblue" points="776.79,-215 786.79,-211.5 776.79,-208 776.79,-215"/>
</g>
<!-- Node23 -->
<g id="node23" class="node">
<title>Node23</title>
<g id="a_node23"><a xlink:href="classdenoptim_1_1graph_1_1_vertex.html#a867032399d8aad0a894cbf5b51406ac4" target="_top" xlink:title=" ">
<polygon fill="white" stroke="black" points="988,-221.5 988,-251.5 1116,-251.5 1116,-221.5 988,-221.5"/>
<text text-anchor="start" x="996" y="-239.5" font-family="Helvetica,sans-Serif" font-size="10.00">denoptim.graph.Vertex.set</text>
<text text-anchor="middle" x="1052" y="-228.5" font-family="Helvetica,sans-Serif" font-size="10.00">BuildingBlockId</text>
</a>
</g>
</g>
<!-- Node22&#45;&gt;Node23 -->
<g id="edge24" class="edge">
<title>Node22&#45;&gt;Node23</title>
<path fill="none" stroke="midnightblue" d="M933.1,-220.99C947.77,-222.92 963.22,-224.95 977.92,-226.88"/>
<polygon fill="midnightblue" stroke="midnightblue" points="977.59,-230.37 987.97,-228.21 978.51,-223.43 977.59,-230.37"/>
</g>
<!-- Node24 -->
<g id="node24" class="node">
<title>Node24</title>
<g id="a_node24"><a xlink:href="classdenoptim_1_1graph_1_1_vertex.html#ab8088bc1c894c7c916ca8d8a151fa905" target="_top" xlink:title=" ">
<polygon fill="white" stroke="black" points="988,-172.5 988,-202.5 1116,-202.5 1116,-172.5 988,-172.5"/>
<text text-anchor="start" x="996" y="-190.5" font-family="Helvetica,sans-Serif" font-size="10.00">denoptim.graph.Vertex.set</text>
<text text-anchor="middle" x="1052" y="-179.5" font-family="Helvetica,sans-Serif" font-size="10.00">BuildingBlockType</text>
</a>
</g>
</g>
<!-- Node22&#45;&gt;Node24 -->
<g id="edge25" class="edge">
<title>Node22&#45;&gt;Node24</title>
<path fill="none" stroke="midnightblue" d="M933.1,-202.39C947.77,-200.54 963.22,-198.59 977.92,-196.73"/>
<polygon fill="midnightblue" stroke="midnightblue" points="978.48,-200.19 987.97,-195.46 977.61,-193.24 978.48,-200.19"/>
</g>
<!-- Node28&#45;&gt;Node21 -->
<g id="edge30" class="edge">
<title>Node28&#45;&gt;Node21</title>
<path fill="none" stroke="midnightblue" d="M524.21,-211.5C537.91,-211.5 552.39,-211.5 566.51,-211.5"/>
<polygon fill="midnightblue" stroke="midnightblue" points="566.71,-215 576.71,-211.5 566.71,-208 566.71,-215"/>
</g>
<!-- Node31&#45;&gt;Node21 -->
<g id="edge34" class="edge">
<title>Node31&#45;&gt;Node21</title>
<path fill="none" stroke="midnightblue" d="M523.12,-79.66C529.37,-82.18 535.43,-85.1 541,-88.5 583.14,-114.19 619.06,-160.24 638.35,-188.12"/>
<polygon fill="midnightblue" stroke="midnightblue" points="635.51,-190.17 644.01,-196.48 641.3,-186.24 635.51,-190.17"/>
</g>
</g>
</svg>
        <g id="navigator" transform="translate(0 0)" fill="#404254">
                <rect fill="#f2f5e9" fill-opacity="0.5" stroke="#606060" stroke-width=".5" x="0" y="0" width="60" height="60"/>
                <use id="zoomplus" xlink:href="#zoomPlus" x="17" y="9" onmousedown="handleZoom(evt,'in')"/>
                <use id="zoomminus" xlink:href="#zoomMin" x="42" y="9" onmousedown="handleZoom(evt,'out')"/>
                <use id="reset" xlink:href="#resetDef" x="30" y="36" onmousedown="handleReset()"/>
                <g id="arrowUp" xlink:href="#dirArrow" transform="translate(30 24)" onmousedown="handlePan(0,-1)">
                  <use xlink:href="#rim" fill="#404040">
                        <set attributeName="fill" to="#808080" begin="arrowUp.mouseover" end="arrowUp.mouseout"/>
                  </use>
                  <path fill="none" stroke="white" stroke-width="1.5" d="M0,-3.0v7 M-2.5,-0.5L0,-3.0L2.5,-0.5"/>
                </g>
                <g id="arrowRight" xlink:href="#dirArrow" transform="rotate(90) translate(36 -43)" onmousedown="handlePan(1,0)">
                  <use xlink:href="#rim" fill="#404040">
                        <set attributeName="fill" to="#808080" begin="arrowRight.mouseover" end="arrowRight.mouseout"/>
                  </use>
                  <path fill="none" stroke="white" stroke-width="1.5" d="M0,-3.0v7 M-2.5,-0.5L0,-3.0L2.5,-0.5"/>
                </g>
                <g id="arrowDown" xlink:href="#dirArrow" transform="rotate(180) translate(-30 -48)" onmousedown="handlePan(0,1)">
                  <use xlink:href="#rim" fill="#404040">
                        <set attributeName="fill" to="#808080" begin="arrowDown.mouseover" end="arrowDown.mouseout"/>
                  </use>
                  <path fill="none" stroke="white" stroke-width="1.5" d="M0,-3.0v7 M-2.5,-0.5L0,-3.0L2.5,-0.5"/>
                </g>
                <g id="arrowLeft" xlink:href="#dirArrow" transform="rotate(270) translate(-36 17)" onmousedown="handlePan(-1,0)">
                  <use xlink:href="#rim" fill="#404040">
                        <set attributeName="fill" to="#808080" begin="arrowLeft.mouseover" end="arrowLeft.mouseout"/>
                  </use>
                  <path fill="none" stroke="white" stroke-width="1.5" d="M0,-3.0v7 M-2.5,-0.5L0,-3.0L2.5,-0.5"/>
                </g>
        </g>
        <svg viewBox="0 0 15 15" width="100%" height="30px" preserveAspectRatio="xMaxYMin meet">
         <g id="arrow_out" transform="scale(0.3 0.3)">
          <a xlink:href="classdenoptim_1_1fragspace_1_1_fragment_space_a214f8f0ed7961f48e36ff23f9b8c4c5b_cgraph_org.svg" target="_base">
           <rect id="button" ry="5" rx="5" y="6" x="6" height="38" width="38"
                fill="#f2f5e9" fill-opacity="0.5" stroke="#606060" stroke-width="1.0"/>
           <path id="arrow"
             d="M 11.500037,31.436501 C 11.940474,20.09759 22.043105,11.32322 32.158766,21.979434 L 37.068811,17.246167 C 37.068811,17.246167 37.088388,32 37.088388,32 L 22.160133,31.978069 C 22.160133,31.978069 26.997745,27.140456 26.997745,27.140456 C 18.528582,18.264221 13.291696,25.230495 11.500037,31.436501 z"
             style="fill:#404040;"/>
          </a>
         </g>
        </svg>
</svg>
