<?xml version="1.0" encoding="UTF-8" standalone="no"?>
<!DOCTYPE svg PUBLIC "-//W3C//DTD SVG 1.1//EN"
 "http://www.w3.org/Graphics/SVG/1.1/DTD/svg11.dtd">
<!-- Generated by graphviz version 3.0.0 (20220413.0242)
 -->
<!-- Title: denoptim.graph.Template.updateInnerToOuter Pages: 1 -->
<svg width="538pt" height="235pt"
 viewBox="0.00 0.00 538.00 235.00" xmlns="http://www.w3.org/2000/svg" xmlns:xlink="http://www.w3.org/1999/xlink">
<g id="graph0" class="graph" transform="scale(1 1) rotate(0) translate(4 231)">
<title>denoptim.graph.Template.updateInnerToOuter</title>
<polygon fill="white" stroke="transparent" points="-4,4 -4,-231 534,-231 534,4 -4,4"/>
<!-- Node1 -->
<g id="node1" class="node">
<title>Node1</title>
<g id="a_node1"><a xlink:title=" ">
<polygon fill="#bfbfbf" stroke="black" points="0,-120.5 0,-150.5 157,-150.5 157,-120.5 0,-120.5"/>
<text text-anchor="start" x="8" y="-138.5" font-family="Helvetica,sans-Serif" font-size="10.00">denoptim.graph.Template.update</text>
<text text-anchor="middle" x="78.5" y="-127.5" font-family="Helvetica,sans-Serif" font-size="10.00">InnerToOuter</text>
</a>
</g>
</g>
<!-- Node2 -->
<g id="node2" class="node">
<title>Node2</title>
<g id="a_node2"><a xlink:href="classdenoptim_1_1graph_1_1_template.html#a82c53a76c42c31848f394c3f7aab21b9" target="_top" xlink:title="Removes the molecular representation.">
<polygon fill="white" stroke="black" points="194.5,-191.5 194.5,-221.5 343.5,-221.5 343.5,-191.5 194.5,-191.5"/>
<text text-anchor="start" x="202.5" y="-209.5" font-family="Helvetica,sans-Serif" font-size="10.00">denoptim.graph.Template.clear</text>
<text text-anchor="middle" x="269" y="-198.5" font-family="Helvetica,sans-Serif" font-size="10.00">IAtomContainer</text>
</a>
</g>
</g>
<!-- Node1&#45;&gt;Node2 -->
<g id="edge1" class="edge">
<title>Node1&#45;&gt;Node2</title>
<path fill="none" stroke="midnightblue" d="M113.98,-150.65C136.33,-160.25 166.17,-172.67 193,-182.5 198.22,-184.41 203.66,-186.32 209.14,-188.18"/>
<polygon fill="midnightblue" stroke="midnightblue" points="208.39,-191.62 218.98,-191.46 210.61,-184.98 208.39,-191.62"/>
</g>
<!-- Node3 -->
<g id="node3" class="node">
<title>Node3</title>
<g id="a_node3"><a xlink:href="classdenoptim_1_1graph_1_1_d_graph.html#a3fc88e09bf84838d98d7583b457f637f" target="_top" xlink:title="Returns the attachment point with the given identifier, or null if no AP is found with the given iden...">
<polygon fill="white" stroke="black" points="202,-142.5 202,-172.5 336,-172.5 336,-142.5 202,-142.5"/>
<text text-anchor="start" x="210" y="-160.5" font-family="Helvetica,sans-Serif" font-size="10.00">denoptim.graph.DGraph.get</text>
<text text-anchor="middle" x="269" y="-149.5" font-family="Helvetica,sans-Serif" font-size="10.00">APWithId</text>
</a>
</g>
</g>
<!-- Node1&#45;&gt;Node3 -->
<g id="edge2" class="edge">
<title>Node1&#45;&gt;Node3</title>
<path fill="none" stroke="midnightblue" d="M157.26,-144.58C168.59,-145.9 180.26,-147.26 191.57,-148.58"/>
<polygon fill="midnightblue" stroke="midnightblue" points="191.5,-152.1 201.84,-149.78 192.31,-145.14 191.5,-152.1"/>
</g>
<!-- Node5 -->
<g id="node5" class="node">
<title>Node5</title>
<g id="a_node5"><a xlink:href="classdenoptim_1_1graph_1_1_a_p_tree_map.html#a9e1e1c1dd87ebfb469b6c705c00038b6" target="_top" xlink:title="Associates the specified value with the specified key in this map.">
<polygon fill="white" stroke="black" points="193,-104 193,-123 345,-123 345,-104 193,-104"/>
<text text-anchor="middle" x="269" y="-111" font-family="Helvetica,sans-Serif" font-size="10.00">denoptim.graph.APTreeMap.put</text>
</a>
</g>
</g>
<!-- Node1&#45;&gt;Node5 -->
<g id="edge4" class="edge">
<title>Node1&#45;&gt;Node5</title>
<path fill="none" stroke="midnightblue" d="M157.26,-126.42C165.71,-125.44 174.35,-124.43 182.89,-123.43"/>
<polygon fill="midnightblue" stroke="midnightblue" points="183.32,-126.91 192.85,-122.27 182.51,-119.95 183.32,-126.91"/>
</g>
<!-- Node10 -->
<g id="node10" class="node">
<title>Node10</title>
<g id="a_node10"><a xlink:href="classdenoptim_1_1graph_1_1_attachment_point.html#a76bfbe6cc3918c114c73974b2fe4e59d" target="_top" xlink:title="Sets the reference to the vertex that owns this attachment point.">
<polygon fill="white" stroke="black" points="201.5,-54.5 201.5,-84.5 336.5,-84.5 336.5,-54.5 201.5,-54.5"/>
<text text-anchor="start" x="209.5" y="-72.5" font-family="Helvetica,sans-Serif" font-size="10.00">denoptim.graph.Attachment</text>
<text text-anchor="middle" x="269" y="-61.5" font-family="Helvetica,sans-Serif" font-size="10.00">Point.setOwner</text>
</a>
</g>
</g>
<!-- Node1&#45;&gt;Node10 -->
<g id="edge9" class="edge">
<title>Node1&#45;&gt;Node10</title>
<path fill="none" stroke="midnightblue" d="M120.39,-120.45C141.94,-112.59 168.85,-102.88 193,-94.5 199.36,-92.29 206.03,-90.01 212.67,-87.77"/>
<polygon fill="midnightblue" stroke="midnightblue" points="213.96,-91.03 222.33,-84.52 211.73,-84.39 213.96,-91.03"/>
</g>
<!-- Node4 -->
<g id="node4" class="node">
<title>Node4</title>
<g id="a_node4"><a xlink:href="classdenoptim_1_1graph_1_1_d_graph.html#a27e25f8f8e1516d81cc281e2795a9428" target="_top" xlink:title="Returns the list of all attachment points contained in this graph.">
<polygon fill="white" stroke="black" points="388.5,-196.5 388.5,-226.5 522.5,-226.5 522.5,-196.5 388.5,-196.5"/>
<text text-anchor="start" x="396.5" y="-214.5" font-family="Helvetica,sans-Serif" font-size="10.00">denoptim.graph.DGraph.get</text>
<text text-anchor="middle" x="455.5" y="-203.5" font-family="Helvetica,sans-Serif" font-size="10.00">AttachmentPoints</text>
</a>
</g>
</g>
<!-- Node3&#45;&gt;Node4 -->
<g id="edge3" class="edge">
<title>Node3&#45;&gt;Node4</title>
<path fill="none" stroke="midnightblue" d="M321.39,-172.54C343.69,-179.07 369.98,-186.76 393.28,-193.58"/>
<polygon fill="midnightblue" stroke="midnightblue" points="392.48,-197 403.06,-196.45 394.45,-190.28 392.48,-197"/>
</g>
<!-- Node6 -->
<g id="node6" class="node">
<title>Node6</title>
<g id="a_node6"><a xlink:href="classdenoptim_1_1graph_1_1_attachment_point.html#a72dd6bd75a701cabb65832778da6e574" target="_top" xlink:title="Returns a unique integer that is used to sort list of attachment points.">
<polygon fill="white" stroke="black" points="388,-147.5 388,-177.5 523,-177.5 523,-147.5 388,-147.5"/>
<text text-anchor="start" x="396" y="-165.5" font-family="Helvetica,sans-Serif" font-size="10.00">denoptim.graph.Attachment</text>
<text text-anchor="middle" x="455.5" y="-154.5" font-family="Helvetica,sans-Serif" font-size="10.00">Point.getID</text>
</a>
</g>
</g>
<!-- Node5&#45;&gt;Node6 -->
<g id="edge5" class="edge">
<title>Node5&#45;&gt;Node6</title>
<path fill="none" stroke="midnightblue" d="M306.01,-123.06C329.27,-129.24 360.24,-137.46 387.87,-144.8"/>
<polygon fill="midnightblue" stroke="midnightblue" points="387.32,-148.28 397.88,-147.46 389.11,-141.51 387.32,-148.28"/>
</g>
<!-- Node7 -->
<g id="node7" class="node">
<title>Node7</title>
<g id="a_node7"><a xlink:href="classdenoptim_1_1utils_1_1_graph_utils.html#aacbefbc93a3463aa963c9923749deea1" target="_top" xlink:title="Unique counter for the number of molecules generated.">
<polygon fill="white" stroke="black" points="385,-98.5 385,-128.5 526,-128.5 526,-98.5 385,-98.5"/>
<text text-anchor="start" x="393" y="-116.5" font-family="Helvetica,sans-Serif" font-size="10.00">denoptim.utils.GraphUtils.get</text>
<text text-anchor="middle" x="455.5" y="-105.5" font-family="Helvetica,sans-Serif" font-size="10.00">UniqueAPIndex</text>
</a>
</g>
</g>
<!-- Node5&#45;&gt;Node7 -->
<g id="edge6" class="edge">
<title>Node5&#45;&gt;Node7</title>
<path fill="none" stroke="midnightblue" d="M345.04,-113.5C354.82,-113.5 364.86,-113.5 374.71,-113.5"/>
<polygon fill="midnightblue" stroke="midnightblue" points="374.88,-117 384.88,-113.5 374.88,-110 374.88,-117"/>
</g>
<!-- Node8 -->
<g id="node8" class="node">
<title>Node8</title>
<g id="a_node8"><a xlink:href="classdenoptim_1_1utils_1_1_graph_utils.html#ac53e72bfeb5251069c07ebc22994022a" target="_top" xlink:title="Reset the unique attachment point counter to the given value.">
<polygon fill="white" stroke="black" points="381,-49.5 381,-79.5 530,-79.5 530,-49.5 381,-49.5"/>
<text text-anchor="start" x="389" y="-67.5" font-family="Helvetica,sans-Serif" font-size="10.00">denoptim.utils.GraphUtils.reset</text>
<text text-anchor="middle" x="455.5" y="-56.5" font-family="Helvetica,sans-Serif" font-size="10.00">UniqueAPCounter</text>
</a>
</g>
</g>
<!-- Node5&#45;&gt;Node8 -->
<g id="edge7" class="edge">
<title>Node5&#45;&gt;Node8</title>
<path fill="none" stroke="midnightblue" d="M308.19,-103.98C320,-100.99 333.05,-97.65 345,-94.5 359.85,-90.58 375.81,-86.27 390.82,-82.17"/>
<polygon fill="midnightblue" stroke="midnightblue" points="391.81,-85.53 400.53,-79.51 389.96,-78.78 391.81,-85.53"/>
</g>
<!-- Node9 -->
<g id="node9" class="node">
<title>Node9</title>
<g id="a_node9"><a xlink:href="classdenoptim_1_1graph_1_1_attachment_point.html#a929c8f781b4c999a5228f322a3bd901e" target="_top" xlink:title="Sets the unique integer that is used to sort list of attachment points.">
<polygon fill="white" stroke="black" points="388,-0.5 388,-30.5 523,-30.5 523,-0.5 388,-0.5"/>
<text text-anchor="start" x="396" y="-18.5" font-family="Helvetica,sans-Serif" font-size="10.00">denoptim.graph.Attachment</text>
<text text-anchor="middle" x="455.5" y="-7.5" font-family="Helvetica,sans-Serif" font-size="10.00">Point.setID</text>
</a>
</g>
</g>
<!-- Node5&#45;&gt;Node9 -->
<g id="edge8" class="edge">
<title>Node5&#45;&gt;Node9</title>
<path fill="none" stroke="midnightblue" d="M326.88,-103.92C333.31,-101.46 339.52,-98.38 345,-94.5 368.55,-77.85 358.13,-58.08 381,-40.5 383.43,-38.63 386.01,-36.89 388.7,-35.29"/>
<polygon fill="midnightblue" stroke="midnightblue" points="390.39,-38.35 397.57,-30.56 387.09,-32.17 390.39,-38.35"/>
</g>
</g>
</svg>
