<?xml version="1.0" encoding="UTF-8" standalone="no"?>
<!DOCTYPE svg PUBLIC "-//W3C//DTD SVG 1.1//EN"
 "http://www.w3.org/Graphics/SVG/1.1/DTD/svg11.dtd">
<!-- Generated by graphviz version 3.0.0 (20220413.0242)
 -->
<!-- Title: denoptim.graph.Candidate Pages: 1 -->
<!--zoomable 718 -->
<svg id="main" version="1.1" xmlns="http://www.w3.org/2000/svg" xmlns:xlink="http://www.w3.org/1999/xlink" xml:space="preserve" onload="init(evt)">
<style type="text/css"><![CDATA[
.edge:hover path { stroke: red; }
.edge:hover polygon { stroke: red; fill: red; }
]]></style>
<script type="text/javascript"><![CDATA[
var edges = document.getElementsByTagName('g');
if (edges && edges.length) {
  for (var i=0;i<edges.length;i++) {
    if (edges[i].id.substr(0,4)=='edge') {
      edges[i].setAttribute('class','edge');
    }
  }
}
]]></script>
        <defs>
                <circle id="rim" cx="0" cy="0" r="7"/>
                <circle id="rim2" cx="0" cy="0" r="3.5"/>
                <g id="zoomPlus">
                        <use xlink:href="#rim" fill="#404040">
                                <set attributeName="fill" to="#808080" begin="zoomplus.mouseover" end="zoomplus.mouseout"/>
                        </use>
                        <path d="M-4,0h8M0,-4v8" fill="none" stroke="white" stroke-width="1.5" pointer-events="none"/>
                </g>
                <g id="zoomMin">
                        <use xlink:href="#rim" fill="#404040">
                                <set attributeName="fill" to="#808080" begin="zoomminus.mouseover" end="zoomminus.mouseout"/>
                        </use>
                        <path d="M-4,0h8" fill="none" stroke="white" stroke-width="1.5" pointer-events="none"/>
                </g>
                <g id="dirArrow">
                        <path fill="none" stroke="white" stroke-width="1.5" d="M0,-3.0v7 M-2.5,-0.5L0,-3.0L2.5,-0.5"/>
                </g>
               <g id="resetDef">
                       <use xlink:href="#rim2" fill="#404040">
                               <set attributeName="fill" to="#808080" begin="reset.mouseover" end="reset.mouseout"/>
                       </use>
               </g>
        </defs>

<script type="text/javascript">
var viewWidth = 1180;
var viewHeight = 718;
var sectionId = 'dynsection-1';
</script>
<script xlink:href="svgpan.js"/>
<svg id="graph" class="graph">
<g id="viewport">
<title>denoptim.graph.Candidate</title>
<polygon fill="white" stroke="transparent" points="-4,4 -4,-713.5 1176,-713.5 1176,4 -4,4"/>
<!-- Node1 -->
<g id="node1" class="node">
<title>Node1</title>
<g id="a_node1"><a xlink:title="A candidate is the combination of a denoptim graph with molecular representation and may include also...">
<polygon fill="#bfbfbf" stroke="black" points="789,-572 789,-591 917,-591 917,-572 789,-572"/>
<text text-anchor="middle" x="853" y="-579" font-family="Helvetica,sans-Serif" font-size="10.00">denoptim.graph.Candidate</text>
</a>
</g>
</g>
<!-- Node2 -->
<g id="node2" class="node">
<title>Node2</title>
<g id="a_node2"><a xlink:title=" ">
<polygon fill="white" stroke="black" points="0,-549 0,-568 128,-568 128,-549 0,-549"/>
<text text-anchor="middle" x="64" y="-556" font-family="Helvetica,sans-Serif" font-size="10.00">Comparable&lt; Candidate &gt;</text>
</a>
</g>
</g>
<!-- Node2&#45;&gt;Node1 -->
<g id="edge1" class="edge">
<title>Node2&#45;&gt;Node1</title>
<path fill="none" stroke="midnightblue" d="M110.13,-570.3C121.74,-572.85 134.26,-575.17 146,-576.5 381.97,-603.25 665.16,-592.37 788.93,-585.5"/>
<polygon fill="midnightblue" stroke="midnightblue" points="110.74,-566.85 100.21,-568.03 109.18,-573.67 110.74,-566.85"/>
</g>
<!-- Node10 -->
<g id="node10" class="node">
<title>Node10</title>
<g id="a_node10"><a xlink:href="classdenoptim_1_1graph_1_1_candidate.html" target="_top" xlink:title="A candidate is the combination of a denoptim graph with molecular representation and may include also...">
<polygon fill="white" stroke="black" points="205.5,-515 205.5,-534 333.5,-534 333.5,-515 205.5,-515"/>
<text text-anchor="middle" x="269.5" y="-522" font-family="Helvetica,sans-Serif" font-size="10.00">denoptim.graph.Candidate</text>
</a>
</g>
</g>
<!-- Node2&#45;&gt;Node10 -->
<g id="edge11" class="edge">
<title>Node2&#45;&gt;Node10</title>
<path fill="none" stroke="midnightblue" d="M132.01,-547.3C157.75,-543 186.85,-538.14 211.56,-534.01"/>
<polygon fill="midnightblue" stroke="midnightblue" points="131.24,-543.88 121.96,-548.98 132.4,-550.79 131.24,-543.88"/>
</g>
<!-- Node3 -->
<g id="node3" class="node">
<title>Node3</title>
<g id="a_node3"><a xlink:title=" ">
<polygon fill="white" stroke="black" points="34.5,-413 34.5,-432 93.5,-432 93.5,-413 34.5,-413"/>
<text text-anchor="middle" x="64" y="-420" font-family="Helvetica,sans-Serif" font-size="10.00">Cloneable</text>
</a>
</g>
</g>
<!-- Node3&#45;&gt;Node1 -->
<g id="edge2" class="edge">
<title>Node3&#45;&gt;Node1</title>
<path fill="none" stroke="midnightblue" d="M75.87,-440.8C93.63,-468.74 131.77,-521.17 180,-543.5 234.31,-568.65 632.09,-577.88 788.8,-580.57"/>
<polygon fill="midnightblue" stroke="midnightblue" points="78.69,-438.69 70.45,-432.02 72.73,-442.37 78.69,-438.69"/>
</g>
<!-- Node4 -->
<g id="node4" class="node">
<title>Node4</title>
<g id="a_node4"><a xlink:href="classdenoptim_1_1graph_1_1_d_graph.html" target="_top" xlink:title="Container for the list of vertices and the edges that connect them.">
<polygon fill="white" stroke="black" points="487,-352 487,-371 605,-371 605,-352 487,-352"/>
<text text-anchor="middle" x="546" y="-359" font-family="Helvetica,sans-Serif" font-size="10.00">denoptim.graph.DGraph</text>
</a>
</g>
</g>
<!-- Node3&#45;&gt;Node4 -->
<g id="edge4" class="edge">
<title>Node3&#45;&gt;Node4</title>
<path fill="none" stroke="midnightblue" d="M76.58,-404.29C94.79,-377.54 132.96,-328.75 180,-309.5 304.11,-258.73 469.53,-325.88 525.53,-351.95"/>
<polygon fill="midnightblue" stroke="midnightblue" points="73.58,-402.47 70.98,-412.74 79.42,-406.33 73.58,-402.47"/>
</g>
<!-- Node3&#45;&gt;Node10 -->
<g id="edge12" class="edge">
<title>Node3&#45;&gt;Node10</title>
<path fill="none" stroke="midnightblue" d="M82.79,-439.01C104.21,-457.98 142.06,-488.63 180,-505.5 188.62,-509.33 198.05,-512.41 207.46,-514.88"/>
<polygon fill="midnightblue" stroke="midnightblue" points="84.94,-436.24 75.17,-432.14 80.25,-441.44 84.94,-436.24"/>
</g>
<!-- Node13 -->
<g id="node13" class="node">
<title>Node13</title>
<g id="a_node13"><a xlink:href="classdenoptim_1_1graph_1_1_vertex.html" target="_top" xlink:title="A vertex is a data structure that has an identity and holds a list of AttachmentPoints.">
<polygon fill="white" stroke="black" points="796.5,-235 796.5,-254 909.5,-254 909.5,-235 796.5,-235"/>
<text text-anchor="middle" x="853" y="-242" font-family="Helvetica,sans-Serif" font-size="10.00">denoptim.graph.Vertex</text>
</a>
</g>
</g>
<!-- Node3&#45;&gt;Node13 -->
<g id="edge17" class="edge">
<title>Node3&#45;&gt;Node13</title>
<path fill="none" stroke="midnightblue" d="M64.43,-402.69C63.87,-341.78 71.5,-156.63 180,-78.5 225.32,-45.86 698.98,-53.84 755,-105.5 794.64,-142.06 736.56,-185.74 773,-225.5 779.29,-232.36 787.59,-236.95 796.44,-239.98"/>
<polygon fill="midnightblue" stroke="midnightblue" points="60.93,-402.93 64.61,-412.86 67.93,-402.8 60.93,-402.93"/>
</g>
<!-- Node4&#45;&gt;Node1 -->
<g id="edge3" class="edge">
<title>Node4&#45;&gt;Node1</title>
<path fill="none" stroke="#9a32cd" stroke-dasharray="5,2" d="M568.77,-377.21C628.02,-419.94 790.88,-537.41 838.66,-571.88"/>
<polygon fill="#9a32cd" stroke="#9a32cd" points="570.66,-374.25 560.5,-371.24 566.56,-379.93 570.66,-374.25"/>
<text text-anchor="middle" x="700.5" y="-512.5" font-family="Helvetica,sans-Serif" font-size="10.00"> graph</text>
</g>
<!-- Node4&#45;&gt;Node10 -->
<g id="edge13" class="edge">
<title>Node4&#45;&gt;Node10</title>
<path fill="none" stroke="#9a32cd" stroke-dasharray="5,2" d="M538.13,-380.67C525.48,-412.88 495.18,-477.22 446,-506.5 412.58,-526.4 369.12,-530.98 333.82,-530.55"/>
<polygon fill="#9a32cd" stroke="#9a32cd" points="541.5,-381.66 541.75,-371.07 534.95,-379.2 541.5,-381.66"/>
<text text-anchor="middle" x="411.5" y="-530.5" font-family="Helvetica,sans-Serif" font-size="10.00"> graph</text>
</g>
<!-- Node12 -->
<g id="node12" class="node">
<title>Node12</title>
<g id="a_node12"><a xlink:href="classdenoptim_1_1graph_1_1_template.html" target="_top" xlink:title=" ">
<polygon fill="white" stroke="black" points="1047,-235 1047,-254 1172,-254 1172,-235 1047,-235"/>
<text text-anchor="middle" x="1109.5" y="-242" font-family="Helvetica,sans-Serif" font-size="10.00">denoptim.graph.Template</text>
</a>
</g>
</g>
<!-- Node4&#45;&gt;Node12 -->
<g id="edge24" class="edge">
<title>Node4&#45;&gt;Node12</title>
<path fill="none" stroke="#9a32cd" stroke-dasharray="5,2" d="M615.33,-364.87C693.58,-366.88 824.91,-364.54 933,-334.5 997.66,-316.53 1066.19,-273.32 1094.75,-254.05"/>
<polygon fill="#9a32cd" stroke="#9a32cd" points="615.21,-361.37 605.11,-364.58 615.01,-368.36 615.21,-361.37"/>
<text text-anchor="middle" x="853" y="-363.5" font-family="Helvetica,sans-Serif" font-size="10.00"> innerGraph</text>
</g>
<!-- Node4&#45;&gt;Node13 -->
<g id="edge18" class="edge">
<title>Node4&#45;&gt;Node13</title>
<path fill="none" stroke="#9a32cd" stroke-dasharray="5,2" d="M573.39,-347.06C593.01,-336.74 620.65,-323.04 646,-313.5 693.02,-295.8 707.39,-299.56 755,-283.5 781.31,-274.62 810.82,-262.42 830.31,-254.05"/>
<polygon fill="#9a32cd" stroke="#9a32cd" points="571.63,-344.03 564.45,-351.83 574.92,-350.21 571.63,-344.03"/>
<text text-anchor="middle" x="700.5" y="-316.5" font-family="Helvetica,sans-Serif" font-size="10.00"> owner</text>
</g>
<!-- Node5 -->
<g id="node5" class="node">
<title>Node5</title>
<g id="a_node5"><a xlink:title=" ">
<polygon fill="white" stroke="black" points="203.5,-88.5 203.5,-118.5 335.5,-118.5 335.5,-88.5 203.5,-88.5"/>
<text text-anchor="start" x="211.5" y="-106.5" font-family="Helvetica,sans-Serif" font-size="10.00">ArrayList&lt; denoptim.graph.</text>
<text text-anchor="middle" x="269.5" y="-95.5" font-family="Helvetica,sans-Serif" font-size="10.00">Vertex &gt;</text>
</a>
</g>
</g>
<!-- Node5&#45;&gt;Node4 -->
<g id="edge5" class="edge">
<title>Node5&#45;&gt;Node4</title>
<path fill="none" stroke="#9a32cd" stroke-dasharray="5,2" d="M345.64,-110.55C381.82,-118.06 422.37,-133.39 446,-164.5 483.15,-213.4 432.85,-248.57 464,-301.5 477.85,-325.03 504.9,-342.16 523.92,-351.96"/>
<polygon fill="#9a32cd" stroke="#9a32cd" points="346.05,-107.06 335.57,-108.63 344.74,-113.94 346.05,-107.06"/>
<text text-anchor="middle" x="411.5" y="-167.5" font-family="Helvetica,sans-Serif" font-size="10.00"> gVertices</text>
</g>
<!-- Node6 -->
<g id="node6" class="node">
<title>Node6</title>
<g id="a_node6"><a xlink:title=" ">
<polygon fill="white" stroke="black" points="203.5,-465.5 203.5,-495.5 335.5,-495.5 335.5,-465.5 203.5,-465.5"/>
<text text-anchor="start" x="211.5" y="-483.5" font-family="Helvetica,sans-Serif" font-size="10.00">ArrayList&lt; denoptim.graph.</text>
<text text-anchor="middle" x="269.5" y="-472.5" font-family="Helvetica,sans-Serif" font-size="10.00">Edge &gt;</text>
</a>
</g>
</g>
<!-- Node6&#45;&gt;Node4 -->
<g id="edge6" class="edge">
<title>Node6&#45;&gt;Node4</title>
<path fill="none" stroke="#9a32cd" stroke-dasharray="5,2" d="M340.33,-462.53C346.68,-460.61 352.98,-458.59 359,-456.5 398.7,-442.75 408.46,-438.38 446,-419.5 476.61,-404.1 510.78,-383.21 529.9,-371.16"/>
<polygon fill="#9a32cd" stroke="#9a32cd" points="338.95,-459.29 330.35,-465.47 340.93,-466 338.95,-459.29"/>
<text text-anchor="middle" x="411.5" y="-452.5" font-family="Helvetica,sans-Serif" font-size="10.00"> gEdges</text>
</g>
<!-- Node7 -->
<g id="node7" class="node">
<title>Node7</title>
<g id="a_node7"><a xlink:title=" ">
<polygon fill="white" stroke="black" points="203.5,-416.5 203.5,-446.5 335.5,-446.5 335.5,-416.5 203.5,-416.5"/>
<text text-anchor="start" x="211.5" y="-434.5" font-family="Helvetica,sans-Serif" font-size="10.00">ArrayList&lt; denoptim.graph.</text>
<text text-anchor="middle" x="269.5" y="-423.5" font-family="Helvetica,sans-Serif" font-size="10.00">Ring &gt;</text>
</a>
</g>
</g>
<!-- Node7&#45;&gt;Node4 -->
<g id="edge7" class="edge">
<title>Node7&#45;&gt;Node4</title>
<path fill="none" stroke="#9a32cd" stroke-dasharray="5,2" d="M343.58,-414.04C375.13,-406.39 412.43,-397.19 446,-388.5 467.56,-382.92 491.67,-376.35 510.7,-371.09"/>
<polygon fill="#9a32cd" stroke="#9a32cd" points="342.45,-410.72 333.55,-416.47 344.09,-417.52 342.45,-410.72"/>
<text text-anchor="middle" x="411.5" y="-407.5" font-family="Helvetica,sans-Serif" font-size="10.00"> gRings</text>
</g>
<!-- Node8 -->
<g id="node8" class="node">
<title>Node8</title>
<g id="a_node8"><a xlink:title=" ">
<polygon fill="white" stroke="black" points="192,-367.5 192,-397.5 347,-397.5 347,-367.5 192,-367.5"/>
<text text-anchor="start" x="200" y="-385.5" font-family="Helvetica,sans-Serif" font-size="10.00">ArrayList&lt; denoptim.graph.rings.</text>
<text text-anchor="middle" x="269.5" y="-374.5" font-family="Helvetica,sans-Serif" font-size="10.00">ClosableChain &gt;</text>
</a>
</g>
</g>
<!-- Node8&#45;&gt;Node4 -->
<g id="edge8" class="edge">
<title>Node8&#45;&gt;Node4</title>
<path fill="none" stroke="#9a32cd" stroke-dasharray="5,2" d="M357.34,-375.86C399.62,-372.62 449.32,-368.82 486.94,-365.94"/>
<polygon fill="#9a32cd" stroke="#9a32cd" points="357.03,-372.37 347.33,-376.62 357.57,-379.35 357.03,-372.37"/>
<text text-anchor="middle" x="411.5" y="-376.5" font-family="Helvetica,sans-Serif" font-size="10.00"> closableChains</text>
</g>
<!-- Node9 -->
<g id="node9" class="node">
<title>Node9</title>
<g id="a_node9"><a xlink:title=" ">
<polygon fill="white" stroke="black" points="203.5,-318.5 203.5,-348.5 335.5,-348.5 335.5,-318.5 203.5,-318.5"/>
<text text-anchor="start" x="211.5" y="-336.5" font-family="Helvetica,sans-Serif" font-size="10.00">ArrayList&lt; denoptim.graph.</text>
<text text-anchor="middle" x="269.5" y="-325.5" font-family="Helvetica,sans-Serif" font-size="10.00">SymmetricSet &gt;</text>
</a>
</g>
</g>
<!-- Node9&#45;&gt;Node4 -->
<g id="edge9" class="edge">
<title>Node9&#45;&gt;Node4</title>
<path fill="none" stroke="#9a32cd" stroke-dasharray="5,2" d="M345.75,-341.18C390.27,-345.72 445.82,-351.38 486.95,-355.58"/>
<polygon fill="#9a32cd" stroke="#9a32cd" points="345.86,-337.67 335.55,-340.14 345.15,-344.63 345.86,-337.67"/>
<text text-anchor="middle" x="411.5" y="-353.5" font-family="Helvetica,sans-Serif" font-size="10.00"> symVertices</text>
</g>
<!-- Node10&#45;&gt;Node4 -->
<g id="edge10" class="edge">
<title>Node10&#45;&gt;Node4</title>
<path fill="none" stroke="#9a32cd" stroke-dasharray="5,2" d="M336.86,-512.5C344.42,-510.48 351.94,-508.15 359,-505.5 367.57,-502.28 368.82,-499.6 377,-495.5 407.05,-480.43 418.52,-483.86 446,-464.5 485.74,-436.5 522.66,-391 537.78,-371.21"/>
<polygon fill="#9a32cd" stroke="#9a32cd" points="335.77,-509.17 326.93,-515 337.48,-515.96 335.77,-509.17"/>
<text text-anchor="middle" x="411.5" y="-498.5" font-family="Helvetica,sans-Serif" font-size="10.00"> candidate</text>
</g>
<!-- Node11 -->
<g id="node11" class="node">
<title>Node11</title>
<g id="a_node11"><a xlink:title=" ">
<polygon fill="white" stroke="black" points="22,-643 22,-662 106,-662 106,-643 22,-643"/>
<text text-anchor="middle" x="64" y="-650" font-family="Helvetica,sans-Serif" font-size="10.00">IAtomContainer</text>
</a>
</g>
</g>
<!-- Node11&#45;&gt;Node1 -->
<g id="edge32" class="edge">
<title>Node11&#45;&gt;Node1</title>
<path fill="none" stroke="#9a32cd" stroke-dasharray="5,2" d="M116.3,-651.25C231.21,-647.92 517.8,-636.6 755,-602.5 774.61,-599.68 796.18,-595.16 813.99,-591.03"/>
<polygon fill="#9a32cd" stroke="#9a32cd" points="115.94,-647.76 106.05,-651.54 116.14,-654.76 115.94,-647.76"/>
<text text-anchor="middle" x="411.5" y="-641.5" font-family="Helvetica,sans-Serif" font-size="10.00"> iac</text>
</g>
<!-- Node11&#45;&gt;Node10 -->
<g id="edge14" class="edge">
<title>Node11&#45;&gt;Node10</title>
<path fill="none" stroke="#9a32cd" stroke-dasharray="5,2" d="M88.85,-637.5C131.15,-610.89 218.18,-556.15 253.3,-534.06"/>
<polygon fill="#9a32cd" stroke="#9a32cd" points="86.9,-634.59 80.3,-642.88 90.62,-640.52 86.9,-634.59"/>
<text text-anchor="middle" x="154" y="-602.5" font-family="Helvetica,sans-Serif" font-size="10.00"> iac</text>
</g>
<!-- Node11&#45;&gt;Node12 -->
<g id="edge25" class="edge">
<title>Node11&#45;&gt;Node12</title>
<path fill="none" stroke="#9a32cd" stroke-dasharray="5,2" d="M99.85,-665.35C139.96,-678.96 208.06,-698.5 268.5,-698.5 268.5,-698.5 268.5,-698.5 854,-698.5 1064.99,-698.5 1102.82,-320.8 1107.84,-254.4"/>
<polygon fill="#9a32cd" stroke="#9a32cd" points="100.88,-662 90.28,-662.03 98.59,-668.61 100.88,-662"/>
<text text-anchor="middle" x="546" y="-701.5" font-family="Helvetica,sans-Serif" font-size="10.00"> mol</text>
</g>
<!-- Node12&#45;&gt;Node4 -->
<g id="edge15" class="edge">
<title>Node12&#45;&gt;Node4</title>
<path fill="none" stroke="#9a32cd" stroke-dasharray="5,2" d="M1059.1,-256.44C990.91,-272.76 863.97,-302.49 755,-324.5 704.49,-334.7 646.77,-344.85 604.97,-351.93"/>
<polygon fill="#9a32cd" stroke="#9a32cd" points="1060.22,-259.77 1069.13,-254.04 1058.59,-252.97 1060.22,-259.77"/>
<text text-anchor="middle" x="853" y="-322.5" font-family="Helvetica,sans-Serif" font-size="10.00"> templateJacket</text>
</g>
<!-- Node13&#45;&gt;Node12 -->
<g id="edge16" class="edge">
<title>Node13&#45;&gt;Node12</title>
<path fill="none" stroke="midnightblue" d="M919.78,-244.5C958.97,-244.5 1008.4,-244.5 1046.84,-244.5"/>
<polygon fill="midnightblue" stroke="midnightblue" points="919.54,-241 909.54,-244.5 919.54,-248 919.54,-241"/>
</g>
<!-- Node14 -->
<g id="node14" class="node">
<title>Node14</title>
<g id="a_node14"><a xlink:href="enumdenoptim_1_1graph_1_1_vertex_1_1_b_b_type.html" target="_top" xlink:title="The type of building block.">
<polygon fill="white" stroke="black" points="471.5,-109 471.5,-128 620.5,-128 620.5,-109 471.5,-109"/>
<text text-anchor="middle" x="546" y="-116" font-family="Helvetica,sans-Serif" font-size="10.00">denoptim.graph.Vertex.BBType</text>
</a>
</g>
</g>
<!-- Node14&#45;&gt;Node13 -->
<g id="edge19" class="edge">
<title>Node14&#45;&gt;Node13</title>
<path fill="none" stroke="#9a32cd" stroke-dasharray="5,2" d="M630.64,-108.84C672.87,-108.67 722,-116.35 755,-146.5 781.59,-170.79 747.69,-199.88 773,-225.5 779.44,-232.02 787.71,-236.46 796.45,-239.44"/>
<polygon fill="#9a32cd" stroke="#9a32cd" points="630.57,-105.34 620.63,-109.03 630.7,-112.34 630.57,-105.34"/>
<text text-anchor="middle" x="700.5" y="-149.5" font-family="Helvetica,sans-Serif" font-size="10.00"> buildingBlockType</text>
</g>
<!-- Node15 -->
<g id="node15" class="node">
<title>Node15</title>
<g id="a_node15"><a xlink:title=" ">
<polygon fill="white" stroke="black" points="489,-273 489,-292 603,-292 603,-273 489,-273"/>
<text text-anchor="middle" x="546" y="-280" font-family="Helvetica,sans-Serif" font-size="10.00">Map&lt; Object, Object &gt;</text>
</a>
</g>
</g>
<!-- Node15&#45;&gt;Node13 -->
<g id="edge20" class="edge">
<title>Node15&#45;&gt;Node13</title>
<path fill="none" stroke="#9a32cd" stroke-dasharray="5,2" d="M613.24,-274.25C667.94,-267.43 744.71,-257.87 796.29,-251.44"/>
<polygon fill="#9a32cd" stroke="#9a32cd" points="612.79,-270.78 603.3,-275.49 613.65,-277.72 612.79,-270.78"/>
<text text-anchor="middle" x="700.5" y="-271.5" font-family="Helvetica,sans-Serif" font-size="10.00"> properties</text>
</g>
<!-- Node16 -->
<g id="node16" class="node">
<title>Node16</title>
<g id="a_node16"><a xlink:title=" ">
<polygon fill="white" stroke="black" points="509,-235 509,-254 583,-254 583,-235 509,-235"/>
<text text-anchor="middle" x="546" y="-242" font-family="Helvetica,sans-Serif" font-size="10.00">Set&lt; String &gt;</text>
</a>
</g>
</g>
<!-- Node16&#45;&gt;Node13 -->
<g id="edge21" class="edge">
<title>Node16&#45;&gt;Node13</title>
<path fill="none" stroke="#9a32cd" stroke-dasharray="5,2" d="M593.24,-244.5C647.66,-244.5 737.98,-244.5 796.23,-244.5"/>
<polygon fill="#9a32cd" stroke="#9a32cd" points="593.19,-241 583.19,-244.5 593.19,-248 593.19,-241"/>
<text text-anchor="middle" x="700.5" y="-247.5" font-family="Helvetica,sans-Serif" font-size="10.00"> uniquefyingPropertyKeys</text>
</g>
<!-- Node17 -->
<g id="node17" class="node">
<title>Node17</title>
<g id="a_node17"><a xlink:title=" ">
<polygon fill="white" stroke="black" points="475.5,-185.5 475.5,-215.5 616.5,-215.5 616.5,-185.5 475.5,-185.5"/>
<text text-anchor="start" x="483.5" y="-203.5" font-family="Helvetica,sans-Serif" font-size="10.00">List&lt; denoptim.utils.Mutation</text>
<text text-anchor="middle" x="546" y="-192.5" font-family="Helvetica,sans-Serif" font-size="10.00">Type &gt;</text>
</a>
</g>
</g>
<!-- Node17&#45;&gt;Node13 -->
<g id="edge22" class="edge">
<title>Node17&#45;&gt;Node13</title>
<path fill="none" stroke="#9a32cd" stroke-dasharray="5,2" d="M627,-211.37C665.69,-216.7 712.78,-223.29 755,-229.5 768.4,-231.47 782.84,-233.66 796.37,-235.75"/>
<polygon fill="#9a32cd" stroke="#9a32cd" points="627.23,-207.87 616.84,-209.97 626.27,-214.8 627.23,-207.87"/>
<text text-anchor="middle" x="700.5" y="-232.5" font-family="Helvetica,sans-Serif" font-size="10.00"> allowedMutationTypes</text>
</g>
<!-- Node18 -->
<g id="node18" class="node">
<title>Node18</title>
<g id="a_node18"><a xlink:href="enumdenoptim_1_1graph_1_1_vertex_1_1_vertex_type.html" target="_top" xlink:title="Flag declaring the type of Vertex implementation.">
<polygon fill="white" stroke="black" points="464,-147 464,-166 628,-166 628,-147 464,-147"/>
<text text-anchor="middle" x="546" y="-154" font-family="Helvetica,sans-Serif" font-size="10.00">denoptim.graph.Vertex.VertexType</text>
</a>
</g>
</g>
<!-- Node18&#45;&gt;Node13 -->
<g id="edge23" class="edge">
<title>Node18&#45;&gt;Node13</title>
<path fill="none" stroke="#9a32cd" stroke-dasharray="5,2" d="M638.36,-159.66C677.01,-164.69 720.88,-175.61 755,-198.5 766.98,-206.54 761.17,-217.24 773,-225.5 779.94,-230.34 787.97,-233.96 796.19,-236.66"/>
<polygon fill="#9a32cd" stroke="#9a32cd" points="638.48,-156.15 628.14,-158.44 637.65,-163.1 638.48,-156.15"/>
<text text-anchor="middle" x="700.5" y="-201.5" font-family="Helvetica,sans-Serif" font-size="10.00"> vertexType</text>
</g>
<!-- Node19 -->
<g id="node19" class="node">
<title>Node19</title>
<g id="a_node19"><a xlink:href="enumdenoptim_1_1graph_1_1_template_1_1_contract_level.html" target="_top" xlink:title="Enum specifying to what extent the template&#39;s inner graph can be changed.">
<polygon fill="white" stroke="black" points="789,-185.5 789,-215.5 917,-215.5 917,-185.5 789,-185.5"/>
<text text-anchor="start" x="797" y="-203.5" font-family="Helvetica,sans-Serif" font-size="10.00">denoptim.graph.Template.</text>
<text text-anchor="middle" x="853" y="-192.5" font-family="Helvetica,sans-Serif" font-size="10.00">ContractLevel</text>
</a>
</g>
</g>
<!-- Node19&#45;&gt;Node12 -->
<g id="edge26" class="edge">
<title>Node19&#45;&gt;Node12</title>
<path fill="none" stroke="#9a32cd" stroke-dasharray="5,2" d="M927.21,-212.26C958.58,-217.4 995.62,-223.59 1029,-229.5 1038.68,-231.22 1049.01,-233.11 1058.91,-234.97"/>
<polygon fill="#9a32cd" stroke="#9a32cd" points="927.67,-208.79 917.24,-210.63 926.54,-215.7 927.67,-208.79"/>
<text text-anchor="middle" x="990" y="-232.5" font-family="Helvetica,sans-Serif" font-size="10.00"> contractLevel</text>
</g>
<!-- Node20 -->
<g id="node20" class="node">
<title>Node20</title>
<g id="a_node20"><a xlink:title=" ">
<polygon fill="white" stroke="black" points="773,-136.5 773,-166.5 933,-166.5 933,-136.5 773,-136.5"/>
<text text-anchor="start" x="781" y="-154.5" font-family="Helvetica,sans-Serif" font-size="10.00">List&lt; denoptim.graph.Attachment</text>
<text text-anchor="middle" x="853" y="-143.5" font-family="Helvetica,sans-Serif" font-size="10.00">Point &gt;</text>
</a>
</g>
</g>
<!-- Node20&#45;&gt;Node12 -->
<g id="edge27" class="edge">
<title>Node20&#45;&gt;Node12</title>
<path fill="none" stroke="#9a32cd" stroke-dasharray="5,2" d="M931.55,-169.07C962.42,-177.13 997.92,-187.75 1029,-200.5 1052.64,-210.2 1078.2,-225.24 1093.78,-234.98"/>
<polygon fill="#9a32cd" stroke="#9a32cd" points="932.26,-165.64 921.71,-166.55 930.52,-172.42 932.26,-165.64"/>
<text text-anchor="middle" x="990" y="-203.5" font-family="Helvetica,sans-Serif" font-size="10.00"> requiredAPs</text>
</g>
<!-- Node21 -->
<g id="node21" class="node">
<title>Node21</title>
<g id="a_node21"><a xlink:href="classdenoptim_1_1graph_1_1_a_p_tree_map.html" target="_top" xlink:title="Attachment point mapping where keys are sorted by natural ordering, i.e., by AttachmentPoint#compareT...">
<polygon fill="white" stroke="black" points="784.5,-30 784.5,-49 921.5,-49 921.5,-30 784.5,-30"/>
<text text-anchor="middle" x="853" y="-37" font-family="Helvetica,sans-Serif" font-size="10.00">denoptim.graph.APTreeMap</text>
</a>
</g>
</g>
<!-- Node21&#45;&gt;Node12 -->
<g id="edge28" class="edge">
<title>Node21&#45;&gt;Node12</title>
<path fill="none" stroke="#9a32cd" stroke-dasharray="5,2" d="M878.94,-54.2C914.03,-75.4 979.25,-116.74 1029,-159.5 1057.81,-184.26 1087.18,-218.49 1100.75,-234.93"/>
<polygon fill="#9a32cd" stroke="#9a32cd" points="880.66,-51.15 870.28,-49.01 877.06,-57.15 880.66,-51.15"/>
<text text-anchor="middle" x="990" y="-162.5" font-family="Helvetica,sans-Serif" font-size="10.00"> innerToOuterAPs</text>
</g>
<!-- Node22 -->
<g id="node22" class="node">
<title>Node22</title>
<g id="a_node22"><a xlink:title=" ">
<polygon fill="white" stroke="black" points="476.5,-0.5 476.5,-30.5 615.5,-30.5 615.5,-0.5 476.5,-0.5"/>
<text text-anchor="start" x="484.5" y="-18.5" font-family="Helvetica,sans-Serif" font-size="10.00">TreeMap&lt; AttachmentPoint,</text>
<text text-anchor="middle" x="546" y="-7.5" font-family="Helvetica,sans-Serif" font-size="10.00"> AttachmentPoint &gt;</text>
</a>
</g>
</g>
<!-- Node22&#45;&gt;Node21 -->
<g id="edge29" class="edge">
<title>Node22&#45;&gt;Node21</title>
<path fill="none" stroke="midnightblue" d="M626.1,-21.72C675.22,-25.59 737.68,-30.5 784.47,-34.19"/>
<polygon fill="midnightblue" stroke="midnightblue" points="626.07,-18.21 615.83,-20.92 625.52,-25.19 626.07,-18.21"/>
</g>
<!-- Node23 -->
<g id="node23" class="node">
<title>Node23</title>
<g id="a_node23"><a xlink:title=" ">
<polygon fill="white" stroke="black" points="181,-208.5 181,-260.5 358,-260.5 358,-208.5 181,-208.5"/>
<text text-anchor="start" x="189" y="-248.5" font-family="Helvetica,sans-Serif" font-size="10.00">DefaultUndirectedGraph</text>
<text text-anchor="start" x="189" y="-237.5" font-family="Helvetica,sans-Serif" font-size="10.00">&lt; denoptim.graph.Vertex,</text>
<text text-anchor="start" x="189" y="-226.5" font-family="Helvetica,sans-Serif" font-size="10.00"> denoptim.graph.simplified.Undirected</text>
<text text-anchor="middle" x="269.5" y="-215.5" font-family="Helvetica,sans-Serif" font-size="10.00">Edge &gt;</text>
</a>
</g>
</g>
<!-- Node23&#45;&gt;Node4 -->
<g id="edge30" class="edge">
<title>Node23&#45;&gt;Node4</title>
<path fill="none" stroke="#9a32cd" stroke-dasharray="5,2" d="M368.15,-234.93C395.48,-239.15 423.76,-247.81 446,-264.5 460.63,-275.47 452.32,-287.43 464,-301.5 482.11,-323.31 509.74,-341.54 527.58,-351.99"/>
<polygon fill="#9a32cd" stroke="#9a32cd" points="368.52,-231.45 358.14,-233.57 367.58,-238.38 368.52,-231.45"/>
<text text-anchor="middle" x="411.5" y="-267.5" font-family="Helvetica,sans-Serif" font-size="10.00"> jGraph</text>
</g>
<!-- Node24 -->
<g id="node24" class="node">
<title>Node24</title>
<g id="a_node24"><a xlink:title=" ">
<polygon fill="white" stroke="black" points="180,-137.5 180,-189.5 359,-189.5 359,-137.5 180,-137.5"/>
<text text-anchor="start" x="188" y="-177.5" font-family="Helvetica,sans-Serif" font-size="10.00">DefaultUndirectedGraph</text>
<text text-anchor="start" x="188" y="-166.5" font-family="Helvetica,sans-Serif" font-size="10.00">&lt; denoptim.graph.simplified.</text>
<text text-anchor="start" x="188" y="-155.5" font-family="Helvetica,sans-Serif" font-size="10.00">Node, denoptim.graph.simplified.Node</text>
<text text-anchor="middle" x="269.5" y="-144.5" font-family="Helvetica,sans-Serif" font-size="10.00">Connection &gt;</text>
</a>
</g>
</g>
<!-- Node24&#45;&gt;Node4 -->
<g id="edge31" class="edge">
<title>Node24&#45;&gt;Node4</title>
<path fill="none" stroke="#9a32cd" stroke-dasharray="5,2" d="M369.35,-177.32C397.57,-185.81 426.04,-199.49 446,-221.5 470.48,-248.5 444.11,-270.96 464,-301.5 478.99,-324.52 506.06,-341.87 524.76,-351.85"/>
<polygon fill="#9a32cd" stroke="#9a32cd" points="369.96,-173.86 359.39,-174.53 368.07,-180.6 369.96,-173.86"/>
<text text-anchor="middle" x="411.5" y="-224.5" font-family="Helvetica,sans-Serif" font-size="10.00"> jGraphKernel</text>
</g>
</g>
</svg>
        <g id="navigator" transform="translate(0 0)" fill="#404254">
                <rect fill="#f2f5e9" fill-opacity="0.5" stroke="#606060" stroke-width=".5" x="0" y="0" width="60" height="60"/>
                <use id="zoomplus" xlink:href="#zoomPlus" x="17" y="9" onmousedown="handleZoom(evt,'in')"/>
                <use id="zoomminus" xlink:href="#zoomMin" x="42" y="9" onmousedown="handleZoom(evt,'out')"/>
                <use id="reset" xlink:href="#resetDef" x="30" y="36" onmousedown="handleReset()"/>
                <g id="arrowUp" xlink:href="#dirArrow" transform="translate(30 24)" onmousedown="handlePan(0,-1)">
                  <use xlink:href="#rim" fill="#404040">
                        <set attributeName="fill" to="#808080" begin="arrowUp.mouseover" end="arrowUp.mouseout"/>
                  </use>
                  <path fill="none" stroke="white" stroke-width="1.5" d="M0,-3.0v7 M-2.5,-0.5L0,-3.0L2.5,-0.5"/>
                </g>
                <g id="arrowRight" xlink:href="#dirArrow" transform="rotate(90) translate(36 -43)" onmousedown="handlePan(1,0)">
                  <use xlink:href="#rim" fill="#404040">
                        <set attributeName="fill" to="#808080" begin="arrowRight.mouseover" end="arrowRight.mouseout"/>
                  </use>
                  <path fill="none" stroke="white" stroke-width="1.5" d="M0,-3.0v7 M-2.5,-0.5L0,-3.0L2.5,-0.5"/>
                </g>
                <g id="arrowDown" xlink:href="#dirArrow" transform="rotate(180) translate(-30 -48)" onmousedown="handlePan(0,1)">
                  <use xlink:href="#rim" fill="#404040">
                        <set attributeName="fill" to="#808080" begin="arrowDown.mouseover" end="arrowDown.mouseout"/>
                  </use>
                  <path fill="none" stroke="white" stroke-width="1.5" d="M0,-3.0v7 M-2.5,-0.5L0,-3.0L2.5,-0.5"/>
                </g>
                <g id="arrowLeft" xlink:href="#dirArrow" transform="rotate(270) translate(-36 17)" onmousedown="handlePan(-1,0)">
                  <use xlink:href="#rim" fill="#404040">
                        <set attributeName="fill" to="#808080" begin="arrowLeft.mouseover" end="arrowLeft.mouseout"/>
                  </use>
                  <path fill="none" stroke="white" stroke-width="1.5" d="M0,-3.0v7 M-2.5,-0.5L0,-3.0L2.5,-0.5"/>
                </g>
        </g>
        <svg viewBox="0 0 15 15" width="100%" height="30px" preserveAspectRatio="xMaxYMin meet">
         <g id="arrow_out" transform="scale(0.3 0.3)">
          <a xlink:href="classdenoptim_1_1graph_1_1_candidate__coll__graph_org.svg" target="_base">
           <rect id="button" ry="5" rx="5" y="6" x="6" height="38" width="38"
                fill="#f2f5e9" fill-opacity="0.5" stroke="#606060" stroke-width="1.0"/>
           <path id="arrow"
             d="M 11.500037,31.436501 C 11.940474,20.09759 22.043105,11.32322 32.158766,21.979434 L 37.068811,17.246167 C 37.068811,17.246167 37.088388,32 37.088388,32 L 22.160133,31.978069 C 22.160133,31.978069 26.997745,27.140456 26.997745,27.140456 C 18.528582,18.264221 13.291696,25.230495 11.500037,31.436501 z"
             style="fill:#404040;"/>
          </a>
         </g>
        </svg>
</svg>
