<?xml version="1.0" encoding="UTF-8" standalone="no"?>
<!DOCTYPE svg PUBLIC "-//W3C//DTD SVG 1.1//EN"
 "http://www.w3.org/Graphics/SVG/1.1/DTD/svg11.dtd">
<!-- Generated by graphviz version 3.0.0 (20220413.0242)
 -->
<!-- Title: denoptim.graph.DGraph.findVertices Pages: 1 -->
<!--zoomable 988 -->
<svg id="main" version="1.1" xmlns="http://www.w3.org/2000/svg" xmlns:xlink="http://www.w3.org/1999/xlink" xml:space="preserve" onload="init(evt)">
<style type="text/css"><![CDATA[
.edge:hover path { stroke: red; }
.edge:hover polygon { stroke: red; fill: red; }
]]></style>
<script type="text/javascript"><![CDATA[
var edges = document.getElementsByTagName('g');
if (edges && edges.length) {
  for (var i=0;i<edges.length;i++) {
    if (edges[i].id.substr(0,4)=='edge') {
      edges[i].setAttribute('class','edge');
    }
  }
}
]]></script>
        <defs>
                <circle id="rim" cx="0" cy="0" r="7"/>
                <circle id="rim2" cx="0" cy="0" r="3.5"/>
                <g id="zoomPlus">
                        <use xlink:href="#rim" fill="#404040">
                                <set attributeName="fill" to="#808080" begin="zoomplus.mouseover" end="zoomplus.mouseout"/>
                        </use>
                        <path d="M-4,0h8M0,-4v8" fill="none" stroke="white" stroke-width="1.5" pointer-events="none"/>
                </g>
                <g id="zoomMin">
                        <use xlink:href="#rim" fill="#404040">
                                <set attributeName="fill" to="#808080" begin="zoomminus.mouseover" end="zoomminus.mouseout"/>
                        </use>
                        <path d="M-4,0h8" fill="none" stroke="white" stroke-width="1.5" pointer-events="none"/>
                </g>
                <g id="dirArrow">
                        <path fill="none" stroke="white" stroke-width="1.5" d="M0,-3.0v7 M-2.5,-0.5L0,-3.0L2.5,-0.5"/>
                </g>
               <g id="resetDef">
                       <use xlink:href="#rim2" fill="#404040">
                               <set attributeName="fill" to="#808080" begin="reset.mouseover" end="reset.mouseout"/>
                       </use>
               </g>
        </defs>

<script type="text/javascript">
var viewWidth = 1055;
var viewHeight = 988;
var sectionId = 'dynsection-51';
</script>
<script xlink:href="svgpan.js"/>
<svg id="graph" class="graph">
<g id="viewport">
<title>denoptim.graph.DGraph.findVertices</title>
<polygon fill="white" stroke="transparent" points="-4,4 -4,-983.96 1051,-983.96 1051,4 -4,4"/>
<!-- Node1 -->
<g id="node1" class="node">
<title>Node1</title>
<g id="a_node1"><a xlink:title="Filters a list of vertices according to a query.">
<polygon fill="#bfbfbf" stroke="black" points="0,-514.5 0,-544.5 135,-544.5 135,-514.5 0,-514.5"/>
<text text-anchor="start" x="8" y="-532.5" font-family="Helvetica,sans-Serif" font-size="10.00">denoptim.graph.DGraph.find</text>
<text text-anchor="middle" x="67.5" y="-521.5" font-family="Helvetica,sans-Serif" font-size="10.00">Vertices</text>
</a>
</g>
</g>
<!-- Node2 -->
<g id="node2" class="node">
<title>Node2</title>
<g id="a_node2"><a xlink:href="classdenoptim_1_1graph_1_1_d_graph_1_1_edge_finder.html#ab680e7b151a5a8592f8555a589d9f6d4" target="_top" xlink:title=" ">
<polygon fill="white" stroke="black" points="531.5,-922.5 531.5,-952.5 673.5,-952.5 673.5,-922.5 531.5,-922.5"/>
<text text-anchor="start" x="539.5" y="-940.5" font-family="Helvetica,sans-Serif" font-size="10.00">denoptim.graph.DGraph.Edge</text>
<text text-anchor="middle" x="602.5" y="-929.5" font-family="Helvetica,sans-Serif" font-size="10.00">Finder.apply</text>
</a>
</g>
</g>
<!-- Node1&#45;&gt;Node2 -->
<g id="edge1" class="edge">
<title>Node1&#45;&gt;Node2</title>
<path fill="none" stroke="midnightblue" d="M70.06,-544.51C77.26,-610.44 109.5,-873.24 171,-922.5 278.18,-1008.34 453.08,-978.76 543.42,-955.17"/>
<polygon fill="midnightblue" stroke="midnightblue" points="544.46,-958.51 553.21,-952.55 542.65,-951.75 544.46,-958.51"/>
</g>
<!-- Node6 -->
<g id="node6" class="node">
<title>Node6</title>
<g id="a_node6"><a xlink:href="classdenoptim_1_1graph_1_1_edge_query.html#aa56069e35cc44415b1efea8332199879" target="_top" xlink:title=" ">
<polygon fill="white" stroke="black" points="174,-882.5 174,-912.5 322,-912.5 322,-882.5 174,-882.5"/>
<text text-anchor="start" x="182" y="-900.5" font-family="Helvetica,sans-Serif" font-size="10.00">denoptim.graph.EdgeQuery.get</text>
<text text-anchor="middle" x="248" y="-889.5" font-family="Helvetica,sans-Serif" font-size="10.00">BondType</text>
</a>
</g>
</g>
<!-- Node1&#45;&gt;Node6 -->
<g id="edge6" class="edge">
<title>Node1&#45;&gt;Node6</title>
<path fill="none" stroke="midnightblue" d="M68.31,-544.67C68.49,-597.79 76.38,-777.33 171,-873.5 172.06,-874.58 173.17,-875.61 174.32,-876.59"/>
<polygon fill="midnightblue" stroke="midnightblue" points="172.3,-879.45 182.47,-882.44 176.39,-873.77 172.3,-879.45"/>
</g>
<!-- Node7 -->
<g id="node7" class="node">
<title>Node7</title>
<g id="a_node7"><a xlink:href="classdenoptim_1_1graph_1_1_vertex_query.html#a5ff48ed0a0c4551658a06777616b1fe7" target="_top" xlink:title=" ">
<polygon fill="white" stroke="black" points="171,-833.5 171,-863.5 325,-863.5 325,-833.5 171,-833.5"/>
<text text-anchor="start" x="179" y="-851.5" font-family="Helvetica,sans-Serif" font-size="10.00">denoptim.graph.VertexQuery.get</text>
<text text-anchor="middle" x="248" y="-840.5" font-family="Helvetica,sans-Serif" font-size="10.00">InEdgeQuery</text>
</a>
</g>
</g>
<!-- Node1&#45;&gt;Node7 -->
<g id="edge7" class="edge">
<title>Node1&#45;&gt;Node7</title>
<path fill="none" stroke="midnightblue" d="M69.17,-544.52C72.15,-592.53 87.99,-743.82 171,-824.5 172.12,-825.58 173.28,-826.62 174.49,-827.61"/>
<polygon fill="midnightblue" stroke="midnightblue" points="172.78,-830.68 183,-833.48 176.76,-824.92 172.78,-830.68"/>
</g>
<!-- Node8 -->
<g id="node8" class="node">
<title>Node8</title>
<g id="a_node8"><a xlink:href="classdenoptim_1_1graph_1_1_d_graph.html#a9677d31ec5986be0e1694dfd1a184f5f" target="_top" xlink:title="Calculates the level of a vertex in this graph.">
<polygon fill="white" stroke="black" points="181,-784.5 181,-814.5 315,-814.5 315,-784.5 181,-784.5"/>
<text text-anchor="start" x="189" y="-802.5" font-family="Helvetica,sans-Serif" font-size="10.00">denoptim.graph.DGraph.get</text>
<text text-anchor="middle" x="248" y="-791.5" font-family="Helvetica,sans-Serif" font-size="10.00">Level</text>
</a>
</g>
</g>
<!-- Node1&#45;&gt;Node8 -->
<g id="edge8" class="edge">
<title>Node1&#45;&gt;Node8</title>
<path fill="none" stroke="midnightblue" d="M70.38,-544.73C76.48,-587.57 99.65,-710.23 171,-775.5 172.3,-776.69 173.66,-777.82 175.06,-778.89"/>
<polygon fill="midnightblue" stroke="midnightblue" points="173.31,-781.92 183.6,-784.45 177.13,-776.06 173.31,-781.92"/>
</g>
<!-- Node13 -->
<g id="node13" class="node">
<title>Node13</title>
<g id="a_node13"><a xlink:href="classdenoptim_1_1graph_1_1_vertex_query.html#a8c647cfdd1ddac15d8c5e98e8851c17e" target="_top" xlink:title=" ">
<polygon fill="white" stroke="black" points="171,-735.5 171,-765.5 325,-765.5 325,-735.5 171,-735.5"/>
<text text-anchor="start" x="179" y="-753.5" font-family="Helvetica,sans-Serif" font-size="10.00">denoptim.graph.VertexQuery.get</text>
<text text-anchor="middle" x="248" y="-742.5" font-family="Helvetica,sans-Serif" font-size="10.00">OutEdgeQuery</text>
</a>
</g>
</g>
<!-- Node1&#45;&gt;Node13 -->
<g id="edge15" class="edge">
<title>Node1&#45;&gt;Node13</title>
<path fill="none" stroke="midnightblue" d="M72.08,-544.59C81.59,-581.32 110.91,-676.05 171,-726.5 172.55,-727.8 174.17,-729.03 175.85,-730.2"/>
<polygon fill="midnightblue" stroke="midnightblue" points="174.29,-733.34 184.66,-735.48 177.89,-727.34 174.29,-733.34"/>
</g>
<!-- Node14 -->
<g id="node14" class="node">
<title>Node14</title>
<g id="a_node14"><a xlink:href="classdenoptim_1_1graph_1_1_edge_query.html#a4f7c8caa2f5caddabef8bc3523b9884e" target="_top" xlink:title=" ">
<polygon fill="white" stroke="black" points="174,-686.5 174,-716.5 322,-716.5 322,-686.5 174,-686.5"/>
<text text-anchor="start" x="182" y="-704.5" font-family="Helvetica,sans-Serif" font-size="10.00">denoptim.graph.EdgeQuery.get</text>
<text text-anchor="middle" x="248" y="-693.5" font-family="Helvetica,sans-Serif" font-size="10.00">SourceAPClass</text>
</a>
</g>
</g>
<!-- Node1&#45;&gt;Node14 -->
<g id="edge16" class="edge">
<title>Node1&#45;&gt;Node14</title>
<path fill="none" stroke="midnightblue" d="M74.83,-544.54C88.15,-574.39 121.95,-641.32 171,-677.5 173.05,-679.01 175.19,-680.43 177.41,-681.75"/>
<polygon fill="midnightblue" stroke="midnightblue" points="175.8,-684.86 186.27,-686.46 179.08,-678.68 175.8,-684.86"/>
</g>
<!-- Node15 -->
<g id="node15" class="node">
<title>Node15</title>
<g id="a_node15"><a xlink:href="classdenoptim_1_1graph_1_1_edge_query.html#aa64da4ae1c252fb8d5f6811c0a8f390e" target="_top" xlink:title=" ">
<polygon fill="white" stroke="black" points="174,-637.5 174,-667.5 322,-667.5 322,-637.5 174,-637.5"/>
<text text-anchor="start" x="182" y="-655.5" font-family="Helvetica,sans-Serif" font-size="10.00">denoptim.graph.EdgeQuery.get</text>
<text text-anchor="middle" x="248" y="-644.5" font-family="Helvetica,sans-Serif" font-size="10.00">SourceAPIdx</text>
</a>
</g>
</g>
<!-- Node1&#45;&gt;Node15 -->
<g id="edge17" class="edge">
<title>Node1&#45;&gt;Node15</title>
<path fill="none" stroke="midnightblue" d="M80.41,-544.83C98,-566.47 132.95,-605.85 171,-628.5 173.85,-630.2 176.84,-631.79 179.91,-633.28"/>
<polygon fill="midnightblue" stroke="midnightblue" points="178.76,-636.6 189.32,-637.44 181.59,-630.19 178.76,-636.6"/>
</g>
<!-- Node16 -->
<g id="node16" class="node">
<title>Node16</title>
<g id="a_node16"><a xlink:href="classdenoptim_1_1graph_1_1_edge_query.html#a790cb8b7bec87a117c1ea54f794cdc81" target="_top" xlink:title=" ">
<polygon fill="white" stroke="black" points="174,-588.5 174,-618.5 322,-618.5 322,-588.5 174,-588.5"/>
<text text-anchor="start" x="182" y="-606.5" font-family="Helvetica,sans-Serif" font-size="10.00">denoptim.graph.EdgeQuery.get</text>
<text text-anchor="middle" x="248" y="-595.5" font-family="Helvetica,sans-Serif" font-size="10.00">SourceVertexId</text>
</a>
</g>
</g>
<!-- Node1&#45;&gt;Node16 -->
<g id="edge18" class="edge">
<title>Node1&#45;&gt;Node16</title>
<path fill="none" stroke="midnightblue" d="M96.71,-544.66C117.02,-555.23 145.26,-569.22 171,-579.5 175.78,-581.41 180.77,-583.27 185.81,-585.05"/>
<polygon fill="midnightblue" stroke="midnightblue" points="184.94,-588.45 195.53,-588.39 187.21,-581.83 184.94,-588.45"/>
</g>
<!-- Node17 -->
<g id="node17" class="node">
<title>Node17</title>
<g id="a_node17"><a xlink:href="classdenoptim_1_1graph_1_1_edge_query.html#a9287c527bdea64e2c4a7e144e2ff4c1c" target="_top" xlink:title=" ">
<polygon fill="white" stroke="black" points="174,-539.5 174,-569.5 322,-569.5 322,-539.5 174,-539.5"/>
<text text-anchor="start" x="182" y="-557.5" font-family="Helvetica,sans-Serif" font-size="10.00">denoptim.graph.EdgeQuery.get</text>
<text text-anchor="middle" x="248" y="-546.5" font-family="Helvetica,sans-Serif" font-size="10.00">TargetAPClass</text>
</a>
</g>
</g>
<!-- Node1&#45;&gt;Node17 -->
<g id="edge19" class="edge">
<title>Node1&#45;&gt;Node17</title>
<path fill="none" stroke="midnightblue" d="M135.22,-538.84C144.55,-540.15 154.24,-541.51 163.83,-542.85"/>
<polygon fill="midnightblue" stroke="midnightblue" points="163.39,-546.32 173.77,-544.24 164.36,-539.39 163.39,-546.32"/>
</g>
<!-- Node18 -->
<g id="node18" class="node">
<title>Node18</title>
<g id="a_node18"><a xlink:href="classdenoptim_1_1graph_1_1_edge_query.html#a23d4aaf735e2654a17b699e32ce538c8" target="_top" xlink:title=" ">
<polygon fill="white" stroke="black" points="174,-490.5 174,-520.5 322,-520.5 322,-490.5 174,-490.5"/>
<text text-anchor="start" x="182" y="-508.5" font-family="Helvetica,sans-Serif" font-size="10.00">denoptim.graph.EdgeQuery.get</text>
<text text-anchor="middle" x="248" y="-497.5" font-family="Helvetica,sans-Serif" font-size="10.00">TargetAPIdx</text>
</a>
</g>
</g>
<!-- Node1&#45;&gt;Node18 -->
<g id="edge20" class="edge">
<title>Node1&#45;&gt;Node18</title>
<path fill="none" stroke="midnightblue" d="M135.22,-520.53C144.55,-519.27 154.24,-517.97 163.83,-516.68"/>
<polygon fill="midnightblue" stroke="midnightblue" points="164.33,-520.15 173.77,-515.35 163.4,-513.21 164.33,-520.15"/>
</g>
<!-- Node19 -->
<g id="node19" class="node">
<title>Node19</title>
<g id="a_node19"><a xlink:href="classdenoptim_1_1graph_1_1_edge_query.html#a9e175433224e57a5a4dcb40303810f9a" target="_top" xlink:title=" ">
<polygon fill="white" stroke="black" points="174,-441.5 174,-471.5 322,-471.5 322,-441.5 174,-441.5"/>
<text text-anchor="start" x="182" y="-459.5" font-family="Helvetica,sans-Serif" font-size="10.00">denoptim.graph.EdgeQuery.get</text>
<text text-anchor="middle" x="248" y="-448.5" font-family="Helvetica,sans-Serif" font-size="10.00">TargetVertexId</text>
</a>
</g>
</g>
<!-- Node1&#45;&gt;Node19 -->
<g id="edge21" class="edge">
<title>Node1&#45;&gt;Node19</title>
<path fill="none" stroke="midnightblue" d="M98.13,-514.47C118.38,-504.48 145.98,-491.43 171,-481.5 176.76,-479.21 182.82,-476.96 188.91,-474.81"/>
<polygon fill="midnightblue" stroke="midnightblue" points="190.14,-478.09 198.44,-471.51 187.85,-471.47 190.14,-478.09"/>
</g>
<!-- Node20 -->
<g id="node20" class="node">
<title>Node20</title>
<g id="a_node20"><a xlink:href="classdenoptim_1_1graph_1_1_vertex_query.html#a43d20b1041975cb48d6300ec1278dc5a" target="_top" xlink:title=" ">
<polygon fill="white" stroke="black" points="171,-392.5 171,-422.5 325,-422.5 325,-392.5 171,-392.5"/>
<text text-anchor="start" x="179" y="-410.5" font-family="Helvetica,sans-Serif" font-size="10.00">denoptim.graph.VertexQuery.get</text>
<text text-anchor="middle" x="248" y="-399.5" font-family="Helvetica,sans-Serif" font-size="10.00">VertexBBIDQuery</text>
</a>
</g>
</g>
<!-- Node1&#45;&gt;Node20 -->
<g id="edge22" class="edge">
<title>Node1&#45;&gt;Node20</title>
<path fill="none" stroke="midnightblue" d="M80.82,-514.19C98.62,-493.01 133.55,-454.84 171,-432.5 174.46,-430.44 178.11,-428.52 181.86,-426.75"/>
<polygon fill="midnightblue" stroke="midnightblue" points="183.58,-429.82 191.35,-422.62 180.78,-423.4 183.58,-429.82"/>
</g>
<!-- Node21 -->
<g id="node21" class="node">
<title>Node21</title>
<g id="a_node21"><a xlink:href="classdenoptim_1_1graph_1_1_vertex_query.html#aafa1d392dec14c1d08363a815ab26dfd" target="_top" xlink:title=" ">
<polygon fill="white" stroke="black" points="171,-343.5 171,-373.5 325,-373.5 325,-343.5 171,-343.5"/>
<text text-anchor="start" x="179" y="-361.5" font-family="Helvetica,sans-Serif" font-size="10.00">denoptim.graph.VertexQuery.get</text>
<text text-anchor="middle" x="248" y="-350.5" font-family="Helvetica,sans-Serif" font-size="10.00">VertexBBTypeQuery</text>
</a>
</g>
</g>
<!-- Node1&#45;&gt;Node21 -->
<g id="edge23" class="edge">
<title>Node1&#45;&gt;Node21</title>
<path fill="none" stroke="midnightblue" d="M75.13,-514.26C88.76,-484.68 122.75,-419.3 171,-383.5 173.62,-381.56 176.4,-379.76 179.29,-378.09"/>
<polygon fill="midnightblue" stroke="midnightblue" points="180.93,-381.19 188.23,-373.5 177.73,-374.96 180.93,-381.19"/>
</g>
<!-- Node22 -->
<g id="node22" class="node">
<title>Node22</title>
<g id="a_node22"><a xlink:href="classdenoptim_1_1graph_1_1_vertex_query.html#aea2c56c803d8efdec4a45b1b3d00b6f4" target="_top" xlink:title=" ">
<polygon fill="white" stroke="black" points="171,-294.5 171,-324.5 325,-324.5 325,-294.5 171,-294.5"/>
<text text-anchor="start" x="179" y="-312.5" font-family="Helvetica,sans-Serif" font-size="10.00">denoptim.graph.VertexQuery.get</text>
<text text-anchor="middle" x="248" y="-301.5" font-family="Helvetica,sans-Serif" font-size="10.00">VertexIDQuery</text>
</a>
</g>
</g>
<!-- Node1&#45;&gt;Node22 -->
<g id="edge24" class="edge">
<title>Node1&#45;&gt;Node22</title>
<path fill="none" stroke="midnightblue" d="M72.24,-514.34C82.01,-477.88 111.73,-384.65 171,-334.5 172.99,-332.81 175.11,-331.24 177.31,-329.77"/>
<polygon fill="midnightblue" stroke="midnightblue" points="179.3,-332.66 186.18,-324.61 175.78,-326.61 179.3,-332.66"/>
</g>
<!-- Node23 -->
<g id="node23" class="node">
<title>Node23</title>
<g id="a_node23"><a xlink:href="classdenoptim_1_1graph_1_1_vertex_query.html#a4afcb06bb1c404ebb4e647480172b6f3" target="_top" xlink:title=" ">
<polygon fill="white" stroke="black" points="171,-245.5 171,-275.5 325,-275.5 325,-245.5 171,-245.5"/>
<text text-anchor="start" x="179" y="-263.5" font-family="Helvetica,sans-Serif" font-size="10.00">denoptim.graph.VertexQuery.get</text>
<text text-anchor="middle" x="248" y="-252.5" font-family="Helvetica,sans-Serif" font-size="10.00">VertexLevelQuery</text>
</a>
</g>
</g>
<!-- Node1&#45;&gt;Node23 -->
<g id="edge25" class="edge">
<title>Node1&#45;&gt;Node23</title>
<path fill="none" stroke="midnightblue" d="M70.46,-514.43C76.77,-472.05 100.44,-350.64 171,-285.5 172.7,-283.93 174.5,-282.46 176.38,-281.08"/>
<polygon fill="midnightblue" stroke="midnightblue" points="178.48,-283.9 185.08,-275.61 174.75,-277.97 178.48,-283.9"/>
</g>
<!-- Node24 -->
<g id="node24" class="node">
<title>Node24</title>
<g id="a_node24"><a xlink:href="classdenoptim_1_1graph_1_1_d_graph.html#ac9bd2a29337782ffdc07a2a2fc70f135" target="_top" xlink:title=" ">
<polygon fill="white" stroke="black" points="181,-196.5 181,-226.5 315,-226.5 315,-196.5 181,-196.5"/>
<text text-anchor="start" x="189" y="-214.5" font-family="Helvetica,sans-Serif" font-size="10.00">denoptim.graph.DGraph.get</text>
<text text-anchor="middle" x="248" y="-203.5" font-family="Helvetica,sans-Serif" font-size="10.00">VertexList</text>
</a>
</g>
</g>
<!-- Node1&#45;&gt;Node24 -->
<g id="edge26" class="edge">
<title>Node1&#45;&gt;Node24</title>
<path fill="none" stroke="midnightblue" d="M69.21,-514.19C72.29,-465.97 88.39,-315.7 171,-235.5 172.12,-234.42 173.28,-233.38 174.49,-232.39"/>
<polygon fill="midnightblue" stroke="midnightblue" points="176.76,-235.08 183,-226.52 172.78,-229.32 176.76,-235.08"/>
</g>
<!-- Node25 -->
<g id="node25" class="node">
<title>Node25</title>
<g id="a_node25"><a xlink:href="classdenoptim_1_1graph_1_1_vertex_query.html#a5995181e0184e1455f820df1b4f6f6b8" target="_top" xlink:title=" ">
<polygon fill="white" stroke="black" points="171,-147.5 171,-177.5 325,-177.5 325,-147.5 171,-147.5"/>
<text text-anchor="start" x="179" y="-165.5" font-family="Helvetica,sans-Serif" font-size="10.00">denoptim.graph.VertexQuery.get</text>
<text text-anchor="middle" x="248" y="-154.5" font-family="Helvetica,sans-Serif" font-size="10.00">VertexTypeQuery</text>
</a>
</g>
</g>
<!-- Node1&#45;&gt;Node25 -->
<g id="edge27" class="edge">
<title>Node1&#45;&gt;Node25</title>
<path fill="none" stroke="midnightblue" d="M68.33,-514.37C68.56,-461.41 76.59,-282.38 171,-186.5 172.06,-185.42 173.17,-184.39 174.32,-183.41"/>
<polygon fill="midnightblue" stroke="midnightblue" points="176.39,-186.24 182.47,-177.56 172.3,-180.55 176.39,-186.24"/>
</g>
<!-- Node26 -->
<g id="node26" class="node">
<title>Node26</title>
<g id="a_node26"><a xlink:href="classdenoptim_1_1graph_1_1_d_graph.html#a8e3e3bad36d425ffba874cf557b2d3d2" target="_top" xlink:title="Remove all but one of the symmetry&#45;related partners in a list of vertices.">
<polygon fill="white" stroke="black" points="172,-98.5 172,-128.5 324,-128.5 324,-98.5 172,-98.5"/>
<text text-anchor="start" x="180" y="-116.5" font-family="Helvetica,sans-Serif" font-size="10.00">denoptim.graph.DGraph.remove</text>
<text text-anchor="middle" x="248" y="-105.5" font-family="Helvetica,sans-Serif" font-size="10.00">SymmetryRedundance</text>
</a>
</g>
</g>
<!-- Node1&#45;&gt;Node26 -->
<g id="edge28" class="edge">
<title>Node1&#45;&gt;Node26</title>
<path fill="none" stroke="midnightblue" d="M70.48,-514.47C79.29,-449.6 116.95,-194.33 171,-137.5 171.91,-136.54 172.86,-135.62 173.85,-134.74"/>
<polygon fill="midnightblue" stroke="midnightblue" points="176.07,-137.44 181.98,-128.65 171.88,-131.84 176.07,-137.44"/>
</g>
<!-- Node3 -->
<g id="node3" class="node">
<title>Node3</title>
<g id="a_node3"><a xlink:href="classdenoptim_1_1graph_1_1_vertex.html#a022f7c9075b178f17e13339b215ee21f" target="_top" xlink:title=" ">
<polygon fill="white" stroke="black" points="908,-922.5 908,-952.5 1036,-952.5 1036,-922.5 908,-922.5"/>
<text text-anchor="start" x="916" y="-940.5" font-family="Helvetica,sans-Serif" font-size="10.00">denoptim.graph.Vertex.get</text>
<text text-anchor="middle" x="972" y="-929.5" font-family="Helvetica,sans-Serif" font-size="10.00">AttachmentPoints</text>
</a>
</g>
</g>
<!-- Node2&#45;&gt;Node3 -->
<g id="edge2" class="edge">
<title>Node2&#45;&gt;Node3</title>
<path fill="none" stroke="midnightblue" d="M673.92,-937.5C738.12,-937.5 832.6,-937.5 897.68,-937.5"/>
<polygon fill="midnightblue" stroke="midnightblue" points="897.87,-941 907.87,-937.5 897.87,-934 897.87,-941"/>
</g>
<!-- Node4 -->
<g id="node4" class="node">
<title>Node4</title>
<g id="a_node4"><a xlink:href="classdenoptim_1_1graph_1_1_vertex.html#a2937a75fd3652481c84235742b94736b" target="_top" xlink:title="Looks into the edges that use any of the APs that belong to this vertex and returns the edge that has...">
<polygon fill="white" stroke="black" points="721.5,-878.5 721.5,-908.5 849.5,-908.5 849.5,-878.5 721.5,-878.5"/>
<text text-anchor="start" x="729.5" y="-896.5" font-family="Helvetica,sans-Serif" font-size="10.00">denoptim.graph.Vertex.get</text>
<text text-anchor="middle" x="785.5" y="-885.5" font-family="Helvetica,sans-Serif" font-size="10.00">EdgeToParent</text>
</a>
</g>
</g>
<!-- Node2&#45;&gt;Node4 -->
<g id="edge3" class="edge">
<title>Node2&#45;&gt;Node4</title>
<path fill="none" stroke="midnightblue" d="M665.28,-922.48C680.49,-918.78 696.9,-914.79 712.54,-910.99"/>
<polygon fill="midnightblue" stroke="midnightblue" points="713.8,-914.29 722.69,-908.53 712.14,-907.49 713.8,-914.29"/>
</g>
<!-- Node4&#45;&gt;Node3 -->
<g id="edge4" class="edge">
<title>Node4&#45;&gt;Node3</title>
<path fill="none" stroke="midnightblue" d="M849.48,-908.52C865.13,-912.25 882.03,-916.28 898.11,-920.12"/>
<polygon fill="midnightblue" stroke="midnightblue" points="897.45,-923.56 907.99,-922.47 899.08,-916.75 897.45,-923.56"/>
</g>
<!-- Node5 -->
<g id="node5" class="node">
<title>Node5</title>
<g id="a_node5"><a xlink:href="classdenoptim_1_1graph_1_1_edge.html#a44521a3ad1a83e5d0a6be227e35ceffa" target="_top" xlink:title=" ">
<polygon fill="white" stroke="black" points="897,-884 897,-903 1047,-903 1047,-884 897,-884"/>
<text text-anchor="middle" x="972" y="-891" font-family="Helvetica,sans-Serif" font-size="10.00">denoptim.graph.Edge.getTrgAP</text>
</a>
</g>
</g>
<!-- Node4&#45;&gt;Node5 -->
<g id="edge5" class="edge">
<title>Node4&#45;&gt;Node5</title>
<path fill="none" stroke="midnightblue" d="M849.74,-893.5C861.55,-893.5 874.08,-893.5 886.42,-893.5"/>
<polygon fill="midnightblue" stroke="midnightblue" points="886.72,-897 896.72,-893.5 886.72,-890 886.72,-897"/>
</g>
<!-- Node9 -->
<g id="node9" class="node">
<title>Node9</title>
<g id="a_node9"><a xlink:href="classdenoptim_1_1graph_1_1_d_graph.html#aaf3eb72074f66c853ea40c06ac9bea0e" target="_top" xlink:title="Traverse the graph until it identifies the source of the directed path reachable from the given verte...">
<polygon fill="white" stroke="black" points="361,-787.5 361,-817.5 495,-817.5 495,-787.5 361,-787.5"/>
<text text-anchor="start" x="369" y="-805.5" font-family="Helvetica,sans-Serif" font-size="10.00">denoptim.graph.DGraph.get</text>
<text text-anchor="middle" x="428" y="-794.5" font-family="Helvetica,sans-Serif" font-size="10.00">ParentTree</text>
</a>
</g>
</g>
<!-- Node8&#45;&gt;Node9 -->
<g id="edge9" class="edge">
<title>Node8&#45;&gt;Node9</title>
<path fill="none" stroke="midnightblue" d="M315.03,-800.61C326.58,-800.81 338.69,-801.01 350.5,-801.21"/>
<polygon fill="midnightblue" stroke="midnightblue" points="350.72,-804.71 360.78,-801.38 350.84,-797.72 350.72,-804.71"/>
</g>
<!-- Node9&#45;&gt;Node9 -->
<g id="edge14" class="edge">
<title>Node9&#45;&gt;Node9</title>
<path fill="none" stroke="midnightblue" d="M397.68,-817.66C390.36,-827.06 400.47,-836 428,-836 444.77,-836 455.08,-832.68 458.92,-827.96"/>
<polygon fill="midnightblue" stroke="midnightblue" points="462.39,-827.44 458.32,-817.66 455.41,-827.84 462.39,-827.44"/>
</g>
<!-- Node10 -->
<g id="node10" class="node">
<title>Node10</title>
<g id="a_node10"><a xlink:href="classdenoptim_1_1graph_1_1_d_graph.html#a978d4b9f0c7e555fa1db7ed5a6af5a6c" target="_top" xlink:title=" ">
<polygon fill="white" stroke="black" points="535.5,-793.5 535.5,-823.5 669.5,-823.5 669.5,-793.5 535.5,-793.5"/>
<text text-anchor="start" x="543.5" y="-811.5" font-family="Helvetica,sans-Serif" font-size="10.00">denoptim.graph.DGraph.get</text>
<text text-anchor="middle" x="602.5" y="-800.5" font-family="Helvetica,sans-Serif" font-size="10.00">Parent</text>
</a>
</g>
</g>
<!-- Node9&#45;&gt;Node10 -->
<g id="edge10" class="edge">
<title>Node9&#45;&gt;Node10</title>
<path fill="none" stroke="midnightblue" d="M495.2,-804.8C505.1,-805.15 515.38,-805.5 525.47,-805.86"/>
<polygon fill="midnightblue" stroke="midnightblue" points="525.36,-809.35 535.48,-806.2 525.61,-802.36 525.36,-809.35"/>
</g>
<!-- Node10&#45;&gt;Node4 -->
<g id="edge11" class="edge">
<title>Node10&#45;&gt;Node4</title>
<path fill="none" stroke="midnightblue" d="M635.44,-823.5C665.37,-837.56 710.27,-858.64 742.97,-874"/>
<polygon fill="midnightblue" stroke="midnightblue" points="741.73,-877.28 752.27,-878.36 744.7,-870.94 741.73,-877.28"/>
</g>
<!-- Node11 -->
<g id="node11" class="node">
<title>Node11</title>
<g id="a_node11"><a xlink:href="classdenoptim_1_1graph_1_1_attachment_point.html#ac8551521d38644f5109800b665957ee9" target="_top" xlink:title=" ">
<polygon fill="white" stroke="black" points="718,-805.5 718,-835.5 853,-835.5 853,-805.5 718,-805.5"/>
<text text-anchor="start" x="726" y="-823.5" font-family="Helvetica,sans-Serif" font-size="10.00">denoptim.graph.Attachment</text>
<text text-anchor="middle" x="785.5" y="-812.5" font-family="Helvetica,sans-Serif" font-size="10.00">Point.getOwner</text>
</a>
</g>
</g>
<!-- Node10&#45;&gt;Node11 -->
<g id="edge12" class="edge">
<title>Node10&#45;&gt;Node11</title>
<path fill="none" stroke="midnightblue" d="M669.61,-812.88C682.04,-813.71 695.14,-814.58 707.86,-815.42"/>
<polygon fill="midnightblue" stroke="midnightblue" points="707.75,-818.92 717.96,-816.09 708.21,-811.93 707.75,-818.92"/>
</g>
<!-- Node12 -->
<g id="node12" class="node">
<title>Node12</title>
<g id="a_node12"><a xlink:href="classdenoptim_1_1graph_1_1_edge.html#a658e275a18a50f12474777f5f28c35e9" target="_top" xlink:title=" ">
<polygon fill="white" stroke="black" points="710,-767 710,-786 861,-786 861,-767 710,-767"/>
<text text-anchor="middle" x="785.5" y="-774" font-family="Helvetica,sans-Serif" font-size="10.00">denoptim.graph.Edge.getSrcAP</text>
</a>
</g>
</g>
<!-- Node10&#45;&gt;Node12 -->
<g id="edge13" class="edge">
<title>Node10&#45;&gt;Node12</title>
<path fill="none" stroke="midnightblue" d="M669.61,-796.81C686.26,-793.87 704.09,-790.72 720.62,-787.79"/>
<polygon fill="midnightblue" stroke="midnightblue" points="721.48,-791.2 730.72,-786.01 720.26,-784.3 721.48,-791.2"/>
</g>
<!-- Node27 -->
<g id="node27" class="node">
<title>Node27</title>
<g id="a_node27"><a xlink:href="classdenoptim_1_1graph_1_1_symmetric_set.html#aca0357f0402f8d0d5191ed6b60826baf" target="_top" xlink:title="Adds an identifiers to this list.">
<polygon fill="white" stroke="black" points="362.5,-196.5 362.5,-226.5 493.5,-226.5 493.5,-196.5 362.5,-196.5"/>
<text text-anchor="start" x="370.5" y="-214.5" font-family="Helvetica,sans-Serif" font-size="10.00">denoptim.graph.Symmetric</text>
<text text-anchor="middle" x="428" y="-203.5" font-family="Helvetica,sans-Serif" font-size="10.00">Set.add</text>
</a>
</g>
</g>
<!-- Node26&#45;&gt;Node27 -->
<g id="edge29" class="edge">
<title>Node26&#45;&gt;Node27</title>
<path fill="none" stroke="midnightblue" d="M309.24,-128.5C314.81,-131.06 320.16,-134.04 325,-137.5 346.97,-153.24 339.48,-170.15 361,-186.5 363.33,-188.27 365.8,-189.93 368.37,-191.48"/>
<polygon fill="midnightblue" stroke="midnightblue" points="366.93,-194.68 377.39,-196.35 370.25,-188.52 366.93,-194.68"/>
</g>
<!-- Node28 -->
<g id="node28" class="node">
<title>Node28</title>
<g id="a_node28"><a xlink:href="classdenoptim_1_1graph_1_1_symmetric_set.html#a996e43fbd782c22c7846dc65d9cd78f1" target="_top" xlink:title="Checks whether the given identifiers is contained in this set.">
<polygon fill="white" stroke="black" points="362.5,-147.5 362.5,-177.5 493.5,-177.5 493.5,-147.5 362.5,-147.5"/>
<text text-anchor="start" x="370.5" y="-165.5" font-family="Helvetica,sans-Serif" font-size="10.00">denoptim.graph.Symmetric</text>
<text text-anchor="middle" x="428" y="-154.5" font-family="Helvetica,sans-Serif" font-size="10.00">Set.contains</text>
</a>
</g>
</g>
<!-- Node26&#45;&gt;Node28 -->
<g id="edge30" class="edge">
<title>Node26&#45;&gt;Node28</title>
<path fill="none" stroke="midnightblue" d="M303.86,-128.6C322.39,-133.7 343.24,-139.44 362.45,-144.73"/>
<polygon fill="midnightblue" stroke="midnightblue" points="361.75,-148.17 372.32,-147.45 363.61,-141.42 361.75,-148.17"/>
</g>
<!-- Node29 -->
<g id="node29" class="node">
<title>Node29</title>
<g id="a_node29"><a xlink:href="classdenoptim_1_1graph_1_1_symmetric_set.html#a6b6cfeafce2492c331902274f7508f21" target="_top" xlink:title="Return the list of symmetric identifiers.">
<polygon fill="white" stroke="black" points="362.5,-98.5 362.5,-128.5 493.5,-128.5 493.5,-98.5 362.5,-98.5"/>
<text text-anchor="start" x="370.5" y="-116.5" font-family="Helvetica,sans-Serif" font-size="10.00">denoptim.graph.Symmetric</text>
<text text-anchor="middle" x="428" y="-105.5" font-family="Helvetica,sans-Serif" font-size="10.00">Set.getList</text>
</a>
</g>
</g>
<!-- Node26&#45;&gt;Node29 -->
<g id="edge31" class="edge">
<title>Node26&#45;&gt;Node29</title>
<path fill="none" stroke="midnightblue" d="M324.23,-113.5C333.57,-113.5 343.11,-113.5 352.44,-113.5"/>
<polygon fill="midnightblue" stroke="midnightblue" points="352.45,-117 362.45,-113.5 352.45,-110 352.45,-117"/>
</g>
<!-- Node30 -->
<g id="node30" class="node">
<title>Node30</title>
<g id="a_node30"><a xlink:href="classdenoptim_1_1graph_1_1_d_graph.html#a49bc7aa7c45f3aeaf6aff41095456c6e" target="_top" xlink:title="Get an iterator for the sets of symmetrically related vertices.">
<polygon fill="white" stroke="black" points="361,-49.5 361,-79.5 495,-79.5 495,-49.5 361,-49.5"/>
<text text-anchor="start" x="369" y="-67.5" font-family="Helvetica,sans-Serif" font-size="10.00">denoptim.graph.DGraph.get</text>
<text text-anchor="middle" x="428" y="-56.5" font-family="Helvetica,sans-Serif" font-size="10.00">SymSetsIterator</text>
</a>
</g>
</g>
<!-- Node26&#45;&gt;Node30 -->
<g id="edge32" class="edge">
<title>Node26&#45;&gt;Node30</title>
<path fill="none" stroke="midnightblue" d="M303.86,-98.4C322.39,-93.3 343.24,-87.56 362.45,-82.27"/>
<polygon fill="midnightblue" stroke="midnightblue" points="363.61,-85.58 372.32,-79.55 361.75,-78.83 363.61,-85.58"/>
</g>
<!-- Node31 -->
<g id="node31" class="node">
<title>Node31</title>
<g id="a_node31"><a xlink:href="classdenoptim_1_1graph_1_1_d_graph.html#af68c6f4772e3a77bbb4a63f98dc53d04" target="_top" xlink:title=" ">
<polygon fill="white" stroke="black" points="361,-0.5 361,-30.5 495,-30.5 495,-0.5 361,-0.5"/>
<text text-anchor="start" x="369" y="-18.5" font-family="Helvetica,sans-Serif" font-size="10.00">denoptim.graph.DGraph.get</text>
<text text-anchor="middle" x="428" y="-7.5" font-family="Helvetica,sans-Serif" font-size="10.00">VertexWithId</text>
</a>
</g>
</g>
<!-- Node26&#45;&gt;Node31 -->
<g id="edge33" class="edge">
<title>Node26&#45;&gt;Node31</title>
<path fill="none" stroke="midnightblue" d="M268.77,-98.36C290.5,-82.22 326.86,-56.68 361,-39.5 364.51,-37.73 368.19,-36.03 371.93,-34.4"/>
<polygon fill="midnightblue" stroke="midnightblue" points="373.41,-37.57 381.32,-30.52 370.74,-31.11 373.41,-37.57"/>
</g>
<!-- Node32 -->
<g id="node32" class="node">
<title>Node32</title>
<g id="a_node32"><a xlink:href="classdenoptim_1_1graph_1_1_d_graph.html#aff14a66b89e52205a4b6b6a633de0e7e" target="_top" xlink:title="Returns the position of the first vertex that has the given ID.">
<polygon fill="white" stroke="black" points="531,-0.5 531,-30.5 674,-30.5 674,-0.5 531,-0.5"/>
<text text-anchor="start" x="539" y="-18.5" font-family="Helvetica,sans-Serif" font-size="10.00">denoptim.graph.DGraph.index</text>
<text text-anchor="middle" x="602.5" y="-7.5" font-family="Helvetica,sans-Serif" font-size="10.00">OfVertexWithID</text>
</a>
</g>
</g>
<!-- Node31&#45;&gt;Node32 -->
<g id="edge34" class="edge">
<title>Node31&#45;&gt;Node32</title>
<path fill="none" stroke="midnightblue" d="M495.2,-15.5C503.6,-15.5 512.27,-15.5 520.86,-15.5"/>
<polygon fill="midnightblue" stroke="midnightblue" points="520.89,-19 530.89,-15.5 520.89,-12 520.89,-19"/>
</g>
<!-- Node33 -->
<g id="node33" class="node">
<title>Node33</title>
<g id="a_node33"><a xlink:href="classdenoptim_1_1graph_1_1_vertex.html#af44ae05546096ec9060d7207f38bc8e9" target="_top" xlink:title=" ">
<polygon fill="white" stroke="black" points="721.5,-0.5 721.5,-30.5 849.5,-30.5 849.5,-0.5 721.5,-0.5"/>
<text text-anchor="start" x="729.5" y="-18.5" font-family="Helvetica,sans-Serif" font-size="10.00">denoptim.graph.Vertex.get</text>
<text text-anchor="middle" x="785.5" y="-7.5" font-family="Helvetica,sans-Serif" font-size="10.00">VertexId</text>
</a>
</g>
</g>
<!-- Node32&#45;&gt;Node33 -->
<g id="edge35" class="edge">
<title>Node32&#45;&gt;Node33</title>
<path fill="none" stroke="midnightblue" d="M674.26,-15.5C686.42,-15.5 699.08,-15.5 711.3,-15.5"/>
<polygon fill="midnightblue" stroke="midnightblue" points="711.45,-19 721.45,-15.5 711.45,-12 711.45,-19"/>
</g>
</g>
</svg>
        <g id="navigator" transform="translate(0 0)" fill="#404254">
                <rect fill="#f2f5e9" fill-opacity="0.5" stroke="#606060" stroke-width=".5" x="0" y="0" width="60" height="60"/>
                <use id="zoomplus" xlink:href="#zoomPlus" x="17" y="9" onmousedown="handleZoom(evt,'in')"/>
                <use id="zoomminus" xlink:href="#zoomMin" x="42" y="9" onmousedown="handleZoom(evt,'out')"/>
                <use id="reset" xlink:href="#resetDef" x="30" y="36" onmousedown="handleReset()"/>
                <g id="arrowUp" xlink:href="#dirArrow" transform="translate(30 24)" onmousedown="handlePan(0,-1)">
                  <use xlink:href="#rim" fill="#404040">
                        <set attributeName="fill" to="#808080" begin="arrowUp.mouseover" end="arrowUp.mouseout"/>
                  </use>
                  <path fill="none" stroke="white" stroke-width="1.5" d="M0,-3.0v7 M-2.5,-0.5L0,-3.0L2.5,-0.5"/>
                </g>
                <g id="arrowRight" xlink:href="#dirArrow" transform="rotate(90) translate(36 -43)" onmousedown="handlePan(1,0)">
                  <use xlink:href="#rim" fill="#404040">
                        <set attributeName="fill" to="#808080" begin="arrowRight.mouseover" end="arrowRight.mouseout"/>
                  </use>
                  <path fill="none" stroke="white" stroke-width="1.5" d="M0,-3.0v7 M-2.5,-0.5L0,-3.0L2.5,-0.5"/>
                </g>
                <g id="arrowDown" xlink:href="#dirArrow" transform="rotate(180) translate(-30 -48)" onmousedown="handlePan(0,1)">
                  <use xlink:href="#rim" fill="#404040">
                        <set attributeName="fill" to="#808080" begin="arrowDown.mouseover" end="arrowDown.mouseout"/>
                  </use>
                  <path fill="none" stroke="white" stroke-width="1.5" d="M0,-3.0v7 M-2.5,-0.5L0,-3.0L2.5,-0.5"/>
                </g>
                <g id="arrowLeft" xlink:href="#dirArrow" transform="rotate(270) translate(-36 17)" onmousedown="handlePan(-1,0)">
                  <use xlink:href="#rim" fill="#404040">
                        <set attributeName="fill" to="#808080" begin="arrowLeft.mouseover" end="arrowLeft.mouseout"/>
                  </use>
                  <path fill="none" stroke="white" stroke-width="1.5" d="M0,-3.0v7 M-2.5,-0.5L0,-3.0L2.5,-0.5"/>
                </g>
        </g>
        <svg viewBox="0 0 15 15" width="100%" height="30px" preserveAspectRatio="xMaxYMin meet">
         <g id="arrow_out" transform="scale(0.3 0.3)">
          <a xlink:href="classdenoptim_1_1graph_1_1_d_graph_ac950db68259da0226f3d7eb549ba792c_cgraph_org.svg" target="_base">
           <rect id="button" ry="5" rx="5" y="6" x="6" height="38" width="38"
                fill="#f2f5e9" fill-opacity="0.5" stroke="#606060" stroke-width="1.0"/>
           <path id="arrow"
             d="M 11.500037,31.436501 C 11.940474,20.09759 22.043105,11.32322 32.158766,21.979434 L 37.068811,17.246167 C 37.068811,17.246167 37.088388,32 37.088388,32 L 22.160133,31.978069 C 22.160133,31.978069 26.997745,27.140456 26.997745,27.140456 C 18.528582,18.264221 13.291696,25.230495 11.500037,31.436501 z"
             style="fill:#404040;"/>
          </a>
         </g>
        </svg>
</svg>
