<?xml version="1.0" encoding="UTF-8" standalone="no"?>
<!DOCTYPE svg PUBLIC "-//W3C//DTD SVG 1.1//EN"
 "http://www.w3.org/Graphics/SVG/1.1/DTD/svg11.dtd">
<!-- Generated by graphviz version 3.0.0 (20220413.0242)
 -->
<!-- Title: denoptim.graph.DGraph.isIsostructuralTo Pages: 1 -->
<!--zoomable 421 -->
<svg id="main" version="1.1" xmlns="http://www.w3.org/2000/svg" xmlns:xlink="http://www.w3.org/1999/xlink" xml:space="preserve" onload="init(evt)">
<style type="text/css"><![CDATA[
.edge:hover path { stroke: red; }
.edge:hover polygon { stroke: red; fill: red; }
]]></style>
<script type="text/javascript"><![CDATA[
var edges = document.getElementsByTagName('g');
if (edges && edges.length) {
  for (var i=0;i<edges.length;i++) {
    if (edges[i].id.substr(0,4)=='edge') {
      edges[i].setAttribute('class','edge');
    }
  }
}
]]></script>
        <defs>
                <circle id="rim" cx="0" cy="0" r="7"/>
                <circle id="rim2" cx="0" cy="0" r="3.5"/>
                <g id="zoomPlus">
                        <use xlink:href="#rim" fill="#404040">
                                <set attributeName="fill" to="#808080" begin="zoomplus.mouseover" end="zoomplus.mouseout"/>
                        </use>
                        <path d="M-4,0h8M0,-4v8" fill="none" stroke="white" stroke-width="1.5" pointer-events="none"/>
                </g>
                <g id="zoomMin">
                        <use xlink:href="#rim" fill="#404040">
                                <set attributeName="fill" to="#808080" begin="zoomminus.mouseover" end="zoomminus.mouseout"/>
                        </use>
                        <path d="M-4,0h8" fill="none" stroke="white" stroke-width="1.5" pointer-events="none"/>
                </g>
                <g id="dirArrow">
                        <path fill="none" stroke="white" stroke-width="1.5" d="M0,-3.0v7 M-2.5,-0.5L0,-3.0L2.5,-0.5"/>
                </g>
               <g id="resetDef">
                       <use xlink:href="#rim2" fill="#404040">
                               <set attributeName="fill" to="#808080" begin="reset.mouseover" end="reset.mouseout"/>
                       </use>
               </g>
        </defs>

<script type="text/javascript">
var viewWidth = 697;
var viewHeight = 421;
var sectionId = 'dynsection-160';
</script>
<script xlink:href="svgpan.js"/>
<svg id="graph" class="graph">
<g id="viewport">
<title>denoptim.graph.DGraph.isIsostructuralTo</title>
<polygon fill="white" stroke="transparent" points="-4,4 -4,-417 693,-417 693,4 -4,4"/>
<!-- Node1 -->
<g id="node1" class="node">
<title>Node1</title>
<g id="a_node1"><a xlink:title="Checks if this graph is &quot;DENOPTIM&#45;isostructural&quot; to the other one given.">
<polygon fill="#bfbfbf" stroke="black" points="0,-186.5 0,-216.5 128,-216.5 128,-186.5 0,-186.5"/>
<text text-anchor="start" x="8" y="-204.5" font-family="Helvetica,sans-Serif" font-size="10.00">denoptim.graph.DGraph.is</text>
<text text-anchor="middle" x="64" y="-193.5" font-family="Helvetica,sans-Serif" font-size="10.00">IsostructuralTo</text>
</a>
</g>
</g>
<!-- Node2 -->
<g id="node2" class="node">
<title>Node2</title>
<g id="a_node2"><a xlink:href="classdenoptim_1_1graph_1_1simplified_1_1_node.html#a50e54a8bf7a4927c23f43c1cdbabdf38" target="_top" xlink:title=" ">
<polygon fill="white" stroke="black" points="179.5,-382.5 179.5,-412.5 307.5,-412.5 307.5,-382.5 179.5,-382.5"/>
<text text-anchor="start" x="187.5" y="-400.5" font-family="Helvetica,sans-Serif" font-size="10.00">denoptim.graph.simplified.</text>
<text text-anchor="middle" x="243.5" y="-389.5" font-family="Helvetica,sans-Serif" font-size="10.00">Node.compare</text>
</a>
</g>
</g>
<!-- Node1&#45;&gt;Node2 -->
<g id="edge1" class="edge">
<title>Node1&#45;&gt;Node2</title>
<path fill="none" stroke="midnightblue" d="M69.48,-216.68C80.14,-250.14 110.23,-330.67 164,-373.5 166.05,-375.13 168.21,-376.65 170.45,-378.07"/>
<polygon fill="midnightblue" stroke="midnightblue" points="169.01,-381.28 179.46,-383.04 172.4,-375.15 169.01,-381.28"/>
</g>
<!-- Node3 -->
<g id="node3" class="node">
<title>Node3</title>
<g id="a_node3"><a xlink:href="classdenoptim_1_1graph_1_1simplified_1_1_node_connection.html#a23745c4d04b0c44f58d23317fe85d98d" target="_top" xlink:title=" ">
<polygon fill="white" stroke="black" points="179.5,-333.5 179.5,-363.5 307.5,-363.5 307.5,-333.5 179.5,-333.5"/>
<text text-anchor="start" x="187.5" y="-351.5" font-family="Helvetica,sans-Serif" font-size="10.00">denoptim.graph.simplified.</text>
<text text-anchor="middle" x="243.5" y="-340.5" font-family="Helvetica,sans-Serif" font-size="10.00">NodeConnection.compare</text>
</a>
</g>
</g>
<!-- Node1&#45;&gt;Node3 -->
<g id="edge2" class="edge">
<title>Node1&#45;&gt;Node3</title>
<path fill="none" stroke="midnightblue" d="M73.21,-216.81C87.93,-242.82 121.32,-295.62 164,-324.5 166.38,-326.11 168.87,-327.61 171.44,-329.02"/>
<polygon fill="midnightblue" stroke="midnightblue" points="169.92,-332.17 180.44,-333.44 173,-325.89 169.92,-332.17"/>
</g>
<!-- Node4 -->
<g id="node4" class="node">
<title>Node4</title>
<g id="a_node4"><a xlink:href="classdenoptim_1_1graph_1_1simplified_1_1_node.html#a481c397369dce8e1764756963c709119" target="_top" xlink:title=" ">
<polygon fill="white" stroke="black" points="179.5,-284.5 179.5,-314.5 307.5,-314.5 307.5,-284.5 179.5,-284.5"/>
<text text-anchor="start" x="187.5" y="-302.5" font-family="Helvetica,sans-Serif" font-size="10.00">denoptim.graph.simplified.</text>
<text text-anchor="middle" x="243.5" y="-291.5" font-family="Helvetica,sans-Serif" font-size="10.00">Node.getDNPVertex</text>
</a>
</g>
</g>
<!-- Node1&#45;&gt;Node4 -->
<g id="edge3" class="edge">
<title>Node1&#45;&gt;Node4</title>
<path fill="none" stroke="midnightblue" d="M81.32,-216.53C100.04,-233.06 132.23,-259.39 164,-275.5 167.72,-277.39 171.61,-279.15 175.59,-280.81"/>
<polygon fill="midnightblue" stroke="midnightblue" points="174.4,-284.1 184.99,-284.45 176.94,-277.57 174.4,-284.1"/>
</g>
<!-- Node5 -->
<g id="node5" class="node">
<title>Node5</title>
<g id="a_node5"><a xlink:href="classdenoptim_1_1graph_1_1_vertex.html#a6615f1c869173b8bd6d730c6683b9de4" target="_top" xlink:title="Returns the graph this vertex belongs to or null.">
<polygon fill="white" stroke="black" points="179.5,-235.5 179.5,-265.5 307.5,-265.5 307.5,-235.5 179.5,-235.5"/>
<text text-anchor="start" x="187.5" y="-253.5" font-family="Helvetica,sans-Serif" font-size="10.00">denoptim.graph.Vertex.get</text>
<text text-anchor="middle" x="243.5" y="-242.5" font-family="Helvetica,sans-Serif" font-size="10.00">GraphOwner</text>
</a>
</g>
</g>
<!-- Node1&#45;&gt;Node5 -->
<g id="edge4" class="edge">
<title>Node1&#45;&gt;Node5</title>
<path fill="none" stroke="midnightblue" d="M119.7,-216.6C138.18,-221.7 158.98,-227.44 178.13,-232.73"/>
<polygon fill="midnightblue" stroke="midnightblue" points="177.41,-236.16 187.98,-235.45 179.27,-229.41 177.41,-236.16"/>
</g>
<!-- Node6 -->
<g id="node6" class="node">
<title>Node6</title>
<g id="a_node6"><a xlink:href="classdenoptim_1_1utils_1_1_graph_conversion_tool.html#adeaae6388172f39d971e781f4b8f0efb" target="_top" xlink:title="Converts a DGraph into a simplified JGraphT DefaultUndirectedGraph.">
<polygon fill="white" stroke="black" points="164,-186.5 164,-216.5 323,-216.5 323,-186.5 164,-186.5"/>
<text text-anchor="start" x="172" y="-204.5" font-family="Helvetica,sans-Serif" font-size="10.00">denoptim.utils.GraphConversion</text>
<text text-anchor="middle" x="243.5" y="-193.5" font-family="Helvetica,sans-Serif" font-size="10.00">Tool.getJGraphKernelFromGraph</text>
</a>
</g>
</g>
<!-- Node1&#45;&gt;Node6 -->
<g id="edge5" class="edge">
<title>Node1&#45;&gt;Node6</title>
<path fill="none" stroke="midnightblue" d="M128.08,-201.5C136.39,-201.5 145.02,-201.5 153.66,-201.5"/>
<polygon fill="midnightblue" stroke="midnightblue" points="153.78,-205 163.78,-201.5 153.78,-198 153.78,-205"/>
</g>
<!-- Node15 -->
<g id="node15" class="node">
<title>Node15</title>
<g id="a_node15"><a xlink:href="classdenoptim_1_1graph_1_1_vertex.html#a9ad275adf822019ad803cb3c95e9a6d2" target="_top" xlink:title=" ">
<polygon fill="white" stroke="black" points="366.5,-88.5 366.5,-118.5 494.5,-118.5 494.5,-88.5 366.5,-88.5"/>
<text text-anchor="start" x="374.5" y="-106.5" font-family="Helvetica,sans-Serif" font-size="10.00">denoptim.graph.Vertex.get</text>
<text text-anchor="middle" x="430.5" y="-95.5" font-family="Helvetica,sans-Serif" font-size="10.00">Property</text>
</a>
</g>
</g>
<!-- Node1&#45;&gt;Node15 -->
<g id="edge19" class="edge">
<title>Node1&#45;&gt;Node15</title>
<path fill="none" stroke="midnightblue" d="M126.94,-186.44C201.73,-168.24 318.2,-139.87 323,-138.5 340.52,-133.49 359.47,-127.46 376.46,-121.83"/>
<polygon fill="midnightblue" stroke="midnightblue" points="377.84,-125.06 386.21,-118.58 375.62,-118.43 377.84,-125.06"/>
</g>
<!-- Node19 -->
<g id="node19" class="node">
<title>Node19</title>
<g id="a_node19"><a xlink:href="classdenoptim_1_1graph_1_1_symmetric_set.html#a6b6cfeafce2492c331902274f7508f21" target="_top" xlink:title="Return the list of symmetric identifiers.">
<polygon fill="white" stroke="black" points="178,-98.5 178,-128.5 309,-128.5 309,-98.5 178,-98.5"/>
<text text-anchor="start" x="186" y="-116.5" font-family="Helvetica,sans-Serif" font-size="10.00">denoptim.graph.Symmetric</text>
<text text-anchor="middle" x="243.5" y="-105.5" font-family="Helvetica,sans-Serif" font-size="10.00">Set.getList</text>
</a>
</g>
</g>
<!-- Node1&#45;&gt;Node19 -->
<g id="edge18" class="edge">
<title>Node1&#45;&gt;Node19</title>
<path fill="none" stroke="midnightblue" d="M88.4,-186.3C108.09,-173.88 137.24,-156.34 164,-143.5 172.21,-139.56 181.08,-135.76 189.81,-132.26"/>
<polygon fill="midnightblue" stroke="midnightblue" points="191.14,-135.5 199.18,-128.59 188.59,-128.98 191.14,-135.5"/>
</g>
<!-- Node20 -->
<g id="node20" class="node">
<title>Node20</title>
<g id="a_node20"><a xlink:href="classdenoptim_1_1graph_1_1_d_graph.html#a3f1f79ec1e07429a841f572dbf2e2f10" target="_top" xlink:title=" ">
<polygon fill="white" stroke="black" points="176.5,-49.5 176.5,-79.5 310.5,-79.5 310.5,-49.5 176.5,-49.5"/>
<text text-anchor="start" x="184.5" y="-67.5" font-family="Helvetica,sans-Serif" font-size="10.00">denoptim.graph.DGraph.get</text>
<text text-anchor="middle" x="243.5" y="-56.5" font-family="Helvetica,sans-Serif" font-size="10.00">SymSetForVertex</text>
</a>
</g>
</g>
<!-- Node1&#45;&gt;Node20 -->
<g id="edge20" class="edge">
<title>Node1&#45;&gt;Node20</title>
<path fill="none" stroke="midnightblue" d="M74.34,-186.48C89.99,-162.53 123.78,-115.72 164,-89.5 167.12,-87.47 170.42,-85.59 173.82,-83.86"/>
<polygon fill="midnightblue" stroke="midnightblue" points="175.43,-86.97 183.04,-79.6 172.5,-80.61 175.43,-86.97"/>
</g>
<!-- Node22 -->
<g id="node22" class="node">
<title>Node22</title>
<g id="a_node22"><a xlink:href="classdenoptim_1_1graph_1_1_d_graph.html#af68c6f4772e3a77bbb4a63f98dc53d04" target="_top" xlink:title=" ">
<polygon fill="white" stroke="black" points="176.5,-0.5 176.5,-30.5 310.5,-30.5 310.5,-0.5 176.5,-0.5"/>
<text text-anchor="start" x="184.5" y="-18.5" font-family="Helvetica,sans-Serif" font-size="10.00">denoptim.graph.DGraph.get</text>
<text text-anchor="middle" x="243.5" y="-7.5" font-family="Helvetica,sans-Serif" font-size="10.00">VertexWithId</text>
</a>
</g>
</g>
<!-- Node1&#45;&gt;Node22 -->
<g id="edge22" class="edge">
<title>Node1&#45;&gt;Node22</title>
<path fill="none" stroke="midnightblue" d="M70,-186.48C81.41,-154.53 112.42,-79.49 164,-39.5 165.78,-38.12 167.65,-36.81 169.58,-35.58"/>
<polygon fill="midnightblue" stroke="midnightblue" points="171.36,-38.6 178.38,-30.66 167.94,-32.49 171.36,-38.6"/>
</g>
<!-- Node7 -->
<g id="node7" class="node">
<title>Node7</title>
<g id="a_node7"><a xlink:href="classdenoptim_1_1graph_1_1_d_graph.html#a309d3784aeae9aedce785314e753bdc5" target="_top" xlink:title="Returns the list of available attachment points contained in this graph.">
<polygon fill="white" stroke="black" points="363.5,-382.5 363.5,-412.5 497.5,-412.5 497.5,-382.5 363.5,-382.5"/>
<text text-anchor="start" x="371.5" y="-400.5" font-family="Helvetica,sans-Serif" font-size="10.00">denoptim.graph.DGraph.get</text>
<text text-anchor="middle" x="430.5" y="-389.5" font-family="Helvetica,sans-Serif" font-size="10.00">AvailableAPs</text>
</a>
</g>
</g>
<!-- Node6&#45;&gt;Node7 -->
<g id="edge6" class="edge">
<title>Node6&#45;&gt;Node7</title>
<path fill="none" stroke="midnightblue" d="M310.62,-216.59C315.18,-219.36 319.39,-222.63 323,-226.5 368.91,-275.66 313.57,-323.89 359,-373.5 359.88,-374.47 360.81,-375.39 361.77,-376.28"/>
<polygon fill="midnightblue" stroke="midnightblue" points="359.69,-379.1 369.75,-382.4 363.94,-373.54 359.69,-379.1"/>
</g>
<!-- Node9 -->
<g id="node9" class="node">
<title>Node9</title>
<g id="a_node9"><a xlink:href="classdenoptim_1_1graph_1_1_d_graph.html#a874ffbf9eee39f72dba3905cf378b469" target="_top" xlink:title=" ">
<polygon fill="white" stroke="black" points="363.5,-333.5 363.5,-363.5 497.5,-363.5 497.5,-333.5 363.5,-333.5"/>
<text text-anchor="start" x="371.5" y="-351.5" font-family="Helvetica,sans-Serif" font-size="10.00">denoptim.graph.DGraph.get</text>
<text text-anchor="middle" x="430.5" y="-340.5" font-family="Helvetica,sans-Serif" font-size="10.00">EdgeList</text>
</a>
</g>
</g>
<!-- Node6&#45;&gt;Node9 -->
<g id="edge8" class="edge">
<title>Node6&#45;&gt;Node9</title>
<path fill="none" stroke="midnightblue" d="M309.4,-216.62C314.35,-219.38 318.97,-222.64 323,-226.5 356.52,-258.59 325.8,-292.08 359,-324.5 360.1,-325.57 361.25,-326.6 362.44,-327.58"/>
<polygon fill="midnightblue" stroke="midnightblue" points="360.63,-330.58 370.85,-333.4 364.62,-324.83 360.63,-330.58"/>
</g>
<!-- Node10 -->
<g id="node10" class="node">
<title>Node10</title>
<g id="a_node10"><a xlink:href="classdenoptim_1_1graph_1_1_vertex.html#a44e705b8949b0fd73763e2e92a118b78" target="_top" xlink:title="Looks into the edges that use any of the APs that belong to this vertex and returns the vertex which ...">
<polygon fill="white" stroke="black" points="366.5,-284.5 366.5,-314.5 494.5,-314.5 494.5,-284.5 366.5,-284.5"/>
<text text-anchor="start" x="374.5" y="-302.5" font-family="Helvetica,sans-Serif" font-size="10.00">denoptim.graph.Vertex.get</text>
<text text-anchor="middle" x="430.5" y="-291.5" font-family="Helvetica,sans-Serif" font-size="10.00">Parent</text>
</a>
</g>
</g>
<!-- Node6&#45;&gt;Node10 -->
<g id="edge9" class="edge">
<title>Node6&#45;&gt;Node10</title>
<path fill="none" stroke="midnightblue" d="M305.52,-216.62C311.7,-219.4 317.66,-222.66 323,-226.5 344.95,-242.26 337.21,-259.52 359,-275.5 361.05,-277.01 363.21,-278.42 365.43,-279.75"/>
<polygon fill="midnightblue" stroke="midnightblue" points="363.86,-282.88 374.33,-284.48 367.14,-276.69 363.86,-282.88"/>
</g>
<!-- Node6&#45;&gt;Node15 -->
<g id="edge14" class="edge">
<title>Node6&#45;&gt;Node15</title>
<path fill="none" stroke="midnightblue" d="M295.43,-186.39C305.05,-182.36 314.68,-177.43 323,-171.5 343.29,-157.03 338.53,-142.72 359,-128.5 361.72,-126.61 364.6,-124.85 367.57,-123.21"/>
<polygon fill="midnightblue" stroke="midnightblue" points="369.35,-126.24 376.74,-118.65 366.23,-119.97 369.35,-126.24"/>
</g>
<!-- Node16 -->
<g id="node16" class="node">
<title>Node16</title>
<g id="a_node16"><a xlink:href="classdenoptim_1_1graph_1_1_d_graph.html#abca37ac76270225e885ec800d170243b" target="_top" xlink:title=" ">
<polygon fill="white" stroke="black" points="363.5,-235.5 363.5,-265.5 497.5,-265.5 497.5,-235.5 363.5,-235.5"/>
<text text-anchor="start" x="371.5" y="-253.5" font-family="Helvetica,sans-Serif" font-size="10.00">denoptim.graph.DGraph.get</text>
<text text-anchor="middle" x="430.5" y="-242.5" font-family="Helvetica,sans-Serif" font-size="10.00">Rings</text>
</a>
</g>
</g>
<!-- Node6&#45;&gt;Node16 -->
<g id="edge15" class="edge">
<title>Node6&#45;&gt;Node16</title>
<path fill="none" stroke="midnightblue" d="M301.26,-216.53C320.8,-221.71 342.84,-227.55 363.08,-232.91"/>
<polygon fill="midnightblue" stroke="midnightblue" points="362.28,-236.32 372.84,-235.49 364.07,-229.55 362.28,-236.32"/>
</g>
<!-- Node17 -->
<g id="node17" class="node">
<title>Node17</title>
<g id="a_node17"><a xlink:href="classdenoptim_1_1graph_1_1_d_graph.html#ac9bd2a29337782ffdc07a2a2fc70f135" target="_top" xlink:title=" ">
<polygon fill="white" stroke="black" points="363.5,-186.5 363.5,-216.5 497.5,-216.5 497.5,-186.5 363.5,-186.5"/>
<text text-anchor="start" x="371.5" y="-204.5" font-family="Helvetica,sans-Serif" font-size="10.00">denoptim.graph.DGraph.get</text>
<text text-anchor="middle" x="430.5" y="-193.5" font-family="Helvetica,sans-Serif" font-size="10.00">VertexList</text>
</a>
</g>
</g>
<!-- Node6&#45;&gt;Node17 -->
<g id="edge16" class="edge">
<title>Node6&#45;&gt;Node17</title>
<path fill="none" stroke="midnightblue" d="M323.22,-201.5C333.15,-201.5 343.29,-201.5 353.18,-201.5"/>
<polygon fill="midnightblue" stroke="midnightblue" points="353.38,-205 363.38,-201.5 353.38,-198 353.38,-205"/>
</g>
<!-- Node18 -->
<g id="node18" class="node">
<title>Node18</title>
<g id="a_node18"><a xlink:href="classdenoptim_1_1graph_1_1_d_graph.html#aca10b3acbf66e3652cb9664179ed368f" target="_top" xlink:title=" ">
<polygon fill="white" stroke="black" points="366.5,-137.5 366.5,-167.5 494.5,-167.5 494.5,-137.5 366.5,-137.5"/>
<text text-anchor="start" x="374.5" y="-155.5" font-family="Helvetica,sans-Serif" font-size="10.00">denoptim.graph.DGraph.is</text>
<text text-anchor="middle" x="430.5" y="-144.5" font-family="Helvetica,sans-Serif" font-size="10.00">VertexInRing</text>
</a>
</g>
</g>
<!-- Node6&#45;&gt;Node18 -->
<g id="edge17" class="edge">
<title>Node6&#45;&gt;Node18</title>
<path fill="none" stroke="midnightblue" d="M301.26,-186.47C320.8,-181.29 342.84,-175.45 363.08,-170.09"/>
<polygon fill="midnightblue" stroke="midnightblue" points="364.07,-173.45 372.84,-167.51 362.28,-166.68 364.07,-173.45"/>
</g>
<!-- Node8 -->
<g id="node8" class="node">
<title>Node8</title>
<g id="a_node8"><a xlink:href="classdenoptim_1_1graph_1_1_d_graph.html#a27e25f8f8e1516d81cc281e2795a9428" target="_top" xlink:title="Returns the list of all attachment points contained in this graph.">
<polygon fill="white" stroke="black" points="546.5,-382.5 546.5,-412.5 680.5,-412.5 680.5,-382.5 546.5,-382.5"/>
<text text-anchor="start" x="554.5" y="-400.5" font-family="Helvetica,sans-Serif" font-size="10.00">denoptim.graph.DGraph.get</text>
<text text-anchor="middle" x="613.5" y="-389.5" font-family="Helvetica,sans-Serif" font-size="10.00">AttachmentPoints</text>
</a>
</g>
</g>
<!-- Node7&#45;&gt;Node8 -->
<g id="edge7" class="edge">
<title>Node7&#45;&gt;Node8</title>
<path fill="none" stroke="midnightblue" d="M497.61,-397.5C510.12,-397.5 523.31,-397.5 536.1,-397.5"/>
<polygon fill="midnightblue" stroke="midnightblue" points="536.26,-401 546.26,-397.5 536.26,-394 536.26,-401"/>
</g>
<!-- Node11 -->
<g id="node11" class="node">
<title>Node11</title>
<g id="a_node11"><a xlink:href="classdenoptim_1_1graph_1_1_vertex.html#a022f7c9075b178f17e13339b215ee21f" target="_top" xlink:title=" ">
<polygon fill="white" stroke="black" points="549.5,-333.5 549.5,-363.5 677.5,-363.5 677.5,-333.5 549.5,-333.5"/>
<text text-anchor="start" x="557.5" y="-351.5" font-family="Helvetica,sans-Serif" font-size="10.00">denoptim.graph.Vertex.get</text>
<text text-anchor="middle" x="613.5" y="-340.5" font-family="Helvetica,sans-Serif" font-size="10.00">AttachmentPoints</text>
</a>
</g>
</g>
<!-- Node10&#45;&gt;Node11 -->
<g id="edge10" class="edge">
<title>Node10&#45;&gt;Node11</title>
<path fill="none" stroke="midnightblue" d="M487.28,-314.6C506.21,-319.73 527.52,-325.5 547.13,-330.8"/>
<polygon fill="midnightblue" stroke="midnightblue" points="546.33,-334.21 556.9,-333.45 548.16,-327.46 546.33,-334.21"/>
</g>
<!-- Node12 -->
<g id="node12" class="node">
<title>Node12</title>
<g id="a_node12"><a xlink:href="classdenoptim_1_1graph_1_1_attachment_point.html#ac8551521d38644f5109800b665957ee9" target="_top" xlink:title=" ">
<polygon fill="white" stroke="black" points="546,-284.5 546,-314.5 681,-314.5 681,-284.5 546,-284.5"/>
<text text-anchor="start" x="554" y="-302.5" font-family="Helvetica,sans-Serif" font-size="10.00">denoptim.graph.Attachment</text>
<text text-anchor="middle" x="613.5" y="-291.5" font-family="Helvetica,sans-Serif" font-size="10.00">Point.getOwner</text>
</a>
</g>
</g>
<!-- Node10&#45;&gt;Node12 -->
<g id="edge11" class="edge">
<title>Node10&#45;&gt;Node12</title>
<path fill="none" stroke="midnightblue" d="M494.55,-299.5C507.8,-299.5 521.92,-299.5 535.62,-299.5"/>
<polygon fill="midnightblue" stroke="midnightblue" points="535.98,-303 545.98,-299.5 535.98,-296 535.98,-303"/>
</g>
<!-- Node13 -->
<g id="node13" class="node">
<title>Node13</title>
<g id="a_node13"><a xlink:href="classdenoptim_1_1graph_1_1_edge.html#a658e275a18a50f12474777f5f28c35e9" target="_top" xlink:title=" ">
<polygon fill="white" stroke="black" points="538,-246 538,-265 689,-265 689,-246 538,-246"/>
<text text-anchor="middle" x="613.5" y="-253" font-family="Helvetica,sans-Serif" font-size="10.00">denoptim.graph.Edge.getSrcAP</text>
</a>
</g>
</g>
<!-- Node10&#45;&gt;Node13 -->
<g id="edge12" class="edge">
<title>Node10&#45;&gt;Node13</title>
<path fill="none" stroke="midnightblue" d="M493.28,-284.48C516.18,-278.91 541.82,-272.68 563.43,-267.43"/>
<polygon fill="midnightblue" stroke="midnightblue" points="564.48,-270.78 573.37,-265.01 562.83,-263.97 564.48,-270.78"/>
</g>
<!-- Node14 -->
<g id="node14" class="node">
<title>Node14</title>
<g id="a_node14"><a xlink:href="classdenoptim_1_1graph_1_1_edge.html#a44521a3ad1a83e5d0a6be227e35ceffa" target="_top" xlink:title=" ">
<polygon fill="white" stroke="black" points="538.5,-208 538.5,-227 688.5,-227 688.5,-208 538.5,-208"/>
<text text-anchor="middle" x="613.5" y="-215" font-family="Helvetica,sans-Serif" font-size="10.00">denoptim.graph.Edge.getTrgAP</text>
</a>
</g>
</g>
<!-- Node10&#45;&gt;Node14 -->
<g id="edge13" class="edge">
<title>Node10&#45;&gt;Node14</title>
<path fill="none" stroke="midnightblue" d="M485.19,-284.42C491.07,-281.84 496.8,-278.88 502,-275.5 521.77,-262.64 517.74,-248.58 538,-236.5 541.68,-234.31 545.6,-232.37 549.65,-230.65"/>
<polygon fill="midnightblue" stroke="midnightblue" points="551.15,-233.83 559.28,-227.03 548.69,-227.27 551.15,-233.83"/>
</g>
<!-- Node21 -->
<g id="node21" class="node">
<title>Node21</title>
<g id="a_node21"><a xlink:href="classdenoptim_1_1graph_1_1_vertex.html#af44ae05546096ec9060d7207f38bc8e9" target="_top" xlink:title=" ">
<polygon fill="white" stroke="black" points="549.5,-22.5 549.5,-52.5 677.5,-52.5 677.5,-22.5 549.5,-22.5"/>
<text text-anchor="start" x="557.5" y="-40.5" font-family="Helvetica,sans-Serif" font-size="10.00">denoptim.graph.Vertex.get</text>
<text text-anchor="middle" x="613.5" y="-29.5" font-family="Helvetica,sans-Serif" font-size="10.00">VertexId</text>
</a>
</g>
</g>
<!-- Node20&#45;&gt;Node21 -->
<g id="edge21" class="edge">
<title>Node20&#45;&gt;Node21</title>
<path fill="none" stroke="midnightblue" d="M310.72,-59.64C375.08,-54.92 472.61,-47.76 539.26,-42.87"/>
<polygon fill="midnightblue" stroke="midnightblue" points="539.56,-46.36 549.28,-42.14 539.05,-39.38 539.56,-46.36"/>
</g>
<!-- Node23 -->
<g id="node23" class="node">
<title>Node23</title>
<g id="a_node23"><a xlink:href="classdenoptim_1_1graph_1_1_d_graph.html#aff14a66b89e52205a4b6b6a633de0e7e" target="_top" xlink:title="Returns the position of the first vertex that has the given ID.">
<polygon fill="white" stroke="black" points="359,-0.5 359,-30.5 502,-30.5 502,-0.5 359,-0.5"/>
<text text-anchor="start" x="367" y="-18.5" font-family="Helvetica,sans-Serif" font-size="10.00">denoptim.graph.DGraph.index</text>
<text text-anchor="middle" x="430.5" y="-7.5" font-family="Helvetica,sans-Serif" font-size="10.00">OfVertexWithID</text>
</a>
</g>
</g>
<!-- Node22&#45;&gt;Node23 -->
<g id="edge23" class="edge">
<title>Node22&#45;&gt;Node23</title>
<path fill="none" stroke="midnightblue" d="M310.51,-15.5C322.87,-15.5 335.92,-15.5 348.68,-15.5"/>
<polygon fill="midnightblue" stroke="midnightblue" points="348.82,-19 358.82,-15.5 348.82,-12 348.82,-19"/>
</g>
<!-- Node23&#45;&gt;Node21 -->
<g id="edge24" class="edge">
<title>Node23&#45;&gt;Node21</title>
<path fill="none" stroke="midnightblue" d="M502.26,-24.1C514.42,-25.58 527.08,-27.12 539.3,-28.6"/>
<polygon fill="midnightblue" stroke="midnightblue" points="539.1,-32.1 549.45,-29.84 539.94,-25.16 539.1,-32.1"/>
</g>
</g>
</svg>
        <g id="navigator" transform="translate(0 0)" fill="#404254">
                <rect fill="#f2f5e9" fill-opacity="0.5" stroke="#606060" stroke-width=".5" x="0" y="0" width="60" height="60"/>
                <use id="zoomplus" xlink:href="#zoomPlus" x="17" y="9" onmousedown="handleZoom(evt,'in')"/>
                <use id="zoomminus" xlink:href="#zoomMin" x="42" y="9" onmousedown="handleZoom(evt,'out')"/>
                <use id="reset" xlink:href="#resetDef" x="30" y="36" onmousedown="handleReset()"/>
                <g id="arrowUp" xlink:href="#dirArrow" transform="translate(30 24)" onmousedown="handlePan(0,-1)">
                  <use xlink:href="#rim" fill="#404040">
                        <set attributeName="fill" to="#808080" begin="arrowUp.mouseover" end="arrowUp.mouseout"/>
                  </use>
                  <path fill="none" stroke="white" stroke-width="1.5" d="M0,-3.0v7 M-2.5,-0.5L0,-3.0L2.5,-0.5"/>
                </g>
                <g id="arrowRight" xlink:href="#dirArrow" transform="rotate(90) translate(36 -43)" onmousedown="handlePan(1,0)">
                  <use xlink:href="#rim" fill="#404040">
                        <set attributeName="fill" to="#808080" begin="arrowRight.mouseover" end="arrowRight.mouseout"/>
                  </use>
                  <path fill="none" stroke="white" stroke-width="1.5" d="M0,-3.0v7 M-2.5,-0.5L0,-3.0L2.5,-0.5"/>
                </g>
                <g id="arrowDown" xlink:href="#dirArrow" transform="rotate(180) translate(-30 -48)" onmousedown="handlePan(0,1)">
                  <use xlink:href="#rim" fill="#404040">
                        <set attributeName="fill" to="#808080" begin="arrowDown.mouseover" end="arrowDown.mouseout"/>
                  </use>
                  <path fill="none" stroke="white" stroke-width="1.5" d="M0,-3.0v7 M-2.5,-0.5L0,-3.0L2.5,-0.5"/>
                </g>
                <g id="arrowLeft" xlink:href="#dirArrow" transform="rotate(270) translate(-36 17)" onmousedown="handlePan(-1,0)">
                  <use xlink:href="#rim" fill="#404040">
                        <set attributeName="fill" to="#808080" begin="arrowLeft.mouseover" end="arrowLeft.mouseout"/>
                  </use>
                  <path fill="none" stroke="white" stroke-width="1.5" d="M0,-3.0v7 M-2.5,-0.5L0,-3.0L2.5,-0.5"/>
                </g>
        </g>
        <svg viewBox="0 0 15 15" width="100%" height="30px" preserveAspectRatio="xMaxYMin meet">
         <g id="arrow_out" transform="scale(0.3 0.3)">
          <a xlink:href="classdenoptim_1_1graph_1_1_d_graph_afb3a5b3a5e8d74babc82474f8458b91f_cgraph_org.svg" target="_base">
           <rect id="button" ry="5" rx="5" y="6" x="6" height="38" width="38"
                fill="#f2f5e9" fill-opacity="0.5" stroke="#606060" stroke-width="1.0"/>
           <path id="arrow"
             d="M 11.500037,31.436501 C 11.940474,20.09759 22.043105,11.32322 32.158766,21.979434 L 37.068811,17.246167 C 37.068811,17.246167 37.088388,32 37.088388,32 L 22.160133,31.978069 C 22.160133,31.978069 26.997745,27.140456 26.997745,27.140456 C 18.528582,18.264221 13.291696,25.230495 11.500037,31.436501 z"
             style="fill:#404040;"/>
          </a>
         </g>
        </svg>
</svg>
