<?xml version="1.0" encoding="UTF-8" standalone="no"?>
<!DOCTYPE svg PUBLIC "-//W3C//DTD SVG 1.1//EN"
 "http://www.w3.org/Graphics/SVG/1.1/DTD/svg11.dtd">
<!-- Generated by graphviz version 3.0.0 (20220413.0242)
 -->
<!-- Title: denoptim.io.IteractingAtomContainerReader Pages: 1 -->
<svg width="359pt" height="154pt"
 viewBox="0.00 0.00 359.00 153.50" xmlns="http://www.w3.org/2000/svg" xmlns:xlink="http://www.w3.org/1999/xlink">
<g id="graph0" class="graph" transform="scale(1 1) rotate(0) translate(4 149.5)">
<title>denoptim.io.IteractingAtomContainerReader</title>
<polygon fill="white" stroke="transparent" points="-4,4 -4,-149.5 355,-149.5 355,4 -4,4"/>
<!-- Node1 -->
<g id="node1" class="node">
<title>Node1</title>
<g id="a_node1"><a xlink:title="An iterator that take IAtomContainers from a file, possibly using an available iterating reader,...">
<polygon fill="#bfbfbf" stroke="black" points="219,-63.5 219,-93.5 351,-93.5 351,-63.5 219,-63.5"/>
<text text-anchor="start" x="227" y="-81.5" font-family="Helvetica,sans-Serif" font-size="10.00">denoptim.io.IteractingAtom</text>
<text text-anchor="middle" x="285" y="-70.5" font-family="Helvetica,sans-Serif" font-size="10.00">ContainerReader</text>
</a>
</g>
</g>
<!-- Node2 -->
<g id="node2" class="node">
<title>Node2</title>
<g id="a_node2"><a xlink:title=" ">
<polygon fill="white" stroke="black" points="3,-126 3,-145 134,-145 134,-126 3,-126"/>
<text text-anchor="middle" x="68.5" y="-133" font-family="Helvetica,sans-Serif" font-size="10.00">Iterator&lt; IAtomContainer &gt;</text>
</a>
</g>
</g>
<!-- Node2&#45;&gt;Node1 -->
<g id="edge1" class="edge">
<title>Node2&#45;&gt;Node1</title>
<path fill="none" stroke="midnightblue" d="M123.46,-123.7C147.33,-118.25 175.66,-111.44 201,-104.5 213.09,-101.19 226.06,-97.29 238.08,-93.53"/>
<polygon fill="midnightblue" stroke="midnightblue" points="122.51,-120.33 113.53,-125.95 124.06,-127.15 122.51,-120.33"/>
</g>
<!-- Node3 -->
<g id="node3" class="node">
<title>Node3</title>
<g id="a_node3"><a xlink:title=" ">
<polygon fill="white" stroke="black" points="10,-88 10,-107 127,-107 127,-88 10,-88"/>
<text text-anchor="middle" x="68.5" y="-95" font-family="Helvetica,sans-Serif" font-size="10.00">List&lt; IAtomContainer &gt;</text>
</a>
</g>
</g>
<!-- Node3&#45;&gt;Node1 -->
<g id="edge2" class="edge">
<title>Node3&#45;&gt;Node1</title>
<path fill="none" stroke="#9a32cd" stroke-dasharray="5,2" d="M137.44,-91.48C163.5,-89.17 193.15,-86.55 218.94,-84.26"/>
<polygon fill="#9a32cd" stroke="#9a32cd" points="136.92,-88.01 127.26,-92.38 137.53,-94.99 136.92,-88.01"/>
<text text-anchor="middle" x="178" y="-92.5" font-family="Helvetica,sans-Serif" font-size="10.00"> results</text>
</g>
<!-- Node4 -->
<g id="node4" class="node">
<title>Node4</title>
<g id="a_node4"><a xlink:title=" ">
<polygon fill="white" stroke="black" points="3,-50 3,-69 134,-69 134,-50 3,-50"/>
<text text-anchor="middle" x="68.5" y="-57" font-family="Helvetica,sans-Serif" font-size="10.00">Iterator&lt; IAtomContainer &gt;</text>
</a>
</g>
</g>
<!-- Node4&#45;&gt;Node1 -->
<g id="edge3" class="edge">
<title>Node4&#45;&gt;Node1</title>
<path fill="none" stroke="#9a32cd" stroke-dasharray="5,2" d="M144.22,-65.59C162.77,-67.14 182.61,-68.85 201,-70.5 206.77,-71.02 212.76,-71.57 218.76,-72.13"/>
<polygon fill="#9a32cd" stroke="#9a32cd" points="144.31,-62.08 134.06,-64.74 143.73,-69.06 144.31,-62.08"/>
<text text-anchor="middle" x="178" y="-73.5" font-family="Helvetica,sans-Serif" font-size="10.00"> listIterator</text>
</g>
<!-- Node5 -->
<g id="node5" class="node">
<title>Node5</title>
<g id="a_node5"><a xlink:title=" ">
<polygon fill="white" stroke="black" points="0,-0.5 0,-30.5 137,-30.5 137,-0.5 0,-0.5"/>
<text text-anchor="start" x="8" y="-18.5" font-family="Helvetica,sans-Serif" font-size="10.00">DefaultIteratingChemObject</text>
<text text-anchor="middle" x="68.5" y="-7.5" font-family="Helvetica,sans-Serif" font-size="10.00">Reader&lt; IAtomContainer &gt;</text>
</a>
</g>
</g>
<!-- Node5&#45;&gt;Node1 -->
<g id="edge4" class="edge">
<title>Node5&#45;&gt;Node1</title>
<path fill="none" stroke="#9a32cd" stroke-dasharray="5,2" d="M136.32,-33.14C157.1,-38.8 180.05,-45.23 201,-51.5 213.34,-55.19 226.63,-59.41 238.89,-63.4"/>
<polygon fill="#9a32cd" stroke="#9a32cd" points="137.19,-29.75 126.63,-30.51 135.36,-36.5 137.19,-29.75"/>
<text text-anchor="middle" x="178" y="-54.5" font-family="Helvetica,sans-Serif" font-size="10.00"> fileIterator</text>
</g>
</g>
</svg>
