<?xml version="1.0" encoding="UTF-8" standalone="no"?>
<!DOCTYPE svg PUBLIC "-//W3C//DTD SVG 1.1//EN"
 "http://www.w3.org/Graphics/SVG/1.1/DTD/svg11.dtd">
<!-- Generated by graphviz version 3.0.0 (20220413.0242)
 -->
<!-- Title: denoptim.fragmenter.FragmenterTools.filterFragment Pages: 1 -->
<!--zoomable 1045 -->
<svg id="main" version="1.1" xmlns="http://www.w3.org/2000/svg" xmlns:xlink="http://www.w3.org/1999/xlink" xml:space="preserve" onload="init(evt)">
<style type="text/css"><![CDATA[
.edge:hover path { stroke: red; }
.edge:hover polygon { stroke: red; fill: red; }
]]></style>
<script type="text/javascript"><![CDATA[
var edges = document.getElementsByTagName('g');
if (edges && edges.length) {
  for (var i=0;i<edges.length;i++) {
    if (edges[i].id.substr(0,4)=='edge') {
      edges[i].setAttribute('class','edge');
    }
  }
}
]]></script>
        <defs>
                <circle id="rim" cx="0" cy="0" r="7"/>
                <circle id="rim2" cx="0" cy="0" r="3.5"/>
                <g id="zoomPlus">
                        <use xlink:href="#rim" fill="#404040">
                                <set attributeName="fill" to="#808080" begin="zoomplus.mouseover" end="zoomplus.mouseout"/>
                        </use>
                        <path d="M-4,0h8M0,-4v8" fill="none" stroke="white" stroke-width="1.5" pointer-events="none"/>
                </g>
                <g id="zoomMin">
                        <use xlink:href="#rim" fill="#404040">
                                <set attributeName="fill" to="#808080" begin="zoomminus.mouseover" end="zoomminus.mouseout"/>
                        </use>
                        <path d="M-4,0h8" fill="none" stroke="white" stroke-width="1.5" pointer-events="none"/>
                </g>
                <g id="dirArrow">
                        <path fill="none" stroke="white" stroke-width="1.5" d="M0,-3.0v7 M-2.5,-0.5L0,-3.0L2.5,-0.5"/>
                </g>
               <g id="resetDef">
                       <use xlink:href="#rim2" fill="#404040">
                               <set attributeName="fill" to="#808080" begin="reset.mouseover" end="reset.mouseout"/>
                       </use>
               </g>
        </defs>

<script type="text/javascript">
var viewWidth = 1136;
var viewHeight = 1045;
var sectionId = 'dynsection-6';
</script>
<script xlink:href="svgpan.js"/>
<svg id="graph" class="graph">
<g id="viewport">
<title>denoptim.fragmenter.FragmenterTools.filterFragment</title>
<polygon fill="white" stroke="transparent" points="-4,4 -4,-1040.5 1132,-1040.5 1132,4 -4,4"/>
<!-- Node1 -->
<g id="node1" class="node">
<title>Node1</title>
<g id="a_node1"><a xlink:title="Filter fragments according to the criteria defined in the settings.">
<polygon fill="#bfbfbf" stroke="black" points="0,-512.5 0,-542.5 157,-542.5 157,-512.5 0,-512.5"/>
<text text-anchor="start" x="8" y="-530.5" font-family="Helvetica,sans-Serif" font-size="10.00">denoptim.fragmenter.Fragmenter</text>
<text text-anchor="middle" x="78.5" y="-519.5" font-family="Helvetica,sans-Serif" font-size="10.00">Tools.filterFragment</text>
</a>
</g>
</g>
<!-- Node2 -->
<g id="node2" class="node">
<title>Node2</title>
<g id="a_node2"><a xlink:href="classdenoptim_1_1graph_1_1_fragment.html#a4babe43e60f32e990179be8dfe96e38e" target="_top" xlink:title=" ">
<polygon fill="white" stroke="black" points="214,-1017 214,-1036 369,-1036 369,-1017 214,-1017"/>
<text text-anchor="middle" x="291.5" y="-1024" font-family="Helvetica,sans-Serif" font-size="10.00">denoptim.graph.Fragment.atoms</text>
</a>
</g>
</g>
<!-- Node1&#45;&gt;Node2 -->
<g id="edge1" class="edge">
<title>Node1&#45;&gt;Node2</title>
<path fill="none" stroke="midnightblue" d="M80.94,-542.97C88.19,-617.69 123.23,-940.45 193,-1007.5 196.54,-1010.91 200.51,-1013.79 204.75,-1016.22"/>
<polygon fill="midnightblue" stroke="midnightblue" points="203.29,-1019.4 213.82,-1020.61 206.34,-1013.1 203.29,-1019.4"/>
</g>
<!-- Node3 -->
<g id="node3" class="node">
<title>Node3</title>
<g id="a_node3"><a xlink:href="classdenoptim_1_1graph_1_1_vertex.html#a274e9253fa2a75073e7fc14918e54eef" target="_top" xlink:title="Returns the list of all APClasses present on this vertex.">
<polygon fill="white" stroke="black" points="227.5,-967.5 227.5,-997.5 355.5,-997.5 355.5,-967.5 227.5,-967.5"/>
<text text-anchor="start" x="235.5" y="-985.5" font-family="Helvetica,sans-Serif" font-size="10.00">denoptim.graph.Vertex.get</text>
<text text-anchor="middle" x="291.5" y="-974.5" font-family="Helvetica,sans-Serif" font-size="10.00">AllAPClasses</text>
</a>
</g>
</g>
<!-- Node1&#45;&gt;Node3 -->
<g id="edge2" class="edge">
<title>Node1&#45;&gt;Node3</title>
<path fill="none" stroke="midnightblue" d="M81.42,-542.7C90.48,-612.05 131.09,-897.58 193,-958.5 199.96,-965.35 208.55,-970.35 217.71,-973.99"/>
<polygon fill="midnightblue" stroke="midnightblue" points="216.84,-977.39 227.43,-977.3 219.09,-970.76 216.84,-977.39"/>
</g>
<!-- Node5 -->
<g id="node5" class="node">
<title>Node5</title>
<g id="a_node5"><a xlink:href="classdenoptim_1_1graph_1_1_fragment.html#a9f0d8233f6ed31316409d643b5e0f0cd" target="_top" xlink:title=" ">
<polygon fill="white" stroke="black" points="220.5,-918.5 220.5,-948.5 362.5,-948.5 362.5,-918.5 220.5,-918.5"/>
<text text-anchor="start" x="228.5" y="-936.5" font-family="Helvetica,sans-Serif" font-size="10.00">denoptim.graph.Fragment.get</text>
<text text-anchor="middle" x="291.5" y="-925.5" font-family="Helvetica,sans-Serif" font-size="10.00">AttachmentPoints</text>
</a>
</g>
</g>
<!-- Node1&#45;&gt;Node5 -->
<g id="edge4" class="edge">
<title>Node1&#45;&gt;Node5</title>
<path fill="none" stroke="midnightblue" d="M79.06,-542.58C78.24,-599.72 83.35,-804.93 193,-909.5 198.29,-914.55 204.46,-918.58 211.09,-921.8"/>
<polygon fill="midnightblue" stroke="midnightblue" points="209.79,-925.05 220.36,-925.71 212.51,-918.6 209.79,-925.05"/>
</g>
<!-- Node6 -->
<g id="node6" class="node">
<title>Node6</title>
<g id="a_node6"><a xlink:href="classdenoptim_1_1utils_1_1_formula_utils.html#a99b5b0def26190ece7ac75410bcb9e37" target="_top" xlink:title="Threads Deuterium as a different element than Hydrogen.">
<polygon fill="white" stroke="black" points="216.5,-869.5 216.5,-899.5 366.5,-899.5 366.5,-869.5 216.5,-869.5"/>
<text text-anchor="start" x="224.5" y="-887.5" font-family="Helvetica,sans-Serif" font-size="10.00">denoptim.utils.FormulaUtils.get</text>
<text text-anchor="middle" x="291.5" y="-876.5" font-family="Helvetica,sans-Serif" font-size="10.00">Elementalanalysis</text>
</a>
</g>
</g>
<!-- Node1&#45;&gt;Node6 -->
<g id="edge5" class="edge">
<title>Node1&#45;&gt;Node6</title>
<path fill="none" stroke="midnightblue" d="M79.82,-542.82C81.8,-595.58 95.74,-771.36 193,-860.5 197.18,-864.33 201.86,-867.57 206.87,-870.32"/>
<polygon fill="midnightblue" stroke="midnightblue" points="205.63,-873.6 216.17,-874.74 208.64,-867.28 205.63,-873.6"/>
</g>
<!-- Node7 -->
<g id="node7" class="node">
<title>Node7</title>
<g id="a_node7"><a xlink:href="classdenoptim_1_1programs_1_1fragmenter_1_1_fragmenter_parameters.html#aa4ecbce01c87856124942ad3c5d5bf60" target="_top" xlink:title=" ">
<polygon fill="white" stroke="black" points="195.5,-810 195.5,-851 387.5,-851 387.5,-810 195.5,-810"/>
<text text-anchor="start" x="203.5" y="-839" font-family="Helvetica,sans-Serif" font-size="10.00">denoptim.programs.fragmenter.</text>
<text text-anchor="start" x="203.5" y="-828" font-family="Helvetica,sans-Serif" font-size="10.00">FragmenterParameters.getFragRejection</text>
<text text-anchor="middle" x="291.5" y="-817" font-family="Helvetica,sans-Serif" font-size="10.00">SMARTS</text>
</a>
</g>
</g>
<!-- Node1&#45;&gt;Node7 -->
<g id="edge6" class="edge">
<title>Node1&#45;&gt;Node7</title>
<path fill="none" stroke="midnightblue" d="M81.31,-542.76C87.6,-588.78 112.66,-727.49 193,-800.5 194.47,-801.84 196.01,-803.12 197.59,-804.34"/>
<polygon fill="midnightblue" stroke="midnightblue" points="195.66,-807.26 205.9,-809.99 199.6,-801.47 195.66,-807.26"/>
</g>
<!-- Node8 -->
<g id="node8" class="node">
<title>Node8</title>
<g id="a_node8"><a xlink:href="classdenoptim_1_1programs_1_1fragmenter_1_1_fragmenter_parameters.html#a8120259e5a5370614c6faeb441b84df8" target="_top" xlink:title=" ">
<polygon fill="white" stroke="black" points="195,-750 195,-791 388,-791 388,-750 195,-750"/>
<text text-anchor="start" x="203" y="-779" font-family="Helvetica,sans-Serif" font-size="10.00">denoptim.programs.fragmenter.</text>
<text text-anchor="start" x="203" y="-768" font-family="Helvetica,sans-Serif" font-size="10.00">FragmenterParameters.getFragRetention</text>
<text text-anchor="middle" x="291.5" y="-757" font-family="Helvetica,sans-Serif" font-size="10.00">SMARTS</text>
</a>
</g>
</g>
<!-- Node1&#45;&gt;Node8 -->
<g id="edge7" class="edge">
<title>Node1&#45;&gt;Node8</title>
<path fill="none" stroke="midnightblue" d="M83.13,-542.52C93.32,-581.49 125.97,-686.61 193,-741.5 194.2,-742.48 195.42,-743.42 196.68,-744.34"/>
<polygon fill="midnightblue" stroke="midnightblue" points="195.05,-747.45 205.35,-749.92 198.83,-741.56 195.05,-747.45"/>
</g>
<!-- Node9 -->
<g id="node9" class="node">
<title>Node9</title>
<g id="a_node9"><a xlink:href="classdenoptim_1_1graph_1_1_fragment.html#a7e8b973a33c7ec906e65d1512d9faecb" target="_top" xlink:title=" ">
<polygon fill="white" stroke="black" points="220.5,-701.5 220.5,-731.5 362.5,-731.5 362.5,-701.5 220.5,-701.5"/>
<text text-anchor="start" x="228.5" y="-719.5" font-family="Helvetica,sans-Serif" font-size="10.00">denoptim.graph.Fragment.get</text>
<text text-anchor="middle" x="291.5" y="-708.5" font-family="Helvetica,sans-Serif" font-size="10.00">IAtomContainer</text>
</a>
</g>
</g>
<!-- Node1&#45;&gt;Node9 -->
<g id="edge8" class="edge">
<title>Node1&#45;&gt;Node9</title>
<path fill="none" stroke="midnightblue" d="M85.41,-542.55C99.07,-575.28 136.08,-653.16 193,-692.5 198.54,-696.33 204.63,-699.55 210.97,-702.26"/>
<polygon fill="midnightblue" stroke="midnightblue" points="209.83,-705.57 220.42,-705.87 212.33,-699.03 209.83,-705.57"/>
</g>
<!-- Node19 -->
<g id="node19" class="node">
<title>Node19</title>
<g id="a_node19"><a xlink:href="classdenoptim_1_1programs_1_1fragmenter_1_1_fragmenter_parameters.html#a8318be14242fec469c738d7d4db1ff59" target="_top" xlink:title=" ">
<polygon fill="white" stroke="black" points="193,-642 193,-683 390,-683 390,-642 193,-642"/>
<text text-anchor="start" x="201" y="-671" font-family="Helvetica,sans-Serif" font-size="10.00">denoptim.programs.fragmenter.</text>
<text text-anchor="start" x="201" y="-660" font-family="Helvetica,sans-Serif" font-size="10.00">FragmenterParameters.getMaxFragHeavy</text>
<text text-anchor="middle" x="291.5" y="-649" font-family="Helvetica,sans-Serif" font-size="10.00">AtomCount</text>
</a>
</g>
</g>
<!-- Node1&#45;&gt;Node19 -->
<g id="edge18" class="edge">
<title>Node1&#45;&gt;Node19</title>
<path fill="none" stroke="midnightblue" d="M91.79,-542.84C111.02,-565.82 150.42,-609.11 193,-633.5 195.55,-634.96 198.18,-636.35 200.87,-637.68"/>
<polygon fill="midnightblue" stroke="midnightblue" points="199.66,-640.98 210.21,-641.95 202.57,-634.61 199.66,-640.98"/>
</g>
<!-- Node20 -->
<g id="node20" class="node">
<title>Node20</title>
<g id="a_node20"><a xlink:href="classdenoptim_1_1utils_1_1_many_s_m_a_r_t_s_query.html#a3506079a3de962c32b2c715f8cea96e6" target="_top" xlink:title=" ">
<polygon fill="white" stroke="black" points="199,-593.5 199,-623.5 384,-623.5 384,-593.5 199,-593.5"/>
<text text-anchor="start" x="207" y="-611.5" font-family="Helvetica,sans-Serif" font-size="10.00">denoptim.utils.ManySMARTSQuery.get</text>
<text text-anchor="middle" x="291.5" y="-600.5" font-family="Helvetica,sans-Serif" font-size="10.00">Message</text>
</a>
</g>
</g>
<!-- Node1&#45;&gt;Node20 -->
<g id="edge19" class="edge">
<title>Node1&#45;&gt;Node20</title>
<path fill="none" stroke="midnightblue" d="M105.35,-542.59C127.89,-555.22 161.76,-572.98 193,-584.5 198.9,-586.68 205.08,-588.72 211.34,-590.62"/>
<polygon fill="midnightblue" stroke="midnightblue" points="210.62,-594.05 221.2,-593.48 212.58,-587.33 210.62,-594.05"/>
</g>
<!-- Node21 -->
<g id="node21" class="node">
<title>Node21</title>
<g id="a_node21"><a xlink:href="classdenoptim_1_1programs_1_1fragmenter_1_1_fragmenter_parameters.html#a48bfa92ab027832fbd27ec56450ee481" target="_top" xlink:title=" ">
<polygon fill="white" stroke="black" points="194,-534 194,-575 389,-575 389,-534 194,-534"/>
<text text-anchor="start" x="202" y="-563" font-family="Helvetica,sans-Serif" font-size="10.00">denoptim.programs.fragmenter.</text>
<text text-anchor="start" x="202" y="-552" font-family="Helvetica,sans-Serif" font-size="10.00">FragmenterParameters.getMinFragHeavy</text>
<text text-anchor="middle" x="291.5" y="-541" font-family="Helvetica,sans-Serif" font-size="10.00">AtomCount</text>
</a>
</g>
</g>
<!-- Node1&#45;&gt;Node21 -->
<g id="edge20" class="edge">
<title>Node1&#45;&gt;Node21</title>
<path fill="none" stroke="midnightblue" d="M157.17,-537.44C165.88,-538.55 174.86,-539.7 183.85,-540.85"/>
<polygon fill="midnightblue" stroke="midnightblue" points="183.63,-544.35 193.99,-542.15 184.52,-537.41 183.63,-544.35"/>
</g>
<!-- Node22 -->
<g id="node22" class="node">
<title>Node22</title>
<g id="a_node22"><a xlink:href="classdenoptim_1_1utils_1_1_many_s_m_a_r_t_s_query.html#aea287dfe72ffc150250c8180706289bd" target="_top" xlink:title=" ">
<polygon fill="white" stroke="black" points="199,-485.5 199,-515.5 384,-515.5 384,-485.5 199,-485.5"/>
<text text-anchor="start" x="207" y="-503.5" font-family="Helvetica,sans-Serif" font-size="10.00">denoptim.utils.ManySMARTSQuery.get</text>
<text text-anchor="middle" x="291.5" y="-492.5" font-family="Helvetica,sans-Serif" font-size="10.00">NumMatchesOfQuery</text>
</a>
</g>
</g>
<!-- Node1&#45;&gt;Node22 -->
<g id="edge21" class="edge">
<title>Node1&#45;&gt;Node22</title>
<path fill="none" stroke="midnightblue" d="M157.17,-517.56C167.41,-516.25 178.03,-514.89 188.6,-513.54"/>
<polygon fill="midnightblue" stroke="midnightblue" points="189.23,-516.99 198.7,-512.25 188.34,-510.04 189.23,-516.99"/>
</g>
<!-- Node23 -->
<g id="node23" class="node">
<title>Node23</title>
<g id="a_node23"><a xlink:href="classdenoptim_1_1utils_1_1_molecule_utils.html#ac74037442de1ef05310f5e6fa79f7fb0" target="_top" xlink:title="Return the 3D coordinates, if present.">
<polygon fill="white" stroke="black" points="214.5,-436.5 214.5,-466.5 368.5,-466.5 368.5,-436.5 214.5,-436.5"/>
<text text-anchor="start" x="222.5" y="-454.5" font-family="Helvetica,sans-Serif" font-size="10.00">denoptim.utils.MoleculeUtils.get</text>
<text text-anchor="middle" x="291.5" y="-443.5" font-family="Helvetica,sans-Serif" font-size="10.00">Point3d</text>
</a>
</g>
</g>
<!-- Node1&#45;&gt;Node23 -->
<g id="edge22" class="edge">
<title>Node1&#45;&gt;Node23</title>
<path fill="none" stroke="midnightblue" d="M109.28,-512.43C131.84,-501.42 163.84,-486.7 193,-476.5 200.31,-473.94 208,-471.52 215.74,-469.27"/>
<polygon fill="midnightblue" stroke="midnightblue" points="216.85,-472.59 225.53,-466.5 214.95,-465.85 216.85,-472.59"/>
</g>
<!-- Node24 -->
<g id="node24" class="node">
<title>Node24</title>
<g id="a_node24"><a xlink:href="classdenoptim_1_1programs_1_1fragmenter_1_1_fragmenter_parameters.html#aad38fd9ccf23dd69335fae6288d18eae" target="_top" xlink:title=" ">
<polygon fill="white" stroke="black" points="206.5,-377 206.5,-418 376.5,-418 376.5,-377 206.5,-377"/>
<text text-anchor="start" x="214.5" y="-406" font-family="Helvetica,sans-Serif" font-size="10.00">denoptim.programs.fragmenter.</text>
<text text-anchor="start" x="214.5" y="-395" font-family="Helvetica,sans-Serif" font-size="10.00">FragmenterParameters.getRejected</text>
<text text-anchor="middle" x="291.5" y="-384" font-family="Helvetica,sans-Serif" font-size="10.00">APClassCombinations</text>
</a>
</g>
</g>
<!-- Node1&#45;&gt;Node24 -->
<g id="edge23" class="edge">
<title>Node1&#45;&gt;Node24</title>
<path fill="none" stroke="midnightblue" d="M92.66,-512.4C112.4,-490.65 151.75,-450.59 193,-427.5 196.42,-425.58 199.98,-423.77 203.63,-422.07"/>
<polygon fill="midnightblue" stroke="midnightblue" points="205.09,-425.25 212.85,-418.04 202.29,-418.84 205.09,-425.25"/>
</g>
<!-- Node25 -->
<g id="node25" class="node">
<title>Node25</title>
<g id="a_node25"><a xlink:href="classdenoptim_1_1programs_1_1fragmenter_1_1_fragmenter_parameters.html#ab9bf99e556647ca6bed13ead4d125a2f" target="_top" xlink:title=" ">
<polygon fill="white" stroke="black" points="206.5,-317 206.5,-358 376.5,-358 376.5,-317 206.5,-317"/>
<text text-anchor="start" x="214.5" y="-346" font-family="Helvetica,sans-Serif" font-size="10.00">denoptim.programs.fragmenter.</text>
<text text-anchor="start" x="214.5" y="-335" font-family="Helvetica,sans-Serif" font-size="10.00">FragmenterParameters.getRejected</text>
<text text-anchor="middle" x="291.5" y="-324" font-family="Helvetica,sans-Serif" font-size="10.00">APClasses</text>
</a>
</g>
</g>
<!-- Node1&#45;&gt;Node25 -->
<g id="edge24" class="edge">
<title>Node1&#45;&gt;Node25</title>
<path fill="none" stroke="midnightblue" d="M86.14,-512.19C100.73,-480.37 138.64,-406.82 193,-367.5 195.13,-365.96 197.35,-364.49 199.63,-363.1"/>
<polygon fill="midnightblue" stroke="midnightblue" points="201.64,-365.99 208.71,-358.09 198.26,-359.86 201.64,-365.99"/>
</g>
<!-- Node26 -->
<g id="node26" class="node">
<title>Node26</title>
<g id="a_node26"><a xlink:href="classdenoptim_1_1programs_1_1fragmenter_1_1_fragmenter_parameters.html#a6bc3e3c1ad8fd4c08f4aaa9718d0db11" target="_top" xlink:title=" ">
<polygon fill="white" stroke="black" points="206.5,-257 206.5,-298 376.5,-298 376.5,-257 206.5,-257"/>
<text text-anchor="start" x="214.5" y="-286" font-family="Helvetica,sans-Serif" font-size="10.00">denoptim.programs.fragmenter.</text>
<text text-anchor="start" x="214.5" y="-275" font-family="Helvetica,sans-Serif" font-size="10.00">FragmenterParameters.getRejected</text>
<text text-anchor="middle" x="291.5" y="-264" font-family="Helvetica,sans-Serif" font-size="10.00">Elements</text>
</a>
</g>
</g>
<!-- Node1&#45;&gt;Node26 -->
<g id="edge25" class="edge">
<title>Node1&#45;&gt;Node26</title>
<path fill="none" stroke="midnightblue" d="M82.95,-512.39C92.82,-472.67 124.92,-364.44 193,-307.5 194.58,-306.18 196.22,-304.92 197.9,-303.71"/>
<polygon fill="midnightblue" stroke="midnightblue" points="200.13,-306.44 206.7,-298.12 196.38,-300.53 200.13,-306.44"/>
</g>
<!-- Node27 -->
<g id="node27" class="node">
<title>Node27</title>
<g id="a_node27"><a xlink:href="classdenoptim_1_1programs_1_1fragmenter_1_1_fragmenter_parameters.html#a3ed1f6cb25bea7ff1978886dd059d42f" target="_top" xlink:title=" ">
<polygon fill="white" stroke="black" points="206.5,-197 206.5,-238 376.5,-238 376.5,-197 206.5,-197"/>
<text text-anchor="start" x="214.5" y="-226" font-family="Helvetica,sans-Serif" font-size="10.00">denoptim.programs.fragmenter.</text>
<text text-anchor="start" x="214.5" y="-215" font-family="Helvetica,sans-Serif" font-size="10.00">FragmenterParameters.getRejected</text>
<text text-anchor="middle" x="291.5" y="-204" font-family="Helvetica,sans-Serif" font-size="10.00">FormulaLessThan</text>
</a>
</g>
</g>
<!-- Node1&#45;&gt;Node27 -->
<g id="edge26" class="edge">
<title>Node1&#45;&gt;Node27</title>
<path fill="none" stroke="midnightblue" d="M81.14,-512.19C86.99,-465.36 111.04,-322.65 193,-247.5 194.52,-246.11 196.1,-244.78 197.73,-243.52"/>
<polygon fill="midnightblue" stroke="midnightblue" points="200.01,-246.2 206.32,-237.69 196.08,-240.41 200.01,-246.2"/>
</g>
<!-- Node28 -->
<g id="node28" class="node">
<title>Node28</title>
<g id="a_node28"><a xlink:href="classdenoptim_1_1programs_1_1fragmenter_1_1_fragmenter_parameters.html#a8b9298cb2ed0de78fdc1b6ce00dd8d95" target="_top" xlink:title=" ">
<polygon fill="white" stroke="black" points="206.5,-137 206.5,-178 376.5,-178 376.5,-137 206.5,-137"/>
<text text-anchor="start" x="214.5" y="-166" font-family="Helvetica,sans-Serif" font-size="10.00">denoptim.programs.fragmenter.</text>
<text text-anchor="start" x="214.5" y="-155" font-family="Helvetica,sans-Serif" font-size="10.00">FragmenterParameters.getRejected</text>
<text text-anchor="middle" x="291.5" y="-144" font-family="Helvetica,sans-Serif" font-size="10.00">FormulaMoreThan</text>
</a>
</g>
</g>
<!-- Node1&#45;&gt;Node28 -->
<g id="edge27" class="edge">
<title>Node1&#45;&gt;Node28</title>
<path fill="none" stroke="midnightblue" d="M79.89,-512.44C82.08,-459.72 96.61,-281.63 193,-187.5 194.47,-186.06 196.01,-184.69 197.61,-183.39"/>
<polygon fill="midnightblue" stroke="midnightblue" points="199.92,-186.04 206.05,-177.4 195.87,-180.33 199.92,-186.04"/>
</g>
<!-- Node29 -->
<g id="node29" class="node">
<title>Node29</title>
<g id="a_node29"><a xlink:href="classdenoptim_1_1utils_1_1_molecule_utils.html#a8bca186632882f9399b9511020a43211" target="_top" xlink:title="Gets either the elemental symbol (for standard atoms) of the label (for pseudo&#45;atoms).">
<polygon fill="white" stroke="black" points="214.5,-88.5 214.5,-118.5 368.5,-118.5 368.5,-88.5 214.5,-88.5"/>
<text text-anchor="start" x="222.5" y="-106.5" font-family="Helvetica,sans-Serif" font-size="10.00">denoptim.utils.MoleculeUtils.get</text>
<text text-anchor="middle" x="291.5" y="-95.5" font-family="Helvetica,sans-Serif" font-size="10.00">SymbolOrLabel</text>
</a>
</g>
</g>
<!-- Node1&#45;&gt;Node29 -->
<g id="edge28" class="edge">
<title>Node1&#45;&gt;Node29</title>
<path fill="none" stroke="midnightblue" d="M78.81,-512.14C77.05,-452.95 79.01,-237.55 193,-127.5 196.74,-123.88 200.94,-120.79 205.44,-118.13"/>
<polygon fill="midnightblue" stroke="midnightblue" points="207.08,-121.22 214.4,-113.56 203.9,-114.99 207.08,-121.22"/>
</g>
<!-- Node30 -->
<g id="node30" class="node">
<title>Node30</title>
<g id="a_node30"><a xlink:href="classdenoptim_1_1utils_1_1_molecule_utils.html#af975649c8225c4653efb1135d8360c2d" target="_top" xlink:title="Check element symbol corresponds to real element of Periodic Table.">
<polygon fill="white" stroke="black" points="431,-66.5 431,-96.5 579,-96.5 579,-66.5 431,-66.5"/>
<text text-anchor="start" x="439" y="-84.5" font-family="Helvetica,sans-Serif" font-size="10.00">denoptim.utils.MoleculeUtils.is</text>
<text text-anchor="middle" x="505" y="-73.5" font-family="Helvetica,sans-Serif" font-size="10.00">Element</text>
</a>
</g>
</g>
<!-- Node1&#45;&gt;Node30 -->
<g id="edge32" class="edge">
<title>Node1&#45;&gt;Node30</title>
<path fill="none" stroke="midnightblue" d="M80.9,-512.27C87.89,-440.16 121.47,-134.2 193,-78.5 267.56,-20.44 385.53,-43.17 452.71,-63.36"/>
<polygon fill="midnightblue" stroke="midnightblue" points="452.05,-66.82 462.64,-66.44 454.12,-60.13 452.05,-66.82"/>
</g>
<!-- Node31 -->
<g id="node31" class="node">
<title>Node31</title>
<g id="a_node31"><a xlink:href="classdenoptim_1_1utils_1_1_many_s_m_a_r_t_s_query.html#aaffb007354a24c9fb679742e431c9980" target="_top" xlink:title=" ">
<polygon fill="white" stroke="black" points="198,-0.5 198,-30.5 385,-30.5 385,-0.5 198,-0.5"/>
<text text-anchor="start" x="206" y="-18.5" font-family="Helvetica,sans-Serif" font-size="10.00">denoptim.utils.ManySMARTSQuery.has</text>
<text text-anchor="middle" x="291.5" y="-7.5" font-family="Helvetica,sans-Serif" font-size="10.00">Problems</text>
</a>
</g>
</g>
<!-- Node1&#45;&gt;Node31 -->
<g id="edge31" class="edge">
<title>Node1&#45;&gt;Node31</title>
<path fill="none" stroke="midnightblue" d="M81.08,-512.12C88.99,-437.78 126.66,-116.46 193,-45.5 196.38,-41.89 200.17,-38.71 204.26,-35.91"/>
<polygon fill="midnightblue" stroke="midnightblue" points="206.23,-38.81 213.02,-30.68 202.64,-32.8 206.23,-38.81"/>
</g>
<!-- Node4 -->
<g id="node4" class="node">
<title>Node4</title>
<g id="a_node4"><a xlink:href="classdenoptim_1_1graph_1_1_vertex.html#a022f7c9075b178f17e13339b215ee21f" target="_top" xlink:title=" ">
<polygon fill="white" stroke="black" points="441,-967.5 441,-997.5 569,-997.5 569,-967.5 441,-967.5"/>
<text text-anchor="start" x="449" y="-985.5" font-family="Helvetica,sans-Serif" font-size="10.00">denoptim.graph.Vertex.get</text>
<text text-anchor="middle" x="505" y="-974.5" font-family="Helvetica,sans-Serif" font-size="10.00">AttachmentPoints</text>
</a>
</g>
</g>
<!-- Node3&#45;&gt;Node4 -->
<g id="edge3" class="edge">
<title>Node3&#45;&gt;Node4</title>
<path fill="none" stroke="midnightblue" d="M355.67,-982.5C379.21,-982.5 406.13,-982.5 430.51,-982.5"/>
<polygon fill="midnightblue" stroke="midnightblue" points="430.79,-986 440.79,-982.5 430.79,-979 430.79,-986"/>
</g>
<!-- Node10 -->
<g id="node10" class="node">
<title>Node10</title>
<g id="a_node10"><a xlink:href="classdenoptim_1_1graph_1_1_vertex.html#a9ad275adf822019ad803cb3c95e9a6d2" target="_top" xlink:title=" ">
<polygon fill="white" stroke="black" points="441,-750.5 441,-780.5 569,-780.5 569,-750.5 441,-750.5"/>
<text text-anchor="start" x="449" y="-768.5" font-family="Helvetica,sans-Serif" font-size="10.00">denoptim.graph.Vertex.get</text>
<text text-anchor="middle" x="505" y="-757.5" font-family="Helvetica,sans-Serif" font-size="10.00">Property</text>
</a>
</g>
</g>
<!-- Node9&#45;&gt;Node10 -->
<g id="edge9" class="edge">
<title>Node9&#45;&gt;Node10</title>
<path fill="none" stroke="midnightblue" d="M357.39,-731.53C380.56,-736.9 406.81,-742.98 430.63,-748.5"/>
<polygon fill="midnightblue" stroke="midnightblue" points="430.15,-751.98 440.68,-750.83 431.73,-745.16 430.15,-751.98"/>
</g>
<!-- Node11 -->
<g id="node11" class="node">
<title>Node11</title>
<g id="a_node11"><a xlink:href="classdenoptim_1_1graph_1_1_vertex.html#af44ae05546096ec9060d7207f38bc8e9" target="_top" xlink:title=" ">
<polygon fill="white" stroke="black" points="441,-701.5 441,-731.5 569,-731.5 569,-701.5 441,-701.5"/>
<text text-anchor="start" x="449" y="-719.5" font-family="Helvetica,sans-Serif" font-size="10.00">denoptim.graph.Vertex.get</text>
<text text-anchor="middle" x="505" y="-708.5" font-family="Helvetica,sans-Serif" font-size="10.00">VertexId</text>
</a>
</g>
</g>
<!-- Node9&#45;&gt;Node11 -->
<g id="edge10" class="edge">
<title>Node9&#45;&gt;Node11</title>
<path fill="none" stroke="midnightblue" d="M362.63,-716.5C384.43,-716.5 408.52,-716.5 430.54,-716.5"/>
<polygon fill="midnightblue" stroke="midnightblue" points="430.83,-720 440.83,-716.5 430.83,-713 430.83,-720"/>
</g>
<!-- Node12 -->
<g id="node12" class="node">
<title>Node12</title>
<g id="a_node12"><a xlink:href="classdenoptim_1_1graph_1_1_fragment.html#a9e7e05e43d235a3b0bfc01e3ac43c26d" target="_top" xlink:title="Finds the DENOPTIMAttachmentPoint objects defined as properties of the atoms in this container,...">
<polygon fill="white" stroke="black" points="426,-652.5 426,-682.5 584,-682.5 584,-652.5 426,-652.5"/>
<text text-anchor="start" x="434" y="-670.5" font-family="Helvetica,sans-Serif" font-size="10.00">denoptim.graph.Fragment.project</text>
<text text-anchor="middle" x="505" y="-659.5" font-family="Helvetica,sans-Serif" font-size="10.00">APsToProperties</text>
</a>
</g>
</g>
<!-- Node9&#45;&gt;Node12 -->
<g id="edge11" class="edge">
<title>Node9&#45;&gt;Node12</title>
<path fill="none" stroke="midnightblue" d="M357.39,-701.47C380.13,-696.2 405.85,-690.24 429.32,-684.8"/>
<polygon fill="midnightblue" stroke="midnightblue" points="430.28,-688.17 439.23,-682.51 428.7,-681.35 430.28,-688.17"/>
</g>
<!-- Node13 -->
<g id="node13" class="node">
<title>Node13</title>
<g id="a_node13"><a xlink:href="classdenoptim_1_1graph_1_1_attachment_point.html#abf5b2cd3742215db41d879865d9d6609" target="_top" xlink:title="Prepares the two strings that can be used to define AttachmentPoints in SDF files.">
<polygon fill="white" stroke="black" points="620,-701.5 620,-731.5 767,-731.5 767,-701.5 620,-701.5"/>
<text text-anchor="start" x="628" y="-719.5" font-family="Helvetica,sans-Serif" font-size="10.00">denoptim.graph.Attachment</text>
<text text-anchor="middle" x="693.5" y="-708.5" font-family="Helvetica,sans-Serif" font-size="10.00">Point.getAPDefinitionsForSDF</text>
</a>
</g>
</g>
<!-- Node12&#45;&gt;Node13 -->
<g id="edge12" class="edge">
<title>Node12&#45;&gt;Node13</title>
<path fill="none" stroke="midnightblue" d="M563.22,-682.53C582.92,-687.71 605.14,-693.55 625.54,-698.91"/>
<polygon fill="midnightblue" stroke="midnightblue" points="624.82,-702.34 635.38,-701.49 626.6,-695.57 624.82,-702.34"/>
</g>
<!-- Node17 -->
<g id="node17" class="node">
<title>Node17</title>
<g id="a_node17"><a xlink:href="classdenoptim_1_1graph_1_1_fragment.html#a551361a1155600e6e2fe4e37590c924f" target="_top" xlink:title=" ">
<polygon fill="white" stroke="black" points="622.5,-652.5 622.5,-682.5 764.5,-682.5 764.5,-652.5 622.5,-652.5"/>
<text text-anchor="start" x="630.5" y="-670.5" font-family="Helvetica,sans-Serif" font-size="10.00">denoptim.graph.Fragment.get</text>
<text text-anchor="middle" x="693.5" y="-659.5" font-family="Helvetica,sans-Serif" font-size="10.00">APsFromAtom</text>
</a>
</g>
</g>
<!-- Node12&#45;&gt;Node17 -->
<g id="edge16" class="edge">
<title>Node12&#45;&gt;Node17</title>
<path fill="none" stroke="midnightblue" d="M584.01,-667.5C593.32,-667.5 602.84,-667.5 612.18,-667.5"/>
<polygon fill="midnightblue" stroke="midnightblue" points="612.23,-671 622.23,-667.5 612.23,-664 612.23,-671"/>
</g>
<!-- Node18 -->
<g id="node18" class="node">
<title>Node18</title>
<g id="a_node18"><a xlink:href="classdenoptim_1_1graph_1_1_vertex.html#ad26ecf426a5e415605df94be904e58d3" target="_top" xlink:title=" ">
<polygon fill="white" stroke="black" points="629.5,-603.5 629.5,-633.5 757.5,-633.5 757.5,-603.5 629.5,-603.5"/>
<text text-anchor="start" x="637.5" y="-621.5" font-family="Helvetica,sans-Serif" font-size="10.00">denoptim.graph.Vertex.set</text>
<text text-anchor="middle" x="693.5" y="-610.5" font-family="Helvetica,sans-Serif" font-size="10.00">Property</text>
</a>
</g>
</g>
<!-- Node12&#45;&gt;Node18 -->
<g id="edge17" class="edge">
<title>Node12&#45;&gt;Node18</title>
<path fill="none" stroke="midnightblue" d="M563.22,-652.47C582.92,-647.29 605.14,-641.45 625.54,-636.09"/>
<polygon fill="midnightblue" stroke="midnightblue" points="626.6,-639.43 635.38,-633.51 624.82,-632.66 626.6,-639.43"/>
</g>
<!-- Node14 -->
<g id="node14" class="node">
<title>Node14</title>
<g id="a_node14"><a xlink:href="classdenoptim_1_1graph_1_1_attachment_point.html#ae529678561712f679be4b8d737f2ab83" target="_top" xlink:title="Prepare a string for writing this AP in a fragment SDF file.">
<polygon fill="white" stroke="black" points="803,-701.5 803,-731.5 943,-731.5 943,-701.5 803,-701.5"/>
<text text-anchor="start" x="811" y="-719.5" font-family="Helvetica,sans-Serif" font-size="10.00">denoptim.graph.Attachment</text>
<text text-anchor="middle" x="873" y="-708.5" font-family="Helvetica,sans-Serif" font-size="10.00">Point.getSingleAPStringSDF</text>
</a>
</g>
</g>
<!-- Node13&#45;&gt;Node14 -->
<g id="edge13" class="edge">
<title>Node13&#45;&gt;Node14</title>
<path fill="none" stroke="midnightblue" d="M767.21,-716.5C775.58,-716.5 784.15,-716.5 792.6,-716.5"/>
<polygon fill="midnightblue" stroke="midnightblue" points="792.84,-720 802.84,-716.5 792.84,-713 792.84,-720"/>
</g>
<!-- Node15 -->
<g id="node15" class="node">
<title>Node15</title>
<g id="a_node15"><a xlink:href="classdenoptim_1_1utils_1_1_general_utils.html#a05bc718161978283c7db11369386a934" target="_top" xlink:title="Formats a decimal number using the given pattern but with English format as for separators.">
<polygon fill="white" stroke="black" points="979,-726.5 979,-756.5 1128,-756.5 1128,-726.5 979,-726.5"/>
<text text-anchor="start" x="987" y="-744.5" font-family="Helvetica,sans-Serif" font-size="10.00">denoptim.utils.GeneralUtils.get</text>
<text text-anchor="middle" x="1053.5" y="-733.5" font-family="Helvetica,sans-Serif" font-size="10.00">EnglishFormattedDecimal</text>
</a>
</g>
</g>
<!-- Node14&#45;&gt;Node15 -->
<g id="edge14" class="edge">
<title>Node14&#45;&gt;Node15</title>
<path fill="none" stroke="midnightblue" d="M943.01,-726.17C951.47,-727.35 960.19,-728.57 968.84,-729.78"/>
<polygon fill="midnightblue" stroke="midnightblue" points="968.55,-733.28 978.94,-731.2 969.52,-726.34 968.55,-733.28"/>
</g>
<!-- Node16 -->
<g id="node16" class="node">
<title>Node16</title>
<g id="a_node16"><a xlink:href="classdenoptim_1_1graph_1_1_a_p_class.html#ad771aba34950060ecbba81eb4b924445" target="_top" xlink:title=" ">
<polygon fill="white" stroke="black" points="986.5,-677.5 986.5,-707.5 1120.5,-707.5 1120.5,-677.5 986.5,-677.5"/>
<text text-anchor="start" x="994.5" y="-695.5" font-family="Helvetica,sans-Serif" font-size="10.00">denoptim.graph.APClass.to</text>
<text text-anchor="middle" x="1053.5" y="-684.5" font-family="Helvetica,sans-Serif" font-size="10.00">SDFString</text>
</a>
</g>
</g>
<!-- Node14&#45;&gt;Node16 -->
<g id="edge15" class="edge">
<title>Node14&#45;&gt;Node16</title>
<path fill="none" stroke="midnightblue" d="M943.01,-707.22C953.9,-705.76 965.22,-704.24 976.26,-702.75"/>
<polygon fill="midnightblue" stroke="midnightblue" points="976.87,-706.2 986.31,-701.4 975.93,-699.26 976.87,-706.2"/>
</g>
<!-- Node29&#45;&gt;Node30 -->
<g id="edge29" class="edge">
<title>Node29&#45;&gt;Node30</title>
<path fill="none" stroke="midnightblue" d="M368.56,-95.59C385.49,-93.83 403.52,-91.95 420.72,-90.16"/>
<polygon fill="midnightblue" stroke="midnightblue" points="421.15,-93.64 430.74,-89.12 420.43,-86.67 421.15,-93.64"/>
</g>
<!-- Node30&#45;&gt;Node30 -->
<g id="edge30" class="edge">
<title>Node30&#45;&gt;Node30</title>
<path fill="none" stroke="midnightblue" d="M472.24,-96.66C464.34,-106.06 475.26,-115 505,-115 523.12,-115 534.26,-111.68 538.41,-106.96"/>
<polygon fill="midnightblue" stroke="midnightblue" points="541.88,-106.42 537.76,-96.66 534.89,-106.86 541.88,-106.42"/>
</g>
</g>
</svg>
        <g id="navigator" transform="translate(0 0)" fill="#404254">
                <rect fill="#f2f5e9" fill-opacity="0.5" stroke="#606060" stroke-width=".5" x="0" y="0" width="60" height="60"/>
                <use id="zoomplus" xlink:href="#zoomPlus" x="17" y="9" onmousedown="handleZoom(evt,'in')"/>
                <use id="zoomminus" xlink:href="#zoomMin" x="42" y="9" onmousedown="handleZoom(evt,'out')"/>
                <use id="reset" xlink:href="#resetDef" x="30" y="36" onmousedown="handleReset()"/>
                <g id="arrowUp" xlink:href="#dirArrow" transform="translate(30 24)" onmousedown="handlePan(0,-1)">
                  <use xlink:href="#rim" fill="#404040">
                        <set attributeName="fill" to="#808080" begin="arrowUp.mouseover" end="arrowUp.mouseout"/>
                  </use>
                  <path fill="none" stroke="white" stroke-width="1.5" d="M0,-3.0v7 M-2.5,-0.5L0,-3.0L2.5,-0.5"/>
                </g>
                <g id="arrowRight" xlink:href="#dirArrow" transform="rotate(90) translate(36 -43)" onmousedown="handlePan(1,0)">
                  <use xlink:href="#rim" fill="#404040">
                        <set attributeName="fill" to="#808080" begin="arrowRight.mouseover" end="arrowRight.mouseout"/>
                  </use>
                  <path fill="none" stroke="white" stroke-width="1.5" d="M0,-3.0v7 M-2.5,-0.5L0,-3.0L2.5,-0.5"/>
                </g>
                <g id="arrowDown" xlink:href="#dirArrow" transform="rotate(180) translate(-30 -48)" onmousedown="handlePan(0,1)">
                  <use xlink:href="#rim" fill="#404040">
                        <set attributeName="fill" to="#808080" begin="arrowDown.mouseover" end="arrowDown.mouseout"/>
                  </use>
                  <path fill="none" stroke="white" stroke-width="1.5" d="M0,-3.0v7 M-2.5,-0.5L0,-3.0L2.5,-0.5"/>
                </g>
                <g id="arrowLeft" xlink:href="#dirArrow" transform="rotate(270) translate(-36 17)" onmousedown="handlePan(-1,0)">
                  <use xlink:href="#rim" fill="#404040">
                        <set attributeName="fill" to="#808080" begin="arrowLeft.mouseover" end="arrowLeft.mouseout"/>
                  </use>
                  <path fill="none" stroke="white" stroke-width="1.5" d="M0,-3.0v7 M-2.5,-0.5L0,-3.0L2.5,-0.5"/>
                </g>
        </g>
        <svg viewBox="0 0 15 15" width="100%" height="30px" preserveAspectRatio="xMaxYMin meet">
         <g id="arrow_out" transform="scale(0.3 0.3)">
          <a xlink:href="classdenoptim_1_1fragmenter_1_1_fragmenter_tools_aacad4752a8f6324a9c8e5a96ff14efe5_cgraph_org.svg" target="_base">
           <rect id="button" ry="5" rx="5" y="6" x="6" height="38" width="38"
                fill="#f2f5e9" fill-opacity="0.5" stroke="#606060" stroke-width="1.0"/>
           <path id="arrow"
             d="M 11.500037,31.436501 C 11.940474,20.09759 22.043105,11.32322 32.158766,21.979434 L 37.068811,17.246167 C 37.068811,17.246167 37.088388,32 37.088388,32 L 22.160133,31.978069 C 22.160133,31.978069 26.997745,27.140456 26.997745,27.140456 C 18.528582,18.264221 13.291696,25.230495 11.500037,31.436501 z"
             style="fill:#404040;"/>
          </a>
         </g>
        </svg>
</svg>
