<?xml version="1.0" encoding="UTF-8" standalone="no"?>
<!DOCTYPE svg PUBLIC "-//W3C//DTD SVG 1.1//EN"
 "http://www.w3.org/Graphics/SVG/1.1/DTD/svg11.dtd">
<!-- Generated by graphviz version 3.0.0 (20220413.0242)
 -->
<!-- Title: denoptim.graph.DGraph.getSymmetricSubGraphs Pages: 1 -->
<!--zoomable 220 -->
<svg id="main" version="1.1" xmlns="http://www.w3.org/2000/svg" xmlns:xlink="http://www.w3.org/1999/xlink" xml:space="preserve" onload="init(evt)">
<style type="text/css"><![CDATA[
.edge:hover path { stroke: red; }
.edge:hover polygon { stroke: red; fill: red; }
]]></style>
<script type="text/javascript"><![CDATA[
var edges = document.getElementsByTagName('g');
if (edges && edges.length) {
  for (var i=0;i<edges.length;i++) {
    if (edges[i].id.substr(0,4)=='edge') {
      edges[i].setAttribute('class','edge');
    }
  }
}
]]></script>
        <defs>
                <circle id="rim" cx="0" cy="0" r="7"/>
                <circle id="rim2" cx="0" cy="0" r="3.5"/>
                <g id="zoomPlus">
                        <use xlink:href="#rim" fill="#404040">
                                <set attributeName="fill" to="#808080" begin="zoomplus.mouseover" end="zoomplus.mouseout"/>
                        </use>
                        <path d="M-4,0h8M0,-4v8" fill="none" stroke="white" stroke-width="1.5" pointer-events="none"/>
                </g>
                <g id="zoomMin">
                        <use xlink:href="#rim" fill="#404040">
                                <set attributeName="fill" to="#808080" begin="zoomminus.mouseover" end="zoomminus.mouseout"/>
                        </use>
                        <path d="M-4,0h8" fill="none" stroke="white" stroke-width="1.5" pointer-events="none"/>
                </g>
                <g id="dirArrow">
                        <path fill="none" stroke="white" stroke-width="1.5" d="M0,-3.0v7 M-2.5,-0.5L0,-3.0L2.5,-0.5"/>
                </g>
               <g id="resetDef">
                       <use xlink:href="#rim2" fill="#404040">
                               <set attributeName="fill" to="#808080" begin="reset.mouseover" end="reset.mouseout"/>
                       </use>
               </g>
        </defs>

<script type="text/javascript">
var viewWidth = 848;
var viewHeight = 220;
var sectionId = 'dynsection-125';
</script>
<script xlink:href="svgpan.js"/>
<svg id="graph" class="graph">
<g id="viewport">
<title>denoptim.graph.DGraph.getSymmetricSubGraphs</title>
<polygon fill="white" stroke="transparent" points="-4,4 -4,-216 844,-216 844,4 -4,4"/>
<!-- Node1 -->
<g id="node1" class="node">
<title>Node1</title>
<g id="a_node1"><a xlink:title="We assume that the subgraph is a continuously connected, directed graph.">
<polygon fill="#bfbfbf" stroke="black" points="0,-65.5 0,-95.5 134,-95.5 134,-65.5 0,-65.5"/>
<text text-anchor="start" x="8" y="-83.5" font-family="Helvetica,sans-Serif" font-size="10.00">denoptim.graph.DGraph.get</text>
<text text-anchor="middle" x="67" y="-72.5" font-family="Helvetica,sans-Serif" font-size="10.00">SymmetricSubGraphs</text>
</a>
</g>
</g>
<!-- Node2 -->
<g id="node2" class="node">
<title>Node2</title>
<g id="a_node2"><a xlink:href="classdenoptim_1_1graph_1_1_d_graph.html#ae1abe3a930d1189d1020f9a9bbdac0c1" target="_top" xlink:title="Gets all the children of the current vertex recursively.">
<polygon fill="white" stroke="black" points="170,-90.5 170,-120.5 304,-120.5 304,-90.5 170,-90.5"/>
<text text-anchor="start" x="178" y="-108.5" font-family="Helvetica,sans-Serif" font-size="10.00">denoptim.graph.DGraph.get</text>
<text text-anchor="middle" x="237" y="-97.5" font-family="Helvetica,sans-Serif" font-size="10.00">ChildTreeLimited</text>
</a>
</g>
</g>
<!-- Node1&#45;&gt;Node2 -->
<g id="edge1" class="edge">
<title>Node1&#45;&gt;Node2</title>
<path fill="none" stroke="midnightblue" d="M134.4,-90.38C142.77,-91.63 151.39,-92.91 159.89,-94.17"/>
<polygon fill="midnightblue" stroke="midnightblue" points="159.4,-97.64 169.81,-95.65 160.43,-90.72 159.4,-97.64"/>
</g>
<!-- Node9 -->
<g id="node9" class="node">
<title>Node9</title>
<g id="a_node9"><a xlink:href="classdenoptim_1_1graph_1_1_d_graph.html#abf8bfa323ce9164047f0e9035b437fb5" target="_top" xlink:title=" ">
<polygon fill="white" stroke="black" points="170,-41.5 170,-71.5 304,-71.5 304,-41.5 170,-41.5"/>
<text text-anchor="start" x="178" y="-59.5" font-family="Helvetica,sans-Serif" font-size="10.00">denoptim.graph.DGraph.get</text>
<text text-anchor="middle" x="237" y="-48.5" font-family="Helvetica,sans-Serif" font-size="10.00">SymVerticesForVertex</text>
</a>
</g>
</g>
<!-- Node1&#45;&gt;Node9 -->
<g id="edge9" class="edge">
<title>Node1&#45;&gt;Node9</title>
<path fill="none" stroke="midnightblue" d="M134.4,-71.01C142.77,-69.82 151.39,-68.59 159.89,-67.37"/>
<polygon fill="midnightblue" stroke="midnightblue" points="160.4,-70.83 169.81,-65.96 159.41,-63.91 160.4,-70.83"/>
</g>
<!-- Node2&#45;&gt;Node2 -->
<g id="edge2" class="edge">
<title>Node2&#45;&gt;Node2</title>
<path fill="none" stroke="midnightblue" d="M207.37,-120.66C200.23,-130.06 210.11,-139 237,-139 253.39,-139 263.46,-135.68 267.21,-130.96"/>
<polygon fill="midnightblue" stroke="midnightblue" points="270.68,-130.45 266.63,-120.66 263.69,-130.84 270.68,-130.45"/>
</g>
<!-- Node3 -->
<g id="node3" class="node">
<title>Node3</title>
<g id="a_node3"><a xlink:href="classdenoptim_1_1graph_1_1_d_graph.html#a70aeea1a1fe35ea9fe5a49a147e76f1a" target="_top" xlink:title=" ">
<polygon fill="white" stroke="black" points="340,-90.5 340,-120.5 474,-120.5 474,-90.5 340,-90.5"/>
<text text-anchor="start" x="348" y="-108.5" font-family="Helvetica,sans-Serif" font-size="10.00">denoptim.graph.DGraph.get</text>
<text text-anchor="middle" x="407" y="-97.5" font-family="Helvetica,sans-Serif" font-size="10.00">ChildVertices</text>
</a>
</g>
</g>
<!-- Node2&#45;&gt;Node3 -->
<g id="edge3" class="edge">
<title>Node2&#45;&gt;Node3</title>
<path fill="none" stroke="midnightblue" d="M304.4,-105.5C312.68,-105.5 321.2,-105.5 329.62,-105.5"/>
<polygon fill="midnightblue" stroke="midnightblue" points="329.81,-109 339.81,-105.5 329.81,-102 329.81,-109"/>
</g>
<!-- Node4 -->
<g id="node4" class="node">
<title>Node4</title>
<g id="a_node4"><a xlink:href="classdenoptim_1_1graph_1_1_vertex.html#a846e0f49dfefd933c429450545338d25" target="_top" xlink:title="Looks into the edges that use any of the APs that belong to this vertex and returns the list of verti...">
<polygon fill="white" stroke="black" points="517.5,-90.5 517.5,-120.5 645.5,-120.5 645.5,-90.5 517.5,-90.5"/>
<text text-anchor="start" x="525.5" y="-108.5" font-family="Helvetica,sans-Serif" font-size="10.00">denoptim.graph.Vertex.get</text>
<text text-anchor="middle" x="581.5" y="-97.5" font-family="Helvetica,sans-Serif" font-size="10.00">Childdren</text>
</a>
</g>
</g>
<!-- Node3&#45;&gt;Node4 -->
<g id="edge4" class="edge">
<title>Node3&#45;&gt;Node4</title>
<path fill="none" stroke="midnightblue" d="M474.2,-105.5C484.93,-105.5 496.09,-105.5 506.98,-105.5"/>
<polygon fill="midnightblue" stroke="midnightblue" points="507.32,-109 517.32,-105.5 507.32,-102 507.32,-109"/>
</g>
<!-- Node5 -->
<g id="node5" class="node">
<title>Node5</title>
<g id="a_node5"><a xlink:href="classdenoptim_1_1graph_1_1_vertex.html#a022f7c9075b178f17e13339b215ee21f" target="_top" xlink:title=" ">
<polygon fill="white" stroke="black" points="700.5,-181.5 700.5,-211.5 828.5,-211.5 828.5,-181.5 700.5,-181.5"/>
<text text-anchor="start" x="708.5" y="-199.5" font-family="Helvetica,sans-Serif" font-size="10.00">denoptim.graph.Vertex.get</text>
<text text-anchor="middle" x="764.5" y="-188.5" font-family="Helvetica,sans-Serif" font-size="10.00">AttachmentPoints</text>
</a>
</g>
</g>
<!-- Node4&#45;&gt;Node5 -->
<g id="edge5" class="edge">
<title>Node4&#45;&gt;Node5</title>
<path fill="none" stroke="midnightblue" d="M603.23,-120.74C624.07,-135.52 657.53,-157.81 689,-172.5 693.06,-174.39 697.31,-176.2 701.63,-177.9"/>
<polygon fill="midnightblue" stroke="midnightblue" points="700.57,-181.24 711.16,-181.48 703.02,-174.69 700.57,-181.24"/>
</g>
<!-- Node6 -->
<g id="node6" class="node">
<title>Node6</title>
<g id="a_node6"><a xlink:href="classdenoptim_1_1graph_1_1_attachment_point.html#ac8551521d38644f5109800b665957ee9" target="_top" xlink:title=" ">
<polygon fill="white" stroke="black" points="697,-132.5 697,-162.5 832,-162.5 832,-132.5 697,-132.5"/>
<text text-anchor="start" x="705" y="-150.5" font-family="Helvetica,sans-Serif" font-size="10.00">denoptim.graph.Attachment</text>
<text text-anchor="middle" x="764.5" y="-139.5" font-family="Helvetica,sans-Serif" font-size="10.00">Point.getOwner</text>
</a>
</g>
</g>
<!-- Node4&#45;&gt;Node6 -->
<g id="edge6" class="edge">
<title>Node4&#45;&gt;Node6</title>
<path fill="none" stroke="midnightblue" d="M645.55,-120.13C659.56,-123.38 674.54,-126.86 688.96,-130.2"/>
<polygon fill="midnightblue" stroke="midnightblue" points="688.3,-133.64 698.83,-132.49 689.88,-126.82 688.3,-133.64"/>
</g>
<!-- Node7 -->
<g id="node7" class="node">
<title>Node7</title>
<g id="a_node7"><a xlink:href="classdenoptim_1_1graph_1_1_edge.html#a658e275a18a50f12474777f5f28c35e9" target="_top" xlink:title=" ">
<polygon fill="white" stroke="black" points="689,-94 689,-113 840,-113 840,-94 689,-94"/>
<text text-anchor="middle" x="764.5" y="-101" font-family="Helvetica,sans-Serif" font-size="10.00">denoptim.graph.Edge.getSrcAP</text>
</a>
</g>
</g>
<!-- Node4&#45;&gt;Node7 -->
<g id="edge7" class="edge">
<title>Node4&#45;&gt;Node7</title>
<path fill="none" stroke="midnightblue" d="M645.55,-104.8C656.25,-104.69 667.52,-104.56 678.67,-104.44"/>
<polygon fill="midnightblue" stroke="midnightblue" points="678.9,-107.94 688.86,-104.32 678.82,-100.94 678.9,-107.94"/>
</g>
<!-- Node8 -->
<g id="node8" class="node">
<title>Node8</title>
<g id="a_node8"><a xlink:href="classdenoptim_1_1graph_1_1_edge.html#a44521a3ad1a83e5d0a6be227e35ceffa" target="_top" xlink:title=" ">
<polygon fill="white" stroke="black" points="689.5,-56 689.5,-75 839.5,-75 839.5,-56 689.5,-56"/>
<text text-anchor="middle" x="764.5" y="-63" font-family="Helvetica,sans-Serif" font-size="10.00">denoptim.graph.Edge.getTrgAP</text>
</a>
</g>
</g>
<!-- Node4&#45;&gt;Node8 -->
<g id="edge8" class="edge">
<title>Node4&#45;&gt;Node8</title>
<path fill="none" stroke="midnightblue" d="M645.55,-91.57C666.67,-86.9 690,-81.74 710.29,-77.26"/>
<polygon fill="midnightblue" stroke="midnightblue" points="711.28,-80.62 720.29,-75.05 709.77,-73.79 711.28,-80.62"/>
</g>
<!-- Node10 -->
<g id="node10" class="node">
<title>Node10</title>
<g id="a_node10"><a xlink:href="classdenoptim_1_1graph_1_1_vertex.html#af44ae05546096ec9060d7207f38bc8e9" target="_top" xlink:title=" ">
<polygon fill="white" stroke="black" points="700.5,-4.5 700.5,-34.5 828.5,-34.5 828.5,-4.5 700.5,-4.5"/>
<text text-anchor="start" x="708.5" y="-22.5" font-family="Helvetica,sans-Serif" font-size="10.00">denoptim.graph.Vertex.get</text>
<text text-anchor="middle" x="764.5" y="-11.5" font-family="Helvetica,sans-Serif" font-size="10.00">VertexId</text>
</a>
</g>
</g>
<!-- Node9&#45;&gt;Node10 -->
<g id="edge10" class="edge">
<title>Node9&#45;&gt;Node10</title>
<path fill="none" stroke="midnightblue" d="M304.34,-56.6C386.45,-56.07 530.44,-53.04 653,-39.5 665.16,-38.16 677.99,-36.27 690.44,-34.19"/>
<polygon fill="midnightblue" stroke="midnightblue" points="691.06,-37.63 700.32,-32.49 689.87,-30.74 691.06,-37.63"/>
</g>
<!-- Node11 -->
<g id="node11" class="node">
<title>Node11</title>
<g id="a_node11"><a xlink:href="classdenoptim_1_1graph_1_1_d_graph.html#af68c6f4772e3a77bbb4a63f98dc53d04" target="_top" xlink:title=" ">
<polygon fill="white" stroke="black" points="340,-0.5 340,-30.5 474,-30.5 474,-0.5 340,-0.5"/>
<text text-anchor="start" x="348" y="-18.5" font-family="Helvetica,sans-Serif" font-size="10.00">denoptim.graph.DGraph.get</text>
<text text-anchor="middle" x="407" y="-7.5" font-family="Helvetica,sans-Serif" font-size="10.00">VertexWithId</text>
</a>
</g>
</g>
<!-- Node9&#45;&gt;Node11 -->
<g id="edge11" class="edge">
<title>Node9&#45;&gt;Node11</title>
<path fill="none" stroke="midnightblue" d="M299.6,-41.47C310.9,-38.71 322.78,-35.81 334.35,-32.99"/>
<polygon fill="midnightblue" stroke="midnightblue" points="335.52,-36.3 344.4,-30.53 333.86,-29.5 335.52,-36.3"/>
</g>
<!-- Node12 -->
<g id="node12" class="node">
<title>Node12</title>
<g id="a_node12"><a xlink:href="classdenoptim_1_1graph_1_1_d_graph.html#aff14a66b89e52205a4b6b6a633de0e7e" target="_top" xlink:title="Returns the position of the first vertex that has the given ID.">
<polygon fill="white" stroke="black" points="510,-0.5 510,-30.5 653,-30.5 653,-0.5 510,-0.5"/>
<text text-anchor="start" x="518" y="-18.5" font-family="Helvetica,sans-Serif" font-size="10.00">denoptim.graph.DGraph.index</text>
<text text-anchor="middle" x="581.5" y="-7.5" font-family="Helvetica,sans-Serif" font-size="10.00">OfVertexWithID</text>
</a>
</g>
</g>
<!-- Node11&#45;&gt;Node12 -->
<g id="edge12" class="edge">
<title>Node11&#45;&gt;Node12</title>
<path fill="none" stroke="midnightblue" d="M474.2,-15.5C482.6,-15.5 491.27,-15.5 499.86,-15.5"/>
<polygon fill="midnightblue" stroke="midnightblue" points="499.89,-19 509.89,-15.5 499.89,-12 499.89,-19"/>
</g>
<!-- Node12&#45;&gt;Node10 -->
<g id="edge13" class="edge">
<title>Node12&#45;&gt;Node10</title>
<path fill="none" stroke="midnightblue" d="M653.26,-17.06C665.42,-17.33 678.08,-17.61 690.3,-17.88"/>
<polygon fill="midnightblue" stroke="midnightblue" points="690.37,-21.38 700.45,-18.11 690.53,-14.39 690.37,-21.38"/>
</g>
</g>
</svg>
        <g id="navigator" transform="translate(0 0)" fill="#404254">
                <rect fill="#f2f5e9" fill-opacity="0.5" stroke="#606060" stroke-width=".5" x="0" y="0" width="60" height="60"/>
                <use id="zoomplus" xlink:href="#zoomPlus" x="17" y="9" onmousedown="handleZoom(evt,'in')"/>
                <use id="zoomminus" xlink:href="#zoomMin" x="42" y="9" onmousedown="handleZoom(evt,'out')"/>
                <use id="reset" xlink:href="#resetDef" x="30" y="36" onmousedown="handleReset()"/>
                <g id="arrowUp" xlink:href="#dirArrow" transform="translate(30 24)" onmousedown="handlePan(0,-1)">
                  <use xlink:href="#rim" fill="#404040">
                        <set attributeName="fill" to="#808080" begin="arrowUp.mouseover" end="arrowUp.mouseout"/>
                  </use>
                  <path fill="none" stroke="white" stroke-width="1.5" d="M0,-3.0v7 M-2.5,-0.5L0,-3.0L2.5,-0.5"/>
                </g>
                <g id="arrowRight" xlink:href="#dirArrow" transform="rotate(90) translate(36 -43)" onmousedown="handlePan(1,0)">
                  <use xlink:href="#rim" fill="#404040">
                        <set attributeName="fill" to="#808080" begin="arrowRight.mouseover" end="arrowRight.mouseout"/>
                  </use>
                  <path fill="none" stroke="white" stroke-width="1.5" d="M0,-3.0v7 M-2.5,-0.5L0,-3.0L2.5,-0.5"/>
                </g>
                <g id="arrowDown" xlink:href="#dirArrow" transform="rotate(180) translate(-30 -48)" onmousedown="handlePan(0,1)">
                  <use xlink:href="#rim" fill="#404040">
                        <set attributeName="fill" to="#808080" begin="arrowDown.mouseover" end="arrowDown.mouseout"/>
                  </use>
                  <path fill="none" stroke="white" stroke-width="1.5" d="M0,-3.0v7 M-2.5,-0.5L0,-3.0L2.5,-0.5"/>
                </g>
                <g id="arrowLeft" xlink:href="#dirArrow" transform="rotate(270) translate(-36 17)" onmousedown="handlePan(-1,0)">
                  <use xlink:href="#rim" fill="#404040">
                        <set attributeName="fill" to="#808080" begin="arrowLeft.mouseover" end="arrowLeft.mouseout"/>
                  </use>
                  <path fill="none" stroke="white" stroke-width="1.5" d="M0,-3.0v7 M-2.5,-0.5L0,-3.0L2.5,-0.5"/>
                </g>
        </g>
        <svg viewBox="0 0 15 15" width="100%" height="30px" preserveAspectRatio="xMaxYMin meet">
         <g id="arrow_out" transform="scale(0.3 0.3)">
          <a xlink:href="classdenoptim_1_1graph_1_1_d_graph_a4b3389846d25be8e1e6c7e0a80dd7619_cgraph_org.svg" target="_base">
           <rect id="button" ry="5" rx="5" y="6" x="6" height="38" width="38"
                fill="#f2f5e9" fill-opacity="0.5" stroke="#606060" stroke-width="1.0"/>
           <path id="arrow"
             d="M 11.500037,31.436501 C 11.940474,20.09759 22.043105,11.32322 32.158766,21.979434 L 37.068811,17.246167 C 37.068811,17.246167 37.088388,32 37.088388,32 L 22.160133,31.978069 C 22.160133,31.978069 26.997745,27.140456 26.997745,27.140456 C 18.528582,18.264221 13.291696,25.230495 11.500037,31.436501 z"
             style="fill:#404040;"/>
          </a>
         </g>
        </svg>
</svg>
