<?xml version="1.0" encoding="UTF-8" standalone="no"?>
<!DOCTYPE svg PUBLIC "-//W3C//DTD SVG 1.1//EN"
 "http://www.w3.org/Graphics/SVG/1.1/DTD/svg11.dtd">
<!-- Generated by graphviz version 3.0.0 (20220413.0242)
 -->
<!-- Title: denoptim.gui.FitnessParametersForm Pages: 1 -->
<!--zoomable 836 -->
<svg id="main" version="1.1" xmlns="http://www.w3.org/2000/svg" xmlns:xlink="http://www.w3.org/1999/xlink" xml:space="preserve" onload="init(evt)">
<style type="text/css"><![CDATA[
.edge:hover path { stroke: red; }
.edge:hover polygon { stroke: red; fill: red; }
]]></style>
<script type="text/javascript"><![CDATA[
var edges = document.getElementsByTagName('g');
if (edges && edges.length) {
  for (var i=0;i<edges.length;i++) {
    if (edges[i].id.substr(0,4)=='edge') {
      edges[i].setAttribute('class','edge');
    }
  }
}
]]></script>
        <defs>
                <circle id="rim" cx="0" cy="0" r="7"/>
                <circle id="rim2" cx="0" cy="0" r="3.5"/>
                <g id="zoomPlus">
                        <use xlink:href="#rim" fill="#404040">
                                <set attributeName="fill" to="#808080" begin="zoomplus.mouseover" end="zoomplus.mouseout"/>
                        </use>
                        <path d="M-4,0h8M0,-4v8" fill="none" stroke="white" stroke-width="1.5" pointer-events="none"/>
                </g>
                <g id="zoomMin">
                        <use xlink:href="#rim" fill="#404040">
                                <set attributeName="fill" to="#808080" begin="zoomminus.mouseover" end="zoomminus.mouseout"/>
                        </use>
                        <path d="M-4,0h8" fill="none" stroke="white" stroke-width="1.5" pointer-events="none"/>
                </g>
                <g id="dirArrow">
                        <path fill="none" stroke="white" stroke-width="1.5" d="M0,-3.0v7 M-2.5,-0.5L0,-3.0L2.5,-0.5"/>
                </g>
               <g id="resetDef">
                       <use xlink:href="#rim2" fill="#404040">
                               <set attributeName="fill" to="#808080" begin="reset.mouseover" end="reset.mouseout"/>
                       </use>
               </g>
        </defs>

<script type="text/javascript">
var viewWidth = 895;
var viewHeight = 836;
var sectionId = 'dynsection-1';
</script>
<script xlink:href="svgpan.js"/>
<svg id="graph" class="graph">
<g id="viewport">
<title>denoptim.gui.FitnessParametersForm</title>
<polygon fill="white" stroke="transparent" points="-4,4 -4,-831.62 891,-831.62 891,4 -4,4"/>
<!-- Node1 -->
<g id="node1" class="node">
<title>Node1</title>
<g id="a_node1"><a xlink:title="Form collecting input parameters for a setting&#45;up the fitness provider.">
<polygon fill="#bfbfbf" stroke="black" points="708,-257.12 708,-276.12 887,-276.12 887,-257.12 708,-257.12"/>
<text text-anchor="middle" x="797.5" y="-264.12" font-family="Helvetica,sans-Serif" font-size="10.00">denoptim.gui.FitnessParametersForm</text>
</a>
</g>
</g>
<!-- Node2 -->
<g id="node2" class="node">
<title>Node2</title>
<g id="a_node2"><a xlink:href="classdenoptim_1_1gui_1_1_parameters_form.html" target="_top" xlink:title="General structure of a form for collecting input parameters of various nature.">
<polygon fill="white" stroke="black" points="400,-574.12 400,-593.12 546,-593.12 546,-574.12 400,-574.12"/>
<text text-anchor="middle" x="473" y="-581.12" font-family="Helvetica,sans-Serif" font-size="10.00">denoptim.gui.ParametersForm</text>
</a>
</g>
</g>
<!-- Node2&#45;&gt;Node1 -->
<g id="edge1" class="edge">
<title>Node2&#45;&gt;Node1</title>
<path fill="none" stroke="midnightblue" d="M553.04,-593.56C597.66,-594.85 651.92,-588.67 690,-558.62 784.46,-484.07 795.17,-317.83 796.36,-276.21"/>
<polygon fill="midnightblue" stroke="midnightblue" points="552.94,-590.05 542.8,-593.13 552.65,-597.05 552.94,-590.05"/>
</g>
<!-- Node3 -->
<g id="node3" class="node">
<title>Node3</title>
<g id="a_node3"><a xlink:title=" ">
<polygon fill="white" stroke="black" points="190,-700.12 190,-719.12 237,-719.12 237,-700.12 190,-700.12"/>
<text text-anchor="middle" x="213.5" y="-707.12" font-family="Helvetica,sans-Serif" font-size="10.00">JPanel</text>
</a>
</g>
</g>
<!-- Node3&#45;&gt;Node1 -->
<g id="edge16" class="edge">
<title>Node3&#45;&gt;Node1</title>
<path fill="none" stroke="#9a32cd" stroke-dasharray="5,2" d="M247.22,-711.96C333.09,-716.16 566.72,-714.88 690,-589.62 782.57,-495.57 794.68,-319.55 796.26,-276.37"/>
<polygon fill="#9a32cd" stroke="#9a32cd" points="247.21,-708.45 237.04,-711.4 246.83,-715.44 247.21,-708.45"/>
<text text-anchor="middle" x="473" y="-819.62" font-family="Helvetica,sans-Serif" font-size="10.00"> block</text>
<text text-anchor="middle" x="473" y="-808.62" font-family="Helvetica,sans-Serif" font-size="10.00">descDefinitionPane</text>
<text text-anchor="middle" x="473" y="-797.62" font-family="Helvetica,sans-Serif" font-size="10.00">line3dTrees</text>
<text text-anchor="middle" x="473" y="-786.62" font-family="Helvetica,sans-Serif" font-size="10.00">lineCustomVars</text>
<text text-anchor="middle" x="473" y="-775.62" font-family="Helvetica,sans-Serif" font-size="10.00">lineEq</text>
<text text-anchor="middle" x="473" y="-764.62" font-family="Helvetica,sans-Serif" font-size="10.00">lineFPSource</text>
<text text-anchor="middle" x="473" y="-753.62" font-family="Helvetica,sans-Serif" font-size="10.00">lineFitProviderInterpreter</text>
<text text-anchor="middle" x="473" y="-742.62" font-family="Helvetica,sans-Serif" font-size="10.00">lineFitProviderSource</text>
<text text-anchor="middle" x="473" y="-731.62" font-family="Helvetica,sans-Serif" font-size="10.00">lineIntOrExt</text>
<text text-anchor="middle" x="473" y="-720.62" font-family="Helvetica,sans-Serif" font-size="10.00">linePreFitnessUIDCheck</text>
<text text-anchor="middle" x="473" y="-709.62" font-family="Helvetica,sans-Serif" font-size="10.00">...</text>
</g>
<!-- Node3&#45;&gt;Node2 -->
<g id="edge2" class="edge">
<title>Node3&#45;&gt;Node2</title>
<path fill="none" stroke="midnightblue" d="M247.44,-706.89C282.6,-702.84 339.05,-693.01 382,-669.62 418.44,-649.78 450.85,-611.33 464.77,-593.34"/>
<polygon fill="midnightblue" stroke="midnightblue" points="246.82,-703.43 237.25,-707.97 247.56,-710.39 246.82,-703.43"/>
</g>
<!-- Node4 -->
<g id="node4" class="node">
<title>Node4</title>
<g id="a_node4"><a xlink:href="interfacedenoptim_1_1gui_1_1_i_parameters_form.html" target="_top" xlink:title="Interface for parameter forms.">
<polygon fill="white" stroke="black" points="139,-656.12 139,-675.12 288,-675.12 288,-656.12 139,-656.12"/>
<text text-anchor="middle" x="213.5" y="-663.12" font-family="Helvetica,sans-Serif" font-size="10.00">denoptim.gui.IParametersForm</text>
</a>
</g>
</g>
<!-- Node4&#45;&gt;Node2 -->
<g id="edge3" class="edge">
<title>Node4&#45;&gt;Node2</title>
<path fill="none" stroke="midnightblue" d="M298.08,-665C325.51,-662.62 355.7,-657.6 382,-647.62 414.8,-635.18 446.7,-607.82 462.22,-593.23"/>
<polygon fill="midnightblue" stroke="midnightblue" points="297.81,-661.51 288.11,-665.76 298.34,-668.49 297.81,-661.51"/>
</g>
<!-- Node5 -->
<g id="node5" class="node">
<title>Node5</title>
<g id="a_node5"><a xlink:title=" ">
<polygon fill="white" stroke="black" points="182.5,-618.12 182.5,-637.12 244.5,-637.12 244.5,-618.12 182.5,-618.12"/>
<text text-anchor="middle" x="213.5" y="-625.12" font-family="Helvetica,sans-Serif" font-size="10.00">Dimension</text>
</a>
</g>
</g>
<!-- Node5&#45;&gt;Node2 -->
<g id="edge4" class="edge">
<title>Node5&#45;&gt;Node2</title>
<path fill="none" stroke="#9a32cd" stroke-dasharray="5,2" d="M254.43,-620.8C297.73,-613.4 367.19,-601.53 415.95,-593.2"/>
<polygon fill="#9a32cd" stroke="#9a32cd" points="253.81,-617.35 244.54,-622.49 254.99,-624.25 253.81,-617.35"/>
<text text-anchor="middle" x="344" y="-635.62" font-family="Helvetica,sans-Serif" font-size="10.00"> fileFieldSize</text>
<text text-anchor="middle" x="344" y="-624.62" font-family="Helvetica,sans-Serif" font-size="10.00">fileLabelSize</text>
<text text-anchor="middle" x="344" y="-613.62" font-family="Helvetica,sans-Serif" font-size="10.00">strFieldSize</text>
</g>
<!-- Node6 -->
<g id="node6" class="node">
<title>Node6</title>
<g id="a_node6"><a xlink:href="classdenoptim_1_1gui_1_1_parameters_form_1_1_field_listener.html" target="_top" xlink:title=" ">
<polygon fill="white" stroke="black" points="139,-568.62 139,-598.62 288,-598.62 288,-568.62 139,-568.62"/>
<text text-anchor="start" x="147" y="-586.62" font-family="Helvetica,sans-Serif" font-size="10.00">denoptim.gui.ParametersForm.</text>
<text text-anchor="middle" x="213.5" y="-575.62" font-family="Helvetica,sans-Serif" font-size="10.00">FieldListener</text>
</a>
</g>
</g>
<!-- Node6&#45;&gt;Node2 -->
<g id="edge5" class="edge">
<title>Node6&#45;&gt;Node2</title>
<path fill="none" stroke="#9a32cd" stroke-dasharray="5,2" d="M298.32,-583.62C331.13,-583.62 368.4,-583.62 399.98,-583.62"/>
<polygon fill="#9a32cd" stroke="#9a32cd" points="298.29,-580.12 288.29,-583.62 298.29,-587.12 298.29,-580.12"/>
<text text-anchor="middle" x="344" y="-586.62" font-family="Helvetica,sans-Serif" font-size="10.00"> fieldListener</text>
</g>
<!-- Node7 -->
<g id="node7" class="node">
<title>Node7</title>
<g id="a_node7"><a xlink:title=" ">
<polygon fill="white" stroke="black" points="3,-574.12 3,-593.12 99,-593.12 99,-574.12 3,-574.12"/>
<text text-anchor="middle" x="51" y="-581.12" font-family="Helvetica,sans-Serif" font-size="10.00">DocumentListener</text>
</a>
</g>
</g>
<!-- Node7&#45;&gt;Node6 -->
<g id="edge6" class="edge">
<title>Node7&#45;&gt;Node6</title>
<path fill="none" stroke="midnightblue" d="M109.4,-583.62C118.92,-583.62 128.9,-583.62 138.75,-583.62"/>
<polygon fill="midnightblue" stroke="midnightblue" points="109.29,-580.12 99.29,-583.62 109.29,-587.12 109.29,-580.12"/>
</g>
<!-- Node8 -->
<g id="node8" class="node">
<title>Node8</title>
<g id="a_node8"><a xlink:href="classdenoptim_1_1gui_1_1_parameters_form_1_1_rdb_field_change.html" target="_top" xlink:title=" ">
<polygon fill="white" stroke="black" points="139,-519.62 139,-549.62 288,-549.62 288,-519.62 139,-519.62"/>
<text text-anchor="start" x="147" y="-537.62" font-family="Helvetica,sans-Serif" font-size="10.00">denoptim.gui.ParametersForm.</text>
<text text-anchor="middle" x="213.5" y="-526.62" font-family="Helvetica,sans-Serif" font-size="10.00">RdbFieldChange</text>
</a>
</g>
</g>
<!-- Node8&#45;&gt;Node2 -->
<g id="edge7" class="edge">
<title>Node8&#45;&gt;Node2</title>
<path fill="none" stroke="#9a32cd" stroke-dasharray="5,2" d="M298.23,-550.55C339.04,-558.32 386.76,-567.4 421.85,-574.08"/>
<polygon fill="#9a32cd" stroke="#9a32cd" points="298.77,-547.09 288.29,-548.66 297.46,-553.97 298.77,-547.09"/>
<text text-anchor="middle" x="344" y="-568.62" font-family="Helvetica,sans-Serif" font-size="10.00"> rdbFieldChange</text>
</g>
<!-- Node9 -->
<g id="node9" class="node">
<title>Node9</title>
<g id="a_node9"><a xlink:title=" ">
<polygon fill="white" stroke="black" points="8.5,-525.12 8.5,-544.12 93.5,-544.12 93.5,-525.12 8.5,-525.12"/>
<text text-anchor="middle" x="51" y="-532.12" font-family="Helvetica,sans-Serif" font-size="10.00">ChangeListener</text>
</a>
</g>
</g>
<!-- Node9&#45;&gt;Node8 -->
<g id="edge8" class="edge">
<title>Node9&#45;&gt;Node8</title>
<path fill="none" stroke="midnightblue" d="M103.78,-534.62C115,-534.62 127.07,-534.62 138.94,-534.62"/>
<polygon fill="midnightblue" stroke="midnightblue" points="103.75,-531.12 93.75,-534.62 103.75,-538.12 103.75,-531.12"/>
</g>
<!-- Node10 -->
<g id="node10" class="node">
<title>Node10</title>
<g id="a_node10"><a xlink:href="classdenoptim_1_1gui_1_1_parameters_form_1_1_tab_field_change.html" target="_top" xlink:title=" ">
<polygon fill="white" stroke="black" points="139,-470.62 139,-500.62 288,-500.62 288,-470.62 139,-470.62"/>
<text text-anchor="start" x="147" y="-488.62" font-family="Helvetica,sans-Serif" font-size="10.00">denoptim.gui.ParametersForm.</text>
<text text-anchor="middle" x="213.5" y="-477.62" font-family="Helvetica,sans-Serif" font-size="10.00">TabFieldChange</text>
</a>
</g>
</g>
<!-- Node10&#45;&gt;Node2 -->
<g id="edge9" class="edge">
<title>Node10&#45;&gt;Node2</title>
<path fill="none" stroke="#9a32cd" stroke-dasharray="5,2" d="M298.35,-499.77C326.88,-507.53 357.68,-519.44 382,-537.62 393.55,-546.26 388.27,-556.24 400,-564.62 405.47,-568.53 411.69,-571.63 418.13,-574.1"/>
<polygon fill="#9a32cd" stroke="#9a32cd" points="298.92,-496.3 288.36,-497.19 297.17,-503.08 298.92,-496.3"/>
<text text-anchor="middle" x="344" y="-540.62" font-family="Helvetica,sans-Serif" font-size="10.00"> tabFieldChange</text>
</g>
<!-- Node11 -->
<g id="node11" class="node">
<title>Node11</title>
<g id="a_node11"><a xlink:title=" ">
<polygon fill="white" stroke="black" points="0,-476.12 0,-495.12 102,-495.12 102,-476.12 0,-476.12"/>
<text text-anchor="middle" x="51" y="-483.12" font-family="Helvetica,sans-Serif" font-size="10.00">TableModelListener</text>
</a>
</g>
</g>
<!-- Node11&#45;&gt;Node10 -->
<g id="edge10" class="edge">
<title>Node11&#45;&gt;Node10</title>
<path fill="none" stroke="midnightblue" d="M112.6,-485.62C121.17,-485.62 130.05,-485.62 138.82,-485.62"/>
<polygon fill="midnightblue" stroke="midnightblue" points="112.34,-482.12 102.34,-485.62 112.34,-489.12 112.34,-482.12"/>
</g>
<!-- Node12 -->
<g id="node12" class="node">
<title>Node12</title>
<g id="a_node12"><a xlink:href="classdenoptim_1_1gui_1_1_parameters_form_1_1_cmb_field_change.html" target="_top" xlink:title=" ">
<polygon fill="white" stroke="black" points="139,-421.62 139,-451.62 288,-451.62 288,-421.62 139,-421.62"/>
<text text-anchor="start" x="147" y="-439.62" font-family="Helvetica,sans-Serif" font-size="10.00">denoptim.gui.ParametersForm.</text>
<text text-anchor="middle" x="213.5" y="-428.62" font-family="Helvetica,sans-Serif" font-size="10.00">CmbFieldChange</text>
</a>
</g>
</g>
<!-- Node12&#45;&gt;Node2 -->
<g id="edge11" class="edge">
<title>Node12&#45;&gt;Node2</title>
<path fill="none" stroke="#9a32cd" stroke-dasharray="5,2" d="M298.49,-444.76C328.57,-451.74 360.35,-464.49 382,-487.62 406.02,-513.28 375.5,-539.42 400,-564.62 403.69,-568.42 408.05,-571.49 412.77,-573.97"/>
<polygon fill="#9a32cd" stroke="#9a32cd" points="298.88,-441.26 288.37,-442.6 297.42,-448.11 298.88,-441.26"/>
<text text-anchor="middle" x="344" y="-490.62" font-family="Helvetica,sans-Serif" font-size="10.00"> cmbFieldChange</text>
</g>
<!-- Node13 -->
<g id="node13" class="node">
<title>Node13</title>
<g id="a_node13"><a xlink:title=" ">
<polygon fill="white" stroke="black" points="11,-427.12 11,-446.12 91,-446.12 91,-427.12 11,-427.12"/>
<text text-anchor="middle" x="51" y="-434.12" font-family="Helvetica,sans-Serif" font-size="10.00">ActionListener</text>
</a>
</g>
</g>
<!-- Node13&#45;&gt;Node12 -->
<g id="edge12" class="edge">
<title>Node13&#45;&gt;Node12</title>
<path fill="none" stroke="midnightblue" d="M101.38,-436.62C113.23,-436.62 126.15,-436.62 138.85,-436.62"/>
<polygon fill="midnightblue" stroke="midnightblue" points="101.26,-433.12 91.26,-436.62 101.26,-440.12 101.26,-433.12"/>
</g>
<!-- Node14 -->
<g id="node14" class="node">
<title>Node14</title>
<g id="a_node14"><a xlink:title=" ">
<polygon fill="white" stroke="black" points="154.5,-383.12 154.5,-402.12 272.5,-402.12 272.5,-383.12 154.5,-383.12"/>
<text text-anchor="middle" x="213.5" y="-390.12" font-family="Helvetica,sans-Serif" font-size="10.00">Map&lt; String, Boolean &gt;</text>
</a>
</g>
</g>
<!-- Node14&#45;&gt;Node2 -->
<g id="edge13" class="edge">
<title>Node14&#45;&gt;Node2</title>
<path fill="none" stroke="#9a32cd" stroke-dasharray="5,2" d="M282.87,-391.24C317.44,-394.34 357.22,-404.39 382,-431.62 422.15,-475.74 360.5,-519.92 400,-564.62 403.34,-568.4 407.33,-571.47 411.7,-573.95"/>
<polygon fill="#9a32cd" stroke="#9a32cd" points="283.02,-387.75 272.8,-390.52 282.52,-394.73 283.02,-387.75"/>
<text text-anchor="middle" x="344" y="-434.62" font-family="Helvetica,sans-Serif" font-size="10.00"> checkedFlags</text>
</g>
<!-- Node15 -->
<g id="node15" class="node">
<title>Node15</title>
<g id="a_node15"><a xlink:title=" ">
<polygon fill="white" stroke="black" points="434.5,-536.12 434.5,-555.12 511.5,-555.12 511.5,-536.12 434.5,-536.12"/>
<text text-anchor="middle" x="473" y="-543.12" font-family="Helvetica,sans-Serif" font-size="10.00">AtomicInteger</text>
</a>
</g>
</g>
<!-- Node15&#45;&gt;Node1 -->
<g id="edge14" class="edge">
<title>Node15&#45;&gt;Node1</title>
<path fill="none" stroke="#9a32cd" stroke-dasharray="5,2" d="M522.02,-545.83C577.46,-545.13 664.33,-540.85 690,-521.62 774.67,-458.2 792.49,-314.85 795.81,-276.31"/>
<polygon fill="#9a32cd" stroke="#9a32cd" points="521.69,-542.33 511.72,-545.92 521.75,-549.33 521.69,-542.33"/>
<text text-anchor="middle" x="627" y="-546.62" font-family="Helvetica,sans-Serif" font-size="10.00"> fitFormUID</text>
</g>
<!-- Node16 -->
<g id="node16" class="node">
<title>Node16</title>
<g id="a_node16"><a xlink:title=" ">
<polygon fill="white" stroke="black" points="417.5,-498.12 417.5,-517.12 528.5,-517.12 528.5,-498.12 417.5,-498.12"/>
<text text-anchor="middle" x="473" y="-505.12" font-family="Helvetica,sans-Serif" font-size="10.00">Map&lt; String, Object &gt;</text>
</a>
</g>
</g>
<!-- Node16&#45;&gt;Node1 -->
<g id="edge15" class="edge">
<title>Node16&#45;&gt;Node1</title>
<path fill="none" stroke="#9a32cd" stroke-dasharray="5,2" d="M538.89,-508.16C593.47,-507.4 666.29,-503.14 690,-486.62 765.91,-433.75 789.76,-311.39 795.17,-276.23"/>
<polygon fill="#9a32cd" stroke="#9a32cd" points="538.54,-504.67 528.58,-508.27 538.61,-511.67 538.54,-504.67"/>
<text text-anchor="middle" x="627" y="-509.62" font-family="Helvetica,sans-Serif" font-size="10.00"> mapKeyFieldToValueField</text>
</g>
<!-- Node17 -->
<g id="node17" class="node">
<title>Node17</title>
<g id="a_node17"><a xlink:title=" ">
<polygon fill="white" stroke="black" points="435.5,-435.12 435.5,-454.12 510.5,-454.12 510.5,-435.12 435.5,-435.12"/>
<text text-anchor="middle" x="473" y="-442.12" font-family="Helvetica,sans-Serif" font-size="10.00">JRadioButton</text>
</a>
</g>
</g>
<!-- Node17&#45;&gt;Node1 -->
<g id="edge17" class="edge">
<title>Node17&#45;&gt;Node1</title>
<path fill="none" stroke="#9a32cd" stroke-dasharray="5,2" d="M520.93,-442.64C575.72,-439.6 662.36,-432.26 690,-415.62 746.94,-381.35 781.89,-303.73 792.81,-276.38"/>
<polygon fill="#9a32cd" stroke="#9a32cd" points="520.56,-439.16 510.76,-443.18 520.93,-446.15 520.56,-439.16"/>
<text text-anchor="middle" x="627" y="-474.62" font-family="Helvetica,sans-Serif" font-size="10.00"> rdb3dTrees</text>
<text text-anchor="middle" x="627" y="-463.62" font-family="Helvetica,sans-Serif" font-size="10.00">rdbIntOrExt</text>
<text text-anchor="middle" x="627" y="-452.62" font-family="Helvetica,sans-Serif" font-size="10.00">rdbPreFitnessUIDCheck</text>
<text text-anchor="middle" x="627" y="-441.62" font-family="Helvetica,sans-Serif" font-size="10.00">rdbSrcOrNew</text>
</g>
<!-- Node18 -->
<g id="node18" class="node">
<title>Node18</title>
<g id="a_node18"><a xlink:title=" ">
<polygon fill="white" stroke="black" points="450,-291.12 450,-310.12 496,-310.12 496,-291.12 450,-291.12"/>
<text text-anchor="middle" x="473" y="-298.12" font-family="Helvetica,sans-Serif" font-size="10.00">JLabel</text>
</a>
</g>
</g>
<!-- Node18&#45;&gt;Node1 -->
<g id="edge18" class="edge">
<title>Node18&#45;&gt;Node1</title>
<path fill="none" stroke="#9a32cd" stroke-dasharray="5,2" d="M506.04,-297.47C548.23,-293.29 624.7,-285.63 690,-278.62 697.4,-277.83 705.09,-276.99 712.79,-276.14"/>
<polygon fill="#9a32cd" stroke="#9a32cd" points="505.69,-293.98 496.09,-298.45 506.38,-300.95 505.69,-293.98"/>
<text text-anchor="middle" x="627" y="-403.62" font-family="Helvetica,sans-Serif" font-size="10.00"> lblCustomvars</text>
<text text-anchor="middle" x="627" y="-392.62" font-family="Helvetica,sans-Serif" font-size="10.00">lblDDValueClasses</text>
<text text-anchor="middle" x="627" y="-381.62" font-family="Helvetica,sans-Serif" font-size="10.00">lblDDValueDefinition</text>
<text text-anchor="middle" x="627" y="-370.62" font-family="Helvetica,sans-Serif" font-size="10.00">lblDDValueDescripton</text>
<text text-anchor="middle" x="627" y="-359.62" font-family="Helvetica,sans-Serif" font-size="10.00">lblDDValueName</text>
<text text-anchor="middle" x="627" y="-348.62" font-family="Helvetica,sans-Serif" font-size="10.00">lblDDValueParams</text>
<text text-anchor="middle" x="627" y="-337.62" font-family="Helvetica,sans-Serif" font-size="10.00">lblDDValueSource</text>
<text text-anchor="middle" x="627" y="-326.62" font-family="Helvetica,sans-Serif" font-size="10.00">lblDDValueTitle</text>
<text text-anchor="middle" x="627" y="-315.62" font-family="Helvetica,sans-Serif" font-size="10.00">lblEq</text>
<text text-anchor="middle" x="627" y="-304.62" font-family="Helvetica,sans-Serif" font-size="10.00">lblFPSource</text>
<text text-anchor="middle" x="627" y="-293.62" font-family="Helvetica,sans-Serif" font-size="10.00">...</text>
</g>
<!-- Node19 -->
<g id="node19" class="node">
<title>Node19</title>
<g id="a_node19"><a xlink:title=" ">
<polygon fill="white" stroke="black" points="442,-224.12 442,-243.12 504,-243.12 504,-224.12 442,-224.12"/>
<text text-anchor="middle" x="473" y="-231.12" font-family="Helvetica,sans-Serif" font-size="10.00">JTextField</text>
</a>
</g>
</g>
<!-- Node19&#45;&gt;Node1 -->
<g id="edge19" class="edge">
<title>Node19&#45;&gt;Node1</title>
<path fill="none" stroke="#9a32cd" stroke-dasharray="5,2" d="M514.46,-230.37C558.06,-227.67 629.35,-225.56 690,-234.62 718.83,-238.93 750.7,-249.29 772,-257.06"/>
<polygon fill="#9a32cd" stroke="#9a32cd" points="514.01,-226.89 504.26,-231.05 514.47,-233.88 514.01,-226.89"/>
<text text-anchor="middle" x="627" y="-270.62" font-family="Helvetica,sans-Serif" font-size="10.00"> txtEq</text>
<text text-anchor="middle" x="627" y="-259.62" font-family="Helvetica,sans-Serif" font-size="10.00">txtFPSource</text>
<text text-anchor="middle" x="627" y="-248.62" font-family="Helvetica,sans-Serif" font-size="10.00">txtFitProviderInterpreter</text>
<text text-anchor="middle" x="627" y="-237.62" font-family="Helvetica,sans-Serif" font-size="10.00">txtFitProviderSource</text>
</g>
<!-- Node20 -->
<g id="node20" class="node">
<title>Node20</title>
<g id="a_node20"><a xlink:title=" ">
<polygon fill="white" stroke="black" points="448,-161.12 448,-180.12 498,-180.12 498,-161.12 448,-161.12"/>
<text text-anchor="middle" x="473" y="-168.12" font-family="Helvetica,sans-Serif" font-size="10.00">JButton</text>
</a>
</g>
</g>
<!-- Node20&#45;&gt;Node1 -->
<g id="edge20" class="edge">
<title>Node20&#45;&gt;Node1</title>
<path fill="none" stroke="#9a32cd" stroke-dasharray="5,2" d="M508.44,-165.55C552.22,-160.54 629.39,-156.58 690,-179.62 733.52,-196.17 772.53,-237.98 788.65,-256.97"/>
<polygon fill="#9a32cd" stroke="#9a32cd" points="507.82,-162.1 498.32,-166.79 508.67,-169.05 507.82,-162.1"/>
<text text-anchor="middle" x="627" y="-215.62" font-family="Helvetica,sans-Serif" font-size="10.00"> btnDDValueParams</text>
<text text-anchor="middle" x="627" y="-204.62" font-family="Helvetica,sans-Serif" font-size="10.00">btnFPSource</text>
<text text-anchor="middle" x="627" y="-193.62" font-family="Helvetica,sans-Serif" font-size="10.00">btnFitProviderSource</text>
<text text-anchor="middle" x="627" y="-182.62" font-family="Helvetica,sans-Serif" font-size="10.00">btnLoadFPSource</text>
</g>
<!-- Node21 -->
<g id="node21" class="node">
<title>Node21</title>
<g id="a_node21"><a xlink:title=" ">
<polygon fill="white" stroke="black" points="450,-123.12 450,-142.12 496,-142.12 496,-123.12 450,-123.12"/>
<text text-anchor="middle" x="473" y="-130.12" font-family="Helvetica,sans-Serif" font-size="10.00">JTable</text>
</a>
</g>
</g>
<!-- Node21&#45;&gt;Node1 -->
<g id="edge21" class="edge">
<title>Node21&#45;&gt;Node1</title>
<path fill="none" stroke="#9a32cd" stroke-dasharray="5,2" d="M506.35,-127.4C550.36,-121.87 630.43,-117.49 690,-146.62 741.05,-171.58 778.37,-232.96 791.42,-256.87"/>
<polygon fill="#9a32cd" stroke="#9a32cd" points="505.67,-123.96 496.23,-128.77 506.61,-130.89 505.67,-123.96"/>
<text text-anchor="middle" x="627" y="-149.62" font-family="Helvetica,sans-Serif" font-size="10.00"> tabCustomVars</text>
</g>
<!-- Node22 -->
<g id="node22" class="node">
<title>Node22</title>
<g id="a_node22"><a xlink:title=" ">
<polygon fill="white" stroke="black" points="424,-85.12 424,-104.12 522,-104.12 522,-85.12 424,-85.12"/>
<text text-anchor="middle" x="473" y="-92.12" font-family="Helvetica,sans-Serif" font-size="10.00">DefaultTableModel</text>
</a>
</g>
</g>
<!-- Node22&#45;&gt;Node1 -->
<g id="edge22" class="edge">
<title>Node22&#45;&gt;Node1</title>
<path fill="none" stroke="#9a32cd" stroke-dasharray="5,2" d="M532.17,-84.74C578.07,-79.95 642.12,-80.18 690,-107.62 750.82,-142.48 783.73,-227.89 793.42,-256.84"/>
<polygon fill="#9a32cd" stroke="#9a32cd" points="531.62,-81.28 522.08,-85.9 532.42,-88.23 531.62,-81.28"/>
<text text-anchor="middle" x="627" y="-110.62" font-family="Helvetica,sans-Serif" font-size="10.00"> tabCustomVarsMod</text>
</g>
<!-- Node23 -->
<g id="node23" class="node">
<title>Node23</title>
<g id="a_node23"><a xlink:title=" ">
<polygon fill="white" stroke="black" points="438.5,-47.12 438.5,-66.12 507.5,-66.12 507.5,-47.12 438.5,-47.12"/>
<text text-anchor="middle" x="473" y="-54.12" font-family="Helvetica,sans-Serif" font-size="10.00">JScrollPane</text>
</a>
</g>
</g>
<!-- Node23&#45;&gt;Node1 -->
<g id="edge23" class="edge">
<title>Node23&#45;&gt;Node1</title>
<path fill="none" stroke="#9a32cd" stroke-dasharray="5,2" d="M517.8,-46.76C564.29,-38.84 638.08,-33.79 690,-66.62 761.82,-112.03 788.26,-223.2 794.77,-256.82"/>
<polygon fill="#9a32cd" stroke="#9a32cd" points="516.95,-43.36 507.74,-48.59 518.2,-50.25 516.95,-43.36"/>
<text text-anchor="middle" x="627" y="-69.62" font-family="Helvetica,sans-Serif" font-size="10.00"> descDefScrollPane</text>
</g>
<!-- Node24 -->
<g id="node24" class="node">
<title>Node24</title>
<g id="a_node24"><a xlink:title=" ">
<polygon fill="white" stroke="black" points="410.5,-9.12 410.5,-28.12 535.5,-28.12 535.5,-9.12 410.5,-9.12"/>
<text text-anchor="middle" x="473" y="-16.12" font-family="Helvetica,sans-Serif" font-size="10.00">Map&lt; Class&lt;?&gt;, String &gt;</text>
</a>
</g>
</g>
<!-- Node24&#45;&gt;Node1 -->
<g id="edge24" class="edge">
<title>Node24&#45;&gt;Node1</title>
<path fill="none" stroke="#9a32cd" stroke-dasharray="5,2" d="M520.75,-7.07C567.7,1.7 640.06,7.19 690,-26.62 773.05,-82.84 792.01,-219.68 795.7,-257.05"/>
<polygon fill="#9a32cd" stroke="#9a32cd" points="519.97,-3.66 510.84,-9.04 521.33,-10.52 519.97,-3.66"/>
<text text-anchor="middle" x="627" y="-29.62" font-family="Helvetica,sans-Serif" font-size="10.00"> additionalDocForParameters</text>
</g>
</g>
</svg>
        <g id="navigator" transform="translate(0 0)" fill="#404254">
                <rect fill="#f2f5e9" fill-opacity="0.5" stroke="#606060" stroke-width=".5" x="0" y="0" width="60" height="60"/>
                <use id="zoomplus" xlink:href="#zoomPlus" x="17" y="9" onmousedown="handleZoom(evt,'in')"/>
                <use id="zoomminus" xlink:href="#zoomMin" x="42" y="9" onmousedown="handleZoom(evt,'out')"/>
                <use id="reset" xlink:href="#resetDef" x="30" y="36" onmousedown="handleReset()"/>
                <g id="arrowUp" xlink:href="#dirArrow" transform="translate(30 24)" onmousedown="handlePan(0,-1)">
                  <use xlink:href="#rim" fill="#404040">
                        <set attributeName="fill" to="#808080" begin="arrowUp.mouseover" end="arrowUp.mouseout"/>
                  </use>
                  <path fill="none" stroke="white" stroke-width="1.5" d="M0,-3.0v7 M-2.5,-0.5L0,-3.0L2.5,-0.5"/>
                </g>
                <g id="arrowRight" xlink:href="#dirArrow" transform="rotate(90) translate(36 -43)" onmousedown="handlePan(1,0)">
                  <use xlink:href="#rim" fill="#404040">
                        <set attributeName="fill" to="#808080" begin="arrowRight.mouseover" end="arrowRight.mouseout"/>
                  </use>
                  <path fill="none" stroke="white" stroke-width="1.5" d="M0,-3.0v7 M-2.5,-0.5L0,-3.0L2.5,-0.5"/>
                </g>
                <g id="arrowDown" xlink:href="#dirArrow" transform="rotate(180) translate(-30 -48)" onmousedown="handlePan(0,1)">
                  <use xlink:href="#rim" fill="#404040">
                        <set attributeName="fill" to="#808080" begin="arrowDown.mouseover" end="arrowDown.mouseout"/>
                  </use>
                  <path fill="none" stroke="white" stroke-width="1.5" d="M0,-3.0v7 M-2.5,-0.5L0,-3.0L2.5,-0.5"/>
                </g>
                <g id="arrowLeft" xlink:href="#dirArrow" transform="rotate(270) translate(-36 17)" onmousedown="handlePan(-1,0)">
                  <use xlink:href="#rim" fill="#404040">
                        <set attributeName="fill" to="#808080" begin="arrowLeft.mouseover" end="arrowLeft.mouseout"/>
                  </use>
                  <path fill="none" stroke="white" stroke-width="1.5" d="M0,-3.0v7 M-2.5,-0.5L0,-3.0L2.5,-0.5"/>
                </g>
        </g>
        <svg viewBox="0 0 15 15" width="100%" height="30px" preserveAspectRatio="xMaxYMin meet">
         <g id="arrow_out" transform="scale(0.3 0.3)">
          <a xlink:href="classdenoptim_1_1gui_1_1_fitness_parameters_form__coll__graph_org.svg" target="_base">
           <rect id="button" ry="5" rx="5" y="6" x="6" height="38" width="38"
                fill="#f2f5e9" fill-opacity="0.5" stroke="#606060" stroke-width="1.0"/>
           <path id="arrow"
             d="M 11.500037,31.436501 C 11.940474,20.09759 22.043105,11.32322 32.158766,21.979434 L 37.068811,17.246167 C 37.068811,17.246167 37.088388,32 37.088388,32 L 22.160133,31.978069 C 22.160133,31.978069 26.997745,27.140456 26.997745,27.140456 C 18.528582,18.264221 13.291696,25.230495 11.500037,31.436501 z"
             style="fill:#404040;"/>
          </a>
         </g>
        </svg>
</svg>
