<?xml version="1.0" encoding="UTF-8" standalone="no"?>
<!DOCTYPE svg PUBLIC "-//W3C//DTD SVG 1.1//EN"
 "http://www.w3.org/Graphics/SVG/1.1/DTD/svg11.dtd">
<!-- Generated by graphviz version 3.0.0 (20220413.0242)
 -->
<!-- Title: denoptim.graph.AttachmentPoint.getEdgeUser Pages: 1 -->
<svg width="1166pt" height="548pt"
 viewBox="0.00 0.00 1166.00 547.50" xmlns="http://www.w3.org/2000/svg" xmlns:xlink="http://www.w3.org/1999/xlink">
<g id="graph0" class="graph" transform="scale(1 1) rotate(0) translate(4 543.5)">
<title>denoptim.graph.AttachmentPoint.getEdgeUser</title>
<polygon fill="white" stroke="transparent" points="-4,4 -4,-543.5 1162,-543.5 1162,4 -4,4"/>
<!-- Node1 -->
<g id="node1" class="node">
<title>Node1</title>
<g id="a_node1"><a xlink:title="Gets the edge that is using this AP, or null if no edge is using this AP.">
<polygon fill="#bfbfbf" stroke="black" points="1023,-288 1023,-318 1158,-318 1158,-288 1023,-288"/>
<text text-anchor="start" x="1031" y="-306" font-family="Helvetica,sans-Serif" font-size="10.00">denoptim.graph.Attachment</text>
<text text-anchor="middle" x="1090.5" y="-295" font-family="Helvetica,sans-Serif" font-size="10.00">Point.getEdgeUser</text>
</a>
</g>
</g>
<!-- Node2 -->
<g id="node2" class="node">
<title>Node2</title>
<g id="a_node2"><a xlink:href="classdenoptim_1_1graph_1_1_d_graph.html#ae9e8631117d68ce5bc69e4b0666995a3" target="_top" xlink:title="Recursive utility method for fixEdgeDirections(graph).">
<polygon fill="white" stroke="black" points="846.5,-411 846.5,-441 975.5,-441 975.5,-411 846.5,-411"/>
<text text-anchor="start" x="854.5" y="-429" font-family="Helvetica,sans-Serif" font-size="10.00">denoptim.graph.DGraph.fix</text>
<text text-anchor="middle" x="911" y="-418" font-family="Helvetica,sans-Serif" font-size="10.00">EdgeDirections</text>
</a>
</g>
</g>
<!-- Node1&#45;&gt;Node2 -->
<g id="edge1" class="edge">
<title>Node1&#45;&gt;Node2</title>
<path fill="none" stroke="midnightblue" d="M1070.95,-326.29C1052.02,-348.63 1020.7,-381.85 987,-402 981.37,-405.37 975.21,-408.32 968.92,-410.88"/>
<polygon fill="midnightblue" stroke="midnightblue" points="1073.88,-328.24 1077.58,-318.31 1068.49,-323.77 1073.88,-328.24"/>
</g>
<!-- Node3 -->
<g id="node3" class="node">
<title>Node3</title>
<g id="a_node3"><a xlink:href="classdenoptim_1_1graph_1_1_vertex.html#af5f7fab6253194cb5b001589937893bd" target="_top" xlink:title="Finds the edge between this and the other vertex, if it exists.">
<polygon fill="white" stroke="black" points="847,-362 847,-392 975,-392 975,-362 847,-362"/>
<text text-anchor="start" x="855" y="-380" font-family="Helvetica,sans-Serif" font-size="10.00">denoptim.graph.Vertex.get</text>
<text text-anchor="middle" x="911" y="-369" font-family="Helvetica,sans-Serif" font-size="10.00">EdgeWith</text>
</a>
</g>
</g>
<!-- Node1&#45;&gt;Node3 -->
<g id="edge2" class="edge">
<title>Node1&#45;&gt;Node3</title>
<path fill="none" stroke="midnightblue" d="M1052.27,-322.77C1033.07,-332.55 1009.11,-344.12 987,-353 979.13,-356.16 970.68,-359.19 962.38,-361.98"/>
<polygon fill="midnightblue" stroke="midnightblue" points="1053.99,-325.82 1061.28,-318.13 1050.79,-319.6 1053.99,-325.82"/>
</g>
<!-- Node7 -->
<g id="node7" class="node">
<title>Node7</title>
<g id="a_node7"><a xlink:href="classdenoptim_1_1graph_1_1_d_graph.html#aefca90eb3594e935ee283f1e56fec5b4" target="_top" xlink:title="Replaced the subgraph represented by a given collection of vertices that belong to this graph.">
<polygon fill="white" stroke="black" points="835,-313 835,-343 987,-343 987,-313 835,-313"/>
<text text-anchor="start" x="843" y="-331" font-family="Helvetica,sans-Serif" font-size="10.00">denoptim.graph.DGraph.replace</text>
<text text-anchor="middle" x="911" y="-320" font-family="Helvetica,sans-Serif" font-size="10.00">SingleSubGraph</text>
</a>
</g>
</g>
<!-- Node1&#45;&gt;Node7 -->
<g id="edge6" class="edge">
<title>Node1&#45;&gt;Node7</title>
<path fill="none" stroke="midnightblue" d="M1012.91,-313.79C1004.33,-315 995.59,-316.23 987.02,-317.43"/>
<polygon fill="midnightblue" stroke="midnightblue" points="1013.49,-317.24 1022.9,-312.38 1012.51,-310.31 1013.49,-317.24"/>
</g>
<!-- Node19 -->
<g id="node19" class="node">
<title>Node19</title>
<g id="a_node19"><a xlink:href="classdenoptim_1_1graph_1_1_d_graph.html#a5f83a5964a20b7fd7ca36f28e32fd425" target="_top" xlink:title="Update the graph so that the vertex argument is at the scaffold level i.e.">
<polygon fill="white" stroke="black" points="844,-264 844,-294 978,-294 978,-264 844,-264"/>
<text text-anchor="start" x="852" y="-282" font-family="Helvetica,sans-Serif" font-size="10.00">denoptim.graph.DGraph.set</text>
<text text-anchor="middle" x="911" y="-271" font-family="Helvetica,sans-Serif" font-size="10.00">Scaffold</text>
</a>
</g>
</g>
<!-- Node1&#45;&gt;Node19 -->
<g id="edge18" class="edge">
<title>Node1&#45;&gt;Node19</title>
<path fill="none" stroke="midnightblue" d="M1012.83,-292.63C1001.26,-291.07 989.41,-289.47 978.09,-287.94"/>
<polygon fill="midnightblue" stroke="midnightblue" points="1012.52,-296.12 1022.9,-294 1013.46,-289.19 1012.52,-296.12"/>
</g>
<!-- Node27 -->
<g id="node27" class="node">
<title>Node27</title>
<g id="a_node27"><a xlink:href="classdenoptim_1_1graph_1_1_attachment_point_test.html#ad2ec08c6a9ef246e017561984a9e9930" target="_top" xlink:title=" ">
<polygon fill="white" stroke="black" points="843.5,-215 843.5,-245 978.5,-245 978.5,-215 843.5,-215"/>
<text text-anchor="start" x="851.5" y="-233" font-family="Helvetica,sans-Serif" font-size="10.00">denoptim.graph.Attachment</text>
<text text-anchor="middle" x="911" y="-222" font-family="Helvetica,sans-Serif" font-size="10.00">PointTest.testClone</text>
</a>
</g>
</g>
<!-- Node1&#45;&gt;Node27 -->
<g id="edge27" class="edge">
<title>Node1&#45;&gt;Node27</title>
<path fill="none" stroke="midnightblue" d="M1050.64,-283.5C1031.68,-274.32 1008.39,-263.54 987,-255 978.33,-251.54 968.98,-248.15 959.91,-245.05"/>
<polygon fill="midnightblue" stroke="midnightblue" points="1049.33,-286.76 1059.85,-288 1052.4,-280.47 1049.33,-286.76"/>
</g>
<!-- Node28 -->
<g id="node28" class="node">
<title>Node28</title>
<g id="a_node28"><a xlink:href="classdenoptim_1_1graph_1_1_edge_test.html#a5140f5d0a755cbe0fe79620176fba355" target="_top" xlink:title=" ">
<polygon fill="white" stroke="black" points="838,-166 838,-196 984,-196 984,-166 838,-166"/>
<text text-anchor="start" x="846" y="-184" font-family="Helvetica,sans-Serif" font-size="10.00">denoptim.graph.EdgeTest.test</text>
<text text-anchor="middle" x="911" y="-173" font-family="Helvetica,sans-Serif" font-size="10.00">ConnectionDeconnectionLoop</text>
</a>
</g>
</g>
<!-- Node1&#45;&gt;Node28 -->
<g id="edge28" class="edge">
<title>Node1&#45;&gt;Node28</title>
<path fill="none" stroke="midnightblue" d="M1070.48,-279.92C1051.4,-258.11 1020.17,-225.87 987,-206 980.64,-202.19 973.63,-198.88 966.52,-196.02"/>
<polygon fill="midnightblue" stroke="midnightblue" points="1068,-282.41 1077.17,-287.71 1073.31,-277.85 1068,-282.41"/>
</g>
<!-- Node4 -->
<g id="node4" class="node">
<title>Node4</title>
<g id="a_node4"><a xlink:href="classdenoptim_1_1graph_1_1_d_graph.html#af404e25092eabcdfbe69b5d7204e9483" target="_top" xlink:title="Mutates the graph by removing the chain where a given vertex is located up to the first branching (i....">
<polygon fill="white" stroke="black" points="645,-509 645,-539 797,-539 797,-509 645,-509"/>
<text text-anchor="start" x="653" y="-527" font-family="Helvetica,sans-Serif" font-size="10.00">denoptim.graph.DGraph.remove</text>
<text text-anchor="middle" x="721" y="-516" font-family="Helvetica,sans-Serif" font-size="10.00">ChainUpToBranching</text>
</a>
</g>
</g>
<!-- Node3&#45;&gt;Node4 -->
<g id="edge3" class="edge">
<title>Node3&#45;&gt;Node4</title>
<path fill="none" stroke="midnightblue" d="M839.67,-397.94C838.04,-399.22 836.48,-400.57 835,-402 801.7,-434.31 832.62,-468.02 799,-500 795.35,-503.47 791.2,-506.45 786.77,-508.99"/>
<polygon fill="midnightblue" stroke="midnightblue" points="841.94,-400.64 848.34,-392.2 838.07,-394.8 841.94,-400.64"/>
</g>
<!-- Node5 -->
<g id="node5" class="node">
<title>Node5</title>
<g id="a_node5"><a xlink:href="classdenoptim_1_1ga_1_1_graph_operations.html#afd659e74a056d1a6ae6f52513fee0be3" target="_top" xlink:title="Deletes the given vertex and all other vertexes that are not connected to more than 2 non&#45;capping gro...">
<polygon fill="white" stroke="black" points="430.5,-509 430.5,-539 603.5,-539 603.5,-509 430.5,-509"/>
<text text-anchor="start" x="438.5" y="-527" font-family="Helvetica,sans-Serif" font-size="10.00">denoptim.ga.GraphOperations.delete</text>
<text text-anchor="middle" x="517" y="-516" font-family="Helvetica,sans-Serif" font-size="10.00">Chain</text>
</a>
</g>
</g>
<!-- Node4&#45;&gt;Node5 -->
<g id="edge4" class="edge">
<title>Node4&#45;&gt;Node5</title>
<path fill="none" stroke="midnightblue" d="M634.67,-524C624.46,-524 614.04,-524 603.83,-524"/>
<polygon fill="midnightblue" stroke="midnightblue" points="634.78,-527.5 644.78,-524 634.78,-520.5 634.78,-527.5"/>
</g>
<!-- Node6 -->
<g id="node6" class="node">
<title>Node6</title>
<g id="a_node6"><a xlink:href="classdenoptim_1_1ga_1_1_graph_operations.html#a0c851972015fbb4b2a317b053b8b81d9" target="_top" xlink:title="Mutates the given vertex according to the given mutation type, if possible.">
<polygon fill="white" stroke="black" points="203,-509 203,-539 383,-539 383,-509 203,-509"/>
<text text-anchor="start" x="211" y="-527" font-family="Helvetica,sans-Serif" font-size="10.00">denoptim.ga.GraphOperations.perform</text>
<text text-anchor="middle" x="293" y="-516" font-family="Helvetica,sans-Serif" font-size="10.00">Mutation</text>
</a>
</g>
</g>
<!-- Node5&#45;&gt;Node6 -->
<g id="edge5" class="edge">
<title>Node5&#45;&gt;Node6</title>
<path fill="none" stroke="midnightblue" d="M420.22,-524C407.91,-524 395.34,-524 383.15,-524"/>
<polygon fill="midnightblue" stroke="midnightblue" points="420.49,-527.5 430.49,-524 420.49,-520.5 420.49,-527.5"/>
</g>
<!-- Node8 -->
<g id="node8" class="node">
<title>Node8</title>
<g id="a_node8"><a xlink:href="classdenoptim_1_1graph_1_1_d_graph.html#a4df69c91a742d22f8d14d44489aeac15" target="_top" xlink:title="Edit this graph according to a given list of edit tasks.">
<polygon fill="white" stroke="black" points="653,-460 653,-490 789,-490 789,-460 653,-460"/>
<text text-anchor="start" x="661" y="-478" font-family="Helvetica,sans-Serif" font-size="10.00">denoptim.graph.DGraph.edit</text>
<text text-anchor="middle" x="721" y="-467" font-family="Helvetica,sans-Serif" font-size="10.00">Graph</text>
</a>
</g>
</g>
<!-- Node7&#45;&gt;Node8 -->
<g id="edge7" class="edge">
<title>Node7&#45;&gt;Node8</title>
<path fill="none" stroke="midnightblue" d="M839.67,-348.94C838.04,-350.22 836.48,-351.57 835,-353 801.7,-385.31 832.62,-419.02 799,-451 795.35,-454.47 791.2,-457.45 786.77,-459.99"/>
<polygon fill="midnightblue" stroke="midnightblue" points="841.94,-351.64 848.34,-343.2 838.07,-345.8 841.94,-351.64"/>
</g>
<!-- Node10 -->
<g id="node10" class="node">
<title>Node10</title>
<g id="a_node10"><a xlink:href="classdenoptim_1_1graph_1_1_d_graph.html#a86e888ef245d2bd40b49d145c7ef3af0" target="_top" xlink:title="Replaced the subgraph represented by a given collection of vertices that belong to this graph.">
<polygon fill="white" stroke="black" points="645,-411 645,-441 797,-441 797,-411 645,-411"/>
<text text-anchor="start" x="653" y="-429" font-family="Helvetica,sans-Serif" font-size="10.00">denoptim.graph.DGraph.replace</text>
<text text-anchor="middle" x="721" y="-418" font-family="Helvetica,sans-Serif" font-size="10.00">SubGraph</text>
</a>
</g>
</g>
<!-- Node7&#45;&gt;Node10 -->
<g id="edge9" class="edge">
<title>Node7&#45;&gt;Node10</title>
<path fill="none" stroke="midnightblue" d="M843.41,-347.6C840.49,-349.27 837.66,-351.06 835,-353 813.16,-368.91 821,-386.31 799,-402 794.21,-405.42 788.92,-408.36 783.43,-410.89"/>
<polygon fill="midnightblue" stroke="midnightblue" points="845.13,-350.66 852.47,-343.01 841.97,-344.41 845.13,-350.66"/>
</g>
<!-- Node15 -->
<g id="node15" class="node">
<title>Node15</title>
<g id="a_node15"><a xlink:href="classdenoptim_1_1graph_1_1_d_graph.html#adc362402e41af41656e820def73de5ad" target="_top" xlink:title="Replaced a given vertex belonging to this graph with a new vertex generated specifically for this pur...">
<polygon fill="white" stroke="black" points="645,-362 645,-392 797,-392 797,-362 645,-362"/>
<text text-anchor="start" x="653" y="-380" font-family="Helvetica,sans-Serif" font-size="10.00">denoptim.graph.DGraph.replace</text>
<text text-anchor="middle" x="721" y="-369" font-family="Helvetica,sans-Serif" font-size="10.00">Vertex</text>
</a>
</g>
</g>
<!-- Node7&#45;&gt;Node15 -->
<g id="edge14" class="edge">
<title>Node7&#45;&gt;Node15</title>
<path fill="none" stroke="midnightblue" d="M842.39,-345.62C821.82,-350.98 799.42,-356.82 779.57,-361.99"/>
<polygon fill="midnightblue" stroke="midnightblue" points="843.52,-348.94 852.32,-343.03 841.76,-342.17 843.52,-348.94"/>
</g>
<!-- Node16 -->
<g id="node16" class="node">
<title>Node16</title>
<g id="a_node16"><a xlink:href="classdenoptim_1_1graph_1_1_d_graph_test.html#aea227d615f6c2f3bac5839a8099a900d" target="_top" xlink:title=" ">
<polygon fill="white" stroke="black" points="643,-313 643,-343 799,-343 799,-313 643,-313"/>
<text text-anchor="start" x="651" y="-331" font-family="Helvetica,sans-Serif" font-size="10.00">denoptim.graph.DGraphTest.test</text>
<text text-anchor="middle" x="721" y="-320" font-family="Helvetica,sans-Serif" font-size="10.00">IsIsostructuralTo</text>
</a>
</g>
</g>
<!-- Node7&#45;&gt;Node16 -->
<g id="edge15" class="edge">
<title>Node7&#45;&gt;Node16</title>
<path fill="none" stroke="midnightblue" d="M824.88,-328C816.31,-328 807.63,-328 799.15,-328"/>
<polygon fill="midnightblue" stroke="midnightblue" points="824.89,-331.5 834.89,-328 824.89,-324.5 824.89,-331.5"/>
</g>
<!-- Node17 -->
<g id="node17" class="node">
<title>Node17</title>
<g id="a_node17"><a xlink:href="classdenoptim_1_1graph_1_1_d_graph_test.html#a83a9624ea5dc6a2c515407b865b62611" target="_top" xlink:title=" ">
<polygon fill="white" stroke="black" points="643,-264 643,-294 799,-294 799,-264 643,-264"/>
<text text-anchor="start" x="651" y="-282" font-family="Helvetica,sans-Serif" font-size="10.00">denoptim.graph.DGraphTest.test</text>
<text text-anchor="middle" x="721" y="-271" font-family="Helvetica,sans-Serif" font-size="10.00">ReplaceSubGraph</text>
</a>
</g>
</g>
<!-- Node7&#45;&gt;Node17 -->
<g id="edge16" class="edge">
<title>Node7&#45;&gt;Node17</title>
<path fill="none" stroke="midnightblue" d="M842.39,-310.38C821.82,-305.02 799.42,-299.18 779.57,-294.01"/>
<polygon fill="midnightblue" stroke="midnightblue" points="841.76,-313.83 852.32,-312.97 843.52,-307.06 841.76,-313.83"/>
</g>
<!-- Node18 -->
<g id="node18" class="node">
<title>Node18</title>
<g id="a_node18"><a xlink:href="classdenoptim_1_1graph_1_1_d_graph_test.html#a0c949ec1131a872dea53524614b3b42a" target="_top" xlink:title=" ">
<polygon fill="white" stroke="black" points="643,-215 643,-245 799,-245 799,-215 643,-215"/>
<text text-anchor="start" x="651" y="-233" font-family="Helvetica,sans-Serif" font-size="10.00">denoptim.graph.DGraphTest.test</text>
<text text-anchor="middle" x="721" y="-222" font-family="Helvetica,sans-Serif" font-size="10.00">ReplaceSubGraph_inTemplate</text>
</a>
</g>
</g>
<!-- Node7&#45;&gt;Node18 -->
<g id="edge17" class="edge">
<title>Node7&#45;&gt;Node18</title>
<path fill="none" stroke="midnightblue" d="M841.53,-308.24C839.27,-306.91 837.09,-305.5 835,-304 813.06,-288.22 820.91,-270.82 799,-255 793.65,-251.13 787.66,-247.84 781.46,-245.05"/>
<polygon fill="midnightblue" stroke="midnightblue" points="840.06,-311.42 850.55,-312.93 843.3,-305.21 840.06,-311.42"/>
</g>
<!-- Node9 -->
<g id="node9" class="node">
<title>Node9</title>
<g id="a_node9"><a xlink:href="classdenoptim_1_1programs_1_1grapheditor_1_1_graph_editor.html#a649a62e3d4635ef4c19424fa49e6dcd4" target="_top" xlink:title=" ">
<polygon fill="white" stroke="black" points="441,-460 441,-490 593,-490 593,-460 441,-460"/>
<text text-anchor="start" x="449" y="-478" font-family="Helvetica,sans-Serif" font-size="10.00">denoptim.programs.grapheditor.</text>
<text text-anchor="middle" x="517" y="-467" font-family="Helvetica,sans-Serif" font-size="10.00">GraphEditor.runProgram</text>
</a>
</g>
</g>
<!-- Node8&#45;&gt;Node9 -->
<g id="edge8" class="edge">
<title>Node8&#45;&gt;Node9</title>
<path fill="none" stroke="midnightblue" d="M642.31,-475C626.23,-475 609.32,-475 593.33,-475"/>
<polygon fill="midnightblue" stroke="midnightblue" points="642.74,-478.5 652.74,-475 642.74,-471.5 642.74,-478.5"/>
</g>
<!-- Node11 -->
<g id="node11" class="node">
<title>Node11</title>
<g id="a_node11"><a xlink:href="classdenoptim_1_1ga_1_1_graph_operations.html#affb1be89a32e4a429bd7dbdfe0708419" target="_top" xlink:title="Performs the crossover that swaps the two subgraphs defining the given XoverSite.">
<polygon fill="white" stroke="black" points="427,-411 427,-441 607,-441 607,-411 427,-411"/>
<text text-anchor="start" x="435" y="-429" font-family="Helvetica,sans-Serif" font-size="10.00">denoptim.ga.GraphOperations.perform</text>
<text text-anchor="middle" x="517" y="-418" font-family="Helvetica,sans-Serif" font-size="10.00">Crossover</text>
</a>
</g>
</g>
<!-- Node10&#45;&gt;Node11 -->
<g id="edge10" class="edge">
<title>Node10&#45;&gt;Node11</title>
<path fill="none" stroke="midnightblue" d="M634.65,-426C625.59,-426 616.36,-426 607.27,-426"/>
<polygon fill="midnightblue" stroke="midnightblue" points="634.78,-429.5 644.78,-426 634.78,-422.5 634.78,-429.5"/>
</g>
<!-- Node12 -->
<g id="node12" class="node">
<title>Node12</title>
<g id="a_node12"><a xlink:href="classdenoptim_1_1ga_1_1_e_a_utils.html#a98553265dd4b441b11c6d97d098edb08" target="_top" xlink:title="Generates a new offspring by performing a crossover operation.">
<polygon fill="white" stroke="black" points="229.5,-436 229.5,-466 356.5,-466 356.5,-436 229.5,-436"/>
<text text-anchor="start" x="237.5" y="-454" font-family="Helvetica,sans-Serif" font-size="10.00">denoptim.ga.EAUtils.build</text>
<text text-anchor="middle" x="293" y="-443" font-family="Helvetica,sans-Serif" font-size="10.00">CandidateByXOver</text>
</a>
</g>
</g>
<!-- Node11&#45;&gt;Node12 -->
<g id="edge11" class="edge">
<title>Node11&#45;&gt;Node12</title>
<path fill="none" stroke="midnightblue" d="M416.99,-437.15C396.52,-439.45 375.5,-441.82 356.76,-443.93"/>
<polygon fill="midnightblue" stroke="midnightblue" points="417.44,-440.62 426.98,-436.02 416.65,-433.67 417.44,-440.62"/>
</g>
<!-- Node13 -->
<g id="node13" class="node">
<title>Node13</title>
<g id="a_node13"><a xlink:href="classdenoptim_1_1programs_1_1genetweeker_1_1_gene_ops_runner.html#ab0f92a94c4fb2334e7d3813e73fc4247" target="_top" xlink:title=" ">
<polygon fill="white" stroke="black" points="213.5,-387 213.5,-417 372.5,-417 372.5,-387 213.5,-387"/>
<text text-anchor="start" x="221.5" y="-405" font-family="Helvetica,sans-Serif" font-size="10.00">denoptim.programs.genetweeker.</text>
<text text-anchor="middle" x="293" y="-394" font-family="Helvetica,sans-Serif" font-size="10.00">GeneOpsRunner.runXOver</text>
</a>
</g>
</g>
<!-- Node11&#45;&gt;Node13 -->
<g id="edge12" class="edge">
<title>Node11&#45;&gt;Node13</title>
<path fill="none" stroke="midnightblue" d="M416.8,-415.28C402.01,-413.68 386.94,-412.05 372.65,-410.5"/>
<polygon fill="midnightblue" stroke="midnightblue" points="416.66,-418.78 426.98,-416.38 417.42,-411.82 416.66,-418.78"/>
</g>
<!-- Node14 -->
<g id="node14" class="node">
<title>Node14</title>
<g id="a_node14"><a xlink:href="classdenoptim_1_1programs_1_1genetweeker_1_1_gene_ops_runner.html#a3c2407eb1204a7b25600d3d347d98447" target="_top" xlink:title=" ">
<polygon fill="white" stroke="black" points="0,-387 0,-417 159,-417 159,-387 0,-387"/>
<text text-anchor="start" x="8" y="-405" font-family="Helvetica,sans-Serif" font-size="10.00">denoptim.programs.genetweeker.</text>
<text text-anchor="middle" x="79.5" y="-394" font-family="Helvetica,sans-Serif" font-size="10.00">GeneOpsRunner.runProgram</text>
</a>
</g>
</g>
<!-- Node13&#45;&gt;Node14 -->
<g id="edge13" class="edge">
<title>Node13&#45;&gt;Node14</title>
<path fill="none" stroke="midnightblue" d="M203.24,-402C188.66,-402 173.64,-402 159.32,-402"/>
<polygon fill="midnightblue" stroke="midnightblue" points="203.25,-405.5 213.25,-402 203.25,-398.5 203.25,-405.5"/>
</g>
<!-- Node20 -->
<g id="node20" class="node">
<title>Node20</title>
<g id="a_node20"><a xlink:href="classdenoptim_1_1ga_1_1_graph_operations_test.html#af7dad44701e1c81c71d47052733822fd" target="_top" xlink:title="Returns a molecule consisting of two pairs of fused rings connected by an oxygen atom.">
<polygon fill="white" stroke="black" points="444.5,-173 444.5,-203 589.5,-203 589.5,-173 444.5,-173"/>
<text text-anchor="start" x="452.5" y="-191" font-family="Helvetica,sans-Serif" font-size="10.00">denoptim.ga.GraphOperations</text>
<text text-anchor="middle" x="517" y="-180" font-family="Helvetica,sans-Serif" font-size="10.00">Test.getFusedRings</text>
</a>
</g>
</g>
<!-- Node19&#45;&gt;Node20 -->
<g id="edge19" class="edge">
<title>Node19&#45;&gt;Node20</title>
<path fill="none" stroke="midnightblue" d="M841.53,-259.24C839.27,-257.91 837.09,-256.5 835,-255 813.06,-239.22 822.71,-218.97 799,-206 734.67,-170.81 649.25,-170.68 589.55,-176.6"/>
<polygon fill="midnightblue" stroke="midnightblue" points="840.06,-262.42 850.55,-263.93 843.3,-256.21 840.06,-262.42"/>
</g>
<!-- Node22 -->
<g id="node22" class="node">
<title>Node22</title>
<g id="a_node22"><a xlink:href="classdenoptim_1_1graph_1_1_d_graph.html#a45b3ec4b3b4d6384e49093e9b9449537" target="_top" xlink:title="Sets the vertex at the lowest level as the scaffold, changes the &#160;&#160;directions of edges so that the sc...">
<polygon fill="white" stroke="black" points="646,-125 646,-155 796,-155 796,-125 646,-125"/>
<text text-anchor="start" x="654" y="-143" font-family="Helvetica,sans-Serif" font-size="10.00">denoptim.graph.DGraph.reorder</text>
<text text-anchor="middle" x="721" y="-132" font-family="Helvetica,sans-Serif" font-size="10.00">VertexList</text>
</a>
</g>
</g>
<!-- Node19&#45;&gt;Node22 -->
<g id="edge21" class="edge">
<title>Node19&#45;&gt;Node22</title>
<path fill="none" stroke="midnightblue" d="M839.03,-258.33C837.64,-257.28 836.29,-256.17 835,-255 805.19,-228.02 827.65,-200.21 799,-172 791.88,-164.99 783.01,-159.44 773.84,-155.06"/>
<polygon fill="midnightblue" stroke="midnightblue" points="837.19,-261.31 847.48,-263.81 840.99,-255.44 837.19,-261.31"/>
</g>
<!-- Node21 -->
<g id="node21" class="node">
<title>Node21</title>
<g id="a_node21"><a xlink:href="classdenoptim_1_1ga_1_1_graph_operations_test.html#a81e15cea05ce67c5b0c2af89d301d072" target="_top" xlink:title=" ">
<polygon fill="white" stroke="black" points="220.5,-168.5 220.5,-209.5 365.5,-209.5 365.5,-168.5 220.5,-168.5"/>
<text text-anchor="start" x="228.5" y="-197.5" font-family="Helvetica,sans-Serif" font-size="10.00">denoptim.ga.GraphOperations</text>
<text text-anchor="start" x="228.5" y="-186.5" font-family="Helvetica,sans-Serif" font-size="10.00">Test.testExtractPattern</text>
<text text-anchor="middle" x="293" y="-175.5" font-family="Helvetica,sans-Serif" font-size="10.00">_fusedRings</text>
</a>
</g>
</g>
<!-- Node20&#45;&gt;Node21 -->
<g id="edge20" class="edge">
<title>Node20&#45;&gt;Node21</title>
<path fill="none" stroke="midnightblue" d="M434.04,-188.37C411.56,-188.47 387.37,-188.58 365.52,-188.68"/>
<polygon fill="midnightblue" stroke="midnightblue" points="434.25,-191.87 444.23,-188.32 434.21,-184.87 434.25,-191.87"/>
</g>
<!-- Node23 -->
<g id="node23" class="node">
<title>Node23</title>
<g id="a_node23"><a xlink:href="classdenoptim_1_1graph_1_1_d_graph.html#a6fe5ab71083430bbab0b7d2e2f139c3a" target="_top" xlink:title="Extracts subgraphs that match the provided pattern.">
<polygon fill="white" stroke="black" points="442.5,-120 442.5,-150 591.5,-150 591.5,-120 442.5,-120"/>
<text text-anchor="start" x="450.5" y="-138" font-family="Helvetica,sans-Serif" font-size="10.00">denoptim.graph.DGraph.extract</text>
<text text-anchor="middle" x="517" y="-127" font-family="Helvetica,sans-Serif" font-size="10.00">Pattern</text>
</a>
</g>
</g>
<!-- Node22&#45;&gt;Node23 -->
<g id="edge22" class="edge">
<title>Node22&#45;&gt;Node23</title>
<path fill="none" stroke="midnightblue" d="M635.88,-137.92C621.22,-137.55 606.07,-137.18 591.72,-136.82"/>
<polygon fill="midnightblue" stroke="midnightblue" points="635.85,-141.42 645.93,-138.17 636.02,-134.42 635.85,-141.42"/>
</g>
<!-- Node23&#45;&gt;Node21 -->
<g id="edge24" class="edge">
<title>Node23&#45;&gt;Node21</title>
<path fill="none" stroke="midnightblue" d="M444.32,-152.44C419.15,-158.56 390.88,-165.43 365.71,-171.56"/>
<polygon fill="midnightblue" stroke="midnightblue" points="445.27,-155.81 454.16,-150.04 443.62,-149 445.27,-155.81"/>
</g>
<!-- Node24 -->
<g id="node24" class="node">
<title>Node24</title>
<g id="a_node24"><a xlink:href="classdenoptim_1_1fragspace_1_1_fragment_space.html#a32b0be109306e9c81fc830867296bc66" target="_top" xlink:title="Extracts a system of one or more fused rings and adds them to the fragment space if not already prese...">
<polygon fill="white" stroke="black" points="195,-120 195,-150 391,-150 391,-120 195,-120"/>
<text text-anchor="start" x="203" y="-138" font-family="Helvetica,sans-Serif" font-size="10.00">denoptim.fragspace.Fragment</text>
<text text-anchor="middle" x="293" y="-127" font-family="Helvetica,sans-Serif" font-size="10.00">Space.addFusedRingsToFragmentLibrary</text>
</a>
</g>
</g>
<!-- Node23&#45;&gt;Node24 -->
<g id="edge23" class="edge">
<title>Node23&#45;&gt;Node24</title>
<path fill="none" stroke="midnightblue" d="M432.25,-135C418.83,-135 404.84,-135 391.14,-135"/>
<polygon fill="midnightblue" stroke="midnightblue" points="432.39,-138.5 442.39,-135 432.39,-131.5 432.39,-138.5"/>
</g>
<!-- Node25 -->
<g id="node25" class="node">
<title>Node25</title>
<g id="a_node25"><a xlink:href="classdenoptim_1_1ga_1_1_graph_operations_test.html#a51afdfc40faf5bcc51609ddef161f078" target="_top" xlink:title=" ">
<polygon fill="white" stroke="black" points="220.5,-60.5 220.5,-101.5 365.5,-101.5 365.5,-60.5 220.5,-60.5"/>
<text text-anchor="start" x="228.5" y="-89.5" font-family="Helvetica,sans-Serif" font-size="10.00">denoptim.ga.GraphOperations</text>
<text text-anchor="start" x="228.5" y="-78.5" font-family="Helvetica,sans-Serif" font-size="10.00">Test.testExtractPattern</text>
<text text-anchor="middle" x="293" y="-67.5" font-family="Helvetica,sans-Serif" font-size="10.00">_returnsEmptyListIfNoRings</text>
</a>
</g>
</g>
<!-- Node23&#45;&gt;Node25 -->
<g id="edge25" class="edge">
<title>Node23&#45;&gt;Node25</title>
<path fill="none" stroke="midnightblue" d="M444.32,-117.56C419.15,-111.44 390.88,-104.57 365.71,-98.44"/>
<polygon fill="midnightblue" stroke="midnightblue" points="443.62,-121 454.16,-119.96 445.27,-114.19 443.62,-121"/>
</g>
<!-- Node26 -->
<g id="node26" class="node">
<title>Node26</title>
<g id="a_node26"><a xlink:href="classdenoptim_1_1ga_1_1_graph_operations_test.html#a161540d22b2ad17c44fc3e1a911a1367" target="_top" xlink:title=" ">
<polygon fill="white" stroke="black" points="220.5,-0.5 220.5,-41.5 365.5,-41.5 365.5,-0.5 220.5,-0.5"/>
<text text-anchor="start" x="228.5" y="-29.5" font-family="Helvetica,sans-Serif" font-size="10.00">denoptim.ga.GraphOperations</text>
<text text-anchor="start" x="228.5" y="-18.5" font-family="Helvetica,sans-Serif" font-size="10.00">Test.testExtractPattern</text>
<text text-anchor="middle" x="293" y="-7.5" font-family="Helvetica,sans-Serif" font-size="10.00">_singleRingSystem</text>
</a>
</g>
</g>
<!-- Node23&#45;&gt;Node26 -->
<g id="edge26" class="edge">
<title>Node23&#45;&gt;Node26</title>
<path fill="none" stroke="midnightblue" d="M489.09,-113.51C464.68,-94.87 427.09,-68.25 391,-51 382.97,-47.16 374.33,-43.67 365.64,-40.54"/>
<polygon fill="midnightblue" stroke="midnightblue" points="487.1,-116.4 497.15,-119.74 491.38,-110.86 487.1,-116.4"/>
</g>
</g>
</svg>
