<?xml version="1.0" encoding="UTF-8" standalone="no"?>
<!DOCTYPE svg PUBLIC "-//W3C//DTD SVG 1.1//EN"
 "http://www.w3.org/Graphics/SVG/1.1/DTD/svg11.dtd">
<!-- Generated by graphviz version 3.0.0 (20220413.0242)
 -->
<!-- Title: denoptim.graph.Edge.BondType.hasCDKAnalogue Pages: 1 -->
<svg width="1825pt" height="333pt"
 viewBox="0.00 0.00 1825.00 333.00" xmlns="http://www.w3.org/2000/svg" xmlns:xlink="http://www.w3.org/1999/xlink">
<g id="graph0" class="graph" transform="scale(1 1) rotate(0) translate(4 329)">
<title>denoptim.graph.Edge.BondType.hasCDKAnalogue</title>
<polygon fill="white" stroke="transparent" points="-4,4 -4,-329 1821,-329 1821,4 -4,4"/>
<!-- Node1 -->
<g id="node1" class="node">
<title>Node1</title>
<g id="a_node1"><a xlink:title="Checks if it is possible to convert this edge type into a CDK bond.">
<polygon fill="#bfbfbf" stroke="black" points="1686,-168 1686,-198 1817,-198 1817,-168 1686,-168"/>
<text text-anchor="start" x="1694" y="-186" font-family="Helvetica,sans-Serif" font-size="10.00">denoptim.graph.Edge.Bond</text>
<text text-anchor="middle" x="1751.5" y="-175" font-family="Helvetica,sans-Serif" font-size="10.00">Type.hasCDKAnalogue</text>
</a>
</g>
</g>
<!-- Node2 -->
<g id="node2" class="node">
<title>Node2</title>
<g id="a_node2"><a xlink:href="classdenoptim_1_1molecularmodeling_1_1_chemical_object_model.html#a85aaa2ca417ef0cf65457ad46f288344" target="_top" xlink:title="Modify the molecule adding a cyclic bond between two atoms.">
<polygon fill="white" stroke="black" points="1474,-275 1474,-305 1626,-305 1626,-275 1474,-275"/>
<text text-anchor="start" x="1482" y="-293" font-family="Helvetica,sans-Serif" font-size="10.00">denoptim.molecularmodeling.</text>
<text text-anchor="middle" x="1550" y="-282" font-family="Helvetica,sans-Serif" font-size="10.00">ChemicalObjectModel.addBond</text>
</a>
</g>
</g>
<!-- Node1&#45;&gt;Node2 -->
<g id="edge1" class="edge">
<title>Node1&#45;&gt;Node2</title>
<path fill="none" stroke="midnightblue" d="M1726.99,-204.97C1707.62,-222.05 1678.75,-245.25 1650,-260 1638.49,-265.9 1625.63,-270.86 1613.08,-274.93"/>
<polygon fill="midnightblue" stroke="midnightblue" points="1729.58,-207.35 1734.69,-198.07 1724.9,-202.14 1729.58,-207.35"/>
</g>
<!-- Node3 -->
<g id="node3" class="node">
<title>Node3</title>
<g id="a_node3"><a xlink:href="classdenoptim_1_1molecularmodeling_1_1_ring_closure_tool.html#a065481cf3ca3229eee8b417fa3f7c0b5" target="_top" xlink:title="Makes new rings by connecting pairs of atoms that hold properly arranged RingClosingAttractors.">
<polygon fill="white" stroke="black" points="1253,-275 1253,-305 1395,-305 1395,-275 1253,-275"/>
<text text-anchor="start" x="1261" y="-293" font-family="Helvetica,sans-Serif" font-size="10.00">denoptim.molecularmodeling.</text>
<text text-anchor="middle" x="1324" y="-282" font-family="Helvetica,sans-Serif" font-size="10.00">RingClosureTool.closeRings</text>
</a>
</g>
</g>
<!-- Node1&#45;&gt;Node3 -->
<g id="edge23" class="edge">
<title>Node1&#45;&gt;Node3</title>
<path fill="none" stroke="midnightblue" d="M1680.66,-200.56C1598.22,-221.29 1462.53,-255.42 1384.76,-274.97"/>
<polygon fill="midnightblue" stroke="midnightblue" points="1681.59,-203.94 1690.44,-198.1 1679.89,-197.15 1681.59,-203.94"/>
</g>
<!-- Node8 -->
<g id="node8" class="node">
<title>Node8</title>
<g id="a_node8"><a xlink:href="classdenoptim_1_1graph_1_1rings_1_1_cyclic_graph_handler_1_1_ring_size_manager.html#a0fc0f3889f18d330fc50f28a4264ca21" target="_top" xlink:title=" ">
<polygon fill="white" stroke="black" points="1237.5,-187.5 1237.5,-228.5 1410.5,-228.5 1410.5,-187.5 1237.5,-187.5"/>
<text text-anchor="start" x="1245.5" y="-216.5" font-family="Helvetica,sans-Serif" font-size="10.00">denoptim.graph.rings.Cyclic</text>
<text text-anchor="start" x="1245.5" y="-205.5" font-family="Helvetica,sans-Serif" font-size="10.00">GraphHandler.RingSizeManager.add</text>
<text text-anchor="middle" x="1324" y="-194.5" font-family="Helvetica,sans-Serif" font-size="10.00">RingClosingBond</text>
</a>
</g>
</g>
<!-- Node1&#45;&gt;Node8 -->
<g id="edge7" class="edge">
<title>Node1&#45;&gt;Node8</title>
<path fill="none" stroke="midnightblue" d="M1675.75,-187.47C1667.07,-187.99 1658.34,-188.51 1650,-189 1568.75,-193.8 1476.08,-199.21 1410.54,-203.03"/>
<polygon fill="midnightblue" stroke="midnightblue" points="1676.12,-190.96 1685.9,-186.87 1675.71,-183.97 1676.12,-190.96"/>
</g>
<!-- Node19 -->
<g id="node19" class="node">
<title>Node19</title>
<g id="a_node19"><a xlink:href="classdenoptim_1_1molecularmodeling_1_1_three_dim_tree_builder.html#a0ba24f9b6e98f948d35c7853fdc543f5" target="_top" xlink:title="Recursive method that appends branches of building blocks following the edges of the graph.">
<polygon fill="white" stroke="black" points="1450,-60.5 1450,-101.5 1650,-101.5 1650,-60.5 1450,-60.5"/>
<text text-anchor="start" x="1458" y="-89.5" font-family="Helvetica,sans-Serif" font-size="10.00">denoptim.molecularmodeling.</text>
<text text-anchor="start" x="1458" y="-78.5" font-family="Helvetica,sans-Serif" font-size="10.00">ThreeDimTreeBuilder.append3DFragments</text>
<text text-anchor="middle" x="1550" y="-67.5" font-family="Helvetica,sans-Serif" font-size="10.00">ViaEdges</text>
</a>
</g>
</g>
<!-- Node1&#45;&gt;Node19 -->
<g id="edge20" class="edge">
<title>Node1&#45;&gt;Node19</title>
<path fill="none" stroke="midnightblue" d="M1714.02,-162.93C1695.03,-152.6 1671.37,-139.92 1650,-129 1631.97,-119.79 1611.9,-109.98 1594.56,-101.64"/>
<polygon fill="midnightblue" stroke="midnightblue" points="1712.48,-166.07 1722.94,-167.79 1715.83,-159.93 1712.48,-166.07"/>
</g>
<!-- Node21 -->
<g id="node21" class="node">
<title>Node21</title>
<g id="a_node21"><a xlink:href="classdenoptim_1_1graph_1_1rings_1_1_cyclic_graph_handler.html#ae14cac1f0746cf7b50db933cab59e4e4" target="_top" xlink:title="Method to evaluate the closability of a single path considering only its constitution.">
<polygon fill="white" stroke="black" points="1462.5,-138.5 1462.5,-179.5 1637.5,-179.5 1637.5,-138.5 1462.5,-138.5"/>
<text text-anchor="start" x="1470.5" y="-167.5" font-family="Helvetica,sans-Serif" font-size="10.00">denoptim.graph.rings.Cyclic</text>
<text text-anchor="start" x="1470.5" y="-156.5" font-family="Helvetica,sans-Serif" font-size="10.00">GraphHandler.evaluateConstitutional</text>
<text text-anchor="middle" x="1550" y="-145.5" font-family="Helvetica,sans-Serif" font-size="10.00">Closability</text>
</a>
</g>
</g>
<!-- Node1&#45;&gt;Node21 -->
<g id="edge24" class="edge">
<title>Node1&#45;&gt;Node21</title>
<path fill="none" stroke="midnightblue" d="M1675.48,-173.98C1663.12,-172.49 1650.21,-170.93 1637.58,-169.42"/>
<polygon fill="midnightblue" stroke="midnightblue" points="1675.38,-177.49 1685.73,-175.21 1676.22,-170.54 1675.38,-177.49"/>
</g>
<!-- Node26 -->
<g id="node26" class="node">
<title>Node26</title>
<g id="a_node26"><a xlink:href="classdenoptim_1_1utils_1_1_molecule_utils.html#a1d0f69b9fe60e2df6c934b129eb2b044" target="_top" xlink:title="Replace used RCAs (i.e., those involved in Rings) while adding the ring closing bonds.">
<polygon fill="white" stroke="black" points="1463.5,-12 1463.5,-42 1636.5,-42 1636.5,-12 1463.5,-12"/>
<text text-anchor="start" x="1471.5" y="-30" font-family="Helvetica,sans-Serif" font-size="10.00">denoptim.utils.MoleculeUtils.remove</text>
<text text-anchor="middle" x="1550" y="-19" font-family="Helvetica,sans-Serif" font-size="10.00">UsedRCA</text>
</a>
</g>
</g>
<!-- Node1&#45;&gt;Node26 -->
<g id="edge31" class="edge">
<title>Node1&#45;&gt;Node26</title>
<path fill="none" stroke="midnightblue" d="M1738.63,-158.63C1722.71,-128.58 1691.55,-78.16 1650,-51 1644.82,-47.61 1639.2,-44.7 1633.37,-42.2"/>
<polygon fill="midnightblue" stroke="midnightblue" points="1735.57,-160.33 1743.26,-167.61 1741.79,-157.12 1735.57,-160.33"/>
</g>
<!-- Node2&#45;&gt;Node3 -->
<g id="edge2" class="edge">
<title>Node2&#45;&gt;Node3</title>
<path fill="none" stroke="midnightblue" d="M1463.52,-290C1440.92,-290 1416.78,-290 1395.1,-290"/>
<polygon fill="midnightblue" stroke="midnightblue" points="1463.79,-293.5 1473.79,-290 1463.79,-286.5 1463.79,-293.5"/>
</g>
<!-- Node4 -->
<g id="node4" class="node">
<title>Node4</title>
<g id="a_node4"><a xlink:href="classdenoptim_1_1molecularmodeling_1_1_ring_closure_tool.html#abd87e8b7391948be1c3156eb9d131be7" target="_top" xlink:title="Attempts to close rings by finding the conformation that allows to join heads and tails of atom speci...">
<polygon fill="white" stroke="black" points="1018,-278 1018,-308 1194,-308 1194,-278 1018,-278"/>
<text text-anchor="start" x="1026" y="-296" font-family="Helvetica,sans-Serif" font-size="10.00">denoptim.molecularmodeling.</text>
<text text-anchor="middle" x="1106" y="-285" font-family="Helvetica,sans-Serif" font-size="10.00">RingClosureTool.attemptRingClosure</text>
</a>
</g>
</g>
<!-- Node3&#45;&gt;Node4 -->
<g id="edge3" class="edge">
<title>Node3&#45;&gt;Node4</title>
<path fill="none" stroke="midnightblue" d="M1242.62,-291.12C1226.82,-291.34 1210.18,-291.57 1194.16,-291.79"/>
<polygon fill="midnightblue" stroke="midnightblue" points="1242.92,-294.61 1252.87,-290.97 1242.82,-287.61 1242.92,-294.61"/>
</g>
<!-- Node5 -->
<g id="node5" class="node">
<title>Node5</title>
<g id="a_node5"><a xlink:href="classdenoptim_1_1molecularmodeling_1_1_ring_closure_tool.html#a26896649739e0a5e63dd88079c6efe7a" target="_top" xlink:title="Performs one or more attempts to close rings by conformational adaptation.">
<polygon fill="white" stroke="black" points="786,-279 786,-309 978,-309 978,-279 786,-279"/>
<text text-anchor="start" x="794" y="-297" font-family="Helvetica,sans-Serif" font-size="10.00">denoptim.molecularmodeling.</text>
<text text-anchor="middle" x="882" y="-286" font-family="Helvetica,sans-Serif" font-size="10.00">RingClosureTool.attemptAllRingClosures</text>
</a>
</g>
</g>
<!-- Node4&#45;&gt;Node5 -->
<g id="edge4" class="edge">
<title>Node4&#45;&gt;Node5</title>
<path fill="none" stroke="midnightblue" d="M1007.77,-293.44C997.98,-293.48 988.05,-293.53 978.29,-293.57"/>
<polygon fill="midnightblue" stroke="midnightblue" points="1007.91,-296.94 1017.9,-293.39 1007.88,-289.94 1007.91,-296.94"/>
</g>
<!-- Node6 -->
<g id="node6" class="node">
<title>Node6</title>
<g id="a_node6"><a xlink:href="classdenoptim_1_1molecularmodeling_1_1_multi_molecular_model_builder.html#a6a8e314f3fb37f66c32c8c4d5695b8a4" target="_top" xlink:title="Given the graph representation of the molecular constitution, along with the 3D coordinates of the fr...">
<polygon fill="white" stroke="black" points="592,-283.5 592,-324.5 750,-324.5 750,-283.5 592,-283.5"/>
<text text-anchor="start" x="600" y="-312.5" font-family="Helvetica,sans-Serif" font-size="10.00">denoptim.molecularmodeling.</text>
<text text-anchor="start" x="600" y="-301.5" font-family="Helvetica,sans-Serif" font-size="10.00">MultiMolecularModelBuilder.build</text>
<text text-anchor="middle" x="671" y="-290.5" font-family="Helvetica,sans-Serif" font-size="10.00">Multi3DStructure</text>
</a>
</g>
</g>
<!-- Node5&#45;&gt;Node6 -->
<g id="edge5" class="edge">
<title>Node5&#45;&gt;Node6</title>
<path fill="none" stroke="midnightblue" d="M775.85,-299.03C767.22,-299.44 758.59,-299.86 750.2,-300.26"/>
<polygon fill="midnightblue" stroke="midnightblue" points="776.16,-302.52 785.98,-298.55 775.82,-295.53 776.16,-302.52"/>
</g>
<!-- Node7 -->
<g id="node7" class="node">
<title>Node7</title>
<g id="a_node7"><a xlink:href="classdenoptim_1_1programs_1_1moldecularmodelbuilder_1_1_molecular_model_builder.html#ad2e44290de6a861274def677044e9754" target="_top" xlink:title=" ">
<polygon fill="white" stroke="black" points="350,-289 350,-319 556,-319 556,-289 350,-289"/>
<text text-anchor="start" x="358" y="-307" font-family="Helvetica,sans-Serif" font-size="10.00">denoptim.programs.moldecularmodelbuilder.</text>
<text text-anchor="middle" x="453" y="-296" font-family="Helvetica,sans-Serif" font-size="10.00">MolecularModelBuilder.runProgram</text>
</a>
</g>
</g>
<!-- Node6&#45;&gt;Node7 -->
<g id="edge6" class="edge">
<title>Node6&#45;&gt;Node7</title>
<path fill="none" stroke="midnightblue" d="M581.55,-304C573.14,-304 564.57,-304 556.05,-304"/>
<polygon fill="midnightblue" stroke="midnightblue" points="581.71,-307.5 591.71,-304 581.71,-300.5 581.71,-307.5"/>
</g>
<!-- Node9 -->
<g id="node9" class="node">
<title>Node9</title>
<g id="a_node9"><a xlink:href="classdenoptim_1_1graph_1_1rings_1_1_cyclic_graph_handler.html#a08b02946eaac7c2cbbe6e71332d702e6" target="_top" xlink:title="Identifies a random combination of ring closing paths and returns it as list of DENOPTIMRings ready t...">
<polygon fill="white" stroke="black" points="1015,-185.5 1015,-226.5 1197,-226.5 1197,-185.5 1015,-185.5"/>
<text text-anchor="start" x="1023" y="-214.5" font-family="Helvetica,sans-Serif" font-size="10.00">denoptim.graph.rings.Cyclic</text>
<text text-anchor="start" x="1023" y="-203.5" font-family="Helvetica,sans-Serif" font-size="10.00">GraphHandler.getRandomCombination</text>
<text text-anchor="middle" x="1106" y="-192.5" font-family="Helvetica,sans-Serif" font-size="10.00">OfRings</text>
</a>
</g>
</g>
<!-- Node8&#45;&gt;Node9 -->
<g id="edge8" class="edge">
<title>Node8&#45;&gt;Node9</title>
<path fill="none" stroke="midnightblue" d="M1227.04,-207.11C1217.11,-207.02 1207.05,-206.93 1197.19,-206.84"/>
<polygon fill="midnightblue" stroke="midnightblue" points="1227.29,-210.61 1237.32,-207.21 1227.35,-203.61 1227.29,-210.61"/>
</g>
<!-- Node10 -->
<g id="node10" class="node">
<title>Node10</title>
<g id="a_node10"><a xlink:href="classdenoptim_1_1ga_1_1_e_a_utils.html#a1ddb932d4618434d435e4f85ce5e5eb5" target="_top" xlink:title="Evaluates the possibility of closing rings in a given graph and if any ring can be closed,...">
<polygon fill="white" stroke="black" points="816.5,-186 816.5,-216 947.5,-216 947.5,-186 816.5,-186"/>
<text text-anchor="start" x="824.5" y="-204" font-family="Helvetica,sans-Serif" font-size="10.00">denoptim.ga.EAUtils.setup</text>
<text text-anchor="middle" x="882" y="-193" font-family="Helvetica,sans-Serif" font-size="10.00">Rings</text>
</a>
</g>
</g>
<!-- Node9&#45;&gt;Node10 -->
<g id="edge9" class="edge">
<title>Node9&#45;&gt;Node10</title>
<path fill="none" stroke="midnightblue" d="M1004.64,-203.74C985.3,-203.3 965.53,-202.86 947.7,-202.46"/>
<polygon fill="midnightblue" stroke="midnightblue" points="1004.63,-207.24 1014.7,-203.97 1004.79,-200.24 1004.63,-207.24"/>
</g>
<!-- Node11 -->
<g id="node11" class="node">
<title>Node11</title>
<g id="a_node11"><a xlink:href="classdenoptim_1_1ga_1_1_e_a_utils.html#a5cb6bbe9f383bf821f3b1f1c5e60031b" target="_top" xlink:title=" ">
<polygon fill="white" stroke="black" points="607.5,-235 607.5,-265 734.5,-265 734.5,-235 607.5,-235"/>
<text text-anchor="start" x="615.5" y="-253" font-family="Helvetica,sans-Serif" font-size="10.00">denoptim.ga.EAUtils.build</text>
<text text-anchor="middle" x="671" y="-242" font-family="Helvetica,sans-Serif" font-size="10.00">CandidateByMutation</text>
</a>
</g>
</g>
<!-- Node10&#45;&gt;Node11 -->
<g id="edge10" class="edge">
<title>Node10&#45;&gt;Node11</title>
<path fill="none" stroke="midnightblue" d="M806.89,-218.37C783.24,-223.92 757.32,-230 734.57,-235.33"/>
<polygon fill="midnightblue" stroke="midnightblue" points="807.94,-221.72 816.87,-216.03 806.34,-214.91 807.94,-221.72"/>
</g>
<!-- Node16 -->
<g id="node16" class="node">
<title>Node16</title>
<g id="a_node16"><a xlink:href="classdenoptim_1_1ga_1_1_e_a_utils.html#a98553265dd4b441b11c6d97d098edb08" target="_top" xlink:title="Generates a new offspring by performing a crossover operation.">
<polygon fill="white" stroke="black" points="607.5,-186 607.5,-216 734.5,-216 734.5,-186 607.5,-186"/>
<text text-anchor="start" x="615.5" y="-204" font-family="Helvetica,sans-Serif" font-size="10.00">denoptim.ga.EAUtils.build</text>
<text text-anchor="middle" x="671" y="-193" font-family="Helvetica,sans-Serif" font-size="10.00">CandidateByXOver</text>
</a>
</g>
</g>
<!-- Node10&#45;&gt;Node16 -->
<g id="edge15" class="edge">
<title>Node10&#45;&gt;Node16</title>
<path fill="none" stroke="midnightblue" d="M806.07,-201C782.65,-201 757.08,-201 734.6,-201"/>
<polygon fill="midnightblue" stroke="midnightblue" points="806.3,-204.5 816.3,-201 806.3,-197.5 806.3,-204.5"/>
</g>
<!-- Node17 -->
<g id="node17" class="node">
<title>Node17</title>
<g id="a_node17"><a xlink:href="classdenoptim_1_1ga_1_1_e_a_utils.html#ad3d2daeb11e68a356e971ca1846596b5" target="_top" xlink:title=" ">
<polygon fill="white" stroke="black" points="607.5,-137 607.5,-167 734.5,-167 734.5,-137 607.5,-137"/>
<text text-anchor="start" x="615.5" y="-155" font-family="Helvetica,sans-Serif" font-size="10.00">denoptim.ga.EAUtils.build</text>
<text text-anchor="middle" x="671" y="-144" font-family="Helvetica,sans-Serif" font-size="10.00">CandidateFromScratch</text>
</a>
</g>
</g>
<!-- Node10&#45;&gt;Node17 -->
<g id="edge16" class="edge">
<title>Node10&#45;&gt;Node17</title>
<path fill="none" stroke="midnightblue" d="M806.89,-183.63C783.24,-178.08 757.32,-172 734.57,-166.67"/>
<polygon fill="midnightblue" stroke="midnightblue" points="806.34,-187.09 816.87,-185.97 807.94,-180.28 806.34,-187.09"/>
</g>
<!-- Node12 -->
<g id="node12" class="node">
<title>Node12</title>
<g id="a_node12"><a xlink:href="classdenoptim_1_1ga_1_1_evolutionary_algorithm.html#a596b2f5f0b097c5b67a6e5163bd6fe66" target="_top" xlink:title="Generates a given number of new candidate items and adds them to the current population.">
<polygon fill="white" stroke="black" points="386,-186 386,-216 520,-216 520,-186 386,-186"/>
<text text-anchor="start" x="394" y="-204" font-family="Helvetica,sans-Serif" font-size="10.00">denoptim.ga.Evolutionary</text>
<text text-anchor="middle" x="453" y="-193" font-family="Helvetica,sans-Serif" font-size="10.00">Algorithm.evolvePopulation</text>
</a>
</g>
</g>
<!-- Node11&#45;&gt;Node12 -->
<g id="edge11" class="edge">
<title>Node11&#45;&gt;Node12</title>
<path fill="none" stroke="midnightblue" d="M597.46,-233.55C572.52,-227.89 544.74,-221.58 520.31,-216.04"/>
<polygon fill="midnightblue" stroke="midnightblue" points="596.71,-236.96 607.23,-235.76 598.26,-230.14 596.71,-236.96"/>
</g>
<!-- Node13 -->
<g id="node13" class="node">
<title>Node13</title>
<g id="a_node13"><a xlink:href="classdenoptim_1_1ga_1_1_evolutionary_algorithm.html#a6bfc2fa59b199da6259b5b6bad3d6de7" target="_top" xlink:title=" ">
<polygon fill="white" stroke="black" points="190,-161 190,-191 314,-191 314,-161 190,-161"/>
<text text-anchor="start" x="198" y="-179" font-family="Helvetica,sans-Serif" font-size="10.00">denoptim.ga.Evolutionary</text>
<text text-anchor="middle" x="252" y="-168" font-family="Helvetica,sans-Serif" font-size="10.00">Algorithm.run</text>
</a>
</g>
</g>
<!-- Node12&#45;&gt;Node13 -->
<g id="edge12" class="edge">
<title>Node12&#45;&gt;Node13</title>
<path fill="none" stroke="midnightblue" d="M375.58,-191.4C355.29,-188.85 333.64,-186.13 314.27,-183.7"/>
<polygon fill="midnightblue" stroke="midnightblue" points="375.38,-194.9 385.74,-192.68 376.25,-187.96 375.38,-194.9"/>
</g>
<!-- Node14 -->
<g id="node14" class="node">
<title>Node14</title>
<g id="a_node14"><a xlink:href="classdenoptim_1_1ga_1_1_evolutionary_algorithm.html#a0f2063b722b7291daf83d62acaa683d3" target="_top" xlink:title=" ">
<polygon fill="white" stroke="black" points="0,-186 0,-216 154,-216 154,-186 0,-186"/>
<text text-anchor="start" x="8" y="-204" font-family="Helvetica,sans-Serif" font-size="10.00">denoptim.ga.Evolutionary</text>
<text text-anchor="middle" x="77" y="-193" font-family="Helvetica,sans-Serif" font-size="10.00">Algorithm.EvolutionaryAlgorithm</text>
</a>
</g>
</g>
<!-- Node13&#45;&gt;Node14 -->
<g id="edge13" class="edge">
<title>Node13&#45;&gt;Node14</title>
<path fill="none" stroke="midnightblue" d="M179.44,-186.34C171.09,-187.55 162.54,-188.78 154.12,-190"/>
<polygon fill="midnightblue" stroke="midnightblue" points="180.12,-189.78 189.52,-184.88 179.12,-182.85 180.12,-189.78"/>
</g>
<!-- Node15 -->
<g id="node15" class="node">
<title>Node15</title>
<g id="a_node15"><a xlink:href="classdenoptim_1_1programs_1_1denovo_1_1_g_a_runner.html#a7cafd6d78727b89dce3e2c8d06f0dd7c" target="_top" xlink:title=" ">
<polygon fill="white" stroke="black" points="9.5,-137 9.5,-167 144.5,-167 144.5,-137 9.5,-137"/>
<text text-anchor="start" x="17.5" y="-155" font-family="Helvetica,sans-Serif" font-size="10.00">denoptim.programs.denovo.</text>
<text text-anchor="middle" x="77" y="-144" font-family="Helvetica,sans-Serif" font-size="10.00">GARunner.runProgram</text>
</a>
</g>
</g>
<!-- Node13&#45;&gt;Node15 -->
<g id="edge14" class="edge">
<title>Node13&#45;&gt;Node15</title>
<path fill="none" stroke="midnightblue" d="M179.48,-166.08C167.92,-164.47 156,-162.82 144.57,-161.23"/>
<polygon fill="midnightblue" stroke="midnightblue" points="179.13,-169.56 189.52,-167.47 180.1,-162.63 179.13,-169.56"/>
</g>
<!-- Node17&#45;&gt;Node12 -->
<g id="edge17" class="edge">
<title>Node17&#45;&gt;Node12</title>
<path fill="none" stroke="midnightblue" d="M597.46,-168.45C572.52,-174.11 544.74,-180.42 520.31,-185.96"/>
<polygon fill="midnightblue" stroke="midnightblue" points="598.26,-171.86 607.23,-166.24 596.71,-165.04 598.26,-171.86"/>
</g>
<!-- Node18 -->
<g id="node18" class="node">
<title>Node18</title>
<g id="a_node18"><a xlink:href="classdenoptim_1_1ga_1_1_evolutionary_algorithm.html#ad43588620dab3340e0d8b0042ec73618" target="_top" xlink:title="Fills up the population with candidates build from scratch.">
<polygon fill="white" stroke="black" points="383,-137 383,-167 523,-167 523,-137 383,-137"/>
<text text-anchor="start" x="391" y="-155" font-family="Helvetica,sans-Serif" font-size="10.00">denoptim.ga.Evolutionary</text>
<text text-anchor="middle" x="453" y="-144" font-family="Helvetica,sans-Serif" font-size="10.00">Algorithm.initializePopulation</text>
</a>
</g>
</g>
<!-- Node17&#45;&gt;Node18 -->
<g id="edge18" class="edge">
<title>Node17&#45;&gt;Node18</title>
<path fill="none" stroke="midnightblue" d="M597.19,-152C573.35,-152 546.94,-152 523.36,-152"/>
<polygon fill="midnightblue" stroke="midnightblue" points="597.23,-155.5 607.23,-152 597.23,-148.5 597.23,-155.5"/>
</g>
<!-- Node18&#45;&gt;Node13 -->
<g id="edge19" class="edge">
<title>Node18&#45;&gt;Node13</title>
<path fill="none" stroke="midnightblue" d="M372.88,-161.54C353.38,-163.89 332.79,-166.38 314.28,-168.61"/>
<polygon fill="midnightblue" stroke="midnightblue" points="373.45,-165 382.96,-160.33 372.61,-158.05 373.45,-165"/>
</g>
<!-- Node19&#45;&gt;Node19 -->
<g id="edge21" class="edge">
<title>Node19&#45;&gt;Node19</title>
<path fill="none" stroke="midnightblue" d="M1584.41,-111.86C1579.29,-116.7 1567.82,-120 1550,-120 1521.48,-120 1509.23,-111.54 1513.24,-101.86"/>
<polygon fill="midnightblue" stroke="midnightblue" points="1587.88,-112.4 1586.76,-101.86 1581.06,-110.8 1587.88,-112.4"/>
</g>
<!-- Node20 -->
<g id="node20" class="node">
<title>Node20</title>
<g id="a_node20"><a xlink:href="classdenoptim_1_1molecularmodeling_1_1_three_dim_tree_builder.html#acbaf5061621ed283eecc80a51b523422" target="_top" xlink:title="Created a three&#45;dimensional molecular representation from a given DGraph.">
<polygon fill="white" stroke="black" points="1239.5,-60.5 1239.5,-101.5 1408.5,-101.5 1408.5,-60.5 1239.5,-60.5"/>
<text text-anchor="start" x="1247.5" y="-89.5" font-family="Helvetica,sans-Serif" font-size="10.00">denoptim.molecularmodeling.</text>
<text text-anchor="start" x="1247.5" y="-78.5" font-family="Helvetica,sans-Serif" font-size="10.00">ThreeDimTreeBuilder.convertGraph</text>
<text text-anchor="middle" x="1324" y="-67.5" font-family="Helvetica,sans-Serif" font-size="10.00">To3DAtomContainer</text>
</a>
</g>
</g>
<!-- Node19&#45;&gt;Node20 -->
<g id="edge22" class="edge">
<title>Node19&#45;&gt;Node20</title>
<path fill="none" stroke="midnightblue" d="M1439.47,-81C1429.14,-81 1418.79,-81 1408.76,-81"/>
<polygon fill="midnightblue" stroke="midnightblue" points="1439.77,-84.5 1449.77,-81 1439.77,-77.5 1439.77,-84.5"/>
</g>
<!-- Node22 -->
<g id="node22" class="node">
<title>Node22</title>
<g id="a_node22"><a xlink:href="classdenoptim_1_1graph_1_1rings_1_1_cyclic_graph_handler.html#abd43d52fe626625dab3da6a32038e57b" target="_top" xlink:title="Method to evaluate the closability of a single path in a graph representing a molecule.">
<polygon fill="white" stroke="black" points="1234,-139 1234,-169 1414,-169 1414,-139 1234,-139"/>
<text text-anchor="start" x="1242" y="-157" font-family="Helvetica,sans-Serif" font-size="10.00">denoptim.graph.rings.Cyclic</text>
<text text-anchor="middle" x="1324" y="-146" font-family="Helvetica,sans-Serif" font-size="10.00">GraphHandler.evaluatePathClosability</text>
</a>
</g>
</g>
<!-- Node21&#45;&gt;Node22 -->
<g id="edge25" class="edge">
<title>Node21&#45;&gt;Node22</title>
<path fill="none" stroke="midnightblue" d="M1452.34,-156.84C1439.72,-156.56 1426.83,-156.27 1414.34,-155.99"/>
<polygon fill="midnightblue" stroke="midnightblue" points="1452.32,-160.34 1462.4,-157.07 1452.48,-153.34 1452.32,-160.34"/>
</g>
<!-- Node22&#45;&gt;Node9 -->
<g id="edge30" class="edge">
<title>Node22&#45;&gt;Node9</title>
<path fill="none" stroke="midnightblue" d="M1250.6,-171.43C1231.88,-175.94 1211.55,-180.83 1192.24,-185.48"/>
<polygon fill="midnightblue" stroke="midnightblue" points="1251.62,-174.78 1260.52,-169.04 1249.98,-167.98 1251.62,-174.78"/>
</g>
<!-- Node23 -->
<g id="node23" class="node">
<title>Node23</title>
<g id="a_node23"><a xlink:href="classdenoptim_1_1graph_1_1rings_1_1_cyclic_graph_handler.html#a3ce96322723f45d9285a248ebcef94d3" target="_top" xlink:title="Identifies all possible ring closing paths and returns them as list of DENOPTIMRings ready to be appe...">
<polygon fill="white" stroke="black" points="1014,-125.5 1014,-166.5 1198,-166.5 1198,-125.5 1014,-125.5"/>
<text text-anchor="start" x="1022" y="-154.5" font-family="Helvetica,sans-Serif" font-size="10.00">denoptim.graph.rings.Cyclic</text>
<text text-anchor="start" x="1022" y="-143.5" font-family="Helvetica,sans-Serif" font-size="10.00">GraphHandler.getPossibleCombination</text>
<text text-anchor="middle" x="1106" y="-132.5" font-family="Helvetica,sans-Serif" font-size="10.00">OfRings</text>
</a>
</g>
</g>
<!-- Node22&#45;&gt;Node23 -->
<g id="edge26" class="edge">
<title>Node22&#45;&gt;Node23</title>
<path fill="none" stroke="midnightblue" d="M1223.66,-150.32C1215.22,-150.01 1206.71,-149.69 1198.34,-149.38"/>
<polygon fill="midnightblue" stroke="midnightblue" points="1223.77,-153.83 1233.9,-150.7 1224.03,-146.83 1223.77,-153.83"/>
</g>
<!-- Node23&#45;&gt;Node10 -->
<g id="edge29" class="edge">
<title>Node23&#45;&gt;Node10</title>
<path fill="none" stroke="midnightblue" d="M1012.18,-168.99C989.05,-174.73 964.84,-180.73 943.71,-185.96"/>
<polygon fill="midnightblue" stroke="midnightblue" points="1013.15,-172.36 1022.02,-166.56 1011.47,-165.57 1013.15,-172.36"/>
</g>
<!-- Node24 -->
<g id="node24" class="node">
<title>Node24</title>
<g id="a_node24"><a xlink:href="classdenoptim_1_1graph_1_1_d_graph.html#a7a4743d014e860237f4b20703ef9779b" target="_top" xlink:title="Evaluates the possibility of closing rings in this graph and generates all alternative graphs resulti...">
<polygon fill="white" stroke="black" points="804.5,-109 804.5,-139 959.5,-139 959.5,-109 804.5,-109"/>
<text text-anchor="start" x="812.5" y="-127" font-family="Helvetica,sans-Serif" font-size="10.00">denoptim.graph.DGraph.make</text>
<text text-anchor="middle" x="882" y="-116" font-family="Helvetica,sans-Serif" font-size="10.00">AllGraphsWithDifferentRingSets</text>
</a>
</g>
</g>
<!-- Node23&#45;&gt;Node24 -->
<g id="edge27" class="edge">
<title>Node23&#45;&gt;Node24</title>
<path fill="none" stroke="midnightblue" d="M1003.59,-135.95C988.85,-134.49 973.89,-133.01 959.75,-131.61"/>
<polygon fill="midnightblue" stroke="midnightblue" points="1003.45,-139.45 1013.74,-136.96 1004.14,-132.49 1003.45,-139.45"/>
</g>
<!-- Node25 -->
<g id="node25" class="node">
<title>Node25</title>
<g id="a_node25"><a xlink:href="classdenoptim_1_1combinatorial_1_1_graph_building_task.html#a3eaee724fc921194fa158714aafe182d" target="_top" xlink:title="Calls the task.">
<polygon fill="white" stroke="black" points="598.5,-88 598.5,-118 743.5,-118 743.5,-88 598.5,-88"/>
<text text-anchor="start" x="606.5" y="-106" font-family="Helvetica,sans-Serif" font-size="10.00">denoptim.combinatorial.Graph</text>
<text text-anchor="middle" x="671" y="-95" font-family="Helvetica,sans-Serif" font-size="10.00">BuildingTask.call</text>
</a>
</g>
</g>
<!-- Node24&#45;&gt;Node25 -->
<g id="edge28" class="edge">
<title>Node24&#45;&gt;Node25</title>
<path fill="none" stroke="midnightblue" d="M794.04,-115.26C777.3,-113.58 759.95,-111.84 743.77,-110.21"/>
<polygon fill="midnightblue" stroke="midnightblue" points="794.06,-118.78 804.36,-116.3 794.76,-111.82 794.06,-118.78"/>
</g>
<!-- Node26&#45;&gt;Node20 -->
<g id="edge32" class="edge">
<title>Node26&#45;&gt;Node20</title>
<path fill="none" stroke="midnightblue" d="M1476.82,-44.4C1455.15,-49.62 1431.19,-55.4 1408.83,-60.79"/>
<polygon fill="midnightblue" stroke="midnightblue" points="1477.7,-47.79 1486.6,-42.04 1476.06,-40.98 1477.7,-47.79"/>
</g>
<!-- Node27 -->
<g id="node27" class="node">
<title>Node27</title>
<g id="a_node27"><a xlink:href="classdenoptim_1_1gui_1_1_graph_vertex_mol_viewer_panel.html#afb0f2245fdfc8158581b4cbcf2b239d1" target="_top" xlink:title="Updates the molecular representation of the loaded graph.">
<polygon fill="white" stroke="black" points="1243.5,-0.5 1243.5,-41.5 1404.5,-41.5 1404.5,-0.5 1243.5,-0.5"/>
<text text-anchor="start" x="1251.5" y="-29.5" font-family="Helvetica,sans-Serif" font-size="10.00">denoptim.gui.GraphVertex</text>
<text text-anchor="start" x="1251.5" y="-18.5" font-family="Helvetica,sans-Serif" font-size="10.00">MolViewerPanel.updateMolevular</text>
<text text-anchor="middle" x="1324" y="-7.5" font-family="Helvetica,sans-Serif" font-size="10.00">Viewer</text>
</a>
</g>
</g>
<!-- Node26&#45;&gt;Node27 -->
<g id="edge33" class="edge">
<title>Node26&#45;&gt;Node27</title>
<path fill="none" stroke="midnightblue" d="M1453.34,-24.44C1437.13,-24 1420.45,-23.56 1404.71,-23.13"/>
<polygon fill="midnightblue" stroke="midnightblue" points="1453.27,-27.94 1463.36,-24.71 1453.45,-20.94 1453.27,-27.94"/>
</g>
<!-- Node28 -->
<g id="node28" class="node">
<title>Node28</title>
<g id="a_node28"><a xlink:href="classdenoptim_1_1gui_1_1_g_u_i_graph_handler.html#ad54901fb2a09953591c971ffc48f3de1" target="_top" xlink:title=" ">
<polygon fill="white" stroke="black" points="1018.5,-6 1018.5,-36 1193.5,-36 1193.5,-6 1018.5,-6"/>
<text text-anchor="start" x="1026.5" y="-24" font-family="Helvetica,sans-Serif" font-size="10.00">denoptim.gui.GUIGraphHandler.save</text>
<text text-anchor="middle" x="1106" y="-13" font-family="Helvetica,sans-Serif" font-size="10.00">UnsavedChanges</text>
</a>
</g>
</g>
<!-- Node27&#45;&gt;Node28 -->
<g id="edge34" class="edge">
<title>Node27&#45;&gt;Node28</title>
<path fill="none" stroke="midnightblue" d="M1233.11,-21C1220.04,-21 1206.61,-21 1193.61,-21"/>
<polygon fill="midnightblue" stroke="midnightblue" points="1233.49,-24.5 1243.49,-21 1233.49,-17.5 1233.49,-24.5"/>
</g>
<!-- Node29 -->
<g id="node29" class="node">
<title>Node29</title>
<g id="a_node29"><a xlink:href="classdenoptim_1_1gui_1_1_g_u_i_graph_handler.html#af5b000c105018cbd7c262b34f9750044" target="_top" xlink:title="Initialize the panel and add buttons.">
<polygon fill="white" stroke="black" points="788,-11.5 788,-30.5 976,-30.5 976,-11.5 788,-11.5"/>
<text text-anchor="middle" x="882" y="-18.5" font-family="Helvetica,sans-Serif" font-size="10.00">denoptim.gui.GUIGraphHandler.initialize</text>
</a>
</g>
</g>
<!-- Node28&#45;&gt;Node29 -->
<g id="edge35" class="edge">
<title>Node28&#45;&gt;Node29</title>
<path fill="none" stroke="midnightblue" d="M1008.15,-21C997.59,-21 986.85,-21 976.33,-21"/>
<polygon fill="midnightblue" stroke="midnightblue" points="1008.22,-24.5 1018.22,-21 1008.22,-17.5 1008.22,-24.5"/>
</g>
<!-- Node30 -->
<g id="node30" class="node">
<title>Node30</title>
<g id="a_node30"><a xlink:href="classdenoptim_1_1gui_1_1_g_u_i_graph_handler.html#ab7d010d9a384f6b85edce47c95d6723b" target="_top" xlink:title="Constructor.">
<polygon fill="white" stroke="black" points="594,-6 594,-36 748,-36 748,-6 594,-6"/>
<text text-anchor="start" x="602" y="-24" font-family="Helvetica,sans-Serif" font-size="10.00">denoptim.gui.GUIGraphHandler.</text>
<text text-anchor="middle" x="671" y="-13" font-family="Helvetica,sans-Serif" font-size="10.00">GUIGraphHandler</text>
</a>
</g>
</g>
<!-- Node29&#45;&gt;Node30 -->
<g id="edge36" class="edge">
<title>Node29&#45;&gt;Node30</title>
<path fill="none" stroke="midnightblue" d="M777.5,-21C767.59,-21 757.67,-21 748.1,-21"/>
<polygon fill="midnightblue" stroke="midnightblue" points="777.81,-24.5 787.81,-21 777.81,-17.5 777.81,-24.5"/>
</g>
</g>
</svg>
