<?xml version="1.0" encoding="UTF-8" standalone="no"?>
<!DOCTYPE svg PUBLIC "-//W3C//DTD SVG 1.1//EN"
 "http://www.w3.org/Graphics/SVG/1.1/DTD/svg11.dtd">
<!-- Generated by graphviz version 3.0.0 (20220413.0242)
 -->
<!-- Title: denoptim.graph.Edge.BondType.getCDKOrder Pages: 1 -->
<svg width="1825pt" height="310pt"
 viewBox="0.00 0.00 1825.00 310.00" xmlns="http://www.w3.org/2000/svg" xmlns:xlink="http://www.w3.org/1999/xlink">
<g id="graph0" class="graph" transform="scale(1 1) rotate(0) translate(4 306)">
<title>denoptim.graph.Edge.BondType.getCDKOrder</title>
<polygon fill="white" stroke="transparent" points="-4,4 -4,-306 1821,-306 1821,4 -4,4"/>
<!-- Node1 -->
<g id="node1" class="node">
<title>Node1</title>
<g id="a_node1"><a xlink:title=" ">
<polygon fill="#bfbfbf" stroke="black" points="1686,-144 1686,-174 1817,-174 1817,-144 1686,-144"/>
<text text-anchor="start" x="1694" y="-162" font-family="Helvetica,sans-Serif" font-size="10.00">denoptim.graph.Edge.Bond</text>
<text text-anchor="middle" x="1751.5" y="-151" font-family="Helvetica,sans-Serif" font-size="10.00">Type.getCDKOrder</text>
</a>
</g>
</g>
<!-- Node2 -->
<g id="node2" class="node">
<title>Node2</title>
<g id="a_node2"><a xlink:href="classdenoptim_1_1molecularmodeling_1_1_chemical_object_model.html#a85aaa2ca417ef0cf65457ad46f288344" target="_top" xlink:title="Modify the molecule adding a cyclic bond between two atoms.">
<polygon fill="white" stroke="black" points="1474,-244 1474,-274 1626,-274 1626,-244 1474,-244"/>
<text text-anchor="start" x="1482" y="-262" font-family="Helvetica,sans-Serif" font-size="10.00">denoptim.molecularmodeling.</text>
<text text-anchor="middle" x="1550" y="-251" font-family="Helvetica,sans-Serif" font-size="10.00">ChemicalObjectModel.addBond</text>
</a>
</g>
</g>
<!-- Node1&#45;&gt;Node2 -->
<g id="edge1" class="edge">
<title>Node1&#45;&gt;Node2</title>
<path fill="none" stroke="midnightblue" d="M1720.82,-179.84C1701.28,-192.99 1674.82,-209.74 1650,-222 1633.22,-230.29 1614.09,-237.85 1597.16,-243.94"/>
<polygon fill="midnightblue" stroke="midnightblue" points="1722.98,-182.6 1729.28,-174.08 1719.04,-176.81 1722.98,-182.6"/>
</g>
<!-- Node8 -->
<g id="node8" class="node">
<title>Node8</title>
<g id="a_node8"><a xlink:href="classdenoptim_1_1graph_1_1rings_1_1_cyclic_graph_handler_1_1_ring_size_manager.html#a0fc0f3889f18d330fc50f28a4264ca21" target="_top" xlink:title=" ">
<polygon fill="white" stroke="black" points="1237.5,-187.5 1237.5,-228.5 1410.5,-228.5 1410.5,-187.5 1237.5,-187.5"/>
<text text-anchor="start" x="1245.5" y="-216.5" font-family="Helvetica,sans-Serif" font-size="10.00">denoptim.graph.rings.Cyclic</text>
<text text-anchor="start" x="1245.5" y="-205.5" font-family="Helvetica,sans-Serif" font-size="10.00">GraphHandler.RingSizeManager.add</text>
<text text-anchor="middle" x="1324" y="-194.5" font-family="Helvetica,sans-Serif" font-size="10.00">RingClosingBond</text>
</a>
</g>
</g>
<!-- Node1&#45;&gt;Node8 -->
<g id="edge7" class="edge">
<title>Node1&#45;&gt;Node8</title>
<path fill="none" stroke="midnightblue" d="M1698.16,-177.12C1682.81,-181.75 1665.89,-186.2 1650,-189 1569.7,-203.13 1476.71,-207.37 1410.82,-208.38"/>
<polygon fill="midnightblue" stroke="midnightblue" points="1699.48,-180.38 1707.99,-174.07 1697.4,-173.69 1699.48,-180.38"/>
</g>
<!-- Node19 -->
<g id="node19" class="node">
<title>Node19</title>
<g id="a_node19"><a xlink:href="classdenoptim_1_1molecularmodeling_1_1_three_dim_tree_builder.html#a0ba24f9b6e98f948d35c7853fdc543f5" target="_top" xlink:title="Recursive method that appends branches of building blocks following the edges of the graph.">
<polygon fill="white" stroke="black" points="1450,-60.5 1450,-101.5 1650,-101.5 1650,-60.5 1450,-60.5"/>
<text text-anchor="start" x="1458" y="-89.5" font-family="Helvetica,sans-Serif" font-size="10.00">denoptim.molecularmodeling.</text>
<text text-anchor="start" x="1458" y="-78.5" font-family="Helvetica,sans-Serif" font-size="10.00">ThreeDimTreeBuilder.append3DFragments</text>
<text text-anchor="middle" x="1550" y="-67.5" font-family="Helvetica,sans-Serif" font-size="10.00">ViaEdges</text>
</a>
</g>
</g>
<!-- Node1&#45;&gt;Node19 -->
<g id="edge20" class="edge">
<title>Node1&#45;&gt;Node19</title>
<path fill="none" stroke="midnightblue" d="M1702.67,-140.3C1672.83,-128.63 1634.39,-113.6 1603.68,-101.6"/>
<polygon fill="midnightblue" stroke="midnightblue" points="1701.45,-143.58 1712.03,-143.96 1704,-137.06 1701.45,-143.58"/>
</g>
<!-- Node21 -->
<g id="node21" class="node">
<title>Node21</title>
<g id="a_node21"><a xlink:href="classdenoptim_1_1graph_1_1rings_1_1_cyclic_graph_handler.html#ae14cac1f0746cf7b50db933cab59e4e4" target="_top" xlink:title="Method to evaluate the closability of a single path considering only its constitution.">
<polygon fill="white" stroke="black" points="1462.5,-138.5 1462.5,-179.5 1637.5,-179.5 1637.5,-138.5 1462.5,-138.5"/>
<text text-anchor="start" x="1470.5" y="-167.5" font-family="Helvetica,sans-Serif" font-size="10.00">denoptim.graph.rings.Cyclic</text>
<text text-anchor="start" x="1470.5" y="-156.5" font-family="Helvetica,sans-Serif" font-size="10.00">GraphHandler.evaluateConstitutional</text>
<text text-anchor="middle" x="1550" y="-145.5" font-family="Helvetica,sans-Serif" font-size="10.00">Closability</text>
</a>
</g>
</g>
<!-- Node1&#45;&gt;Node21 -->
<g id="edge23" class="edge">
<title>Node1&#45;&gt;Node21</title>
<path fill="none" stroke="midnightblue" d="M1675.48,-159C1663.12,-159 1650.21,-159 1637.58,-159"/>
<polygon fill="midnightblue" stroke="midnightblue" points="1675.73,-162.5 1685.73,-159 1675.73,-155.5 1675.73,-162.5"/>
</g>
<!-- Node26 -->
<g id="node26" class="node">
<title>Node26</title>
<g id="a_node26"><a xlink:href="classdenoptim_1_1utils_1_1_molecule_utils.html#a1d0f69b9fe60e2df6c934b129eb2b044" target="_top" xlink:title="Replace used RCAs (i.e., those involved in Rings) while adding the ring closing bonds.">
<polygon fill="white" stroke="black" points="1463.5,-12 1463.5,-42 1636.5,-42 1636.5,-12 1463.5,-12"/>
<text text-anchor="start" x="1471.5" y="-30" font-family="Helvetica,sans-Serif" font-size="10.00">denoptim.utils.MoleculeUtils.remove</text>
<text text-anchor="middle" x="1550" y="-19" font-family="Helvetica,sans-Serif" font-size="10.00">UsedRCA</text>
</a>
</g>
</g>
<!-- Node1&#45;&gt;Node26 -->
<g id="edge30" class="edge">
<title>Node1&#45;&gt;Node26</title>
<path fill="none" stroke="midnightblue" d="M1734.9,-135.35C1717.25,-110.52 1686.22,-72.2 1650,-51 1644.12,-47.56 1637.78,-44.61 1631.23,-42.09"/>
<polygon fill="midnightblue" stroke="midnightblue" points="1732.2,-137.6 1740.77,-143.83 1737.95,-133.61 1732.2,-137.6"/>
</g>
<!-- Node3 -->
<g id="node3" class="node">
<title>Node3</title>
<g id="a_node3"><a xlink:href="classdenoptim_1_1molecularmodeling_1_1_ring_closure_tool.html#a065481cf3ca3229eee8b417fa3f7c0b5" target="_top" xlink:title="Makes new rings by connecting pairs of atoms that hold properly arranged RingClosingAttractors.">
<polygon fill="white" stroke="black" points="1253,-251 1253,-281 1395,-281 1395,-251 1253,-251"/>
<text text-anchor="start" x="1261" y="-269" font-family="Helvetica,sans-Serif" font-size="10.00">denoptim.molecularmodeling.</text>
<text text-anchor="middle" x="1324" y="-258" font-family="Helvetica,sans-Serif" font-size="10.00">RingClosureTool.closeRings</text>
</a>
</g>
</g>
<!-- Node2&#45;&gt;Node3 -->
<g id="edge2" class="edge">
<title>Node2&#45;&gt;Node3</title>
<path fill="none" stroke="midnightblue" d="M1463.52,-261.67C1440.92,-262.38 1416.78,-263.13 1395.1,-263.81"/>
<polygon fill="midnightblue" stroke="midnightblue" points="1463.9,-265.16 1473.79,-261.35 1463.68,-258.16 1463.9,-265.16"/>
</g>
<!-- Node4 -->
<g id="node4" class="node">
<title>Node4</title>
<g id="a_node4"><a xlink:href="classdenoptim_1_1molecularmodeling_1_1_ring_closure_tool.html#abd87e8b7391948be1c3156eb9d131be7" target="_top" xlink:title="Attempts to close rings by finding the conformation that allows to join heads and tails of atom speci...">
<polygon fill="white" stroke="black" points="1018,-258 1018,-288 1194,-288 1194,-258 1018,-258"/>
<text text-anchor="start" x="1026" y="-276" font-family="Helvetica,sans-Serif" font-size="10.00">denoptim.molecularmodeling.</text>
<text text-anchor="middle" x="1106" y="-265" font-family="Helvetica,sans-Serif" font-size="10.00">RingClosureTool.attemptRingClosure</text>
</a>
</g>
</g>
<!-- Node3&#45;&gt;Node4 -->
<g id="edge3" class="edge">
<title>Node3&#45;&gt;Node4</title>
<path fill="none" stroke="midnightblue" d="M1242.62,-268.6C1226.82,-269.12 1210.18,-269.66 1194.16,-270.18"/>
<polygon fill="midnightblue" stroke="midnightblue" points="1242.99,-272.09 1252.87,-268.27 1242.76,-265.1 1242.99,-272.09"/>
</g>
<!-- Node5 -->
<g id="node5" class="node">
<title>Node5</title>
<g id="a_node5"><a xlink:href="classdenoptim_1_1molecularmodeling_1_1_ring_closure_tool.html#a26896649739e0a5e63dd88079c6efe7a" target="_top" xlink:title="Performs one or more attempts to close rings by conformational adaptation.">
<polygon fill="white" stroke="black" points="786,-262 786,-292 978,-292 978,-262 786,-262"/>
<text text-anchor="start" x="794" y="-280" font-family="Helvetica,sans-Serif" font-size="10.00">denoptim.molecularmodeling.</text>
<text text-anchor="middle" x="882" y="-269" font-family="Helvetica,sans-Serif" font-size="10.00">RingClosureTool.attemptAllRingClosures</text>
</a>
</g>
</g>
<!-- Node4&#45;&gt;Node5 -->
<g id="edge4" class="edge">
<title>Node4&#45;&gt;Node5</title>
<path fill="none" stroke="midnightblue" d="M1007.77,-274.75C997.98,-274.93 988.05,-275.11 978.29,-275.28"/>
<polygon fill="midnightblue" stroke="midnightblue" points="1007.96,-278.25 1017.9,-274.57 1007.84,-271.25 1007.96,-278.25"/>
</g>
<!-- Node6 -->
<g id="node6" class="node">
<title>Node6</title>
<g id="a_node6"><a xlink:href="classdenoptim_1_1molecularmodeling_1_1_multi_molecular_model_builder.html#a6a8e314f3fb37f66c32c8c4d5695b8a4" target="_top" xlink:title="Given the graph representation of the molecular constitution, along with the 3D coordinates of the fr...">
<polygon fill="white" stroke="black" points="592,-260.5 592,-301.5 750,-301.5 750,-260.5 592,-260.5"/>
<text text-anchor="start" x="600" y="-289.5" font-family="Helvetica,sans-Serif" font-size="10.00">denoptim.molecularmodeling.</text>
<text text-anchor="start" x="600" y="-278.5" font-family="Helvetica,sans-Serif" font-size="10.00">MultiMolecularModelBuilder.build</text>
<text text-anchor="middle" x="671" y="-267.5" font-family="Helvetica,sans-Serif" font-size="10.00">Multi3DStructure</text>
</a>
</g>
</g>
<!-- Node5&#45;&gt;Node6 -->
<g id="edge5" class="edge">
<title>Node5&#45;&gt;Node6</title>
<path fill="none" stroke="midnightblue" d="M775.85,-279.01C767.22,-279.18 758.59,-279.34 750.2,-279.5"/>
<polygon fill="midnightblue" stroke="midnightblue" points="776.05,-282.51 785.98,-278.82 775.91,-275.51 776.05,-282.51"/>
</g>
<!-- Node7 -->
<g id="node7" class="node">
<title>Node7</title>
<g id="a_node7"><a xlink:href="classdenoptim_1_1programs_1_1moldecularmodelbuilder_1_1_molecular_model_builder.html#ad2e44290de6a861274def677044e9754" target="_top" xlink:title=" ">
<polygon fill="white" stroke="black" points="350,-266 350,-296 556,-296 556,-266 350,-266"/>
<text text-anchor="start" x="358" y="-284" font-family="Helvetica,sans-Serif" font-size="10.00">denoptim.programs.moldecularmodelbuilder.</text>
<text text-anchor="middle" x="453" y="-273" font-family="Helvetica,sans-Serif" font-size="10.00">MolecularModelBuilder.runProgram</text>
</a>
</g>
</g>
<!-- Node6&#45;&gt;Node7 -->
<g id="edge6" class="edge">
<title>Node6&#45;&gt;Node7</title>
<path fill="none" stroke="midnightblue" d="M581.55,-281C573.14,-281 564.57,-281 556.05,-281"/>
<polygon fill="midnightblue" stroke="midnightblue" points="581.71,-284.5 591.71,-281 581.71,-277.5 581.71,-284.5"/>
</g>
<!-- Node9 -->
<g id="node9" class="node">
<title>Node9</title>
<g id="a_node9"><a xlink:href="classdenoptim_1_1graph_1_1rings_1_1_cyclic_graph_handler.html#a08b02946eaac7c2cbbe6e71332d702e6" target="_top" xlink:title="Identifies a random combination of ring closing paths and returns it as list of DENOPTIMRings ready t...">
<polygon fill="white" stroke="black" points="1015,-177.5 1015,-218.5 1197,-218.5 1197,-177.5 1015,-177.5"/>
<text text-anchor="start" x="1023" y="-206.5" font-family="Helvetica,sans-Serif" font-size="10.00">denoptim.graph.rings.Cyclic</text>
<text text-anchor="start" x="1023" y="-195.5" font-family="Helvetica,sans-Serif" font-size="10.00">GraphHandler.getRandomCombination</text>
<text text-anchor="middle" x="1106" y="-184.5" font-family="Helvetica,sans-Serif" font-size="10.00">OfRings</text>
</a>
</g>
</g>
<!-- Node8&#45;&gt;Node9 -->
<g id="edge8" class="edge">
<title>Node8&#45;&gt;Node9</title>
<path fill="none" stroke="midnightblue" d="M1227.04,-203.56C1217.11,-203.1 1207.05,-202.63 1197.19,-202.18"/>
<polygon fill="midnightblue" stroke="midnightblue" points="1227.17,-207.07 1237.32,-204.03 1227.49,-200.07 1227.17,-207.07"/>
</g>
<!-- Node10 -->
<g id="node10" class="node">
<title>Node10</title>
<g id="a_node10"><a xlink:href="classdenoptim_1_1ga_1_1_e_a_utils.html#a1ddb932d4618434d435e4f85ce5e5eb5" target="_top" xlink:title="Evaluates the possibility of closing rings in a given graph and if any ring can be closed,...">
<polygon fill="white" stroke="black" points="816.5,-163 816.5,-193 947.5,-193 947.5,-163 816.5,-163"/>
<text text-anchor="start" x="824.5" y="-181" font-family="Helvetica,sans-Serif" font-size="10.00">denoptim.ga.EAUtils.setup</text>
<text text-anchor="middle" x="882" y="-170" font-family="Helvetica,sans-Serif" font-size="10.00">Rings</text>
</a>
</g>
</g>
<!-- Node9&#45;&gt;Node10 -->
<g id="edge9" class="edge">
<title>Node9&#45;&gt;Node10</title>
<path fill="none" stroke="midnightblue" d="M1004.64,-188.96C985.3,-187.22 965.53,-185.43 947.7,-183.83"/>
<polygon fill="midnightblue" stroke="midnightblue" points="1004.43,-192.45 1014.7,-189.87 1005.06,-185.48 1004.43,-192.45"/>
</g>
<!-- Node11 -->
<g id="node11" class="node">
<title>Node11</title>
<g id="a_node11"><a xlink:href="classdenoptim_1_1ga_1_1_e_a_utils.html#a5cb6bbe9f383bf821f3b1f1c5e60031b" target="_top" xlink:title=" ">
<polygon fill="white" stroke="black" points="607.5,-212 607.5,-242 734.5,-242 734.5,-212 607.5,-212"/>
<text text-anchor="start" x="615.5" y="-230" font-family="Helvetica,sans-Serif" font-size="10.00">denoptim.ga.EAUtils.build</text>
<text text-anchor="middle" x="671" y="-219" font-family="Helvetica,sans-Serif" font-size="10.00">CandidateByMutation</text>
</a>
</g>
</g>
<!-- Node10&#45;&gt;Node11 -->
<g id="edge10" class="edge">
<title>Node10&#45;&gt;Node11</title>
<path fill="none" stroke="midnightblue" d="M806.89,-195.37C783.24,-200.92 757.32,-207 734.57,-212.33"/>
<polygon fill="midnightblue" stroke="midnightblue" points="807.94,-198.72 816.87,-193.03 806.34,-191.91 807.94,-198.72"/>
</g>
<!-- Node16 -->
<g id="node16" class="node">
<title>Node16</title>
<g id="a_node16"><a xlink:href="classdenoptim_1_1ga_1_1_e_a_utils.html#a98553265dd4b441b11c6d97d098edb08" target="_top" xlink:title="Generates a new offspring by performing a crossover operation.">
<polygon fill="white" stroke="black" points="607.5,-163 607.5,-193 734.5,-193 734.5,-163 607.5,-163"/>
<text text-anchor="start" x="615.5" y="-181" font-family="Helvetica,sans-Serif" font-size="10.00">denoptim.ga.EAUtils.build</text>
<text text-anchor="middle" x="671" y="-170" font-family="Helvetica,sans-Serif" font-size="10.00">CandidateByXOver</text>
</a>
</g>
</g>
<!-- Node10&#45;&gt;Node16 -->
<g id="edge15" class="edge">
<title>Node10&#45;&gt;Node16</title>
<path fill="none" stroke="midnightblue" d="M806.07,-178C782.65,-178 757.08,-178 734.6,-178"/>
<polygon fill="midnightblue" stroke="midnightblue" points="806.3,-181.5 816.3,-178 806.3,-174.5 806.3,-181.5"/>
</g>
<!-- Node17 -->
<g id="node17" class="node">
<title>Node17</title>
<g id="a_node17"><a xlink:href="classdenoptim_1_1ga_1_1_e_a_utils.html#ad3d2daeb11e68a356e971ca1846596b5" target="_top" xlink:title=" ">
<polygon fill="white" stroke="black" points="607.5,-114 607.5,-144 734.5,-144 734.5,-114 607.5,-114"/>
<text text-anchor="start" x="615.5" y="-132" font-family="Helvetica,sans-Serif" font-size="10.00">denoptim.ga.EAUtils.build</text>
<text text-anchor="middle" x="671" y="-121" font-family="Helvetica,sans-Serif" font-size="10.00">CandidateFromScratch</text>
</a>
</g>
</g>
<!-- Node10&#45;&gt;Node17 -->
<g id="edge16" class="edge">
<title>Node10&#45;&gt;Node17</title>
<path fill="none" stroke="midnightblue" d="M806.89,-160.63C783.24,-155.08 757.32,-149 734.57,-143.67"/>
<polygon fill="midnightblue" stroke="midnightblue" points="806.34,-164.09 816.87,-162.97 807.94,-157.28 806.34,-164.09"/>
</g>
<!-- Node12 -->
<g id="node12" class="node">
<title>Node12</title>
<g id="a_node12"><a xlink:href="classdenoptim_1_1ga_1_1_evolutionary_algorithm.html#a596b2f5f0b097c5b67a6e5163bd6fe66" target="_top" xlink:title="Generates a given number of new candidate items and adds them to the current population.">
<polygon fill="white" stroke="black" points="386,-163 386,-193 520,-193 520,-163 386,-163"/>
<text text-anchor="start" x="394" y="-181" font-family="Helvetica,sans-Serif" font-size="10.00">denoptim.ga.Evolutionary</text>
<text text-anchor="middle" x="453" y="-170" font-family="Helvetica,sans-Serif" font-size="10.00">Algorithm.evolvePopulation</text>
</a>
</g>
</g>
<!-- Node11&#45;&gt;Node12 -->
<g id="edge11" class="edge">
<title>Node11&#45;&gt;Node12</title>
<path fill="none" stroke="midnightblue" d="M597.46,-210.55C572.52,-204.89 544.74,-198.58 520.31,-193.04"/>
<polygon fill="midnightblue" stroke="midnightblue" points="596.71,-213.96 607.23,-212.76 598.26,-207.14 596.71,-213.96"/>
</g>
<!-- Node13 -->
<g id="node13" class="node">
<title>Node13</title>
<g id="a_node13"><a xlink:href="classdenoptim_1_1ga_1_1_evolutionary_algorithm.html#a6bfc2fa59b199da6259b5b6bad3d6de7" target="_top" xlink:title=" ">
<polygon fill="white" stroke="black" points="190,-138 190,-168 314,-168 314,-138 190,-138"/>
<text text-anchor="start" x="198" y="-156" font-family="Helvetica,sans-Serif" font-size="10.00">denoptim.ga.Evolutionary</text>
<text text-anchor="middle" x="252" y="-145" font-family="Helvetica,sans-Serif" font-size="10.00">Algorithm.run</text>
</a>
</g>
</g>
<!-- Node12&#45;&gt;Node13 -->
<g id="edge12" class="edge">
<title>Node12&#45;&gt;Node13</title>
<path fill="none" stroke="midnightblue" d="M375.58,-168.4C355.29,-165.85 333.64,-163.13 314.27,-160.7"/>
<polygon fill="midnightblue" stroke="midnightblue" points="375.38,-171.9 385.74,-169.68 376.25,-164.96 375.38,-171.9"/>
</g>
<!-- Node14 -->
<g id="node14" class="node">
<title>Node14</title>
<g id="a_node14"><a xlink:href="classdenoptim_1_1ga_1_1_evolutionary_algorithm.html#a0f2063b722b7291daf83d62acaa683d3" target="_top" xlink:title=" ">
<polygon fill="white" stroke="black" points="0,-163 0,-193 154,-193 154,-163 0,-163"/>
<text text-anchor="start" x="8" y="-181" font-family="Helvetica,sans-Serif" font-size="10.00">denoptim.ga.Evolutionary</text>
<text text-anchor="middle" x="77" y="-170" font-family="Helvetica,sans-Serif" font-size="10.00">Algorithm.EvolutionaryAlgorithm</text>
</a>
</g>
</g>
<!-- Node13&#45;&gt;Node14 -->
<g id="edge13" class="edge">
<title>Node13&#45;&gt;Node14</title>
<path fill="none" stroke="midnightblue" d="M179.44,-163.34C171.09,-164.55 162.54,-165.78 154.12,-167"/>
<polygon fill="midnightblue" stroke="midnightblue" points="180.12,-166.78 189.52,-161.88 179.12,-159.85 180.12,-166.78"/>
</g>
<!-- Node15 -->
<g id="node15" class="node">
<title>Node15</title>
<g id="a_node15"><a xlink:href="classdenoptim_1_1programs_1_1denovo_1_1_g_a_runner.html#a7cafd6d78727b89dce3e2c8d06f0dd7c" target="_top" xlink:title=" ">
<polygon fill="white" stroke="black" points="9.5,-114 9.5,-144 144.5,-144 144.5,-114 9.5,-114"/>
<text text-anchor="start" x="17.5" y="-132" font-family="Helvetica,sans-Serif" font-size="10.00">denoptim.programs.denovo.</text>
<text text-anchor="middle" x="77" y="-121" font-family="Helvetica,sans-Serif" font-size="10.00">GARunner.runProgram</text>
</a>
</g>
</g>
<!-- Node13&#45;&gt;Node15 -->
<g id="edge14" class="edge">
<title>Node13&#45;&gt;Node15</title>
<path fill="none" stroke="midnightblue" d="M179.48,-143.08C167.92,-141.47 156,-139.82 144.57,-138.23"/>
<polygon fill="midnightblue" stroke="midnightblue" points="179.13,-146.56 189.52,-144.47 180.1,-139.63 179.13,-146.56"/>
</g>
<!-- Node17&#45;&gt;Node12 -->
<g id="edge17" class="edge">
<title>Node17&#45;&gt;Node12</title>
<path fill="none" stroke="midnightblue" d="M597.46,-145.45C572.52,-151.11 544.74,-157.42 520.31,-162.96"/>
<polygon fill="midnightblue" stroke="midnightblue" points="598.26,-148.86 607.23,-143.24 596.71,-142.04 598.26,-148.86"/>
</g>
<!-- Node18 -->
<g id="node18" class="node">
<title>Node18</title>
<g id="a_node18"><a xlink:href="classdenoptim_1_1ga_1_1_evolutionary_algorithm.html#ad43588620dab3340e0d8b0042ec73618" target="_top" xlink:title="Fills up the population with candidates build from scratch.">
<polygon fill="white" stroke="black" points="383,-114 383,-144 523,-144 523,-114 383,-114"/>
<text text-anchor="start" x="391" y="-132" font-family="Helvetica,sans-Serif" font-size="10.00">denoptim.ga.Evolutionary</text>
<text text-anchor="middle" x="453" y="-121" font-family="Helvetica,sans-Serif" font-size="10.00">Algorithm.initializePopulation</text>
</a>
</g>
</g>
<!-- Node17&#45;&gt;Node18 -->
<g id="edge18" class="edge">
<title>Node17&#45;&gt;Node18</title>
<path fill="none" stroke="midnightblue" d="M597.19,-129C573.35,-129 546.94,-129 523.36,-129"/>
<polygon fill="midnightblue" stroke="midnightblue" points="597.23,-132.5 607.23,-129 597.23,-125.5 597.23,-132.5"/>
</g>
<!-- Node18&#45;&gt;Node13 -->
<g id="edge19" class="edge">
<title>Node18&#45;&gt;Node13</title>
<path fill="none" stroke="midnightblue" d="M372.88,-138.54C353.38,-140.89 332.79,-143.38 314.28,-145.61"/>
<polygon fill="midnightblue" stroke="midnightblue" points="373.45,-142 382.96,-137.33 372.61,-135.05 373.45,-142"/>
</g>
<!-- Node19&#45;&gt;Node19 -->
<g id="edge21" class="edge">
<title>Node19&#45;&gt;Node19</title>
<path fill="none" stroke="midnightblue" d="M1584.41,-111.86C1579.29,-116.7 1567.82,-120 1550,-120 1521.48,-120 1509.23,-111.54 1513.24,-101.86"/>
<polygon fill="midnightblue" stroke="midnightblue" points="1587.88,-112.4 1586.76,-101.86 1581.06,-110.8 1587.88,-112.4"/>
</g>
<!-- Node20 -->
<g id="node20" class="node">
<title>Node20</title>
<g id="a_node20"><a xlink:href="classdenoptim_1_1molecularmodeling_1_1_three_dim_tree_builder.html#acbaf5061621ed283eecc80a51b523422" target="_top" xlink:title="Created a three&#45;dimensional molecular representation from a given DGraph.">
<polygon fill="white" stroke="black" points="1239.5,-60.5 1239.5,-101.5 1408.5,-101.5 1408.5,-60.5 1239.5,-60.5"/>
<text text-anchor="start" x="1247.5" y="-89.5" font-family="Helvetica,sans-Serif" font-size="10.00">denoptim.molecularmodeling.</text>
<text text-anchor="start" x="1247.5" y="-78.5" font-family="Helvetica,sans-Serif" font-size="10.00">ThreeDimTreeBuilder.convertGraph</text>
<text text-anchor="middle" x="1324" y="-67.5" font-family="Helvetica,sans-Serif" font-size="10.00">To3DAtomContainer</text>
</a>
</g>
</g>
<!-- Node19&#45;&gt;Node20 -->
<g id="edge22" class="edge">
<title>Node19&#45;&gt;Node20</title>
<path fill="none" stroke="midnightblue" d="M1439.47,-81C1429.14,-81 1418.79,-81 1408.76,-81"/>
<polygon fill="midnightblue" stroke="midnightblue" points="1439.77,-84.5 1449.77,-81 1439.77,-77.5 1439.77,-84.5"/>
</g>
<!-- Node22 -->
<g id="node22" class="node">
<title>Node22</title>
<g id="a_node22"><a xlink:href="classdenoptim_1_1graph_1_1rings_1_1_cyclic_graph_handler.html#abd43d52fe626625dab3da6a32038e57b" target="_top" xlink:title="Method to evaluate the closability of a single path in a graph representing a molecule.">
<polygon fill="white" stroke="black" points="1234,-139 1234,-169 1414,-169 1414,-139 1234,-139"/>
<text text-anchor="start" x="1242" y="-157" font-family="Helvetica,sans-Serif" font-size="10.00">denoptim.graph.rings.Cyclic</text>
<text text-anchor="middle" x="1324" y="-146" font-family="Helvetica,sans-Serif" font-size="10.00">GraphHandler.evaluatePathClosability</text>
</a>
</g>
</g>
<!-- Node21&#45;&gt;Node22 -->
<g id="edge24" class="edge">
<title>Node21&#45;&gt;Node22</title>
<path fill="none" stroke="midnightblue" d="M1452.34,-156.84C1439.72,-156.56 1426.83,-156.27 1414.34,-155.99"/>
<polygon fill="midnightblue" stroke="midnightblue" points="1452.32,-160.34 1462.4,-157.07 1452.48,-153.34 1452.32,-160.34"/>
</g>
<!-- Node22&#45;&gt;Node9 -->
<g id="edge29" class="edge">
<title>Node22&#45;&gt;Node9</title>
<path fill="none" stroke="midnightblue" d="M1239.33,-171.04C1225.53,-173.85 1211.17,-176.78 1197.22,-179.62"/>
<polygon fill="midnightblue" stroke="midnightblue" points="1240.17,-174.44 1249.27,-169.02 1238.77,-167.59 1240.17,-174.44"/>
</g>
<!-- Node23 -->
<g id="node23" class="node">
<title>Node23</title>
<g id="a_node23"><a xlink:href="classdenoptim_1_1graph_1_1rings_1_1_cyclic_graph_handler.html#a3ce96322723f45d9285a248ebcef94d3" target="_top" xlink:title="Identifies all possible ring closing paths and returns them as list of DENOPTIMRings ready to be appe...">
<polygon fill="white" stroke="black" points="1014,-117.5 1014,-158.5 1198,-158.5 1198,-117.5 1014,-117.5"/>
<text text-anchor="start" x="1022" y="-146.5" font-family="Helvetica,sans-Serif" font-size="10.00">denoptim.graph.rings.Cyclic</text>
<text text-anchor="start" x="1022" y="-135.5" font-family="Helvetica,sans-Serif" font-size="10.00">GraphHandler.getPossibleCombination</text>
<text text-anchor="middle" x="1106" y="-124.5" font-family="Helvetica,sans-Serif" font-size="10.00">OfRings</text>
</a>
</g>
</g>
<!-- Node22&#45;&gt;Node23 -->
<g id="edge25" class="edge">
<title>Node22&#45;&gt;Node23</title>
<path fill="none" stroke="midnightblue" d="M1223.66,-146.64C1215.22,-146.02 1206.71,-145.39 1198.34,-144.77"/>
<polygon fill="midnightblue" stroke="midnightblue" points="1223.67,-150.15 1233.9,-147.4 1224.18,-143.17 1223.67,-150.15"/>
</g>
<!-- Node23&#45;&gt;Node10 -->
<g id="edge28" class="edge">
<title>Node23&#45;&gt;Node10</title>
<path fill="none" stroke="midnightblue" d="M1003.83,-156.23C984.79,-159.66 965.35,-163.16 947.8,-166.33"/>
<polygon fill="midnightblue" stroke="midnightblue" points="1004.52,-159.66 1013.74,-154.44 1003.28,-152.77 1004.52,-159.66"/>
</g>
<!-- Node24 -->
<g id="node24" class="node">
<title>Node24</title>
<g id="a_node24"><a xlink:href="classdenoptim_1_1graph_1_1_d_graph.html#a7a4743d014e860237f4b20703ef9779b" target="_top" xlink:title="Evaluates the possibility of closing rings in this graph and generates all alternative graphs resulti...">
<polygon fill="white" stroke="black" points="804.5,-89 804.5,-119 959.5,-119 959.5,-89 804.5,-89"/>
<text text-anchor="start" x="812.5" y="-107" font-family="Helvetica,sans-Serif" font-size="10.00">denoptim.graph.DGraph.make</text>
<text text-anchor="middle" x="882" y="-96" font-family="Helvetica,sans-Serif" font-size="10.00">AllGraphsWithDifferentRingSets</text>
</a>
</g>
</g>
<!-- Node23&#45;&gt;Node24 -->
<g id="edge26" class="edge">
<title>Node23&#45;&gt;Node24</title>
<path fill="none" stroke="midnightblue" d="M1003.59,-122.47C988.85,-120.21 973.89,-117.92 959.75,-115.75"/>
<polygon fill="midnightblue" stroke="midnightblue" points="1003.33,-125.97 1013.74,-124.02 1004.39,-119.05 1003.33,-125.97"/>
</g>
<!-- Node25 -->
<g id="node25" class="node">
<title>Node25</title>
<g id="a_node25"><a xlink:href="classdenoptim_1_1combinatorial_1_1_graph_building_task.html#a3eaee724fc921194fa158714aafe182d" target="_top" xlink:title="Calls the task.">
<polygon fill="white" stroke="black" points="598.5,-65 598.5,-95 743.5,-95 743.5,-65 598.5,-65"/>
<text text-anchor="start" x="606.5" y="-83" font-family="Helvetica,sans-Serif" font-size="10.00">denoptim.combinatorial.Graph</text>
<text text-anchor="middle" x="671" y="-72" font-family="Helvetica,sans-Serif" font-size="10.00">BuildingTask.call</text>
</a>
</g>
</g>
<!-- Node24&#45;&gt;Node25 -->
<g id="edge27" class="edge">
<title>Node24&#45;&gt;Node25</title>
<path fill="none" stroke="midnightblue" d="M794.04,-94.01C777.3,-92.09 759.95,-90.1 743.77,-88.24"/>
<polygon fill="midnightblue" stroke="midnightblue" points="794.03,-97.54 804.36,-95.2 794.83,-90.58 794.03,-97.54"/>
</g>
<!-- Node26&#45;&gt;Node20 -->
<g id="edge31" class="edge">
<title>Node26&#45;&gt;Node20</title>
<path fill="none" stroke="midnightblue" d="M1476.82,-44.4C1455.15,-49.62 1431.19,-55.4 1408.83,-60.79"/>
<polygon fill="midnightblue" stroke="midnightblue" points="1477.7,-47.79 1486.6,-42.04 1476.06,-40.98 1477.7,-47.79"/>
</g>
<!-- Node27 -->
<g id="node27" class="node">
<title>Node27</title>
<g id="a_node27"><a xlink:href="classdenoptim_1_1gui_1_1_graph_vertex_mol_viewer_panel.html#afb0f2245fdfc8158581b4cbcf2b239d1" target="_top" xlink:title="Updates the molecular representation of the loaded graph.">
<polygon fill="white" stroke="black" points="1243.5,-0.5 1243.5,-41.5 1404.5,-41.5 1404.5,-0.5 1243.5,-0.5"/>
<text text-anchor="start" x="1251.5" y="-29.5" font-family="Helvetica,sans-Serif" font-size="10.00">denoptim.gui.GraphVertex</text>
<text text-anchor="start" x="1251.5" y="-18.5" font-family="Helvetica,sans-Serif" font-size="10.00">MolViewerPanel.updateMolevular</text>
<text text-anchor="middle" x="1324" y="-7.5" font-family="Helvetica,sans-Serif" font-size="10.00">Viewer</text>
</a>
</g>
</g>
<!-- Node26&#45;&gt;Node27 -->
<g id="edge32" class="edge">
<title>Node26&#45;&gt;Node27</title>
<path fill="none" stroke="midnightblue" d="M1453.34,-24.44C1437.13,-24 1420.45,-23.56 1404.71,-23.13"/>
<polygon fill="midnightblue" stroke="midnightblue" points="1453.27,-27.94 1463.36,-24.71 1453.45,-20.94 1453.27,-27.94"/>
</g>
<!-- Node28 -->
<g id="node28" class="node">
<title>Node28</title>
<g id="a_node28"><a xlink:href="classdenoptim_1_1gui_1_1_g_u_i_graph_handler.html#ad54901fb2a09953591c971ffc48f3de1" target="_top" xlink:title=" ">
<polygon fill="white" stroke="black" points="1018.5,-6 1018.5,-36 1193.5,-36 1193.5,-6 1018.5,-6"/>
<text text-anchor="start" x="1026.5" y="-24" font-family="Helvetica,sans-Serif" font-size="10.00">denoptim.gui.GUIGraphHandler.save</text>
<text text-anchor="middle" x="1106" y="-13" font-family="Helvetica,sans-Serif" font-size="10.00">UnsavedChanges</text>
</a>
</g>
</g>
<!-- Node27&#45;&gt;Node28 -->
<g id="edge33" class="edge">
<title>Node27&#45;&gt;Node28</title>
<path fill="none" stroke="midnightblue" d="M1233.11,-21C1220.04,-21 1206.61,-21 1193.61,-21"/>
<polygon fill="midnightblue" stroke="midnightblue" points="1233.49,-24.5 1243.49,-21 1233.49,-17.5 1233.49,-24.5"/>
</g>
<!-- Node29 -->
<g id="node29" class="node">
<title>Node29</title>
<g id="a_node29"><a xlink:href="classdenoptim_1_1gui_1_1_g_u_i_graph_handler.html#af5b000c105018cbd7c262b34f9750044" target="_top" xlink:title="Initialize the panel and add buttons.">
<polygon fill="white" stroke="black" points="788,-11.5 788,-30.5 976,-30.5 976,-11.5 788,-11.5"/>
<text text-anchor="middle" x="882" y="-18.5" font-family="Helvetica,sans-Serif" font-size="10.00">denoptim.gui.GUIGraphHandler.initialize</text>
</a>
</g>
</g>
<!-- Node28&#45;&gt;Node29 -->
<g id="edge34" class="edge">
<title>Node28&#45;&gt;Node29</title>
<path fill="none" stroke="midnightblue" d="M1008.15,-21C997.59,-21 986.85,-21 976.33,-21"/>
<polygon fill="midnightblue" stroke="midnightblue" points="1008.22,-24.5 1018.22,-21 1008.22,-17.5 1008.22,-24.5"/>
</g>
<!-- Node30 -->
<g id="node30" class="node">
<title>Node30</title>
<g id="a_node30"><a xlink:href="classdenoptim_1_1gui_1_1_g_u_i_graph_handler.html#ab7d010d9a384f6b85edce47c95d6723b" target="_top" xlink:title="Constructor.">
<polygon fill="white" stroke="black" points="594,-6 594,-36 748,-36 748,-6 594,-6"/>
<text text-anchor="start" x="602" y="-24" font-family="Helvetica,sans-Serif" font-size="10.00">denoptim.gui.GUIGraphHandler.</text>
<text text-anchor="middle" x="671" y="-13" font-family="Helvetica,sans-Serif" font-size="10.00">GUIGraphHandler</text>
</a>
</g>
</g>
<!-- Node29&#45;&gt;Node30 -->
<g id="edge35" class="edge">
<title>Node29&#45;&gt;Node30</title>
<path fill="none" stroke="midnightblue" d="M777.5,-21C767.59,-21 757.67,-21 748.1,-21"/>
<polygon fill="midnightblue" stroke="midnightblue" points="777.81,-24.5 787.81,-21 777.81,-17.5 777.81,-24.5"/>
</g>
</g>
</svg>
