<?xml version="1.0" encoding="UTF-8" standalone="no"?>
<!DOCTYPE svg PUBLIC "-//W3C//DTD SVG 1.1//EN"
 "http://www.w3.org/Graphics/SVG/1.1/DTD/svg11.dtd">
<!-- Generated by graphviz version 3.0.0 (20220413.0242)
 -->
<!-- Title: Graphical Class Hierarchy Pages: 1 -->
<svg width="815pt" height="744pt"
 viewBox="0.00 0.00 815.00 743.50" xmlns="http://www.w3.org/2000/svg" xmlns:xlink="http://www.w3.org/1999/xlink">
<g id="graph0" class="graph" transform="scale(1 1) rotate(0) translate(4 739.5)">
<title>Graphical Class Hierarchy</title>
<polygon fill="white" stroke="transparent" points="-4,4 -4,-739.5 811,-739.5 811,4 -4,4"/>
<!-- Node0 -->
<g id="node1" class="node">
<title>Node0</title>
<g id="a_node1"><a xlink:href="interfacedenoptim_1_1gui_1_1_i_parameters_form.html" target="_top" xlink:title="Interface for parameter forms.">
<polygon fill="white" stroke="black" points="0,-618 0,-637 149,-637 149,-618 0,-618"/>
<text text-anchor="middle" x="74.5" y="-625" font-family="Helvetica,sans-Serif" font-size="10.00">denoptim.gui.IParametersForm</text>
</a>
</g>
</g>
<!-- Node1 -->
<g id="node2" class="node">
<title>Node1</title>
<g id="a_node2"><a xlink:href="classdenoptim_1_1gui_1_1_parameters_form.html" target="_top" xlink:title="General structure of a form for collecting input parameters of various nature.">
<polygon fill="white" stroke="black" points="217,-618 217,-637 363,-637 363,-618 217,-618"/>
<text text-anchor="middle" x="290" y="-625" font-family="Helvetica,sans-Serif" font-size="10.00">denoptim.gui.ParametersForm</text>
</a>
</g>
</g>
<!-- Node0&#45;&gt;Node1 -->
<g id="edge1" class="edge">
<title>Node0&#45;&gt;Node1</title>
<path fill="none" stroke="midnightblue" d="M159.37,-627.5C178.31,-627.5 198.25,-627.5 216.67,-627.5"/>
<polygon fill="midnightblue" stroke="midnightblue" points="159.27,-624 149.27,-627.5 159.27,-631 159.27,-624"/>
</g>
<!-- Node2 -->
<g id="node3" class="node">
<title>Node2</title>
<g id="a_node3"><a xlink:href="classdenoptim_1_1gui_1_1_f_s_e_parameters_form.html" target="_top" xlink:title="Form collecting input parameters for a combinatorial/virtual screening experiment performed by FragSp...">
<polygon fill="white" stroke="black" points="438,-552 438,-571 603,-571 603,-552 438,-552"/>
<text text-anchor="middle" x="520.5" y="-559" font-family="Helvetica,sans-Serif" font-size="10.00">denoptim.gui.FSEParametersForm</text>
</a>
</g>
</g>
<!-- Node1&#45;&gt;Node2 -->
<g id="edge2" class="edge">
<title>Node1&#45;&gt;Node2</title>
<path fill="none" stroke="midnightblue" d="M327.39,-614.49C355.48,-604.7 395.42,-591.34 431,-581.5 444.66,-577.72 459.66,-574.13 473.36,-571.05"/>
<polygon fill="midnightblue" stroke="midnightblue" points="325.89,-611.31 317.61,-617.92 328.2,-617.91 325.89,-611.31"/>
</g>
<!-- Node3 -->
<g id="node4" class="node">
<title>Node3</title>
<g id="a_node4"><a xlink:href="classdenoptim_1_1gui_1_1_f_s_parameters_form.html" target="_top" xlink:title="Form collecting input parameters for defining the fragment space.">
<polygon fill="white" stroke="black" points="441,-716 441,-735 600,-735 600,-716 441,-716"/>
<text text-anchor="middle" x="520.5" y="-723" font-family="Helvetica,sans-Serif" font-size="10.00">denoptim.gui.FSParametersForm</text>
</a>
</g>
</g>
<!-- Node1&#45;&gt;Node3 -->
<g id="edge3" class="edge">
<title>Node1&#45;&gt;Node3</title>
<path fill="none" stroke="midnightblue" d="M313.21,-642.85C339.98,-660.68 386.88,-689.76 431,-706.5 440.99,-710.29 451.92,-713.41 462.58,-715.94"/>
<polygon fill="midnightblue" stroke="midnightblue" points="314.86,-639.75 304.62,-637.06 310.95,-645.55 314.86,-639.75"/>
</g>
<!-- Node4 -->
<g id="node5" class="node">
<title>Node4</title>
<g id="a_node5"><a xlink:href="classdenoptim_1_1gui_1_1_fitness_parameters_form.html" target="_top" xlink:title="Form collecting input parameters for a setting&#45;up the fitness provider.">
<polygon fill="white" stroke="black" points="431,-678 431,-697 610,-697 610,-678 431,-678"/>
<text text-anchor="middle" x="520.5" y="-685" font-family="Helvetica,sans-Serif" font-size="10.00">denoptim.gui.FitnessParametersForm</text>
</a>
</g>
</g>
<!-- Node1&#45;&gt;Node4 -->
<g id="edge4" class="edge">
<title>Node1&#45;&gt;Node4</title>
<path fill="none" stroke="midnightblue" d="M330.92,-640.04C358.81,-648.59 397,-659.88 431,-668.5 444.25,-671.86 458.72,-675.13 472.04,-677.98"/>
<polygon fill="midnightblue" stroke="midnightblue" points="331.73,-636.62 321.14,-637.02 329.66,-643.31 331.73,-636.62"/>
</g>
<!-- Node5 -->
<g id="node6" class="node">
<title>Node5</title>
<g id="a_node6"><a xlink:href="classdenoptim_1_1gui_1_1_g_a_parameters_form.html" target="_top" xlink:title="Form collecting input parameters for a genetic algorithm experiment.">
<polygon fill="white" stroke="black" points="440,-640 440,-659 601,-659 601,-640 440,-640"/>
<text text-anchor="middle" x="520.5" y="-647" font-family="Helvetica,sans-Serif" font-size="10.00">denoptim.gui.GAParametersForm</text>
</a>
</g>
</g>
<!-- Node1&#45;&gt;Node5 -->
<g id="edge5" class="edge">
<title>Node1&#45;&gt;Node5</title>
<path fill="none" stroke="midnightblue" d="M373.42,-635.44C395.03,-637.52 418.28,-639.75 439.74,-641.82"/>
<polygon fill="midnightblue" stroke="midnightblue" points="373.59,-631.94 363.3,-634.46 372.92,-638.9 373.59,-631.94"/>
</g>
<!-- Node6 -->
<g id="node7" class="node">
<title>Node6</title>
<g id="a_node7"><a xlink:href="classdenoptim_1_1gui_1_1_g_u_i_prepare_fitness_runner_1_1_input_form.html" target="_top" xlink:title=" ">
<polygon fill="white" stroke="black" points="441.5,-590.5 441.5,-620.5 599.5,-620.5 599.5,-590.5 441.5,-590.5"/>
<text text-anchor="start" x="449.5" y="-608.5" font-family="Helvetica,sans-Serif" font-size="10.00">denoptim.gui.GUIPrepareFitness</text>
<text text-anchor="middle" x="520.5" y="-597.5" font-family="Helvetica,sans-Serif" font-size="10.00">Runner.InputForm</text>
</a>
</g>
</g>
<!-- Node1&#45;&gt;Node6 -->
<g id="edge6" class="edge">
<title>Node1&#45;&gt;Node6</title>
<path fill="none" stroke="midnightblue" d="M373.35,-619.57C395.51,-617.44 419.41,-615.14 441.34,-613.02"/>
<polygon fill="midnightblue" stroke="midnightblue" points="372.92,-616.1 363.3,-620.54 373.59,-623.06 372.92,-616.1"/>
</g>
<!-- Node7 -->
<g id="node8" class="node">
<title>Node7</title>
<g id="a_node8"><a xlink:title=" ">
<polygon fill="white" stroke="#bfbfbf" points="51,-246 51,-265 98,-265 98,-246 51,-246"/>
<text text-anchor="middle" x="74.5" y="-253" font-family="Helvetica,sans-Serif" font-size="10.00">JPanel</text>
</a>
</g>
</g>
<!-- Node7&#45;&gt;Node1 -->
<g id="edge28" class="edge">
<title>Node7&#45;&gt;Node1</title>
<path fill="none" stroke="midnightblue" d="M83.64,-274.49C100.67,-313.62 142.05,-405.68 185,-478.5 217.37,-533.39 263.41,-594.43 281.39,-617.73"/>
<polygon fill="midnightblue" stroke="midnightblue" points="86.77,-272.91 79.59,-265.12 80.34,-275.69 86.77,-272.91"/>
</g>
<!-- Node8 -->
<g id="node9" class="node">
<title>Node8</title>
<g id="a_node9"><a xlink:href="classdenoptim_1_1gui_1_1_buttons_bar.html" target="_top" xlink:title="Standardised horizontal bar with padded components, which are meant to be JButtons.">
<polygon fill="white" stroke="black" points="229,-148 229,-167 351,-167 351,-148 229,-148"/>
<text text-anchor="middle" x="290" y="-155" font-family="Helvetica,sans-Serif" font-size="10.00">denoptim.gui.ButtonsBar</text>
</a>
</g>
</g>
<!-- Node7&#45;&gt;Node8 -->
<g id="edge7" class="edge">
<title>Node7&#45;&gt;Node8</title>
<path fill="none" stroke="midnightblue" d="M92.95,-239.06C113.36,-220.79 148.99,-191.85 185,-176.5 198.68,-170.67 214.11,-166.63 228.82,-163.83"/>
<polygon fill="midnightblue" stroke="midnightblue" points="90.44,-236.61 85.41,-245.94 95.16,-241.78 90.44,-236.61"/>
</g>
<!-- Node9 -->
<g id="node10" class="node">
<title>Node9</title>
<g id="a_node10"><a xlink:href="classdenoptim_1_1gui_1_1_compatibility_matrix_form.html" target="_top" xlink:title=" ">
<polygon fill="white" stroke="black" points="225.5,-98.5 225.5,-128.5 354.5,-128.5 354.5,-98.5 225.5,-98.5"/>
<text text-anchor="start" x="233.5" y="-116.5" font-family="Helvetica,sans-Serif" font-size="10.00">denoptim.gui.Compatibility</text>
<text text-anchor="middle" x="290" y="-105.5" font-family="Helvetica,sans-Serif" font-size="10.00">MatrixForm</text>
</a>
</g>
</g>
<!-- Node7&#45;&gt;Node9 -->
<g id="edge8" class="edge">
<title>Node7&#45;&gt;Node9</title>
<path fill="none" stroke="midnightblue" d="M87.31,-237.31C105.21,-211.25 141.74,-163.68 185,-138.5 197.28,-131.35 211.5,-126.24 225.42,-122.6"/>
<polygon fill="midnightblue" stroke="midnightblue" points="84.24,-235.6 81.58,-245.85 90.05,-239.5 84.24,-235.6"/>
</g>
<!-- Node10 -->
<g id="node11" class="node">
<title>Node10</title>
<g id="a_node11"><a xlink:href="classdenoptim_1_1gui_1_1_compatibility_matrix_form_1_1_compat_rules_header.html" target="_top" xlink:title=" ">
<polygon fill="white" stroke="black" points="211,-49.5 211,-79.5 369,-79.5 369,-49.5 211,-49.5"/>
<text text-anchor="start" x="219" y="-67.5" font-family="Helvetica,sans-Serif" font-size="10.00">denoptim.gui.Compatibility</text>
<text text-anchor="middle" x="290" y="-56.5" font-family="Helvetica,sans-Serif" font-size="10.00">MatrixForm.CompatRulesHeader</text>
</a>
</g>
</g>
<!-- Node7&#45;&gt;Node10 -->
<g id="edge9" class="edge">
<title>Node7&#45;&gt;Node10</title>
<path fill="none" stroke="midnightblue" d="M82.54,-236.11C96.38,-200.86 130.61,-126.4 185,-88.5 192.83,-83.04 201.72,-78.81 210.92,-75.53"/>
<polygon fill="midnightblue" stroke="midnightblue" points="79.17,-235.12 78.9,-245.71 85.72,-237.6 79.17,-235.12"/>
</g>
<!-- Node11 -->
<g id="node12" class="node">
<title>Node11</title>
<g id="a_node12"><a xlink:href="classdenoptim_1_1gui_1_1_compatibility_matrix_form_1_1_compatibility_rule_line.html" target="_top" xlink:title="Single line in the list of APClass compatibility rules.">
<polygon fill="white" stroke="black" points="209.5,-438.5 209.5,-468.5 370.5,-468.5 370.5,-438.5 209.5,-438.5"/>
<text text-anchor="start" x="217.5" y="-456.5" font-family="Helvetica,sans-Serif" font-size="10.00">denoptim.gui.Compatibility</text>
<text text-anchor="middle" x="290" y="-445.5" font-family="Helvetica,sans-Serif" font-size="10.00">MatrixForm.CompatibilityRuleLine</text>
</a>
</g>
</g>
<!-- Node7&#45;&gt;Node11 -->
<g id="edge10" class="edge">
<title>Node7&#45;&gt;Node11</title>
<path fill="none" stroke="midnightblue" d="M82.18,-275.01C95.61,-311.23 129.47,-388.75 185,-428.5 192.4,-433.8 200.78,-437.98 209.49,-441.28"/>
<polygon fill="midnightblue" stroke="midnightblue" points="85.33,-273.42 78.66,-265.19 78.74,-275.78 85.33,-273.42"/>
</g>
<!-- Node13 -->
<g id="node13" class="node">
<title>Node13</title>
<g id="a_node13"><a xlink:href="classdenoptim_1_1gui_1_1_compatibility_matrix_form_1_1_target_a_p_class_token.html" target="_top" xlink:title=" ">
<polygon fill="white" stroke="black" points="209.5,-0.5 209.5,-30.5 370.5,-30.5 370.5,-0.5 209.5,-0.5"/>
<text text-anchor="start" x="217.5" y="-18.5" font-family="Helvetica,sans-Serif" font-size="10.00">denoptim.gui.Compatibility</text>
<text text-anchor="middle" x="290" y="-7.5" font-family="Helvetica,sans-Serif" font-size="10.00">MatrixForm.TargetAPClassToken</text>
</a>
</g>
</g>
<!-- Node7&#45;&gt;Node13 -->
<g id="edge11" class="edge">
<title>Node7&#45;&gt;Node13</title>
<path fill="none" stroke="midnightblue" d="M79.54,-235.94C89.44,-193.19 119.05,-91.13 185,-39.5 192.22,-33.85 200.54,-29.48 209.26,-26.12"/>
<polygon fill="midnightblue" stroke="midnightblue" points="76.08,-235.39 77.35,-245.9 82.92,-236.89 76.08,-235.39"/>
</g>
<!-- Node14 -->
<g id="node14" class="node">
<title>Node14</title>
<g id="a_node14"><a xlink:href="classdenoptim_1_1gui_1_1_g_u_i_card_panel.html" target="_top" xlink:title="Class of GUI panels meant to occupy one card in the deck&#45;of&#45;cards layout of the main panel.">
<polygon fill="white" stroke="black" points="221.5,-400 221.5,-419 358.5,-419 358.5,-400 221.5,-400"/>
<text text-anchor="middle" x="290" y="-407" font-family="Helvetica,sans-Serif" font-size="10.00">denoptim.gui.GUICardPanel</text>
</a>
</g>
</g>
<!-- Node7&#45;&gt;Node14 -->
<g id="edge12" class="edge">
<title>Node7&#45;&gt;Node14</title>
<path fill="none" stroke="midnightblue" d="M85.06,-274.1C101.31,-303.68 137.25,-361.02 185,-389.5 195.97,-396.05 208.66,-400.51 221.31,-403.54"/>
<polygon fill="midnightblue" stroke="midnightblue" points="88.11,-272.38 80.32,-265.21 81.94,-275.68 88.11,-272.38"/>
</g>
<!-- Node26 -->
<g id="node26" class="node">
<title>Node26</title>
<g id="a_node26"><a xlink:href="classdenoptim_1_1gui_1_1_g_u_i_graph_handler_1_1_config_template_dialog_1_1_template_configuration.html" target="_top" xlink:title="Utility class for a form to configure a template via the GUI.">
<polygon fill="white" stroke="black" points="185,-350.5 185,-380.5 395,-380.5 395,-350.5 185,-350.5"/>
<text text-anchor="start" x="193" y="-368.5" font-family="Helvetica,sans-Serif" font-size="10.00">denoptim.gui.GUIGraphHandler.</text>
<text text-anchor="middle" x="290" y="-357.5" font-family="Helvetica,sans-Serif" font-size="10.00">ConfigTemplateDialog.TemplateConfiguration</text>
</a>
</g>
</g>
<!-- Node7&#45;&gt;Node26 -->
<g id="edge24" class="edge">
<title>Node7&#45;&gt;Node26</title>
<path fill="none" stroke="midnightblue" d="M92.23,-272.26C112.47,-291.58 148.4,-322.91 185,-340.5 193.03,-344.36 201.71,-347.65 210.51,-350.45"/>
<polygon fill="midnightblue" stroke="midnightblue" points="94.41,-269.49 84.8,-265.03 89.53,-274.51 94.41,-269.49"/>
</g>
<!-- Node27 -->
<g id="node27" class="node">
<title>Node27</title>
<g id="a_node27"><a xlink:href="classdenoptim_1_1gui_1_1_g_u_i_main_panel.html" target="_top" xlink:title="The main panel is a deck of cards that occupies all the GUI frame.">
<polygon fill="white" stroke="black" points="221.5,-312 221.5,-331 358.5,-331 358.5,-312 221.5,-312"/>
<text text-anchor="middle" x="290" y="-319" font-family="Helvetica,sans-Serif" font-size="10.00">denoptim.gui.GUIMainPanel</text>
</a>
</g>
</g>
<!-- Node7&#45;&gt;Node27 -->
<g id="edge25" class="edge">
<title>Node7&#45;&gt;Node27</title>
<path fill="none" stroke="midnightblue" d="M104.13,-269.47C125.88,-279.59 156.76,-292.95 185,-301.5 198.73,-305.65 213.74,-309.13 227.99,-311.96"/>
<polygon fill="midnightblue" stroke="midnightblue" points="105.36,-266.18 94.83,-265.07 102.38,-272.51 105.36,-266.18"/>
</g>
<!-- Node28 -->
<g id="node28" class="node">
<title>Node28</title>
<g id="a_node28"><a xlink:href="classdenoptim_1_1gui_1_1_graph_viewer_panel.html" target="_top" xlink:title="A Panel that holds the JUNG representation of a graph.">
<polygon fill="white" stroke="black" points="225,-262.5 225,-292.5 355,-292.5 355,-262.5 225,-262.5"/>
<text text-anchor="start" x="233" y="-280.5" font-family="Helvetica,sans-Serif" font-size="10.00">denoptim.gui.GraphViewer</text>
<text text-anchor="middle" x="290" y="-269.5" font-family="Helvetica,sans-Serif" font-size="10.00">Panel</text>
</a>
</g>
</g>
<!-- Node7&#45;&gt;Node28 -->
<g id="edge26" class="edge">
<title>Node7&#45;&gt;Node28</title>
<path fill="none" stroke="midnightblue" d="M108.56,-258.91C139.45,-262.09 186.4,-266.93 224.67,-270.87"/>
<polygon fill="midnightblue" stroke="midnightblue" points="108.65,-255.4 98.35,-257.85 107.94,-262.36 108.65,-255.4"/>
</g>
<!-- Node29 -->
<g id="node29" class="node">
<title>Node29</title>
<g id="a_node29"><a xlink:href="classdenoptim_1_1gui_1_1_jmol_panel.html" target="_top" xlink:title=" ">
<polygon fill="white" stroke="black" points="230.5,-224 230.5,-243 349.5,-243 349.5,-224 230.5,-224"/>
<text text-anchor="middle" x="290" y="-231" font-family="Helvetica,sans-Serif" font-size="10.00">denoptim.gui.JmolPanel</text>
</a>
</g>
</g>
<!-- Node7&#45;&gt;Node29 -->
<g id="edge27" class="edge">
<title>Node7&#45;&gt;Node29</title>
<path fill="none" stroke="midnightblue" d="M108.61,-252.09C140.99,-248.75 190.99,-243.6 230.15,-239.56"/>
<polygon fill="midnightblue" stroke="midnightblue" points="107.94,-248.64 98.35,-253.15 108.65,-255.6 107.94,-248.64"/>
</g>
<!-- Node30 -->
<g id="node30" class="node">
<title>Node30</title>
<g id="a_node30"><a xlink:href="classdenoptim_1_1gui_1_1_vertex_view_panel.html" target="_top" xlink:title="A panel for visualizing vertices.">
<polygon fill="white" stroke="black" points="216,-186 216,-205 364,-205 364,-186 216,-186"/>
<text text-anchor="middle" x="290" y="-193" font-family="Helvetica,sans-Serif" font-size="10.00">denoptim.gui.VertexViewPanel</text>
</a>
</g>
</g>
<!-- Node7&#45;&gt;Node30 -->
<g id="edge29" class="edge">
<title>Node7&#45;&gt;Node30</title>
<path fill="none" stroke="midnightblue" d="M107.1,-241.96C128.71,-233.13 158.19,-221.9 185,-214.5 198.36,-210.81 212.88,-207.64 226.72,-205.01"/>
<polygon fill="midnightblue" stroke="midnightblue" points="105.66,-238.77 97.76,-245.83 108.34,-245.24 105.66,-238.77"/>
</g>
<!-- Node15 -->
<g id="node15" class="node">
<title>Node15</title>
<g id="a_node15"><a xlink:href="classdenoptim_1_1gui_1_1_g_u_i_compatibility_matrix_tab.html" target="_top" xlink:title="A panel for handling of compatibility matrix.">
<polygon fill="white" stroke="black" points="447,-236.5 447,-266.5 594,-266.5 594,-236.5 447,-236.5"/>
<text text-anchor="start" x="455" y="-254.5" font-family="Helvetica,sans-Serif" font-size="10.00">denoptim.gui.GUICompatibility</text>
<text text-anchor="middle" x="520.5" y="-243.5" font-family="Helvetica,sans-Serif" font-size="10.00">MatrixTab</text>
</a>
</g>
</g>
<!-- Node14&#45;&gt;Node15 -->
<g id="edge13" class="edge">
<title>Node14&#45;&gt;Node15</title>
<path fill="none" stroke="midnightblue" d="M368.41,-404.38C378.16,-401.05 387.37,-396.28 395,-389.5 434.41,-354.5 393.12,-313.15 431,-276.5 435.59,-272.06 440.91,-268.4 446.61,-265.38"/>
<polygon fill="midnightblue" stroke="midnightblue" points="367.16,-401.1 358.53,-407.25 369.11,-407.82 367.16,-401.1"/>
</g>
<!-- Node16 -->
<g id="node16" class="node">
<title>Node16</title>
<g id="a_node16"><a xlink:href="classdenoptim_1_1gui_1_1_g_u_i_graph_handler.html" target="_top" xlink:title="A panel that understands DENOPTIM graphs and allows to create and edit them.">
<polygon fill="white" stroke="black" points="444.5,-514 444.5,-533 596.5,-533 596.5,-514 444.5,-514"/>
<text text-anchor="middle" x="520.5" y="-521" font-family="Helvetica,sans-Serif" font-size="10.00">denoptim.gui.GUIGraphHandler</text>
</a>
</g>
</g>
<!-- Node14&#45;&gt;Node16 -->
<g id="edge14" class="edge">
<title>Node14&#45;&gt;Node16</title>
<path fill="none" stroke="midnightblue" d="M368.38,-415.88C377.96,-419.05 387.14,-423.44 395,-429.5 424.29,-452.07 401.96,-481.62 431,-504.5 435.81,-508.29 441.21,-511.37 446.91,-513.87"/>
<polygon fill="midnightblue" stroke="midnightblue" points="369.27,-412.5 358.7,-413.12 367.35,-419.23 369.27,-412.5"/>
</g>
<!-- Node17 -->
<g id="node17" class="node">
<title>Node17</title>
<g id="a_node17"><a xlink:href="classdenoptim_1_1gui_1_1_g_u_i_inspect_f_s_e_run.html" target="_top" xlink:title="A panel that allows to inspect the output of an combinatorial experiment exploring a fragment space.">
<polygon fill="white" stroke="black" points="440.5,-476 440.5,-495 600.5,-495 600.5,-476 440.5,-476"/>
<text text-anchor="middle" x="520.5" y="-483" font-family="Helvetica,sans-Serif" font-size="10.00">denoptim.gui.GUIInspectFSERun</text>
</a>
</g>
</g>
<!-- Node14&#45;&gt;Node17 -->
<g id="edge15" class="edge">
<title>Node14&#45;&gt;Node17</title>
<path fill="none" stroke="midnightblue" d="M368.27,-418.84C377.58,-421.55 386.71,-425.03 395,-429.5 415.19,-440.39 410.92,-455.39 431,-466.5 438.01,-470.38 445.74,-473.47 453.63,-475.92"/>
<polygon fill="midnightblue" stroke="midnightblue" points="369.09,-415.44 358.53,-416.29 367.32,-422.21 369.09,-415.44"/>
</g>
<!-- Node18 -->
<g id="node18" class="node">
<title>Node18</title>
<g id="a_node18"><a xlink:href="classdenoptim_1_1gui_1_1_g_u_i_inspect_g_a_run.html" target="_top" xlink:title="A panel that allows to inspect the output of an artificial evolution experiment.">
<polygon fill="white" stroke="black" points="443,-438 443,-457 598,-457 598,-438 443,-438"/>
<text text-anchor="middle" x="520.5" y="-445" font-family="Helvetica,sans-Serif" font-size="10.00">denoptim.gui.GUIInspectGARun</text>
</a>
</g>
</g>
<!-- Node14&#45;&gt;Node18 -->
<g id="edge16" class="edge">
<title>Node14&#45;&gt;Node18</title>
<path fill="none" stroke="midnightblue" d="M358.38,-420.7C391.34,-426.19 430.6,-432.72 462.11,-437.96"/>
<polygon fill="midnightblue" stroke="midnightblue" points="358.8,-417.23 348.37,-419.04 357.66,-424.13 358.8,-417.23"/>
</g>
<!-- Node19 -->
<g id="node19" class="node">
<title>Node19</title>
<g id="a_node19"><a xlink:href="classdenoptim_1_1gui_1_1_g_u_i_prepare.html" target="_top" xlink:title="Class representing the general structure of a form including a specific set of parameter collections.">
<polygon fill="white" stroke="black" points="458,-400 458,-419 583,-419 583,-400 458,-400"/>
<text text-anchor="middle" x="520.5" y="-407" font-family="Helvetica,sans-Serif" font-size="10.00">denoptim.gui.GUIPrepare</text>
</a>
</g>
</g>
<!-- Node14&#45;&gt;Node19 -->
<g id="edge17" class="edge">
<title>Node14&#45;&gt;Node19</title>
<path fill="none" stroke="midnightblue" d="M368.76,-409.5C397.85,-409.5 430.46,-409.5 457.89,-409.5"/>
<polygon fill="midnightblue" stroke="midnightblue" points="368.63,-406 358.63,-409.5 368.63,-413 368.63,-406"/>
</g>
<!-- Node23 -->
<g id="node23" class="node">
<title>Node23</title>
<g id="a_node23"><a xlink:href="classdenoptim_1_1gui_1_1_g_u_i_text_reader.html" target="_top" xlink:title="A panel that allows to print the content of a text file into a GUI tab.">
<polygon fill="white" stroke="black" points="450,-362 450,-381 591,-381 591,-362 450,-362"/>
<text text-anchor="middle" x="520.5" y="-369" font-family="Helvetica,sans-Serif" font-size="10.00">denoptim.gui.GUITextReader</text>
</a>
</g>
</g>
<!-- Node14&#45;&gt;Node23 -->
<g id="edge21" class="edge">
<title>Node14&#45;&gt;Node23</title>
<path fill="none" stroke="midnightblue" d="M358.38,-398.3C391.34,-392.81 430.6,-386.28 462.11,-381.04"/>
<polygon fill="midnightblue" stroke="midnightblue" points="357.66,-394.87 348.37,-399.96 358.8,-401.77 357.66,-394.87"/>
</g>
<!-- Node24 -->
<g id="node24" class="node">
<title>Node24</title>
<g id="a_node24"><a xlink:href="classdenoptim_1_1gui_1_1_g_u_i_vertex_inspector.html" target="_top" xlink:title="A panel with a viewer capable of visualising DENOPTIM fragments and allows to create and edit fragmen...">
<polygon fill="white" stroke="black" points="440.5,-324 440.5,-343 600.5,-343 600.5,-324 440.5,-324"/>
<text text-anchor="middle" x="520.5" y="-331" font-family="Helvetica,sans-Serif" font-size="10.00">denoptim.gui.GUIVertexInspector</text>
</a>
</g>
</g>
<!-- Node14&#45;&gt;Node24 -->
<g id="edge22" class="edge">
<title>Node14&#45;&gt;Node24</title>
<path fill="none" stroke="midnightblue" d="M368.27,-400.16C377.58,-397.45 386.71,-393.97 395,-389.5 415.19,-378.61 410.92,-363.61 431,-352.5 438.01,-348.62 445.74,-345.53 453.63,-343.08"/>
<polygon fill="midnightblue" stroke="midnightblue" points="367.32,-396.79 358.53,-402.71 369.09,-403.56 367.32,-396.79"/>
</g>
<!-- Node25 -->
<g id="node25" class="node">
<title>Node25</title>
<g id="a_node25"><a xlink:href="classdenoptim_1_1gui_1_1_home_panel.html" target="_top" xlink:title="The home panel contains shortcuts buttons to perform the most common tasks.">
<polygon fill="white" stroke="black" points="458,-286 458,-305 583,-305 583,-286 458,-286"/>
<text text-anchor="middle" x="520.5" y="-293" font-family="Helvetica,sans-Serif" font-size="10.00">denoptim.gui.HomePanel</text>
</a>
</g>
</g>
<!-- Node14&#45;&gt;Node25 -->
<g id="edge23" class="edge">
<title>Node14&#45;&gt;Node25</title>
<path fill="none" stroke="midnightblue" d="M368.38,-403.12C377.96,-399.95 387.14,-395.56 395,-389.5 424.29,-366.93 401.96,-337.38 431,-314.5 438.78,-308.37 448.08,-304.11 457.7,-301.17"/>
<polygon fill="midnightblue" stroke="midnightblue" points="367.35,-399.77 358.7,-405.88 369.27,-406.5 367.35,-399.77"/>
</g>
<!-- Node20 -->
<g id="node20" class="node">
<title>Node20</title>
<g id="a_node20"><a xlink:href="classdenoptim_1_1gui_1_1_g_u_i_prepare_f_s_e_run.html" target="_top" xlink:title="Master form containing all sub&#45;forms that need to be filled to define the input parameters for FragSp...">
<polygon fill="white" stroke="black" points="646,-444 646,-463 807,-463 807,-444 646,-444"/>
<text text-anchor="middle" x="726.5" y="-451" font-family="Helvetica,sans-Serif" font-size="10.00">denoptim.gui.GUIPrepareFSERun</text>
</a>
</g>
</g>
<!-- Node19&#45;&gt;Node20 -->
<g id="edge18" class="edge">
<title>Node19&#45;&gt;Node20</title>
<path fill="none" stroke="midnightblue" d="M576.17,-421.22C587.36,-423.63 599.06,-426.14 610,-428.5 633.67,-433.6 660.05,-439.31 681.63,-443.99"/>
<polygon fill="midnightblue" stroke="midnightblue" points="576.58,-417.73 566.07,-419.05 575.11,-424.58 576.58,-417.73"/>
</g>
<!-- Node21 -->
<g id="node21" class="node">
<title>Node21</title>
<g id="a_node21"><a xlink:href="classdenoptim_1_1gui_1_1_g_u_i_prepare_fitness_runner.html" target="_top" xlink:title="Form that allows to test the configuration of a fitness provider.">
<polygon fill="white" stroke="black" points="647.5,-394.5 647.5,-424.5 805.5,-424.5 805.5,-394.5 647.5,-394.5"/>
<text text-anchor="start" x="655.5" y="-412.5" font-family="Helvetica,sans-Serif" font-size="10.00">denoptim.gui.GUIPrepareFitness</text>
<text text-anchor="middle" x="726.5" y="-401.5" font-family="Helvetica,sans-Serif" font-size="10.00">Runner</text>
</a>
</g>
</g>
<!-- Node19&#45;&gt;Node21 -->
<g id="edge19" class="edge">
<title>Node19&#45;&gt;Node21</title>
<path fill="none" stroke="midnightblue" d="M593.37,-409.5C610.83,-409.5 629.58,-409.5 647.32,-409.5"/>
<polygon fill="midnightblue" stroke="midnightblue" points="593.26,-406 583.26,-409.5 593.26,-413 593.26,-406"/>
</g>
<!-- Node22 -->
<g id="node22" class="node">
<title>Node22</title>
<g id="a_node22"><a xlink:href="classdenoptim_1_1gui_1_1_g_u_i_prepare_g_a_run.html" target="_top" xlink:title="Master form containing all sub&#45;forms that need to be filled to define the input parameters for Denopt...">
<polygon fill="white" stroke="black" points="648,-356 648,-375 805,-375 805,-356 648,-356"/>
<text text-anchor="middle" x="726.5" y="-363" font-family="Helvetica,sans-Serif" font-size="10.00">denoptim.gui.GUIPrepareGARun</text>
</a>
</g>
</g>
<!-- Node19&#45;&gt;Node22 -->
<g id="edge20" class="edge">
<title>Node19&#45;&gt;Node22</title>
<path fill="none" stroke="midnightblue" d="M576.17,-397.78C587.36,-395.37 599.06,-392.86 610,-390.5 633.67,-385.4 660.05,-379.69 681.63,-375.01"/>
<polygon fill="midnightblue" stroke="midnightblue" points="575.11,-394.42 566.07,-399.95 576.58,-401.27 575.11,-394.42"/>
</g>
<!-- Node12 -->
<g id="node31" class="node">
<title>Node12</title>
<g id="a_node31"><a xlink:title=" ">
<polygon fill="white" stroke="#bfbfbf" points="34,-444 34,-463 115,-463 115,-444 34,-444"/>
<text text-anchor="middle" x="74.5" y="-451" font-family="Helvetica,sans-Serif" font-size="10.00">MouseListener</text>
</a>
</g>
</g>
<!-- Node12&#45;&gt;Node11 -->
<g id="edge30" class="edge">
<title>Node12&#45;&gt;Node11</title>
<path fill="none" stroke="midnightblue" d="M125.47,-453.5C150.42,-453.5 181.2,-453.5 209.31,-453.5"/>
<polygon fill="midnightblue" stroke="midnightblue" points="125.16,-450 115.16,-453.5 125.16,-457 125.16,-450"/>
</g>
</g>
</svg>
