<?xml version="1.0" encoding="UTF-8" standalone="no"?>
<!DOCTYPE svg PUBLIC "-//W3C//DTD SVG 1.1//EN"
 "http://www.w3.org/Graphics/SVG/1.1/DTD/svg11.dtd">
<!-- Generated by graphviz version 3.0.0 (20220413.0242)
 -->
<!-- Title: Graphical Class Hierarchy Pages: 1 -->
<svg width="342pt" height="186pt"
 viewBox="0.00 0.00 342.00 186.00" xmlns="http://www.w3.org/2000/svg" xmlns:xlink="http://www.w3.org/1999/xlink">
<g id="graph0" class="graph" transform="scale(1 1) rotate(0) translate(4 182)">
<title>Graphical Class Hierarchy</title>
<polygon fill="white" stroke="transparent" points="-4,4 -4,-182 338,-182 338,4 -4,4"/>
<!-- Node0 -->
<g id="node1" class="node">
<title>Node0</title>
<g id="a_node1"><a xlink:href="interfacedenoptim_1_1gui_1_1_i_vertex_a_p_selection.html" target="_top" xlink:title="Interface for all vertex viewers that intend to allow selection of attachment points.">
<polygon fill="white" stroke="black" points="0,-125 0,-144 158,-144 158,-125 0,-125"/>
<text text-anchor="middle" x="79" y="-132" font-family="Helvetica,sans-Serif" font-size="10.00">denoptim.gui.IVertexAPSelection</text>
</a>
</g>
</g>
<!-- Node1 -->
<g id="node2" class="node">
<title>Node1</title>
<g id="a_node2"><a xlink:href="classdenoptim_1_1gui_1_1_fragment_view_panel.html" target="_top" xlink:title="A panel with a molecular viewer and attachment point table.">
<polygon fill="white" stroke="black" points="195.5,-147.5 195.5,-177.5 332.5,-177.5 332.5,-147.5 195.5,-147.5"/>
<text text-anchor="start" x="203.5" y="-165.5" font-family="Helvetica,sans-Serif" font-size="10.00">denoptim.gui.FragmentView</text>
<text text-anchor="middle" x="264" y="-154.5" font-family="Helvetica,sans-Serif" font-size="10.00">Panel</text>
</a>
</g>
</g>
<!-- Node0&#45;&gt;Node1 -->
<g id="edge1" class="edge">
<title>Node0&#45;&gt;Node1</title>
<path fill="none" stroke="midnightblue" d="M152.38,-145.57C166.53,-147.74 181.33,-150 195.32,-152.14"/>
<polygon fill="midnightblue" stroke="midnightblue" points="152.63,-142.07 142.21,-144.02 151.57,-148.99 152.63,-142.07"/>
</g>
<!-- Node5 -->
<g id="node3" class="node">
<title>Node5</title>
<g id="a_node3"><a xlink:href="classdenoptim_1_1gui_1_1_vertex_as_graph_view_panel.html" target="_top" xlink:title="A panel to visualize a vertex as a graph component with attachment point table.">
<polygon fill="white" stroke="black" points="194,-98.5 194,-128.5 334,-128.5 334,-98.5 194,-98.5"/>
<text text-anchor="start" x="202" y="-116.5" font-family="Helvetica,sans-Serif" font-size="10.00">denoptim.gui.VertexAsGraph</text>
<text text-anchor="middle" x="264" y="-105.5" font-family="Helvetica,sans-Serif" font-size="10.00">ViewPanel</text>
</a>
</g>
</g>
<!-- Node0&#45;&gt;Node5 -->
<g id="edge2" class="edge">
<title>Node0&#45;&gt;Node5</title>
<path fill="none" stroke="midnightblue" d="M168.19,-124.38C176.79,-123.39 185.42,-122.4 193.79,-121.44"/>
<polygon fill="midnightblue" stroke="midnightblue" points="167.68,-120.92 158.14,-125.53 168.47,-127.87 167.68,-120.92"/>
</g>
<!-- Node2 -->
<g id="node4" class="node">
<title>Node2</title>
<g id="a_node4"><a xlink:title=" ">
<polygon fill="white" stroke="#bfbfbf" points="47,-82 47,-101 111,-101 111,-82 47,-82"/>
<text text-anchor="middle" x="79" y="-89" font-family="Helvetica,sans-Serif" font-size="10.00">JSplitPane</text>
</a>
</g>
</g>
<!-- Node2&#45;&gt;Node1 -->
<g id="edge3" class="edge">
<title>Node2&#45;&gt;Node1</title>
<path fill="none" stroke="midnightblue" d="M121.01,-101.85C133.17,-105.52 146.35,-110.11 158,-115.5 175.23,-123.48 176.92,-130.21 194,-138.5 200.62,-141.71 207.78,-144.7 214.9,-147.4"/>
<polygon fill="midnightblue" stroke="midnightblue" points="121.67,-98.4 111.09,-98.99 119.72,-105.13 121.67,-98.4"/>
</g>
<!-- Node2&#45;&gt;Node5 -->
<g id="edge6" class="edge">
<title>Node2&#45;&gt;Node5</title>
<path fill="none" stroke="midnightblue" d="M121.09,-96.44C142.5,-99.01 169.27,-102.23 193.76,-105.18"/>
<polygon fill="midnightblue" stroke="midnightblue" points="121.39,-92.95 111.04,-95.23 120.55,-99.9 121.39,-92.95"/>
</g>
<!-- Node3 -->
<g id="node5" class="node">
<title>Node3</title>
<g id="a_node5"><a xlink:href="classdenoptim_1_1gui_1_1_graph_vertex_mol_viewer_panel.html" target="_top" xlink:title="A panel that collects three viewers:">
<polygon fill="white" stroke="black" points="200,-49.5 200,-79.5 328,-79.5 328,-49.5 200,-49.5"/>
<text text-anchor="start" x="208" y="-67.5" font-family="Helvetica,sans-Serif" font-size="10.00">denoptim.gui.GraphVertex</text>
<text text-anchor="middle" x="264" y="-56.5" font-family="Helvetica,sans-Serif" font-size="10.00">MolViewerPanel</text>
</a>
</g>
</g>
<!-- Node2&#45;&gt;Node3 -->
<g id="edge4" class="edge">
<title>Node2&#45;&gt;Node3</title>
<path fill="none" stroke="midnightblue" d="M121.22,-85.42C144.41,-82 173.84,-77.65 199.87,-73.81"/>
<polygon fill="midnightblue" stroke="midnightblue" points="120.43,-82 111.04,-86.92 121.45,-88.92 120.43,-82"/>
</g>
<!-- Node4 -->
<g id="node6" class="node">
<title>Node4</title>
<g id="a_node6"><a xlink:href="classdenoptim_1_1gui_1_1_molecule_view_panel.html" target="_top" xlink:title="A panel with a molecular viewer and data table.">
<polygon fill="white" stroke="black" points="197,-0.5 197,-30.5 331,-30.5 331,-0.5 197,-0.5"/>
<text text-anchor="start" x="205" y="-18.5" font-family="Helvetica,sans-Serif" font-size="10.00">denoptim.gui.MoleculeView</text>
<text text-anchor="middle" x="264" y="-7.5" font-family="Helvetica,sans-Serif" font-size="10.00">Panel</text>
</a>
</g>
</g>
<!-- Node2&#45;&gt;Node4 -->
<g id="edge5" class="edge">
<title>Node2&#45;&gt;Node4</title>
<path fill="none" stroke="midnightblue" d="M109.57,-77.56C132.43,-66.95 164.98,-52.23 194,-40.5 202.27,-37.16 211.17,-33.77 219.75,-30.62"/>
<polygon fill="midnightblue" stroke="midnightblue" points="107.99,-74.43 100.4,-81.83 110.94,-80.78 107.99,-74.43"/>
</g>
</g>
</svg>
