<?xml version="1.0" encoding="UTF-8" standalone="no"?>
<!DOCTYPE svg PUBLIC "-//W3C//DTD SVG 1.1//EN"
 "http://www.w3.org/Graphics/SVG/1.1/DTD/svg11.dtd">
<!-- Generated by graphviz version 3.0.0 (20220413.0242)
 -->
<!-- Title: Graphical Class Hierarchy Pages: 1 -->
<svg width="460pt" height="579pt"
 viewBox="0.00 0.00 460.00 579.00" xmlns="http://www.w3.org/2000/svg" xmlns:xlink="http://www.w3.org/1999/xlink">
<g id="graph0" class="graph" transform="scale(1 1) rotate(0) translate(4 575)">
<title>Graphical Class Hierarchy</title>
<polygon fill="white" stroke="transparent" points="-4,4 -4,-575 456,-575 456,4 -4,4"/>
<!-- Node0 -->
<g id="node1" class="node">
<title>Node0</title>
<g id="a_node1"><a xlink:title=" ">
<polygon fill="white" stroke="#bfbfbf" points="14.5,-280.5 14.5,-299.5 73.5,-299.5 73.5,-280.5 14.5,-280.5"/>
<text text-anchor="middle" x="44" y="-287.5" font-family="Helvetica,sans-Serif" font-size="10.00">Cloneable</text>
</a>
</g>
</g>
<!-- Node1 -->
<g id="node2" class="node">
<title>Node1</title>
<g id="a_node2"><a xlink:href="classdenoptim_1_1ga_1_1_population.html" target="_top" xlink:title="A collection of candidates.">
<polygon fill="white" stroke="black" points="141.5,-551.5 141.5,-570.5 258.5,-570.5 258.5,-551.5 141.5,-551.5"/>
<text text-anchor="middle" x="200" y="-558.5" font-family="Helvetica,sans-Serif" font-size="10.00">denoptim.ga.Population</text>
</a>
</g>
</g>
<!-- Node0&#45;&gt;Node1 -->
<g id="edge1" class="edge">
<title>Node0&#45;&gt;Node1</title>
<path fill="none" stroke="midnightblue" d="M49.94,-309.51C64.37,-365.77 106.47,-525.42 124,-542 128.98,-546.71 134.95,-550.29 141.32,-553.02"/>
<polygon fill="midnightblue" stroke="midnightblue" points="53.31,-308.53 47.44,-299.7 46.52,-310.26 53.31,-308.53"/>
</g>
<!-- Node3 -->
<g id="node3" class="node">
<title>Node3</title>
<g id="a_node3"><a xlink:href="classdenoptim_1_1ga_1_1_xover_site.html" target="_top" xlink:title="This class collects the data identifying the subgraphs that would be swapped by a crossover event.">
<polygon fill="white" stroke="black" points="143,-114.5 143,-133.5 257,-133.5 257,-114.5 143,-114.5"/>
<text text-anchor="middle" x="200" y="-121.5" font-family="Helvetica,sans-Serif" font-size="10.00">denoptim.ga.XoverSite</text>
</a>
</g>
</g>
<!-- Node0&#45;&gt;Node3 -->
<g id="edge2" class="edge">
<title>Node0&#45;&gt;Node3</title>
<path fill="none" stroke="midnightblue" d="M50.04,-270.7C59.26,-239.27 81.89,-177.2 124,-144 129.61,-139.58 136.11,-136.13 142.89,-133.44"/>
<polygon fill="midnightblue" stroke="midnightblue" points="46.64,-269.87 47.33,-280.44 53.38,-271.75 46.64,-269.87"/>
</g>
<!-- Node4 -->
<g id="node4" class="node">
<title>Node4</title>
<g id="a_node4"><a xlink:href="classdenoptim_1_1graph_1_1_a_p_class.html" target="_top" xlink:title=" ">
<polygon fill="white" stroke="black" points="138.5,-513.5 138.5,-532.5 261.5,-532.5 261.5,-513.5 138.5,-513.5"/>
<text text-anchor="middle" x="200" y="-520.5" font-family="Helvetica,sans-Serif" font-size="10.00">denoptim.graph.APClass</text>
</a>
</g>
</g>
<!-- Node0&#45;&gt;Node4 -->
<g id="edge3" class="edge">
<title>Node0&#45;&gt;Node4</title>
<path fill="none" stroke="midnightblue" d="M46.36,-309.99C50.35,-352.36 65.75,-451.59 124,-504 128.29,-507.86 133.26,-510.96 138.55,-513.45"/>
<polygon fill="midnightblue" stroke="midnightblue" points="49.83,-309.53 45.53,-299.85 42.86,-310.1 49.83,-309.53"/>
</g>
<!-- Node8 -->
<g id="node5" class="node">
<title>Node8</title>
<g id="a_node5"><a xlink:href="classdenoptim_1_1graph_1_1_a_p_mapping.html" target="_top" xlink:title="Class representing a mapping between attachment points (APs).">
<polygon fill="white" stroke="black" points="132.5,-0.5 132.5,-19.5 267.5,-19.5 267.5,-0.5 132.5,-0.5"/>
<text text-anchor="middle" x="200" y="-7.5" font-family="Helvetica,sans-Serif" font-size="10.00">denoptim.graph.APMapping</text>
</a>
</g>
</g>
<!-- Node0&#45;&gt;Node8 -->
<g id="edge4" class="edge">
<title>Node0&#45;&gt;Node8</title>
<path fill="none" stroke="midnightblue" d="M44.81,-270.42C45.45,-222.01 54.12,-95.75 124,-29 127.98,-25.2 132.61,-22.12 137.58,-19.64"/>
<polygon fill="midnightblue" stroke="midnightblue" points="41.31,-270.49 44.78,-280.49 48.31,-270.5 41.31,-270.49"/>
</g>
<!-- Node6 -->
<g id="node6" class="node">
<title>Node6</title>
<g id="a_node6"><a xlink:href="classdenoptim_1_1graph_1_1_attachment_point.html" target="_top" xlink:title="An attachment point (AP) is a possibility to attach a Vertex onto the vertex holding the AP (i....">
<polygon fill="white" stroke="black" points="132.5,-464 132.5,-494 267.5,-494 267.5,-464 132.5,-464"/>
<text text-anchor="start" x="140.5" y="-482" font-family="Helvetica,sans-Serif" font-size="10.00">denoptim.graph.Attachment</text>
<text text-anchor="middle" x="200" y="-471" font-family="Helvetica,sans-Serif" font-size="10.00">Point</text>
</a>
</g>
</g>
<!-- Node0&#45;&gt;Node6 -->
<g id="edge5" class="edge">
<title>Node0&#45;&gt;Node6</title>
<path fill="none" stroke="midnightblue" d="M49.23,-309.89C57.55,-344.2 79.24,-414.6 124,-454 128.43,-457.9 133.49,-461.19 138.84,-463.98"/>
<polygon fill="midnightblue" stroke="midnightblue" points="52.55,-308.7 46.91,-299.73 45.73,-310.26 52.55,-308.7"/>
</g>
<!-- Node7 -->
<g id="node7" class="node">
<title>Node7</title>
<g id="a_node7"><a xlink:href="classdenoptim_1_1graph_1_1_candidate.html" target="_top" xlink:title="A candidate is the combination of a denoptim graph with molecular representation and may include also...">
<polygon fill="white" stroke="black" points="136,-425.5 136,-444.5 264,-444.5 264,-425.5 136,-425.5"/>
<text text-anchor="middle" x="200" y="-432.5" font-family="Helvetica,sans-Serif" font-size="10.00">denoptim.graph.Candidate</text>
</a>
</g>
</g>
<!-- Node0&#45;&gt;Node7 -->
<g id="edge6" class="edge">
<title>Node0&#45;&gt;Node7</title>
<path fill="none" stroke="midnightblue" d="M51.66,-309.07C62.4,-336.96 86.25,-388.51 124,-416 129.32,-419.87 135.35,-422.96 141.63,-425.42"/>
<polygon fill="midnightblue" stroke="midnightblue" points="54.93,-307.82 48.18,-299.65 48.36,-310.24 54.93,-307.82"/>
</g>
<!-- Node10 -->
<g id="node8" class="node">
<title>Node10</title>
<g id="a_node8"><a xlink:href="classdenoptim_1_1graph_1_1_d_graph.html" target="_top" xlink:title="Container for the list of vertices and the edges that connect them.">
<polygon fill="white" stroke="black" points="141,-76.5 141,-95.5 259,-95.5 259,-76.5 141,-76.5"/>
<text text-anchor="middle" x="200" y="-83.5" font-family="Helvetica,sans-Serif" font-size="10.00">denoptim.graph.DGraph</text>
</a>
</g>
</g>
<!-- Node0&#45;&gt;Node10 -->
<g id="edge7" class="edge">
<title>Node0&#45;&gt;Node10</title>
<path fill="none" stroke="midnightblue" d="M47.69,-269.88C53.88,-231.74 72.77,-148.82 124,-105 128.9,-100.81 134.6,-97.52 140.62,-94.95"/>
<polygon fill="midnightblue" stroke="midnightblue" points="44.17,-269.78 46.15,-280.19 51.09,-270.81 44.17,-269.78"/>
</g>
<!-- Node11 -->
<g id="node9" class="node">
<title>Node11</title>
<g id="a_node9"><a xlink:href="classdenoptim_1_1graph_1_1_symmetric_set.html" target="_top" xlink:title="Class representing a list of IDs pointing to instances that are related by some conventional criterio...">
<polygon fill="white" stroke="black" points="127,-38.5 127,-57.5 273,-57.5 273,-38.5 127,-38.5"/>
<text text-anchor="middle" x="200" y="-45.5" font-family="Helvetica,sans-Serif" font-size="10.00">denoptim.graph.SymmetricSet</text>
</a>
</g>
</g>
<!-- Node0&#45;&gt;Node11 -->
<g id="edge8" class="edge">
<title>Node0&#45;&gt;Node11</title>
<path fill="none" stroke="midnightblue" d="M46.01,-270.08C49.34,-226.48 63.54,-122.12 124,-67 128.17,-63.2 132.99,-60.13 138.13,-57.67"/>
<polygon fill="midnightblue" stroke="midnightblue" points="42.51,-270.03 45.36,-280.23 49.49,-270.48 42.51,-270.03"/>
</g>
<!-- Node12 -->
<g id="node10" class="node">
<title>Node12</title>
<g id="a_node10"><a xlink:href="classdenoptim_1_1graph_1_1_vertex.html" target="_top" xlink:title="A vertex is a data structure that has an identity and holds a list of AttachmentPoints.">
<polygon fill="white" stroke="black" points="143.5,-387.5 143.5,-406.5 256.5,-406.5 256.5,-387.5 143.5,-387.5"/>
<text text-anchor="middle" x="200" y="-394.5" font-family="Helvetica,sans-Serif" font-size="10.00">denoptim.graph.Vertex</text>
</a>
</g>
</g>
<!-- Node0&#45;&gt;Node12 -->
<g id="edge9" class="edge">
<title>Node0&#45;&gt;Node12</title>
<path fill="none" stroke="midnightblue" d="M56.46,-308.22C70.09,-328.37 94.72,-360.31 124,-378 130.44,-381.89 137.65,-384.99 144.98,-387.45"/>
<polygon fill="midnightblue" stroke="midnightblue" points="59.25,-306.09 50.84,-299.64 53.39,-309.92 59.25,-306.09"/>
</g>
<!-- Node16 -->
<g id="node14" class="node">
<title>Node16</title>
<g id="a_node14"><a xlink:href="classdenoptim_1_1graph_1_1rings_1_1_chain_link.html" target="_top" xlink:title="ChainLink represents a vertex in a closable chain.">
<polygon fill="white" stroke="black" points="124,-349.5 124,-368.5 276,-368.5 276,-349.5 124,-349.5"/>
<text text-anchor="middle" x="200" y="-356.5" font-family="Helvetica,sans-Serif" font-size="10.00">denoptim.graph.rings.ChainLink</text>
</a>
</g>
</g>
<!-- Node0&#45;&gt;Node16 -->
<g id="edge13" class="edge">
<title>Node0&#45;&gt;Node16</title>
<path fill="none" stroke="midnightblue" d="M65.69,-305.67C81.06,-316.65 102.94,-330.94 124,-340 132.76,-343.77 142.43,-346.91 151.83,-349.48"/>
<polygon fill="midnightblue" stroke="midnightblue" points="67.58,-302.72 57.44,-299.64 63.45,-308.37 67.58,-302.72"/>
</g>
<!-- Node17 -->
<g id="node15" class="node">
<title>Node17</title>
<g id="a_node15"><a xlink:href="classdenoptim_1_1graph_1_1rings_1_1_closable_chain.html" target="_top" xlink:title="ClosableChain represents a chain of fragments (chain links) that is closable (or candidate closable).">
<polygon fill="white" stroke="black" points="127,-300 127,-330 273,-330 273,-300 127,-300"/>
<text text-anchor="start" x="135" y="-318" font-family="Helvetica,sans-Serif" font-size="10.00">denoptim.graph.rings.Closable</text>
<text text-anchor="middle" x="200" y="-307" font-family="Helvetica,sans-Serif" font-size="10.00">Chain</text>
</a>
</g>
</g>
<!-- Node0&#45;&gt;Node17 -->
<g id="edge14" class="edge">
<title>Node0&#45;&gt;Node17</title>
<path fill="none" stroke="midnightblue" d="M83.7,-296.28C96.88,-298.42 112.06,-300.89 127,-303.31"/>
<polygon fill="midnightblue" stroke="midnightblue" points="84.04,-292.79 73.61,-294.64 82.92,-299.7 84.04,-292.79"/>
</g>
<!-- Node18 -->
<g id="node16" class="node">
<title>Node18</title>
<g id="a_node16"><a xlink:href="classdenoptim_1_1integration_1_1tinker_1_1_tinker_atom.html" target="_top" xlink:title="Based on the code from ffx.kenai.com Michael J.">
<polygon fill="white" stroke="black" points="134,-251 134,-281 266,-281 266,-251 134,-251"/>
<text text-anchor="start" x="142" y="-269" font-family="Helvetica,sans-Serif" font-size="10.00">denoptim.integration.tinker.</text>
<text text-anchor="middle" x="200" y="-258" font-family="Helvetica,sans-Serif" font-size="10.00">TinkerAtom</text>
</a>
</g>
</g>
<!-- Node0&#45;&gt;Node18 -->
<g id="edge15" class="edge">
<title>Node0&#45;&gt;Node18</title>
<path fill="none" stroke="midnightblue" d="M83.66,-283.98C98.86,-281.61 116.74,-278.82 133.82,-276.16"/>
<polygon fill="midnightblue" stroke="midnightblue" points="82.95,-280.54 73.61,-285.54 84.03,-287.46 82.95,-280.54"/>
</g>
<!-- Node19 -->
<g id="node17" class="node">
<title>Node19</title>
<g id="a_node17"><a xlink:href="classdenoptim_1_1integration_1_1tinker_1_1_tinker_bond.html" target="_top" xlink:title=" ">
<polygon fill="white" stroke="black" points="134,-202 134,-232 266,-232 266,-202 134,-202"/>
<text text-anchor="start" x="142" y="-220" font-family="Helvetica,sans-Serif" font-size="10.00">denoptim.integration.tinker.</text>
<text text-anchor="middle" x="200" y="-209" font-family="Helvetica,sans-Serif" font-size="10.00">TinkerBond</text>
</a>
</g>
</g>
<!-- Node0&#45;&gt;Node19 -->
<g id="edge16" class="edge">
<title>Node0&#45;&gt;Node19</title>
<path fill="none" stroke="midnightblue" d="M67.1,-274.73C82.54,-264.52 103.92,-251.31 124,-242 131.85,-238.37 140.37,-235.01 148.77,-232"/>
<polygon fill="midnightblue" stroke="midnightblue" points="65.09,-271.85 58.74,-280.34 69,-277.67 65.09,-271.85"/>
</g>
<!-- Node20 -->
<g id="node18" class="node">
<title>Node20</title>
<g id="a_node18"><a xlink:href="classdenoptim_1_1integration_1_1tinker_1_1_tinker_molecule.html" target="_top" xlink:title=" ">
<polygon fill="white" stroke="black" points="134,-153 134,-183 266,-183 266,-153 134,-153"/>
<text text-anchor="start" x="142" y="-171" font-family="Helvetica,sans-Serif" font-size="10.00">denoptim.integration.tinker.</text>
<text text-anchor="middle" x="200" y="-160" font-family="Helvetica,sans-Serif" font-size="10.00">TinkerMolecule</text>
</a>
</g>
</g>
<!-- Node0&#45;&gt;Node20 -->
<g id="edge17" class="edge">
<title>Node0&#45;&gt;Node20</title>
<path fill="none" stroke="midnightblue" d="M55.48,-271.61C68.76,-249.86 93.63,-213.98 124,-193 129.53,-189.18 135.7,-185.9 142.04,-183.11"/>
<polygon fill="midnightblue" stroke="midnightblue" points="52.3,-270.11 50.21,-280.5 58.32,-273.68 52.3,-270.11"/>
</g>
<!-- Node13 -->
<g id="node11" class="node">
<title>Node13</title>
<g id="a_node11"><a xlink:href="classdenoptim_1_1graph_1_1_empty_vertex.html" target="_top" xlink:title="An empty vertex has the behaviors of a vertex, but has no molecular structure.">
<polygon fill="white" stroke="black" points="312,-425.5 312,-444.5 452,-444.5 452,-425.5 312,-425.5"/>
<text text-anchor="middle" x="382" y="-432.5" font-family="Helvetica,sans-Serif" font-size="10.00">denoptim.graph.EmptyVertex</text>
</a>
</g>
</g>
<!-- Node12&#45;&gt;Node13 -->
<g id="edge10" class="edge">
<title>Node12&#45;&gt;Node13</title>
<path fill="none" stroke="midnightblue" d="M256.33,-408.68C281.86,-414.07 311.78,-420.39 335.91,-425.48"/>
<polygon fill="midnightblue" stroke="midnightblue" points="256.93,-405.23 246.42,-406.59 255.48,-412.08 256.93,-405.23"/>
</g>
<!-- Node14 -->
<g id="node12" class="node">
<title>Node14</title>
<g id="a_node12"><a xlink:href="classdenoptim_1_1graph_1_1_fragment.html" target="_top" xlink:title="Class representing a continuously connected portion of chemical object holding attachment points.">
<polygon fill="white" stroke="black" points="319,-387.5 319,-406.5 445,-406.5 445,-387.5 319,-387.5"/>
<text text-anchor="middle" x="382" y="-394.5" font-family="Helvetica,sans-Serif" font-size="10.00">denoptim.graph.Fragment</text>
</a>
</g>
</g>
<!-- Node12&#45;&gt;Node14 -->
<g id="edge11" class="edge">
<title>Node12&#45;&gt;Node14</title>
<path fill="none" stroke="midnightblue" d="M267.28,-397C284.12,-397 302.16,-397 318.8,-397"/>
<polygon fill="midnightblue" stroke="midnightblue" points="266.97,-393.5 256.97,-397 266.97,-400.5 266.97,-393.5"/>
</g>
<!-- Node15 -->
<g id="node13" class="node">
<title>Node15</title>
<g id="a_node13"><a xlink:href="classdenoptim_1_1graph_1_1_template.html" target="_top" xlink:title=" ">
<polygon fill="white" stroke="black" points="319.5,-349.5 319.5,-368.5 444.5,-368.5 444.5,-349.5 319.5,-349.5"/>
<text text-anchor="middle" x="382" y="-356.5" font-family="Helvetica,sans-Serif" font-size="10.00">denoptim.graph.Template</text>
</a>
</g>
</g>
<!-- Node12&#45;&gt;Node15 -->
<g id="edge12" class="edge">
<title>Node12&#45;&gt;Node15</title>
<path fill="none" stroke="midnightblue" d="M256.33,-385.32C281.86,-379.93 311.78,-373.61 335.91,-368.52"/>
<polygon fill="midnightblue" stroke="midnightblue" points="255.48,-381.92 246.42,-387.41 256.93,-388.77 255.48,-381.92"/>
</g>
<!-- Node5 -->
<g id="node19" class="node">
<title>Node5</title>
<g id="a_node19"><a xlink:title=" ">
<polygon fill="white" stroke="#bfbfbf" points="10,-469.5 10,-488.5 78,-488.5 78,-469.5 10,-469.5"/>
<text text-anchor="middle" x="44" y="-476.5" font-family="Helvetica,sans-Serif" font-size="10.00">Comparable</text>
</a>
</g>
</g>
<!-- Node5&#45;&gt;Node4 -->
<g id="edge18" class="edge">
<title>Node5&#45;&gt;Node4</title>
<path fill="none" stroke="midnightblue" d="M83.65,-491.73C96.44,-495.81 110.79,-500.24 124,-504 135.5,-507.27 148.07,-510.57 159.57,-513.47"/>
<polygon fill="midnightblue" stroke="midnightblue" points="84.36,-488.28 73.77,-488.55 82.22,-494.94 84.36,-488.28"/>
</g>
<!-- Node5&#45;&gt;Node6 -->
<g id="edge19" class="edge">
<title>Node5&#45;&gt;Node6</title>
<path fill="none" stroke="midnightblue" d="M88.16,-479C101.9,-479 117.44,-479 132.44,-479"/>
<polygon fill="midnightblue" stroke="midnightblue" points="88.04,-475.5 78.04,-479 88.04,-482.5 88.04,-475.5"/>
</g>
<!-- Node5&#45;&gt;Node7 -->
<g id="edge20" class="edge">
<title>Node5&#45;&gt;Node7</title>
<path fill="none" stroke="midnightblue" d="M85.3,-466.47C97.69,-462.69 111.38,-458.6 124,-455 136.44,-451.45 150.1,-447.75 162.31,-444.51"/>
<polygon fill="midnightblue" stroke="midnightblue" points="84.23,-463.13 75.69,-469.41 86.28,-469.83 84.23,-463.13"/>
</g>
<!-- Node2 -->
<g id="node20" class="node">
<title>Node2</title>
<g id="a_node20"><a xlink:title=" ">
<polygon fill="white" stroke="#bfbfbf" points="16,-551.5 16,-570.5 72,-570.5 72,-551.5 16,-551.5"/>
<text text-anchor="middle" x="44" y="-558.5" font-family="Helvetica,sans-Serif" font-size="10.00">ArrayList</text>
</a>
</g>
</g>
<!-- Node2&#45;&gt;Node1 -->
<g id="edge21" class="edge">
<title>Node2&#45;&gt;Node1</title>
<path fill="none" stroke="midnightblue" d="M82.65,-561C100.34,-561 121.82,-561 141.48,-561"/>
<polygon fill="midnightblue" stroke="midnightblue" points="82.18,-557.5 72.18,-561 82.18,-564.5 82.18,-557.5"/>
</g>
<!-- Node9 -->
<g id="node21" class="node">
<title>Node9</title>
<g id="a_node21"><a xlink:title=" ">
<polygon fill="white" stroke="#bfbfbf" points="0,-0.5 0,-19.5 88,-19.5 88,-0.5 0,-0.5"/>
<text text-anchor="middle" x="44" y="-7.5" font-family="Helvetica,sans-Serif" font-size="10.00">LinkedHashMap</text>
</a>
</g>
</g>
<!-- Node9&#45;&gt;Node8 -->
<g id="edge22" class="edge">
<title>Node9&#45;&gt;Node8</title>
<path fill="none" stroke="midnightblue" d="M98.54,-10C109.47,-10 121.1,-10 132.42,-10"/>
<polygon fill="midnightblue" stroke="midnightblue" points="98.31,-6.5 88.31,-10 98.31,-13.5 98.31,-6.5"/>
</g>
</g>
</svg>
