<?xml version="1.0" encoding="UTF-8" standalone="no"?>
<!DOCTYPE svg PUBLIC "-//W3C//DTD SVG 1.1//EN"
 "http://www.w3.org/Graphics/SVG/1.1/DTD/svg11.dtd">
<!-- Generated by graphviz version 3.0.0 (20220413.0242)
 -->
<!-- Title: Graphical Class Hierarchy Pages: 1 -->
<svg width="236pt" height="78pt"
 viewBox="0.00 0.00 236.00 77.50" xmlns="http://www.w3.org/2000/svg" xmlns:xlink="http://www.w3.org/1999/xlink">
<g id="graph0" class="graph" transform="scale(1 1) rotate(0) translate(4 73.5)">
<title>Graphical Class Hierarchy</title>
<polygon fill="white" stroke="transparent" points="-4,4 -4,-73.5 232,-73.5 232,4 -4,4"/>
<!-- Node0 -->
<g id="node1" class="node">
<title>Node0</title>
<g id="a_node1"><a xlink:title=" ">
<polygon fill="white" stroke="#bfbfbf" points="0,-22.5 0,-41.5 47,-41.5 47,-22.5 0,-22.5"/>
<text text-anchor="middle" x="23.5" y="-29.5" font-family="Helvetica,sans-Serif" font-size="10.00">Thread</text>
</a>
</g>
</g>
<!-- Node1 -->
<g id="node2" class="node">
<title>Node1</title>
<g id="a_node2"><a xlink:href="classdenoptim_1_1task_1_1_static_task_manager_1_1_shut_down_hook.html" target="_top" xlink:title="Shutdown hook that stops all child tasks upon shutdown of JavaVM.">
<polygon fill="white" stroke="black" points="92,-39 92,-69 219,-69 219,-39 92,-39"/>
<text text-anchor="start" x="100" y="-57" font-family="Helvetica,sans-Serif" font-size="10.00">denoptim.task.StaticTask</text>
<text text-anchor="middle" x="155.5" y="-46" font-family="Helvetica,sans-Serif" font-size="10.00">Manager.ShutDownHook</text>
</a>
</g>
</g>
<!-- Node0&#45;&gt;Node1 -->
<g id="edge1" class="edge">
<title>Node0&#45;&gt;Node1</title>
<path fill="none" stroke="midnightblue" d="M57.16,-37.53C67.75,-39.32 79.88,-41.37 91.9,-43.41"/>
<polygon fill="midnightblue" stroke="midnightblue" points="57.59,-34.05 47.14,-35.83 56.42,-40.95 57.59,-34.05"/>
</g>
<!-- Node2 -->
<g id="node3" class="node">
<title>Node2</title>
<g id="a_node3"><a xlink:href="classdenoptim_1_1task_1_1_stream_gobbler.html" target="_top" xlink:title="See http://www.javaworld.com/jw&#45;12&#45;2000/jw&#45;1229&#45;traps.html?page=4.">
<polygon fill="white" stroke="black" points="83,-0.5 83,-19.5 228,-19.5 228,-0.5 83,-0.5"/>
<text text-anchor="middle" x="155.5" y="-7.5" font-family="Helvetica,sans-Serif" font-size="10.00">denoptim.task.StreamGobbler</text>
</a>
</g>
</g>
<!-- Node0&#45;&gt;Node2 -->
<g id="edge2" class="edge">
<title>Node0&#45;&gt;Node2</title>
<path fill="none" stroke="midnightblue" d="M57.08,-26.49C69.58,-24.37 84.23,-21.89 98.31,-19.51"/>
<polygon fill="midnightblue" stroke="midnightblue" points="56.42,-23.05 47.14,-28.17 57.59,-29.95 56.42,-23.05"/>
</g>
</g>
</svg>
